<svg width="519" height="414" viewBox="0 0 519 414" fill="none" xmlns="http://www.w3.org/2000/svg">
<path d="M81.0114 58V46.3636H83.4716V55.9716H88.4602V58H81.0114ZM92.5327 58.1648C91.9759 58.1648 91.4796 58.0682 91.044 57.875C90.6084 57.678 90.2637 57.3883 90.0099 57.0057C89.7599 56.6193 89.6349 56.1383 89.6349 55.5625C89.6349 55.0777 89.724 54.6705 89.902 54.3409C90.08 54.0114 90.3224 53.7462 90.6293 53.5455C90.9361 53.3447 91.2846 53.1932 91.6747 53.0909C92.0687 52.9886 92.4815 52.9167 92.9134 52.875C93.4209 52.822 93.83 52.7727 94.1406 52.7273C94.4512 52.678 94.6766 52.6061 94.8168 52.5114C94.9569 52.4167 95.027 52.2765 95.027 52.0909V52.0568C95.027 51.697 94.9134 51.4186 94.6861 51.2216C94.4626 51.0246 94.1444 50.9261 93.7315 50.9261C93.2959 50.9261 92.9493 51.0227 92.6918 51.2159C92.4342 51.4053 92.2637 51.6439 92.1804 51.9318L89.9418 51.75C90.0554 51.2197 90.2789 50.7614 90.6122 50.375C90.9455 49.9848 91.3755 49.6856 91.902 49.4773C92.4323 49.2652 93.0459 49.1591 93.7429 49.1591C94.2277 49.1591 94.6918 49.2159 95.1349 49.3295C95.5819 49.4432 95.9777 49.6193 96.3224 49.858C96.6709 50.0966 96.9455 50.4034 97.1463 50.7784C97.3471 51.1496 97.4474 51.5947 97.4474 52.1136V58H95.152V56.7898H95.0838C94.9437 57.0625 94.7562 57.303 94.5213 57.5114C94.2865 57.7159 94.0043 57.8769 93.6747 57.9943C93.3452 58.108 92.9645 58.1648 92.5327 58.1648ZM93.2259 56.4943C93.5819 56.4943 93.8963 56.4242 94.169 56.2841C94.4418 56.1402 94.6558 55.947 94.8111 55.7045C94.9664 55.4621 95.044 55.1875 95.044 54.8807V53.9545C94.9683 54.0038 94.8641 54.0492 94.7315 54.0909C94.6027 54.1288 94.4569 54.1648 94.294 54.1989C94.1312 54.2292 93.9683 54.2576 93.8054 54.2841C93.6425 54.3068 93.4948 54.3277 93.3622 54.3466C93.0781 54.3883 92.83 54.4545 92.6179 54.5455C92.4058 54.6364 92.241 54.7595 92.1236 54.9148C92.0062 55.0663 91.9474 55.2557 91.9474 55.483C91.9474 55.8125 92.0668 56.0644 92.3054 56.2386C92.5478 56.4091 92.8546 56.4943 93.2259 56.4943ZM99.3707 58V46.3636H101.791V50.7386H101.865C101.971 50.5038 102.125 50.2652 102.325 50.0227C102.53 49.7765 102.795 49.572 103.121 49.4091C103.45 49.2424 103.859 49.1591 104.348 49.1591C104.984 49.1591 105.571 49.3258 106.109 49.6591C106.647 49.9886 107.077 50.4867 107.399 51.1534C107.721 51.8163 107.882 52.6477 107.882 53.6477C107.882 54.6212 107.725 55.4432 107.411 56.1136C107.1 56.7803 106.676 57.286 106.138 57.6307C105.604 57.9716 105.005 58.142 104.342 58.142C103.873 58.142 103.473 58.0644 103.143 57.9091C102.818 57.7538 102.551 57.5587 102.342 57.3239C102.134 57.0852 101.975 56.8447 101.865 56.6023H101.757V58H99.3707ZM101.74 53.6364C101.74 54.1553 101.812 54.608 101.956 54.9943C102.1 55.3807 102.308 55.6818 102.581 55.8977C102.854 56.1098 103.185 56.2159 103.575 56.2159C103.969 56.2159 104.303 56.108 104.575 55.892C104.848 55.6723 105.054 55.3693 105.195 54.983C105.339 54.5928 105.411 54.1439 105.411 53.6364C105.411 53.1326 105.34 52.6894 105.2 52.3068C105.06 51.9242 104.854 51.625 104.581 51.4091C104.308 51.1932 103.973 51.0852 103.575 51.0852C103.181 51.0852 102.848 51.1894 102.575 51.3977C102.306 51.6061 102.1 51.9015 101.956 52.2841C101.812 52.6667 101.74 53.1174 101.74 53.6364ZM113.474 58.1705C112.577 58.1705 111.804 57.9886 111.156 57.625C110.512 57.2576 110.016 56.7386 109.668 56.0682C109.319 55.3939 109.145 54.5966 109.145 53.6761C109.145 52.7784 109.319 51.9905 109.668 51.3125C110.016 50.6345 110.507 50.1061 111.139 49.7273C111.776 49.3485 112.522 49.1591 113.378 49.1591C113.954 49.1591 114.49 49.2519 114.986 49.4375C115.486 49.6193 115.921 49.8939 116.293 50.2614C116.668 50.6288 116.959 51.0909 117.168 51.6477C117.376 52.2008 117.48 52.8485 117.48 53.5909V54.2557H110.111V52.7557H115.202C115.202 52.4072 115.126 52.0985 114.974 51.8295C114.823 51.5606 114.613 51.3504 114.344 51.1989C114.079 51.0436 113.77 50.9659 113.418 50.9659C113.05 50.9659 112.724 51.0511 112.44 51.2216C112.16 51.3883 111.94 51.6136 111.781 51.8977C111.622 52.178 111.541 52.4905 111.537 52.8352V54.2614C111.537 54.6932 111.616 55.0663 111.776 55.3807C111.938 55.6951 112.168 55.9375 112.463 56.108C112.759 56.2784 113.109 56.3636 113.514 56.3636C113.783 56.3636 114.029 56.3258 114.253 56.25C114.476 56.1742 114.668 56.0606 114.827 55.9091C114.986 55.7576 115.107 55.572 115.19 55.3523L117.429 55.5C117.315 56.0379 117.082 56.5076 116.73 56.9091C116.382 57.3068 115.931 57.6174 115.378 57.8409C114.829 58.0606 114.194 58.1705 113.474 58.1705ZM121.48 46.3636V58H119.06V46.3636H121.48Z" fill="#344054"/>
<path d="M80.7727 79.6136V78.3636H89.5V79.6136H85.8409V90H84.4318V79.6136H80.7727ZM92.8338 84.75V90H91.4929V78.3636H92.8338V82.6364H92.9474C93.152 82.1856 93.4588 81.8277 93.8679 81.5625C94.2808 81.2936 94.83 81.1591 95.5156 81.1591C96.1103 81.1591 96.6312 81.2784 97.0781 81.517C97.5251 81.7519 97.8717 82.1136 98.1179 82.6023C98.3679 83.0871 98.4929 83.7045 98.4929 84.4545V90H97.152V84.5455C97.152 83.8523 96.9721 83.3163 96.6122 82.9375C96.2562 82.5549 95.7618 82.3636 95.1293 82.3636C94.6899 82.3636 94.2959 82.4564 93.9474 82.642C93.6027 82.8277 93.33 83.0985 93.1293 83.4545C92.9323 83.8106 92.8338 84.2424 92.8338 84.75ZM100.946 90V81.2727H102.287V90H100.946ZM101.628 79.8182C101.366 79.8182 101.141 79.7292 100.952 79.5511C100.766 79.3731 100.673 79.1591 100.673 78.9091C100.673 78.6591 100.766 78.4451 100.952 78.267C101.141 78.089 101.366 78 101.628 78C101.889 78 102.113 78.089 102.298 78.267C102.488 78.4451 102.582 78.6591 102.582 78.9091C102.582 79.1591 102.488 79.3731 102.298 79.5511C102.113 79.7292 101.889 79.8182 101.628 79.8182ZM110.925 83.2273L109.72 83.5682C109.644 83.3674 109.533 83.1723 109.385 82.983C109.241 82.7898 109.044 82.6307 108.794 82.5057C108.544 82.3807 108.224 82.3182 107.834 82.3182C107.3 82.3182 106.855 82.4413 106.499 82.6875C106.146 82.9299 105.97 83.2386 105.97 83.6136C105.97 83.947 106.091 84.2102 106.334 84.4034C106.576 84.5966 106.955 84.7576 107.47 84.8864L108.766 85.2045C109.546 85.3939 110.127 85.6837 110.51 86.0739C110.893 86.4602 111.084 86.9583 111.084 87.5682C111.084 88.0682 110.94 88.5152 110.652 88.9091C110.368 89.303 109.97 89.6136 109.459 89.8409C108.947 90.0682 108.353 90.1818 107.675 90.1818C106.785 90.1818 106.048 89.9886 105.464 89.6023C104.881 89.2159 104.512 88.6515 104.357 87.9091L105.629 87.5909C105.75 88.0606 105.98 88.4129 106.317 88.6477C106.658 88.8826 107.103 89 107.652 89C108.277 89 108.773 88.8674 109.141 88.6023C109.512 88.3333 109.697 88.0114 109.697 87.6364C109.697 87.3333 109.591 87.0795 109.379 86.875C109.167 86.6667 108.841 86.5114 108.402 86.4091L106.947 86.0682C106.148 85.8788 105.561 85.5852 105.186 85.1875C104.815 84.786 104.629 84.2841 104.629 83.6818C104.629 83.1894 104.768 82.7538 105.044 82.375C105.324 81.9962 105.705 81.6989 106.186 81.483C106.671 81.267 107.22 81.1591 107.834 81.1591C108.697 81.1591 109.375 81.3485 109.868 81.7273C110.364 82.1061 110.716 82.6061 110.925 83.2273ZM117.602 90V81.2727H118.943V90H117.602ZM118.284 79.8182C118.023 79.8182 117.797 79.7292 117.608 79.5511C117.422 79.3731 117.33 79.1591 117.33 78.9091C117.33 78.6591 117.422 78.4451 117.608 78.267C117.797 78.089 118.023 78 118.284 78C118.545 78 118.769 78.089 118.955 78.267C119.144 78.4451 119.239 78.6591 119.239 78.9091C119.239 79.1591 119.144 79.3731 118.955 79.5511C118.769 79.7292 118.545 79.8182 118.284 79.8182ZM127.581 83.2273L126.376 83.5682C126.301 83.3674 126.189 83.1723 126.041 82.983C125.897 82.7898 125.7 82.6307 125.45 82.5057C125.2 82.3807 124.88 82.3182 124.49 82.3182C123.956 82.3182 123.511 82.4413 123.155 82.6875C122.803 82.9299 122.626 83.2386 122.626 83.6136C122.626 83.947 122.748 84.2102 122.99 84.4034C123.232 84.5966 123.611 84.7576 124.126 84.8864L125.422 85.2045C126.202 85.3939 126.784 85.6837 127.166 86.0739C127.549 86.4602 127.74 86.9583 127.74 87.5682C127.74 88.0682 127.596 88.5152 127.308 88.9091C127.024 89.303 126.626 89.6136 126.115 89.8409C125.604 90.0682 125.009 90.1818 124.331 90.1818C123.441 90.1818 122.704 89.9886 122.121 89.6023C121.537 89.2159 121.168 88.6515 121.013 87.9091L122.286 87.5909C122.407 88.0606 122.636 88.4129 122.973 88.6477C123.314 88.8826 123.759 89 124.308 89C124.933 89 125.429 88.8674 125.797 88.6023C126.168 88.3333 126.354 88.0114 126.354 87.6364C126.354 87.3333 126.248 87.0795 126.036 86.875C125.823 86.6667 125.498 86.5114 125.058 86.4091L123.604 86.0682C122.804 85.8788 122.217 85.5852 121.842 85.1875C121.471 84.786 121.286 84.2841 121.286 83.6818C121.286 83.1894 121.424 82.7538 121.7 82.375C121.981 81.9962 122.361 81.6989 122.842 81.483C123.327 81.267 123.876 81.1591 124.49 81.1591C125.354 81.1591 126.032 81.3485 126.524 81.7273C127.02 82.1061 127.373 82.6061 127.581 83.2273ZM138.054 81.2727V82.4091H133.531V81.2727H138.054ZM134.849 79.1818H136.19V87.5C136.19 87.8788 136.245 88.1629 136.355 88.3523C136.469 88.5379 136.613 88.6629 136.787 88.7273C136.965 88.7879 137.152 88.8182 137.349 88.8182C137.497 88.8182 137.618 88.8106 137.713 88.7955C137.808 88.7765 137.884 88.7614 137.94 88.75L138.213 89.9545C138.122 89.9886 137.995 90.0227 137.832 90.0568C137.67 90.0947 137.463 90.1136 137.213 90.1136C136.834 90.1136 136.463 90.0322 136.099 89.8693C135.74 89.7064 135.44 89.4583 135.202 89.125C134.967 88.7917 134.849 88.3712 134.849 87.8636V79.1818ZM141.599 84.75V90H140.259V78.3636H141.599V82.6364H141.713C141.918 82.1856 142.224 81.8277 142.634 81.5625C143.046 81.2936 143.596 81.1591 144.281 81.1591C144.876 81.1591 145.397 81.2784 145.844 81.517C146.291 81.7519 146.637 82.1136 146.884 82.6023C147.134 83.0871 147.259 83.7045 147.259 84.4545V90H145.918V84.5455C145.918 83.8523 145.738 83.3163 145.378 82.9375C145.022 82.5549 144.527 82.3636 143.895 82.3636C143.455 82.3636 143.062 82.4564 142.713 82.642C142.368 82.8277 142.096 83.0985 141.895 83.4545C141.698 83.8106 141.599 84.2424 141.599 84.75ZM153.371 90.1818C152.53 90.1818 151.804 89.9962 151.195 89.625C150.589 89.25 150.121 88.7273 149.791 88.0568C149.465 87.3826 149.303 86.5985 149.303 85.7045C149.303 84.8106 149.465 84.0227 149.791 83.3409C150.121 82.6553 150.579 82.1212 151.166 81.7386C151.757 81.3523 152.446 81.1591 153.234 81.1591C153.689 81.1591 154.138 81.2348 154.581 81.3864C155.024 81.5379 155.428 81.7841 155.791 82.125C156.155 82.4621 156.445 82.9091 156.661 83.4659C156.876 84.0227 156.984 84.7083 156.984 85.5227V86.0909H150.257V84.9318H155.621C155.621 84.4394 155.522 84 155.325 83.6136C155.132 83.2273 154.856 82.9223 154.496 82.6989C154.14 82.4754 153.719 82.3636 153.234 82.3636C152.7 82.3636 152.238 82.4962 151.848 82.7614C151.462 83.0227 151.164 83.3636 150.956 83.7841C150.748 84.2045 150.643 84.6553 150.643 85.1364V85.9091C150.643 86.5682 150.757 87.1269 150.984 87.5852C151.215 88.0398 151.536 88.3864 151.945 88.625C152.354 88.8598 152.829 88.9773 153.371 88.9773C153.723 88.9773 154.041 88.928 154.325 88.8295C154.613 88.7273 154.861 88.5758 155.07 88.375C155.278 88.1705 155.439 87.9167 155.553 87.6136L156.848 87.9773C156.712 88.4167 156.482 88.803 156.161 89.1364C155.839 89.4659 155.441 89.7235 154.967 89.9091C154.494 90.0909 153.962 90.1818 153.371 90.1818ZM164.865 84.75V90H163.524V78.3636H164.865V82.6364H164.979C165.183 82.1856 165.49 81.8277 165.899 81.5625C166.312 81.2936 166.861 81.1591 167.547 81.1591C168.142 81.1591 168.662 81.2784 169.109 81.517C169.556 81.7519 169.903 82.1136 170.149 82.6023C170.399 83.0871 170.524 83.7045 170.524 84.4545V90H169.183V84.5455C169.183 83.8523 169.003 83.3163 168.643 82.9375C168.287 82.5549 167.793 82.3636 167.161 82.3636C166.721 82.3636 166.327 82.4564 165.979 82.642C165.634 82.8277 165.361 83.0985 165.161 83.4545C164.964 83.8106 164.865 84.2424 164.865 84.75ZM172.977 90V81.2727H174.318V90H172.977ZM173.659 79.8182C173.398 79.8182 173.172 79.7292 172.983 79.5511C172.797 79.3731 172.705 79.1591 172.705 78.9091C172.705 78.6591 172.797 78.4451 172.983 78.267C173.172 78.089 173.398 78 173.659 78C173.92 78 174.144 78.089 174.33 78.267C174.519 78.4451 174.614 78.6591 174.614 78.9091C174.614 79.1591 174.519 79.3731 174.33 79.5511C174.144 79.7292 173.92 79.8182 173.659 79.8182ZM178.115 84.75V90H176.774V81.2727H178.07V82.6364H178.183C178.388 82.1932 178.698 81.8371 179.115 81.5682C179.532 81.2955 180.07 81.1591 180.729 81.1591C181.32 81.1591 181.837 81.2803 182.28 81.5227C182.723 81.7614 183.068 82.125 183.314 82.6136C183.56 83.0985 183.683 83.7121 183.683 84.4545V90H182.342V84.5455C182.342 83.8598 182.164 83.3258 181.808 82.9432C181.452 82.5568 180.964 82.3636 180.342 82.3636C179.914 82.3636 179.532 82.4564 179.195 82.642C178.861 82.8277 178.598 83.0985 178.405 83.4545C178.212 83.8106 178.115 84.2424 178.115 84.75ZM189.929 81.2727V82.4091H185.406V81.2727H189.929ZM186.724 79.1818H188.065V87.5C188.065 87.8788 188.12 88.1629 188.23 88.3523C188.344 88.5379 188.488 88.6629 188.662 88.7273C188.84 88.7879 189.027 88.8182 189.224 88.8182C189.372 88.8182 189.493 88.8106 189.588 88.7955C189.683 88.7765 189.759 88.7614 189.815 88.75L190.088 89.9545C189.997 89.9886 189.87 90.0227 189.707 90.0568C189.545 90.0947 189.338 90.1136 189.088 90.1136C188.709 90.1136 188.338 90.0322 187.974 89.8693C187.615 89.7064 187.315 89.4583 187.077 89.125C186.842 88.7917 186.724 88.3712 186.724 87.8636V79.1818ZM200.241 81.2727V82.4091H195.719V81.2727H200.241ZM197.037 79.1818H198.378V87.5C198.378 87.8788 198.433 88.1629 198.543 88.3523C198.656 88.5379 198.8 88.6629 198.974 88.7273C199.152 88.7879 199.34 88.8182 199.537 88.8182C199.685 88.8182 199.806 88.8106 199.901 88.7955C199.995 88.7765 200.071 88.7614 200.128 88.75L200.401 89.9545C200.31 89.9886 200.183 90.0227 200.02 90.0568C199.857 90.0947 199.651 90.1136 199.401 90.1136C199.022 90.1136 198.651 90.0322 198.287 89.8693C197.927 89.7064 197.628 89.4583 197.389 89.125C197.154 88.7917 197.037 88.3712 197.037 87.8636V79.1818ZM205.824 90.1818C204.983 90.1818 204.258 89.9962 203.648 89.625C203.042 89.25 202.574 88.7273 202.244 88.0568C201.919 87.3826 201.756 86.5985 201.756 85.7045C201.756 84.8106 201.919 84.0227 202.244 83.3409C202.574 82.6553 203.032 82.1212 203.619 81.7386C204.21 81.3523 204.9 81.1591 205.688 81.1591C206.142 81.1591 206.591 81.2348 207.034 81.3864C207.477 81.5379 207.881 81.7841 208.244 82.125C208.608 82.4621 208.898 82.9091 209.114 83.4659C209.33 84.0227 209.438 84.7083 209.438 85.5227V86.0909H202.71V84.9318H208.074C208.074 84.4394 207.975 84 207.778 83.6136C207.585 83.2273 207.309 82.9223 206.949 82.6989C206.593 82.4754 206.172 82.3636 205.688 82.3636C205.153 82.3636 204.691 82.4962 204.301 82.7614C203.915 83.0227 203.617 83.3636 203.409 83.7841C203.201 84.2045 203.097 84.6553 203.097 85.1364V85.9091C203.097 86.5682 203.21 87.1269 203.438 87.5852C203.669 88.0398 203.989 88.3864 204.398 88.625C204.807 88.8598 205.282 88.9773 205.824 88.9773C206.176 88.9773 206.494 88.928 206.778 88.8295C207.066 88.7273 207.314 88.5758 207.523 88.375C207.731 88.1705 207.892 87.9167 208.006 87.6136L209.301 87.9773C209.165 88.4167 208.936 88.803 208.614 89.1364C208.292 89.4659 207.894 89.7235 207.42 89.9091C206.947 90.0909 206.415 90.1818 205.824 90.1818ZM212.243 81.2727L214.334 84.8409L216.425 81.2727H217.97L215.152 85.6364L217.97 90H216.425L214.334 86.6136L212.243 90H210.697L213.47 85.6364L210.697 81.2727H212.243ZM223.679 81.2727V82.4091H219.156V81.2727H223.679ZM220.474 79.1818H221.815V87.5C221.815 87.8788 221.87 88.1629 221.98 88.3523C222.094 88.5379 222.238 88.6629 222.412 88.7273C222.59 88.7879 222.777 88.8182 222.974 88.8182C223.122 88.8182 223.243 88.8106 223.338 88.7955C223.433 88.7765 223.509 88.7614 223.565 88.75L223.838 89.9545C223.747 89.9886 223.62 90.0227 223.457 90.0568C223.295 90.0947 223.088 90.1136 222.838 90.1136C222.459 90.1136 222.088 90.0322 221.724 89.8693C221.365 89.7064 221.065 89.4583 220.827 89.125C220.592 88.7917 220.474 88.3712 220.474 87.8636V79.1818Z" fill="#667085"/>
<rect x="80.5" y="100.5" width="360" height="47" rx="3.5" fill="white"/>
<path d="M96.7727 119.614V118.364H105.5V119.614H101.841V130H100.432V119.614H96.7727ZM109.886 130.182C109.045 130.182 108.32 129.996 107.71 129.625C107.104 129.25 106.636 128.727 106.307 128.057C105.981 127.383 105.818 126.598 105.818 125.705C105.818 124.811 105.981 124.023 106.307 123.341C106.636 122.655 107.095 122.121 107.682 121.739C108.273 121.352 108.962 121.159 109.75 121.159C110.205 121.159 110.653 121.235 111.097 121.386C111.54 121.538 111.943 121.784 112.307 122.125C112.67 122.462 112.96 122.909 113.176 123.466C113.392 124.023 113.5 124.708 113.5 125.523V126.091H106.773V124.932H112.136C112.136 124.439 112.038 124 111.841 123.614C111.648 123.227 111.371 122.922 111.011 122.699C110.655 122.475 110.235 122.364 109.75 122.364C109.216 122.364 108.754 122.496 108.364 122.761C107.977 123.023 107.68 123.364 107.472 123.784C107.263 124.205 107.159 124.655 107.159 125.136V125.909C107.159 126.568 107.273 127.127 107.5 127.585C107.731 128.04 108.051 128.386 108.46 128.625C108.869 128.86 109.345 128.977 109.886 128.977C110.239 128.977 110.557 128.928 110.841 128.83C111.129 128.727 111.377 128.576 111.585 128.375C111.794 128.17 111.955 127.917 112.068 127.614L113.364 127.977C113.227 128.417 112.998 128.803 112.676 129.136C112.354 129.466 111.956 129.723 111.483 129.909C111.009 130.091 110.477 130.182 109.886 130.182ZM116.305 121.273L118.396 124.841L120.487 121.273H122.033L119.214 125.636L122.033 130H120.487L118.396 126.614L116.305 130H114.76L117.533 125.636L114.76 121.273H116.305ZM127.741 121.273V122.409H123.219V121.273H127.741ZM124.537 119.182H125.878V127.5C125.878 127.879 125.933 128.163 126.043 128.352C126.156 128.538 126.3 128.663 126.474 128.727C126.652 128.788 126.84 128.818 127.037 128.818C127.185 128.818 127.306 128.811 127.401 128.795C127.495 128.777 127.571 128.761 127.628 128.75L127.901 129.955C127.81 129.989 127.683 130.023 127.52 130.057C127.357 130.095 127.151 130.114 126.901 130.114C126.522 130.114 126.151 130.032 125.787 129.869C125.427 129.706 125.128 129.458 124.889 129.125C124.654 128.792 124.537 128.371 124.537 127.864V119.182ZM137.781 133.455C137.134 133.455 136.577 133.371 136.111 133.205C135.645 133.042 135.257 132.826 134.946 132.557C134.639 132.292 134.395 132.008 134.213 131.705L135.281 130.955C135.402 131.114 135.556 131.295 135.741 131.5C135.927 131.708 136.181 131.888 136.503 132.04C136.829 132.195 137.255 132.273 137.781 132.273C138.486 132.273 139.067 132.102 139.526 131.761C139.984 131.42 140.213 130.886 140.213 130.159V128.386H140.099C140.001 128.545 139.861 128.742 139.679 128.977C139.501 129.208 139.243 129.415 138.906 129.597C138.573 129.775 138.122 129.864 137.554 129.864C136.849 129.864 136.217 129.697 135.656 129.364C135.099 129.03 134.658 128.545 134.332 127.909C134.01 127.273 133.849 126.5 133.849 125.591C133.849 124.697 134.007 123.919 134.321 123.256C134.635 122.589 135.073 122.074 135.634 121.71C136.194 121.343 136.842 121.159 137.577 121.159C138.145 121.159 138.596 121.254 138.929 121.443C139.266 121.629 139.524 121.841 139.702 122.08C139.884 122.314 140.024 122.508 140.122 122.659H140.259V121.273H141.554V130.25C141.554 131 141.384 131.61 141.043 132.08C140.705 132.553 140.251 132.9 139.679 133.119C139.111 133.343 138.478 133.455 137.781 133.455ZM137.736 128.659C138.274 128.659 138.728 128.536 139.099 128.29C139.471 128.044 139.753 127.689 139.946 127.227C140.139 126.765 140.236 126.212 140.236 125.568C140.236 124.939 140.141 124.384 139.952 123.903C139.762 123.422 139.482 123.045 139.111 122.773C138.74 122.5 138.281 122.364 137.736 122.364C137.168 122.364 136.694 122.508 136.315 122.795C135.94 123.083 135.658 123.47 135.469 123.955C135.283 124.439 135.19 124.977 135.19 125.568C135.19 126.174 135.285 126.71 135.474 127.176C135.668 127.638 135.952 128.002 136.327 128.267C136.705 128.528 137.175 128.659 137.736 128.659ZM147.554 130.182C146.766 130.182 146.075 129.994 145.48 129.619C144.889 129.244 144.427 128.72 144.094 128.045C143.764 127.371 143.599 126.583 143.599 125.682C143.599 124.773 143.764 123.979 144.094 123.301C144.427 122.623 144.889 122.097 145.48 121.722C146.075 121.347 146.766 121.159 147.554 121.159C148.342 121.159 149.031 121.347 149.622 121.722C150.217 122.097 150.679 122.623 151.009 123.301C151.342 123.979 151.509 124.773 151.509 125.682C151.509 126.583 151.342 127.371 151.009 128.045C150.679 128.72 150.217 129.244 149.622 129.619C149.031 129.994 148.342 130.182 147.554 130.182ZM147.554 128.977C148.152 128.977 148.645 128.824 149.031 128.517C149.418 128.21 149.704 127.807 149.889 127.307C150.075 126.807 150.168 126.265 150.168 125.682C150.168 125.098 150.075 124.555 149.889 124.051C149.704 123.547 149.418 123.14 149.031 122.83C148.645 122.519 148.152 122.364 147.554 122.364C146.955 122.364 146.463 122.519 146.077 122.83C145.69 123.14 145.404 123.547 145.219 124.051C145.033 124.555 144.94 125.098 144.94 125.682C144.94 126.265 145.033 126.807 145.219 127.307C145.404 127.807 145.69 128.21 146.077 128.517C146.463 128.824 146.955 128.977 147.554 128.977ZM157.214 130.182C156.374 130.182 155.648 129.996 155.038 129.625C154.432 129.25 153.964 128.727 153.635 128.057C153.309 127.383 153.146 126.598 153.146 125.705C153.146 124.811 153.309 124.023 153.635 123.341C153.964 122.655 154.423 122.121 155.01 121.739C155.601 121.352 156.29 121.159 157.078 121.159C157.533 121.159 157.982 121.235 158.425 121.386C158.868 121.538 159.271 121.784 159.635 122.125C159.999 122.462 160.288 122.909 160.504 123.466C160.72 124.023 160.828 124.708 160.828 125.523V126.091H154.101V124.932H159.464C159.464 124.439 159.366 124 159.169 123.614C158.976 123.227 158.699 122.922 158.339 122.699C157.983 122.475 157.563 122.364 157.078 122.364C156.544 122.364 156.082 122.496 155.692 122.761C155.305 123.023 155.008 123.364 154.8 123.784C154.591 124.205 154.487 124.655 154.487 125.136V125.909C154.487 126.568 154.601 127.127 154.828 127.585C155.059 128.04 155.379 128.386 155.788 128.625C156.197 128.86 156.673 128.977 157.214 128.977C157.567 128.977 157.885 128.928 158.169 128.83C158.457 128.727 158.705 128.576 158.913 128.375C159.122 128.17 159.283 127.917 159.396 127.614L160.692 127.977C160.555 128.417 160.326 128.803 160.004 129.136C159.682 129.466 159.285 129.723 158.811 129.909C158.338 130.091 157.805 130.182 157.214 130.182ZM169.05 123.227L167.845 123.568C167.769 123.367 167.658 123.172 167.51 122.983C167.366 122.79 167.169 122.631 166.919 122.506C166.669 122.381 166.349 122.318 165.959 122.318C165.425 122.318 164.98 122.441 164.624 122.688C164.271 122.93 164.095 123.239 164.095 123.614C164.095 123.947 164.216 124.21 164.459 124.403C164.701 124.597 165.08 124.758 165.595 124.886L166.891 125.205C167.671 125.394 168.252 125.684 168.635 126.074C169.018 126.46 169.209 126.958 169.209 127.568C169.209 128.068 169.065 128.515 168.777 128.909C168.493 129.303 168.095 129.614 167.584 129.841C167.072 130.068 166.478 130.182 165.8 130.182C164.91 130.182 164.173 129.989 163.589 129.602C163.006 129.216 162.637 128.652 162.482 127.909L163.754 127.591C163.875 128.061 164.105 128.413 164.442 128.648C164.783 128.883 165.228 129 165.777 129C166.402 129 166.898 128.867 167.266 128.602C167.637 128.333 167.822 128.011 167.822 127.636C167.822 127.333 167.716 127.08 167.504 126.875C167.292 126.667 166.966 126.511 166.527 126.409L165.072 126.068C164.273 125.879 163.686 125.585 163.311 125.188C162.94 124.786 162.754 124.284 162.754 123.682C162.754 123.189 162.893 122.754 163.169 122.375C163.449 121.996 163.83 121.699 164.311 121.483C164.796 121.267 165.345 121.159 165.959 121.159C166.822 121.159 167.5 121.348 167.993 121.727C168.489 122.106 168.841 122.606 169.05 123.227ZM177.068 124.75V130H175.727V118.364H177.068V122.636H177.182C177.386 122.186 177.693 121.828 178.102 121.562C178.515 121.294 179.064 121.159 179.75 121.159C180.345 121.159 180.866 121.278 181.312 121.517C181.759 121.752 182.106 122.114 182.352 122.602C182.602 123.087 182.727 123.705 182.727 124.455V130H181.386V124.545C181.386 123.852 181.206 123.316 180.847 122.938C180.491 122.555 179.996 122.364 179.364 122.364C178.924 122.364 178.53 122.456 178.182 122.642C177.837 122.828 177.564 123.098 177.364 123.455C177.167 123.811 177.068 124.242 177.068 124.75ZM188.839 130.182C187.999 130.182 187.273 129.996 186.663 129.625C186.057 129.25 185.589 128.727 185.26 128.057C184.934 127.383 184.771 126.598 184.771 125.705C184.771 124.811 184.934 124.023 185.26 123.341C185.589 122.655 186.048 122.121 186.635 121.739C187.226 121.352 187.915 121.159 188.703 121.159C189.158 121.159 189.607 121.235 190.05 121.386C190.493 121.538 190.896 121.784 191.26 122.125C191.624 122.462 191.913 122.909 192.129 123.466C192.345 124.023 192.453 124.708 192.453 125.523V126.091H185.726V124.932H191.089C191.089 124.439 190.991 124 190.794 123.614C190.601 123.227 190.324 122.922 189.964 122.699C189.608 122.475 189.188 122.364 188.703 122.364C188.169 122.364 187.707 122.496 187.317 122.761C186.93 123.023 186.633 123.364 186.425 123.784C186.216 124.205 186.112 124.655 186.112 125.136V125.909C186.112 126.568 186.226 127.127 186.453 127.585C186.684 128.04 187.004 128.386 187.413 128.625C187.822 128.86 188.298 128.977 188.839 128.977C189.192 128.977 189.51 128.928 189.794 128.83C190.082 128.727 190.33 128.576 190.538 128.375C190.747 128.17 190.908 127.917 191.021 127.614L192.317 127.977C192.18 128.417 191.951 128.803 191.629 129.136C191.307 129.466 190.91 129.723 190.436 129.909C189.963 130.091 189.43 130.182 188.839 130.182ZM194.493 130V121.273H195.788V122.591H195.879C196.038 122.159 196.326 121.809 196.743 121.54C197.16 121.271 197.629 121.136 198.152 121.136C198.25 121.136 198.374 121.138 198.521 121.142C198.669 121.146 198.781 121.152 198.857 121.159V122.523C198.811 122.511 198.707 122.494 198.544 122.472C198.385 122.445 198.216 122.432 198.038 122.432C197.614 122.432 197.235 122.521 196.902 122.699C196.572 122.873 196.311 123.116 196.118 123.426C195.929 123.733 195.834 124.083 195.834 124.477V130H194.493ZM203.839 130.182C202.999 130.182 202.273 129.996 201.663 129.625C201.057 129.25 200.589 128.727 200.26 128.057C199.934 127.383 199.771 126.598 199.771 125.705C199.771 124.811 199.934 124.023 200.26 123.341C200.589 122.655 201.048 122.121 201.635 121.739C202.226 121.352 202.915 121.159 203.703 121.159C204.158 121.159 204.607 121.235 205.05 121.386C205.493 121.538 205.896 121.784 206.26 122.125C206.624 122.462 206.913 122.909 207.129 123.466C207.345 124.023 207.453 124.708 207.453 125.523V126.091H200.726V124.932H206.089C206.089 124.439 205.991 124 205.794 123.614C205.601 123.227 205.324 122.922 204.964 122.699C204.608 122.475 204.188 122.364 203.703 122.364C203.169 122.364 202.707 122.496 202.317 122.761C201.93 123.023 201.633 123.364 201.425 123.784C201.216 124.205 201.112 124.655 201.112 125.136V125.909C201.112 126.568 201.226 127.127 201.453 127.585C201.684 128.04 202.004 128.386 202.413 128.625C202.822 128.86 203.298 128.977 203.839 128.977C204.192 128.977 204.51 128.928 204.794 128.83C205.082 128.727 205.33 128.576 205.538 128.375C205.747 128.17 205.908 127.917 206.021 127.614L207.317 127.977C207.18 128.417 206.951 128.803 206.629 129.136C206.307 129.466 205.91 129.723 205.436 129.909C204.963 130.091 204.43 130.182 203.839 130.182Z" fill="#344054"/>
<path fill-rule="evenodd" clip-rule="evenodd" d="M411.136 120.904C411.178 120.861 411.229 120.827 411.285 120.804C411.342 120.781 411.402 120.769 411.462 120.769C411.523 120.769 411.583 120.781 411.639 120.804C411.695 120.827 411.746 120.861 411.789 120.904L417 126.116L422.211 120.904C422.254 120.861 422.305 120.827 422.361 120.804C422.417 120.781 422.477 120.769 422.538 120.769C422.599 120.769 422.659 120.781 422.715 120.804C422.771 120.827 422.822 120.861 422.865 120.904C422.908 120.947 422.942 120.998 422.965 121.054C422.988 121.11 423 121.17 423 121.231C423 121.292 422.988 121.352 422.965 121.408C422.942 121.464 422.908 121.515 422.865 121.558L417.327 127.096C417.284 127.139 417.233 127.173 417.177 127.196C417.121 127.219 417.061 127.231 417 127.231C416.939 127.231 416.879 127.219 416.823 127.196C416.767 127.173 416.716 127.139 416.673 127.096L411.136 121.558C411.093 121.515 411.059 121.464 411.035 121.408C411.012 121.352 411 121.292 411 121.231C411 121.17 411.012 121.11 411.035 121.054C411.059 120.998 411.093 120.947 411.136 120.904Z" fill="#344054"/>
<rect x="80.5" y="100.5" width="360" height="47" rx="3.5" stroke="#98A2B3"/>
<rect width="359" height="64" transform="translate(81 157)" fill="white"/>
<path d="M108.227 189.182C108.227 190.409 108.006 191.47 107.562 192.364C107.119 193.258 106.511 193.947 105.739 194.432C104.966 194.917 104.083 195.159 103.091 195.159C102.098 195.159 101.216 194.917 100.443 194.432C99.6705 193.947 99.0625 193.258 98.6193 192.364C98.1761 191.47 97.9545 190.409 97.9545 189.182C97.9545 187.955 98.1761 186.894 98.6193 186C99.0625 185.106 99.6705 184.417 100.443 183.932C101.216 183.447 102.098 183.205 103.091 183.205C104.083 183.205 104.966 183.447 105.739 183.932C106.511 184.417 107.119 185.106 107.562 186C108.006 186.894 108.227 187.955 108.227 189.182ZM106.864 189.182C106.864 188.174 106.695 187.324 106.358 186.631C106.025 185.938 105.572 185.413 105 185.057C104.432 184.701 103.795 184.523 103.091 184.523C102.386 184.523 101.748 184.701 101.176 185.057C100.608 185.413 100.155 185.938 99.8182 186.631C99.4848 187.324 99.3182 188.174 99.3182 189.182C99.3182 190.189 99.4848 191.04 99.8182 191.733C100.155 192.426 100.608 192.951 101.176 193.307C101.748 193.663 102.386 193.841 103.091 193.841C103.795 193.841 104.432 193.663 105 193.307C105.572 192.951 106.025 192.426 106.358 191.733C106.695 191.04 106.864 190.189 106.864 189.182ZM110.415 198.273V186.273H111.71V187.659H111.869C111.968 187.508 112.104 187.314 112.278 187.08C112.456 186.841 112.71 186.629 113.04 186.443C113.373 186.254 113.824 186.159 114.392 186.159C115.127 186.159 115.775 186.343 116.335 186.71C116.896 187.078 117.333 187.598 117.648 188.273C117.962 188.947 118.119 189.742 118.119 190.659C118.119 191.583 117.962 192.384 117.648 193.062C117.333 193.737 116.898 194.259 116.341 194.631C115.784 194.998 115.142 195.182 114.415 195.182C113.854 195.182 113.405 195.089 113.068 194.903C112.731 194.714 112.472 194.5 112.29 194.261C112.108 194.019 111.968 193.818 111.869 193.659H111.756V198.273H110.415ZM111.733 190.636C111.733 191.295 111.83 191.877 112.023 192.381C112.216 192.881 112.498 193.273 112.869 193.557C113.241 193.837 113.695 193.977 114.233 193.977C114.794 193.977 115.261 193.83 115.636 193.534C116.015 193.235 116.299 192.833 116.489 192.33C116.682 191.822 116.778 191.258 116.778 190.636C116.778 190.023 116.684 189.47 116.494 188.977C116.309 188.481 116.027 188.089 115.648 187.801C115.273 187.509 114.801 187.364 114.233 187.364C113.688 187.364 113.229 187.502 112.858 187.778C112.487 188.051 112.206 188.434 112.017 188.926C111.828 189.415 111.733 189.985 111.733 190.636ZM123.96 186.273V187.409H119.438V186.273H123.96ZM120.756 184.182H122.097V192.5C122.097 192.879 122.152 193.163 122.261 193.352C122.375 193.538 122.519 193.663 122.693 193.727C122.871 193.788 123.059 193.818 123.256 193.818C123.403 193.818 123.525 193.811 123.619 193.795C123.714 193.777 123.79 193.761 123.847 193.75L124.119 194.955C124.028 194.989 123.902 195.023 123.739 195.057C123.576 195.095 123.369 195.114 123.119 195.114C122.741 195.114 122.369 195.032 122.006 194.869C121.646 194.706 121.347 194.458 121.108 194.125C120.873 193.792 120.756 193.371 120.756 192.864V184.182ZM125.977 195V186.273H127.318V195H125.977ZM126.659 184.818C126.398 184.818 126.172 184.729 125.983 184.551C125.797 184.373 125.705 184.159 125.705 183.909C125.705 183.659 125.797 183.445 125.983 183.267C126.172 183.089 126.398 183 126.659 183C126.92 183 127.144 183.089 127.33 183.267C127.519 183.445 127.614 183.659 127.614 183.909C127.614 184.159 127.519 184.373 127.33 184.551C127.144 184.729 126.92 184.818 126.659 184.818ZM133.32 195.182C132.532 195.182 131.84 194.994 131.246 194.619C130.655 194.244 130.193 193.72 129.859 193.045C129.53 192.371 129.365 191.583 129.365 190.682C129.365 189.773 129.53 188.979 129.859 188.301C130.193 187.623 130.655 187.097 131.246 186.722C131.84 186.347 132.532 186.159 133.32 186.159C134.107 186.159 134.797 186.347 135.388 186.722C135.982 187.097 136.445 187.623 136.774 188.301C137.107 188.979 137.274 189.773 137.274 190.682C137.274 191.583 137.107 192.371 136.774 193.045C136.445 193.72 135.982 194.244 135.388 194.619C134.797 194.994 134.107 195.182 133.32 195.182ZM133.32 193.977C133.918 193.977 134.411 193.824 134.797 193.517C135.183 193.21 135.469 192.807 135.655 192.307C135.84 191.807 135.933 191.265 135.933 190.682C135.933 190.098 135.84 189.555 135.655 189.051C135.469 188.547 135.183 188.14 134.797 187.83C134.411 187.519 133.918 187.364 133.32 187.364C132.721 187.364 132.229 187.519 131.842 187.83C131.456 188.14 131.17 188.547 130.984 189.051C130.799 189.555 130.706 190.098 130.706 190.682C130.706 191.265 130.799 191.807 130.984 192.307C131.17 192.807 131.456 193.21 131.842 193.517C132.229 193.824 132.721 193.977 133.32 193.977ZM140.662 189.75V195H139.321V186.273H140.616V187.636H140.73C140.935 187.193 141.245 186.837 141.662 186.568C142.079 186.295 142.616 186.159 143.276 186.159C143.866 186.159 144.384 186.28 144.827 186.523C145.27 186.761 145.615 187.125 145.861 187.614C146.107 188.098 146.23 188.712 146.23 189.455V195H144.889V189.545C144.889 188.86 144.711 188.326 144.355 187.943C143.999 187.557 143.51 187.364 142.889 187.364C142.461 187.364 142.079 187.456 141.741 187.642C141.408 187.828 141.145 188.098 140.952 188.455C140.759 188.811 140.662 189.242 140.662 189.75ZM157.249 183.364V195H155.839V184.841H155.771L152.93 186.727V185.295L155.839 183.364H157.249Z" fill="#344054"/>
<rect width="359" height="64" transform="translate(81 221)" fill="#0F71BB"/>
<path d="M108.227 253.182C108.227 254.409 108.006 255.47 107.562 256.364C107.119 257.258 106.511 257.947 105.739 258.432C104.966 258.917 104.083 259.159 103.091 259.159C102.098 259.159 101.216 258.917 100.443 258.432C99.6705 257.947 99.0625 257.258 98.6193 256.364C98.1761 255.47 97.9545 254.409 97.9545 253.182C97.9545 251.955 98.1761 250.894 98.6193 250C99.0625 249.106 99.6705 248.417 100.443 247.932C101.216 247.447 102.098 247.205 103.091 247.205C104.083 247.205 104.966 247.447 105.739 247.932C106.511 248.417 107.119 249.106 107.562 250C108.006 250.894 108.227 251.955 108.227 253.182ZM106.864 253.182C106.864 252.174 106.695 251.324 106.358 250.631C106.025 249.938 105.572 249.413 105 249.057C104.432 248.701 103.795 248.523 103.091 248.523C102.386 248.523 101.748 248.701 101.176 249.057C100.608 249.413 100.155 249.938 99.8182 250.631C99.4848 251.324 99.3182 252.174 99.3182 253.182C99.3182 254.189 99.4848 255.04 99.8182 255.733C100.155 256.426 100.608 256.951 101.176 257.307C101.748 257.663 102.386 257.841 103.091 257.841C103.795 257.841 104.432 257.663 105 257.307C105.572 256.951 106.025 256.426 106.358 255.733C106.695 255.04 106.864 254.189 106.864 253.182ZM110.415 262.273V250.273H111.71V251.659H111.869C111.968 251.508 112.104 251.314 112.278 251.08C112.456 250.841 112.71 250.629 113.04 250.443C113.373 250.254 113.824 250.159 114.392 250.159C115.127 250.159 115.775 250.343 116.335 250.71C116.896 251.078 117.333 251.598 117.648 252.273C117.962 252.947 118.119 253.742 118.119 254.659C118.119 255.583 117.962 256.384 117.648 257.062C117.333 257.737 116.898 258.259 116.341 258.631C115.784 258.998 115.142 259.182 114.415 259.182C113.854 259.182 113.405 259.089 113.068 258.903C112.731 258.714 112.472 258.5 112.29 258.261C112.108 258.019 111.968 257.818 111.869 257.659H111.756V262.273H110.415ZM111.733 254.636C111.733 255.295 111.83 255.877 112.023 256.381C112.216 256.881 112.498 257.273 112.869 257.557C113.241 257.837 113.695 257.977 114.233 257.977C114.794 257.977 115.261 257.83 115.636 257.534C116.015 257.235 116.299 256.833 116.489 256.33C116.682 255.822 116.778 255.258 116.778 254.636C116.778 254.023 116.684 253.47 116.494 252.977C116.309 252.481 116.027 252.089 115.648 251.801C115.273 251.509 114.801 251.364 114.233 251.364C113.688 251.364 113.229 251.502 112.858 251.778C112.487 252.051 112.206 252.434 112.017 252.926C111.828 253.415 111.733 253.985 111.733 254.636ZM123.96 250.273V251.409H119.438V250.273H123.96ZM120.756 248.182H122.097V256.5C122.097 256.879 122.152 257.163 122.261 257.352C122.375 257.538 122.519 257.663 122.693 257.727C122.871 257.788 123.059 257.818 123.256 257.818C123.403 257.818 123.525 257.811 123.619 257.795C123.714 257.777 123.79 257.761 123.847 257.75L124.119 258.955C124.028 258.989 123.902 259.023 123.739 259.057C123.576 259.095 123.369 259.114 123.119 259.114C122.741 259.114 122.369 259.032 122.006 258.869C121.646 258.706 121.347 258.458 121.108 258.125C120.873 257.792 120.756 257.371 120.756 256.864V248.182ZM125.977 259V250.273H127.318V259H125.977ZM126.659 248.818C126.398 248.818 126.172 248.729 125.983 248.551C125.797 248.373 125.705 248.159 125.705 247.909C125.705 247.659 125.797 247.445 125.983 247.267C126.172 247.089 126.398 247 126.659 247C126.92 247 127.144 247.089 127.33 247.267C127.519 247.445 127.614 247.659 127.614 247.909C127.614 248.159 127.519 248.373 127.33 248.551C127.144 248.729 126.92 248.818 126.659 248.818ZM133.32 259.182C132.532 259.182 131.84 258.994 131.246 258.619C130.655 258.244 130.193 257.72 129.859 257.045C129.53 256.371 129.365 255.583 129.365 254.682C129.365 253.773 129.53 252.979 129.859 252.301C130.193 251.623 130.655 251.097 131.246 250.722C131.84 250.347 132.532 250.159 133.32 250.159C134.107 250.159 134.797 250.347 135.388 250.722C135.982 251.097 136.445 251.623 136.774 252.301C137.107 252.979 137.274 253.773 137.274 254.682C137.274 255.583 137.107 256.371 136.774 257.045C136.445 257.72 135.982 258.244 135.388 258.619C134.797 258.994 134.107 259.182 133.32 259.182ZM133.32 257.977C133.918 257.977 134.411 257.824 134.797 257.517C135.183 257.21 135.469 256.807 135.655 256.307C135.84 255.807 135.933 255.265 135.933 254.682C135.933 254.098 135.84 253.555 135.655 253.051C135.469 252.547 135.183 252.14 134.797 251.83C134.411 251.519 133.918 251.364 133.32 251.364C132.721 251.364 132.229 251.519 131.842 251.83C131.456 252.14 131.17 252.547 130.984 253.051C130.799 253.555 130.706 254.098 130.706 254.682C130.706 255.265 130.799 255.807 130.984 256.307C131.17 256.807 131.456 257.21 131.842 257.517C132.229 257.824 132.721 257.977 133.32 257.977ZM140.662 253.75V259H139.321V250.273H140.616V251.636H140.73C140.935 251.193 141.245 250.837 141.662 250.568C142.079 250.295 142.616 250.159 143.276 250.159C143.866 250.159 144.384 250.28 144.827 250.523C145.27 250.761 145.615 251.125 145.861 251.614C146.107 252.098 146.23 252.712 146.23 253.455V259H144.889V253.545C144.889 252.86 144.711 252.326 144.355 251.943C143.999 251.557 143.51 251.364 142.889 251.364C142.461 251.364 142.079 251.456 141.741 251.642C141.408 251.828 141.145 252.098 140.952 252.455C140.759 252.811 140.662 253.242 140.662 253.75ZM153.158 259V257.977L156.999 253.773C157.449 253.28 157.821 252.852 158.112 252.489C158.404 252.121 158.62 251.777 158.76 251.455C158.904 251.129 158.976 250.788 158.976 250.432C158.976 250.023 158.877 249.669 158.68 249.369C158.487 249.07 158.222 248.839 157.885 248.676C157.548 248.513 157.169 248.432 156.749 248.432C156.302 248.432 155.911 248.525 155.578 248.71C155.249 248.892 154.993 249.148 154.811 249.477C154.633 249.807 154.544 250.193 154.544 250.636H153.203C153.203 249.955 153.36 249.356 153.675 248.841C153.989 248.326 154.417 247.924 154.959 247.636C155.504 247.348 156.116 247.205 156.794 247.205C157.476 247.205 158.08 247.348 158.607 247.636C159.133 247.924 159.546 248.312 159.845 248.801C160.144 249.29 160.294 249.833 160.294 250.432C160.294 250.86 160.216 251.278 160.061 251.688C159.91 252.093 159.644 252.545 159.266 253.045C158.891 253.542 158.37 254.148 157.703 254.864L155.089 257.659V257.75H160.499V259H153.158Z" fill="white"/>
<rect width="359" height="64" transform="translate(81 285)" fill="white"/>
<path d="M108.227 317.182C108.227 318.409 108.006 319.47 107.562 320.364C107.119 321.258 106.511 321.947 105.739 322.432C104.966 322.917 104.083 323.159 103.091 323.159C102.098 323.159 101.216 322.917 100.443 322.432C99.6705 321.947 99.0625 321.258 98.6193 320.364C98.1761 319.47 97.9545 318.409 97.9545 317.182C97.9545 315.955 98.1761 314.894 98.6193 314C99.0625 313.106 99.6705 312.417 100.443 311.932C101.216 311.447 102.098 311.205 103.091 311.205C104.083 311.205 104.966 311.447 105.739 311.932C106.511 312.417 107.119 313.106 107.562 314C108.006 314.894 108.227 315.955 108.227 317.182ZM106.864 317.182C106.864 316.174 106.695 315.324 106.358 314.631C106.025 313.938 105.572 313.413 105 313.057C104.432 312.701 103.795 312.523 103.091 312.523C102.386 312.523 101.748 312.701 101.176 313.057C100.608 313.413 100.155 313.938 99.8182 314.631C99.4848 315.324 99.3182 316.174 99.3182 317.182C99.3182 318.189 99.4848 319.04 99.8182 319.733C100.155 320.426 100.608 320.951 101.176 321.307C101.748 321.663 102.386 321.841 103.091 321.841C103.795 321.841 104.432 321.663 105 321.307C105.572 320.951 106.025 320.426 106.358 319.733C106.695 319.04 106.864 318.189 106.864 317.182ZM110.415 326.273V314.273H111.71V315.659H111.869C111.968 315.508 112.104 315.314 112.278 315.08C112.456 314.841 112.71 314.629 113.04 314.443C113.373 314.254 113.824 314.159 114.392 314.159C115.127 314.159 115.775 314.343 116.335 314.71C116.896 315.078 117.333 315.598 117.648 316.273C117.962 316.947 118.119 317.742 118.119 318.659C118.119 319.583 117.962 320.384 117.648 321.062C117.333 321.737 116.898 322.259 116.341 322.631C115.784 322.998 115.142 323.182 114.415 323.182C113.854 323.182 113.405 323.089 113.068 322.903C112.731 322.714 112.472 322.5 112.29 322.261C112.108 322.019 111.968 321.818 111.869 321.659H111.756V326.273H110.415ZM111.733 318.636C111.733 319.295 111.83 319.877 112.023 320.381C112.216 320.881 112.498 321.273 112.869 321.557C113.241 321.837 113.695 321.977 114.233 321.977C114.794 321.977 115.261 321.83 115.636 321.534C116.015 321.235 116.299 320.833 116.489 320.33C116.682 319.822 116.778 319.258 116.778 318.636C116.778 318.023 116.684 317.47 116.494 316.977C116.309 316.481 116.027 316.089 115.648 315.801C115.273 315.509 114.801 315.364 114.233 315.364C113.688 315.364 113.229 315.502 112.858 315.778C112.487 316.051 112.206 316.434 112.017 316.926C111.828 317.415 111.733 317.985 111.733 318.636ZM123.96 314.273V315.409H119.438V314.273H123.96ZM120.756 312.182H122.097V320.5C122.097 320.879 122.152 321.163 122.261 321.352C122.375 321.538 122.519 321.663 122.693 321.727C122.871 321.788 123.059 321.818 123.256 321.818C123.403 321.818 123.525 321.811 123.619 321.795C123.714 321.777 123.79 321.761 123.847 321.75L124.119 322.955C124.028 322.989 123.902 323.023 123.739 323.057C123.576 323.095 123.369 323.114 123.119 323.114C122.741 323.114 122.369 323.032 122.006 322.869C121.646 322.706 121.347 322.458 121.108 322.125C120.873 321.792 120.756 321.371 120.756 320.864V312.182ZM125.977 323V314.273H127.318V323H125.977ZM126.659 312.818C126.398 312.818 126.172 312.729 125.983 312.551C125.797 312.373 125.705 312.159 125.705 311.909C125.705 311.659 125.797 311.445 125.983 311.267C126.172 311.089 126.398 311 126.659 311C126.92 311 127.144 311.089 127.33 311.267C127.519 311.445 127.614 311.659 127.614 311.909C127.614 312.159 127.519 312.373 127.33 312.551C127.144 312.729 126.92 312.818 126.659 312.818ZM133.32 323.182C132.532 323.182 131.84 322.994 131.246 322.619C130.655 322.244 130.193 321.72 129.859 321.045C129.53 320.371 129.365 319.583 129.365 318.682C129.365 317.773 129.53 316.979 129.859 316.301C130.193 315.623 130.655 315.097 131.246 314.722C131.84 314.347 132.532 314.159 133.32 314.159C134.107 314.159 134.797 314.347 135.388 314.722C135.982 315.097 136.445 315.623 136.774 316.301C137.107 316.979 137.274 317.773 137.274 318.682C137.274 319.583 137.107 320.371 136.774 321.045C136.445 321.72 135.982 322.244 135.388 322.619C134.797 322.994 134.107 323.182 133.32 323.182ZM133.32 321.977C133.918 321.977 134.411 321.824 134.797 321.517C135.183 321.21 135.469 320.807 135.655 320.307C135.84 319.807 135.933 319.265 135.933 318.682C135.933 318.098 135.84 317.555 135.655 317.051C135.469 316.547 135.183 316.14 134.797 315.83C134.411 315.519 133.918 315.364 133.32 315.364C132.721 315.364 132.229 315.519 131.842 315.83C131.456 316.14 131.17 316.547 130.984 317.051C130.799 317.555 130.706 318.098 130.706 318.682C130.706 319.265 130.799 319.807 130.984 320.307C131.17 320.807 131.456 321.21 131.842 321.517C132.229 321.824 132.721 321.977 133.32 321.977ZM140.662 317.75V323H139.321V314.273H140.616V315.636H140.73C140.935 315.193 141.245 314.837 141.662 314.568C142.079 314.295 142.616 314.159 143.276 314.159C143.866 314.159 144.384 314.28 144.827 314.523C145.27 314.761 145.615 315.125 145.861 315.614C146.107 316.098 146.23 316.712 146.23 317.455V323H144.889V317.545C144.889 316.86 144.711 316.326 144.355 315.943C143.999 315.557 143.51 315.364 142.889 315.364C142.461 315.364 142.079 315.456 141.741 315.642C141.408 315.828 141.145 316.098 140.952 316.455C140.759 316.811 140.662 317.242 140.662 317.75ZM157.089 323.159C156.339 323.159 155.671 323.03 155.084 322.773C154.5 322.515 154.036 322.157 153.692 321.699C153.351 321.237 153.165 320.701 153.135 320.091H154.567C154.597 320.466 154.726 320.79 154.953 321.062C155.18 321.331 155.478 321.54 155.845 321.688C156.213 321.835 156.62 321.909 157.067 321.909C157.567 321.909 158.01 321.822 158.396 321.648C158.783 321.473 159.086 321.231 159.305 320.92C159.525 320.61 159.635 320.25 159.635 319.841C159.635 319.413 159.529 319.036 159.317 318.71C159.105 318.381 158.794 318.123 158.385 317.938C157.976 317.752 157.476 317.659 156.885 317.659H155.953V316.409H156.885C157.347 316.409 157.752 316.326 158.101 316.159C158.453 315.992 158.728 315.758 158.925 315.455C159.125 315.152 159.226 314.795 159.226 314.386C159.226 313.992 159.139 313.65 158.964 313.358C158.79 313.066 158.544 312.839 158.226 312.676C157.911 312.513 157.54 312.432 157.112 312.432C156.711 312.432 156.332 312.506 155.976 312.653C155.624 312.797 155.336 313.008 155.112 313.284C154.889 313.557 154.768 313.886 154.749 314.273H153.385C153.408 313.663 153.591 313.129 153.936 312.67C154.281 312.208 154.732 311.848 155.288 311.591C155.849 311.333 156.464 311.205 157.135 311.205C157.855 311.205 158.472 311.35 158.987 311.642C159.502 311.93 159.898 312.311 160.175 312.784C160.451 313.258 160.589 313.769 160.589 314.318C160.589 314.973 160.417 315.532 160.072 315.994C159.732 316.456 159.268 316.777 158.68 316.955V317.045C159.415 317.167 159.989 317.479 160.402 317.983C160.815 318.483 161.021 319.102 161.021 319.841C161.021 320.473 160.849 321.042 160.504 321.545C160.163 322.045 159.697 322.439 159.107 322.727C158.516 323.015 157.843 323.159 157.089 323.159Z" fill="#344054"/>
<rect width="359" height="64" transform="translate(81 349)" fill="white"/>
<path d="M108.227 381.182C108.227 382.409 108.006 383.47 107.562 384.364C107.119 385.258 106.511 385.947 105.739 386.432C104.966 386.917 104.083 387.159 103.091 387.159C102.098 387.159 101.216 386.917 100.443 386.432C99.6705 385.947 99.0625 385.258 98.6193 384.364C98.1761 383.47 97.9545 382.409 97.9545 381.182C97.9545 379.955 98.1761 378.894 98.6193 378C99.0625 377.106 99.6705 376.417 100.443 375.932C101.216 375.447 102.098 375.205 103.091 375.205C104.083 375.205 104.966 375.447 105.739 375.932C106.511 376.417 107.119 377.106 107.562 378C108.006 378.894 108.227 379.955 108.227 381.182ZM106.864 381.182C106.864 380.174 106.695 379.324 106.358 378.631C106.025 377.938 105.572 377.413 105 377.057C104.432 376.701 103.795 376.523 103.091 376.523C102.386 376.523 101.748 376.701 101.176 377.057C100.608 377.413 100.155 377.938 99.8182 378.631C99.4848 379.324 99.3182 380.174 99.3182 381.182C99.3182 382.189 99.4848 383.04 99.8182 383.733C100.155 384.426 100.608 384.951 101.176 385.307C101.748 385.663 102.386 385.841 103.091 385.841C103.795 385.841 104.432 385.663 105 385.307C105.572 384.951 106.025 384.426 106.358 383.733C106.695 383.04 106.864 382.189 106.864 381.182ZM110.415 390.273V378.273H111.71V379.659H111.869C111.968 379.508 112.104 379.314 112.278 379.08C112.456 378.841 112.71 378.629 113.04 378.443C113.373 378.254 113.824 378.159 114.392 378.159C115.127 378.159 115.775 378.343 116.335 378.71C116.896 379.078 117.333 379.598 117.648 380.273C117.962 380.947 118.119 381.742 118.119 382.659C118.119 383.583 117.962 384.384 117.648 385.062C117.333 385.737 116.898 386.259 116.341 386.631C115.784 386.998 115.142 387.182 114.415 387.182C113.854 387.182 113.405 387.089 113.068 386.903C112.731 386.714 112.472 386.5 112.29 386.261C112.108 386.019 111.968 385.818 111.869 385.659H111.756V390.273H110.415ZM111.733 382.636C111.733 383.295 111.83 383.877 112.023 384.381C112.216 384.881 112.498 385.273 112.869 385.557C113.241 385.837 113.695 385.977 114.233 385.977C114.794 385.977 115.261 385.83 115.636 385.534C116.015 385.235 116.299 384.833 116.489 384.33C116.682 383.822 116.778 383.258 116.778 382.636C116.778 382.023 116.684 381.47 116.494 380.977C116.309 380.481 116.027 380.089 115.648 379.801C115.273 379.509 114.801 379.364 114.233 379.364C113.688 379.364 113.229 379.502 112.858 379.778C112.487 380.051 112.206 380.434 112.017 380.926C111.828 381.415 111.733 381.985 111.733 382.636ZM123.96 378.273V379.409H119.438V378.273H123.96ZM120.756 376.182H122.097V384.5C122.097 384.879 122.152 385.163 122.261 385.352C122.375 385.538 122.519 385.663 122.693 385.727C122.871 385.788 123.059 385.818 123.256 385.818C123.403 385.818 123.525 385.811 123.619 385.795C123.714 385.777 123.79 385.761 123.847 385.75L124.119 386.955C124.028 386.989 123.902 387.023 123.739 387.057C123.576 387.095 123.369 387.114 123.119 387.114C122.741 387.114 122.369 387.032 122.006 386.869C121.646 386.706 121.347 386.458 121.108 386.125C120.873 385.792 120.756 385.371 120.756 384.864V376.182ZM125.977 387V378.273H127.318V387H125.977ZM126.659 376.818C126.398 376.818 126.172 376.729 125.983 376.551C125.797 376.373 125.705 376.159 125.705 375.909C125.705 375.659 125.797 375.445 125.983 375.267C126.172 375.089 126.398 375 126.659 375C126.92 375 127.144 375.089 127.33 375.267C127.519 375.445 127.614 375.659 127.614 375.909C127.614 376.159 127.519 376.373 127.33 376.551C127.144 376.729 126.92 376.818 126.659 376.818ZM133.32 387.182C132.532 387.182 131.84 386.994 131.246 386.619C130.655 386.244 130.193 385.72 129.859 385.045C129.53 384.371 129.365 383.583 129.365 382.682C129.365 381.773 129.53 380.979 129.859 380.301C130.193 379.623 130.655 379.097 131.246 378.722C131.84 378.347 132.532 378.159 133.32 378.159C134.107 378.159 134.797 378.347 135.388 378.722C135.982 379.097 136.445 379.623 136.774 380.301C137.107 380.979 137.274 381.773 137.274 382.682C137.274 383.583 137.107 384.371 136.774 385.045C136.445 385.72 135.982 386.244 135.388 386.619C134.797 386.994 134.107 387.182 133.32 387.182ZM133.32 385.977C133.918 385.977 134.411 385.824 134.797 385.517C135.183 385.21 135.469 384.807 135.655 384.307C135.84 383.807 135.933 383.265 135.933 382.682C135.933 382.098 135.84 381.555 135.655 381.051C135.469 380.547 135.183 380.14 134.797 379.83C134.411 379.519 133.918 379.364 133.32 379.364C132.721 379.364 132.229 379.519 131.842 379.83C131.456 380.14 131.17 380.547 130.984 381.051C130.799 381.555 130.706 382.098 130.706 382.682C130.706 383.265 130.799 383.807 130.984 384.307C131.17 384.807 131.456 385.21 131.842 385.517C132.229 385.824 132.721 385.977 133.32 385.977ZM140.662 381.75V387H139.321V378.273H140.616V379.636H140.73C140.935 379.193 141.245 378.837 141.662 378.568C142.079 378.295 142.616 378.159 143.276 378.159C143.866 378.159 144.384 378.28 144.827 378.523C145.27 378.761 145.615 379.125 145.861 379.614C146.107 380.098 146.23 380.712 146.23 381.455V387H144.889V381.545C144.889 380.86 144.711 380.326 144.355 379.943C143.999 379.557 143.51 379.364 142.889 379.364C142.461 379.364 142.079 379.456 141.741 379.642C141.408 379.828 141.145 380.098 140.952 380.455C140.759 380.811 140.662 381.242 140.662 381.75ZM152.885 384.614V383.455L157.999 375.364H158.839V377.159H158.271L154.408 383.273V383.364H161.294V384.614H152.885ZM158.362 387V384.261V383.722V375.364H159.703V387H158.362Z" fill="#344054"/>
<path d="M80 156V155H79V156H80ZM441 156H442V155H441V156ZM441 414V415H442V414H441ZM80 414H79V415H80V414ZM80 157H441V155H80V157ZM440 156V414H442V156H440ZM441 413H80V415H441V413ZM81 414V156H79V414H81Z" fill="#98A2B3"/>
<circle cx="12" cy="16" r="12" fill="#344054"/>
<path d="M14.0057 10.3636V22H11.5455V12.6989H11.4773L8.8125 14.3693V12.1875L11.6932 10.3636H14.0057Z" fill="white"/>
<circle cx="12" cy="84" r="12" fill="#344054"/>
<path d="M7.94318 90V88.2273L12.0852 84.392C12.4375 84.0511 12.733 83.7443 12.9716 83.4716C13.214 83.1989 13.3977 82.9318 13.5227 82.6705C13.6477 82.4053 13.7102 82.1193 13.7102 81.8125C13.7102 81.4716 13.6326 81.178 13.4773 80.9318C13.322 80.6818 13.1098 80.4905 12.8409 80.358C12.572 80.2216 12.267 80.1534 11.9261 80.1534C11.5701 80.1534 11.2595 80.2254 10.9943 80.3693C10.7292 80.5133 10.5246 80.7197 10.3807 80.9886C10.2367 81.2576 10.1648 81.5777 10.1648 81.9489H7.82955C7.82955 81.1875 8.00189 80.5265 8.34659 79.9659C8.69129 79.4053 9.17424 78.9716 9.79545 78.6648C10.4167 78.358 11.1326 78.2045 11.9432 78.2045C12.7765 78.2045 13.5019 78.3523 14.1193 78.6477C14.7405 78.9394 15.2235 79.3447 15.5682 79.8636C15.9129 80.3826 16.0852 80.9773 16.0852 81.6477C16.0852 82.0871 15.9981 82.5208 15.8239 82.9489C15.6534 83.3769 15.3485 83.8523 14.9091 84.375C14.4697 84.8939 13.8504 85.517 13.0511 86.2443L11.3523 87.9091V87.9886H16.2386V90H7.94318Z" fill="white"/>
<path d="M24 84H77" stroke="#344054" stroke-dasharray="2 2"/>
<circle cx="12" cy="188" r="12" fill="#344054"/>
<path d="M12.2443 194.159C11.3958 194.159 10.6402 194.013 9.97727 193.722C9.31818 193.426 8.79735 193.021 8.41477 192.506C8.03598 191.987 7.84091 191.388 7.82955 190.71H10.3068C10.322 190.994 10.4148 191.244 10.5852 191.46C10.7595 191.672 10.9905 191.837 11.2784 191.955C11.5663 192.072 11.8902 192.131 12.25 192.131C12.625 192.131 12.9564 192.064 13.2443 191.932C13.5322 191.799 13.7576 191.616 13.9205 191.381C14.0833 191.146 14.1648 190.875 14.1648 190.568C14.1648 190.258 14.0777 189.983 13.9034 189.744C13.733 189.502 13.4867 189.312 13.1648 189.176C12.8466 189.04 12.4678 188.972 12.0284 188.972H10.9432V187.165H12.0284C12.3996 187.165 12.7273 187.1 13.0114 186.972C13.2992 186.843 13.5227 186.665 13.6818 186.438C13.8409 186.206 13.9205 185.938 13.9205 185.631C13.9205 185.339 13.8504 185.083 13.7102 184.864C13.5739 184.64 13.3807 184.466 13.1307 184.341C12.8845 184.216 12.5966 184.153 12.267 184.153C11.9337 184.153 11.6288 184.214 11.3523 184.335C11.0758 184.453 10.8542 184.621 10.6875 184.841C10.5208 185.061 10.4318 185.318 10.4205 185.614H8.0625C8.07386 184.943 8.26515 184.352 8.63636 183.841C9.00758 183.33 9.50758 182.93 10.1364 182.642C10.7689 182.35 11.483 182.205 12.2784 182.205C13.0814 182.205 13.7841 182.35 14.3864 182.642C14.9886 182.934 15.4564 183.328 15.7898 183.824C16.1269 184.316 16.2936 184.869 16.2898 185.483C16.2936 186.134 16.0909 186.678 15.6818 187.114C15.2765 187.549 14.7481 187.826 14.0966 187.943V188.034C14.9527 188.144 15.6042 188.441 16.0511 188.926C16.5019 189.407 16.7254 190.009 16.7216 190.733C16.7254 191.396 16.5341 191.985 16.1477 192.5C15.7652 193.015 15.2367 193.42 14.5625 193.716C13.8883 194.011 13.1155 194.159 12.2443 194.159Z" fill="white"/>
<circle cx="507" cy="124" r="12" fill="#344054"/>
<path d="M501.767 127.955V126.017L506.625 118.364H508.295V121.045H507.307L504.244 125.892V125.983H511.148V127.955H501.767ZM507.352 130V127.364L507.398 126.506V118.364H509.705V130H507.352Z" fill="white"/>
<path d="M24 188H94" stroke="#344054" stroke-dasharray="2 2"/>
<path d="M425 124H495" stroke="#344054" stroke-dasharray="2 2"/>
<path d="M24.5 16H97.5V39" stroke="#344054" stroke-dasharray="2 2"/>
</svg>
