<svg width="248" height="59" viewBox="0 0 248 59" fill="none" xmlns="http://www.w3.org/2000/svg">
<path d="M0 2.4C0 1.07452 1.07452 0 2.4 0H244.8C246.126 0 247.2 1.07452 247.2 2.4V56.6C247.2 57.9255 246.125 59 244.8 59H2.39999C1.07451 59 0 57.9255 0 56.6V2.4Z" fill="white"/>
<path d="M0.511364 6.35284V4.52727H9.1125V6.35284H5.90625V15H3.71761V6.35284H0.511364ZM10.4881 15V7.14545H12.6665V15H10.4881ZM11.5824 6.13295C11.2585 6.13295 10.9807 6.02557 10.7489 5.81079C10.5205 5.59261 10.4063 5.33182 10.4063 5.02841C10.4063 4.72841 10.5205 4.47102 10.7489 4.25625C10.9807 4.03807 11.2585 3.92898 11.5824 3.92898C11.9063 3.92898 12.1824 4.03807 12.4108 4.25625C12.6426 4.47102 12.7585 4.72841 12.7585 5.02841C12.7585 5.33182 12.6426 5.59261 12.4108 5.81079C12.1824 6.02557 11.9063 6.13295 11.5824 6.13295ZM18.5893 7.14545V8.78182H13.8592V7.14545H18.5893ZM14.9331 5.26364H17.1115V12.5864C17.1115 12.7875 17.1422 12.9443 17.2036 13.0568C17.2649 13.1659 17.3501 13.2426 17.4592 13.2869C17.5717 13.3312 17.7013 13.3534 17.8479 13.3534C17.9501 13.3534 18.0524 13.3449 18.1547 13.3278C18.257 13.3074 18.3354 13.292 18.3899 13.2818L18.7325 14.9028C18.6234 14.9369 18.47 14.9761 18.2723 15.0205C18.0746 15.0682 17.8342 15.0972 17.5513 15.1074C17.0263 15.1278 16.5661 15.058 16.1706 14.8977C15.7786 14.7375 15.4734 14.4886 15.2553 14.1511C15.0371 13.8136 14.9297 13.3875 14.9331 12.8727V5.26364ZM22.3555 4.52727V15H20.1771V4.52727H22.3555ZM27.6801 15.1534C26.8722 15.1534 26.1767 14.9898 25.5938 14.6625C25.0142 14.3318 24.5676 13.8648 24.254 13.2614C23.9403 12.6545 23.7835 11.9369 23.7835 11.1085C23.7835 10.3006 23.9403 9.59148 24.254 8.98125C24.5676 8.37102 25.0091 7.89545 25.5784 7.55454C26.1511 7.21364 26.8227 7.04318 27.5932 7.04318C28.1114 7.04318 28.5938 7.1267 29.0403 7.29375C29.4903 7.45739 29.8824 7.70454 30.2165 8.03523C30.554 8.36591 30.8165 8.78182 31.004 9.28295C31.1915 9.78068 31.2852 10.3636 31.2852 11.0318V11.6301H24.6528V10.2801H29.2347C29.2347 9.96648 29.1665 9.68864 29.0301 9.44659C28.8938 9.20455 28.7045 9.01534 28.4625 8.87898C28.2239 8.7392 27.946 8.66932 27.629 8.66932C27.2983 8.66932 27.0051 8.74602 26.7494 8.89943C26.4972 9.04943 26.2994 9.25227 26.1563 9.50795C26.0131 9.76023 25.9398 10.0415 25.9364 10.3517V11.6352C25.9364 12.0239 26.008 12.3597 26.1511 12.6426C26.2977 12.9256 26.504 13.1437 26.7699 13.2972C27.0358 13.4506 27.3511 13.5273 27.7159 13.5273C27.958 13.5273 28.1795 13.4932 28.3807 13.425C28.5818 13.3568 28.754 13.2545 28.8972 13.1182C29.0403 12.9818 29.1494 12.8148 29.2244 12.617L31.2392 12.75C31.1369 13.2341 30.9273 13.6568 30.6102 14.0182C30.2966 14.3761 29.8909 14.6557 29.3932 14.8568C28.8989 15.0545 28.3278 15.1534 27.6801 15.1534Z" fill="#344054"/>
<circle cx="240" cy="10" r="6.9" fill="white" stroke="#344054" stroke-width="0.6"/>
<path d="M1.13182 33H0.245455L2.80909 26.0182H3.68182L6.24545 33H5.35909L3.27273 27.1227H3.21818L1.13182 33ZM1.45909 30.2727H5.03182V31.0227H1.45909V30.2727ZM13.633 28.9364L12.9102 29.1409C12.8648 29.0205 12.7977 28.9034 12.7091 28.7898C12.6227 28.6739 12.5045 28.5784 12.3545 28.5034C12.2045 28.4284 12.0125 28.3909 11.7784 28.3909C11.458 28.3909 11.1909 28.4648 10.9773 28.6125C10.7659 28.758 10.6602 28.9432 10.6602 29.1682C10.6602 29.3682 10.733 29.5261 10.8784 29.642C11.0239 29.758 11.2511 29.8545 11.5602 29.9318L12.3375 30.1227C12.8057 30.2364 13.1545 30.4102 13.3841 30.6443C13.6136 30.8761 13.7284 31.175 13.7284 31.5409C13.7284 31.8409 13.642 32.1091 13.4693 32.3455C13.2989 32.5818 13.0602 32.7682 12.7534 32.9045C12.4466 33.0409 12.0898 33.1091 11.683 33.1091C11.1489 33.1091 10.7068 32.9932 10.3568 32.7614C10.0068 32.5295 9.78523 32.1909 9.69205 31.7455L10.4557 31.5545C10.5284 31.8364 10.6659 32.0477 10.8682 32.1886C11.0727 32.3295 11.3398 32.4 11.6693 32.4C12.0443 32.4 12.342 32.3205 12.5625 32.1614C12.7852 32 12.8966 31.8068 12.8966 31.5818C12.8966 31.4 12.833 31.2477 12.7057 31.125C12.5784 31 12.383 30.9068 12.1193 30.8455L11.2466 30.6409C10.767 30.5273 10.4148 30.3511 10.1898 30.1125C9.96705 29.8716 9.85568 29.5705 9.85568 29.2091C9.85568 28.9136 9.93864 28.6523 10.1045 28.425C10.2727 28.1977 10.5011 28.0193 10.7898 27.8898C11.0807 27.7602 11.4102 27.6955 11.7784 27.6955C12.2966 27.6955 12.7034 27.8091 12.9989 28.0364C13.2966 28.2636 13.508 28.5636 13.633 28.9364ZM17.1349 33.1091C16.6304 33.1091 16.1952 32.9977 15.8293 32.775C15.4656 32.55 15.1849 32.2364 14.9872 31.8341C14.7918 31.4295 14.694 30.9591 14.694 30.4227C14.694 29.8864 14.7918 29.4136 14.9872 29.0045C15.1849 28.5932 15.4599 28.2727 15.8122 28.0432C16.1668 27.8114 16.5804 27.6955 17.0531 27.6955C17.3259 27.6955 17.5952 27.7409 17.8611 27.8318C18.127 27.9227 18.369 28.0705 18.5872 28.275C18.8054 28.4773 18.9793 28.7455 19.1088 29.0795C19.2384 29.4136 19.3031 29.825 19.3031 30.3136V30.6545H15.2668V29.9591H18.4849C18.4849 29.6636 18.4259 29.4 18.3077 29.1682C18.1918 28.9364 18.0259 28.7534 17.8099 28.6193C17.5963 28.4852 17.344 28.4182 17.0531 28.4182C16.7327 28.4182 16.4554 28.4977 16.2213 28.6568C15.9895 28.8136 15.8111 29.0182 15.6861 29.2705C15.5611 29.5227 15.4986 29.7932 15.4986 30.0818V30.5455C15.4986 30.9409 15.5668 31.2761 15.7031 31.5511C15.8418 31.8239 16.0338 32.0318 16.2793 32.175C16.5247 32.3159 16.8099 32.3864 17.1349 32.3864C17.3463 32.3864 17.5372 32.3568 17.7077 32.2977C17.8804 32.2364 18.0293 32.1455 18.1543 32.025C18.2793 31.9023 18.3759 31.75 18.444 31.5682L19.2213 31.7864C19.1395 32.05 19.002 32.2818 18.8088 32.4818C18.6156 32.6795 18.377 32.8341 18.0929 32.9455C17.8088 33.0545 17.4895 33.1091 17.1349 33.1091ZM21.3315 26.0182V33H20.527V26.0182H21.3315ZM25.1369 27.7636V28.4455H22.3142V27.7636H25.1369ZM23.1597 33V27.0409C23.1597 26.7409 23.2301 26.4909 23.371 26.2909C23.5119 26.0909 23.6949 25.9409 23.9199 25.8409C24.1449 25.7409 24.3824 25.6909 24.6324 25.6909C24.8301 25.6909 24.9915 25.7068 25.1165 25.7386C25.2415 25.7705 25.3347 25.8 25.396 25.8273L25.1642 26.5227C25.1233 26.5091 25.0665 26.492 24.9938 26.4716C24.9233 26.4511 24.8301 26.4409 24.7142 26.4409C24.4483 26.4409 24.2563 26.508 24.1381 26.642C24.0222 26.7761 23.9642 26.9727 23.9642 27.2318V33H23.1597ZM28.9926 29.6318V30.3818H25.9381V29.6318H28.9926ZM34.1173 28.9364L33.3946 29.1409C33.3491 29.0205 33.2821 28.9034 33.1935 28.7898C33.1071 28.6739 32.9889 28.5784 32.8389 28.5034C32.6889 28.4284 32.4969 28.3909 32.2628 28.3909C31.9423 28.3909 31.6753 28.4648 31.4616 28.6125C31.2503 28.758 31.1446 28.9432 31.1446 29.1682C31.1446 29.3682 31.2173 29.5261 31.3628 29.642C31.5082 29.758 31.7355 29.8545 32.0446 29.9318L32.8219 30.1227C33.2901 30.2364 33.6389 30.4102 33.8685 30.6443C34.098 30.8761 34.2128 31.175 34.2128 31.5409C34.2128 31.8409 34.1264 32.1091 33.9537 32.3455C33.7832 32.5818 33.5446 32.7682 33.2378 32.9045C32.931 33.0409 32.5741 33.1091 32.1673 33.1091C31.6332 33.1091 31.1912 32.9932 30.8412 32.7614C30.4912 32.5295 30.2696 32.1909 30.1764 31.7455L30.9401 31.5545C31.0128 31.8364 31.1503 32.0477 31.3526 32.1886C31.5571 32.3295 31.8241 32.4 32.1537 32.4C32.5287 32.4 32.8264 32.3205 33.0469 32.1614C33.2696 32 33.381 31.8068 33.381 31.5818C33.381 31.4 33.3173 31.2477 33.1901 31.125C33.0628 31 32.8673 30.9068 32.6037 30.8455L31.731 30.6409C31.2514 30.5273 30.8991 30.3511 30.6741 30.1125C30.4514 29.8716 30.3401 29.5705 30.3401 29.2091C30.3401 28.9136 30.423 28.6523 30.5889 28.425C30.7571 28.1977 30.9855 28.0193 31.2741 27.8898C31.5651 27.7602 31.8946 27.6955 32.2628 27.6955C32.781 27.6955 33.1878 27.8091 33.4832 28.0364C33.781 28.2636 33.9923 28.5636 34.1173 28.9364ZM37.6193 33.1091C37.1148 33.1091 36.6795 32.9977 36.3136 32.775C35.95 32.55 35.6693 32.2364 35.4716 31.8341C35.2761 31.4295 35.1784 30.9591 35.1784 30.4227C35.1784 29.8864 35.2761 29.4136 35.4716 29.0045C35.6693 28.5932 35.9443 28.2727 36.2966 28.0432C36.6511 27.8114 37.0648 27.6955 37.5375 27.6955C37.8102 27.6955 38.0795 27.7409 38.3455 27.8318C38.6114 27.9227 38.8534 28.0705 39.0716 28.275C39.2898 28.4773 39.4636 28.7455 39.5932 29.0795C39.7227 29.4136 39.7875 29.825 39.7875 30.3136V30.6545H35.7511V29.9591H38.9693C38.9693 29.6636 38.9102 29.4 38.792 29.1682C38.6761 28.9364 38.5102 28.7534 38.2943 28.6193C38.0807 28.4852 37.8284 28.4182 37.5375 28.4182C37.217 28.4182 36.9398 28.4977 36.7057 28.6568C36.4739 28.8136 36.2955 29.0182 36.1705 29.2705C36.0455 29.5227 35.983 29.7932 35.983 30.0818V30.5455C35.983 30.9409 36.0511 31.2761 36.1875 31.5511C36.3261 31.8239 36.5182 32.0318 36.7636 32.175C37.0091 32.3159 37.2943 32.3864 37.6193 32.3864C37.8307 32.3864 38.0216 32.3568 38.192 32.2977C38.3648 32.2364 38.5136 32.1455 38.6386 32.025C38.7636 31.9023 38.8602 31.75 38.9284 31.5682L39.7057 31.7864C39.6239 32.05 39.4864 32.2818 39.2932 32.4818C39.1 32.6795 38.8614 32.8341 38.5773 32.9455C38.2932 33.0545 37.9739 33.1091 37.6193 33.1091ZM41.0114 33V27.7636H41.7886V28.5545H41.8432C41.9386 28.2955 42.1114 28.0852 42.3614 27.9239C42.6114 27.7625 42.8932 27.6818 43.2068 27.6818C43.2659 27.6818 43.3398 27.683 43.4284 27.6852C43.517 27.6875 43.5841 27.6909 43.6295 27.6955V28.5136C43.6023 28.5068 43.5398 28.4966 43.442 28.483C43.3466 28.467 43.2455 28.4591 43.1386 28.4591C42.8841 28.4591 42.6568 28.5125 42.4568 28.6193C42.2591 28.7239 42.1023 28.8693 41.9864 29.0557C41.8727 29.2398 41.8159 29.45 41.8159 29.6864V33H41.0114ZM49.0244 27.7636L47.0881 33H46.2699L44.3335 27.7636H45.2063L46.6517 31.9364H46.7063L48.1517 27.7636H49.0244ZM50.0864 33V27.7636H50.8909V33H50.0864ZM50.4955 26.8909C50.3386 26.8909 50.2034 26.8375 50.0898 26.7307C49.9784 26.6239 49.9227 26.4955 49.9227 26.3455C49.9227 26.1955 49.9784 26.067 50.0898 25.9602C50.2034 25.8534 50.3386 25.8 50.4955 25.8C50.6523 25.8 50.7864 25.8534 50.8977 25.9602C51.0114 26.067 51.0682 26.1955 51.0682 26.3455C51.0682 26.4955 51.0114 26.6239 50.8977 26.7307C50.7864 26.8375 50.6523 26.8909 50.4955 26.8909ZM54.4918 33.1091C54.0009 33.1091 53.5781 32.9932 53.2236 32.7614C52.869 32.5295 52.5963 32.2102 52.4054 31.8034C52.2145 31.3966 52.119 30.9318 52.119 30.4091C52.119 29.8773 52.2168 29.408 52.4122 29.0011C52.6099 28.592 52.8849 28.2727 53.2372 28.0432C53.5918 27.8114 54.0054 27.6955 54.4781 27.6955C54.8463 27.6955 55.1781 27.7636 55.4736 27.9C55.769 28.0364 56.0111 28.2273 56.1997 28.4727C56.3884 28.7182 56.5054 29.0045 56.5509 29.3318H55.7463C55.6849 29.0932 55.5486 28.8818 55.3372 28.6977C55.1281 28.5114 54.8463 28.4182 54.4918 28.4182C54.1781 28.4182 53.9031 28.5 53.6668 28.6636C53.4327 28.825 53.2497 29.0534 53.1179 29.3489C52.9884 29.642 52.9236 29.9864 52.9236 30.3818C52.9236 30.7864 52.9872 31.1386 53.1145 31.4386C53.244 31.7386 53.4259 31.9716 53.6599 32.1375C53.8963 32.3034 54.1736 32.3864 54.4918 32.3864C54.7009 32.3864 54.8906 32.35 55.0611 32.2773C55.2315 32.2045 55.3759 32.1 55.494 31.9636C55.6122 31.8273 55.6963 31.6636 55.7463 31.4727H56.5509C56.5054 31.7818 56.3929 32.0602 56.2134 32.308C56.0361 32.5534 55.8009 32.7489 55.5077 32.8943C55.2168 33.0375 54.8781 33.1091 54.4918 33.1091ZM59.9224 33.1091C59.4179 33.1091 58.9827 32.9977 58.6168 32.775C58.2531 32.55 57.9724 32.2364 57.7747 31.8341C57.5793 31.4295 57.4815 30.9591 57.4815 30.4227C57.4815 29.8864 57.5793 29.4136 57.7747 29.0045C57.9724 28.5932 58.2474 28.2727 58.5997 28.0432C58.9543 27.8114 59.3679 27.6955 59.8406 27.6955C60.1134 27.6955 60.3827 27.7409 60.6486 27.8318C60.9145 27.9227 61.1565 28.0705 61.3747 28.275C61.5929 28.4773 61.7668 28.7455 61.8963 29.0795C62.0259 29.4136 62.0906 29.825 62.0906 30.3136V30.6545H58.0543V29.9591H61.2724C61.2724 29.6636 61.2134 29.4 61.0952 29.1682C60.9793 28.9364 60.8134 28.7534 60.5974 28.6193C60.3838 28.4852 60.1315 28.4182 59.8406 28.4182C59.5202 28.4182 59.2429 28.4977 59.0088 28.6568C58.777 28.8136 58.5986 29.0182 58.4736 29.2705C58.3486 29.5227 58.2861 29.7932 58.2861 30.0818V30.5455C58.2861 30.9409 58.3543 31.2761 58.4906 31.5511C58.6293 31.8239 58.8213 32.0318 59.0668 32.175C59.3122 32.3159 59.5974 32.3864 59.9224 32.3864C60.1338 32.3864 60.3247 32.3568 60.4952 32.2977C60.6679 32.2364 60.8168 32.1455 60.9418 32.025C61.0668 31.9023 61.1634 31.75 61.2315 31.5682L62.0088 31.7864C61.927 32.05 61.7895 32.2818 61.5963 32.4818C61.4031 32.6795 61.1645 32.8341 60.8804 32.9455C60.5963 33.0545 60.277 33.1091 59.9224 33.1091ZM66.4099 33H65.5236L68.0872 26.0182H68.9599L71.5236 33H70.6372L68.5509 27.1227H68.4963L66.4099 33ZM66.7372 30.2727H70.3099V31.0227H66.7372V30.2727ZM72.6111 33V26.0182H74.9702C75.5179 26.0182 75.9656 26.117 76.3134 26.3148C76.6634 26.5102 76.9224 26.775 77.0906 27.1091C77.2588 27.4432 77.3429 27.8159 77.3429 28.2273C77.3429 28.6386 77.2588 29.0125 77.0906 29.3489C76.9247 29.6852 76.6679 29.9534 76.3202 30.1534C75.9724 30.3511 75.527 30.45 74.9838 30.45H73.2929V29.7H74.9565C75.3315 29.7 75.6327 29.6352 75.8599 29.5057C76.0872 29.3761 76.252 29.2011 76.3543 28.9807C76.4588 28.758 76.5111 28.5068 76.5111 28.2273C76.5111 27.9477 76.4588 27.6977 76.3543 27.4773C76.252 27.2568 76.0861 27.0841 75.8565 26.9591C75.627 26.8318 75.3224 26.7682 74.9429 26.7682H73.4565V33H72.6111ZM79.5503 26.0182V33H78.7048V26.0182H79.5503ZM83.8364 34.9636V27.7636H84.6136V28.5955H84.7091C84.7682 28.5045 84.85 28.3886 84.9545 28.2477C85.0614 28.1045 85.2136 27.9773 85.4114 27.8659C85.6114 27.7523 85.8818 27.6955 86.2227 27.6955C86.6636 27.6955 87.0523 27.8057 87.3886 28.0261C87.725 28.2466 87.9875 28.5591 88.1761 28.9636C88.3648 29.3682 88.4591 29.8455 88.4591 30.3955C88.4591 30.95 88.3648 31.4307 88.1761 31.8375C87.9875 32.242 87.7261 32.5557 87.392 32.7784C87.058 32.9989 86.6727 33.1091 86.2364 33.1091C85.9 33.1091 85.6307 33.0534 85.4284 32.942C85.2261 32.8284 85.0705 32.7 84.9614 32.5568C84.8523 32.4114 84.7682 32.2909 84.7091 32.1955H84.6409V34.9636H83.8364ZM84.6273 30.3818C84.6273 30.7773 84.6852 31.1261 84.8011 31.4284C84.917 31.7284 85.0864 31.9636 85.3091 32.1341C85.5318 32.3023 85.8045 32.3864 86.1273 32.3864C86.4636 32.3864 86.7443 32.2977 86.9693 32.1205C87.1966 31.9409 87.367 31.7 87.4807 31.3977C87.5966 31.0932 87.6545 30.7545 87.6545 30.3818C87.6545 30.0136 87.5977 29.6818 87.4841 29.3864C87.3727 29.0886 87.2034 28.8534 86.9761 28.6807C86.7511 28.5057 86.4682 28.4182 86.1273 28.4182C85.8 28.4182 85.525 28.5011 85.3023 28.667C85.0795 28.8307 84.9114 29.0602 84.7977 29.3557C84.6841 29.6489 84.6273 29.9909 84.6273 30.3818ZM90.4909 26.0182V33H89.6864V26.0182H90.4909ZM93.5054 33.1227C93.1736 33.1227 92.8724 33.0602 92.602 32.9352C92.3315 32.808 92.1168 32.625 91.9577 32.3864C91.7986 32.1455 91.719 31.8545 91.719 31.5136C91.719 31.2136 91.7781 30.9705 91.8963 30.7841C92.0145 30.5955 92.1724 30.4477 92.3702 30.3409C92.5679 30.2341 92.7861 30.1545 93.0247 30.1023C93.2656 30.0477 93.5077 30.0045 93.7509 29.9727C94.069 29.9318 94.327 29.9011 94.5247 29.8807C94.7247 29.858 94.8702 29.8205 94.9611 29.7682C95.0543 29.7159 95.1009 29.625 95.1009 29.4955V29.4682C95.1009 29.1318 95.0088 28.8705 94.8247 28.6841C94.6429 28.4977 94.3668 28.4045 93.9963 28.4045C93.6122 28.4045 93.3111 28.4886 93.0929 28.6568C92.8747 28.825 92.7213 29.0045 92.6327 29.1955L91.869 28.9227C92.0054 28.6045 92.1872 28.3568 92.4145 28.1795C92.644 28 92.894 27.875 93.1645 27.8045C93.4372 27.7318 93.7054 27.6955 93.969 27.6955C94.1372 27.6955 94.3304 27.7159 94.5486 27.7568C94.769 27.7955 94.9815 27.8761 95.1861 27.9989C95.3929 28.1216 95.5645 28.3068 95.7009 28.5545C95.8372 28.8023 95.9054 29.1341 95.9054 29.55V33H95.1009V32.2909H95.0599C95.0054 32.4045 94.9145 32.5261 94.7872 32.6557C94.6599 32.7852 94.4906 32.8955 94.2793 32.9864C94.0679 33.0773 93.8099 33.1227 93.5054 33.1227ZM93.6281 32.4C93.9463 32.4 94.2145 32.3375 94.4327 32.2125C94.6531 32.0875 94.819 31.9261 94.9304 31.7284C95.044 31.5307 95.1009 31.3227 95.1009 31.1045V30.3682C95.0668 30.4091 94.9918 30.4466 94.8759 30.4807C94.7622 30.5125 94.6304 30.5409 94.4804 30.5659C94.3327 30.5886 94.1884 30.6091 94.0474 30.6273C93.9088 30.6432 93.7963 30.6568 93.7099 30.6682C93.5009 30.6955 93.3054 30.7398 93.1236 30.8011C92.944 30.8602 92.7986 30.95 92.6872 31.0705C92.5781 31.1886 92.5236 31.35 92.5236 31.5545C92.5236 31.8341 92.627 32.0455 92.8338 32.1886C93.0429 32.3295 93.3077 32.4 93.6281 32.4ZM99.6511 27.7636V28.4455H96.9375V27.7636H99.6511ZM97.7284 26.5091H98.533V31.5C98.533 31.7273 98.5659 31.8977 98.6318 32.0114C98.7 32.1227 98.7864 32.1977 98.8909 32.2364C98.9977 32.2727 99.1102 32.2909 99.2284 32.2909C99.3171 32.2909 99.3898 32.2864 99.4466 32.2773C99.5034 32.2659 99.5489 32.2568 99.583 32.25L99.7466 32.9727C99.6921 32.9932 99.6159 33.0136 99.5182 33.0341C99.4205 33.0568 99.2966 33.0682 99.1466 33.0682C98.9193 33.0682 98.6966 33.0193 98.4784 32.9216C98.2625 32.8239 98.083 32.675 97.9398 32.475C97.7989 32.275 97.7284 32.0227 97.7284 31.7182V26.5091ZM103.193 27.7636V28.4455H100.37V27.7636H103.193ZM101.216 33V27.0409C101.216 26.7409 101.286 26.4909 101.427 26.2909C101.568 26.0909 101.751 25.9409 101.976 25.8409C102.201 25.7409 102.439 25.6909 102.689 25.6909C102.886 25.6909 103.048 25.7068 103.173 25.7386C103.298 25.7705 103.391 25.8 103.452 25.8273L103.22 26.5227C103.18 26.5091 103.123 26.492 103.05 26.4716C102.98 26.4511 102.886 26.4409 102.77 26.4409C102.505 26.4409 102.313 26.508 102.194 26.642C102.078 26.7761 102.02 26.9727 102.02 27.2318V33H101.216ZM106.232 33.1091C105.76 33.1091 105.345 32.9966 104.988 32.7716C104.634 32.5466 104.356 32.2318 104.156 31.8273C103.959 31.4227 103.86 30.95 103.86 30.4091C103.86 29.8636 103.959 29.3875 104.156 28.9807C104.356 28.5739 104.634 28.258 104.988 28.033C105.345 27.808 105.76 27.6955 106.232 27.6955C106.705 27.6955 107.119 27.808 107.473 28.033C107.83 28.258 108.107 28.5739 108.305 28.9807C108.505 29.3875 108.605 29.8636 108.605 30.4091C108.605 30.95 108.505 31.4227 108.305 31.8273C108.107 32.2318 107.83 32.5466 107.473 32.7716C107.119 32.9966 106.705 33.1091 106.232 33.1091ZM106.232 32.3864C106.591 32.3864 106.887 32.2943 107.119 32.1102C107.351 31.9261 107.522 31.6841 107.634 31.3841C107.745 31.0841 107.801 30.7591 107.801 30.4091C107.801 30.0591 107.745 29.733 107.634 29.4307C107.522 29.1284 107.351 28.8841 107.119 28.6977C106.887 28.5114 106.591 28.4182 106.232 28.4182C105.873 28.4182 105.578 28.5114 105.346 28.6977C105.114 28.8841 104.943 29.1284 104.831 29.4307C104.72 29.733 104.664 30.0591 104.664 30.4091C104.664 30.7591 104.72 31.0841 104.831 31.3841C104.943 31.6841 105.114 31.9261 105.346 32.1102C105.578 32.2943 105.873 32.3864 106.232 32.3864ZM109.833 33V27.7636H110.611V28.5545H110.665C110.761 28.2955 110.933 28.0852 111.183 27.9239C111.433 27.7625 111.715 27.6818 112.029 27.6818C112.088 27.6818 112.162 27.683 112.25 27.6852C112.339 27.6875 112.406 27.6909 112.451 27.6955V28.5136C112.424 28.5068 112.362 28.4966 112.264 28.483C112.168 28.467 112.067 28.4591 111.961 28.4591C111.706 28.4591 111.479 28.5125 111.279 28.6193C111.081 28.7239 110.924 28.8693 110.808 29.0557C110.695 29.2398 110.638 29.45 110.638 29.6864V33H109.833ZM113.405 33V27.7636H114.182V28.5818H114.251C114.36 28.3023 114.536 28.0852 114.779 27.9307C115.022 27.7739 115.314 27.6955 115.655 27.6955C116.001 27.6955 116.288 27.7739 116.518 27.9307C116.749 28.0852 116.93 28.3023 117.06 28.5818H117.114C117.248 28.3114 117.449 28.0966 117.718 27.9375C117.986 27.7761 118.307 27.6955 118.682 27.6955C119.151 27.6955 119.534 27.842 119.831 28.1352C120.129 28.4261 120.278 28.8795 120.278 29.4955V33H119.473V29.4955C119.473 29.1091 119.368 28.833 119.156 28.667C118.945 28.5011 118.696 28.4182 118.41 28.4182C118.041 28.4182 117.756 28.5295 117.554 28.7523C117.352 28.9727 117.251 29.2523 117.251 29.5909V33H116.432V29.4136C116.432 29.1159 116.336 28.8761 116.143 28.6943C115.949 28.5102 115.701 28.4182 115.396 28.4182C115.187 28.4182 114.991 28.4739 114.81 28.5852C114.63 28.6966 114.485 28.8511 114.373 29.0489C114.264 29.2443 114.21 29.4705 114.21 29.7273V33H113.405ZM126.726 27.7636V28.4455H124.013V27.7636H126.726ZM124.803 26.5091H125.608V31.5C125.608 31.7273 125.641 31.8977 125.707 32.0114C125.775 32.1227 125.861 32.1977 125.966 32.2364C126.073 32.2727 126.185 32.2909 126.303 32.2909C126.392 32.2909 126.465 32.2864 126.522 32.2773C126.578 32.2659 126.624 32.2568 126.658 32.25L126.822 32.9727C126.767 32.9932 126.691 33.0136 126.593 33.0341C126.495 33.0568 126.372 33.0682 126.222 33.0682C125.994 33.0682 125.772 33.0193 125.553 32.9216C125.338 32.8239 125.158 32.675 125.015 32.475C124.874 32.275 124.803 32.0227 124.803 31.7182V26.5091ZM128.853 29.85V33H128.049V26.0182H128.853V28.5818H128.922C129.044 28.3114 129.228 28.0966 129.474 27.9375C129.722 27.7761 130.051 27.6955 130.463 27.6955C130.819 27.6955 131.132 27.767 131.4 27.9102C131.668 28.0511 131.876 28.2682 132.024 28.5614C132.174 28.8523 132.249 29.2227 132.249 29.6727V33H131.444V29.7273C131.444 29.3114 131.336 28.9898 131.12 28.7625C130.907 28.533 130.61 28.4182 130.231 28.4182C129.967 28.4182 129.731 28.4739 129.522 28.5852C129.315 28.6966 129.151 28.8591 129.031 29.0727C128.913 29.2864 128.853 29.5455 128.853 29.85ZM135.262 33.1227C134.93 33.1227 134.629 33.0602 134.358 32.9352C134.088 32.808 133.873 32.625 133.714 32.3864C133.555 32.1455 133.475 31.8545 133.475 31.5136C133.475 31.2136 133.534 30.9705 133.653 30.7841C133.771 30.5955 133.929 30.4477 134.126 30.3409C134.324 30.2341 134.542 30.1545 134.781 30.1023C135.022 30.0477 135.264 30.0045 135.507 29.9727C135.825 29.9318 136.083 29.9011 136.281 29.8807C136.481 29.858 136.626 29.8205 136.717 29.7682C136.811 29.7159 136.857 29.625 136.857 29.4955V29.4682C136.857 29.1318 136.765 28.8705 136.581 28.6841C136.399 28.4977 136.123 28.4045 135.753 28.4045C135.368 28.4045 135.067 28.4886 134.849 28.6568C134.631 28.825 134.478 29.0045 134.389 29.1955L133.625 28.9227C133.762 28.6045 133.943 28.3568 134.171 28.1795C134.4 28 134.65 27.875 134.921 27.8045C135.193 27.7318 135.462 27.6955 135.725 27.6955C135.893 27.6955 136.087 27.7159 136.305 27.7568C136.525 27.7955 136.738 27.8761 136.942 27.9989C137.149 28.1216 137.321 28.3068 137.457 28.5545C137.593 28.8023 137.662 29.1341 137.662 29.55V33H136.857V32.2909H136.816C136.762 32.4045 136.671 32.5261 136.543 32.6557C136.416 32.7852 136.247 32.8955 136.036 32.9864C135.824 33.0773 135.566 33.1227 135.262 33.1227ZM135.384 32.4C135.703 32.4 135.971 32.3375 136.189 32.2125C136.409 32.0875 136.575 31.9261 136.687 31.7284C136.8 31.5307 136.857 31.3227 136.857 31.1045V30.3682C136.823 30.4091 136.748 30.4466 136.632 30.4807C136.518 30.5125 136.387 30.5409 136.237 30.5659C136.089 30.5886 135.945 30.6091 135.804 30.6273C135.665 30.6432 135.553 30.6568 135.466 30.6682C135.257 30.6955 135.062 30.7398 134.88 30.8011C134.7 30.8602 134.555 30.95 134.443 31.0705C134.334 31.1886 134.28 31.35 134.28 31.5545C134.28 31.8341 134.383 32.0455 134.59 32.1886C134.799 32.3295 135.064 32.4 135.384 32.4ZM141.407 27.7636V28.4455H138.694V27.7636H141.407ZM139.485 26.5091H140.289V31.5C140.289 31.7273 140.322 31.8977 140.388 32.0114C140.456 32.1227 140.543 32.1977 140.647 32.2364C140.754 32.2727 140.866 32.2909 140.985 32.2909C141.073 32.2909 141.146 32.2864 141.203 32.2773C141.26 32.2659 141.305 32.2568 141.339 32.25L141.503 32.9727C141.448 32.9932 141.372 33.0136 141.274 33.0341C141.177 33.0568 141.053 33.0682 140.903 33.0682C140.676 33.0682 140.453 33.0193 140.235 32.9216C140.019 32.8239 139.839 32.675 139.696 32.475C139.555 32.275 139.485 32.0227 139.485 31.7182V26.5091ZM146.859 33.1227C146.527 33.1227 146.226 33.0602 145.955 32.9352C145.685 32.808 145.47 32.625 145.311 32.3864C145.152 32.1455 145.072 31.8545 145.072 31.5136C145.072 31.2136 145.131 30.9705 145.249 30.7841C145.368 30.5955 145.526 30.4477 145.723 30.3409C145.921 30.2341 146.139 30.1545 146.378 30.1023C146.619 30.0477 146.861 30.0045 147.104 29.9727C147.422 29.9318 147.68 29.9011 147.878 29.8807C148.078 29.858 148.223 29.8205 148.314 29.7682C148.407 29.7159 148.454 29.625 148.454 29.4955V29.4682C148.454 29.1318 148.362 28.8705 148.178 28.6841C147.996 28.4977 147.72 28.4045 147.349 28.4045C146.965 28.4045 146.664 28.4886 146.446 28.6568C146.228 28.825 146.074 29.0045 145.986 29.1955L145.222 28.9227C145.359 28.6045 145.54 28.3568 145.768 28.1795C145.997 28 146.247 27.875 146.518 27.8045C146.79 27.7318 147.059 27.6955 147.322 27.6955C147.49 27.6955 147.684 27.7159 147.902 27.7568C148.122 27.7955 148.335 27.8761 148.539 27.9989C148.746 28.1216 148.918 28.3068 149.054 28.5545C149.19 28.8023 149.259 29.1341 149.259 29.55V33H148.454V32.2909H148.413C148.359 32.4045 148.268 32.5261 148.14 32.6557C148.013 32.7852 147.844 32.8955 147.632 32.9864C147.421 33.0773 147.163 33.1227 146.859 33.1227ZM146.981 32.4C147.299 32.4 147.568 32.3375 147.786 32.2125C148.006 32.0875 148.172 31.9261 148.284 31.7284C148.397 31.5307 148.454 31.3227 148.454 31.1045V30.3682C148.42 30.4091 148.345 30.4466 148.229 30.4807C148.115 30.5125 147.984 30.5409 147.834 30.5659C147.686 30.5886 147.541 30.6091 147.401 30.6273C147.262 30.6432 147.149 30.6568 147.063 30.6682C146.854 30.6955 146.659 30.7398 146.477 30.8011C146.297 30.8602 146.152 30.95 146.04 31.0705C145.931 31.1886 145.877 31.35 145.877 31.5545C145.877 31.8341 145.98 32.0455 146.187 32.1886C146.396 32.3295 146.661 32.4 146.981 32.4ZM152.854 33.1091C152.363 33.1091 151.941 32.9932 151.586 32.7614C151.232 32.5295 150.959 32.2102 150.768 31.8034C150.577 31.3966 150.482 30.9318 150.482 30.4091C150.482 29.8773 150.579 29.408 150.775 29.0011C150.972 28.592 151.247 28.2727 151.6 28.0432C151.954 27.8114 152.368 27.6955 152.841 27.6955C153.209 27.6955 153.541 27.7636 153.836 27.9C154.132 28.0364 154.374 28.2273 154.562 28.4727C154.751 28.7182 154.868 29.0045 154.913 29.3318H154.109C154.047 29.0932 153.911 28.8818 153.7 28.6977C153.491 28.5114 153.209 28.4182 152.854 28.4182C152.541 28.4182 152.266 28.5 152.029 28.6636C151.795 28.825 151.612 29.0534 151.48 29.3489C151.351 29.642 151.286 29.9864 151.286 30.3818C151.286 30.7864 151.35 31.1386 151.477 31.4386C151.607 31.7386 151.788 31.9716 152.022 32.1375C152.259 32.3034 152.536 32.3864 152.854 32.3864C153.063 32.3864 153.253 32.35 153.424 32.2773C153.594 32.2045 153.738 32.1 153.857 31.9636C153.975 31.8273 154.059 31.6636 154.109 31.4727H154.913C154.868 31.7818 154.755 32.0602 154.576 32.308C154.399 32.5534 154.163 32.7489 153.87 32.8943C153.579 33.0375 153.241 33.1091 152.854 33.1091ZM158.367 27.7636V28.4455H155.653V27.7636H158.367ZM156.444 26.5091H157.249V31.5C157.249 31.7273 157.282 31.8977 157.347 32.0114C157.416 32.1227 157.502 32.1977 157.607 32.2364C157.713 32.2727 157.826 32.2909 157.944 32.2909C158.033 32.2909 158.105 32.2864 158.162 32.2773C158.219 32.2659 158.264 32.2568 158.299 32.25L158.462 32.9727C158.408 32.9932 158.332 33.0136 158.234 33.0341C158.136 33.0568 158.012 33.0682 157.862 33.0682C157.635 33.0682 157.412 33.0193 157.194 32.9216C156.978 32.8239 156.799 32.675 156.655 32.475C156.514 32.275 156.444 32.0227 156.444 31.7182V26.5091ZM163.192 28.9364L162.47 29.1409C162.424 29.0205 162.357 28.9034 162.268 28.7898C162.182 28.6739 162.064 28.5784 161.914 28.5034C161.764 28.4284 161.572 28.3909 161.338 28.3909C161.017 28.3909 160.75 28.4648 160.537 28.6125C160.325 28.758 160.22 28.9432 160.22 29.1682C160.22 29.3682 160.292 29.5261 160.438 29.642C160.583 29.758 160.811 29.8545 161.12 29.9318L161.897 30.1227C162.365 30.2364 162.714 30.4102 162.943 30.6443C163.173 30.8761 163.288 31.175 163.288 31.5409C163.288 31.8409 163.201 32.1091 163.029 32.3455C162.858 32.5818 162.62 32.7682 162.313 32.9045C162.006 33.0409 161.649 33.1091 161.242 33.1091C160.708 33.1091 160.266 32.9932 159.916 32.7614C159.566 32.5295 159.345 32.1909 159.251 31.7455L160.015 31.5545C160.088 31.8364 160.225 32.0477 160.428 32.1886C160.632 32.3295 160.899 32.4 161.229 32.4C161.604 32.4 161.901 32.3205 162.122 32.1614C162.345 32 162.456 31.8068 162.456 31.5818C162.456 31.4 162.392 31.2477 162.265 31.125C162.138 31 161.942 30.9068 161.679 30.8455L160.806 30.6409C160.326 30.5273 159.974 30.3511 159.749 30.1125C159.526 29.8716 159.415 29.5705 159.415 29.2091C159.415 28.9136 159.498 28.6523 159.664 28.425C159.832 28.1977 160.061 28.0193 160.349 27.8898C160.64 27.7602 160.97 27.6955 161.338 27.6955C161.856 27.6955 162.263 27.8091 162.558 28.0364C162.856 28.2636 163.067 28.5636 163.192 28.9364ZM168.74 33.1227C168.408 33.1227 168.107 33.0602 167.836 32.9352C167.566 32.808 167.351 32.625 167.192 32.3864C167.033 32.1455 166.953 31.8545 166.953 31.5136C166.953 31.2136 167.013 30.9705 167.131 30.7841C167.249 30.5955 167.407 30.4477 167.605 30.3409C167.802 30.2341 168.02 30.1545 168.259 30.1023C168.5 30.0477 168.742 30.0045 168.985 29.9727C169.303 29.9318 169.561 29.9011 169.759 29.8807C169.959 29.858 170.105 29.8205 170.195 29.7682C170.289 29.7159 170.335 29.625 170.335 29.4955V29.4682C170.335 29.1318 170.243 28.8705 170.059 28.6841C169.877 28.4977 169.601 28.4045 169.231 28.4045C168.847 28.4045 168.545 28.4886 168.327 28.6568C168.109 28.825 167.956 29.0045 167.867 29.1955L167.103 28.9227C167.24 28.6045 167.422 28.3568 167.649 28.1795C167.878 28 168.128 27.875 168.399 27.8045C168.672 27.7318 168.94 27.6955 169.203 27.6955C169.372 27.6955 169.565 27.7159 169.783 27.7568C170.003 27.7955 170.216 27.8761 170.42 27.9989C170.627 28.1216 170.799 28.3068 170.935 28.5545C171.072 28.8023 171.14 29.1341 171.14 29.55V33H170.335V32.2909H170.294C170.24 32.4045 170.149 32.5261 170.022 32.6557C169.894 32.7852 169.725 32.8955 169.514 32.9864C169.302 33.0773 169.044 33.1227 168.74 33.1227ZM168.863 32.4C169.181 32.4 169.449 32.3375 169.667 32.2125C169.888 32.0875 170.053 31.9261 170.165 31.7284C170.278 31.5307 170.335 31.3227 170.335 31.1045V30.3682C170.301 30.4091 170.226 30.4466 170.11 30.4807C169.997 30.5125 169.865 30.5409 169.715 30.5659C169.567 30.5886 169.423 30.6091 169.282 30.6273C169.143 30.6432 169.031 30.6568 168.944 30.6682C168.735 30.6955 168.54 30.7398 168.358 30.8011C168.178 30.8602 168.033 30.95 167.922 31.0705C167.813 31.1886 167.758 31.35 167.758 31.5545C167.758 31.8341 167.861 32.0455 168.068 32.1886C168.277 32.3295 168.542 32.4 168.863 32.4ZM176.317 28.9364L175.595 29.1409C175.549 29.0205 175.482 28.9034 175.393 28.7898C175.307 28.6739 175.189 28.5784 175.039 28.5034C174.889 28.4284 174.697 28.3909 174.463 28.3909C174.142 28.3909 173.875 28.4648 173.662 28.6125C173.45 28.758 173.345 28.9432 173.345 29.1682C173.345 29.3682 173.417 29.5261 173.563 29.642C173.708 29.758 173.936 29.8545 174.245 29.9318L175.022 30.1227C175.49 30.2364 175.839 30.4102 176.068 30.6443C176.298 30.8761 176.413 31.175 176.413 31.5409C176.413 31.8409 176.326 32.1091 176.154 32.3455C175.983 32.5818 175.745 32.7682 175.438 32.9045C175.131 33.0409 174.774 33.1091 174.367 33.1091C173.833 33.1091 173.391 32.9932 173.041 32.7614C172.691 32.5295 172.47 32.1909 172.376 31.7455L173.14 31.5545C173.213 31.8364 173.35 32.0477 173.553 32.1886C173.757 32.3295 174.024 32.4 174.354 32.4C174.729 32.4 175.026 32.3205 175.247 32.1614C175.47 32 175.581 31.8068 175.581 31.5818C175.581 31.4 175.517 31.2477 175.39 31.125C175.263 31 175.067 30.9068 174.804 30.8455L173.931 30.6409C173.451 30.5273 173.099 30.3511 172.874 30.1125C172.651 29.8716 172.54 29.5705 172.54 29.2091C172.54 28.9136 172.623 28.6523 172.789 28.425C172.957 28.1977 173.186 28.0193 173.474 27.8898C173.765 27.7602 174.095 27.6955 174.463 27.6955C174.981 27.6955 175.388 27.8091 175.683 28.0364C175.981 28.2636 176.192 28.5636 176.317 28.9364ZM181.865 33.1227C181.533 33.1227 181.232 33.0602 180.961 32.9352C180.691 32.808 180.476 32.625 180.317 32.3864C180.158 32.1455 180.078 31.8545 180.078 31.5136C180.078 31.2136 180.138 30.9705 180.256 30.7841C180.374 30.5955 180.532 30.4477 180.73 30.3409C180.927 30.2341 181.145 30.1545 181.384 30.1023C181.625 30.0477 181.867 30.0045 182.11 29.9727C182.428 29.9318 182.686 29.9011 182.884 29.8807C183.084 29.858 183.23 29.8205 183.32 29.7682C183.414 29.7159 183.46 29.625 183.46 29.4955V29.4682C183.46 29.1318 183.368 28.8705 183.184 28.6841C183.002 28.4977 182.726 28.4045 182.356 28.4045C181.972 28.4045 181.67 28.4886 181.452 28.6568C181.234 28.825 181.081 29.0045 180.992 29.1955L180.228 28.9227C180.365 28.6045 180.547 28.3568 180.774 28.1795C181.003 28 181.253 27.875 181.524 27.8045C181.797 27.7318 182.065 27.6955 182.328 27.6955C182.497 27.6955 182.69 27.7159 182.908 27.7568C183.128 27.7955 183.341 27.8761 183.545 27.9989C183.752 28.1216 183.924 28.3068 184.06 28.5545C184.197 28.8023 184.265 29.1341 184.265 29.55V33H183.46V32.2909H183.419C183.365 32.4045 183.274 32.5261 183.147 32.6557C183.019 32.7852 182.85 32.8955 182.639 32.9864C182.427 33.0773 182.169 33.1227 181.865 33.1227ZM181.988 32.4C182.306 32.4 182.574 32.3375 182.792 32.2125C183.013 32.0875 183.178 31.9261 183.29 31.7284C183.403 31.5307 183.46 31.3227 183.46 31.1045V30.3682C183.426 30.4091 183.351 30.4466 183.235 30.4807C183.122 30.5125 182.99 30.5409 182.84 30.5659C182.692 30.5886 182.548 30.6091 182.407 30.6273C182.268 30.6432 182.156 30.6568 182.069 30.6682C181.86 30.6955 181.665 30.7398 181.483 30.8011C181.303 30.8602 181.158 30.95 181.047 31.0705C180.938 31.1886 180.883 31.35 180.883 31.5545C180.883 31.8341 180.986 32.0455 181.193 32.1886C181.402 32.3295 181.667 32.4 181.988 32.4ZM190.561 33.1091C190.07 33.1091 189.647 32.9932 189.292 32.7614C188.938 32.5295 188.665 32.2102 188.474 31.8034C188.283 31.3966 188.188 30.9318 188.188 30.4091C188.188 29.8773 188.286 29.408 188.481 29.0011C188.679 28.592 188.954 28.2727 189.306 28.0432C189.661 27.8114 190.074 27.6955 190.547 27.6955C190.915 27.6955 191.247 27.7636 191.542 27.9C191.838 28.0364 192.08 28.2273 192.268 28.4727C192.457 28.7182 192.574 29.0045 192.62 29.3318H191.815C191.754 29.0932 191.617 28.8818 191.406 28.6977C191.197 28.5114 190.915 28.4182 190.561 28.4182C190.247 28.4182 189.972 28.5 189.736 28.6636C189.501 28.825 189.318 29.0534 189.187 29.3489C189.057 29.642 188.992 29.9864 188.992 30.3818C188.992 30.7864 189.056 31.1386 189.183 31.4386C189.313 31.7386 189.495 31.9716 189.729 32.1375C189.965 32.3034 190.242 32.3864 190.561 32.3864C190.77 32.3864 190.959 32.35 191.13 32.2773C191.3 32.2045 191.445 32.1 191.563 31.9636C191.681 31.8273 191.765 31.6636 191.815 31.4727H192.62C192.574 31.7818 192.462 32.0602 192.282 32.308C192.105 32.5534 191.87 32.7489 191.576 32.8943C191.286 33.0375 190.947 33.1091 190.561 33.1091ZM195.991 33.1091C195.487 33.1091 195.051 32.9977 194.686 32.775C194.322 32.55 194.041 32.2364 193.843 31.8341C193.648 31.4295 193.55 30.9591 193.55 30.4227C193.55 29.8864 193.648 29.4136 193.843 29.0045C194.041 28.5932 194.316 28.2727 194.668 28.0432C195.023 27.8114 195.437 27.6955 195.909 27.6955C196.182 27.6955 196.451 27.7409 196.717 27.8318C196.983 27.9227 197.225 28.0705 197.443 28.275C197.662 28.4773 197.836 28.7455 197.965 29.0795C198.095 29.4136 198.159 29.825 198.159 30.3136V30.6545H194.123V29.9591H197.341C197.341 29.6636 197.282 29.4 197.164 29.1682C197.048 28.9364 196.882 28.7534 196.666 28.6193C196.453 28.4852 196.2 28.4182 195.909 28.4182C195.589 28.4182 195.312 28.4977 195.078 28.6568C194.846 28.8136 194.667 29.0182 194.542 29.2705C194.417 29.5227 194.355 29.7932 194.355 30.0818V30.5455C194.355 30.9409 194.423 31.2761 194.559 31.5511C194.698 31.8239 194.89 32.0318 195.136 32.175C195.381 32.3159 195.666 32.3864 195.991 32.3864C196.203 32.3864 196.393 32.3568 196.564 32.2977C196.737 32.2364 196.886 32.1455 197.011 32.025C197.136 31.9023 197.232 31.75 197.3 31.5682L198.078 31.7864C197.996 32.05 197.858 32.2818 197.665 32.4818C197.472 32.6795 197.233 32.8341 196.949 32.9455C196.665 33.0545 196.346 33.1091 195.991 33.1091ZM200.188 29.85V33H199.383V27.7636H200.161V28.5818H200.229C200.351 28.3159 200.538 28.1023 200.788 27.9409C201.038 27.7773 201.361 27.6955 201.756 27.6955C202.111 27.6955 202.421 27.7682 202.687 27.9136C202.953 28.0568 203.159 28.275 203.307 28.5682C203.455 28.8591 203.529 29.2273 203.529 29.6727V33H202.724V29.7273C202.724 29.3159 202.617 28.9955 202.404 28.7659C202.19 28.5341 201.897 28.4182 201.524 28.4182C201.267 28.4182 201.038 28.4739 200.836 28.5852C200.636 28.6966 200.478 28.8591 200.362 29.0727C200.246 29.2864 200.188 29.5455 200.188 29.85ZM207.276 27.7636V28.4455H204.563V27.7636H207.276ZM205.353 26.5091H206.158V31.5C206.158 31.7273 206.191 31.8977 206.257 32.0114C206.325 32.1227 206.411 32.1977 206.516 32.2364C206.623 32.2727 206.735 32.2909 206.853 32.2909C206.942 32.2909 207.015 32.2864 207.072 32.2773C207.128 32.2659 207.174 32.2568 207.208 32.25L207.372 32.9727C207.317 32.9932 207.241 33.0136 207.143 33.0341C207.045 33.0568 206.922 33.0682 206.772 33.0682C206.544 33.0682 206.322 33.0193 206.103 32.9216C205.888 32.8239 205.708 32.675 205.565 32.475C205.424 32.275 205.353 32.0227 205.353 31.7182V26.5091ZM208.486 33V27.7636H209.264V28.5545H209.318C209.414 28.2955 209.586 28.0852 209.836 27.9239C210.086 27.7625 210.368 27.6818 210.682 27.6818C210.741 27.6818 210.815 27.683 210.903 27.6852C210.992 27.6875 211.059 27.6909 211.105 27.6955V28.5136C211.077 28.5068 211.015 28.4966 210.917 28.483C210.822 28.467 210.72 28.4591 210.614 28.4591C210.359 28.4591 210.132 28.5125 209.932 28.6193C209.734 28.7239 209.577 28.8693 209.461 29.0557C209.348 29.2398 209.291 29.45 209.291 29.6864V33H208.486ZM213.599 33.1227C213.267 33.1227 212.966 33.0602 212.696 32.9352C212.425 32.808 212.211 32.625 212.051 32.3864C211.892 32.1455 211.813 31.8545 211.813 31.5136C211.813 31.2136 211.872 30.9705 211.99 30.7841C212.108 30.5955 212.266 30.4477 212.464 30.3409C212.662 30.2341 212.88 30.1545 213.118 30.1023C213.359 30.0477 213.601 30.0045 213.845 29.9727C214.163 29.9318 214.421 29.9011 214.618 29.8807C214.818 29.858 214.964 29.8205 215.055 29.7682C215.148 29.7159 215.195 29.625 215.195 29.4955V29.4682C215.195 29.1318 215.103 28.8705 214.918 28.6841C214.737 28.4977 214.461 28.4045 214.09 28.4045C213.706 28.4045 213.405 28.4886 213.187 28.6568C212.968 28.825 212.815 29.0045 212.726 29.1955L211.963 28.9227C212.099 28.6045 212.281 28.3568 212.508 28.1795C212.738 28 212.988 27.875 213.258 27.8045C213.531 27.7318 213.799 27.6955 214.063 27.6955C214.231 27.6955 214.424 27.7159 214.642 27.7568C214.863 27.7955 215.075 27.8761 215.28 27.9989C215.487 28.1216 215.658 28.3068 215.795 28.5545C215.931 28.8023 215.999 29.1341 215.999 29.55V33H215.195V32.2909H215.154C215.099 32.4045 215.008 32.5261 214.881 32.6557C214.754 32.7852 214.584 32.8955 214.373 32.9864C214.162 33.0773 213.904 33.1227 213.599 33.1227ZM213.722 32.4C214.04 32.4 214.308 32.3375 214.526 32.2125C214.747 32.0875 214.913 31.9261 215.024 31.7284C215.138 31.5307 215.195 31.3227 215.195 31.1045V30.3682C215.161 30.4091 215.086 30.4466 214.97 30.4807C214.856 30.5125 214.724 30.5409 214.574 30.5659C214.426 30.5886 214.282 30.6091 214.141 30.6273C214.003 30.6432 213.89 30.6568 213.804 30.6682C213.595 30.6955 213.399 30.7398 213.217 30.8011C213.038 30.8602 212.892 30.95 212.781 31.0705C212.672 31.1886 212.617 31.35 212.617 31.5545C212.617 31.8341 212.721 32.0455 212.928 32.1886C213.137 32.3295 213.401 32.4 213.722 32.4ZM218.272 26.0182V33H217.468V26.0182H218.272ZM219.746 33V27.7636H220.55V33H219.746ZM220.155 26.8909C219.998 26.8909 219.863 26.8375 219.749 26.7307C219.638 26.6239 219.582 26.4955 219.582 26.3455C219.582 26.1955 219.638 26.067 219.749 25.9602C219.863 25.8534 219.998 25.8 220.155 25.8C220.312 25.8 220.446 25.8534 220.557 25.9602C220.671 26.067 220.728 26.1955 220.728 26.3455C220.728 26.4955 220.671 26.6239 220.557 26.7307C220.446 26.8375 220.312 26.8909 220.155 26.8909ZM225.733 28.9364L225.01 29.1409C224.965 29.0205 224.898 28.9034 224.809 28.7898C224.723 28.6739 224.605 28.5784 224.455 28.5034C224.305 28.4284 224.113 28.3909 223.878 28.3909C223.558 28.3909 223.291 28.4648 223.077 28.6125C222.866 28.758 222.76 28.9432 222.76 29.1682C222.76 29.3682 222.833 29.5261 222.978 29.642C223.124 29.758 223.351 29.8545 223.66 29.9318L224.438 30.1227C224.906 30.2364 225.255 30.4102 225.484 30.6443C225.714 30.8761 225.828 31.175 225.828 31.5409C225.828 31.8409 225.742 32.1091 225.569 32.3455C225.399 32.5818 225.16 32.7682 224.853 32.9045C224.547 33.0409 224.19 33.1091 223.783 33.1091C223.249 33.1091 222.807 32.9932 222.457 32.7614C222.107 32.5295 221.885 32.1909 221.792 31.7455L222.556 31.5545C222.628 31.8364 222.766 32.0477 222.968 32.1886C223.173 32.3295 223.44 32.4 223.769 32.4C224.144 32.4 224.442 32.3205 224.663 32.1614C224.885 32 224.997 31.8068 224.997 31.5818C224.997 31.4 224.933 31.2477 224.806 31.125C224.678 31 224.483 30.9068 224.219 30.8455L223.347 30.6409C222.867 30.5273 222.515 30.3511 222.29 30.1125C222.067 29.8716 221.956 29.5705 221.956 29.2091C221.956 28.9136 222.039 28.6523 222.205 28.425C222.373 28.1977 222.601 28.0193 222.89 27.8898C223.181 27.7602 223.51 27.6955 223.878 27.6955C224.397 27.6955 224.803 27.8091 225.099 28.0364C225.397 28.2636 225.608 28.5636 225.733 28.9364ZM229.235 33.1091C228.73 33.1091 228.295 32.9977 227.929 32.775C227.566 32.55 227.285 32.2364 227.087 31.8341C226.892 31.4295 226.794 30.9591 226.794 30.4227C226.794 29.8864 226.892 29.4136 227.087 29.0045C227.285 28.5932 227.56 28.2727 227.912 28.0432C228.267 27.8114 228.68 27.6955 229.153 27.6955C229.426 27.6955 229.695 27.7409 229.961 27.8318C230.227 27.9227 230.469 28.0705 230.687 28.275C230.905 28.4773 231.079 28.7455 231.209 29.0795C231.338 29.4136 231.403 29.825 231.403 30.3136V30.6545H227.367V29.9591H230.585C230.585 29.6636 230.526 29.4 230.408 29.1682C230.292 28.9364 230.126 28.7534 229.91 28.6193C229.696 28.4852 229.444 28.4182 229.153 28.4182C228.833 28.4182 228.555 28.4977 228.321 28.6568C228.089 28.8136 227.911 29.0182 227.786 29.2705C227.661 29.5227 227.599 29.7932 227.599 30.0818V30.5455C227.599 30.9409 227.667 31.2761 227.803 31.5511C227.942 31.8239 228.134 32.0318 228.379 32.175C228.625 32.3159 228.91 32.3864 229.235 32.3864C229.446 32.3864 229.637 32.3568 229.808 32.2977C229.98 32.2364 230.129 32.1455 230.254 32.025C230.379 31.9023 230.476 31.75 230.544 31.5682L231.321 31.7864C231.239 32.05 231.102 32.2818 230.909 32.4818C230.716 32.6795 230.477 32.8341 230.193 32.9455C229.909 33.0545 229.589 33.1091 229.235 33.1091ZM234.604 33.1091C234.168 33.1091 233.783 32.9989 233.449 32.7784C233.114 32.5557 232.853 32.242 232.664 31.8375C232.476 31.4307 232.382 30.95 232.382 30.3955C232.382 29.8455 232.476 29.3682 232.664 28.9636C232.853 28.5591 233.116 28.2466 233.452 28.0261C233.788 27.8057 234.177 27.6955 234.618 27.6955C234.959 27.6955 235.228 27.7523 235.426 27.8659C235.626 27.9773 235.778 28.1045 235.883 28.2477C235.989 28.3886 236.072 28.5045 236.132 28.5955H236.2V26.0182H237.004V33H236.227V32.1955H236.132C236.072 32.2909 235.988 32.4114 235.879 32.5568C235.77 32.7 235.614 32.8284 235.412 32.942C235.21 33.0534 234.941 33.1091 234.604 33.1091ZM234.713 32.3864C235.036 32.3864 235.309 32.3023 235.532 32.1341C235.754 31.9636 235.924 31.7284 236.039 31.4284C236.155 31.1261 236.213 30.7773 236.213 30.3818C236.213 29.9909 236.157 29.6489 236.043 29.3557C235.929 29.0602 235.761 28.8307 235.538 28.667C235.316 28.5011 235.041 28.4182 234.713 28.4182C234.372 28.4182 234.088 28.5057 233.861 28.6807C233.636 28.8534 233.467 29.0886 233.353 29.3864C233.242 29.6818 233.186 30.0136 233.186 30.3818C233.186 30.7545 233.243 31.0932 233.357 31.3977C233.472 31.7 233.643 31.9409 233.868 32.1205C234.095 32.2977 234.377 32.3864 234.713 32.3864ZM2.27727 52.1227C1.94545 52.1227 1.64432 52.0602 1.37386 51.9352C1.10341 51.808 0.888636 51.625 0.729546 51.3864C0.570455 51.1455 0.490909 50.8545 0.490909 50.5136C0.490909 50.2136 0.55 49.9705 0.668182 49.7841C0.786364 49.5955 0.944318 49.4477 1.14205 49.3409C1.33977 49.2341 1.55795 49.1545 1.79659 49.1023C2.0375 49.0477 2.27955 49.0045 2.52273 48.9727C2.84091 48.9318 3.09886 48.9011 3.29659 48.8807C3.49659 48.858 3.64205 48.8205 3.73295 48.7682C3.82614 48.7159 3.87273 48.625 3.87273 48.4955V48.4682C3.87273 48.1318 3.78068 47.8705 3.59659 47.6841C3.41477 47.4977 3.13864 47.4045 2.76818 47.4045C2.38409 47.4045 2.08295 47.4886 1.86477 47.6568C1.64659 47.825 1.49318 48.0045 1.40455 48.1955L0.640909 47.9227C0.777273 47.6045 0.959091 47.3568 1.18636 47.1795C1.41591 47 1.66591 46.875 1.93636 46.8045C2.20909 46.7318 2.47727 46.6955 2.74091 46.6955C2.90909 46.6955 3.10227 46.7159 3.32045 46.7568C3.54091 46.7955 3.75341 46.8761 3.95795 46.9989C4.16477 47.1216 4.33636 47.3068 4.47273 47.5545C4.60909 47.8023 4.67727 48.1341 4.67727 48.55V52H3.87273V51.2909H3.83182C3.77727 51.4045 3.68636 51.5261 3.55909 51.6557C3.43182 51.7852 3.2625 51.8955 3.05114 51.9864C2.83977 52.0773 2.58182 52.1227 2.27727 52.1227ZM2.4 51.4C2.71818 51.4 2.98636 51.3375 3.20455 51.2125C3.425 51.0875 3.59091 50.9261 3.70227 50.7284C3.81591 50.5307 3.87273 50.3227 3.87273 50.1045V49.3682C3.83864 49.4091 3.76364 49.4466 3.64773 49.4807C3.53409 49.5125 3.40227 49.5409 3.25227 49.5659C3.10455 49.5886 2.96023 49.6091 2.81932 49.6273C2.68068 49.6432 2.56818 49.6568 2.48182 49.6682C2.27273 49.6955 2.07727 49.7398 1.89545 49.8011C1.71591 49.8602 1.57045 49.95 1.45909 50.0705C1.35 50.1886 1.29545 50.35 1.29545 50.5545C1.29545 50.8341 1.39886 51.0455 1.60568 51.1886C1.81477 51.3295 2.07955 51.4 2.4 51.4ZM6.95028 48.85V52H6.14574V46.7636H6.92301V47.5818H6.99119C7.11392 47.3159 7.30028 47.1023 7.55028 46.9409C7.80028 46.7773 8.12301 46.6955 8.51847 46.6955C8.87301 46.6955 9.18324 46.7682 9.44915 46.9136C9.71506 47.0568 9.92188 47.275 10.0696 47.5682C10.2173 47.8591 10.2912 48.2273 10.2912 48.6727V52H9.48665V48.7273C9.48665 48.3159 9.37983 47.9955 9.16619 47.7659C8.95256 47.5341 8.65938 47.4182 8.28665 47.4182C8.02983 47.4182 7.80028 47.4739 7.59801 47.5852C7.39801 47.6966 7.24006 47.8591 7.12415 48.0727C7.00824 48.2864 6.95028 48.5455 6.95028 48.85ZM13.7386 52.1091C13.3023 52.1091 12.917 51.9989 12.583 51.7784C12.2489 51.5557 11.9875 51.242 11.7989 50.8375C11.6102 50.4307 11.5159 49.95 11.5159 49.3955C11.5159 48.8455 11.6102 48.3682 11.7989 47.9636C11.9875 47.5591 12.25 47.2466 12.5864 47.0261C12.9227 46.8057 13.3114 46.6955 13.7523 46.6955C14.0932 46.6955 14.3625 46.7523 14.5602 46.8659C14.7602 46.9773 14.9125 47.1045 15.017 47.2477C15.1239 47.3886 15.2068 47.5045 15.2659 47.5955H15.3341V45.0182H16.1386V52H15.3614V51.1955H15.2659C15.2068 51.2909 15.1227 51.4114 15.0136 51.5568C14.9045 51.7 14.7489 51.8284 14.5466 51.942C14.3443 52.0534 14.075 52.1091 13.7386 52.1091ZM13.8477 51.3864C14.1705 51.3864 14.4432 51.3023 14.6659 51.1341C14.8886 50.9636 15.058 50.7284 15.1739 50.4284C15.2898 50.1261 15.3477 49.7773 15.3477 49.3818C15.3477 48.9909 15.2909 48.6489 15.1773 48.3557C15.0636 48.0602 14.8955 47.8307 14.6727 47.667C14.45 47.5011 14.175 47.4182 13.8477 47.4182C13.5068 47.4182 13.2227 47.5057 12.9955 47.6807C12.7705 47.8534 12.6011 48.0886 12.4875 48.3864C12.3761 48.6818 12.3205 49.0136 12.3205 49.3818C12.3205 49.7545 12.3773 50.0932 12.4909 50.3977C12.6068 50.7 12.7773 50.9409 13.0023 51.1205C13.2295 51.2977 13.5114 51.3864 13.8477 51.3864ZM24.133 47.9364L23.4102 48.1409C23.3648 48.0205 23.2977 47.9034 23.2091 47.7898C23.1227 47.6739 23.0045 47.5784 22.8545 47.5034C22.7045 47.4284 22.5125 47.3909 22.2784 47.3909C21.958 47.3909 21.6909 47.4648 21.4773 47.6125C21.2659 47.758 21.1602 47.9432 21.1602 48.1682C21.1602 48.3682 21.233 48.5261 21.3784 48.642C21.5239 48.758 21.7511 48.8545 22.0602 48.9318L22.8375 49.1227C23.3057 49.2364 23.6545 49.4102 23.8841 49.6443C24.1136 49.8761 24.2284 50.175 24.2284 50.5409C24.2284 50.8409 24.142 51.1091 23.9693 51.3455C23.7989 51.5818 23.5602 51.7682 23.2534 51.9045C22.9466 52.0409 22.5898 52.1091 22.183 52.1091C21.6489 52.1091 21.2068 51.9932 20.8568 51.7614C20.5068 51.5295 20.2852 51.1909 20.192 50.7455L20.9557 50.5545C21.0284 50.8364 21.1659 51.0477 21.3682 51.1886C21.5727 51.3295 21.8398 51.4 22.1693 51.4C22.5443 51.4 22.842 51.3205 23.0625 51.1614C23.2852 51 23.3966 50.8068 23.3966 50.5818C23.3966 50.4 23.333 50.2477 23.2057 50.125C23.0784 50 22.883 49.9068 22.6193 49.8455L21.7466 49.6409C21.267 49.5273 20.9148 49.3511 20.6898 49.1125C20.467 48.8716 20.3557 48.5705 20.3557 48.2091C20.3557 47.9136 20.4386 47.6523 20.6045 47.425C20.7727 47.1977 21.0011 47.0193 21.2898 46.8898C21.5807 46.7602 21.9102 46.6955 22.2784 46.6955C22.7966 46.6955 23.2034 46.8091 23.4989 47.0364C23.7966 47.2636 24.008 47.5636 24.133 47.9364ZM27.6349 52.1091C27.1304 52.1091 26.6952 51.9977 26.3293 51.775C25.9656 51.55 25.6849 51.2364 25.4872 50.8341C25.2918 50.4295 25.194 49.9591 25.194 49.4227C25.194 48.8864 25.2918 48.4136 25.4872 48.0045C25.6849 47.5932 25.9599 47.2727 26.3122 47.0432C26.6668 46.8114 27.0804 46.6955 27.5531 46.6955C27.8259 46.6955 28.0952 46.7409 28.3611 46.8318C28.627 46.9227 28.869 47.0705 29.0872 47.275C29.3054 47.4773 29.4793 47.7455 29.6088 48.0795C29.7384 48.4136 29.8031 48.825 29.8031 49.3136V49.6545H25.7668V48.9591H28.9849C28.9849 48.6636 28.9259 48.4 28.8077 48.1682C28.6918 47.9364 28.5259 47.7534 28.3099 47.6193C28.0963 47.4852 27.844 47.4182 27.5531 47.4182C27.2327 47.4182 26.9554 47.4977 26.7213 47.6568C26.4895 47.8136 26.3111 48.0182 26.1861 48.2705C26.0611 48.5227 25.9986 48.7932 25.9986 49.0818V49.5455C25.9986 49.9409 26.0668 50.2761 26.2031 50.5511C26.3418 50.8239 26.5338 51.0318 26.7793 51.175C27.0247 51.3159 27.3099 51.3864 27.6349 51.3864C27.8463 51.3864 28.0372 51.3568 28.2077 51.2977C28.3804 51.2364 28.5293 51.1455 28.6543 51.025C28.7793 50.9023 28.8759 50.75 28.944 50.5682L29.7213 50.7864C29.6395 51.05 29.502 51.2818 29.3088 51.4818C29.1156 51.6795 28.877 51.8341 28.5929 51.9455C28.3088 52.0545 27.9895 52.1091 27.6349 52.1091ZM33.1543 52.1091C32.6634 52.1091 32.2406 51.9932 31.8861 51.7614C31.5315 51.5295 31.2588 51.2102 31.0679 50.8034C30.877 50.3966 30.7815 49.9318 30.7815 49.4091C30.7815 48.8773 30.8793 48.408 31.0747 48.0011C31.2724 47.592 31.5474 47.2727 31.8997 47.0432C32.2543 46.8114 32.6679 46.6955 33.1406 46.6955C33.5088 46.6955 33.8406 46.7636 34.1361 46.9C34.4315 47.0364 34.6736 47.2273 34.8622 47.4727C35.0509 47.7182 35.1679 48.0045 35.2134 48.3318H34.4088C34.3474 48.0932 34.2111 47.8818 33.9997 47.6977C33.7906 47.5114 33.5088 47.4182 33.1543 47.4182C32.8406 47.4182 32.5656 47.5 32.3293 47.6636C32.0952 47.825 31.9122 48.0534 31.7804 48.3489C31.6509 48.642 31.5861 48.9864 31.5861 49.3818C31.5861 49.7864 31.6497 50.1386 31.777 50.4386C31.9065 50.7386 32.0884 50.9716 32.3224 51.1375C32.5588 51.3034 32.8361 51.3864 33.1543 51.3864C33.3634 51.3864 33.5531 51.35 33.7236 51.2773C33.894 51.2045 34.0384 51.1 34.1565 50.9636C34.2747 50.8273 34.3588 50.6636 34.4088 50.4727H35.2134C35.1679 50.7818 35.0554 51.0602 34.8759 51.308C34.6986 51.5534 34.4634 51.7489 34.1702 51.8943C33.8793 52.0375 33.5406 52.1091 33.1543 52.1091ZM39.6895 49.8591V46.7636H40.494V52H39.6895V51.1136H39.6349C39.5122 51.3795 39.3213 51.6057 39.0622 51.792C38.8031 51.9761 38.4759 52.0682 38.0804 52.0682C37.7531 52.0682 37.4622 51.9966 37.2077 51.8534C36.9531 51.708 36.7531 51.4898 36.6077 51.1989C36.4622 50.9057 36.3895 50.5364 36.3895 50.0909V46.7636H37.194V50.0364C37.194 50.4182 37.3009 50.7227 37.5145 50.95C37.7304 51.1773 38.0054 51.2909 38.3395 51.2909C38.5395 51.2909 38.7429 51.2398 38.9497 51.1375C39.1588 51.0352 39.3338 50.8784 39.4747 50.667C39.6179 50.4557 39.6895 50.1864 39.6895 49.8591ZM41.9676 52V46.7636H42.7449V47.5545H42.7994C42.8949 47.2955 43.0676 47.0852 43.3176 46.9239C43.5676 46.7625 43.8494 46.6818 44.1631 46.6818C44.2222 46.6818 44.296 46.683 44.3847 46.6852C44.4733 46.6875 44.5403 46.6909 44.5858 46.6955V47.5136C44.5585 47.5068 44.496 47.4966 44.3983 47.483C44.3028 47.467 44.2017 47.4591 44.0949 47.4591C43.8403 47.4591 43.6131 47.5125 43.4131 47.6193C43.2153 47.7239 43.0585 47.8693 42.9426 48.0557C42.829 48.2398 42.7722 48.45 42.7722 48.6864V52H41.9676ZM47.5756 52.1091C47.071 52.1091 46.6358 51.9977 46.2699 51.775C45.9063 51.55 45.6256 51.2364 45.4278 50.8341C45.2324 50.4295 45.1347 49.9591 45.1347 49.4227C45.1347 48.8864 45.2324 48.4136 45.4278 48.0045C45.6256 47.5932 45.9006 47.2727 46.2528 47.0432C46.6074 46.8114 47.021 46.6955 47.4938 46.6955C47.7665 46.6955 48.0358 46.7409 48.3017 46.8318C48.5676 46.9227 48.8097 47.0705 49.0278 47.275C49.246 47.4773 49.4199 47.7455 49.5494 48.0795C49.679 48.4136 49.7438 48.825 49.7438 49.3136V49.6545H45.7074V48.9591H48.9256C48.9256 48.6636 48.8665 48.4 48.7483 48.1682C48.6324 47.9364 48.4665 47.7534 48.2506 47.6193C48.0369 47.4852 47.7847 47.4182 47.4938 47.4182C47.1733 47.4182 46.896 47.4977 46.6619 47.6568C46.4301 47.8136 46.2517 48.0182 46.1267 48.2705C46.0017 48.5227 45.9392 48.7932 45.9392 49.0818V49.5455C45.9392 49.9409 46.0074 50.2761 46.1438 50.5511C46.2824 50.8239 46.4744 51.0318 46.7199 51.175C46.9653 51.3159 47.2506 51.3864 47.5756 51.3864C47.7869 51.3864 47.9778 51.3568 48.1483 51.2977C48.321 51.2364 48.4699 51.1455 48.5949 51.025C48.7199 50.9023 48.8165 50.75 48.8847 50.5682L49.6619 50.7864C49.5801 51.05 49.4426 51.2818 49.2494 51.4818C49.0563 51.6795 48.8176 51.8341 48.5335 51.9455C48.2494 52.0545 47.9301 52.1091 47.5756 52.1091ZM54.0631 52H53.1767L55.7403 45.0182H56.6131L59.1767 52H58.2903L56.204 46.1227H56.1494L54.0631 52ZM54.3903 49.2727H57.9631V50.0227H54.3903V49.2727ZM60.2642 52V45.0182H62.6233C63.171 45.0182 63.6188 45.117 63.9665 45.3148C64.3165 45.5102 64.5756 45.775 64.7438 46.1091C64.9119 46.4432 64.996 46.8159 64.996 47.2273C64.996 47.6386 64.9119 48.0125 64.7438 48.3489C64.5778 48.6852 64.321 48.9534 63.9733 49.1534C63.6256 49.3511 63.1801 49.45 62.6369 49.45H60.946V48.7H62.6097C62.9847 48.7 63.2858 48.6352 63.5131 48.5057C63.7403 48.3761 63.9051 48.2011 64.0074 47.9807C64.1119 47.758 64.1642 47.5068 64.1642 47.2273C64.1642 46.9477 64.1119 46.6977 64.0074 46.4773C63.9051 46.2568 63.7392 46.0841 63.5097 45.9591C63.2801 45.8318 62.9756 45.7682 62.596 45.7682H61.1097V52H60.2642ZM67.2034 45.0182V52H66.358V45.0182H67.2034ZM73.6031 54.0727C73.2145 54.0727 72.8804 54.0227 72.6009 53.9227C72.3213 53.825 72.0884 53.6955 71.902 53.5341C71.7179 53.375 71.5713 53.2045 71.4622 53.0227L72.1031 52.5727C72.1759 52.6682 72.2679 52.7773 72.3793 52.9C72.4906 53.025 72.6429 53.133 72.8361 53.2239C73.0315 53.317 73.2872 53.3636 73.6031 53.3636C74.0259 53.3636 74.3747 53.2614 74.6497 53.0568C74.9247 52.8523 75.0622 52.5318 75.0622 52.0955V51.0318H74.994C74.9349 51.1273 74.8509 51.2455 74.7418 51.3864C74.6349 51.525 74.4804 51.6489 74.2781 51.758C74.0781 51.8648 73.8077 51.9182 73.4668 51.9182C73.044 51.9182 72.6645 51.8182 72.3281 51.6182C71.994 51.4182 71.7293 51.1273 71.5338 50.7455C71.3406 50.3636 71.244 49.9 71.244 49.3545C71.244 48.8182 71.3384 48.3511 71.527 47.9534C71.7156 47.5534 71.9781 47.2443 72.3145 47.0261C72.6509 46.8057 73.0395 46.6955 73.4804 46.6955C73.8213 46.6955 74.0918 46.7523 74.2918 46.8659C74.494 46.9773 74.6486 47.1045 74.7554 47.2477C74.8645 47.3886 74.9486 47.5045 75.0077 47.5955H75.0895V46.7636H75.8668V52.15C75.8668 52.6 75.7645 52.9659 75.5599 53.2477C75.3577 53.5318 75.0849 53.7398 74.7418 53.8716C74.4009 54.0057 74.0213 54.0727 73.6031 54.0727ZM73.5759 51.1955C73.8986 51.1955 74.1713 51.1216 74.394 50.9739C74.6168 50.8261 74.7861 50.6136 74.902 50.3364C75.0179 50.0591 75.0759 49.7273 75.0759 49.3409C75.0759 48.9636 75.019 48.6307 74.9054 48.342C74.7918 48.0534 74.6236 47.8273 74.4009 47.6636C74.1781 47.5 73.9031 47.4182 73.5759 47.4182C73.2349 47.4182 72.9509 47.5045 72.7236 47.6773C72.4986 47.85 72.3293 48.0818 72.2156 48.3727C72.1043 48.6636 72.0486 48.9864 72.0486 49.3409C72.0486 49.7045 72.1054 50.0261 72.219 50.3057C72.3349 50.583 72.5054 50.8011 72.7304 50.9602C72.9577 51.117 73.2395 51.1955 73.5759 51.1955ZM78.8804 52.1227C78.5486 52.1227 78.2474 52.0602 77.977 51.9352C77.7065 51.808 77.4918 51.625 77.3327 51.3864C77.1736 51.1455 77.094 50.8545 77.094 50.5136C77.094 50.2136 77.1531 49.9705 77.2713 49.7841C77.3895 49.5955 77.5474 49.4477 77.7452 49.3409C77.9429 49.2341 78.1611 49.1545 78.3997 49.1023C78.6406 49.0477 78.8827 49.0045 79.1259 48.9727C79.444 48.9318 79.702 48.9011 79.8997 48.8807C80.0997 48.858 80.2452 48.8205 80.3361 48.7682C80.4293 48.7159 80.4759 48.625 80.4759 48.4955V48.4682C80.4759 48.1318 80.3838 47.8705 80.1997 47.6841C80.0179 47.4977 79.7418 47.4045 79.3713 47.4045C78.9872 47.4045 78.6861 47.4886 78.4679 47.6568C78.2497 47.825 78.0963 48.0045 78.0077 48.1955L77.244 47.9227C77.3804 47.6045 77.5622 47.3568 77.7895 47.1795C78.019 47 78.269 46.875 78.5395 46.8045C78.8122 46.7318 79.0804 46.6955 79.344 46.6955C79.5122 46.6955 79.7054 46.7159 79.9236 46.7568C80.144 46.7955 80.3565 46.8761 80.5611 46.9989C80.7679 47.1216 80.9395 47.3068 81.0759 47.5545C81.2122 47.8023 81.2804 48.1341 81.2804 48.55V52H80.4759V51.2909H80.4349C80.3804 51.4045 80.2895 51.5261 80.1622 51.6557C80.0349 51.7852 79.8656 51.8955 79.6543 51.9864C79.4429 52.0773 79.1849 52.1227 78.8804 52.1227ZM79.0031 51.4C79.3213 51.4 79.5895 51.3375 79.8077 51.2125C80.0281 51.0875 80.194 50.9261 80.3054 50.7284C80.419 50.5307 80.4759 50.3227 80.4759 50.1045V49.3682C80.4418 49.4091 80.3668 49.4466 80.2509 49.4807C80.1372 49.5125 80.0054 49.5409 79.8554 49.5659C79.7077 49.5886 79.5634 49.6091 79.4224 49.6273C79.2838 49.6432 79.1713 49.6568 79.0849 49.6682C78.8759 49.6955 78.6804 49.7398 78.4986 49.8011C78.319 49.8602 78.1736 49.95 78.0622 50.0705C77.9531 50.1886 77.8986 50.35 77.8986 50.5545C77.8986 50.8341 78.002 51.0455 78.2088 51.1886C78.4179 51.3295 78.6827 51.4 79.0031 51.4ZM85.0261 46.7636V47.4455H82.3125V46.7636H85.0261ZM83.1034 45.5091H83.908V50.5C83.908 50.7273 83.9409 50.8977 84.0068 51.0114C84.075 51.1227 84.1614 51.1977 84.2659 51.2364C84.3727 51.2727 84.4852 51.2909 84.6034 51.2909C84.6921 51.2909 84.7648 51.2864 84.8216 51.2773C84.8784 51.2659 84.9239 51.2568 84.958 51.25L85.1216 51.9727C85.0671 51.9932 84.9909 52.0136 84.8932 52.0341C84.7955 52.0568 84.6716 52.0682 84.5216 52.0682C84.2943 52.0682 84.0716 52.0193 83.8534 51.9216C83.6375 51.8239 83.458 51.675 83.3148 51.475C83.1739 51.275 83.1034 51.0227 83.1034 50.7182V45.5091ZM88.3756 52.1091C87.871 52.1091 87.4358 51.9977 87.0699 51.775C86.7063 51.55 86.4256 51.2364 86.2278 50.8341C86.0324 50.4295 85.9347 49.9591 85.9347 49.4227C85.9347 48.8864 86.0324 48.4136 86.2278 48.0045C86.4256 47.5932 86.7006 47.2727 87.0528 47.0432C87.4074 46.8114 87.821 46.6955 88.2938 46.6955C88.5665 46.6955 88.8358 46.7409 89.1017 46.8318C89.3676 46.9227 89.6097 47.0705 89.8278 47.275C90.046 47.4773 90.2199 47.7455 90.3494 48.0795C90.479 48.4136 90.5438 48.825 90.5438 49.3136V49.6545H86.5074V48.9591H89.7256C89.7256 48.6636 89.6665 48.4 89.5483 48.1682C89.4324 47.9364 89.2665 47.7534 89.0506 47.6193C88.8369 47.4852 88.5847 47.4182 88.2938 47.4182C87.9733 47.4182 87.696 47.4977 87.4619 47.6568C87.2301 47.8136 87.0517 48.0182 86.9267 48.2705C86.8017 48.5227 86.7392 48.7932 86.7392 49.0818V49.5455C86.7392 49.9409 86.8074 50.2761 86.9438 50.5511C87.0824 50.8239 87.2744 51.0318 87.5199 51.175C87.7653 51.3159 88.0506 51.3864 88.3756 51.3864C88.5869 51.3864 88.7778 51.3568 88.9483 51.2977C89.121 51.2364 89.2699 51.1455 89.3949 51.025C89.5199 50.9023 89.6165 50.75 89.6847 50.5682L90.4619 50.7864C90.3801 51.05 90.2426 51.2818 90.0494 51.4818C89.8563 51.6795 89.6176 51.8341 89.3335 51.9455C89.0494 52.0545 88.7301 52.1091 88.3756 52.1091ZM92.954 52L91.3585 46.7636H92.204L93.3358 50.7727H93.3903L94.5085 46.7636H95.3676L96.4722 50.7591H96.5267L97.6585 46.7636H98.504L96.9085 52H96.1176L94.9722 47.9773H94.8903L93.7449 52H92.954ZM101.109 52.1227C100.777 52.1227 100.476 52.0602 100.205 51.9352C99.9347 51.808 99.7199 51.625 99.5608 51.3864C99.4017 51.1455 99.3222 50.8545 99.3222 50.5136C99.3222 50.2136 99.3813 49.9705 99.4994 49.7841C99.6176 49.5955 99.7756 49.4477 99.9733 49.3409C100.171 49.2341 100.389 49.1545 100.628 49.1023C100.869 49.0477 101.111 49.0045 101.354 48.9727C101.672 48.9318 101.93 48.9011 102.128 48.8807C102.328 48.858 102.473 48.8205 102.564 48.7682C102.657 48.7159 102.704 48.625 102.704 48.4955V48.4682C102.704 48.1318 102.612 47.8705 102.428 47.6841C102.246 47.4977 101.97 47.4045 101.599 47.4045C101.215 47.4045 100.914 47.4886 100.696 47.6568C100.478 47.825 100.324 48.0045 100.236 48.1955L99.4722 47.9227C99.6085 47.6045 99.7903 47.3568 100.018 47.1795C100.247 47 100.497 46.875 100.768 46.8045C101.04 46.7318 101.309 46.6955 101.572 46.6955C101.74 46.6955 101.934 46.7159 102.152 46.7568C102.372 46.7955 102.585 46.8761 102.789 46.9989C102.996 47.1216 103.168 47.3068 103.304 47.5545C103.44 47.8023 103.509 48.1341 103.509 48.55V52H102.704V51.2909H102.663C102.609 51.4045 102.518 51.5261 102.39 51.6557C102.263 51.7852 102.094 51.8955 101.882 51.9864C101.671 52.0773 101.413 52.1227 101.109 52.1227ZM101.231 51.4C101.549 51.4 101.818 51.3375 102.036 51.2125C102.256 51.0875 102.422 50.9261 102.534 50.7284C102.647 50.5307 102.704 50.3227 102.704 50.1045V49.3682C102.67 49.4091 102.595 49.4466 102.479 49.4807C102.365 49.5125 102.234 49.5409 102.084 49.5659C101.936 49.5886 101.791 49.6091 101.651 49.6273C101.512 49.6432 101.399 49.6568 101.313 49.6682C101.104 49.6955 100.909 49.7398 100.727 49.8011C100.547 49.8602 100.402 49.95 100.29 50.0705C100.181 50.1886 100.127 50.35 100.127 50.5545C100.127 50.8341 100.23 51.0455 100.437 51.1886C100.646 51.3295 100.911 51.4 101.231 51.4ZM105.308 53.9636C105.171 53.9636 105.05 53.9523 104.943 53.9295C104.836 53.9091 104.762 53.8886 104.721 53.8682L104.926 53.1591C105.121 53.2091 105.294 53.2273 105.444 53.2136C105.594 53.2 105.727 53.133 105.843 53.0125C105.961 52.8943 106.069 52.7023 106.167 52.4364L106.317 52.0273L104.38 46.7636H105.253L106.699 50.9364H106.753L108.199 46.7636H109.071L106.849 52.7636C106.749 53.0341 106.625 53.258 106.477 53.4352C106.329 53.6148 106.158 53.7477 105.962 53.8341C105.769 53.9205 105.551 53.9636 105.308 53.9636ZM115.165 46.7636V47.4455H112.342V46.7636H115.165ZM113.188 52V46.0409C113.188 45.7409 113.258 45.4909 113.399 45.2909C113.54 45.0909 113.723 44.9409 113.948 44.8409C114.173 44.7409 114.411 44.6909 114.661 44.6909C114.858 44.6909 115.02 44.7068 115.145 44.7386C115.27 44.7705 115.363 44.8 115.424 44.8273L115.192 45.5227C115.151 45.5091 115.095 45.492 115.022 45.4716C114.951 45.4511 114.858 45.4409 114.742 45.4409C114.476 45.4409 114.284 45.508 114.166 45.642C114.05 45.7761 113.992 45.9727 113.992 46.2318V52H113.188ZM118.204 52.1091C117.732 52.1091 117.317 51.9966 116.96 51.7716C116.605 51.5466 116.328 51.2318 116.128 50.8273C115.93 50.4227 115.832 49.95 115.832 49.4091C115.832 48.8636 115.93 48.3875 116.128 47.9807C116.328 47.5739 116.605 47.258 116.96 47.033C117.317 46.808 117.732 46.6955 118.204 46.6955C118.677 46.6955 119.091 46.808 119.445 47.033C119.802 47.258 120.079 47.5739 120.277 47.9807C120.477 48.3875 120.577 48.8636 120.577 49.4091C120.577 49.95 120.477 50.4227 120.277 50.8273C120.079 51.2318 119.802 51.5466 119.445 51.7716C119.091 51.9966 118.677 52.1091 118.204 52.1091ZM118.204 51.3864C118.563 51.3864 118.859 51.2943 119.091 51.1102C119.322 50.9261 119.494 50.6841 119.605 50.3841C119.717 50.0841 119.772 49.7591 119.772 49.4091C119.772 49.0591 119.717 48.733 119.605 48.4307C119.494 48.1284 119.322 47.8841 119.091 47.6977C118.859 47.5114 118.563 47.4182 118.204 47.4182C117.845 47.4182 117.55 47.5114 117.318 47.6977C117.086 47.8841 116.914 48.1284 116.803 48.4307C116.692 48.733 116.636 49.0591 116.636 49.4091C116.636 49.7591 116.692 50.0841 116.803 50.3841C116.914 50.6841 117.086 50.9261 117.318 51.1102C117.55 51.2943 117.845 51.3864 118.204 51.3864ZM121.805 52V46.7636H122.582V47.5545H122.637C122.732 47.2955 122.905 47.0852 123.155 46.9239C123.405 46.7625 123.687 46.6818 124.001 46.6818C124.06 46.6818 124.134 46.683 124.222 46.6852C124.311 46.6875 124.378 46.6909 124.423 46.6955V47.5136C124.396 47.5068 124.334 47.4966 124.236 47.483C124.14 47.467 124.039 47.4591 123.932 47.4591C123.678 47.4591 123.451 47.5125 123.251 47.6193C123.053 47.7239 122.896 47.8693 122.78 48.0557C122.666 48.2398 122.61 48.45 122.61 48.6864V52H121.805ZM130.354 46.7636V47.4455H127.641V46.7636H130.354ZM128.432 45.5091H129.236V50.5C129.236 50.7273 129.269 50.8977 129.335 51.0114C129.403 51.1227 129.489 51.1977 129.594 51.2364C129.701 51.2727 129.813 51.2909 129.932 51.2909C130.02 51.2909 130.093 51.2864 130.15 51.2773C130.207 51.2659 130.252 51.2568 130.286 51.25L130.45 51.9727C130.395 51.9932 130.319 52.0136 130.221 52.0341C130.124 52.0568 130 52.0682 129.85 52.0682C129.622 52.0682 129.4 52.0193 129.182 51.9216C128.966 51.8239 128.786 51.675 128.643 51.475C128.502 51.275 128.432 51.0227 128.432 50.7182V45.5091ZM132.482 48.85V52H131.677V45.0182H132.482V47.5818H132.55C132.672 47.3114 132.857 47.0966 133.102 46.9375C133.35 46.7761 133.679 46.6955 134.091 46.6955C134.447 46.6955 134.76 46.767 135.028 46.9102C135.296 47.0511 135.504 47.2682 135.652 47.5614C135.802 47.8523 135.877 48.2227 135.877 48.6727V52H135.072V48.7273C135.072 48.3114 134.964 47.9898 134.749 47.7625C134.535 47.533 134.238 47.4182 133.859 47.4182C133.595 47.4182 133.359 47.4739 133.15 47.5852C132.943 47.6966 132.779 47.8591 132.659 48.0727C132.541 48.2864 132.482 48.5455 132.482 48.85ZM139.544 52.1091C139.04 52.1091 138.605 51.9977 138.239 51.775C137.875 51.55 137.594 51.2364 137.397 50.8341C137.201 50.4295 137.103 49.9591 137.103 49.4227C137.103 48.8864 137.201 48.4136 137.397 48.0045C137.594 47.5932 137.869 47.2727 138.222 47.0432C138.576 46.8114 138.99 46.6955 139.463 46.6955C139.735 46.6955 140.005 46.7409 140.27 46.8318C140.536 46.9227 140.778 47.0705 140.997 47.275C141.215 47.4773 141.389 47.7455 141.518 48.0795C141.648 48.4136 141.713 48.825 141.713 49.3136V49.6545H137.676V48.9591H140.894C140.894 48.6636 140.835 48.4 140.717 48.1682C140.601 47.9364 140.435 47.7534 140.219 47.6193C140.006 47.4852 139.753 47.4182 139.463 47.4182C139.142 47.4182 138.865 47.4977 138.631 47.6568C138.399 47.8136 138.22 48.0182 138.095 48.2705C137.97 48.5227 137.908 48.7932 137.908 49.0818V49.5455C137.908 49.9409 137.976 50.2761 138.113 50.5511C138.251 50.8239 138.443 51.0318 138.689 51.175C138.934 51.3159 139.219 51.3864 139.544 51.3864C139.756 51.3864 139.947 51.3568 140.117 51.2977C140.29 51.2364 140.439 51.1455 140.564 51.025C140.689 50.9023 140.785 50.75 140.853 50.5682L141.631 50.7864C141.549 51.05 141.411 51.2818 141.218 51.4818C141.025 51.6795 140.786 51.8341 140.502 51.9455C140.218 52.0545 139.899 52.1091 139.544 52.1091ZM147.75 54.0727C147.361 54.0727 147.027 54.0227 146.748 53.9227C146.468 53.825 146.235 53.6955 146.049 53.5341C145.865 53.375 145.718 53.2045 145.609 53.0227L146.25 52.5727C146.323 52.6682 146.415 52.7773 146.526 52.9C146.638 53.025 146.79 53.133 146.983 53.2239C147.178 53.317 147.434 53.3636 147.75 53.3636C148.173 53.3636 148.522 53.2614 148.797 53.0568C149.072 52.8523 149.209 52.5318 149.209 52.0955V51.0318H149.141C149.082 51.1273 148.998 51.2455 148.889 51.3864C148.782 51.525 148.627 51.6489 148.425 51.758C148.225 51.8648 147.955 51.9182 147.614 51.9182C147.191 51.9182 146.811 51.8182 146.475 51.6182C146.141 51.4182 145.876 51.1273 145.681 50.7455C145.488 50.3636 145.391 49.9 145.391 49.3545C145.391 48.8182 145.485 48.3511 145.674 47.9534C145.863 47.5534 146.125 47.2443 146.461 47.0261C146.798 46.8057 147.186 46.6955 147.627 46.6955C147.968 46.6955 148.239 46.7523 148.439 46.8659C148.641 46.9773 148.795 47.1045 148.902 47.2477C149.011 47.3886 149.095 47.5045 149.155 47.5955H149.236V46.7636H150.014V52.15C150.014 52.6 149.911 52.9659 149.707 53.2477C149.505 53.5318 149.232 53.7398 148.889 53.8716C148.548 54.0057 148.168 54.0727 147.75 54.0727ZM147.723 51.1955C148.045 51.1955 148.318 51.1216 148.541 50.9739C148.764 50.8261 148.933 50.6136 149.049 50.3364C149.165 50.0591 149.223 49.7273 149.223 49.3409C149.223 48.9636 149.166 48.6307 149.052 48.342C148.939 48.0534 148.77 47.8273 148.548 47.6636C148.325 47.5 148.05 47.4182 147.723 47.4182C147.382 47.4182 147.098 47.5045 146.87 47.6773C146.645 47.85 146.476 48.0818 146.363 48.3727C146.251 48.6636 146.195 48.9864 146.195 49.3409C146.195 49.7045 146.252 50.0261 146.366 50.3057C146.482 50.583 146.652 50.8011 146.877 50.9602C147.105 51.117 147.386 51.1955 147.723 51.1955ZM153.614 52.1091C153.141 52.1091 152.726 51.9966 152.369 51.7716C152.015 51.5466 151.738 51.2318 151.538 50.8273C151.34 50.4227 151.241 49.95 151.241 49.4091C151.241 48.8636 151.34 48.3875 151.538 47.9807C151.738 47.5739 152.015 47.258 152.369 47.033C152.726 46.808 153.141 46.6955 153.614 46.6955C154.086 46.6955 154.5 46.808 154.855 47.033C155.211 47.258 155.489 47.5739 155.686 47.9807C155.886 48.3875 155.986 48.8636 155.986 49.4091C155.986 49.95 155.886 50.4227 155.686 50.8273C155.489 51.2318 155.211 51.5466 154.855 51.7716C154.5 51.9966 154.086 52.1091 153.614 52.1091ZM153.614 51.3864C153.973 51.3864 154.268 51.2943 154.5 51.1102C154.732 50.9261 154.903 50.6841 155.015 50.3841C155.126 50.0841 155.182 49.7591 155.182 49.4091C155.182 49.0591 155.126 48.733 155.015 48.4307C154.903 48.1284 154.732 47.8841 154.5 47.6977C154.268 47.5114 153.973 47.4182 153.614 47.4182C153.255 47.4182 152.959 47.5114 152.727 47.6977C152.495 47.8841 152.324 48.1284 152.213 48.4307C152.101 48.733 152.045 49.0591 152.045 49.4091C152.045 49.7591 152.101 50.0841 152.213 50.3841C152.324 50.6841 152.495 50.9261 152.727 51.1102C152.959 51.2943 153.255 51.3864 153.614 51.3864ZM161.309 46.7636L159.372 52H158.554L156.618 46.7636H157.491L158.936 50.9364H158.991L160.436 46.7636H161.309ZM164.379 52.1091C163.874 52.1091 163.439 51.9977 163.073 51.775C162.709 51.55 162.429 51.2364 162.231 50.8341C162.036 50.4295 161.938 49.9591 161.938 49.4227C161.938 48.8864 162.036 48.4136 162.231 48.0045C162.429 47.5932 162.704 47.2727 163.056 47.0432C163.411 46.8114 163.824 46.6955 164.297 46.6955C164.57 46.6955 164.839 46.7409 165.105 46.8318C165.371 46.9227 165.613 47.0705 165.831 47.275C166.049 47.4773 166.223 47.7455 166.353 48.0795C166.482 48.4136 166.547 48.825 166.547 49.3136V49.6545H162.511V48.9591H165.729C165.729 48.6636 165.67 48.4 165.551 48.1682C165.436 47.9364 165.27 47.7534 165.054 47.6193C164.84 47.4852 164.588 47.4182 164.297 47.4182C163.976 47.4182 163.699 47.4977 163.465 47.6568C163.233 47.8136 163.055 48.0182 162.93 48.2705C162.805 48.5227 162.742 48.7932 162.742 49.0818V49.5455C162.742 49.9409 162.811 50.2761 162.947 50.5511C163.086 50.8239 163.278 51.0318 163.523 51.175C163.768 51.3159 164.054 51.3864 164.379 51.3864C164.59 51.3864 164.781 51.3568 164.951 51.2977C165.124 51.2364 165.273 51.1455 165.398 51.025C165.523 50.9023 165.62 50.75 165.688 50.5682L166.465 50.7864C166.383 51.05 166.246 51.2818 166.053 51.4818C165.859 51.6795 165.621 51.8341 165.337 51.9455C165.053 52.0545 164.733 52.1091 164.379 52.1091ZM167.771 52V46.7636H168.548V47.5545H168.603C168.698 47.2955 168.871 47.0852 169.121 46.9239C169.371 46.7625 169.653 46.6818 169.966 46.6818C170.025 46.6818 170.099 46.683 170.188 46.6852C170.276 46.6875 170.343 46.6909 170.389 46.6955V47.5136C170.362 47.5068 170.299 47.4966 170.201 47.483C170.106 47.467 170.005 47.4591 169.898 47.4591C169.643 47.4591 169.416 47.5125 169.216 47.6193C169.018 47.7239 168.862 47.8693 168.746 48.0557C168.632 48.2398 168.575 48.45 168.575 48.6864V52H167.771ZM172.147 48.85V52H171.343V46.7636H172.12V47.5818H172.188C172.311 47.3159 172.497 47.1023 172.747 46.9409C172.997 46.7773 173.32 46.6955 173.715 46.6955C174.07 46.6955 174.38 46.7682 174.646 46.9136C174.912 47.0568 175.119 47.275 175.266 47.5682C175.414 47.8591 175.488 48.2273 175.488 48.6727V52H174.684V48.7273C174.684 48.3159 174.577 47.9955 174.363 47.7659C174.149 47.5341 173.856 47.4182 173.484 47.4182C173.227 47.4182 172.997 47.4739 172.795 47.5852C172.595 47.6966 172.437 47.8591 172.321 48.0727C172.205 48.2864 172.147 48.5455 172.147 48.85ZM176.958 52V46.7636H177.736V47.5818H177.804C177.913 47.3023 178.089 47.0852 178.332 46.9307C178.575 46.7739 178.867 46.6955 179.208 46.6955C179.554 46.6955 179.841 46.7739 180.071 46.9307C180.303 47.0852 180.483 47.3023 180.613 47.5818H180.667C180.801 47.3114 181.003 47.0966 181.271 46.9375C181.539 46.7761 181.861 46.6955 182.236 46.6955C182.704 46.6955 183.087 46.842 183.384 47.1352C183.682 47.4261 183.831 47.8795 183.831 48.4955V52H183.026V48.4955C183.026 48.1091 182.921 47.833 182.709 47.667C182.498 47.5011 182.249 47.4182 181.963 47.4182C181.595 47.4182 181.309 47.5295 181.107 47.7523C180.905 47.9727 180.804 48.2523 180.804 48.5909V52H179.986V48.4136C179.986 48.1159 179.889 47.8761 179.696 47.6943C179.503 47.5102 179.254 47.4182 178.949 47.4182C178.74 47.4182 178.545 47.4739 178.363 47.5852C178.183 47.6966 178.038 47.8511 177.926 48.0489C177.817 48.2443 177.763 48.4705 177.763 48.7273V52H176.958ZM187.497 52.1091C186.993 52.1091 186.558 51.9977 186.192 51.775C185.828 51.55 185.547 51.2364 185.35 50.8341C185.154 50.4295 185.057 49.9591 185.057 49.4227C185.057 48.8864 185.154 48.4136 185.35 48.0045C185.547 47.5932 185.822 47.2727 186.175 47.0432C186.529 46.8114 186.943 46.6955 187.416 46.6955C187.688 46.6955 187.958 46.7409 188.224 46.8318C188.489 46.9227 188.732 47.0705 188.95 47.275C189.168 47.4773 189.342 47.7455 189.471 48.0795C189.601 48.4136 189.666 48.825 189.666 49.3136V49.6545H185.629V48.9591H188.847C188.847 48.6636 188.788 48.4 188.67 48.1682C188.554 47.9364 188.388 47.7534 188.172 47.6193C187.959 47.4852 187.707 47.4182 187.416 47.4182C187.095 47.4182 186.818 47.4977 186.584 47.6568C186.352 47.8136 186.174 48.0182 186.049 48.2705C185.924 48.5227 185.861 48.7932 185.861 49.0818V49.5455C185.861 49.9409 185.929 50.2761 186.066 50.5511C186.204 50.8239 186.396 51.0318 186.642 51.175C186.887 51.3159 187.172 51.3864 187.497 51.3864C187.709 51.3864 187.9 51.3568 188.07 51.2977C188.243 51.2364 188.392 51.1455 188.517 51.025C188.642 50.9023 188.738 50.75 188.807 50.5682L189.584 50.7864C189.502 51.05 189.364 51.2818 189.171 51.4818C188.978 51.6795 188.739 51.8341 188.455 51.9455C188.171 52.0545 187.852 52.1091 187.497 52.1091ZM191.694 48.85V52H190.89V46.7636H191.667V47.5818H191.735C191.858 47.3159 192.044 47.1023 192.294 46.9409C192.544 46.7773 192.867 46.6955 193.262 46.6955C193.617 46.6955 193.927 46.7682 194.193 46.9136C194.459 47.0568 194.666 47.275 194.813 47.5682C194.961 47.8591 195.035 48.2273 195.035 48.6727V52H194.23V48.7273C194.23 48.3159 194.124 47.9955 193.91 47.7659C193.696 47.5341 193.403 47.4182 193.03 47.4182C192.774 47.4182 192.544 47.4739 192.342 47.5852C192.142 47.6966 191.984 47.8591 191.868 48.0727C191.752 48.2864 191.694 48.5455 191.694 48.85ZM198.782 46.7636V47.4455H196.069V46.7636H198.782ZM196.86 45.5091H197.664V50.5C197.664 50.7273 197.697 50.8977 197.763 51.0114C197.831 51.1227 197.918 51.1977 198.022 51.2364C198.129 51.2727 198.241 51.2909 198.36 51.2909C198.448 51.2909 198.521 51.2864 198.578 51.2773C198.635 51.2659 198.68 51.2568 198.714 51.25L198.878 51.9727C198.823 51.9932 198.747 52.0136 198.649 52.0341C198.552 52.0568 198.428 52.0682 198.278 52.0682C198.051 52.0682 197.828 52.0193 197.61 51.9216C197.394 51.8239 197.214 51.675 197.071 51.475C196.93 51.275 196.86 51.0227 196.86 50.7182V45.5091Z" fill="#344054"/>
<path d="M2.4 0.6H244.8V-0.6H2.4V0.6ZM246.6 2.4V56.6H247.8V2.4H246.6ZM244.8 58.4H2.39999V59.6H244.8V58.4ZM0.6 56.6V2.4H-0.6V56.6H0.6ZM2.39999 58.4C1.40588 58.4 0.6 57.5941 0.6 56.6H-0.6C-0.6 58.2569 0.743134 59.6 2.39999 59.6V58.4ZM246.6 56.6C246.6 57.5941 245.794 58.4 244.8 58.4V59.6C246.457 59.6 247.8 58.2569 247.8 56.6H246.6ZM244.8 0.6C245.794 0.6 246.6 1.40588 246.6 2.4H247.8C247.8 0.743149 246.457 -0.6 244.8 -0.6V0.6ZM2.4 -0.6C0.743146 -0.6 -0.6 0.743146 -0.6 2.4H0.6C0.6 1.40589 1.40589 0.6 2.4 0.6V-0.6Z" fill="#98A2B3"/>
</svg>
