<svg width="336" height="141" viewBox="0 0 336 141" fill="none" xmlns="http://www.w3.org/2000/svg">
<path d="M46.6001 2.39999C46.6001 1.07451 47.6746 0 49.0001 0H291.4C292.726 0 293.8 1.07452 293.8 2.4V138C293.8 139.326 292.726 140.4 291.4 140.4H49.0001C47.6746 140.4 46.6001 139.325 46.6001 138V2.39999Z" fill="white"/>
<g clip-path="url(#clip0_4529_44674)">
<path d="M64.15 14.4C64.2693 14.4 64.3838 14.4474 64.4682 14.5318C64.5526 14.6162 64.6 14.7307 64.6 14.85V15.3H71.8V14.85C71.8 14.7307 71.8474 14.6162 71.9318 14.5318C72.0162 14.4474 72.1307 14.4 72.25 14.4C72.3693 14.4 72.4838 14.4474 72.5682 14.5318C72.6526 14.6162 72.7 14.7307 72.7 14.85V15.3H73.6C74.0774 15.3 74.5352 15.4897 74.8728 15.8272C75.2104 16.1648 75.4 16.6226 75.4 17.1V27C75.4 27.4774 75.2104 27.9353 74.8728 28.2728C74.5352 28.6104 74.0774 28.8 73.6 28.8H62.8C62.3226 28.8 61.8648 28.6104 61.5272 28.2728C61.1896 27.9353 61 27.4774 61 27V17.1C61 16.6226 61.1896 16.1648 61.5272 15.8272C61.8648 15.4897 62.3226 15.3 62.8 15.3H63.7V14.85C63.7 14.7307 63.7474 14.6162 63.8318 14.5318C63.9162 14.4474 64.0307 14.4 64.15 14.4V14.4ZM61.9 18V27C61.9 27.2387 61.9948 27.4676 62.1636 27.6364C62.3324 27.8052 62.5613 27.9 62.8 27.9H73.6C73.8387 27.9 74.0676 27.8052 74.2364 27.6364C74.4052 27.4676 74.5 27.2387 74.5 27V18H61.9Z" fill="#344054"/>
</g>
<path d="M86.4795 18.9909V25.1H85.7398V18.9909H86.4795ZM89.7287 25.1954C89.2992 25.1954 88.9293 25.094 88.6191 24.8912C88.3088 24.6883 88.0702 24.4089 87.9032 24.053C87.7361 23.697 87.6526 23.2903 87.6526 22.8329C87.6526 22.3676 87.7381 21.9569 87.9091 21.601C88.0821 21.243 88.3228 20.9636 88.631 20.7628C88.9412 20.5599 89.3032 20.4585 89.7168 20.4585C90.039 20.4585 90.3293 20.5182 90.5878 20.6375C90.8463 20.7568 91.0581 20.9238 91.2232 21.1386C91.3882 21.3534 91.4907 21.604 91.5304 21.8903H90.8265C90.7728 21.6815 90.6534 21.4966 90.4685 21.3355C90.2855 21.1724 90.039 21.0909 89.7287 21.0909C89.4543 21.0909 89.2137 21.1625 89.0069 21.3057C88.802 21.4469 88.6419 21.6467 88.5266 21.9052C88.4132 22.1618 88.3566 22.463 88.3566 22.8091C88.3566 23.163 88.4123 23.4713 88.5236 23.7338C88.637 23.9963 88.7961 24.2001 89.0009 24.3453C89.2077 24.4905 89.4503 24.563 89.7287 24.563C89.9117 24.563 90.0777 24.5312 90.2269 24.4676C90.376 24.404 90.5023 24.3125 90.6057 24.1932C90.7091 24.0738 90.7827 23.9307 90.8265 23.7636H91.5304C91.4907 24.0341 91.3922 24.2777 91.2351 24.4944C91.08 24.7092 90.8742 24.8802 90.6176 25.0075C90.3631 25.1328 90.0668 25.1954 89.7287 25.1954ZM94.4209 25.1954C94.0073 25.1954 93.6444 25.097 93.3321 24.9001C93.0219 24.7032 92.7793 24.4278 92.6043 24.0738C92.4313 23.7199 92.3448 23.3062 92.3448 22.8329C92.3448 22.3557 92.4313 21.939 92.6043 21.5831C92.7793 21.2271 93.0219 20.9507 93.3321 20.7538C93.6444 20.5569 94.0073 20.4585 94.4209 20.4585C94.8346 20.4585 95.1965 20.5569 95.5067 20.7538C95.8189 20.9507 96.0615 21.2271 96.2346 21.5831C96.4096 21.939 96.4971 22.3557 96.4971 22.8329C96.4971 23.3062 96.4096 23.7199 96.2346 24.0738C96.0615 24.4278 95.8189 24.7032 95.5067 24.9001C95.1965 25.097 94.8346 25.1954 94.4209 25.1954ZM94.4209 24.563C94.7351 24.563 94.9936 24.4825 95.1965 24.3214C95.3993 24.1603 95.5495 23.9486 95.6469 23.6861C95.7444 23.4236 95.7931 23.1392 95.7931 22.8329C95.7931 22.5267 95.7444 22.2413 95.6469 21.9768C95.5495 21.7123 95.3993 21.4986 95.1965 21.3355C94.9936 21.1724 94.7351 21.0909 94.4209 21.0909C94.1067 21.0909 93.8482 21.1724 93.6453 21.3355C93.4425 21.4986 93.2924 21.7123 93.1949 21.9768C93.0975 22.2413 93.0488 22.5267 93.0488 22.8329C93.0488 23.1392 93.0975 23.4236 93.1949 23.6861C93.2924 23.9486 93.4425 24.1603 93.6453 24.3214C93.8482 24.4825 94.1067 24.563 94.4209 24.563ZM98.2756 22.3437V25.1H97.5717V20.5182H98.2518V21.2341H98.3114C98.4188 21.0014 98.5819 20.8145 98.8006 20.6733C99.0194 20.5301 99.3018 20.4585 99.6478 20.4585C99.958 20.4585 100.229 20.5221 100.462 20.6494C100.695 20.7747 100.876 20.9656 101.005 21.2221C101.134 21.4767 101.199 21.7988 101.199 22.1886V25.1H100.495V22.2363C100.495 21.8764 100.401 21.596 100.215 21.3951C100.028 21.1923 99.7711 21.0909 99.445 21.0909C99.2202 21.0909 99.0194 21.1396 98.8424 21.237C98.6674 21.3345 98.5292 21.4767 98.4278 21.6636C98.3264 21.8505 98.2756 22.0772 98.2756 22.3437ZM106.84 20.5182V21.1147H104.466V20.5182H106.84ZM105.158 19.4204H105.862V23.7875C105.862 23.9863 105.891 24.1355 105.949 24.2349C106.008 24.3324 106.084 24.398 106.175 24.4318C106.269 24.4636 106.367 24.4795 106.471 24.4795C106.548 24.4795 106.612 24.4755 106.661 24.4676C106.711 24.4576 106.751 24.4497 106.781 24.4437L106.924 25.0761C106.876 25.094 106.81 25.1119 106.724 25.1298C106.639 25.1497 106.53 25.1596 106.399 25.1596C106.2 25.1596 106.005 25.1169 105.814 25.0314C105.625 24.9459 105.468 24.8156 105.343 24.6406C105.22 24.4656 105.158 24.2449 105.158 23.9784V19.4204ZM107.899 25.1V20.5182H108.603V25.1H107.899ZM108.257 19.7545C108.12 19.7545 108.002 19.7078 107.902 19.6143C107.805 19.5209 107.756 19.4085 107.756 19.2772C107.756 19.146 107.805 19.0336 107.902 18.9402C108.002 18.8467 108.12 18.8 108.257 18.8C108.395 18.8 108.512 18.8467 108.609 18.9402C108.709 19.0336 108.758 19.146 108.758 19.2772C108.758 19.4085 108.709 19.5209 108.609 19.6143C108.512 19.7078 108.395 19.7545 108.257 19.7545ZM111.885 20.5182V21.1147H109.511V20.5182H111.885ZM110.203 19.4204H110.907V23.7875C110.907 23.9863 110.936 24.1355 110.993 24.2349C111.053 24.3324 111.129 24.398 111.22 24.4318C111.314 24.4636 111.412 24.4795 111.515 24.4795C111.593 24.4795 111.657 24.4755 111.706 24.4676C111.756 24.4576 111.796 24.4497 111.826 24.4437L111.969 25.0761C111.921 25.094 111.855 25.1119 111.769 25.1298C111.684 25.1497 111.575 25.1596 111.444 25.1596C111.245 25.1596 111.05 25.1169 110.859 25.0314C110.67 24.9459 110.513 24.8156 110.388 24.6406C110.265 24.4656 110.203 24.2449 110.203 23.9784V19.4204ZM113.747 18.9909V25.1H113.043V18.9909H113.747ZM116.957 25.1954C116.516 25.1954 116.135 25.098 115.815 24.9031C115.496 24.7062 115.251 24.4318 115.078 24.0798C114.907 23.7258 114.821 23.3142 114.821 22.8449C114.821 22.3755 114.907 21.9619 115.078 21.604C115.251 21.244 115.492 20.9636 115.8 20.7628C116.11 20.5599 116.472 20.4585 116.886 20.4585C117.124 20.4585 117.36 20.4983 117.593 20.5778C117.825 20.6574 118.037 20.7866 118.228 20.9656C118.419 21.1426 118.571 21.3772 118.684 21.6696C118.798 21.9619 118.854 22.3219 118.854 22.7494V23.0477H115.322V22.4392H118.138C118.138 22.1807 118.087 21.95 117.983 21.7471C117.882 21.5443 117.737 21.3842 117.548 21.2669C117.361 21.1495 117.14 21.0909 116.886 21.0909C116.605 21.0909 116.363 21.1605 116.158 21.2997C115.955 21.4369 115.799 21.6159 115.689 21.8366C115.58 22.0574 115.525 22.294 115.525 22.5466V22.9522C115.525 23.2983 115.585 23.5916 115.704 23.8322C115.826 24.0709 115.994 24.2528 116.208 24.3781C116.423 24.5014 116.673 24.563 116.957 24.563C117.142 24.563 117.309 24.5372 117.458 24.4855C117.609 24.4318 117.74 24.3522 117.849 24.2469C117.958 24.1395 118.043 24.0062 118.103 23.8471L118.783 24.038C118.711 24.2687 118.591 24.4716 118.422 24.6466C118.253 24.8196 118.044 24.9548 117.795 25.0522C117.547 25.1477 117.267 25.1954 116.957 25.1954Z" fill="black"/>
<circle cx="272.2" cy="21.6" r="6.9" fill="white" stroke="#344054" stroke-width="0.6"/>
<path d="M61.5114 44.7529V42.9273H70.1125V44.7529H66.9063V53.4H64.7176V44.7529H61.5114ZM71.4881 53.4V45.5455H73.6665V53.4H71.4881ZM72.5824 44.533C72.2585 44.533 71.9807 44.4256 71.7489 44.2108C71.5205 43.9926 71.4063 43.7318 71.4063 43.4284C71.4063 43.1284 71.5205 42.871 71.7489 42.6563C71.9807 42.4381 72.2585 42.329 72.5824 42.329C72.9063 42.329 73.1824 42.4381 73.4108 42.6563C73.6426 42.871 73.7585 43.1284 73.7585 43.4284C73.7585 43.7318 73.6426 43.9926 73.4108 44.2108C73.1824 44.4256 72.9063 44.533 72.5824 44.533ZM79.5893 45.5455V47.1818H74.8592V45.5455H79.5893ZM75.9331 43.6637H78.1115V50.9864C78.1115 51.1875 78.1422 51.3443 78.2036 51.4568C78.2649 51.5659 78.3501 51.6426 78.4592 51.687C78.5717 51.7313 78.7013 51.7534 78.8479 51.7534C78.9501 51.7534 79.0524 51.7449 79.1547 51.7279C79.257 51.7074 79.3354 51.6921 79.3899 51.6818L79.7325 53.3029C79.6234 53.337 79.47 53.3762 79.2723 53.4205C79.0746 53.4682 78.8342 53.4972 78.5513 53.5074C78.0263 53.5279 77.5661 53.458 77.1706 53.2978C76.7786 53.1375 76.4734 52.8887 76.2553 52.5512C76.0371 52.2137 75.9297 51.7875 75.9331 51.2728V43.6637ZM83.3555 42.9273V53.4H81.1771V42.9273H83.3555ZM88.6801 53.5534C87.8722 53.5534 87.1767 53.3898 86.5938 53.0625C86.0142 52.7318 85.5676 52.2648 85.254 51.6614C84.9403 51.0546 84.7835 50.337 84.7835 49.5085C84.7835 48.7006 84.9403 47.9915 85.254 47.3813C85.5676 46.771 86.0091 46.2955 86.5784 45.9546C87.1511 45.6137 87.8227 45.4432 88.5932 45.4432C89.1114 45.4432 89.5938 45.5267 90.0403 45.6938C90.4903 45.8574 90.8824 46.1046 91.2165 46.4353C91.554 46.7659 91.8165 47.1818 92.004 47.683C92.1915 48.1807 92.2852 48.7637 92.2852 49.4318V50.0301H85.6528V48.6801H90.2347C90.2347 48.3665 90.1665 48.0887 90.0301 47.8466C89.8938 47.6046 89.7045 47.4154 89.4625 47.279C89.2239 47.1392 88.946 47.0693 88.629 47.0693C88.2983 47.0693 88.0051 47.146 87.7494 47.2995C87.4972 47.4495 87.2994 47.6523 87.1563 47.908C87.0131 48.1603 86.9398 48.4415 86.9364 48.7517V50.0353C86.9364 50.4239 87.008 50.7597 87.1511 51.0426C87.2977 51.3256 87.504 51.5438 87.7699 51.6972C88.0358 51.8506 88.3511 51.9273 88.7159 51.9273C88.958 51.9273 89.1795 51.8932 89.3807 51.825C89.5818 51.7568 89.754 51.6546 89.8972 51.5182C90.0403 51.3818 90.1494 51.2148 90.2244 51.0171L92.2392 51.15C92.1369 51.6341 91.9273 52.0568 91.6102 52.4182C91.2966 52.7762 90.8909 53.0557 90.3932 53.2568C89.8989 53.4546 89.3278 53.5534 88.6801 53.5534Z" fill="#344054"/>
<path d="M62.1318 81H61.2455L63.8091 74.0182H64.6818L67.2455 81H66.3591L64.2727 75.1227H64.2182L62.1318 81ZM62.4591 78.2727H66.0318V79.0227H62.4591V78.2727ZM74.633 76.9364L73.9102 77.1409C73.8648 77.0205 73.7977 76.9034 73.7091 76.7898C73.6227 76.6739 73.5045 76.5784 73.3545 76.5034C73.2045 76.4284 73.0125 76.3909 72.7784 76.3909C72.458 76.3909 72.1909 76.4648 71.9773 76.6125C71.7659 76.758 71.6602 76.9432 71.6602 77.1682C71.6602 77.3682 71.733 77.5261 71.8784 77.642C72.0239 77.758 72.2511 77.8545 72.5602 77.9318L73.3375 78.1227C73.8057 78.2364 74.1545 78.4102 74.3841 78.6443C74.6136 78.8761 74.7284 79.175 74.7284 79.5409C74.7284 79.8409 74.642 80.1091 74.4693 80.3455C74.2989 80.5818 74.0602 80.7682 73.7534 80.9045C73.4466 81.0409 73.0898 81.1091 72.683 81.1091C72.1489 81.1091 71.7068 80.9932 71.3568 80.7614C71.0068 80.5295 70.7852 80.1909 70.692 79.7455L71.4557 79.5545C71.5284 79.8364 71.6659 80.0477 71.8682 80.1886C72.0727 80.3295 72.3398 80.4 72.6693 80.4C73.0443 80.4 73.342 80.3205 73.5625 80.1614C73.7852 80 73.8966 79.8068 73.8966 79.5818C73.8966 79.4 73.833 79.2477 73.7057 79.125C73.5784 79 73.383 78.9068 73.1193 78.8455L72.2466 78.6409C71.767 78.5273 71.4148 78.3511 71.1898 78.1125C70.967 77.8716 70.8557 77.5705 70.8557 77.2091C70.8557 76.9136 70.9386 76.6523 71.1045 76.425C71.2727 76.1977 71.5011 76.0193 71.7898 75.8898C72.0807 75.7602 72.4102 75.6955 72.7784 75.6955C73.2966 75.6955 73.7034 75.8091 73.9989 76.0364C74.2966 76.2636 74.508 76.5636 74.633 76.9364ZM78.1349 81.1091C77.6304 81.1091 77.1952 80.9977 76.8293 80.775C76.4656 80.55 76.1849 80.2364 75.9872 79.8341C75.7918 79.4295 75.694 78.9591 75.694 78.4227C75.694 77.8864 75.7918 77.4136 75.9872 77.0045C76.1849 76.5932 76.4599 76.2727 76.8122 76.0432C77.1668 75.8114 77.5804 75.6955 78.0531 75.6955C78.3259 75.6955 78.5952 75.7409 78.8611 75.8318C79.127 75.9227 79.369 76.0705 79.5872 76.275C79.8054 76.4773 79.9793 76.7455 80.1088 77.0795C80.2384 77.4136 80.3031 77.825 80.3031 78.3136V78.6545H76.2668V77.9591H79.4849C79.4849 77.6636 79.4259 77.4 79.3077 77.1682C79.1918 76.9364 79.0259 76.7534 78.8099 76.6193C78.5963 76.4852 78.344 76.4182 78.0531 76.4182C77.7327 76.4182 77.4554 76.4977 77.2213 76.6568C76.9895 76.8136 76.8111 77.0182 76.6861 77.2705C76.5611 77.5227 76.4986 77.7932 76.4986 78.0818V78.5455C76.4986 78.9409 76.5668 79.2761 76.7031 79.5511C76.8418 79.8239 77.0338 80.0318 77.2793 80.175C77.5247 80.3159 77.8099 80.3864 78.1349 80.3864C78.3463 80.3864 78.5372 80.3568 78.7077 80.2977C78.8804 80.2364 79.0293 80.1455 79.1543 80.025C79.2793 79.9023 79.3759 79.75 79.444 79.5682L80.2213 79.7864C80.1395 80.05 80.002 80.2818 79.8088 80.4818C79.6156 80.6795 79.377 80.8341 79.0929 80.9455C78.8088 81.0545 78.4895 81.1091 78.1349 81.1091ZM82.3315 74.0182V81H81.527V74.0182H82.3315ZM86.1369 75.7636V76.4455H83.3142V75.7636H86.1369ZM84.1597 81V75.0409C84.1597 74.7409 84.2301 74.4909 84.371 74.2909C84.5119 74.0909 84.6949 73.9409 84.9199 73.8409C85.1449 73.7409 85.3824 73.6909 85.6324 73.6909C85.8301 73.6909 85.9915 73.7068 86.1165 73.7386C86.2415 73.7705 86.3347 73.8 86.396 73.8273L86.1642 74.5227C86.1233 74.5091 86.0665 74.492 85.9938 74.4716C85.9233 74.4511 85.8301 74.4409 85.7142 74.4409C85.4483 74.4409 85.2563 74.508 85.1381 74.642C85.0222 74.7761 84.9642 74.9727 84.9642 75.2318V81H84.1597ZM89.9926 77.6318V78.3818H86.9381V77.6318H89.9926ZM95.1173 76.9364L94.3946 77.1409C94.3491 77.0205 94.2821 76.9034 94.1935 76.7898C94.1071 76.6739 93.9889 76.5784 93.8389 76.5034C93.6889 76.4284 93.4969 76.3909 93.2628 76.3909C92.9423 76.3909 92.6753 76.4648 92.4616 76.6125C92.2503 76.758 92.1446 76.9432 92.1446 77.1682C92.1446 77.3682 92.2173 77.5261 92.3628 77.642C92.5082 77.758 92.7355 77.8545 93.0446 77.9318L93.8219 78.1227C94.2901 78.2364 94.6389 78.4102 94.8685 78.6443C95.098 78.8761 95.2128 79.175 95.2128 79.5409C95.2128 79.8409 95.1264 80.1091 94.9537 80.3455C94.7832 80.5818 94.5446 80.7682 94.2378 80.9045C93.931 81.0409 93.5741 81.1091 93.1673 81.1091C92.6332 81.1091 92.1912 80.9932 91.8412 80.7614C91.4912 80.5295 91.2696 80.1909 91.1764 79.7455L91.9401 79.5545C92.0128 79.8364 92.1503 80.0477 92.3526 80.1886C92.5571 80.3295 92.8241 80.4 93.1537 80.4C93.5287 80.4 93.8264 80.3205 94.0469 80.1614C94.2696 80 94.381 79.8068 94.381 79.5818C94.381 79.4 94.3173 79.2477 94.1901 79.125C94.0628 79 93.8673 78.9068 93.6037 78.8455L92.731 78.6409C92.2514 78.5273 91.8991 78.3511 91.6741 78.1125C91.4514 77.8716 91.3401 77.5705 91.3401 77.2091C91.3401 76.9136 91.423 76.6523 91.5889 76.425C91.7571 76.1977 91.9855 76.0193 92.2741 75.8898C92.5651 75.7602 92.8946 75.6955 93.2628 75.6955C93.781 75.6955 94.1878 75.8091 94.4832 76.0364C94.781 76.2636 94.9923 76.5636 95.1173 76.9364ZM98.6193 81.1091C98.1148 81.1091 97.6795 80.9977 97.3136 80.775C96.95 80.55 96.6693 80.2364 96.4716 79.8341C96.2761 79.4295 96.1784 78.9591 96.1784 78.4227C96.1784 77.8864 96.2761 77.4136 96.4716 77.0045C96.6693 76.5932 96.9443 76.2727 97.2966 76.0432C97.6511 75.8114 98.0648 75.6955 98.5375 75.6955C98.8102 75.6955 99.0795 75.7409 99.3455 75.8318C99.6114 75.9227 99.8534 76.0705 100.072 76.275C100.29 76.4773 100.464 76.7455 100.593 77.0795C100.723 77.4136 100.788 77.825 100.788 78.3136V78.6545H96.7511V77.9591H99.9693C99.9693 77.6636 99.9102 77.4 99.792 77.1682C99.6761 76.9364 99.5102 76.7534 99.2943 76.6193C99.0807 76.4852 98.8284 76.4182 98.5375 76.4182C98.217 76.4182 97.9398 76.4977 97.7057 76.6568C97.4739 76.8136 97.2955 77.0182 97.1705 77.2705C97.0455 77.5227 96.983 77.7932 96.983 78.0818V78.5455C96.983 78.9409 97.0511 79.2761 97.1875 79.5511C97.3261 79.8239 97.5182 80.0318 97.7636 80.175C98.0091 80.3159 98.2943 80.3864 98.6193 80.3864C98.8307 80.3864 99.0216 80.3568 99.192 80.2977C99.3648 80.2364 99.5136 80.1455 99.6386 80.025C99.7636 79.9023 99.8602 79.75 99.9284 79.5682L100.706 79.7864C100.624 80.05 100.486 80.2818 100.293 80.4818C100.1 80.6795 99.8614 80.8341 99.5773 80.9455C99.2932 81.0545 98.9739 81.1091 98.6193 81.1091ZM102.011 81V75.7636H102.789V76.5545H102.843C102.939 76.2955 103.111 76.0852 103.361 75.9239C103.611 75.7625 103.893 75.6818 104.207 75.6818C104.266 75.6818 104.34 75.683 104.428 75.6852C104.517 75.6875 104.584 75.6909 104.63 75.6955V76.5136C104.602 76.5068 104.54 76.4966 104.442 76.483C104.347 76.467 104.245 76.4591 104.139 76.4591C103.884 76.4591 103.657 76.5125 103.457 76.6193C103.259 76.7239 103.102 76.8693 102.986 77.0557C102.873 77.2398 102.816 77.45 102.816 77.6864V81H102.011ZM110.024 75.7636L108.088 81H107.27L105.334 75.7636H106.206L107.652 79.9364H107.706L109.152 75.7636H110.024ZM111.086 81V75.7636H111.891V81H111.086ZM111.495 74.8909C111.339 74.8909 111.203 74.8375 111.09 74.7307C110.978 74.6239 110.923 74.4955 110.923 74.3455C110.923 74.1955 110.978 74.067 111.09 73.9602C111.203 73.8534 111.339 73.8 111.495 73.8C111.652 73.8 111.786 73.8534 111.898 73.9602C112.011 74.067 112.068 74.1955 112.068 74.3455C112.068 74.4955 112.011 74.6239 111.898 74.7307C111.786 74.8375 111.652 74.8909 111.495 74.8909ZM115.492 81.1091C115.001 81.1091 114.578 80.9932 114.224 80.7614C113.869 80.5295 113.596 80.2102 113.405 79.8034C113.214 79.3966 113.119 78.9318 113.119 78.4091C113.119 77.8773 113.217 77.408 113.412 77.0011C113.61 76.592 113.885 76.2727 114.237 76.0432C114.592 75.8114 115.005 75.6955 115.478 75.6955C115.846 75.6955 116.178 75.7636 116.474 75.9C116.769 76.0364 117.011 76.2273 117.2 76.4727C117.388 76.7182 117.505 77.0045 117.551 77.3318H116.746C116.685 77.0932 116.549 76.8818 116.337 76.6977C116.128 76.5114 115.846 76.4182 115.492 76.4182C115.178 76.4182 114.903 76.5 114.667 76.6636C114.433 76.825 114.25 77.0534 114.118 77.3489C113.988 77.642 113.924 77.9864 113.924 78.3818C113.924 78.7864 113.987 79.1386 114.114 79.4386C114.244 79.7386 114.426 79.9716 114.66 80.1375C114.896 80.3034 115.174 80.3864 115.492 80.3864C115.701 80.3864 115.891 80.35 116.061 80.2773C116.232 80.2045 116.376 80.1 116.494 79.9636C116.612 79.8273 116.696 79.6636 116.746 79.4727H117.551C117.505 79.7818 117.393 80.0602 117.213 80.308C117.036 80.5534 116.801 80.7489 116.508 80.8943C116.217 81.0375 115.878 81.1091 115.492 81.1091ZM120.922 81.1091C120.418 81.1091 119.983 80.9977 119.617 80.775C119.253 80.55 118.972 80.2364 118.775 79.8341C118.579 79.4295 118.482 78.9591 118.482 78.4227C118.482 77.8864 118.579 77.4136 118.775 77.0045C118.972 76.5932 119.247 76.2727 119.6 76.0432C119.954 75.8114 120.368 75.6955 120.841 75.6955C121.113 75.6955 121.383 75.7409 121.649 75.8318C121.914 75.9227 122.157 76.0705 122.375 76.275C122.593 76.4773 122.767 76.7455 122.896 77.0795C123.026 77.4136 123.091 77.825 123.091 78.3136V78.6545H119.054V77.9591H122.272C122.272 77.6636 122.213 77.4 122.095 77.1682C121.979 76.9364 121.813 76.7534 121.597 76.6193C121.384 76.4852 121.132 76.4182 120.841 76.4182C120.52 76.4182 120.243 76.4977 120.009 76.6568C119.777 76.8136 119.599 77.0182 119.474 77.2705C119.349 77.5227 119.286 77.7932 119.286 78.0818V78.5455C119.286 78.9409 119.354 79.2761 119.491 79.5511C119.629 79.8239 119.821 80.0318 120.067 80.175C120.312 80.3159 120.597 80.3864 120.922 80.3864C121.134 80.3864 121.325 80.3568 121.495 80.2977C121.668 80.2364 121.817 80.1455 121.942 80.025C122.067 79.9023 122.163 79.75 122.232 79.5682L123.009 79.7864C122.927 80.05 122.789 80.2818 122.596 80.4818C122.403 80.6795 122.164 80.8341 121.88 80.9455C121.596 81.0545 121.277 81.1091 120.922 81.1091ZM127.41 81H126.524L129.087 74.0182H129.96L132.524 81H131.637L129.551 75.1227H129.496L127.41 81ZM127.737 78.2727H131.31V79.0227H127.737V78.2727ZM133.611 81V74.0182H135.97C136.518 74.0182 136.966 74.117 137.313 74.3148C137.663 74.5102 137.922 74.775 138.091 75.1091C138.259 75.4432 138.343 75.8159 138.343 76.2273C138.343 76.6386 138.259 77.0125 138.091 77.3489C137.925 77.6852 137.668 77.9534 137.32 78.1534C136.972 78.3511 136.527 78.45 135.984 78.45H134.293V77.7H135.957C136.332 77.7 136.633 77.6352 136.86 77.5057C137.087 77.3761 137.252 77.2011 137.354 76.9807C137.459 76.758 137.511 76.5068 137.511 76.2273C137.511 75.9477 137.459 75.6977 137.354 75.4773C137.252 75.2568 137.086 75.0841 136.857 74.9591C136.627 74.8318 136.322 74.7682 135.943 74.7682H134.457V81H133.611ZM140.55 74.0182V81H139.705V74.0182H140.55ZM144.836 82.9636V75.7636H145.614V76.5955H145.709C145.768 76.5045 145.85 76.3886 145.955 76.2477C146.061 76.1045 146.214 75.9773 146.411 75.8659C146.611 75.7523 146.882 75.6955 147.223 75.6955C147.664 75.6955 148.052 75.8057 148.389 76.0261C148.725 76.2466 148.987 76.5591 149.176 76.9636C149.365 77.3682 149.459 77.8455 149.459 78.3955C149.459 78.95 149.365 79.4307 149.176 79.8375C148.987 80.242 148.726 80.5557 148.392 80.7784C148.058 80.9989 147.673 81.1091 147.236 81.1091C146.9 81.1091 146.631 81.0534 146.428 80.942C146.226 80.8284 146.07 80.7 145.961 80.5568C145.852 80.4114 145.768 80.2909 145.709 80.1955H145.641V82.9636H144.836ZM145.627 78.3818C145.627 78.7773 145.685 79.1261 145.801 79.4284C145.917 79.7284 146.086 79.9636 146.309 80.1341C146.532 80.3023 146.805 80.3864 147.127 80.3864C147.464 80.3864 147.744 80.2977 147.969 80.1205C148.197 79.9409 148.367 79.7 148.481 79.3977C148.597 79.0932 148.655 78.7545 148.655 78.3818C148.655 78.0136 148.598 77.6818 148.484 77.3864C148.373 77.0886 148.203 76.8534 147.976 76.6807C147.751 76.5057 147.468 76.4182 147.127 76.4182C146.8 76.4182 146.525 76.5011 146.302 76.667C146.08 76.8307 145.911 77.0602 145.798 77.3557C145.684 77.6489 145.627 77.9909 145.627 78.3818ZM151.491 74.0182V81H150.686V74.0182H151.491ZM154.505 81.1227C154.174 81.1227 153.872 81.0602 153.602 80.9352C153.332 80.808 153.117 80.625 152.958 80.3864C152.799 80.1455 152.719 79.8545 152.719 79.5136C152.719 79.2136 152.778 78.9705 152.896 78.7841C153.014 78.5955 153.172 78.4477 153.37 78.3409C153.568 78.2341 153.786 78.1545 154.025 78.1023C154.266 78.0477 154.508 78.0045 154.751 77.9727C155.069 77.9318 155.327 77.9011 155.525 77.8807C155.725 77.858 155.87 77.8205 155.961 77.7682C156.054 77.7159 156.101 77.625 156.101 77.4955V77.4682C156.101 77.1318 156.009 76.8705 155.825 76.6841C155.643 76.4977 155.367 76.4045 154.996 76.4045C154.612 76.4045 154.311 76.4886 154.093 76.6568C153.875 76.825 153.721 77.0045 153.633 77.1955L152.869 76.9227C153.005 76.6045 153.187 76.3568 153.414 76.1795C153.644 76 153.894 75.875 154.164 75.8045C154.437 75.7318 154.705 75.6955 154.969 75.6955C155.137 75.6955 155.33 75.7159 155.549 75.7568C155.769 75.7955 155.982 75.8761 156.186 75.9989C156.393 76.1216 156.564 76.3068 156.701 76.5545C156.837 76.8023 156.905 77.1341 156.905 77.55V81H156.101V80.2909H156.06C156.005 80.4045 155.914 80.5261 155.787 80.6557C155.66 80.7852 155.491 80.8955 155.279 80.9864C155.068 81.0773 154.81 81.1227 154.505 81.1227ZM154.628 80.4C154.946 80.4 155.214 80.3375 155.433 80.2125C155.653 80.0875 155.819 79.9261 155.93 79.7284C156.044 79.5307 156.101 79.3227 156.101 79.1045V78.3682C156.067 78.4091 155.992 78.4466 155.876 78.4807C155.762 78.5125 155.63 78.5409 155.48 78.5659C155.333 78.5886 155.188 78.6091 155.047 78.6273C154.909 78.6432 154.796 78.6568 154.71 78.6682C154.501 78.6955 154.305 78.7398 154.124 78.8011C153.944 78.8602 153.799 78.95 153.687 79.0705C153.578 79.1886 153.524 79.35 153.524 79.5545C153.524 79.8341 153.627 80.0455 153.834 80.1886C154.043 80.3295 154.308 80.4 154.628 80.4ZM160.651 75.7636V76.4455H157.938V75.7636H160.651ZM158.728 74.5091H159.533V79.5C159.533 79.7273 159.566 79.8977 159.632 80.0114C159.7 80.1227 159.786 80.1977 159.891 80.2364C159.998 80.2727 160.11 80.2909 160.228 80.2909C160.317 80.2909 160.39 80.2864 160.447 80.2773C160.503 80.2659 160.549 80.2568 160.583 80.25L160.747 80.9727C160.692 80.9932 160.616 81.0136 160.518 81.0341C160.42 81.0568 160.297 81.0682 160.147 81.0682C159.919 81.0682 159.697 81.0193 159.478 80.9216C159.263 80.8239 159.083 80.675 158.94 80.475C158.799 80.275 158.728 80.0227 158.728 79.7182V74.5091ZM164.193 75.7636V76.4455H161.37V75.7636H164.193ZM162.216 81V75.0409C162.216 74.7409 162.286 74.4909 162.427 74.2909C162.568 74.0909 162.751 73.9409 162.976 73.8409C163.201 73.7409 163.439 73.6909 163.689 73.6909C163.886 73.6909 164.048 73.7068 164.173 73.7386C164.298 73.7705 164.391 73.8 164.452 73.8273L164.22 74.5227C164.18 74.5091 164.123 74.492 164.05 74.4716C163.98 74.4511 163.886 74.4409 163.77 74.4409C163.505 74.4409 163.313 74.508 163.194 74.642C163.078 74.7761 163.02 74.9727 163.02 75.2318V81H162.216ZM167.232 81.1091C166.76 81.1091 166.345 80.9966 165.988 80.7716C165.634 80.5466 165.356 80.2318 165.156 79.8273C164.959 79.4227 164.86 78.95 164.86 78.4091C164.86 77.8636 164.959 77.3875 165.156 76.9807C165.356 76.5739 165.634 76.258 165.988 76.033C166.345 75.808 166.76 75.6955 167.232 75.6955C167.705 75.6955 168.119 75.808 168.473 76.033C168.83 76.258 169.107 76.5739 169.305 76.9807C169.505 77.3875 169.605 77.8636 169.605 78.4091C169.605 78.95 169.505 79.4227 169.305 79.8273C169.107 80.2318 168.83 80.5466 168.473 80.7716C168.119 80.9966 167.705 81.1091 167.232 81.1091ZM167.232 80.3864C167.591 80.3864 167.887 80.2943 168.119 80.1102C168.351 79.9261 168.522 79.6841 168.634 79.3841C168.745 79.0841 168.801 78.7591 168.801 78.4091C168.801 78.0591 168.745 77.733 168.634 77.4307C168.522 77.1284 168.351 76.8841 168.119 76.6977C167.887 76.5114 167.591 76.4182 167.232 76.4182C166.873 76.4182 166.578 76.5114 166.346 76.6977C166.114 76.8841 165.943 77.1284 165.831 77.4307C165.72 77.733 165.664 78.0591 165.664 78.4091C165.664 78.7591 165.72 79.0841 165.831 79.3841C165.943 79.6841 166.114 79.9261 166.346 80.1102C166.578 80.2943 166.873 80.3864 167.232 80.3864ZM170.833 81V75.7636H171.611V76.5545H171.665C171.761 76.2955 171.933 76.0852 172.183 75.9239C172.433 75.7625 172.715 75.6818 173.029 75.6818C173.088 75.6818 173.162 75.683 173.25 75.6852C173.339 75.6875 173.406 75.6909 173.451 75.6955V76.5136C173.424 76.5068 173.362 76.4966 173.264 76.483C173.168 76.467 173.067 76.4591 172.961 76.4591C172.706 76.4591 172.479 76.5125 172.279 76.6193C172.081 76.7239 171.924 76.8693 171.808 77.0557C171.695 77.2398 171.638 77.45 171.638 77.6864V81H170.833ZM174.405 81V75.7636H175.182V76.5818H175.251C175.36 76.3023 175.536 76.0852 175.779 75.9307C176.022 75.7739 176.314 75.6955 176.655 75.6955C177.001 75.6955 177.288 75.7739 177.518 75.9307C177.749 76.0852 177.93 76.3023 178.06 76.5818H178.114C178.248 76.3114 178.449 76.0966 178.718 75.9375C178.986 75.7761 179.307 75.6955 179.682 75.6955C180.151 75.6955 180.534 75.842 180.831 76.1352C181.129 76.4261 181.278 76.8795 181.278 77.4955V81H180.473V77.4955C180.473 77.1091 180.368 76.833 180.156 76.667C179.945 76.5011 179.696 76.4182 179.41 76.4182C179.041 76.4182 178.756 76.5295 178.554 76.7523C178.352 76.9727 178.251 77.2523 178.251 77.5909V81H177.432V77.4136C177.432 77.1159 177.336 76.8761 177.143 76.6943C176.949 76.5102 176.701 76.4182 176.396 76.4182C176.187 76.4182 175.991 76.4739 175.81 76.5852C175.63 76.6966 175.485 76.8511 175.373 77.0489C175.264 77.2443 175.21 77.4705 175.21 77.7273V81H174.405ZM187.726 75.7636V76.4455H185.013V75.7636H187.726ZM185.803 74.5091H186.608V79.5C186.608 79.7273 186.641 79.8977 186.707 80.0114C186.775 80.1227 186.861 80.1977 186.966 80.2364C187.073 80.2727 187.185 80.2909 187.303 80.2909C187.392 80.2909 187.465 80.2864 187.522 80.2773C187.578 80.2659 187.624 80.2568 187.658 80.25L187.822 80.9727C187.767 80.9932 187.691 81.0136 187.593 81.0341C187.495 81.0568 187.372 81.0682 187.222 81.0682C186.994 81.0682 186.772 81.0193 186.553 80.9216C186.338 80.8239 186.158 80.675 186.015 80.475C185.874 80.275 185.803 80.0227 185.803 79.7182V74.5091ZM189.853 77.85V81H189.049V74.0182H189.853V76.5818H189.922C190.044 76.3114 190.228 76.0966 190.474 75.9375C190.722 75.7761 191.051 75.6955 191.463 75.6955C191.819 75.6955 192.132 75.767 192.4 75.9102C192.668 76.0511 192.876 76.2682 193.024 76.5614C193.174 76.8523 193.249 77.2227 193.249 77.6727V81H192.444V77.7273C192.444 77.3114 192.336 76.9898 192.12 76.7625C191.907 76.533 191.61 76.4182 191.231 76.4182C190.967 76.4182 190.731 76.4739 190.522 76.5852C190.315 76.6966 190.151 76.8591 190.031 77.0727C189.913 77.2864 189.853 77.5455 189.853 77.85ZM196.262 81.1227C195.93 81.1227 195.629 81.0602 195.358 80.9352C195.088 80.808 194.873 80.625 194.714 80.3864C194.555 80.1455 194.475 79.8545 194.475 79.5136C194.475 79.2136 194.534 78.9705 194.653 78.7841C194.771 78.5955 194.929 78.4477 195.126 78.3409C195.324 78.2341 195.542 78.1545 195.781 78.1023C196.022 78.0477 196.264 78.0045 196.507 77.9727C196.825 77.9318 197.083 77.9011 197.281 77.8807C197.481 77.858 197.626 77.8205 197.717 77.7682C197.811 77.7159 197.857 77.625 197.857 77.4955V77.4682C197.857 77.1318 197.765 76.8705 197.581 76.6841C197.399 76.4977 197.123 76.4045 196.753 76.4045C196.368 76.4045 196.067 76.4886 195.849 76.6568C195.631 76.825 195.478 77.0045 195.389 77.1955L194.625 76.9227C194.762 76.6045 194.943 76.3568 195.171 76.1795C195.4 76 195.65 75.875 195.921 75.8045C196.193 75.7318 196.462 75.6955 196.725 75.6955C196.893 75.6955 197.087 75.7159 197.305 75.7568C197.525 75.7955 197.738 75.8761 197.942 75.9989C198.149 76.1216 198.321 76.3068 198.457 76.5545C198.593 76.8023 198.662 77.1341 198.662 77.55V81H197.857V80.2909H197.816C197.762 80.4045 197.671 80.5261 197.543 80.6557C197.416 80.7852 197.247 80.8955 197.036 80.9864C196.824 81.0773 196.566 81.1227 196.262 81.1227ZM196.384 80.4C196.703 80.4 196.971 80.3375 197.189 80.2125C197.409 80.0875 197.575 79.9261 197.687 79.7284C197.8 79.5307 197.857 79.3227 197.857 79.1045V78.3682C197.823 78.4091 197.748 78.4466 197.632 78.4807C197.518 78.5125 197.387 78.5409 197.237 78.5659C197.089 78.5886 196.945 78.6091 196.804 78.6273C196.665 78.6432 196.553 78.6568 196.466 78.6682C196.257 78.6955 196.062 78.7398 195.88 78.8011C195.7 78.8602 195.555 78.95 195.443 79.0705C195.334 79.1886 195.28 79.35 195.28 79.5545C195.28 79.8341 195.383 80.0455 195.59 80.1886C195.799 80.3295 196.064 80.4 196.384 80.4ZM202.407 75.7636V76.4455H199.694V75.7636H202.407ZM200.485 74.5091H201.289V79.5C201.289 79.7273 201.322 79.8977 201.388 80.0114C201.456 80.1227 201.543 80.1977 201.647 80.2364C201.754 80.2727 201.866 80.2909 201.985 80.2909C202.073 80.2909 202.146 80.2864 202.203 80.2773C202.26 80.2659 202.305 80.2568 202.339 80.25L202.503 80.9727C202.448 80.9932 202.372 81.0136 202.274 81.0341C202.177 81.0568 202.053 81.0682 201.903 81.0682C201.676 81.0682 201.453 81.0193 201.235 80.9216C201.019 80.8239 200.839 80.675 200.696 80.475C200.555 80.275 200.485 80.0227 200.485 79.7182V74.5091ZM207.859 81.1227C207.527 81.1227 207.226 81.0602 206.955 80.9352C206.685 80.808 206.47 80.625 206.311 80.3864C206.152 80.1455 206.072 79.8545 206.072 79.5136C206.072 79.2136 206.131 78.9705 206.249 78.7841C206.368 78.5955 206.526 78.4477 206.723 78.3409C206.921 78.2341 207.139 78.1545 207.378 78.1023C207.619 78.0477 207.861 78.0045 208.104 77.9727C208.422 77.9318 208.68 77.9011 208.878 77.8807C209.078 77.858 209.223 77.8205 209.314 77.7682C209.407 77.7159 209.454 77.625 209.454 77.4955V77.4682C209.454 77.1318 209.362 76.8705 209.178 76.6841C208.996 76.4977 208.72 76.4045 208.349 76.4045C207.965 76.4045 207.664 76.4886 207.446 76.6568C207.228 76.825 207.074 77.0045 206.986 77.1955L206.222 76.9227C206.359 76.6045 206.54 76.3568 206.768 76.1795C206.997 76 207.247 75.875 207.518 75.8045C207.79 75.7318 208.059 75.6955 208.322 75.6955C208.49 75.6955 208.684 75.7159 208.902 75.7568C209.122 75.7955 209.335 75.8761 209.539 75.9989C209.746 76.1216 209.918 76.3068 210.054 76.5545C210.19 76.8023 210.259 77.1341 210.259 77.55V81H209.454V80.2909H209.413C209.359 80.4045 209.268 80.5261 209.14 80.6557C209.013 80.7852 208.844 80.8955 208.632 80.9864C208.421 81.0773 208.163 81.1227 207.859 81.1227ZM207.981 80.4C208.299 80.4 208.568 80.3375 208.786 80.2125C209.006 80.0875 209.172 79.9261 209.284 79.7284C209.397 79.5307 209.454 79.3227 209.454 79.1045V78.3682C209.42 78.4091 209.345 78.4466 209.229 78.4807C209.115 78.5125 208.984 78.5409 208.834 78.5659C208.686 78.5886 208.541 78.6091 208.401 78.6273C208.262 78.6432 208.149 78.6568 208.063 78.6682C207.854 78.6955 207.659 78.7398 207.477 78.8011C207.297 78.8602 207.152 78.95 207.04 79.0705C206.931 79.1886 206.877 79.35 206.877 79.5545C206.877 79.8341 206.98 80.0455 207.187 80.1886C207.396 80.3295 207.661 80.4 207.981 80.4ZM213.854 81.1091C213.363 81.1091 212.941 80.9932 212.586 80.7614C212.232 80.5295 211.959 80.2102 211.768 79.8034C211.577 79.3966 211.482 78.9318 211.482 78.4091C211.482 77.8773 211.579 77.408 211.775 77.0011C211.972 76.592 212.247 76.2727 212.6 76.0432C212.954 75.8114 213.368 75.6955 213.841 75.6955C214.209 75.6955 214.541 75.7636 214.836 75.9C215.132 76.0364 215.374 76.2273 215.562 76.4727C215.751 76.7182 215.868 77.0045 215.913 77.3318H215.109C215.047 77.0932 214.911 76.8818 214.7 76.6977C214.491 76.5114 214.209 76.4182 213.854 76.4182C213.541 76.4182 213.266 76.5 213.029 76.6636C212.795 76.825 212.612 77.0534 212.48 77.3489C212.351 77.642 212.286 77.9864 212.286 78.3818C212.286 78.7864 212.35 79.1386 212.477 79.4386C212.607 79.7386 212.788 79.9716 213.022 80.1375C213.259 80.3034 213.536 80.3864 213.854 80.3864C214.063 80.3864 214.253 80.35 214.424 80.2773C214.594 80.2045 214.738 80.1 214.857 79.9636C214.975 79.8273 215.059 79.6636 215.109 79.4727H215.913C215.868 79.7818 215.755 80.0602 215.576 80.308C215.399 80.5534 215.163 80.7489 214.87 80.8943C214.579 81.0375 214.241 81.1091 213.854 81.1091ZM219.367 75.7636V76.4455H216.653V75.7636H219.367ZM217.444 74.5091H218.249V79.5C218.249 79.7273 218.282 79.8977 218.347 80.0114C218.416 80.1227 218.502 80.1977 218.607 80.2364C218.713 80.2727 218.826 80.2909 218.944 80.2909C219.033 80.2909 219.105 80.2864 219.162 80.2773C219.219 80.2659 219.264 80.2568 219.299 80.25L219.462 80.9727C219.408 80.9932 219.332 81.0136 219.234 81.0341C219.136 81.0568 219.012 81.0682 218.862 81.0682C218.635 81.0682 218.412 81.0193 218.194 80.9216C217.978 80.8239 217.799 80.675 217.655 80.475C217.514 80.275 217.444 80.0227 217.444 79.7182V74.5091ZM224.192 76.9364L223.47 77.1409C223.424 77.0205 223.357 76.9034 223.268 76.7898C223.182 76.6739 223.064 76.5784 222.914 76.5034C222.764 76.4284 222.572 76.3909 222.338 76.3909C222.017 76.3909 221.75 76.4648 221.537 76.6125C221.325 76.758 221.22 76.9432 221.22 77.1682C221.22 77.3682 221.292 77.5261 221.438 77.642C221.583 77.758 221.811 77.8545 222.12 77.9318L222.897 78.1227C223.365 78.2364 223.714 78.4102 223.943 78.6443C224.173 78.8761 224.288 79.175 224.288 79.5409C224.288 79.8409 224.201 80.1091 224.029 80.3455C223.858 80.5818 223.62 80.7682 223.313 80.9045C223.006 81.0409 222.649 81.1091 222.242 81.1091C221.708 81.1091 221.266 80.9932 220.916 80.7614C220.566 80.5295 220.345 80.1909 220.251 79.7455L221.015 79.5545C221.088 79.8364 221.225 80.0477 221.428 80.1886C221.632 80.3295 221.899 80.4 222.229 80.4C222.604 80.4 222.901 80.3205 223.122 80.1614C223.345 80 223.456 79.8068 223.456 79.5818C223.456 79.4 223.392 79.2477 223.265 79.125C223.138 79 222.942 78.9068 222.679 78.8455L221.806 78.6409C221.326 78.5273 220.974 78.3511 220.749 78.1125C220.526 77.8716 220.415 77.5705 220.415 77.2091C220.415 76.9136 220.498 76.6523 220.664 76.425C220.832 76.1977 221.061 76.0193 221.349 75.8898C221.64 75.7602 221.97 75.6955 222.338 75.6955C222.856 75.6955 223.263 75.8091 223.558 76.0364C223.856 76.2636 224.067 76.5636 224.192 76.9364ZM229.74 81.1227C229.408 81.1227 229.107 81.0602 228.836 80.9352C228.566 80.808 228.351 80.625 228.192 80.3864C228.033 80.1455 227.953 79.8545 227.953 79.5136C227.953 79.2136 228.013 78.9705 228.131 78.7841C228.249 78.5955 228.407 78.4477 228.605 78.3409C228.802 78.2341 229.02 78.1545 229.259 78.1023C229.5 78.0477 229.742 78.0045 229.985 77.9727C230.303 77.9318 230.561 77.9011 230.759 77.8807C230.959 77.858 231.105 77.8205 231.195 77.7682C231.289 77.7159 231.335 77.625 231.335 77.4955V77.4682C231.335 77.1318 231.243 76.8705 231.059 76.6841C230.877 76.4977 230.601 76.4045 230.231 76.4045C229.847 76.4045 229.545 76.4886 229.327 76.6568C229.109 76.825 228.956 77.0045 228.867 77.1955L228.103 76.9227C228.24 76.6045 228.422 76.3568 228.649 76.1795C228.878 76 229.128 75.875 229.399 75.8045C229.672 75.7318 229.94 75.6955 230.203 75.6955C230.372 75.6955 230.565 75.7159 230.783 75.7568C231.003 75.7955 231.216 75.8761 231.42 75.9989C231.627 76.1216 231.799 76.3068 231.935 76.5545C232.072 76.8023 232.14 77.1341 232.14 77.55V81H231.335V80.2909H231.294C231.24 80.4045 231.149 80.5261 231.022 80.6557C230.894 80.7852 230.725 80.8955 230.514 80.9864C230.302 81.0773 230.044 81.1227 229.74 81.1227ZM229.863 80.4C230.181 80.4 230.449 80.3375 230.667 80.2125C230.888 80.0875 231.053 79.9261 231.165 79.7284C231.278 79.5307 231.335 79.3227 231.335 79.1045V78.3682C231.301 78.4091 231.226 78.4466 231.11 78.4807C230.997 78.5125 230.865 78.5409 230.715 78.5659C230.567 78.5886 230.423 78.6091 230.282 78.6273C230.143 78.6432 230.031 78.6568 229.944 78.6682C229.735 78.6955 229.54 78.7398 229.358 78.8011C229.178 78.8602 229.033 78.95 228.922 79.0705C228.813 79.1886 228.758 79.35 228.758 79.5545C228.758 79.8341 228.861 80.0455 229.068 80.1886C229.277 80.3295 229.542 80.4 229.863 80.4ZM237.317 76.9364L236.595 77.1409C236.549 77.0205 236.482 76.9034 236.393 76.7898C236.307 76.6739 236.189 76.5784 236.039 76.5034C235.889 76.4284 235.697 76.3909 235.463 76.3909C235.142 76.3909 234.875 76.4648 234.662 76.6125C234.45 76.758 234.345 76.9432 234.345 77.1682C234.345 77.3682 234.417 77.5261 234.563 77.642C234.708 77.758 234.936 77.8545 235.245 77.9318L236.022 78.1227C236.49 78.2364 236.839 78.4102 237.068 78.6443C237.298 78.8761 237.413 79.175 237.413 79.5409C237.413 79.8409 237.326 80.1091 237.154 80.3455C236.983 80.5818 236.745 80.7682 236.438 80.9045C236.131 81.0409 235.774 81.1091 235.367 81.1091C234.833 81.1091 234.391 80.9932 234.041 80.7614C233.691 80.5295 233.47 80.1909 233.376 79.7455L234.14 79.5545C234.213 79.8364 234.35 80.0477 234.553 80.1886C234.757 80.3295 235.024 80.4 235.354 80.4C235.729 80.4 236.026 80.3205 236.247 80.1614C236.47 80 236.581 79.8068 236.581 79.5818C236.581 79.4 236.517 79.2477 236.39 79.125C236.263 79 236.067 78.9068 235.804 78.8455L234.931 78.6409C234.451 78.5273 234.099 78.3511 233.874 78.1125C233.651 77.8716 233.54 77.5705 233.54 77.2091C233.54 76.9136 233.623 76.6523 233.789 76.425C233.957 76.1977 234.186 76.0193 234.474 75.8898C234.765 75.7602 235.095 75.6955 235.463 75.6955C235.981 75.6955 236.388 75.8091 236.683 76.0364C236.981 76.2636 237.192 76.5636 237.317 76.9364ZM242.865 81.1227C242.533 81.1227 242.232 81.0602 241.961 80.9352C241.691 80.808 241.476 80.625 241.317 80.3864C241.158 80.1455 241.078 79.8545 241.078 79.5136C241.078 79.2136 241.138 78.9705 241.256 78.7841C241.374 78.5955 241.532 78.4477 241.73 78.3409C241.927 78.2341 242.145 78.1545 242.384 78.1023C242.625 78.0477 242.867 78.0045 243.11 77.9727C243.428 77.9318 243.686 77.9011 243.884 77.8807C244.084 77.858 244.23 77.8205 244.32 77.7682C244.414 77.7159 244.46 77.625 244.46 77.4955V77.4682C244.46 77.1318 244.368 76.8705 244.184 76.6841C244.002 76.4977 243.726 76.4045 243.356 76.4045C242.972 76.4045 242.67 76.4886 242.452 76.6568C242.234 76.825 242.081 77.0045 241.992 77.1955L241.228 76.9227C241.365 76.6045 241.547 76.3568 241.774 76.1795C242.003 76 242.253 75.875 242.524 75.8045C242.797 75.7318 243.065 75.6955 243.328 75.6955C243.497 75.6955 243.69 75.7159 243.908 75.7568C244.128 75.7955 244.341 75.8761 244.545 75.9989C244.752 76.1216 244.924 76.3068 245.06 76.5545C245.197 76.8023 245.265 77.1341 245.265 77.55V81H244.46V80.2909H244.419C244.365 80.4045 244.274 80.5261 244.147 80.6557C244.019 80.7852 243.85 80.8955 243.639 80.9864C243.427 81.0773 243.169 81.1227 242.865 81.1227ZM242.988 80.4C243.306 80.4 243.574 80.3375 243.792 80.2125C244.013 80.0875 244.178 79.9261 244.29 79.7284C244.403 79.5307 244.46 79.3227 244.46 79.1045V78.3682C244.426 78.4091 244.351 78.4466 244.235 78.4807C244.122 78.5125 243.99 78.5409 243.84 78.5659C243.692 78.5886 243.548 78.6091 243.407 78.6273C243.268 78.6432 243.156 78.6568 243.069 78.6682C242.86 78.6955 242.665 78.7398 242.483 78.8011C242.303 78.8602 242.158 78.95 242.047 79.0705C241.938 79.1886 241.883 79.35 241.883 79.5545C241.883 79.8341 241.986 80.0455 242.193 80.1886C242.402 80.3295 242.667 80.4 242.988 80.4ZM63.8636 100.109C63.3727 100.109 62.95 99.9932 62.5955 99.7614C62.2409 99.5295 61.9682 99.2102 61.7773 98.8034C61.5864 98.3966 61.4909 97.9318 61.4909 97.4091C61.4909 96.8773 61.5886 96.408 61.7841 96.0011C61.9818 95.592 62.2568 95.2727 62.6091 95.0432C62.9636 94.8114 63.3773 94.6955 63.85 94.6955C64.2182 94.6955 64.55 94.7636 64.8455 94.9C65.1409 95.0364 65.383 95.2273 65.5716 95.4727C65.7602 95.7182 65.8773 96.0045 65.9227 96.3318H65.1182C65.0568 96.0932 64.9205 95.8818 64.7091 95.6977C64.5 95.5114 64.2182 95.4182 63.8636 95.4182C63.55 95.4182 63.275 95.5 63.0386 95.6636C62.8045 95.825 62.6216 96.0534 62.4898 96.3489C62.3602 96.642 62.2955 96.9864 62.2955 97.3818C62.2955 97.7864 62.3591 98.1386 62.4864 98.4386C62.6159 98.7386 62.7977 98.9716 63.0318 99.1375C63.2682 99.3034 63.5455 99.3864 63.8636 99.3864C64.0727 99.3864 64.2625 99.35 64.433 99.2773C64.6034 99.2045 64.7477 99.1 64.8659 98.9636C64.9841 98.8273 65.0682 98.6636 65.1182 98.4727H65.9227C65.8773 98.7818 65.7648 99.0602 65.5852 99.308C65.408 99.5534 65.1727 99.7489 64.8795 99.8943C64.5886 100.038 64.25 100.109 63.8636 100.109ZM69.2943 100.109C68.7898 100.109 68.3545 99.9977 67.9886 99.775C67.625 99.55 67.3443 99.2364 67.1466 98.8341C66.9511 98.4295 66.8534 97.9591 66.8534 97.4227C66.8534 96.8864 66.9511 96.4136 67.1466 96.0045C67.3443 95.5932 67.6193 95.2727 67.9716 95.0432C68.3261 94.8114 68.7398 94.6955 69.2125 94.6955C69.4852 94.6955 69.7545 94.7409 70.0205 94.8318C70.2864 94.9227 70.5284 95.0705 70.7466 95.275C70.9648 95.4773 71.1386 95.7455 71.2682 96.0795C71.3977 96.4136 71.4625 96.825 71.4625 97.3136V97.6545H67.4261V96.9591H70.6443C70.6443 96.6636 70.5852 96.4 70.467 96.1682C70.3511 95.9364 70.1852 95.7534 69.9693 95.6193C69.7557 95.4852 69.5034 95.4182 69.2125 95.4182C68.892 95.4182 68.6148 95.4977 68.3807 95.6568C68.1489 95.8136 67.9705 96.0182 67.8455 96.2705C67.7205 96.5227 67.658 96.7932 67.658 97.0818V97.5455C67.658 97.9409 67.7261 98.2761 67.8625 98.5511C68.0011 98.8239 68.1932 99.0318 68.4386 99.175C68.6841 99.3159 68.9693 99.3864 69.2943 99.3864C69.5057 99.3864 69.6966 99.3568 69.867 99.2977C70.0398 99.2364 70.1886 99.1455 70.3136 99.025C70.4386 98.9023 70.5352 98.75 70.6034 98.5682L71.3807 98.7864C71.2989 99.05 71.1614 99.2818 70.9682 99.4818C70.775 99.6795 70.5364 99.8341 70.2523 99.9455C69.9682 100.055 69.6489 100.109 69.2943 100.109ZM73.4909 96.85V100H72.6864V94.7636H73.4636V95.5818H73.5318C73.6545 95.3159 73.8409 95.1023 74.0909 94.9409C74.3409 94.7773 74.6636 94.6955 75.0591 94.6955C75.4136 94.6955 75.7239 94.7682 75.9898 94.9136C76.2557 95.0568 76.4625 95.275 76.6102 95.5682C76.758 95.8591 76.8318 96.2273 76.8318 96.6727V100H76.0273V96.7273C76.0273 96.3159 75.9205 95.9955 75.7068 95.7659C75.4932 95.5341 75.2 95.4182 74.8273 95.4182C74.5705 95.4182 74.3409 95.4739 74.1386 95.5852C73.9386 95.6966 73.7807 95.8591 73.6648 96.0727C73.5489 96.2864 73.4909 96.5455 73.4909 96.85ZM80.5793 94.7636V95.4455H77.8656V94.7636H80.5793ZM78.6565 93.5091H79.4611V98.5C79.4611 98.7273 79.494 98.8977 79.5599 99.0114C79.6281 99.1227 79.7145 99.1977 79.819 99.2364C79.9259 99.2727 80.0384 99.2909 80.1565 99.2909C80.2452 99.2909 80.3179 99.2864 80.3747 99.2773C80.4315 99.2659 80.477 99.2568 80.5111 99.25L80.6747 99.9727C80.6202 99.9932 80.544 100.014 80.4463 100.034C80.3486 100.057 80.2247 100.068 80.0747 100.068C79.8474 100.068 79.6247 100.019 79.4065 99.9216C79.1906 99.8239 79.0111 99.675 78.8679 99.475C78.727 99.275 78.6565 99.0227 78.6565 98.7182V93.5091ZM81.7895 100V94.7636H82.5668V95.5545H82.6213C82.7168 95.2955 82.8895 95.0852 83.1395 94.9239C83.3895 94.7625 83.6713 94.6818 83.9849 94.6818C84.044 94.6818 84.1179 94.683 84.2065 94.6852C84.2952 94.6875 84.3622 94.6909 84.4077 94.6955V95.5136C84.3804 95.5068 84.3179 95.4966 84.2202 95.483C84.1247 95.467 84.0236 95.4591 83.9168 95.4591C83.6622 95.4591 83.4349 95.5125 83.2349 95.6193C83.0372 95.7239 82.8804 95.8693 82.7645 96.0557C82.6509 96.2398 82.594 96.45 82.594 96.6864V100H81.7895ZM86.9023 100.123C86.5705 100.123 86.2693 100.06 85.9989 99.9352C85.7284 99.808 85.5136 99.625 85.3545 99.3864C85.1955 99.1455 85.1159 98.8545 85.1159 98.5136C85.1159 98.2136 85.175 97.9705 85.2932 97.7841C85.4114 97.5955 85.5693 97.4477 85.767 97.3409C85.9648 97.2341 86.183 97.1545 86.4216 97.1023C86.6625 97.0477 86.9045 97.0045 87.1477 96.9727C87.4659 96.9318 87.7239 96.9011 87.9216 96.8807C88.1216 96.858 88.267 96.8205 88.358 96.7682C88.4511 96.7159 88.4977 96.625 88.4977 96.4955V96.4682C88.4977 96.1318 88.4057 95.8705 88.2216 95.6841C88.0398 95.4977 87.7636 95.4045 87.3932 95.4045C87.0091 95.4045 86.708 95.4886 86.4898 95.6568C86.2716 95.825 86.1182 96.0045 86.0295 96.1955L85.2659 95.9227C85.4023 95.6045 85.5841 95.3568 85.8114 95.1795C86.0409 95 86.2909 94.875 86.5614 94.8045C86.8341 94.7318 87.1023 94.6955 87.3659 94.6955C87.5341 94.6955 87.7273 94.7159 87.9455 94.7568C88.1659 94.7955 88.3784 94.8761 88.583 94.9989C88.7898 95.1216 88.9614 95.3068 89.0977 95.5545C89.2341 95.8023 89.3023 96.1341 89.3023 96.55V100H88.4977V99.2909H88.4568C88.4023 99.4045 88.3114 99.5261 88.1841 99.6557C88.0568 99.7852 87.8875 99.8955 87.6761 99.9864C87.4648 100.077 87.2068 100.123 86.9023 100.123ZM87.025 99.4C87.3432 99.4 87.6114 99.3375 87.8295 99.2125C88.05 99.0875 88.2159 98.9261 88.3273 98.7284C88.4409 98.5307 88.4977 98.3227 88.4977 98.1045V97.3682C88.4636 97.4091 88.3886 97.4466 88.2727 97.4807C88.1591 97.5125 88.0273 97.5409 87.8773 97.5659C87.7295 97.5886 87.5852 97.6091 87.4443 97.6273C87.3057 97.6432 87.1932 97.6568 87.1068 97.6682C86.8977 97.6955 86.7023 97.7398 86.5205 97.8011C86.3409 97.8602 86.1955 97.95 86.0841 98.0705C85.975 98.1886 85.9205 98.35 85.9205 98.5545C85.9205 98.8341 86.0239 99.0455 86.2307 99.1886C86.4398 99.3295 86.7045 99.4 87.025 99.4ZM91.5753 93.0182V100H90.7707V93.0182H91.5753ZM93.0489 100V94.7636H93.8534V100H93.0489ZM93.458 93.8909C93.3011 93.8909 93.1659 93.8375 93.0523 93.7307C92.9409 93.6239 92.8852 93.4955 92.8852 93.3455C92.8852 93.1955 92.9409 93.067 93.0523 92.9602C93.1659 92.8534 93.3011 92.8 93.458 92.8C93.6148 92.8 93.7489 92.8534 93.8602 92.9602C93.9739 93.067 94.0307 93.1955 94.0307 93.3455C94.0307 93.4955 93.9739 93.6239 93.8602 93.7307C93.7489 93.8375 93.6148 93.8909 93.458 93.8909ZM99.0361 95.9364L98.3134 96.1409C98.2679 96.0205 98.2009 95.9034 98.1122 95.7898C98.0259 95.6739 97.9077 95.5784 97.7577 95.5034C97.6077 95.4284 97.4156 95.3909 97.1815 95.3909C96.8611 95.3909 96.594 95.4648 96.3804 95.6125C96.169 95.758 96.0634 95.9432 96.0634 96.1682C96.0634 96.3682 96.1361 96.5261 96.2815 96.642C96.427 96.758 96.6543 96.8545 96.9634 96.9318L97.7406 97.1227C98.2088 97.2364 98.5577 97.4102 98.7872 97.6443C99.0168 97.8761 99.1315 98.175 99.1315 98.5409C99.1315 98.8409 99.0452 99.1091 98.8724 99.3455C98.702 99.5818 98.4634 99.7682 98.1565 99.9045C97.8497 100.041 97.4929 100.109 97.0861 100.109C96.552 100.109 96.1099 99.9932 95.7599 99.7614C95.4099 99.5295 95.1884 99.1909 95.0952 98.7455L95.8588 98.5545C95.9315 98.8364 96.069 99.0477 96.2713 99.1886C96.4759 99.3295 96.7429 99.4 97.0724 99.4C97.4474 99.4 97.7452 99.3205 97.9656 99.1614C98.1884 99 98.2997 98.8068 98.2997 98.5818C98.2997 98.4 98.2361 98.2477 98.1088 98.125C97.9815 98 97.7861 97.9068 97.5224 97.8455L96.6497 97.6409C96.1702 97.5273 95.8179 97.3511 95.5929 97.1125C95.3702 96.8716 95.2588 96.5705 95.2588 96.2091C95.2588 95.9136 95.3418 95.6523 95.5077 95.425C95.6759 95.1977 95.9043 95.0193 96.1929 94.8898C96.4838 94.7602 96.8134 94.6955 97.1815 94.6955C97.6997 94.6955 98.1065 94.8091 98.402 95.0364C98.6997 95.2636 98.9111 95.5636 99.0361 95.9364ZM102.538 100.109C102.034 100.109 101.598 99.9977 101.232 99.775C100.869 99.55 100.588 99.2364 100.39 98.8341C100.195 98.4295 100.097 97.9591 100.097 97.4227C100.097 96.8864 100.195 96.4136 100.39 96.0045C100.588 95.5932 100.863 95.2727 101.215 95.0432C101.57 94.8114 101.984 94.6955 102.456 94.6955C102.729 94.6955 102.998 94.7409 103.264 94.8318C103.53 94.9227 103.772 95.0705 103.99 95.275C104.209 95.4773 104.382 95.7455 104.512 96.0795C104.641 96.4136 104.706 96.825 104.706 97.3136V97.6545H100.67V96.9591H103.888C103.888 96.6636 103.829 96.4 103.711 96.1682C103.595 95.9364 103.429 95.7534 103.213 95.6193C102.999 95.4852 102.747 95.4182 102.456 95.4182C102.136 95.4182 101.859 95.4977 101.624 95.6568C101.393 95.8136 101.214 96.0182 101.089 96.2705C100.964 96.5227 100.902 96.7932 100.902 97.0818V97.5455C100.902 97.9409 100.97 98.2761 101.106 98.5511C101.245 98.8239 101.437 99.0318 101.682 99.175C101.928 99.3159 102.213 99.3864 102.538 99.3864C102.749 99.3864 102.94 99.3568 103.111 99.2977C103.284 99.2364 103.432 99.1455 103.557 99.025C103.682 98.9023 103.779 98.75 103.847 98.5682L104.624 98.7864C104.543 99.05 104.405 99.2818 104.212 99.4818C104.019 99.6795 103.78 99.8341 103.496 99.9455C103.212 100.055 102.893 100.109 102.538 100.109ZM107.907 100.109C107.471 100.109 107.086 99.9989 106.752 99.7784C106.418 99.5557 106.156 99.242 105.968 98.8375C105.779 98.4307 105.685 97.95 105.685 97.3955C105.685 96.8455 105.779 96.3682 105.968 95.9636C106.156 95.5591 106.419 95.2466 106.755 95.0261C107.091 94.8057 107.48 94.6955 107.921 94.6955C108.262 94.6955 108.531 94.7523 108.729 94.8659C108.929 94.9773 109.081 95.1045 109.186 95.2477C109.293 95.3886 109.376 95.5045 109.435 95.5955H109.503V93.0182H110.307V100H109.53V99.1955H109.435C109.376 99.2909 109.291 99.4114 109.182 99.5568C109.073 99.7 108.918 99.8284 108.715 99.942C108.513 100.053 108.244 100.109 107.907 100.109ZM108.016 99.3864C108.339 99.3864 108.612 99.3023 108.835 99.1341C109.057 98.9636 109.227 98.7284 109.343 98.4284C109.459 98.1261 109.516 97.7773 109.516 97.3818C109.516 96.9909 109.46 96.6489 109.346 96.3557C109.232 96.0602 109.064 95.8307 108.841 95.667C108.619 95.5011 108.344 95.4182 108.016 95.4182C107.676 95.4182 107.391 95.5057 107.164 95.6807C106.939 95.8534 106.77 96.0886 106.656 96.3864C106.545 96.6818 106.489 97.0136 106.489 97.3818C106.489 97.7545 106.546 98.0932 106.66 98.3977C106.776 98.7 106.946 98.9409 107.171 99.1205C107.398 99.2977 107.68 99.3864 108.016 99.3864ZM116.134 100.123C115.802 100.123 115.501 100.06 115.23 99.9352C114.96 99.808 114.745 99.625 114.586 99.3864C114.427 99.1455 114.347 98.8545 114.347 98.5136C114.347 98.2136 114.406 97.9705 114.524 97.7841C114.643 97.5955 114.801 97.4477 114.998 97.3409C115.196 97.2341 115.414 97.1545 115.653 97.1023C115.894 97.0477 116.136 97.0045 116.379 96.9727C116.697 96.9318 116.955 96.9011 117.153 96.8807C117.353 96.858 117.498 96.8205 117.589 96.7682C117.682 96.7159 117.729 96.625 117.729 96.4955V96.4682C117.729 96.1318 117.637 95.8705 117.453 95.6841C117.271 95.4977 116.995 95.4045 116.624 95.4045C116.24 95.4045 115.939 95.4886 115.721 95.6568C115.503 95.825 115.349 96.0045 115.261 96.1955L114.497 95.9227C114.634 95.6045 114.815 95.3568 115.043 95.1795C115.272 95 115.522 94.875 115.793 94.8045C116.065 94.7318 116.334 94.6955 116.597 94.6955C116.765 94.6955 116.959 94.7159 117.177 94.7568C117.397 94.7955 117.61 94.8761 117.814 94.9989C118.021 95.1216 118.193 95.3068 118.329 95.5545C118.465 95.8023 118.534 96.1341 118.534 96.55V100H117.729V99.2909H117.688C117.634 99.4045 117.543 99.5261 117.415 99.6557C117.288 99.7852 117.119 99.8955 116.907 99.9864C116.696 100.077 116.438 100.123 116.134 100.123ZM116.256 99.4C116.574 99.4 116.843 99.3375 117.061 99.2125C117.281 99.0875 117.447 98.9261 117.559 98.7284C117.672 98.5307 117.729 98.3227 117.729 98.1045V97.3682C117.695 97.4091 117.62 97.4466 117.504 97.4807C117.39 97.5125 117.259 97.5409 117.109 97.5659C116.961 97.5886 116.816 97.6091 116.676 97.6273C116.537 97.6432 116.424 97.6568 116.338 97.6682C116.129 97.6955 115.934 97.7398 115.752 97.8011C115.572 97.8602 115.427 97.95 115.315 98.0705C115.206 98.1886 115.152 98.35 115.152 98.5545C115.152 98.8341 115.255 99.0455 115.462 99.1886C115.671 99.3295 115.936 99.4 116.256 99.4ZM120.807 96.85V100H120.002V94.7636H120.779V95.5818H120.847C120.97 95.3159 121.157 95.1023 121.407 94.9409C121.657 94.7773 121.979 94.6955 122.375 94.6955C122.729 94.6955 123.039 94.7682 123.305 94.9136C123.571 95.0568 123.778 95.275 123.926 95.5682C124.074 95.8591 124.147 96.2273 124.147 96.6727V100H123.343V96.7273C123.343 96.3159 123.236 95.9955 123.022 95.7659C122.809 95.5341 122.516 95.4182 122.143 95.4182C121.886 95.4182 121.657 95.4739 121.454 95.5852C121.254 95.6966 121.096 95.8591 120.98 96.0727C120.864 96.2864 120.807 96.5455 120.807 96.85ZM127.595 100.109C127.159 100.109 126.773 99.9989 126.439 99.7784C126.105 99.5557 125.844 99.242 125.655 98.8375C125.466 98.4307 125.372 97.95 125.372 97.3955C125.372 96.8455 125.466 96.3682 125.655 95.9636C125.844 95.5591 126.106 95.2466 126.443 95.0261C126.779 94.8057 127.168 94.6955 127.609 94.6955C127.949 94.6955 128.219 94.7523 128.416 94.8659C128.616 94.9773 128.769 95.1045 128.873 95.2477C128.98 95.3886 129.063 95.5045 129.122 95.5955H129.19V93.0182H129.995V100H129.218V99.1955H129.122C129.063 99.2909 128.979 99.4114 128.87 99.5568C128.761 99.7 128.605 99.8284 128.403 99.942C128.201 100.053 127.931 100.109 127.595 100.109ZM127.704 99.3864C128.027 99.3864 128.299 99.3023 128.522 99.1341C128.745 98.9636 128.914 98.7284 129.03 98.4284C129.146 98.1261 129.204 97.7773 129.204 97.3818C129.204 96.9909 129.147 96.6489 129.034 96.3557C128.92 96.0602 128.752 95.8307 128.529 95.667C128.306 95.5011 128.031 95.4182 127.704 95.4182C127.363 95.4182 127.079 95.5057 126.852 95.6807C126.627 95.8534 126.457 96.0886 126.344 96.3864C126.232 96.6818 126.177 97.0136 126.177 97.3818C126.177 97.7545 126.234 98.0932 126.347 98.3977C126.463 98.7 126.634 98.9409 126.859 99.1205C127.086 99.2977 127.368 99.3864 127.704 99.3864ZM137.989 95.9364L137.266 96.1409C137.221 96.0205 137.154 95.9034 137.065 95.7898C136.979 95.6739 136.861 95.5784 136.711 95.5034C136.561 95.4284 136.369 95.3909 136.135 95.3909C135.814 95.3909 135.547 95.4648 135.334 95.6125C135.122 95.758 135.016 95.9432 135.016 96.1682C135.016 96.3682 135.089 96.5261 135.235 96.642C135.38 96.758 135.607 96.8545 135.916 96.9318L136.694 97.1227C137.162 97.2364 137.511 97.4102 137.74 97.6443C137.97 97.8761 138.085 98.175 138.085 98.5409C138.085 98.8409 137.998 99.1091 137.826 99.3455C137.655 99.5818 137.416 99.7682 137.11 99.9045C136.803 100.041 136.446 100.109 136.039 100.109C135.505 100.109 135.063 99.9932 134.713 99.7614C134.363 99.5295 134.141 99.1909 134.048 98.7455L134.812 98.5545C134.885 98.8364 135.022 99.0477 135.224 99.1886C135.429 99.3295 135.696 99.4 136.026 99.4C136.401 99.4 136.698 99.3205 136.919 99.1614C137.141 99 137.253 98.8068 137.253 98.5818C137.253 98.4 137.189 98.2477 137.062 98.125C136.935 98 136.739 97.9068 136.476 97.8455L135.603 97.6409C135.123 97.5273 134.771 97.3511 134.546 97.1125C134.323 96.8716 134.212 96.5705 134.212 96.2091C134.212 95.9136 134.295 95.6523 134.461 95.425C134.629 95.1977 134.857 95.0193 135.146 94.8898C135.437 94.7602 135.766 94.6955 136.135 94.6955C136.653 94.6955 137.06 94.8091 137.355 95.0364C137.653 95.2636 137.864 95.5636 137.989 95.9364ZM141.491 100.109C140.987 100.109 140.551 99.9977 140.186 99.775C139.822 99.55 139.541 99.2364 139.343 98.8341C139.148 98.4295 139.05 97.9591 139.05 97.4227C139.05 96.8864 139.148 96.4136 139.343 96.0045C139.541 95.5932 139.816 95.2727 140.168 95.0432C140.523 94.8114 140.937 94.6955 141.409 94.6955C141.682 94.6955 141.951 94.7409 142.217 94.8318C142.483 94.9227 142.725 95.0705 142.943 95.275C143.162 95.4773 143.336 95.7455 143.465 96.0795C143.595 96.4136 143.659 96.825 143.659 97.3136V97.6545H139.623V96.9591H142.841C142.841 96.6636 142.782 96.4 142.664 96.1682C142.548 95.9364 142.382 95.7534 142.166 95.6193C141.953 95.4852 141.7 95.4182 141.409 95.4182C141.089 95.4182 140.812 95.4977 140.578 95.6568C140.346 95.8136 140.167 96.0182 140.042 96.2705C139.917 96.5227 139.855 96.7932 139.855 97.0818V97.5455C139.855 97.9409 139.923 98.2761 140.059 98.5511C140.198 98.8239 140.39 99.0318 140.636 99.175C140.881 99.3159 141.166 99.3864 141.491 99.3864C141.703 99.3864 141.893 99.3568 142.064 99.2977C142.237 99.2364 142.386 99.1455 142.511 99.025C142.636 98.9023 142.732 98.75 142.8 98.5682L143.578 98.7864C143.496 99.05 143.358 99.2818 143.165 99.4818C142.972 99.6795 142.733 99.8341 142.449 99.9455C142.165 100.055 141.846 100.109 141.491 100.109ZM147.011 100.109C146.52 100.109 146.097 99.9932 145.742 99.7614C145.388 99.5295 145.115 99.2102 144.924 98.8034C144.733 98.3966 144.638 97.9318 144.638 97.4091C144.638 96.8773 144.736 96.408 144.931 96.0011C145.129 95.592 145.404 95.2727 145.756 95.0432C146.111 94.8114 146.524 94.6955 146.997 94.6955C147.365 94.6955 147.697 94.7636 147.992 94.9C148.288 95.0364 148.53 95.2273 148.718 95.4727C148.907 95.7182 149.024 96.0045 149.07 96.3318H148.265C148.204 96.0932 148.067 95.8818 147.856 95.6977C147.647 95.5114 147.365 95.4182 147.011 95.4182C146.697 95.4182 146.422 95.5 146.186 95.6636C145.951 95.825 145.768 96.0534 145.637 96.3489C145.507 96.642 145.442 96.9864 145.442 97.3818C145.442 97.7864 145.506 98.1386 145.633 98.4386C145.763 98.7386 145.945 98.9716 146.179 99.1375C146.415 99.3034 146.692 99.3864 147.011 99.3864C147.22 99.3864 147.409 99.35 147.58 99.2773C147.75 99.2045 147.895 99.1 148.013 98.9636C148.131 98.8273 148.215 98.6636 148.265 98.4727H149.07C149.024 98.7818 148.912 99.0602 148.732 99.308C148.555 99.5534 148.32 99.7489 148.026 99.8943C147.736 100.038 147.397 100.109 147.011 100.109ZM153.546 97.8591V94.7636H154.35V100H153.546V99.1136H153.491C153.368 99.3795 153.178 99.6057 152.918 99.792C152.659 99.9761 152.332 100.068 151.937 100.068C151.609 100.068 151.318 99.9966 151.064 99.8534C150.809 99.708 150.609 99.4898 150.464 99.1989C150.318 98.9057 150.246 98.5364 150.246 98.0909V94.7636H151.05V98.0364C151.05 98.4182 151.157 98.7227 151.371 98.95C151.587 99.1773 151.862 99.2909 152.196 99.2909C152.396 99.2909 152.599 99.2398 152.806 99.1375C153.015 99.0352 153.19 98.8784 153.331 98.667C153.474 98.4557 153.546 98.1864 153.546 97.8591ZM155.824 100V94.7636H156.601V95.5545H156.656C156.751 95.2955 156.924 95.0852 157.174 94.9239C157.424 94.7625 157.706 94.6818 158.019 94.6818C158.078 94.6818 158.152 94.683 158.241 94.6852C158.33 94.6875 158.397 94.6909 158.442 94.6955V95.5136C158.415 95.5068 158.352 95.4966 158.255 95.483C158.159 95.467 158.058 95.4591 157.951 95.4591C157.697 95.4591 157.469 95.5125 157.269 95.6193C157.072 95.7239 156.915 95.8693 156.799 96.0557C156.685 96.2398 156.628 96.45 156.628 96.6864V100H155.824ZM161.432 100.109C160.927 100.109 160.492 99.9977 160.126 99.775C159.763 99.55 159.482 99.2364 159.284 98.8341C159.089 98.4295 158.991 97.9591 158.991 97.4227C158.991 96.8864 159.089 96.4136 159.284 96.0045C159.482 95.5932 159.757 95.2727 160.109 95.0432C160.464 94.8114 160.877 94.6955 161.35 94.6955C161.623 94.6955 161.892 94.7409 162.158 94.8318C162.424 94.9227 162.666 95.0705 162.884 95.275C163.102 95.4773 163.276 95.7455 163.406 96.0795C163.535 96.4136 163.6 96.825 163.6 97.3136V97.6545H159.564V96.9591H162.782C162.782 96.6636 162.723 96.4 162.605 96.1682C162.489 95.9364 162.323 95.7534 162.107 95.6193C161.893 95.4852 161.641 95.4182 161.35 95.4182C161.03 95.4182 160.752 95.4977 160.518 95.6568C160.286 95.8136 160.108 96.0182 159.983 96.2705C159.858 96.5227 159.795 96.7932 159.795 97.0818V97.5455C159.795 97.9409 159.864 98.2761 160 98.5511C160.139 98.8239 160.331 99.0318 160.576 99.175C160.822 99.3159 161.107 99.3864 161.432 99.3864C161.643 99.3864 161.834 99.3568 162.005 99.2977C162.177 99.2364 162.326 99.1455 162.451 99.025C162.576 98.9023 162.673 98.75 162.741 98.5682L163.518 98.7864C163.436 99.05 163.299 99.2818 163.106 99.4818C162.913 99.6795 162.674 99.8341 162.39 99.9455C162.106 100.055 161.786 100.109 161.432 100.109ZM167.919 100H167.033L169.597 93.0182H170.469L173.033 100H172.147L170.06 94.1227H170.006L167.919 100ZM168.247 97.2727H171.819V98.0227H168.247V97.2727ZM174.12 100V93.0182H176.48C177.027 93.0182 177.475 93.117 177.823 93.3148C178.173 93.5102 178.432 93.775 178.6 94.1091C178.768 94.4432 178.852 94.8159 178.852 95.2273C178.852 95.6386 178.768 96.0125 178.6 96.3489C178.434 96.6852 178.177 96.9534 177.83 97.1534C177.482 97.3511 177.036 97.45 176.493 97.45H174.802V96.7H176.466C176.841 96.7 177.142 96.6352 177.369 96.5057C177.597 96.3761 177.761 96.2011 177.864 95.9807C177.968 95.758 178.02 95.5068 178.02 95.2273C178.02 94.9477 177.968 94.6977 177.864 94.4773C177.761 94.2568 177.595 94.0841 177.366 93.9591C177.136 93.8318 176.832 93.7682 176.452 93.7682H174.966V100H174.12ZM181.06 93.0182V100H180.214V93.0182H181.06ZM187.459 102.073C187.071 102.073 186.737 102.023 186.457 101.923C186.178 101.825 185.945 101.695 185.758 101.534C185.574 101.375 185.428 101.205 185.318 101.023L185.959 100.573C186.032 100.668 186.124 100.777 186.236 100.9C186.347 101.025 186.499 101.133 186.692 101.224C186.888 101.317 187.143 101.364 187.459 101.364C187.882 101.364 188.231 101.261 188.506 101.057C188.781 100.852 188.918 100.532 188.918 100.095V99.0318H188.85C188.791 99.1273 188.707 99.2455 188.598 99.3864C188.491 99.525 188.337 99.6489 188.134 99.758C187.934 99.8648 187.664 99.9182 187.323 99.9182C186.9 99.9182 186.521 99.8182 186.184 99.6182C185.85 99.4182 185.586 99.1273 185.39 98.7455C185.197 98.3636 185.1 97.9 185.1 97.3545C185.1 96.8182 185.195 96.3511 185.383 95.9534C185.572 95.5534 185.834 95.2443 186.171 95.0261C186.507 94.8057 186.896 94.6955 187.337 94.6955C187.678 94.6955 187.948 94.7523 188.148 94.8659C188.35 94.9773 188.505 95.1045 188.612 95.2477C188.721 95.3886 188.805 95.5045 188.864 95.5955H188.946V94.7636H189.723V100.15C189.723 100.6 189.621 100.966 189.416 101.248C189.214 101.532 188.941 101.74 188.598 101.872C188.257 102.006 187.878 102.073 187.459 102.073ZM187.432 99.1955C187.755 99.1955 188.028 99.1216 188.25 98.9739C188.473 98.8261 188.642 98.6136 188.758 98.3364C188.874 98.0591 188.932 97.7273 188.932 97.3409C188.932 96.9636 188.875 96.6307 188.762 96.342C188.648 96.0534 188.48 95.8273 188.257 95.6636C188.034 95.5 187.759 95.4182 187.432 95.4182C187.091 95.4182 186.807 95.5045 186.58 95.6773C186.355 95.85 186.186 96.0818 186.072 96.3727C185.961 96.6636 185.905 96.9864 185.905 97.3409C185.905 97.7045 185.962 98.0261 186.075 98.3057C186.191 98.583 186.362 98.8011 186.587 98.9602C186.814 99.117 187.096 99.1955 187.432 99.1955ZM192.737 100.123C192.405 100.123 192.104 100.06 191.833 99.9352C191.563 99.808 191.348 99.625 191.189 99.3864C191.03 99.1455 190.95 98.8545 190.95 98.5136C190.95 98.2136 191.009 97.9705 191.128 97.7841C191.246 97.5955 191.404 97.4477 191.601 97.3409C191.799 97.2341 192.017 97.1545 192.256 97.1023C192.497 97.0477 192.739 97.0045 192.982 96.9727C193.3 96.9318 193.558 96.9011 193.756 96.8807C193.956 96.858 194.101 96.8205 194.192 96.7682C194.286 96.7159 194.332 96.625 194.332 96.4955V96.4682C194.332 96.1318 194.24 95.8705 194.056 95.6841C193.874 95.4977 193.598 95.4045 193.228 95.4045C192.843 95.4045 192.542 95.4886 192.324 95.6568C192.106 95.825 191.953 96.0045 191.864 96.1955L191.1 95.9227C191.237 95.6045 191.418 95.3568 191.646 95.1795C191.875 95 192.125 94.875 192.396 94.8045C192.668 94.7318 192.937 94.6955 193.2 94.6955C193.368 94.6955 193.562 94.7159 193.78 94.7568C194 94.7955 194.213 94.8761 194.417 94.9989C194.624 95.1216 194.796 95.3068 194.932 95.5545C195.068 95.8023 195.137 96.1341 195.137 96.55V100H194.332V99.2909H194.291C194.237 99.4045 194.146 99.5261 194.018 99.6557C193.891 99.7852 193.722 99.8955 193.511 99.9864C193.299 100.077 193.041 100.123 192.737 100.123ZM192.859 99.4C193.178 99.4 193.446 99.3375 193.664 99.2125C193.884 99.0875 194.05 98.9261 194.162 98.7284C194.275 98.5307 194.332 98.3227 194.332 98.1045V97.3682C194.298 97.4091 194.223 97.4466 194.107 97.4807C193.993 97.5125 193.862 97.5409 193.712 97.5659C193.564 97.5886 193.42 97.6091 193.279 97.6273C193.14 97.6432 193.028 97.6568 192.941 97.6682C192.732 97.6955 192.537 97.7398 192.355 97.8011C192.175 97.8602 192.03 97.95 191.918 98.0705C191.809 98.1886 191.755 98.35 191.755 98.5545C191.755 98.8341 191.858 99.0455 192.065 99.1886C192.274 99.3295 192.539 99.4 192.859 99.4ZM198.882 94.7636V95.4455H196.169V94.7636H198.882ZM196.96 93.5091H197.764V98.5C197.764 98.7273 197.797 98.8977 197.863 99.0114C197.931 99.1227 198.018 99.1977 198.122 99.2364C198.229 99.2727 198.341 99.2909 198.46 99.2909C198.548 99.2909 198.621 99.2864 198.678 99.2773C198.735 99.2659 198.78 99.2568 198.814 99.25L198.978 99.9727C198.923 99.9932 198.847 100.014 198.749 100.034C198.652 100.057 198.528 100.068 198.378 100.068C198.151 100.068 197.928 100.019 197.71 99.9216C197.494 99.8239 197.314 99.675 197.171 99.475C197.03 99.275 196.96 99.0227 196.96 98.7182V93.5091ZM202.232 100.109C201.727 100.109 201.292 99.9977 200.926 99.775C200.563 99.55 200.282 99.2364 200.084 98.8341C199.889 98.4295 199.791 97.9591 199.791 97.4227C199.791 96.8864 199.889 96.4136 200.084 96.0045C200.282 95.5932 200.557 95.2727 200.909 95.0432C201.264 94.8114 201.677 94.6955 202.15 94.6955C202.423 94.6955 202.692 94.7409 202.958 94.8318C203.224 94.9227 203.466 95.0705 203.684 95.275C203.902 95.4773 204.076 95.7455 204.206 96.0795C204.335 96.4136 204.4 96.825 204.4 97.3136V97.6545H200.364V96.9591H203.582C203.582 96.6636 203.523 96.4 203.405 96.1682C203.289 95.9364 203.123 95.7534 202.907 95.6193C202.693 95.4852 202.441 95.4182 202.15 95.4182C201.83 95.4182 201.552 95.4977 201.318 95.6568C201.086 95.8136 200.908 96.0182 200.783 96.2705C200.658 96.5227 200.595 96.7932 200.595 97.0818V97.5455C200.595 97.9409 200.664 98.2761 200.8 98.5511C200.939 98.8239 201.131 99.0318 201.376 99.175C201.622 99.3159 201.907 99.3864 202.232 99.3864C202.443 99.3864 202.634 99.3568 202.805 99.2977C202.977 99.2364 203.126 99.1455 203.251 99.025C203.376 98.9023 203.473 98.75 203.541 98.5682L204.318 98.7864C204.236 99.05 204.099 99.2818 203.906 99.4818C203.713 99.6795 203.474 99.8341 203.19 99.9455C202.906 100.055 202.586 100.109 202.232 100.109ZM206.81 100L205.215 94.7636H206.06L207.192 98.7727H207.247L208.365 94.7636H209.224L210.328 98.7591H210.383L211.515 94.7636H212.36L210.765 100H209.974L208.828 95.9773H208.747L207.601 100H206.81ZM214.965 100.123C214.633 100.123 214.332 100.06 214.061 99.9352C213.791 99.808 213.576 99.625 213.417 99.3864C213.258 99.1455 213.178 98.8545 213.178 98.5136C213.178 98.2136 213.238 97.9705 213.356 97.7841C213.474 97.5955 213.632 97.4477 213.83 97.3409C214.027 97.2341 214.245 97.1545 214.484 97.1023C214.725 97.0477 214.967 97.0045 215.21 96.9727C215.528 96.9318 215.786 96.9011 215.984 96.8807C216.184 96.858 216.33 96.8205 216.42 96.7682C216.514 96.7159 216.56 96.625 216.56 96.4955V96.4682C216.56 96.1318 216.468 95.8705 216.284 95.6841C216.102 95.4977 215.826 95.4045 215.456 95.4045C215.072 95.4045 214.77 95.4886 214.552 95.6568C214.334 95.825 214.181 96.0045 214.092 96.1955L213.328 95.9227C213.465 95.6045 213.647 95.3568 213.874 95.1795C214.103 95 214.353 94.875 214.624 94.8045C214.897 94.7318 215.165 94.6955 215.428 94.6955C215.597 94.6955 215.79 94.7159 216.008 94.7568C216.228 94.7955 216.441 94.8761 216.645 94.9989C216.852 95.1216 217.024 95.3068 217.16 95.5545C217.297 95.8023 217.365 96.1341 217.365 96.55V100H216.56V99.2909H216.519C216.465 99.4045 216.374 99.5261 216.247 99.6557C216.119 99.7852 215.95 99.8955 215.739 99.9864C215.527 100.077 215.269 100.123 214.965 100.123ZM215.088 99.4C215.406 99.4 215.674 99.3375 215.892 99.2125C216.113 99.0875 216.278 98.9261 216.39 98.7284C216.503 98.5307 216.56 98.3227 216.56 98.1045V97.3682C216.526 97.4091 216.451 97.4466 216.335 97.4807C216.222 97.5125 216.09 97.5409 215.94 97.5659C215.792 97.5886 215.648 97.6091 215.507 97.6273C215.368 97.6432 215.256 97.6568 215.169 97.6682C214.96 97.6955 214.765 97.7398 214.583 97.8011C214.403 97.8602 214.258 97.95 214.147 98.0705C214.038 98.1886 213.983 98.35 213.983 98.5545C213.983 98.8341 214.086 99.0455 214.293 99.1886C214.502 99.3295 214.767 99.4 215.088 99.4ZM219.164 101.964C219.028 101.964 218.906 101.952 218.799 101.93C218.692 101.909 218.618 101.889 218.578 101.868L218.782 101.159C218.978 101.209 219.15 101.227 219.3 101.214C219.45 101.2 219.583 101.133 219.699 101.013C219.817 100.894 219.925 100.702 220.023 100.436L220.173 100.027L218.237 94.7636H219.109L220.555 98.9364H220.609L222.055 94.7636H222.928L220.705 100.764C220.605 101.034 220.481 101.258 220.333 101.435C220.186 101.615 220.014 101.748 219.818 101.834C219.625 101.92 219.407 101.964 219.164 101.964ZM229.021 94.7636V95.4455H226.199V94.7636H229.021ZM227.044 100V94.0409C227.044 93.7409 227.114 93.4909 227.255 93.2909C227.396 93.0909 227.579 92.9409 227.804 92.8409C228.029 92.7409 228.267 92.6909 228.517 92.6909C228.714 92.6909 228.876 92.7068 229.001 92.7386C229.126 92.7705 229.219 92.8 229.28 92.8273L229.049 93.5227C229.008 93.5091 228.951 93.492 228.878 93.4716C228.808 93.4511 228.714 93.4409 228.599 93.4409C228.333 93.4409 228.141 93.508 228.022 93.642C227.907 93.7761 227.849 93.9727 227.849 94.2318V100H227.044ZM232.061 100.109C231.588 100.109 231.173 99.9966 230.816 99.7716C230.462 99.5466 230.184 99.2318 229.984 98.8273C229.787 98.4227 229.688 97.95 229.688 97.4091C229.688 96.8636 229.787 96.3875 229.984 95.9807C230.184 95.5739 230.462 95.258 230.816 95.033C231.173 94.808 231.588 94.6955 232.061 94.6955C232.533 94.6955 232.947 94.808 233.301 95.033C233.658 95.258 233.936 95.5739 234.133 95.9807C234.333 96.3875 234.433 96.8636 234.433 97.4091C234.433 97.95 234.333 98.4227 234.133 98.8273C233.936 99.2318 233.658 99.5466 233.301 99.7716C232.947 99.9966 232.533 100.109 232.061 100.109ZM232.061 99.3864C232.42 99.3864 232.715 99.2943 232.947 99.1102C233.179 98.9261 233.35 98.6841 233.462 98.3841C233.573 98.0841 233.629 97.7591 233.629 97.4091C233.629 97.0591 233.573 96.733 233.462 96.4307C233.35 96.1284 233.179 95.8841 232.947 95.6977C232.715 95.5114 232.42 95.4182 232.061 95.4182C231.701 95.4182 231.406 95.5114 231.174 95.6977C230.942 95.8841 230.771 96.1284 230.659 96.4307C230.548 96.733 230.492 97.0591 230.492 97.4091C230.492 97.7591 230.548 98.0841 230.659 98.3841C230.771 98.6841 230.942 98.9261 231.174 99.1102C231.406 99.2943 231.701 99.3864 232.061 99.3864ZM235.661 100V94.7636H236.439V95.5545H236.493C236.589 95.2955 236.761 95.0852 237.011 94.9239C237.261 94.7625 237.543 94.6818 237.857 94.6818C237.916 94.6818 237.99 94.683 238.078 94.6852C238.167 94.6875 238.234 94.6909 238.28 94.6955V95.5136C238.252 95.5068 238.19 95.4966 238.092 95.483C237.997 95.467 237.895 95.4591 237.789 95.4591C237.534 95.4591 237.307 95.5125 237.107 95.6193C236.909 95.7239 236.752 95.8693 236.636 96.0557C236.523 96.2398 236.466 96.45 236.466 96.6864V100H235.661ZM244.211 94.7636V95.4455H241.497V94.7636H244.211ZM242.288 93.5091H243.092V98.5C243.092 98.7273 243.125 98.8977 243.191 99.0114C243.259 99.1227 243.346 99.1977 243.45 99.2364C243.557 99.2727 243.67 99.2909 243.788 99.2909C243.876 99.2909 243.949 99.2864 244.006 99.2773C244.063 99.2659 244.108 99.2568 244.142 99.25L244.306 99.9727C244.251 99.9932 244.175 100.014 244.078 100.034C243.98 100.057 243.856 100.068 243.706 100.068C243.479 100.068 243.256 100.019 243.038 99.9216C242.822 99.8239 242.642 99.675 242.499 99.475C242.358 99.275 242.288 99.0227 242.288 98.7182V93.5091ZM246.338 96.85V100H245.533V93.0182H246.338V95.5818H246.406C246.529 95.3114 246.713 95.0966 246.958 94.9375C247.206 94.7761 247.536 94.6955 247.947 94.6955C248.304 94.6955 248.616 94.767 248.884 94.9102C249.153 95.0511 249.361 95.2682 249.508 95.5614C249.658 95.8523 249.733 96.2227 249.733 96.6727V100H248.929V96.7273C248.929 96.3114 248.821 95.9898 248.605 95.7625C248.391 95.533 248.095 95.4182 247.715 95.4182C247.451 95.4182 247.215 95.4739 247.006 95.5852C246.799 95.6966 246.636 95.8591 246.515 96.0727C246.397 96.2864 246.338 96.5455 246.338 96.85ZM253.401 100.109C252.896 100.109 252.461 99.9977 252.095 99.775C251.731 99.55 251.451 99.2364 251.253 98.8341C251.057 98.4295 250.96 97.9591 250.96 97.4227C250.96 96.8864 251.057 96.4136 251.253 96.0045C251.451 95.5932 251.726 95.2727 252.078 95.0432C252.432 94.8114 252.846 94.6955 253.319 94.6955C253.591 94.6955 253.861 94.7409 254.127 94.8318C254.393 94.9227 254.635 95.0705 254.853 95.275C255.071 95.4773 255.245 95.7455 255.374 96.0795C255.504 96.4136 255.569 96.825 255.569 97.3136V97.6545H251.532V96.9591H254.751C254.751 96.6636 254.691 96.4 254.573 96.1682C254.457 95.9364 254.291 95.7534 254.076 95.6193C253.862 95.4852 253.61 95.4182 253.319 95.4182C252.998 95.4182 252.721 95.4977 252.487 95.6568C252.255 95.8136 252.077 96.0182 251.952 96.2705C251.827 96.5227 251.764 96.7932 251.764 97.0818V97.5455C251.764 97.9409 251.832 98.2761 251.969 98.5511C252.107 98.8239 252.299 99.0318 252.545 99.175C252.79 99.3159 253.076 99.3864 253.401 99.3864C253.612 99.3864 253.803 99.3568 253.973 99.2977C254.146 99.2364 254.295 99.1455 254.42 99.025C254.545 98.9023 254.641 98.75 254.71 98.5682L255.487 98.7864C255.405 99.05 255.268 99.2818 255.074 99.4818C254.881 99.6795 254.643 99.8341 254.359 99.9455C254.074 100.055 253.755 100.109 253.401 100.109ZM63.85 121.073C63.4614 121.073 63.1273 121.023 62.8477 120.923C62.5682 120.825 62.3352 120.695 62.1489 120.534C61.9648 120.375 61.8182 120.205 61.7091 120.023L62.35 119.573C62.4227 119.668 62.5148 119.777 62.6261 119.9C62.7375 120.025 62.8898 120.133 63.083 120.224C63.2784 120.317 63.5341 120.364 63.85 120.364C64.2727 120.364 64.6216 120.261 64.8966 120.057C65.1716 119.852 65.3091 119.532 65.3091 119.095V118.032H65.2409C65.1818 118.127 65.0977 118.245 64.9886 118.386C64.8818 118.525 64.7273 118.649 64.525 118.758C64.325 118.865 64.0545 118.918 63.7136 118.918C63.2909 118.918 62.9114 118.818 62.575 118.618C62.2409 118.418 61.9761 118.127 61.7807 117.745C61.5875 117.364 61.4909 116.9 61.4909 116.355C61.4909 115.818 61.5852 115.351 61.7739 114.953C61.9625 114.553 62.225 114.244 62.5614 114.026C62.8977 113.806 63.2864 113.695 63.7273 113.695C64.0682 113.695 64.3386 113.752 64.5386 113.866C64.7409 113.977 64.8955 114.105 65.0023 114.248C65.1114 114.389 65.1955 114.505 65.2545 114.595H65.3364V113.764H66.1136V119.15C66.1136 119.6 66.0114 119.966 65.8068 120.248C65.6045 120.532 65.3318 120.74 64.9886 120.872C64.6477 121.006 64.2682 121.073 63.85 121.073ZM63.8227 118.195C64.1455 118.195 64.4182 118.122 64.6409 117.974C64.8636 117.826 65.033 117.614 65.1489 117.336C65.2648 117.059 65.3227 116.727 65.3227 116.341C65.3227 115.964 65.2659 115.631 65.1523 115.342C65.0386 115.053 64.8705 114.827 64.6477 114.664C64.425 114.5 64.15 114.418 63.8227 114.418C63.4818 114.418 63.1977 114.505 62.9705 114.677C62.7455 114.85 62.5761 115.082 62.4625 115.373C62.3511 115.664 62.2955 115.986 62.2955 116.341C62.2955 116.705 62.3523 117.026 62.4659 117.306C62.5818 117.583 62.7523 117.801 62.9773 117.96C63.2045 118.117 63.4864 118.195 63.8227 118.195ZM69.7136 119.109C69.2409 119.109 68.8261 118.997 68.4693 118.772C68.1148 118.547 67.8375 118.232 67.6375 117.827C67.4398 117.423 67.3409 116.95 67.3409 116.409C67.3409 115.864 67.4398 115.387 67.6375 114.981C67.8375 114.574 68.1148 114.258 68.4693 114.033C68.8261 113.808 69.2409 113.695 69.7136 113.695C70.1864 113.695 70.6 113.808 70.9545 114.033C71.3114 114.258 71.5886 114.574 71.7864 114.981C71.9864 115.387 72.0864 115.864 72.0864 116.409C72.0864 116.95 71.9864 117.423 71.7864 117.827C71.5886 118.232 71.3114 118.547 70.9545 118.772C70.6 118.997 70.1864 119.109 69.7136 119.109ZM69.7136 118.386C70.0727 118.386 70.3682 118.294 70.6 118.11C70.8318 117.926 71.0034 117.684 71.1148 117.384C71.2261 117.084 71.2818 116.759 71.2818 116.409C71.2818 116.059 71.2261 115.733 71.1148 115.431C71.0034 115.128 70.8318 114.884 70.6 114.698C70.3682 114.511 70.0727 114.418 69.7136 114.418C69.3545 114.418 69.0591 114.511 68.8273 114.698C68.5955 114.884 68.4239 115.128 68.3125 115.431C68.2011 115.733 68.1455 116.059 68.1455 116.409C68.1455 116.759 68.2011 117.084 68.3125 117.384C68.4239 117.684 68.5955 117.926 68.8273 118.11C69.0591 118.294 69.3545 118.386 69.7136 118.386ZM77.4088 113.764L75.4724 119H74.6543L72.7179 113.764H73.5906L75.0361 117.936H75.0906L76.5361 113.764H77.4088ZM80.4787 119.109C79.9741 119.109 79.5389 118.998 79.173 118.775C78.8094 118.55 78.5287 118.236 78.331 117.834C78.1355 117.43 78.0378 116.959 78.0378 116.423C78.0378 115.886 78.1355 115.414 78.331 115.005C78.5287 114.593 78.8037 114.273 79.156 114.043C79.5105 113.811 79.9241 113.695 80.3969 113.695C80.6696 113.695 80.9389 113.741 81.2048 113.832C81.4707 113.923 81.7128 114.07 81.931 114.275C82.1491 114.477 82.323 114.745 82.4526 115.08C82.5821 115.414 82.6469 115.825 82.6469 116.314V116.655H78.6105V115.959H81.8287C81.8287 115.664 81.7696 115.4 81.6514 115.168C81.5355 114.936 81.3696 114.753 81.1537 114.619C80.9401 114.485 80.6878 114.418 80.3969 114.418C80.0764 114.418 79.7991 114.498 79.5651 114.657C79.3332 114.814 79.1548 115.018 79.0298 115.27C78.9048 115.523 78.8423 115.793 78.8423 116.082V116.545C78.8423 116.941 78.9105 117.276 79.0469 117.551C79.1855 117.824 79.3776 118.032 79.623 118.175C79.8685 118.316 80.1537 118.386 80.4787 118.386C80.6901 118.386 80.881 118.357 81.0514 118.298C81.2241 118.236 81.373 118.145 81.498 118.025C81.623 117.902 81.7196 117.75 81.7878 117.568L82.5651 117.786C82.4832 118.05 82.3457 118.282 82.1526 118.482C81.9594 118.68 81.7207 118.834 81.4366 118.945C81.1526 119.055 80.8332 119.109 80.4787 119.109ZM83.8707 119V113.764H84.648V114.555H84.7026C84.798 114.295 84.9707 114.085 85.2207 113.924C85.4707 113.762 85.7526 113.682 86.0662 113.682C86.1253 113.682 86.1991 113.683 86.2878 113.685C86.3764 113.687 86.4435 113.691 86.4889 113.695V114.514C86.4616 114.507 86.3991 114.497 86.3014 114.483C86.206 114.467 86.1048 114.459 85.998 114.459C85.7435 114.459 85.5162 114.512 85.3162 114.619C85.1185 114.724 84.9616 114.869 84.8457 115.056C84.7321 115.24 84.6753 115.45 84.6753 115.686V119H83.8707ZM88.2472 115.85V119H87.4426V113.764H88.2199V114.582H88.2881C88.4108 114.316 88.5972 114.102 88.8472 113.941C89.0972 113.777 89.4199 113.695 89.8153 113.695C90.1699 113.695 90.4801 113.768 90.746 113.914C91.0119 114.057 91.2188 114.275 91.3665 114.568C91.5142 114.859 91.5881 115.227 91.5881 115.673V119H90.7835V115.727C90.7835 115.316 90.6767 114.995 90.4631 114.766C90.2494 114.534 89.9563 114.418 89.5835 114.418C89.3267 114.418 89.0972 114.474 88.8949 114.585C88.6949 114.697 88.5369 114.859 88.421 115.073C88.3051 115.286 88.2472 115.545 88.2472 115.85ZM93.0582 119V113.764H93.8355V114.582H93.9037C94.0128 114.302 94.1889 114.085 94.4321 113.931C94.6753 113.774 94.9673 113.695 95.3082 113.695C95.6537 113.695 95.9412 113.774 96.1707 113.931C96.4026 114.085 96.5832 114.302 96.7128 114.582H96.7673C96.9014 114.311 97.1026 114.097 97.3707 113.937C97.6389 113.776 97.9605 113.695 98.3355 113.695C98.8037 113.695 99.1866 113.842 99.4844 114.135C99.7821 114.426 99.931 114.88 99.931 115.495V119H99.1264V115.495C99.1264 115.109 99.0207 114.833 98.8094 114.667C98.598 114.501 98.3491 114.418 98.0628 114.418C97.6946 114.418 97.4094 114.53 97.2071 114.752C97.0048 114.973 96.9037 115.252 96.9037 115.591V119H96.0855V115.414C96.0855 115.116 95.9889 114.876 95.7957 114.694C95.6026 114.51 95.3537 114.418 95.0491 114.418C94.8401 114.418 94.6446 114.474 94.4628 114.585C94.2832 114.697 94.1378 114.851 94.0264 115.049C93.9173 115.244 93.8628 115.47 93.8628 115.727V119H93.0582ZM103.597 119.109C103.093 119.109 102.658 118.998 102.292 118.775C101.928 118.55 101.647 118.236 101.45 117.834C101.254 117.43 101.157 116.959 101.157 116.423C101.157 115.886 101.254 115.414 101.45 115.005C101.647 114.593 101.922 114.273 102.275 114.043C102.629 113.811 103.043 113.695 103.516 113.695C103.788 113.695 104.058 113.741 104.324 113.832C104.589 113.923 104.832 114.07 105.05 114.275C105.268 114.477 105.442 114.745 105.571 115.08C105.701 115.414 105.766 115.825 105.766 116.314V116.655H101.729V115.959H104.947C104.947 115.664 104.888 115.4 104.77 115.168C104.654 114.936 104.488 114.753 104.272 114.619C104.059 114.485 103.807 114.418 103.516 114.418C103.195 114.418 102.918 114.498 102.684 114.657C102.452 114.814 102.274 115.018 102.149 115.27C102.024 115.523 101.961 115.793 101.961 116.082V116.545C101.961 116.941 102.029 117.276 102.166 117.551C102.304 117.824 102.496 118.032 102.742 118.175C102.987 118.316 103.272 118.386 103.597 118.386C103.809 118.386 104 118.357 104.17 118.298C104.343 118.236 104.492 118.145 104.617 118.025C104.742 117.902 104.838 117.75 104.907 117.568L105.684 117.786C105.602 118.05 105.464 118.282 105.271 118.482C105.078 118.68 104.839 118.834 104.555 118.945C104.271 119.055 103.952 119.109 103.597 119.109ZM107.794 115.85V119H106.989V113.764H107.767V114.582H107.835C107.958 114.316 108.144 114.102 108.394 113.941C108.644 113.777 108.967 113.695 109.362 113.695C109.717 113.695 110.027 113.768 110.293 113.914C110.559 114.057 110.766 114.275 110.913 114.568C111.061 114.859 111.135 115.227 111.135 115.673V119H110.33V115.727C110.33 115.316 110.224 114.995 110.01 114.766C109.796 114.534 109.503 114.418 109.13 114.418C108.874 114.418 108.644 114.474 108.442 114.585C108.242 114.697 108.084 114.859 107.968 115.073C107.852 115.286 107.794 115.545 107.794 115.85ZM114.882 113.764V114.445H112.169V113.764H114.882ZM112.96 112.509H113.764V117.5C113.764 117.727 113.797 117.898 113.863 118.011C113.931 118.123 114.018 118.198 114.122 118.236C114.229 118.273 114.341 118.291 114.46 118.291C114.548 118.291 114.621 118.286 114.678 118.277C114.735 118.266 114.78 118.257 114.814 118.25L114.978 118.973C114.923 118.993 114.847 119.014 114.749 119.034C114.652 119.057 114.528 119.068 114.378 119.068C114.151 119.068 113.928 119.019 113.71 118.922C113.494 118.824 113.314 118.675 113.171 118.475C113.03 118.275 112.96 118.023 112.96 117.718V112.509Z" fill="#344054"/>
<path d="M49.0001 0.6H291.4V-0.6H49.0001V0.6ZM293.2 2.4V138H294.4V2.4H293.2ZM291.4 139.8H49.0001V141H291.4V139.8ZM47.2001 138V2.39999H46.0001V138H47.2001ZM49.0001 139.8C48.006 139.8 47.2001 138.994 47.2001 138H46.0001C46.0001 139.657 47.3432 141 49.0001 141V139.8ZM293.2 138C293.2 138.994 292.394 139.8 291.4 139.8V141C293.057 141 294.4 139.657 294.4 138H293.2ZM291.4 0.6C292.394 0.6 293.2 1.40588 293.2 2.4H294.4C294.4 0.743149 293.057 -0.6 291.4 -0.6V0.6ZM49.0001 -0.6C47.3432 -0.6 46.0001 0.743135 46.0001 2.39999H47.2001C47.2001 1.40588 48.006 0.6 49.0001 0.6V-0.6Z" fill="#98A2B3"/>
<circle cx="12" cy="22" r="12" fill="#344054"/>
<path d="M12.1932 28.1591C11.3902 28.1591 10.6742 28.0114 10.0455 27.7159C9.42045 27.4205 8.92424 27.0133 8.55682 26.4943C8.18939 25.9754 7.99811 25.3807 7.98295 24.7102H10.3693C10.3958 25.161 10.5852 25.5265 10.9375 25.8068C11.2898 26.0871 11.7083 26.2273 12.1932 26.2273C12.5795 26.2273 12.9205 26.142 13.2159 25.9716C13.5152 25.7973 13.7481 25.5568 13.9148 25.25C14.0852 24.9394 14.1705 24.5833 14.1705 24.1818C14.1705 23.7727 14.0833 23.4129 13.9091 23.1023C13.7386 22.7917 13.5019 22.5492 13.1989 22.375C12.8958 22.2008 12.5492 22.1117 12.1591 22.108C11.8182 22.108 11.4867 22.178 11.1648 22.3182C10.8466 22.4583 10.5985 22.6496 10.4205 22.892L8.23295 22.5L8.78409 16.3636H15.8977V18.375H10.8125L10.5114 21.2898H10.5795C10.7841 21.0019 11.0928 20.7633 11.5057 20.5739C11.9186 20.3845 12.3807 20.2898 12.892 20.2898C13.5928 20.2898 14.2178 20.4545 14.767 20.7841C15.3163 21.1136 15.75 21.5663 16.0682 22.142C16.3864 22.714 16.5436 23.3731 16.5398 24.1193C16.5436 24.9034 16.3617 25.6004 15.9943 26.2102C15.6307 26.8163 15.1212 27.2936 14.4659 27.642C13.8144 27.9867 13.0568 28.1591 12.1932 28.1591Z" fill="white"/>
<path d="M21 22H54" stroke="#344054" stroke-dasharray="2 2"/>
<circle cx="324" cy="22" r="12" fill="#344054"/>
<path d="M324.409 28.1591C323.811 28.1553 323.233 28.0549 322.676 27.858C322.123 27.661 321.627 27.3409 321.188 26.8977C320.748 26.4545 320.4 25.8674 320.142 25.1364C319.888 24.4053 319.761 23.5076 319.761 22.4432C319.765 21.4659 319.877 20.5928 320.097 19.8239C320.32 19.0511 320.638 18.3958 321.051 17.858C321.468 17.3201 321.966 16.911 322.545 16.6307C323.125 16.3466 323.775 16.2045 324.494 16.2045C325.271 16.2045 325.956 16.3561 326.551 16.6591C327.146 16.9583 327.623 17.3655 327.983 17.8807C328.347 18.3958 328.566 18.9735 328.642 19.6136H326.216C326.121 19.2083 325.922 18.8902 325.619 18.6591C325.316 18.428 324.941 18.3125 324.494 18.3125C323.737 18.3125 323.161 18.642 322.767 19.3011C322.377 19.9602 322.178 20.8561 322.17 21.9886H322.25C322.424 21.6439 322.659 21.3504 322.955 21.108C323.254 20.8617 323.593 20.6742 323.972 20.5455C324.354 20.4129 324.758 20.3466 325.182 20.3466C325.871 20.3466 326.485 20.5095 327.023 20.8352C327.561 21.1572 327.985 21.6004 328.295 22.1648C328.606 22.7292 328.761 23.375 328.761 24.1023C328.761 24.8902 328.578 25.5909 328.21 26.2045C327.847 26.8182 327.337 27.2992 326.682 27.6477C326.03 27.9924 325.273 28.1629 324.409 28.1591ZM324.398 26.2273C324.777 26.2273 325.116 26.1364 325.415 25.9545C325.714 25.7727 325.949 25.5265 326.119 25.2159C326.29 24.9053 326.375 24.5568 326.375 24.1705C326.375 23.7841 326.29 23.4375 326.119 23.1307C325.953 22.8239 325.722 22.5795 325.426 22.3977C325.131 22.2159 324.794 22.125 324.415 22.125C324.131 22.125 323.867 22.178 323.625 22.2841C323.386 22.3902 323.176 22.5379 322.994 22.7273C322.816 22.9167 322.676 23.1364 322.574 23.3864C322.472 23.6326 322.42 23.8958 322.42 24.1761C322.42 24.5511 322.506 24.8939 322.676 25.2045C322.85 25.5152 323.085 25.7633 323.381 25.9489C323.68 26.1345 324.019 26.2273 324.398 26.2273Z" fill="white"/>
<path d="M279 22H312" stroke="#344054" stroke-dasharray="2 2"/>
<defs>
<clipPath id="clip0_4529_44674">
<rect width="14.4" height="14.4" fill="white" transform="translate(61 14.4)"/>
</clipPath>
</defs>
</svg>
