<svg width="289" height="168" viewBox="0 0 289 168" fill="none" xmlns="http://www.w3.org/2000/svg">
<path d="M0.450104 2.99986C0.450104 1.45347 1.70371 0.19986 3.2501 0.19986H286.05C287.597 0.19986 288.85 1.45346 288.85 2.99986V164.4C288.85 165.946 287.596 167.2 286.05 167.2H3.25009C1.7037 167.2 0.450104 165.946 0.450104 164.4V2.99986Z" fill="white"/>
<path d="M25.6501 35.8499C23.7008 35.8499 21.8312 35.0755 20.4529 33.6971C19.0745 32.3187 18.3001 30.4492 18.3001 28.4999C18.3001 26.5505 19.0745 24.681 20.4529 23.3026C21.8312 21.9242 23.7008 21.1499 25.6501 21.1499C27.5994 21.1499 29.4689 21.9242 30.8473 23.3026C32.2257 24.681 33.0001 26.5505 33.0001 28.4999C33.0001 30.4492 32.2257 32.3187 30.8473 33.6971C29.4689 35.0755 27.5994 35.8499 25.6501 35.8499ZM25.6501 36.8999C27.8779 36.8999 30.0145 36.0149 31.5898 34.4396C33.1651 32.8643 34.0501 30.7277 34.0501 28.4999C34.0501 26.272 33.1651 24.1355 31.5898 22.5602C30.0145 20.9849 27.8779 20.0999 25.6501 20.0999C23.4223 20.0999 21.2857 20.9849 19.7104 22.5602C18.1351 24.1355 17.2501 26.272 17.2501 28.4999C17.2501 30.7277 18.1351 32.8643 19.7104 34.4396C21.2857 36.0149 23.4223 36.8999 25.6501 36.8999V36.8999Z" fill="#344054"/>
<path fill-rule="evenodd" clip-rule="evenodd" d="M20.8694 23.9261C18.3642 26.5094 18.3883 30.6346 20.9419 33.1882C23.4955 35.7418 27.6207 35.766 30.204 33.2607L20.8694 23.9261Z" fill="#344054"/>
<path d="M45.8467 23.9115V21.7817H55.8813V23.9115H52.1407V33.9999H49.5873V23.9115H45.8467ZM57.4862 33.9999V24.8362H60.0276V33.9999H57.4862ZM58.7629 23.655C58.385 23.655 58.0609 23.5297 57.7904 23.2791C57.524 23.0246 57.3907 22.7203 57.3907 22.3663C57.3907 22.0163 57.524 21.7161 57.7904 21.4655C58.0609 21.2109 58.385 21.0837 58.7629 21.0837C59.1407 21.0837 59.4629 21.2109 59.7294 21.4655C59.9998 21.7161 60.135 22.0163 60.135 22.3663C60.135 22.7203 59.9998 23.0246 59.7294 23.2791C59.4629 23.5297 59.1407 23.655 58.7629 23.655ZM66.9377 24.8362V26.7453H61.4192V24.8362H66.9377ZM62.672 22.6408H65.2135V31.184C65.2135 31.4186 65.2493 31.6016 65.3209 31.7328C65.3925 31.8601 65.4919 31.9496 65.6192 32.0013C65.7504 32.053 65.9016 32.0788 66.0726 32.0788C66.1919 32.0788 66.3112 32.0689 66.4306 32.049C66.5499 32.0251 66.6414 32.0072 66.705 31.9953L67.1047 33.8865C66.9774 33.9263 66.7985 33.972 66.5678 34.0237C66.3371 34.0794 66.0567 34.1132 65.7266 34.1251C65.1141 34.149 64.5771 34.0675 64.1158 33.8805C63.6584 33.6936 63.3024 33.4033 63.0479 33.0095C62.7933 32.6158 62.6681 32.1186 62.672 31.518V22.6408ZM71.3316 21.7817V33.9999H68.7901V21.7817H71.3316ZM77.5436 34.1788C76.6009 34.1788 75.7896 33.9879 75.1095 33.6061C74.4333 33.2203 73.9123 32.6754 73.5464 31.9715C73.1805 31.2635 72.9975 30.4263 72.9975 29.4598C72.9975 28.5172 73.1805 27.6899 73.5464 26.978C73.9123 26.2661 74.4274 25.7112 75.0916 25.3135C75.7597 24.9158 76.5433 24.7169 77.4421 24.7169C78.0467 24.7169 78.6095 24.8144 79.1305 25.0092C79.6555 25.2001 80.1129 25.4885 80.5026 25.8743C80.8964 26.2601 81.2026 26.7453 81.4214 27.33C81.6401 27.9107 81.7495 28.5908 81.7495 29.3703V30.0683H74.0117V28.4933H79.3572C79.3572 28.1274 79.2776 27.8033 79.1186 27.5209C78.9595 27.2385 78.7387 27.0178 78.4563 26.8587C78.1779 26.6956 77.8538 26.6141 77.4839 26.6141C77.0981 26.6141 76.7561 26.7036 76.4578 26.8825C76.1634 27.0575 75.9328 27.2942 75.7657 27.5925C75.5987 27.8868 75.5132 28.2149 75.5092 28.5769V30.0743C75.5092 30.5277 75.5927 30.9195 75.7597 31.2496C75.9308 31.5797 76.1714 31.8342 76.4816 32.0132C76.7919 32.1922 77.1597 32.2817 77.5853 32.2817C77.8677 32.2817 78.1262 32.2419 78.3609 32.1624C78.5955 32.0828 78.7964 31.9635 78.9634 31.8044C79.1305 31.6453 79.2578 31.4504 79.3453 31.2197L81.6958 31.3749C81.5765 31.9396 81.3319 32.4328 80.962 32.8544C80.5961 33.272 80.1228 33.5982 79.5421 33.8328C78.9654 34.0635 78.2992 34.1788 77.5436 34.1788Z" fill="#344054"/>
<path d="M18.2365 66.1999V58.0544H19.2228V65.3249H23.0092V66.1999H18.2365ZM26.891 66.3271C26.3395 66.3271 25.8556 66.1959 25.4393 65.9334C25.0257 65.6709 24.7022 65.3036 24.4689 64.8317C24.2382 64.3597 24.1228 63.8082 24.1228 63.1771C24.1228 62.5408 24.2382 61.9853 24.4689 61.5107C24.7022 61.036 25.0257 60.6675 25.4393 60.405C25.8556 60.1425 26.3395 60.0112 26.891 60.0112C27.4425 60.0112 27.9251 60.1425 28.3388 60.405C28.755 60.6675 29.0785 61.036 29.3092 61.5107C29.5425 61.9853 29.6592 62.5408 29.6592 63.1771C29.6592 63.8082 29.5425 64.3597 29.3092 64.8317C29.0785 65.3036 28.755 65.6709 28.3388 65.9334C27.9251 66.1959 27.4425 66.3271 26.891 66.3271ZM26.891 65.484C27.31 65.484 27.6547 65.3766 27.9251 65.1618C28.1956 64.947 28.3958 64.6646 28.5257 64.3146C28.6556 63.9646 28.7206 63.5855 28.7206 63.1771C28.7206 62.7688 28.6556 62.3883 28.5257 62.0357C28.3958 61.683 28.1956 61.398 27.9251 61.1805C27.6547 60.9631 27.31 60.8544 26.891 60.8544C26.4721 60.8544 26.1274 60.9631 25.8569 61.1805C25.5865 61.398 25.3863 61.683 25.2564 62.0357C25.1264 62.3883 25.0615 62.7688 25.0615 63.1771C25.0615 63.5855 25.1264 63.9646 25.2564 64.3146C25.3863 64.6646 25.5865 64.947 25.8569 65.1618C26.1274 65.3766 26.4721 65.484 26.891 65.484ZM31.092 66.1999V60.0908H31.9988V61.0135H32.0625C32.1738 60.7112 32.3754 60.466 32.667 60.2777C32.9587 60.0894 33.2875 59.9953 33.6534 59.9953C33.7223 59.9953 33.8085 59.9966 33.9119 59.9993C34.0153 60.0019 34.0935 60.0059 34.1466 60.0112V60.9658C34.1148 60.9578 34.0418 60.9459 33.9278 60.93C33.8165 60.9114 33.6985 60.9021 33.5738 60.9021C33.2769 60.9021 33.0117 60.9644 32.7784 61.0891C32.5477 61.211 32.3648 61.3807 32.2295 61.5982C32.0969 61.8129 32.0307 62.0582 32.0307 62.334V66.1999H31.092ZM37.6346 66.3271C37.046 66.3271 36.5382 66.1972 36.1113 65.9374C35.6871 65.6749 35.3596 65.309 35.129 64.8396C34.9009 64.3677 34.7869 63.8188 34.7869 63.193C34.7869 62.5673 34.9009 62.0158 35.129 61.5385C35.3596 61.0586 35.6805 60.6847 36.0915 60.4169C36.5051 60.1465 36.9877 60.0112 37.5392 60.0112C37.8574 60.0112 38.1716 60.0643 38.4818 60.1703C38.792 60.2764 39.0744 60.4487 39.329 60.6874C39.5835 60.9233 39.7863 61.2362 39.9375 61.626C40.0886 62.0158 40.1642 62.4957 40.1642 63.0658V63.4635H35.4551V62.6521H39.2096C39.2096 62.3074 39.1407 61.9999 39.0028 61.7294C38.8676 61.459 38.674 61.2455 38.4221 61.0891C38.1729 60.9326 37.8786 60.8544 37.5392 60.8544C37.1653 60.8544 36.8418 60.9472 36.5687 61.1328C36.2983 61.3158 36.0901 61.5544 35.9443 61.8487C35.7985 62.143 35.7255 62.4586 35.7255 62.7953V63.3362C35.7255 63.7976 35.8051 64.1887 35.9642 64.5095C36.1259 64.8277 36.35 65.0703 36.6363 65.2374C36.9227 65.4018 37.2555 65.484 37.6346 65.484C37.8812 65.484 38.104 65.4495 38.3028 65.3805C38.5043 65.309 38.678 65.2029 38.8238 65.0624C38.9697 64.9192 39.0824 64.7415 39.1619 64.5294L40.0687 64.784C39.9733 65.0915 39.8129 65.362 39.5875 65.5953C39.3621 65.826 39.0837 66.0063 38.7523 66.1362C38.4208 66.2635 38.0483 66.3271 37.6346 66.3271ZM41.592 66.1999V60.0908H42.4988V61.0453H42.5784C42.7057 60.7192 42.9112 60.466 43.1949 60.2857C43.4786 60.1027 43.8193 60.0112 44.217 60.0112C44.6201 60.0112 44.9555 60.1027 45.2233 60.2857C45.4937 60.466 45.7045 60.7192 45.8557 61.0453H45.9193C46.0757 60.7298 46.3104 60.4792 46.6233 60.2936C46.9362 60.1054 47.3113 60.0112 47.7488 60.0112C48.2951 60.0112 48.7418 60.1822 49.0892 60.5243C49.4365 60.8637 49.6102 61.3927 49.6102 62.1112V66.1999H48.6716V62.1112C48.6716 61.6605 48.5483 61.3383 48.3017 61.1447C48.0551 60.9512 47.7648 60.8544 47.4307 60.8544C47.0011 60.8544 46.6684 60.9843 46.4324 61.2442C46.1964 61.5014 46.0784 61.8275 46.0784 62.2226V66.1999H45.1238V62.0158C45.1238 61.6684 45.0112 61.3887 44.7858 61.1766C44.5604 60.9618 44.2701 60.8544 43.9148 60.8544C43.6708 60.8544 43.4428 60.9194 43.2307 61.0493C43.0212 61.1792 42.8515 61.3595 42.7216 61.5902C42.5943 61.8182 42.5307 62.0821 42.5307 62.3817V66.1999H41.592ZM54.4764 66.1999V60.0908H55.415V66.1999H54.4764ZM54.9537 59.0726C54.7707 59.0726 54.613 59.0103 54.4804 58.8857C54.3505 58.761 54.2855 58.6112 54.2855 58.4362C54.2855 58.2612 54.3505 58.1114 54.4804 57.9868C54.613 57.8622 54.7707 57.7999 54.9537 57.7999C55.1366 57.7999 55.2931 57.8622 55.423 57.9868C55.5556 58.1114 55.6219 58.2612 55.6219 58.4362C55.6219 58.6112 55.5556 58.761 55.423 58.8857C55.2931 59.0103 55.1366 59.0726 54.9537 59.0726ZM57.1342 68.4908V60.0908H58.041V61.0612H58.1524C58.2213 60.9552 58.3168 60.8199 58.4388 60.6555C58.5634 60.4885 58.741 60.34 58.9717 60.2101C59.205 60.0775 59.5206 60.0112 59.9183 60.0112C60.4327 60.0112 60.8861 60.1398 61.2785 60.397C61.671 60.6542 61.9772 61.0188 62.1973 61.4908C62.4174 61.9627 62.5274 62.5196 62.5274 63.1612C62.5274 63.8082 62.4174 64.369 62.1973 64.8436C61.9772 65.3156 61.6723 65.6815 61.2825 65.9413C60.8927 66.1985 60.4433 66.3271 59.9342 66.3271C59.5418 66.3271 59.2276 66.2622 58.9916 66.1322C58.7556 65.9997 58.574 65.8499 58.4467 65.6828C58.3194 65.5131 58.2213 65.3726 58.1524 65.2612H58.0728V68.4908H57.1342ZM58.0569 63.1453C58.0569 63.6067 58.1246 64.0137 58.2598 64.3663C58.395 64.7163 58.5925 64.9908 58.8524 65.1896C59.1122 65.3858 59.4304 65.484 59.8069 65.484C60.1994 65.484 60.5268 65.3805 60.7893 65.1737C61.0545 64.9643 61.2533 64.6832 61.3859 64.3305C61.5211 63.9752 61.5888 63.5802 61.5888 63.1453C61.5888 62.7158 61.5225 62.3286 61.3899 61.984C61.26 61.6366 61.0624 61.3622 60.7973 61.1607C60.5348 60.9565 60.2047 60.8544 59.8069 60.8544C59.4251 60.8544 59.1043 60.9512 58.8444 61.1447C58.5846 61.3357 58.3884 61.6035 58.2558 61.9482C58.1232 62.2902 58.0569 62.6893 58.0569 63.1453ZM68.2865 61.459L67.4433 61.6976C67.3903 61.5571 67.3121 61.4205 67.2086 61.2879C67.1079 61.1527 66.97 61.0413 66.795 60.9538C66.62 60.8663 66.396 60.8226 66.1228 60.8226C65.749 60.8226 65.4374 60.9088 65.1882 61.0811C64.9416 61.2508 64.8183 61.4669 64.8183 61.7294C64.8183 61.9627 64.9032 62.147 65.0728 62.2822C65.2425 62.4175 65.5077 62.5302 65.8683 62.6203L66.7751 62.843C67.3213 62.9756 67.7283 63.1785 67.9961 63.4516C68.2639 63.722 68.3978 64.0707 68.3978 64.4976C68.3978 64.8476 68.2971 65.1605 68.0956 65.4362C67.8967 65.712 67.6183 65.9294 67.2603 66.0885C66.9024 66.2476 66.4861 66.3271 66.0115 66.3271C65.3884 66.3271 64.8727 66.1919 64.4643 65.9215C64.056 65.651 63.7975 65.2559 63.6888 64.7362L64.5797 64.5135C64.6645 64.8423 64.8249 65.0889 65.0609 65.2533C65.2996 65.4177 65.6111 65.4999 65.9956 65.4999C66.4331 65.4999 66.7804 65.4071 67.0376 65.2215C67.2975 65.0332 67.4274 64.8078 67.4274 64.5453C67.4274 64.3332 67.3532 64.1555 67.2047 64.0124C67.0562 63.8665 66.8282 63.7578 66.5206 63.6862L65.5024 63.4476C64.9429 63.315 64.5319 63.1095 64.2694 62.8311C64.0096 62.55 63.8797 62.1987 63.8797 61.7771C63.8797 61.4324 63.9764 61.1275 64.17 60.8624C64.3662 60.5972 64.6327 60.3891 64.9694 60.2379C65.3088 60.0868 65.6933 60.0112 66.1228 60.0112C66.7274 60.0112 67.202 60.1438 67.5467 60.409C67.8941 60.6741 68.1407 61.0241 68.2865 61.459ZM73.6608 63.7021V60.0908H74.5994V66.1999H73.6608V65.1658H73.5971C73.454 65.476 73.2312 65.7398 72.929 65.9572C72.6267 66.172 72.2449 66.2794 71.7835 66.2794C71.4017 66.2794 71.0623 66.1959 70.7653 66.0288C70.4683 65.8591 70.235 65.6046 70.0653 65.2652C69.8956 64.9232 69.8108 64.4923 69.8108 63.9726V60.0908H70.7494V63.909C70.7494 64.3544 70.874 64.7097 71.1233 64.9749C71.3752 65.24 71.696 65.3726 72.0858 65.3726C72.3191 65.3726 72.5564 65.3129 72.7977 65.1936C73.0416 65.0743 73.2458 64.8913 73.4102 64.6447C73.5773 64.3982 73.6608 64.084 73.6608 63.7021ZM76.3186 66.1999V60.0908H77.2254V61.0453H77.305C77.4322 60.7192 77.6377 60.466 77.9214 60.2857C78.2051 60.1027 78.5459 60.0112 78.9436 60.0112C79.3466 60.0112 79.682 60.1027 79.9498 60.2857C80.2203 60.466 80.4311 60.7192 80.5822 61.0453H80.6459C80.8023 60.7298 81.037 60.4792 81.3498 60.2936C81.6627 60.1054 82.0379 60.0112 82.4754 60.0112C83.0216 60.0112 83.4684 60.1822 83.8157 60.5243C84.1631 60.8637 84.3368 61.3927 84.3368 62.1112V66.1999H83.3981V62.1112C83.3981 61.6605 83.2748 61.3383 83.0282 61.1447C82.7817 60.9512 82.4913 60.8544 82.1572 60.8544C81.7277 60.8544 81.3949 60.9843 81.1589 61.2442C80.9229 61.5014 80.805 61.8275 80.805 62.2226V66.1999H79.8504V62.0158C79.8504 61.6684 79.7377 61.3887 79.5123 61.1766C79.287 60.9618 78.9966 60.8544 78.6413 60.8544C78.3974 60.8544 78.1693 60.9194 77.9572 61.0493C77.7478 61.1792 77.5781 61.3595 77.4481 61.5902C77.3209 61.8182 77.2572 62.0821 77.2572 62.3817V66.1999H76.3186ZM91.5098 66.3271C91.0007 66.3271 90.5513 66.1985 90.1615 65.9413C89.7717 65.6815 89.4668 65.3156 89.2467 64.8436C89.0266 64.369 88.9166 63.8082 88.9166 63.1612C88.9166 62.5196 89.0266 61.9627 89.2467 61.4908C89.4668 61.0188 89.773 60.6542 90.1655 60.397C90.5579 60.1398 91.0113 60.0112 91.5257 60.0112C91.9234 60.0112 92.2376 60.0775 92.4683 60.2101C92.7016 60.34 92.8793 60.4885 93.0013 60.6555C93.1259 60.8199 93.2227 60.9552 93.2916 61.0612H93.3711V58.0544H94.3098V66.1999H93.403V65.2612H93.2916C93.2227 65.3726 93.1246 65.5131 92.9973 65.6828C92.87 65.8499 92.6884 65.9997 92.4524 66.1322C92.2164 66.2622 91.9022 66.3271 91.5098 66.3271ZM91.6371 65.484C92.0136 65.484 92.3318 65.3858 92.5916 65.1896C92.8514 64.9908 93.049 64.7163 93.1842 64.3663C93.3194 64.0137 93.3871 63.6067 93.3871 63.1453C93.3871 62.6893 93.3208 62.2902 93.1882 61.9482C93.0556 61.6035 92.8594 61.3357 92.5996 61.1447C92.3397 60.9512 92.0189 60.8544 91.6371 60.8544C91.2393 60.8544 90.9079 60.9565 90.6427 61.1607C90.3802 61.3622 90.1827 61.6366 90.0501 61.984C89.9202 62.3286 89.8552 62.7158 89.8552 63.1453C89.8552 63.5802 89.9215 63.9752 90.0541 64.3305C90.1893 64.6832 90.3882 64.9643 90.6507 65.1737C90.9158 65.3805 91.2446 65.484 91.6371 65.484ZM98.641 66.3271C98.0895 66.3271 97.6056 66.1959 97.1893 65.9334C96.7757 65.6709 96.4522 65.3036 96.2189 64.8317C95.9882 64.3597 95.8728 63.8082 95.8728 63.1771C95.8728 62.5408 95.9882 61.9853 96.2189 61.5107C96.4522 61.036 96.7757 60.6675 97.1893 60.405C97.6056 60.1425 98.0895 60.0112 98.641 60.0112C99.1925 60.0112 99.6751 60.1425 100.089 60.405C100.505 60.6675 100.829 61.036 101.059 61.5107C101.293 61.9853 101.409 62.5408 101.409 63.1771C101.409 63.8082 101.293 64.3597 101.059 64.8317C100.829 65.3036 100.505 65.6709 100.089 65.9334C99.6751 66.1959 99.1925 66.3271 98.641 66.3271ZM98.641 65.484C99.06 65.484 99.4047 65.3766 99.6751 65.1618C99.9456 64.947 100.146 64.6646 100.276 64.3146C100.406 63.9646 100.471 63.5855 100.471 63.1771C100.471 62.7688 100.406 62.3883 100.276 62.0357C100.146 61.683 99.9456 61.398 99.6751 61.1805C99.4047 60.9631 99.06 60.8544 98.641 60.8544C98.2221 60.8544 97.8774 60.9631 97.6069 61.1805C97.3365 61.398 97.1363 61.683 97.0064 62.0357C96.8764 62.3883 96.8115 62.7688 96.8115 63.1771C96.8115 63.5855 96.8764 63.9646 97.0064 64.3146C97.1363 64.6646 97.3365 64.947 97.6069 65.1618C97.8774 65.3766 98.2221 65.484 98.641 65.484ZM103.781 58.0544V66.1999H102.842V58.0544H103.781ZM107.982 66.3271C107.43 66.3271 106.946 66.1959 106.53 65.9334C106.116 65.6709 105.793 65.3036 105.559 64.8317C105.329 64.3597 105.213 63.8082 105.213 63.1771C105.213 62.5408 105.329 61.9853 105.559 61.5107C105.793 61.036 106.116 60.6675 106.53 60.405C106.946 60.1425 107.43 60.0112 107.982 60.0112C108.533 60.0112 109.016 60.1425 109.429 60.405C109.846 60.6675 110.169 61.036 110.4 61.5107C110.633 61.9853 110.75 62.5408 110.75 63.1771C110.75 63.8082 110.633 64.3597 110.4 64.8317C110.169 65.3036 109.846 65.6709 109.429 65.9334C109.016 66.1959 108.533 66.3271 107.982 66.3271ZM107.982 65.484C108.401 65.484 108.745 65.3766 109.016 65.1618C109.286 64.947 109.486 64.6646 109.616 64.3146C109.746 63.9646 109.811 63.5855 109.811 63.1771C109.811 62.7688 109.746 62.3883 109.616 62.0357C109.486 61.683 109.286 61.398 109.016 61.1805C108.745 60.9631 108.401 60.8544 107.982 60.8544C107.563 60.8544 107.218 60.9631 106.948 61.1805C106.677 61.398 106.477 61.683 106.347 62.0357C106.217 62.3883 106.152 62.7688 106.152 63.1771C106.152 63.5855 106.217 63.9646 106.347 64.3146C106.477 64.6646 106.677 64.947 106.948 65.1618C107.218 65.3766 107.563 65.484 107.982 65.484ZM112.183 66.1999V60.0908H113.089V61.0135H113.153C113.264 60.7112 113.466 60.466 113.758 60.2777C114.049 60.0894 114.378 59.9953 114.744 59.9953C114.813 59.9953 114.899 59.9966 115.003 59.9993C115.106 60.0019 115.184 60.0059 115.237 60.0112V60.9658C115.205 60.9578 115.132 60.9459 115.018 60.93C114.907 60.9114 114.789 60.9021 114.664 60.9021C114.367 60.9021 114.102 60.9644 113.869 61.0891C113.638 61.211 113.455 61.3807 113.32 61.5982C113.188 61.8129 113.121 62.0582 113.121 62.334V66.1999H112.183ZM123.827 61.459L122.984 61.6976C122.931 61.5571 122.853 61.4205 122.749 61.2879C122.649 61.1527 122.511 61.0413 122.336 60.9538C122.161 60.8663 121.937 60.8226 121.663 60.8226C121.29 60.8226 120.978 60.9088 120.729 61.0811C120.482 61.2508 120.359 61.4669 120.359 61.7294C120.359 61.9627 120.444 62.147 120.613 62.2822C120.783 62.4175 121.048 62.5302 121.409 62.6203L122.316 62.843C122.862 62.9756 123.269 63.1785 123.537 63.4516C123.805 63.722 123.938 64.0707 123.938 64.4976C123.938 64.8476 123.838 65.1605 123.636 65.4362C123.437 65.712 123.159 65.9294 122.801 66.0885C122.443 66.2476 122.027 66.3271 121.552 66.3271C120.929 66.3271 120.413 66.1919 120.005 65.9215C119.597 65.651 119.338 65.2559 119.229 64.7362L120.12 64.5135C120.205 64.8423 120.366 65.0889 120.602 65.2533C120.84 65.4177 121.152 65.4999 121.536 65.4999C121.974 65.4999 122.321 65.4071 122.578 65.2215C122.838 65.0332 122.968 64.8078 122.968 64.5453C122.968 64.3332 122.894 64.1555 122.745 64.0124C122.597 63.8665 122.369 63.7578 122.061 63.6862L121.043 63.4476C120.484 63.315 120.073 63.1095 119.81 62.8311C119.55 62.55 119.42 62.1987 119.42 61.7771C119.42 61.4324 119.517 61.1275 119.711 60.8624C119.907 60.5972 120.173 60.3891 120.51 60.2379C120.849 60.0868 121.234 60.0112 121.663 60.0112C122.268 60.0112 122.743 60.1438 123.087 60.409C123.435 60.6741 123.681 61.0241 123.827 61.459ZM125.351 66.1999V60.0908H126.29V66.1999H125.351ZM125.829 59.0726C125.646 59.0726 125.488 59.0103 125.355 58.8857C125.225 58.761 125.16 58.6112 125.16 58.4362C125.16 58.2612 125.225 58.1114 125.355 57.9868C125.488 57.8622 125.646 57.7999 125.829 57.7999C126.012 57.7999 126.168 57.8622 126.298 57.9868C126.431 58.1114 126.497 58.2612 126.497 58.4362C126.497 58.6112 126.431 58.761 126.298 58.8857C126.168 59.0103 126.012 59.0726 125.829 59.0726ZM130.666 60.0908V60.8862H127.5V60.0908H130.666ZM128.423 58.6271H129.361V64.4499C129.361 64.715 129.4 64.9139 129.477 65.0465C129.556 65.1764 129.657 65.2639 129.779 65.309C129.904 65.3514 130.035 65.3726 130.173 65.3726C130.276 65.3726 130.361 65.3673 130.427 65.3567C130.494 65.3434 130.547 65.3328 130.586 65.3249L130.777 66.168C130.714 66.1919 130.625 66.2158 130.511 66.2396C130.397 66.2661 130.252 66.2794 130.077 66.2794C129.812 66.2794 129.552 66.2224 129.298 66.1084C129.046 65.9944 128.836 65.8207 128.669 65.5874C128.505 65.354 128.423 65.0597 128.423 64.7044V58.6271ZM137.026 66.343C136.639 66.343 136.287 66.2701 135.972 66.1243C135.656 65.9758 135.406 65.7624 135.22 65.484C135.034 65.2029 134.942 64.8635 134.942 64.4658C134.942 64.1158 135.011 63.8321 135.148 63.6146C135.286 63.3946 135.471 63.2222 135.701 63.0976C135.932 62.973 136.186 62.8802 136.465 62.8192C136.746 62.7555 137.028 62.7052 137.312 62.668C137.683 62.6203 137.984 62.5845 138.215 62.5607C138.448 62.5341 138.618 62.4904 138.724 62.4294C138.833 62.3684 138.887 62.2624 138.887 62.1112V62.0794C138.887 61.687 138.78 61.3821 138.565 61.1646C138.353 60.9472 138.031 60.8385 137.598 60.8385C137.15 60.8385 136.799 60.9366 136.544 61.1328C136.29 61.329 136.111 61.5385 136.008 61.7612L135.117 61.443C135.276 61.0718 135.488 60.7828 135.753 60.576C136.021 60.3665 136.312 60.2207 136.628 60.1385C136.946 60.0536 137.259 60.0112 137.567 60.0112C137.763 60.0112 137.988 60.0351 138.243 60.0828C138.5 60.1279 138.748 60.222 138.986 60.3652C139.228 60.5084 139.428 60.7245 139.587 61.0135C139.746 61.3025 139.826 61.6896 139.826 62.1749V66.1999H138.887V65.3726H138.839C138.776 65.5052 138.67 65.647 138.521 65.7982C138.373 65.9493 138.175 66.0779 137.929 66.184C137.682 66.29 137.381 66.343 137.026 66.343ZM137.169 65.4999C137.54 65.4999 137.853 65.4269 138.108 65.2811C138.365 65.1353 138.558 64.947 138.688 64.7163C138.821 64.4857 138.887 64.243 138.887 63.9885V63.1294C138.847 63.1771 138.76 63.2209 138.625 63.2607C138.492 63.2978 138.338 63.3309 138.163 63.3601C137.991 63.3866 137.822 63.4105 137.658 63.4317C137.496 63.4502 137.365 63.4661 137.264 63.4794C137.02 63.5112 136.792 63.5629 136.58 63.6345C136.371 63.7035 136.201 63.8082 136.071 63.9487C135.944 64.0866 135.88 64.2749 135.88 64.5135C135.88 64.8396 136.001 65.0862 136.242 65.2533C136.486 65.4177 136.795 65.4999 137.169 65.4999ZM141.539 66.1999V60.0908H142.446V61.0453H142.525C142.653 60.7192 142.858 60.466 143.142 60.2857C143.425 60.1027 143.766 60.0112 144.164 60.0112C144.567 60.0112 144.902 60.1027 145.17 60.2857C145.441 60.466 145.651 60.7192 145.803 61.0453H145.866C146.023 60.7298 146.257 60.4792 146.57 60.2936C146.883 60.1054 147.258 60.0112 147.696 60.0112C148.242 60.0112 148.689 60.1822 149.036 60.5243C149.383 60.8637 149.557 61.3927 149.557 62.1112V66.1999H148.618V62.1112C148.618 61.6605 148.495 61.3383 148.249 61.1447C148.002 60.9512 147.712 60.8544 147.378 60.8544C146.948 60.8544 146.615 60.9843 146.379 61.2442C146.143 61.5014 146.025 61.8275 146.025 62.2226V66.1999H145.071V62.0158C145.071 61.6684 144.958 61.3887 144.733 61.1766C144.507 60.9618 144.217 60.8544 143.862 60.8544C143.618 60.8544 143.39 60.9194 143.178 61.0493C142.968 61.1792 142.798 61.3595 142.668 61.5902C142.541 61.8182 142.478 62.0821 142.478 62.3817V66.1999H141.539ZM153.835 66.3271C153.246 66.3271 152.738 66.1972 152.311 65.9374C151.887 65.6749 151.56 65.309 151.329 64.8396C151.101 64.3677 150.987 63.8188 150.987 63.193C150.987 62.5673 151.101 62.0158 151.329 61.5385C151.56 61.0586 151.88 60.6847 152.291 60.4169C152.705 60.1465 153.188 60.0112 153.739 60.0112C154.057 60.0112 154.372 60.0643 154.682 60.1703C154.992 60.2764 155.274 60.4487 155.529 60.6874C155.784 60.9233 155.986 61.2362 156.137 61.626C156.289 62.0158 156.364 62.4957 156.364 63.0658V63.4635H151.655V62.6521H155.41C155.41 62.3074 155.341 61.9999 155.203 61.7294C155.068 61.459 154.874 61.2455 154.622 61.0891C154.373 60.9326 154.079 60.8544 153.739 60.8544C153.365 60.8544 153.042 60.9472 152.769 61.1328C152.498 61.3158 152.29 61.5544 152.144 61.8487C151.998 62.143 151.926 62.4586 151.926 62.7953V63.3362C151.926 63.7976 152.005 64.1887 152.164 64.5095C152.326 64.8277 152.55 65.0703 152.836 65.2374C153.123 65.4018 153.455 65.484 153.835 65.484C154.081 65.484 154.304 65.4495 154.503 65.3805C154.704 65.309 154.878 65.2029 155.024 65.0624C155.17 64.9192 155.282 64.7415 155.362 64.5294L156.269 64.784C156.173 65.0915 156.013 65.362 155.787 65.5953C155.562 65.826 155.284 66.0063 154.952 66.1362C154.621 66.2635 154.248 66.3271 153.835 66.3271ZM160.449 60.0908V60.8862H157.283V60.0908H160.449ZM158.206 58.6271H159.144V64.4499C159.144 64.715 159.183 64.9139 159.26 65.0465C159.339 65.1764 159.44 65.2639 159.562 65.309C159.687 65.3514 159.818 65.3726 159.956 65.3726C160.059 65.3726 160.144 65.3673 160.21 65.3567C160.276 65.3434 160.33 65.3328 160.369 65.3249L160.56 66.168C160.497 66.1919 160.408 66.2158 160.294 66.2396C160.18 66.2661 160.035 66.2794 159.86 66.2794C159.595 66.2794 159.335 66.2224 159.081 66.1084C158.829 65.9944 158.619 65.8207 158.452 65.5874C158.288 65.354 158.206 65.0597 158.206 64.7044V58.6271ZM163.261 65.0862L163.197 65.5158C163.152 65.818 163.083 66.1415 162.99 66.4862C162.9 66.8309 162.806 67.1557 162.708 67.4607C162.61 67.7656 162.529 68.0082 162.465 68.1885H161.749C161.784 68.0188 161.829 67.7947 161.885 67.5163C161.94 67.2379 161.996 66.9264 162.052 66.5817C162.11 66.2396 162.158 65.8896 162.195 65.5317L162.243 65.0862H163.261ZM170.632 66.3271C170.059 66.3271 169.566 66.1919 169.152 65.9215C168.738 65.651 168.42 65.2785 168.198 64.8038C167.975 64.3292 167.863 63.787 167.863 63.1771C167.863 62.5567 167.977 62.0091 168.206 61.5345C168.436 61.0572 168.757 60.6847 169.168 60.4169C169.582 60.1465 170.064 60.0112 170.616 60.0112C171.045 60.0112 171.432 60.0908 171.777 60.2499C172.122 60.409 172.404 60.6317 172.624 60.918C172.844 61.2044 172.981 61.5385 173.034 61.9203H172.095C172.024 61.6419 171.865 61.3953 171.618 61.1805C171.374 60.9631 171.045 60.8544 170.632 60.8544C170.266 60.8544 169.945 60.9499 169.669 61.1408C169.396 61.329 169.183 61.5955 169.029 61.9402C168.878 62.2822 168.802 62.684 168.802 63.1453C168.802 63.6173 168.876 64.0283 169.025 64.3783C169.176 64.7283 169.388 65 169.661 65.1936C169.937 65.3872 170.26 65.484 170.632 65.484C170.876 65.484 171.097 65.4415 171.296 65.3567C171.495 65.2718 171.663 65.1499 171.801 64.9908C171.939 64.8317 172.037 64.6408 172.095 64.418H173.034C172.981 64.7786 172.85 65.1035 172.64 65.3925C172.433 65.6788 172.159 65.9069 171.817 66.0766C171.477 66.2436 171.082 66.3271 170.632 66.3271ZM176.888 66.3271C176.336 66.3271 175.852 66.1959 175.436 65.9334C175.023 65.6709 174.699 65.3036 174.466 64.8317C174.235 64.3597 174.12 63.8082 174.12 63.1771C174.12 62.5408 174.235 61.9853 174.466 61.5107C174.699 61.036 175.023 60.6675 175.436 60.405C175.852 60.1425 176.336 60.0112 176.888 60.0112C177.439 60.0112 177.922 60.1425 178.336 60.405C178.752 60.6675 179.075 61.036 179.306 61.5107C179.539 61.9853 179.656 62.5408 179.656 63.1771C179.656 63.8082 179.539 64.3597 179.306 64.8317C179.075 65.3036 178.752 65.6709 178.336 65.9334C177.922 66.1959 177.439 66.3271 176.888 66.3271ZM176.888 65.484C177.307 65.484 177.652 65.3766 177.922 65.1618C178.192 64.947 178.393 64.6646 178.523 64.3146C178.652 63.9646 178.717 63.5855 178.717 63.1771C178.717 62.7688 178.652 62.3883 178.523 62.0357C178.393 61.683 178.192 61.398 177.922 61.1805C177.652 60.9631 177.307 60.8544 176.888 60.8544C176.469 60.8544 176.124 60.9631 175.854 61.1805C175.583 61.398 175.383 61.683 175.253 62.0357C175.123 62.3883 175.058 62.7688 175.058 63.1771C175.058 63.5855 175.123 63.9646 175.253 64.3146C175.383 64.6646 175.583 64.947 175.854 65.1618C176.124 65.3766 176.469 65.484 176.888 65.484ZM182.028 62.5249V66.1999H181.089V60.0908H181.996V61.0453H182.075C182.218 60.7351 182.436 60.4858 182.728 60.2976C183.019 60.1067 183.396 60.0112 183.857 60.0112C184.271 60.0112 184.633 60.0961 184.943 60.2658C185.253 60.4328 185.494 60.6874 185.667 61.0294C185.839 61.3688 185.925 61.7983 185.925 62.318V66.1999H184.987V62.3817C184.987 61.9018 184.862 61.5279 184.613 61.2601C184.364 60.9896 184.021 60.8544 183.587 60.8544C183.287 60.8544 183.019 60.9194 182.783 61.0493C182.55 61.1792 182.366 61.3688 182.23 61.618C182.095 61.8673 182.028 62.1696 182.028 62.5249ZM191.968 61.459L191.125 61.6976C191.072 61.5571 190.993 61.4205 190.89 61.2879C190.789 61.1527 190.651 61.0413 190.476 60.9538C190.301 60.8663 190.077 60.8226 189.804 60.8226C189.43 60.8226 189.119 60.9088 188.869 61.0811C188.623 61.2508 188.5 61.4669 188.5 61.7294C188.5 61.9627 188.584 62.147 188.754 62.2822C188.924 62.4175 189.189 62.5302 189.55 62.6203L190.456 62.843C191.003 62.9756 191.41 63.1785 191.677 63.4516C191.945 63.722 192.079 64.0707 192.079 64.4976C192.079 64.8476 191.978 65.1605 191.777 65.4362C191.578 65.712 191.3 65.9294 190.942 66.0885C190.584 66.2476 190.167 66.3271 189.693 66.3271C189.07 66.3271 188.554 66.1919 188.146 65.9215C187.737 65.651 187.479 65.2559 187.37 64.7362L188.261 64.5135C188.346 64.8423 188.506 65.0889 188.742 65.2533C188.981 65.4177 189.292 65.4999 189.677 65.4999C190.114 65.4999 190.462 65.4071 190.719 65.2215C190.979 65.0332 191.109 64.8078 191.109 64.5453C191.109 64.3332 191.034 64.1555 190.886 64.0124C190.737 63.8665 190.509 63.7578 190.202 63.6862L189.184 63.4476C188.624 63.315 188.213 63.1095 187.951 62.8311C187.691 62.55 187.561 62.1987 187.561 61.7771C187.561 61.4324 187.658 61.1275 187.851 60.8624C188.047 60.5972 188.314 60.3891 188.651 60.2379C188.99 60.0868 189.375 60.0112 189.804 60.0112C190.409 60.0112 190.883 60.1438 191.228 60.409C191.575 60.6741 191.822 61.0241 191.968 61.459ZM196.053 66.3271C195.465 66.3271 194.957 66.1972 194.53 65.9374C194.106 65.6749 193.778 65.309 193.548 64.8396C193.32 64.3677 193.206 63.8188 193.206 63.193C193.206 62.5673 193.32 62.0158 193.548 61.5385C193.778 61.0586 194.099 60.6847 194.51 60.4169C194.924 60.1465 195.406 60.0112 195.958 60.0112C196.276 60.0112 196.59 60.0643 196.901 60.1703C197.211 60.2764 197.493 60.4487 197.748 60.6874C198.002 60.9233 198.205 61.2362 198.356 61.626C198.507 62.0158 198.583 62.4957 198.583 63.0658V63.4635H193.874V62.6521H197.628C197.628 62.3074 197.559 61.9999 197.422 61.7294C197.286 61.459 197.093 61.2455 196.841 61.0891C196.592 60.9326 196.297 60.8544 195.958 60.8544C195.584 60.8544 195.261 60.9472 194.987 61.1328C194.717 61.3158 194.509 61.5544 194.363 61.8487C194.217 62.143 194.144 62.4586 194.144 62.7953V63.3362C194.144 63.7976 194.224 64.1887 194.383 64.5095C194.545 64.8277 194.769 65.0703 195.055 65.2374C195.341 65.4018 195.674 65.484 196.053 65.484C196.3 65.484 196.523 65.4495 196.722 65.3805C196.923 65.309 197.097 65.2029 197.243 65.0624C197.388 64.9192 197.501 64.7415 197.581 64.5294L198.487 64.784C198.392 65.0915 198.232 65.362 198.006 65.5953C197.781 65.826 197.502 66.0063 197.171 66.1362C196.84 66.2635 196.467 66.3271 196.053 66.3271ZM202.493 66.3271C201.92 66.3271 201.427 66.1919 201.013 65.9215C200.599 65.651 200.281 65.2785 200.058 64.8038C199.836 64.3292 199.724 63.787 199.724 63.1771C199.724 62.5567 199.838 62.0091 200.066 61.5345C200.297 61.0572 200.618 60.6847 201.029 60.4169C201.443 60.1465 201.925 60.0112 202.477 60.0112C202.906 60.0112 203.293 60.0908 203.638 60.2499C203.983 60.409 204.265 60.6317 204.485 60.918C204.705 61.2044 204.842 61.5385 204.895 61.9203H203.956C203.885 61.6419 203.726 61.3953 203.479 61.1805C203.235 60.9631 202.906 60.8544 202.493 60.8544C202.127 60.8544 201.806 60.9499 201.53 61.1408C201.257 61.329 201.044 61.5955 200.89 61.9402C200.739 62.2822 200.663 62.684 200.663 63.1453C200.663 63.6173 200.737 64.0283 200.886 64.3783C201.037 64.7283 201.249 65 201.522 65.1936C201.798 65.3872 202.121 65.484 202.493 65.484C202.737 65.484 202.958 65.4415 203.157 65.3567C203.356 65.2718 203.524 65.1499 203.662 64.9908C203.8 64.8317 203.898 64.6408 203.956 64.418H204.895C204.842 64.7786 204.711 65.1035 204.501 65.3925C204.294 65.6788 204.02 65.9069 203.678 66.0766C203.338 66.2436 202.943 66.3271 202.493 66.3271ZM208.924 60.0908V60.8862H205.758V60.0908H208.924ZM206.681 58.6271H207.619V64.4499C207.619 64.715 207.658 64.9139 207.735 65.0465C207.814 65.1764 207.915 65.2639 208.037 65.309C208.162 65.3514 208.293 65.3726 208.431 65.3726C208.534 65.3726 208.619 65.3673 208.685 65.3567C208.751 65.3434 208.805 65.3328 208.844 65.3249L209.035 66.168C208.972 66.1919 208.883 66.2158 208.769 66.2396C208.655 66.2661 208.51 66.2794 208.335 66.2794C208.07 66.2794 207.81 66.2224 207.556 66.1084C207.304 65.9944 207.094 65.8207 206.927 65.5874C206.763 65.354 206.681 65.0597 206.681 64.7044V58.6271ZM212.832 66.3271C212.243 66.3271 211.735 66.1972 211.308 65.9374C210.884 65.6749 210.557 65.309 210.326 64.8396C210.098 64.3677 209.984 63.8188 209.984 63.193C209.984 62.5673 210.098 62.0158 210.326 61.5385C210.557 61.0586 210.877 60.6847 211.288 60.4169C211.702 60.1465 212.185 60.0112 212.736 60.0112C213.054 60.0112 213.368 60.0643 213.679 60.1703C213.989 60.2764 214.271 60.4487 214.526 60.6874C214.78 60.9233 214.983 61.2362 215.134 61.626C215.285 62.0158 215.361 62.4957 215.361 63.0658V63.4635H210.652V62.6521H214.407C214.407 62.3074 214.338 61.9999 214.2 61.7294C214.064 61.459 213.871 61.2455 213.619 61.0891C213.37 60.9326 213.075 60.8544 212.736 60.8544C212.362 60.8544 212.039 60.9472 211.766 61.1328C211.495 61.3158 211.287 61.5544 211.141 61.8487C210.995 62.143 210.922 62.4586 210.922 62.7953V63.3362C210.922 63.7976 211.002 64.1887 211.161 64.5095C211.323 64.8277 211.547 65.0703 211.833 65.2374C212.12 65.4018 212.452 65.484 212.832 65.484C213.078 65.484 213.301 65.4495 213.5 65.3805C213.701 65.309 213.875 65.2029 214.021 65.0624C214.167 64.9192 214.279 64.7415 214.359 64.5294L215.266 64.784C215.17 65.0915 215.01 65.362 214.784 65.5953C214.559 65.826 214.281 66.0063 213.949 66.1362C213.618 66.2635 213.245 66.3271 212.832 66.3271ZM219.446 60.0908V60.8862H216.28V60.0908H219.446ZM217.203 58.6271H218.141V64.4499C218.141 64.715 218.18 64.9139 218.257 65.0465C218.336 65.1764 218.437 65.2639 218.559 65.309C218.683 65.3514 218.815 65.3726 218.953 65.3726C219.056 65.3726 219.141 65.3673 219.207 65.3567C219.273 65.3434 219.326 65.3328 219.366 65.3249L219.557 66.168C219.493 66.1919 219.405 66.2158 219.291 66.2396C219.177 66.2661 219.032 66.2794 218.857 66.2794C218.592 66.2794 218.332 66.2224 218.078 66.1084C217.826 65.9944 217.616 65.8207 217.449 65.5874C217.285 65.354 217.203 65.0597 217.203 64.7044V58.6271ZM224.708 63.7021V60.0908H225.646V66.1999H224.708V65.1658H224.644C224.501 65.476 224.278 65.7398 223.976 65.9572C223.674 66.172 223.292 66.2794 222.83 66.2794C222.449 66.2794 222.109 66.1959 221.812 66.0288C221.515 65.8591 221.282 65.6046 221.112 65.2652C220.942 64.9232 220.858 64.4923 220.858 63.9726V60.0908H221.796V63.909C221.796 64.3544 221.921 64.7097 222.17 64.9749C222.422 65.24 222.743 65.3726 223.133 65.3726C223.366 65.3726 223.603 65.3129 223.845 65.1936C224.089 65.0743 224.293 64.8913 224.457 64.6447C224.624 64.3982 224.708 64.084 224.708 63.7021ZM227.365 66.1999V60.0908H228.272V61.0135H228.336C228.447 60.7112 228.649 60.466 228.94 60.2777C229.232 60.0894 229.561 59.9953 229.927 59.9953C229.996 59.9953 230.082 59.9966 230.185 59.9993C230.289 60.0019 230.367 60.0059 230.42 60.0112V60.9658C230.388 60.9578 230.315 60.9459 230.201 60.93C230.09 60.9114 229.972 60.9021 229.847 60.9021C229.55 60.9021 229.285 60.9644 229.052 61.0891C228.821 61.211 228.638 61.3807 228.503 61.5982C228.37 61.8129 228.304 62.0582 228.304 62.334V66.1999H227.365ZM19.9069 89.343C19.5198 89.343 19.1685 89.2701 18.853 89.1243C18.5374 88.9758 18.2869 88.7624 18.1013 88.484C17.9157 88.2029 17.8228 87.8635 17.8228 87.4658C17.8228 87.1158 17.8918 86.8321 18.0297 86.6146C18.1675 86.3946 18.3518 86.2222 18.5825 86.0976C18.8132 85.973 19.0677 85.8802 19.3461 85.8192C19.6272 85.7555 19.9096 85.7052 20.1933 85.668C20.5645 85.6203 20.8655 85.5845 21.0961 85.5607C21.3295 85.5341 21.4992 85.4904 21.6052 85.4294C21.7139 85.3684 21.7683 85.2624 21.7683 85.1112V85.0794C21.7683 84.687 21.6609 84.3821 21.4461 84.1646C21.234 83.9472 20.9119 83.8385 20.4797 83.8385C20.0316 83.8385 19.6802 83.9366 19.4257 84.1328C19.1711 84.329 18.9922 84.5385 18.8888 84.7612L17.9978 84.443C18.1569 84.0718 18.3691 83.7828 18.6342 83.576C18.902 83.3665 19.1937 83.2207 19.5092 83.1385C19.8274 83.0536 20.1403 83.0112 20.4478 83.0112C20.6441 83.0112 20.8694 83.0351 21.124 83.0828C21.3812 83.1279 21.6291 83.222 21.8677 83.3652C22.109 83.5084 22.3092 83.7245 22.4683 84.0135C22.6274 84.3025 22.7069 84.6896 22.7069 85.1749V89.1999H21.7683V88.3726H21.7206C21.6569 88.5052 21.5509 88.647 21.4024 88.7982C21.2539 88.9493 21.0564 89.0779 20.8098 89.184C20.5632 89.29 20.2622 89.343 19.9069 89.343ZM20.0501 88.4999C20.4213 88.4999 20.7342 88.4269 20.9888 88.2811C21.246 88.1353 21.4395 87.947 21.5694 87.7163C21.702 87.4857 21.7683 87.243 21.7683 86.9885V86.1294C21.7285 86.1771 21.641 86.2209 21.5058 86.2607C21.3732 86.2978 21.2194 86.3309 21.0444 86.3601C20.8721 86.3866 20.7037 86.4105 20.5393 86.4317C20.3776 86.4502 20.2463 86.4661 20.1456 86.4794C19.9016 86.5112 19.6736 86.5629 19.4615 86.6345C19.252 86.7035 19.0823 86.8082 18.9524 86.9487C18.8251 87.0866 18.7615 87.2749 18.7615 87.5135C18.7615 87.8396 18.8821 88.0862 19.1234 88.2533C19.3674 88.4177 19.6763 88.4999 20.0501 88.4999ZM26.727 89.3271C26.2179 89.3271 25.7684 89.1985 25.3787 88.9413C24.9889 88.6815 24.684 88.3156 24.4639 87.8436C24.2438 87.369 24.1338 86.8082 24.1338 86.1612C24.1338 85.5196 24.2438 84.9627 24.4639 84.4908C24.684 84.0188 24.9902 83.6542 25.3827 83.397C25.7751 83.1398 26.2285 83.0112 26.7429 83.0112C27.1406 83.0112 27.4548 83.0775 27.6855 83.2101C27.9188 83.34 28.0965 83.4885 28.2184 83.6555C28.3431 83.8199 28.4398 83.9552 28.5088 84.0612H28.5883V81.0544H29.527V89.1999H28.6202V88.2612H28.5088C28.4398 88.3726 28.3417 88.5131 28.2145 88.6828C28.0872 88.8499 27.9056 88.9997 27.6696 89.1322C27.4336 89.2622 27.1194 89.3271 26.727 89.3271ZM26.8542 88.484C27.2308 88.484 27.5489 88.3858 27.8088 88.1896C28.0686 87.9908 28.2662 87.7163 28.4014 87.3663C28.5366 87.0137 28.6042 86.6067 28.6042 86.1453C28.6042 85.6893 28.538 85.2902 28.4054 84.9482C28.2728 84.6035 28.0766 84.3357 27.8167 84.1447C27.5569 83.9512 27.2361 83.8544 26.8542 83.8544C26.4565 83.8544 26.1251 83.9565 25.8599 84.1607C25.5974 84.3622 25.3999 84.6366 25.2673 84.984C25.1374 85.3286 25.0724 85.7158 25.0724 86.1453C25.0724 86.5802 25.1387 86.9752 25.2713 87.3305C25.4065 87.6832 25.6054 87.9643 25.8679 88.1737C26.133 88.3805 26.4618 88.484 26.8542 88.484ZM31.3764 89.1999V83.0908H32.315V89.1999H31.3764ZM31.8537 82.0726C31.6707 82.0726 31.513 82.0103 31.3804 81.8857C31.2505 81.761 31.1855 81.6112 31.1855 81.4362C31.1855 81.2612 31.2505 81.1114 31.3804 80.9868C31.513 80.8622 31.6707 80.7999 31.8537 80.7999C32.0366 80.7999 32.1931 80.8622 32.323 80.9868C32.4556 81.1114 32.5219 81.2612 32.5219 81.4362C32.5219 81.6112 32.4556 81.761 32.323 81.8857C32.1931 82.0103 32.0366 82.0726 31.8537 82.0726ZM34.0342 91.4908V83.0908H34.941V84.0612H35.0524C35.1213 83.9552 35.2168 83.8199 35.3388 83.6555C35.4634 83.4885 35.641 83.34 35.8717 83.2101C36.105 83.0775 36.4206 83.0112 36.8183 83.0112C37.3327 83.0112 37.7861 83.1398 38.1785 83.397C38.571 83.6542 38.8772 84.0188 39.0973 84.4908C39.3174 84.9627 39.4274 85.5196 39.4274 86.1612C39.4274 86.8082 39.3174 87.369 39.0973 87.8436C38.8772 88.3156 38.5723 88.6815 38.1825 88.9413C37.7927 89.1985 37.3433 89.3271 36.8342 89.3271C36.4418 89.3271 36.1276 89.2622 35.8916 89.1322C35.6556 88.9997 35.474 88.8499 35.3467 88.6828C35.2194 88.5131 35.1213 88.3726 35.0524 88.2612H34.9728V91.4908H34.0342ZM34.9569 86.1453C34.9569 86.6067 35.0246 87.0137 35.1598 87.3663C35.295 87.7163 35.4925 87.9908 35.7524 88.1896C36.0122 88.3858 36.3304 88.484 36.7069 88.484C37.0994 88.484 37.4268 88.3805 37.6893 88.1737C37.9545 87.9643 38.1533 87.6832 38.2859 87.3305C38.4211 86.9752 38.4888 86.5802 38.4888 86.1453C38.4888 85.7158 38.4225 85.3286 38.2899 84.984C38.16 84.6366 37.9624 84.3622 37.6973 84.1607C37.4348 83.9565 37.1047 83.8544 36.7069 83.8544C36.3251 83.8544 36.0043 83.9512 35.7444 84.1447C35.4846 84.3357 35.2884 84.6035 35.1558 84.9482C35.0232 85.2902 34.9569 85.6893 34.9569 86.1453ZM40.8592 89.1999V83.0908H41.7978V89.1999H40.8592ZM41.3365 82.0726C41.1535 82.0726 40.9958 82.0103 40.8632 81.8857C40.7333 81.761 40.6683 81.6112 40.6683 81.4362C40.6683 81.2612 40.7333 81.1114 40.8632 80.9868C40.9958 80.8622 41.1535 80.7999 41.3365 80.7999C41.5194 80.7999 41.6759 80.8622 41.8058 80.9868C41.9384 81.1114 42.0047 81.2612 42.0047 81.4362C42.0047 81.6112 41.9384 81.761 41.8058 81.8857C41.6759 82.0103 41.5194 82.0726 41.3365 82.0726ZM47.8443 84.459L47.0011 84.6976C46.9481 84.5571 46.8699 84.4205 46.7665 84.2879C46.6657 84.1527 46.5278 84.0413 46.3528 83.9538C46.1778 83.8663 45.9538 83.8226 45.6807 83.8226C45.3068 83.8226 44.9952 83.9088 44.746 84.0811C44.4994 84.2508 44.3761 84.4669 44.3761 84.7294C44.3761 84.9627 44.461 85.147 44.6307 85.2822C44.8004 85.4175 45.0655 85.5302 45.4261 85.6203L46.3329 85.843C46.8791 85.9756 47.2862 86.1785 47.554 86.4516C47.8218 86.722 47.9557 87.0707 47.9557 87.4976C47.9557 87.8476 47.8549 88.1605 47.6534 88.4362C47.4545 88.712 47.1761 88.9294 46.8182 89.0885C46.4602 89.2476 46.0439 89.3271 45.5693 89.3271C44.9462 89.3271 44.4305 89.1919 44.0221 88.9215C43.6138 88.651 43.3553 88.2559 43.2466 87.7362L44.1375 87.5135C44.2223 87.8423 44.3827 88.0889 44.6187 88.2533C44.8574 88.4177 45.1689 88.4999 45.5534 88.4999C45.9909 88.4999 46.3382 88.4071 46.5954 88.2215C46.8553 88.0332 46.9852 87.8078 46.9852 87.5453C46.9852 87.3332 46.911 87.1555 46.7625 87.0124C46.614 86.8665 46.386 86.7578 46.0784 86.6862L45.0602 86.4476C44.5007 86.315 44.0898 86.1095 43.8273 85.8311C43.5674 85.55 43.4375 85.1987 43.4375 84.7771C43.4375 84.4324 43.5343 84.1275 43.7278 83.8624C43.924 83.5972 44.1905 83.3891 44.5273 83.2379C44.8666 83.0868 45.2511 83.0112 45.6807 83.0112C46.2852 83.0112 46.7598 83.1438 47.1045 83.409C47.4519 83.6741 47.6985 84.0241 47.8443 84.459ZM51.8504 89.3271C51.2777 89.3271 50.7845 89.1919 50.3709 88.9215C49.9572 88.651 49.639 88.2785 49.4163 87.8038C49.1936 87.3292 49.0822 86.787 49.0822 86.1771C49.0822 85.5567 49.1962 85.0091 49.4243 84.5345C49.655 84.0572 49.9758 83.6847 50.3868 83.4169C50.8004 83.1465 51.283 83.0112 51.8345 83.0112C52.264 83.0112 52.6512 83.0908 52.9959 83.2499C53.3406 83.409 53.6229 83.6317 53.843 83.918C54.0631 84.2044 54.1996 84.5385 54.2527 84.9203H53.314C53.2425 84.6419 53.0834 84.3953 52.8368 84.1805C52.5928 83.9631 52.264 83.8544 51.8504 83.8544C51.4845 83.8544 51.1637 83.9499 50.8879 84.1408C50.6148 84.329 50.4014 84.5955 50.2476 84.9402C50.0964 85.2822 50.0209 85.684 50.0209 86.1453C50.0209 86.6173 50.0951 87.0283 50.2436 87.3783C50.3947 87.7283 50.6068 88 50.88 88.1936C51.1557 88.3872 51.4792 88.484 51.8504 88.484C52.0943 88.484 52.3157 88.4415 52.5146 88.3567C52.7135 88.2718 52.8818 88.1499 53.0197 87.9908C53.1576 87.8317 53.2557 87.6408 53.314 87.418H54.2527C54.1996 87.7786 54.0684 88.1035 53.8589 88.3925C53.6521 88.6788 53.3777 88.9069 53.0356 89.0766C52.6962 89.2436 52.3012 89.3271 51.8504 89.3271ZM55.6248 89.1999V83.0908H56.5635V89.1999H55.6248ZM56.1021 82.0726C55.9192 82.0726 55.7614 82.0103 55.6288 81.8857C55.4989 81.761 55.4339 81.6112 55.4339 81.4362C55.4339 81.2612 55.4989 81.1114 55.6288 80.9868C55.7614 80.8622 55.9192 80.7999 56.1021 80.7999C56.2851 80.7999 56.4415 80.8622 56.5714 80.9868C56.704 81.1114 56.7703 81.2612 56.7703 81.4362C56.7703 81.6112 56.704 81.761 56.5714 81.8857C56.4415 82.0103 56.2851 82.0726 56.1021 82.0726ZM59.2213 85.5249V89.1999H58.2826V83.0908H59.1895V84.0453H59.269C59.4122 83.7351 59.6296 83.4858 59.9213 83.2976C60.213 83.1067 60.5895 83.0112 61.0508 83.0112C61.4645 83.0112 61.8264 83.0961 62.1366 83.2658C62.4469 83.4328 62.6881 83.6874 62.8605 84.0294C63.0328 84.3688 63.119 84.7983 63.119 85.318V89.1999H62.1804V85.3817C62.1804 84.9018 62.0558 84.5279 61.8065 84.2601C61.5573 83.9896 61.2152 83.8544 60.7804 83.8544C60.4808 83.8544 60.213 83.9194 59.977 84.0493C59.7436 84.1792 59.5594 84.3688 59.4241 84.618C59.2889 84.8673 59.2213 85.1696 59.2213 85.5249ZM67.3001 91.618C66.8467 91.618 66.4569 91.5597 66.1308 91.443C65.8047 91.329 65.5329 91.1779 65.3155 90.9896C65.1007 90.804 64.9297 90.6052 64.8024 90.393L65.5501 89.868C65.635 89.9794 65.7424 90.1067 65.8723 90.2499C66.0022 90.3957 66.1799 90.5216 66.4052 90.6277C66.6333 90.7364 66.9316 90.7908 67.3001 90.7908C67.7933 90.7908 68.2003 90.6715 68.5211 90.4328C68.842 90.1942 69.0024 89.8203 69.0024 89.3112V88.0703H68.9228C68.8539 88.1817 68.7558 88.3196 68.6285 88.484C68.5039 88.6457 68.3236 88.7902 68.0876 88.9175C67.8543 89.0421 67.5388 89.1044 67.141 89.1044C66.6478 89.1044 66.205 88.9877 65.8126 88.7544C65.4228 88.5211 65.1139 88.1817 64.8859 87.7362C64.6605 87.2908 64.5478 86.7499 64.5478 86.1135C64.5478 85.4877 64.6579 84.9429 64.878 84.4788C65.098 84.0122 65.4043 83.6516 65.7967 83.397C66.1891 83.1398 66.6425 83.0112 67.1569 83.0112C67.5547 83.0112 67.8702 83.0775 68.1035 83.2101C68.3395 83.34 68.5198 83.4885 68.6444 83.6555C68.7717 83.8199 68.8698 83.9552 68.9388 84.0612H69.0342V83.0908H69.941V89.3749C69.941 89.8999 69.8217 90.3268 69.5831 90.6555C69.3471 90.987 69.0289 91.2296 68.6285 91.3834C68.2308 91.5398 67.788 91.618 67.3001 91.618ZM67.2683 88.2612C67.6448 88.2612 67.963 88.175 68.2228 88.0027C68.4827 87.8304 68.6802 87.5824 68.8155 87.259C68.9507 86.9355 69.0183 86.5483 69.0183 86.0976C69.0183 85.6574 68.952 85.269 68.8194 84.9322C68.6869 84.5955 68.4907 84.3317 68.2308 84.1408C67.971 83.9499 67.6501 83.8544 67.2683 83.8544C66.8706 83.8544 66.5391 83.9552 66.274 84.1567C66.0115 84.3582 65.8139 84.6286 65.6814 84.968C65.5514 85.3074 65.4865 85.684 65.4865 86.0976C65.4865 86.5218 65.5528 86.897 65.6853 87.2232C65.8206 87.5466 66.0194 87.8012 66.2819 87.9868C66.5471 88.1697 66.8759 88.2612 67.2683 88.2612ZM77.3706 89.3271C76.7819 89.3271 76.2742 89.1972 75.8473 88.9374C75.423 88.6749 75.0956 88.309 74.8649 87.8396C74.6369 87.3677 74.5228 86.8188 74.5228 86.193C74.5228 85.5673 74.6369 85.0158 74.8649 84.5385C75.0956 84.0586 75.4164 83.6847 75.8274 83.4169C76.241 83.1465 76.7236 83.0112 77.2751 83.0112C77.5933 83.0112 77.9075 83.0643 78.2177 83.1703C78.528 83.2764 78.8103 83.4487 79.0649 83.6874C79.3194 83.9233 79.5223 84.2362 79.6734 84.626C79.8246 85.0158 79.9001 85.4957 79.9001 86.0658V86.4635H75.191V85.6521H78.9456C78.9456 85.3074 78.8766 84.9999 78.7388 84.7294C78.6035 84.459 78.41 84.2455 78.1581 84.0891C77.9088 83.9326 77.6145 83.8544 77.2751 83.8544C76.9013 83.8544 76.5778 83.9472 76.3047 84.1328C76.0342 84.3158 75.8261 84.5544 75.6802 84.8487C75.5344 85.143 75.4615 85.4586 75.4615 85.7953V86.3362C75.4615 86.7976 75.541 87.1887 75.7001 87.5095C75.8619 87.8277 76.0859 88.0703 76.3723 88.2374C76.6586 88.4018 76.9914 88.484 77.3706 88.484C77.6172 88.484 77.8399 88.4495 78.0388 88.3805C78.2403 88.309 78.4139 88.2029 78.5598 88.0624C78.7056 87.9192 78.8183 87.7415 78.8978 87.5294L79.8047 87.784C79.7092 88.0915 79.5488 88.362 79.3234 88.5953C79.098 88.826 78.8196 89.0063 78.4882 89.1362C78.1567 89.2635 77.7842 89.3271 77.3706 89.3271ZM82.2666 81.0544V89.1999H81.328V81.0544H82.2666ZM83.9858 89.1999V83.0908H84.9244V89.1999H83.9858ZM84.463 82.0726C84.2801 82.0726 84.1223 82.0103 83.9898 81.8857C83.8598 81.761 83.7949 81.6112 83.7949 81.4362C83.7949 81.2612 83.8598 81.1114 83.9898 80.9868C84.1223 80.8622 84.2801 80.7999 84.463 80.7999C84.646 80.7999 84.8024 80.8622 84.9324 80.9868C85.0649 81.1114 85.1312 81.2612 85.1312 81.4362C85.1312 81.6112 85.0649 81.761 84.9324 81.8857C84.8024 82.0103 84.646 82.0726 84.463 82.0726ZM89.3004 83.0908V83.8862H86.1345V83.0908H89.3004ZM87.0572 81.6271H87.9959V87.4499C87.9959 87.715 88.0343 87.9139 88.1112 88.0465C88.1907 88.1764 88.2915 88.2639 88.4135 88.309C88.5381 88.3514 88.6693 88.3726 88.8072 88.3726C88.9106 88.3726 88.9955 88.3673 89.0618 88.3567C89.1281 88.3434 89.1811 88.3328 89.2209 88.3249L89.4118 89.168C89.3481 89.1919 89.2593 89.2158 89.1453 89.2396C89.0313 89.2661 88.8868 89.2794 88.7118 89.2794C88.4466 89.2794 88.1868 89.2224 87.9322 89.1084C87.6803 88.9944 87.4709 88.8207 87.3038 88.5874C87.1394 88.354 87.0572 88.0597 87.0572 87.7044V81.6271ZM91.3964 89.2635C91.2002 89.2635 91.0318 89.1932 90.8913 89.0527C90.7508 88.9122 90.6805 88.7438 90.6805 88.5476C90.6805 88.3514 90.7508 88.183 90.8913 88.0425C91.0318 87.9019 91.2002 87.8317 91.3964 87.8317C91.5926 87.8317 91.761 87.9019 91.9015 88.0425C92.0421 88.183 92.1123 88.3514 92.1123 88.5476C92.1123 88.6775 92.0792 88.7968 92.0129 88.9055C91.9493 89.0143 91.8631 89.1018 91.7544 89.168C91.6483 89.2317 91.529 89.2635 91.3964 89.2635ZM97.074 89.1999V81.0544H99.8263C100.465 81.0544 100.988 81.1697 101.393 81.4004C101.802 81.6285 102.104 81.9374 102.3 82.3271C102.496 82.7169 102.594 83.1518 102.594 83.6317C102.594 84.1116 102.496 84.5478 102.3 84.9402C102.107 85.3326 101.807 85.6455 101.401 85.8788C100.996 86.1095 100.476 86.2249 99.8422 86.2249H97.8694V85.3499H99.8103C100.248 85.3499 100.599 85.2743 100.864 85.1232C101.129 84.972 101.322 84.7679 101.441 84.5107C101.563 84.2508 101.624 83.9578 101.624 83.6317C101.624 83.3055 101.563 83.0139 101.441 82.7567C101.322 82.4995 101.128 82.298 100.86 82.1521C100.593 82.0036 100.237 81.9294 99.7944 81.9294H98.0603V89.1999H97.074ZM104.056 89.1999V83.0908H104.963V84.0135H105.027C105.138 83.7112 105.339 83.466 105.631 83.2777C105.923 83.0894 106.252 82.9953 106.617 82.9953C106.686 82.9953 106.773 82.9966 106.876 82.9993C106.979 83.0019 107.058 83.0059 107.111 83.0112V83.9658C107.079 83.9578 107.006 83.9459 106.892 83.93C106.781 83.9114 106.663 83.9021 106.538 83.9021C106.241 83.9021 105.976 83.9644 105.742 84.0891C105.512 84.211 105.329 84.3807 105.194 84.5982C105.061 84.8129 104.995 85.0582 104.995 85.334V89.1999H104.056ZM110.021 89.343C109.634 89.343 109.283 89.2701 108.967 89.1243C108.651 88.9758 108.401 88.7624 108.215 88.484C108.03 88.2029 107.937 87.8635 107.937 87.4658C107.937 87.1158 108.006 86.8321 108.144 86.6146C108.282 86.3946 108.466 86.2222 108.697 86.0976C108.927 85.973 109.182 85.8802 109.46 85.8192C109.741 85.7555 110.024 85.7052 110.307 85.668C110.679 85.6203 110.98 85.5845 111.21 85.5607C111.444 85.5341 111.613 85.4904 111.719 85.4294C111.828 85.3684 111.882 85.2624 111.882 85.1112V85.0794C111.882 84.687 111.775 84.3821 111.56 84.1646C111.348 83.9472 111.026 83.8385 110.594 83.8385C110.146 83.8385 109.794 83.9366 109.54 84.1328C109.285 84.329 109.106 84.5385 109.003 84.7612L108.112 84.443C108.271 84.0718 108.483 83.7828 108.748 83.576C109.016 83.3665 109.308 83.2207 109.623 83.1385C109.941 83.0536 110.254 83.0112 110.562 83.0112C110.758 83.0112 110.983 83.0351 111.238 83.0828C111.495 83.1279 111.743 83.222 111.982 83.3652C112.223 83.5084 112.423 83.7245 112.582 84.0135C112.741 84.3025 112.821 84.6896 112.821 85.1749V89.1999H111.882V88.3726H111.835C111.771 88.5052 111.665 88.647 111.516 88.7982C111.368 88.9493 111.17 89.0779 110.924 89.184C110.677 89.29 110.376 89.343 110.021 89.343ZM110.164 88.4999C110.535 88.4999 110.848 88.4269 111.103 88.2811C111.36 88.1353 111.554 87.947 111.683 87.7163C111.816 87.4857 111.882 87.243 111.882 86.9885V86.1294C111.843 86.1771 111.755 86.2209 111.62 86.2607C111.487 86.2978 111.333 86.3309 111.158 86.3601C110.986 86.3866 110.818 86.4105 110.653 86.4317C110.492 86.4502 110.36 86.4661 110.26 86.4794C110.016 86.5112 109.788 86.5629 109.576 86.6345C109.366 86.7035 109.196 86.8082 109.066 86.9487C108.939 87.0866 108.876 87.2749 108.876 87.5135C108.876 87.8396 108.996 88.0862 109.237 88.2533C109.481 88.4177 109.79 88.4999 110.164 88.4999ZM117.096 89.3271C116.507 89.3271 115.999 89.1972 115.572 88.9374C115.148 88.6749 114.821 88.309 114.59 87.8396C114.362 87.3677 114.248 86.8188 114.248 86.193C114.248 85.5673 114.362 85.0158 114.59 84.5385C114.821 84.0586 115.141 83.6847 115.552 83.4169C115.966 83.1465 116.449 83.0112 117 83.0112C117.318 83.0112 117.633 83.0643 117.943 83.1703C118.253 83.2764 118.535 83.4487 118.79 83.6874C119.044 83.9233 119.247 84.2362 119.398 84.626C119.55 85.0158 119.625 85.4957 119.625 86.0658V86.4635H114.916V85.6521H118.671C118.671 85.3074 118.602 84.9999 118.464 84.7294C118.329 84.459 118.135 84.2455 117.883 84.0891C117.634 83.9326 117.34 83.8544 117 83.8544C116.626 83.8544 116.303 83.9472 116.03 84.1328C115.759 84.3158 115.551 84.5544 115.405 84.8487C115.259 85.143 115.186 85.4586 115.186 85.7953V86.3362C115.186 86.7976 115.266 87.1887 115.425 87.5095C115.587 87.8277 115.811 88.0703 116.097 88.2374C116.384 88.4018 116.716 88.484 117.096 88.484C117.342 88.484 117.565 88.4495 117.764 88.3805C117.965 88.309 118.139 88.2029 118.285 88.0624C118.431 87.9192 118.543 87.7415 118.623 87.5294L119.53 87.784C119.434 88.0915 119.274 88.362 119.048 88.5953C118.823 88.826 118.545 89.0063 118.213 89.1362C117.882 89.2635 117.509 89.3271 117.096 89.3271ZM125.38 84.459L124.537 84.6976C124.484 84.5571 124.406 84.4205 124.302 84.2879C124.202 84.1527 124.064 84.0413 123.889 83.9538C123.714 83.8663 123.49 83.8226 123.217 83.8226C122.843 83.8226 122.531 83.9088 122.282 84.0811C122.035 84.2508 121.912 84.4669 121.912 84.7294C121.912 84.9627 121.997 85.147 122.167 85.2822C122.336 85.4175 122.601 85.5302 122.962 85.6203L123.869 85.843C124.415 85.9756 124.822 86.1785 125.09 86.4516C125.358 86.722 125.492 87.0707 125.492 87.4976C125.492 87.8476 125.391 88.1605 125.189 88.4362C124.99 88.712 124.712 88.9294 124.354 89.0885C123.996 89.2476 123.58 89.3271 123.105 89.3271C122.482 89.3271 121.966 89.1919 121.558 88.9215C121.15 88.651 120.891 88.2559 120.783 87.7362L121.673 87.5135C121.758 87.8423 121.919 88.0889 122.155 88.2533C122.393 88.4177 122.705 88.4999 123.089 88.4999C123.527 88.4999 123.874 88.4071 124.131 88.2215C124.391 88.0332 124.521 87.8078 124.521 87.5453C124.521 87.3332 124.447 87.1555 124.298 87.0124C124.15 86.8665 123.922 86.7578 123.614 86.6862L122.596 86.4476C122.037 86.315 121.626 86.1095 121.363 85.8311C121.103 85.55 120.973 85.1987 120.973 84.7771C120.973 84.4324 121.07 84.1275 121.264 83.8624C121.46 83.5972 121.726 83.3891 122.063 83.2379C122.403 83.0868 122.787 83.0112 123.217 83.0112C123.821 83.0112 124.296 83.1438 124.64 83.409C124.988 83.6741 125.234 84.0241 125.38 84.459ZM129.466 89.3271C128.877 89.3271 128.369 89.1972 127.943 88.9374C127.518 88.6749 127.191 88.309 126.96 87.8396C126.732 87.3677 126.618 86.8188 126.618 86.193C126.618 85.5673 126.732 85.0158 126.96 84.5385C127.191 84.0586 127.512 83.6847 127.923 83.4169C128.336 83.1465 128.819 83.0112 129.37 83.0112C129.689 83.0112 130.003 83.0643 130.313 83.1703C130.623 83.2764 130.906 83.4487 131.16 83.6874C131.415 83.9233 131.618 84.2362 131.769 84.626C131.92 85.0158 131.995 85.4957 131.995 86.0658V86.4635H127.286V85.6521H131.041C131.041 85.3074 130.972 84.9999 130.834 84.7294C130.699 84.459 130.505 84.2455 130.253 84.0891C130.004 83.9326 129.71 83.8544 129.37 83.8544C128.997 83.8544 128.673 83.9472 128.4 84.1328C128.13 84.3158 127.921 84.5544 127.776 84.8487C127.63 85.143 127.557 85.4586 127.557 85.7953V86.3362C127.557 86.7976 127.636 87.1887 127.795 87.5095C127.957 87.8277 128.181 88.0703 128.468 88.2374C128.754 88.4018 129.087 88.484 129.466 88.484C129.712 88.484 129.935 88.4495 130.134 88.3805C130.336 88.309 130.509 88.2029 130.655 88.0624C130.801 87.9192 130.914 87.7415 130.993 87.5294L131.9 87.784C131.805 88.0915 131.644 88.362 131.419 88.5953C131.193 88.826 130.915 89.0063 130.584 89.1362C130.252 89.2635 129.88 89.3271 129.466 89.3271ZM134.362 85.5249V89.1999H133.423V83.0908H134.33V84.0453H134.41C134.553 83.7351 134.77 83.4858 135.062 83.2976C135.354 83.1067 135.73 83.0112 136.191 83.0112C136.605 83.0112 136.967 83.0961 137.277 83.2658C137.587 83.4328 137.829 83.6874 138.001 84.0294C138.173 84.3688 138.26 84.7983 138.26 85.318V89.1999H137.321V85.3817C137.321 84.9018 137.196 84.5279 136.947 84.2601C136.698 83.9896 136.356 83.8544 135.921 83.8544C135.621 83.8544 135.354 83.9194 135.118 84.0493C134.884 84.1792 134.7 84.3688 134.565 84.618C134.43 84.8673 134.362 85.1696 134.362 85.5249ZM142.632 83.0908V83.8862H139.466V83.0908H142.632ZM140.388 81.6271H141.327V87.4499C141.327 87.715 141.366 87.9139 141.442 88.0465C141.522 88.1764 141.623 88.2639 141.745 88.309C141.869 88.3514 142.001 88.3726 142.138 88.3726C142.242 88.3726 142.327 88.3673 142.393 88.3567C142.459 88.3434 142.512 88.3328 142.552 88.3249L142.743 89.168C142.679 89.1919 142.591 89.2158 142.477 89.2396C142.363 89.2661 142.218 89.2794 142.043 89.2794C141.778 89.2794 141.518 89.2224 141.263 89.1084C141.012 88.9944 140.802 88.8207 140.635 88.5874C140.471 88.354 140.388 88.0597 140.388 87.7044V81.6271ZM149.659 91.618C149.206 91.618 148.816 91.5597 148.49 91.443C148.164 91.329 147.892 91.1779 147.675 90.9896C147.46 90.804 147.289 90.6052 147.162 90.393L147.909 89.868C147.994 89.9794 148.102 90.1067 148.232 90.2499C148.362 90.3957 148.539 90.5216 148.765 90.6277C148.993 90.7364 149.291 90.7908 149.659 90.7908C150.153 90.7908 150.56 90.6715 150.881 90.4328C151.201 90.1942 151.362 89.8203 151.362 89.3112V88.0703H151.282C151.213 88.1817 151.115 88.3196 150.988 88.484C150.863 88.6457 150.683 88.7902 150.447 88.9175C150.214 89.0421 149.898 89.1044 149.5 89.1044C149.007 89.1044 148.564 88.9877 148.172 88.7544C147.782 88.5211 147.473 88.1817 147.245 87.7362C147.02 87.2908 146.907 86.7499 146.907 86.1135C146.907 85.4877 147.017 84.9429 147.237 84.4788C147.457 84.0122 147.764 83.6516 148.156 83.397C148.549 83.1398 149.002 83.0112 149.516 83.0112C149.914 83.0112 150.23 83.0775 150.463 83.2101C150.699 83.34 150.879 83.4885 151.004 83.6555C151.131 83.8199 151.229 83.9552 151.298 84.0612H151.394V83.0908H152.3V89.3749C152.3 89.8999 152.181 90.3268 151.942 90.6555C151.706 90.987 151.388 91.2296 150.988 91.3834C150.59 91.5398 150.147 91.618 149.659 91.618ZM149.628 88.2612C150.004 88.2612 150.322 88.175 150.582 88.0027C150.842 87.8304 151.04 87.5824 151.175 87.259C151.31 86.9355 151.378 86.5483 151.378 86.0976C151.378 85.6574 151.311 85.269 151.179 84.9322C151.046 84.5955 150.85 84.3317 150.59 84.1408C150.33 83.9499 150.009 83.8544 149.628 83.8544C149.23 83.8544 148.899 83.9552 148.633 84.1567C148.371 84.3582 148.173 84.6286 148.041 84.968C147.911 85.3074 147.846 85.684 147.846 86.0976C147.846 86.5218 147.912 86.897 148.045 87.2232C148.18 87.5466 148.379 87.8012 148.641 87.9868C148.906 88.1697 149.235 88.2612 149.628 88.2612ZM154.019 89.1999V83.0908H154.925V84.0135H154.989C155.1 83.7112 155.302 83.466 155.594 83.2777C155.885 83.0894 156.214 82.9953 156.58 82.9953C156.649 82.9953 156.735 82.9966 156.838 82.9993C156.942 83.0019 157.02 83.0059 157.073 83.0112V83.9658C157.041 83.9578 156.968 83.9459 156.854 83.93C156.743 83.9114 156.625 83.9021 156.5 83.9021C156.203 83.9021 155.938 83.9644 155.705 84.0891C155.474 84.211 155.291 84.3807 155.156 84.5982C155.024 84.8129 154.957 85.0582 154.957 85.334V89.1999H154.019ZM159.983 89.343C159.596 89.343 159.245 89.2701 158.93 89.1243C158.614 88.9758 158.363 88.7624 158.178 88.484C157.992 88.2029 157.899 87.8635 157.899 87.4658C157.899 87.1158 157.968 86.8321 158.106 86.6146C158.244 86.3946 158.428 86.2222 158.659 86.0976C158.89 85.973 159.144 85.8802 159.423 85.8192C159.704 85.7555 159.986 85.7052 160.27 85.668C160.641 85.6203 160.942 85.5845 161.173 85.5607C161.406 85.5341 161.576 85.4904 161.682 85.4294C161.791 85.3684 161.845 85.2624 161.845 85.1112V85.0794C161.845 84.687 161.737 84.3821 161.523 84.1646C161.311 83.9472 160.988 83.8385 160.556 83.8385C160.108 83.8385 159.757 83.9366 159.502 84.1328C159.248 84.329 159.069 84.5385 158.965 84.7612L158.074 84.443C158.233 84.0718 158.446 83.7828 158.711 83.576C158.979 83.3665 159.27 83.2207 159.586 83.1385C159.904 83.0536 160.217 83.0112 160.524 83.0112C160.721 83.0112 160.946 83.0351 161.201 83.0828C161.458 83.1279 161.706 83.222 161.944 83.3652C162.186 83.5084 162.386 83.7245 162.545 84.0135C162.704 84.3025 162.783 84.6896 162.783 85.1749V89.1999H161.845V88.3726H161.797C161.733 88.5052 161.627 88.647 161.479 88.7982C161.33 88.9493 161.133 89.0779 160.886 89.184C160.64 89.29 160.339 89.343 159.983 89.343ZM160.127 88.4999C160.498 88.4999 160.811 88.4269 161.065 88.2811C161.323 88.1353 161.516 87.947 161.646 87.7163C161.779 87.4857 161.845 87.243 161.845 86.9885V86.1294C161.805 86.1771 161.718 86.2209 161.582 86.2607C161.45 86.2978 161.296 86.3309 161.121 86.3601C160.949 86.3866 160.78 86.4105 160.616 86.4317C160.454 86.4502 160.323 86.4661 160.222 86.4794C159.978 86.5112 159.75 86.5629 159.538 86.6345C159.329 86.7035 159.159 86.8082 159.029 86.9487C158.902 87.0866 158.838 87.2749 158.838 87.5135C158.838 87.8396 158.959 88.0862 159.2 88.2533C159.444 88.4177 159.753 88.4999 160.127 88.4999ZM169.273 83.0908L167.014 89.1999H166.06L163.801 83.0908H164.819L166.505 87.959H166.569L168.255 83.0908H169.273ZM170.512 89.1999V83.0908H171.451V89.1999H170.512ZM170.99 82.0726C170.807 82.0726 170.649 82.0103 170.516 81.8857C170.386 81.761 170.321 81.6112 170.321 81.4362C170.321 81.2612 170.386 81.1114 170.516 80.9868C170.649 80.8622 170.807 80.7999 170.99 80.7999C171.173 80.7999 171.329 80.8622 171.459 80.9868C171.592 81.1114 171.658 81.2612 171.658 81.4362C171.658 81.6112 171.592 81.761 171.459 81.8857C171.329 82.0103 171.173 82.0726 170.99 82.0726ZM175.477 89.3271C174.968 89.3271 174.518 89.1985 174.129 88.9413C173.739 88.6815 173.434 88.3156 173.214 87.8436C172.994 87.369 172.884 86.8082 172.884 86.1612C172.884 85.5196 172.994 84.9627 173.214 84.4908C173.434 84.0188 173.74 83.6542 174.133 83.397C174.525 83.1398 174.978 83.0112 175.493 83.0112C175.891 83.0112 176.205 83.0775 176.435 83.2101C176.669 83.34 176.846 83.4885 176.968 83.6555C177.093 83.8199 177.19 83.9552 177.259 84.0612H177.338V81.0544H178.277V89.1999H177.37V88.2612H177.259C177.19 88.3726 177.092 88.5131 176.964 88.6828C176.837 88.8499 176.656 88.9997 176.42 89.1322C176.184 89.2622 175.869 89.3271 175.477 89.3271ZM175.604 88.484C175.981 88.484 176.299 88.3858 176.559 88.1896C176.819 87.9908 177.016 87.7163 177.151 87.3663C177.287 87.0137 177.354 86.6067 177.354 86.1453C177.354 85.6893 177.288 85.2902 177.155 84.9482C177.023 84.6035 176.827 84.3357 176.567 84.1447C176.307 83.9512 175.986 83.8544 175.604 83.8544C175.207 83.8544 174.875 83.9565 174.61 84.1607C174.347 84.3622 174.15 84.6366 174.017 84.984C173.887 85.3286 173.822 85.7158 173.822 86.1453C173.822 86.5802 173.889 86.9752 174.021 87.3305C174.157 87.6832 174.355 87.9643 174.618 88.1737C174.883 88.3805 175.212 88.484 175.604 88.484ZM181.924 89.343C181.537 89.343 181.186 89.2701 180.87 89.1243C180.555 88.9758 180.304 88.7624 180.118 88.484C179.933 88.2029 179.84 87.8635 179.84 87.4658C179.84 87.1158 179.909 86.8321 180.047 86.6146C180.185 86.3946 180.369 86.2222 180.6 86.0976C180.83 85.973 181.085 85.8802 181.363 85.8192C181.644 85.7555 181.927 85.7052 182.21 85.668C182.582 85.6203 182.883 85.5845 183.113 85.5607C183.347 85.5341 183.516 85.4904 183.622 85.4294C183.731 85.3684 183.785 85.2624 183.785 85.1112V85.0794C183.785 84.687 183.678 84.3821 183.463 84.1646C183.251 83.9472 182.929 83.8385 182.497 83.8385C182.049 83.8385 181.697 83.9366 181.443 84.1328C181.188 84.329 181.009 84.5385 180.906 84.7612L180.015 84.443C180.174 84.0718 180.386 83.7828 180.651 83.576C180.919 83.3665 181.211 83.2207 181.526 83.1385C181.845 83.0536 182.157 83.0112 182.465 83.0112C182.661 83.0112 182.887 83.0351 183.141 83.0828C183.398 83.1279 183.646 83.222 183.885 83.3652C184.126 83.5084 184.326 83.7245 184.485 84.0135C184.645 84.3025 184.724 84.6896 184.724 85.1749V89.1999H183.785V88.3726H183.738C183.674 88.5052 183.568 88.647 183.42 88.7982C183.271 88.9493 183.074 89.0779 182.827 89.184C182.58 89.29 182.279 89.343 181.924 89.343ZM182.067 88.4999C182.439 88.4999 182.751 88.4269 183.006 88.2811C183.263 88.1353 183.457 87.947 183.587 87.7163C183.719 87.4857 183.785 87.243 183.785 86.9885V86.1294C183.746 86.1771 183.658 86.2209 183.523 86.2607C183.39 86.2978 183.237 86.3309 183.062 86.3601C182.889 86.3866 182.721 86.4105 182.557 86.4317C182.395 86.4502 182.264 86.4661 182.163 86.4794C181.919 86.5112 181.691 86.5629 181.479 86.6345C181.269 86.7035 181.1 86.8082 180.97 86.9487C180.842 87.0866 180.779 87.2749 180.779 87.5135C180.779 87.8396 180.899 88.0862 181.141 88.2533C181.385 88.4177 181.693 88.4999 182.067 88.4999ZM192.244 83.0908V83.8862H189.078V83.0908H192.244ZM190.001 81.6271H190.94V87.4499C190.94 87.715 190.978 87.9139 191.055 88.0465C191.134 88.1764 191.235 88.2639 191.357 88.309C191.482 88.3514 191.613 88.3726 191.751 88.3726C191.854 88.3726 191.939 88.3673 192.006 88.3567C192.072 88.3434 192.125 88.3328 192.165 88.3249L192.356 89.168C192.292 89.1919 192.203 89.2158 192.089 89.2396C191.975 89.2661 191.831 89.2794 191.656 89.2794C191.39 89.2794 191.131 89.2224 190.876 89.1084C190.624 88.9944 190.415 88.8207 190.248 88.5874C190.083 88.354 190.001 88.0597 190.001 87.7044V81.6271ZM197.506 86.7021V83.0908H198.445V89.1999H197.506V88.1658H197.442C197.299 88.476 197.077 88.7398 196.774 88.9572C196.472 89.172 196.09 89.2794 195.629 89.2794C195.247 89.2794 194.908 89.1959 194.611 89.0288C194.314 88.8591 194.08 88.6046 193.911 88.2652C193.741 87.9232 193.656 87.4923 193.656 86.9726V83.0908H194.595V86.909C194.595 87.3544 194.719 87.7097 194.969 87.9749C195.22 88.24 195.541 88.3726 195.931 88.3726C196.164 88.3726 196.402 88.3129 196.643 88.1936C196.887 88.0743 197.091 87.8913 197.256 87.6447C197.423 87.3982 197.506 87.084 197.506 86.7021ZM200.164 89.1999V83.0908H201.071V84.0135H201.134C201.246 83.7112 201.447 83.466 201.739 83.2777C202.031 83.0894 202.359 82.9953 202.725 82.9953C202.794 82.9953 202.88 82.9966 202.984 82.9993C203.087 83.0019 203.165 83.0059 203.218 83.0112V83.9658C203.187 83.9578 203.114 83.9459 203 83.93C202.888 83.9114 202.77 83.9021 202.646 83.9021C202.349 83.9021 202.084 83.9644 201.85 84.0891C201.62 84.211 201.437 84.3807 201.301 84.5982C201.169 84.8129 201.103 85.0582 201.103 85.334V89.1999H200.164ZM204.331 91.4908V83.0908H205.238V84.0612H205.349C205.418 83.9552 205.514 83.8199 205.636 83.6555C205.76 83.4885 205.938 83.34 206.169 83.2101C206.402 83.0775 206.717 83.0112 207.115 83.0112C207.63 83.0112 208.083 83.1398 208.475 83.397C208.868 83.6542 209.174 84.0188 209.394 84.4908C209.614 84.9627 209.724 85.5196 209.724 86.1612C209.724 86.8082 209.614 87.369 209.394 87.8436C209.174 88.3156 208.869 88.6815 208.479 88.9413C208.09 89.1985 207.64 89.3271 207.131 89.3271C206.739 89.3271 206.424 89.2622 206.188 89.1322C205.952 88.9997 205.771 88.8499 205.644 88.6828C205.516 88.5131 205.418 88.3726 205.349 88.2612H205.27V91.4908H204.331ZM205.254 86.1453C205.254 86.6067 205.321 87.0137 205.457 87.3663C205.592 87.7163 205.789 87.9908 206.049 88.1896C206.309 88.3858 206.627 88.484 207.004 88.484C207.396 88.484 207.724 88.3805 207.986 88.1737C208.251 87.9643 208.45 87.6832 208.583 87.3305C208.718 86.9752 208.786 86.5802 208.786 86.1453C208.786 85.7158 208.719 85.3286 208.587 84.984C208.457 84.6366 208.259 84.3622 207.994 84.1607C207.732 83.9565 207.402 83.8544 207.004 83.8544C206.622 83.8544 206.301 83.9512 206.041 84.1447C205.781 84.3357 205.585 84.6035 205.453 84.9482C205.32 85.2902 205.254 85.6893 205.254 86.1453ZM211.156 89.1999V83.0908H212.095V89.1999H211.156ZM211.633 82.0726C211.45 82.0726 211.293 82.0103 211.16 81.8857C211.03 81.761 210.965 81.6112 210.965 81.4362C210.965 81.2612 211.03 81.1114 211.16 80.9868C211.293 80.8622 211.45 80.7999 211.633 80.7999C211.816 80.7999 211.973 80.8622 212.103 80.9868C212.235 81.1114 212.302 81.2612 212.302 81.4362C212.302 81.6112 212.235 81.761 212.103 81.8857C211.973 82.0103 211.816 82.0726 211.633 82.0726ZM218.141 84.459L217.298 84.6976C217.245 84.5571 217.167 84.4205 217.063 84.2879C216.963 84.1527 216.825 84.0413 216.65 83.9538C216.475 83.8663 216.251 83.8226 215.978 83.8226C215.604 83.8226 215.292 83.9088 215.043 84.0811C214.796 84.2508 214.673 84.4669 214.673 84.7294C214.673 84.9627 214.758 85.147 214.928 85.2822C215.097 85.4175 215.362 85.5302 215.723 85.6203L216.63 85.843C217.176 85.9756 217.583 86.1785 217.851 86.4516C218.119 86.722 218.253 87.0707 218.253 87.4976C218.253 87.8476 218.152 88.1605 217.95 88.4362C217.751 88.712 217.473 88.9294 217.115 89.0885C216.757 89.2476 216.341 89.3271 215.866 89.3271C215.243 89.3271 214.727 89.1919 214.319 88.9215C213.911 88.651 213.652 88.2559 213.543 87.7362L214.434 87.5135C214.519 87.8423 214.68 88.0889 214.916 88.2533C215.154 88.4177 215.466 88.4999 215.85 88.4999C216.288 88.4999 216.635 88.4071 216.892 88.2215C217.152 88.0332 217.282 87.8078 217.282 87.5453C217.282 87.3332 217.208 87.1555 217.059 87.0124C216.911 86.8665 216.683 86.7578 216.375 86.6862L215.357 86.4476C214.798 86.315 214.387 86.1095 214.124 85.8311C213.864 85.55 213.734 85.1987 213.734 84.7771C213.734 84.4324 213.831 84.1275 214.025 83.8624C214.221 83.5972 214.487 83.3891 214.824 83.2379C215.164 83.0868 215.548 83.0112 215.978 83.0112C216.582 83.0112 217.057 83.1438 217.401 83.409C217.749 83.6741 217.995 84.0241 218.141 84.459ZM222.815 91.4908V83.0908H223.722V84.0612H223.834C223.903 83.9552 223.998 83.8199 224.12 83.6555C224.245 83.4885 224.422 83.34 224.653 83.2101C224.886 83.0775 225.202 83.0112 225.6 83.0112C226.114 83.0112 226.567 83.1398 226.96 83.397C227.352 83.6542 227.658 84.0188 227.879 84.4908C228.099 84.9627 228.209 85.5196 228.209 86.1612C228.209 86.8082 228.099 87.369 227.879 87.8436C227.658 88.3156 227.354 88.6815 226.964 88.9413C226.574 89.1985 226.125 89.3271 225.615 89.3271C225.223 89.3271 224.909 89.2622 224.673 89.1322C224.437 88.9997 224.255 88.8499 224.128 88.6828C224.001 88.5131 223.903 88.3726 223.834 88.2612H223.754V91.4908H222.815ZM223.738 86.1453C223.738 86.6067 223.806 87.0137 223.941 87.3663C224.076 87.7163 224.274 87.9908 224.534 88.1896C224.793 88.3858 225.112 88.484 225.488 88.484C225.881 88.484 226.208 88.3805 226.471 88.1737C226.736 87.9643 226.935 87.6832 227.067 87.3305C227.202 86.9752 227.27 86.5802 227.27 86.1453C227.27 85.7158 227.204 85.3286 227.071 84.984C226.941 84.6366 226.744 84.3622 226.479 84.1607C226.216 83.9565 225.886 83.8544 225.488 83.8544C225.106 83.8544 224.786 83.9512 224.526 84.1447C224.266 84.3357 224.07 84.6035 223.937 84.9482C223.804 85.2902 223.738 85.6893 223.738 86.1453ZM229.64 89.1999V83.0908H230.547V84.0135H230.611C230.722 83.7112 230.924 83.466 231.215 83.2777C231.507 83.0894 231.836 82.9953 232.202 82.9953C232.271 82.9953 232.357 82.9966 232.46 82.9993C232.564 83.0019 232.642 83.0059 232.695 83.0112V83.9658C232.663 83.9578 232.59 83.9459 232.476 83.93C232.365 83.9114 232.247 83.9021 232.122 83.9021C231.825 83.9021 231.56 83.9644 231.327 84.0891C231.096 84.211 230.913 84.3807 230.778 84.5982C230.645 84.8129 230.579 85.0582 230.579 85.334V89.1999H229.64ZM236.183 89.3271C235.594 89.3271 235.087 89.1972 234.66 88.9374C234.236 88.6749 233.908 88.309 233.677 87.8396C233.449 87.3677 233.335 86.8188 233.335 86.193C233.335 85.5673 233.449 85.0158 233.677 84.5385C233.908 84.0586 234.229 83.6847 234.64 83.4169C235.054 83.1465 235.536 83.0112 236.088 83.0112C236.406 83.0112 236.72 83.0643 237.03 83.1703C237.34 83.2764 237.623 83.4487 237.877 83.6874C238.132 83.9233 238.335 84.2362 238.486 84.626C238.637 85.0158 238.713 85.4957 238.713 86.0658V86.4635H234.004V85.6521H237.758C237.758 85.3074 237.689 84.9999 237.551 84.7294C237.416 84.459 237.222 84.2455 236.971 84.0891C236.721 83.9326 236.427 83.8544 236.088 83.8544C235.714 83.8544 235.39 83.9472 235.117 84.1328C234.847 84.3158 234.639 84.5544 234.493 84.8487C234.347 85.143 234.274 85.4586 234.274 85.7953V86.3362C234.274 86.7976 234.354 87.1887 234.513 87.5095C234.674 87.8277 234.898 88.0703 235.185 88.2374C235.471 88.4018 235.804 88.484 236.183 88.484C236.43 88.484 236.652 88.4495 236.851 88.3805C237.053 88.309 237.226 88.2029 237.372 88.0624C237.518 87.9192 237.631 87.7415 237.71 87.5294L238.617 87.784C238.522 88.0915 238.361 88.362 238.136 88.5953C237.911 88.826 237.632 89.0063 237.301 89.1362C236.969 89.2635 236.597 89.3271 236.183 89.3271ZM242.797 83.0908V83.8862H239.631V83.0908H242.797ZM240.554 81.6271H241.493V87.4499C241.493 87.715 241.531 87.9139 241.608 88.0465C241.688 88.1764 241.788 88.2639 241.91 88.309C242.035 88.3514 242.166 88.3726 242.304 88.3726C242.408 88.3726 242.492 88.3673 242.559 88.3567C242.625 88.3434 242.678 88.3328 242.718 88.3249L242.909 89.168C242.845 89.1919 242.756 89.2158 242.642 89.2396C242.528 89.2661 242.384 89.2794 242.209 89.2794C241.943 89.2794 241.684 89.2224 241.429 89.1084C241.177 88.9944 240.968 88.8207 240.801 88.5874C240.636 88.354 240.554 88.0597 240.554 87.7044V81.6271ZM244.209 89.1999V83.0908H245.148V89.1999H244.209ZM244.686 82.0726C244.504 82.0726 244.346 82.0103 244.213 81.8857C244.083 81.761 244.018 81.6112 244.018 81.4362C244.018 81.2612 244.083 81.1114 244.213 80.9868C244.346 80.8622 244.504 80.7999 244.686 80.7999C244.869 80.7999 245.026 80.8622 245.156 80.9868C245.288 81.1114 245.355 81.2612 245.355 81.4362C245.355 81.6112 245.288 81.761 245.156 81.8857C245.026 82.0103 244.869 82.0726 244.686 82.0726ZM250.717 86.7021V83.0908H251.656V89.1999H250.717V88.1658H250.653C250.51 88.476 250.287 88.7398 249.985 88.9572C249.683 89.172 249.301 89.2794 248.84 89.2794C248.458 89.2794 248.119 89.1959 247.822 89.0288C247.525 88.8591 247.291 88.6046 247.122 88.2652C246.952 87.9232 246.867 87.4923 246.867 86.9726V83.0908H247.806V86.909C247.806 87.3544 247.93 87.7097 248.18 87.9749C248.431 88.24 248.752 88.3726 249.142 88.3726C249.375 88.3726 249.613 88.3129 249.854 88.1936C250.098 88.0743 250.302 87.8913 250.466 87.6447C250.634 87.3982 250.717 87.084 250.717 86.7021ZM253.375 89.1999V83.0908H254.282V84.0453H254.361C254.488 83.7192 254.694 83.466 254.978 83.2857C255.261 83.1027 255.602 83.0112 256 83.0112C256.403 83.0112 256.738 83.1027 257.006 83.2857C257.277 83.466 257.487 83.7192 257.638 84.0453H257.702C257.859 83.7298 258.093 83.4792 258.406 83.2936C258.719 83.1054 259.094 83.0112 259.532 83.0112C260.078 83.0112 260.525 83.1822 260.872 83.5243C261.219 83.8637 261.393 84.3927 261.393 85.1112V89.1999H260.454V85.1112C260.454 84.6605 260.331 84.3383 260.084 84.1447C259.838 83.9512 259.548 83.8544 259.213 83.8544C258.784 83.8544 258.451 83.9843 258.215 84.2442C257.979 84.5014 257.861 84.8275 257.861 85.2226V89.1999H256.907V85.0158C256.907 84.6684 256.794 84.3887 256.569 84.1766C256.343 83.9618 256.053 83.8544 255.698 83.8544C255.454 83.8544 255.226 83.9194 255.013 84.0493C254.804 84.1792 254.634 84.3595 254.504 84.5902C254.377 84.8182 254.313 85.0821 254.313 85.3817V89.1999H253.375ZM264.509 88.0862L264.446 88.5158C264.401 88.818 264.332 89.1415 264.239 89.4862C264.149 89.8309 264.054 90.1557 263.956 90.4607C263.858 90.7656 263.777 91.0082 263.714 91.1885H262.998C263.032 91.0188 263.077 90.7947 263.133 90.5163C263.189 90.2379 263.244 89.9264 263.3 89.5817C263.358 89.2396 263.406 88.8896 263.443 88.5317L263.491 88.0862H264.509ZM20.6706 111.327C20.0819 111.327 19.5742 111.197 19.1473 110.937C18.723 110.675 18.3956 110.309 18.1649 109.84C17.9369 109.368 17.8228 108.819 17.8228 108.193C17.8228 107.567 17.9369 107.016 18.1649 106.538C18.3956 106.059 18.7164 105.685 19.1274 105.417C19.541 105.146 20.0236 105.011 20.5751 105.011C20.8933 105.011 21.2075 105.064 21.5177 105.17C21.828 105.276 22.1103 105.449 22.3649 105.687C22.6194 105.923 22.8223 106.236 22.9734 106.626C23.1246 107.016 23.2001 107.496 23.2001 108.066V108.463H18.491V107.652H22.2456C22.2456 107.307 22.1766 107 22.0388 106.729C21.9035 106.459 21.71 106.246 21.4581 106.089C21.2088 105.933 20.9145 105.854 20.5751 105.854C20.2013 105.854 19.8778 105.947 19.6047 106.133C19.3342 106.316 19.1261 106.554 18.9802 106.849C18.8344 107.143 18.7615 107.459 18.7615 107.795V108.336C18.7615 108.798 18.841 109.189 19.0001 109.51C19.1619 109.828 19.3859 110.07 19.6723 110.237C19.9586 110.402 20.2914 110.484 20.6706 110.484C20.9172 110.484 21.1399 110.449 21.3388 110.381C21.5403 110.309 21.7139 110.203 21.8598 110.062C22.0056 109.919 22.1183 109.742 22.1978 109.529L23.1047 109.784C23.0092 110.092 22.8488 110.362 22.6234 110.595C22.398 110.826 22.1196 111.006 21.7882 111.136C21.4568 111.263 21.0842 111.327 20.6706 111.327ZM28.478 108.702V105.091H29.4166V111.2H28.478V110.166H28.4143C28.2711 110.476 28.0484 110.74 27.7461 110.957C27.4439 111.172 27.0621 111.279 26.6007 111.279C26.2189 111.279 25.8795 111.196 25.5825 111.029C25.2855 110.859 25.0522 110.605 24.8825 110.265C24.7128 109.923 24.628 109.492 24.628 108.973V105.091H25.5666V108.909C25.5666 109.354 25.6912 109.71 25.9405 109.975C26.1924 110.24 26.5132 110.373 26.903 110.373C27.1363 110.373 27.3736 110.313 27.6149 110.194C27.8588 110.074 28.063 109.891 28.2274 109.645C28.3944 109.398 28.478 109.084 28.478 108.702ZM31.1358 111.2V105.091H32.0744V111.2H31.1358ZM31.613 104.073C31.4301 104.073 31.2723 104.01 31.1398 103.886C31.0098 103.761 30.9449 103.611 30.9449 103.436C30.9449 103.261 31.0098 103.111 31.1398 102.987C31.2723 102.862 31.4301 102.8 31.613 102.8C31.796 102.8 31.9524 102.862 32.0824 102.987C32.2149 103.111 32.2812 103.261 32.2812 103.436C32.2812 103.611 32.2149 103.761 32.0824 103.886C31.9524 104.01 31.796 104.073 31.613 104.073ZM38.1209 106.459L37.2777 106.698C37.2246 106.557 37.1464 106.421 37.043 106.288C36.9423 106.153 36.8044 106.041 36.6294 105.954C36.4544 105.866 36.2303 105.823 35.9572 105.823C35.5834 105.823 35.2718 105.909 35.0226 106.081C34.776 106.251 34.6527 106.467 34.6527 106.729C34.6527 106.963 34.7375 107.147 34.9072 107.282C35.0769 107.417 35.3421 107.53 35.7027 107.62L36.6095 107.843C37.1557 107.976 37.5627 108.178 37.8305 108.452C38.0983 108.722 38.2322 109.071 38.2322 109.498C38.2322 109.848 38.1315 110.16 37.93 110.436C37.7311 110.712 37.4527 110.929 37.0947 111.088C36.7368 111.248 36.3205 111.327 35.8459 111.327C35.2228 111.327 34.707 111.192 34.2987 110.921C33.8904 110.651 33.6318 110.256 33.5231 109.736L34.414 109.513C34.4989 109.842 34.6593 110.089 34.8953 110.253C35.1339 110.418 35.4455 110.5 35.83 110.5C36.2675 110.5 36.6148 110.407 36.872 110.221C37.1318 110.033 37.2618 109.808 37.2618 109.545C37.2618 109.333 37.1875 109.156 37.039 109.012C36.8906 108.867 36.6625 108.758 36.355 108.686L35.3368 108.448C34.7773 108.315 34.3663 108.11 34.1038 107.831C33.844 107.55 33.714 107.199 33.714 106.777C33.714 106.432 33.8108 106.128 34.0044 105.862C34.2006 105.597 34.4671 105.389 34.8038 105.238C35.1432 105.087 35.5277 105.011 35.9572 105.011C36.5618 105.011 37.0364 105.144 37.3811 105.409C37.7284 105.674 37.975 106.024 38.1209 106.459ZM39.6451 111.2V105.091H40.552V106.045H40.6315C40.7588 105.719 40.9643 105.466 41.248 105.286C41.5317 105.103 41.8724 105.011 42.2701 105.011C42.6732 105.011 43.0086 105.103 43.2764 105.286C43.5469 105.466 43.7576 105.719 43.9088 106.045H43.9724C44.1289 105.73 44.3635 105.479 44.6764 105.294C44.9893 105.105 45.3645 105.011 45.802 105.011C46.3482 105.011 46.795 105.182 47.1423 105.524C47.4897 105.864 47.6633 106.393 47.6633 107.111V111.2H46.7247V107.111C46.7247 106.66 46.6014 106.338 46.3548 106.145C46.1082 105.951 45.8179 105.854 45.4838 105.854C45.0542 105.854 44.7215 105.984 44.4855 106.244C44.2495 106.501 44.1315 106.828 44.1315 107.223V111.2H43.177V107.016C43.177 106.668 43.0643 106.389 42.8389 106.177C42.6135 105.962 42.3232 105.854 41.9679 105.854C41.7239 105.854 41.4959 105.919 41.2838 106.049C41.0743 106.179 40.9046 106.36 40.7747 106.59C40.6474 106.818 40.5838 107.082 40.5838 107.382V111.2H39.6451ZM51.8613 111.327C51.3098 111.327 50.8259 111.196 50.4096 110.933C49.996 110.671 49.6725 110.304 49.4392 109.832C49.2085 109.36 49.0932 108.808 49.0932 108.177C49.0932 107.541 49.2085 106.985 49.4392 106.511C49.6725 106.036 49.996 105.667 50.4096 105.405C50.8259 105.142 51.3098 105.011 51.8613 105.011C52.4129 105.011 52.8954 105.142 53.3091 105.405C53.7254 105.667 54.0488 106.036 54.2795 106.511C54.5129 106.985 54.6295 107.541 54.6295 108.177C54.6295 108.808 54.5129 109.36 54.2795 109.832C54.0488 110.304 53.7254 110.671 53.3091 110.933C52.8954 111.196 52.4129 111.327 51.8613 111.327ZM51.8613 110.484C52.2803 110.484 52.625 110.377 52.8954 110.162C53.1659 109.947 53.3661 109.665 53.496 109.315C53.6259 108.965 53.6909 108.585 53.6909 108.177C53.6909 107.769 53.6259 107.388 53.496 107.036C53.3661 106.683 53.1659 106.398 52.8954 106.181C52.625 105.963 52.2803 105.854 51.8613 105.854C51.4424 105.854 51.0977 105.963 50.8273 106.181C50.5568 106.398 50.3566 106.683 50.2267 107.036C50.0968 107.388 50.0318 107.769 50.0318 108.177C50.0318 108.585 50.0968 108.965 50.2267 109.315C50.3566 109.665 50.5568 109.947 50.8273 110.162C51.0977 110.377 51.4424 110.484 51.8613 110.484ZM58.3692 111.327C57.8601 111.327 57.4106 111.199 57.0209 110.941C56.6311 110.681 56.3262 110.316 56.1061 109.844C55.886 109.369 55.776 108.808 55.776 108.161C55.776 107.52 55.886 106.963 56.1061 106.491C56.3262 106.019 56.6324 105.654 57.0248 105.397C57.4173 105.14 57.8707 105.011 58.3851 105.011C58.7828 105.011 59.097 105.078 59.3277 105.21C59.561 105.34 59.7387 105.488 59.8606 105.656C59.9853 105.82 60.082 105.955 60.151 106.061H60.2305V103.054H61.1692V111.2H60.2623V110.261H60.151C60.082 110.373 59.9839 110.513 59.8567 110.683C59.7294 110.85 59.5478 111 59.3118 111.132C59.0758 111.262 58.7616 111.327 58.3692 111.327ZM58.4964 110.484C58.8729 110.484 59.1911 110.386 59.451 110.19C59.7108 109.991 59.9084 109.716 60.0436 109.366C60.1788 109.014 60.2464 108.607 60.2464 108.145C60.2464 107.689 60.1801 107.29 60.0476 106.948C59.915 106.603 59.7188 106.336 59.4589 106.145C59.1991 105.951 58.8782 105.854 58.4964 105.854C58.0987 105.854 57.7673 105.956 57.5021 106.161C57.2396 106.362 57.0421 106.637 56.9095 106.984C56.7796 107.329 56.7146 107.716 56.7146 108.145C56.7146 108.58 56.7809 108.975 56.9135 109.331C57.0487 109.683 57.2476 109.964 57.5101 110.174C57.7752 110.381 58.104 110.484 58.4964 110.484ZM68.4754 111.327C67.9663 111.327 67.5169 111.199 67.1271 110.941C66.7373 110.681 66.4324 110.316 66.2123 109.844C65.9923 109.369 65.8822 108.808 65.8822 108.161C65.8822 107.52 65.9923 106.963 66.2123 106.491C66.4324 106.019 66.7387 105.654 67.1311 105.397C67.5235 105.14 67.9769 105.011 68.4913 105.011C68.889 105.011 69.2032 105.078 69.4339 105.21C69.6673 105.34 69.8449 105.488 69.9669 105.656C70.0915 105.82 70.1883 105.955 70.2572 106.061H70.3368V103.054H71.2754V111.2H70.3686V110.261H70.2572C70.1883 110.373 70.0902 110.513 69.9629 110.683C69.8356 110.85 69.654 111 69.418 111.132C69.182 111.262 68.8678 111.327 68.4754 111.327ZM68.6027 110.484C68.9792 110.484 69.2974 110.386 69.5572 110.19C69.8171 109.991 70.0146 109.716 70.1498 109.366C70.2851 109.014 70.3527 108.607 70.3527 108.145C70.3527 107.689 70.2864 107.29 70.1538 106.948C70.0212 106.603 69.825 106.336 69.5652 106.145C69.3053 105.951 68.9845 105.854 68.6027 105.854C68.2049 105.854 67.8735 105.956 67.6084 106.161C67.3459 106.362 67.1483 106.637 67.0157 106.984C66.8858 107.329 66.8209 107.716 66.8209 108.145C66.8209 108.58 66.8871 108.975 67.0197 109.331C67.1549 109.683 67.3538 109.964 67.6163 110.174C67.8815 110.381 68.2103 110.484 68.6027 110.484ZM73.1248 111.2V105.091H74.0635V111.2H73.1248ZM73.6021 104.073C73.4192 104.073 73.2614 104.01 73.1288 103.886C72.9989 103.761 72.9339 103.611 72.9339 103.436C72.9339 103.261 72.9989 103.111 73.1288 102.987C73.2614 102.862 73.4192 102.8 73.6021 102.8C73.7851 102.8 73.9415 102.862 74.0714 102.987C74.204 103.111 74.2703 103.261 74.2703 103.436C74.2703 103.611 74.204 103.761 74.0714 103.886C73.9415 104.01 73.7851 104.073 73.6021 104.073ZM77.5804 111.343C77.1933 111.343 76.8419 111.27 76.5264 111.124C76.2109 110.976 75.9603 110.762 75.7747 110.484C75.5891 110.203 75.4963 109.863 75.4963 109.466C75.4963 109.116 75.5652 108.832 75.7031 108.615C75.841 108.395 76.0253 108.222 76.2559 108.098C76.4866 107.973 76.7412 107.88 77.0196 107.819C77.3006 107.756 77.583 107.705 77.8667 107.668C78.238 107.62 78.5389 107.585 78.7696 107.561C79.0029 107.534 79.1726 107.49 79.2787 107.429C79.3874 107.368 79.4417 107.262 79.4417 107.111V107.079C79.4417 106.687 79.3344 106.382 79.1196 106.165C78.9075 105.947 78.5853 105.838 78.1531 105.838C77.705 105.838 77.3537 105.937 77.0991 106.133C76.8446 106.329 76.6656 106.538 76.5622 106.761L75.6713 106.443C75.8304 106.072 76.0425 105.783 76.3076 105.576C76.5755 105.367 76.8671 105.221 77.1826 105.138C77.5008 105.054 77.8137 105.011 78.1213 105.011C78.3175 105.011 78.5429 105.035 78.7974 105.083C79.0546 105.128 79.3025 105.222 79.5412 105.365C79.7825 105.508 79.9826 105.724 80.1417 106.013C80.3008 106.303 80.3804 106.69 80.3804 107.175V111.2H79.4417V110.373H79.394C79.3304 110.505 79.2243 110.647 79.0758 110.798C78.9273 110.949 78.7298 111.078 78.4832 111.184C78.2366 111.29 77.9357 111.343 77.5804 111.343ZM77.7236 110.5C78.0948 110.5 78.4076 110.427 78.6622 110.281C78.9194 110.135 79.113 109.947 79.2429 109.716C79.3755 109.486 79.4417 109.243 79.4417 108.988V108.129C79.402 108.177 79.3145 108.221 79.1792 108.261C79.0467 108.298 78.8929 108.331 78.7179 108.36C78.5455 108.387 78.3772 108.41 78.2128 108.432C78.051 108.45 77.9198 108.466 77.819 108.479C77.5751 108.511 77.347 108.563 77.1349 108.635C76.9255 108.703 76.7558 108.808 76.6258 108.949C76.4986 109.087 76.4349 109.275 76.4349 109.513C76.4349 109.84 76.5556 110.086 76.7969 110.253C77.0408 110.418 77.3497 110.5 77.7236 110.5ZM82.0936 111.2V105.091H83.0004V106.045H83.08C83.2072 105.719 83.4127 105.466 83.6964 105.286C83.9801 105.103 84.3209 105.011 84.7186 105.011C85.1216 105.011 85.457 105.103 85.7248 105.286C85.9953 105.466 86.2061 105.719 86.3572 106.045H86.4209C86.5773 105.73 86.812 105.479 87.1248 105.294C87.4377 105.105 87.8129 105.011 88.2504 105.011C88.7966 105.011 89.2434 105.182 89.5907 105.524C89.9381 105.864 90.1118 106.393 90.1118 107.111V111.2H89.1731V107.111C89.1731 106.66 89.0498 106.338 88.8032 106.145C88.5567 105.951 88.2663 105.854 87.9322 105.854C87.5027 105.854 87.1699 105.984 86.9339 106.244C86.6979 106.501 86.58 106.828 86.58 107.223V111.2H85.6254V107.016C85.6254 106.668 85.5127 106.389 85.2873 106.177C85.062 105.962 84.7716 105.854 84.4163 105.854C84.1724 105.854 83.9443 105.919 83.7322 106.049C83.5228 106.179 83.3531 106.36 83.2231 106.59C83.0959 106.818 83.0322 107.082 83.0322 107.382V111.2H82.0936ZM97.5393 111.327C96.9507 111.327 96.4429 111.197 96.016 110.937C95.5918 110.675 95.2643 110.309 95.0336 109.84C94.8056 109.368 94.6916 108.819 94.6916 108.193C94.6916 107.567 94.8056 107.016 95.0336 106.538C95.2643 106.059 95.5852 105.685 95.9961 105.417C96.4098 105.146 96.8924 105.011 97.4439 105.011C97.7621 105.011 98.0763 105.064 98.3865 105.17C98.6967 105.276 98.9791 105.449 99.2336 105.687C99.4882 105.923 99.691 106.236 99.8422 106.626C99.9933 107.016 100.069 107.496 100.069 108.066V108.463H95.3598V107.652H99.1143C99.1143 107.307 99.0454 107 98.9075 106.729C98.7723 106.459 98.5787 106.246 98.3268 106.089C98.0776 105.933 97.7833 105.854 97.4439 105.854C97.07 105.854 96.7465 105.947 96.4734 106.133C96.203 106.316 95.9948 106.554 95.849 106.849C95.7032 107.143 95.6302 107.459 95.6302 107.795V108.336C95.6302 108.798 95.7098 109.189 95.8689 109.51C96.0306 109.828 96.2547 110.07 96.541 110.237C96.8274 110.402 97.1602 110.484 97.5393 110.484C97.7859 110.484 98.0086 110.449 98.2075 110.381C98.409 110.309 98.5827 110.203 98.7285 110.062C98.8744 109.919 98.9871 109.742 99.0666 109.529L99.9734 109.784C99.878 110.092 99.7175 110.362 99.4922 110.595C99.2668 110.826 98.9884 111.006 98.6569 111.136C98.3255 111.263 97.953 111.327 97.5393 111.327ZM105.347 108.702V105.091H106.285V111.2H105.347V110.166H105.283C105.14 110.476 104.917 110.74 104.615 110.957C104.313 111.172 103.931 111.279 103.469 111.279C103.088 111.279 102.748 111.196 102.451 111.029C102.154 110.859 101.921 110.605 101.751 110.265C101.582 109.923 101.497 109.492 101.497 108.973V105.091H102.435V108.909C102.435 109.354 102.56 109.71 102.809 109.975C103.061 110.24 103.382 110.373 103.772 110.373C104.005 110.373 104.242 110.313 104.484 110.194C104.728 110.074 104.932 109.891 105.096 109.645C105.263 109.398 105.347 109.084 105.347 108.702Z" fill="#344054"/>
<path d="M25.145 139.106H23.403C23.3711 138.881 23.3062 138.681 23.2081 138.506C23.11 138.328 22.984 138.177 22.8302 138.052C22.6764 137.928 22.4988 137.832 22.2973 137.766C22.0984 137.699 21.8823 137.666 21.649 137.666C21.2274 137.666 20.8602 137.771 20.5473 137.981C20.2344 138.187 19.9918 138.49 19.8194 138.887C19.6471 139.282 19.5609 139.762 19.5609 140.327C19.5609 140.908 19.6471 141.396 19.8194 141.791C19.9944 142.186 20.2384 142.484 20.5513 142.686C20.8641 142.887 21.2261 142.988 21.6371 142.988C21.8677 142.988 22.0812 142.957 22.2774 142.896C22.4763 142.835 22.6526 142.747 22.8064 142.63C22.9602 142.511 23.0874 142.366 23.1882 142.196C23.2916 142.027 23.3632 141.833 23.403 141.616L25.145 141.624C25.0999 141.998 24.9872 142.358 24.8069 142.706C24.6293 143.05 24.3893 143.359 24.0871 143.632C23.7874 143.903 23.4295 144.117 23.0132 144.277C22.5996 144.433 22.1316 144.511 21.6092 144.511C20.8827 144.511 20.2331 144.347 19.6603 144.018C19.0903 143.689 18.6395 143.213 18.3081 142.59C17.9793 141.967 17.8149 141.213 17.8149 140.327C17.8149 139.439 17.9819 138.683 18.316 138.06C18.6501 137.437 19.1035 136.962 19.6763 136.636C20.249 136.307 20.8933 136.143 21.6092 136.143C22.0812 136.143 22.5187 136.209 22.9217 136.342C23.3274 136.474 23.6867 136.668 23.9996 136.923C24.3124 137.174 24.567 137.483 24.7632 137.849C24.9621 138.215 25.0893 138.634 25.145 139.106ZM28.0425 136.254V144.4H26.3481V136.254H28.0425ZM29.3997 144.4V138.291H31.094V144.4H29.3997ZM30.2508 137.503C29.9989 137.503 29.7828 137.42 29.6025 137.253C29.4249 137.083 29.3361 136.88 29.3361 136.644C29.3361 136.411 29.4249 136.211 29.6025 136.044C29.7828 135.874 29.9989 135.789 30.2508 135.789C30.5027 135.789 30.7175 135.874 30.8952 136.044C31.0755 136.211 31.1656 136.411 31.1656 136.644C31.1656 136.88 31.0755 137.083 30.8952 137.253C30.7175 137.42 30.5027 137.503 30.2508 137.503ZM35.2115 144.519C34.5857 144.519 34.0475 144.387 33.5967 144.121C33.1486 143.854 32.8039 143.482 32.5626 143.008C32.324 142.533 32.2047 141.987 32.2047 141.369C32.2047 140.743 32.3253 140.195 32.5666 139.723C32.8105 139.248 33.1566 138.878 33.6047 138.613C34.0528 138.345 34.5857 138.211 35.2035 138.211C35.7365 138.211 36.2032 138.308 36.6035 138.502C37.0039 138.695 37.3208 138.967 37.5541 139.317C37.7874 139.667 37.916 140.078 37.9399 140.55H36.341C36.296 140.245 36.1766 140 35.9831 139.814C35.7922 139.626 35.5416 139.532 35.2314 139.532C34.9689 139.532 34.7395 139.603 34.5433 139.746C34.3497 139.887 34.1986 140.092 34.0899 140.363C33.9812 140.633 33.9268 140.961 33.9268 141.345C33.9268 141.735 33.9799 142.067 34.0859 142.34C34.1946 142.613 34.3471 142.821 34.5433 142.964C34.7395 143.107 34.9689 143.179 35.2314 143.179C35.4249 143.179 35.5986 143.139 35.7524 143.06C35.9088 142.98 36.0374 142.865 36.1382 142.713C36.2416 142.56 36.3092 142.375 36.341 142.161H37.9399C37.9134 142.627 37.7861 143.038 37.5581 143.394C37.3327 143.746 37.0211 144.022 36.6234 144.221C36.2257 144.42 35.755 144.519 35.2115 144.519ZM40.5599 142.642L40.5639 140.61H40.8105L42.7673 138.291H44.7122L42.0832 141.361H41.6815L40.5599 142.642ZM39.0247 144.4V136.254H40.719V144.4H39.0247ZM42.8429 144.4L41.0452 141.739L42.1747 140.542L44.8275 144.4H42.8429ZM49.83 140.868V144.4H48.1356V136.254H49.7822V139.369H49.8538C49.9917 139.008 50.2144 138.726 50.522 138.521C50.8296 138.315 51.2154 138.211 51.6794 138.211C52.1036 138.211 52.4735 138.304 52.789 138.49C53.1072 138.673 53.3538 138.936 53.5288 139.281C53.7065 139.623 53.794 140.033 53.7913 140.51V144.4H52.097V140.812C52.0996 140.436 52.0042 140.143 51.8106 139.933C51.6197 139.724 51.3519 139.619 51.0072 139.619C50.7765 139.619 50.5724 139.668 50.3947 139.766C50.2197 139.864 50.0818 140.008 49.9811 140.196C49.883 140.381 49.8326 140.606 49.83 140.868ZM57.9088 144.519C57.2804 144.519 56.7395 144.392 56.2861 144.137C55.8353 143.88 55.488 143.517 55.244 143.048C55.0001 142.576 54.8781 142.017 54.8781 141.373C54.8781 140.745 55.0001 140.193 55.244 139.719C55.488 139.244 55.8313 138.874 56.2741 138.609C56.7196 138.344 57.2419 138.211 57.8412 138.211C58.2442 138.211 58.6194 138.276 58.9667 138.406C59.3167 138.533 59.6217 138.726 59.8815 138.983C60.144 139.24 60.3482 139.563 60.494 139.953C60.6398 140.34 60.7128 140.794 60.7128 141.313V141.779H55.5542V140.729H59.1179C59.1179 140.485 59.0648 140.269 58.9588 140.081C58.8527 139.892 58.7056 139.745 58.5173 139.639C58.3317 139.53 58.1156 139.476 57.869 139.476C57.6118 139.476 57.3838 139.536 57.1849 139.655C56.9887 139.772 56.8349 139.929 56.7236 140.128C56.6122 140.324 56.5552 140.543 56.5525 140.785V141.783C56.5525 142.085 56.6082 142.346 56.7196 142.566C56.8336 142.786 56.994 142.956 57.2008 143.075C57.4076 143.195 57.6529 143.254 57.9366 143.254C58.1249 143.254 58.2972 143.228 58.4537 143.175C58.6101 143.122 58.744 143.042 58.8554 142.936C58.9667 142.83 59.0516 142.7 59.1099 142.546L60.677 142.65C60.5974 143.026 60.4344 143.355 60.1878 143.636C59.9438 143.915 59.6283 144.132 59.2412 144.288C58.8567 144.442 58.4126 144.519 57.9088 144.519ZM61.8184 144.4V138.291H63.4611V139.357H63.5247C63.6361 138.978 63.823 138.691 64.0855 138.498C64.348 138.301 64.6503 138.203 64.9923 138.203C65.0772 138.203 65.1686 138.209 65.2667 138.219C65.3648 138.23 65.451 138.244 65.5253 138.263V139.766C65.4457 139.742 65.3357 139.721 65.1951 139.703C65.0546 139.684 64.926 139.675 64.8094 139.675C64.5601 139.675 64.3374 139.729 64.1412 139.838C63.9476 139.944 63.7938 140.092 63.6798 140.283C63.5684 140.474 63.5128 140.694 63.5128 140.944V144.4H61.8184ZM68.901 144.519C68.2726 144.519 67.7317 144.392 67.2782 144.137C66.8275 143.88 66.4801 143.517 66.2362 143.048C65.9923 142.576 65.8703 142.017 65.8703 141.373C65.8703 140.745 65.9923 140.193 66.2362 139.719C66.4801 139.244 66.8235 138.874 67.2663 138.609C67.7118 138.344 68.2341 138.211 68.8334 138.211C69.2364 138.211 69.6116 138.276 69.9589 138.406C70.3089 138.533 70.6139 138.726 70.8737 138.983C71.1362 139.24 71.3404 139.563 71.4862 139.953C71.632 140.34 71.705 140.794 71.705 141.313V141.779H66.5464V140.729H70.1101C70.1101 140.485 70.057 140.269 69.951 140.081C69.8449 139.892 69.6978 139.745 69.5095 139.639C69.3239 139.53 69.1078 139.476 68.8612 139.476C68.604 139.476 68.376 139.536 68.1771 139.655C67.9809 139.772 67.8271 139.929 67.7157 140.128C67.6044 140.324 67.5474 140.543 67.5447 140.785V141.783C67.5447 142.085 67.6004 142.346 67.7118 142.566C67.8258 142.786 67.9862 142.956 68.193 143.075C68.3998 143.195 68.6451 143.254 68.9288 143.254C69.1171 143.254 69.2894 143.228 69.4459 143.175C69.6023 143.122 69.7362 143.042 69.8476 142.936C69.9589 142.83 70.0438 142.7 70.1021 142.546L71.6692 142.65C71.5896 143.026 71.4265 143.355 71.18 143.636C70.936 143.915 70.6205 144.132 70.2334 144.288C69.8489 144.442 69.4048 144.519 68.901 144.519Z" fill="#0F71BB"/>
<path d="M17.2501 146.627H72.1345V147.391H17.2501V146.627Z" fill="#0F71BB"/>
<path d="M3.2501 0.89986H286.05V-0.50014H3.2501V0.89986ZM288.15 2.99986V164.4H289.55V2.99986H288.15ZM286.05 166.5H3.25009V167.9H286.05V166.5ZM1.1501 164.4V2.99986H-0.249896V164.4H1.1501ZM3.25009 166.5C2.0903 166.5 1.1501 165.56 1.1501 164.4H-0.249896C-0.249896 166.333 1.31709 167.9 3.25009 167.9V166.5ZM288.15 164.4C288.15 165.56 287.21 166.5 286.05 166.5V167.9C287.983 167.9 289.55 166.333 289.55 164.4H288.15ZM286.05 0.89986C287.21 0.89986 288.15 1.84006 288.15 2.99986H289.55C289.55 1.06687 287.983 -0.50014 286.05 -0.50014V0.89986ZM3.2501 -0.50014C1.31711 -0.50014 -0.249896 1.06687 -0.249896 2.99986H1.1501C1.1501 1.84006 2.09031 0.89986 3.2501 0.89986V-0.50014Z" fill="#98A2B3"/>
<rect x="0.450195" y="38" width="288.4" height="11.2" fill="#E8178A" fill-opacity="0.24"/>
<rect x="0.450195" y="122" width="288.4" height="11.2003" fill="#E8178A" fill-opacity="0.24"/>
<rect x="0.449219" y="0.199951" width="288.4" height="16.7999" fill="#E8178A" fill-opacity="0.24"/>
<rect x="0.449219" y="149.6" width="288.4" height="16.8" fill="#E8178A" fill-opacity="0.24"/>
<rect width="17" height="167" fill="#E8178A" fill-opacity="0.24"/>
<rect x="272" width="17" height="167" fill="#E8178A" fill-opacity="0.24"/>
</svg>
