<svg width="546" height="201" viewBox="0 0 546 201" fill="none" xmlns="http://www.w3.org/2000/svg">
<g clip-path="url(#clip0_5800_5098)">
<path d="M58.5752 5C58.5752 2.79086 60.3661 1 62.5752 1H484.575C486.784 1 488.575 2.79086 488.575 5V157C488.575 159.209 486.784 161 484.575 161H62.5752C60.3661 161 58.5752 159.209 58.5752 157V5Z" fill="white"/>
<path d="M83.713 48V34.9091H88.9545C89.9175 34.9091 90.7208 35.0518 91.3643 35.3374C92.0077 35.6229 92.4914 36.0192 92.8153 36.5263C93.1391 37.0291 93.301 37.6087 93.301 38.2649C93.301 38.7763 93.1988 39.2259 92.9942 39.6136C92.7897 39.9972 92.5084 40.3125 92.1505 40.5597C91.7968 40.8026 91.392 40.9751 90.936 41.0774V41.2053C91.4346 41.2266 91.9012 41.3672 92.3358 41.6271C92.7748 41.8871 93.1306 42.2514 93.4033 42.7202C93.676 43.1847 93.8124 43.7386 93.8124 44.3821C93.8124 45.0767 93.6398 45.6967 93.2947 46.2422C92.9537 46.7834 92.4488 47.2116 91.7797 47.527C91.1107 47.8423 90.2861 48 89.306 48H83.713ZM86.4807 45.7372H88.7371C89.5084 45.7372 90.0709 45.5902 90.4246 45.2962C90.7783 44.9979 90.9552 44.6016 90.9552 44.1072C90.9552 43.745 90.8678 43.4254 90.6931 43.1484C90.5184 42.8714 90.2691 42.6541 89.9452 42.4964C89.6256 42.3388 89.2442 42.2599 88.801 42.2599H86.4807V45.7372ZM86.4807 40.3871H88.5326C88.9118 40.3871 89.2485 40.321 89.5425 40.1889C89.8408 40.0526 90.0752 39.8608 90.2457 39.6136C90.4204 39.3665 90.5077 39.0703 90.5077 38.7251C90.5077 38.2521 90.3394 37.8707 90.0028 37.581C89.6704 37.2912 89.1974 37.1463 88.5837 37.1463H86.4807V40.3871ZM98.3619 48.1854C97.7355 48.1854 97.1773 48.0767 96.6872 47.8594C96.1972 47.6378 95.8094 47.3118 95.5239 46.8814C95.2426 46.4467 95.102 45.9055 95.102 45.2578C95.102 44.7124 95.2021 44.2543 95.4024 43.8835C95.6027 43.5128 95.8754 43.2145 96.2206 42.9886C96.5658 42.7628 96.9578 42.5923 97.3968 42.4773C97.8399 42.3622 98.3044 42.2812 98.7902 42.2344C99.3612 42.1747 99.8215 42.1193 100.171 42.0682C100.52 42.0128 100.774 41.9318 100.932 41.8253C101.089 41.7187 101.168 41.5611 101.168 41.3523V41.3139C101.168 40.9091 101.04 40.5959 100.785 40.3743C100.533 40.1527 100.175 40.0419 99.7107 40.0419C99.2206 40.0419 98.8307 40.1506 98.5409 40.3679C98.2512 40.581 98.0594 40.8494 97.9656 41.1733L95.4472 40.9688C95.575 40.3722 95.8264 39.8565 96.2014 39.4219C96.5764 38.983 97.0601 38.6463 97.6524 38.4119C98.249 38.1733 98.9394 38.054 99.7235 38.054C100.269 38.054 100.791 38.1179 101.29 38.2457C101.792 38.3736 102.238 38.5717 102.625 38.8402C103.017 39.1087 103.326 39.4538 103.552 39.8757C103.778 40.2933 103.891 40.794 103.891 41.3778V48H101.309V46.6385H101.232C101.074 46.9453 100.863 47.2159 100.599 47.4503C100.335 47.6804 100.017 47.8615 99.6468 47.9936C99.276 48.1214 98.8477 48.1854 98.3619 48.1854ZM99.1418 46.3061C99.5423 46.3061 99.896 46.2273 100.203 46.0696C100.51 45.9077 100.75 45.6903 100.925 45.4176C101.1 45.1449 101.187 44.8359 101.187 44.4908V43.4489C101.102 43.5043 100.985 43.5554 100.836 43.6023C100.691 43.6449 100.527 43.6854 100.343 43.7237C100.16 43.7578 99.977 43.7898 99.7938 43.8196C99.6105 43.8452 99.4443 43.8686 99.2952 43.8899C98.9756 43.9368 98.6965 44.0114 98.4578 44.1136C98.2192 44.2159 98.0338 44.3544 97.9017 44.5291C97.7696 44.6996 97.7036 44.9126 97.7036 45.1683C97.7036 45.5391 97.8378 45.8224 98.1063 46.0185C98.379 46.2102 98.7242 46.3061 99.1418 46.3061ZM114.173 40.9815L111.68 41.1349C111.637 40.9219 111.546 40.7301 111.405 40.5597C111.264 40.3849 111.079 40.2464 110.849 40.1442C110.623 40.0376 110.352 39.9844 110.037 39.9844C109.615 39.9844 109.259 40.0739 108.97 40.2528C108.68 40.4276 108.535 40.6619 108.535 40.956C108.535 41.1903 108.629 41.3885 108.816 41.5504C109.004 41.7124 109.325 41.8423 109.781 41.9403L111.558 42.2983C112.513 42.4943 113.225 42.8097 113.693 43.2443C114.162 43.679 114.396 44.25 114.396 44.9574C114.396 45.6009 114.207 46.1655 113.828 46.6513C113.453 47.1371 112.937 47.5163 112.281 47.7891C111.629 48.0575 110.877 48.1918 110.024 48.1918C108.725 48.1918 107.689 47.9212 106.918 47.38C106.151 46.8345 105.701 46.093 105.569 45.1555L108.247 45.0149C108.328 45.4112 108.524 45.7138 108.835 45.9226C109.146 46.1271 109.545 46.2294 110.031 46.2294C110.508 46.2294 110.891 46.1378 111.181 45.9545C111.475 45.767 111.624 45.5263 111.629 45.2322C111.624 44.9851 111.52 44.7827 111.315 44.625C111.111 44.4631 110.796 44.3395 110.369 44.2543L108.669 43.9155C107.71 43.7237 106.997 43.3913 106.528 42.9183C106.063 42.4453 105.831 41.8423 105.831 41.1094C105.831 40.4787 106.002 39.9354 106.342 39.4794C106.688 39.0234 107.171 38.6719 107.793 38.4247C108.42 38.1776 109.153 38.054 109.992 38.054C111.232 38.054 112.208 38.3161 112.92 38.8402C113.636 39.3643 114.053 40.0781 114.173 40.9815ZM116.111 48V38.1818H118.834V48H116.111ZM117.479 36.9162C117.074 36.9162 116.727 36.782 116.437 36.5135C116.152 36.2408 116.009 35.9148 116.009 35.5355C116.009 35.1605 116.152 34.8388 116.437 34.5703C116.727 34.2976 117.074 34.1612 117.479 34.1612C117.884 34.1612 118.229 34.2976 118.514 34.5703C118.804 34.8388 118.949 35.1605 118.949 35.5355C118.949 35.9148 118.804 36.2408 118.514 36.5135C118.229 36.782 117.884 36.9162 117.479 36.9162ZM125.451 48.1918C124.446 48.1918 123.581 47.9787 122.856 47.5526C122.136 47.1222 121.582 46.5256 121.194 45.7628C120.811 45 120.619 44.1222 120.619 43.1293C120.619 42.1236 120.813 41.2415 121.201 40.483C121.593 39.7202 122.149 39.1257 122.869 38.6996C123.589 38.2692 124.446 38.054 125.439 38.054C126.295 38.054 127.045 38.2095 127.689 38.5206C128.332 38.8317 128.841 39.2685 129.216 39.831C129.591 40.3935 129.798 41.054 129.836 41.8125H127.267C127.194 41.3224 127.003 40.9283 126.691 40.63C126.385 40.3274 125.982 40.1761 125.483 40.1761C125.062 40.1761 124.693 40.2912 124.378 40.5213C124.066 40.7472 123.824 41.0774 123.649 41.5121C123.474 41.9467 123.387 42.473 123.387 43.0909C123.387 43.7173 123.472 44.25 123.642 44.6889C123.817 45.1278 124.062 45.4624 124.378 45.6925C124.693 45.9226 125.062 46.0376 125.483 46.0376C125.794 46.0376 126.074 45.9737 126.321 45.8459C126.572 45.718 126.779 45.5327 126.941 45.2898C127.107 45.0426 127.216 44.7464 127.267 44.4013H129.836C129.794 45.1513 129.589 45.8118 129.223 46.3828C128.861 46.9496 128.36 47.3928 127.721 47.7124C127.081 48.032 126.325 48.1918 125.451 48.1918ZM135.746 51.6818V38.1818H138.43V39.831H138.552C138.671 39.5668 138.844 39.2983 139.07 39.0256C139.3 38.7486 139.598 38.5185 139.965 38.3352C140.335 38.1477 140.796 38.054 141.345 38.054C142.061 38.054 142.722 38.2415 143.327 38.6165C143.932 38.9872 144.416 39.5476 144.778 40.2976C145.14 41.0433 145.321 41.9787 145.321 43.1037C145.321 44.1989 145.144 45.1236 144.791 45.8778C144.441 46.6278 143.964 47.1967 143.359 47.5845C142.758 47.968 142.085 48.1598 141.339 48.1598C140.81 48.1598 140.361 48.0724 139.99 47.8977C139.624 47.723 139.323 47.5036 139.089 47.2393C138.854 46.9709 138.676 46.7003 138.552 46.4276H138.469V51.6818H135.746ZM138.411 43.0909C138.411 43.6747 138.492 44.1839 138.654 44.6186C138.816 45.0533 139.051 45.392 139.357 45.6349C139.664 45.8736 140.037 45.9929 140.476 45.9929C140.919 45.9929 141.294 45.8714 141.601 45.6286C141.908 45.3814 142.14 45.0405 142.298 44.6058C142.46 44.1669 142.541 43.6619 142.541 43.0909C142.541 42.5241 142.462 42.0256 142.304 41.5952C142.146 41.1648 141.914 40.8281 141.607 40.5852C141.301 40.3423 140.923 40.2209 140.476 40.2209C140.033 40.2209 139.658 40.3381 139.351 40.5724C139.048 40.8068 138.816 41.1392 138.654 41.5696C138.492 42 138.411 42.5071 138.411 43.0909ZM149.859 34.9091V48H147.136V34.9091H149.859ZM154.84 48.1854C154.214 48.1854 153.656 48.0767 153.166 47.8594C152.676 47.6378 152.288 47.3118 152.002 46.8814C151.721 46.4467 151.581 45.9055 151.581 45.2578C151.581 44.7124 151.681 44.2543 151.881 43.8835C152.081 43.5128 152.354 43.2145 152.699 42.9886C153.044 42.7628 153.436 42.5923 153.875 42.4773C154.318 42.3622 154.783 42.2812 155.269 42.2344C155.84 42.1747 156.3 42.1193 156.649 42.0682C156.999 42.0128 157.252 41.9318 157.41 41.8253C157.568 41.7187 157.647 41.5611 157.647 41.3523V41.3139C157.647 40.9091 157.519 40.5959 157.263 40.3743C157.012 40.1527 156.654 40.0419 156.189 40.0419C155.699 40.0419 155.309 40.1506 155.019 40.3679C154.73 40.581 154.538 40.8494 154.444 41.1733L151.926 40.9688C152.054 40.3722 152.305 39.8565 152.68 39.4219C153.055 38.983 153.539 38.6463 154.131 38.4119C154.728 38.1733 155.418 38.054 156.202 38.054C156.747 38.054 157.269 38.1179 157.768 38.2457C158.271 38.3736 158.716 38.5717 159.104 38.8402C159.496 39.1087 159.805 39.4538 160.031 39.8757C160.257 40.2933 160.37 40.794 160.37 41.3778V48H157.787V46.6385H157.71C157.553 46.9453 157.342 47.2159 157.078 47.4503C156.813 47.6804 156.496 47.8615 156.125 47.9936C155.755 48.1214 155.326 48.1854 154.84 48.1854ZM155.62 46.3061C156.021 46.3061 156.375 46.2273 156.681 46.0696C156.988 45.9077 157.229 45.6903 157.404 45.4176C157.578 45.1449 157.666 44.8359 157.666 44.4908V43.4489C157.581 43.5043 157.463 43.5554 157.314 43.6023C157.169 43.6449 157.005 43.6854 156.822 43.7237C156.639 43.7578 156.456 43.7898 156.272 43.8196C156.089 43.8452 155.923 43.8686 155.774 43.8899C155.454 43.9368 155.175 44.0114 154.936 44.1136C154.698 44.2159 154.512 44.3544 154.38 44.5291C154.248 44.6996 154.182 44.9126 154.182 45.1683C154.182 45.5391 154.316 45.8224 154.585 46.0185C154.858 46.2102 155.203 46.3061 155.62 46.3061ZM165.205 42.3239V48H162.482V38.1818H165.077V39.9141H165.192C165.41 39.343 165.774 38.8913 166.285 38.5589C166.797 38.2223 167.417 38.054 168.146 38.054C168.827 38.054 169.422 38.2031 169.929 38.5014C170.436 38.7997 170.83 39.2259 171.111 39.7798C171.393 40.3295 171.533 40.9858 171.533 41.7486V48H168.81V42.2344C168.815 41.6335 168.661 41.1648 168.35 40.8281C168.039 40.4872 167.611 40.3168 167.065 40.3168C166.699 40.3168 166.375 40.3956 166.094 40.5533C165.817 40.7109 165.599 40.9411 165.442 41.2436C165.288 41.5419 165.209 41.902 165.205 42.3239Z" fill="#344054"/>
<path fill-rule="evenodd" clip-rule="evenodd" d="M446.189 34.6139C446.33 34.4733 446.521 34.3943 446.719 34.3943C446.918 34.3943 447.109 34.4733 447.25 34.6139L452.553 39.9172L457.856 34.6139C457.997 34.4733 458.188 34.3943 458.387 34.3943C458.586 34.3943 458.776 34.4733 458.917 34.6139C459.058 34.7546 459.137 34.9454 459.137 35.1443C459.137 35.3432 459.058 35.534 458.917 35.6746L453.614 40.9779L458.917 46.2812C459.058 46.4219 459.137 46.6126 459.137 46.8115C459.137 47.0104 459.058 47.2012 458.917 47.3419C458.776 47.4825 458.586 47.5615 458.387 47.5615C458.188 47.5615 457.997 47.4825 457.856 47.3419L452.553 42.0386L447.25 47.3419C447.109 47.4825 446.918 47.5615 446.719 47.5615C446.521 47.5615 446.33 47.4825 446.189 47.3419C446.049 47.2012 445.969 47.0104 445.969 46.8115C445.969 46.6126 446.049 46.4219 446.189 46.2812L451.492 40.9779L446.189 35.6746C446.049 35.534 445.969 35.3432 445.969 35.1443C445.969 34.9454 446.049 34.7546 446.189 34.6139Z" fill="#344054"/>
<path d="M91.6207 83.3636H93.0297V91.0682C93.0297 91.8636 92.8422 92.5739 92.4672 93.1989C92.096 93.8201 91.5714 94.3106 90.8934 94.6705C90.2153 95.0265 89.4199 95.2045 88.507 95.2045C87.5941 95.2045 86.7987 95.0265 86.1207 94.6705C85.4426 94.3106 84.9161 93.8201 84.5411 93.1989C84.1699 92.5739 83.9843 91.8636 83.9843 91.0682V83.3636H85.3934V90.9545C85.3934 91.5227 85.5184 92.0284 85.7684 92.4716C86.0184 92.911 86.3744 93.2576 86.8366 93.5114C87.3025 93.7614 87.8593 93.8864 88.507 93.8864C89.1547 93.8864 89.7116 93.7614 90.1775 93.5114C90.6434 93.2576 90.9994 92.911 91.2457 92.4716C91.4957 92.0284 91.6207 91.5227 91.6207 90.9545V83.3636ZM97.0028 89.75V95H95.6618V86.2727H96.9573V87.6364H97.0709C97.2755 87.1932 97.5861 86.8371 98.0028 86.5682C98.4194 86.2955 98.9573 86.1591 99.6164 86.1591C100.207 86.1591 100.724 86.2803 101.168 86.5227C101.611 86.7614 101.955 87.125 102.202 87.6136C102.448 88.0985 102.571 88.7121 102.571 89.4545V95H101.23V89.5455C101.23 88.8598 101.052 88.3258 100.696 87.9432C100.34 87.5568 99.8512 87.3636 99.23 87.3636C98.802 87.3636 98.4194 87.4564 98.0823 87.642C97.749 87.8277 97.4857 88.0985 97.2925 88.4545C97.0993 88.8106 97.0028 89.2424 97.0028 89.75ZM105.021 95V86.2727H106.362V95H105.021ZM105.703 84.8182C105.442 84.8182 105.216 84.7292 105.027 84.5511C104.841 84.3731 104.748 84.1591 104.748 83.9091C104.748 83.6591 104.841 83.4451 105.027 83.267C105.216 83.089 105.442 83 105.703 83C105.964 83 106.188 83.089 106.373 83.267C106.563 83.4451 106.658 83.6591 106.658 83.9091C106.658 84.1591 106.563 84.3731 106.373 84.5511C106.188 84.7292 105.964 84.8182 105.703 84.8182ZM112.614 86.2727V87.4091H108.091V86.2727H112.614ZM109.409 84.1818H110.75V92.5C110.75 92.8788 110.805 93.1629 110.915 93.3523C111.028 93.5379 111.172 93.6629 111.347 93.7273C111.525 93.7879 111.712 93.8182 111.909 93.8182C112.057 93.8182 112.178 93.8106 112.273 93.7955C112.367 93.7765 112.443 93.7614 112.5 93.75L112.773 94.9545C112.682 94.9886 112.555 95.0227 112.392 95.0568C112.229 95.0947 112.023 95.1136 111.773 95.1136C111.394 95.1136 111.023 95.0322 110.659 94.8693C110.299 94.7064 110 94.4583 109.761 94.125C109.526 93.7917 109.409 93.3712 109.409 92.8636V84.1818ZM119.312 95V83.3636H123.244C124.157 83.3636 124.903 83.5284 125.483 83.858C126.066 84.1837 126.498 84.625 126.778 85.1818C127.059 85.7386 127.199 86.3598 127.199 87.0455C127.199 87.7311 127.059 88.3542 126.778 88.9148C126.502 89.4754 126.074 89.9223 125.494 90.2557C124.915 90.5852 124.172 90.75 123.267 90.75H120.449V89.5H123.222C123.847 89.5 124.348 89.392 124.727 89.1761C125.106 88.9602 125.381 88.6686 125.551 88.3011C125.725 87.9299 125.812 87.5114 125.812 87.0455C125.812 86.5795 125.725 86.1629 125.551 85.7955C125.381 85.428 125.104 85.1402 124.722 84.9318C124.339 84.7197 123.831 84.6136 123.199 84.6136H120.722V95H119.312ZM129.287 95V86.2727H130.582V87.5909H130.673C130.832 87.1591 131.12 86.8087 131.537 86.5398C131.954 86.2708 132.423 86.1364 132.946 86.1364C133.044 86.1364 133.168 86.1383 133.315 86.142C133.463 86.1458 133.575 86.1515 133.65 86.1591V87.5227C133.605 87.5114 133.501 87.4943 133.338 87.4716C133.179 87.4451 133.01 87.4318 132.832 87.4318C132.408 87.4318 132.029 87.5208 131.696 87.6989C131.366 87.8731 131.105 88.1155 130.912 88.4261C130.722 88.733 130.628 89.0833 130.628 89.4773V95H129.287ZM135.24 95V86.2727H136.581V95H135.24ZM135.922 84.8182C135.66 84.8182 135.435 84.7292 135.246 84.5511C135.06 84.3731 134.967 84.1591 134.967 83.9091C134.967 83.6591 135.06 83.4451 135.246 83.267C135.435 83.089 135.66 83 135.922 83C136.183 83 136.407 83.089 136.592 83.267C136.782 83.4451 136.876 83.6591 136.876 83.9091C136.876 84.1591 136.782 84.3731 136.592 84.5511C136.407 84.7292 136.183 84.8182 135.922 84.8182ZM142.582 95.1818C141.764 95.1818 141.06 94.9886 140.469 94.6023C139.878 94.2159 139.423 93.6837 139.105 93.0057C138.787 92.3277 138.628 91.553 138.628 90.6818C138.628 89.7955 138.791 89.0133 139.116 88.3352C139.446 87.6534 139.904 87.1212 140.491 86.7386C141.082 86.3523 141.772 86.1591 142.56 86.1591C143.173 86.1591 143.726 86.2727 144.219 86.5C144.711 86.7273 145.114 87.0455 145.429 87.4545C145.743 87.8636 145.938 88.3409 146.014 88.8864H144.673C144.571 88.4886 144.344 88.1364 143.991 87.8295C143.643 87.5189 143.173 87.3636 142.582 87.3636C142.06 87.3636 141.601 87.5 141.207 87.7727C140.817 88.0417 140.512 88.4223 140.293 88.9148C140.077 89.4034 139.969 89.9773 139.969 90.6364C139.969 91.3106 140.075 91.8977 140.287 92.3977C140.503 92.8977 140.806 93.286 141.196 93.5625C141.59 93.839 142.052 93.9773 142.582 93.9773C142.931 93.9773 143.247 93.9167 143.531 93.7955C143.815 93.6742 144.056 93.5 144.253 93.2727C144.45 93.0455 144.59 92.7727 144.673 92.4545H146.014C145.938 92.9697 145.751 93.4337 145.452 93.8466C145.156 94.2557 144.764 94.5814 144.275 94.8239C143.791 95.0625 143.226 95.1818 142.582 95.1818ZM151.633 95.1818C150.793 95.1818 150.067 94.9962 149.457 94.625C148.851 94.25 148.383 93.7273 148.054 93.0568C147.728 92.3826 147.565 91.5985 147.565 90.7045C147.565 89.8106 147.728 89.0227 148.054 88.3409C148.383 87.6553 148.842 87.1212 149.429 86.7386C150.02 86.3523 150.709 86.1591 151.497 86.1591C151.952 86.1591 152.4 86.2348 152.844 86.3864C153.287 86.5379 153.69 86.7841 154.054 87.125C154.418 87.4621 154.707 87.9091 154.923 88.4659C155.139 89.0227 155.247 89.7083 155.247 90.5227V91.0909H148.52V89.9318H153.883C153.883 89.4394 153.785 89 153.588 88.6136C153.395 88.2273 153.118 87.9223 152.758 87.6989C152.402 87.4754 151.982 87.3636 151.497 87.3636C150.963 87.3636 150.501 87.4962 150.111 87.7614C149.724 88.0227 149.427 88.3636 149.219 88.7841C149.01 89.2045 148.906 89.6553 148.906 90.1364V90.9091C148.906 91.5682 149.02 92.1269 149.247 92.5852C149.478 93.0398 149.798 93.3864 150.207 93.625C150.616 93.8598 151.092 93.9773 151.633 93.9773C151.986 93.9773 152.304 93.928 152.588 93.8295C152.876 93.7273 153.124 93.5758 153.332 93.375C153.541 93.1705 153.702 92.9167 153.815 92.6136L155.111 92.9773C154.974 93.4167 154.745 93.803 154.423 94.1364C154.101 94.4659 153.704 94.7235 153.23 94.9091C152.757 95.0909 152.224 95.1818 151.633 95.1818ZM161.4 82.8182L157.65 96.75H156.423L160.173 82.8182H161.4ZM167.49 95V86.2727H168.785V87.6364H168.899C169.081 87.1705 169.374 86.8087 169.78 86.5511C170.185 86.2898 170.672 86.1591 171.24 86.1591C171.816 86.1591 172.295 86.2898 172.677 86.5511C173.064 86.8087 173.365 87.1705 173.581 87.6364H173.672C173.895 87.1856 174.23 86.8277 174.677 86.5625C175.124 86.2936 175.66 86.1591 176.285 86.1591C177.066 86.1591 177.704 86.4034 178.2 86.892C178.696 87.3769 178.945 88.1326 178.945 89.1591V95H177.604V89.1591C177.604 88.5152 177.427 88.0549 177.075 87.7784C176.723 87.5019 176.308 87.3636 175.831 87.3636C175.217 87.3636 174.742 87.5492 174.405 87.9205C174.068 88.2879 173.899 88.7538 173.899 89.3182V95H172.535V89.0227C172.535 88.5265 172.374 88.1269 172.052 87.8239C171.73 87.517 171.316 87.3636 170.808 87.3636C170.46 87.3636 170.134 87.4564 169.831 87.642C169.532 87.8277 169.289 88.0852 169.104 88.4148C168.922 88.7405 168.831 89.1174 168.831 89.5455V95H167.49ZM184.942 95.1818C184.154 95.1818 183.463 94.9943 182.868 94.6193C182.277 94.2443 181.815 93.7197 181.481 93.0455C181.152 92.3712 180.987 91.5833 180.987 90.6818C180.987 89.7727 181.152 88.9792 181.481 88.3011C181.815 87.6231 182.277 87.0966 182.868 86.7216C183.463 86.3466 184.154 86.1591 184.942 86.1591C185.73 86.1591 186.419 86.3466 187.01 86.7216C187.605 87.0966 188.067 87.6231 188.396 88.3011C188.73 88.9792 188.896 89.7727 188.896 90.6818C188.896 91.5833 188.73 92.3712 188.396 93.0455C188.067 93.7197 187.605 94.2443 187.01 94.6193C186.419 94.9943 185.73 95.1818 184.942 95.1818ZM184.942 93.9773C185.54 93.9773 186.033 93.8239 186.419 93.517C186.805 93.2102 187.091 92.8068 187.277 92.3068C187.463 91.8068 187.555 91.2652 187.555 90.6818C187.555 90.0985 187.463 89.5549 187.277 89.0511C187.091 88.5473 186.805 88.1402 186.419 87.8295C186.033 87.5189 185.54 87.3636 184.942 87.3636C184.343 87.3636 183.851 87.5189 183.464 87.8295C183.078 88.1402 182.792 88.5473 182.606 89.0511C182.421 89.5549 182.328 90.0985 182.328 90.6818C182.328 91.2652 182.421 91.8068 182.606 92.3068C182.792 92.8068 183.078 93.2102 183.464 93.517C183.851 93.8239 184.343 93.9773 184.942 93.9773ZM192.284 89.75V95H190.943V86.2727H192.239V87.6364H192.352C192.557 87.1932 192.867 86.8371 193.284 86.5682C193.701 86.2955 194.239 86.1591 194.898 86.1591C195.489 86.1591 196.006 86.2803 196.449 86.5227C196.892 86.7614 197.237 87.125 197.483 87.6136C197.729 88.0985 197.852 88.7121 197.852 89.4545V95H196.511V89.5455C196.511 88.8598 196.333 88.3258 195.977 87.9432C195.621 87.5568 195.132 87.3636 194.511 87.3636C194.083 87.3636 193.701 87.4564 193.364 87.642C193.03 87.8277 192.767 88.0985 192.574 88.4545C192.381 88.8106 192.284 89.2424 192.284 89.75ZM204.098 86.2727V87.4091H199.575V86.2727H204.098ZM200.893 84.1818H202.234V92.5C202.234 92.8788 202.289 93.1629 202.399 93.3523C202.513 93.5379 202.657 93.6629 202.831 93.7273C203.009 93.7879 203.196 93.8182 203.393 93.8182C203.541 93.8182 203.662 93.8106 203.757 93.7955C203.852 93.7765 203.927 93.7614 203.984 93.75L204.257 94.9545C204.166 94.9886 204.039 95.0227 203.876 95.0568C203.713 95.0947 203.507 95.1136 203.257 95.1136C202.878 95.1136 202.507 95.0322 202.143 94.8693C201.784 94.7064 201.484 94.4583 201.246 94.125C201.011 93.7917 200.893 93.3712 200.893 92.8636V84.1818ZM207.643 89.75V95H206.302V83.3636H207.643V87.6364H207.757C207.962 87.1856 208.268 86.8277 208.677 86.5625C209.09 86.2936 209.64 86.1591 210.325 86.1591C210.92 86.1591 211.441 86.2784 211.888 86.517C212.335 86.7519 212.681 87.1136 212.927 87.6023C213.177 88.0871 213.302 88.7045 213.302 89.4545V95H211.962V89.5455C211.962 88.8523 211.782 88.3163 211.422 87.9375C211.066 87.5549 210.571 87.3636 209.939 87.3636C209.499 87.3636 209.105 87.4564 208.757 87.642C208.412 87.8277 208.14 88.0985 207.939 88.4545C207.742 88.8106 207.643 89.2424 207.643 89.75ZM87.4275 128.455V113.909H88.3593V128.455H87.4275ZM89.8991 118.71C89.8536 118.252 89.6585 117.896 89.3138 117.642C88.9691 117.388 88.5013 117.261 87.9104 117.261C87.5089 117.261 87.1699 117.318 86.8934 117.432C86.6169 117.542 86.4047 117.695 86.257 117.892C86.1131 118.089 86.0411 118.312 86.0411 118.562C86.0335 118.771 86.0771 118.953 86.1718 119.108C86.2703 119.263 86.4047 119.398 86.5752 119.511C86.7456 119.621 86.9426 119.718 87.1661 119.801C87.3896 119.881 87.6282 119.949 87.882 120.006L88.9275 120.256C89.435 120.369 89.901 120.521 90.3252 120.71C90.7494 120.9 91.1169 121.133 91.4275 121.409C91.7381 121.686 91.9786 122.011 92.1491 122.386C92.3233 122.761 92.4123 123.191 92.4161 123.676C92.4123 124.388 92.2305 125.006 91.8707 125.528C91.5146 126.047 90.9994 126.451 90.3252 126.739C89.6547 127.023 88.846 127.165 87.8991 127.165C86.9597 127.165 86.1415 127.021 85.4445 126.733C84.7513 126.445 84.2097 126.019 83.8195 125.455C83.4331 124.886 83.2305 124.184 83.2116 123.347H85.5922C85.6188 123.737 85.7305 124.062 85.9275 124.324C86.1282 124.581 86.3953 124.777 86.7286 124.909C87.0657 125.038 87.4464 125.102 87.8706 125.102C88.2873 125.102 88.6491 125.042 88.9559 124.92C89.2665 124.799 89.507 124.631 89.6775 124.415C89.8479 124.199 89.9332 123.951 89.9332 123.67C89.9332 123.409 89.8555 123.189 89.7002 123.011C89.5487 122.833 89.3252 122.682 89.0297 122.557C88.7381 122.432 88.3801 122.318 87.9559 122.216L86.6888 121.898C85.7078 121.659 84.9331 121.286 84.365 120.778C83.7968 120.271 83.5146 119.587 83.5184 118.727C83.5146 118.023 83.7021 117.407 84.0809 116.881C84.4635 116.354 84.9881 115.943 85.6547 115.648C86.3214 115.352 87.079 115.205 87.9275 115.205C88.7911 115.205 89.5449 115.352 90.1888 115.648C90.8366 115.943 91.3403 116.354 91.7002 116.881C92.06 117.407 92.2456 118.017 92.257 118.71H89.8991ZM98.2528 127.159C97.4497 127.159 96.7338 127.011 96.105 126.716C95.48 126.42 94.9838 126.013 94.6164 125.494C94.249 124.975 94.0577 124.381 94.0425 123.71H96.4289C96.4554 124.161 96.6448 124.527 96.9971 124.807C97.3493 125.087 97.7679 125.227 98.2528 125.227C98.6391 125.227 98.98 125.142 99.2755 124.972C99.5747 124.797 99.8077 124.557 99.9743 124.25C100.145 123.939 100.23 123.583 100.23 123.182C100.23 122.773 100.143 122.413 99.9687 122.102C99.7982 121.792 99.5615 121.549 99.2584 121.375C98.9554 121.201 98.6088 121.112 98.2187 121.108C97.8778 121.108 97.5463 121.178 97.2243 121.318C96.9062 121.458 96.6581 121.65 96.48 121.892L94.2925 121.5L94.8437 115.364H101.957V117.375H96.8721L96.5709 120.29H96.6391C96.8437 120.002 97.1524 119.763 97.5653 119.574C97.9781 119.384 98.4403 119.29 98.9516 119.29C99.6524 119.29 100.277 119.455 100.827 119.784C101.376 120.114 101.81 120.566 102.128 121.142C102.446 121.714 102.603 122.373 102.599 123.119C102.603 123.903 102.421 124.6 102.054 125.21C101.69 125.816 101.181 126.294 100.525 126.642C99.874 126.987 99.1164 127.159 98.2528 127.159ZM108.878 127.256C107.9 127.252 107.06 127.011 106.355 126.534C105.654 126.057 105.114 125.366 104.736 124.46C104.361 123.555 104.175 122.466 104.179 121.193C104.179 119.924 104.366 118.843 104.741 117.949C105.12 117.055 105.66 116.375 106.361 115.909C107.065 115.439 107.904 115.205 108.878 115.205C109.851 115.205 110.688 115.439 111.389 115.909C112.094 116.379 112.635 117.061 113.014 117.955C113.393 118.845 113.58 119.924 113.577 121.193C113.577 122.47 113.387 123.561 113.008 124.466C112.633 125.371 112.096 126.062 111.395 126.54C110.694 127.017 109.855 127.256 108.878 127.256ZM108.878 125.216C109.544 125.216 110.077 124.881 110.474 124.21C110.872 123.54 111.069 122.534 111.065 121.193C111.065 120.311 110.974 119.576 110.793 118.989C110.614 118.402 110.361 117.96 110.031 117.665C109.705 117.369 109.321 117.222 108.878 117.222C108.215 117.222 107.685 117.553 107.287 118.216C106.889 118.879 106.688 119.871 106.685 121.193C106.685 122.087 106.774 122.833 106.952 123.432C107.133 124.027 107.389 124.473 107.719 124.773C108.048 125.068 108.435 125.216 108.878 125.216ZM119.893 127.256C118.916 127.252 118.075 127.011 117.371 126.534C116.67 126.057 116.13 125.366 115.751 124.46C115.376 123.555 115.191 122.466 115.195 121.193C115.195 119.924 115.382 118.843 115.757 117.949C116.136 117.055 116.676 116.375 117.376 115.909C118.081 115.439 118.92 115.205 119.893 115.205C120.867 115.205 121.704 115.439 122.405 115.909C123.109 116.379 123.651 117.061 124.03 117.955C124.409 118.845 124.596 119.924 124.592 121.193C124.592 122.47 124.403 123.561 124.024 124.466C123.649 125.371 123.111 126.062 122.41 126.54C121.71 127.017 120.871 127.256 119.893 127.256ZM119.893 125.216C120.56 125.216 121.092 124.881 121.49 124.21C121.888 123.54 122.085 122.534 122.081 121.193C122.081 120.311 121.99 119.576 121.808 118.989C121.63 118.402 121.376 117.96 121.047 117.665C120.721 117.369 120.337 117.222 119.893 117.222C119.23 117.222 118.7 117.553 118.302 118.216C117.905 118.879 117.704 119.871 117.7 121.193C117.7 122.087 117.789 122.833 117.967 123.432C118.149 124.027 118.405 124.473 118.734 124.773C119.064 125.068 119.45 125.216 119.893 125.216ZM127.315 127.148C126.94 127.148 126.618 127.015 126.349 126.75C126.084 126.481 125.952 126.159 125.952 125.784C125.952 125.413 126.084 125.095 126.349 124.83C126.618 124.564 126.94 124.432 127.315 124.432C127.679 124.432 127.997 124.564 128.27 124.83C128.543 125.095 128.679 125.413 128.679 125.784C128.679 126.034 128.614 126.263 128.486 126.472C128.361 126.676 128.196 126.841 127.991 126.966C127.787 127.087 127.561 127.148 127.315 127.148ZM134.737 127.256C133.76 127.252 132.919 127.011 132.214 126.534C131.514 126.057 130.974 125.366 130.595 124.46C130.22 123.555 130.034 122.466 130.038 121.193C130.038 119.924 130.226 118.843 130.601 117.949C130.98 117.055 131.519 116.375 132.22 115.909C132.925 115.439 133.764 115.205 134.737 115.205C135.711 115.205 136.548 115.439 137.248 115.909C137.953 116.379 138.495 117.061 138.873 117.955C139.252 118.845 139.44 119.924 139.436 121.193C139.436 122.47 139.247 123.561 138.868 124.466C138.493 125.371 137.955 126.062 137.254 126.54C136.553 127.017 135.714 127.256 134.737 127.256ZM134.737 125.216C135.404 125.216 135.936 124.881 136.334 124.21C136.731 123.54 136.928 122.534 136.925 121.193C136.925 120.311 136.834 119.576 136.652 118.989C136.474 118.402 136.22 117.96 135.891 117.665C135.565 117.369 135.18 117.222 134.737 117.222C134.074 117.222 133.544 117.553 133.146 118.216C132.748 118.879 132.548 119.871 132.544 121.193C132.544 122.087 132.633 122.833 132.811 123.432C132.993 124.027 133.248 124.473 133.578 124.773C133.908 125.068 134.294 125.216 134.737 125.216ZM145.753 127.256C144.775 127.252 143.935 127.011 143.23 126.534C142.529 126.057 141.989 125.366 141.611 124.46C141.236 123.555 141.05 122.466 141.054 121.193C141.054 119.924 141.241 118.843 141.616 117.949C141.995 117.055 142.535 116.375 143.236 115.909C143.94 115.439 144.779 115.205 145.753 115.205C146.726 115.205 147.563 115.439 148.264 115.909C148.969 116.379 149.51 117.061 149.889 117.955C150.268 118.845 150.455 119.924 150.452 121.193C150.452 122.47 150.262 123.561 149.883 124.466C149.508 125.371 148.971 126.062 148.27 126.54C147.569 127.017 146.73 127.256 145.753 127.256ZM145.753 125.216C146.419 125.216 146.952 124.881 147.349 124.21C147.747 123.54 147.944 122.534 147.94 121.193C147.94 120.311 147.849 119.576 147.668 118.989C147.489 118.402 147.236 117.96 146.906 117.665C146.58 117.369 146.196 117.222 145.753 117.222C145.09 117.222 144.56 117.553 144.162 118.216C143.764 118.879 143.563 119.871 143.56 121.193C143.56 122.087 143.649 122.833 143.827 123.432C144.008 124.027 144.264 124.473 144.594 124.773C144.923 125.068 145.31 125.216 145.753 125.216Z" fill="#344054"/>
<path d="M360.256 84V83.5H359.756H326.938C324.452 83.5 322.438 85.5147 322.438 88V122C322.438 124.485 324.452 126.5 326.937 126.5H359.756H360.256V126V84Z" fill="#5925DC"/>
<path fill-rule="evenodd" clip-rule="evenodd" d="M346.154 105C346.154 105.109 346.112 105.214 346.037 105.291C345.962 105.368 345.86 105.412 345.754 105.412L336.941 105.412C336.834 105.412 336.733 105.368 336.657 105.291C336.582 105.214 336.54 105.109 336.54 105C336.54 104.891 336.582 104.786 336.657 104.709C336.733 104.632 336.834 104.588 336.941 104.588L345.754 104.588C345.86 104.588 345.962 104.632 346.037 104.709C346.112 104.786 346.154 104.891 346.154 105Z" fill="white"/>
<path d="M360.256 84V83.5H359.756H326.938C324.452 83.5 322.438 85.5147 322.438 88V122C322.438 124.485 324.452 126.5 326.937 126.5H359.756H360.256V126V84Z" stroke="#98A2B3"/>
<path d="M393.728 111.159C392.879 111.159 392.124 111.013 391.461 110.722C390.802 110.426 390.281 110.021 389.898 109.506C389.519 108.987 389.324 108.388 389.313 107.71H391.79C391.805 107.994 391.898 108.244 392.069 108.46C392.243 108.672 392.474 108.837 392.762 108.955C393.05 109.072 393.374 109.131 393.733 109.131C394.108 109.131 394.44 109.064 394.728 108.932C395.016 108.799 395.241 108.616 395.404 108.381C395.567 108.146 395.648 107.875 395.648 107.568C395.648 107.258 395.561 106.983 395.387 106.744C395.216 106.502 394.97 106.312 394.648 106.176C394.33 106.04 393.951 105.972 393.512 105.972H392.427V104.165H393.512C393.883 104.165 394.211 104.1 394.495 103.972C394.783 103.843 395.006 103.665 395.165 103.438C395.324 103.206 395.404 102.938 395.404 102.631C395.404 102.339 395.334 102.083 395.194 101.864C395.057 101.64 394.864 101.466 394.614 101.341C394.368 101.216 394.08 101.153 393.75 101.153C393.417 101.153 393.112 101.214 392.836 101.335C392.559 101.453 392.338 101.621 392.171 101.841C392.004 102.061 391.915 102.318 391.904 102.614H389.546C389.557 101.943 389.749 101.352 390.12 100.841C390.491 100.33 390.991 99.9299 391.62 99.642C392.252 99.3504 392.966 99.2045 393.762 99.2045C394.565 99.2045 395.267 99.3504 395.87 99.642C396.472 99.9337 396.94 100.328 397.273 100.824C397.61 101.316 397.777 101.869 397.773 102.483C397.777 103.134 397.574 103.678 397.165 104.114C396.76 104.549 396.232 104.826 395.58 104.943V105.034C396.436 105.144 397.088 105.441 397.535 105.926C397.985 106.407 398.209 107.009 398.205 107.733C398.209 108.396 398.017 108.985 397.631 109.5C397.249 110.015 396.72 110.42 396.046 110.716C395.372 111.011 394.599 111.159 393.728 111.159Z" fill="#344054"/>
<rect x="360.257" y="83.5" width="67" height="43" stroke="#98A2B3"/>
<path d="M427.757 83.5H427.257V84V126V126.5H427.757H460.576C463.061 126.5 465.076 124.485 465.076 122V88C465.076 85.5147 463.061 83.5 460.576 83.5H427.757Z" fill="#5925DC"/>
<path d="M452.576 111.588L443.757 111.588C441.548 111.588 439.757 109.797 439.757 107.588L439.757 102.412C439.757 100.203 441.548 98.4118 443.757 98.4118L452.576 98.4118L452.576 111.588Z" fill="#5925DC"/>
<path fill-rule="evenodd" clip-rule="evenodd" d="M446.167 109.941C446.06 109.941 445.958 109.898 445.883 109.821C445.808 109.743 445.766 109.639 445.766 109.529L445.766 105.412L441.76 105.412C441.654 105.412 441.552 105.368 441.477 105.291C441.402 105.214 441.359 105.109 441.359 105C441.359 104.891 441.402 104.786 441.477 104.709C441.552 104.632 441.654 104.588 441.76 104.588L445.766 104.588L445.766 100.471C445.766 100.361 445.808 100.257 445.883 100.179C445.958 100.102 446.06 100.059 446.167 100.059C446.273 100.059 446.375 100.102 446.45 100.179C446.525 100.257 446.567 100.361 446.567 100.471L446.567 104.588L450.573 104.588C450.679 104.588 450.781 104.632 450.856 104.709C450.931 104.786 450.974 104.891 450.974 105C450.974 105.109 450.931 105.214 450.856 105.291C450.781 105.368 450.679 105.412 450.573 105.412L446.567 105.412L446.567 109.529C446.567 109.639 446.525 109.743 446.45 109.821C446.375 109.898 446.273 109.941 446.167 109.941Z" fill="white"/>
<path d="M427.757 83.5H427.257V84V126V126.5H427.757H460.576C463.061 126.5 465.076 124.485 465.076 122V88C465.076 85.5147 463.061 83.5 460.576 83.5H427.757Z" stroke="#98A2B3"/>
</g>
<path d="M62.5752 2H484.575V0H62.5752V2ZM487.575 5V157H489.575V5H487.575ZM484.575 160H62.5752V162H484.575V160ZM59.5752 157V5H57.5752V157H59.5752ZM62.5752 160C60.9183 160 59.5752 158.657 59.5752 157H57.5752C57.5752 159.761 59.8138 162 62.5752 162V160ZM487.575 157C487.575 158.657 486.232 160 484.575 160V162C487.337 162 489.575 159.761 489.575 157H487.575ZM484.575 2C486.232 2 487.575 3.34314 487.575 5H489.575C489.575 2.23858 487.337 0 484.575 0V2ZM62.5752 0C59.8138 0 57.5752 2.23857 57.5752 5H59.5752C59.5752 3.34314 60.9183 2 62.5752 2V0Z" fill="#98A2B3"/>
<rect x="59" y="1" width="24" height="160" fill="#E8178A" fill-opacity="0.24"/>
<rect x="58" y="1.00012" width="431" height="24" fill="#E8178A" fill-opacity="0.24"/>
<rect x="58" y="137" width="431" height="24" fill="#E8178A" fill-opacity="0.24"/>
<rect x="58" y="57" width="431" height="16" fill="#E8178A" fill-opacity="0.24"/>
<rect x="465.85" y="1" width="24" height="160" fill="#E8178A" fill-opacity="0.24"/>
<path d="M59 178.5H83" stroke="#E8178A"/>
<rect x="52.5" y="183" width="37" height="18" rx="3" fill="#E8178A"/>
<path d="M59.0895 196V194.892L61.6783 192.495C61.8984 192.282 62.0831 192.09 62.2322 191.92C62.3838 191.749 62.4986 191.582 62.5767 191.419C62.6548 191.253 62.6939 191.075 62.6939 190.883C62.6939 190.67 62.6454 190.486 62.5483 190.332C62.4512 190.176 62.3187 190.057 62.1506 189.974C61.9825 189.888 61.7919 189.846 61.5788 189.846C61.3563 189.846 61.1622 189.891 60.9964 189.981C60.8307 190.071 60.7029 190.2 60.6129 190.368C60.523 190.536 60.478 190.736 60.478 190.968H59.0185C59.0185 190.492 59.1262 190.079 59.3416 189.729C59.5571 189.378 59.8589 189.107 60.2472 188.915C60.6354 188.724 61.0829 188.628 61.5895 188.628C62.1103 188.628 62.5637 188.72 62.9496 188.905C63.3378 189.087 63.6397 189.34 63.8551 189.665C64.0705 189.989 64.1783 190.361 64.1783 190.78C64.1783 191.054 64.1238 191.326 64.0149 191.593C63.9084 191.861 63.7178 192.158 63.4432 192.484C63.1686 192.809 62.7815 193.198 62.282 193.653L61.2202 194.693V194.743H64.2741V196H59.0895ZM65.122 194.722V193.511L68.1582 188.727H69.2022V190.403H68.5843L66.6703 193.433V193.489H70.9849V194.722H65.122ZM68.6127 196V194.352L68.6412 193.816V188.727H70.0829V196H68.6127ZM72.0236 198.045V190.545H73.5151V191.462H73.5826C73.6489 191.315 73.7447 191.166 73.8702 191.014C73.998 190.86 74.1638 190.732 74.3674 190.631C74.5733 190.527 74.829 190.474 75.1344 190.474C75.5321 190.474 75.8991 190.579 76.2353 190.787C76.5714 190.993 76.8401 191.304 77.0414 191.721C77.2426 192.135 77.3432 192.655 77.3432 193.28C77.3432 193.888 77.245 194.402 77.0485 194.821C76.8543 195.238 76.5892 195.554 76.253 195.769C75.9192 195.982 75.5452 196.089 75.1309 196.089C74.8373 196.089 74.5875 196.04 74.3816 195.943C74.178 195.846 74.0111 195.724 73.8809 195.577C73.7507 195.428 73.6512 195.278 73.5826 195.126H73.5364V198.045H72.0236ZM73.5044 193.273C73.5044 193.597 73.5494 193.88 73.6394 194.121C73.7293 194.363 73.8596 194.551 74.03 194.686C74.2005 194.819 74.4076 194.885 74.6515 194.885C74.8977 194.885 75.106 194.817 75.2765 194.683C75.4469 194.545 75.5759 194.356 75.6635 194.114C75.7535 193.871 75.7985 193.59 75.7985 193.273C75.7985 192.958 75.7547 192.681 75.6671 192.442C75.5795 192.203 75.4505 192.016 75.28 191.881C75.1096 191.746 74.9 191.678 74.6515 191.678C74.4052 191.678 74.1969 191.743 74.0265 191.874C73.8584 192.004 73.7293 192.188 73.6394 192.428C73.5494 192.667 73.5044 192.948 73.5044 193.273ZM79.4206 190.545L80.4221 192.452L81.4483 190.545H83.0002L81.4199 193.273L83.0428 196H81.498L80.4221 194.114L79.3638 196H77.8013L79.4206 193.273L77.8581 190.545H79.4206Z" fill="white"/>
<line x1="59.5" y1="182" x2="59.5" y2="175" stroke="#E8178A"/>
<line x1="82.5" y1="182" x2="82.5" y2="175" stroke="#E8178A"/>
<path d="M465.85 177.5H489.85" stroke="#E8178A"/>
<rect x="459.35" y="182" width="37" height="18" rx="3" fill="#E8178A"/>
<path d="M465.939 195V193.892L468.528 191.495C468.748 191.282 468.933 191.09 469.082 190.92C469.233 190.749 469.348 190.582 469.426 190.419C469.504 190.253 469.544 190.075 469.544 189.883C469.544 189.67 469.495 189.486 469.398 189.332C469.301 189.176 469.168 189.057 469 188.974C468.832 188.888 468.642 188.846 468.428 188.846C468.206 188.846 468.012 188.891 467.846 188.981C467.68 189.071 467.552 189.2 467.463 189.368C467.373 189.536 467.328 189.736 467.328 189.968H465.868C465.868 189.492 465.976 189.079 466.191 188.729C466.407 188.378 466.709 188.107 467.097 187.915C467.485 187.724 467.932 187.628 468.439 187.628C468.96 187.628 469.413 187.72 469.799 187.905C470.187 188.087 470.489 188.34 470.705 188.665C470.92 188.989 471.028 189.361 471.028 189.78C471.028 190.054 470.973 190.326 470.865 190.593C470.758 190.861 470.567 191.158 470.293 191.484C470.018 191.809 469.631 192.198 469.132 192.653L468.07 193.693V193.743H471.124V195H465.939ZM471.972 193.722V192.511L475.008 187.727H476.052V189.403H475.434L473.52 192.433V192.489H477.835V193.722H471.972ZM475.462 195V193.352L475.491 192.816V187.727H476.933V195H475.462ZM478.873 197.045V189.545H480.365V190.462H480.432C480.498 190.315 480.594 190.166 480.72 190.014C480.848 189.86 481.013 189.732 481.217 189.631C481.423 189.527 481.679 189.474 481.984 189.474C482.382 189.474 482.749 189.579 483.085 189.787C483.421 189.993 483.69 190.304 483.891 190.721C484.092 191.135 484.193 191.655 484.193 192.28C484.193 192.888 484.095 193.402 483.898 193.821C483.704 194.238 483.439 194.554 483.103 194.769C482.769 194.982 482.395 195.089 481.98 195.089C481.687 195.089 481.437 195.04 481.231 194.943C481.028 194.846 480.861 194.724 480.73 194.577C480.6 194.428 480.501 194.278 480.432 194.126H480.386V197.045H478.873ZM480.354 192.273C480.354 192.597 480.399 192.88 480.489 193.121C480.579 193.363 480.709 193.551 480.88 193.686C481.05 193.819 481.257 193.885 481.501 193.885C481.747 193.885 481.956 193.817 482.126 193.683C482.297 193.545 482.426 193.356 482.513 193.114C482.603 192.871 482.648 192.59 482.648 192.273C482.648 191.958 482.604 191.681 482.517 191.442C482.429 191.203 482.3 191.016 482.13 190.881C481.959 190.746 481.75 190.678 481.501 190.678C481.255 190.678 481.047 190.743 480.876 190.874C480.708 191.004 480.579 191.188 480.489 191.428C480.399 191.667 480.354 191.948 480.354 192.273ZM486.27 189.545L487.272 191.452L488.298 189.545H489.85L488.27 192.273L489.892 195H488.348L487.272 193.114L486.213 195H484.651L486.27 192.273L484.708 189.545H486.27Z" fill="white"/>
<line x1="466.35" y1="181" x2="466.35" y2="174" stroke="#E8178A"/>
<line x1="489.35" y1="181" x2="489.35" y2="174" stroke="#E8178A"/>
<path d="M41.5 1L41.5 25" stroke="#E8178A"/>
<rect y="5.5" width="37" height="18" rx="3" fill="#E8178A"/>
<path d="M6.58949 18.5V17.392L9.17827 14.995C9.39844 14.782 9.5831 14.5902 9.73224 14.4197C9.88376 14.2493 9.99858 14.0824 10.0767 13.919C10.1548 13.7533 10.1939 13.5746 10.1939 13.3828C10.1939 13.1697 10.1454 12.9863 10.0483 12.8324C9.95123 12.6761 9.81866 12.5566 9.65057 12.4737C9.48248 12.3885 9.2919 12.3459 9.07884 12.3459C8.8563 12.3459 8.66217 12.3909 8.49645 12.4808C8.33073 12.5708 8.20289 12.6998 8.11293 12.8679C8.02296 13.036 7.97798 13.236 7.97798 13.468H6.51847C6.51847 12.9922 6.62618 12.5791 6.84162 12.2287C7.05705 11.8783 7.3589 11.6072 7.74716 11.4155C8.13542 11.2237 8.58286 11.1278 9.08949 11.1278C9.61032 11.1278 10.0637 11.2202 10.4496 11.4048C10.8378 11.5871 11.1397 11.8404 11.3551 12.1648C11.5705 12.4891 11.6783 12.8608 11.6783 13.2798C11.6783 13.5545 11.6238 13.8255 11.5149 14.093C11.4084 14.3606 11.2178 14.6577 10.9432 14.9844C10.6686 15.3087 10.2815 15.6982 9.78196 16.1527L8.72017 17.1932V17.2429H11.7741V18.5H6.58949ZM12.622 17.2216L12.622 16.0107L15.6582 11.2273H16.7022V12.9034H16.0843L14.1703 15.9325V15.9893L18.4849 15.9893V17.2216H12.622ZM16.1127 18.5V16.8523L16.1412 16.3161V11.2273H17.5829V18.5H16.1127ZM19.5236 20.5455V13.0455L21.0151 13.0455V13.9616H21.0826C21.1489 13.8149 21.2447 13.6657 21.3702 13.5142C21.498 13.3603 21.6638 13.2325 21.8674 13.1307C22.0733 13.0265 22.329 12.9744 22.6344 12.9744C23.0321 12.9744 23.3991 13.0786 23.7353 13.2869C24.0714 13.4929 24.3401 13.8042 24.5414 14.2209C24.7426 14.6352 24.8432 15.1548 24.8432 15.7798C24.8432 16.3883 24.745 16.902 24.5485 17.321C24.3543 17.7377 24.0892 18.0537 23.753 18.2692C23.4192 18.4822 23.0452 18.5888 22.6309 18.5888C22.3373 18.5888 22.0875 18.5402 21.8816 18.4432C21.678 18.3461 21.5111 18.2242 21.3809 18.0774C21.2507 17.9283 21.1512 17.7779 21.0826 17.6264H21.0364V20.5455H19.5236ZM21.0044 15.7727C21.0044 16.0971 21.0494 16.38 21.1394 16.6214C21.2293 16.8629 21.3596 17.0511 21.53 17.1861C21.7005 17.3187 21.9076 17.3849 22.1515 17.3849C22.3977 17.3849 22.606 17.3175 22.7765 17.1825C22.9469 17.0452 23.0759 16.8558 23.1635 16.6143C23.2535 16.3705 23.2985 16.09 23.2985 15.7727C23.2985 15.4579 23.2547 15.1809 23.1671 14.9418C23.0795 14.7027 22.9505 14.5156 22.78 14.3807C22.6096 14.2457 22.4 14.1783 22.1515 14.1783C21.9052 14.1783 21.6969 14.2434 21.5265 14.3736C21.3584 14.5038 21.2293 14.6884 21.1394 14.9276C21.0494 15.1667 21.0044 15.4484 21.0044 15.7727ZM26.9206 13.0455L27.9221 14.9524L28.9483 13.0455H30.5002L28.9199 15.7727L30.5428 18.5H28.998L27.9221 16.6143L26.8638 18.5H25.3013L26.9206 15.7727L25.3581 13.0455H26.9206Z" fill="white"/>
<line x1="38" y1="1.5" x2="45" y2="1.5" stroke="#E8178A"/>
<line x1="38" y1="24.5" x2="45" y2="24.5" stroke="#E8178A"/>
<path d="M41.5 137L41.5 161" stroke="#E8178A"/>
<rect y="141.5" width="37" height="18" rx="3" fill="#E8178A"/>
<path d="M6.58949 154.5V153.392L9.17827 150.995C9.39844 150.782 9.5831 150.59 9.73224 150.42C9.88376 150.249 9.99858 150.082 10.0767 149.919C10.1548 149.753 10.1939 149.575 10.1939 149.383C10.1939 149.17 10.1454 148.986 10.0483 148.832C9.95123 148.676 9.81866 148.557 9.65057 148.474C9.48248 148.388 9.2919 148.346 9.07884 148.346C8.8563 148.346 8.66217 148.391 8.49645 148.481C8.33073 148.571 8.20289 148.7 8.11293 148.868C8.02296 149.036 7.97798 149.236 7.97798 149.468H6.51847C6.51847 148.992 6.62618 148.579 6.84162 148.229C7.05705 147.878 7.3589 147.607 7.74716 147.415C8.13542 147.224 8.58286 147.128 9.08949 147.128C9.61032 147.128 10.0637 147.22 10.4496 147.405C10.8378 147.587 11.1397 147.84 11.3551 148.165C11.5705 148.489 11.6783 148.861 11.6783 149.28C11.6783 149.554 11.6238 149.826 11.5149 150.093C11.4084 150.361 11.2178 150.658 10.9432 150.984C10.6686 151.309 10.2815 151.698 9.78196 152.153L8.72017 153.193V153.243H11.7741V154.5H6.58949ZM12.622 153.222L12.622 152.011L15.6582 147.227H16.7022V148.903H16.0843L14.1703 151.933V151.989H18.4849V153.222H12.622ZM16.1127 154.5V152.852L16.1412 152.316V147.227H17.5829V154.5H16.1127ZM19.5236 156.545V149.045H21.0151V149.962H21.0826C21.1489 149.815 21.2447 149.666 21.3702 149.514C21.498 149.36 21.6638 149.232 21.8674 149.131C22.0733 149.027 22.329 148.974 22.6344 148.974C23.0321 148.974 23.3991 149.079 23.7353 149.287C24.0714 149.493 24.3401 149.804 24.5414 150.221C24.7426 150.635 24.8432 151.155 24.8432 151.78C24.8432 152.388 24.745 152.902 24.5485 153.321C24.3543 153.738 24.0892 154.054 23.753 154.269C23.4192 154.482 23.0452 154.589 22.6309 154.589C22.3373 154.589 22.0875 154.54 21.8816 154.443C21.678 154.346 21.5111 154.224 21.3809 154.077C21.2507 153.928 21.1512 153.778 21.0826 153.626H21.0364V156.545H19.5236ZM21.0044 151.773C21.0044 152.097 21.0494 152.38 21.1394 152.621C21.2293 152.863 21.3596 153.051 21.53 153.186C21.7005 153.319 21.9076 153.385 22.1515 153.385C22.3977 153.385 22.606 153.317 22.7765 153.183C22.9469 153.045 23.0759 152.856 23.1635 152.614C23.2535 152.371 23.2985 152.09 23.2985 151.773C23.2985 151.458 23.2547 151.181 23.1671 150.942C23.0795 150.703 22.9505 150.516 22.78 150.381C22.6096 150.246 22.4 150.178 22.1515 150.178C21.9052 150.178 21.6969 150.243 21.5265 150.374C21.3584 150.504 21.2293 150.688 21.1394 150.928C21.0494 151.167 21.0044 151.448 21.0044 151.773ZM26.9206 149.045L27.9221 150.952L28.9483 149.045H30.5002L28.9199 151.773L30.5428 154.5H28.998L27.9221 152.614L26.8638 154.5H25.3013L26.9206 151.773L25.3581 149.045H26.9206Z" fill="white"/>
<line x1="38" y1="137.5" x2="45" y2="137.5" stroke="#E8178A"/>
<line x1="38" y1="160.5" x2="45" y2="160.5" stroke="#E8178A"/>
<path d="M505.5 57V73" stroke="#E8178A"/>
<rect x="510" y="57.5" width="36" height="18" rx="3" fill="#E8178A"/>
<path d="M519.754 63.2273V70.5H518.216V64.6868H518.173L516.508 65.7308V64.3672L518.308 63.2273H519.754ZM524.273 70.5994C523.899 70.5971 523.538 70.5343 523.19 70.4112C522.845 70.2881 522.534 70.0881 522.26 69.8111C521.985 69.5341 521.767 69.1671 521.606 68.7102C521.448 68.2533 521.368 67.6922 521.368 67.027C521.371 66.4162 521.441 65.8705 521.578 65.3899C521.718 64.907 521.916 64.4974 522.175 64.1612C522.435 63.825 522.746 63.5694 523.108 63.3942C523.471 63.2166 523.877 63.1278 524.327 63.1278C524.812 63.1278 525.24 63.2225 525.612 63.4119C525.984 63.599 526.282 63.8535 526.507 64.1754C526.734 64.4974 526.872 64.8584 526.919 65.2585H525.403C525.343 65.0052 525.219 64.8063 525.03 64.6619C524.84 64.5175 524.606 64.4453 524.327 64.4453C523.853 64.4453 523.493 64.6513 523.247 65.0632C523.003 65.4751 522.879 66.035 522.874 66.7429H522.924C523.033 66.5275 523.18 66.344 523.364 66.1925C523.551 66.0386 523.763 65.9214 524 65.8409C524.239 65.758 524.491 65.7166 524.756 65.7166C525.187 65.7166 525.571 65.8184 525.907 66.022C526.243 66.2232 526.508 66.5002 526.702 66.853C526.896 67.2057 526.993 67.6094 526.993 68.0639C526.993 68.5563 526.879 68.9943 526.649 69.3778C526.422 69.7614 526.103 70.062 525.694 70.2798C525.287 70.4953 524.813 70.6018 524.273 70.5994ZM524.266 69.392C524.503 69.392 524.715 69.3352 524.902 69.2216C525.089 69.108 525.236 68.9541 525.342 68.7599C525.449 68.5658 525.502 68.348 525.502 68.1065C525.502 67.8651 525.449 67.6484 525.342 67.4567C525.238 67.2649 525.094 67.1122 524.909 66.9986C524.724 66.8849 524.514 66.8281 524.277 66.8281C524.099 66.8281 523.935 66.8613 523.783 66.9276C523.634 66.9938 523.503 67.0862 523.389 67.2045C523.278 67.3229 523.19 67.4602 523.126 67.6165C523.062 67.7704 523.03 67.9349 523.03 68.1101C523.03 68.3445 523.084 68.5587 523.19 68.7528C523.299 68.947 523.446 69.102 523.631 69.218C523.818 69.334 524.029 69.392 524.266 69.392ZM528.098 72.5455V65.0455H529.589V65.9616H529.657C529.723 65.8149 529.819 65.6657 529.944 65.5142C530.072 65.3603 530.238 65.2325 530.442 65.1307C530.648 65.0265 530.903 64.9744 531.209 64.9744C531.606 64.9744 531.973 65.0786 532.309 65.2869C532.646 65.4929 532.914 65.8042 533.116 66.2209C533.317 66.6352 533.417 67.1548 533.417 67.7798C533.417 68.3883 533.319 68.902 533.123 69.321C532.929 69.7377 532.663 70.0537 532.327 70.2692C531.993 70.4822 531.619 70.5888 531.205 70.5888C530.912 70.5888 530.662 70.5402 530.456 70.4432C530.252 70.3461 530.085 70.2242 529.955 70.0774C529.825 69.9283 529.725 69.7779 529.657 69.6264H529.611V72.5455H528.098ZM529.579 67.7727C529.579 68.0971 529.624 68.38 529.714 68.6214C529.804 68.8629 529.934 69.0511 530.104 69.1861C530.275 69.3187 530.482 69.3849 530.726 69.3849C530.972 69.3849 531.18 69.3175 531.351 69.1825C531.521 69.0452 531.65 68.8558 531.738 68.6143C531.828 68.3705 531.873 68.09 531.873 67.7727C531.873 67.4579 531.829 67.1809 531.741 66.9418C531.654 66.7027 531.525 66.5156 531.354 66.3807C531.184 66.2457 530.974 66.1783 530.726 66.1783C530.479 66.1783 530.271 66.2434 530.101 66.3736C529.933 66.5038 529.804 66.6884 529.714 66.9276C529.624 67.1667 529.579 67.4484 529.579 67.7727ZM535.495 65.0455L536.496 66.9524L537.523 65.0455H539.074L537.494 67.7727L539.117 70.5H537.572L536.496 68.6143L535.438 70.5H533.876L535.495 67.7727L533.932 65.0455H535.495Z" fill="white"/>
<line x1="502" y1="57.5" x2="509" y2="57.5" stroke="#E8178A"/>
<line x1="502" y1="72.5" x2="509" y2="72.5" stroke="#E8178A"/>
<defs>
<clipPath id="clip0_5800_5098">
<path d="M58.5752 5C58.5752 2.79086 60.3661 1 62.5752 1H484.575C486.784 1 488.575 2.79086 488.575 5V157C488.575 159.209 486.784 161 484.575 161H62.5752C60.3661 161 58.5752 159.209 58.5752 157V5Z" fill="white"/>
</clipPath>
</defs>
</svg>
