<svg width="289" height="171" viewBox="0 0 289 171" fill="none" xmlns="http://www.w3.org/2000/svg">
<path d="M0.411713 3.19991C0.411713 1.65351 1.66532 0.399902 3.21171 0.399902H286.012C287.558 0.399902 288.812 1.65351 288.812 3.1999V167.6C288.812 169.146 287.558 170.4 286.012 170.4H3.2117C1.66531 170.4 0.411713 169.146 0.411713 167.6V3.19991Z" fill="white"/>
<g clip-path="url(#clip0_2_1208)">
<path d="M20.8867 20.2999C21.026 20.2999 21.1595 20.3552 21.2579 20.4537C21.3564 20.5521 21.4117 20.6857 21.4117 20.8249V21.3499H29.8117V20.8249C29.8117 20.6857 29.867 20.5521 29.9655 20.4537C30.0639 20.3552 30.1975 20.2999 30.3367 20.2999C30.4759 20.2999 30.6095 20.3552 30.7079 20.4537C30.8064 20.5521 30.8617 20.6857 30.8617 20.8249V21.3499H31.9117C32.4687 21.3499 33.0028 21.5712 33.3966 21.965C33.7905 22.3588 34.0117 22.893 34.0117 23.4499V34.9999C34.0117 35.5569 33.7905 36.091 33.3966 36.4848C33.0028 36.8787 32.4687 37.0999 31.9117 37.0999H19.3117C18.7548 37.0999 18.2206 36.8787 17.8268 36.4848C17.433 36.091 17.2117 35.5569 17.2117 34.9999V23.4499C17.2117 22.893 17.433 22.3588 17.8268 21.965C18.2206 21.5712 18.7548 21.3499 19.3117 21.3499H20.3617V20.8249C20.3617 20.6857 20.417 20.5521 20.5155 20.4537C20.6139 20.3552 20.7475 20.2999 20.8867 20.2999V20.2999ZM18.2617 24.4999V34.9999C18.2617 35.2784 18.3723 35.5455 18.5692 35.7424C18.7662 35.9393 19.0332 36.0499 19.3117 36.0499H31.9117C32.1902 36.0499 32.4573 35.9393 32.6542 35.7424C32.8511 35.5455 32.9617 35.2784 32.9617 34.9999V24.4999H18.2617Z" fill="#344054"/>
</g>
<path d="M47.1844 24.0545V32.1999H46.1981V24.0545H47.1844ZM51.5167 32.3272C50.944 32.3272 50.4508 32.192 50.0371 31.9215C49.6235 31.651 49.3053 31.2785 49.0826 30.8039C48.8599 30.3293 48.7485 29.787 48.7485 29.1772C48.7485 28.5567 48.8625 28.0092 49.0906 27.5346C49.3212 27.0573 49.6421 26.6848 50.0531 26.417C50.4667 26.1465 50.9493 26.0113 51.5008 26.0113C51.9303 26.0113 52.3174 26.0908 52.6621 26.2499C53.0068 26.409 53.2892 26.6317 53.5093 26.9181C53.7294 27.2045 53.8659 27.5385 53.919 27.9204H52.9803C52.9087 27.642 52.7496 27.3954 52.5031 27.1806C52.2591 26.9632 51.9303 26.8545 51.5167 26.8545C51.1508 26.8545 50.8299 26.9499 50.5542 27.1408C50.2811 27.3291 50.0676 27.5955 49.9138 27.9402C49.7627 28.2823 49.6871 28.684 49.6871 29.1454C49.6871 29.6173 49.7614 30.0283 49.9099 30.3783C50.061 30.7283 50.2731 31.0001 50.5462 31.1937C50.822 31.3872 51.1455 31.484 51.5167 31.484C51.7606 31.484 51.982 31.4416 52.1809 31.3567C52.3798 31.2719 52.5481 31.1499 52.686 30.9908C52.8239 30.8317 52.922 30.6408 52.9803 30.4181H53.919C53.8659 30.7787 53.7347 31.1035 53.5252 31.3925C53.3184 31.6789 53.044 31.9069 52.7019 32.0766C52.3625 32.2437 51.9674 32.3272 51.5167 32.3272ZM57.7729 32.3272C57.2214 32.3272 56.7375 32.1959 56.3212 31.9334C55.9076 31.6709 55.5841 31.3037 55.3508 30.8317C55.1201 30.3598 55.0048 29.8082 55.0048 29.1772C55.0048 28.5408 55.1201 27.9853 55.3508 27.5107C55.5841 27.0361 55.9076 26.6675 56.3212 26.405C56.7375 26.1425 57.2214 26.0113 57.7729 26.0113C58.3245 26.0113 58.807 26.1425 59.2207 26.405C59.637 26.6675 59.9604 27.0361 60.1911 27.5107C60.4245 27.9853 60.5411 28.5408 60.5411 29.1772C60.5411 29.8082 60.4245 30.3598 60.1911 30.8317C59.9604 31.3037 59.637 31.6709 59.2207 31.9334C58.807 32.1959 58.3245 32.3272 57.7729 32.3272ZM57.7729 31.484C58.1919 31.484 58.5366 31.3766 58.807 31.1618C59.0775 30.9471 59.2777 30.6647 59.4076 30.3147C59.5375 29.9647 59.6025 29.5855 59.6025 29.1772C59.6025 28.7688 59.5375 28.3884 59.4076 28.0357C59.2777 27.683 59.0775 27.398 58.807 27.1806C58.5366 26.9632 58.1919 26.8545 57.7729 26.8545C57.354 26.8545 57.0093 26.9632 56.7388 27.1806C56.4684 27.398 56.2682 27.683 56.1383 28.0357C56.0084 28.3884 55.9434 28.7688 55.9434 29.1772C55.9434 29.5855 56.0084 29.9647 56.1383 30.3147C56.2682 30.6647 56.4684 30.9471 56.7388 31.1618C57.0093 31.3766 57.354 31.484 57.7729 31.484ZM62.9126 28.5249V32.1999H61.9739V26.0908H62.8807V27.0454H62.9603C63.1035 26.7351 63.3209 26.4859 63.6126 26.2976C63.9042 26.1067 64.2807 26.0113 64.7421 26.0113C65.1557 26.0113 65.5177 26.0961 65.8279 26.2658C66.1381 26.4329 66.3794 26.6874 66.5518 27.0295C66.7241 27.3688 66.8103 27.7984 66.8103 28.3181V32.1999H65.8717V28.3817C65.8717 27.9018 65.747 27.5279 65.4978 27.2601C65.2486 26.9897 64.9065 26.8545 64.4717 26.8545C64.172 26.8545 63.9042 26.9194 63.6682 27.0493C63.4349 27.1793 63.2506 27.3688 63.1154 27.6181C62.9802 27.8673 62.9126 28.1696 62.9126 28.5249ZM74.3323 26.0908V26.8863H71.1664V26.0908H74.3323ZM72.0891 24.6272H73.0278V30.4499C73.0278 30.7151 73.0662 30.9139 73.1431 31.0465C73.2227 31.1764 73.3234 31.2639 73.4454 31.309C73.57 31.3514 73.7013 31.3726 73.8391 31.3726C73.9425 31.3726 74.0274 31.3673 74.0937 31.3567C74.16 31.3435 74.213 31.3329 74.2528 31.3249L74.4437 32.1681C74.38 32.192 74.2912 32.2158 74.1772 32.2397C74.0632 32.2662 73.9187 32.2795 73.7437 32.2795C73.4785 32.2795 73.2187 32.2224 72.9641 32.1084C72.7122 31.9944 72.5028 31.8207 72.3357 31.5874C72.1713 31.3541 72.0891 31.0598 72.0891 30.7045V24.6272ZM75.7442 32.1999V26.0908H76.6829V32.1999H75.7442ZM76.2215 25.0726C76.0386 25.0726 75.8808 25.0103 75.7482 24.8857C75.6183 24.7611 75.5533 24.6113 75.5533 24.4363C75.5533 24.2613 75.6183 24.1115 75.7482 23.9868C75.8808 23.8622 76.0386 23.7999 76.2215 23.7999C76.4045 23.7999 76.5609 23.8622 76.6908 23.9868C76.8234 24.1115 76.8897 24.2613 76.8897 24.4363C76.8897 24.6113 76.8234 24.7611 76.6908 24.8857C76.5609 25.0103 76.4045 25.0726 76.2215 25.0726ZM81.0589 26.0908V26.8863H77.893V26.0908H81.0589ZM78.8157 24.6272H79.7543V30.4499C79.7543 30.7151 79.7928 30.9139 79.8697 31.0465C79.9492 31.1764 80.05 31.2639 80.1719 31.309C80.2966 31.3514 80.4278 31.3726 80.5657 31.3726C80.6691 31.3726 80.7539 31.3673 80.8202 31.3567C80.8865 31.3435 80.9396 31.3329 80.9793 31.3249L81.1702 32.1681C81.1066 32.192 81.0178 32.2158 80.9038 32.2397C80.7897 32.2662 80.6452 32.2795 80.4702 32.2795C80.2051 32.2795 79.9452 32.2224 79.6907 32.1084C79.4388 31.9944 79.2293 31.8207 79.0623 31.5874C78.8979 31.3541 78.8157 31.0598 78.8157 30.7045V24.6272ZM83.5407 24.0545V32.1999H82.6021V24.0545H83.5407ZM87.8212 32.3272C87.2326 32.3272 86.7248 32.1973 86.2979 31.9374C85.8737 31.6749 85.5462 31.309 85.3155 30.8397C85.0875 30.3677 84.9735 29.8188 84.9735 29.1931C84.9735 28.5673 85.0875 28.0158 85.3155 27.5385C85.5462 27.0586 85.8671 26.6848 86.278 26.417C86.6917 26.1465 87.1743 26.0113 87.7258 26.0113C88.044 26.0113 88.3582 26.0643 88.6684 26.1704C88.9786 26.2764 89.261 26.4488 89.5155 26.6874C89.7701 26.9234 89.9729 27.2363 90.1241 27.626C90.2752 28.0158 90.3508 28.4957 90.3508 29.0658V29.4635H85.6417V28.6522H89.3962C89.3962 28.3075 89.3273 27.9999 89.1894 27.7295C89.0542 27.459 88.8606 27.2455 88.6087 27.0891C88.3595 26.9327 88.0652 26.8545 87.7258 26.8545C87.3519 26.8545 87.0284 26.9473 86.7553 27.1329C86.4849 27.3158 86.2767 27.5545 86.1309 27.8488C85.9851 28.1431 85.9121 28.4586 85.9121 28.7954V29.3363C85.9121 29.7976 85.9917 30.1887 86.1508 30.5096C86.3125 30.8277 86.5366 31.0704 86.8229 31.2374C87.1093 31.4018 87.4421 31.484 87.8212 31.484C88.0678 31.484 88.2905 31.4495 88.4894 31.3806C88.6909 31.309 88.8646 31.2029 89.0104 31.0624C89.1563 30.9192 89.269 30.7416 89.3485 30.5295L90.2553 30.784C90.1599 31.0916 89.9995 31.362 89.7741 31.5954C89.5487 31.826 89.2703 32.0063 88.9388 32.1363C88.6074 32.2635 88.2349 32.3272 87.8212 32.3272Z" fill="black"/>
<circle cx="263.612" cy="28.6999" r="8.05" fill="white" stroke="#344054" stroke-width="0.7"/>
<path d="M17.8083 58.3116V56.1817H27.843V58.3116H24.1023V68.3999H21.5489V58.3116H17.8083ZM29.4478 68.3999V59.2363H31.9893V68.3999H29.4478ZM30.7245 58.055C30.3467 58.055 30.0225 57.9297 29.7521 57.6792C29.4856 57.4246 29.3523 57.1204 29.3523 56.7664C29.3523 56.4164 29.4856 56.1161 29.7521 55.8655C30.0225 55.611 30.3467 55.4837 30.7245 55.4837C31.1023 55.4837 31.4245 55.611 31.691 55.8655C31.9614 56.1161 32.0967 56.4164 32.0967 56.7664C32.0967 57.1204 31.9614 57.4246 31.691 57.6792C31.4245 57.9297 31.1023 58.055 30.7245 58.055ZM38.8993 59.2363V61.1454H33.3808V59.2363H38.8993ZM34.6337 57.0408H37.1751V65.584C37.1751 65.8187 37.2109 66.0016 37.2825 66.1329C37.3541 66.2601 37.4535 66.3496 37.5808 66.4013C37.7121 66.453 37.8632 66.4789 38.0342 66.4789C38.1535 66.4789 38.2729 66.4689 38.3922 66.4491C38.5115 66.4252 38.603 66.4073 38.6666 66.3954L39.0663 68.2866C38.9391 68.3263 38.7601 68.3721 38.5294 68.4238C38.2987 68.4794 38.0183 68.5133 37.6882 68.5252C37.0757 68.5491 36.5388 68.4675 36.0774 68.2806C35.62 68.0937 35.2641 67.8033 35.0095 67.4096C34.755 67.0158 34.6297 66.5187 34.6337 65.9181V57.0408ZM43.2932 56.1817V68.3999H40.7517V56.1817H43.2932ZM49.5052 68.5789C48.5626 68.5789 47.7512 68.388 47.0711 68.0062C46.3949 67.6204 45.8739 67.0755 45.508 66.3715C45.1421 65.6635 44.9592 64.8263 44.9592 63.8598C44.9592 62.9172 45.1421 62.09 45.508 61.378C45.8739 60.6661 46.389 60.1113 47.0532 59.7135C47.7214 59.3158 48.5049 59.1169 49.4038 59.1169C50.0083 59.1169 50.5711 59.2144 51.0921 59.4093C51.6171 59.6002 52.0745 59.8885 52.4643 60.2743C52.858 60.6601 53.1643 61.1454 53.383 61.73C53.6018 62.3107 53.7111 62.9908 53.7111 63.7704V64.4684H45.9734V62.8934H51.3188C51.3188 62.5275 51.2393 62.2033 51.0802 61.9209C50.9211 61.6385 50.7003 61.4178 50.418 61.2587C50.1396 61.0956 49.8154 61.0141 49.4455 61.0141C49.0597 61.0141 48.7177 61.1036 48.4194 61.2826C48.1251 61.4576 47.8944 61.6942 47.7273 61.9925C47.5603 62.2868 47.4748 62.615 47.4708 62.9769V64.4743C47.4708 64.9277 47.5543 65.3195 47.7214 65.6496C47.8924 65.9797 48.133 66.2343 48.4432 66.4133C48.7535 66.5922 49.1214 66.6817 49.5469 66.6817C49.8293 66.6817 50.0878 66.6419 50.3225 66.5624C50.5572 66.4829 50.758 66.3635 50.9251 66.2044C51.0921 66.0454 51.2194 65.8505 51.3069 65.6198L53.6574 65.7749C53.5381 66.3397 53.2935 66.8329 52.9236 67.2544C52.5577 67.6721 52.0844 67.9982 51.5038 68.2329C50.9271 68.4635 50.2609 68.5789 49.5052 68.5789Z" fill="#344054"/>
<path d="M18.1981 100.6V92.4544H19.1844V99.7249H22.9708V100.6H18.1981ZM26.8526 100.727C26.3011 100.727 25.8172 100.596 25.4009 100.333C24.9873 100.071 24.6638 99.7037 24.4305 99.2317C24.1998 98.7597 24.0844 98.2082 24.0844 97.5772C24.0844 96.9408 24.1998 96.3853 24.4305 95.9107C24.6638 95.4361 24.9873 95.0675 25.4009 94.805C25.8172 94.5425 26.3011 94.4113 26.8526 94.4113C27.4041 94.4113 27.8867 94.5425 28.3004 94.805C28.7166 95.0675 29.0401 95.4361 29.2708 95.9107C29.5041 96.3853 29.6208 96.9408 29.6208 97.5772C29.6208 98.2082 29.5041 98.7597 29.2708 99.2317C29.0401 99.7037 28.7166 100.071 28.3004 100.333C27.8867 100.596 27.4041 100.727 26.8526 100.727ZM26.8526 99.884C27.2716 99.884 27.6163 99.7766 27.8867 99.5618C28.1572 99.3471 28.3574 99.0647 28.4873 98.7147C28.6172 98.3647 28.6822 97.9855 28.6822 97.5772C28.6822 97.1688 28.6172 96.7883 28.4873 96.4357C28.3574 96.083 28.1572 95.798 27.8867 95.5806C27.6163 95.3632 27.2716 95.2544 26.8526 95.2544C26.4337 95.2544 26.089 95.3632 25.8185 95.5806C25.5481 95.798 25.3479 96.083 25.218 96.4357C25.088 96.7883 25.0231 97.1688 25.0231 97.5772C25.0231 97.9855 25.088 98.3647 25.218 98.7147C25.3479 99.0647 25.5481 99.3471 25.8185 99.5618C26.089 99.7766 26.4337 99.884 26.8526 99.884ZM31.0536 100.6V94.4908H31.9604V95.4135H32.0241C32.1354 95.1113 32.337 94.866 32.6286 94.6777C32.9203 94.4895 33.2491 94.3954 33.615 94.3954C33.6839 94.3954 33.7701 94.3967 33.8735 94.3993C33.9769 94.402 34.0551 94.406 34.1082 94.4113V95.3658C34.0763 95.3579 34.0034 95.3459 33.8894 95.33C33.7781 95.3115 33.6601 95.3022 33.5354 95.3022C33.2385 95.3022 32.9733 95.3645 32.74 95.4891C32.5093 95.6111 32.3263 95.7808 32.1911 95.9982C32.0585 96.213 31.9923 96.4582 31.9923 96.734V100.6H31.0536ZM37.5962 100.727C37.0076 100.727 36.4998 100.597 36.0729 100.337C35.6487 100.075 35.3212 99.709 35.0906 99.2397C34.8625 98.7677 34.7485 98.2188 34.7485 97.5931C34.7485 96.9673 34.8625 96.4158 35.0906 95.9385C35.3212 95.4586 35.6421 95.0847 36.0531 94.8169C36.4667 94.5465 36.9493 94.4113 37.5008 94.4113C37.819 94.4113 38.1332 94.4643 38.4434 94.5704C38.7536 94.6764 39.036 94.8488 39.2906 95.0874C39.5451 95.3234 39.7479 95.6363 39.8991 96.026C40.0502 96.4158 40.1258 96.8957 40.1258 97.4658V97.8635H35.4167V97.0522H39.1712C39.1712 96.7075 39.1023 96.3999 38.9644 96.1294C38.8292 95.859 38.6356 95.6455 38.3837 95.4891C38.1345 95.3327 37.8402 95.2544 37.5008 95.2544C37.1269 95.2544 36.8034 95.3472 36.5303 95.5329C36.2599 95.7158 36.0517 95.9544 35.9059 96.2488C35.7601 96.5431 35.6871 96.8586 35.6871 97.1954V97.7363C35.6871 98.1976 35.7667 98.5887 35.9258 98.9096C36.0875 99.2277 36.3116 99.4704 36.5979 99.6374C36.8843 99.8018 37.2171 99.884 37.5962 99.884C37.8428 99.884 38.0656 99.8495 38.2644 99.7806C38.4659 99.709 38.6396 99.6029 38.7854 99.4624C38.9313 99.3192 39.044 99.1416 39.1235 98.9294L40.0303 99.184C39.9349 99.4916 39.7745 99.762 39.5491 99.9954C39.3237 100.226 39.0453 100.406 38.7138 100.536C38.3824 100.664 38.0099 100.727 37.5962 100.727ZM41.5536 100.6V94.4908H42.4604V95.4454H42.54C42.6673 95.1192 42.8727 94.866 43.1565 94.6857C43.4402 94.5027 43.7809 94.4113 44.1786 94.4113C44.5816 94.4113 44.9171 94.5027 45.1849 94.6857C45.4553 94.866 45.6661 95.1192 45.8173 95.4454H45.8809C46.0373 95.1298 46.272 94.8793 46.5849 94.6936C46.8977 94.5054 47.2729 94.4113 47.7104 94.4113C48.2566 94.4113 48.7034 94.5823 49.0508 94.9243C49.3981 95.2637 49.5718 95.7927 49.5718 96.5113V100.6H48.6332V96.5113C48.6332 96.0605 48.5099 95.7383 48.2633 95.5448C48.0167 95.3512 47.7263 95.2544 47.3923 95.2544C46.9627 95.2544 46.6299 95.3844 46.394 95.6442C46.158 95.9014 46.04 96.2276 46.04 96.6226V100.6H45.0854V96.4158C45.0854 96.0685 44.9727 95.7887 44.7474 95.5766C44.522 95.3618 44.2316 95.2544 43.8763 95.2544C43.6324 95.2544 43.4044 95.3194 43.1923 95.4493C42.9828 95.5793 42.8131 95.7596 42.6832 95.9902C42.5559 96.2183 42.4923 96.4821 42.4923 96.7817V100.6H41.5536ZM54.438 100.6V94.4908H55.3766V100.6H54.438ZM54.9153 93.4726C54.7323 93.4726 54.5745 93.4103 54.442 93.2857C54.312 93.1611 54.2471 93.0113 54.2471 92.8363C54.2471 92.6613 54.312 92.5115 54.442 92.3868C54.5745 92.2622 54.7323 92.1999 54.9153 92.1999C55.0982 92.1999 55.2547 92.2622 55.3846 92.3868C55.5172 92.5115 55.5834 92.6613 55.5834 92.8363C55.5834 93.0113 55.5172 93.1611 55.3846 93.2857C55.2547 93.4103 55.0982 93.4726 54.9153 93.4726ZM57.0958 102.891V94.4908H58.0026V95.4613H58.114C58.1829 95.3552 58.2784 95.22 58.4003 95.0556C58.525 94.8885 58.7026 94.7401 58.9333 94.6101C59.1666 94.4776 59.4822 94.4113 59.8799 94.4113C60.3943 94.4113 60.8477 94.5399 61.2401 94.7971C61.6325 95.0543 61.9388 95.4188 62.1589 95.8908C62.3789 96.3628 62.489 96.9196 62.489 97.5613C62.489 98.2082 62.3789 98.769 62.1589 99.2436C61.9388 99.7156 61.6339 100.082 61.2441 100.341C60.8543 100.599 60.4049 100.727 59.8958 100.727C59.5034 100.727 59.1892 100.662 58.9532 100.532C58.7172 100.4 58.5356 100.25 58.4083 100.083C58.281 99.9132 58.1829 99.7726 58.114 99.6613H58.0344V102.891H57.0958ZM58.0185 97.5454C58.0185 98.0067 58.0861 98.4137 58.2214 98.7664C58.3566 99.1164 58.5541 99.3908 58.814 99.5897C59.0738 99.7859 59.392 99.884 59.7685 99.884C60.161 99.884 60.4884 99.7806 60.7509 99.5738C61.0161 99.3643 61.2149 99.0832 61.3475 98.7306C61.4827 98.3753 61.5503 97.9802 61.5503 97.5454C61.5503 97.1158 61.4841 96.7287 61.3515 96.384C61.2216 96.0366 61.024 95.7622 60.7589 95.5607C60.4964 95.3565 60.1663 95.2544 59.7685 95.2544C59.3867 95.2544 59.0659 95.3512 58.806 95.5448C58.5462 95.7357 58.35 96.0035 58.2174 96.3482C58.0848 96.6902 58.0185 97.0893 58.0185 97.5454ZM68.2481 95.859L67.4049 96.0976C67.3519 95.9571 67.2736 95.8205 67.1702 95.688C67.0695 95.5527 66.9316 95.4414 66.7566 95.3539C66.5816 95.2664 66.3575 95.2226 66.0844 95.2226C65.7106 95.2226 65.399 95.3088 65.1498 95.4811C64.9032 95.6508 64.7799 95.8669 64.7799 96.1294C64.7799 96.3628 64.8647 96.5471 65.0344 96.6823C65.2041 96.8175 65.4693 96.9302 65.8299 97.0204L66.7367 97.2431C67.2829 97.3757 67.6899 97.5785 67.9577 97.8516C68.2255 98.1221 68.3594 98.4707 68.3594 98.8976C68.3594 99.2476 68.2587 99.5605 68.0572 99.8363C67.8583 100.112 67.5799 100.329 67.2219 100.489C66.864 100.648 66.4477 100.727 65.9731 100.727C65.35 100.727 64.8343 100.592 64.4259 100.321C64.0176 100.051 63.7591 99.656 63.6504 99.1363L64.5413 98.9135C64.6261 99.2423 64.7865 99.4889 65.0225 99.6533C65.2611 99.8177 65.5727 99.8999 65.9572 99.8999C66.3947 99.8999 66.742 99.8071 66.9992 99.6215C67.2591 99.4332 67.389 99.2079 67.389 98.9454C67.389 98.7332 67.3147 98.5556 67.1663 98.4124C67.0178 98.2666 66.7897 98.1579 66.4822 98.0863L65.464 97.8476C64.9045 97.7151 64.4935 97.5096 64.231 97.2311C63.9712 96.9501 63.8413 96.5988 63.8413 96.1772C63.8413 95.8325 63.938 95.5276 64.1316 95.2624C64.3278 94.9972 64.5943 94.7891 64.931 94.638C65.2704 94.4868 65.6549 94.4113 66.0844 94.4113C66.689 94.4113 67.1636 94.5438 67.5083 94.809C67.8557 95.0741 68.1022 95.4241 68.2481 95.859ZM73.6224 98.1022V94.4908H74.561V100.6H73.6224V99.5658H73.5587C73.4155 99.876 73.1928 100.14 72.8905 100.357C72.5883 100.572 72.2065 100.679 71.7451 100.679C71.3633 100.679 71.0239 100.596 70.7269 100.429C70.4299 100.259 70.1966 100.005 70.0269 99.6652C69.8572 99.3232 69.7724 98.8923 69.7724 98.3726V94.4908H70.711V98.309C70.711 98.7544 70.8356 99.1097 71.0849 99.3749C71.3368 99.6401 71.6576 99.7726 72.0474 99.7726C72.2807 99.7726 72.518 99.713 72.7593 99.5936C73.0032 99.4743 73.2074 99.2914 73.3718 99.0448C73.5388 98.7982 73.6224 98.484 73.6224 98.1022ZM76.2802 100.6V94.4908H77.187V95.4454H77.2665C77.3938 95.1192 77.5993 94.866 77.883 94.6857C78.1667 94.5027 78.5075 94.4113 78.9052 94.4113C79.3082 94.4113 79.6436 94.5027 79.9114 94.6857C80.1819 94.866 80.3927 95.1192 80.5438 95.4454H80.6075C80.7639 95.1298 80.9986 94.8793 81.3114 94.6936C81.6243 94.5054 81.9995 94.4113 82.437 94.4113C82.9832 94.4113 83.43 94.5823 83.7773 94.9243C84.1247 95.2637 84.2984 95.7927 84.2984 96.5113V100.6H83.3597V96.5113C83.3597 96.0605 83.2364 95.7383 82.9898 95.5448C82.7432 95.3512 82.4529 95.2544 82.1188 95.2544C81.6893 95.2544 81.3565 95.3844 81.1205 95.6442C80.8845 95.9014 80.7665 96.2276 80.7665 96.6226V100.6H79.812V96.4158C79.812 96.0685 79.6993 95.7887 79.4739 95.5766C79.2486 95.3618 78.9582 95.2544 78.6029 95.2544C78.359 95.2544 78.1309 95.3194 77.9188 95.4493C77.7093 95.5793 77.5396 95.7596 77.4097 95.9902C77.2825 96.2183 77.2188 96.4821 77.2188 96.7817V100.6H76.2802ZM91.4714 100.727C90.9623 100.727 90.5129 100.599 90.1231 100.341C89.7333 100.082 89.4284 99.7156 89.2083 99.2436C88.9882 98.769 88.8782 98.2082 88.8782 97.5613C88.8782 96.9196 88.9882 96.3628 89.2083 95.8908C89.4284 95.4188 89.7346 95.0543 90.1271 94.7971C90.5195 94.5399 90.9729 94.4113 91.4873 94.4113C91.885 94.4113 92.1992 94.4776 92.4299 94.6101C92.6632 94.7401 92.8409 94.8885 92.9629 95.0556C93.0875 95.22 93.1843 95.3552 93.2532 95.4613H93.3327V92.4544H94.2714V100.6H93.3646V99.6613H93.2532C93.1843 99.7726 93.0861 99.9132 92.9589 100.083C92.8316 100.25 92.65 100.4 92.414 100.532C92.178 100.662 91.8638 100.727 91.4714 100.727ZM91.5986 99.884C91.9752 99.884 92.2933 99.7859 92.5532 99.5897C92.813 99.3908 93.0106 99.1164 93.1458 98.7664C93.281 98.4137 93.3486 98.0067 93.3486 97.5454C93.3486 97.0893 93.2824 96.6902 93.1498 96.3482C93.0172 96.0035 92.821 95.7357 92.5611 95.5448C92.3013 95.3512 91.9805 95.2544 91.5986 95.2544C91.2009 95.2544 90.8695 95.3565 90.6043 95.5607C90.3418 95.7622 90.1443 96.0366 90.0117 96.384C89.8818 96.7287 89.8168 97.1158 89.8168 97.5454C89.8168 97.9802 89.8831 98.3753 90.0157 98.7306C90.1509 99.0832 90.3498 99.3643 90.6123 99.5738C90.8774 99.7806 91.2062 99.884 91.5986 99.884ZM98.6026 100.727C98.0511 100.727 97.5672 100.596 97.1509 100.333C96.7373 100.071 96.4138 99.7037 96.1805 99.2317C95.9498 98.7597 95.8344 98.2082 95.8344 97.5772C95.8344 96.9408 95.9498 96.3853 96.1805 95.9107C96.4138 95.4361 96.7373 95.0675 97.1509 94.805C97.5672 94.5425 98.0511 94.4113 98.6026 94.4113C99.1541 94.4113 99.6367 94.5425 100.05 94.805C100.467 95.0675 100.79 95.4361 101.021 95.9107C101.254 96.3853 101.371 96.9408 101.371 97.5772C101.371 98.2082 101.254 98.7597 101.021 99.2317C100.79 99.7037 100.467 100.071 100.05 100.333C99.6367 100.596 99.1541 100.727 98.6026 100.727ZM98.6026 99.884C99.0216 99.884 99.3663 99.7766 99.6367 99.5618C99.9072 99.3471 100.107 99.0647 100.237 98.7147C100.367 98.3647 100.432 97.9855 100.432 97.5772C100.432 97.1688 100.367 96.7883 100.237 96.4357C100.107 96.083 99.9072 95.798 99.6367 95.5806C99.3663 95.3632 99.0216 95.2544 98.6026 95.2544C98.1837 95.2544 97.839 95.3632 97.5685 95.5806C97.2981 95.798 97.0979 96.083 96.968 96.4357C96.838 96.7883 96.7731 97.1688 96.7731 97.5772C96.7731 97.9855 96.838 98.3647 96.968 98.7147C97.0979 99.0647 97.2981 99.3471 97.5685 99.5618C97.839 99.7766 98.1837 99.884 98.6026 99.884ZM103.742 92.4544V100.6H102.804V92.4544H103.742ZM107.943 100.727C107.392 100.727 106.908 100.596 106.492 100.333C106.078 100.071 105.754 99.7037 105.521 99.2317C105.29 98.7597 105.175 98.2082 105.175 97.5772C105.175 96.9408 105.29 96.3853 105.521 95.9107C105.754 95.4361 106.078 95.0675 106.492 94.805C106.908 94.5425 107.392 94.4113 107.943 94.4113C108.495 94.4113 108.977 94.5425 109.391 94.805C109.807 95.0675 110.131 95.4361 110.361 95.9107C110.595 96.3853 110.711 96.9408 110.711 97.5772C110.711 98.2082 110.595 98.7597 110.361 99.2317C110.131 99.7037 109.807 100.071 109.391 100.333C108.977 100.596 108.495 100.727 107.943 100.727ZM107.943 99.884C108.362 99.884 108.707 99.7766 108.977 99.5618C109.248 99.3471 109.448 99.0647 109.578 98.7147C109.708 98.3647 109.773 97.9855 109.773 97.5772C109.773 97.1688 109.708 96.7883 109.578 96.4357C109.448 96.083 109.248 95.798 108.977 95.5806C108.707 95.3632 108.362 95.2544 107.943 95.2544C107.524 95.2544 107.18 95.3632 106.909 95.5806C106.639 95.798 106.439 96.083 106.309 96.4357C106.179 96.7883 106.114 97.1688 106.114 97.5772C106.114 97.9855 106.179 98.3647 106.309 98.7147C106.439 99.0647 106.639 99.3471 106.909 99.5618C107.18 99.7766 107.524 99.884 107.943 99.884ZM112.144 100.6V94.4908H113.051V95.4135H113.115C113.226 95.1113 113.428 94.866 113.719 94.6777C114.011 94.4895 114.34 94.3954 114.706 94.3954C114.775 94.3954 114.861 94.3967 114.964 94.3993C115.068 94.402 115.146 94.406 115.199 94.4113V95.3658C115.167 95.3579 115.094 95.3459 114.98 95.33C114.869 95.3115 114.751 95.3022 114.626 95.3022C114.329 95.3022 114.064 95.3645 113.831 95.4891C113.6 95.6111 113.417 95.7808 113.282 95.9982C113.149 96.213 113.083 96.4582 113.083 96.734V100.6H112.144ZM123.789 95.859L122.946 96.0976C122.892 95.9571 122.814 95.8205 122.711 95.688C122.61 95.5527 122.472 95.4414 122.297 95.3539C122.122 95.2664 121.898 95.2226 121.625 95.2226C121.251 95.2226 120.94 95.3088 120.69 95.4811C120.444 95.6508 120.321 95.8669 120.321 96.1294C120.321 96.3628 120.405 96.5471 120.575 96.6823C120.745 96.8175 121.01 96.9302 121.371 97.0204L122.277 97.2431C122.824 97.3757 123.231 97.5785 123.498 97.8516C123.766 98.1221 123.9 98.4707 123.9 98.8976C123.9 99.2476 123.799 99.5605 123.598 99.8363C123.399 100.112 123.121 100.329 122.763 100.489C122.405 100.648 121.988 100.727 121.514 100.727C120.891 100.727 120.375 100.592 119.967 100.321C119.558 100.051 119.3 99.656 119.191 99.1363L120.082 98.9135C120.167 99.2423 120.327 99.4889 120.563 99.6533C120.802 99.8177 121.113 99.8999 121.498 99.8999C121.935 99.8999 122.283 99.8071 122.54 99.6215C122.8 99.4332 122.93 99.2079 122.93 98.9454C122.93 98.7332 122.855 98.5556 122.707 98.4124C122.558 98.2666 122.33 98.1579 122.023 98.0863L121.005 97.8476C120.445 97.7151 120.034 97.5096 119.772 97.2311C119.512 96.9501 119.382 96.5988 119.382 96.1772C119.382 95.8325 119.479 95.5276 119.672 95.2624C119.868 94.9972 120.135 94.7891 120.472 94.638C120.811 94.4868 121.196 94.4113 121.625 94.4113C122.23 94.4113 122.704 94.5438 123.049 94.809C123.396 95.0741 123.643 95.4241 123.789 95.859ZM125.313 100.6V94.4908H126.252V100.6H125.313ZM125.79 93.4726C125.607 93.4726 125.45 93.4103 125.317 93.2857C125.187 93.1611 125.122 93.0113 125.122 92.8363C125.122 92.6613 125.187 92.5115 125.317 92.3868C125.45 92.2622 125.607 92.1999 125.79 92.1999C125.973 92.1999 126.13 92.2622 126.26 92.3868C126.392 92.5115 126.458 92.6613 126.458 92.8363C126.458 93.0113 126.392 93.1611 126.26 93.2857C126.13 93.4103 125.973 93.4726 125.79 93.4726ZM130.628 94.4908V95.2863H127.462V94.4908H130.628ZM128.384 93.0272H129.323V98.8499C129.323 99.1151 129.362 99.3139 129.438 99.4465C129.518 99.5764 129.619 99.6639 129.741 99.709C129.865 99.7514 129.997 99.7726 130.134 99.7726C130.238 99.7726 130.323 99.7673 130.389 99.7567C130.455 99.7435 130.508 99.7329 130.548 99.7249L130.739 100.568C130.675 100.592 130.587 100.616 130.473 100.64C130.358 100.666 130.214 100.679 130.039 100.679C129.774 100.679 129.514 100.622 129.259 100.508C129.008 100.394 128.798 100.221 128.631 99.9874C128.467 99.7541 128.384 99.4597 128.384 99.1044V93.0272ZM136.987 100.743C136.6 100.743 136.249 100.67 135.933 100.524C135.618 100.376 135.367 100.162 135.182 99.884C134.996 99.6029 134.903 99.2635 134.903 98.8658C134.903 98.5158 134.972 98.2321 135.11 98.0147C135.248 97.7946 135.432 97.6222 135.663 97.4976C135.894 97.373 136.148 97.2802 136.426 97.2192C136.708 97.1556 136.99 97.1052 137.274 97.0681C137.645 97.0204 137.946 96.9846 138.176 96.9607C138.41 96.9342 138.58 96.8904 138.686 96.8294C138.794 96.7685 138.849 96.6624 138.849 96.5113V96.4794C138.849 96.087 138.741 95.7821 138.526 95.5647C138.314 95.3472 137.992 95.2385 137.56 95.2385C137.112 95.2385 136.761 95.3366 136.506 95.5329C136.251 95.7291 136.073 95.9385 135.969 96.1613L135.078 95.8431C135.237 95.4719 135.449 95.1829 135.715 94.976C135.982 94.7666 136.274 94.6207 136.59 94.5385C136.908 94.4537 137.221 94.4113 137.528 94.4113C137.724 94.4113 137.95 94.4351 138.204 94.4829C138.462 94.5279 138.709 94.6221 138.948 94.7652C139.189 94.9084 139.39 95.1245 139.549 95.4135C139.708 95.7026 139.787 96.0897 139.787 96.5749V100.6H138.849V99.7726H138.801C138.737 99.9052 138.631 100.047 138.483 100.198C138.334 100.349 138.137 100.478 137.89 100.584C137.644 100.69 137.343 100.743 136.987 100.743ZM137.13 99.8999C137.502 99.8999 137.815 99.827 138.069 99.6811C138.326 99.5353 138.52 99.3471 138.65 99.1164C138.782 98.8857 138.849 98.6431 138.849 98.3885V97.5294C138.809 97.5772 138.721 97.6209 138.586 97.6607C138.454 97.6978 138.3 97.731 138.125 97.7601C137.952 97.7866 137.784 97.8105 137.62 97.8317C137.458 97.8503 137.327 97.8662 137.226 97.8794C136.982 97.9113 136.754 97.963 136.542 98.0346C136.332 98.1035 136.163 98.2082 136.033 98.3488C135.905 98.4866 135.842 98.6749 135.842 98.9135C135.842 99.2397 135.962 99.4863 136.204 99.6533C136.448 99.8177 136.757 99.8999 137.13 99.8999ZM141.5 100.6V94.4908H142.407V95.4454H142.487C142.614 95.1192 142.82 94.866 143.103 94.6857C143.387 94.5027 143.728 94.4113 144.125 94.4113C144.529 94.4113 144.864 94.5027 145.132 94.6857C145.402 94.866 145.613 95.1192 145.764 95.4454H145.828C145.984 95.1298 146.219 94.8793 146.532 94.6936C146.845 94.5054 147.22 94.4113 147.657 94.4113C148.204 94.4113 148.65 94.5823 148.998 94.9243C149.345 95.2637 149.519 95.7927 149.519 96.5113V100.6H148.58V96.5113C148.58 96.0605 148.457 95.7383 148.21 95.5448C147.964 95.3512 147.673 95.2544 147.339 95.2544C146.91 95.2544 146.577 95.3844 146.341 95.6442C146.105 95.9014 145.987 96.2276 145.987 96.6226V100.6H145.032V96.4158C145.032 96.0685 144.92 95.7887 144.694 95.5766C144.469 95.3618 144.179 95.2544 143.823 95.2544C143.579 95.2544 143.351 95.3194 143.139 95.4493C142.93 95.5793 142.76 95.7596 142.63 95.9902C142.503 96.2183 142.439 96.4821 142.439 96.7817V100.6H141.5ZM153.796 100.727C153.208 100.727 152.7 100.597 152.273 100.337C151.849 100.075 151.521 99.709 151.291 99.2397C151.063 98.7677 150.949 98.2188 150.949 97.5931C150.949 96.9673 151.063 96.4158 151.291 95.9385C151.521 95.4586 151.842 95.0847 152.253 94.8169C152.667 94.5465 153.149 94.4113 153.701 94.4113C154.019 94.4113 154.333 94.4643 154.643 94.5704C154.954 94.6764 155.236 94.8488 155.491 95.0874C155.745 95.3234 155.948 95.6363 156.099 96.026C156.25 96.4158 156.326 96.8957 156.326 97.4658V97.8635H151.617V97.0522H155.371C155.371 96.7075 155.302 96.3999 155.164 96.1294C155.029 95.859 154.836 95.6455 154.584 95.4891C154.334 95.3327 154.04 95.2544 153.701 95.2544C153.327 95.2544 153.003 95.3472 152.73 95.5329C152.46 95.7158 152.252 95.9544 152.106 96.2488C151.96 96.5431 151.887 96.8586 151.887 97.1954V97.7363C151.887 98.1976 151.967 98.5887 152.126 98.9096C152.288 99.2277 152.512 99.4704 152.798 99.6374C153.084 99.8018 153.417 99.884 153.796 99.884C154.043 99.884 154.266 99.8495 154.464 99.7806C154.666 99.709 154.84 99.6029 154.985 99.4624C155.131 99.3192 155.244 99.1416 155.324 98.9294L156.23 99.184C156.135 99.4916 155.974 99.762 155.749 99.9954C155.524 100.226 155.245 100.406 154.914 100.536C154.582 100.664 154.21 100.727 153.796 100.727ZM160.41 94.4908V95.2863H157.245V94.4908H160.41ZM158.167 93.0272H159.106V98.8499C159.106 99.1151 159.144 99.3139 159.221 99.4465C159.301 99.5764 159.402 99.6639 159.524 99.709C159.648 99.7514 159.779 99.7726 159.917 99.7726C160.021 99.7726 160.106 99.7673 160.172 99.7567C160.238 99.7435 160.291 99.7329 160.331 99.7249L160.522 100.568C160.458 100.592 160.369 100.616 160.255 100.64C160.141 100.666 159.997 100.679 159.822 100.679C159.557 100.679 159.297 100.622 159.042 100.508C158.79 100.394 158.581 100.221 158.414 99.9874C158.249 99.7541 158.167 99.4597 158.167 99.1044V93.0272ZM163.222 99.4863L163.159 99.9158C163.114 100.218 163.045 100.542 162.952 100.886C162.862 101.231 162.768 101.556 162.67 101.861C162.571 102.166 162.491 102.408 162.427 102.589H161.711C161.745 102.419 161.791 102.195 161.846 101.916C161.902 101.638 161.958 101.326 162.013 100.982C162.072 100.64 162.119 100.29 162.156 99.9317L162.204 99.4863H163.222ZM170.593 100.727C170.021 100.727 169.527 100.592 169.114 100.321C168.7 100.051 168.382 99.6785 168.159 99.2039C167.936 98.7293 167.825 98.187 167.825 97.5772C167.825 96.9567 167.939 96.4092 168.167 95.9346C168.398 95.4573 168.719 95.0847 169.13 94.8169C169.543 94.5465 170.026 94.4113 170.577 94.4113C171.007 94.4113 171.394 94.4908 171.739 94.6499C172.083 94.809 172.366 95.0317 172.586 95.3181C172.806 95.6044 172.942 95.9385 172.996 96.3204H172.057C171.985 96.0419 171.826 95.7954 171.58 95.5806C171.336 95.3632 171.007 95.2544 170.593 95.2544C170.227 95.2544 169.907 95.3499 169.631 95.5408C169.358 95.7291 169.144 95.9955 168.99 96.3402C168.839 96.6823 168.764 97.084 168.764 97.5454C168.764 98.0173 168.838 98.4283 168.986 98.7783C169.138 99.1283 169.35 99.4001 169.623 99.5936C169.899 99.7872 170.222 99.884 170.593 99.884C170.837 99.884 171.059 99.8416 171.257 99.7567C171.456 99.6719 171.625 99.5499 171.763 99.3908C171.9 99.2317 171.999 99.0408 172.057 98.8181H172.996C172.942 99.1787 172.811 99.5035 172.602 99.7925C172.395 100.079 172.121 100.307 171.778 100.477C171.439 100.644 171.044 100.727 170.593 100.727ZM176.849 100.727C176.298 100.727 175.814 100.596 175.398 100.333C174.984 100.071 174.661 99.7037 174.427 99.2317C174.197 98.7597 174.081 98.2082 174.081 97.5772C174.081 96.9408 174.197 96.3853 174.427 95.9107C174.661 95.4361 174.984 95.0675 175.398 94.805C175.814 94.5425 176.298 94.4113 176.849 94.4113C177.401 94.4113 177.884 94.5425 178.297 94.805C178.714 95.0675 179.037 95.4361 179.268 95.9107C179.501 96.3853 179.618 96.9408 179.618 97.5772C179.618 98.2082 179.501 98.7597 179.268 99.2317C179.037 99.7037 178.714 100.071 178.297 100.333C177.884 100.596 177.401 100.727 176.849 100.727ZM176.849 99.884C177.268 99.884 177.613 99.7766 177.884 99.5618C178.154 99.3471 178.354 99.0647 178.484 98.7147C178.614 98.3647 178.679 97.9855 178.679 97.5772C178.679 97.1688 178.614 96.7883 178.484 96.4357C178.354 96.083 178.154 95.798 177.884 95.5806C177.613 95.3632 177.268 95.2544 176.849 95.2544C176.431 95.2544 176.086 95.3632 175.815 95.5806C175.545 95.798 175.345 96.083 175.215 96.4357C175.085 96.7883 175.02 97.1688 175.02 97.5772C175.02 97.9855 175.085 98.3647 175.215 98.7147C175.345 99.0647 175.545 99.3471 175.815 99.5618C176.086 99.7766 176.431 99.884 176.849 99.884ZM181.989 96.9249V100.6H181.05V94.4908H181.957V95.4454H182.037C182.18 95.1351 182.397 94.8859 182.689 94.6976C182.981 94.5067 183.357 94.4113 183.819 94.4113C184.232 94.4113 184.594 94.4961 184.904 94.6658C185.215 94.8329 185.456 95.0874 185.628 95.4294C185.801 95.7688 185.887 96.1984 185.887 96.7181V100.6H184.948V96.7817C184.948 96.3018 184.824 95.9279 184.574 95.6601C184.325 95.3897 183.983 95.2544 183.548 95.2544C183.249 95.2544 182.981 95.3194 182.745 95.4493C182.511 95.5793 182.327 95.7688 182.192 96.0181C182.057 96.2673 181.989 96.5696 181.989 96.9249ZM191.929 95.859L191.086 96.0976C191.033 95.9571 190.955 95.8205 190.851 95.688C190.751 95.5527 190.613 95.4414 190.438 95.3539C190.263 95.2664 190.039 95.2226 189.766 95.2226C189.392 95.2226 189.08 95.3088 188.831 95.4811C188.584 95.6508 188.461 95.8669 188.461 96.1294C188.461 96.3628 188.546 96.5471 188.716 96.6823C188.885 96.8175 189.151 96.9302 189.511 97.0204L190.418 97.2431C190.964 97.3757 191.371 97.5785 191.639 97.8516C191.907 98.1221 192.041 98.4707 192.041 98.8976C192.041 99.2476 191.94 99.5605 191.738 99.8363C191.54 100.112 191.261 100.329 190.903 100.489C190.545 100.648 190.129 100.727 189.654 100.727C189.031 100.727 188.516 100.592 188.107 100.321C187.699 100.051 187.44 99.656 187.332 99.1363L188.223 98.9135C188.307 99.2423 188.468 99.4889 188.704 99.6533C188.942 99.8177 189.254 99.8999 189.638 99.8999C190.076 99.8999 190.423 99.8071 190.68 99.6215C190.94 99.4332 191.07 99.2079 191.07 98.9454C191.07 98.7332 190.996 98.5556 190.848 98.4124C190.699 98.2666 190.471 98.1579 190.163 98.0863L189.145 97.8476C188.586 97.7151 188.175 97.5096 187.912 97.2311C187.652 96.9501 187.523 96.5988 187.523 96.1772C187.523 95.8325 187.619 95.5276 187.813 95.2624C188.009 94.9972 188.276 94.7891 188.612 94.638C188.952 94.4868 189.336 94.4113 189.766 94.4113C190.37 94.4113 190.845 94.5438 191.19 94.809C191.537 95.0741 191.783 95.4241 191.929 95.859ZM196.015 100.727C195.426 100.727 194.919 100.597 194.492 100.337C194.067 100.075 193.74 99.709 193.509 99.2397C193.281 98.7677 193.167 98.2188 193.167 97.5931C193.167 96.9673 193.281 96.4158 193.509 95.9385C193.74 95.4586 194.061 95.0847 194.472 94.8169C194.885 94.5465 195.368 94.4113 195.92 94.4113C196.238 94.4113 196.552 94.4643 196.862 94.5704C197.172 94.6764 197.455 94.8488 197.709 95.0874C197.964 95.3234 198.167 95.6363 198.318 96.026C198.469 96.4158 198.545 96.8957 198.545 97.4658V97.8635H193.835V97.0522H197.59C197.59 96.7075 197.521 96.3999 197.383 96.1294C197.248 95.859 197.054 95.6455 196.802 95.4891C196.553 95.3327 196.259 95.2544 195.92 95.2544C195.546 95.2544 195.222 95.3472 194.949 95.5329C194.679 95.7158 194.47 95.9544 194.325 96.2488C194.179 96.5431 194.106 96.8586 194.106 97.1954V97.7363C194.106 98.1976 194.185 98.5887 194.345 98.9096C194.506 99.2277 194.73 99.4704 195.017 99.6374C195.303 99.8018 195.636 99.884 196.015 99.884C196.262 99.884 196.484 99.8495 196.683 99.7806C196.885 99.709 197.058 99.6029 197.204 99.4624C197.35 99.3192 197.463 99.1416 197.542 98.9294L198.449 99.184C198.354 99.4916 198.193 99.762 197.968 99.9954C197.742 100.226 197.464 100.406 197.133 100.536C196.801 100.664 196.429 100.727 196.015 100.727ZM202.454 100.727C201.881 100.727 201.388 100.592 200.975 100.321C200.561 100.051 200.243 99.6785 200.02 99.2039C199.797 98.7293 199.686 98.187 199.686 97.5772C199.686 96.9567 199.8 96.4092 200.028 95.9346C200.259 95.4573 200.58 95.0847 200.991 94.8169C201.404 94.5465 201.887 94.4113 202.438 94.4113C202.868 94.4113 203.255 94.4908 203.6 94.6499C203.944 94.809 204.227 95.0317 204.447 95.3181C204.667 95.6044 204.803 95.9385 204.856 96.3204H203.918C203.846 96.0419 203.687 95.7954 203.441 95.5806C203.197 95.3632 202.868 95.2544 202.454 95.2544C202.088 95.2544 201.767 95.3499 201.492 95.5408C201.219 95.7291 201.005 95.9955 200.851 96.3402C200.7 96.6823 200.625 97.084 200.625 97.5454C200.625 98.0173 200.699 98.4283 200.847 98.7783C200.998 99.1283 201.211 99.4001 201.484 99.5936C201.759 99.7872 202.083 99.884 202.454 99.884C202.698 99.884 202.92 99.8416 203.118 99.7567C203.317 99.6719 203.486 99.5499 203.623 99.3908C203.761 99.2317 203.859 99.0408 203.918 98.8181H204.856C204.803 99.1787 204.672 99.5035 204.463 99.7925C204.256 100.079 203.981 100.307 203.639 100.477C203.3 100.644 202.905 100.727 202.454 100.727ZM208.885 94.4908V95.2863H205.72V94.4908H208.885ZM206.642 93.0272H207.581V98.8499C207.581 99.1151 207.619 99.3139 207.696 99.4465C207.776 99.5764 207.877 99.6639 207.998 99.709C208.123 99.7514 208.254 99.7726 208.392 99.7726C208.496 99.7726 208.581 99.7673 208.647 99.7567C208.713 99.7435 208.766 99.7329 208.806 99.7249L208.997 100.568C208.933 100.592 208.844 100.616 208.73 100.64C208.616 100.666 208.472 100.679 208.297 100.679C208.032 100.679 207.772 100.622 207.517 100.508C207.265 100.394 207.056 100.221 206.889 99.9874C206.724 99.7541 206.642 99.4597 206.642 99.1044V93.0272ZM212.793 100.727C212.204 100.727 211.697 100.597 211.27 100.337C210.846 100.075 210.518 99.709 210.287 99.2397C210.059 98.7677 209.945 98.2188 209.945 97.5931C209.945 96.9673 210.059 96.4158 210.287 95.9385C210.518 95.4586 210.839 95.0847 211.25 94.8169C211.664 94.5465 212.146 94.4113 212.698 94.4113C213.016 94.4113 213.33 94.4643 213.64 94.5704C213.95 94.6764 214.233 94.8488 214.487 95.0874C214.742 95.3234 214.945 95.6363 215.096 96.026C215.247 96.4158 215.323 96.8957 215.323 97.4658V97.8635H210.614V97.0522H214.368C214.368 96.7075 214.299 96.3999 214.161 96.1294C214.026 95.859 213.832 95.6455 213.581 95.4891C213.331 95.3327 213.037 95.2544 212.698 95.2544C212.324 95.2544 212 95.3472 211.727 95.5329C211.457 95.7158 211.249 95.9544 211.103 96.2488C210.957 96.5431 210.884 96.8586 210.884 97.1954V97.7363C210.884 98.1976 210.964 98.5887 211.123 98.9096C211.284 99.2277 211.508 99.4704 211.795 99.6374C212.081 99.8018 212.414 99.884 212.793 99.884C213.04 99.884 213.262 99.8495 213.461 99.7806C213.663 99.709 213.836 99.6029 213.982 99.4624C214.128 99.3192 214.241 99.1416 214.32 98.9294L215.227 99.184C215.132 99.4916 214.971 99.762 214.746 99.9954C214.521 100.226 214.242 100.406 213.911 100.536C213.579 100.664 213.207 100.727 212.793 100.727ZM219.407 94.4908V95.2863H216.241V94.4908H219.407ZM217.164 93.0272H218.103V98.8499C218.103 99.1151 218.141 99.3139 218.218 99.4465C218.298 99.5764 218.398 99.6639 218.52 99.709C218.645 99.7514 218.776 99.7726 218.914 99.7726C219.018 99.7726 219.102 99.7673 219.169 99.7567C219.235 99.7435 219.288 99.7329 219.328 99.7249L219.519 100.568C219.455 100.592 219.366 100.616 219.252 100.64C219.138 100.666 218.994 100.679 218.819 100.679C218.554 100.679 218.294 100.622 218.039 100.508C217.787 100.394 217.578 100.221 217.411 99.9874C217.246 99.7541 217.164 99.4597 217.164 99.1044V93.0272ZM224.669 98.1022V94.4908H225.608V100.6H224.669V99.5658H224.606C224.462 99.876 224.24 100.14 223.937 100.357C223.635 100.572 223.253 100.679 222.792 100.679C222.41 100.679 222.071 100.596 221.774 100.429C221.477 100.259 221.243 100.005 221.074 99.6652C220.904 99.3232 220.819 98.8923 220.819 98.3726V94.4908H221.758V98.309C221.758 98.7544 221.882 99.1097 222.132 99.3749C222.384 99.6401 222.704 99.7726 223.094 99.7726C223.328 99.7726 223.565 99.713 223.806 99.5936C224.05 99.4743 224.254 99.2914 224.419 99.0448C224.586 98.7982 224.669 98.484 224.669 98.1022ZM227.327 100.6V94.4908H228.234V95.4135H228.298C228.409 95.1113 228.61 94.866 228.902 94.6777C229.194 94.4895 229.523 94.3954 229.888 94.3954C229.957 94.3954 230.044 94.3967 230.147 94.3993C230.25 94.402 230.329 94.406 230.382 94.4113V95.3658C230.35 95.3579 230.277 95.3459 230.163 95.33C230.051 95.3115 229.933 95.3022 229.809 95.3022C229.512 95.3022 229.247 95.3645 229.013 95.4891C228.783 95.6111 228.6 95.7808 228.465 95.9982C228.332 96.213 228.266 96.4582 228.266 96.734V100.6H227.327ZM19.8685 123.743C19.4814 123.743 19.1301 123.67 18.8146 123.524C18.499 123.376 18.2485 123.162 18.0629 122.884C17.8772 122.603 17.7844 122.264 17.7844 121.866C17.7844 121.516 17.8534 121.232 17.9913 121.015C18.1291 120.795 18.3134 120.622 18.5441 120.498C18.7748 120.373 19.0293 120.28 19.3077 120.219C19.5888 120.156 19.8712 120.105 20.1549 120.068C20.5261 120.02 20.8271 119.985 21.0577 119.961C21.2911 119.934 21.4608 119.89 21.5668 119.829C21.6755 119.768 21.7299 119.662 21.7299 119.511V119.479C21.7299 119.087 21.6225 118.782 21.4077 118.565C21.1956 118.347 20.8735 118.239 20.4413 118.239C19.9932 118.239 19.6418 118.337 19.3873 118.533C19.1327 118.729 18.9538 118.939 18.8504 119.161L17.9594 118.843C18.1185 118.472 18.3307 118.183 18.5958 117.976C18.8636 117.767 19.1553 117.621 19.4708 117.539C19.789 117.454 20.1019 117.411 20.4094 117.411C20.6057 117.411 20.831 117.435 21.0856 117.483C21.3428 117.528 21.5907 117.622 21.8293 117.765C22.0706 117.908 22.2708 118.125 22.4299 118.414C22.589 118.703 22.6685 119.09 22.6685 119.575V123.6H21.7299V122.773H21.6822C21.6185 122.905 21.5125 123.047 21.364 123.198C21.2155 123.349 21.018 123.478 20.7714 123.584C20.5248 123.69 20.2238 123.743 19.8685 123.743ZM20.0117 122.9C20.3829 122.9 20.6958 122.827 20.9504 122.681C21.2075 122.535 21.4011 122.347 21.531 122.116C21.6636 121.886 21.7299 121.643 21.7299 121.389V120.529C21.6901 120.577 21.6026 120.621 21.4674 120.661C21.3348 120.698 21.181 120.731 21.006 120.76C20.8337 120.787 20.6653 120.811 20.5009 120.832C20.3392 120.85 20.2079 120.866 20.1072 120.879C19.8632 120.911 19.6352 120.963 19.4231 121.035C19.2136 121.103 19.0439 121.208 18.914 121.349C18.7867 121.487 18.7231 121.675 18.7231 121.914C18.7231 122.24 18.8437 122.486 19.085 122.653C19.329 122.818 19.6379 122.9 20.0117 122.9ZM26.6886 123.727C26.1795 123.727 25.73 123.599 25.3403 123.341C24.9505 123.082 24.6456 122.716 24.4255 122.244C24.2054 121.769 24.0954 121.208 24.0954 120.561C24.0954 119.92 24.2054 119.363 24.4255 118.891C24.6456 118.419 24.9518 118.054 25.3442 117.797C25.7367 117.54 26.1901 117.411 26.7045 117.411C27.1022 117.411 27.4164 117.478 27.6471 117.61C27.8804 117.74 28.0581 117.889 28.18 118.056C28.3047 118.22 28.4014 118.355 28.4704 118.461H28.5499V115.454H29.4886V123.6H28.5817V122.661H28.4704C28.4014 122.773 28.3033 122.913 28.1761 123.083C28.0488 123.25 27.8672 123.4 27.6312 123.532C27.3952 123.662 27.081 123.727 26.6886 123.727ZM26.8158 122.884C27.1924 122.884 27.5105 122.786 27.7704 122.59C28.0302 122.391 28.2278 122.116 28.363 121.766C28.4982 121.414 28.5658 121.007 28.5658 120.545C28.5658 120.089 28.4995 119.69 28.367 119.348C28.2344 119.003 28.0382 118.736 27.7783 118.545C27.5185 118.351 27.1977 118.254 26.8158 118.254C26.4181 118.254 26.0867 118.357 25.8215 118.561C25.559 118.762 25.3615 119.037 25.2289 119.384C25.099 119.729 25.034 120.116 25.034 120.545C25.034 120.98 25.1003 121.375 25.2329 121.731C25.3681 122.083 25.567 122.364 25.8295 122.574C26.0946 122.781 26.4234 122.884 26.8158 122.884ZM31.338 123.6V117.491H32.2766V123.6H31.338ZM31.8153 116.473C31.6323 116.473 31.4745 116.41 31.342 116.286C31.212 116.161 31.1471 116.011 31.1471 115.836C31.1471 115.661 31.212 115.511 31.342 115.387C31.4745 115.262 31.6323 115.2 31.8153 115.2C31.9982 115.2 32.1547 115.262 32.2846 115.387C32.4172 115.511 32.4834 115.661 32.4834 115.836C32.4834 116.011 32.4172 116.161 32.2846 116.286C32.1547 116.41 31.9982 116.473 31.8153 116.473ZM33.9958 125.891V117.491H34.9026V118.461H35.014C35.0829 118.355 35.1784 118.22 35.3004 118.056C35.425 117.889 35.6026 117.74 35.8333 117.61C36.0666 117.478 36.3822 117.411 36.7799 117.411C37.2943 117.411 37.7477 117.54 38.1401 117.797C38.5325 118.054 38.8388 118.419 39.0589 118.891C39.2789 119.363 39.389 119.92 39.389 120.561C39.389 121.208 39.2789 121.769 39.0589 122.244C38.8388 122.716 38.5339 123.082 38.1441 123.341C37.7543 123.599 37.3049 123.727 36.7958 123.727C36.4034 123.727 36.0892 123.662 35.8532 123.532C35.6172 123.4 35.4356 123.25 35.3083 123.083C35.181 122.913 35.0829 122.773 35.014 122.661H34.9344V125.891H33.9958ZM34.9185 120.545C34.9185 121.007 34.9861 121.414 35.1214 121.766C35.2566 122.116 35.4541 122.391 35.714 122.59C35.9738 122.786 36.292 122.884 36.6685 122.884C37.061 122.884 37.3884 122.781 37.6509 122.574C37.9161 122.364 38.1149 122.083 38.2475 121.731C38.3827 121.375 38.4504 120.98 38.4504 120.545C38.4504 120.116 38.3841 119.729 38.2515 119.384C38.1216 119.037 37.924 118.762 37.6589 118.561C37.3964 118.357 37.0663 118.254 36.6685 118.254C36.2867 118.254 35.9659 118.351 35.706 118.545C35.4462 118.736 35.25 119.003 35.1174 119.348C34.9848 119.69 34.9185 120.089 34.9185 120.545ZM40.8208 123.6V117.491H41.7594V123.6H40.8208ZM41.2981 116.473C41.1151 116.473 40.9574 116.41 40.8248 116.286C40.6949 116.161 40.6299 116.011 40.6299 115.836C40.6299 115.661 40.6949 115.511 40.8248 115.387C40.9574 115.262 41.1151 115.2 41.2981 115.2C41.481 115.2 41.6375 115.262 41.7674 115.387C41.9 115.511 41.9663 115.661 41.9663 115.836C41.9663 116.011 41.9 116.161 41.7674 116.286C41.6375 116.41 41.481 116.473 41.2981 116.473ZM47.8059 118.859L46.9627 119.098C46.9097 118.957 46.8315 118.821 46.7281 118.688C46.6273 118.553 46.4894 118.441 46.3144 118.354C46.1394 118.266 45.9154 118.223 45.6423 118.223C45.2684 118.223 44.9568 118.309 44.7076 118.481C44.461 118.651 44.3377 118.867 44.3377 119.129C44.3377 119.363 44.4226 119.547 44.5923 119.682C44.762 119.818 45.0271 119.93 45.3877 120.02L46.2945 120.243C46.8407 120.376 47.2477 120.578 47.5156 120.852C47.7834 121.122 47.9173 121.471 47.9173 121.898C47.9173 122.248 47.8165 122.561 47.615 122.836C47.4161 123.112 47.1377 123.329 46.7798 123.489C46.4218 123.648 46.0055 123.727 45.5309 123.727C44.9078 123.727 44.3921 123.592 43.9837 123.321C43.5754 123.051 43.3169 122.656 43.2082 122.136L44.0991 121.914C44.1839 122.242 44.3443 122.489 44.5803 122.653C44.819 122.818 45.1305 122.9 45.515 122.9C45.9525 122.9 46.2998 122.807 46.557 122.621C46.8169 122.433 46.9468 122.208 46.9468 121.945C46.9468 121.733 46.8726 121.556 46.7241 121.412C46.5756 121.267 46.3476 121.158 46.04 121.086L45.0218 120.848C44.4623 120.715 44.0513 120.51 43.7888 120.231C43.529 119.95 43.3991 119.599 43.3991 119.177C43.3991 118.832 43.4959 118.528 43.6894 118.262C43.8856 117.997 44.1521 117.789 44.4888 117.638C44.8282 117.487 45.2127 117.411 45.6423 117.411C46.2468 117.411 46.7214 117.544 47.0661 117.809C47.4135 118.074 47.6601 118.424 47.8059 118.859ZM51.812 123.727C51.2393 123.727 50.7461 123.592 50.3325 123.321C49.9188 123.051 49.6006 122.678 49.3779 122.204C49.1552 121.729 49.0438 121.187 49.0438 120.577C49.0438 119.957 49.1578 119.409 49.3859 118.935C49.6165 118.457 49.9374 118.085 50.3484 117.817C50.762 117.546 51.2446 117.411 51.7961 117.411C52.2256 117.411 52.6128 117.491 52.9575 117.65C53.3022 117.809 53.5845 118.032 53.8046 118.318C54.0247 118.604 54.1612 118.939 54.2143 119.32H53.2756C53.204 119.042 53.045 118.795 52.7984 118.581C52.5544 118.363 52.2256 118.254 51.812 118.254C51.4461 118.254 51.1253 118.35 50.8495 118.541C50.5764 118.729 50.3629 118.996 50.2092 119.34C50.058 119.682 49.9825 120.084 49.9825 120.545C49.9825 121.017 50.0567 121.428 50.2052 121.778C50.3563 122.128 50.5684 122.4 50.8415 122.594C51.1173 122.787 51.4408 122.884 51.812 122.884C52.0559 122.884 52.2773 122.842 52.4762 122.757C52.6751 122.672 52.8434 122.55 52.9813 122.391C53.1192 122.232 53.2173 122.041 53.2756 121.818H54.2143C54.1612 122.179 54.03 122.503 53.8205 122.793C53.6137 123.079 53.3393 123.307 52.9972 123.477C52.6578 123.644 52.2628 123.727 51.812 123.727ZM55.5864 123.6V117.491H56.5251V123.6H55.5864ZM56.0637 116.473C55.8807 116.473 55.723 116.41 55.5904 116.286C55.4605 116.161 55.3955 116.011 55.3955 115.836C55.3955 115.661 55.4605 115.511 55.5904 115.387C55.723 115.262 55.8807 115.2 56.0637 115.2C56.2467 115.2 56.4031 115.262 56.533 115.387C56.6656 115.511 56.7319 115.661 56.7319 115.836C56.7319 116.011 56.6656 116.161 56.533 116.286C56.4031 116.41 56.2467 116.473 56.0637 116.473ZM59.1829 119.925V123.6H58.2442V117.491H59.1511V118.445H59.2306C59.3738 118.135 59.5912 117.886 59.8829 117.698C60.1745 117.507 60.5511 117.411 61.0124 117.411C61.4261 117.411 61.788 117.496 62.0982 117.666C62.4084 117.833 62.6497 118.087 62.8221 118.429C62.9944 118.769 63.0806 119.198 63.0806 119.718V123.6H62.142V119.782C62.142 119.302 62.0173 118.928 61.7681 118.66C61.5189 118.39 61.1768 118.254 60.742 118.254C60.4423 118.254 60.1745 118.319 59.9386 118.449C59.7052 118.579 59.5209 118.769 59.3857 119.018C59.2505 119.267 59.1829 119.57 59.1829 119.925ZM67.2617 126.018C66.8083 126.018 66.4185 125.96 66.0924 125.843C65.7663 125.729 65.4945 125.578 65.2771 125.39C65.0623 125.204 64.8913 125.005 64.764 124.793L65.5117 124.268C65.5966 124.379 65.7039 124.507 65.8339 124.65C65.9638 124.796 66.1414 124.922 66.3668 125.028C66.5949 125.136 66.8932 125.191 67.2617 125.191C67.7549 125.191 68.1619 125.071 68.4827 124.833C68.8036 124.594 68.964 124.22 68.964 123.711V122.47H68.8844C68.8155 122.582 68.7174 122.72 68.5901 122.884C68.4655 123.046 68.2852 123.19 68.0492 123.318C67.8159 123.442 67.5004 123.504 67.1026 123.504C66.6094 123.504 66.1666 123.388 65.7742 123.154C65.3844 122.921 65.0755 122.582 64.8475 122.136C64.6221 121.691 64.5094 121.15 64.5094 120.514C64.5094 119.888 64.6195 119.343 64.8396 118.879C65.0596 118.412 65.3659 118.052 65.7583 117.797C66.1507 117.54 66.6041 117.411 67.1185 117.411C67.5163 117.411 67.8318 117.478 68.0651 117.61C68.3011 117.74 68.4814 117.889 68.606 118.056C68.7333 118.22 68.8314 118.355 68.9004 118.461H68.9958V117.491H69.9026V123.775C69.9026 124.3 69.7833 124.727 69.5447 125.056C69.3087 125.387 68.9905 125.63 68.5901 125.783C68.1924 125.94 67.7496 126.018 67.2617 126.018ZM67.2299 122.661C67.6064 122.661 67.9246 122.575 68.1844 122.403C68.4443 122.23 68.6418 121.982 68.7771 121.659C68.9123 121.336 68.9799 120.948 68.9799 120.498C68.9799 120.057 68.9136 119.669 68.781 119.332C68.6485 118.996 68.4522 118.732 68.1924 118.541C67.9325 118.35 67.6117 118.254 67.2299 118.254C66.8322 118.254 66.5007 118.355 66.2356 118.557C65.9731 118.758 65.7755 119.029 65.643 119.368C65.513 119.707 65.4481 120.084 65.4481 120.498C65.4481 120.922 65.5144 121.297 65.6469 121.623C65.7822 121.947 65.981 122.201 66.2435 122.387C66.5087 122.57 66.8375 122.661 67.2299 122.661ZM77.3322 123.727C76.7435 123.727 76.2358 123.597 75.8089 123.337C75.3846 123.075 75.0572 122.709 74.8265 122.24C74.5985 121.768 74.4844 121.219 74.4844 120.593C74.4844 119.967 74.5985 119.416 74.8265 118.939C75.0572 118.459 75.378 118.085 75.789 117.817C76.2026 117.546 76.6852 117.411 77.2367 117.411C77.5549 117.411 77.8691 117.464 78.1793 117.57C78.4896 117.676 78.7719 117.849 79.0265 118.087C79.281 118.323 79.4839 118.636 79.635 119.026C79.7861 119.416 79.8617 119.896 79.8617 120.466V120.864H75.1526V120.052H78.9072C78.9072 119.707 78.8382 119.4 78.7003 119.129C78.5651 118.859 78.3716 118.646 78.1197 118.489C77.8704 118.333 77.5761 118.254 77.2367 118.254C76.8628 118.254 76.5394 118.347 76.2663 118.533C75.9958 118.716 75.7877 118.954 75.6418 119.249C75.496 119.543 75.4231 119.859 75.4231 120.195V120.736C75.4231 121.198 75.5026 121.589 75.6617 121.91C75.8235 122.228 76.0475 122.47 76.3339 122.637C76.6202 122.802 76.953 122.884 77.3322 122.884C77.5788 122.884 77.8015 122.85 78.0003 122.781C78.2019 122.709 78.3755 122.603 78.5214 122.462C78.6672 122.319 78.7799 122.142 78.8594 121.929L79.7663 122.184C79.6708 122.492 79.5104 122.762 79.285 122.995C79.0596 123.226 78.7812 123.406 78.4498 123.536C78.1183 123.664 77.7458 123.727 77.3322 123.727ZM82.2282 115.454V123.6H81.2896V115.454H82.2282ZM83.9474 123.6V117.491H84.886V123.6H83.9474ZM84.4246 116.473C84.2417 116.473 84.0839 116.41 83.9513 116.286C83.8214 116.161 83.7565 116.011 83.7565 115.836C83.7565 115.661 83.8214 115.511 83.9513 115.387C84.0839 115.262 84.2417 115.2 84.4246 115.2C84.6076 115.2 84.764 115.262 84.894 115.387C85.0265 115.511 85.0928 115.661 85.0928 115.836C85.0928 116.011 85.0265 116.161 84.894 116.286C84.764 116.41 84.6076 116.473 84.4246 116.473ZM89.262 117.491V118.286H86.0961V117.491H89.262ZM87.0188 116.027H87.9574V121.85C87.9574 122.115 87.9959 122.314 88.0728 122.446C88.1523 122.576 88.2531 122.664 88.3751 122.709C88.4997 122.751 88.6309 122.773 88.7688 122.773C88.8722 122.773 88.9571 122.767 89.0234 122.757C89.0896 122.743 89.1427 122.733 89.1824 122.725L89.3734 123.568C89.3097 123.592 89.2209 123.616 89.1069 123.64C88.9929 123.666 88.8484 123.679 88.6734 123.679C88.4082 123.679 88.1484 123.622 87.8938 123.508C87.6419 123.394 87.4324 123.221 87.2654 122.987C87.101 122.754 87.0188 122.46 87.0188 122.104V116.027ZM91.358 123.664C91.1618 123.664 90.9934 123.593 90.8529 123.453C90.7124 123.312 90.6421 123.144 90.6421 122.948C90.6421 122.751 90.7124 122.583 90.8529 122.443C90.9934 122.302 91.1618 122.232 91.358 122.232C91.5542 122.232 91.7226 122.302 91.8631 122.443C92.0037 122.583 92.0739 122.751 92.0739 122.948C92.0739 123.078 92.0408 123.197 91.9745 123.306C91.9109 123.414 91.8247 123.502 91.716 123.568C91.6099 123.632 91.4906 123.664 91.358 123.664ZM97.0356 123.6V115.454H99.7878C100.427 115.454 100.949 115.57 101.355 115.8C101.763 116.028 102.065 116.337 102.262 116.727C102.458 117.117 102.556 117.552 102.556 118.032C102.556 118.512 102.458 118.948 102.262 119.34C102.068 119.733 101.769 120.046 101.363 120.279C100.957 120.51 100.437 120.625 99.8038 120.625H97.831V119.75H99.7719C100.209 119.75 100.561 119.674 100.826 119.523C101.091 119.372 101.283 119.168 101.403 118.911C101.525 118.651 101.586 118.358 101.586 118.032C101.586 117.706 101.525 117.414 101.403 117.157C101.283 116.9 101.09 116.698 100.822 116.552C100.554 116.404 100.199 116.329 99.756 116.329H98.0219V123.6H97.0356ZM104.018 123.6V117.491H104.924V118.414H104.988C105.099 118.111 105.301 117.866 105.593 117.678C105.884 117.489 106.213 117.395 106.579 117.395C106.648 117.395 106.734 117.397 106.838 117.399C106.941 117.402 107.019 117.406 107.072 117.411V118.366C107.04 118.358 106.967 118.346 106.853 118.33C106.742 118.311 106.624 118.302 106.499 118.302C106.203 118.302 105.937 118.364 105.704 118.489C105.473 118.611 105.29 118.781 105.155 118.998C105.023 119.213 104.956 119.458 104.956 119.734V123.6H104.018ZM109.983 123.743C109.595 123.743 109.244 123.67 108.929 123.524C108.613 123.376 108.363 123.162 108.177 122.884C107.991 122.603 107.899 122.264 107.899 121.866C107.899 121.516 107.967 121.232 108.105 121.015C108.243 120.795 108.427 120.622 108.658 120.498C108.889 120.373 109.143 120.28 109.422 120.219C109.703 120.156 109.985 120.105 110.269 120.068C110.64 120.02 110.941 119.985 111.172 119.961C111.405 119.934 111.575 119.89 111.681 119.829C111.79 119.768 111.844 119.662 111.844 119.511V119.479C111.844 119.087 111.737 118.782 111.522 118.565C111.31 118.347 110.988 118.239 110.555 118.239C110.107 118.239 109.756 118.337 109.501 118.533C109.247 118.729 109.068 118.939 108.964 119.161L108.074 118.843C108.233 118.472 108.445 118.183 108.71 117.976C108.978 117.767 109.269 117.621 109.585 117.539C109.903 117.454 110.216 117.411 110.524 117.411C110.72 117.411 110.945 117.435 111.2 117.483C111.457 117.528 111.705 117.622 111.943 117.765C112.185 117.908 112.385 118.125 112.544 118.414C112.703 118.703 112.783 119.09 112.783 119.575V123.6H111.844V122.773H111.796C111.733 122.905 111.627 123.047 111.478 123.198C111.33 123.349 111.132 123.478 110.885 123.584C110.639 123.69 110.338 123.743 109.983 123.743ZM110.126 122.9C110.497 122.9 110.81 122.827 111.064 122.681C111.322 122.535 111.515 122.347 111.645 122.116C111.778 121.886 111.844 121.643 111.844 121.389V120.529C111.804 120.577 111.717 120.621 111.581 120.661C111.449 120.698 111.295 120.731 111.12 120.76C110.948 120.787 110.779 120.811 110.615 120.832C110.453 120.85 110.322 120.866 110.221 120.879C109.977 120.911 109.749 120.963 109.537 121.035C109.328 121.103 109.158 121.208 109.028 121.349C108.901 121.487 108.837 121.675 108.837 121.914C108.837 122.24 108.958 122.486 109.199 122.653C109.443 122.818 109.752 122.9 110.126 122.9ZM117.057 123.727C116.469 123.727 115.961 123.597 115.534 123.337C115.11 123.075 114.782 122.709 114.551 122.24C114.323 121.768 114.209 121.219 114.209 120.593C114.209 119.967 114.323 119.416 114.551 118.939C114.782 118.459 115.103 118.085 115.514 117.817C115.928 117.546 116.41 117.411 116.962 117.411C117.28 117.411 117.594 117.464 117.904 117.57C118.215 117.676 118.497 117.849 118.751 118.087C119.006 118.323 119.209 118.636 119.36 119.026C119.511 119.416 119.587 119.896 119.587 120.466V120.864H114.878V120.052H118.632C118.632 119.707 118.563 119.4 118.425 119.129C118.29 118.859 118.097 118.646 117.845 118.489C117.595 118.333 117.301 118.254 116.962 118.254C116.588 118.254 116.264 118.347 115.991 118.533C115.721 118.716 115.513 118.954 115.367 119.249C115.221 119.543 115.148 119.859 115.148 120.195V120.736C115.148 121.198 115.228 121.589 115.387 121.91C115.548 122.228 115.773 122.47 116.059 122.637C116.345 122.802 116.678 122.884 117.057 122.884C117.304 122.884 117.526 122.85 117.725 122.781C117.927 122.709 118.101 122.603 118.246 122.462C118.392 122.319 118.505 122.142 118.584 121.929L119.491 122.184C119.396 122.492 119.235 122.762 119.01 122.995C118.785 123.226 118.506 123.406 118.175 123.536C117.843 123.664 117.471 123.727 117.057 123.727ZM125.342 118.859L124.499 119.098C124.446 118.957 124.367 118.821 124.264 118.688C124.163 118.553 124.025 118.441 123.85 118.354C123.675 118.266 123.451 118.223 123.178 118.223C122.804 118.223 122.493 118.309 122.244 118.481C121.997 118.651 121.874 118.867 121.874 119.129C121.874 119.363 121.958 119.547 122.128 119.682C122.298 119.818 122.563 119.93 122.924 120.02L123.83 120.243C124.377 120.376 124.784 120.578 125.051 120.852C125.319 121.122 125.453 121.471 125.453 121.898C125.453 122.248 125.352 122.561 125.151 122.836C124.952 123.112 124.674 123.329 124.316 123.489C123.958 123.648 123.541 123.727 123.067 123.727C122.444 123.727 121.928 123.592 121.52 123.321C121.111 123.051 120.853 122.656 120.744 122.136L121.635 121.914C121.72 122.242 121.88 122.489 122.116 122.653C122.355 122.818 122.666 122.9 123.051 122.9C123.488 122.9 123.836 122.807 124.093 122.621C124.353 122.433 124.483 122.208 124.483 121.945C124.483 121.733 124.408 121.556 124.26 121.412C124.112 121.267 123.883 121.158 123.576 121.086L122.558 120.848C121.998 120.715 121.587 120.51 121.325 120.231C121.065 119.95 120.935 119.599 120.935 119.177C120.935 118.832 121.032 118.528 121.225 118.262C121.422 117.997 121.688 117.789 122.025 117.638C122.364 117.487 122.749 117.411 123.178 117.411C123.783 117.411 124.257 117.544 124.602 117.809C124.949 118.074 125.196 118.424 125.342 118.859ZM129.427 123.727C128.839 123.727 128.331 123.597 127.904 123.337C127.48 123.075 127.152 122.709 126.922 122.24C126.694 121.768 126.58 121.219 126.58 120.593C126.58 119.967 126.694 119.416 126.922 118.939C127.152 118.459 127.473 118.085 127.884 117.817C128.298 117.546 128.781 117.411 129.332 117.411C129.65 117.411 129.964 117.464 130.275 117.57C130.585 117.676 130.867 117.849 131.122 118.087C131.376 118.323 131.579 118.636 131.73 119.026C131.881 119.416 131.957 119.896 131.957 120.466V120.864H127.248V120.052H131.002C131.002 119.707 130.934 119.4 130.796 119.129C130.66 118.859 130.467 118.646 130.215 118.489C129.966 118.333 129.671 118.254 129.332 118.254C128.958 118.254 128.635 118.347 128.362 118.533C128.091 118.716 127.883 118.954 127.737 119.249C127.591 119.543 127.518 119.859 127.518 120.195V120.736C127.518 121.198 127.598 121.589 127.757 121.91C127.919 122.228 128.143 122.47 128.429 122.637C128.716 122.802 129.048 122.884 129.427 122.884C129.674 122.884 129.897 122.85 130.096 122.781C130.297 122.709 130.471 122.603 130.617 122.462C130.763 122.319 130.875 122.142 130.955 121.929L131.862 122.184C131.766 122.492 131.606 122.762 131.38 122.995C131.155 123.226 130.877 123.406 130.545 123.536C130.214 123.664 129.841 123.727 129.427 123.727ZM134.323 119.925V123.6H133.385V117.491H134.292V118.445H134.371C134.514 118.135 134.732 117.886 135.023 117.698C135.315 117.507 135.692 117.411 136.153 117.411C136.567 117.411 136.929 117.496 137.239 117.666C137.549 117.833 137.79 118.087 137.963 118.429C138.135 118.769 138.221 119.198 138.221 119.718V123.6H137.283V119.782C137.283 119.302 137.158 118.928 136.909 118.66C136.659 118.39 136.317 118.254 135.883 118.254C135.583 118.254 135.315 118.319 135.079 118.449C134.846 118.579 134.662 118.769 134.526 119.018C134.391 119.267 134.323 119.57 134.323 119.925ZM142.593 117.491V118.286H139.427V117.491H142.593ZM140.35 116.027H141.289V121.85C141.289 122.115 141.327 122.314 141.404 122.446C141.484 122.576 141.584 122.664 141.706 122.709C141.831 122.751 141.962 122.773 142.1 122.773C142.203 122.773 142.288 122.767 142.355 122.757C142.421 122.743 142.474 122.733 142.514 122.725L142.705 123.568C142.641 123.592 142.552 123.616 142.438 123.64C142.324 123.666 142.18 123.679 142.005 123.679C141.739 123.679 141.48 123.622 141.225 123.508C140.973 123.394 140.764 123.221 140.597 122.987C140.432 122.754 140.35 122.46 140.35 122.104V116.027ZM149.621 126.018C149.168 126.018 148.778 125.96 148.452 125.843C148.126 125.729 147.854 125.578 147.636 125.39C147.422 125.204 147.251 125.005 147.123 124.793L147.871 124.268C147.956 124.379 148.063 124.507 148.193 124.65C148.323 124.796 148.501 124.922 148.726 125.028C148.954 125.136 149.253 125.191 149.621 125.191C150.114 125.191 150.521 125.071 150.842 124.833C151.163 124.594 151.323 124.22 151.323 123.711V122.47H151.244C151.175 122.582 151.077 122.72 150.949 122.884C150.825 123.046 150.645 123.19 150.409 123.318C150.175 123.442 149.86 123.504 149.462 123.504C148.969 123.504 148.526 123.388 148.134 123.154C147.744 122.921 147.435 122.582 147.207 122.136C146.981 121.691 146.869 121.15 146.869 120.514C146.869 119.888 146.979 119.343 147.199 118.879C147.419 118.412 147.725 118.052 148.118 117.797C148.51 117.54 148.964 117.411 149.478 117.411C149.876 117.411 150.191 117.478 150.424 117.61C150.66 117.74 150.841 117.889 150.965 118.056C151.093 118.22 151.191 118.355 151.26 118.461H151.355V117.491H152.262V123.775C152.262 124.3 152.143 124.727 151.904 125.056C151.668 125.387 151.35 125.63 150.949 125.783C150.552 125.94 150.109 126.018 149.621 126.018ZM149.589 122.661C149.966 122.661 150.284 122.575 150.544 122.403C150.804 122.23 151.001 121.982 151.136 121.659C151.272 121.336 151.339 120.948 151.339 120.498C151.339 120.057 151.273 119.669 151.14 119.332C151.008 118.996 150.812 118.732 150.552 118.541C150.292 118.35 149.971 118.254 149.589 118.254C149.192 118.254 148.86 118.355 148.595 118.557C148.332 118.758 148.135 119.029 148.002 119.368C147.872 119.707 147.807 120.084 147.807 120.498C147.807 120.922 147.874 121.297 148.006 121.623C148.142 121.947 148.34 122.201 148.603 122.387C148.868 122.57 149.197 122.661 149.589 122.661ZM153.98 123.6V117.491H154.887V118.414H154.951C155.062 118.111 155.264 117.866 155.555 117.678C155.847 117.489 156.176 117.395 156.542 117.395C156.61 117.395 156.697 117.397 156.8 117.399C156.903 117.402 156.982 117.406 157.035 117.411V118.366C157.003 118.358 156.93 118.346 156.816 118.33C156.705 118.311 156.587 118.302 156.462 118.302C156.165 118.302 155.9 118.364 155.667 118.489C155.436 118.611 155.253 118.781 155.118 118.998C154.985 119.213 154.919 119.458 154.919 119.734V123.6H153.98ZM159.945 123.743C159.558 123.743 159.207 123.67 158.891 123.524C158.576 123.376 158.325 123.162 158.139 122.884C157.954 122.603 157.861 122.264 157.861 121.866C157.861 121.516 157.93 121.232 158.068 121.015C158.206 120.795 158.39 120.622 158.621 120.498C158.851 120.373 159.106 120.28 159.384 120.219C159.665 120.156 159.948 120.105 160.231 120.068C160.603 120.02 160.904 119.985 161.134 119.961C161.368 119.934 161.537 119.89 161.643 119.829C161.752 119.768 161.806 119.662 161.806 119.511V119.479C161.806 119.087 161.699 118.782 161.484 118.565C161.272 118.347 160.95 118.239 160.518 118.239C160.07 118.239 159.718 118.337 159.464 118.533C159.209 118.729 159.03 118.939 158.927 119.161L158.036 118.843C158.195 118.472 158.407 118.183 158.672 117.976C158.94 117.767 159.232 117.621 159.547 117.539C159.866 117.454 160.178 117.411 160.486 117.411C160.682 117.411 160.908 117.435 161.162 117.483C161.419 117.528 161.667 117.622 161.906 117.765C162.147 117.908 162.347 118.125 162.506 118.414C162.666 118.703 162.745 119.09 162.745 119.575V123.6H161.806V122.773H161.759C161.695 122.905 161.589 123.047 161.441 123.198C161.292 123.349 161.095 123.478 160.848 123.584C160.601 123.69 160.3 123.743 159.945 123.743ZM160.088 122.9C160.459 122.9 160.772 122.827 161.027 122.681C161.284 122.535 161.478 122.347 161.608 122.116C161.74 121.886 161.806 121.643 161.806 121.389V120.529C161.767 120.577 161.679 120.621 161.544 120.661C161.411 120.698 161.258 120.731 161.083 120.76C160.91 120.787 160.742 120.811 160.577 120.832C160.416 120.85 160.284 120.866 160.184 120.879C159.94 120.911 159.712 120.963 159.5 121.035C159.29 121.103 159.12 121.208 158.991 121.349C158.863 121.487 158.8 121.675 158.8 121.914C158.8 122.24 158.92 122.486 159.162 122.653C159.406 122.818 159.714 122.9 160.088 122.9ZM169.235 117.491L166.976 123.6H166.021L163.762 117.491H164.78L166.467 122.359H166.53L168.217 117.491H169.235ZM170.474 123.6V117.491H171.413V123.6H170.474ZM170.951 116.473C170.768 116.473 170.61 116.41 170.478 116.286C170.348 116.161 170.283 116.011 170.283 115.836C170.283 115.661 170.348 115.511 170.478 115.387C170.61 115.262 170.768 115.2 170.951 115.2C171.134 115.2 171.291 115.262 171.421 115.387C171.553 115.511 171.619 115.661 171.619 115.836C171.619 116.011 171.553 116.161 171.421 116.286C171.291 116.41 171.134 116.473 170.951 116.473ZM175.439 123.727C174.929 123.727 174.48 123.599 174.09 123.341C173.7 123.082 173.396 122.716 173.175 122.244C172.955 121.769 172.845 121.208 172.845 120.561C172.845 119.92 172.955 119.363 173.175 118.891C173.396 118.419 173.702 118.054 174.094 117.797C174.487 117.54 174.94 117.411 175.454 117.411C175.852 117.411 176.166 117.478 176.397 117.61C176.63 117.74 176.808 117.889 176.93 118.056C177.055 118.22 177.151 118.355 177.22 118.461H177.3V115.454H178.239V123.6H177.332V122.661H177.22C177.151 122.773 177.053 122.913 176.926 123.083C176.799 123.25 176.617 123.4 176.381 123.532C176.145 123.662 175.831 123.727 175.439 123.727ZM175.566 122.884C175.942 122.884 176.261 122.786 176.52 122.59C176.78 122.391 176.978 122.116 177.113 121.766C177.248 121.414 177.316 121.007 177.316 120.545C177.316 120.089 177.25 119.69 177.117 119.348C176.984 119.003 176.788 118.736 176.528 118.545C176.268 118.351 175.948 118.254 175.566 118.254C175.168 118.254 174.837 118.357 174.572 118.561C174.309 118.762 174.111 119.037 173.979 119.384C173.849 119.729 173.784 120.116 173.784 120.545C173.784 120.98 173.85 121.375 173.983 121.731C174.118 122.083 174.317 122.364 174.579 122.574C174.845 122.781 175.173 122.884 175.566 122.884ZM181.886 123.743C181.499 123.743 181.147 123.67 180.832 123.524C180.516 123.376 180.266 123.162 180.08 122.884C179.894 122.603 179.802 122.264 179.802 121.866C179.802 121.516 179.871 121.232 180.008 121.015C180.146 120.795 180.331 120.622 180.561 120.498C180.792 120.373 181.047 120.28 181.325 120.219C181.606 120.156 181.888 120.105 182.172 120.068C182.543 120.02 182.844 119.985 183.075 119.961C183.308 119.934 183.478 119.89 183.584 119.829C183.693 119.768 183.747 119.662 183.747 119.511V119.479C183.747 119.087 183.64 118.782 183.425 118.565C183.213 118.347 182.891 118.239 182.458 118.239C182.01 118.239 181.659 118.337 181.404 118.533C181.15 118.729 180.971 118.939 180.868 119.161L179.977 118.843C180.136 118.472 180.348 118.183 180.613 117.976C180.881 117.767 181.172 117.621 181.488 117.539C181.806 117.454 182.119 117.411 182.427 117.411C182.623 117.411 182.848 117.435 183.103 117.483C183.36 117.528 183.608 117.622 183.847 117.765C184.088 117.908 184.288 118.125 184.447 118.414C184.606 118.703 184.686 119.09 184.686 119.575V123.6H183.747V122.773H183.699C183.636 122.905 183.53 123.047 183.381 123.198C183.233 123.349 183.035 123.478 182.789 123.584C182.542 123.69 182.241 123.743 181.886 123.743ZM182.029 122.9C182.4 122.9 182.713 122.827 182.968 122.681C183.225 122.535 183.418 122.347 183.548 122.116C183.681 121.886 183.747 121.643 183.747 121.389V120.529C183.707 120.577 183.62 120.621 183.485 120.661C183.352 120.698 183.198 120.731 183.023 120.76C182.851 120.787 182.682 120.811 182.518 120.832C182.356 120.85 182.225 120.866 182.124 120.879C181.88 120.911 181.652 120.963 181.44 121.035C181.231 121.103 181.061 121.208 180.931 121.349C180.804 121.487 180.74 121.675 180.74 121.914C180.74 122.24 180.861 122.486 181.102 122.653C181.346 122.818 181.655 122.9 182.029 122.9ZM192.206 117.491V118.286H189.04V117.491H192.206ZM189.963 116.027H190.901V121.85C190.901 122.115 190.94 122.314 191.017 122.446C191.096 122.576 191.197 122.664 191.319 122.709C191.443 122.751 191.575 122.773 191.713 122.773C191.816 122.773 191.901 122.767 191.967 122.757C192.033 122.743 192.086 122.733 192.126 122.725L192.317 123.568C192.253 123.592 192.165 123.616 192.051 123.64C191.937 123.666 191.792 123.679 191.617 123.679C191.352 123.679 191.092 123.622 190.838 123.508C190.586 123.394 190.376 123.221 190.209 122.987C190.045 122.754 189.963 122.46 189.963 122.104V116.027ZM197.468 121.102V117.491H198.406V123.6H197.468V122.566H197.404C197.261 122.876 197.038 123.14 196.736 123.357C196.434 123.572 196.052 123.679 195.59 123.679C195.209 123.679 194.869 123.596 194.572 123.429C194.275 123.259 194.042 123.005 193.872 122.665C193.703 122.323 193.618 121.892 193.618 121.373V117.491H194.556V121.309C194.556 121.754 194.681 122.11 194.93 122.375C195.182 122.64 195.503 122.773 195.893 122.773C196.126 122.773 196.363 122.713 196.605 122.594C196.849 122.474 197.053 122.291 197.217 122.045C197.384 121.798 197.468 121.484 197.468 121.102ZM200.125 123.6V117.491H201.032V118.414H201.096C201.207 118.111 201.409 117.866 201.7 117.678C201.992 117.489 202.321 117.395 202.687 117.395C202.756 117.395 202.842 117.397 202.945 117.399C203.049 117.402 203.127 117.406 203.18 117.411V118.366C203.148 118.358 203.075 118.346 202.961 118.33C202.85 118.311 202.732 118.302 202.607 118.302C202.31 118.302 202.045 118.364 201.812 118.489C201.581 118.611 201.398 118.781 201.263 118.998C201.13 119.213 201.064 119.458 201.064 119.734V123.6H200.125ZM204.293 125.891V117.491H205.199V118.461H205.311C205.38 118.355 205.475 118.22 205.597 118.056C205.722 117.889 205.899 117.74 206.13 117.61C206.364 117.478 206.679 117.411 207.077 117.411C207.591 117.411 208.045 117.54 208.437 117.797C208.829 118.054 209.136 118.419 209.356 118.891C209.576 119.363 209.686 119.92 209.686 120.561C209.686 121.208 209.576 121.769 209.356 122.244C209.136 122.716 208.831 123.082 208.441 123.341C208.051 123.599 207.602 123.727 207.093 123.727C206.7 123.727 206.386 123.662 206.15 123.532C205.914 123.4 205.732 123.25 205.605 123.083C205.478 122.913 205.38 122.773 205.311 122.661H205.231V125.891H204.293ZM205.215 120.545C205.215 121.007 205.283 121.414 205.418 121.766C205.553 122.116 205.751 122.391 206.011 122.59C206.271 122.786 206.589 122.884 206.965 122.884C207.358 122.884 207.685 122.781 207.948 122.574C208.213 122.364 208.412 122.083 208.544 121.731C208.68 121.375 208.747 120.98 208.747 120.545C208.747 120.116 208.681 119.729 208.548 119.384C208.418 119.037 208.221 118.762 207.956 118.561C207.693 118.357 207.363 118.254 206.965 118.254C206.584 118.254 206.263 118.351 206.003 118.545C205.743 118.736 205.547 119.003 205.414 119.348C205.282 119.69 205.215 120.089 205.215 120.545ZM211.118 123.6V117.491H212.056V123.6H211.118ZM211.595 116.473C211.412 116.473 211.254 116.41 211.122 116.286C210.992 116.161 210.927 116.011 210.927 115.836C210.927 115.661 210.992 115.511 211.122 115.387C211.254 115.262 211.412 115.2 211.595 115.2C211.778 115.2 211.934 115.262 212.064 115.387C212.197 115.511 212.263 115.661 212.263 115.836C212.263 116.011 212.197 116.161 212.064 116.286C211.934 116.41 211.778 116.473 211.595 116.473ZM218.103 118.859L217.26 119.098C217.207 118.957 217.128 118.821 217.025 118.688C216.924 118.553 216.786 118.441 216.611 118.354C216.436 118.266 216.212 118.223 215.939 118.223C215.565 118.223 215.254 118.309 215.004 118.481C214.758 118.651 214.635 118.867 214.635 119.129C214.635 119.363 214.719 119.547 214.889 119.682C215.059 119.818 215.324 119.93 215.685 120.02L216.591 120.243C217.138 120.376 217.545 120.578 217.812 120.852C218.08 121.122 218.214 121.471 218.214 121.898C218.214 122.248 218.113 122.561 217.912 122.836C217.713 123.112 217.435 123.329 217.077 123.489C216.719 123.648 216.302 123.727 215.828 123.727C215.205 123.727 214.689 123.592 214.281 123.321C213.872 123.051 213.614 122.656 213.505 122.136L214.396 121.914C214.481 122.242 214.641 122.489 214.877 122.653C215.116 122.818 215.427 122.9 215.812 122.9C216.249 122.9 216.597 122.807 216.854 122.621C217.114 122.433 217.244 122.208 217.244 121.945C217.244 121.733 217.169 121.556 217.021 121.412C216.872 121.267 216.644 121.158 216.337 121.086L215.319 120.848C214.759 120.715 214.348 120.51 214.086 120.231C213.826 119.95 213.696 119.599 213.696 119.177C213.696 118.832 213.793 118.528 213.986 118.262C214.182 117.997 214.449 117.789 214.786 117.638C215.125 117.487 215.51 117.411 215.939 117.411C216.544 117.411 217.018 117.544 217.363 117.809C217.71 118.074 217.957 118.424 218.103 118.859ZM222.777 125.891V117.491H223.684V118.461H223.795C223.864 118.355 223.96 118.22 224.082 118.056C224.206 117.889 224.384 117.74 224.615 117.61C224.848 117.478 225.163 117.411 225.561 117.411C226.076 117.411 226.529 117.54 226.921 117.797C227.314 118.054 227.62 118.419 227.84 118.891C228.06 119.363 228.17 119.92 228.17 120.561C228.17 121.208 228.06 121.769 227.84 122.244C227.62 122.716 227.315 123.082 226.925 123.341C226.536 123.599 226.086 123.727 225.577 123.727C225.185 123.727 224.87 123.662 224.634 123.532C224.398 123.4 224.217 123.25 224.09 123.083C223.962 122.913 223.864 122.773 223.795 122.661H223.716V125.891H222.777ZM223.7 120.545C223.7 121.007 223.767 121.414 223.903 121.766C224.038 122.116 224.235 122.391 224.495 122.59C224.755 122.786 225.073 122.884 225.45 122.884C225.842 122.884 226.17 122.781 226.432 122.574C226.697 122.364 226.896 122.083 227.029 121.731C227.164 121.375 227.232 120.98 227.232 120.545C227.232 120.116 227.165 119.729 227.033 119.384C226.903 119.037 226.705 118.762 226.44 118.561C226.178 118.357 225.847 118.254 225.45 118.254C225.068 118.254 224.747 118.351 224.487 118.545C224.227 118.736 224.031 119.003 223.899 119.348C223.766 119.69 223.7 120.089 223.7 120.545ZM229.602 123.6V117.491H230.509V118.414H230.573C230.684 118.111 230.885 117.866 231.177 117.678C231.469 117.489 231.798 117.395 232.163 117.395C232.232 117.395 232.319 117.397 232.422 117.399C232.525 117.402 232.604 117.406 232.657 117.411V118.366C232.625 118.358 232.552 118.346 232.438 118.33C232.326 118.311 232.208 118.302 232.084 118.302C231.787 118.302 231.522 118.364 231.288 118.489C231.058 118.611 230.875 118.781 230.74 118.998C230.607 119.213 230.541 119.458 230.541 119.734V123.6H229.602ZM236.145 123.727C235.556 123.727 235.048 123.597 234.621 123.337C234.197 123.075 233.87 122.709 233.639 122.24C233.411 121.768 233.297 121.219 233.297 120.593C233.297 119.967 233.411 119.416 233.639 118.939C233.87 118.459 234.191 118.085 234.601 117.817C235.015 117.546 235.498 117.411 236.049 117.411C236.367 117.411 236.682 117.464 236.992 117.57C237.302 117.676 237.584 117.849 237.839 118.087C238.094 118.323 238.296 118.636 238.448 119.026C238.599 119.416 238.674 119.896 238.674 120.466V120.864H233.965V120.052H237.72C237.72 119.707 237.651 119.4 237.513 119.129C237.378 118.859 237.184 118.646 236.932 118.489C236.683 118.333 236.389 118.254 236.049 118.254C235.675 118.254 235.352 118.347 235.079 118.533C234.808 118.716 234.6 118.954 234.454 119.249C234.308 119.543 234.236 119.859 234.236 120.195V120.736C234.236 121.198 234.315 121.589 234.474 121.91C234.636 122.228 234.86 122.47 235.146 122.637C235.433 122.802 235.766 122.884 236.145 122.884C236.391 122.884 236.614 122.85 236.813 122.781C237.014 122.709 237.188 122.603 237.334 122.462C237.48 122.319 237.592 122.142 237.672 121.929L238.579 122.184C238.483 122.492 238.323 122.762 238.098 122.995C237.872 123.226 237.594 123.406 237.262 123.536C236.931 123.664 236.558 123.727 236.145 123.727ZM242.759 117.491V118.286H239.593V117.491H242.759ZM240.516 116.027H241.454V121.85C241.454 122.115 241.493 122.314 241.57 122.446C241.649 122.576 241.75 122.664 241.872 122.709C241.997 122.751 242.128 122.773 242.266 122.773C242.369 122.773 242.454 122.767 242.52 122.757C242.587 122.743 242.64 122.733 242.679 122.725L242.87 123.568C242.807 123.592 242.718 123.616 242.604 123.64C242.49 123.666 242.345 123.679 242.17 123.679C241.905 123.679 241.645 123.622 241.391 123.508C241.139 123.394 240.929 123.221 240.762 122.987C240.598 122.754 240.516 122.46 240.516 122.104V116.027ZM244.171 123.6V117.491H245.109V123.6H244.171ZM244.648 116.473C244.465 116.473 244.307 116.41 244.175 116.286C244.045 116.161 243.98 116.011 243.98 115.836C243.98 115.661 244.045 115.511 244.175 115.387C244.307 115.262 244.465 115.2 244.648 115.2C244.831 115.2 244.987 115.262 245.117 115.387C245.25 115.511 245.316 115.661 245.316 115.836C245.316 116.011 245.25 116.161 245.117 116.286C244.987 116.41 244.831 116.473 244.648 116.473ZM250.679 121.102V117.491H251.617V123.6H250.679V122.566H250.615C250.472 122.876 250.249 123.14 249.947 123.357C249.645 123.572 249.263 123.679 248.801 123.679C248.42 123.679 248.08 123.596 247.783 123.429C247.486 123.259 247.253 123.005 247.083 122.665C246.913 122.323 246.829 121.892 246.829 121.373V117.491H247.767V121.309C247.767 121.754 247.892 122.11 248.141 122.375C248.393 122.64 248.714 122.773 249.104 122.773C249.337 122.773 249.574 122.713 249.816 122.594C250.059 122.474 250.264 122.291 250.428 122.045C250.595 121.798 250.679 121.484 250.679 121.102ZM253.336 123.6V117.491H254.243V118.445H254.323C254.45 118.119 254.656 117.866 254.939 117.686C255.223 117.503 255.564 117.411 255.961 117.411C256.364 117.411 256.7 117.503 256.968 117.686C257.238 117.866 257.449 118.119 257.6 118.445H257.664C257.82 118.13 258.055 117.879 258.368 117.694C258.681 117.505 259.056 117.411 259.493 117.411C260.039 117.411 260.486 117.582 260.834 117.924C261.181 118.264 261.355 118.793 261.355 119.511V123.6H260.416V119.511C260.416 119.061 260.293 118.738 260.046 118.545C259.799 118.351 259.509 118.254 259.175 118.254C258.746 118.254 258.413 118.384 258.177 118.644C257.941 118.901 257.823 119.228 257.823 119.623V123.6H256.868V119.416C256.868 119.068 256.756 118.789 256.53 118.577C256.305 118.362 256.014 118.254 255.659 118.254C255.415 118.254 255.187 118.319 254.975 118.449C254.766 118.579 254.596 118.76 254.466 118.99C254.339 119.218 254.275 119.482 254.275 119.782V123.6H253.336ZM264.471 122.486L264.407 122.916C264.362 123.218 264.293 123.542 264.2 123.886C264.11 124.231 264.016 124.556 263.918 124.861C263.82 125.166 263.739 125.408 263.675 125.589H262.959C262.994 125.419 263.039 125.195 263.095 124.916C263.15 124.638 263.206 124.326 263.262 123.982C263.32 123.64 263.368 123.29 263.405 122.932L263.453 122.486H264.471ZM20.6322 145.727C20.0435 145.727 19.5358 145.597 19.1089 145.337C18.6846 145.075 18.3572 144.709 18.1265 144.24C17.8985 143.768 17.7844 143.219 17.7844 142.593C17.7844 141.967 17.8985 141.416 18.1265 140.939C18.3572 140.459 18.678 140.085 19.089 139.817C19.5026 139.546 19.9852 139.411 20.5367 139.411C20.8549 139.411 21.1691 139.464 21.4793 139.57C21.7896 139.676 22.0719 139.849 22.3265 140.087C22.581 140.323 22.7839 140.636 22.935 141.026C23.0861 141.416 23.1617 141.896 23.1617 142.466V142.864H18.4526V142.052H22.2072C22.2072 141.707 22.1382 141.4 22.0004 141.129C21.8651 140.859 21.6716 140.646 21.4197 140.489C21.1704 140.333 20.8761 140.254 20.5367 140.254C20.1629 140.254 19.8394 140.347 19.5663 140.533C19.2958 140.716 19.0877 140.954 18.9418 141.249C18.796 141.543 18.7231 141.859 18.7231 142.195V142.736C18.7231 143.198 18.8026 143.589 18.9617 143.91C19.1235 144.228 19.3475 144.47 19.6339 144.637C19.9202 144.802 20.253 144.884 20.6322 144.884C20.8788 144.884 21.1015 144.85 21.3004 144.781C21.5019 144.709 21.6755 144.603 21.8214 144.462C21.9672 144.319 22.0799 144.142 22.1594 143.929L23.0663 144.184C22.9708 144.492 22.8104 144.762 22.585 144.995C22.3596 145.226 22.0812 145.406 21.7498 145.536C21.4183 145.664 21.0458 145.727 20.6322 145.727ZM28.4396 143.102V139.491H29.3782V145.6H28.4396V144.566H28.3759C28.2327 144.876 28.01 145.14 27.7077 145.357C27.4055 145.572 27.0236 145.679 26.5623 145.679C26.1805 145.679 25.8411 145.596 25.5441 145.429C25.2471 145.259 25.0138 145.005 24.8441 144.665C24.6744 144.323 24.5896 143.892 24.5896 143.373V139.491H25.5282V143.309C25.5282 143.754 25.6528 144.11 25.9021 144.375C26.154 144.64 26.4748 144.773 26.8646 144.773C27.0979 144.773 27.3352 144.713 27.5765 144.594C27.8204 144.474 28.0246 144.291 28.189 144.045C28.356 143.798 28.4396 143.484 28.4396 143.102ZM31.0974 145.6V139.491H32.036V145.6H31.0974ZM31.5746 138.473C31.3917 138.473 31.2339 138.41 31.1013 138.286C30.9714 138.161 30.9065 138.011 30.9065 137.836C30.9065 137.661 30.9714 137.511 31.1013 137.387C31.2339 137.262 31.3917 137.2 31.5746 137.2C31.7576 137.2 31.914 137.262 32.044 137.387C32.1765 137.511 32.2428 137.661 32.2428 137.836C32.2428 138.011 32.1765 138.161 32.044 138.286C31.914 138.41 31.7576 138.473 31.5746 138.473ZM38.0825 140.859L37.2393 141.098C37.1862 140.957 37.108 140.821 37.0046 140.688C36.9039 140.553 36.766 140.441 36.591 140.354C36.416 140.266 36.1919 140.223 35.9188 140.223C35.545 140.223 35.2334 140.309 34.9842 140.481C34.7376 140.651 34.6143 140.867 34.6143 141.129C34.6143 141.363 34.6991 141.547 34.8688 141.682C35.0385 141.818 35.3037 141.93 35.6643 142.02L36.5711 142.243C37.1173 142.376 37.5243 142.578 37.7921 142.852C38.0599 143.122 38.1938 143.471 38.1938 143.898C38.1938 144.248 38.0931 144.561 37.8915 144.836C37.6927 145.112 37.4143 145.329 37.0563 145.489C36.6984 145.648 36.2821 145.727 35.8075 145.727C35.1843 145.727 34.6686 145.592 34.2603 145.321C33.852 145.051 33.5934 144.656 33.4847 144.136L34.3756 143.914C34.4605 144.242 34.6209 144.489 34.8569 144.653C35.0955 144.818 35.4071 144.9 35.7915 144.9C36.229 144.9 36.5764 144.807 36.8336 144.621C37.0934 144.433 37.2234 144.208 37.2234 143.945C37.2234 143.733 37.1491 143.556 37.0006 143.412C36.8522 143.267 36.6241 143.158 36.3165 143.086L35.2984 142.848C34.7389 142.715 34.3279 142.51 34.0654 142.231C33.8056 141.95 33.6756 141.599 33.6756 141.177C33.6756 140.832 33.7724 140.528 33.966 140.262C34.1622 139.997 34.4287 139.789 34.7654 139.638C35.1048 139.487 35.4893 139.411 35.9188 139.411C36.5234 139.411 36.998 139.544 37.3427 139.809C37.69 140.074 37.9366 140.424 38.0825 140.859ZM39.6067 145.6V139.491H40.5136V140.445H40.5931C40.7204 140.119 40.9259 139.866 41.2096 139.686C41.4933 139.503 41.834 139.411 42.2317 139.411C42.6348 139.411 42.9702 139.503 43.238 139.686C43.5084 139.866 43.7192 140.119 43.8704 140.445H43.934C44.0905 140.13 44.3251 139.879 44.638 139.694C44.9509 139.505 45.3261 139.411 45.7636 139.411C46.3098 139.411 46.7566 139.582 47.1039 139.924C47.4513 140.264 47.6249 140.793 47.6249 141.511V145.6H46.6863V141.511C46.6863 141.061 46.563 140.738 46.3164 140.545C46.0698 140.351 45.7795 140.254 45.4454 140.254C45.0158 140.254 44.6831 140.384 44.4471 140.644C44.2111 140.901 44.0931 141.228 44.0931 141.623V145.6H43.1386V141.416C43.1386 141.068 43.0259 140.789 42.8005 140.577C42.5751 140.362 42.2848 140.254 41.9295 140.254C41.6855 140.254 41.4575 140.319 41.2454 140.449C41.0359 140.579 40.8662 140.76 40.7363 140.99C40.609 141.218 40.5454 141.482 40.5454 141.782V145.6H39.6067ZM51.8229 145.727C51.2714 145.727 50.7875 145.596 50.3712 145.333C49.9576 145.071 49.6341 144.704 49.4008 144.232C49.1701 143.76 49.0548 143.208 49.0548 142.577C49.0548 141.941 49.1701 141.385 49.4008 140.911C49.6341 140.436 49.9576 140.068 50.3712 139.805C50.7875 139.543 51.2714 139.411 51.8229 139.411C52.3745 139.411 52.857 139.543 53.2707 139.805C53.687 140.068 54.0104 140.436 54.2411 140.911C54.4745 141.385 54.5911 141.941 54.5911 142.577C54.5911 143.208 54.4745 143.76 54.2411 144.232C54.0104 144.704 53.687 145.071 53.2707 145.333C52.857 145.596 52.3745 145.727 51.8229 145.727ZM51.8229 144.884C52.2419 144.884 52.5866 144.777 52.857 144.562C53.1275 144.347 53.3277 144.065 53.4576 143.715C53.5875 143.365 53.6525 142.986 53.6525 142.577C53.6525 142.169 53.5875 141.788 53.4576 141.436C53.3277 141.083 53.1275 140.798 52.857 140.581C52.5866 140.363 52.2419 140.254 51.8229 140.254C51.404 140.254 51.0593 140.363 50.7888 140.581C50.5184 140.798 50.3182 141.083 50.1883 141.436C50.0584 141.788 49.9934 142.169 49.9934 142.577C49.9934 142.986 50.0584 143.365 50.1883 143.715C50.3182 144.065 50.5184 144.347 50.7888 144.562C51.0593 144.777 51.404 144.884 51.8229 144.884ZM58.3307 145.727C57.8217 145.727 57.3722 145.599 56.9825 145.341C56.5927 145.082 56.2878 144.716 56.0677 144.244C55.8476 143.769 55.7376 143.208 55.7376 142.561C55.7376 141.92 55.8476 141.363 56.0677 140.891C56.2878 140.419 56.594 140.054 56.9864 139.797C57.3789 139.54 57.8323 139.411 58.3467 139.411C58.7444 139.411 59.0586 139.478 59.2893 139.61C59.5226 139.74 59.7003 139.889 59.8222 140.056C59.9468 140.22 60.0436 140.355 60.1126 140.461H60.1921V137.454H61.1308V145.6H60.2239V144.661H60.1126C60.0436 144.773 59.9455 144.913 59.8182 145.083C59.691 145.25 59.5093 145.4 59.2734 145.532C59.0374 145.662 58.7232 145.727 58.3307 145.727ZM58.458 144.884C58.8345 144.884 59.1527 144.786 59.4126 144.59C59.6724 144.391 59.87 144.116 60.0052 143.766C60.1404 143.414 60.208 143.007 60.208 142.545C60.208 142.089 60.1417 141.69 60.0092 141.348C59.8766 141.003 59.6804 140.736 59.4205 140.545C59.1607 140.351 58.8398 140.254 58.458 140.254C58.0603 140.254 57.7289 140.357 57.4637 140.561C57.2012 140.762 57.0037 141.037 56.8711 141.384C56.7412 141.729 56.6762 142.116 56.6762 142.545C56.6762 142.98 56.7425 143.375 56.8751 143.731C57.0103 144.083 57.2092 144.364 57.4717 144.574C57.7368 144.781 58.0656 144.884 58.458 144.884ZM68.437 145.727C67.9279 145.727 67.4785 145.599 67.0887 145.341C66.6989 145.082 66.394 144.716 66.1739 144.244C65.9539 143.769 65.8438 143.208 65.8438 142.561C65.8438 141.92 65.9539 141.363 66.1739 140.891C66.394 140.419 66.7003 140.054 67.0927 139.797C67.4851 139.54 67.9385 139.411 68.4529 139.411C68.8506 139.411 69.1648 139.478 69.3955 139.61C69.6289 139.74 69.8065 139.889 69.9285 140.056C70.0531 140.22 70.1499 140.355 70.2188 140.461H70.2984V137.454H71.237V145.6H70.3302V144.661H70.2188C70.1499 144.773 70.0518 144.913 69.9245 145.083C69.7972 145.25 69.6156 145.4 69.3796 145.532C69.1436 145.662 68.8294 145.727 68.437 145.727ZM68.5643 144.884C68.9408 144.884 69.259 144.786 69.5188 144.59C69.7787 144.391 69.9762 144.116 70.1114 143.766C70.2467 143.414 70.3143 143.007 70.3143 142.545C70.3143 142.089 70.248 141.69 70.1154 141.348C69.9828 141.003 69.7866 140.736 69.5268 140.545C69.2669 140.351 68.9461 140.254 68.5643 140.254C68.1665 140.254 67.8351 140.357 67.57 140.561C67.3075 140.762 67.1099 141.037 66.9773 141.384C66.8474 141.729 66.7825 142.116 66.7825 142.545C66.7825 142.98 66.8487 143.375 66.9813 143.731C67.1165 144.083 67.3154 144.364 67.5779 144.574C67.8431 144.781 68.1718 144.884 68.5643 144.884ZM73.0864 145.6V139.491H74.0251V145.6H73.0864ZM73.5637 138.473C73.3807 138.473 73.223 138.41 73.0904 138.286C72.9605 138.161 72.8955 138.011 72.8955 137.836C72.8955 137.661 72.9605 137.511 73.0904 137.387C73.223 137.262 73.3807 137.2 73.5637 137.2C73.7467 137.2 73.9031 137.262 74.033 137.387C74.1656 137.511 74.2319 137.661 74.2319 137.836C74.2319 138.011 74.1656 138.161 74.033 138.286C73.9031 138.41 73.7467 138.473 73.5637 138.473ZM77.542 145.743C77.1548 145.743 76.8035 145.67 76.488 145.524C76.1725 145.376 75.9219 145.162 75.7363 144.884C75.5507 144.603 75.4579 144.264 75.4579 143.866C75.4579 143.516 75.5268 143.232 75.6647 143.015C75.8026 142.795 75.9869 142.622 76.2175 142.498C76.4482 142.373 76.7028 142.28 76.9812 142.219C77.2622 142.156 77.5446 142.105 77.8283 142.068C78.1995 142.02 78.5005 141.985 78.7312 141.961C78.9645 141.934 79.1342 141.89 79.2403 141.829C79.349 141.768 79.4033 141.662 79.4033 141.511V141.479C79.4033 141.087 79.2959 140.782 79.0812 140.565C78.8691 140.347 78.5469 140.239 78.1147 140.239C77.6666 140.239 77.3153 140.337 77.0607 140.533C76.8062 140.729 76.6272 140.939 76.5238 141.161L75.6329 140.843C75.792 140.472 76.0041 140.183 76.2692 139.976C76.537 139.767 76.8287 139.621 77.1442 139.539C77.4624 139.454 77.7753 139.411 78.0829 139.411C78.2791 139.411 78.5045 139.435 78.759 139.483C79.0162 139.528 79.2641 139.622 79.5028 139.765C79.7441 139.908 79.9442 140.125 80.1033 140.414C80.2624 140.703 80.342 141.09 80.342 141.575V145.6H79.4033V144.773H79.3556C79.292 144.905 79.1859 145.047 79.0374 145.198C78.8889 145.349 78.6914 145.478 78.4448 145.584C78.1982 145.69 77.8973 145.743 77.542 145.743ZM77.6852 144.9C78.0564 144.9 78.3692 144.827 78.6238 144.681C78.881 144.535 79.0745 144.347 79.2045 144.116C79.337 143.886 79.4033 143.643 79.4033 143.389V142.529C79.3636 142.577 79.2761 142.621 79.1408 142.661C79.0083 142.698 78.8545 142.731 78.6795 142.76C78.5071 142.787 78.3387 142.811 78.1744 142.832C78.0126 142.85 77.8814 142.866 77.7806 142.879C77.5367 142.911 77.3086 142.963 77.0965 143.035C76.887 143.103 76.7173 143.208 76.5874 143.349C76.4602 143.487 76.3965 143.675 76.3965 143.914C76.3965 144.24 76.5172 144.486 76.7584 144.653C77.0024 144.818 77.3113 144.9 77.6852 144.9ZM82.0552 145.6V139.491H82.962V140.445H83.0415C83.1688 140.119 83.3743 139.866 83.658 139.686C83.9417 139.503 84.2825 139.411 84.6802 139.411C85.0832 139.411 85.4186 139.503 85.6864 139.686C85.9569 139.866 86.1677 140.119 86.3188 140.445H86.3825C86.5389 140.13 86.7736 139.879 87.0864 139.694C87.3993 139.505 87.7745 139.411 88.212 139.411C88.7582 139.411 89.205 139.582 89.5523 139.924C89.8997 140.264 90.0734 140.793 90.0734 141.511V145.6H89.1347V141.511C89.1347 141.061 89.0114 140.738 88.7648 140.545C88.5182 140.351 88.2279 140.254 87.8938 140.254C87.4643 140.254 87.1315 140.384 86.8955 140.644C86.6595 140.901 86.5415 141.228 86.5415 141.623V145.6H85.587V141.416C85.587 141.068 85.4743 140.789 85.2489 140.577C85.0236 140.362 84.7332 140.254 84.3779 140.254C84.134 140.254 83.9059 140.319 83.6938 140.449C83.4843 140.579 83.3147 140.76 83.1847 140.99C83.0575 141.218 82.9938 141.482 82.9938 141.782V145.6H82.0552ZM97.5009 145.727C96.9123 145.727 96.4045 145.597 95.9776 145.337C95.5534 145.075 95.2259 144.709 94.9952 144.24C94.7672 143.768 94.6532 143.219 94.6532 142.593C94.6532 141.967 94.7672 141.416 94.9952 140.939C95.2259 140.459 95.5468 140.085 95.9577 139.817C96.3714 139.546 96.854 139.411 97.4055 139.411C97.7236 139.411 98.0379 139.464 98.3481 139.57C98.6583 139.676 98.9407 139.849 99.1952 140.087C99.4498 140.323 99.6526 140.636 99.8038 141.026C99.9549 141.416 100.03 141.896 100.03 142.466V142.864H95.3214V142.052H99.0759C99.0759 141.707 99.007 141.4 98.8691 141.129C98.7339 140.859 98.5403 140.646 98.2884 140.489C98.0392 140.333 97.7449 140.254 97.4055 140.254C97.0316 140.254 96.7081 140.347 96.435 140.533C96.1646 140.716 95.9564 140.954 95.8106 141.249C95.6647 141.543 95.5918 141.859 95.5918 142.195V142.736C95.5918 143.198 95.6714 143.589 95.8305 143.91C95.9922 144.228 96.2163 144.47 96.5026 144.637C96.789 144.802 97.1218 144.884 97.5009 144.884C97.7475 144.884 97.9702 144.85 98.1691 144.781C98.3706 144.709 98.5443 144.603 98.6901 144.462C98.836 144.319 98.9486 144.142 99.0282 143.929L99.935 144.184C99.8396 144.492 99.6791 144.762 99.4538 144.995C99.2284 145.226 98.95 145.406 98.6185 145.536C98.2871 145.664 97.9146 145.727 97.5009 145.727ZM105.308 143.102V139.491H106.247V145.6H105.308V144.566H105.245C105.101 144.876 104.879 145.14 104.576 145.357C104.274 145.572 103.892 145.679 103.431 145.679C103.049 145.679 102.71 145.596 102.413 145.429C102.116 145.259 101.883 145.005 101.713 144.665C101.543 144.323 101.458 143.892 101.458 143.373V139.491H102.397V143.309C102.397 143.754 102.522 144.11 102.771 144.375C103.023 144.64 103.344 144.773 103.733 144.773C103.967 144.773 104.204 144.713 104.445 144.594C104.689 144.474 104.893 144.291 105.058 144.045C105.225 143.798 105.308 143.484 105.308 143.102Z" fill="#344054"/>
<path d="M3.21171 1.0999H286.012V-0.300098H3.21171V1.0999ZM288.112 3.1999V167.6H289.512V3.1999H288.112ZM286.012 169.7H3.2117V171.1H286.012V169.7ZM1.11171 167.6V3.19991H-0.288287V167.6H1.11171ZM3.2117 169.7C2.05191 169.7 1.11171 168.76 1.11171 167.6H-0.288287C-0.288287 169.533 1.2787 171.1 3.2117 171.1V169.7ZM288.112 167.6C288.112 168.76 287.172 169.7 286.012 169.7V171.1C287.945 171.1 289.512 169.533 289.512 167.6H288.112ZM286.012 1.0999C287.172 1.0999 288.112 2.0401 288.112 3.1999H289.512C289.512 1.26691 287.945 -0.300098 286.012 -0.300098V1.0999ZM3.21171 -0.300098C1.27871 -0.300098 -0.288287 1.26691 -0.288287 3.19991H1.11171C1.11171 2.04011 2.05192 1.0999 3.21171 1.0999V-0.300098Z" fill="#98A2B3"/>
<rect x="0.411713" y="0.399902" width="288.4" height="16.8" fill="#E8178A" fill-opacity="0.24"/>
<rect x="0.411713" y="36.0999" width="288.4" height="11.2" fill="#E8178A" fill-opacity="0.24"/>
<rect x="0.411713" y="69.6999" width="288.4" height="11.2" fill="#E8178A" fill-opacity="0.24"/>
<rect x="0.411621" y="152.6" width="288.4" height="16.8" fill="#E8178A" fill-opacity="0.24"/>
<rect x="0.911621" y="0.599854" width="16" height="169" fill="#E8178A" fill-opacity="0.24"/>
<rect x="271.912" y="0.599854" width="17" height="169" fill="#E8178A" fill-opacity="0.24"/>
<defs>
<clipPath id="clip0_2_1208">
<rect width="16.8" height="16.8" fill="white" transform="translate(17.2117 20.2999)"/>
</clipPath>
</defs>
</svg>
