<svg width="289" height="137" viewBox="0 0 289 137" fill="none" xmlns="http://www.w3.org/2000/svg">
<path d="M0.412598 3.1999C0.412598 1.65351 1.6662 0.399902 3.2126 0.399902H286.013C287.559 0.399902 288.813 1.6535 288.813 3.1999V65.5999C288.813 67.1463 287.559 68.3999 286.013 68.3999H3.21259C1.66619 68.3999 0.412598 67.1463 0.412598 65.5999V3.1999Z" fill="white"/>
<path d="M1.00919 7.31155V5.18172H11.0438V7.31155H7.30322V17.3999H4.74981V7.31155H1.00919ZM12.6487 17.3999V8.23627H15.1902V17.3999H12.6487ZM13.9254 7.05502C13.5475 7.05502 13.2234 6.92973 12.9529 6.67916C12.6865 6.42462 12.5532 6.12036 12.5532 5.76638C12.5532 5.41638 12.6865 5.1161 12.9529 4.86553C13.2234 4.61098 13.5475 4.48371 13.9254 4.48371C14.3032 4.48371 14.6254 4.61098 14.8919 4.86553C15.1623 5.1161 15.2975 5.41638 15.2975 5.76638C15.2975 6.12036 15.1623 6.42462 14.8919 6.67916C14.6254 6.92973 14.3032 7.05502 13.9254 7.05502ZM22.1002 8.23627V10.1454H16.5817V8.23627H22.1002ZM17.8345 6.04081H20.376V14.584C20.376 14.8187 20.4118 15.0016 20.4834 15.1329C20.555 15.2601 20.6544 15.3496 20.7817 15.4013C20.913 15.453 21.0641 15.4789 21.2351 15.4789C21.3544 15.4789 21.4737 15.4689 21.5931 15.4491C21.7124 15.4252 21.8039 15.4073 21.8675 15.3954L22.2672 17.2866C22.1399 17.3263 21.961 17.3721 21.7303 17.4238C21.4996 17.4794 21.2192 17.5133 20.8891 17.5252C20.2766 17.5491 19.7397 17.4675 19.2783 17.2806C18.8209 17.0937 18.4649 16.8033 18.2104 16.4096C17.9558 16.0158 17.8306 15.5187 17.8345 14.9181V6.04081ZM26.4941 5.18172V17.3999H23.9526V5.18172H26.4941ZM32.7061 17.5789C31.7634 17.5789 30.9521 17.388 30.272 17.0062C29.5958 16.6204 29.0748 16.0755 28.7089 15.3715C28.343 14.6635 28.16 13.8263 28.16 12.8598C28.16 11.9172 28.343 11.09 28.7089 10.378C29.0748 9.6661 29.5899 9.11127 30.2541 8.71354C30.9223 8.31581 31.7058 8.11695 32.6046 8.11695C33.2092 8.11695 33.772 8.21439 34.293 8.40928C34.818 8.60019 35.2754 8.88854 35.6652 9.27433C36.0589 9.66013 36.3652 10.1454 36.5839 10.73C36.8027 11.3107 36.912 11.9908 36.912 12.7704V13.4684H29.1742V11.8934H34.5197C34.5197 11.5275 34.4402 11.2033 34.2811 10.9209C34.122 10.6385 33.9012 10.4178 33.6188 10.2587C33.3404 10.0956 33.0163 10.0141 32.6464 10.0141C32.2606 10.0141 31.9186 10.1036 31.6203 10.2826C31.3259 10.4576 31.0953 10.6942 30.9282 10.9925C30.7612 11.2868 30.6757 11.615 30.6717 11.9769V13.4743C30.6717 13.9277 30.7552 14.3195 30.9223 14.6496C31.0933 14.9797 31.3339 15.2343 31.6441 15.4133C31.9544 15.5922 32.3223 15.6817 32.7478 15.6817C33.0302 15.6817 33.2887 15.6419 33.5234 15.5624C33.758 15.4829 33.9589 15.3635 34.1259 15.2044C34.293 15.0454 34.4203 14.8505 34.5078 14.6198L36.8583 14.7749C36.739 15.3397 36.4944 15.8329 36.1245 16.2544C35.7586 16.6721 35.2853 16.9982 34.7046 17.2329C34.1279 17.4635 33.4617 17.5789 32.7061 17.5789Z" fill="#344054"/>
<circle cx="280.413" cy="11.8999" r="8.05" fill="white" stroke="#344054" stroke-width="0.7"/>
<path d="M1.39896 38.3999V30.2544H2.38533V37.5249H6.17169V38.3999H1.39896ZM10.0535 38.5272C9.50199 38.5272 9.01809 38.3959 8.6018 38.1334C8.18817 37.8709 7.86468 37.5037 7.63135 37.0317C7.40067 36.5598 7.28532 36.0082 7.28532 35.3772C7.28532 34.7408 7.40067 34.1853 7.63135 33.7107C7.86468 33.2361 8.18817 32.8675 8.6018 32.605C9.01809 32.3425 9.50199 32.2113 10.0535 32.2113C10.605 32.2113 11.0876 32.3425 11.5012 32.605C11.9175 32.8675 12.241 33.2361 12.4717 33.7107C12.705 34.1853 12.8217 34.7408 12.8217 35.3772C12.8217 36.0082 12.705 36.5598 12.4717 37.0317C12.241 37.5037 11.9175 37.8709 11.5012 38.1334C11.0876 38.3959 10.605 38.5272 10.0535 38.5272ZM10.0535 37.684C10.4724 37.684 10.8171 37.5766 11.0876 37.3618C11.3581 37.1471 11.5582 36.8647 11.6882 36.5147C11.8181 36.1647 11.8831 35.7855 11.8831 35.3772C11.8831 34.9688 11.8181 34.5883 11.6882 34.2357C11.5582 33.883 11.3581 33.598 11.0876 33.3806C10.8171 33.1632 10.4724 33.0544 10.0535 33.0544C9.63457 33.0544 9.28987 33.1632 9.01942 33.3806C8.74896 33.598 8.54877 33.883 8.41885 34.2357C8.28892 34.5883 8.22396 34.9688 8.22396 35.3772C8.22396 35.7855 8.28892 36.1647 8.41885 36.5147C8.54877 36.8647 8.74896 37.1471 9.01942 37.3618C9.28987 37.5766 9.63457 37.684 10.0535 37.684ZM14.2545 38.3999V32.2908H15.1613V33.2135H15.225C15.3363 32.9113 15.5378 32.666 15.8295 32.4777C16.1212 32.2895 16.45 32.1954 16.8159 32.1954C16.8848 32.1954 16.971 32.1967 17.0744 32.1993C17.1778 32.202 17.256 32.206 17.309 32.2113V33.1658C17.2772 33.1579 17.2043 33.1459 17.0903 33.13C16.9789 33.1115 16.8609 33.1022 16.7363 33.1022C16.4393 33.1022 16.1742 33.1645 15.9409 33.2891C15.7102 33.4111 15.5272 33.5808 15.392 33.7982C15.2594 34.013 15.1931 34.2582 15.1931 34.534V38.3999H14.2545ZM20.7971 38.5272C20.2085 38.5272 19.7007 38.3973 19.2738 38.1374C18.8496 37.8749 18.5221 37.509 18.2914 37.0397C18.0634 36.5677 17.9494 36.0188 17.9494 35.3931C17.9494 34.7673 18.0634 34.2158 18.2914 33.7385C18.5221 33.2586 18.8429 32.8848 19.2539 32.6169C19.6676 32.3465 20.1501 32.2113 20.7017 32.2113C21.0198 32.2113 21.334 32.2643 21.6443 32.3704C21.9545 32.4764 22.2369 32.6488 22.4914 32.8874C22.746 33.1234 22.9488 33.4363 23.1 33.826C23.2511 34.2158 23.3267 34.6957 23.3267 35.2658V35.6635H18.6176V34.8522H22.3721C22.3721 34.5075 22.3032 34.1999 22.1653 33.9294C22.0301 33.659 21.8365 33.4455 21.5846 33.2891C21.3354 33.1327 21.0411 33.0544 20.7017 33.0544C20.3278 33.0544 20.0043 33.1473 19.7312 33.3329C19.4608 33.5158 19.2526 33.7544 19.1068 34.0488C18.9609 34.3431 18.888 34.6586 18.888 34.9954V35.5363C18.888 35.9976 18.9676 36.3887 19.1267 36.7096C19.2884 37.0277 19.5125 37.2704 19.7988 37.4374C20.0852 37.6018 20.4179 37.684 20.7971 37.684C21.0437 37.684 21.2664 37.6495 21.4653 37.5806C21.6668 37.509 21.8405 37.4029 21.9863 37.2624C22.1322 37.1192 22.2448 36.9416 22.3244 36.7294L23.2312 36.984C23.1358 37.2916 22.9753 37.562 22.75 37.7954C22.5246 38.026 22.2462 38.2063 21.9147 38.3363C21.5833 38.4635 21.2108 38.5272 20.7971 38.5272ZM24.7545 38.3999V32.2908H25.6613V33.2454H25.7409C25.8681 32.9192 26.0736 32.666 26.3573 32.4857C26.6411 32.3027 26.9818 32.2113 27.3795 32.2113C27.7825 32.2113 28.1179 32.3027 28.3857 32.4857C28.6562 32.666 28.867 32.9192 29.0181 33.2454H29.0818C29.2382 32.9298 29.4729 32.6793 29.7857 32.4937C30.0986 32.3054 30.4738 32.2113 30.9113 32.2113C31.4575 32.2113 31.9043 32.3823 32.2517 32.7243C32.599 33.0637 32.7727 33.5927 32.7727 34.3113V38.3999H31.834V34.3113C31.834 33.8605 31.7107 33.5383 31.4642 33.3448C31.2176 33.1512 30.9272 33.0544 30.5931 33.0544C30.1636 33.0544 29.8308 33.1844 29.5948 33.4442C29.3589 33.7014 29.2409 34.0276 29.2409 34.4226V38.3999H28.2863V34.2158C28.2863 33.8685 28.1736 33.5887 27.9482 33.3766C27.7229 33.1618 27.4325 33.0544 27.0772 33.0544C26.8333 33.0544 26.6053 33.1194 26.3931 33.2493C26.1837 33.3793 26.014 33.5596 25.884 33.7902C25.7568 34.0183 25.6931 34.2821 25.6931 34.5817V38.3999H24.7545ZM37.6389 38.3999V32.2908H38.5775V38.3999H37.6389ZM38.1161 31.2726C37.9332 31.2726 37.7754 31.2103 37.6429 31.0857C37.5129 30.9611 37.448 30.8113 37.448 30.6363C37.448 30.4613 37.5129 30.3115 37.6429 30.1868C37.7754 30.0622 37.9332 29.9999 38.1161 29.9999C38.2991 29.9999 38.4555 30.0622 38.5855 30.1868C38.718 30.3115 38.7843 30.4613 38.7843 30.6363C38.7843 30.8113 38.718 30.9611 38.5855 31.0857C38.4555 31.2103 38.2991 31.2726 38.1161 31.2726ZM40.2967 40.6908V32.2908H41.2035V33.2613H41.3149C41.3838 33.1552 41.4793 33.02 41.6012 32.8556C41.7259 32.6885 41.9035 32.5401 42.1342 32.4101C42.3675 32.2776 42.683 32.2113 43.0808 32.2113C43.5952 32.2113 44.0486 32.3399 44.441 32.5971C44.8334 32.8543 45.1397 33.2188 45.3598 33.6908C45.5798 34.1628 45.6899 34.7196 45.6899 35.3613C45.6899 36.0082 45.5798 36.569 45.3598 37.0437C45.1397 37.5156 44.8348 37.8815 44.445 38.1414C44.0552 38.3986 43.6058 38.5272 43.0967 38.5272C42.7043 38.5272 42.3901 38.4622 42.1541 38.3323C41.9181 38.1997 41.7365 38.0499 41.6092 37.8829C41.4819 37.7132 41.3838 37.5726 41.3149 37.4613H41.2353V40.6908H40.2967ZM41.2194 35.3454C41.2194 35.8067 41.287 36.2137 41.4223 36.5664C41.5575 36.9164 41.755 37.1908 42.0149 37.3897C42.2747 37.5859 42.5929 37.684 42.9694 37.684C43.3618 37.684 43.6893 37.5806 43.9518 37.3738C44.217 37.1643 44.4158 36.8832 44.5484 36.5306C44.6836 36.1753 44.7512 35.7802 44.7512 35.3454C44.7512 34.9158 44.6849 34.5287 44.5524 34.184C44.4224 33.8366 44.2249 33.5622 43.9598 33.3607C43.6973 33.1565 43.3671 33.0544 42.9694 33.0544C42.5876 33.0544 42.2668 33.1512 42.0069 33.3448C41.7471 33.5357 41.5509 33.8035 41.4183 34.1482C41.2857 34.4902 41.2194 34.8893 41.2194 35.3454ZM51.449 33.659L50.6058 33.8976C50.5527 33.7571 50.4745 33.6205 50.3711 33.488C50.2704 33.3527 50.1325 33.2414 49.9575 33.1539C49.7825 33.0664 49.5584 33.0226 49.2853 33.0226C48.9115 33.0226 48.5999 33.1088 48.3507 33.2812C48.1041 33.4508 47.9808 33.6669 47.9808 33.9294C47.9808 34.1628 48.0656 34.3471 48.2353 34.4823C48.405 34.6175 48.6702 34.7302 49.0308 34.8204L49.9376 35.0431C50.4838 35.1757 50.8908 35.3785 51.1586 35.6516C51.4264 35.9221 51.5603 36.2707 51.5603 36.6976C51.5603 37.0476 51.4596 37.3605 51.2581 37.6363C51.0592 37.912 50.7808 38.1294 50.4228 38.2885C50.0649 38.4476 49.6486 38.5272 49.174 38.5272C48.5509 38.5272 48.0351 38.3919 47.6268 38.1215C47.2185 37.851 46.9599 37.456 46.8512 36.9363L47.7421 36.7135C47.827 37.0423 47.9874 37.2889 48.2234 37.4533C48.462 37.6177 48.7736 37.6999 49.1581 37.6999C49.5956 37.6999 49.9429 37.6071 50.2001 37.4215C50.4599 37.2332 50.5899 37.0079 50.5899 36.7454C50.5899 36.5332 50.5156 36.3556 50.3671 36.2124C50.2187 36.0666 49.9906 35.9579 49.6831 35.8863L48.6649 35.6476C48.1054 35.5151 47.6944 35.3096 47.4319 35.0312C47.1721 34.7501 47.0421 34.3988 47.0421 33.9772C47.0421 33.6325 47.1389 33.3276 47.3325 33.0624C47.5287 32.7973 47.7952 32.5891 48.1319 32.438C48.4713 32.2868 48.8558 32.2113 49.2853 32.2113C49.8899 32.2113 50.3645 32.3438 50.7092 32.609C51.0565 32.8741 51.3031 33.2241 51.449 33.659ZM56.8232 35.9022V32.2908H57.7619V38.3999H56.8232V37.3658H56.7596C56.6164 37.676 56.3937 37.9399 56.0914 38.1573C55.7892 38.3721 55.4073 38.4794 54.946 38.4794C54.5642 38.4794 54.2248 38.3959 53.9278 38.2289C53.6308 38.0592 53.3975 37.8046 53.2278 37.4652C53.0581 37.1232 52.9732 36.6923 52.9732 36.1726V32.2908H53.9119V36.109C53.9119 36.5544 54.0365 36.9098 54.2857 37.1749C54.5376 37.4401 54.8585 37.5726 55.2482 37.5726C55.4816 37.5726 55.7189 37.513 55.9602 37.3937C56.2041 37.2743 56.4083 37.0914 56.5727 36.8448C56.7397 36.5982 56.8232 36.284 56.8232 35.9022ZM59.4811 38.3999V32.2908H60.3879V33.2454H60.4674C60.5947 32.9192 60.8002 32.666 61.0839 32.4857C61.3676 32.3027 61.7083 32.2113 62.1061 32.2113C62.5091 32.2113 62.8445 32.3027 63.1123 32.4857C63.3828 32.666 63.5936 32.9192 63.7447 33.2454H63.8083C63.9648 32.9298 64.1994 32.6793 64.5123 32.4937C64.8252 32.3054 65.2004 32.2113 65.6379 32.2113C66.1841 32.2113 66.6309 32.3823 66.9782 32.7243C67.3256 33.0637 67.4992 33.5927 67.4992 34.3113V38.3999H66.5606V34.3113C66.5606 33.8605 66.4373 33.5383 66.1907 33.3448C65.9441 33.1512 65.6538 33.0544 65.3197 33.0544C64.8902 33.0544 64.5574 33.1844 64.3214 33.4442C64.0854 33.7014 63.9674 34.0276 63.9674 34.4226V38.3999H63.0129V34.2158C63.0129 33.8685 62.9002 33.5887 62.6748 33.3766C62.4494 33.1618 62.1591 33.0544 61.8038 33.0544C61.5598 33.0544 61.3318 33.1194 61.1197 33.2493C60.9102 33.3793 60.7405 33.5596 60.6106 33.7902C60.4833 34.0183 60.4197 34.2821 60.4197 34.5817V38.3999H59.4811ZM74.6723 38.5272C74.1632 38.5272 73.7137 38.3986 73.324 38.1414C72.9342 37.8815 72.6293 37.5156 72.4092 37.0437C72.1891 36.569 72.0791 36.0082 72.0791 35.3613C72.0791 34.7196 72.1891 34.1628 72.4092 33.6908C72.6293 33.2188 72.9355 32.8543 73.3279 32.5971C73.7204 32.3399 74.1738 32.2113 74.6882 32.2113C75.0859 32.2113 75.4001 32.2776 75.6308 32.4101C75.8641 32.5401 76.0418 32.6885 76.1637 32.8556C76.2884 33.02 76.3851 33.1552 76.4541 33.2613H76.5336V30.2544H77.4723V38.3999H76.5654V37.4613H76.4541C76.3851 37.5726 76.287 37.7132 76.1598 37.8829C76.0325 38.0499 75.8509 38.1997 75.6149 38.3323C75.3789 38.4622 75.0647 38.5272 74.6723 38.5272ZM74.7995 37.684C75.176 37.684 75.4942 37.5859 75.7541 37.3897C76.0139 37.1908 76.2115 36.9164 76.3467 36.5664C76.4819 36.2137 76.5495 35.8067 76.5495 35.3454C76.5495 34.8893 76.4832 34.4902 76.3507 34.1482C76.2181 33.8035 76.0219 33.5357 75.762 33.3448C75.5022 33.1512 75.1813 33.0544 74.7995 33.0544C74.4018 33.0544 74.0704 33.1565 73.8052 33.3607C73.5427 33.5622 73.3452 33.8366 73.2126 34.184C73.0827 34.5287 73.0177 34.9158 73.0177 35.3454C73.0177 35.7802 73.084 36.1753 73.2166 36.5306C73.3518 36.8832 73.5507 37.1643 73.8132 37.3738C74.0783 37.5806 74.4071 37.684 74.7995 37.684ZM81.8035 38.5272C81.252 38.5272 80.7681 38.3959 80.3518 38.1334C79.9382 37.8709 79.6147 37.5037 79.3813 37.0317C79.1507 36.5598 79.0353 36.0082 79.0353 35.3772C79.0353 34.7408 79.1507 34.1853 79.3813 33.7107C79.6147 33.2361 79.9382 32.8675 80.3518 32.605C80.7681 32.3425 81.252 32.2113 81.8035 32.2113C82.355 32.2113 82.8376 32.3425 83.2512 32.605C83.6675 32.8675 83.991 33.2361 84.2217 33.7107C84.455 34.1853 84.5717 34.7408 84.5717 35.3772C84.5717 36.0082 84.455 36.5598 84.2217 37.0317C83.991 37.5037 83.6675 37.8709 83.2512 38.1334C82.8376 38.3959 82.355 38.5272 81.8035 38.5272ZM81.8035 37.684C82.2224 37.684 82.5671 37.5766 82.8376 37.3618C83.108 37.1471 83.3082 36.8647 83.4382 36.5147C83.5681 36.1647 83.633 35.7855 83.633 35.3772C83.633 34.9688 83.5681 34.5883 83.4382 34.2357C83.3082 33.883 83.108 33.598 82.8376 33.3806C82.5671 33.1632 82.2224 33.0544 81.8035 33.0544C81.3846 33.0544 81.0399 33.1632 80.7694 33.3806C80.499 33.598 80.2988 33.883 80.1688 34.2357C80.0389 34.5883 79.974 34.9688 79.974 35.3772C79.974 35.7855 80.0389 36.1647 80.1688 36.5147C80.2988 36.8647 80.499 37.1471 80.7694 37.3618C81.0399 37.5766 81.3846 37.684 81.8035 37.684ZM86.9431 30.2544V38.3999H86.0045V30.2544H86.9431ZM91.1441 38.5272C90.5926 38.5272 90.1087 38.3959 89.6924 38.1334C89.2788 37.8709 88.9553 37.5037 88.722 37.0317C88.4913 36.5598 88.3759 36.0082 88.3759 35.3772C88.3759 34.7408 88.4913 34.1853 88.722 33.7107C88.9553 33.2361 89.2788 32.8675 89.6924 32.605C90.1087 32.3425 90.5926 32.2113 91.1441 32.2113C91.6956 32.2113 92.1782 32.3425 92.5919 32.605C93.0081 32.8675 93.3316 33.2361 93.5623 33.7107C93.7956 34.1853 93.9123 34.7408 93.9123 35.3772C93.9123 36.0082 93.7956 36.5598 93.5623 37.0317C93.3316 37.5037 93.0081 37.8709 92.5919 38.1334C92.1782 38.3959 91.6956 38.5272 91.1441 38.5272ZM91.1441 37.684C91.5631 37.684 91.9078 37.5766 92.1782 37.3618C92.4487 37.1471 92.6489 36.8647 92.7788 36.5147C92.9087 36.1647 92.9737 35.7855 92.9737 35.3772C92.9737 34.9688 92.9087 34.5883 92.7788 34.2357C92.6489 33.883 92.4487 33.598 92.1782 33.3806C91.9078 33.1632 91.5631 33.0544 91.1441 33.0544C90.7252 33.0544 90.3805 33.1632 90.11 33.3806C89.8396 33.598 89.6394 33.883 89.5095 34.2357C89.3795 34.5883 89.3146 34.9688 89.3146 35.3772C89.3146 35.7855 89.3795 36.1647 89.5095 36.5147C89.6394 36.8647 89.8396 37.1471 90.11 37.3618C90.3805 37.5766 90.7252 37.684 91.1441 37.684ZM95.3451 38.3999V32.2908H96.2519V33.2135H96.3156C96.4269 32.9113 96.6285 32.666 96.9201 32.4777C97.2118 32.2895 97.5406 32.1954 97.9065 32.1954C97.9754 32.1954 98.0616 32.1967 98.165 32.1993C98.2684 32.202 98.3466 32.206 98.3997 32.2113V33.1658C98.3678 33.1579 98.2949 33.1459 98.1809 33.13C98.0696 33.1115 97.9516 33.1022 97.8269 33.1022C97.53 33.1022 97.2648 33.1645 97.0315 33.2891C96.8008 33.4111 96.6178 33.5808 96.4826 33.7982C96.35 34.013 96.2838 34.2582 96.2838 34.534V38.3999H95.3451ZM106.99 33.659L106.146 33.8976C106.093 33.7571 106.015 33.6205 105.912 33.488C105.811 33.3527 105.673 33.2414 105.498 33.1539C105.323 33.0664 105.099 33.0226 104.826 33.0226C104.452 33.0226 104.141 33.1088 103.891 33.2812C103.645 33.4508 103.521 33.6669 103.521 33.9294C103.521 34.1628 103.606 34.3471 103.776 34.4823C103.946 34.6175 104.211 34.7302 104.571 34.8204L105.478 35.0431C106.024 35.1757 106.431 35.3785 106.699 35.6516C106.967 35.9221 107.101 36.2707 107.101 36.6976C107.101 37.0476 107 37.3605 106.799 37.6363C106.6 37.912 106.321 38.1294 105.963 38.2885C105.605 38.4476 105.189 38.5272 104.715 38.5272C104.091 38.5272 103.576 38.3919 103.167 38.1215C102.759 37.851 102.501 37.456 102.392 36.9363L103.283 36.7135C103.368 37.0423 103.528 37.2889 103.764 37.4533C104.003 37.6177 104.314 37.6999 104.699 37.6999C105.136 37.6999 105.484 37.6071 105.741 37.4215C106.001 37.2332 106.13 37.0079 106.13 36.7454C106.13 36.5332 106.056 36.3556 105.908 36.2124C105.759 36.0666 105.531 35.9579 105.224 35.8863L104.205 35.6476C103.646 35.5151 103.235 35.3096 102.973 35.0312C102.713 34.7501 102.583 34.3988 102.583 33.9772C102.583 33.6325 102.68 33.3276 102.873 33.0624C103.069 32.7973 103.336 32.5891 103.673 32.438C104.012 32.2868 104.396 32.2113 104.826 32.2113C105.43 32.2113 105.905 32.3438 106.25 32.609C106.597 32.8741 106.844 33.2241 106.99 33.659ZM108.514 38.3999V32.2908H109.453V38.3999H108.514ZM108.991 31.2726C108.808 31.2726 108.65 31.2103 108.518 31.0857C108.388 30.9611 108.323 30.8113 108.323 30.6363C108.323 30.4613 108.388 30.3115 108.518 30.1868C108.65 30.0622 108.808 29.9999 108.991 29.9999C109.174 29.9999 109.331 30.0622 109.46 30.1868C109.593 30.3115 109.659 30.4613 109.659 30.6363C109.659 30.8113 109.593 30.9611 109.46 31.0857C109.331 31.2103 109.174 31.2726 108.991 31.2726ZM113.829 32.2908V33.0863H110.663V32.2908H113.829ZM111.585 30.8272H112.524V36.6499C112.524 36.9151 112.562 37.1139 112.639 37.2465C112.719 37.3764 112.82 37.4639 112.942 37.509C113.066 37.5514 113.197 37.5726 113.335 37.5726C113.439 37.5726 113.524 37.5673 113.59 37.5567C113.656 37.5435 113.709 37.5329 113.749 37.5249L113.94 38.3681C113.876 38.3919 113.787 38.4158 113.673 38.4397C113.559 38.4662 113.415 38.4794 113.24 38.4794C112.975 38.4794 112.715 38.4224 112.46 38.3084C112.208 38.1944 111.999 38.0207 111.832 37.7874C111.668 37.5541 111.585 37.2598 111.585 36.9044V30.8272ZM120.188 38.5431C119.801 38.5431 119.45 38.4702 119.134 38.3243C118.819 38.1758 118.568 37.9624 118.382 37.684C118.197 37.4029 118.104 37.0635 118.104 36.6658C118.104 36.3158 118.173 36.0321 118.311 35.8147C118.449 35.5946 118.633 35.4223 118.864 35.2976C119.094 35.173 119.349 35.0802 119.627 35.0192C119.908 34.9556 120.191 34.9052 120.475 34.8681C120.846 34.8204 121.147 34.7846 121.377 34.7607C121.611 34.7342 121.78 34.6904 121.886 34.6294C121.995 34.5685 122.05 34.4624 122.05 34.3113V34.2794C122.05 33.887 121.942 33.5821 121.727 33.3647C121.515 33.1473 121.193 33.0385 120.761 33.0385C120.313 33.0385 119.961 33.1366 119.707 33.3329C119.452 33.5291 119.273 33.7385 119.17 33.9613L118.279 33.6431C118.438 33.2719 118.65 32.9829 118.915 32.776C119.183 32.5666 119.475 32.4207 119.79 32.3385C120.109 32.2537 120.421 32.2113 120.729 32.2113C120.925 32.2113 121.151 32.2351 121.405 32.2829C121.662 32.3279 121.91 32.4221 122.149 32.5652C122.39 32.7084 122.59 32.9245 122.75 33.2135C122.909 33.5026 122.988 33.8897 122.988 34.3749V38.3999H122.05V37.5726H122.002C121.938 37.7052 121.832 37.8471 121.684 37.9982C121.535 38.1493 121.338 38.2779 121.091 38.384C120.844 38.4901 120.543 38.5431 120.188 38.5431ZM120.331 37.6999C120.703 37.6999 121.015 37.627 121.27 37.4812C121.527 37.3353 121.721 37.1471 121.851 36.9164C121.983 36.6857 122.05 36.4431 122.05 36.1885V35.3294C122.01 35.3772 121.922 35.4209 121.787 35.4607C121.654 35.4978 121.501 35.531 121.326 35.5601C121.153 35.5866 120.985 35.6105 120.821 35.6317C120.659 35.6503 120.528 35.6662 120.427 35.6794C120.183 35.7113 119.955 35.763 119.743 35.8346C119.533 35.9035 119.364 36.0082 119.234 36.1488C119.106 36.2866 119.043 36.4749 119.043 36.7135C119.043 37.0397 119.163 37.2863 119.405 37.4533C119.649 37.6177 119.957 37.6999 120.331 37.6999ZM124.701 38.3999V32.2908H125.608V33.2454H125.688C125.815 32.9192 126.021 32.666 126.304 32.4857C126.588 32.3027 126.929 32.2113 127.326 32.2113C127.729 32.2113 128.065 32.3027 128.333 32.4857C128.603 32.666 128.814 32.9192 128.965 33.2454H129.029C129.185 32.9298 129.42 32.6793 129.733 32.4937C130.046 32.3054 130.421 32.2113 130.858 32.2113C131.404 32.2113 131.851 32.3823 132.199 32.7243C132.546 33.0637 132.72 33.5927 132.72 34.3113V38.3999H131.781V34.3113C131.781 33.8605 131.658 33.5383 131.411 33.3448C131.164 33.1512 130.874 33.0544 130.54 33.0544C130.11 33.0544 129.778 33.1844 129.542 33.4442C129.306 33.7014 129.188 34.0276 129.188 34.4226V38.3999H128.233V34.2158C128.233 33.8685 128.121 33.5887 127.895 33.3766C127.67 33.1618 127.379 33.0544 127.024 33.0544C126.78 33.0544 126.552 33.1194 126.34 33.2493C126.131 33.3793 125.961 33.5596 125.831 33.7902C125.704 34.0183 125.64 34.2821 125.64 34.5817V38.3999H124.701ZM136.997 38.5272C136.408 38.5272 135.901 38.3973 135.474 38.1374C135.05 37.8749 134.722 37.509 134.491 37.0397C134.263 36.5677 134.149 36.0188 134.149 35.3931C134.149 34.7673 134.263 34.2158 134.491 33.7385C134.722 33.2586 135.043 32.8848 135.454 32.6169C135.868 32.3465 136.35 32.2113 136.902 32.2113C137.22 32.2113 137.534 32.2643 137.844 32.3704C138.155 32.4764 138.437 32.6488 138.691 32.8874C138.946 33.1234 139.149 33.4363 139.3 33.826C139.451 34.2158 139.527 34.6957 139.527 35.2658V35.6635H134.818V34.8522H138.572C138.572 34.5075 138.503 34.1999 138.365 33.9294C138.23 33.659 138.037 33.4455 137.785 33.2891C137.535 33.1327 137.241 33.0544 136.902 33.0544C136.528 33.0544 136.204 33.1473 135.931 33.3329C135.661 33.5158 135.453 33.7544 135.307 34.0488C135.161 34.3431 135.088 34.6586 135.088 34.9954V35.5363C135.088 35.9976 135.168 36.3887 135.327 36.7096C135.488 37.0277 135.712 37.2704 135.999 37.4374C136.285 37.6018 136.618 37.684 136.997 37.684C137.244 37.684 137.466 37.6495 137.665 37.5806C137.867 37.509 138.04 37.4029 138.186 37.2624C138.332 37.1192 138.445 36.9416 138.524 36.7294L139.431 36.984C139.336 37.2916 139.175 37.562 138.95 37.7954C138.725 38.026 138.446 38.2063 138.115 38.3363C137.783 38.4635 137.411 38.5272 136.997 38.5272ZM143.611 32.2908V33.0863H140.445V32.2908H143.611ZM141.368 30.8272H142.307V36.6499C142.307 36.9151 142.345 37.1139 142.422 37.2465C142.502 37.3764 142.602 37.4639 142.724 37.509C142.849 37.5514 142.98 37.5726 143.118 37.5726C143.222 37.5726 143.306 37.5673 143.373 37.5567C143.439 37.5435 143.492 37.5329 143.532 37.5249L143.723 38.3681C143.659 38.3919 143.57 38.4158 143.456 38.4397C143.342 38.4662 143.198 38.4794 143.023 38.4794C142.758 38.4794 142.498 38.4224 142.243 38.3084C141.991 38.1944 141.782 38.0207 141.615 37.7874C141.45 37.5541 141.368 37.2598 141.368 36.9044V30.8272ZM146.423 37.2863L146.36 37.7158C146.315 38.0181 146.246 38.3416 146.153 38.6863C146.063 39.031 145.969 39.3558 145.87 39.6607C145.772 39.9656 145.691 40.2082 145.628 40.3885H144.912C144.946 40.2188 144.991 39.9948 145.047 39.7164C145.103 39.438 145.158 39.1264 145.214 38.7817C145.272 38.4397 145.32 38.0897 145.357 37.7317L145.405 37.2863H146.423ZM153.794 38.5272C153.221 38.5272 152.728 38.3919 152.315 38.1215C151.901 37.851 151.583 37.4785 151.36 37.0039C151.137 36.5293 151.026 35.987 151.026 35.3772C151.026 34.7567 151.14 34.2092 151.368 33.7346C151.599 33.2573 151.92 32.8848 152.33 32.6169C152.744 32.3465 153.227 32.2113 153.778 32.2113C154.208 32.2113 154.595 32.2908 154.94 32.4499C155.284 32.609 155.567 32.8317 155.787 33.1181C156.007 33.4044 156.143 33.7385 156.196 34.1204H155.258C155.186 33.8419 155.027 33.5954 154.78 33.3806C154.537 33.1632 154.208 33.0544 153.794 33.0544C153.428 33.0544 153.107 33.1499 152.832 33.3408C152.559 33.5291 152.345 33.7955 152.191 34.1402C152.04 34.4823 151.965 34.884 151.965 35.3454C151.965 35.8173 152.039 36.2283 152.187 36.5783C152.338 36.9283 152.551 37.2001 152.824 37.3937C153.099 37.5872 153.423 37.684 153.794 37.684C154.038 37.684 154.259 37.6416 154.458 37.5567C154.657 37.4719 154.826 37.3499 154.963 37.1908C155.101 37.0317 155.199 36.8408 155.258 36.6181H156.196C156.143 36.9787 156.012 37.3035 155.803 37.5925C155.596 37.8789 155.321 38.1069 154.979 38.2766C154.64 38.4437 154.245 38.5272 153.794 38.5272ZM160.05 38.5272C159.499 38.5272 159.015 38.3959 158.599 38.1334C158.185 37.8709 157.862 37.5037 157.628 37.0317C157.398 36.5598 157.282 36.0082 157.282 35.3772C157.282 34.7408 157.398 34.1853 157.628 33.7107C157.862 33.2361 158.185 32.8675 158.599 32.605C159.015 32.3425 159.499 32.2113 160.05 32.2113C160.602 32.2113 161.084 32.3425 161.498 32.605C161.914 32.8675 162.238 33.2361 162.469 33.7107C162.702 34.1853 162.819 34.7408 162.819 35.3772C162.819 36.0082 162.702 36.5598 162.469 37.0317C162.238 37.5037 161.914 37.8709 161.498 38.1334C161.084 38.3959 160.602 38.5272 160.05 38.5272ZM160.05 37.684C160.469 37.684 160.814 37.5766 161.084 37.3618C161.355 37.1471 161.555 36.8647 161.685 36.5147C161.815 36.1647 161.88 35.7855 161.88 35.3772C161.88 34.9688 161.815 34.5883 161.685 34.2357C161.555 33.883 161.355 33.598 161.084 33.3806C160.814 33.1632 160.469 33.0544 160.05 33.0544C159.631 33.0544 159.287 33.1632 159.016 33.3806C158.746 33.598 158.546 33.883 158.416 34.2357C158.286 34.5883 158.221 34.9688 158.221 35.3772C158.221 35.7855 158.286 36.1647 158.416 36.5147C158.546 36.8647 158.746 37.1471 159.016 37.3618C159.287 37.5766 159.631 37.684 160.05 37.684ZM165.19 34.7249V38.3999H164.251V32.2908H165.158V33.2454H165.238C165.381 32.9351 165.598 32.6859 165.89 32.4976C166.182 32.3067 166.558 32.2113 167.02 32.2113C167.433 32.2113 167.795 32.2961 168.105 32.4658C168.416 32.6329 168.657 32.8874 168.829 33.2294C169.002 33.5688 169.088 33.9984 169.088 34.5181V38.3999H168.149V34.5817C168.149 34.1018 168.024 33.7279 167.775 33.4601C167.526 33.1897 167.184 33.0544 166.749 33.0544C166.449 33.0544 166.182 33.1194 165.946 33.2493C165.712 33.3793 165.528 33.5688 165.393 33.8181C165.258 34.0673 165.19 34.3696 165.19 34.7249ZM175.13 33.659L174.287 33.8976C174.234 33.7571 174.156 33.6205 174.052 33.488C173.952 33.3527 173.814 33.2414 173.639 33.1539C173.464 33.0664 173.24 33.0226 172.967 33.0226C172.593 33.0226 172.281 33.1088 172.032 33.2812C171.785 33.4508 171.662 33.6669 171.662 33.9294C171.662 34.1628 171.747 34.3471 171.917 34.4823C172.086 34.6175 172.351 34.7302 172.712 34.8204L173.619 35.0431C174.165 35.1757 174.572 35.3785 174.84 35.6516C175.108 35.9221 175.242 36.2707 175.242 36.6976C175.242 37.0476 175.141 37.3605 174.939 37.6363C174.74 37.912 174.462 38.1294 174.104 38.2885C173.746 38.4476 173.33 38.5272 172.855 38.5272C172.232 38.5272 171.716 38.3919 171.308 38.1215C170.9 37.851 170.641 37.456 170.532 36.9363L171.423 36.7135C171.508 37.0423 171.669 37.2889 171.905 37.4533C172.143 37.6177 172.455 37.6999 172.839 37.6999C173.277 37.6999 173.624 37.6071 173.881 37.4215C174.141 37.2332 174.271 37.0079 174.271 36.7454C174.271 36.5332 174.197 36.3556 174.048 36.2124C173.9 36.0666 173.672 35.9579 173.364 35.8863L172.346 35.6476C171.787 35.5151 171.376 35.3096 171.113 35.0312C170.853 34.7501 170.723 34.3988 170.723 33.9772C170.723 33.6325 170.82 33.3276 171.014 33.0624C171.21 32.7973 171.476 32.5891 171.813 32.438C172.153 32.2868 172.537 32.2113 172.967 32.2113C173.571 32.2113 174.046 32.3438 174.39 32.609C174.738 32.8741 174.984 33.2241 175.13 33.659ZM179.216 38.5272C178.627 38.5272 178.119 38.3973 177.693 38.1374C177.268 37.8749 176.941 37.509 176.71 37.0397C176.482 36.5677 176.368 36.0188 176.368 35.3931C176.368 34.7673 176.482 34.2158 176.71 33.7385C176.941 33.2586 177.262 32.8848 177.673 32.6169C178.086 32.3465 178.569 32.2113 179.12 32.2113C179.439 32.2113 179.753 32.2643 180.063 32.3704C180.373 32.4764 180.656 32.6488 180.91 32.8874C181.165 33.1234 181.368 33.4363 181.519 33.826C181.67 34.2158 181.745 34.6957 181.745 35.2658V35.6635H177.036V34.8522H180.791C180.791 34.5075 180.722 34.1999 180.584 33.9294C180.449 33.659 180.255 33.4455 180.003 33.2891C179.754 33.1327 179.46 33.0544 179.12 33.0544C178.747 33.0544 178.423 33.1473 178.15 33.3329C177.88 33.5158 177.671 33.7544 177.526 34.0488C177.38 34.3431 177.307 34.6586 177.307 34.9954V35.5363C177.307 35.9976 177.386 36.3887 177.545 36.7096C177.707 37.0277 177.931 37.2704 178.218 37.4374C178.504 37.6018 178.837 37.684 179.216 37.684C179.462 37.684 179.685 37.6495 179.884 37.5806C180.086 37.509 180.259 37.4029 180.405 37.2624C180.551 37.1192 180.664 36.9416 180.743 36.7294L181.65 36.984C181.555 37.2916 181.394 37.562 181.169 37.7954C180.943 38.026 180.665 38.2063 180.333 38.3363C180.002 38.4635 179.63 38.5272 179.216 38.5272ZM185.655 38.5272C185.082 38.5272 184.589 38.3919 184.176 38.1215C183.762 37.851 183.444 37.4785 183.221 37.0039C182.998 36.5293 182.887 35.987 182.887 35.3772C182.887 34.7567 183.001 34.2092 183.229 33.7346C183.46 33.2573 183.78 32.8848 184.191 32.6169C184.605 32.3465 185.088 32.2113 185.639 32.2113C186.069 32.2113 186.456 32.2908 186.801 32.4499C187.145 32.609 187.428 32.8317 187.648 33.1181C187.868 33.4044 188.004 33.7385 188.057 34.1204H187.119C187.047 33.8419 186.888 33.5954 186.641 33.3806C186.397 33.1632 186.069 33.0544 185.655 33.0544C185.289 33.0544 184.968 33.1499 184.693 33.3408C184.419 33.5291 184.206 33.7955 184.052 34.1402C183.901 34.4823 183.826 34.884 183.826 35.3454C183.826 35.8173 183.9 36.2283 184.048 36.5783C184.199 36.9283 184.411 37.2001 184.685 37.3937C184.96 37.5872 185.284 37.684 185.655 37.684C185.899 37.684 186.12 37.6416 186.319 37.5567C186.518 37.4719 186.686 37.3499 186.824 37.1908C186.962 37.0317 187.06 36.8408 187.119 36.6181H188.057C188.004 36.9787 187.873 37.3035 187.664 37.5925C187.457 37.8789 187.182 38.1069 186.84 38.2766C186.501 38.4437 186.106 38.5272 185.655 38.5272ZM192.086 32.2908V33.0863H188.92V32.2908H192.086ZM189.843 30.8272H190.782V36.6499C190.782 36.9151 190.82 37.1139 190.897 37.2465C190.977 37.3764 191.077 37.4639 191.199 37.509C191.324 37.5514 191.455 37.5726 191.593 37.5726C191.697 37.5726 191.781 37.5673 191.848 37.5567C191.914 37.5435 191.967 37.5329 192.007 37.5249L192.198 38.3681C192.134 38.3919 192.045 38.4158 191.931 38.4397C191.817 38.4662 191.673 38.4794 191.498 38.4794C191.233 38.4794 190.973 38.4224 190.718 38.3084C190.466 38.1944 190.257 38.0207 190.09 37.7874C189.925 37.5541 189.843 37.2598 189.843 36.9044V30.8272ZM195.994 38.5272C195.405 38.5272 194.898 38.3973 194.471 38.1374C194.046 37.8749 193.719 37.509 193.488 37.0397C193.26 36.5677 193.146 36.0188 193.146 35.3931C193.146 34.7673 193.26 34.2158 193.488 33.7385C193.719 33.2586 194.04 32.8848 194.451 32.6169C194.864 32.3465 195.347 32.2113 195.899 32.2113C196.217 32.2113 196.531 32.2643 196.841 32.3704C197.151 32.4764 197.434 32.6488 197.688 32.8874C197.943 33.1234 198.146 33.4363 198.297 33.826C198.448 34.2158 198.524 34.6957 198.524 35.2658V35.6635H193.814V34.8522H197.569C197.569 34.5075 197.5 34.1999 197.362 33.9294C197.227 33.659 197.033 33.4455 196.781 33.2891C196.532 33.1327 196.238 33.0544 195.899 33.0544C195.525 33.0544 195.201 33.1473 194.928 33.3329C194.658 33.5158 194.449 33.7544 194.304 34.0488C194.158 34.3431 194.085 34.6586 194.085 34.9954V35.5363C194.085 35.9976 194.164 36.3887 194.324 36.7096C194.485 37.0277 194.709 37.2704 194.996 37.4374C195.282 37.6018 195.615 37.684 195.994 37.684C196.241 37.684 196.463 37.6495 196.662 37.5806C196.864 37.509 197.037 37.4029 197.183 37.2624C197.329 37.1192 197.442 36.9416 197.521 36.7294L198.428 36.984C198.333 37.2916 198.172 37.562 197.947 37.7954C197.721 38.026 197.443 38.2063 197.112 38.3363C196.78 38.4635 196.408 38.5272 195.994 38.5272ZM202.608 32.2908V33.0863H199.442V32.2908H202.608ZM200.365 30.8272H201.304V36.6499C201.304 36.9151 201.342 37.1139 201.419 37.2465C201.499 37.3764 201.599 37.4639 201.721 37.509C201.846 37.5514 201.977 37.5726 202.115 37.5726C202.218 37.5726 202.303 37.5673 202.37 37.5567C202.436 37.5435 202.489 37.5329 202.529 37.5249L202.72 38.3681C202.656 38.3919 202.567 38.4158 202.453 38.4397C202.339 38.4662 202.195 38.4794 202.02 38.4794C201.754 38.4794 201.495 38.4224 201.24 38.3084C200.988 38.1944 200.779 38.0207 200.612 37.7874C200.447 37.5541 200.365 37.2598 200.365 36.9044V30.8272ZM207.87 35.9022V32.2908H208.809V38.3999H207.87V37.3658H207.806C207.663 37.676 207.441 37.9399 207.138 38.1573C206.836 38.3721 206.454 38.4794 205.993 38.4794C205.611 38.4794 205.272 38.3959 204.975 38.2289C204.678 38.0592 204.444 37.8046 204.275 37.4652C204.105 37.1232 204.02 36.6923 204.02 36.1726V32.2908H204.959V36.109C204.959 36.5544 205.083 36.9098 205.333 37.1749C205.585 37.4401 205.905 37.5726 206.295 37.5726C206.528 37.5726 206.766 37.513 207.007 37.3937C207.251 37.2743 207.455 37.0914 207.62 36.8448C207.787 36.5982 207.87 36.284 207.87 35.9022ZM210.528 38.3999V32.2908H211.435V33.2135H211.498C211.61 32.9113 211.811 32.666 212.103 32.4777C212.395 32.2895 212.723 32.1954 213.089 32.1954C213.158 32.1954 213.244 32.1967 213.348 32.1993C213.451 32.202 213.529 32.206 213.582 32.2113V33.1658C213.551 33.1579 213.478 33.1459 213.364 33.13C213.252 33.1115 213.134 33.1022 213.01 33.1022C212.713 33.1022 212.448 33.1645 212.214 33.2891C211.984 33.4111 211.801 33.5808 211.665 33.7982C211.533 34.013 211.467 34.2582 211.467 34.534V38.3999H210.528ZM219.643 38.5431C219.256 38.5431 218.904 38.4702 218.589 38.3243C218.273 38.1758 218.023 37.9624 217.837 37.684C217.652 37.4029 217.559 37.0635 217.559 36.6658C217.559 36.3158 217.628 36.0321 217.766 35.8147C217.903 35.5946 218.088 35.4223 218.318 35.2976C218.549 35.173 218.804 35.0802 219.082 35.0192C219.363 34.9556 219.645 34.9052 219.929 34.8681C220.3 34.8204 220.601 34.7846 220.832 34.7607C221.065 34.7342 221.235 34.6904 221.341 34.6294C221.45 34.5685 221.504 34.4624 221.504 34.3113V34.2794C221.504 33.887 221.397 33.5821 221.182 33.3647C220.97 33.1473 220.648 33.0385 220.216 33.0385C219.767 33.0385 219.416 33.1366 219.162 33.3329C218.907 33.5291 218.728 33.7385 218.625 33.9613L217.734 33.6431C217.893 33.2719 218.105 32.9829 218.37 32.776C218.638 32.5666 218.93 32.4207 219.245 32.3385C219.563 32.2537 219.876 32.2113 220.184 32.2113C220.38 32.2113 220.605 32.2351 220.86 32.2829C221.117 32.3279 221.365 32.4221 221.604 32.5652C221.845 32.7084 222.045 32.9245 222.204 33.2135C222.363 33.5026 222.443 33.8897 222.443 34.3749V38.3999H221.504V37.5726H221.456C221.393 37.7052 221.287 37.8471 221.138 37.9982C220.99 38.1493 220.792 38.2779 220.546 38.384C220.299 38.4901 219.998 38.5431 219.643 38.5431ZM219.786 37.6999C220.157 37.6999 220.47 37.627 220.725 37.4812C220.982 37.3353 221.175 37.1471 221.305 36.9164C221.438 36.6857 221.504 36.4431 221.504 36.1885V35.3294C221.464 35.3772 221.377 35.4209 221.242 35.4607C221.109 35.4978 220.955 35.531 220.78 35.5601C220.608 35.5866 220.44 35.6105 220.275 35.6317C220.113 35.6503 219.982 35.6662 219.881 35.6794C219.638 35.7113 219.41 35.763 219.197 35.8346C218.988 35.9035 218.818 36.0082 218.688 36.1488C218.561 36.2866 218.497 36.4749 218.497 36.7135C218.497 37.0397 218.618 37.2863 218.859 37.4533C219.103 37.6177 219.412 37.6999 219.786 37.6999ZM226.463 38.5272C225.954 38.5272 225.504 38.3986 225.115 38.1414C224.725 37.8815 224.42 37.5156 224.2 37.0437C223.98 36.569 223.87 36.0082 223.87 35.3613C223.87 34.7196 223.98 34.1628 224.2 33.6908C224.42 33.2188 224.726 32.8543 225.119 32.5971C225.511 32.3399 225.964 32.2113 226.479 32.2113C226.877 32.2113 227.191 32.2776 227.421 32.4101C227.655 32.5401 227.832 32.6885 227.954 32.8556C228.079 33.02 228.176 33.1552 228.245 33.2613H228.324V30.2544H229.263V38.3999H228.356V37.4613H228.245C228.176 37.5726 228.078 37.7132 227.95 37.8829C227.823 38.0499 227.641 38.1997 227.405 38.3323C227.17 38.4622 226.855 38.5272 226.463 38.5272ZM226.59 37.684C226.967 37.684 227.285 37.5859 227.545 37.3897C227.805 37.1908 228.002 36.9164 228.137 36.5664C228.273 36.2137 228.34 35.8067 228.34 35.3454C228.34 34.8893 228.274 34.4902 228.141 34.1482C228.009 33.8035 227.812 33.5357 227.553 33.3448C227.293 33.1512 226.972 33.0544 226.59 33.0544C226.192 33.0544 225.861 33.1565 225.596 33.3607C225.333 33.5622 225.136 33.8366 225.003 34.184C224.873 34.5287 224.808 34.9158 224.808 35.3454C224.808 35.7802 224.875 36.1753 225.007 36.5306C225.142 36.8832 225.341 37.1643 225.604 37.3738C225.869 37.5806 226.198 37.684 226.59 37.684ZM231.112 38.3999V32.2908H232.051V38.3999H231.112ZM231.59 31.2726C231.407 31.2726 231.249 31.2103 231.116 31.0857C230.986 30.9611 230.921 30.8113 230.921 30.6363C230.921 30.4613 230.986 30.3115 231.116 30.1868C231.249 30.0622 231.407 29.9999 231.59 29.9999C231.773 29.9999 231.929 30.0622 232.059 30.1868C232.191 30.3115 232.258 30.4613 232.258 30.6363C232.258 30.8113 232.191 30.9611 232.059 31.0857C231.929 31.2103 231.773 31.2726 231.59 31.2726ZM233.77 40.6908V32.2908H234.677V33.2613H234.788C234.857 33.1552 234.953 33.02 235.075 32.8556C235.199 32.6885 235.377 32.5401 235.608 32.4101C235.841 32.2776 236.156 32.2113 236.554 32.2113C237.069 32.2113 237.522 32.3399 237.914 32.5971C238.307 32.8543 238.613 33.2188 238.833 33.6908C239.053 34.1628 239.163 34.7196 239.163 35.3613C239.163 36.0082 239.053 36.569 238.833 37.0437C238.613 37.5156 238.308 37.8815 237.918 38.1414C237.529 38.3986 237.079 38.5272 236.57 38.5272C236.178 38.5272 235.863 38.4622 235.628 38.3323C235.392 38.1997 235.21 38.0499 235.083 37.8829C234.955 37.7132 234.857 37.5726 234.788 37.4613H234.709V40.6908H233.77ZM234.693 35.3454C234.693 35.8067 234.76 36.2137 234.896 36.5664C235.031 36.9164 235.228 37.1908 235.488 37.3897C235.748 37.5859 236.066 37.684 236.443 37.684C236.835 37.684 237.163 37.5806 237.425 37.3738C237.69 37.1643 237.889 36.8832 238.022 36.5306C238.157 36.1753 238.225 35.7802 238.225 35.3454C238.225 34.9158 238.158 34.5287 238.026 34.184C237.896 33.8366 237.698 33.5622 237.433 33.3607C237.171 33.1565 236.841 33.0544 236.443 33.0544C236.061 33.0544 235.74 33.1512 235.48 33.3448C235.22 33.5357 235.024 33.8035 234.892 34.1482C234.759 34.4902 234.693 34.8893 234.693 35.3454ZM240.595 38.3999V32.2908H241.534V38.3999H240.595ZM241.072 31.2726C240.889 31.2726 240.732 31.2103 240.599 31.0857C240.469 30.9611 240.404 30.8113 240.404 30.6363C240.404 30.4613 240.469 30.3115 240.599 30.1868C240.732 30.0622 240.889 29.9999 241.072 29.9999C241.255 29.9999 241.412 30.0622 241.542 30.1868C241.674 30.3115 241.741 30.4613 241.741 30.6363C241.741 30.8113 241.674 30.9611 241.542 31.0857C241.412 31.2103 241.255 31.2726 241.072 31.2726ZM247.58 33.659L246.737 33.8976C246.684 33.7571 246.606 33.6205 246.502 33.488C246.402 33.3527 246.264 33.2414 246.089 33.1539C245.914 33.0664 245.69 33.0226 245.417 33.0226C245.043 33.0226 244.731 33.1088 244.482 33.2812C244.235 33.4508 244.112 33.6669 244.112 33.9294C244.112 34.1628 244.197 34.3471 244.367 34.4823C244.536 34.6175 244.801 34.7302 245.162 34.8204L246.069 35.0431C246.615 35.1757 247.022 35.3785 247.29 35.6516C247.558 35.9221 247.692 36.2707 247.692 36.6976C247.692 37.0476 247.591 37.3605 247.389 37.6363C247.19 37.912 246.912 38.1294 246.554 38.2885C246.196 38.4476 245.78 38.5272 245.305 38.5272C244.682 38.5272 244.166 38.3919 243.758 38.1215C243.35 37.851 243.091 37.456 242.982 36.9363L243.873 36.7135C243.958 37.0423 244.119 37.2889 244.355 37.4533C244.593 37.6177 244.905 37.6999 245.289 37.6999C245.727 37.6999 246.074 37.6071 246.331 37.4215C246.591 37.2332 246.721 37.0079 246.721 36.7454C246.721 36.5332 246.647 36.3556 246.498 36.2124C246.35 36.0666 246.122 35.9579 245.814 35.8863L244.796 35.6476C244.237 35.5151 243.826 35.3096 243.563 35.0312C243.303 34.7501 243.173 34.3988 243.173 33.9772C243.173 33.6325 243.27 33.3276 243.464 33.0624C243.66 32.7973 243.926 32.5891 244.263 32.438C244.603 32.2868 244.987 32.2113 245.417 32.2113C246.021 32.2113 246.496 32.3438 246.84 32.609C247.188 32.8741 247.434 33.2241 247.58 33.659ZM251.586 38.5272C251.014 38.5272 250.52 38.3919 250.107 38.1215C249.693 37.851 249.375 37.4785 249.152 37.0039C248.929 36.5293 248.818 35.987 248.818 35.3772C248.818 34.7567 248.932 34.2092 249.16 33.7346C249.391 33.2573 249.712 32.8848 250.123 32.6169C250.536 32.3465 251.019 32.2113 251.57 32.2113C252 32.2113 252.387 32.2908 252.732 32.4499C253.076 32.609 253.359 32.8317 253.579 33.1181C253.799 33.4044 253.936 33.7385 253.989 34.1204H253.05C252.978 33.8419 252.819 33.5954 252.573 33.3806C252.329 33.1632 252 33.0544 251.586 33.0544C251.22 33.0544 250.9 33.1499 250.624 33.3408C250.351 33.5291 250.137 33.7955 249.983 34.1402C249.832 34.4823 249.757 34.884 249.757 35.3454C249.757 35.8173 249.831 36.2283 249.979 36.5783C250.131 36.9283 250.343 37.2001 250.616 37.3937C250.892 37.5872 251.215 37.684 251.586 37.684C251.83 37.684 252.052 37.6416 252.251 37.5567C252.449 37.4719 252.618 37.3499 252.756 37.1908C252.894 37.0317 252.992 36.8408 253.05 36.6181H253.989C253.936 36.9787 253.804 37.3035 253.595 37.5925C253.388 37.8789 253.114 38.1069 252.772 38.2766C252.432 38.4437 252.037 38.5272 251.586 38.5272ZM255.361 38.3999V32.2908H256.299V38.3999H255.361ZM255.838 31.2726C255.655 31.2726 255.497 31.2103 255.365 31.0857C255.235 30.9611 255.17 30.8113 255.17 30.6363C255.17 30.4613 255.235 30.3115 255.365 30.1868C255.497 30.0622 255.655 29.9999 255.838 29.9999C256.021 29.9999 256.177 30.0622 256.307 30.1868C256.44 30.3115 256.506 30.4613 256.506 30.6363C256.506 30.8113 256.44 30.9611 256.307 31.0857C256.177 31.2103 256.021 31.2726 255.838 31.2726ZM258.957 34.7249V38.3999H258.019V32.2908H258.925V33.2454H259.005C259.148 32.9351 259.366 32.6859 259.657 32.4976C259.949 32.3067 260.325 32.2113 260.787 32.2113C261.2 32.2113 261.562 32.2961 261.873 32.4658C262.183 32.6329 262.424 32.8874 262.596 33.2294C262.769 33.5688 262.855 33.9984 262.855 34.5181V38.3999H261.916V34.5817C261.916 34.1018 261.792 33.7279 261.542 33.4601C261.293 33.1897 260.951 33.0544 260.516 33.0544C260.217 33.0544 259.949 33.1194 259.713 33.2493C259.48 33.3793 259.295 33.5688 259.16 33.8181C259.025 34.0673 258.957 34.3696 258.957 34.7249ZM267.036 40.8181C266.583 40.8181 266.193 40.7598 265.867 40.6431C265.541 40.5291 265.269 40.3779 265.051 40.1897C264.837 40.0041 264.666 39.8052 264.538 39.5931L265.286 39.0681C265.371 39.1794 265.478 39.3067 265.608 39.4499C265.738 39.5957 265.916 39.7217 266.141 39.8277C266.369 39.9365 266.667 39.9908 267.036 39.9908C267.529 39.9908 267.936 39.8715 268.257 39.6329C268.578 39.3942 268.738 39.0204 268.738 38.5113V37.2704H268.659C268.59 37.3817 268.492 37.5196 268.364 37.684C268.24 37.8457 268.06 37.9902 267.824 38.1175C267.59 38.2421 267.275 38.3044 266.877 38.3044C266.384 38.3044 265.941 38.1878 265.549 37.9544C265.159 37.7211 264.85 37.3817 264.622 36.9363C264.396 36.4908 264.284 35.9499 264.284 35.3135C264.284 34.6878 264.394 34.1429 264.614 33.6789C264.834 33.2122 265.14 32.8516 265.533 32.5971C265.925 32.3399 266.378 32.2113 266.893 32.2113C267.291 32.2113 267.606 32.2776 267.839 32.4101C268.075 32.5401 268.256 32.6885 268.38 32.8556C268.508 33.02 268.606 33.1552 268.675 33.2613H268.77V32.2908H269.677V38.5749C269.677 39.0999 269.558 39.5268 269.319 39.8556C269.083 40.187 268.765 40.4296 268.364 40.5834C267.967 40.7399 267.524 40.8181 267.036 40.8181ZM267.004 37.4613C267.381 37.4613 267.699 37.3751 267.959 37.2027C268.219 37.0304 268.416 36.7825 268.551 36.459C268.687 36.1355 268.754 35.7484 268.754 35.2976C268.754 34.8575 268.688 34.469 268.555 34.1323C268.423 33.7955 268.227 33.5317 267.967 33.3408C267.707 33.1499 267.386 33.0544 267.004 33.0544C266.606 33.0544 266.275 33.1552 266.01 33.3567C265.747 33.5582 265.55 33.8287 265.417 34.1681C265.287 34.5075 265.222 34.884 265.222 35.2976C265.222 35.7219 265.289 36.0971 265.421 36.4232C265.556 36.7467 265.755 37.0012 266.018 37.1868C266.283 37.3698 266.612 37.4613 267.004 37.4613ZM3.83305 61.5272C3.24442 61.5272 2.73665 61.3973 2.30976 61.1374C1.88551 60.8749 1.55805 60.509 1.32737 60.0397C1.09934 59.5677 0.985325 59.0188 0.985325 58.3931C0.985325 57.7673 1.09934 57.2158 1.32737 56.7385C1.55805 56.2586 1.87889 55.8848 2.28987 55.6169C2.70351 55.3465 3.18608 55.2113 3.7376 55.2113C4.05578 55.2113 4.36998 55.2643 4.68021 55.3704C4.99044 55.4764 5.27283 55.6488 5.52737 55.8874C5.78192 56.1234 5.98476 56.4363 6.13589 56.826C6.28703 57.2158 6.3626 57.6957 6.3626 58.2658V58.6635H1.65351V57.8522H5.40805C5.40805 57.5075 5.33911 57.1999 5.20123 56.9294C5.06601 56.659 4.87245 56.4455 4.62055 56.2891C4.37131 56.1327 4.07699 56.0544 3.7376 56.0544C3.36373 56.0544 3.04025 56.1473 2.76714 56.3329C2.49669 56.5158 2.28854 56.7544 2.14271 57.0488C1.99688 57.3431 1.92396 57.6586 1.92396 57.9954V58.5363C1.92396 58.9976 2.00351 59.3887 2.1626 59.7096C2.32434 60.0277 2.54839 60.2704 2.83476 60.4374C3.12112 60.6018 3.45389 60.684 3.83305 60.684C4.07964 60.684 4.30237 60.6495 4.50123 60.5806C4.70275 60.509 4.87642 60.4029 5.02226 60.2624C5.16809 60.1192 5.28078 59.9416 5.36032 59.7294L6.26714 59.984C6.17169 60.2916 6.01127 60.562 5.78589 60.7954C5.56051 61.026 5.28211 61.2063 4.95067 61.3363C4.61923 61.4635 4.24669 61.5272 3.83305 61.5272ZM8.72907 53.2544V61.3999H7.79044V53.2544H8.72907ZM10.4483 61.3999V55.2908H11.3869V61.3999H10.4483ZM10.9255 54.2726C10.7426 54.2726 10.5848 54.2103 10.4522 54.0857C10.3223 53.9611 10.2573 53.8113 10.2573 53.6363C10.2573 53.4613 10.3223 53.3115 10.4522 53.1868C10.5848 53.0622 10.7426 52.9999 10.9255 52.9999C11.1085 52.9999 11.2649 53.0622 11.3948 53.1868C11.5274 53.3115 11.5937 53.4613 11.5937 53.6363C11.5937 53.8113 11.5274 53.9611 11.3948 54.0857C11.2649 54.2103 11.1085 54.2726 10.9255 54.2726ZM15.7629 55.2908V56.0863H12.597V55.2908H15.7629ZM13.5197 53.8272H14.4583V59.6499C14.4583 59.9151 14.4968 60.1139 14.5737 60.2465C14.6532 60.3764 14.754 60.4639 14.8759 60.509C15.0006 60.5514 15.1318 60.5726 15.2697 60.5726C15.3731 60.5726 15.458 60.5673 15.5242 60.5567C15.5905 60.5435 15.6436 60.5329 15.6833 60.5249L15.8742 61.3681C15.8106 61.3919 15.7218 61.4158 15.6078 61.4397C15.4938 61.4662 15.3492 61.4794 15.1742 61.4794C14.9091 61.4794 14.6492 61.4224 14.3947 61.3084C14.1428 61.1944 13.9333 61.0207 13.7663 60.7874C13.6019 60.5541 13.5197 60.2598 13.5197 59.9044V53.8272ZM17.8589 61.4635C17.6627 61.4635 17.4943 61.3933 17.3538 61.2527C17.2133 61.1122 17.143 60.9438 17.143 60.7476C17.143 60.5514 17.2133 60.383 17.3538 60.2425C17.4943 60.102 17.6627 60.0317 17.8589 60.0317C18.0551 60.0317 18.2235 60.102 18.364 60.2425C18.5045 60.383 18.5748 60.5514 18.5748 60.7476C18.5748 60.8776 18.5417 60.9969 18.4754 61.1056C18.4117 61.2143 18.3256 61.3018 18.2169 61.3681C18.1108 61.4317 17.9915 61.4635 17.8589 61.4635ZM23.5365 61.3999V53.2544H26.2887C26.9277 53.2544 27.4501 53.3698 27.8558 53.6005C28.2641 53.8285 28.5664 54.1374 28.7626 54.5272C28.9588 54.9169 29.0569 55.3518 29.0569 55.8317C29.0569 56.3116 28.9588 56.7478 28.7626 57.1402C28.569 57.5327 28.2694 57.8455 27.8637 58.0789C27.4581 58.3096 26.9384 58.4249 26.3046 58.4249H24.3319V57.5499H26.2728C26.7103 57.5499 27.0616 57.4743 27.3268 57.3232C27.592 57.1721 27.7842 56.9679 27.9035 56.7107C28.0255 56.4508 28.0865 56.1579 28.0865 55.8317C28.0865 55.5056 28.0255 55.2139 27.9035 54.9567C27.7842 54.6995 27.5906 54.498 27.3228 54.3522C27.055 54.2037 26.6997 54.1294 26.2569 54.1294H24.5228V61.3999H23.5365ZM30.5186 61.3999V55.2908H31.4254V56.2135H31.489C31.6004 55.9113 31.8019 55.666 32.0936 55.4777C32.3852 55.2895 32.714 55.1954 33.0799 55.1954C33.1489 55.1954 33.235 55.1967 33.3384 55.1993C33.4419 55.202 33.5201 55.206 33.5731 55.2113V56.1658C33.5413 56.1579 33.4684 56.1459 33.3544 56.13C33.243 56.1115 33.125 56.1022 33.0004 56.1022C32.7034 56.1022 32.4383 56.1645 32.2049 56.2891C31.9742 56.4111 31.7913 56.5808 31.6561 56.7982C31.5235 57.013 31.4572 57.2582 31.4572 57.534V61.3999H30.5186ZM36.4835 61.5431C36.0964 61.5431 35.745 61.4702 35.4295 61.3243C35.114 61.1758 34.8634 60.9624 34.6778 60.684C34.4922 60.4029 34.3994 60.0635 34.3994 59.6658C34.3994 59.3158 34.4683 59.0321 34.6062 58.8147C34.7441 58.5946 34.9284 58.4223 35.159 58.2976C35.3897 58.173 35.6443 58.0802 35.9227 58.0192C36.2037 57.9556 36.4861 57.9052 36.7698 57.8681C37.1411 57.8204 37.442 57.7846 37.6727 57.7607C37.906 57.7342 38.0757 57.6904 38.1818 57.6294C38.2905 57.5685 38.3448 57.4624 38.3448 57.3113V57.2794C38.3448 56.887 38.2375 56.5821 38.0227 56.3647C37.8106 56.1473 37.4884 56.0385 37.0562 56.0385C36.6081 56.0385 36.2568 56.1366 36.0022 56.3329C35.7477 56.5291 35.5687 56.7385 35.4653 56.9613L34.5744 56.6431C34.7335 56.2719 34.9456 55.9829 35.2108 55.776C35.4786 55.5666 35.7702 55.4207 36.0858 55.3385C36.4039 55.2537 36.7168 55.2113 37.0244 55.2113C37.2206 55.2113 37.446 55.2351 37.7005 55.2829C37.9577 55.3279 38.2056 55.4221 38.4443 55.5652C38.6856 55.7084 38.8858 55.9245 39.0448 56.2135C39.2039 56.5026 39.2835 56.8897 39.2835 57.3749V61.3999H38.3448V60.5726H38.2971C38.2335 60.7052 38.1274 60.8471 37.9789 60.9982C37.8304 61.1493 37.6329 61.2779 37.3863 61.384C37.1397 61.4901 36.8388 61.5431 36.4835 61.5431ZM36.6267 60.6999C36.9979 60.6999 37.3108 60.627 37.5653 60.4812C37.8225 60.3353 38.0161 60.1471 38.146 59.9164C38.2786 59.6857 38.3448 59.4431 38.3448 59.1885V58.3294C38.3051 58.3772 38.2176 58.4209 38.0823 58.4607C37.9498 58.4978 37.796 58.531 37.621 58.5601C37.4486 58.5866 37.2803 58.6105 37.1159 58.6317C36.9541 58.6503 36.8229 58.6662 36.7221 58.6794C36.4782 58.7113 36.2501 58.763 36.038 58.8346C35.8286 58.9035 35.6589 59.0082 35.5289 59.1488C35.4017 59.2866 35.338 59.4749 35.338 59.7135C35.338 60.0397 35.4587 60.2863 35.7 60.4533C35.9439 60.6177 36.2528 60.6999 36.6267 60.6999ZM43.5581 61.5272C42.9694 61.5272 42.4616 61.3973 42.0348 61.1374C41.6105 60.8749 41.2831 60.509 41.0524 60.0397C40.8243 59.5677 40.7103 59.0188 40.7103 58.3931C40.7103 57.7673 40.8243 57.2158 41.0524 56.7385C41.2831 56.2586 41.6039 55.8848 42.0149 55.6169C42.4285 55.3465 42.9111 55.2113 43.4626 55.2113C43.7808 55.2113 44.095 55.2643 44.4052 55.3704C44.7154 55.4764 44.9978 55.6488 45.2524 55.8874C45.5069 56.1234 45.7098 56.4363 45.8609 56.826C46.012 57.2158 46.0876 57.6957 46.0876 58.2658V58.6635H41.3785V57.8522H45.1331C45.1331 57.5075 45.0641 57.1999 44.9262 56.9294C44.791 56.659 44.5974 56.4455 44.3456 56.2891C44.0963 56.1327 43.802 56.0544 43.4626 56.0544C43.0887 56.0544 42.7652 56.1473 42.4921 56.3329C42.2217 56.5158 42.0135 56.7544 41.8677 57.0488C41.7219 57.3431 41.649 57.6586 41.649 57.9954V58.5363C41.649 58.9976 41.7285 59.3887 41.8876 59.7096C42.0493 60.0277 42.2734 60.2704 42.5598 60.4374C42.8461 60.6018 43.1789 60.684 43.5581 60.684C43.8046 60.684 44.0274 60.6495 44.2262 60.5806C44.4277 60.509 44.6014 60.4029 44.7473 60.2624C44.8931 60.1192 45.0058 59.9416 45.0853 59.7294L45.9921 59.984C45.8967 60.2916 45.7363 60.562 45.5109 60.7954C45.2855 61.026 45.0071 61.2063 44.6757 61.3363C44.3442 61.4635 43.9717 61.5272 43.5581 61.5272ZM51.8427 56.659L50.9995 56.8976C50.9465 56.7571 50.8683 56.6205 50.7649 56.488C50.6641 56.3527 50.5262 56.2414 50.3512 56.1539C50.1762 56.0664 49.9522 56.0226 49.6791 56.0226C49.3052 56.0226 48.9937 56.1088 48.7444 56.2812C48.4978 56.4508 48.3745 56.6669 48.3745 56.9294C48.3745 57.1628 48.4594 57.3471 48.6291 57.4823C48.7988 57.6175 49.0639 57.7302 49.4245 57.8204L50.3313 58.0431C50.8776 58.1757 51.2846 58.3785 51.5524 58.6516C51.8202 58.9221 51.9541 59.2707 51.9541 59.6976C51.9541 60.0476 51.8533 60.3605 51.6518 60.6363C51.4529 60.912 51.1745 61.1294 50.8166 61.2885C50.4586 61.4476 50.0423 61.5272 49.5677 61.5272C48.9446 61.5272 48.4289 61.3919 48.0205 61.1215C47.6122 60.851 47.3537 60.456 47.245 59.9363L48.1359 59.7135C48.2207 60.0423 48.3812 60.2889 48.6171 60.4533C48.8558 60.6177 49.1673 60.6999 49.5518 60.6999C49.9893 60.6999 50.3366 60.6071 50.5938 60.4215C50.8537 60.2332 50.9836 60.0079 50.9836 59.7454C50.9836 59.5332 50.9094 59.3556 50.7609 59.2124C50.6124 59.0666 50.3844 58.9579 50.0768 58.8863L49.0586 58.6476C48.4991 58.5151 48.0882 58.3096 47.8257 58.0312C47.5658 57.7501 47.4359 57.3988 47.4359 56.9772C47.4359 56.6325 47.5327 56.3276 47.7262 56.0624C47.9224 55.7973 48.1889 55.5891 48.5257 55.438C48.8651 55.2868 49.2495 55.2113 49.6791 55.2113C50.2836 55.2113 50.7582 55.3438 51.1029 55.609C51.4503 55.8741 51.6969 56.2241 51.8427 56.659ZM55.9284 61.5272C55.3397 61.5272 54.832 61.3973 54.4051 61.1374C53.9808 60.8749 53.6534 60.509 53.4227 60.0397C53.1947 59.5677 53.0806 59.0188 53.0806 58.3931C53.0806 57.7673 53.1947 57.2158 53.4227 56.7385C53.6534 56.2586 53.9742 55.8848 54.3852 55.6169C54.7988 55.3465 55.2814 55.2113 55.8329 55.2113C56.1511 55.2113 56.4653 55.2643 56.7755 55.3704C57.0857 55.4764 57.3681 55.6488 57.6227 55.8874C57.8772 56.1234 58.0801 56.4363 58.2312 56.826C58.3823 57.2158 58.4579 57.6957 58.4579 58.2658V58.6635H53.7488V57.8522H57.5034C57.5034 57.5075 57.4344 57.1999 57.2965 56.9294C57.1613 56.659 56.9678 56.4455 56.7159 56.2891C56.4666 56.1327 56.1723 56.0544 55.8329 56.0544C55.459 56.0544 55.1356 56.1473 54.8625 56.3329C54.592 56.5158 54.3839 56.7544 54.238 57.0488C54.0922 57.3431 54.0193 57.6586 54.0193 57.9954V58.5363C54.0193 58.9976 54.0988 59.3887 54.2579 59.7096C54.4197 60.0277 54.6437 60.2704 54.9301 60.4374C55.2164 60.6018 55.5492 60.684 55.9284 60.684C56.175 60.684 56.3977 60.6495 56.5965 60.5806C56.7981 60.509 56.9717 60.4029 57.1176 60.2624C57.2634 60.1192 57.3761 59.9416 57.4556 59.7294L58.3625 59.984C58.267 60.2916 58.1066 60.562 57.8812 60.7954C57.6558 61.026 57.3774 61.2063 57.046 61.3363C56.7145 61.4635 56.342 61.5272 55.9284 61.5272ZM60.8244 57.7249V61.3999H59.8857V55.2908H60.7926V56.2454H60.8721C61.0153 55.9351 61.2327 55.6859 61.5244 55.4976C61.8161 55.3067 62.1926 55.2113 62.6539 55.2113C63.0676 55.2113 63.4295 55.2961 63.7397 55.4658C64.05 55.6329 64.2912 55.8874 64.4636 56.2294C64.6359 56.5688 64.7221 56.9984 64.7221 57.5181V61.3999H63.7835V57.5817C63.7835 57.1018 63.6589 56.7279 63.4096 56.4601C63.1604 56.1897 62.8183 56.0544 62.3835 56.0544C62.0839 56.0544 61.8161 56.1194 61.5801 56.2493C61.3467 56.3793 61.1625 56.5688 61.0272 56.8181C60.892 57.0673 60.8244 57.3696 60.8244 57.7249ZM69.0941 55.2908V56.0863H65.9282V55.2908H69.0941ZM66.851 53.8272H67.7896V59.6499C67.7896 59.9151 67.828 60.1139 67.9049 60.2465C67.9845 60.3764 68.0852 60.4639 68.2072 60.509C68.3318 60.5514 68.4631 60.5726 68.601 60.5726C68.7044 60.5726 68.7892 60.5673 68.8555 60.5567C68.9218 60.5435 68.9748 60.5329 69.0146 60.5249L69.2055 61.3681C69.1419 61.3919 69.053 61.4158 68.939 61.4397C68.825 61.4662 68.6805 61.4794 68.5055 61.4794C68.2403 61.4794 67.9805 61.4224 67.726 61.3084C67.4741 61.1944 67.2646 61.0207 67.0975 60.7874C66.9331 60.5541 66.851 60.2598 66.851 59.9044V53.8272ZM76.122 63.8181C75.6686 63.8181 75.2788 63.7598 74.9526 63.6431C74.6265 63.5291 74.3547 63.3779 74.1373 63.1897C73.9225 63.0041 73.7515 62.8052 73.6242 62.5931L74.372 62.0681C74.4568 62.1794 74.5642 62.3067 74.6941 62.4499C74.824 62.5957 75.0017 62.7217 75.2271 62.8277C75.4551 62.9365 75.7534 62.9908 76.122 62.9908C76.6151 62.9908 77.0222 62.8715 77.343 62.6329C77.6638 62.3942 77.8242 62.0204 77.8242 61.5113V60.2704H77.7447C77.6758 60.3817 77.5776 60.5196 77.4504 60.684C77.3258 60.8457 77.1455 60.9902 76.9095 61.1175C76.6761 61.2421 76.3606 61.3044 75.9629 61.3044C75.4697 61.3044 75.0269 61.1878 74.6345 60.9544C74.2447 60.7211 73.9358 60.3817 73.7078 59.9363C73.4824 59.4908 73.3697 58.9499 73.3697 58.3135C73.3697 57.6878 73.4797 57.1429 73.6998 56.6789C73.9199 56.2122 74.2261 55.8516 74.6186 55.5971C75.011 55.3399 75.4644 55.2113 75.9788 55.2113C76.3765 55.2113 76.692 55.2776 76.9254 55.4101C77.1614 55.5401 77.3417 55.6885 77.4663 55.8556C77.5936 56.02 77.6917 56.1552 77.7606 56.2613H77.8561V55.2908H78.7629V61.5749C78.7629 62.0999 78.6436 62.5268 78.4049 62.8556C78.1689 63.187 77.8508 63.4296 77.4504 63.5834C77.0526 63.7399 76.6098 63.8181 76.122 63.8181ZM76.0901 60.4613C76.4667 60.4613 76.7848 60.3751 77.0447 60.2027C77.3045 60.0304 77.5021 59.7825 77.6373 59.459C77.7725 59.1355 77.8401 58.7484 77.8401 58.2976C77.8401 57.8575 77.7739 57.469 77.6413 57.1323C77.5087 56.7955 77.3125 56.5317 77.0526 56.3408C76.7928 56.1499 76.472 56.0544 76.0901 56.0544C75.6924 56.0544 75.361 56.1552 75.0958 56.3567C74.8333 56.5582 74.6358 56.8287 74.5032 57.1681C74.3733 57.5075 74.3083 57.884 74.3083 58.2976C74.3083 58.7219 74.3746 59.0971 74.5072 59.4232C74.6424 59.7467 74.8413 60.0012 75.1038 60.1868C75.3689 60.3698 75.6977 60.4613 76.0901 60.4613ZM80.4811 61.3999V55.2908H81.3879V56.2135H81.4515C81.5629 55.9113 81.7644 55.666 82.0561 55.4777C82.3477 55.2895 82.6765 55.1954 83.0424 55.1954C83.1114 55.1954 83.1975 55.1967 83.3009 55.1993C83.4044 55.202 83.4826 55.206 83.5356 55.2113V56.1658C83.5038 56.1579 83.4309 56.1459 83.3169 56.13C83.2055 56.1115 83.0875 56.1022 82.9629 56.1022C82.6659 56.1022 82.4008 56.1645 82.1674 56.2891C81.9367 56.4111 81.7538 56.5808 81.6186 56.7982C81.486 57.013 81.4197 57.2582 81.4197 57.534V61.3999H80.4811ZM86.446 61.5431C86.0589 61.5431 85.7075 61.4702 85.392 61.3243C85.0765 61.1758 84.8259 60.9624 84.6403 60.684C84.4547 60.4029 84.3619 60.0635 84.3619 59.6658C84.3619 59.3158 84.4308 59.0321 84.5687 58.8147C84.7066 58.5946 84.8909 58.4223 85.1215 58.2976C85.3522 58.173 85.6068 58.0802 85.8852 58.0192C86.1662 57.9556 86.4486 57.9052 86.7323 57.8681C87.1035 57.8204 87.4045 57.7846 87.6352 57.7607C87.8685 57.7342 88.0382 57.6904 88.1443 57.6294C88.253 57.5685 88.3073 57.4624 88.3073 57.3113V57.2794C88.3073 56.887 88.1999 56.5821 87.9852 56.3647C87.7731 56.1473 87.4509 56.0385 87.0187 56.0385C86.5706 56.0385 86.2193 56.1366 85.9647 56.3329C85.7102 56.5291 85.5312 56.7385 85.4278 56.9613L84.5369 56.6431C84.696 56.2719 84.9081 55.9829 85.1732 55.776C85.441 55.5666 85.7327 55.4207 86.0482 55.3385C86.3664 55.2537 86.6793 55.2113 86.9869 55.2113C87.1831 55.2113 87.4085 55.2351 87.663 55.2829C87.9202 55.3279 88.1681 55.4221 88.4068 55.5652C88.6481 55.7084 88.8482 55.9245 89.0073 56.2135C89.1664 56.5026 89.246 56.8897 89.246 57.3749V61.3999H88.3073V60.5726H88.2596C88.196 60.7052 88.0899 60.8471 87.9414 60.9982C87.7929 61.1493 87.5954 61.2779 87.3488 61.384C87.1022 61.4901 86.8013 61.5431 86.446 61.5431ZM86.5892 60.6999C86.9604 60.6999 87.2732 60.627 87.5278 60.4812C87.785 60.3353 87.9785 60.1471 88.1085 59.9164C88.241 59.6857 88.3073 59.4431 88.3073 59.1885V58.3294C88.2676 58.3772 88.1801 58.4209 88.0448 58.4607C87.9123 58.4978 87.7585 58.531 87.5835 58.5601C87.4111 58.5866 87.2428 58.6105 87.0784 58.6317C86.9166 58.6503 86.7854 58.6662 86.6846 58.6794C86.4407 58.7113 86.2126 58.763 86.0005 58.8346C85.791 58.9035 85.6214 59.0082 85.4914 59.1488C85.3642 59.2866 85.3005 59.4749 85.3005 59.7135C85.3005 60.0397 85.4212 60.2863 85.6624 60.4533C85.9064 60.6177 86.2153 60.6999 86.5892 60.6999ZM95.7359 55.2908L93.4768 61.3999H92.5223L90.2632 55.2908H91.2813L92.9677 60.159H93.0313L94.7177 55.2908H95.7359ZM96.9748 61.3999V55.2908H97.9135V61.3999H96.9748ZM97.4521 54.2726C97.2691 54.2726 97.1114 54.2103 96.9788 54.0857C96.8489 53.9611 96.7839 53.8113 96.7839 53.6363C96.7839 53.4613 96.8489 53.3115 96.9788 53.1868C97.1114 53.0622 97.2691 52.9999 97.4521 52.9999C97.635 52.9999 97.7915 53.0622 97.9214 53.1868C98.054 53.3115 98.1203 53.4613 98.1203 53.6363C98.1203 53.8113 98.054 53.9611 97.9214 54.0857C97.7915 54.2103 97.635 54.2726 97.4521 54.2726ZM101.939 61.5272C101.43 61.5272 100.981 61.3986 100.591 61.1414C100.201 60.8815 99.8964 60.5156 99.6764 60.0437C99.4563 59.569 99.3463 59.0082 99.3463 58.3613C99.3463 57.7196 99.4563 57.1628 99.6764 56.6908C99.8964 56.2188 100.203 55.8543 100.595 55.5971C100.988 55.3399 101.441 55.2113 101.955 55.2113C102.353 55.2113 102.667 55.2776 102.898 55.4101C103.131 55.5401 103.309 55.6885 103.431 55.8556C103.556 56.02 103.652 56.1552 103.721 56.2613H103.801V53.2544H104.739V61.3999H103.833V60.4613H103.721C103.652 60.5726 103.554 60.7132 103.427 60.8829C103.3 61.0499 103.118 61.1997 102.882 61.3323C102.646 61.4622 102.332 61.5272 101.939 61.5272ZM102.067 60.684C102.443 60.684 102.761 60.5859 103.021 60.3897C103.281 60.1908 103.479 59.9164 103.614 59.5664C103.749 59.2137 103.817 58.8067 103.817 58.3454C103.817 57.8893 103.75 57.4902 103.618 57.1482C103.485 56.8035 103.289 56.5357 103.029 56.3448C102.769 56.1512 102.449 56.0544 102.067 56.0544C101.669 56.0544 101.338 56.1565 101.072 56.3607C100.81 56.5622 100.612 56.8366 100.48 57.184C100.35 57.5287 100.285 57.9158 100.285 58.3454C100.285 58.7802 100.351 59.1753 100.484 59.5306C100.619 59.8832 100.818 60.1643 101.08 60.3738C101.345 60.5806 101.674 60.684 102.067 60.684ZM108.387 61.5431C107.999 61.5431 107.648 61.4702 107.333 61.3243C107.017 61.1758 106.767 60.9624 106.581 60.684C106.395 60.4029 106.303 60.0635 106.303 59.6658C106.303 59.3158 106.371 59.0321 106.509 58.8147C106.647 58.5946 106.831 58.4223 107.062 58.2976C107.293 58.173 107.547 58.0802 107.826 58.0192C108.107 57.9556 108.389 57.9052 108.673 57.8681C109.044 57.8204 109.345 57.7846 109.576 57.7607C109.809 57.7342 109.979 57.6904 110.085 57.6294C110.194 57.5685 110.248 57.4624 110.248 57.3113V57.2794C110.248 56.887 110.141 56.5821 109.926 56.3647C109.714 56.1473 109.392 56.0385 108.959 56.0385C108.511 56.0385 108.16 56.1366 107.905 56.3329C107.651 56.5291 107.472 56.7385 107.368 56.9613L106.478 56.6431C106.637 56.2719 106.849 55.9829 107.114 55.776C107.382 55.5666 107.673 55.4207 107.989 55.3385C108.307 55.2537 108.62 55.2113 108.928 55.2113C109.124 55.2113 109.349 55.2351 109.604 55.2829C109.861 55.3279 110.109 55.4221 110.347 55.5652C110.589 55.7084 110.789 55.9245 110.948 56.2135C111.107 56.5026 111.187 56.8897 111.187 57.3749V61.3999H110.248V60.5726H110.2C110.137 60.7052 110.031 60.8471 109.882 60.9982C109.734 61.1493 109.536 61.2779 109.289 61.384C109.043 61.4901 108.742 61.5431 108.387 61.5431ZM108.53 60.6999C108.901 60.6999 109.214 60.627 109.468 60.4812C109.726 60.3353 109.919 60.1471 110.049 59.9164C110.182 59.6857 110.248 59.4431 110.248 59.1885V58.3294C110.208 58.3772 110.121 58.4209 109.985 58.4607C109.853 58.4978 109.699 58.531 109.524 58.5601C109.352 58.5866 109.183 58.6105 109.019 58.6317C108.857 58.6503 108.726 58.6662 108.625 58.6794C108.381 58.7113 108.153 58.763 107.941 58.8346C107.732 58.9035 107.562 59.0082 107.432 59.1488C107.305 59.2866 107.241 59.4749 107.241 59.7135C107.241 60.0397 107.362 60.2863 107.603 60.4533C107.847 60.6177 108.156 60.6999 108.53 60.6999ZM118.707 55.2908V56.0863H115.541V55.2908H118.707ZM116.463 53.8272H117.402V59.6499C117.402 59.9151 117.441 60.1139 117.517 60.2465C117.597 60.3764 117.698 60.4639 117.82 60.509C117.944 60.5514 118.076 60.5726 118.213 60.5726C118.317 60.5726 118.402 60.5673 118.468 60.5567C118.534 60.5435 118.587 60.5329 118.627 60.5249L118.818 61.3681C118.754 61.3919 118.666 61.4158 118.552 61.4397C118.438 61.4662 118.293 61.4794 118.118 61.4794C117.853 61.4794 117.593 61.4224 117.338 61.3084C117.087 61.1944 116.877 61.0207 116.71 60.7874C116.546 60.5541 116.463 60.2598 116.463 59.9044V53.8272ZM123.969 58.9022V55.2908H124.907V61.3999H123.969V60.3658H123.905C123.762 60.676 123.539 60.9399 123.237 61.1573C122.934 61.3721 122.553 61.4794 122.091 61.4794C121.709 61.4794 121.37 61.3959 121.073 61.2289C120.776 61.0592 120.543 60.8046 120.373 60.4652C120.203 60.1232 120.119 59.6923 120.119 59.1726V55.2908H121.057V59.109C121.057 59.5544 121.182 59.9098 121.431 60.1749C121.683 60.4401 122.004 60.5726 122.394 60.5726C122.627 60.5726 122.864 60.513 123.105 60.3937C123.349 60.2743 123.554 60.0914 123.718 59.8448C123.885 59.5982 123.969 59.284 123.969 58.9022ZM126.626 61.3999V55.2908H127.533V56.2135H127.597C127.708 55.9113 127.91 55.666 128.201 55.4777C128.493 55.2895 128.822 55.1954 129.188 55.1954C129.257 55.1954 129.343 55.1967 129.446 55.1993C129.55 55.202 129.628 55.206 129.681 55.2113V56.1658C129.649 56.1579 129.576 56.1459 129.462 56.13C129.351 56.1115 129.233 56.1022 129.108 56.1022C128.811 56.1022 128.546 56.1645 128.313 56.2891C128.082 56.4111 127.899 56.5808 127.764 56.7982C127.631 57.013 127.565 57.2582 127.565 57.534V61.3999H126.626ZM130.794 63.6908V55.2908H131.7V56.2613H131.812C131.881 56.1552 131.976 56.02 132.098 55.8556C132.223 55.6885 132.4 55.5401 132.631 55.4101C132.864 55.2776 133.18 55.2113 133.578 55.2113C134.092 55.2113 134.545 55.3399 134.938 55.5971C135.33 55.8543 135.637 56.2188 135.857 56.6908C136.077 57.1628 136.187 57.7196 136.187 58.3613C136.187 59.0082 136.077 59.569 135.857 60.0437C135.637 60.5156 135.332 60.8815 134.942 61.1414C134.552 61.3986 134.103 61.5272 133.594 61.5272C133.201 61.5272 132.887 61.4622 132.651 61.3323C132.415 61.1997 132.233 61.0499 132.106 60.8829C131.979 60.7132 131.881 60.5726 131.812 60.4613H131.732V63.6908H130.794ZM131.716 58.3454C131.716 58.8067 131.784 59.2137 131.919 59.5664C132.054 59.9164 132.252 60.1908 132.512 60.3897C132.772 60.5859 133.09 60.684 133.466 60.684C133.859 60.684 134.186 60.5806 134.449 60.3738C134.714 60.1643 134.913 59.8832 135.045 59.5306C135.18 59.1753 135.248 58.7802 135.248 58.3454C135.248 57.9158 135.182 57.5287 135.049 57.184C134.919 56.8366 134.722 56.5622 134.457 56.3607C134.194 56.1565 133.864 56.0544 133.466 56.0544C133.084 56.0544 132.764 56.1512 132.504 56.3448C132.244 56.5357 132.048 56.8035 131.915 57.1482C131.783 57.4902 131.716 57.8893 131.716 58.3454ZM137.619 61.3999V55.2908H138.557V61.3999H137.619ZM138.096 54.2726C137.913 54.2726 137.755 54.2103 137.623 54.0857C137.493 53.9611 137.428 53.8113 137.428 53.6363C137.428 53.4613 137.493 53.3115 137.623 53.1868C137.755 53.0622 137.913 52.9999 138.096 52.9999C138.279 52.9999 138.435 53.0622 138.565 53.1868C138.698 53.3115 138.764 53.4613 138.764 53.6363C138.764 53.8113 138.698 53.9611 138.565 54.0857C138.435 54.2103 138.279 54.2726 138.096 54.2726ZM144.604 56.659L143.76 56.8976C143.707 56.7571 143.629 56.6205 143.526 56.488C143.425 56.3527 143.287 56.2414 143.112 56.1539C142.937 56.0664 142.713 56.0226 142.44 56.0226C142.066 56.0226 141.755 56.1088 141.505 56.2812C141.259 56.4508 141.135 56.6669 141.135 56.9294C141.135 57.1628 141.22 57.3471 141.39 57.4823C141.56 57.6175 141.825 57.7302 142.185 57.8204L143.092 58.0431C143.638 58.1757 144.046 58.3785 144.313 58.6516C144.581 58.9221 144.715 59.2707 144.715 59.6976C144.715 60.0476 144.614 60.3605 144.413 60.6363C144.214 60.912 143.935 61.1294 143.578 61.2885C143.22 61.4476 142.803 61.5272 142.329 61.5272C141.706 61.5272 141.19 61.3919 140.781 61.1215C140.373 60.851 140.115 60.456 140.006 59.9363L140.897 59.7135C140.982 60.0423 141.142 60.2889 141.378 60.4533C141.617 60.6177 141.928 60.6999 142.313 60.6999C142.75 60.6999 143.098 60.6071 143.355 60.4215C143.615 60.2332 143.745 60.0079 143.745 59.7454C143.745 59.5332 143.67 59.3556 143.522 59.2124C143.373 59.0666 143.145 58.9579 142.838 58.8863L141.82 58.6476C141.26 58.5151 140.849 58.3096 140.587 58.0312C140.327 57.7501 140.197 57.3988 140.197 56.9772C140.197 56.6325 140.294 56.3276 140.487 56.0624C140.683 55.7973 140.95 55.5891 141.287 55.438C141.626 55.2868 142.01 55.2113 142.44 55.2113C143.045 55.2113 143.519 55.3438 143.864 55.609C144.211 55.8741 144.458 56.2241 144.604 56.659ZM149.278 63.6908V55.2908H150.185V56.2613H150.296C150.365 56.1552 150.461 56.02 150.582 55.8556C150.707 55.6885 150.885 55.5401 151.115 55.4101C151.349 55.2776 151.664 55.2113 152.062 55.2113C152.576 55.2113 153.03 55.3399 153.422 55.5971C153.815 55.8543 154.121 56.2188 154.341 56.6908C154.561 57.1628 154.671 57.7196 154.671 58.3613C154.671 59.0082 154.561 59.569 154.341 60.0437C154.121 60.5156 153.816 60.8815 153.426 61.1414C153.036 61.3986 152.587 61.5272 152.078 61.5272C151.686 61.5272 151.371 61.4622 151.135 61.3323C150.899 61.1997 150.718 61.0499 150.59 60.8829C150.463 60.7132 150.365 60.5726 150.296 60.4613H150.217V63.6908H149.278ZM150.201 58.3454C150.201 58.8067 150.268 59.2137 150.403 59.5664C150.539 59.9164 150.736 60.1908 150.996 60.3897C151.256 60.5859 151.574 60.684 151.951 60.684C152.343 60.684 152.671 60.5806 152.933 60.3738C153.198 60.1643 153.397 59.8832 153.53 59.5306C153.665 59.1753 153.732 58.7802 153.732 58.3454C153.732 57.9158 153.666 57.5287 153.534 57.184C153.404 56.8366 153.206 56.5622 152.941 56.3607C152.678 56.1565 152.348 56.0544 151.951 56.0544C151.569 56.0544 151.248 56.1512 150.988 56.3448C150.728 56.5357 150.532 56.8035 150.4 57.1482C150.267 57.4902 150.201 57.8893 150.201 58.3454ZM156.103 61.3999V55.2908H157.01V56.2135H157.073C157.185 55.9113 157.386 55.666 157.678 55.4777C157.97 55.2895 158.298 55.1954 158.664 55.1954C158.733 55.1954 158.819 55.1967 158.923 55.1993C159.026 55.202 159.104 55.206 159.157 55.2113V56.1658C159.126 56.1579 159.053 56.1459 158.939 56.13C158.827 56.1115 158.709 56.1022 158.585 56.1022C158.288 56.1022 158.023 56.1645 157.789 56.2891C157.559 56.4111 157.376 56.5808 157.24 56.7982C157.108 57.013 157.042 57.2582 157.042 57.534V61.3999H156.103ZM162.646 61.5272C162.057 61.5272 161.549 61.3973 161.122 61.1374C160.698 60.8749 160.371 60.509 160.14 60.0397C159.912 59.5677 159.798 59.0188 159.798 58.3931C159.798 57.7673 159.912 57.2158 160.14 56.7385C160.371 56.2586 160.691 55.8848 161.102 55.6169C161.516 55.3465 161.999 55.2113 162.55 55.2113C162.868 55.2113 163.182 55.2643 163.493 55.3704C163.803 55.4764 164.085 55.6488 164.34 55.8874C164.594 56.1234 164.797 56.4363 164.948 56.826C165.1 57.2158 165.175 57.6957 165.175 58.2658V58.6635H160.466V57.8522H164.221C164.221 57.5075 164.152 57.1999 164.014 56.9294C163.879 56.659 163.685 56.4455 163.433 56.2891C163.184 56.1327 162.889 56.0544 162.55 56.0544C162.176 56.0544 161.853 56.1473 161.58 56.3329C161.309 56.5158 161.101 56.7544 160.955 57.0488C160.809 57.3431 160.736 57.6586 160.736 57.9954V58.5363C160.736 58.9976 160.816 59.3887 160.975 59.7096C161.137 60.0277 161.361 60.2704 161.647 60.4374C161.934 60.6018 162.266 60.684 162.646 60.684C162.892 60.684 163.115 60.6495 163.314 60.5806C163.515 60.509 163.689 60.4029 163.835 60.2624C163.981 60.1192 164.093 59.9416 164.173 59.7294L165.08 59.984C164.984 60.2916 164.824 60.562 164.598 60.7954C164.373 61.026 164.095 61.2063 163.763 61.3363C163.432 61.4635 163.059 61.5272 162.646 61.5272ZM169.26 55.2908V56.0863H166.094V55.2908H169.26ZM167.017 53.8272H167.955V59.6499C167.955 59.9151 167.994 60.1139 168.071 60.2465C168.15 60.3764 168.251 60.4639 168.373 60.509C168.497 60.5514 168.629 60.5726 168.767 60.5726C168.87 60.5726 168.955 60.5673 169.021 60.5567C169.087 60.5435 169.14 60.5329 169.18 60.5249L169.371 61.3681C169.307 61.3919 169.219 61.4158 169.105 61.4397C168.991 61.4662 168.846 61.4794 168.671 61.4794C168.406 61.4794 168.146 61.4224 167.892 61.3084C167.64 61.1944 167.43 61.0207 167.263 60.7874C167.099 60.5541 167.017 60.2598 167.017 59.9044V53.8272ZM170.672 61.3999V55.2908H171.61V61.3999H170.672ZM171.149 54.2726C170.966 54.2726 170.808 54.2103 170.676 54.0857C170.546 53.9611 170.481 53.8113 170.481 53.6363C170.481 53.4613 170.546 53.3115 170.676 53.1868C170.808 53.0622 170.966 52.9999 171.149 52.9999C171.332 52.9999 171.488 53.0622 171.618 53.1868C171.751 53.3115 171.817 53.4613 171.817 53.6363C171.817 53.8113 171.751 53.9611 171.618 54.0857C171.488 54.2103 171.332 54.2726 171.149 54.2726ZM177.179 58.9022V55.2908H178.118V61.3999H177.179V60.3658H177.116C176.973 60.676 176.75 60.9399 176.448 61.1573C176.145 61.3721 175.764 61.4794 175.302 61.4794C174.92 61.4794 174.581 61.3959 174.284 61.2289C173.987 61.0592 173.754 60.8046 173.584 60.4652C173.414 60.1232 173.329 59.6923 173.329 59.1726V55.2908H174.268V59.109C174.268 59.5544 174.393 59.9098 174.642 60.1749C174.894 60.4401 175.215 60.5726 175.604 60.5726C175.838 60.5726 176.075 60.513 176.316 60.3937C176.56 60.2743 176.765 60.0914 176.929 59.8448C177.096 59.5982 177.179 59.284 177.179 58.9022ZM179.837 61.3999V55.2908H180.744V56.2454H180.824C180.951 55.9192 181.156 55.666 181.44 55.4857C181.724 55.3027 182.065 55.2113 182.462 55.2113C182.865 55.2113 183.201 55.3027 183.469 55.4857C183.739 55.666 183.95 55.9192 184.101 56.2454H184.165C184.321 55.9298 184.556 55.6793 184.869 55.4937C185.181 55.3054 185.557 55.2113 185.994 55.2113C186.54 55.2113 186.987 55.3823 187.334 55.7243C187.682 56.0637 187.855 56.5927 187.855 57.3113V61.3999H186.917V57.3113C186.917 56.8605 186.794 56.5383 186.547 56.3448C186.3 56.1512 186.01 56.0544 185.676 56.0544C185.246 56.0544 184.914 56.1844 184.678 56.4442C184.442 56.7014 184.324 57.0276 184.324 57.4226V61.3999H183.369V57.2158C183.369 56.8685 183.256 56.5887 183.031 56.3766C182.806 56.1618 182.515 56.0544 182.16 56.0544C181.916 56.0544 181.688 56.1194 181.476 56.2493C181.266 56.3793 181.097 56.5596 180.967 56.7902C180.84 57.0183 180.776 57.2821 180.776 57.5817V61.3999H179.837ZM190.972 60.2863L190.908 60.7158C190.863 61.0181 190.794 61.3416 190.701 61.6863C190.611 62.031 190.517 62.3558 190.419 62.6607C190.321 62.9656 190.24 63.2082 190.176 63.3885H189.46C189.495 63.2188 189.54 62.9948 189.596 62.7164C189.651 62.438 189.707 62.1264 189.763 61.7817C189.821 61.4397 189.869 61.0897 189.906 60.7317L189.953 60.2863H190.972ZM198.422 61.5272C197.833 61.5272 197.326 61.3973 196.899 61.1374C196.475 60.8749 196.147 60.509 195.916 60.0397C195.688 59.5677 195.574 59.0188 195.574 58.3931C195.574 57.7673 195.688 57.2158 195.916 56.7385C196.147 56.2586 196.468 55.8848 196.879 55.6169C197.293 55.3465 197.775 55.2113 198.327 55.2113C198.645 55.2113 198.959 55.2643 199.269 55.3704C199.579 55.4764 199.862 55.6488 200.116 55.8874C200.371 56.1234 200.574 56.4363 200.725 56.826C200.876 57.2158 200.952 57.6957 200.952 58.2658V58.6635H196.243V57.8522H199.997C199.997 57.5075 199.928 57.1999 199.79 56.9294C199.655 56.659 199.461 56.4455 199.21 56.2891C198.96 56.1327 198.666 56.0544 198.327 56.0544C197.953 56.0544 197.629 56.1473 197.356 56.3329C197.086 56.5158 196.878 56.7544 196.732 57.0488C196.586 57.3431 196.513 57.6586 196.513 57.9954V58.5363C196.513 58.9976 196.593 59.3887 196.752 59.7096C196.913 60.0277 197.137 60.2704 197.424 60.4374C197.71 60.6018 198.043 60.684 198.422 60.684C198.669 60.684 198.891 60.6495 199.09 60.5806C199.292 60.509 199.465 60.4029 199.611 60.2624C199.757 60.1192 199.87 59.9416 199.949 59.7294L200.856 59.984C200.761 60.2916 200.6 60.562 200.375 60.7954C200.15 61.026 199.871 61.2063 199.54 61.3363C199.208 61.4635 198.836 61.5272 198.422 61.5272ZM206.229 58.9022V55.2908H207.168V61.3999H206.229V60.3658H206.166C206.023 60.676 205.8 60.9399 205.498 61.1573C205.195 61.3721 204.814 61.4794 204.352 61.4794C203.97 61.4794 203.631 61.3959 203.334 61.2289C203.037 61.0592 202.804 60.8046 202.634 60.4652C202.464 60.1232 202.379 59.6923 202.379 59.1726V55.2908H203.318V59.109C203.318 59.5544 203.443 59.9098 203.692 60.1749C203.944 60.4401 204.265 60.5726 204.654 60.5726C204.888 60.5726 205.125 60.513 205.366 60.3937C205.61 60.2743 205.815 60.0914 205.979 59.8448C206.146 59.5982 206.229 59.284 206.229 58.9022ZM208.887 61.3999V55.2908H209.826V61.3999H208.887ZM209.365 54.2726C209.182 54.2726 209.024 54.2103 208.891 54.0857C208.761 53.9611 208.696 53.8113 208.696 53.6363C208.696 53.4613 208.761 53.3115 208.891 53.1868C209.024 53.0622 209.182 52.9999 209.365 52.9999C209.548 52.9999 209.704 53.0622 209.834 53.1868C209.966 53.3115 210.033 53.4613 210.033 53.6363C210.033 53.8113 209.966 53.9611 209.834 54.0857C209.704 54.2103 209.548 54.2726 209.365 54.2726ZM215.872 56.659L215.029 56.8976C214.976 56.7571 214.898 56.6205 214.795 56.488C214.694 56.3527 214.556 56.2414 214.381 56.1539C214.206 56.0664 213.982 56.0226 213.709 56.0226C213.335 56.0226 213.023 56.1088 212.774 56.2812C212.528 56.4508 212.404 56.6669 212.404 56.9294C212.404 57.1628 212.489 57.3471 212.659 57.4823C212.828 57.6175 213.094 57.7302 213.454 57.8204L214.361 58.0431C214.907 58.1757 215.314 58.3785 215.582 58.6516C215.85 58.9221 215.984 59.2707 215.984 59.6976C215.984 60.0476 215.883 60.3605 215.681 60.6363C215.483 60.912 215.204 61.1294 214.846 61.2885C214.488 61.4476 214.072 61.5272 213.597 61.5272C212.974 61.5272 212.459 61.3919 212.05 61.1215C211.642 60.851 211.383 60.456 211.275 59.9363L212.166 59.7135C212.25 60.0423 212.411 60.2889 212.647 60.4533C212.885 60.6177 213.197 60.6999 213.581 60.6999C214.019 60.6999 214.366 60.6071 214.624 60.4215C214.883 60.2332 215.013 60.0079 215.013 59.7454C215.013 59.5332 214.939 59.3556 214.791 59.2124C214.642 59.0666 214.414 58.9579 214.106 58.8863L213.088 58.6476C212.529 58.5151 212.118 58.3096 211.855 58.0312C211.596 57.7501 211.466 57.3988 211.466 56.9772C211.466 56.6325 211.562 56.3276 211.756 56.0624C211.952 55.7973 212.219 55.5891 212.555 55.438C212.895 55.2868 213.279 55.2113 213.709 55.2113C214.313 55.2113 214.788 55.3438 215.133 55.609C215.48 55.8741 215.727 56.2241 215.872 56.659ZM217.397 61.3999V55.2908H218.304V56.2454H218.383C218.51 55.9192 218.716 55.666 219 55.4857C219.283 55.3027 219.624 55.2113 220.022 55.2113C220.425 55.2113 220.76 55.3027 221.028 55.4857C221.298 55.666 221.509 55.9192 221.66 56.2454H221.724C221.88 55.9298 222.115 55.6793 222.428 55.4937C222.741 55.3054 223.116 55.2113 223.554 55.2113C224.1 55.2113 224.546 55.3823 224.894 55.7243C225.241 56.0637 225.415 56.5927 225.415 57.3113V61.3999H224.476V57.3113C224.476 56.8605 224.353 56.5383 224.106 56.3448C223.86 56.1512 223.569 56.0544 223.235 56.0544C222.806 56.0544 222.473 56.1844 222.237 56.4442C222.001 56.7014 221.883 57.0276 221.883 57.4226V61.3999H220.929V57.2158C220.929 56.8685 220.816 56.5887 220.59 56.3766C220.365 56.1618 220.075 56.0544 219.719 56.0544C219.475 56.0544 219.247 56.1194 219.035 56.2493C218.826 56.3793 218.656 56.5596 218.526 56.7902C218.399 57.0183 218.335 57.2821 218.335 57.5817V61.3999H217.397ZM229.613 61.5272C229.061 61.5272 228.577 61.3959 228.161 61.1334C227.748 60.8709 227.424 60.5037 227.191 60.0317C226.96 59.5598 226.845 59.0082 226.845 58.3772C226.845 57.7408 226.96 57.1853 227.191 56.7107C227.424 56.2361 227.748 55.8675 228.161 55.605C228.577 55.3425 229.061 55.2113 229.613 55.2113C230.164 55.2113 230.647 55.3425 231.061 55.605C231.477 55.8675 231.8 56.2361 232.031 56.7107C232.264 57.1853 232.381 57.7408 232.381 58.3772C232.381 59.0082 232.264 59.5598 232.031 60.0317C231.8 60.5037 231.477 60.8709 231.061 61.1334C230.647 61.3959 230.164 61.5272 229.613 61.5272ZM229.613 60.684C230.032 60.684 230.377 60.5766 230.647 60.3618C230.917 60.1471 231.118 59.8647 231.248 59.5147C231.377 59.1647 231.442 58.7855 231.442 58.3772C231.442 57.9688 231.377 57.5883 231.248 57.2357C231.118 56.883 230.917 56.598 230.647 56.3806C230.377 56.1632 230.032 56.0544 229.613 56.0544C229.194 56.0544 228.849 56.1632 228.579 56.3806C228.308 56.598 228.108 56.883 227.978 57.2357C227.848 57.5883 227.783 57.9688 227.783 58.3772C227.783 58.7855 227.848 59.1647 227.978 59.5147C228.108 59.8647 228.308 60.1471 228.579 60.3618C228.849 60.5766 229.194 60.684 229.613 60.684ZM236.121 61.5272C235.612 61.5272 235.162 61.3986 234.772 61.1414C234.383 60.8815 234.078 60.5156 233.858 60.0437C233.638 59.569 233.528 59.0082 233.528 58.3613C233.528 57.7196 233.638 57.1628 233.858 56.6908C234.078 56.2188 234.384 55.8543 234.776 55.5971C235.169 55.3399 235.622 55.2113 236.137 55.2113C236.534 55.2113 236.849 55.2776 237.079 55.4101C237.313 55.5401 237.49 55.6885 237.612 55.8556C237.737 56.02 237.834 56.1552 237.903 56.2613H237.982V53.2544H238.921V61.3999H238.014V60.4613H237.903C237.834 60.5726 237.735 60.7132 237.608 60.8829C237.481 61.0499 237.299 61.1997 237.063 61.3323C236.827 61.4622 236.513 61.5272 236.121 61.5272ZM236.248 60.684C236.624 60.684 236.943 60.5859 237.203 60.3897C237.462 60.1908 237.66 59.9164 237.795 59.5664C237.93 59.2137 237.998 58.8067 237.998 58.3454C237.998 57.8893 237.932 57.4902 237.799 57.1482C237.667 56.8035 237.47 56.5357 237.21 56.3448C236.951 56.1512 236.63 56.0544 236.248 56.0544C235.85 56.0544 235.519 56.1565 235.254 56.3607C234.991 56.5622 234.794 56.8366 234.661 57.184C234.531 57.5287 234.466 57.9158 234.466 58.3454C234.466 58.7802 234.532 59.1753 234.665 59.5306C234.8 59.8832 234.999 60.1643 235.262 60.3738C235.527 60.5806 235.856 60.684 236.248 60.684ZM246.227 61.5272C245.718 61.5272 245.268 61.3986 244.879 61.1414C244.489 60.8815 244.184 60.5156 243.964 60.0437C243.744 59.569 243.634 59.0082 243.634 58.3613C243.634 57.7196 243.744 57.1628 243.964 56.6908C244.184 56.2188 244.49 55.8543 244.883 55.5971C245.275 55.3399 245.728 55.2113 246.243 55.2113C246.641 55.2113 246.955 55.2776 247.185 55.4101C247.419 55.5401 247.596 55.6885 247.718 55.8556C247.843 56.02 247.94 56.1552 248.009 56.2613H248.088V53.2544H249.027V61.3999H248.12V60.4613H248.009C247.94 60.5726 247.842 60.7132 247.714 60.8829C247.587 61.0499 247.406 61.1997 247.17 61.3323C246.934 61.4622 246.619 61.5272 246.227 61.5272ZM246.354 60.684C246.731 60.684 247.049 60.5859 247.309 60.3897C247.569 60.1908 247.766 59.9164 247.901 59.5664C248.037 59.2137 248.104 58.8067 248.104 58.3454C248.104 57.8893 248.038 57.4902 247.905 57.1482C247.773 56.8035 247.577 56.5357 247.317 56.3448C247.057 56.1512 246.736 56.0544 246.354 56.0544C245.956 56.0544 245.625 56.1565 245.36 56.3607C245.097 56.5622 244.9 56.8366 244.767 57.184C244.637 57.5287 244.572 57.9158 244.572 58.3454C244.572 58.7802 244.639 59.1753 244.771 59.5306C244.906 59.8832 245.105 60.1643 245.368 60.3738C245.633 60.5806 245.962 60.684 246.354 60.684ZM250.876 61.3999V55.2908H251.815V61.3999H250.876ZM251.354 54.2726C251.171 54.2726 251.013 54.2103 250.88 54.0857C250.75 53.9611 250.685 53.8113 250.685 53.6363C250.685 53.4613 250.75 53.3115 250.88 53.1868C251.013 53.0622 251.171 52.9999 251.354 52.9999C251.537 52.9999 251.693 53.0622 251.823 53.1868C251.956 53.3115 252.022 53.4613 252.022 53.6363C252.022 53.8113 251.956 53.9611 251.823 54.0857C251.693 54.2103 251.537 54.2726 251.354 54.2726ZM255.332 61.5431C254.945 61.5431 254.593 61.4702 254.278 61.3243C253.962 61.1758 253.712 60.9624 253.526 60.684C253.341 60.4029 253.248 60.0635 253.248 59.6658C253.248 59.3158 253.317 59.0321 253.455 58.8147C253.593 58.5946 253.777 58.4223 254.007 58.2976C254.238 58.173 254.493 58.0802 254.771 58.0192C255.052 57.9556 255.335 57.9052 255.618 57.8681C255.989 57.8204 256.29 57.7846 256.521 57.7607C256.754 57.7342 256.924 57.6904 257.03 57.6294C257.139 57.5685 257.193 57.4624 257.193 57.3113V57.2794C257.193 56.887 257.086 56.5821 256.871 56.3647C256.659 56.1473 256.337 56.0385 255.905 56.0385C255.457 56.0385 255.105 56.1366 254.851 56.3329C254.596 56.5291 254.417 56.7385 254.314 56.9613L253.423 56.6431C253.582 56.2719 253.794 55.9829 254.059 55.776C254.327 55.5666 254.619 55.4207 254.934 55.3385C255.252 55.2537 255.565 55.2113 255.873 55.2113C256.069 55.2113 256.294 55.2351 256.549 55.2829C256.806 55.3279 257.054 55.4221 257.293 55.5652C257.534 55.7084 257.734 55.9245 257.893 56.2135C258.052 56.5026 258.132 56.8897 258.132 57.3749V61.3999H257.193V60.5726H257.146C257.082 60.7052 256.976 60.8471 256.827 60.9982C256.679 61.1493 256.481 61.2779 256.235 61.384C255.988 61.4901 255.687 61.5431 255.332 61.5431ZM255.475 60.6999C255.846 60.6999 256.159 60.627 256.414 60.4812C256.671 60.3353 256.864 60.1471 256.994 59.9164C257.127 59.6857 257.193 59.4431 257.193 59.1885V58.3294C257.154 58.3772 257.066 58.4209 256.931 58.4607C256.798 58.4978 256.644 58.531 256.469 58.5601C256.297 58.5866 256.129 58.6105 255.964 58.6317C255.803 58.6503 255.671 58.6662 255.571 58.6794C255.327 58.7113 255.099 58.763 254.886 58.8346C254.677 58.9035 254.507 59.0082 254.377 59.1488C254.25 59.2866 254.186 59.4749 254.186 59.7135C254.186 60.0397 254.307 60.2863 254.548 60.4533C254.792 60.6177 255.101 60.6999 255.475 60.6999ZM259.845 61.3999V55.2908H260.752V56.2454H260.831C260.959 55.9192 261.164 55.666 261.448 55.4857C261.732 55.3027 262.072 55.2113 262.47 55.2113C262.873 55.2113 263.209 55.3027 263.476 55.4857C263.747 55.666 263.958 55.9192 264.109 56.2454H264.172C264.329 55.9298 264.563 55.6793 264.876 55.4937C265.189 55.3054 265.564 55.2113 266.002 55.2113C266.548 55.2113 266.995 55.3823 267.342 55.7243C267.69 56.0637 267.863 56.5927 267.863 57.3113V61.3999H266.925V57.3113C266.925 56.8605 266.801 56.5383 266.555 56.3448C266.308 56.1512 266.018 56.0544 265.684 56.0544C265.254 56.0544 264.921 56.1844 264.685 56.4442C264.449 56.7014 264.331 57.0276 264.331 57.4226V61.3999H263.377V57.2158C263.377 56.8685 263.264 56.5887 263.039 56.3766C262.813 56.1618 262.523 56.0544 262.168 56.0544C261.924 56.0544 261.696 56.1194 261.484 56.2493C261.274 56.3793 261.105 56.5596 260.975 56.7902C260.847 57.0183 260.784 57.2821 260.784 57.5817V61.3999H259.845ZM275.291 61.5272C274.702 61.5272 274.194 61.3973 273.768 61.1374C273.343 60.8749 273.016 60.509 272.785 60.0397C272.557 59.5677 272.443 59.0188 272.443 58.3931C272.443 57.7673 272.557 57.2158 272.785 56.7385C273.016 56.2586 273.337 55.8848 273.748 55.6169C274.161 55.3465 274.644 55.2113 275.195 55.2113C275.514 55.2113 275.828 55.2643 276.138 55.3704C276.448 55.4764 276.731 55.6488 276.985 55.8874C277.24 56.1234 277.443 56.4363 277.594 56.826C277.745 57.2158 277.82 57.6957 277.82 58.2658V58.6635H273.111V57.8522H276.866C276.866 57.5075 276.797 57.1999 276.659 56.9294C276.524 56.659 276.33 56.4455 276.078 56.2891C275.829 56.1327 275.535 56.0544 275.195 56.0544C274.822 56.0544 274.498 56.1473 274.225 56.3329C273.954 56.5158 273.746 56.7544 273.601 57.0488C273.455 57.3431 273.382 57.6586 273.382 57.9954V58.5363C273.382 58.9976 273.461 59.3887 273.62 59.7096C273.782 60.0277 274.006 60.2704 274.293 60.4374C274.579 60.6018 274.912 60.684 275.291 60.684C275.537 60.684 275.76 60.6495 275.959 60.5806C276.161 60.509 276.334 60.4029 276.48 60.2624C276.626 60.1192 276.739 59.9416 276.818 59.7294L277.725 59.984C277.629 60.2916 277.469 60.562 277.244 60.7954C277.018 61.026 276.74 61.2063 276.408 61.3363C276.077 61.4635 275.704 61.5272 275.291 61.5272ZM283.098 58.9022V55.2908H284.037V61.3999H283.098V60.3658H283.035C282.891 60.676 282.669 60.9399 282.366 61.1573C282.064 61.3721 281.682 61.4794 281.221 61.4794C280.839 61.4794 280.5 61.3959 280.203 61.2289C279.906 61.0592 279.672 60.8046 279.503 60.4652C279.333 60.1232 279.248 59.6923 279.248 59.1726V55.2908H280.187V59.109C280.187 59.5544 280.312 59.9098 280.561 60.1749C280.813 60.4401 281.133 60.5726 281.523 60.5726C281.757 60.5726 281.994 60.513 282.235 60.3937C282.479 60.2743 282.683 60.0914 282.848 59.8448C283.015 59.5982 283.098 59.284 283.098 58.9022Z" fill="#344054"/>
<path d="M3.2126 1.0999H286.013V-0.300098H3.2126V1.0999ZM288.113 3.1999V65.5999H289.513V3.1999H288.113ZM286.013 67.6999H3.21259V69.0999H286.013V67.6999ZM1.1126 65.5999V3.1999H-0.287402V65.5999H1.1126ZM3.21259 67.6999C2.05279 67.6999 1.1126 66.7597 1.1126 65.5999H-0.287402C-0.287402 67.5329 1.27959 69.0999 3.21259 69.0999V67.6999ZM288.113 65.5999C288.113 66.7597 287.172 67.6999 286.013 67.6999V69.0999C287.946 69.0999 289.513 67.5329 289.513 65.5999H288.113ZM286.013 1.0999C287.172 1.0999 288.113 2.0401 288.113 3.1999H289.513C289.513 1.26691 287.946 -0.300098 286.013 -0.300098V1.0999ZM3.2126 -0.300098C1.2796 -0.300098 -0.287402 1.26691 -0.287402 3.1999H1.1126C1.1126 2.04011 2.0528 1.0999 3.2126 1.0999V-0.300098Z" fill="#98A2B3"/>
<rect x="0.412598" y="0.399902" width="288.4" height="16.8" fill="#E8178A" fill-opacity="0.24"/>
<rect x="0.412598" y="119" width="288.4" height="16.8" fill="#E8178A" fill-opacity="0.24"/>
<rect x="0.000488281" y="0.599854" width="17" height="136" fill="#E8178A" fill-opacity="0.24"/>
<rect x="271.988" y="0.599854" width="17" height="136" fill="#E8178A" fill-opacity="0.24"/>
<rect x="0.412695" y="39.5999" width="288.4" height="11.2" fill="#E8178A" fill-opacity="0.24"/>
</svg>
