<?xml version="1.0" encoding="UTF-8"?>
<svg width="424px" height="168px" viewBox="0 0 424 168" version="1.1" xmlns="http://www.w3.org/2000/svg" xmlns:xlink="http://www.w3.org/1999/xlink">
    <!-- Generator: Sketch 62 (91390) - https://sketch.com -->
    <title>logo_sgds</title>
    <desc>Created with Sketch.</desc>
    <g id="landing" stroke="none" stroke-width="1" fill="none" fill-rule="evenodd">
        <g id="Group-2-Copy-6" transform="translate(0.000000, 1.000000)">
            <g id="Group-24">
                <polygon id="Path-2" fill="#498FC6" fill-rule="nonzero" points="71.7669297 20.007319 75.7413759 22.1860956 23.8403054 115.745406 19.8658592 113.56663"></polygon>
                <polygon id="Path-3" fill="#498FC6" fill-rule="nonzero" points="23.8310103 53.0116618 75.7320808 144.736476 71.7762249 146.948433 19.8751543 55.2236191"></polygon>
                <polygon id="Path-4" fill="#498FC6" fill-rule="nonzero" points="136.161513 115.544116 136.161513 120.055985 22.6935855 120.055985 22.6935855 115.544116"></polygon>
                <path d="M66.624522,11.0069777 C66.624522,11.0069777 50.276891,26.158749 41.8850744,31.1864369 C33.493905,36.2134698 13.6581764,42.7396319 13.6581764,42.7396319 L18.966717,53.2003923 C18.966717,53.2003923 34.3631591,38.6190412 43.7061646,33.0209332 C53.0498173,27.4228251 71.9330626,21.4677381 71.9330626,21.4677381" id="Fill-1" fill="#404040"></path>
                <path d="M65.7139769,156.849433 C65.7139769,156.849433 49.3656988,141.697006 40.9745293,136.669973 C32.5833599,131.64294 12.7476314,125.116778 12.7476314,125.116778 L18.056172,114.656018 C18.056172,114.656018 33.4519669,129.237369 42.7956195,134.835477 C52.1392722,140.43293 71.0225175,146.388672 71.0225175,146.388672" id="Fill-3" fill="#404040"></path>
                <path d="M125.809953,117.407762 C125.809953,117.407762 109.462322,132.559456 101.070506,137.587222 C92.6793362,142.613678 72.8436077,149.140909 72.8436077,149.140909 L78.1521483,159.601177 C78.1521483,159.601177 93.5485903,145.019258 102.891596,139.421718 C112.235249,133.823523 131.118494,127.86803 131.118494,127.86803" id="Fill-5" fill="#404040"></path>
                <path d="M6.37381568,53.2003923 C6.37381568,53.2003923 11.8370863,75.1316006 11.8370863,85.3040773 C11.8370863,95.4758945 6.37381568,117.407762 6.37381568,117.407762 L20.0319921,117.407762 C20.0319921,117.407762 14.5687215,96.6301339 14.5687215,85.3040773 C14.5687215,73.9773612 20.0319921,53.2003923 20.0319921,53.2003923" id="Fill-7" fill="#404040"></path>
                <path d="M85.5912391,12.841474 C85.5912391,19.9338201 79.8834871,25.682948 72.8436077,25.682948 C65.8030909,25.682948 60.0959764,19.9338201 60.0959764,12.841474 C60.0959764,5.74976999 65.8030909,0 72.8436077,0 C79.8834871,0 85.5912391,5.74976999 85.5912391,12.841474" id="Fill-18" fill="#633AB3"></path>
                <path d="M25.4952627,48.6141516 C25.4952627,55.7058556 19.7875108,61.4556256 12.7476314,61.4556256 C5.70711456,61.4556256 0,55.7058556 0,48.6141516 C0,41.5218055 5.70711456,35.7726776 12.7476314,35.7726776 C19.7875108,35.7726776 25.4952627,41.5218055 25.4952627,48.6141516" id="Fill-21" fill="#E87714"></path>
                <path d="M85.5912391,154.097688 C85.5912391,161.189392 79.8834871,166.939162 72.8436077,166.939162 C65.8030909,166.939162 60.0959764,161.189392 60.0959764,154.097688 C60.0959764,147.005342 65.8030909,141.256214 72.8436077,141.256214 C79.8834871,141.256214 85.5912391,147.005342 85.5912391,154.097688" id="Fill-27" fill="#E87714"></path>
                <path d="M25.4952627,118.325011 C25.4952627,125.416715 19.7875108,131.166485 12.7476314,131.166485 C5.70711456,131.166485 0,125.416715 0,118.325011 C0,111.232664 5.70711456,105.483536 12.7476314,105.483536 C19.7875108,105.483536 25.4952627,111.232664 25.4952627,118.325011" id="Fill-30" fill="#633AB3"></path>
                <path d="M147.508306,118.325011 C147.508306,125.416715 141.800554,131.166485 134.760674,131.166485 C127.720157,131.166485 122.013043,125.416715 122.013043,118.325011 C122.013043,111.232664 127.720157,105.483536 134.760674,105.483536 C141.800554,105.483536 147.508306,111.232664 147.508306,118.325011" id="Fill-32" fill="#633AB3"></path>
            </g>
            <path d="M92.8708415,51 C93.8414873,51 94.7084149,50.8488919 95.4716243,50.5466756 C96.2348337,50.2444594 96.8767123,49.8294157 97.3972603,49.3015447 C97.9178082,48.7736736 98.3150685,48.1551377 98.5890411,47.4459369 C98.8630137,46.7367361 99,45.9751511 99,45.161182 C99,44.4278039 98.890411,43.8012089 98.6712329,43.2813969 C98.4520548,42.761585 98.1643836,42.3203492 97.8082192,41.9576897 C97.4520548,41.5950302 97.0450098,41.2968435 96.5870841,41.0631296 C96.1291585,40.8294157 95.6614481,40.6259234 95.183953,40.4526528 C94.7064579,40.2793821 94.2387476,40.1222297 93.7808219,39.9811954 C93.3228963,39.8401612 92.9158513,39.6850235 92.5596869,39.5157824 C92.2035225,39.3465413 91.9158513,39.1450638 91.6966732,38.9113499 C91.4774951,38.677636 91.3679061,38.3834788 91.3679061,38.0288784 C91.3679061,37.4728005 91.5499022,37.0315648 91.9138943,36.7051713 C92.2778865,36.3787777 92.8317025,36.2155809 93.5753425,36.2155809 C94.0058708,36.2155809 94.3894325,36.2740094 94.7260274,36.3908664 C95.0626223,36.5077233 95.3620352,36.6386837 95.6242661,36.7837475 C95.8864971,36.9288113 96.1213307,37.0597717 96.3287671,37.1766286 C96.5362035,37.2934856 96.7299413,37.351914 96.9099804,37.351914 C97.1135029,37.351914 97.2798434,37.3035594 97.409002,37.2068502 C97.5381605,37.110141 97.6614481,36.9650772 97.778865,36.7716588 L97.778865,36.7716588 L98.7651663,34.8737408 C98.4598826,34.5836132 98.1135029,34.3237072 97.7260274,34.0940228 C97.3385519,33.8643385 96.9217221,33.6668905 96.4755382,33.501679 C96.0293542,33.3364674 95.5577299,33.2115514 95.0606654,33.1269308 C94.5636008,33.0423103 94.0528376,33 93.5283757,33 C92.5890411,33 91.7553816,33.1470786 91.0273973,33.4412357 C90.2994129,33.7353929 89.6849315,34.128274 89.183953,34.6198791 C88.6829746,35.1114842 88.3033268,35.6715917 88.0450098,36.3002015 C87.7866928,36.9288113 87.6575342,37.5735393 87.6575342,38.2343855 C87.6575342,39.0564137 87.7671233,39.7474815 87.9863014,40.307589 C88.2054795,40.8676964 88.4931507,41.3351242 88.8493151,41.7098724 C89.2054795,42.0846206 89.6105675,42.3868368 90.0645793,42.6165212 C90.518591,42.8462055 90.9843444,43.0396239 91.4618395,43.1967764 C91.9393346,43.3539288 92.4050881,43.4969778 92.8590998,43.6259234 C93.3131115,43.754869 93.7181996,43.9039624 94.074364,44.0732035 C94.4305284,44.2424446 94.7181996,44.4560107 94.9373777,44.7139019 C95.1565558,44.9717931 95.2661448,45.3062458 95.2661448,45.7172599 C95.2661448,46.4264607 95.0665362,46.9442579 94.667319,47.2706514 C94.2681018,47.597045 93.7084149,47.7602418 92.9882583,47.7602418 C92.4559687,47.7602418 91.9941292,47.6836803 91.6027397,47.5305574 C91.2113503,47.3774345 90.8649706,47.2081934 90.5636008,47.0228341 C90.2622309,46.8374748 89.9921722,46.6682337 89.7534247,46.5151108 C89.5146771,46.3619879 89.2778865,46.2854265 89.0430528,46.2854265 C88.8630137,46.2854265 88.6947162,46.3297515 88.5381605,46.4184016 C88.3816047,46.5070517 88.260274,46.6239087 88.1741683,46.7689725 L88.1741683,46.7689725 L87,48.6789792 C87.3365949,49.0255205 87.7318982,49.3398254 88.18591,49.6218939 C88.6399217,49.9039624 89.1252446,50.1477502 89.6418787,50.3532572 C90.1585127,50.5587643 90.6927593,50.7179315 91.2446184,50.8307589 C91.7964775,50.9435863 92.3385519,51 92.8708415,51 Z M106,51 L106,33 L102,33 L102,51 L106,51 Z M113.514151,51 L113.514151,41.351407 C113.514151,41.0878518 113.506289,40.8057653 113.490566,40.5051476 C113.474843,40.2045299 113.455189,39.8977351 113.431604,39.5847632 L113.431604,39.5847632 L121.533019,50.3081675 C121.72956,50.5717227 121.933962,50.752917 122.146226,50.8517502 C122.358491,50.9505834 122.617925,51 122.924528,51 L122.924528,51 L125,51 L125,33 L121.485849,33 L121.485849,42.5250515 C121.485849,42.813315 121.493711,43.1201098 121.509434,43.4454358 C121.525157,43.7707618 121.548742,44.106383 121.580189,44.4522992 L121.580189,44.4522992 L113.419811,33.6424159 C113.309748,33.5024022 113.211478,33.3912148 113.125,33.3088538 C113.038522,33.2264928 112.948113,33.162663 112.853774,33.1173644 C112.759434,33.0720659 112.653302,33.0411805 112.535377,33.0247083 C112.417453,33.0082361 112.272013,33 112.099057,33 L112.099057,33 L110,33 L110,51 L113.514151,51 Z M136.073171,51 C136.796748,51 137.473577,50.963734 138.103659,50.8912021 C138.73374,50.8186702 139.327236,50.7058428 139.884146,50.5527199 C140.441057,50.399597 140.965447,50.2041639 141.457317,49.9664204 C141.949187,49.728677 142.422764,49.4445937 142.878049,49.1141706 L142.878049,49.1141706 L142.878049,41.6796508 L136.560976,41.6796508 L136.560976,43.9281397 C136.560976,44.1376763 136.634146,44.3109469 136.780488,44.4479516 C136.926829,44.5849563 137.130081,44.6534587 137.390244,44.6534587 L137.390244,44.6534587 L139.146341,44.6534587 L139.146341,47.3250504 C138.756098,47.4862324 138.341463,47.615178 137.902439,47.7118872 C137.463415,47.8085964 136.95935,47.856951 136.390244,47.856951 C135.642276,47.856951 134.953252,47.7259906 134.323171,47.4640698 C133.693089,47.2021491 133.148374,46.8213566 132.689024,46.3216924 C132.229675,45.8220282 131.869919,45.2095366 131.609756,44.4842176 C131.349593,43.7588986 131.219512,42.9288113 131.219512,41.9939557 C131.219512,41.1477502 131.337398,40.3801209 131.573171,39.6910678 C131.808943,39.0020148 132.144309,38.4116857 132.579268,37.9200806 C133.014228,37.4284755 133.54065,37.047683 134.158537,36.7777032 C134.776423,36.5077233 135.471545,36.3727334 136.243902,36.3727334 C136.658537,36.3727334 137.03252,36.3928811 137.365854,36.4331766 C137.699187,36.4734721 138.01626,36.5379449 138.317073,36.626595 C138.617886,36.7152451 138.912602,36.8300873 139.20122,36.9711216 C139.489837,37.1121558 139.796748,37.2793821 140.121951,37.4728005 C140.382114,37.6339825 140.634146,37.7145735 140.878049,37.7145735 C141.065041,37.7145735 141.237805,37.6662189 141.396341,37.5695097 C141.554878,37.4728005 141.691057,37.3398254 141.804878,37.1705843 L141.804878,37.1705843 L143,35.3693754 C142.642276,35.0308932 142.235772,34.7165883 141.780488,34.4264607 C141.325203,34.1363331 140.823171,33.886501 140.27439,33.6769644 C139.72561,33.4674278 139.126016,33.3022163 138.47561,33.1813298 C137.825203,33.0604433 137.130081,33 136.390244,33 C134.95935,33 133.664634,33.2216253 132.506098,33.6648758 C131.347561,34.1081263 130.359756,34.728677 129.542683,35.5265279 C128.72561,36.3243788 128.097561,37.2733378 127.658537,38.373405 C127.219512,39.4734721 127,40.6803224 127,41.9939557 C127,43.2834117 127.229675,44.4781733 127.689024,45.5782404 C128.148374,46.6783076 128.78252,47.6292814 129.591463,48.4311619 C130.400407,49.2330423 131.357724,49.8616521 132.463415,50.3169913 C133.569106,50.7723304 134.772358,51 136.073171,51 Z M147.223881,51 C147.565807,51 147.854817,50.9073439 148.090909,50.7220316 C148.327001,50.5367193 148.485753,50.3287577 148.567164,50.0981469 L148.567164,50.0981469 L149.617368,46.9601922 L156.382632,46.9601922 L157.432836,50.0981469 C157.522388,50.3617021 157.683175,50.5778998 157.915197,50.7467399 C158.147218,50.91558 158.442334,51 158.800543,51 L158.800543,51 L162,51 L155.112619,33 L150.887381,33 L144,51 L147.223881,51 Z M155,44 L150,44 L151.683417,39.3683333 C151.809045,39.0727778 151.943049,38.7227778 152.085427,38.3183333 C152.227806,37.9138889 152.365997,37.4744444 152.5,37 C152.642379,37.4666667 152.786851,37.9002778 152.933417,38.3008333 C153.079983,38.7013889 153.207705,39.0494444 153.316583,39.345 L153.316583,39.345 L155,44 Z M166.994545,51 L166.994545,44.9835278 L169.074545,44.9835278 C170.264242,44.9835278 171.294394,44.8332189 172.165,44.5326012 C173.035606,44.2319835 173.754545,43.8140014 174.321818,43.2786548 C174.889091,42.7433082 175.310606,42.1008922 175.586364,41.351407 C175.862121,40.6019218 176,39.7783116 176,38.8805765 C176,38.0487303 175.866061,37.2745367 175.598182,36.5579959 C175.330303,35.841455 174.914697,35.2196294 174.351364,34.6925189 C173.78803,34.1654084 173.071061,33.7515443 172.200455,33.4509266 C171.329848,33.1503089 170.287879,33 169.074545,33 L169.074545,33 L163,33 L163,51 L166.994545,51 Z M169.075472,42 L167,42 L167,36 L169.075472,36 C169.578616,36 170.012972,36.0692641 170.378538,36.2077922 C170.744104,36.3463203 171.046777,36.54329 171.286557,36.7987013 C171.526336,37.0541126 171.705189,37.3593074 171.823113,37.7142857 C171.941038,38.0692641 172,38.4632035 172,38.8961039 C172,39.8744589 171.772013,40.6363636 171.316038,41.1818182 C170.860063,41.7272727 170.113208,42 169.075472,42 L169.075472,42 Z M187.011889,51 C188.359313,51 189.585865,50.7703156 190.691546,50.3109469 C191.797226,49.8515782 192.742404,49.2169241 193.527081,48.4069846 C194.311757,47.597045 194.920079,46.6440564 195.352048,45.5480188 C195.784016,44.4519812 196,43.2672935 196,41.9939557 C196,40.728677 195.784016,39.5480188 195.352048,38.4519812 C194.920079,37.3559436 194.311757,36.4049698 193.527081,35.5990598 C192.742404,34.7931498 191.797226,34.1584956 190.691546,33.6950974 C189.585865,33.2316991 188.359313,33 187.011889,33 C185.664465,33 184.435931,33.2296844 183.326288,33.6890531 C182.216645,34.1484218 181.267503,34.7810611 180.478864,35.5869711 C179.690225,36.3928811 179.079921,37.3438549 178.647952,38.4398925 C178.215984,39.5359302 178,40.7206179 178,41.9939557 C178,43.2672935 178.215984,44.4519812 178.647952,45.5480188 C179.079921,46.6440564 179.690225,47.597045 180.478864,48.4069846 C181.267503,49.2169241 182.216645,49.8515782 183.326288,50.3109469 C184.435931,50.7703156 185.664465,51 187.011889,51 Z M187.012165,47 C186.217356,47 185.509732,46.8758065 184.889294,46.6274194 C184.268856,46.3790323 183.745742,46.0182796 183.319951,45.5451613 C182.894161,45.072043 182.567721,44.4944444 182.340633,43.8123656 C182.113544,43.1302867 182,42.3594982 182,41.5 C182,40.6483871 182.113544,39.8815412 182.340633,39.1994624 C182.567721,38.5173835 182.894161,37.9397849 183.319951,37.4666667 C183.745742,36.9935484 184.268856,36.6308244 184.889294,36.3784946 C185.509732,36.1261649 186.217356,36 187.012165,36 C187.798865,36 188.500406,36.1261649 189.116788,36.3784946 C189.733171,36.6308244 190.254258,36.9935484 190.680049,37.4666667 C191.105839,37.9397849 191.432279,38.5173835 191.659367,39.1994624 C191.886456,39.8815412 192,40.6483871 192,41.5 C192,42.3594982 191.886456,43.1302867 191.659367,43.8123656 C191.432279,44.4944444 191.105839,45.072043 190.680049,45.5451613 C190.254258,46.0182796 189.733171,46.3790323 189.116788,46.6274194 C188.500406,46.8758065 187.798865,47 187.012165,47 Z M201.969799,51 L201.969799,44.3411119 L202.979866,44.3411119 C203.285235,44.3411119 203.522092,44.3905285 203.690436,44.4893617 C203.858781,44.5881949 204.005593,44.752917 204.130872,44.9835278 L204.130872,44.9835278 L206.973154,50.2093342 C207.262864,50.7364447 207.740492,51 208.40604,51 L208.40604,51 L212,51 L208.35906,44.7364447 C208.186801,44.4399451 207.985179,44.188744 207.754195,43.9828415 C207.52321,43.7769389 207.274609,43.6039808 207.008389,43.4639671 C207.564318,43.2415923 208.055649,42.9574468 208.482383,42.6115305 C208.909116,42.2656143 209.269295,41.8723404 209.562919,41.431709 C209.856544,40.9910776 210.07774,40.5113246 210.22651,39.9924502 C210.37528,39.4735758 210.449664,38.921757 210.449664,38.3369938 C210.449664,37.5710364 210.324385,36.8627316 210.073826,36.2120796 C209.823266,35.5614276 209.42198,34.9972546 208.869966,34.5195607 C208.317953,34.0418668 207.605425,33.6691833 206.732383,33.40151 C205.85934,33.1338367 204.804251,33 203.567114,33 L203.567114,33 L198,33 L198,51 L201.969799,51 Z M203.734694,41 L202,41 L202,36 L203.734694,36 C204.848639,36 205.671344,36.2083333 206.202806,36.625 C206.734269,37.0416667 207,37.6203704 207,38.3611111 C207,38.7314815 206.940476,39.0767747 206.821429,39.3969907 C206.702381,39.7172068 206.511054,39.9969136 206.247449,40.2361111 C205.983844,40.4753086 205.645833,40.6624228 205.233418,40.7974537 C204.821003,40.9324846 204.321429,41 203.734694,41 L203.734694,41 Z M225,51 L225,47.7879204 L217.987207,47.7879204 L217.987207,43.5010295 L223.358209,43.5010295 L223.358209,40.4124914 L217.987207,40.4124914 L217.987207,36.2120796 L225,36.2120796 L225,33 L214,33 L214,51 L225,51 Z M241.073171,51 C241.796748,51 242.473577,50.963734 243.103659,50.8912021 C243.73374,50.8186702 244.327236,50.7058428 244.884146,50.5527199 C245.441057,50.399597 245.965447,50.2041639 246.457317,49.9664204 C246.949187,49.728677 247.422764,49.4445937 247.878049,49.1141706 L247.878049,49.1141706 L247.878049,41.6796508 L241.560976,41.6796508 L241.560976,43.9281397 C241.560976,44.1376763 241.634146,44.3109469 241.780488,44.4479516 C241.926829,44.5849563 242.130081,44.6534587 242.390244,44.6534587 L242.390244,44.6534587 L244.146341,44.6534587 L244.146341,47.3250504 C243.756098,47.4862324 243.341463,47.615178 242.902439,47.7118872 C242.463415,47.8085964 241.95935,47.856951 241.390244,47.856951 C240.642276,47.856951 239.953252,47.7259906 239.323171,47.4640698 C238.693089,47.2021491 238.148374,46.8213566 237.689024,46.3216924 C237.229675,45.8220282 236.869919,45.2095366 236.609756,44.4842176 C236.349593,43.7588986 236.219512,42.9288113 236.219512,41.9939557 C236.219512,41.1477502 236.337398,40.3801209 236.573171,39.6910678 C236.808943,39.0020148 237.144309,38.4116857 237.579268,37.9200806 C238.014228,37.4284755 238.54065,37.047683 239.158537,36.7777032 C239.776423,36.5077233 240.471545,36.3727334 241.243902,36.3727334 C241.658537,36.3727334 242.03252,36.3928811 242.365854,36.4331766 C242.699187,36.4734721 243.01626,36.5379449 243.317073,36.626595 C243.617886,36.7152451 243.912602,36.8300873 244.20122,36.9711216 C244.489837,37.1121558 244.796748,37.2793821 245.121951,37.4728005 C245.382114,37.6339825 245.634146,37.7145735 245.878049,37.7145735 C246.065041,37.7145735 246.237805,37.6662189 246.396341,37.5695097 C246.554878,37.4728005 246.691057,37.3398254 246.804878,37.1705843 L246.804878,37.1705843 L248,35.3693754 C247.642276,35.0308932 247.235772,34.7165883 246.780488,34.4264607 C246.325203,34.1363331 245.823171,33.886501 245.27439,33.6769644 C244.72561,33.4674278 244.126016,33.3022163 243.47561,33.1813298 C242.825203,33.0604433 242.130081,33 241.390244,33 C239.95935,33 238.664634,33.2216253 237.506098,33.6648758 C236.347561,34.1081263 235.359756,34.728677 234.542683,35.5265279 C233.72561,36.3243788 233.097561,37.2733378 232.658537,38.373405 C232.219512,39.4734721 232,40.6803224 232,41.9939557 C232,43.2834117 232.229675,44.4781733 232.689024,45.5782404 C233.148374,46.6783076 233.78252,47.6292814 234.591463,48.4311619 C235.400407,49.2330423 236.357724,49.8616521 237.463415,50.3169913 C238.569106,50.7723304 239.772358,51 241.073171,51 Z M259.011889,51 C260.359313,51 261.585865,50.7703156 262.691546,50.3109469 C263.797226,49.8515782 264.742404,49.2169241 265.527081,48.4069846 C266.311757,47.597045 266.920079,46.6440564 267.352048,45.5480188 C267.784016,44.4519812 268,43.2672935 268,41.9939557 C268,40.728677 267.784016,39.5480188 267.352048,38.4519812 C266.920079,37.3559436 266.311757,36.4049698 265.527081,35.5990598 C264.742404,34.7931498 263.797226,34.1584956 262.691546,33.6950974 C261.585865,33.2316991 260.359313,33 259.011889,33 C257.664465,33 256.435931,33.2296844 255.326288,33.6890531 C254.216645,34.1484218 253.267503,34.7810611 252.478864,35.5869711 C251.690225,36.3928811 251.079921,37.3438549 250.647952,38.4398925 C250.215984,39.5359302 250,40.7206179 250,41.9939557 C250,43.2672935 250.215984,44.4519812 250.647952,45.5480188 C251.079921,46.6440564 251.690225,47.597045 252.478864,48.4069846 C253.267503,49.2169241 254.216645,49.8515782 255.326288,50.3109469 C256.435931,50.7703156 257.664465,51 259.011889,51 Z M259.012165,47 C258.217356,47 257.509732,46.8758065 256.889294,46.6274194 C256.268856,46.3790323 255.745742,46.0182796 255.319951,45.5451613 C254.894161,45.072043 254.567721,44.4944444 254.340633,43.8123656 C254.113544,43.1302867 254,42.3594982 254,41.5 C254,40.6483871 254.113544,39.8815412 254.340633,39.1994624 C254.567721,38.5173835 254.894161,37.9397849 255.319951,37.4666667 C255.745742,36.9935484 256.268856,36.6308244 256.889294,36.3784946 C257.509732,36.1261649 258.217356,36 259.012165,36 C259.798865,36 260.500406,36.1261649 261.116788,36.3784946 C261.733171,36.6308244 262.254258,36.9935484 262.680049,37.4666667 C263.105839,37.9397849 263.432279,38.5173835 263.659367,39.1994624 C263.886456,39.8815412 264,40.6483871 264,41.5 C264,42.3594982 263.886456,43.1302867 263.659367,43.8123656 C263.432279,44.4944444 263.105839,45.072043 262.680049,45.5451613 C262.254258,46.0182796 261.733171,46.3790323 261.116788,46.6274194 C260.500406,46.8758065 259.798865,47 259.012165,47 Z M278.868385,51 L286,33 L282.654003,33 C282.312076,33 282.023066,33.0926561 281.786974,33.2779684 C281.550882,33.4632807 281.39213,33.6712423 281.310719,33.9018531 L281.310719,33.9018531 L277.891452,43.538092 C277.744912,43.9581332 277.596336,44.4152368 277.445726,44.9094029 C277.295115,45.403569 277.162822,45.9224434 277.048847,46.4660261 C276.910448,45.9224434 276.761872,45.403569 276.603121,44.9094029 C276.444369,44.4152368 276.287653,43.9581332 276.132972,43.538092 L276.132972,43.538092 L272.689281,33.9018531 C272.591588,33.6300618 272.428765,33.4118051 272.200814,33.247083 C271.972863,33.082361 271.679783,33 271.321574,33 L271.321574,33 L268,33 L275.131615,51 L278.868385,51 Z M298,51 L298,47.7879204 L290.987207,47.7879204 L290.987207,43.5010295 L296.358209,43.5010295 L296.358209,40.4124914 L290.987207,40.4124914 L290.987207,36.2120796 L298,36.2120796 L298,33 L287,33 L287,51 L298,51 Z M304.969799,51 L304.969799,44.3411119 L305.979866,44.3411119 C306.285235,44.3411119 306.522092,44.3905285 306.690436,44.4893617 C306.858781,44.5881949 307.005593,44.752917 307.130872,44.9835278 L307.130872,44.9835278 L309.973154,50.2093342 C310.262864,50.7364447 310.740492,51 311.40604,51 L311.40604,51 L315,51 L311.35906,44.7364447 C311.186801,44.4399451 310.985179,44.188744 310.754195,43.9828415 C310.52321,43.7769389 310.274609,43.6039808 310.008389,43.4639671 C310.564318,43.2415923 311.055649,42.9574468 311.482383,42.6115305 C311.909116,42.2656143 312.269295,41.8723404 312.562919,41.431709 C312.856544,40.9910776 313.07774,40.5113246 313.22651,39.9924502 C313.37528,39.4735758 313.449664,38.921757 313.449664,38.3369938 C313.449664,37.5710364 313.324385,36.8627316 313.073826,36.2120796 C312.823266,35.5614276 312.42198,34.9972546 311.869966,34.5195607 C311.317953,34.0418668 310.605425,33.6691833 309.732383,33.40151 C308.85934,33.1338367 307.804251,33 306.567114,33 L306.567114,33 L301,33 L301,51 L304.969799,51 Z M306.734694,41 L305,41 L305,36 L306.734694,36 C307.848639,36 308.671344,36.2083333 309.202806,36.625 C309.734269,37.0416667 310,37.6203704 310,38.3611111 C310,38.7314815 309.940476,39.0767747 309.821429,39.3969907 C309.702381,39.7172068 309.511054,39.9969136 309.247449,40.2361111 C308.983844,40.4753086 308.645833,40.6624228 308.233418,40.7974537 C307.821003,40.9324846 307.321429,41 306.734694,41 L306.734694,41 Z M320.514151,51 L320.514151,41.351407 C320.514151,41.0878518 320.506289,40.8057653 320.490566,40.5051476 C320.474843,40.2045299 320.455189,39.8977351 320.431604,39.5847632 L320.431604,39.5847632 L328.533019,50.3081675 C328.72956,50.5717227 328.933962,50.752917 329.146226,50.8517502 C329.358491,50.9505834 329.617925,51 329.924528,51 L329.924528,51 L332,51 L332,33 L328.485849,33 L328.485849,42.5250515 C328.485849,42.813315 328.493711,43.1201098 328.509434,43.4454358 C328.525157,43.7707618 328.548742,44.106383 328.580189,44.4522992 L328.580189,44.4522992 L320.419811,33.6424159 C320.309748,33.5024022 320.211478,33.3912148 320.125,33.3088538 C320.038522,33.2264928 319.948113,33.162663 319.853774,33.1173644 C319.759434,33.0720659 319.653302,33.0411805 319.535377,33.0247083 C319.417453,33.0082361 319.272013,33 319.099057,33 L319.099057,33 L317,33 L317,51 L320.514151,51 Z M339.456654,51 L339.456654,40.6472203 C339.456654,40.4083734 339.448921,40.1468771 339.433455,39.8627316 C339.417989,39.5785861 339.39479,39.2923816 339.363858,39.0041181 L339.363858,39.0041181 L343.864469,48.2697323 C344.003663,48.5579959 344.191188,48.7762526 344.427045,48.9245024 C344.662902,49.0727522 344.931624,49.1468771 345.233211,49.1468771 L345.233211,49.1468771 L345.766789,49.1468771 C346.068376,49.1468771 346.337098,49.0727522 346.572955,48.9245024 C346.808812,48.7762526 346.996337,48.5579959 347.135531,48.2697323 L347.135531,48.2697323 L351.612943,39.0164722 C351.566545,39.6012354 351.543346,40.1448181 351.543346,40.6472203 L351.543346,40.6472203 L351.543346,51 L355,51 L355,33 L352.007326,33 C351.8372,33 351.688339,33.0041181 351.560745,33.0123542 C351.43315,33.0205903 351.319088,33.0452986 351.218559,33.0864791 C351.11803,33.1276596 351.027167,33.1914894 350.945971,33.2779684 C350.864774,33.3644475 350.785511,33.48593 350.708181,33.6424159 L350.708181,33.6424159 L346.369963,42.7350721 C346.215303,43.05628 346.06451,43.3877831 345.917582,43.7295813 C345.770655,44.0713795 345.631461,44.4234729 345.5,44.7858614 C345.368539,44.431709 345.231278,44.0857927 345.088217,43.7481126 C344.945157,43.4104324 344.796296,43.0851064 344.641636,42.7721345 L344.641636,42.7721345 L340.291819,33.6424159 C340.214489,33.48593 340.135226,33.3644475 340.054029,33.2779684 C339.972833,33.1914894 339.88197,33.1276596 339.781441,33.0864791 C339.680912,33.0452986 339.56685,33.0205903 339.439255,33.0123542 C339.311661,33.0041181 339.1628,33 338.992674,33 L338.992674,33 L336,33 L336,51 L339.456654,51 Z M369,51 L369,47.7879204 L361.987207,47.7879204 L361.987207,43.5010295 L367.358209,43.5010295 L367.358209,40.4124914 L361.987207,40.4124914 L361.987207,36.2120796 L369,36.2120796 L369,33 L358,33 L358,51 L369,51 Z M375.514151,51 L375.514151,41.351407 C375.514151,41.0878518 375.506289,40.8057653 375.490566,40.5051476 C375.474843,40.2045299 375.455189,39.8977351 375.431604,39.5847632 L375.431604,39.5847632 L383.533019,50.3081675 C383.72956,50.5717227 383.933962,50.752917 384.146226,50.8517502 C384.358491,50.9505834 384.617925,51 384.924528,51 L384.924528,51 L387,51 L387,33 L383.485849,33 L383.485849,42.5250515 C383.485849,42.813315 383.493711,43.1201098 383.509434,43.4454358 C383.525157,43.7707618 383.548742,44.106383 383.580189,44.4522992 L383.580189,44.4522992 L375.419811,33.6424159 C375.309748,33.5024022 375.211478,33.3912148 375.125,33.3088538 C375.038522,33.2264928 374.948113,33.162663 374.853774,33.1173644 C374.759434,33.0720659 374.653302,33.0411805 374.535377,33.0247083 C374.417453,33.0082361 374.272013,33 374.099057,33 L374.099057,33 L372,33 L372,51 L375.514151,51 Z M398.043178,51 L398.043178,36.3109128 L403,36.3109128 L403,33 L389,33 L389,36.3109128 L393.956822,36.3109128 L393.956822,51 L398.043178,51 Z" id="SINGAPOREGOVERNMENT" fill="#404040" fill-rule="nonzero"></path>
            <path d="M97.5597579,89 C99.8744327,89 101.981467,88.6259437 103.880862,87.8778312 C105.780257,87.1297186 107.403933,86.0864791 108.751891,84.7481126 C110.099849,83.4097461 111.144856,81.8242965 111.886914,79.9917639 C112.628971,78.1592313 113,76.158545 113,73.9897049 C113,71.8345916 112.628971,69.8407687 111.886914,68.0082361 C111.144856,66.1757035 110.099849,64.5936857 108.751891,63.2621826 C107.403933,61.9306795 105.780257,60.8874399 103.880862,60.132464 C101.981467,59.377488 99.8744327,59 97.5597579,59 L97.5597579,59 L86,59 L86,89 L97.5597579,89 Z M97.6194969,84 L93,84 L93,64 L97.6194969,64 C98.9412998,64 100.120021,64.2312344 101.15566,64.6937033 C102.1913,65.1561722 103.066824,65.8178584 103.782233,66.678762 C104.497642,67.5396656 105.046122,68.5891142 105.427673,69.8271078 C105.809224,71.0651014 106,72.452508 106,73.9893276 C106,75.5403771 105.809224,76.9348986 105.427673,78.1728922 C105.046122,79.4108858 104.497642,80.4603344 103.782233,81.321238 C103.066824,82.1821416 102.1913,82.8438278 101.15566,83.3062967 C100.120021,83.7687656 98.9412998,84 97.6194969,84 L97.6194969,84 Z M136,89 L136,83.646534 L123.886994,83.646534 L123.886994,76.5017159 L133.164179,76.5017159 L133.164179,71.3541524 L123.886994,71.3541524 L123.886994,64.353466 L136,64.353466 L136,59 L117,59 L117,89 L136,89 Z M148.273973,90 C149.972603,90 151.489726,89.7397582 152.825342,89.2192747 C154.160959,88.6987911 155.284247,87.9839937 156.195205,87.0748825 C157.106164,86.1657712 157.80137,85.1005149 158.280822,83.8791135 C158.760274,82.6577121 159,81.3460936 159,79.9442579 C159,78.6812178 158.808219,77.6020819 158.424658,76.7068502 C158.041096,75.8116185 157.537671,75.0517126 156.914384,74.4271323 C156.291096,73.802552 155.578767,73.2890083 154.777397,72.886501 C153.976027,72.4839937 153.157534,72.1335348 152.321918,71.8351242 C151.486301,71.5367137 150.667808,71.2660622 149.866438,71.0231699 C149.065068,70.7802776 148.35274,70.513096 147.729452,70.2216253 C147.106164,69.9301545 146.60274,69.5831654 146.219178,69.1806582 C145.835616,68.7781509 145.643836,68.2715469 145.643836,67.6608462 C145.643836,66.7031565 145.962329,65.9432505 146.599315,65.3811283 C147.236301,64.819006 148.205479,64.5379449 149.506849,64.5379449 C150.260274,64.5379449 150.931507,64.6385717 151.520548,64.8398254 C152.109589,65.041079 152.633562,65.2666219 153.092466,65.516454 C153.55137,65.7662861 153.962329,65.991829 154.325342,66.1930826 C154.688356,66.3943362 155.027397,66.4949631 155.342466,66.4949631 C155.69863,66.4949631 155.989726,66.4116857 156.215753,66.245131 C156.441781,66.0785762 156.657534,65.8287441 156.863014,65.4956347 L156.863014,65.4956347 L158.589041,62.226998 C158.054795,61.7273338 157.44863,61.2797179 156.770548,60.8841504 C156.092466,60.4885829 155.363014,60.1485337 154.582192,59.8640027 C153.80137,59.5794717 152.976027,59.3643385 152.106164,59.2186031 C151.236301,59.0728677 150.342466,59 149.424658,59 C147.780822,59 146.321918,59.253302 145.047945,59.759906 C143.773973,60.26651 142.69863,60.9431386 141.821918,61.7897918 C140.945205,62.636445 140.280822,63.6010745 139.828767,64.6836803 C139.376712,65.7662861 139.150685,66.876651 139.150685,68.014775 C139.150685,69.4304903 139.342466,70.6206626 139.726027,71.5852921 C140.109589,72.5499216 140.613014,73.3549362 141.236301,74.0003358 C141.859589,74.6457354 142.568493,75.1662189 143.363014,75.5617864 C144.157534,75.9573539 144.972603,76.2904634 145.808219,76.5611148 C146.643836,76.8317663 147.458904,77.0781285 148.253425,77.3002015 C149.047945,77.5222745 149.756849,77.7790463 150.380137,78.0705171 C151.003425,78.3619879 151.506849,78.7297963 151.890411,79.1739422 C152.273973,79.6180882 152.465753,80.19409 152.465753,80.9019476 C152.465753,82.123349 152.116438,83.0151108 151.417808,83.577233 C150.719178,84.1393553 149.739726,84.4204164 148.479452,84.4204164 C147.547945,84.4204164 146.739726,84.2885606 146.054795,84.0248489 C145.369863,83.7611372 144.763699,83.4696664 144.236301,83.1504365 C143.708904,82.8312066 143.236301,82.5397358 142.818493,82.2760242 C142.400685,82.0123125 141.986301,81.8804567 141.575342,81.8804567 C141.260274,81.8804567 140.965753,81.9567943 140.691781,82.1094694 C140.417808,82.2621446 140.205479,82.4633983 140.054795,82.7132304 L140.054795,82.7132304 L138,86.0026864 C138.589041,86.5995075 139.280822,87.1408104 140.075342,87.626595 C140.869863,88.1123797 141.719178,88.5322364 142.623288,88.8861652 C143.527397,89.240094 144.462329,89.5142154 145.428082,89.7085292 C146.393836,89.9028431 147.342466,90 148.273973,90 Z M171,89 L171,59 L164,59 L164,89 L171,89 Z M190.310976,90 C191.532012,90 192.674162,89.937542 193.737424,89.8126259 C194.800686,89.6877099 195.80221,89.493396 196.741997,89.2296844 C197.681784,88.9659727 198.566692,88.6293933 199.396723,88.2199463 C200.226753,87.8104992 201.025915,87.3212447 201.794207,86.7521827 L201.794207,86.7521827 L201.794207,73.9482874 L191.134146,73.9482874 L191.134146,77.820685 C191.134146,78.1815536 191.257622,78.4799642 191.504573,78.7159167 C191.751524,78.9518693 192.094512,79.0698455 192.533537,79.0698455 L192.533537,79.0698455 L195.496951,79.0698455 L195.496951,83.6709201 C194.838415,83.9485113 194.13872,84.1705843 193.397866,84.337139 C192.657012,84.5036938 191.806402,84.5869711 190.846037,84.5869711 C189.583841,84.5869711 188.421113,84.3614283 187.357851,83.9103425 C186.294588,83.4592568 185.375381,82.8034475 184.600229,81.9429147 C183.825076,81.0823819 183.217988,80.0275353 182.778963,78.7783747 C182.339939,77.5292142 182.120427,76.0996194 182.120427,74.4895903 C182.120427,73.0322364 182.31936,71.7102082 182.717226,70.5235057 C183.115091,69.3368032 183.681021,68.3201254 184.415015,67.4734721 C185.149009,66.6268189 186.037348,65.9710096 187.08003,65.5060443 C188.122713,65.041079 189.295732,64.8085964 190.599085,64.8085964 C191.29878,64.8085964 191.929878,64.8432953 192.492378,64.9126931 C193.054878,64.9820909 193.589939,65.0931274 194.097561,65.2458026 C194.605183,65.3984777 195.102515,65.5962615 195.589558,65.8391538 C196.076601,66.0820461 196.594512,66.370047 197.143293,66.7031565 C197.582317,66.9807477 198.007622,67.1195433 198.419207,67.1195433 C198.734756,67.1195433 199.026296,67.036266 199.293826,66.8697112 C199.561357,66.7031565 199.791159,66.4741437 199.983232,66.1826729 L199.983232,66.1826729 L202,63.080591 C201.396341,62.4976494 200.710366,61.9563465 199.942073,61.4566823 C199.17378,60.9570181 198.326601,60.5267517 197.400534,60.1658831 C196.474466,59.8050146 195.462652,59.5204835 194.365091,59.3122901 C193.26753,59.1040967 192.094512,59 190.846037,59 C188.431402,59 186.24657,59.3816879 184.29154,60.1450638 C182.336509,60.9084397 180.669588,61.9771659 179.290777,63.3512424 C177.911966,64.725319 176.852134,66.3596373 176.11128,68.2541974 C175.370427,70.1487576 175,72.2272218 175,74.4895903 C175,76.7103201 175.387576,78.7679651 176.162729,80.6625252 C176.937881,82.5570853 178.008003,84.1948735 179.373095,85.5758899 C180.738186,86.9569062 182.353659,88.039512 184.219512,88.8237072 C186.085366,89.6079024 188.115854,90 190.310976,90 Z M212.091195,89 L212.091195,72.9190117 C212.091195,72.4797529 212.077568,72.0096088 212.050314,71.5085793 C212.023061,71.0075498 211.988994,70.4962251 211.948113,69.9746054 L211.948113,69.9746054 L225.990566,87.8469458 C226.331237,88.2862045 226.685535,88.5881949 227.053459,88.752917 C227.421384,88.917639 227.871069,89 228.402516,89 L228.402516,89 L232,89 L232,59 L225.908805,59 L225.908805,74.8750858 C225.908805,75.3555251 225.922432,75.8668497 225.949686,76.4090597 C225.976939,76.9512697 226.01782,77.5106383 226.072327,78.0871654 L226.072327,78.0871654 L211.927673,60.0706932 C211.736897,59.837337 211.566562,59.6520247 211.416667,59.5147563 C211.266771,59.377488 211.110063,59.271105 210.946541,59.1956074 C210.783019,59.1201098 210.599057,59.0686342 210.394654,59.0411805 C210.190252,59.0137268 209.938155,59 209.638365,59 L209.638365,59 L206,59 L206,89 L212.091195,89 Z M254.273973,90 C255.972603,90 257.489726,89.7397582 258.825342,89.2192747 C260.160959,88.6987911 261.284247,87.9839937 262.195205,87.0748825 C263.106164,86.1657712 263.80137,85.1005149 264.280822,83.8791135 C264.760274,82.6577121 265,81.3460936 265,79.9442579 C265,78.6812178 264.808219,77.6020819 264.424658,76.7068502 C264.041096,75.8116185 263.537671,75.0517126 262.914384,74.4271323 C262.291096,73.802552 261.578767,73.2890083 260.777397,72.886501 C259.976027,72.4839937 259.157534,72.1335348 258.321918,71.8351242 C257.486301,71.5367137 256.667808,71.2660622 255.866438,71.0231699 C255.065068,70.7802776 254.35274,70.513096 253.729452,70.2216253 C253.106164,69.9301545 252.60274,69.5831654 252.219178,69.1806582 C251.835616,68.7781509 251.643836,68.2715469 251.643836,67.6608462 C251.643836,66.7031565 251.962329,65.9432505 252.599315,65.3811283 C253.236301,64.819006 254.205479,64.5379449 255.506849,64.5379449 C256.260274,64.5379449 256.931507,64.6385717 257.520548,64.8398254 C258.109589,65.041079 258.633562,65.2666219 259.092466,65.516454 C259.55137,65.7662861 259.962329,65.991829 260.325342,66.1930826 C260.688356,66.3943362 261.027397,66.4949631 261.342466,66.4949631 C261.69863,66.4949631 261.989726,66.4116857 262.215753,66.245131 C262.441781,66.0785762 262.657534,65.8287441 262.863014,65.4956347 L262.863014,65.4956347 L264.589041,62.226998 C264.054795,61.7273338 263.44863,61.2797179 262.770548,60.8841504 C262.092466,60.4885829 261.363014,60.1485337 260.582192,59.8640027 C259.80137,59.5794717 258.976027,59.3643385 258.106164,59.2186031 C257.236301,59.0728677 256.342466,59 255.424658,59 C253.780822,59 252.321918,59.253302 251.047945,59.759906 C249.773973,60.26651 248.69863,60.9431386 247.821918,61.7897918 C246.945205,62.636445 246.280822,63.6010745 245.828767,64.6836803 C245.376712,65.7662861 245.150685,66.876651 245.150685,68.014775 C245.150685,69.4304903 245.342466,70.6206626 245.726027,71.5852921 C246.109589,72.5499216 246.613014,73.3549362 247.236301,74.0003358 C247.859589,74.6457354 248.568493,75.1662189 249.363014,75.5617864 C250.157534,75.9573539 250.972603,76.2904634 251.808219,76.5611148 C252.643836,76.8317663 253.458904,77.0781285 254.253425,77.3002015 C255.047945,77.5222745 255.756849,77.7790463 256.380137,78.0705171 C257.003425,78.3619879 257.506849,78.7297963 257.890411,79.1739422 C258.273973,79.6180882 258.465753,80.19409 258.465753,80.9019476 C258.465753,82.123349 258.116438,83.0151108 257.417808,83.577233 C256.719178,84.1393553 255.739726,84.4204164 254.479452,84.4204164 C253.547945,84.4204164 252.739726,84.2885606 252.054795,84.0248489 C251.369863,83.7611372 250.763699,83.4696664 250.236301,83.1504365 C249.708904,82.8312066 249.236301,82.5397358 248.818493,82.2760242 C248.400685,82.0123125 247.986301,81.8804567 247.575342,81.8804567 C247.260274,81.8804567 246.965753,81.9567943 246.691781,82.1094694 C246.417808,82.2621446 246.205479,82.4633983 246.054795,82.7132304 L246.054795,82.7132304 L244,86.0026864 C244.589041,86.5995075 245.280822,87.1408104 246.075342,87.626595 C246.869863,88.1123797 247.719178,88.5322364 248.623288,88.8861652 C249.527397,89.240094 250.462329,89.5142154 251.428082,89.7085292 C252.393836,89.9028431 253.342466,90 254.273973,90 Z M283.394548,89 L283.394548,77.5929993 L294,59 L287.974175,59 C287.69297,59 287.435198,59.0446122 287.200861,59.1338367 C286.966523,59.2230611 286.758967,59.3397392 286.578192,59.483871 C286.397418,59.6280027 286.236729,59.7892931 286.096126,59.9677419 C285.955524,60.1461908 285.84505,60.3246397 285.764706,60.5030885 L285.764706,60.5030885 L281.667145,69.2333562 C281.345768,69.919698 281.044476,70.5579959 280.763271,71.1482498 C280.482066,71.7385038 280.241033,72.3287577 280.040172,72.9190117 C279.825921,72.3424846 279.578192,71.759094 279.296987,71.1688401 C279.015782,70.5785861 278.707795,69.9334248 278.373027,69.2333562 L278.373027,69.2333562 L274.235294,60.5030885 C274.021043,60.0638298 273.739837,59.7035003 273.391679,59.4221002 C273.04352,59.1407001 272.574845,59 271.985653,59 L271.985653,59 L266,59 L276.605452,77.5929993 L276.605452,89 L283.394548,89 Z M304.273973,90 C305.972603,90 307.489726,89.7397582 308.825342,89.2192747 C310.160959,88.6987911 311.284247,87.9839937 312.195205,87.0748825 C313.106164,86.1657712 313.80137,85.1005149 314.280822,83.8791135 C314.760274,82.6577121 315,81.3460936 315,79.9442579 C315,78.6812178 314.808219,77.6020819 314.424658,76.7068502 C314.041096,75.8116185 313.537671,75.0517126 312.914384,74.4271323 C312.291096,73.802552 311.578767,73.2890083 310.777397,72.886501 C309.976027,72.4839937 309.157534,72.1335348 308.321918,71.8351242 C307.486301,71.5367137 306.667808,71.2660622 305.866438,71.0231699 C305.065068,70.7802776 304.35274,70.513096 303.729452,70.2216253 C303.106164,69.9301545 302.60274,69.5831654 302.219178,69.1806582 C301.835616,68.7781509 301.643836,68.2715469 301.643836,67.6608462 C301.643836,66.7031565 301.962329,65.9432505 302.599315,65.3811283 C303.236301,64.819006 304.205479,64.5379449 305.506849,64.5379449 C306.260274,64.5379449 306.931507,64.6385717 307.520548,64.8398254 C308.109589,65.041079 308.633562,65.2666219 309.092466,65.516454 C309.55137,65.7662861 309.962329,65.991829 310.325342,66.1930826 C310.688356,66.3943362 311.027397,66.4949631 311.342466,66.4949631 C311.69863,66.4949631 311.989726,66.4116857 312.215753,66.245131 C312.441781,66.0785762 312.657534,65.8287441 312.863014,65.4956347 L312.863014,65.4956347 L314.589041,62.226998 C314.054795,61.7273338 313.44863,61.2797179 312.770548,60.8841504 C312.092466,60.4885829 311.363014,60.1485337 310.582192,59.8640027 C309.80137,59.5794717 308.976027,59.3643385 308.106164,59.2186031 C307.236301,59.0728677 306.342466,59 305.424658,59 C303.780822,59 302.321918,59.253302 301.047945,59.759906 C299.773973,60.26651 298.69863,60.9431386 297.821918,61.7897918 C296.945205,62.636445 296.280822,63.6010745 295.828767,64.6836803 C295.376712,65.7662861 295.150685,66.876651 295.150685,68.014775 C295.150685,69.4304903 295.342466,70.6206626 295.726027,71.5852921 C296.109589,72.5499216 296.613014,73.3549362 297.236301,74.0003358 C297.859589,74.6457354 298.568493,75.1662189 299.363014,75.5617864 C300.157534,75.9573539 300.972603,76.2904634 301.808219,76.5611148 C302.643836,76.8317663 303.458904,77.0781285 304.253425,77.3002015 C305.047945,77.5222745 305.756849,77.7790463 306.380137,78.0705171 C307.003425,78.3619879 307.506849,78.7297963 307.890411,79.1739422 C308.273973,79.6180882 308.465753,80.19409 308.465753,80.9019476 C308.465753,82.123349 308.116438,83.0151108 307.417808,83.577233 C306.719178,84.1393553 305.739726,84.4204164 304.479452,84.4204164 C303.547945,84.4204164 302.739726,84.2885606 302.054795,84.0248489 C301.369863,83.7611372 300.763699,83.4696664 300.236301,83.1504365 C299.708904,82.8312066 299.236301,82.5397358 298.818493,82.2760242 C298.400685,82.0123125 297.986301,81.8804567 297.575342,81.8804567 C297.260274,81.8804567 296.965753,81.9567943 296.691781,82.1094694 C296.417808,82.2621446 296.205479,82.4633983 296.054795,82.7132304 L296.054795,82.7132304 L294,86.0026864 C294.589041,86.5995075 295.280822,87.1408104 296.075342,87.626595 C296.869863,88.1123797 297.719178,88.5322364 298.623288,88.8861652 C299.527397,89.240094 300.462329,89.5142154 301.428082,89.7085292 C302.393836,89.9028431 303.342466,90 304.273973,90 Z M331.856649,89 L331.856649,64.5181881 L340,64.5181881 L340,59 L317,59 L317,64.5181881 L325.143351,64.5181881 L325.143351,89 L331.856649,89 Z M363,89 L363,83.646534 L350.886994,83.646534 L350.886994,76.5017159 L360.164179,76.5017159 L360.164179,71.3541524 L350.886994,71.3541524 L350.886994,64.353466 L363,64.353466 L363,59 L344,59 L344,89 L363,89 Z M374.003663,89 L374.003663,71.7453672 C374.003663,71.3472889 373.990232,70.9114619 373.96337,70.4378861 C373.936508,69.9643102 373.896215,69.4873027 373.842491,69.0068634 L373.842491,69.0068634 L381.659341,84.4495539 C381.901099,84.9299931 382.226801,85.2937543 382.636447,85.5408373 C383.046093,85.7879204 383.512821,85.9114619 384.03663,85.9114619 L384.03663,85.9114619 L384.96337,85.9114619 C385.487179,85.9114619 385.953907,85.7879204 386.363553,85.5408373 C386.773199,85.2937543 387.098901,84.9299931 387.340659,84.4495539 L387.340659,84.4495539 L395.117216,69.0274537 C395.03663,70.002059 394.996337,70.9080302 394.996337,71.7453672 L394.996337,71.7453672 L394.996337,89 L401,89 L401,59 L395.802198,59 C395.506716,59 395.248168,59.0068634 395.026557,59.0205903 C394.804945,59.0343171 394.606838,59.0754976 394.432234,59.1441318 C394.257631,59.212766 394.099817,59.3191489 393.958791,59.4632807 C393.817766,59.6074125 393.680098,59.8098833 393.545788,60.0706932 L393.545788,60.0706932 L386.010989,75.2251201 C385.742369,75.7604667 385.480464,76.3129719 385.225275,76.8826356 C384.970085,77.4522992 384.728327,78.0391215 384.5,78.6431023 C384.271673,78.0528483 384.033272,77.4763212 383.784799,76.9135209 C383.536325,76.3507207 383.277778,75.8085106 383.009158,75.2868909 L383.009158,75.2868909 L375.454212,60.0706932 C375.319902,59.8098833 375.182234,59.6074125 375.041209,59.4632807 C374.900183,59.3191489 374.742369,59.212766 374.567766,59.1441318 C374.393162,59.0754976 374.195055,59.0343171 373.973443,59.0205903 C373.751832,59.0068634 373.493284,59 373.197802,59 L373.197802,59 L368,59 L368,89 L374.003663,89 Z" id="DESIGNSYSTEM" fill="#404040" fill-rule="nonzero"></path>
        </g>
    </g>
</svg>