<svg width="173" height="265" viewBox="0 0 173 265" fill="none" xmlns="http://www.w3.org/2000/svg">
<g filter="url(#filter0_dd_9120_3210)">
<rect width="166.695" height="259" transform="translate(3 2)" fill="white"/>
<path d="M4.20794 47.6635V18H1.79206V47.6635H4.20794Z" fill="#5925DC" mask="url(#path-1-inside-1_9120_3210)"/>
<path d="M4.20794 47.6635V18H1.79206V47.6635H4.20794Z" fill="#5925DC" mask="url(#path-3-inside-2_9120_3210)"/>
<path d="M13.2749 28.8001H15.1074L17.0428 33.5221H17.1252L19.0606 28.8001H20.8931V35.8281H19.4519V31.2537H19.3935L17.5747 35.7938H16.5933L14.7745 31.2366H14.7162V35.8281H13.2749V28.8001ZM24.4921 35.9311C23.9499 35.9311 23.4832 35.8213 23.092 35.6016C22.703 35.3797 22.4033 35.0663 22.1929 34.6614C21.9824 34.2541 21.8772 33.7726 21.8772 33.2166C21.8772 32.6744 21.9824 32.1986 22.1929 31.7891C22.4033 31.3796 22.6996 31.0604 23.0817 30.8317C23.466 30.6029 23.9167 30.4885 24.4337 30.4885C24.7815 30.4885 25.1052 30.5445 25.4049 30.6566C25.7069 30.7665 25.97 30.9323 26.1942 31.1542C26.4207 31.3761 26.5968 31.6552 26.7226 31.9915C26.8485 32.3256 26.9114 32.7168 26.9114 33.1652V33.5667H22.4605V32.6607H25.5353C25.5353 32.4502 25.4895 32.2638 25.398 32.1014C25.3065 31.9389 25.1795 31.812 25.0171 31.7204C24.857 31.6267 24.6705 31.5798 24.4578 31.5798C24.2358 31.5798 24.0391 31.6312 23.8675 31.7342C23.6982 31.8348 23.5655 31.971 23.4694 32.1425C23.3734 32.3118 23.3242 32.5006 23.3219 32.7088V33.5701C23.3219 33.8309 23.3699 34.0563 23.466 34.2461C23.5644 34.436 23.7028 34.5824 23.8812 34.6854C24.0597 34.7883 24.2713 34.8398 24.5161 34.8398C24.6785 34.8398 24.8272 34.8169 24.9622 34.7712C25.0972 34.7254 25.2127 34.6568 25.3088 34.5653C25.4049 34.4738 25.4781 34.3617 25.5284 34.229L26.8805 34.3182C26.8119 34.6431 26.6712 34.9267 26.4584 35.1692C26.2479 35.4095 25.9757 35.5971 25.6417 35.732C25.3099 35.8647 24.9267 35.9311 24.4921 35.9311ZM29.3273 32.7808V35.8281H27.8654V30.5571H29.2586V31.4871H29.3204C29.4371 31.1805 29.6327 30.938 29.9072 30.7596C30.1817 30.5789 30.5146 30.4885 30.9058 30.4885C31.2719 30.4885 31.591 30.5686 31.8632 30.7287C32.1355 30.8888 32.3471 31.1176 32.4981 31.415C32.6491 31.7102 32.7246 32.0625 32.7246 32.472V35.8281H31.2627V32.7328C31.265 32.4102 31.1826 32.1586 31.0156 31.9778C30.8486 31.7948 30.6187 31.7033 30.3259 31.7033C30.1291 31.7033 29.9552 31.7456 29.8043 31.8303C29.6556 31.9149 29.5389 32.0384 29.4542 32.2009C29.3719 32.361 29.3295 32.5543 29.3273 32.7808ZM37.2569 33.5838V30.5571H38.7188V35.8281H37.3153V34.8707H37.2604C37.1414 35.1795 36.9435 35.4278 36.6667 35.6154C36.3922 35.803 36.057 35.8968 35.6612 35.8968C35.3089 35.8968 34.9989 35.8167 34.7312 35.6565C34.4636 35.4964 34.2542 35.2688 34.1032 34.9736C33.9545 34.6785 33.879 34.3251 33.8768 33.9133V30.5571H35.3386V33.6525C35.3409 33.9636 35.4244 34.2095 35.5891 34.3903C35.7539 34.571 35.9746 34.6614 36.2515 34.6614C36.4276 34.6614 36.5923 34.6213 36.7456 34.5413C36.8989 34.4589 37.0224 34.3376 37.1162 34.1775C37.2123 34.0174 37.2592 33.8195 37.2569 33.5838ZM43.6381 28.8001V35.8281H42.1522V28.8001H43.6381ZM47.6368 30.5571V31.6552H44.4625V30.5571H47.6368ZM45.1832 29.2943H46.645V34.2084C46.645 34.3434 46.6656 34.4486 46.7068 34.5241C46.748 34.5973 46.8052 34.6488 46.8784 34.6785C46.9539 34.7083 47.0408 34.7231 47.1392 34.7231C47.2078 34.7231 47.2765 34.7174 47.3451 34.706C47.4137 34.6923 47.4663 34.682 47.5029 34.6751L47.7329 35.7629C47.6597 35.7858 47.5567 35.8121 47.424 35.8419C47.2913 35.8739 47.13 35.8933 46.9402 35.9002C46.5878 35.9139 46.279 35.867 46.0136 35.7595C45.7505 35.652 45.5458 35.485 45.3994 35.2585C45.2529 35.032 45.1809 34.746 45.1832 34.4006V29.2943ZM50.9346 35.9311C50.3924 35.9311 49.9257 35.8213 49.5345 35.6016C49.1456 35.3797 48.8459 35.0663 48.6354 34.6614C48.4249 34.2541 48.3197 33.7726 48.3197 33.2166C48.3197 32.6744 48.4249 32.1986 48.6354 31.7891C48.8459 31.3796 49.1421 31.0604 49.5242 30.8317C49.9085 30.6029 50.3592 30.4885 50.8763 30.4885C51.224 30.4885 51.5477 30.5445 51.8474 30.6566C52.1494 30.7665 52.4125 30.9323 52.6367 31.1542C52.8632 31.3761 53.0393 31.6552 53.1652 31.9915C53.291 32.3256 53.3539 32.7168 53.3539 33.1652V33.5667H48.9031V32.6607H51.9778C51.9778 32.4502 51.9321 32.2638 51.8405 32.1014C51.749 31.9389 51.6221 31.812 51.4596 31.7204C51.2995 31.6267 51.113 31.5798 50.9003 31.5798C50.6784 31.5798 50.4816 31.6312 50.31 31.7342C50.1407 31.8348 50.008 31.971 49.912 32.1425C49.8159 32.3118 49.7667 32.5006 49.7644 32.7088V33.5701C49.7644 33.8309 49.8124 34.0563 49.9085 34.2461C50.0069 34.436 50.1453 34.5824 50.3238 34.6854C50.5022 34.7883 50.7138 34.8398 50.9586 34.8398C51.121 34.8398 51.2697 34.8169 51.4047 34.7712C51.5397 34.7254 51.6552 34.6568 51.7513 34.5653C51.8474 34.4738 51.9206 34.3617 51.9709 34.229L53.323 34.3182C53.2544 34.6431 53.1137 34.9267 52.9009 35.1692C52.6904 35.4095 52.4182 35.5971 52.0842 35.732C51.7525 35.8647 51.3693 35.9311 50.9346 35.9311ZM54.3079 35.8281V30.5571H55.7011V31.4871H55.7629C55.8727 31.1783 56.0557 30.9346 56.312 30.7562C56.5682 30.5777 56.8748 30.4885 57.2317 30.4885C57.5931 30.4885 57.9008 30.5789 58.1548 30.7596C58.4087 30.938 58.578 31.1805 58.6627 31.4871H58.7176C58.8251 31.1851 59.0195 30.9438 59.3009 30.763C59.5846 30.58 59.9198 30.4885 60.3064 30.4885C60.7983 30.4885 61.1975 30.6452 61.5041 30.9586C61.8129 31.2698 61.9673 31.7113 61.9673 32.2832V35.8281H60.5089V32.5715C60.5089 32.2787 60.4311 32.059 60.2755 31.9126C60.12 31.7662 59.9255 31.693 59.6921 31.693C59.4268 31.693 59.2197 31.7776 59.071 31.9469C58.9223 32.1139 58.848 32.3347 58.848 32.6092V35.8281H57.4307V32.5406C57.4307 32.2821 57.3563 32.0762 57.2076 31.9229C57.0612 31.7696 56.8679 31.693 56.6277 31.693C56.4653 31.693 56.3188 31.7342 56.1884 31.8165C56.0603 31.8966 55.9585 32.0099 55.883 32.1563C55.8075 32.3004 55.7698 32.4697 55.7698 32.6642V35.8281H54.3079ZM68.4025 28.8001V35.8281H66.9166V30.2105H66.8754L65.266 31.2194V29.9017L67.0058 28.8001H68.4025Z" fill="#5925DC"/>
<path fill-rule="evenodd" clip-rule="evenodd" d="M155.001 30.9569C155.027 30.9309 155.057 30.9103 155.091 30.8963C155.125 30.8822 155.161 30.875 155.198 30.875C155.235 30.875 155.271 30.8822 155.305 30.8963C155.339 30.9103 155.369 30.9309 155.395 30.9569L158.74 34.3016C158.792 34.354 158.822 34.4249 158.822 34.499C158.822 34.573 158.792 34.644 158.74 34.6963C158.688 34.7486 158.617 34.778 158.543 34.778C158.469 34.778 158.398 34.7486 158.345 34.6963L155.198 31.5483L152.051 34.6963C151.998 34.7486 151.927 34.778 151.853 34.778C151.779 34.778 151.708 34.7486 151.656 34.6963C151.604 34.644 151.574 34.573 151.574 34.499C151.574 34.4249 151.604 34.354 151.656 34.3016L155.001 30.9569Z" fill="#5925DC"/>
<path d="M27.0226 60.2212C26.9814 59.8734 26.8144 59.6035 26.5216 59.4113C26.2288 59.2191 25.8696 59.1231 25.4441 59.1231C25.1329 59.1231 24.8607 59.1734 24.6273 59.2741C24.3963 59.3747 24.2155 59.5131 24.0851 59.6893C23.957 59.8654 23.893 60.0656 23.893 60.2898C23.893 60.4774 23.9376 60.6387 24.0268 60.7737C24.1183 60.9064 24.235 61.0173 24.3768 61.1065C24.5187 61.1935 24.6674 61.2655 24.8229 61.3227C24.9785 61.3776 25.1215 61.4223 25.2519 61.4566L25.9657 61.6487C26.1487 61.6968 26.3523 61.7631 26.5765 61.8478C26.803 61.9324 27.0192 62.048 27.2251 62.1944C27.4333 62.3385 27.6048 62.5238 27.7398 62.7503C27.8748 62.9768 27.9423 63.2548 27.9423 63.5842C27.9423 63.964 27.8428 64.3071 27.6437 64.6137C27.447 64.9202 27.1587 65.1639 26.779 65.3446C26.4015 65.5254 25.9428 65.6157 25.4029 65.6157C24.8996 65.6157 24.4638 65.5345 24.0954 65.3721C23.7294 65.2096 23.4411 64.9832 23.2306 64.6926C23.0225 64.4021 22.9046 64.0646 22.8772 63.6803H23.7557C23.7786 63.9457 23.8678 64.1653 24.0234 64.3392C24.1812 64.5107 24.3802 64.6389 24.6205 64.7235C24.863 64.8059 25.1238 64.847 25.4029 64.847C25.7277 64.847 26.0194 64.7944 26.2779 64.6892C26.5365 64.5817 26.7412 64.433 26.8922 64.2431C27.0432 64.0509 27.1187 63.8267 27.1187 63.5705C27.1187 63.3371 27.0535 63.1472 26.9231 63.0008C26.7927 62.8544 26.6211 62.7354 26.4083 62.6439C26.1956 62.5524 25.9657 62.4723 25.7186 62.4037L24.8538 62.1566C24.3048 61.9988 23.8701 61.7734 23.5498 61.4806C23.2295 61.1878 23.0694 60.8046 23.0694 60.331C23.0694 59.9375 23.1757 59.5943 23.3885 59.3015C23.6036 59.0064 23.8918 58.7776 24.2533 58.6152C24.617 58.4505 25.0231 58.3681 25.4715 58.3681C25.9245 58.3681 26.3271 58.4493 26.6794 58.6117C27.0318 58.7719 27.3109 58.9915 27.5168 59.2706C27.725 59.5497 27.8348 59.8666 27.8462 60.2212H27.0226ZM32.5536 63.3371V60.2212H33.3634V65.4922H32.5536V64.6H32.4987C32.3751 64.8676 32.1829 65.0953 31.9221 65.2829C31.6613 65.4682 31.3319 65.5608 30.9338 65.5608C30.6044 65.5608 30.3116 65.4888 30.0553 65.3446C29.7991 65.1982 29.5978 64.9786 29.4514 64.6858C29.3049 64.3906 29.2317 64.0189 29.2317 63.5705V60.2212H30.0416V63.5156C30.0416 63.8999 30.1491 64.2065 30.3642 64.4352C30.5815 64.664 30.8583 64.7784 31.1946 64.7784C31.396 64.7784 31.6007 64.7269 31.8089 64.624C32.0194 64.521 32.1955 64.3632 32.3374 64.1504C32.4815 63.9377 32.5536 63.6666 32.5536 63.3371ZM34.9566 65.4922V58.4642H35.7664V61.0585H35.8351C35.8945 60.967 35.9769 60.8503 36.0821 60.7085C36.1897 60.5643 36.343 60.4362 36.542 60.3241C36.7433 60.2097 37.0156 60.1526 37.3587 60.1526C37.8025 60.1526 38.1937 60.2635 38.5323 60.4854C38.8709 60.7073 39.1352 61.0219 39.325 61.4291C39.5149 61.8363 39.6099 62.3168 39.6099 62.8704C39.6099 63.4286 39.5149 63.9125 39.325 64.322C39.1352 64.7292 38.8721 65.0449 38.5358 65.2691C38.1995 65.491 37.8117 65.602 37.3724 65.602C37.0339 65.602 36.7628 65.5459 36.5591 65.4338C36.3555 65.3195 36.1988 65.1902 36.089 65.0461C35.9792 64.8997 35.8945 64.7784 35.8351 64.6823H35.739V65.4922H34.9566ZM35.7527 62.8567C35.7527 63.2548 35.811 63.6059 35.9277 63.9102C36.0444 64.2122 36.2148 64.449 36.439 64.6206C36.6632 64.7898 36.9378 64.8745 37.2626 64.8745C37.6012 64.8745 37.8838 64.7853 38.1102 64.6068C38.339 64.4261 38.5106 64.1836 38.625 63.8793C38.7417 63.5728 38.8 63.2319 38.8 62.8567C38.8 62.4861 38.7428 62.1521 38.6284 61.8546C38.5163 61.555 38.3459 61.3182 38.1171 61.1443C37.8906 60.9681 37.6058 60.8801 37.2626 60.8801C36.9332 60.8801 36.6564 60.9636 36.4322 61.1306C36.208 61.2953 36.0387 61.5264 35.9243 61.8238C35.8099 62.1189 35.7527 62.4632 35.7527 62.8567ZM43.5666 65.4922V60.2212H44.349V61.0448H44.4176C44.5274 60.7634 44.7047 60.5449 44.9495 60.3893C45.1943 60.2315 45.4883 60.1526 45.8314 60.1526C46.1792 60.1526 46.4686 60.2315 46.6996 60.3893C46.933 60.5449 47.1149 60.7634 47.2453 61.0448H47.3002C47.4352 60.7725 47.6376 60.5563 47.9076 60.3962C48.1775 60.2338 48.5013 60.1526 48.8787 60.1526C49.35 60.1526 49.7355 60.3001 50.0352 60.5952C50.3349 60.8881 50.4847 61.3445 50.4847 61.9645V65.4922H49.6749V61.9645C49.6749 61.5755 49.5685 61.2976 49.3557 61.1306C49.143 60.9636 48.8925 60.8801 48.6042 60.8801C48.2336 60.8801 47.9465 60.9922 47.7429 61.2164C47.5393 61.4383 47.4375 61.7197 47.4375 62.0605V65.4922H46.6139V61.8821C46.6139 61.5824 46.5166 61.341 46.3222 61.158C46.1277 60.9727 45.8772 60.8801 45.5706 60.8801C45.3602 60.8801 45.1634 60.9361 44.9804 61.0482C44.7997 61.1603 44.6532 61.3159 44.5411 61.5149C44.4313 61.7117 44.3764 61.9393 44.3764 62.1978V65.4922H43.5666ZM54.1755 65.602C53.6676 65.602 53.2295 65.4899 52.8612 65.2657C52.4951 65.0392 52.2126 64.7235 52.0135 64.3186C51.8168 63.9113 51.7184 63.4378 51.7184 62.8979C51.7184 62.358 51.8168 61.8821 52.0135 61.4703C52.2126 61.0562 52.4894 60.7336 52.844 60.5026C53.2009 60.2692 53.6173 60.1526 54.0931 60.1526C54.3677 60.1526 54.6387 60.1983 54.9064 60.2898C55.1741 60.3813 55.4177 60.53 55.6374 60.7359C55.857 60.9395 56.032 61.2095 56.1624 61.5458C56.2928 61.8821 56.358 62.2962 56.358 62.7881V63.1312H52.2949V62.4312H55.5344C55.5344 62.1338 55.4749 61.8684 55.356 61.635C55.2393 61.4017 55.0723 61.2175 54.8549 61.0825C54.6399 60.9475 54.386 60.8801 54.0931 60.8801C53.7705 60.8801 53.4914 60.9601 53.2558 61.1203C53.0224 61.2781 52.8429 61.484 52.717 61.738C52.5912 61.9919 52.5283 62.2642 52.5283 62.5547V63.0214C52.5283 63.4195 52.5969 63.7569 52.7342 64.0337C52.8737 64.3083 53.0671 64.5176 53.3141 64.6617C53.5612 64.8036 53.8483 64.8745 54.1755 64.8745C54.3882 64.8745 54.5804 64.8448 54.752 64.7853C54.9259 64.7235 55.0757 64.632 55.2015 64.5107C55.3274 64.3872 55.4246 64.2339 55.4932 64.0509L56.2756 64.2705C56.1933 64.5359 56.0549 64.7693 55.8604 64.9706C55.666 65.1696 55.4257 65.3252 55.1398 65.4373C54.8538 65.5471 54.5324 65.602 54.1755 65.602ZM58.3998 62.3214V65.4922H57.59V60.2212H58.3724V61.0448H58.441C58.5645 60.7771 58.7521 60.5621 59.0038 60.3996C59.2555 60.2349 59.5803 60.1526 59.9784 60.1526C60.3353 60.1526 60.6476 60.2258 60.9152 60.3722C61.1829 60.5163 61.3911 60.7359 61.5398 61.0311C61.6885 61.3239 61.7628 61.6945 61.7628 62.1429V65.4922H60.953V62.1978C60.953 61.7837 60.8454 61.4612 60.6304 61.2301C60.4153 60.9967 60.1202 60.8801 59.745 60.8801C59.4865 60.8801 59.2555 60.9361 59.0518 61.0482C58.8505 61.1603 58.6915 61.3239 58.5748 61.5389C58.4582 61.754 58.3998 62.0148 58.3998 62.3214ZM66.5646 63.3371V60.2212H67.3744V65.4922H66.5646V64.6H66.5097C66.3861 64.8676 66.1939 65.0953 65.9331 65.2829C65.6723 65.4682 65.3429 65.5608 64.9448 65.5608C64.6154 65.5608 64.3226 65.4888 64.0663 65.3446C63.8101 65.1982 63.6088 64.9786 63.4624 64.6858C63.3159 64.3906 63.2427 64.0189 63.2427 63.5705V60.2212H64.0526V63.5156C64.0526 63.8999 64.1601 64.2065 64.3752 64.4352C64.5925 64.664 64.8693 64.7784 65.2056 64.7784C65.407 64.7784 65.6117 64.7269 65.8199 64.624C66.0304 64.521 66.2065 64.3632 66.3484 64.1504C66.4925 63.9377 66.5646 63.6666 66.5646 63.3371ZM71.5756 65.4922V60.2212H72.3855V65.4922H71.5756ZM71.9874 59.3427C71.8296 59.3427 71.6934 59.2889 71.5791 59.1814C71.467 59.0739 71.4109 58.9446 71.4109 58.7936C71.4109 58.6426 71.467 58.5134 71.5791 58.4058C71.6934 58.2983 71.8296 58.2446 71.9874 58.2446C72.1453 58.2446 72.2803 58.2983 72.3924 58.4058C72.5067 58.5134 72.5639 58.6426 72.5639 58.7936C72.5639 58.9446 72.5067 59.0739 72.3924 59.1814C72.2803 59.2889 72.1453 59.3427 71.9874 59.3427ZM76.1612 60.2212V60.9075H73.4296V60.2212H76.1612ZM74.2257 58.9583H75.0356V63.9823C75.0356 64.211 75.0687 64.3826 75.1351 64.497C75.2037 64.6091 75.2907 64.6846 75.3959 64.7235C75.5034 64.7601 75.6167 64.7784 75.7356 64.7784C75.8248 64.7784 75.8981 64.7738 75.9553 64.7647C76.0124 64.7532 76.0582 64.7441 76.0925 64.7372L76.2572 65.4647C76.2023 65.4853 76.1257 65.5059 76.0273 65.5265C75.9289 65.5494 75.8043 65.5608 75.6533 65.5608C75.4245 65.5608 75.2003 65.5116 74.9807 65.4133C74.7633 65.3149 74.5826 65.165 74.4385 64.9637C74.2966 64.7624 74.2257 64.5085 74.2257 64.2019V58.9583ZM79.5327 65.602C79.0249 65.602 78.5868 65.4899 78.2184 65.2657C77.8524 65.0392 77.5698 64.7235 77.3708 64.3186C77.1741 63.9113 77.0757 63.4378 77.0757 62.8979C77.0757 62.358 77.1741 61.8821 77.3708 61.4703C77.5698 61.0562 77.8467 60.7336 78.2013 60.5026C78.5582 60.2692 78.9745 60.1526 79.4504 60.1526C79.7249 60.1526 79.996 60.1983 80.2637 60.2898C80.5313 60.3813 80.775 60.53 80.9946 60.7359C81.2142 60.9395 81.3893 61.2095 81.5197 61.5458C81.6501 61.8821 81.7153 62.2962 81.7153 62.7881V63.1312H77.6522V62.4312H80.8917C80.8917 62.1338 80.8322 61.8684 80.7132 61.635C80.5965 61.4017 80.4295 61.2175 80.2122 61.0825C79.9972 60.9475 79.7432 60.8801 79.4504 60.8801C79.1278 60.8801 78.8487 60.9601 78.6131 61.1203C78.3797 61.2781 78.2001 61.484 78.0743 61.738C77.9485 61.9919 77.8856 62.2642 77.8856 62.5547V63.0214C77.8856 63.4195 77.9542 63.7569 78.0915 64.0337C78.231 64.3083 78.4243 64.5176 78.6714 64.6617C78.9185 64.8036 79.2056 64.8745 79.5327 64.8745C79.7455 64.8745 79.9377 64.8448 80.1093 64.7853C80.2831 64.7235 80.433 64.632 80.5588 64.5107C80.6846 64.3872 80.7819 64.2339 80.8505 64.0509L81.6329 64.2705C81.5505 64.5359 81.4121 64.7693 81.2177 64.9706C81.0232 65.1696 80.783 65.3252 80.497 65.4373C80.2111 65.5471 79.8896 65.602 79.5327 65.602ZM82.9472 65.4922V60.2212H83.7296V61.0448H83.7983C83.9081 60.7634 84.0854 60.5449 84.3302 60.3893C84.575 60.2315 84.8689 60.1526 85.2121 60.1526C85.5598 60.1526 85.8492 60.2315 86.0803 60.3893C86.3137 60.5449 86.4955 60.7634 86.6259 61.0448H86.6808C86.8158 60.7725 87.0183 60.5563 87.2882 60.3962C87.5582 60.2338 87.8819 60.1526 88.2594 60.1526C88.7307 60.1526 89.1162 60.3001 89.4159 60.5952C89.7156 60.8881 89.8654 61.3445 89.8654 61.9645V65.4922H89.0555V61.9645C89.0555 61.5755 88.9492 61.2976 88.7364 61.1306C88.5236 60.9636 88.2731 60.8801 87.9849 60.8801C87.6143 60.8801 87.3271 60.9922 87.1235 61.2164C86.9199 61.4383 86.8181 61.7197 86.8181 62.0605V65.4922H85.9945V61.8821C85.9945 61.5824 85.8973 61.341 85.7028 61.158C85.5084 60.9727 85.2579 60.8801 84.9513 60.8801C84.7408 60.8801 84.5441 60.9361 84.3611 61.0482C84.1803 61.1603 84.0339 61.3159 83.9218 61.5149C83.812 61.7117 83.7571 61.9393 83.7571 62.1978V65.4922H82.9472Z" fill="#5925DC"/>
<path d="M27.0226 89.8852C26.9814 89.5375 26.8144 89.2676 26.5216 89.0754C26.2288 88.8832 25.8696 88.7871 25.4441 88.7871C25.1329 88.7871 24.8607 88.8375 24.6273 88.9381C24.3963 89.0388 24.2155 89.1772 24.0851 89.3533C23.957 89.5295 23.893 89.7297 23.893 89.9539C23.893 90.1415 23.9376 90.3028 24.0268 90.4377C24.1183 90.5704 24.235 90.6814 24.3768 90.7706C24.5187 90.8575 24.6674 90.9296 24.8229 90.9868C24.9785 91.0417 25.1215 91.0863 25.2519 91.1206L25.9657 91.3128C26.1487 91.3609 26.3523 91.4272 26.5765 91.5118C26.803 91.5965 27.0192 91.712 27.2251 91.8584C27.4333 92.0026 27.6048 92.1879 27.7398 92.4144C27.8748 92.6409 27.9423 92.9188 27.9423 93.2483C27.9423 93.628 27.8428 93.9712 27.6437 94.2777C27.447 94.5843 27.1587 94.828 26.779 95.0087C26.4015 95.1894 25.9428 95.2798 25.4029 95.2798C24.8996 95.2798 24.4638 95.1986 24.0954 95.0361C23.7294 94.8737 23.4411 94.6472 23.2306 94.3567C23.0225 94.0661 22.9046 93.7287 22.8772 93.3443H23.7557C23.7786 93.6097 23.8678 93.8293 24.0234 94.0032C24.1812 94.1748 24.3802 94.3029 24.6205 94.3876C24.863 94.4699 25.1238 94.5111 25.4029 94.5111C25.7277 94.5111 26.0194 94.4585 26.2779 94.3532C26.5365 94.2457 26.7412 94.097 26.8922 93.9071C27.0432 93.715 27.1187 93.4908 27.1187 93.2345C27.1187 93.0012 27.0535 92.8113 26.9231 92.6649C26.7927 92.5185 26.6211 92.3995 26.4083 92.308C26.1956 92.2165 25.9657 92.1364 25.7186 92.0678L24.8538 91.8207C24.3048 91.6628 23.8701 91.4375 23.5498 91.1447C23.2295 90.8518 23.0694 90.4686 23.0694 89.9951C23.0694 89.6016 23.1757 89.2584 23.3885 88.9656C23.6036 88.6704 23.8918 88.4417 24.2533 88.2792C24.617 88.1145 25.0231 88.0322 25.4715 88.0322C25.9245 88.0322 26.3271 88.1134 26.6794 88.2758C27.0318 88.436 27.3109 88.6556 27.5168 88.9347C27.725 89.2138 27.8348 89.5306 27.8462 89.8852H27.0226ZM32.5536 93.0012V89.8852H33.3634V95.1562H32.5536V94.264H32.4987C32.3751 94.5317 32.1829 94.7593 31.9221 94.9469C31.6613 95.1322 31.3319 95.2249 30.9338 95.2249C30.6044 95.2249 30.3116 95.1528 30.0553 95.0087C29.7991 94.8623 29.5978 94.6426 29.4514 94.3498C29.3049 94.0547 29.2317 93.6829 29.2317 93.2345V89.8852H30.0416V93.1796C30.0416 93.564 30.1491 93.8705 30.3642 94.0993C30.5815 94.3281 30.8583 94.4425 31.1946 94.4425C31.396 94.4425 31.6007 94.391 31.8089 94.288C32.0194 94.1851 32.1955 94.0272 32.3374 93.8145C32.4815 93.6017 32.5536 93.3306 32.5536 93.0012ZM34.9566 95.1562V88.1282H35.7664V90.7226H35.8351C35.8945 90.6311 35.9769 90.5144 36.0821 90.3725C36.1897 90.2284 36.343 90.1003 36.542 89.9882C36.7433 89.8738 37.0156 89.8166 37.3587 89.8166C37.8025 89.8166 38.1937 89.9276 38.5323 90.1495C38.8709 90.3714 39.1352 90.686 39.325 91.0932C39.5149 91.5004 39.6099 91.9808 39.6099 92.5345C39.6099 93.0927 39.5149 93.5766 39.325 93.9861C39.1352 94.3933 38.8721 94.709 38.5358 94.9332C38.1995 95.1551 37.8117 95.2661 37.3724 95.2661C37.0339 95.2661 36.7628 95.21 36.5591 95.0979C36.3555 94.9835 36.1988 94.8543 36.089 94.7101C35.9792 94.5637 35.8945 94.4425 35.8351 94.3464H35.739V95.1562H34.9566ZM35.7527 92.5207C35.7527 92.9188 35.811 93.27 35.9277 93.5743C36.0444 93.8762 36.2148 94.113 36.439 94.2846C36.6632 94.4539 36.9378 94.5386 37.2626 94.5386C37.6012 94.5386 37.8838 94.4493 38.1102 94.2709C38.339 94.0902 38.5106 93.8477 38.625 93.5434C38.7417 93.2368 38.8 92.8959 38.8 92.5207C38.8 92.1501 38.7428 91.8161 38.6284 91.5187C38.5163 91.219 38.3459 90.9822 38.1171 90.8084C37.8906 90.6322 37.6058 90.5441 37.2626 90.5441C36.9332 90.5441 36.6564 90.6276 36.4322 90.7946C36.208 90.9594 36.0387 91.1904 35.9243 91.4878C35.8099 91.7829 35.7527 92.1273 35.7527 92.5207ZM43.5666 95.1562V89.8852H44.349V90.7088H44.4176C44.5274 90.4274 44.7047 90.209 44.9495 90.0534C45.1943 89.8955 45.4883 89.8166 45.8314 89.8166C46.1792 89.8166 46.4686 89.8955 46.6996 90.0534C46.933 90.209 47.1149 90.4274 47.2453 90.7088H47.3002C47.4352 90.4366 47.6376 90.2204 47.9076 90.0603C48.1775 89.8978 48.5013 89.8166 48.8787 89.8166C49.35 89.8166 49.7355 89.9642 50.0352 90.2593C50.3349 90.5521 50.4847 91.0085 50.4847 91.6285V95.1562H49.6749V91.6285C49.6749 91.2396 49.5685 90.9616 49.3557 90.7946C49.143 90.6276 48.8925 90.5441 48.6042 90.5441C48.2336 90.5441 47.9465 90.6562 47.7429 90.8804C47.5393 91.1023 47.4375 91.3837 47.4375 91.7246V95.1562H46.6139V91.5462C46.6139 91.2465 46.5166 91.0051 46.3222 90.8221C46.1277 90.6368 45.8772 90.5441 45.5706 90.5441C45.3602 90.5441 45.1634 90.6002 44.9804 90.7123C44.7997 90.8244 44.6532 90.9799 44.5411 91.179C44.4313 91.3757 44.3764 91.6034 44.3764 91.8619V95.1562H43.5666ZM54.1755 95.2661C53.6676 95.2661 53.2295 95.154 52.8612 94.9298C52.4951 94.7033 52.2126 94.3876 52.0135 93.9826C51.8168 93.5754 51.7184 93.1018 51.7184 92.5619C51.7184 92.022 51.8168 91.5462 52.0135 91.1344C52.2126 90.7203 52.4894 90.3977 52.844 90.1666C53.2009 89.9333 53.6173 89.8166 54.0931 89.8166C54.3677 89.8166 54.6387 89.8624 54.9064 89.9539C55.1741 90.0454 55.4177 90.1941 55.6374 90.4C55.857 90.6036 56.032 90.8736 56.1624 91.2099C56.2928 91.5462 56.358 91.9602 56.358 92.4521V92.7953H52.2949V92.0952H55.5344C55.5344 91.7978 55.4749 91.5324 55.356 91.2991C55.2393 91.0657 55.0723 90.8816 54.8549 90.7466C54.6399 90.6116 54.386 90.5441 54.0931 90.5441C53.7705 90.5441 53.4914 90.6242 53.2558 90.7843C53.0224 90.9422 52.8429 91.1481 52.717 91.402C52.5912 91.656 52.5283 91.9282 52.5283 92.2188V92.6855C52.5283 93.0835 52.5969 93.421 52.7342 93.6978C52.8737 93.9723 53.0671 94.1817 53.3141 94.3258C53.5612 94.4676 53.8483 94.5386 54.1755 94.5386C54.3882 94.5386 54.5804 94.5088 54.752 94.4493C54.9259 94.3876 55.0757 94.2961 55.2015 94.1748C55.3274 94.0513 55.4246 93.898 55.4932 93.715L56.2756 93.9346C56.1933 94.2 56.0549 94.4333 55.8604 94.6346C55.666 94.8337 55.4257 94.9892 55.1398 95.1013C54.8538 95.2112 54.5324 95.2661 54.1755 95.2661ZM58.3998 91.9854V95.1562H57.59V89.8852H58.3724V90.7088H58.441C58.5645 90.4412 58.7521 90.2261 59.0038 90.0637C59.2555 89.899 59.5803 89.8166 59.9784 89.8166C60.3353 89.8166 60.6476 89.8898 60.9152 90.0362C61.1829 90.1804 61.3911 90.4 61.5398 90.6951C61.6885 90.9879 61.7628 91.3586 61.7628 91.807V95.1562H60.953V91.8619C60.953 91.4478 60.8454 91.1252 60.6304 90.8942C60.4153 90.6608 60.1202 90.5441 59.745 90.5441C59.4865 90.5441 59.2555 90.6002 59.0518 90.7123C58.8505 90.8244 58.6915 90.9879 58.5748 91.203C58.4582 91.418 58.3998 91.6789 58.3998 91.9854ZM66.5646 93.0012V89.8852H67.3744V95.1562H66.5646V94.264H66.5097C66.3861 94.5317 66.1939 94.7593 65.9331 94.9469C65.6723 95.1322 65.3429 95.2249 64.9448 95.2249C64.6154 95.2249 64.3226 95.1528 64.0663 95.0087C63.8101 94.8623 63.6088 94.6426 63.4624 94.3498C63.3159 94.0547 63.2427 93.6829 63.2427 93.2345V89.8852H64.0526V93.1796C64.0526 93.564 64.1601 93.8705 64.3752 94.0993C64.5925 94.3281 64.8693 94.4425 65.2056 94.4425C65.407 94.4425 65.6117 94.391 65.8199 94.288C66.0304 94.1851 66.2065 94.0272 66.3484 93.8145C66.4925 93.6017 66.5646 93.3306 66.5646 93.0012ZM71.5756 95.1562V89.8852H72.3855V95.1562H71.5756ZM71.9874 89.0067C71.8296 89.0067 71.6934 88.953 71.5791 88.8455C71.467 88.7379 71.4109 88.6087 71.4109 88.4577C71.4109 88.3067 71.467 88.1774 71.5791 88.0699C71.6934 87.9624 71.8296 87.9086 71.9874 87.9086C72.1453 87.9086 72.2803 87.9624 72.3924 88.0699C72.5067 88.1774 72.5639 88.3067 72.5639 88.4577C72.5639 88.6087 72.5067 88.7379 72.3924 88.8455C72.2803 88.953 72.1453 89.0067 71.9874 89.0067ZM76.1612 89.8852V90.5716H73.4296V89.8852H76.1612ZM74.2257 88.6224H75.0356V93.6463C75.0356 93.8751 75.0687 94.0467 75.1351 94.1611C75.2037 94.2732 75.2907 94.3487 75.3959 94.3876C75.5034 94.4242 75.6167 94.4425 75.7356 94.4425C75.8248 94.4425 75.8981 94.4379 75.9553 94.4287C76.0124 94.4173 76.0582 94.4082 76.0925 94.4013L76.2572 95.1288C76.2023 95.1494 76.1257 95.17 76.0273 95.1906C75.9289 95.2134 75.8043 95.2249 75.6533 95.2249C75.4245 95.2249 75.2003 95.1757 74.9807 95.0773C74.7633 94.9789 74.5826 94.8291 74.4385 94.6278C74.2966 94.4265 74.2257 94.1725 74.2257 93.866V88.6224ZM79.5327 95.2661C79.0249 95.2661 78.5868 95.154 78.2184 94.9298C77.8524 94.7033 77.5698 94.3876 77.3708 93.9826C77.1741 93.5754 77.0757 93.1018 77.0757 92.5619C77.0757 92.022 77.1741 91.5462 77.3708 91.1344C77.5698 90.7203 77.8467 90.3977 78.2013 90.1666C78.5582 89.9333 78.9745 89.8166 79.4504 89.8166C79.7249 89.8166 79.996 89.8624 80.2637 89.9539C80.5313 90.0454 80.775 90.1941 80.9946 90.4C81.2142 90.6036 81.3893 90.8736 81.5197 91.2099C81.6501 91.5462 81.7153 91.9602 81.7153 92.4521V92.7953H77.6522V92.0952H80.8917C80.8917 91.7978 80.8322 91.5324 80.7132 91.2991C80.5965 91.0657 80.4295 90.8816 80.2122 90.7466C79.9972 90.6116 79.7432 90.5441 79.4504 90.5441C79.1278 90.5441 78.8487 90.6242 78.6131 90.7843C78.3797 90.9422 78.2001 91.1481 78.0743 91.402C77.9485 91.656 77.8856 91.9282 77.8856 92.2188V92.6855C77.8856 93.0835 77.9542 93.421 78.0915 93.6978C78.231 93.9723 78.4243 94.1817 78.6714 94.3258C78.9185 94.4676 79.2056 94.5386 79.5327 94.5386C79.7455 94.5386 79.9377 94.5088 80.1093 94.4493C80.2831 94.3876 80.433 94.2961 80.5588 94.1748C80.6846 94.0513 80.7819 93.898 80.8505 93.715L81.6329 93.9346C81.5505 94.2 81.4121 94.4333 81.2177 94.6346C81.0232 94.8337 80.783 94.9892 80.497 95.1013C80.2111 95.2112 79.8896 95.2661 79.5327 95.2661ZM82.9472 95.1562V89.8852H83.7296V90.7088H83.7983C83.9081 90.4274 84.0854 90.209 84.3302 90.0534C84.575 89.8955 84.8689 89.8166 85.2121 89.8166C85.5598 89.8166 85.8492 89.8955 86.0803 90.0534C86.3137 90.209 86.4955 90.4274 86.6259 90.7088H86.6808C86.8158 90.4366 87.0183 90.2204 87.2882 90.0603C87.5582 89.8978 87.8819 89.8166 88.2594 89.8166C88.7307 89.8166 89.1162 89.9642 89.4159 90.2593C89.7156 90.5521 89.8654 91.0085 89.8654 91.6285V95.1562H89.0555V91.6285C89.0555 91.2396 88.9492 90.9616 88.7364 90.7946C88.5236 90.6276 88.2731 90.5441 87.9849 90.5441C87.6143 90.5441 87.3271 90.6562 87.1235 90.8804C86.9199 91.1023 86.8181 91.3837 86.8181 91.7246V95.1562H85.9945V91.5462C85.9945 91.2465 85.8973 91.0051 85.7028 90.8221C85.5084 90.6368 85.2579 90.5441 84.9513 90.5441C84.7408 90.5441 84.5441 90.6002 84.3611 90.7123C84.1803 90.8244 84.0339 90.9799 83.9218 91.179C83.812 91.3757 83.7571 91.6034 83.7571 91.8619V95.1562H82.9472Z" fill="#344054"/>
<path d="M13.5151 117.792H14.5309L16.9193 123.626H17.0017L19.3901 117.792H20.4058V124.82H19.6097V119.481H19.5411L17.3448 124.82H16.5761L14.3799 119.481H14.3113V124.82H13.5151V117.792ZM24.2124 124.93C23.7045 124.93 23.2664 124.818 22.8981 124.594C22.532 124.367 22.2495 124.052 22.0505 123.647C21.8537 123.239 21.7553 122.766 21.7553 122.226C21.7553 121.686 21.8537 121.21 22.0505 120.798C22.2495 120.384 22.5263 120.062 22.8809 119.831C23.2378 119.597 23.6542 119.481 24.13 119.481C24.4046 119.481 24.6757 119.526 24.9433 119.618C25.211 119.709 25.4547 119.858 25.6743 120.064C25.8939 120.268 26.0689 120.538 26.1993 120.874C26.3297 121.21 26.3949 121.624 26.3949 122.116V122.459H22.3319V121.759H25.5713C25.5713 121.462 25.5118 121.196 25.3929 120.963C25.2762 120.73 25.1092 120.546 24.8919 120.411C24.6768 120.276 24.4229 120.208 24.13 120.208C23.8075 120.208 23.5284 120.288 23.2927 120.448C23.0594 120.606 22.8798 120.812 22.7539 121.066C22.6281 121.32 22.5652 121.592 22.5652 121.883V122.35C22.5652 122.748 22.6338 123.085 22.7711 123.362C22.9107 123.636 23.104 123.846 23.3511 123.99C23.5981 124.132 23.8852 124.203 24.2124 124.203C24.4252 124.203 24.6173 124.173 24.7889 124.113C24.9628 124.052 25.1126 123.96 25.2385 123.839C25.3643 123.715 25.4615 123.562 25.5301 123.379L26.3126 123.599C26.2302 123.864 26.0918 124.097 25.8973 124.299C25.7029 124.498 25.4627 124.653 25.1767 124.765C24.8907 124.875 24.5693 124.93 24.2124 124.93ZM28.4367 121.649V124.82H27.6269V119.549H28.4093V120.373H28.4779C28.6015 120.105 28.7891 119.89 29.0407 119.728C29.2924 119.563 29.6172 119.481 30.0153 119.481C30.3722 119.481 30.6845 119.554 30.9521 119.7C31.2198 119.844 31.428 120.064 31.5767 120.359C31.7254 120.652 31.7998 121.023 31.7998 121.471V124.82H30.9899V121.526C30.9899 121.112 30.8824 120.789 30.6673 120.558C30.4523 120.325 30.1571 120.208 29.782 120.208C29.5234 120.208 29.2924 120.264 29.0888 120.376C28.8874 120.488 28.7284 120.652 28.6118 120.867C28.4951 121.082 28.4367 121.343 28.4367 121.649ZM36.6015 122.665V119.549H37.4113V124.82H36.6015V123.928H36.5466C36.423 124.196 36.2309 124.423 35.9701 124.611C35.7093 124.796 35.3798 124.889 34.9817 124.889C34.6523 124.889 34.3595 124.817 34.1032 124.673C33.847 124.526 33.6457 124.307 33.4993 124.014C33.3529 123.719 33.2797 123.347 33.2797 122.899V119.549H34.0895V122.844C34.0895 123.228 34.197 123.535 34.4121 123.763C34.6294 123.992 34.9063 124.107 35.2426 124.107C35.4439 124.107 35.6486 124.055 35.8568 123.952C36.0673 123.849 36.2434 123.691 36.3853 123.479C36.5294 123.266 36.6015 122.995 36.6015 122.665ZM42.5734 117.792V124.82H41.7223V117.792H42.5734ZM46.4623 119.549V120.236H43.7307V119.549H46.4623ZM44.5269 118.286H45.3367V123.31C45.3367 123.539 45.3699 123.711 45.4362 123.825C45.5049 123.937 45.5918 124.013 45.697 124.052C45.8046 124.088 45.9178 124.107 46.0368 124.107C46.126 124.107 46.1992 124.102 46.2564 124.093C46.3136 124.081 46.3594 124.072 46.3937 124.065L46.5584 124.793C46.5035 124.813 46.4268 124.834 46.3285 124.855C46.2301 124.878 46.1054 124.889 45.9544 124.889C45.7256 124.889 45.5014 124.84 45.2818 124.741C45.0645 124.643 44.8837 124.493 44.7396 124.292C44.5978 124.091 44.5269 123.837 44.5269 123.53V118.286ZM49.8339 124.93C49.326 124.93 48.8879 124.818 48.5196 124.594C48.1535 124.367 47.871 124.052 47.672 123.647C47.4752 123.239 47.3768 122.766 47.3768 122.226C47.3768 121.686 47.4752 121.21 47.672 120.798C47.871 120.384 48.1478 120.062 48.5024 119.831C48.8593 119.597 49.2757 119.481 49.7515 119.481C50.0261 119.481 50.2972 119.526 50.5648 119.618C50.8325 119.709 51.0761 119.858 51.2958 120.064C51.5154 120.268 51.6904 120.538 51.8208 120.874C51.9512 121.21 52.0164 121.624 52.0164 122.116V122.459H47.9534V121.759H51.1928C51.1928 121.462 51.1333 121.196 51.0144 120.963C50.8977 120.73 50.7307 120.546 50.5134 120.411C50.2983 120.276 50.0444 120.208 49.7515 120.208C49.429 120.208 49.1499 120.288 48.9142 120.448C48.6809 120.606 48.5013 120.812 48.3754 121.066C48.2496 121.32 48.1867 121.592 48.1867 121.883V122.35C48.1867 122.748 48.2553 123.085 48.3926 123.362C48.5322 123.636 48.7255 123.846 48.9725 123.99C49.2196 124.132 49.5067 124.203 49.8339 124.203C50.0467 124.203 50.2388 124.173 50.4104 124.113C50.5843 124.052 50.7341 123.96 50.86 123.839C50.9858 123.715 51.083 123.562 51.1516 123.379L51.9341 123.599C51.8517 123.864 51.7133 124.097 51.5188 124.299C51.3244 124.498 51.0842 124.653 50.7982 124.765C50.5122 124.875 50.1908 124.93 49.8339 124.93ZM53.2484 124.82V119.549H54.0308V120.373H54.0994C54.2092 120.092 54.3865 119.873 54.6313 119.717C54.8761 119.56 55.1701 119.481 55.5133 119.481C55.861 119.481 56.1504 119.56 56.3815 119.717C56.6148 119.873 56.7967 120.092 56.9271 120.373H56.982C57.117 120.101 57.3194 119.884 57.5894 119.724C57.8594 119.562 58.1831 119.481 58.5606 119.481C59.0318 119.481 59.4173 119.628 59.717 119.923C60.0167 120.216 60.1666 120.673 60.1666 121.293V124.82H59.3567V121.293C59.3567 120.904 59.2503 120.626 59.0376 120.459C58.8248 120.292 58.5743 120.208 58.286 120.208C57.9154 120.208 57.6283 120.32 57.4247 120.544C57.2211 120.766 57.1193 121.048 57.1193 121.389V124.82H56.2957V121.21C56.2957 120.911 56.1984 120.669 56.004 120.486C55.8095 120.301 55.559 120.208 55.2525 120.208C55.042 120.208 54.8452 120.264 54.6622 120.376C54.4815 120.488 54.3351 120.644 54.223 120.843C54.1131 121.04 54.0582 121.267 54.0582 121.526V124.82H53.2484ZM64.3515 124.82V124.203L66.6712 121.663C66.9435 121.366 67.1677 121.107 67.3438 120.888C67.52 120.666 67.6504 120.458 67.7351 120.263C67.822 120.066 67.8655 119.86 67.8655 119.645C67.8655 119.398 67.806 119.184 67.687 119.004C67.5703 118.823 67.4102 118.683 67.2066 118.585C67.003 118.487 66.7742 118.437 66.5203 118.437C66.2503 118.437 66.0147 118.494 65.8133 118.606C65.6143 118.715 65.4599 118.87 65.3501 119.069C65.2425 119.268 65.1888 119.501 65.1888 119.769H64.3789C64.3789 119.357 64.4739 118.996 64.6637 118.685C64.8536 118.373 65.1121 118.131 65.4393 117.957C65.7687 117.783 66.1382 117.696 66.5477 117.696C66.9595 117.696 67.3244 117.783 67.6424 117.957C67.9604 118.131 68.2098 118.365 68.3905 118.661C68.5712 118.956 68.6616 119.284 68.6616 119.645C68.6616 119.904 68.6147 120.157 68.5209 120.404C68.4294 120.649 68.2692 120.922 68.0405 121.224C67.814 121.524 67.4994 121.89 67.0968 122.322L65.5182 124.01V124.065H68.7851V124.82H64.3515Z" fill="#344054"/>
<path d="M13.5151 147.456H14.5309L16.9193 153.29H17.0017L19.3901 147.456H20.4058V154.484H19.6097V149.145H19.5411L17.3448 154.484H16.5761L14.3799 149.145H14.3113V154.484H13.5151V147.456ZM24.2124 154.594C23.7045 154.594 23.2664 154.482 22.8981 154.258C22.532 154.031 22.2495 153.716 22.0505 153.311C21.8537 152.904 21.7553 152.43 21.7553 151.89C21.7553 151.35 21.8537 150.874 22.0505 150.462C22.2495 150.048 22.5263 149.726 22.8809 149.495C23.2378 149.261 23.6542 149.145 24.13 149.145C24.4046 149.145 24.6757 149.19 24.9433 149.282C25.211 149.374 25.4547 149.522 25.6743 149.728C25.8939 149.932 26.0689 150.202 26.1993 150.538C26.3297 150.874 26.3949 151.288 26.3949 151.78V152.123H22.3319V151.423H25.5713C25.5713 151.126 25.5118 150.861 25.3929 150.627C25.2762 150.394 25.1092 150.21 24.8919 150.075C24.6768 149.94 24.4229 149.872 24.13 149.872C23.8075 149.872 23.5284 149.952 23.2927 150.112C23.0594 150.27 22.8798 150.476 22.7539 150.73C22.6281 150.984 22.5652 151.256 22.5652 151.547V152.014C22.5652 152.412 22.6338 152.749 22.7711 153.026C22.9107 153.3 23.104 153.51 23.3511 153.654C23.5981 153.796 23.8852 153.867 24.2124 153.867C24.4252 153.867 24.6173 153.837 24.7889 153.777C24.9628 153.716 25.1126 153.624 25.2385 153.503C25.3643 153.379 25.4615 153.226 25.5301 153.043L26.3126 153.263C26.2302 153.528 26.0918 153.761 25.8973 153.963C25.7029 154.162 25.4627 154.317 25.1767 154.429C24.8907 154.539 24.5693 154.594 24.2124 154.594ZM28.4367 151.314V154.484H27.6269V149.213H28.4093V150.037H28.4779C28.6015 149.769 28.7891 149.554 29.0407 149.392C29.2924 149.227 29.6172 149.145 30.0153 149.145C30.3722 149.145 30.6845 149.218 30.9521 149.364C31.2198 149.508 31.428 149.728 31.5767 150.023C31.7254 150.316 31.7998 150.687 31.7998 151.135V154.484H30.9899V151.19C30.9899 150.776 30.8824 150.453 30.6673 150.222C30.4523 149.989 30.1571 149.872 29.782 149.872C29.5234 149.872 29.2924 149.928 29.0888 150.04C28.8874 150.152 28.7284 150.316 28.6118 150.531C28.4951 150.746 28.4367 151.007 28.4367 151.314ZM36.6015 152.329V149.213H37.4113V154.484H36.6015V153.592H36.5466C36.423 153.86 36.2309 154.087 35.9701 154.275C35.7093 154.46 35.3798 154.553 34.9817 154.553C34.6523 154.553 34.3595 154.481 34.1032 154.337C33.847 154.19 33.6457 153.971 33.4993 153.678C33.3529 153.383 33.2797 153.011 33.2797 152.563V149.213H34.0895V152.508C34.0895 152.892 34.197 153.199 34.4121 153.427C34.6294 153.656 34.9063 153.771 35.2426 153.771C35.4439 153.771 35.6486 153.719 35.8568 153.616C36.0673 153.513 36.2434 153.355 36.3853 153.143C36.5294 152.93 36.6015 152.659 36.6015 152.329ZM42.5734 147.456V154.484H41.7223V147.456H42.5734ZM46.4623 149.213V149.9H43.7307V149.213H46.4623ZM44.5269 147.951H45.3367V152.974C45.3367 153.203 45.3699 153.375 45.4362 153.489C45.5049 153.601 45.5918 153.677 45.697 153.716C45.8046 153.752 45.9178 153.771 46.0368 153.771C46.126 153.771 46.1992 153.766 46.2564 153.757C46.3136 153.745 46.3594 153.736 46.3937 153.729L46.5584 154.457C46.5035 154.478 46.4268 154.498 46.3285 154.519C46.2301 154.542 46.1054 154.553 45.9544 154.553C45.7256 154.553 45.5014 154.504 45.2818 154.405C45.0645 154.307 44.8837 154.157 44.7396 153.956C44.5978 153.755 44.5269 153.501 44.5269 153.194V147.951ZM49.8339 154.594C49.326 154.594 48.8879 154.482 48.5196 154.258C48.1535 154.031 47.871 153.716 47.672 153.311C47.4752 152.904 47.3768 152.43 47.3768 151.89C47.3768 151.35 47.4752 150.874 47.672 150.462C47.871 150.048 48.1478 149.726 48.5024 149.495C48.8593 149.261 49.2757 149.145 49.7515 149.145C50.0261 149.145 50.2972 149.19 50.5648 149.282C50.8325 149.374 51.0761 149.522 51.2958 149.728C51.5154 149.932 51.6904 150.202 51.8208 150.538C51.9512 150.874 52.0164 151.288 52.0164 151.78V152.123H47.9534V151.423H51.1928C51.1928 151.126 51.1333 150.861 51.0144 150.627C50.8977 150.394 50.7307 150.21 50.5134 150.075C50.2983 149.94 50.0444 149.872 49.7515 149.872C49.429 149.872 49.1499 149.952 48.9142 150.112C48.6809 150.27 48.5013 150.476 48.3754 150.73C48.2496 150.984 48.1867 151.256 48.1867 151.547V152.014C48.1867 152.412 48.2553 152.749 48.3926 153.026C48.5322 153.3 48.7255 153.51 48.9725 153.654C49.2196 153.796 49.5067 153.867 49.8339 153.867C50.0467 153.867 50.2388 153.837 50.4104 153.777C50.5843 153.716 50.7341 153.624 50.86 153.503C50.9858 153.379 51.083 153.226 51.1516 153.043L51.9341 153.263C51.8517 153.528 51.7133 153.761 51.5188 153.963C51.3244 154.162 51.0842 154.317 50.7982 154.429C50.5122 154.539 50.1908 154.594 49.8339 154.594ZM53.2484 154.484V149.213H54.0308V150.037H54.0994C54.2092 149.756 54.3865 149.537 54.6313 149.382C54.8761 149.224 55.1701 149.145 55.5133 149.145C55.861 149.145 56.1504 149.224 56.3815 149.382C56.6148 149.537 56.7967 149.756 56.9271 150.037H56.982C57.117 149.765 57.3194 149.549 57.5894 149.388C57.8594 149.226 58.1831 149.145 58.5606 149.145C59.0318 149.145 59.4173 149.292 59.717 149.587C60.0167 149.88 60.1666 150.337 60.1666 150.957V154.484H59.3567V150.957C59.3567 150.568 59.2503 150.29 59.0376 150.123C58.8248 149.956 58.5743 149.872 58.286 149.872C57.9154 149.872 57.6283 149.984 57.4247 150.209C57.2211 150.43 57.1193 150.712 57.1193 151.053V154.484H56.2957V150.874C56.2957 150.575 56.1984 150.333 56.004 150.15C55.8095 149.965 55.559 149.872 55.2525 149.872C55.042 149.872 54.8452 149.928 54.6622 150.04C54.4815 150.152 54.3351 150.308 54.223 150.507C54.1131 150.704 54.0582 150.931 54.0582 151.19V154.484H53.2484ZM66.7262 154.58C66.2732 154.58 65.8694 154.503 65.5148 154.347C65.1625 154.192 64.8822 153.975 64.674 153.699C64.4681 153.419 64.356 153.096 64.3377 152.727H65.2025C65.2208 152.954 65.2986 153.149 65.4359 153.314C65.5731 153.477 65.7527 153.602 65.9746 153.692C66.1965 153.781 66.4425 153.825 66.7124 153.825C67.0144 153.825 67.2821 153.773 67.5154 153.668C67.7488 153.562 67.9318 153.416 68.0645 153.228C68.1972 153.041 68.2635 152.823 68.2635 152.576C68.2635 152.318 68.1995 152.09 68.0714 151.893C67.9432 151.694 67.7556 151.539 67.5086 151.427C67.2615 151.315 66.9595 151.259 66.6026 151.259H66.0398V150.504H66.6026C66.8817 150.504 67.1265 150.453 67.337 150.353C67.5497 150.252 67.7156 150.11 67.8346 149.927C67.9558 149.744 68.0164 149.529 68.0164 149.282C68.0164 149.044 67.9638 148.837 67.8586 148.661C67.7534 148.485 67.6047 148.347 67.4125 148.249C67.2226 148.151 66.9984 148.102 66.7399 148.102C66.4974 148.102 66.2686 148.146 66.0535 148.235C65.8408 148.322 65.6669 148.449 65.5319 148.616C65.397 148.781 65.3238 148.98 65.3123 149.213H64.4887C64.5024 148.845 64.6134 148.522 64.8216 148.246C65.0298 147.967 65.302 147.749 65.6383 147.594C65.9769 147.438 66.3487 147.36 66.7536 147.36C67.1883 147.36 67.5612 147.448 67.8723 147.625C68.1835 147.798 68.4225 148.028 68.5895 148.314C68.7565 148.6 68.84 148.909 68.84 149.241C68.84 149.637 68.7359 149.974 68.5278 150.253C68.3219 150.532 68.0416 150.726 67.687 150.833V150.888C68.1308 150.961 68.4774 151.15 68.7268 151.454C68.9762 151.756 69.1008 152.13 69.1008 152.576C69.1008 152.958 68.9968 153.302 68.7886 153.606C68.5827 153.908 68.3013 154.146 67.9444 154.32C67.5875 154.494 67.1814 154.58 66.7262 154.58Z" fill="#344054"/>
<path d="M13.5151 177.12H14.5309L16.9193 182.954H17.0017L19.3901 177.12H20.4058V184.148H19.6097V178.809H19.5411L17.3448 184.148H16.5761L14.3799 178.809H14.3113V184.148H13.5151V177.12ZM24.2124 184.258C23.7045 184.258 23.2664 184.146 22.8981 183.922C22.532 183.695 22.2495 183.38 22.0505 182.975C21.8537 182.568 21.7553 182.094 21.7553 181.554C21.7553 181.014 21.8537 180.538 22.0505 180.127C22.2495 179.712 22.5263 179.39 22.8809 179.159C23.2378 178.925 23.6542 178.809 24.13 178.809C24.4046 178.809 24.6757 178.855 24.9433 178.946C25.211 179.038 25.4547 179.186 25.6743 179.392C25.8939 179.596 26.0689 179.866 26.1993 180.202C26.3297 180.538 26.3949 180.952 26.3949 181.444V181.787H22.3319V181.087H25.5713C25.5713 180.79 25.5118 180.525 25.3929 180.291C25.2762 180.058 25.1092 179.874 24.8919 179.739C24.6768 179.604 24.4229 179.536 24.13 179.536C23.8075 179.536 23.5284 179.616 23.2927 179.777C23.0594 179.934 22.8798 180.14 22.7539 180.394C22.6281 180.648 22.5652 180.92 22.5652 181.211V181.678C22.5652 182.076 22.6338 182.413 22.7711 182.69C22.9107 182.965 23.104 183.174 23.3511 183.318C23.5981 183.46 23.8852 183.531 24.2124 183.531C24.4252 183.531 24.6173 183.501 24.7889 183.442C24.9628 183.38 25.1126 183.288 25.2385 183.167C25.3643 183.043 25.4615 182.89 25.5301 182.707L26.3126 182.927C26.2302 183.192 26.0918 183.426 25.8973 183.627C25.7029 183.826 25.4627 183.981 25.1767 184.094C24.8907 184.203 24.5693 184.258 24.2124 184.258ZM28.4367 180.978V184.148H27.6269V178.877H28.4093V179.701H28.4779C28.6015 179.433 28.7891 179.218 29.0407 179.056C29.2924 178.891 29.6172 178.809 30.0153 178.809C30.3722 178.809 30.6845 178.882 30.9521 179.028C31.2198 179.173 31.428 179.392 31.5767 179.687C31.7254 179.98 31.7998 180.351 31.7998 180.799V184.148H30.9899V180.854C30.9899 180.44 30.8824 180.117 30.6673 179.886C30.4523 179.653 30.1571 179.536 29.782 179.536C29.5234 179.536 29.2924 179.592 29.0888 179.704C28.8874 179.817 28.7284 179.98 28.6118 180.195C28.4951 180.41 28.4367 180.671 28.4367 180.978ZM36.6015 181.993V178.877H37.4113V184.148H36.6015V183.256H36.5466C36.423 183.524 36.2309 183.752 35.9701 183.939C35.7093 184.124 35.3798 184.217 34.9817 184.217C34.6523 184.217 34.3595 184.145 34.1032 184.001C33.847 183.854 33.6457 183.635 33.4993 183.342C33.3529 183.047 33.2797 182.675 33.2797 182.227V178.877H34.0895V182.172C34.0895 182.556 34.197 182.863 34.4121 183.091C34.6294 183.32 34.9063 183.435 35.2426 183.435C35.4439 183.435 35.6486 183.383 35.8568 183.28C36.0673 183.177 36.2434 183.019 36.3853 182.807C36.5294 182.594 36.6015 182.323 36.6015 181.993ZM42.5734 177.12V184.148H41.7223V177.12H42.5734ZM46.4623 178.877V179.564H43.7307V178.877H46.4623ZM44.5269 177.615H45.3367V182.639C45.3367 182.867 45.3699 183.039 45.4362 183.153C45.5049 183.265 45.5918 183.341 45.697 183.38C45.8046 183.416 45.9178 183.435 46.0368 183.435C46.126 183.435 46.1992 183.43 46.2564 183.421C46.3136 183.409 46.3594 183.4 46.3937 183.393L46.5584 184.121C46.5035 184.142 46.4268 184.162 46.3285 184.183C46.2301 184.206 46.1054 184.217 45.9544 184.217C45.7256 184.217 45.5014 184.168 45.2818 184.07C45.0645 183.971 44.8837 183.821 44.7396 183.62C44.5978 183.419 44.5269 183.165 44.5269 182.858V177.615ZM49.8339 184.258C49.326 184.258 48.8879 184.146 48.5196 183.922C48.1535 183.695 47.871 183.38 47.672 182.975C47.4752 182.568 47.3768 182.094 47.3768 181.554C47.3768 181.014 47.4752 180.538 47.672 180.127C47.871 179.712 48.1478 179.39 48.5024 179.159C48.8593 178.925 49.2757 178.809 49.7515 178.809C50.0261 178.809 50.2972 178.855 50.5648 178.946C50.8325 179.038 51.0761 179.186 51.2958 179.392C51.5154 179.596 51.6904 179.866 51.8208 180.202C51.9512 180.538 52.0164 180.952 52.0164 181.444V181.787H47.9534V181.087H51.1928C51.1928 180.79 51.1333 180.525 51.0144 180.291C50.8977 180.058 50.7307 179.874 50.5134 179.739C50.2983 179.604 50.0444 179.536 49.7515 179.536C49.429 179.536 49.1499 179.616 48.9142 179.777C48.6809 179.934 48.5013 180.14 48.3754 180.394C48.2496 180.648 48.1867 180.92 48.1867 181.211V181.678C48.1867 182.076 48.2553 182.413 48.3926 182.69C48.5322 182.965 48.7255 183.174 48.9725 183.318C49.2196 183.46 49.5067 183.531 49.8339 183.531C50.0467 183.531 50.2388 183.501 50.4104 183.442C50.5843 183.38 50.7341 183.288 50.86 183.167C50.9858 183.043 51.083 182.89 51.1516 182.707L51.9341 182.927C51.8517 183.192 51.7133 183.426 51.5188 183.627C51.3244 183.826 51.0842 183.981 50.7982 184.094C50.5122 184.203 50.1908 184.258 49.8339 184.258ZM53.2484 184.148V178.877H54.0308V179.701H54.0994C54.2092 179.42 54.3865 179.201 54.6313 179.046C54.8761 178.888 55.1701 178.809 55.5133 178.809C55.861 178.809 56.1504 178.888 56.3815 179.046C56.6148 179.201 56.7967 179.42 56.9271 179.701H56.982C57.117 179.429 57.3194 179.213 57.5894 179.052C57.8594 178.89 58.1831 178.809 58.5606 178.809C59.0318 178.809 59.4173 178.956 59.717 179.251C60.0167 179.544 60.1666 180.001 60.1666 180.621V184.148H59.3567V180.621C59.3567 180.232 59.2503 179.954 59.0376 179.787C58.8248 179.62 58.5743 179.536 58.286 179.536C57.9154 179.536 57.6283 179.648 57.4247 179.873C57.2211 180.095 57.1193 180.376 57.1193 180.717V184.148H56.2957V180.538C56.2957 180.239 56.1984 179.997 56.004 179.814C55.8095 179.629 55.559 179.536 55.2525 179.536C55.042 179.536 54.8452 179.592 54.6622 179.704C54.4815 179.817 54.3351 179.972 54.223 180.171C54.1131 180.368 54.0582 180.596 54.0582 180.854V184.148H53.2484ZM64.1867 182.707V182.007L67.2752 177.12H67.7831V178.205H67.4399L65.1064 181.897V181.952H69.2656V182.707H64.1867ZM67.4948 184.148V182.494V182.168V177.12H68.3047V184.148H67.4948Z" fill="#344054"/>
</g>
<defs>
<filter id="filter0_dd_9120_3210" x="0" y="0" width="172.695" height="265" filterUnits="userSpaceOnUse" color-interpolation-filters="sRGB">
<feFlood flood-opacity="0" result="BackgroundImageFix"/>
<feColorMatrix in="SourceAlpha" type="matrix" values="0 0 0 0 0 0 0 0 0 0 0 0 0 0 0 0 0 0 127 0" result="hardAlpha"/>
<feOffset dy="1"/>
<feGaussianBlur stdDeviation="1"/>
<feColorMatrix type="matrix" values="0 0 0 0 0.0627451 0 0 0 0 0.0941176 0 0 0 0 0.156863 0 0 0 0.06 0"/>
<feBlend mode="normal" in2="BackgroundImageFix" result="effect1_dropShadow_9120_3210"/>
<feColorMatrix in="SourceAlpha" type="matrix" values="0 0 0 0 0 0 0 0 0 0 0 0 0 0 0 0 0 0 127 0" result="hardAlpha"/>
<feOffset dy="1"/>
<feGaussianBlur stdDeviation="1.5"/>
<feColorMatrix type="matrix" values="0 0 0 0 0.0627451 0 0 0 0 0.0941176 0 0 0 0 0.156863 0 0 0 0.1 0"/>
<feBlend mode="normal" in2="effect1_dropShadow_9120_3210" result="effect2_dropShadow_9120_3210"/>
<feBlend mode="normal" in="SourceGraphic" in2="effect2_dropShadow_9120_3210" result="shape"/>
</filter>
</defs>
</svg>
