<svg width="235" height="80" viewBox="0 0 235 80" fill="none" xmlns="http://www.w3.org/2000/svg"><rect x="23.5" y="2" width="44" height="44" rx="22" fill="#98A2B3"/><path d="M47.077 18.364V30h-1.41V19.84H45.6l-2.84 1.887v-1.431l2.909-1.932h1.409Z" fill="#fff"/><rect x="23.5" y="2" width="44" height="44" rx="22" stroke="#fff" stroke-width="4"/><path d="M1.441 58.364h3.034l3.205 7.818h.136l3.205-7.818h3.034V70h-2.387v-7.574h-.096L8.56 69.943H6.935l-3.011-7.545h-.097V70H1.441V58.364Zm17.084 11.8c-.557 0-1.053-.096-1.489-.289a2.397 2.397 0 0 1-1.034-.87c-.25-.386-.375-.867-.375-1.442 0-.485.09-.892.267-1.222.178-.33.42-.595.727-.795a3.522 3.522 0 0 1 1.046-.455 7.969 7.969 0 0 1 1.238-.216 31.4 31.4 0 0 0 1.228-.148c.31-.049.536-.12.676-.216a.475.475 0 0 0 .21-.42v-.034c0-.36-.113-.638-.34-.835-.224-.197-.542-.296-.955-.296-.436 0-.782.097-1.04.29a1.33 1.33 0 0 0-.511.716l-2.24-.182a3.06 3.06 0 0 1 .671-1.375c.334-.39.764-.69 1.29-.898.53-.212 1.144-.318 1.841-.318.485 0 .949.057 1.392.17.447.114.843.29 1.188.529.348.239.623.545.823.92.201.372.302.817.302 1.336V70h-2.296v-1.21h-.068c-.14.272-.328.513-.563.721a2.605 2.605 0 0 1-.846.483c-.33.114-.71.17-1.142.17Zm.693-1.67c.356 0 .67-.07.943-.21a1.67 1.67 0 0 0 .642-.58c.156-.242.233-.516.233-.823v-.927c-.076.05-.18.095-.312.137a5.692 5.692 0 0 1-.438.108 21.7 21.7 0 0 1-.488.085l-.444.063a2.991 2.991 0 0 0-.744.199 1.19 1.19 0 0 0-.494.369.9.9 0 0 0-.176.568c0 .33.119.581.358.756.242.17.549.255.92.255Zm6.1 1.506v-8.727h2.346v1.522h.091c.16-.541.426-.95.801-1.227.375-.28.807-.42 1.296-.42a3.648 3.648 0 0 1 .76.085v2.148a3.157 3.157 0 0 0-.47-.091 4.167 4.167 0 0 0-.552-.04c-.356 0-.674.078-.954.233a1.714 1.714 0 0 0-.66.636 1.84 1.84 0 0 0-.238.944V70h-2.42Zm8.74-2.511.005-2.904h.352l2.796-3.312h2.778l-3.755 4.386h-.574l-1.602 1.83ZM31.863 70V58.364h2.42V70h-2.42Zm5.455 0-2.568-3.801 1.613-1.71L40.154 70H37.32Zm7.476.17c-.898 0-1.67-.181-2.318-.545a3.736 3.736 0 0 1-1.49-1.557c-.348-.674-.522-1.471-.522-2.392 0-.898.174-1.686.523-2.364a3.864 3.864 0 0 1 1.471-1.585c.637-.378 1.383-.568 2.24-.568.575 0 1.11.093 1.607.279.5.181.936.456 1.307.823.375.368.667.83.875 1.387.208.553.312 1.2.312 1.943v.665H41.43v-1.5h5.091c0-.349-.076-.657-.227-.926a1.628 1.628 0 0 0-.63-.631 1.8 1.8 0 0 0-.927-.233c-.367 0-.693.085-.977.256a1.8 1.8 0 0 0-.66.676 1.92 1.92 0 0 0-.244.937v1.426c0 .432.08.805.239 1.12.163.314.392.556.687.727.296.17.646.256 1.051.256.27 0 .516-.038.74-.114.223-.076.414-.19.573-.34.16-.152.28-.338.364-.558l2.238.148a3.056 3.056 0 0 1-.699 1.41c-.348.397-.799.707-1.352.93-.55.22-1.184.33-1.903.33ZM50.38 70v-8.727h2.347v1.522h.09c.16-.541.427-.95.802-1.227.375-.28.806-.42 1.295-.42a3.648 3.648 0 0 1 .761.085v2.148a3.157 3.157 0 0 0-.471-.091c-.2-.027-.385-.04-.551-.04a1.94 1.94 0 0 0-.955.233 1.714 1.714 0 0 0-.659.636 1.84 1.84 0 0 0-.239.944V70h-2.42Zm14.892-8.727v1.818h-5.256v-1.818h5.256Zm-4.063-2.091h2.421v8.136c0 .224.034.398.102.523a.564.564 0 0 0 .284.256c.125.049.27.074.432.074.114 0 .227-.01.341-.029l.261-.051.381 1.801a6.777 6.777 0 0 1-.511.13 4.09 4.09 0 0 1-.801.097c-.584.023-1.095-.055-1.535-.233a2.141 2.141 0 0 1-1.017-.83c-.242-.374-.361-.848-.358-1.42v-8.454ZM66.85 70v-8.727h2.42V70h-2.42Zm1.216-9.852c-.36 0-.669-.12-.927-.358a1.16 1.16 0 0 1-.38-.87c0-.333.127-.619.38-.858.258-.242.567-.363.927-.363.36 0 .666.121.92.364.258.238.386.524.386.857 0 .338-.128.627-.386.87-.254.238-.56.358-.92.358Zm7.785 1.125v1.818h-5.255v-1.818h5.255Zm-4.062-2.091h2.42v8.136c0 .224.034.398.102.523a.564.564 0 0 0 .284.256c.126.049.27.074.432.074.114 0 .228-.01.341-.029.114-.023.2-.04.262-.051l.38 1.801a6.772 6.772 0 0 1-.511.13 4.09 4.09 0 0 1-.801.097c-.584.023-1.095-.055-1.534-.233a2.141 2.141 0 0 1-1.017-.83c-.243-.374-.362-.848-.358-1.42v-8.454Zm8.247-.818V70h-2.42V58.364h2.42ZM85.95 70.17c-.898 0-1.67-.182-2.318-.546a3.736 3.736 0 0 1-1.489-1.557c-.348-.674-.523-1.471-.523-2.392 0-.898.175-1.686.523-2.364a3.864 3.864 0 0 1 1.472-1.585c.636-.378 1.382-.568 2.238-.568.576 0 1.112.093 1.608.279.5.181.936.456 1.307.823.375.368.667.83.875 1.387.209.553.313 1.2.313 1.943v.665h-7.37v-1.5h5.091c0-.349-.075-.657-.227-.926a1.627 1.627 0 0 0-.63-.631 1.799 1.799 0 0 0-.927-.233c-.367 0-.693.085-.977.256a1.8 1.8 0 0 0-.66.676 1.92 1.92 0 0 0-.244.937v1.426c0 .432.08.805.24 1.12.162.314.391.556.687.727.295.17.645.256 1.05.256.27 0 .516-.038.74-.114.223-.076.414-.19.573-.34.16-.152.28-.338.364-.558l2.239.148a3.057 3.057 0 0 1-.7 1.41c-.348.397-.799.707-1.352.93-.549.22-1.183.33-1.903.33Z" fill="#344054"/><path fill="#E8178A" fill-opacity=".24" d="M2 48h88v4H2z"/><path d="M97.5 48v4" stroke="#E8178A"/><rect x="104" y="42.5" width="31" height="18" rx="3" fill="#E8178A"/><path d="M110.479 54.222h3.491V55.5h1.47v-1.278h.902v-1.233h-.902v-4.762h-1.924l-3.037 4.784v1.21Zm3.52-1.233h-1.971v-.056l1.914-3.03h.057v3.086Zm3.382 4.556h1.513v-2.919h.046c.21.455.668.963 1.548.963 1.243 0 2.213-.984 2.213-2.81 0-1.874-1.012-2.805-2.209-2.805-.913 0-1.35.544-1.552.988h-.067v-.917h-1.492v7.5Zm1.481-4.772c0-.973.412-1.595 1.147-1.595.749 0 1.147.65 1.147 1.595 0 .951-.405 1.612-1.147 1.612-.728 0-1.147-.64-1.147-1.612Zm5.906-2.728h-1.562l1.562 2.728-1.619 2.727h1.562l1.059-1.886 1.076 1.886h1.544l-1.622-2.727 1.58-2.728h-1.552l-1.026 1.907-1.002-1.907Z" fill="#fff"/><path stroke="#E8178A" d="M94 48.5h7m-7 3h7"/></svg>