<svg width="588" height="373" viewBox="0 0 588 373" fill="none" xmlns="http://www.w3.org/2000/svg">
<path d="M1.01136 73V61.3636H3.47159V70.9716H8.46023V73H1.01136ZM12.5327 73.1648C11.9759 73.1648 11.4796 73.0682 11.044 72.875C10.6084 72.678 10.2637 72.3883 10.0099 72.0057C9.75994 71.6193 9.63494 71.1383 9.63494 70.5625C9.63494 70.0777 9.72396 69.6705 9.90199 69.3409C10.08 69.0114 10.3224 68.7462 10.6293 68.5455C10.9361 68.3447 11.2846 68.1932 11.6747 68.0909C12.0687 67.9886 12.4815 67.9167 12.9134 67.875C13.4209 67.822 13.83 67.7727 14.1406 67.7273C14.4512 67.678 14.6766 67.6061 14.8168 67.5114C14.9569 67.4167 15.027 67.2765 15.027 67.0909V67.0568C15.027 66.697 14.9134 66.4186 14.6861 66.2216C14.4626 66.0246 14.1444 65.9261 13.7315 65.9261C13.2959 65.9261 12.9493 66.0227 12.6918 66.2159C12.4342 66.4053 12.2637 66.6439 12.1804 66.9318L9.94176 66.75C10.0554 66.2197 10.2789 65.7614 10.6122 65.375C10.9455 64.9848 11.3755 64.6856 11.902 64.4773C12.4323 64.2652 13.0459 64.1591 13.7429 64.1591C14.2277 64.1591 14.6918 64.2159 15.1349 64.3295C15.5819 64.4432 15.9777 64.6193 16.3224 64.858C16.6709 65.0966 16.9455 65.4034 17.1463 65.7784C17.3471 66.1496 17.4474 66.5947 17.4474 67.1136V73H15.152V71.7898H15.0838C14.9437 72.0625 14.7562 72.303 14.5213 72.5114C14.2865 72.7159 14.0043 72.8769 13.6747 72.9943C13.3452 73.108 12.9645 73.1648 12.5327 73.1648ZM13.2259 71.4943C13.5819 71.4943 13.8963 71.4242 14.169 71.2841C14.4418 71.1402 14.6558 70.947 14.8111 70.7045C14.9664 70.4621 15.044 70.1875 15.044 69.8807V68.9545C14.9683 69.0038 14.8641 69.0492 14.7315 69.0909C14.6027 69.1288 14.4569 69.1648 14.294 69.1989C14.1312 69.2292 13.9683 69.2576 13.8054 69.2841C13.6425 69.3068 13.4948 69.3277 13.3622 69.3466C13.0781 69.3883 12.83 69.4545 12.6179 69.5455C12.4058 69.6364 12.241 69.7595 12.1236 69.9148C12.0062 70.0663 11.9474 70.2557 11.9474 70.483C11.9474 70.8125 12.0668 71.0644 12.3054 71.2386C12.5478 71.4091 12.8546 71.4943 13.2259 71.4943ZM19.3707 73V61.3636H21.7912V65.7386H21.8651C21.9711 65.5038 22.1245 65.2652 22.3253 65.0227C22.5298 64.7765 22.795 64.572 23.1207 64.4091C23.4503 64.2424 23.8594 64.1591 24.348 64.1591C24.9844 64.1591 25.5715 64.3258 26.1094 64.6591C26.6473 64.9886 27.0772 65.4867 27.3991 66.1534C27.7211 66.8163 27.8821 67.6477 27.8821 68.6477C27.8821 69.6212 27.7249 70.4432 27.4105 71.1136C27.0999 71.7803 26.6757 72.286 26.1378 72.6307C25.6037 72.9716 25.0052 73.142 24.3423 73.142C23.8726 73.142 23.473 73.0644 23.1435 72.9091C22.8177 72.7538 22.5507 72.5587 22.3423 72.3239C22.134 72.0852 21.9749 71.8447 21.8651 71.6023H21.7571V73H19.3707ZM21.7401 68.6364C21.7401 69.1553 21.812 69.608 21.956 69.9943C22.0999 70.3807 22.3082 70.6818 22.581 70.8977C22.8537 71.1098 23.1851 71.2159 23.5753 71.2159C23.9692 71.2159 24.3026 71.108 24.5753 70.892C24.848 70.6723 25.0545 70.3693 25.1946 69.983C25.3385 69.5928 25.4105 69.1439 25.4105 68.6364C25.4105 68.1326 25.3404 67.6894 25.2003 67.3068C25.0601 66.9242 24.8537 66.625 24.581 66.4091C24.3082 66.1932 23.973 66.0852 23.5753 66.0852C23.1813 66.0852 22.848 66.1894 22.5753 66.3977C22.3063 66.6061 22.0999 66.9015 21.956 67.2841C21.812 67.6667 21.7401 68.1174 21.7401 68.6364ZM33.4744 73.1705C32.5767 73.1705 31.804 72.9886 31.1562 72.625C30.5123 72.2576 30.0161 71.7386 29.6676 71.0682C29.3191 70.3939 29.1449 69.5966 29.1449 68.6761C29.1449 67.7784 29.3191 66.9905 29.6676 66.3125C30.0161 65.6345 30.5066 65.1061 31.1392 64.7273C31.7756 64.3485 32.5218 64.1591 33.3778 64.1591C33.9536 64.1591 34.4896 64.2519 34.9858 64.4375C35.4858 64.6193 35.9214 64.8939 36.2926 65.2614C36.6676 65.6288 36.9593 66.0909 37.1676 66.6477C37.3759 67.2008 37.4801 67.8485 37.4801 68.5909V69.2557H30.1108V67.7557H35.2017C35.2017 67.4072 35.1259 67.0985 34.9744 66.8295C34.8229 66.5606 34.6127 66.3504 34.3438 66.1989C34.0786 66.0436 33.7699 65.9659 33.4176 65.9659C33.0502 65.9659 32.7244 66.0511 32.4403 66.2216C32.16 66.3883 31.9403 66.6136 31.7812 66.8977C31.6222 67.178 31.5407 67.4905 31.5369 67.8352V69.2614C31.5369 69.6932 31.6165 70.0663 31.7756 70.3807C31.9384 70.6951 32.1676 70.9375 32.4631 71.108C32.7585 71.2784 33.1089 71.3636 33.5142 71.3636C33.7831 71.3636 34.0294 71.3258 34.2528 71.25C34.4763 71.1742 34.6676 71.0606 34.8267 70.9091C34.9858 70.7576 35.107 70.572 35.1903 70.3523L37.429 70.5C37.3153 71.0379 37.0824 71.5076 36.7301 71.9091C36.3816 72.3068 35.9309 72.6174 35.3778 72.8409C34.8286 73.0606 34.1941 73.1705 33.4744 73.1705ZM41.4801 61.3636V73H39.0597V61.3636H41.4801Z" fill="#344054"/>
<path d="M547.609 73.1591C546.753 73.1591 546.024 72.9261 545.422 72.4602C544.82 71.9905 544.359 71.3106 544.041 70.4205C543.723 69.5265 543.564 68.447 543.564 67.1818C543.564 65.9242 543.723 64.8504 544.041 63.9602C544.363 63.0663 544.825 62.3845 545.428 61.9148C546.034 61.4413 546.761 61.2045 547.609 61.2045C548.458 61.2045 549.183 61.4413 549.786 61.9148C550.392 62.3845 550.854 63.0663 551.172 63.9602C551.494 64.8504 551.655 65.9242 551.655 67.1818C551.655 68.447 551.496 69.5265 551.178 70.4205C550.859 71.3106 550.399 71.9905 549.797 72.4602C549.195 72.9261 548.465 73.1591 547.609 73.1591ZM547.609 71.9091C548.458 71.9091 549.117 71.5 549.587 70.6818C550.056 69.8636 550.291 68.697 550.291 67.1818C550.291 66.1742 550.183 65.3163 549.967 64.608C549.755 63.8996 549.448 63.3598 549.047 62.9886C548.649 62.6174 548.17 62.4318 547.609 62.4318C546.768 62.4318 546.111 62.8466 545.638 63.6761C545.164 64.5019 544.928 65.6705 544.928 67.1818C544.928 68.1894 545.034 69.0455 545.246 69.75C545.458 70.4545 545.763 70.9905 546.161 71.358C546.562 71.7254 547.045 71.9091 547.609 71.9091ZM557.95 60.8182L554.2 74.75H552.973L556.723 60.8182H557.95ZM559.517 73V71.9773L563.358 67.7727C563.809 67.2803 564.18 66.8523 564.472 66.4886C564.763 66.1212 564.979 65.7765 565.119 65.4545C565.263 65.1288 565.335 64.7879 565.335 64.4318C565.335 64.0227 565.237 63.6686 565.04 63.3693C564.847 63.0701 564.581 62.839 564.244 62.6761C563.907 62.5133 563.528 62.4318 563.108 62.4318C562.661 62.4318 562.271 62.5246 561.938 62.7102C561.608 62.892 561.352 63.1477 561.17 63.4773C560.992 63.8068 560.903 64.1932 560.903 64.6364H559.562C559.562 63.9545 559.72 63.3561 560.034 62.8409C560.348 62.3258 560.777 61.9242 561.318 61.6364C561.864 61.3485 562.475 61.2045 563.153 61.2045C563.835 61.2045 564.439 61.3485 564.966 61.6364C565.492 61.9242 565.905 62.3125 566.205 62.8011C566.504 63.2898 566.653 63.8333 566.653 64.4318C566.653 64.8598 566.576 65.2784 566.42 65.6875C566.269 66.0928 566.004 66.5455 565.625 67.0455C565.25 67.5417 564.729 68.1477 564.062 68.8636L561.449 71.6591V71.75H566.858V73H559.517ZM573 73.1591C572.144 73.1591 571.415 72.9261 570.812 72.4602C570.21 71.9905 569.75 71.3106 569.432 70.4205C569.114 69.5265 568.955 68.447 568.955 67.1818C568.955 65.9242 569.114 64.8504 569.432 63.9602C569.754 63.0663 570.216 62.3845 570.818 61.9148C571.424 61.4413 572.152 61.2045 573 61.2045C573.848 61.2045 574.574 61.4413 575.176 61.9148C575.782 62.3845 576.244 63.0663 576.562 63.9602C576.884 64.8504 577.045 65.9242 577.045 67.1818C577.045 68.447 576.886 69.5265 576.568 70.4205C576.25 71.3106 575.79 71.9905 575.188 72.4602C574.585 72.9261 573.856 73.1591 573 73.1591ZM573 71.9091C573.848 71.9091 574.508 71.5 574.977 70.6818C575.447 69.8636 575.682 68.697 575.682 67.1818C575.682 66.1742 575.574 65.3163 575.358 64.608C575.146 63.8996 574.839 63.3598 574.438 62.9886C574.04 62.6174 573.561 62.4318 573 62.4318C572.159 62.4318 571.502 62.8466 571.028 63.6761C570.555 64.5019 570.318 65.6705 570.318 67.1818C570.318 68.1894 570.424 69.0455 570.636 69.75C570.848 70.4545 571.153 70.9905 571.551 71.358C571.953 71.7254 572.436 71.9091 573 71.9091ZM583 73.1591C582.144 73.1591 581.415 72.9261 580.812 72.4602C580.21 71.9905 579.75 71.3106 579.432 70.4205C579.114 69.5265 578.955 68.447 578.955 67.1818C578.955 65.9242 579.114 64.8504 579.432 63.9602C579.754 63.0663 580.216 62.3845 580.818 61.9148C581.424 61.4413 582.152 61.2045 583 61.2045C583.848 61.2045 584.574 61.4413 585.176 61.9148C585.782 62.3845 586.244 63.0663 586.562 63.9602C586.884 64.8504 587.045 65.9242 587.045 67.1818C587.045 68.447 586.886 69.5265 586.568 70.4205C586.25 71.3106 585.79 71.9905 585.188 72.4602C584.585 72.9261 583.856 73.1591 583 73.1591ZM583 71.9091C583.848 71.9091 584.508 71.5 584.977 70.6818C585.447 69.8636 585.682 68.697 585.682 67.1818C585.682 66.1742 585.574 65.3163 585.358 64.608C585.146 63.8996 584.839 63.3598 584.438 62.9886C584.04 62.6174 583.561 62.4318 583 62.4318C582.159 62.4318 581.502 62.8466 581.028 63.6761C580.555 64.5019 580.318 65.6705 580.318 67.1818C580.318 68.1894 580.424 69.0455 580.636 69.75C580.848 70.4545 581.153 70.9905 581.551 71.358C581.953 71.7254 582.436 71.9091 583 71.9091Z" fill="#344054"/>
<rect x="0.5" y="83.5" width="587" height="289" rx="3.5" fill="white"/>
<path d="M20.068 115V104.452H16.504V103.192H25.144V104.452H21.58V115H20.068ZM27.1264 115V102.184H28.6024V105.676L28.5484 107.476C28.9684 107.08 29.4064 106.744 29.8624 106.468C30.3304 106.18 30.8644 106.036 31.4644 106.036C32.3884 106.036 33.0604 106.33 33.4804 106.918C33.9124 107.494 34.1284 108.34 34.1284 109.456V115H32.6524V109.654C32.6524 108.838 32.5204 108.244 32.2564 107.872C31.9924 107.5 31.5724 107.314 30.9964 107.314C30.5524 107.314 30.1504 107.428 29.7904 107.656C29.4424 107.884 29.0464 108.22 28.6024 108.664V115H27.1264ZM36.9174 115V106.252H38.3934V115H36.9174ZM37.6734 104.452C37.3854 104.452 37.1454 104.368 36.9534 104.2C36.7734 104.02 36.6834 103.78 36.6834 103.48C36.6834 103.192 36.7734 102.958 36.9534 102.778C37.1454 102.598 37.3854 102.508 37.6734 102.508C37.9614 102.508 38.1954 102.598 38.3754 102.778C38.5674 102.958 38.6634 103.192 38.6634 103.48C38.6634 103.78 38.5674 104.02 38.3754 104.2C38.1954 104.368 37.9614 104.452 37.6734 104.452ZM43.6331 115.216C43.0091 115.216 42.4151 115.102 41.8511 114.874C41.2871 114.634 40.7951 114.346 40.3751 114.01L41.1131 113.02C41.4971 113.32 41.8931 113.572 42.3011 113.776C42.7091 113.968 43.1711 114.064 43.6871 114.064C44.2631 114.064 44.6951 113.932 44.9831 113.668C45.2711 113.392 45.4151 113.068 45.4151 112.696C45.4151 112.396 45.3131 112.144 45.1091 111.94C44.9171 111.736 44.6651 111.568 44.3531 111.436C44.0531 111.292 43.7411 111.16 43.4171 111.04C43.0091 110.884 42.6071 110.71 42.2111 110.518C41.8151 110.314 41.4911 110.056 41.2391 109.744C40.9871 109.42 40.8611 109.012 40.8611 108.52C40.8611 107.812 41.1251 107.224 41.6531 106.756C42.1931 106.276 42.9371 106.036 43.8851 106.036C44.4251 106.036 44.9291 106.132 45.3971 106.324C45.8651 106.516 46.2671 106.75 46.6031 107.026L45.8831 107.962C45.5831 107.734 45.2711 107.548 44.9471 107.404C44.6231 107.26 44.2691 107.188 43.8851 107.188C43.3331 107.188 42.9251 107.314 42.6611 107.566C42.4091 107.818 42.2831 108.112 42.2831 108.448C42.2831 108.724 42.3731 108.952 42.5531 109.132C42.7331 109.3 42.9671 109.45 43.2551 109.582C43.5431 109.702 43.8491 109.828 44.1731 109.96C44.5931 110.116 45.0071 110.296 45.4151 110.5C45.8231 110.692 46.1591 110.956 46.4231 111.292C46.6991 111.616 46.8371 112.054 46.8371 112.606C46.8371 113.074 46.7111 113.506 46.4591 113.902C46.2191 114.298 45.8591 114.616 45.3791 114.856C44.9111 115.096 44.3291 115.216 43.6331 115.216ZM52.4916 115V106.252H53.9676V115H52.4916ZM53.2476 104.452C52.9596 104.452 52.7196 104.368 52.5276 104.2C52.3476 104.02 52.2576 103.78 52.2576 103.48C52.2576 103.192 52.3476 102.958 52.5276 102.778C52.7196 102.598 52.9596 102.508 53.2476 102.508C53.5356 102.508 53.7696 102.598 53.9496 102.778C54.1416 102.958 54.2376 103.192 54.2376 103.48C54.2376 103.78 54.1416 104.02 53.9496 104.2C53.7696 104.368 53.5356 104.452 53.2476 104.452ZM59.2073 115.216C58.5833 115.216 57.9893 115.102 57.4253 114.874C56.8613 114.634 56.3693 114.346 55.9493 114.01L56.6873 113.02C57.0713 113.32 57.4673 113.572 57.8753 113.776C58.2833 113.968 58.7453 114.064 59.2613 114.064C59.8373 114.064 60.2693 113.932 60.5573 113.668C60.8453 113.392 60.9893 113.068 60.9893 112.696C60.9893 112.396 60.8873 112.144 60.6833 111.94C60.4913 111.736 60.2393 111.568 59.9273 111.436C59.6273 111.292 59.3153 111.16 58.9913 111.04C58.5833 110.884 58.1813 110.71 57.7853 110.518C57.3893 110.314 57.0653 110.056 56.8133 109.744C56.5613 109.42 56.4353 109.012 56.4353 108.52C56.4353 107.812 56.6993 107.224 57.2273 106.756C57.7673 106.276 58.5113 106.036 59.4593 106.036C59.9993 106.036 60.5033 106.132 60.9713 106.324C61.4393 106.516 61.8413 106.75 62.1773 107.026L61.4573 107.962C61.1573 107.734 60.8453 107.548 60.5213 107.404C60.1973 107.26 59.8433 107.188 59.4593 107.188C58.9073 107.188 58.4993 107.314 58.2353 107.566C57.9833 107.818 57.8573 108.112 57.8573 108.448C57.8573 108.724 57.9473 108.952 58.1273 109.132C58.3073 109.3 58.5413 109.45 58.8293 109.582C59.1173 109.702 59.4233 109.828 59.7473 109.96C60.1673 110.116 60.5813 110.296 60.9893 110.5C61.3973 110.692 61.7333 110.956 61.9973 111.292C62.2733 111.616 62.4113 112.054 62.4113 112.606C62.4113 113.074 62.2853 113.506 62.0333 113.902C61.7933 114.298 61.4333 114.616 60.9533 114.856C60.4853 115.096 59.9033 115.216 59.2073 115.216ZM70.8198 115.216C69.8838 115.216 69.2298 114.946 68.8578 114.406C68.4978 113.866 68.3178 113.164 68.3178 112.3V107.458H67.0218V106.342L68.3898 106.252L68.5698 103.804H69.8118V106.252H72.1698V107.458H69.8118V112.318C69.8118 112.858 69.9078 113.278 70.0998 113.578C70.3038 113.866 70.6578 114.01 71.1618 114.01C71.3178 114.01 71.4858 113.986 71.6658 113.938C71.8458 113.878 72.0078 113.824 72.1518 113.776L72.4398 114.892C72.1998 114.976 71.9358 115.048 71.6478 115.108C71.3718 115.18 71.0958 115.216 70.8198 115.216ZM77.4478 115.216C76.6678 115.216 75.9598 115.036 75.3238 114.676C74.6878 114.304 74.1838 113.776 73.8118 113.092C73.4398 112.408 73.2538 111.592 73.2538 110.644C73.2538 109.684 73.4398 108.862 73.8118 108.178C74.1958 107.494 74.6878 106.966 75.2878 106.594C75.8878 106.222 76.5178 106.036 77.1778 106.036C78.2938 106.036 79.1518 106.408 79.7518 107.152C80.3638 107.896 80.6698 108.892 80.6698 110.14C80.6698 110.296 80.6638 110.452 80.6518 110.608C80.6518 110.752 80.6398 110.878 80.6158 110.986H74.7118C74.7718 111.91 75.0598 112.648 75.5758 113.2C76.1038 113.752 76.7878 114.028 77.6278 114.028C78.0478 114.028 78.4318 113.968 78.7798 113.848C79.1398 113.716 79.4818 113.548 79.8058 113.344L80.3278 114.316C79.9558 114.556 79.5298 114.766 79.0498 114.946C78.5818 115.126 78.0478 115.216 77.4478 115.216ZM74.6938 109.924H79.3738C79.3738 109.036 79.1818 108.364 78.7978 107.908C78.4258 107.44 77.8978 107.206 77.2138 107.206C76.6018 107.206 76.0498 107.446 75.5578 107.926C75.0778 108.394 74.7898 109.06 74.6938 109.924ZM81.4844 115L84.3464 110.428L81.7004 106.252H83.3024L84.4724 108.178C84.6044 108.406 84.7424 108.646 84.8864 108.898C85.0304 109.15 85.1804 109.396 85.3364 109.636H85.4084C85.5404 109.396 85.6724 109.15 85.8044 108.898C85.9364 108.646 86.0684 108.406 86.2004 108.178L87.2624 106.252H88.8104L86.1644 110.59L89.0084 115H87.4064L86.1284 112.966C85.9724 112.702 85.8164 112.438 85.6604 112.174C85.5044 111.91 85.3424 111.652 85.1744 111.4H85.1024C84.9464 111.652 84.7964 111.91 84.6524 112.174C84.5084 112.426 84.3644 112.69 84.2204 112.966L83.0324 115H81.4844ZM93.0562 115.216C92.1202 115.216 91.4662 114.946 91.0942 114.406C90.7342 113.866 90.5542 113.164 90.5542 112.3V107.458H89.2582V106.342L90.6262 106.252L90.8062 103.804H92.0482V106.252H94.4062V107.458H92.0482V112.318C92.0482 112.858 92.1442 113.278 92.3362 113.578C92.5402 113.866 92.8942 114.01 93.3982 114.01C93.5542 114.01 93.7222 113.986 93.9022 113.938C94.0822 113.878 94.2442 113.824 94.3882 113.776L94.6762 114.892C94.4362 114.976 94.1722 115.048 93.8842 115.108C93.6082 115.18 93.3322 115.216 93.0562 115.216ZM102.742 115.216C101.806 115.216 101.152 114.946 100.78 114.406C100.42 113.866 100.24 113.164 100.24 112.3V107.458H98.9437V106.342L100.312 106.252L100.492 103.804H101.734V106.252H104.092V107.458H101.734V112.318C101.734 112.858 101.83 113.278 102.022 113.578C102.226 113.866 102.58 114.01 103.084 114.01C103.24 114.01 103.408 113.986 103.588 113.938C103.768 113.878 103.93 113.824 104.074 113.776L104.362 114.892C104.122 114.976 103.858 115.048 103.57 115.108C103.294 115.18 103.018 115.216 102.742 115.216ZM106.07 115V102.184H107.546V105.676L107.492 107.476C107.912 107.08 108.35 106.744 108.806 106.468C109.274 106.18 109.808 106.036 110.408 106.036C111.332 106.036 112.004 106.33 112.424 106.918C112.856 107.494 113.072 108.34 113.072 109.456V115H111.596V109.654C111.596 108.838 111.464 108.244 111.2 107.872C110.936 107.5 110.516 107.314 109.94 107.314C109.496 107.314 109.094 107.428 108.734 107.656C108.386 107.884 107.99 108.22 107.546 108.664V115H106.07ZM117.877 115.216C117.145 115.216 116.533 115 116.041 114.568C115.561 114.124 115.321 113.512 115.321 112.732C115.321 111.772 115.747 111.04 116.599 110.536C117.463 110.02 118.825 109.66 120.685 109.456C120.685 109.084 120.631 108.73 120.523 108.394C120.427 108.058 120.247 107.788 119.983 107.584C119.731 107.368 119.365 107.26 118.885 107.26C118.381 107.26 117.907 107.356 117.463 107.548C117.019 107.74 116.623 107.956 116.275 108.196L115.699 107.17C116.107 106.906 116.605 106.654 117.193 106.414C117.793 106.162 118.441 106.036 119.137 106.036C120.205 106.036 120.979 106.366 121.459 107.026C121.939 107.674 122.179 108.544 122.179 109.636V115H120.955L120.829 113.956H120.775C120.367 114.292 119.917 114.586 119.425 114.838C118.945 115.09 118.429 115.216 117.877 115.216ZM118.309 114.028C118.729 114.028 119.125 113.926 119.497 113.722C119.869 113.518 120.265 113.23 120.685 112.858V110.428C119.233 110.608 118.213 110.878 117.625 111.238C117.049 111.598 116.761 112.06 116.761 112.624C116.761 113.116 116.911 113.476 117.211 113.704C117.511 113.92 117.877 114.028 118.309 114.028ZM127.439 115.216C126.503 115.216 125.849 114.946 125.477 114.406C125.117 113.866 124.937 113.164 124.937 112.3V107.458H123.641V106.342L125.009 106.252L125.189 103.804H126.431V106.252H128.789V107.458H126.431V112.318C126.431 112.858 126.527 113.278 126.719 113.578C126.923 113.866 127.277 114.01 127.781 114.01C127.937 114.01 128.105 113.986 128.285 113.938C128.465 113.878 128.627 113.824 128.771 113.776L129.059 114.892C128.819 114.976 128.555 115.048 128.267 115.108C127.991 115.18 127.715 115.216 127.439 115.216ZM134.371 115V102.184H135.847V105.676L135.793 107.476C136.213 107.08 136.651 106.744 137.107 106.468C137.575 106.18 138.109 106.036 138.709 106.036C139.633 106.036 140.305 106.33 140.725 106.918C141.157 107.494 141.373 108.34 141.373 109.456V115H139.897V109.654C139.897 108.838 139.765 108.244 139.501 107.872C139.237 107.5 138.817 107.314 138.241 107.314C137.797 107.314 137.395 107.428 137.035 107.656C136.687 107.884 136.291 108.22 135.847 108.664V115H134.371ZM146.178 115.216C145.446 115.216 144.834 115 144.342 114.568C143.862 114.124 143.622 113.512 143.622 112.732C143.622 111.772 144.048 111.04 144.9 110.536C145.764 110.02 147.126 109.66 148.986 109.456C148.986 109.084 148.932 108.73 148.824 108.394C148.728 108.058 148.548 107.788 148.284 107.584C148.032 107.368 147.666 107.26 147.186 107.26C146.682 107.26 146.208 107.356 145.764 107.548C145.32 107.74 144.924 107.956 144.576 108.196L144 107.17C144.408 106.906 144.906 106.654 145.494 106.414C146.094 106.162 146.742 106.036 147.438 106.036C148.506 106.036 149.28 106.366 149.76 107.026C150.24 107.674 150.48 108.544 150.48 109.636V115H149.256L149.13 113.956H149.076C148.668 114.292 148.218 114.586 147.726 114.838C147.246 115.09 146.73 115.216 146.178 115.216ZM146.61 114.028C147.03 114.028 147.426 113.926 147.798 113.722C148.17 113.518 148.566 113.23 148.986 112.858V110.428C147.534 110.608 146.514 110.878 145.926 111.238C145.35 111.598 145.062 112.06 145.062 112.624C145.062 113.116 145.212 113.476 145.512 113.704C145.812 113.92 146.178 114.028 146.61 114.028ZM155.518 115.216C154.894 115.216 154.3 115.102 153.736 114.874C153.172 114.634 152.68 114.346 152.26 114.01L152.998 113.02C153.382 113.32 153.778 113.572 154.186 113.776C154.594 113.968 155.056 114.064 155.572 114.064C156.148 114.064 156.58 113.932 156.868 113.668C157.156 113.392 157.3 113.068 157.3 112.696C157.3 112.396 157.198 112.144 156.994 111.94C156.802 111.736 156.55 111.568 156.238 111.436C155.938 111.292 155.626 111.16 155.302 111.04C154.894 110.884 154.492 110.71 154.096 110.518C153.7 110.314 153.376 110.056 153.124 109.744C152.872 109.42 152.746 109.012 152.746 108.52C152.746 107.812 153.01 107.224 153.538 106.756C154.078 106.276 154.822 106.036 155.77 106.036C156.31 106.036 156.814 106.132 157.282 106.324C157.75 106.516 158.152 106.75 158.488 107.026L157.768 107.962C157.468 107.734 157.156 107.548 156.832 107.404C156.508 107.26 156.154 107.188 155.77 107.188C155.218 107.188 154.81 107.314 154.546 107.566C154.294 107.818 154.168 108.112 154.168 108.448C154.168 108.724 154.258 108.952 154.438 109.132C154.618 109.3 154.852 109.45 155.14 109.582C155.428 109.702 155.734 109.828 156.058 109.96C156.478 110.116 156.892 110.296 157.3 110.5C157.708 110.692 158.044 110.956 158.308 111.292C158.584 111.616 158.722 112.054 158.722 112.606C158.722 113.074 158.596 113.506 158.344 113.902C158.104 114.298 157.744 114.616 157.264 114.856C156.796 115.096 156.214 115.216 155.518 115.216ZM168.246 115.216C167.838 115.216 167.412 115.12 166.968 114.928C166.536 114.724 166.128 114.448 165.744 114.1H165.69L165.564 115H164.376V102.184H165.852V105.676L165.816 107.26C166.212 106.912 166.644 106.624 167.112 106.396C167.592 106.156 168.072 106.036 168.552 106.036C169.692 106.036 170.556 106.438 171.144 107.242C171.732 108.046 172.026 109.126 172.026 110.482C172.026 111.478 171.846 112.33 171.486 113.038C171.138 113.746 170.676 114.286 170.1 114.658C169.536 115.03 168.918 115.216 168.246 115.216ZM167.994 113.974C168.714 113.974 169.308 113.668 169.776 113.056C170.256 112.432 170.496 111.58 170.496 110.5C170.496 109.54 170.316 108.766 169.956 108.178C169.608 107.578 169.02 107.278 168.192 107.278C167.82 107.278 167.442 107.38 167.058 107.584C166.674 107.788 166.272 108.082 165.852 108.466V113.056C166.236 113.392 166.614 113.632 166.986 113.776C167.37 113.908 167.706 113.974 167.994 113.974ZM177.872 115.216C177.092 115.216 176.384 115.036 175.748 114.676C175.112 114.304 174.608 113.776 174.236 113.092C173.864 112.408 173.678 111.592 173.678 110.644C173.678 109.684 173.864 108.862 174.236 108.178C174.62 107.494 175.112 106.966 175.712 106.594C176.312 106.222 176.942 106.036 177.602 106.036C178.718 106.036 179.576 106.408 180.176 107.152C180.788 107.896 181.094 108.892 181.094 110.14C181.094 110.296 181.088 110.452 181.076 110.608C181.076 110.752 181.064 110.878 181.04 110.986H175.136C175.196 111.91 175.484 112.648 176 113.2C176.528 113.752 177.212 114.028 178.052 114.028C178.472 114.028 178.856 113.968 179.204 113.848C179.564 113.716 179.906 113.548 180.23 113.344L180.752 114.316C180.38 114.556 179.954 114.766 179.474 114.946C179.006 115.126 178.472 115.216 177.872 115.216ZM175.118 109.924H179.798C179.798 109.036 179.606 108.364 179.222 107.908C178.85 107.44 178.322 107.206 177.638 107.206C177.026 107.206 176.474 107.446 175.982 107.926C175.502 108.394 175.214 109.06 175.118 109.924ZM186.801 115.216C186.021 115.216 185.313 115.036 184.677 114.676C184.041 114.304 183.537 113.776 183.165 113.092C182.793 112.408 182.607 111.592 182.607 110.644C182.607 109.684 182.793 108.862 183.165 108.178C183.549 107.494 184.041 106.966 184.641 106.594C185.241 106.222 185.871 106.036 186.531 106.036C187.647 106.036 188.505 106.408 189.105 107.152C189.717 107.896 190.023 108.892 190.023 110.14C190.023 110.296 190.017 110.452 190.005 110.608C190.005 110.752 189.993 110.878 189.969 110.986H184.065C184.125 111.91 184.413 112.648 184.929 113.2C185.457 113.752 186.141 114.028 186.981 114.028C187.401 114.028 187.785 113.968 188.133 113.848C188.493 113.716 188.835 113.548 189.159 113.344L189.681 114.316C189.309 114.556 188.883 114.766 188.403 114.946C187.935 115.126 187.401 115.216 186.801 115.216ZM184.047 109.924H188.727C188.727 109.036 188.535 108.364 188.151 107.908C187.779 107.44 187.251 107.206 186.567 107.206C185.955 107.206 185.403 107.446 184.911 107.926C184.431 108.394 184.143 109.06 184.047 109.924ZM192.185 115V106.252H193.409L193.535 107.512H193.589C194.009 107.092 194.453 106.744 194.921 106.468C195.389 106.18 195.923 106.036 196.523 106.036C197.447 106.036 198.119 106.33 198.539 106.918C198.971 107.494 199.187 108.34 199.187 109.456V115H197.711V109.654C197.711 108.838 197.579 108.244 197.315 107.872C197.051 107.5 196.631 107.314 196.055 107.314C195.611 107.314 195.209 107.428 194.849 107.656C194.501 107.884 194.105 108.22 193.661 108.664V115H192.185ZM205.884 115V107.458H204.696V106.342L205.884 106.252V104.866C205.884 103.978 206.088 103.276 206.496 102.76C206.916 102.232 207.564 101.968 208.44 101.968C208.716 101.968 208.98 101.998 209.232 102.058C209.484 102.106 209.706 102.172 209.898 102.256L209.574 103.39C209.25 103.246 208.92 103.174 208.584 103.174C207.768 103.174 207.36 103.738 207.36 104.866V106.252H209.214V107.458H207.36V115H205.884ZM210.888 115V106.252H212.364V115H210.888ZM211.644 104.452C211.356 104.452 211.116 104.368 210.924 104.2C210.744 104.02 210.654 103.78 210.654 103.48C210.654 103.192 210.744 102.958 210.924 102.778C211.116 102.598 211.356 102.508 211.644 102.508C211.932 102.508 212.166 102.598 212.346 102.778C212.538 102.958 212.634 103.192 212.634 103.48C212.634 103.78 212.538 104.02 212.346 104.2C212.166 104.368 211.932 104.452 211.644 104.452ZM216.884 115.216C216.332 115.216 215.93 115.048 215.678 114.712C215.438 114.364 215.318 113.872 215.318 113.236V102.184H216.794V113.344C216.794 113.572 216.836 113.74 216.92 113.848C217.004 113.944 217.1 113.992 217.208 113.992C217.256 113.992 217.298 113.992 217.334 113.992C217.382 113.98 217.448 113.968 217.532 113.956L217.73 115.072C217.634 115.12 217.52 115.156 217.388 115.18C217.256 115.204 217.088 115.216 216.884 115.216ZM221.472 115.216C220.92 115.216 220.518 115.048 220.266 114.712C220.026 114.364 219.906 113.872 219.906 113.236V102.184H221.382V113.344C221.382 113.572 221.424 113.74 221.508 113.848C221.592 113.944 221.688 113.992 221.796 113.992C221.844 113.992 221.886 113.992 221.922 113.992C221.97 113.98 222.036 113.968 222.12 113.956L222.318 115.072C222.222 115.12 222.108 115.156 221.976 115.18C221.844 115.204 221.676 115.216 221.472 115.216ZM228.04 115.216C227.26 115.216 226.552 115.036 225.916 114.676C225.28 114.304 224.776 113.776 224.404 113.092C224.032 112.408 223.846 111.592 223.846 110.644C223.846 109.684 224.032 108.862 224.404 108.178C224.788 107.494 225.28 106.966 225.88 106.594C226.48 106.222 227.11 106.036 227.77 106.036C228.886 106.036 229.744 106.408 230.344 107.152C230.956 107.896 231.262 108.892 231.262 110.14C231.262 110.296 231.256 110.452 231.244 110.608C231.244 110.752 231.232 110.878 231.208 110.986H225.304C225.364 111.91 225.652 112.648 226.168 113.2C226.696 113.752 227.38 114.028 228.22 114.028C228.64 114.028 229.024 113.968 229.372 113.848C229.732 113.716 230.074 113.548 230.398 113.344L230.92 114.316C230.548 114.556 230.122 114.766 229.642 114.946C229.174 115.126 228.64 115.216 228.04 115.216ZM225.286 109.924H229.966C229.966 109.036 229.774 108.364 229.39 107.908C229.018 107.44 228.49 107.206 227.806 107.206C227.194 107.206 226.642 107.446 226.15 107.926C225.67 108.394 225.382 109.06 225.286 109.924ZM236.411 115.216C235.319 115.216 234.443 114.82 233.783 114.028C233.123 113.224 232.793 112.096 232.793 110.644C232.793 109.696 232.967 108.88 233.315 108.196C233.675 107.5 234.143 106.966 234.719 106.594C235.307 106.222 235.931 106.036 236.591 106.036C237.095 106.036 237.533 106.126 237.905 106.306C238.277 106.486 238.655 106.732 239.039 107.044L238.967 105.55V102.184H240.461V115H239.237L239.111 113.974H239.057C238.721 114.31 238.325 114.604 237.869 114.856C237.413 115.096 236.927 115.216 236.411 115.216ZM236.735 113.974C237.503 113.974 238.247 113.572 238.967 112.768V108.196C238.595 107.86 238.235 107.626 237.887 107.494C237.551 107.35 237.203 107.278 236.843 107.278C236.375 107.278 235.949 107.422 235.565 107.71C235.193 107.986 234.893 108.376 234.665 108.88C234.437 109.372 234.323 109.954 234.323 110.626C234.323 111.67 234.533 112.492 234.953 113.092C235.373 113.68 235.967 113.974 236.735 113.974ZM247.011 115V106.252H248.487V115H247.011ZM247.767 104.452C247.479 104.452 247.239 104.368 247.047 104.2C246.867 104.02 246.777 103.78 246.777 103.48C246.777 103.192 246.867 102.958 247.047 102.778C247.239 102.598 247.479 102.508 247.767 102.508C248.055 102.508 248.289 102.598 248.469 102.778C248.661 102.958 248.757 103.192 248.757 103.48C248.757 103.78 248.661 104.02 248.469 104.2C248.289 104.368 248.055 104.452 247.767 104.452ZM251.441 115V106.252H252.665L252.791 107.512H252.845C253.265 107.092 253.709 106.744 254.177 106.468C254.645 106.18 255.179 106.036 255.779 106.036C256.703 106.036 257.375 106.33 257.795 106.918C258.227 107.494 258.443 108.34 258.443 109.456V115H256.967V109.654C256.967 108.838 256.835 108.244 256.571 107.872C256.307 107.5 255.887 107.314 255.311 107.314C254.867 107.314 254.465 107.428 254.105 107.656C253.757 107.884 253.361 108.22 252.917 108.664V115H251.441Z" fill="#344054"/>
<rect x="0.5" y="83.5" width="587" height="289" rx="3.5" stroke="#98A2B3"/>
<circle cx="66" cy="16" r="12" fill="#344054"/>
<path d="M68.0057 10.3636V22H65.5455V12.6989H65.4773L62.8125 14.3693V12.1875L65.6932 10.3636H68.0057Z" fill="white"/>
<path d="M63 16H19V58" stroke="#344054" stroke-dasharray="2 2"/>
<circle cx="565" cy="28" r="12" fill="#344054"/>
<path d="M560.943 34V32.2273L565.085 28.392C565.438 28.0511 565.733 27.7443 565.972 27.4716C566.214 27.1989 566.398 26.9318 566.523 26.6705C566.648 26.4053 566.71 26.1193 566.71 25.8125C566.71 25.4716 566.633 25.178 566.477 24.9318C566.322 24.6818 566.11 24.4905 565.841 24.358C565.572 24.2216 565.267 24.1534 564.926 24.1534C564.57 24.1534 564.259 24.2254 563.994 24.3693C563.729 24.5133 563.525 24.7197 563.381 24.9886C563.237 25.2576 563.165 25.5777 563.165 25.9489H560.83C560.83 25.1875 561.002 24.5265 561.347 23.9659C561.691 23.4053 562.174 22.9716 562.795 22.6648C563.417 22.358 564.133 22.2045 564.943 22.2045C565.777 22.2045 566.502 22.3523 567.119 22.6477C567.741 22.9394 568.223 23.3447 568.568 23.8636C568.913 24.3826 569.085 24.9773 569.085 25.6477C569.085 26.0871 568.998 26.5208 568.824 26.9489C568.653 27.3769 568.348 27.8523 567.909 28.375C567.47 28.8939 566.85 29.517 566.051 30.2443L564.352 31.9091V31.9886H569.239V34H560.943Z" fill="white"/>
<path d="M565 58L565 40" stroke="#344054" stroke-dasharray="2 2"/>
</svg>
