<svg width="450" height="173" viewBox="0 0 450 173" fill="none" xmlns="http://www.w3.org/2000/svg">
<path d="M33.5 66C33.5 63.7909 35.2909 62 37.5 62H170.5V110H37.5C35.2909 110 33.5 108.209 33.5 106V66Z" fill="white"/>
<path d="M33.5 66C33.5 63.7909 35.2909 62 37.5 62H170.5V110H37.5C35.2909 110 33.5 108.209 33.5 106V66Z" fill="white"/>
<path fill-rule="evenodd" clip-rule="evenodd" d="M66.1435 77.2034C66.2079 77.2677 66.2591 77.3441 66.294 77.4282C66.3289 77.5123 66.3468 77.6024 66.3468 77.6935C66.3468 77.7845 66.3289 77.8747 66.294 77.9588C66.2591 78.0429 66.2079 78.1193 66.1435 78.1836L58.3255 86.0002L66.1435 93.8168C66.2735 93.9468 66.3465 94.1231 66.3465 94.3069C66.3465 94.4907 66.2735 94.667 66.1435 94.797C66.0135 94.927 65.8372 95 65.6534 95C65.4696 95 65.2933 94.927 65.1633 94.797L56.8566 86.4903C56.7921 86.426 56.741 86.3496 56.7061 86.2655C56.6712 86.1814 56.6532 86.0912 56.6532 86.0002C56.6532 85.9091 56.6712 85.819 56.7061 85.7349C56.741 85.6508 56.7921 85.5744 56.8566 85.5101L65.1633 77.2034C65.2276 77.1389 65.304 77.0878 65.3881 77.0529C65.4722 77.018 65.5623 77 65.6534 77C65.7444 77 65.8346 77.018 65.9187 77.0529C66.0028 77.0878 66.0792 77.1389 66.1435 77.2034Z" fill="#0F71BB"/>
<path d="M90.9091 92V80.3636H94.8409C95.7538 80.3636 96.5 80.5284 97.0795 80.858C97.6629 81.1837 98.0947 81.625 98.375 82.1818C98.6553 82.7386 98.7955 83.3598 98.7955 84.0455C98.7955 84.7311 98.6553 85.3542 98.375 85.9148C98.0985 86.4754 97.6705 86.9223 97.0909 87.2557C96.5114 87.5852 95.7689 87.75 94.8636 87.75H92.0455V86.5H94.8182C95.4432 86.5 95.9451 86.392 96.3239 86.1761C96.7027 85.9602 96.9773 85.6686 97.1477 85.3011C97.322 84.9299 97.4091 84.5114 97.4091 84.0455C97.4091 83.5795 97.322 83.1629 97.1477 82.7955C96.9773 82.428 96.7008 82.1402 96.3182 81.9318C95.9356 81.7197 95.428 81.6136 94.7955 81.6136H92.3182V92H90.9091ZM100.884 92V83.2727H102.179V84.5909H102.27C102.429 84.1591 102.717 83.8087 103.134 83.5398C103.55 83.2708 104.02 83.1364 104.543 83.1364C104.641 83.1364 104.764 83.1383 104.912 83.142C105.06 83.1458 105.171 83.1515 105.247 83.1591V84.5227C105.202 84.5114 105.098 84.4943 104.935 84.4716C104.776 84.4451 104.607 84.4318 104.429 84.4318C104.005 84.4318 103.626 84.5208 103.293 84.6989C102.963 84.8731 102.702 85.1155 102.509 85.4261C102.319 85.733 102.224 86.0833 102.224 86.4773V92H100.884ZM110.23 92.1818C109.389 92.1818 108.664 91.9962 108.054 91.625C107.448 91.25 106.98 90.7273 106.651 90.0568C106.325 89.3826 106.162 88.5985 106.162 87.7045C106.162 86.8106 106.325 86.0227 106.651 85.3409C106.98 84.6553 107.438 84.1212 108.026 83.7386C108.616 83.3523 109.306 83.1591 110.094 83.1591C110.548 83.1591 110.997 83.2348 111.44 83.3864C111.884 83.5379 112.287 83.7841 112.651 84.125C113.014 84.4621 113.304 84.9091 113.52 85.4659C113.736 86.0227 113.844 86.7083 113.844 87.5227V88.0909H107.116V86.9318H112.48C112.48 86.4394 112.382 86 112.185 85.6136C111.991 85.2273 111.715 84.9223 111.355 84.6989C110.999 84.4754 110.579 84.3636 110.094 84.3636C109.56 84.3636 109.098 84.4962 108.707 84.7614C108.321 85.0227 108.024 85.3636 107.815 85.7841C107.607 86.2045 107.503 86.6553 107.503 87.1364V87.9091C107.503 88.5682 107.616 89.1269 107.844 89.5852C108.075 90.0398 108.395 90.3864 108.804 90.625C109.213 90.8598 109.688 90.9773 110.23 90.9773C110.582 90.9773 110.901 90.928 111.185 90.8295C111.473 90.7273 111.721 90.5758 111.929 90.375C112.137 90.1705 112.298 89.9167 112.412 89.6136L113.707 89.9773C113.571 90.4167 113.342 90.803 113.02 91.1364C112.698 91.4659 112.3 91.7235 111.827 91.9091C111.353 92.0909 110.821 92.1818 110.23 92.1818ZM122.754 83.2727L119.527 92H118.163L114.936 83.2727H116.391L118.8 90.2273H118.891L121.3 83.2727H122.754ZM124.524 92V83.2727H125.865V92H124.524ZM125.206 81.8182C124.945 81.8182 124.719 81.7292 124.53 81.5511C124.344 81.3731 124.251 81.1591 124.251 80.9091C124.251 80.6591 124.344 80.4451 124.53 80.267C124.719 80.089 124.945 80 125.206 80C125.467 80 125.691 80.089 125.876 80.267C126.066 80.4451 126.161 80.6591 126.161 80.9091C126.161 81.1591 126.066 81.3731 125.876 81.5511C125.691 81.7292 125.467 81.8182 125.206 81.8182ZM131.866 92.1818C131.079 92.1818 130.387 91.9943 129.793 91.6193C129.202 91.2443 128.74 90.7197 128.406 90.0455C128.077 89.3712 127.912 88.5833 127.912 87.6818C127.912 86.7727 128.077 85.9792 128.406 85.3011C128.74 84.6231 129.202 84.0966 129.793 83.7216C130.387 83.3466 131.079 83.1591 131.866 83.1591C132.654 83.1591 133.344 83.3466 133.935 83.7216C134.529 84.0966 134.991 84.6231 135.321 85.3011C135.654 85.9792 135.821 86.7727 135.821 87.6818C135.821 88.5833 135.654 89.3712 135.321 90.0455C134.991 90.7197 134.529 91.2443 133.935 91.6193C133.344 91.9943 132.654 92.1818 131.866 92.1818ZM131.866 90.9773C132.465 90.9773 132.957 90.8239 133.344 90.517C133.73 90.2102 134.016 89.8068 134.202 89.3068C134.387 88.8068 134.48 88.2652 134.48 87.6818C134.48 87.0985 134.387 86.5549 134.202 86.0511C134.016 85.5473 133.73 85.1402 133.344 84.8295C132.957 84.5189 132.465 84.3636 131.866 84.3636C131.268 84.3636 130.776 84.5189 130.389 84.8295C130.003 85.1402 129.717 85.5473 129.531 86.0511C129.346 86.5549 129.253 87.0985 129.253 87.6818C129.253 88.2652 129.346 88.8068 129.531 89.3068C129.717 89.8068 130.003 90.2102 130.389 90.517C130.776 90.8239 131.268 90.9773 131.866 90.9773ZM143.368 88.4318V83.2727H144.709V92H143.368V90.5227H143.277C143.072 90.9659 142.754 91.3428 142.322 91.6534C141.891 91.9602 141.345 92.1136 140.686 92.1136C140.141 92.1136 139.656 91.9943 139.232 91.7557C138.807 91.5133 138.474 91.1496 138.232 90.6648C137.989 90.1761 137.868 89.5606 137.868 88.8182V83.2727H139.209V88.7273C139.209 89.3636 139.387 89.8712 139.743 90.25C140.103 90.6288 140.561 90.8182 141.118 90.8182C141.451 90.8182 141.79 90.733 142.135 90.5625C142.483 90.392 142.775 90.1307 143.01 89.7784C143.249 89.4261 143.368 88.9773 143.368 88.4318ZM153.347 85.2273L152.142 85.5682C152.066 85.3674 151.955 85.1723 151.807 84.983C151.663 84.7898 151.466 84.6307 151.216 84.5057C150.966 84.3807 150.646 84.3182 150.256 84.3182C149.722 84.3182 149.277 84.4413 148.92 84.6875C148.568 84.9299 148.392 85.2386 148.392 85.6136C148.392 85.947 148.513 86.2102 148.756 86.4034C148.998 86.5966 149.377 86.7576 149.892 86.8864L151.188 87.2045C151.968 87.3939 152.549 87.6837 152.932 88.0739C153.314 88.4602 153.506 88.9583 153.506 89.5682C153.506 90.0682 153.362 90.5152 153.074 90.9091C152.79 91.303 152.392 91.6136 151.881 91.8409C151.369 92.0682 150.775 92.1818 150.097 92.1818C149.206 92.1818 148.47 91.9886 147.886 91.6023C147.303 91.2159 146.934 90.6515 146.778 89.9091L148.051 89.5909C148.172 90.0606 148.402 90.4129 148.739 90.6477C149.08 90.8826 149.525 91 150.074 91C150.699 91 151.195 90.8674 151.562 90.6023C151.934 90.3333 152.119 90.0114 152.119 89.6364C152.119 89.3333 152.013 89.0795 151.801 88.875C151.589 88.6667 151.263 88.5114 150.824 88.4091L149.369 88.0682C148.57 87.8788 147.983 87.5852 147.608 87.1875C147.237 86.786 147.051 86.2841 147.051 85.6818C147.051 85.1894 147.189 84.7538 147.466 84.375C147.746 83.9962 148.127 83.6989 148.608 83.483C149.093 83.267 149.642 83.1591 150.256 83.1591C151.119 83.1591 151.797 83.3485 152.29 83.7273C152.786 84.1061 153.138 84.6061 153.347 85.2273Z" fill="#0F71BB"/>
<path d="M170.5 62H171V61.5H170.5V62ZM170.5 110V110.5H171V110H170.5ZM37.5 62.5H170.5V61.5H37.5V62.5ZM170 62V110H171V62H170ZM170.5 109.5H37.5V110.5H170.5V109.5ZM34 106V66H33V106H34ZM37.5 109.5C35.567 109.5 34 107.933 34 106H33C33 108.485 35.0147 110.5 37.5 110.5V109.5ZM37.5 61.5C35.0147 61.5 33 63.5147 33 66H34C34 64.067 35.567 62.5 37.5 62.5V61.5Z" fill="#98A2B3"/>
<rect width="40" height="48" transform="translate(170.5 62)" fill="#0F71BB"/>
<path d="M170.5 62H210.5V110H170.5V62Z" fill="#0F71BB"/>
<path d="M191.795 80.3636V92H190.386V81.8409H190.318L187.477 83.7273V82.2955L190.386 80.3636H191.795Z" fill="white"/>
<path d="M170.5 62V61.5H170V62H170.5ZM210.5 62H211V61.5H210.5V62ZM210.5 110V110.5H211V110H210.5ZM170.5 110H170V110.5H170.5V110ZM170.5 62.5H210.5V61.5H170.5V62.5ZM210 62V110H211V62H210ZM210.5 109.5H170.5V110.5H210.5V109.5ZM171 110V62H170V110H171Z" fill="#98A2B3"/>
<path d="M210.5 62H252.5V110H210.5V62Z" fill="white"/>
<path d="M227.705 92V90.9773L231.545 86.7727C231.996 86.2803 232.367 85.8523 232.659 85.4886C232.951 85.1212 233.167 84.7765 233.307 84.4545C233.451 84.1288 233.523 83.7879 233.523 83.4318C233.523 83.0227 233.424 82.6686 233.227 82.3693C233.034 82.0701 232.769 81.839 232.432 81.6761C232.095 81.5133 231.716 81.4318 231.295 81.4318C230.848 81.4318 230.458 81.5246 230.125 81.7102C229.795 81.892 229.54 82.1477 229.358 82.4773C229.18 82.8068 229.091 83.1932 229.091 83.6364H227.75C227.75 82.9545 227.907 82.3561 228.222 81.8409C228.536 81.3258 228.964 80.9242 229.506 80.6364C230.051 80.3485 230.663 80.2045 231.341 80.2045C232.023 80.2045 232.627 80.3485 233.153 80.6364C233.68 80.9242 234.093 81.3125 234.392 81.8011C234.691 82.2898 234.841 82.8333 234.841 83.4318C234.841 83.8598 234.763 84.2784 234.608 84.6875C234.456 85.0928 234.191 85.5455 233.812 86.0455C233.438 86.5417 232.917 87.1477 232.25 87.8636L229.636 90.6591V90.75H235.045V92H227.705Z" fill="#0F71BB"/>
<path d="M210.5 62V61.5H210V62H210.5ZM252.5 62H253V61.5H252.5V62ZM252.5 110V110.5H253V110H252.5ZM210.5 110H210V110.5H210.5V110ZM210.5 62.5H252.5V61.5H210.5V62.5ZM252 62V110H253V62H252ZM252.5 109.5H210.5V110.5H252.5V109.5ZM211 110V62H210V110H211Z" fill="#98A2B3"/>
<path d="M252.5 62H298.5V110H252.5V62Z" fill="white"/>
<path d="M270.705 92.0909C270.424 92.0909 270.184 91.9905 269.983 91.7898C269.782 91.589 269.682 91.3485 269.682 91.0682C269.682 90.7879 269.782 90.5473 269.983 90.3466C270.184 90.1458 270.424 90.0455 270.705 90.0455C270.985 90.0455 271.225 90.1458 271.426 90.3466C271.627 90.5473 271.727 90.7879 271.727 91.0682C271.727 91.2538 271.68 91.4242 271.585 91.5795C271.494 91.7348 271.371 91.8598 271.216 91.9545C271.064 92.0455 270.894 92.0909 270.705 92.0909ZM275.111 92.0909C274.83 92.0909 274.59 91.9905 274.389 91.7898C274.188 91.589 274.088 91.3485 274.088 91.0682C274.088 90.7879 274.188 90.5473 274.389 90.3466C274.59 90.1458 274.83 90.0455 275.111 90.0455C275.391 90.0455 275.632 90.1458 275.832 90.3466C276.033 90.5473 276.134 90.7879 276.134 91.0682C276.134 91.2538 276.086 91.4242 275.991 91.5795C275.901 91.7348 275.777 91.8598 275.622 91.9545C275.471 92.0455 275.3 92.0909 275.111 92.0909ZM279.517 92.0909C279.237 92.0909 278.996 91.9905 278.795 91.7898C278.595 91.589 278.494 91.3485 278.494 91.0682C278.494 90.7879 278.595 90.5473 278.795 90.3466C278.996 90.1458 279.237 90.0455 279.517 90.0455C279.797 90.0455 280.038 90.1458 280.239 90.3466C280.439 90.5473 280.54 90.7879 280.54 91.0682C280.54 91.2538 280.492 91.4242 280.398 91.5795C280.307 91.7348 280.184 91.8598 280.028 91.9545C279.877 92.0455 279.706 92.0909 279.517 92.0909Z" fill="#0F71BB"/>
<path d="M252.5 62V61.5H252V62H252.5ZM298.5 62H299V61.5H298.5V62ZM298.5 110V110.5H299V110H298.5ZM252.5 110H252V110.5H252.5V110ZM252.5 62.5H298.5V61.5H252.5V62.5ZM298 62V110H299V62H298ZM298.5 109.5H252.5V110.5H298.5V109.5ZM253 110V62H252V110H253Z" fill="#98A2B3"/>
<path d="M298.5 62H341.5V110H298.5V62Z" fill="white"/>
<path d="M319.636 92.1591C318.886 92.1591 318.218 92.0303 317.631 91.7727C317.047 91.5152 316.583 91.1572 316.239 90.6989C315.898 90.2367 315.712 89.7008 315.682 89.0909H317.114C317.144 89.4659 317.273 89.7898 317.5 90.0625C317.727 90.3314 318.025 90.5398 318.392 90.6875C318.759 90.8352 319.167 90.9091 319.614 90.9091C320.114 90.9091 320.557 90.822 320.943 90.6477C321.33 90.4735 321.633 90.2311 321.852 89.9205C322.072 89.6098 322.182 89.25 322.182 88.8409C322.182 88.4129 322.076 88.036 321.864 87.7102C321.652 87.3807 321.341 87.1231 320.932 86.9375C320.523 86.7519 320.023 86.6591 319.432 86.6591H318.5V85.4091H319.432C319.894 85.4091 320.299 85.3258 320.648 85.1591C321 84.9924 321.275 84.7576 321.472 84.4545C321.672 84.1515 321.773 83.7955 321.773 83.3864C321.773 82.9924 321.686 82.6496 321.511 82.358C321.337 82.0663 321.091 81.839 320.773 81.6761C320.458 81.5133 320.087 81.4318 319.659 81.4318C319.258 81.4318 318.879 81.5057 318.523 81.6534C318.17 81.7973 317.883 82.0076 317.659 82.2841C317.436 82.5568 317.314 82.8864 317.295 83.2727H315.932C315.955 82.6629 316.138 82.1288 316.483 81.6705C316.828 81.2083 317.278 80.8485 317.835 80.5909C318.396 80.3333 319.011 80.2045 319.682 80.2045C320.402 80.2045 321.019 80.3504 321.534 80.642C322.049 80.9299 322.445 81.3106 322.722 81.7841C322.998 82.2576 323.136 82.7689 323.136 83.3182C323.136 83.9735 322.964 84.5322 322.619 84.9943C322.278 85.4564 321.814 85.7765 321.227 85.9545V86.0455C321.962 86.1667 322.536 86.4792 322.949 86.983C323.362 87.483 323.568 88.1023 323.568 88.8409C323.568 89.4735 323.396 90.0417 323.051 90.5455C322.71 91.0455 322.244 91.4394 321.653 91.7273C321.063 92.0152 320.39 92.1591 319.636 92.1591Z" fill="#0F71BB"/>
<path d="M298.5 62V61.5H298V62H298.5ZM341.5 62H342V61.5H341.5V62ZM341.5 110V110.5H342V110H341.5ZM298.5 110H298V110.5H298.5V110ZM298.5 62.5H341.5V61.5H298.5V62.5ZM341 62V110H342V62H341ZM341.5 109.5H298.5V110.5H341.5V109.5ZM299 110V62H298V110H299Z" fill="#98A2B3"/>
<rect width="108" height="48" transform="translate(341.5 62)" fill="white"/>
<path d="M341.5 62H445.5C447.709 62 449.5 63.7909 449.5 66V106C449.5 108.209 447.709 110 445.5 110H341.5V62Z" fill="white"/>
<path d="M368.136 80.3636V92H366.773L360.432 82.8636H360.318V92H358.909V80.3636H360.273L366.636 89.5227H366.75V80.3636H368.136ZM374.433 92.1818C373.592 92.1818 372.867 91.9962 372.257 91.625C371.651 91.25 371.183 90.7273 370.854 90.0568C370.528 89.3826 370.365 88.5985 370.365 87.7045C370.365 86.8106 370.528 86.0227 370.854 85.3409C371.183 84.6553 371.642 84.1212 372.229 83.7386C372.82 83.3523 373.509 83.1591 374.297 83.1591C374.751 83.1591 375.2 83.2348 375.643 83.3864C376.087 83.5379 376.49 83.7841 376.854 84.125C377.217 84.4621 377.507 84.9091 377.723 85.4659C377.939 86.0227 378.047 86.7083 378.047 87.5227V88.0909H371.32V86.9318H376.683C376.683 86.4394 376.585 86 376.388 85.6136C376.195 85.2273 375.918 84.9223 375.558 84.6989C375.202 84.4754 374.782 84.3636 374.297 84.3636C373.763 84.3636 373.301 84.4962 372.911 84.7614C372.524 85.0227 372.227 85.3636 372.018 85.7841C371.81 86.2045 371.706 86.6553 371.706 87.1364V87.9091C371.706 88.5682 371.82 89.1269 372.047 89.5852C372.278 90.0398 372.598 90.3864 373.007 90.625C373.416 90.8598 373.892 90.9773 374.433 90.9773C374.786 90.9773 375.104 90.928 375.388 90.8295C375.676 90.7273 375.924 90.5758 376.132 90.375C376.34 90.1705 376.501 89.9167 376.615 89.6136L377.911 89.9773C377.774 90.4167 377.545 90.803 377.223 91.1364C376.901 91.4659 376.503 91.7235 376.03 91.9091C375.556 92.0909 375.024 92.1818 374.433 92.1818ZM380.852 83.2727L382.943 86.8409L385.034 83.2727H386.58L383.761 87.6364L386.58 92H385.034L382.943 88.6136L380.852 92H379.307L382.08 87.6364L379.307 83.2727H380.852ZM392.288 83.2727V84.4091H387.766V83.2727H392.288ZM389.084 81.1818H390.425V89.5C390.425 89.8788 390.48 90.1629 390.589 90.3523C390.703 90.5379 390.847 90.6629 391.021 90.7273C391.199 90.7879 391.387 90.8182 391.584 90.8182C391.732 90.8182 391.853 90.8106 391.947 90.7955C392.042 90.7765 392.118 90.7614 392.175 90.75L392.447 91.9545C392.357 91.9886 392.23 92.0227 392.067 92.0568C391.904 92.0947 391.697 92.1136 391.447 92.1136C391.069 92.1136 390.697 92.0322 390.334 91.8693C389.974 91.7064 389.675 91.4583 389.436 91.125C389.201 90.7917 389.084 90.3712 389.084 89.8636V81.1818Z" fill="#0F71BB"/>
<path fill-rule="evenodd" clip-rule="evenodd" d="M416.857 77.2034C416.921 77.1389 416.997 77.0878 417.081 77.0529C417.165 77.018 417.256 77 417.347 77C417.438 77 417.528 77.018 417.612 77.0529C417.696 77.0878 417.772 77.1389 417.837 77.2034L426.143 85.5101C426.208 85.5744 426.259 85.6508 426.294 85.7349C426.329 85.819 426.347 85.9091 426.347 86.0002C426.347 86.0912 426.329 86.1814 426.294 86.2655C426.259 86.3496 426.208 86.426 426.143 86.4903L417.837 94.797C417.707 94.927 417.53 95 417.347 95C417.163 95 416.987 94.927 416.857 94.797C416.727 94.667 416.654 94.4907 416.654 94.3069C416.654 94.1231 416.727 93.9468 416.857 93.8168L424.675 86.0002L416.857 78.1836C416.792 78.1193 416.741 78.0429 416.706 77.9588C416.671 77.8747 416.653 77.7845 416.653 77.6935C416.653 77.6024 416.671 77.5123 416.706 77.4282C416.741 77.3441 416.792 77.2677 416.857 77.2034Z" fill="#0F71BB"/>
<path d="M341.5 62V61.5H341V62H341.5ZM341.5 110H341V110.5H341.5V110ZM341.5 62.5H445.5V61.5H341.5V62.5ZM449 66V106H450V66H449ZM445.5 109.5H341.5V110.5H445.5V109.5ZM342 110V62H341V110H342ZM449 106C449 107.933 447.433 109.5 445.5 109.5V110.5C447.985 110.5 450 108.485 450 106H449ZM445.5 62.5C447.433 62.5 449 64.067 449 66H450C450 63.5147 447.985 61.5 445.5 61.5V62.5Z" fill="#98A2B3"/>
<path d="M117 66V17" stroke="#344054" stroke-dasharray="2 2"/>
<circle cx="12" cy="16" r="12" fill="#344054"/>
<path d="M14.0057 10.3636V22H11.5455V12.6989H11.4773L8.8125 14.3693V12.1875L11.6932 10.3636H14.0057Z" fill="white"/>
<circle cx="105" cy="152" r="12" fill="#344054"/>
<path d="M100.943 158V156.227L105.085 152.392C105.438 152.051 105.733 151.744 105.972 151.472C106.214 151.199 106.398 150.932 106.523 150.67C106.648 150.405 106.71 150.119 106.71 149.812C106.71 149.472 106.633 149.178 106.477 148.932C106.322 148.682 106.11 148.491 105.841 148.358C105.572 148.222 105.267 148.153 104.926 148.153C104.57 148.153 104.259 148.225 103.994 148.369C103.729 148.513 103.525 148.72 103.381 148.989C103.237 149.258 103.165 149.578 103.165 149.949H100.83C100.83 149.187 101.002 148.527 101.347 147.966C101.691 147.405 102.174 146.972 102.795 146.665C103.417 146.358 104.133 146.205 104.943 146.205C105.777 146.205 106.502 146.352 107.119 146.648C107.741 146.939 108.223 147.345 108.568 147.864C108.913 148.383 109.085 148.977 109.085 149.648C109.085 150.087 108.998 150.521 108.824 150.949C108.653 151.377 108.348 151.852 107.909 152.375C107.47 152.894 106.85 153.517 106.051 154.244L104.352 155.909V155.989H109.239V158H100.943Z" fill="white"/>
<path d="M25 16H378V66" stroke="#344054" stroke-dasharray="2 2"/>
<path d="M118 152H191V102" stroke="#344054" stroke-dasharray="2 2"/>
<circle cx="276" cy="157" r="12" fill="#344054"/>
<path d="M276.244 163.159C275.396 163.159 274.64 163.013 273.977 162.722C273.318 162.426 272.797 162.021 272.415 161.506C272.036 160.987 271.841 160.388 271.83 159.71H274.307C274.322 159.994 274.415 160.244 274.585 160.46C274.759 160.672 274.991 160.837 275.278 160.955C275.566 161.072 275.89 161.131 276.25 161.131C276.625 161.131 276.956 161.064 277.244 160.932C277.532 160.799 277.758 160.616 277.92 160.381C278.083 160.146 278.165 159.875 278.165 159.568C278.165 159.258 278.078 158.983 277.903 158.744C277.733 158.502 277.487 158.312 277.165 158.176C276.847 158.04 276.468 157.972 276.028 157.972H274.943V156.165H276.028C276.4 156.165 276.727 156.1 277.011 155.972C277.299 155.843 277.523 155.665 277.682 155.438C277.841 155.206 277.92 154.938 277.92 154.631C277.92 154.339 277.85 154.083 277.71 153.864C277.574 153.64 277.381 153.466 277.131 153.341C276.884 153.216 276.597 153.153 276.267 153.153C275.934 153.153 275.629 153.214 275.352 153.335C275.076 153.453 274.854 153.621 274.688 153.841C274.521 154.061 274.432 154.318 274.42 154.614H272.062C272.074 153.943 272.265 153.352 272.636 152.841C273.008 152.33 273.508 151.93 274.136 151.642C274.769 151.35 275.483 151.205 276.278 151.205C277.081 151.205 277.784 151.35 278.386 151.642C278.989 151.934 279.456 152.328 279.79 152.824C280.127 153.316 280.294 153.869 280.29 154.483C280.294 155.134 280.091 155.678 279.682 156.114C279.277 156.549 278.748 156.826 278.097 156.943V157.034C278.953 157.144 279.604 157.441 280.051 157.926C280.502 158.407 280.725 159.009 280.722 159.733C280.725 160.396 280.534 160.985 280.148 161.5C279.765 162.015 279.237 162.42 278.562 162.716C277.888 163.011 277.116 163.159 276.244 163.159Z" fill="white"/>
<path d="M276 145.5V98" stroke="#344054" stroke-dasharray="2 2"/>
</svg>
