<svg width="486" height="59" viewBox="0 0 486 59" fill="none" xmlns="http://www.w3.org/2000/svg">
<rect width="434" height="28" fill="#F0F0F0"/>
<path d="M4.41572 10.0145C4.41572 10.0145 3.71369 11.0417 4.6332 12.37C4.6332 12.37 4.77819 11.6936 6.23033 11.6936H7.97319C9.61914 11.6936 10.853 10.0651 10.0785 8.38527C10.0785 8.38527 11.2399 8.51089 11.6283 7.75869C12.0152 7.00725 11.6039 6.70621 11.0232 6.70621H8.09451C8.09451 7.24547 7.1025 7.32054 7.1025 6.70621H5.45655C5.45655 6.70621 4.2219 6.70621 4.19823 7.78396C4.19823 7.78396 4.47712 7.60855 4.75452 7.58404V7.87129C4.75452 7.87129 4.41572 7.9341 4.25815 8.02219C4.10132 8.10951 3.87126 8.34773 4.08948 8.96206C4.30697 9.57562 4.39204 9.78856 4.39204 9.78856C4.39204 9.78856 4.74343 9.4745 5.3123 9.4745H5.97807C7.16316 9.4745 6.94567 10.6649 5.75985 10.6649C4.57402 10.6649 4.41719 10.0138 4.41719 10.0138L4.41572 10.0145Z" fill="#DB0000"/>
<path d="M10.5993 8.7744C10.5993 8.7744 10.9988 8.79968 11.2888 8.53694C11.2888 8.53694 13.9149 10.6549 10.0186 14.9146C6.12158 19.175 9.13459 21.9326 9.13459 21.9326C9.13459 21.9326 8.43331 22.6335 8.83203 24C8.83203 24 7.21123 23.0525 5.97141 21.4431C4.17972 19.1176 3.08489 15.5595 8.00499 12.7216C8.00499 12.7216 11.2518 11.0302 10.5986 8.7744H10.5993Z" fill="#DB0000"/>
<path d="M6.58552 6.30563C6.58552 6.30563 7.11001 5.33665 8.32764 5.33665C9.28784 5.33665 9.50681 4.8265 9.50681 4.8265C9.50681 4.8265 9.92551 4 12.0397 4C13.9771 4 15.2828 4.66871 16.3392 5.56186C16.3392 5.56186 13.4911 3.73267 10.6838 6.30563H6.58552Z" fill="#DB0000"/>
<path d="M18.429 12.4373C18.3483 9.4132 16.0891 6.1723 11.2326 6.35614C15.9767 2.19604 24.2057 11.4844 17.4281 16.3646C17.4281 16.3646 18.5621 14.6901 18.429 12.4381V12.4373Z" fill="#DB0000"/>
<path d="M11.959 6.69015C17.8808 6.50631 19.995 13.8575 16.1704 17.1658L12.3304 19.0877C12.3304 19.0877 11.8303 17.4171 13.6864 15.4615C15.5424 13.5075 17.3326 9.84833 12.2024 7.44235C12.2024 7.44235 12.2993 6.9414 11.9605 6.69092L11.959 6.69015Z" fill="#DB0000"/>
<path d="M11.6521 8.34393C11.6521 8.34393 11.9428 8.05975 12.0397 7.82612C16.4442 9.73037 15.751 12.956 13.1205 15.6622C11.5071 17.3826 12.0071 19.2379 12.0071 19.2379C12.0071 19.2379 10.0394 20.5071 9.36103 21.6101C9.36103 21.6101 6.51151 19.0977 10.4581 14.9276C14.3307 10.8342 11.6521 8.3447 11.6521 8.3447V8.34393Z" fill="#DB0000"/>
<path d="M29.6506 19H28.358L32.0966 8.81818H33.3693L37.108 19H35.8153L32.7727 10.429H32.6932L29.6506 19ZM30.1278 15.0227H35.3381V16.1165H30.1278V15.0227ZM48.1996 11.3636C48.1399 10.8598 47.898 10.4688 47.4737 10.1903C47.0495 9.91193 46.5291 9.77273 45.9126 9.77273C45.4619 9.77273 45.0675 9.84564 44.7294 9.99148C44.3946 10.1373 44.1328 10.3378 43.9439 10.593C43.7583 10.8482 43.6655 11.1383 43.6655 11.4631C43.6655 11.7348 43.7301 11.9685 43.8594 12.1641C43.992 12.3563 44.161 12.517 44.3665 12.6463C44.572 12.7723 44.7874 12.8767 45.0128 12.9595C45.2382 13.0391 45.4453 13.1037 45.6342 13.1534L46.6683 13.4318C46.9335 13.5014 47.2285 13.5975 47.5533 13.7202C47.8814 13.8428 48.1946 14.0102 48.4929 14.2223C48.7945 14.4311 49.0431 14.6996 49.2386 15.0277C49.4342 15.3558 49.532 15.7585 49.532 16.2358C49.532 16.786 49.3878 17.2831 49.0994 17.7273C48.8144 18.1714 48.3968 18.5244 47.8466 18.7862C47.2997 19.0481 46.6352 19.179 45.853 19.179C45.1238 19.179 44.4924 19.0613 43.9588 18.826C43.4285 18.5907 43.0109 18.2625 42.706 17.8416C42.4044 17.4207 42.2337 16.9318 42.1939 16.375H43.4666C43.4998 16.7595 43.629 17.0777 43.8544 17.3295C44.0831 17.5781 44.3714 17.7637 44.7195 17.8864C45.0708 18.0057 45.4486 18.0653 45.853 18.0653C46.3236 18.0653 46.7462 17.9891 47.1207 17.8366C47.4953 17.6809 47.7919 17.4654 48.0107 17.1903C48.2294 16.9119 48.3388 16.5871 48.3388 16.2159C48.3388 15.8778 48.2443 15.6027 48.0554 15.3906C47.8665 15.1785 47.6179 15.0062 47.3097 14.8736C47.0014 14.741 46.6683 14.625 46.3104 14.5256L45.0575 14.1676C44.2621 13.9389 43.6323 13.6125 43.1683 13.1882C42.7043 12.764 42.4723 12.2088 42.4723 11.5227C42.4723 10.9527 42.6264 10.4555 42.9347 10.0312C43.2462 9.60369 43.6638 9.27225 44.1875 9.03693C44.7145 8.7983 45.3028 8.67898 45.9524 8.67898C46.6087 8.67898 47.192 8.79664 47.7024 9.03196C48.2128 9.26397 48.6172 9.58215 48.9155 9.98651C49.2171 10.3909 49.3762 10.8499 49.3928 11.3636H48.1996ZM51.4 19V11.3636H52.5733V19H51.4ZM51.9966 10.0909C51.7679 10.0909 51.5707 10.013 51.405 9.85724C51.2426 9.70147 51.1614 9.5142 51.1614 9.29545C51.1614 9.0767 51.2426 8.88944 51.405 8.73366C51.5707 8.57789 51.7679 8.5 51.9966 8.5C52.2253 8.5 52.4209 8.57789 52.5833 8.73366C52.749 8.88944 52.8319 9.0767 52.8319 9.29545C52.8319 9.5142 52.749 9.70147 52.5833 9.85724C52.4209 10.013 52.2253 10.0909 51.9966 10.0909ZM55.8956 14.4062V19H54.7223V11.3636H55.8558V12.5568H55.9553C56.1342 12.169 56.406 11.8575 56.7706 11.6222C57.1352 11.3835 57.6058 11.2642 58.1825 11.2642C58.6996 11.2642 59.152 11.3703 59.5398 11.5824C59.9276 11.7912 60.2292 12.1094 60.4446 12.5369C60.66 12.9612 60.7678 13.4981 60.7678 14.1477V19H59.5945V14.2273C59.5945 13.6274 59.4387 13.16 59.1271 12.8253C58.8156 12.4872 58.388 12.3182 57.8445 12.3182C57.4699 12.3182 57.1352 12.3994 56.8402 12.5618C56.5485 12.7242 56.3182 12.9612 56.1491 13.2727C55.9801 13.5843 55.8956 13.9621 55.8956 14.4062ZM65.9941 22.0227C65.4274 22.0227 64.9402 21.9498 64.5325 21.804C64.1248 21.6615 63.7851 21.4725 63.5133 21.2372C63.2449 21.0052 63.0311 20.7566 62.872 20.4915L63.8066 19.8352C63.9127 19.9744 64.0469 20.1335 64.2093 20.3125C64.3717 20.4948 64.5938 20.6522 64.8755 20.7848C65.1606 20.9207 65.5334 20.9886 65.9941 20.9886C66.6106 20.9886 67.1194 20.8395 67.5204 20.5412C67.9215 20.2429 68.122 19.7756 68.122 19.1392V17.5881H68.0225C67.9364 17.7273 67.8137 17.8996 67.6547 18.1051C67.4989 18.3073 67.2735 18.4879 66.9785 18.647C66.6868 18.8028 66.2924 18.8807 65.7953 18.8807C65.1788 18.8807 64.6253 18.7348 64.1348 18.4432C63.6475 18.1515 63.2614 17.7273 62.9764 17.1705C62.6947 16.6136 62.5538 15.9375 62.5538 15.142C62.5538 14.3598 62.6913 13.6787 62.9664 13.0987C63.2415 12.5154 63.6243 12.0646 64.1149 11.7464C64.6054 11.425 65.1722 11.2642 65.8152 11.2642C66.3123 11.2642 66.7067 11.3471 66.9984 11.5128C67.2934 11.6752 67.5188 11.8608 67.6745 12.0696C67.8336 12.2751 67.9563 12.4441 68.0424 12.5767H68.1618V11.3636H69.2953V19.2188C69.2953 19.875 69.1461 20.4086 68.8478 20.8196C68.5529 21.2339 68.1551 21.5372 67.6547 21.7294C67.1575 21.925 66.604 22.0227 65.9941 22.0227ZM65.9544 17.8267C66.425 17.8267 66.8227 17.719 67.1475 17.5036C67.4724 17.2881 67.7193 16.9782 67.8883 16.5739C68.0574 16.1695 68.1419 15.6856 68.1419 15.1222C68.1419 14.572 68.059 14.0864 67.8933 13.6655C67.7276 13.2446 67.4823 12.9148 67.1575 12.6761C66.8327 12.4375 66.4316 12.3182 65.9544 12.3182C65.4572 12.3182 65.0429 12.4441 64.7115 12.696C64.3833 12.9479 64.1364 13.286 63.9707 13.7102C63.8083 14.1345 63.7271 14.6051 63.7271 15.1222C63.7271 15.6525 63.81 16.1214 63.9757 16.5291C64.1447 16.9335 64.3933 17.2517 64.7214 17.4837C65.0529 17.7124 65.4638 17.8267 65.9544 17.8267ZM73.6902 19.179C73.2063 19.179 72.7671 19.0878 72.3727 18.9055C71.9783 18.7199 71.6651 18.4531 71.4331 18.1051C71.2011 17.7538 71.085 17.3295 71.085 16.8324C71.085 16.3949 71.1712 16.0402 71.3436 15.7685C71.5159 15.4934 71.7463 15.2779 72.0346 15.1222C72.323 14.9664 72.6412 14.8504 72.9892 14.7741C73.3405 14.6946 73.6935 14.6316 74.0481 14.5852C74.5121 14.5256 74.8883 14.4808 75.1767 14.451C75.4683 14.4179 75.6805 14.3632 75.813 14.2869C75.9489 14.2107 76.0169 14.0781 76.0169 13.8892V13.8494C76.0169 13.3589 75.8826 12.9777 75.6142 12.706C75.349 12.4342 74.9463 12.2983 74.4061 12.2983C73.8459 12.2983 73.4068 12.4209 73.0886 12.6662C72.7704 12.9115 72.5467 13.1733 72.4174 13.4517L71.3038 13.054C71.5027 12.59 71.7678 12.2287 72.0993 11.9702C72.434 11.7083 72.7986 11.526 73.193 11.4233C73.5907 11.3172 73.9818 11.2642 74.3663 11.2642C74.6116 11.2642 74.8933 11.294 75.2115 11.3537C75.533 11.41 75.8429 11.5277 76.1412 11.7067C76.4428 11.8857 76.693 12.1558 76.8919 12.517C77.0907 12.8783 77.1902 13.3622 77.1902 13.9688V19H76.0169V17.9659H75.9572C75.8777 18.1316 75.7451 18.3089 75.5595 18.4979C75.3739 18.6868 75.127 18.8475 74.8187 18.9801C74.5105 19.1127 74.1343 19.179 73.6902 19.179ZM73.8691 18.125C74.3332 18.125 74.7243 18.0339 75.0424 17.8516C75.3639 17.6693 75.6059 17.4339 75.7683 17.1456C75.934 16.8572 76.0169 16.554 76.0169 16.2358V15.1619C75.9672 15.2216 75.8578 15.2763 75.6887 15.326C75.523 15.3724 75.3308 15.4138 75.112 15.4503C74.8966 15.4834 74.6861 15.5133 74.4806 15.5398C74.2785 15.563 74.1144 15.5829 73.9885 15.5994C73.6835 15.6392 73.3985 15.7038 73.1333 15.7933C72.8715 15.8795 72.6594 16.0104 72.497 16.1861C72.3379 16.3584 72.2583 16.5937 72.2583 16.892C72.2583 17.2997 72.4092 17.608 72.7108 17.8168C73.0157 18.0223 73.4018 18.125 73.8691 18.125ZM79.3317 21.8636V11.3636H80.4652V12.5767H80.6044C80.6906 12.4441 80.8099 12.2751 80.9624 12.0696C81.1181 11.8608 81.3402 11.6752 81.6286 11.5128C81.9202 11.3471 82.3146 11.2642 82.8118 11.2642C83.4548 11.2642 84.0215 11.425 84.5121 11.7464C85.0026 12.0679 85.3854 12.5237 85.6605 13.1136C85.9356 13.7036 86.0732 14.3996 86.0732 15.2017C86.0732 16.0104 85.9356 16.7114 85.6605 17.3047C85.3854 17.8946 85.0043 18.352 84.517 18.6768C84.0298 18.9983 83.468 19.1591 82.8317 19.1591C82.3411 19.1591 81.9484 19.0779 81.6534 18.9155C81.3584 18.7498 81.1314 18.5625 80.9723 18.3537C80.8132 18.1416 80.6906 17.9659 80.6044 17.8267H80.505V21.8636H79.3317ZM80.4851 15.1818C80.4851 15.7585 80.5696 16.2673 80.7386 16.7081C80.9077 17.1456 81.1546 17.4886 81.4794 17.7372C81.8042 17.9825 82.2019 18.1051 82.6726 18.1051C83.1631 18.1051 83.5724 17.9759 83.9006 17.7173C84.232 17.4555 84.4806 17.1042 84.6463 16.6634C84.8153 16.2192 84.8999 15.7254 84.8999 15.1818C84.8999 14.6449 84.817 14.161 84.6513 13.7301C84.4889 13.2959 84.242 12.9529 83.9105 12.701C83.5824 12.4458 83.1697 12.3182 82.6726 12.3182C82.1953 12.3182 81.7943 12.4392 81.4695 12.6811C81.1446 12.9197 80.8994 13.2545 80.7337 13.6854C80.5679 14.1129 80.4851 14.6117 80.4851 15.1818ZM90.9652 19.1591C90.2758 19.1591 89.6709 18.995 89.1506 18.6669C88.6335 18.3388 88.2292 17.8797 87.9375 17.2898C87.6491 16.6998 87.505 16.0104 87.505 15.2216C87.505 14.4261 87.6491 13.7318 87.9375 13.1385C88.2292 12.5452 88.6335 12.0845 89.1506 11.7564C89.6709 11.4283 90.2758 11.2642 90.9652 11.2642C91.6546 11.2642 92.2578 11.4283 92.7749 11.7564C93.2952 12.0845 93.6996 12.5452 93.9879 13.1385C94.2796 13.7318 94.4254 14.4261 94.4254 15.2216C94.4254 16.0104 94.2796 16.6998 93.9879 17.2898C93.6996 17.8797 93.2952 18.3388 92.7749 18.6669C92.2578 18.995 91.6546 19.1591 90.9652 19.1591ZM90.9652 18.1051C91.4889 18.1051 91.9197 17.9709 92.2578 17.7024C92.5959 17.4339 92.8461 17.081 93.0085 16.6435C93.1709 16.206 93.2521 15.732 93.2521 15.2216C93.2521 14.7112 93.1709 14.2356 93.0085 13.7947C92.8461 13.3539 92.5959 12.9976 92.2578 12.7259C91.9197 12.4541 91.4889 12.3182 90.9652 12.3182C90.4415 12.3182 90.0107 12.4541 89.6726 12.7259C89.3345 12.9976 89.0843 13.3539 88.9219 13.7947C88.7595 14.2356 88.6783 14.7112 88.6783 15.2216C88.6783 15.732 88.7595 16.206 88.9219 16.6435C89.0843 17.081 89.3345 17.4339 89.6726 17.7024C90.0107 17.9709 90.4415 18.1051 90.9652 18.1051ZM96.2164 19V11.3636H97.35V12.517H97.4295C97.5687 12.1392 97.8206 11.8326 98.1852 11.5973C98.5498 11.362 98.9608 11.2443 99.4181 11.2443C99.5043 11.2443 99.612 11.246 99.7413 11.2493C99.8706 11.2526 99.9683 11.2576 100.035 11.2642V12.4574C99.9949 12.4474 99.9037 12.4325 99.7612 12.4126C99.622 12.3894 99.4745 12.3778 99.3187 12.3778C98.9475 12.3778 98.6161 12.4557 98.3244 12.6115C98.036 12.764 97.8074 12.9761 97.6383 13.2479C97.4726 13.5163 97.3897 13.8229 97.3897 14.1676V19H96.2164ZM104.395 19.1591C103.659 19.1591 103.024 18.9967 102.491 18.6719C101.96 18.3438 101.551 17.8864 101.263 17.2997C100.978 16.7098 100.835 16.0237 100.835 15.2415C100.835 14.4593 100.978 13.7699 101.263 13.1733C101.551 12.5734 101.952 12.1061 102.466 11.7713C102.983 11.4332 103.586 11.2642 104.275 11.2642C104.673 11.2642 105.066 11.3305 105.454 11.4631C105.841 11.5956 106.194 11.8111 106.513 12.1094C106.831 12.4044 107.084 12.7955 107.273 13.2827C107.462 13.7699 107.557 14.3698 107.557 15.0824V15.5795H101.67V14.5653H106.363C106.363 14.1345 106.277 13.75 106.105 13.4119C105.936 13.0739 105.694 12.8071 105.379 12.6115C105.068 12.416 104.7 12.3182 104.275 12.3182C103.808 12.3182 103.404 12.4342 103.062 12.6662C102.724 12.8949 102.464 13.1932 102.282 13.5611C102.099 13.929 102.008 14.3234 102.008 14.7443V15.4205C102.008 15.9972 102.108 16.486 102.307 16.8871C102.509 17.2848 102.789 17.5881 103.147 17.7969C103.505 18.0024 103.921 18.1051 104.395 18.1051C104.703 18.1051 104.981 18.062 105.23 17.9759C105.482 17.8864 105.699 17.7538 105.881 17.5781C106.064 17.3991 106.204 17.1771 106.304 16.9119L107.437 17.2301C107.318 17.6146 107.117 17.9527 106.836 18.2443C106.554 18.5327 106.206 18.758 105.792 18.9205C105.377 19.0795 104.912 19.1591 104.395 19.1591ZM120.398 12C120.289 11.6652 120.145 11.3653 119.966 11.1001C119.79 10.8317 119.58 10.603 119.334 10.4141C119.092 10.2251 118.817 10.081 118.509 9.98153C118.201 9.8821 117.863 9.83239 117.495 9.83239C116.892 9.83239 116.343 9.98816 115.849 10.2997C115.355 10.6113 114.963 11.0703 114.671 11.6768C114.379 12.2834 114.233 13.0275 114.233 13.9091C114.233 14.7907 114.381 15.5348 114.676 16.1413C114.971 16.7479 115.37 17.2069 115.874 17.5185C116.378 17.83 116.945 17.9858 117.574 17.9858C118.158 17.9858 118.671 17.8615 119.116 17.6129C119.563 17.361 119.911 17.0064 120.16 16.549C120.412 16.0883 120.537 15.5464 120.537 14.9233L120.915 15.0028H117.853V13.9091H121.731V15.0028C121.731 15.8414 121.552 16.5705 121.194 17.1903C120.839 17.8101 120.349 18.2907 119.722 18.6321C119.099 18.9702 118.383 19.1392 117.574 19.1392C116.673 19.1392 115.881 18.9271 115.198 18.5028C114.519 18.0786 113.988 17.4754 113.607 16.6932C113.229 15.911 113.04 14.983 113.04 13.9091C113.04 13.1037 113.148 12.3795 113.363 11.7365C113.582 11.0902 113.89 10.54 114.288 10.0859C114.686 9.63187 115.157 9.28385 115.7 9.0419C116.244 8.79995 116.842 8.67898 117.495 8.67898C118.032 8.67898 118.532 8.76018 118.996 8.92258C119.464 9.08168 119.88 9.30871 120.244 9.60369C120.612 9.89536 120.919 10.245 121.164 10.6527C121.409 11.0571 121.578 11.5062 121.671 12H120.398ZM126.786 19.1591C126.096 19.1591 125.491 18.995 124.971 18.6669C124.454 18.3388 124.049 17.8797 123.758 17.2898C123.469 16.6998 123.325 16.0104 123.325 15.2216C123.325 14.4261 123.469 13.7318 123.758 13.1385C124.049 12.5452 124.454 12.0845 124.971 11.7564C125.491 11.4283 126.096 11.2642 126.786 11.2642C127.475 11.2642 128.078 11.4283 128.595 11.7564C129.116 12.0845 129.52 12.5452 129.808 13.1385C130.1 13.7318 130.246 14.4261 130.246 15.2216C130.246 16.0104 130.1 16.6998 129.808 17.2898C129.52 17.8797 129.116 18.3388 128.595 18.6669C128.078 18.995 127.475 19.1591 126.786 19.1591ZM126.786 18.1051C127.309 18.1051 127.74 17.9709 128.078 17.7024C128.416 17.4339 128.666 17.081 128.829 16.6435C128.991 16.206 129.072 15.732 129.072 15.2216C129.072 14.7112 128.991 14.2356 128.829 13.7947C128.666 13.3539 128.416 12.9976 128.078 12.7259C127.74 12.4541 127.309 12.3182 126.786 12.3182C126.262 12.3182 125.831 12.4541 125.493 12.7259C125.155 12.9976 124.905 13.3539 124.742 13.7947C124.58 14.2356 124.499 14.7112 124.499 15.2216C124.499 15.732 124.58 16.206 124.742 16.6435C124.905 17.081 125.155 17.4339 125.493 17.7024C125.831 17.9709 126.262 18.1051 126.786 18.1051ZM138.008 11.3636L135.184 19H133.991L131.167 11.3636H132.439L134.547 17.4489H134.627L136.735 11.3636H138.008ZM142.485 19.1591C141.749 19.1591 141.114 18.9967 140.58 18.6719C140.05 18.3438 139.641 17.8864 139.352 17.2997C139.067 16.7098 138.925 16.0237 138.925 15.2415C138.925 14.4593 139.067 13.7699 139.352 13.1733C139.641 12.5734 140.042 12.1061 140.556 11.7713C141.073 11.4332 141.676 11.2642 142.365 11.2642C142.763 11.2642 143.156 11.3305 143.544 11.4631C143.931 11.5956 144.284 11.8111 144.602 12.1094C144.921 12.4044 145.174 12.7955 145.363 13.2827C145.552 13.7699 145.646 14.3698 145.646 15.0824V15.5795H139.76V14.5653H144.453C144.453 14.1345 144.367 13.75 144.195 13.4119C144.026 13.0739 143.784 12.8071 143.469 12.6115C143.157 12.416 142.789 12.3182 142.365 12.3182C141.898 12.3182 141.494 12.4342 141.152 12.6662C140.814 12.8949 140.554 13.1932 140.372 13.5611C140.189 13.929 140.098 14.3234 140.098 14.7443V15.4205C140.098 15.9972 140.198 16.486 140.396 16.8871C140.599 17.2848 140.879 17.5881 141.237 17.7969C141.595 18.0024 142.011 18.1051 142.485 18.1051C142.793 18.1051 143.071 18.062 143.32 17.9759C143.572 17.8864 143.789 17.7538 143.971 17.5781C144.153 17.3991 144.294 17.1771 144.394 16.9119L145.527 17.2301C145.408 17.6146 145.207 17.9527 144.926 18.2443C144.644 18.5327 144.296 18.758 143.882 18.9205C143.467 19.0795 143.002 19.1591 142.485 19.1591ZM147.431 19V11.3636H148.565V12.517H148.644C148.784 12.1392 149.035 11.8326 149.4 11.5973C149.765 11.362 150.176 11.2443 150.633 11.2443C150.719 11.2443 150.827 11.246 150.956 11.2493C151.085 11.2526 151.183 11.2576 151.249 11.2642V12.4574C151.21 12.4474 151.119 12.4325 150.976 12.4126C150.837 12.3894 150.689 12.3778 150.534 12.3778C150.162 12.3778 149.831 12.4557 149.539 12.6115C149.251 12.764 149.022 12.9761 148.853 13.2479C148.687 13.5163 148.605 13.8229 148.605 14.1676V19H147.431ZM153.814 14.4062V19H152.64V11.3636H153.774V12.5568H153.873C154.052 12.169 154.324 11.8575 154.689 11.6222C155.053 11.3835 155.524 11.2642 156.1 11.2642C156.618 11.2642 157.07 11.3703 157.458 11.5824C157.846 11.7912 158.147 12.1094 158.363 12.5369C158.578 12.9612 158.686 13.4981 158.686 14.1477V19H157.512V14.2273C157.512 13.6274 157.357 13.16 157.045 12.8253C156.734 12.4872 156.306 12.3182 155.762 12.3182C155.388 12.3182 155.053 12.3994 154.758 12.5618C154.467 12.7242 154.236 12.9612 154.067 13.2727C153.898 13.5843 153.814 13.9621 153.814 14.4062ZM160.83 19V11.3636H161.963V12.5568H162.063C162.222 12.1491 162.479 11.8326 162.833 11.6072C163.188 11.3786 163.614 11.2642 164.111 11.2642C164.615 11.2642 165.034 11.3786 165.369 11.6072C165.707 11.8326 165.97 12.1491 166.159 12.5568H166.239C166.434 12.1624 166.728 11.8492 167.119 11.6172C167.51 11.3819 167.979 11.2642 168.526 11.2642C169.209 11.2642 169.767 11.478 170.201 11.9055C170.635 12.3298 170.852 12.991 170.852 13.8892V19H169.679V13.8892C169.679 13.3258 169.525 12.9231 169.217 12.6811C168.909 12.4392 168.546 12.3182 168.128 12.3182C167.591 12.3182 167.175 12.4806 166.88 12.8054C166.585 13.1269 166.438 13.5346 166.438 14.0284V19H165.244V13.7699C165.244 13.3357 165.104 12.986 164.822 12.7209C164.54 12.4524 164.177 12.3182 163.733 12.3182C163.428 12.3182 163.143 12.3994 162.878 12.5618C162.616 12.7242 162.404 12.9496 162.242 13.2379C162.083 13.523 162.003 13.8527 162.003 14.2273V19H160.83ZM176.199 19.1591C175.464 19.1591 174.829 18.9967 174.295 18.6719C173.765 18.3438 173.356 17.8864 173.067 17.2997C172.782 16.7098 172.64 16.0237 172.64 15.2415C172.64 14.4593 172.782 13.7699 173.067 13.1733C173.356 12.5734 173.757 12.1061 174.27 11.7713C174.787 11.4332 175.391 11.2642 176.08 11.2642C176.478 11.2642 176.871 11.3305 177.258 11.4631C177.646 11.5956 177.999 11.8111 178.317 12.1094C178.635 12.4044 178.889 12.7955 179.078 13.2827C179.267 13.7699 179.361 14.3698 179.361 15.0824V15.5795H173.475V14.5653H178.168C178.168 14.1345 178.082 13.75 177.91 13.4119C177.741 13.0739 177.499 12.8071 177.184 12.6115C176.872 12.416 176.504 12.3182 176.08 12.3182C175.613 12.3182 175.208 12.4342 174.867 12.6662C174.529 12.8949 174.269 13.1932 174.086 13.5611C173.904 13.929 173.813 14.3234 173.813 14.7443V15.4205C173.813 15.9972 173.912 16.486 174.111 16.8871C174.314 17.2848 174.594 17.5881 174.952 17.7969C175.309 18.0024 175.725 18.1051 176.199 18.1051C176.508 18.1051 176.786 18.062 177.035 17.9759C177.287 17.8864 177.504 17.7538 177.686 17.5781C177.868 17.3991 178.009 17.1771 178.108 16.9119L179.242 17.2301C179.123 17.6146 178.922 17.9527 178.64 18.2443C178.359 18.5327 178.011 18.758 177.596 18.9205C177.182 19.0795 176.716 19.1591 176.199 19.1591ZM182.319 14.4062V19H181.146V11.3636H182.28V12.5568H182.379C182.558 12.169 182.83 11.8575 183.194 11.6222C183.559 11.3835 184.03 11.2642 184.606 11.2642C185.123 11.2642 185.576 11.3703 185.964 11.5824C186.351 11.7912 186.653 12.1094 186.868 12.5369C187.084 12.9612 187.192 13.4981 187.192 14.1477V19H186.018V14.2273C186.018 13.6274 185.863 13.16 185.551 12.8253C185.239 12.4872 184.812 12.3182 184.268 12.3182C183.894 12.3182 183.559 12.3994 183.264 12.5618C182.972 12.7242 182.742 12.9612 182.573 13.2727C182.404 13.5843 182.319 13.9621 182.319 14.4062ZM192.657 11.3636V12.358H188.699V11.3636H192.657ZM189.853 9.53409H191.026V16.8125C191.026 17.1439 191.074 17.3925 191.17 17.5582C191.27 17.7206 191.395 17.83 191.548 17.8864C191.704 17.9394 191.868 17.9659 192.04 17.9659C192.169 17.9659 192.275 17.9593 192.358 17.946C192.441 17.9295 192.507 17.9162 192.557 17.9062L192.796 18.9602C192.716 18.9901 192.605 19.0199 192.463 19.0497C192.32 19.0829 192.14 19.0994 191.921 19.0994C191.589 19.0994 191.265 19.0282 190.946 18.8857C190.632 18.7431 190.37 18.526 190.161 18.2344C189.955 17.9427 189.853 17.5748 189.853 17.1307V9.53409ZM198.936 19H197.643L201.382 8.81818H202.654L206.393 19H205.1L202.058 10.429H201.978L198.936 19ZM199.413 15.0227H204.623V16.1165H199.413V15.0227ZM210.902 22.0227C210.336 22.0227 209.848 21.9498 209.441 21.804C209.033 21.6615 208.693 21.4725 208.422 21.2372C208.153 21.0052 207.939 20.7566 207.78 20.4915L208.715 19.8352C208.821 19.9744 208.955 20.1335 209.118 20.3125C209.28 20.4948 209.502 20.6522 209.784 20.7848C210.069 20.9207 210.442 20.9886 210.902 20.9886C211.519 20.9886 212.028 20.8395 212.429 20.5412C212.83 20.2429 213.03 19.7756 213.03 19.1392V17.5881H212.931C212.845 17.7273 212.722 17.8996 212.563 18.1051C212.407 18.3073 212.182 18.4879 211.887 18.647C211.595 18.8028 211.201 18.8807 210.703 18.8807C210.087 18.8807 209.533 18.7348 209.043 18.4432C208.556 18.1515 208.17 17.7273 207.885 17.1705C207.603 16.6136 207.462 15.9375 207.462 15.142C207.462 14.3598 207.6 13.6787 207.875 13.0987C208.15 12.5154 208.533 12.0646 209.023 11.7464C209.514 11.425 210.08 11.2642 210.723 11.2642C211.221 11.2642 211.615 11.3471 211.907 11.5128C212.202 11.6752 212.427 11.8608 212.583 12.0696C212.742 12.2751 212.864 12.4441 212.951 12.5767H213.07V11.3636H214.203V19.2188C214.203 19.875 214.054 20.4086 213.756 20.8196C213.461 21.2339 213.063 21.5372 212.563 21.7294C212.066 21.925 211.512 22.0227 210.902 22.0227ZM210.863 17.8267C211.333 17.8267 211.731 17.719 212.056 17.5036C212.381 17.2881 212.627 16.9782 212.797 16.5739C212.966 16.1695 213.05 15.6856 213.05 15.1222C213.05 14.572 212.967 14.0864 212.801 13.6655C212.636 13.2446 212.391 12.9148 212.066 12.6761C211.741 12.4375 211.34 12.3182 210.863 12.3182C210.365 12.3182 209.951 12.4441 209.62 12.696C209.292 12.9479 209.045 13.286 208.879 13.7102C208.717 14.1345 208.635 14.6051 208.635 15.1222C208.635 15.6525 208.718 16.1214 208.884 16.5291C209.053 16.9335 209.301 17.2517 209.63 17.4837C209.961 17.7124 210.372 17.8267 210.863 17.8267ZM219.553 19.1591C218.817 19.1591 218.182 18.9967 217.649 18.6719C217.118 18.3438 216.709 17.8864 216.421 17.2997C216.136 16.7098 215.993 16.0237 215.993 15.2415C215.993 14.4593 216.136 13.7699 216.421 13.1733C216.709 12.5734 217.11 12.1061 217.624 11.7713C218.141 11.4332 218.744 11.2642 219.434 11.2642C219.831 11.2642 220.224 11.3305 220.612 11.4631C221 11.5956 221.353 11.8111 221.671 12.1094C221.989 12.4044 222.243 12.7955 222.431 13.2827C222.62 13.7699 222.715 14.3698 222.715 15.0824V15.5795H216.828V14.5653H221.522C221.522 14.1345 221.435 13.75 221.263 13.4119C221.094 13.0739 220.852 12.8071 220.537 12.6115C220.226 12.416 219.858 12.3182 219.434 12.3182C218.966 12.3182 218.562 12.4342 218.221 12.6662C217.882 12.8949 217.622 13.1932 217.44 13.5611C217.258 13.929 217.167 14.3234 217.167 14.7443V15.4205C217.167 15.9972 217.266 16.486 217.465 16.8871C217.667 17.2848 217.947 17.5881 218.305 17.7969C218.663 18.0024 219.079 18.1051 219.553 18.1051C219.861 18.1051 220.14 18.062 220.388 17.9759C220.64 17.8864 220.857 17.7538 221.039 17.5781C221.222 17.3991 221.363 17.1771 221.462 16.9119L222.596 17.2301C222.476 17.6146 222.276 17.9527 221.994 18.2443C221.712 18.5327 221.364 18.758 220.95 18.9205C220.536 19.0795 220.07 19.1591 219.553 19.1591ZM225.673 14.4062V19H224.5V11.3636H225.633V12.5568H225.733C225.912 12.169 226.183 11.8575 226.548 11.6222C226.913 11.3835 227.383 11.2642 227.96 11.2642C228.477 11.2642 228.929 11.3703 229.317 11.5824C229.705 11.7912 230.007 12.1094 230.222 12.5369C230.437 12.9612 230.545 13.4981 230.545 14.1477V19H229.372V14.2273C229.372 13.6274 229.216 13.16 228.904 12.8253C228.593 12.4872 228.165 12.3182 227.622 12.3182C227.247 12.3182 226.913 12.3994 226.618 12.5618C226.326 12.7242 226.096 12.9612 225.926 13.2727C225.757 13.5843 225.673 13.9621 225.673 14.4062ZM235.791 19.1591C235.075 19.1591 234.459 18.9901 233.942 18.652C233.425 18.3139 233.027 17.8482 232.749 17.255C232.47 16.6617 232.331 15.9839 232.331 15.2216C232.331 14.446 232.474 13.7616 232.759 13.1683C233.047 12.5717 233.448 12.1061 233.962 11.7713C234.479 11.4332 235.082 11.2642 235.771 11.2642C236.308 11.2642 236.792 11.3636 237.223 11.5625C237.654 11.7614 238.007 12.0398 238.282 12.3977C238.557 12.7557 238.728 13.1733 238.794 13.6506H237.621C237.531 13.3026 237.333 12.9943 237.024 12.7259C236.719 12.4541 236.308 12.3182 235.791 12.3182C235.334 12.3182 234.933 12.4375 234.588 12.6761C234.247 12.9115 233.98 13.2446 233.788 13.6754C233.599 14.103 233.504 14.6051 233.504 15.1818C233.504 15.7718 233.597 16.2855 233.783 16.723C233.972 17.1605 234.237 17.5002 234.578 17.7422C234.923 17.9841 235.327 18.1051 235.791 18.1051C236.096 18.1051 236.373 18.0521 236.622 17.946C236.87 17.84 237.081 17.6875 237.253 17.4886C237.425 17.2898 237.548 17.0511 237.621 16.7727H238.794C238.728 17.2235 238.564 17.6295 238.302 17.9908C238.044 18.3487 237.7 18.6338 237.273 18.8459C236.849 19.0547 236.355 19.1591 235.791 19.1591ZM241.265 21.8636C241.066 21.8636 240.889 21.8471 240.733 21.8139C240.577 21.7841 240.47 21.7543 240.41 21.7244L240.708 20.6903C240.993 20.7633 241.245 20.7898 241.464 20.7699C241.683 20.75 241.877 20.6522 242.046 20.4766C242.218 20.3042 242.375 20.0241 242.518 19.6364L242.737 19.0398L239.913 11.3636H241.186L243.294 17.4489H243.373L245.481 11.3636H246.754L243.512 20.1136C243.366 20.508 243.186 20.8345 242.97 21.093C242.755 21.3549 242.505 21.5488 242.22 21.6747C241.938 21.8007 241.62 21.8636 241.265 21.8636ZM254.248 19L251.464 8.81818H252.717L254.845 17.1108H254.944L257.112 8.81818H258.504L260.672 17.1108H260.771L262.899 8.81818H264.152L261.368 19H260.095L257.848 10.8864H257.768L255.521 19H254.248ZM268.02 19.1591C267.284 19.1591 266.649 18.9967 266.116 18.6719C265.585 18.3438 265.176 17.8864 264.888 17.2997C264.603 16.7098 264.46 16.0237 264.46 15.2415C264.46 14.4593 264.603 13.7699 264.888 13.1733C265.176 12.5734 265.577 12.1061 266.091 11.7713C266.608 11.4332 267.211 11.2642 267.9 11.2642C268.298 11.2642 268.691 11.3305 269.079 11.4631C269.466 11.5956 269.819 11.8111 270.138 12.1094C270.456 12.4044 270.709 12.7955 270.898 13.2827C271.087 13.7699 271.182 14.3698 271.182 15.0824V15.5795H265.295V14.5653H269.988C269.988 14.1345 269.902 13.75 269.73 13.4119C269.561 13.0739 269.319 12.8071 269.004 12.6115C268.693 12.416 268.325 12.3182 267.9 12.3182C267.433 12.3182 267.029 12.4342 266.687 12.6662C266.349 12.8949 266.089 13.1932 265.907 13.5611C265.724 13.929 265.633 14.3234 265.633 14.7443V15.4205C265.633 15.9972 265.733 16.486 265.932 16.8871C266.134 17.2848 266.414 17.5881 266.772 17.7969C267.13 18.0024 267.546 18.1051 268.02 18.1051C268.328 18.1051 268.606 18.062 268.855 17.9759C269.107 17.8864 269.324 17.7538 269.506 17.5781C269.689 17.3991 269.829 17.1771 269.929 16.9119L271.062 17.2301C270.943 17.6146 270.742 17.9527 270.461 18.2443C270.179 18.5327 269.831 18.758 269.417 18.9205C269.002 19.0795 268.537 19.1591 268.02 19.1591ZM273.126 19V8.81818H274.299V12.5767H274.398C274.484 12.4441 274.604 12.2751 274.756 12.0696C274.912 11.8608 275.134 11.6752 275.422 11.5128C275.714 11.3471 276.108 11.2642 276.606 11.2642C277.249 11.2642 277.815 11.425 278.306 11.7464C278.796 12.0679 279.179 12.5237 279.454 13.1136C279.729 13.7036 279.867 14.3996 279.867 15.2017C279.867 16.0104 279.729 16.7114 279.454 17.3047C279.179 17.8946 278.798 18.352 278.311 18.6768C277.824 18.9983 277.262 19.1591 276.626 19.1591C276.135 19.1591 275.742 19.0779 275.447 18.9155C275.152 18.7498 274.925 18.5625 274.766 18.3537C274.607 18.1416 274.484 17.9659 274.398 17.8267H274.259V19H273.126ZM274.279 15.1818C274.279 15.7585 274.363 16.2673 274.532 16.7081C274.702 17.1456 274.948 17.4886 275.273 17.7372C275.598 17.9825 275.996 18.1051 276.466 18.1051C276.957 18.1051 277.366 17.9759 277.694 17.7173C278.026 17.4555 278.274 17.1042 278.44 16.6634C278.609 16.2192 278.694 15.7254 278.694 15.1818C278.694 14.6449 278.611 14.161 278.445 13.7301C278.283 13.2959 278.036 12.9529 277.704 12.701C277.376 12.4458 276.964 12.3182 276.466 12.3182C275.989 12.3182 275.588 12.4392 275.263 12.6811C274.939 12.9197 274.693 13.2545 274.528 13.6854C274.362 14.1129 274.279 14.6117 274.279 15.1818ZM287.071 13.0739L286.017 13.3722C285.951 13.1965 285.853 13.0258 285.724 12.8601C285.598 12.6911 285.425 12.5518 285.206 12.4425C284.988 12.3331 284.708 12.2784 284.366 12.2784C283.899 12.2784 283.51 12.3861 283.198 12.6016C282.89 12.8137 282.736 13.0838 282.736 13.4119C282.736 13.7036 282.842 13.9339 283.054 14.103C283.266 14.272 283.597 14.4129 284.048 14.5256L285.182 14.804C285.864 14.9697 286.373 15.2232 286.708 15.5646C287.043 15.9027 287.21 16.3385 287.21 16.8722C287.21 17.3097 287.084 17.7008 286.832 18.0455C286.584 18.3902 286.236 18.6619 285.788 18.8608C285.341 19.0597 284.82 19.1591 284.227 19.1591C283.448 19.1591 282.804 18.9901 282.293 18.652C281.783 18.3139 281.46 17.8201 281.324 17.1705L282.437 16.892C282.543 17.303 282.744 17.6113 283.039 17.8168C283.337 18.0223 283.727 18.125 284.207 18.125C284.754 18.125 285.188 18.009 285.51 17.777C285.835 17.5417 285.997 17.2599 285.997 16.9318C285.997 16.6667 285.904 16.4446 285.719 16.2656C285.533 16.0833 285.248 15.9474 284.863 15.858L283.591 15.5597C282.891 15.3939 282.378 15.1371 282.05 14.7891C281.725 14.4377 281.562 13.9986 281.562 13.4716C281.562 13.0407 281.683 12.6596 281.925 12.3281C282.171 11.9967 282.504 11.7365 282.925 11.5476C283.349 11.3587 283.829 11.2642 284.366 11.2642C285.122 11.2642 285.715 11.4299 286.146 11.7614C286.58 12.0928 286.889 12.5303 287.071 13.0739ZM288.976 19V11.3636H290.15V19H288.976ZM289.573 10.0909C289.344 10.0909 289.147 10.013 288.981 9.85724C288.819 9.70147 288.738 9.5142 288.738 9.29545C288.738 9.0767 288.819 8.88944 288.981 8.73366C289.147 8.57789 289.344 8.5 289.573 8.5C289.801 8.5 289.997 8.57789 290.159 8.73366C290.325 8.88944 290.408 9.0767 290.408 9.29545C290.408 9.5142 290.325 9.70147 290.159 9.85724C289.997 10.013 289.801 10.0909 289.573 10.0909ZM295.619 11.3636V12.358H291.662V11.3636H295.619ZM292.816 9.53409H293.989V16.8125C293.989 17.1439 294.037 17.3925 294.133 17.5582C294.232 17.7206 294.358 17.83 294.511 17.8864C294.667 17.9394 294.831 17.9659 295.003 17.9659C295.132 17.9659 295.238 17.9593 295.321 17.946C295.404 17.9295 295.47 17.9162 295.52 17.9062L295.759 18.9602C295.679 18.9901 295.568 19.0199 295.426 19.0497C295.283 19.0829 295.102 19.0994 294.884 19.0994C294.552 19.0994 294.227 19.0282 293.909 18.8857C293.594 18.7431 293.333 18.526 293.124 18.2344C292.918 17.9427 292.816 17.5748 292.816 17.1307V9.53409ZM300.504 19.1591C299.768 19.1591 299.134 18.9967 298.6 18.6719C298.07 18.3438 297.66 17.8864 297.372 17.2997C297.087 16.7098 296.944 16.0237 296.944 15.2415C296.944 14.4593 297.087 13.7699 297.372 13.1733C297.66 12.5734 298.061 12.1061 298.575 11.7713C299.092 11.4332 299.695 11.2642 300.385 11.2642C300.782 11.2642 301.175 11.3305 301.563 11.4631C301.951 11.5956 302.304 11.8111 302.622 12.1094C302.94 12.4044 303.194 12.7955 303.383 13.2827C303.572 13.7699 303.666 14.3698 303.666 15.0824V15.5795H297.78V14.5653H302.473C302.473 14.1345 302.387 13.75 302.214 13.4119C302.045 13.0739 301.803 12.8071 301.488 12.6115C301.177 12.416 300.809 12.3182 300.385 12.3182C299.917 12.3182 299.513 12.4342 299.172 12.6662C298.834 12.8949 298.573 13.1932 298.391 13.5611C298.209 13.929 298.118 14.3234 298.118 14.7443V15.4205C298.118 15.9972 298.217 16.486 298.416 16.8871C298.618 17.2848 298.898 17.5881 299.256 17.7969C299.614 18.0024 300.03 18.1051 300.504 18.1051C300.812 18.1051 301.091 18.062 301.339 17.9759C301.591 17.8864 301.808 17.7538 301.991 17.5781C302.173 17.3991 302.314 17.1771 302.413 16.9119L303.547 17.2301C303.427 17.6146 303.227 17.9527 302.945 18.2443C302.663 18.5327 302.315 18.758 301.901 18.9205C301.487 19.0795 301.021 19.1591 300.504 19.1591Z" fill="#344054"/>
<path d="M309.885 19V8.81818H312.038V13.0192H316.408V8.81818H318.555V19H316.408V14.794H312.038V19H309.885ZM323.741 19.1491C322.969 19.1491 322.301 18.9851 321.737 18.657C321.177 18.3255 320.745 17.8648 320.44 17.2749C320.135 16.6816 319.982 15.9938 319.982 15.2116C319.982 14.4228 320.135 13.7334 320.44 13.1435C320.745 12.5502 321.177 12.0895 321.737 11.7614C322.301 11.4299 322.969 11.2642 323.741 11.2642C324.513 11.2642 325.179 11.4299 325.739 11.7614C326.303 12.0895 326.737 12.5502 327.042 13.1435C327.347 13.7334 327.499 14.4228 327.499 15.2116C327.499 15.9938 327.347 16.6816 327.042 17.2749C326.737 17.8648 326.303 18.3255 325.739 18.657C325.179 18.9851 324.513 19.1491 323.741 19.1491ZM323.751 17.5085C324.102 17.5085 324.395 17.4091 324.631 17.2102C324.866 17.008 325.043 16.733 325.163 16.3849C325.285 16.0369 325.347 15.6409 325.347 15.1967C325.347 14.7526 325.285 14.3565 325.163 14.0085C325.043 13.6605 324.866 13.3854 324.631 13.1832C324.395 12.9811 324.102 12.88 323.751 12.88C323.396 12.88 323.098 12.9811 322.856 13.1832C322.617 13.3854 322.437 13.6605 322.314 14.0085C322.195 14.3565 322.135 14.7526 322.135 15.1967C322.135 15.6409 322.195 16.0369 322.314 16.3849C322.437 16.733 322.617 17.008 322.856 17.2102C323.098 17.4091 323.396 17.5085 323.751 17.5085ZM330.191 19L328.113 11.3636H330.256L331.439 16.4943H331.509L332.742 11.3636H334.845L336.098 16.4645H336.162L337.326 11.3636H339.463L337.39 19H335.148L333.836 14.1974H333.741L332.429 19H330.191ZM347.895 11.3636V12.9545H343.297V11.3636H347.895ZM344.341 9.53409H346.458V16.6534C346.458 16.849 346.488 17.0014 346.548 17.1108C346.608 17.2169 346.69 17.2914 346.797 17.3345C346.906 17.3776 347.032 17.3991 347.174 17.3991C347.274 17.3991 347.373 17.3909 347.473 17.3743C347.572 17.3544 347.648 17.3395 347.701 17.3295L348.034 18.9055C347.928 18.9387 347.779 18.9768 347.587 19.0199C347.395 19.0663 347.161 19.0945 346.886 19.1044C346.376 19.1243 345.928 19.0563 345.544 18.9006C345.163 18.7448 344.866 18.5028 344.654 18.1747C344.442 17.8466 344.337 17.4323 344.341 16.9318V9.53409ZM352.643 19.1491C351.871 19.1491 351.203 18.9851 350.64 18.657C350.079 18.3255 349.647 17.8648 349.342 17.2749C349.037 16.6816 348.885 15.9938 348.885 15.2116C348.885 14.4228 349.037 13.7334 349.342 13.1435C349.647 12.5502 350.079 12.0895 350.64 11.7614C351.203 11.4299 351.871 11.2642 352.643 11.2642C353.415 11.2642 354.082 11.4299 354.642 11.7614C355.205 12.0895 355.639 12.5502 355.944 13.1435C356.249 13.7334 356.402 14.4228 356.402 15.2116C356.402 15.9938 356.249 16.6816 355.944 17.2749C355.639 17.8648 355.205 18.3255 354.642 18.657C354.082 18.9851 353.415 19.1491 352.643 19.1491ZM352.653 17.5085C353.004 17.5085 353.298 17.4091 353.533 17.2102C353.768 17.008 353.946 16.733 354.065 16.3849C354.188 16.0369 354.249 15.6409 354.249 15.1967C354.249 14.7526 354.188 14.3565 354.065 14.0085C353.946 13.6605 353.768 13.3854 353.533 13.1832C353.298 12.9811 353.004 12.88 352.653 12.88C352.298 12.88 352 12.9811 351.758 13.1832C351.52 13.3854 351.339 13.6605 351.216 14.0085C351.097 14.3565 351.037 14.7526 351.037 15.1967C351.037 15.6409 351.097 16.0369 351.216 16.3849C351.339 16.733 351.52 17.008 351.758 17.2102C352 17.4091 352.298 17.5085 352.653 17.5085ZM361.019 19V11.3636H363.137V19H361.019ZM362.083 10.3793C361.768 10.3793 361.498 10.2749 361.273 10.0661C361.05 9.85393 360.939 9.60038 360.939 9.3054C360.939 9.01373 361.05 8.76349 361.273 8.55469C361.498 8.34257 361.768 8.23651 362.083 8.23651C362.398 8.23651 362.666 8.34257 362.888 8.55469C363.114 8.76349 363.226 9.01373 363.226 9.3054C363.226 9.60038 363.114 9.85393 362.888 10.0661C362.666 10.2749 362.398 10.3793 362.083 10.3793ZM367.647 19.1243C367.067 19.1243 366.542 18.9751 366.071 18.6768C365.604 18.3752 365.233 17.9328 364.958 17.3494C364.686 16.7628 364.55 16.0436 364.55 15.1918C364.55 14.3168 364.691 13.5893 364.973 13.0092C365.254 12.4259 365.629 11.9901 366.096 11.7017C366.567 11.41 367.082 11.2642 367.642 11.2642C368.07 11.2642 368.426 11.3371 368.711 11.483C369 11.6255 369.232 11.8045 369.407 12.0199C369.586 12.232 369.722 12.4408 369.815 12.6463H369.88V8.81818H371.993V19H369.904V17.777H369.815C369.716 17.9891 369.575 18.1996 369.392 18.4084C369.213 18.6139 368.98 18.7846 368.691 18.9205C368.406 19.0563 368.058 19.1243 367.647 19.1243ZM368.319 17.4389C368.66 17.4389 368.948 17.3461 369.184 17.1605C369.422 16.9716 369.605 16.7081 369.73 16.37C369.86 16.032 369.924 15.6359 369.924 15.1818C369.924 14.7277 369.861 14.3333 369.735 13.9986C369.609 13.6638 369.427 13.4053 369.189 13.223C368.95 13.0407 368.66 12.9496 368.319 12.9496C367.971 12.9496 367.677 13.044 367.439 13.233C367.2 13.4219 367.019 13.6837 366.897 14.0185C366.774 14.3532 366.713 14.741 366.713 15.1818C366.713 15.6259 366.774 16.0187 366.897 16.3601C367.023 16.6982 367.203 16.9633 367.439 17.1555C367.677 17.3445 367.971 17.4389 368.319 17.4389ZM377.214 19.1491C376.428 19.1491 375.752 18.9901 375.186 18.6719C374.622 18.3504 374.188 17.8963 373.883 17.3097C373.578 16.7197 373.426 16.022 373.426 15.2166C373.426 14.4311 373.578 13.7417 373.883 13.1484C374.188 12.5552 374.617 12.0928 375.171 11.7614C375.727 11.4299 376.38 11.2642 377.129 11.2642C377.633 11.2642 378.102 11.3454 378.536 11.5078C378.974 11.6669 379.355 11.9072 379.68 12.2287C380.008 12.5502 380.263 12.9545 380.445 13.4418C380.628 13.9257 380.719 14.4924 380.719 15.142V15.7237H374.271V14.4112H378.725C378.725 14.1063 378.659 13.8362 378.526 13.6009C378.394 13.3655 378.21 13.1816 377.975 13.049C377.743 12.9131 377.472 12.8452 377.164 12.8452C376.843 12.8452 376.558 12.9197 376.309 13.0689C376.064 13.2147 375.872 13.4119 375.732 13.6605C375.593 13.9058 375.522 14.1792 375.519 14.4808V15.7287C375.519 16.1065 375.588 16.433 375.727 16.7081C375.87 16.9832 376.07 17.1953 376.329 17.3445C376.588 17.4936 376.894 17.5682 377.249 17.5682C377.484 17.5682 377.7 17.535 377.895 17.4688C378.091 17.4025 378.258 17.303 378.397 17.1705C378.536 17.0379 378.642 16.8755 378.715 16.6832L380.674 16.8125C380.575 17.2831 380.371 17.6941 380.063 18.0455C379.758 18.3935 379.363 18.6652 378.879 18.8608C378.399 19.053 377.844 19.1491 377.214 19.1491ZM384.219 14.5852V19H382.101V11.3636H384.119V12.7109H384.209C384.378 12.2668 384.661 11.9155 385.059 11.657C385.457 11.3951 385.939 11.2642 386.506 11.2642C387.036 11.2642 387.499 11.3802 387.893 11.6122C388.287 11.8442 388.594 12.1757 388.813 12.6065C389.031 13.0341 389.141 13.5445 389.141 14.1378V19H387.023V14.5156C387.026 14.0483 386.907 13.6837 386.665 13.4219C386.423 13.1567 386.09 13.0241 385.666 13.0241C385.381 13.0241 385.129 13.0855 384.91 13.2081C384.695 13.3307 384.526 13.5097 384.403 13.745C384.284 13.977 384.222 14.2571 384.219 14.5852ZM394.872 11.3636V12.9545H390.273V11.3636H394.872ZM391.317 9.53409H393.435V16.6534C393.435 16.849 393.465 17.0014 393.525 17.1108C393.584 17.2169 393.667 17.2914 393.773 17.3345C393.882 17.3776 394.008 17.3991 394.151 17.3991C394.25 17.3991 394.35 17.3909 394.449 17.3743C394.549 17.3544 394.625 17.3395 394.678 17.3295L395.011 18.9055C394.905 18.9387 394.756 18.9768 394.564 19.0199C394.371 19.0663 394.138 19.0945 393.863 19.1044C393.352 19.1243 392.905 19.0563 392.52 18.9006C392.139 18.7448 391.842 18.5028 391.63 18.1747C391.418 17.8466 391.314 17.4323 391.317 16.9318V9.53409ZM396.251 19V11.3636H398.369V19H396.251ZM397.315 10.3793C397 10.3793 396.73 10.2749 396.505 10.0661C396.283 9.85393 396.172 9.60038 396.172 9.3054C396.172 9.01373 396.283 8.76349 396.505 8.55469C396.73 8.34257 397 8.23651 397.315 8.23651C397.63 8.23651 397.899 8.34257 398.121 8.55469C398.346 8.76349 398.459 9.01373 398.459 9.3054C398.459 9.60038 398.346 9.85393 398.121 10.0661C397.899 10.2749 397.63 10.3793 397.315 10.3793ZM404.172 11.3636V12.9545H399.459V11.3636H404.172ZM400.538 19V10.8118C400.538 10.2583 400.646 9.79924 400.861 9.43466C401.08 9.07008 401.378 8.79664 401.756 8.61435C402.134 8.43205 402.563 8.34091 403.044 8.34091C403.369 8.34091 403.665 8.36577 403.934 8.41548C404.206 8.4652 404.408 8.50994 404.54 8.54972L404.162 10.1406C404.08 10.1141 403.977 10.0893 403.854 10.0661C403.735 10.0429 403.612 10.0312 403.486 10.0312C403.175 10.0312 402.958 10.1042 402.835 10.25C402.712 10.3925 402.651 10.593 402.651 10.8516V19H400.538ZM406.774 21.8636C406.505 21.8636 406.253 21.8421 406.018 21.799C405.786 21.7592 405.594 21.7079 405.441 21.6449L405.919 20.0639C406.167 20.1402 406.391 20.1816 406.59 20.1882C406.792 20.1948 406.966 20.1484 407.112 20.049C407.261 19.9496 407.382 19.7805 407.475 19.5419L407.599 19.2188L404.86 11.3636H407.087L408.668 16.9716H408.748L410.343 11.3636H412.586L409.618 19.8253C409.475 20.2363 409.281 20.5942 409.036 20.8991C408.794 21.2074 408.487 21.4444 408.116 21.6101C407.745 21.7791 407.297 21.8636 406.774 21.8636Z" fill="#0F71BB"/>
<path d="M309 21.7841H412.824V22.7386H309V21.7841Z" fill="#0F71BB"/>
<path fill-rule="evenodd" clip-rule="evenodd" d="M419.136 10.9044C419.178 10.8614 419.229 10.8273 419.285 10.804C419.342 10.7808 419.402 10.7688 419.462 10.7688C419.523 10.7688 419.583 10.7808 419.639 10.804C419.695 10.8273 419.746 10.8614 419.789 10.9044L425 16.1164L430.211 10.9044C430.254 10.8615 430.305 10.8274 430.361 10.8042C430.417 10.781 430.477 10.769 430.538 10.769C430.599 10.769 430.659 10.781 430.715 10.8042C430.771 10.8274 430.822 10.8615 430.865 10.9044C430.908 10.9473 430.942 10.9982 430.965 11.0543C430.988 11.1103 431 11.1704 431 11.2311C431 11.2918 430.988 11.3519 430.965 11.4079C430.942 11.464 430.908 11.5149 430.865 11.5578L425.327 17.0957C425.284 17.1386 425.233 17.1727 425.177 17.196C425.121 17.2193 425.061 17.2312 425 17.2312C424.939 17.2312 424.879 17.2193 424.823 17.196C424.767 17.1727 424.716 17.1386 424.673 17.0957L419.136 11.5578C419.093 11.515 419.059 11.464 419.035 11.408C419.012 11.3519 419 11.2918 419 11.2311C419 11.1704 419.012 11.1103 419.035 11.0542C419.059 10.9982 419.093 10.9472 419.136 10.9044Z" fill="#0F71BB"/>
<rect x="18" width="4" height="28" fill="#E8178A" fill-opacity="0.24"/>
<rect x="304" width="4" height="28" fill="#E8178A" fill-opacity="0.24"/>
<rect x="410" width="4" height="28" fill="#E8178A" fill-opacity="0.24"/>
<path d="M18 36.5H22" stroke="#E8178A"/>
<rect x="4" y="41" width="31" height="18" rx="3" fill="#E8178A"/>
<path d="M10.4794 52.7216V51.5107L13.5156 46.7273H14.5597V48.4034H13.9418L12.0277 51.4325V51.4893H16.3423V52.7216H10.4794ZM13.9702 54V52.3523L13.9986 51.8161V46.7273H15.4403V54H13.9702ZM17.381 56.0455V48.5455H18.8725V49.4616H18.94C19.0063 49.3149 19.1022 49.1657 19.2276 49.0142C19.3555 48.8603 19.5212 48.7325 19.7248 48.6307C19.9308 48.5265 20.1864 48.4744 20.4918 48.4744C20.8896 48.4744 21.2565 48.5786 21.5927 48.7869C21.9289 48.9929 22.1976 49.3042 22.3988 49.7209C22.6 50.1352 22.7006 50.6548 22.7006 51.2798C22.7006 51.8883 22.6024 52.402 22.4059 52.821C22.2118 53.2377 21.9466 53.5537 21.6104 53.7692C21.2766 53.9822 20.9026 54.0888 20.4883 54.0888C20.1947 54.0888 19.945 54.0402 19.739 53.9432C19.5354 53.8461 19.3685 53.7242 19.2383 53.5774C19.1081 53.4283 19.0086 53.2779 18.94 53.1264H18.8938V56.0455H17.381ZM18.8619 51.2727C18.8619 51.5971 18.9068 51.88 18.9968 52.1214C19.0868 52.3629 19.217 52.5511 19.3874 52.6861C19.5579 52.8187 19.765 52.8849 20.0089 52.8849C20.2551 52.8849 20.4634 52.8175 20.6339 52.6825C20.8043 52.5452 20.9334 52.3558 21.021 52.1143C21.1109 51.8705 21.1559 51.59 21.1559 51.2727C21.1559 50.9579 21.1121 50.6809 21.0245 50.4418C20.9369 50.2027 20.8079 50.0156 20.6374 49.8807C20.467 49.7457 20.2575 49.6783 20.0089 49.6783C19.7627 49.6783 19.5543 49.7434 19.3839 49.8736C19.2158 50.0038 19.0868 50.1884 18.9968 50.4276C18.9068 50.6667 18.8619 50.9484 18.8619 51.2727ZM24.7781 48.5455L25.7795 50.4524L26.8058 48.5455H28.3576L26.7773 51.2727L28.4002 54H26.8555L25.7795 52.1143L24.7212 54H23.1587L24.7781 51.2727L23.2156 48.5455H24.7781Z" fill="white"/>
<line x1="18.5" y1="40" x2="18.5" y2="33" stroke="#E8178A"/>
<line x1="21.5" y1="40" x2="21.5" y2="33" stroke="#E8178A"/>
<rect x="396" y="41" width="31" height="18" rx="3" fill="#E8178A"/>
<path d="M402.479 52.7216V51.5107L405.516 46.7273H406.56V48.4034H405.942L404.028 51.4325V51.4893H408.342V52.7216H402.479ZM405.97 54V52.3523L405.999 51.8161V46.7273H407.44V54H405.97ZM409.381 56.0455V48.5455H410.873V49.4616H410.94C411.006 49.3149 411.102 49.1657 411.228 49.0142C411.355 48.8603 411.521 48.7325 411.725 48.6307C411.931 48.5265 412.186 48.4744 412.492 48.4744C412.89 48.4744 413.257 48.5786 413.593 48.7869C413.929 48.9929 414.198 49.3042 414.399 49.7209C414.6 50.1352 414.701 50.6548 414.701 51.2798C414.701 51.8883 414.602 52.402 414.406 52.821C414.212 53.2377 413.947 53.5537 413.61 53.7692C413.277 53.9822 412.903 54.0888 412.488 54.0888C412.195 54.0888 411.945 54.0402 411.739 53.9432C411.535 53.8461 411.368 53.7242 411.238 53.5774C411.108 53.4283 411.009 53.2779 410.94 53.1264H410.894V56.0455H409.381ZM410.862 51.2727C410.862 51.5971 410.907 51.88 410.997 52.1214C411.087 52.3629 411.217 52.5511 411.387 52.6861C411.558 52.8187 411.765 52.8849 412.009 52.8849C412.255 52.8849 412.463 52.8175 412.634 52.6825C412.804 52.5452 412.933 52.3558 413.021 52.1143C413.111 51.8705 413.156 51.59 413.156 51.2727C413.156 50.9579 413.112 50.6809 413.025 50.4418C412.937 50.2027 412.808 50.0156 412.637 49.8807C412.467 49.7457 412.257 49.6783 412.009 49.6783C411.763 49.6783 411.554 49.7434 411.384 49.8736C411.216 50.0038 411.087 50.1884 410.997 50.4276C410.907 50.6667 410.862 50.9484 410.862 51.2727ZM416.778 48.5455L417.779 50.4524L418.806 48.5455H420.358L418.777 51.2727L420.4 54H418.855L417.779 52.1143L416.721 54H415.159L416.778 51.2727L415.216 48.5455H416.778Z" fill="white"/>
<path d="M410 36.5H414" stroke="#E8178A"/>
<line x1="410.5" y1="40" x2="410.5" y2="33" stroke="#E8178A"/>
<line x1="413.5" y1="40" x2="413.5" y2="33" stroke="#E8178A"/>
<rect x="290" y="41" width="31" height="18" rx="3" fill="#E8178A"/>
<path d="M296.479 52.7216V51.5107L299.516 46.7273H300.56V48.4034H299.942L298.028 51.4325V51.4893H302.342V52.7216H296.479ZM299.97 54V52.3523L299.999 51.8161V46.7273H301.44V54H299.97ZM303.381 56.0455V48.5455H304.873V49.4616H304.94C305.006 49.3149 305.102 49.1657 305.228 49.0142C305.355 48.8603 305.521 48.7325 305.725 48.6307C305.931 48.5265 306.186 48.4744 306.492 48.4744C306.89 48.4744 307.257 48.5786 307.593 48.7869C307.929 48.9929 308.198 49.3042 308.399 49.7209C308.6 50.1352 308.701 50.6548 308.701 51.2798C308.701 51.8883 308.602 52.402 308.406 52.821C308.212 53.2377 307.947 53.5537 307.61 53.7692C307.277 53.9822 306.903 54.0888 306.488 54.0888C306.195 54.0888 305.945 54.0402 305.739 53.9432C305.535 53.8461 305.368 53.7242 305.238 53.5774C305.108 53.4283 305.009 53.2779 304.94 53.1264H304.894V56.0455H303.381ZM304.862 51.2727C304.862 51.5971 304.907 51.88 304.997 52.1214C305.087 52.3629 305.217 52.5511 305.387 52.6861C305.558 52.8187 305.765 52.8849 306.009 52.8849C306.255 52.8849 306.463 52.8175 306.634 52.6825C306.804 52.5452 306.933 52.3558 307.021 52.1143C307.111 51.8705 307.156 51.59 307.156 51.2727C307.156 50.9579 307.112 50.6809 307.025 50.4418C306.937 50.2027 306.808 50.0156 306.637 49.8807C306.467 49.7457 306.257 49.6783 306.009 49.6783C305.763 49.6783 305.554 49.7434 305.384 49.8736C305.216 50.0038 305.087 50.1884 304.997 50.4276C304.907 50.6667 304.862 50.9484 304.862 51.2727ZM310.778 48.5455L311.779 50.4524L312.806 48.5455H314.358L312.777 51.2727L314.4 54H312.855L311.779 52.1143L310.721 54H309.159L310.778 51.2727L309.216 48.5455H310.778Z" fill="white"/>
<path d="M304 36.5H308" stroke="#E8178A"/>
<line x1="304.5" y1="40" x2="304.5" y2="33" stroke="#E8178A"/>
<line x1="307.5" y1="40" x2="307.5" y2="33" stroke="#E8178A"/>
<path d="M444.5 0V28" stroke="#1745E8"/>
<rect x="449" y="5" width="37" height="18" rx="3" fill="#1745E8"/>
<path d="M455.589 18V16.892L458.178 14.495C458.398 14.282 458.583 14.0902 458.732 13.9197C458.884 13.7493 458.999 13.5824 459.077 13.419C459.155 13.2533 459.194 13.0746 459.194 12.8828C459.194 12.6697 459.145 12.4863 459.048 12.3324C458.951 12.1761 458.819 12.0566 458.651 11.9737C458.482 11.8885 458.292 11.8459 458.079 11.8459C457.856 11.8459 457.662 11.8909 457.496 11.9808C457.331 12.0708 457.203 12.1998 457.113 12.3679C457.023 12.536 456.978 12.736 456.978 12.968H455.518C455.518 12.4922 455.626 12.0791 455.842 11.7287C456.057 11.3783 456.359 11.1072 456.747 10.9155C457.135 10.7237 457.583 10.6278 458.089 10.6278C458.61 10.6278 459.064 10.7202 459.45 10.9048C459.838 11.0871 460.14 11.3404 460.355 11.6648C460.571 11.9891 460.678 12.3608 460.678 12.7798C460.678 13.0545 460.624 13.3255 460.515 13.593C460.408 13.8606 460.218 14.1577 459.943 14.4844C459.669 14.8087 459.281 15.1982 458.782 15.6527L457.72 16.6932V16.7429H460.774V18H455.589ZM464.601 18.0994C464.055 18.0994 463.568 18.0107 463.142 17.8331C462.718 17.6532 462.385 17.4081 462.144 17.098C461.903 16.7879 461.782 16.4363 461.782 16.0433C461.782 15.7403 461.85 15.4621 461.988 15.2088C462.127 14.9531 462.317 14.7412 462.556 14.5732C462.795 14.4027 463.063 14.2938 463.358 14.2464V14.1967C462.97 14.1186 462.655 13.9304 462.414 13.6321C462.172 13.3314 462.052 12.9822 462.052 12.5845C462.052 12.2081 462.162 11.8731 462.382 11.5795C462.602 11.2836 462.904 11.0516 463.287 10.8835C463.673 10.7131 464.111 10.6278 464.601 10.6278C465.091 10.6278 465.528 10.7131 465.912 10.8835C466.298 11.054 466.601 11.2872 466.821 11.5831C467.041 11.8767 467.152 12.2105 467.155 12.5845C467.152 12.9846 467.029 13.3338 466.785 13.6321C466.541 13.9304 466.229 14.1186 465.848 14.1967V14.2464C466.139 14.2938 466.403 14.4027 466.64 14.5732C466.879 14.7412 467.068 14.9531 467.208 15.2088C467.35 15.4621 467.422 15.7403 467.425 16.0433C467.422 16.4363 467.3 16.7879 467.059 17.098C466.817 17.4081 466.483 17.6532 466.057 17.8331C465.634 18.0107 465.148 18.0994 464.601 18.0994ZM464.601 16.9702C464.845 16.9702 465.058 16.9264 465.241 16.8388C465.423 16.7488 465.565 16.6257 465.667 16.4695C465.771 16.3108 465.823 16.1286 465.823 15.9226C465.823 15.7119 465.77 15.526 465.663 15.3651C465.557 15.2017 465.412 15.0739 465.23 14.9815C465.048 14.8868 464.838 14.8395 464.601 14.8395C464.367 14.8395 464.157 14.8868 463.973 14.9815C463.788 15.0739 463.643 15.2017 463.536 15.3651C463.432 15.526 463.38 15.7119 463.38 15.9226C463.38 16.1286 463.431 16.3108 463.532 16.4695C463.634 16.6257 463.778 16.7488 463.962 16.8388C464.147 16.9264 464.36 16.9702 464.601 16.9702ZM464.601 13.7209C464.805 13.7209 464.986 13.6795 465.145 13.5966C465.303 13.5137 465.428 13.3989 465.518 13.2521C465.608 13.1054 465.653 12.9361 465.653 12.7443C465.653 12.5549 465.608 12.3892 465.518 12.2472C465.428 12.1027 465.305 11.9903 465.148 11.9098C464.992 11.8269 464.81 11.7855 464.601 11.7855C464.395 11.7855 464.213 11.8269 464.055 11.9098C463.896 11.9903 463.772 12.1027 463.682 12.2472C463.594 12.3892 463.55 12.5549 463.55 12.7443C463.55 12.9361 463.595 13.1054 463.685 13.2521C463.775 13.3989 463.899 13.5137 464.058 13.5966C464.217 13.6795 464.398 13.7209 464.601 13.7209ZM468.514 20.0455V12.5455H470.005V13.4616H470.073C470.139 13.3149 470.235 13.1657 470.36 13.0142C470.488 12.8603 470.654 12.7325 470.858 12.6307C471.064 12.5265 471.319 12.4744 471.625 12.4744C472.022 12.4744 472.389 12.5786 472.725 12.7869C473.062 12.9929 473.33 13.3042 473.532 13.7209C473.733 14.1352 473.833 14.6548 473.833 15.2798C473.833 15.8883 473.735 16.402 473.539 16.821C473.345 17.2377 473.079 17.5537 472.743 17.7692C472.409 17.9822 472.035 18.0888 471.621 18.0888C471.328 18.0888 471.078 18.0402 470.872 17.9432C470.668 17.8461 470.501 17.7242 470.371 17.5774C470.241 17.4283 470.141 17.2779 470.073 17.1264H470.027V20.0455H468.514ZM469.995 15.2727C469.995 15.5971 470.04 15.88 470.13 16.1214C470.22 16.3629 470.35 16.5511 470.52 16.6861C470.691 16.8187 470.898 16.8849 471.142 16.8849C471.388 16.8849 471.596 16.8175 471.767 16.6825C471.937 16.5452 472.066 16.3558 472.154 16.1143C472.244 15.8705 472.289 15.59 472.289 15.2727C472.289 14.9579 472.245 14.6809 472.157 14.4418C472.07 14.2027 471.941 14.0156 471.77 13.8807C471.6 13.7457 471.39 13.6783 471.142 13.6783C470.895 13.6783 470.687 13.7434 470.517 13.8736C470.349 14.0038 470.22 14.1884 470.13 14.4276C470.04 14.6667 469.995 14.9484 469.995 15.2727ZM475.911 12.5455L476.912 14.4524L477.939 12.5455H479.49L477.91 15.2727L479.533 18H477.988L476.912 16.1143L475.854 18H474.292L475.911 15.2727L474.348 12.5455H475.911Z" fill="white"/>
<line x1="441" y1="0.5" x2="448" y2="0.5" stroke="#1745E8"/>
<line x1="441" y1="27.5" x2="448" y2="27.5" stroke="#1745E8"/>
</svg>
