<svg width="588" height="373" viewBox="0 0 588 373" fill="none" xmlns="http://www.w3.org/2000/svg"><path d="M1.011 73V61.364h2.46v9.608h4.99V73H1.01Zm11.522.165c-.557 0-1.053-.097-1.489-.29a2.397 2.397 0 0 1-1.034-.87c-.25-.386-.375-.867-.375-1.442 0-.485.089-.892.267-1.222.178-.33.42-.595.727-.795a3.522 3.522 0 0 1 1.046-.455 7.97 7.97 0 0 1 1.238-.216c.508-.053.917-.102 1.228-.148.31-.049.536-.12.676-.216a.475.475 0 0 0 .21-.42v-.034c0-.36-.114-.638-.34-.835-.224-.197-.543-.296-.955-.296-.436 0-.783.097-1.04.29-.258.19-.428.428-.512.716l-2.238-.182c.113-.53.337-.989.67-1.375.333-.39.764-.69 1.29-.898.53-.212 1.144-.318 1.84-.318.486 0 .95.057 1.393.17.447.114.843.29 1.187.529.349.239.623.545.824.92.201.372.301.817.301 1.336V73h-2.295v-1.21h-.068c-.14.272-.328.513-.563.721a2.603 2.603 0 0 1-.846.483c-.33.114-.71.17-1.142.17Zm.693-1.67c.356 0 .67-.07.943-.21a1.67 1.67 0 0 0 .642-.58c.155-.243.233-.517.233-.824v-.927a1.28 1.28 0 0 1-.313.137 5.692 5.692 0 0 1-.437.108c-.163.03-.326.059-.489.085l-.443.063a2.991 2.991 0 0 0-.744.199 1.19 1.19 0 0 0-.494.369.9.9 0 0 0-.177.568c0 .33.12.581.358.756.243.17.55.255.92.255ZM19.37 73V61.364h2.42v4.375h.074a3.2 3.2 0 0 1 .46-.716c.205-.246.47-.451.796-.614.33-.167.738-.25 1.227-.25a3.28 3.28 0 0 1 1.761.5c.538.33.968.828 1.29 1.494.322.663.483 1.495.483 2.495 0 .973-.157 1.795-.472 2.466-.31.666-.734 1.172-1.272 1.517a3.267 3.267 0 0 1-1.796.511c-.47 0-.869-.078-1.198-.233a2.48 2.48 0 0 1-.802-.585 2.973 2.973 0 0 1-.477-.722h-.108V73H19.37Zm2.37-4.364c0 .52.071.972.215 1.358.144.387.352.688.625.904.273.212.604.318.994.318.394 0 .728-.108 1-.324.273-.22.48-.523.62-.909.143-.39.215-.84.215-1.347 0-.503-.07-.947-.21-1.33-.14-.382-.346-.681-.619-.897-.273-.216-.608-.324-1.006-.324-.394 0-.727.104-1 .313-.269.208-.475.504-.619.886-.144.383-.216.833-.216 1.352Zm11.733 4.535c-.897 0-1.67-.182-2.318-.546a3.736 3.736 0 0 1-1.488-1.557c-.349-.674-.523-1.471-.523-2.392 0-.898.174-1.686.523-2.364a3.864 3.864 0 0 1 1.471-1.585c.637-.379 1.383-.568 2.239-.568.576 0 1.112.093 1.608.278.5.182.935.457 1.307.824.375.368.666.83.875 1.387.208.553.312 1.2.312 1.943v.665h-7.37v-1.5h5.092c0-.349-.076-.657-.228-.927a1.628 1.628 0 0 0-.63-.63 1.8 1.8 0 0 0-.926-.233c-.368 0-.694.085-.978.256-.28.166-.5.392-.659.676a1.91 1.91 0 0 0-.244.937v1.426c0 .432.08.805.239 1.12.162.314.392.556.687.727.295.17.646.256 1.051.256.27 0 .515-.038.739-.114.223-.076.415-.19.574-.34.159-.152.28-.338.363-.558l2.239.148a3.057 3.057 0 0 1-.699 1.41c-.348.397-.8.707-1.352.93-.55.22-1.184.33-1.904.33Zm8.006-11.807V73h-2.42V61.364h2.42Zm506.13 11.796c-.856 0-1.585-.234-2.187-.7-.602-.47-1.063-1.15-1.381-2.04-.318-.894-.477-1.973-.477-3.238 0-1.258.159-2.332.477-3.222.322-.894.784-1.575 1.387-2.045.606-.474 1.333-.71 2.181-.71.849 0 1.574.236 2.177.71.606.47 1.068 1.151 1.386 2.045.322.89.483 1.964.483 3.222 0 1.265-.159 2.344-.477 3.239-.319.89-.779 1.57-1.381 2.04-.602.465-1.332.698-2.188.698Zm0-1.25c.849 0 1.508-.41 1.978-1.228.469-.818.704-1.985.704-3.5 0-1.008-.108-1.866-.324-2.574-.212-.708-.519-1.248-.92-1.62a2.033 2.033 0 0 0-1.438-.556c-.841 0-1.498.415-1.971 1.244-.474.826-.71 1.995-.71 3.506 0 1.007.106 1.864.318 2.568.212.704.517 1.24.915 1.608a2.07 2.07 0 0 0 1.448.551Zm10.341-11.092L554.2 74.75h-1.227l3.75-13.932h1.227ZM559.517 73v-1.023l3.841-4.204c.451-.493.822-.92 1.114-1.284.291-.368.507-.713.647-1.035.144-.325.216-.666.216-1.022 0-.41-.098-.763-.295-1.063a1.92 1.92 0 0 0-.796-.693 2.58 2.58 0 0 0-1.136-.244c-.447 0-.837.093-1.17.278-.33.182-.586.438-.768.767-.178.33-.267.716-.267 1.16h-1.341c0-.682.158-1.28.472-1.796a3.278 3.278 0 0 1 1.284-1.205 3.871 3.871 0 0 1 1.835-.431c.682 0 1.286.144 1.813.431.526.288.939.676 1.239 1.165.299.489.448 1.032.448 1.63 0 .429-.077.847-.233 1.257-.151.405-.416.858-.795 1.358-.375.496-.896 1.102-1.563 1.818l-2.613 2.795v.091h5.409V73h-7.341Zm13.483.16c-.856 0-1.585-.234-2.188-.7-.602-.47-1.062-1.15-1.38-2.04-.318-.894-.477-1.973-.477-3.238 0-1.258.159-2.332.477-3.222.322-.894.784-1.575 1.386-2.045.606-.474 1.334-.71 2.182-.71.848 0 1.574.236 2.176.71.606.47 1.068 1.151 1.386 2.045.322.89.483 1.964.483 3.222 0 1.265-.159 2.344-.477 3.239-.318.89-.778 1.57-1.38 2.04-.603.465-1.332.698-2.188.698Zm0-1.25c.848 0 1.508-.41 1.977-1.228.47-.818.705-1.985.705-3.5 0-1.008-.108-1.866-.324-2.574-.212-.708-.519-1.248-.92-1.62a2.033 2.033 0 0 0-1.438-.556c-.841 0-1.498.415-1.972 1.244-.473.826-.71 1.995-.71 3.506 0 1.007.106 1.864.318 2.568.212.704.517 1.24.915 1.608.402.367.885.551 1.449.551Zm10 1.25c-.856 0-1.585-.234-2.188-.7-.602-.47-1.062-1.15-1.38-2.04-.318-.894-.477-1.973-.477-3.238 0-1.258.159-2.332.477-3.222.322-.894.784-1.575 1.386-2.045.606-.474 1.334-.71 2.182-.71.848 0 1.574.236 2.176.71.606.47 1.068 1.151 1.386 2.045.322.89.483 1.964.483 3.222 0 1.265-.159 2.344-.477 3.239-.318.89-.778 1.57-1.38 2.04-.603.465-1.332.698-2.188.698Zm0-1.25c.848 0 1.508-.41 1.977-1.228.47-.818.705-1.985.705-3.5 0-1.008-.108-1.866-.324-2.574-.212-.708-.519-1.248-.92-1.62a2.033 2.033 0 0 0-1.438-.556c-.841 0-1.498.415-1.972 1.244-.473.826-.71 1.995-.71 3.506 0 1.007.106 1.864.318 2.568.212.704.517 1.24.915 1.608.402.367.885.551 1.449.551Z" fill="#344054"/><rect x=".5" y="83.5" width="587" height="289" rx="3.5" fill="#fff"/><path d="M20.068 115v-10.548h-3.564v-1.26h8.64v1.26H21.58V115h-1.512Zm7.058 0v-12.816h1.476v3.492l-.054 1.8c.42-.396.858-.732 1.314-1.008a2.994 2.994 0 0 1 1.602-.432c.924 0 1.596.294 2.016.882.432.576.648 1.422.648 2.538V115h-1.476v-5.346c0-.816-.132-1.41-.396-1.782-.264-.372-.684-.558-1.26-.558-.444 0-.846.114-1.206.342-.348.228-.744.564-1.188 1.008V115h-1.476Zm9.791 0v-8.748h1.476V115h-1.476Zm.756-10.548c-.288 0-.528-.084-.72-.252-.18-.18-.27-.42-.27-.72 0-.288.09-.522.27-.702.192-.18.432-.27.72-.27s.522.09.702.27c.192.18.288.414.288.702 0 .3-.096.54-.288.72-.18.168-.414.252-.702.252Zm5.96 10.764a4.71 4.71 0 0 1-1.782-.342 6.289 6.289 0 0 1-1.476-.864l.738-.99c.384.3.78.552 1.188.756.408.192.87.288 1.386.288.576 0 1.008-.132 1.296-.396.288-.276.432-.6.432-.972 0-.3-.102-.552-.306-.756a2.194 2.194 0 0 0-.756-.504c-.3-.144-.612-.276-.936-.396-.408-.156-.81-.33-1.206-.522a2.985 2.985 0 0 1-.972-.774c-.252-.324-.378-.732-.378-1.224 0-.708.264-1.296.792-1.764.54-.48 1.284-.72 2.232-.72.54 0 1.044.096 1.512.288.468.192.87.426 1.206.702l-.72.936a4.702 4.702 0 0 0-.936-.558 2.585 2.585 0 0 0-1.062-.216c-.552 0-.96.126-1.224.378a1.209 1.209 0 0 0-.378.882c0 .276.09.504.27.684.18.168.414.318.702.45.288.12.594.246.918.378.42.156.834.336 1.242.54.408.192.744.456 1.008.792.276.324.414.762.414 1.314 0 .468-.126.9-.378 1.296-.24.396-.6.714-1.08.954-.468.24-1.05.36-1.746.36Zm8.859-.216v-8.748h1.476V115h-1.476Zm.756-10.548c-.288 0-.528-.084-.72-.252-.18-.18-.27-.42-.27-.72 0-.288.09-.522.27-.702.192-.18.432-.27.72-.27s.522.09.702.27c.192.18.288.414.288.702 0 .3-.096.54-.288.72-.18.168-.414.252-.702.252Zm5.96 10.764a4.71 4.71 0 0 1-1.783-.342 6.289 6.289 0 0 1-1.476-.864l.738-.99c.384.3.78.552 1.188.756.408.192.87.288 1.386.288.576 0 1.008-.132 1.296-.396.288-.276.432-.6.432-.972 0-.3-.102-.552-.306-.756a2.194 2.194 0 0 0-.756-.504c-.3-.144-.612-.276-.936-.396-.408-.156-.81-.33-1.206-.522a2.985 2.985 0 0 1-.972-.774c-.252-.324-.378-.732-.378-1.224 0-.708.264-1.296.792-1.764.54-.48 1.284-.72 2.232-.72.54 0 1.044.096 1.512.288.468.192.87.426 1.206.702l-.72.936a4.702 4.702 0 0 0-.936-.558 2.585 2.585 0 0 0-1.062-.216c-.552 0-.96.126-1.224.378a1.209 1.209 0 0 0-.378.882c0 .276.09.504.27.684.18.168.414.318.702.45.288.12.594.246.918.378.42.156.834.336 1.242.54.408.192.744.456 1.008.792.276.324.414.762.414 1.314 0 .468-.126.9-.378 1.296-.24.396-.6.714-1.08.954-.468.24-1.05.36-1.746.36Zm11.612 0c-.936 0-1.59-.27-1.962-.81-.36-.54-.54-1.242-.54-2.106v-4.842h-1.296v-1.116l1.368-.09.18-2.448h1.242v2.448h2.358v1.206h-2.358v4.86c0 .54.096.96.288 1.26.204.288.558.432 1.062.432.156 0 .324-.024.504-.072l.486-.162.288 1.116c-.24.084-.504.156-.792.216a3.269 3.269 0 0 1-.828.108Zm6.628 0c-.78 0-1.488-.18-2.124-.54a4.008 4.008 0 0 1-1.512-1.584c-.372-.684-.558-1.5-.558-2.448 0-.96.186-1.782.558-2.466.384-.684.876-1.212 1.476-1.584.6-.372 1.23-.558 1.89-.558 1.116 0 1.974.372 2.574 1.116.612.744.918 1.74.918 2.988a6.1 6.1 0 0 1-.018.468c0 .144-.012.27-.036.378h-5.904c.06.924.348 1.662.864 2.214.528.552 1.212.828 2.052.828.42 0 .804-.06 1.152-.18.36-.132.702-.3 1.026-.504l.522.972c-.372.24-.798.45-1.278.63-.468.18-1.002.27-1.602.27Zm-2.754-5.292h4.68c0-.888-.192-1.56-.576-2.016-.372-.468-.9-.702-1.584-.702-.612 0-1.164.24-1.656.72-.48.468-.768 1.134-.864 1.998Zm6.79 5.076 2.862-4.572-2.646-4.176h1.602l1.17 1.926.414.72c.144.252.294.498.45.738h.072c.132-.24.264-.486.396-.738s.264-.492.396-.72l1.062-1.926h1.548l-2.646 4.338 2.844 4.41h-1.602l-1.278-2.034-.468-.792a16.832 16.832 0 0 0-.486-.774h-.072c-.156.252-.306.51-.45.774-.144.252-.288.516-.432.792L83.032 115h-1.548Zm11.572.216c-.936 0-1.59-.27-1.962-.81-.36-.54-.54-1.242-.54-2.106v-4.842h-1.296v-1.116l1.368-.09.18-2.448h1.242v2.448h2.358v1.206h-2.358v4.86c0 .54.096.96.288 1.26.204.288.558.432 1.062.432.156 0 .324-.024.504-.072l.486-.162.288 1.116c-.24.084-.504.156-.792.216a3.269 3.269 0 0 1-.828.108Zm9.686 0c-.936 0-1.59-.27-1.962-.81-.36-.54-.54-1.242-.54-2.106v-4.842h-1.296v-1.116l1.368-.09.18-2.448h1.242v2.448h2.358v1.206h-2.358v4.86c0 .54.096.96.288 1.26.204.288.558.432 1.062.432.156 0 .324-.024.504-.072l.486-.162.288 1.116c-.24.084-.504.156-.792.216a3.269 3.269 0 0 1-.828.108Zm3.328-.216v-12.816h1.476v3.492l-.054 1.8c.42-.396.858-.732 1.314-1.008a2.994 2.994 0 0 1 1.602-.432c.924 0 1.596.294 2.016.882.432.576.648 1.422.648 2.538V115h-1.476v-5.346c0-.816-.132-1.41-.396-1.782-.264-.372-.684-.558-1.26-.558-.444 0-.846.114-1.206.342-.348.228-.744.564-1.188 1.008V115h-1.476Zm11.807.216c-.732 0-1.344-.216-1.836-.648-.48-.444-.72-1.056-.72-1.836 0-.96.426-1.692 1.278-2.196.864-.516 2.226-.876 4.086-1.08a3.45 3.45 0 0 0-.162-1.062 1.523 1.523 0 0 0-.54-.81c-.252-.216-.618-.324-1.098-.324-.504 0-.978.096-1.422.288-.444.192-.84.408-1.188.648l-.576-1.026a9.08 9.08 0 0 1 1.494-.756 4.969 4.969 0 0 1 1.944-.378c1.068 0 1.842.33 2.322.99.48.648.72 1.518.72 2.61V115h-1.224l-.126-1.044h-.054c-.408.336-.858.63-1.35.882a3.28 3.28 0 0 1-1.548.378Zm.432-1.188c.42 0 .816-.102 1.188-.306a6.67 6.67 0 0 0 1.188-.864v-2.43c-1.452.18-2.472.45-3.06.81-.576.36-.864.822-.864 1.386 0 .492.15.852.45 1.08.3.216.666.324 1.098.324Zm9.13 1.188c-.936 0-1.59-.27-1.962-.81-.36-.54-.54-1.242-.54-2.106v-4.842h-1.296v-1.116l1.368-.09.18-2.448h1.242v2.448h2.358v1.206h-2.358v4.86c0 .54.096.96.288 1.26.204.288.558.432 1.062.432.156 0 .324-.024.504-.072l.486-.162.288 1.116c-.24.084-.504.156-.792.216a3.269 3.269 0 0 1-.828.108Zm6.932-.216v-12.816h1.476v3.492l-.054 1.8c.42-.396.858-.732 1.314-1.008a2.994 2.994 0 0 1 1.602-.432c.924 0 1.596.294 2.016.882.432.576.648 1.422.648 2.538V115h-1.476v-5.346c0-.816-.132-1.41-.396-1.782-.264-.372-.684-.558-1.26-.558-.444 0-.846.114-1.206.342-.348.228-.744.564-1.188 1.008V115h-1.476Zm11.807.216c-.732 0-1.344-.216-1.836-.648-.48-.444-.72-1.056-.72-1.836 0-.96.426-1.692 1.278-2.196.864-.516 2.226-.876 4.086-1.08a3.45 3.45 0 0 0-.162-1.062 1.523 1.523 0 0 0-.54-.81c-.252-.216-.618-.324-1.098-.324-.504 0-.978.096-1.422.288-.444.192-.84.408-1.188.648L144 107.17a9.08 9.08 0 0 1 1.494-.756 4.969 4.969 0 0 1 1.944-.378c1.068 0 1.842.33 2.322.99.48.648.72 1.518.72 2.61V115h-1.224l-.126-1.044h-.054c-.408.336-.858.63-1.35.882a3.28 3.28 0 0 1-1.548.378Zm.432-1.188c.42 0 .816-.102 1.188-.306a6.67 6.67 0 0 0 1.188-.864v-2.43c-1.452.18-2.472.45-3.06.81-.576.36-.864.822-.864 1.386 0 .492.15.852.45 1.08.3.216.666.324 1.098.324Zm8.908 1.188a4.71 4.71 0 0 1-1.782-.342 6.289 6.289 0 0 1-1.476-.864l.738-.99c.384.3.78.552 1.188.756.408.192.87.288 1.386.288.576 0 1.008-.132 1.296-.396.288-.276.432-.6.432-.972 0-.3-.102-.552-.306-.756a2.194 2.194 0 0 0-.756-.504c-.3-.144-.612-.276-.936-.396-.408-.156-.81-.33-1.206-.522a2.985 2.985 0 0 1-.972-.774c-.252-.324-.378-.732-.378-1.224 0-.708.264-1.296.792-1.764.54-.48 1.284-.72 2.232-.72.54 0 1.044.096 1.512.288.468.192.87.426 1.206.702l-.72.936a4.702 4.702 0 0 0-.936-.558 2.585 2.585 0 0 0-1.062-.216c-.552 0-.96.126-1.224.378a1.209 1.209 0 0 0-.378.882c0 .276.09.504.27.684.18.168.414.318.702.45.288.12.594.246.918.378.42.156.834.336 1.242.54.408.192.744.456 1.008.792.276.324.414.762.414 1.314 0 .468-.126.9-.378 1.296-.24.396-.6.714-1.08.954-.468.24-1.05.36-1.746.36Zm12.728 0c-.408 0-.834-.096-1.278-.288a5.005 5.005 0 0 1-1.224-.828h-.054l-.126.9h-1.188v-12.816h1.476v3.492l-.036 1.584a5.812 5.812 0 0 1 1.296-.864c.48-.24.96-.36 1.44-.36 1.14 0 2.004.402 2.592 1.206.588.804.882 1.884.882 3.24 0 .996-.18 1.848-.54 2.556-.348.708-.81 1.248-1.386 1.62a3.299 3.299 0 0 1-1.854.558Zm-.252-1.242c.72 0 1.314-.306 1.782-.918.48-.624.72-1.476.72-2.556 0-.96-.18-1.734-.54-2.322-.348-.6-.936-.9-1.764-.9-.372 0-.75.102-1.134.306a5.995 5.995 0 0 0-1.206.882v4.59c.384.336.762.576 1.134.72.384.132.72.198 1.008.198Zm9.878 1.242c-.78 0-1.488-.18-2.124-.54a4.008 4.008 0 0 1-1.512-1.584c-.372-.684-.558-1.5-.558-2.448 0-.96.186-1.782.558-2.466.384-.684.876-1.212 1.476-1.584.6-.372 1.23-.558 1.89-.558 1.116 0 1.974.372 2.574 1.116.612.744.918 1.74.918 2.988a6.1 6.1 0 0 1-.018.468c0 .144-.012.27-.036.378h-5.904c.06.924.348 1.662.864 2.214.528.552 1.212.828 2.052.828.42 0 .804-.06 1.152-.18.36-.132.702-.3 1.026-.504l.522.972c-.372.24-.798.45-1.278.63-.468.18-1.002.27-1.602.27Zm-2.754-5.292h4.68c0-.888-.192-1.56-.576-2.016-.372-.468-.9-.702-1.584-.702-.612 0-1.164.24-1.656.72-.48.468-.768 1.134-.864 1.998Zm11.683 5.292c-.78 0-1.488-.18-2.124-.54a4.008 4.008 0 0 1-1.512-1.584c-.372-.684-.558-1.5-.558-2.448 0-.96.186-1.782.558-2.466.384-.684.876-1.212 1.476-1.584.6-.372 1.23-.558 1.89-.558 1.116 0 1.974.372 2.574 1.116.612.744.918 1.74.918 2.988a6.1 6.1 0 0 1-.018.468c0 .144-.012.27-.036.378h-5.904c.06.924.348 1.662.864 2.214.528.552 1.212.828 2.052.828.42 0 .804-.06 1.152-.18.36-.132.702-.3 1.026-.504l.522.972c-.372.24-.798.45-1.278.63-.468.18-1.002.27-1.602.27Zm-2.754-5.292h4.68c0-.888-.192-1.56-.576-2.016-.372-.468-.9-.702-1.584-.702-.612 0-1.164.24-1.656.72-.48.468-.768 1.134-.864 1.998Zm8.138 5.076v-8.748h1.224l.126 1.26h.054c.42-.42.864-.768 1.332-1.044a2.994 2.994 0 0 1 1.602-.432c.924 0 1.596.294 2.016.882.432.576.648 1.422.648 2.538V115h-1.476v-5.346c0-.816-.132-1.41-.396-1.782-.264-.372-.684-.558-1.26-.558-.444 0-.846.114-1.206.342-.348.228-.744.564-1.188 1.008V115h-1.476Zm13.699 0v-7.542h-1.188v-1.116l1.188-.09v-1.386c0-.888.204-1.59.612-2.106.42-.528 1.068-.792 1.944-.792.276 0 .54.03.792.09.252.048.474.114.666.198l-.324 1.134a2.416 2.416 0 0 0-.99-.216c-.816 0-1.224.564-1.224 1.692v1.386h1.854v1.206h-1.854V115h-1.476Zm5.004 0v-8.748h1.476V115h-1.476Zm.756-10.548c-.288 0-.528-.084-.72-.252-.18-.18-.27-.42-.27-.72 0-.288.09-.522.27-.702.192-.18.432-.27.72-.27s.522.09.702.27c.192.18.288.414.288.702 0 .3-.096.54-.288.72-.18.168-.414.252-.702.252Zm5.24 10.764c-.552 0-.954-.168-1.206-.504-.24-.348-.36-.84-.36-1.476v-11.052h1.476v11.16c0 .228.042.396.126.504.084.096.18.144.288.144h.126c.048-.012.114-.024.198-.036l.198 1.116c-.096.048-.21.084-.342.108-.132.024-.3.036-.504.036Zm4.588 0c-.552 0-.954-.168-1.206-.504-.24-.348-.36-.84-.36-1.476v-11.052h1.476v11.16c0 .228.042.396.126.504.084.096.18.144.288.144h.126c.048-.012.114-.024.198-.036l.198 1.116c-.096.048-.21.084-.342.108-.132.024-.3.036-.504.036Zm6.568 0c-.78 0-1.488-.18-2.124-.54a4.008 4.008 0 0 1-1.512-1.584c-.372-.684-.558-1.5-.558-2.448 0-.96.186-1.782.558-2.466.384-.684.876-1.212 1.476-1.584.6-.372 1.23-.558 1.89-.558 1.116 0 1.974.372 2.574 1.116.612.744.918 1.74.918 2.988a6.1 6.1 0 0 1-.018.468c0 .144-.012.27-.036.378h-5.904c.06.924.348 1.662.864 2.214.528.552 1.212.828 2.052.828.42 0 .804-.06 1.152-.18.36-.132.702-.3 1.026-.504l.522.972c-.372.24-.798.45-1.278.63-.468.18-1.002.27-1.602.27Zm-2.754-5.292h4.68c0-.888-.192-1.56-.576-2.016-.372-.468-.9-.702-1.584-.702-.612 0-1.164.24-1.656.72-.48.468-.768 1.134-.864 1.998Zm11.125 5.292c-1.092 0-1.968-.396-2.628-1.188-.66-.804-.99-1.932-.99-3.384 0-.948.174-1.764.522-2.448.36-.696.828-1.23 1.404-1.602a3.443 3.443 0 0 1 1.872-.558c.504 0 .942.09 1.314.27.372.18.75.426 1.134.738l-.072-1.494v-3.366h1.494V115h-1.224l-.126-1.026h-.054c-.336.336-.732.63-1.188.882-.456.24-.942.36-1.458.36Zm.324-1.242c.768 0 1.512-.402 2.232-1.206v-4.572c-.372-.336-.732-.57-1.08-.702a2.624 2.624 0 0 0-1.044-.216 2.08 2.08 0 0 0-1.278.432c-.372.276-.672.666-.9 1.17-.228.492-.342 1.074-.342 1.746 0 1.044.21 1.866.63 2.466.42.588 1.014.882 1.782.882ZM247.011 115v-8.748h1.476V115h-1.476Zm.756-10.548c-.288 0-.528-.084-.72-.252-.18-.18-.27-.42-.27-.72 0-.288.09-.522.27-.702.192-.18.432-.27.72-.27s.522.09.702.27c.192.18.288.414.288.702 0 .3-.096.54-.288.72-.18.168-.414.252-.702.252ZM251.441 115v-8.748h1.224l.126 1.26h.054c.42-.42.864-.768 1.332-1.044a2.994 2.994 0 0 1 1.602-.432c.924 0 1.596.294 2.016.882.432.576.648 1.422.648 2.538V115h-1.476v-5.346c0-.816-.132-1.41-.396-1.782-.264-.372-.684-.558-1.26-.558-.444 0-.846.114-1.206.342-.348.228-.744.564-1.188 1.008V115h-1.476Z" fill="#344054"/><rect x=".5" y="83.5" width="587" height="289" rx="3.5" stroke="#98A2B3"/><circle cx="66" cy="16" r="12" fill="#344054"/><path d="M68.006 10.364V22h-2.46v-9.301h-.069l-2.665 1.67v-2.181l2.881-1.824h2.313Z" fill="#fff"/><path d="M63 16H19v42" stroke="#344054" stroke-dasharray="2 2"/><circle cx="565" cy="28" r="12" fill="#344054"/><path d="M560.943 34v-1.773l4.142-3.835c.353-.34.648-.648.887-.92.242-.273.426-.54.551-.802.125-.265.187-.55.187-.858 0-.34-.077-.634-.233-.88a1.526 1.526 0 0 0-.636-.574 1.995 1.995 0 0 0-.915-.205c-.356 0-.667.072-.932.216-.265.144-.469.35-.613.62-.144.269-.216.589-.216.96h-2.335c0-.762.172-1.423.517-1.983.344-.56.827-.994 1.448-1.301.622-.307 1.338-.46 2.148-.46.834 0 1.559.147 2.176.443.622.291 1.104.697 1.449 1.216s.517 1.113.517 1.784c0 .44-.087.873-.261 1.3-.171.429-.476.904-.915 1.427-.439.519-1.059 1.142-1.858 1.87l-1.699 1.664v.08h4.887V34h-8.296Z" fill="#fff"/><path d="M565 58V40" stroke="#344054" stroke-dasharray="2 2"/></svg>