<svg width="650" height="361" viewBox="0 0 650 361" fill="none" xmlns="http://www.w3.org/2000/svg"><path d="M11.011 22V10.364h2.46v9.608h4.99V22h-7.45Zm11.522.165c-.557 0-1.053-.097-1.489-.29a2.397 2.397 0 0 1-1.034-.87c-.25-.386-.375-.867-.375-1.442 0-.485.089-.892.267-1.222.178-.33.42-.595.727-.796.307-.2.656-.352 1.046-.454a7.97 7.97 0 0 1 1.238-.216c.508-.053.917-.102 1.228-.148.31-.049.536-.12.676-.216a.475.475 0 0 0 .21-.42v-.034c0-.36-.114-.638-.34-.835-.224-.197-.543-.296-.956-.296-.435 0-.782.097-1.04.29-.257.19-.427.428-.51.716l-2.24-.182a3.05 3.05 0 0 1 .671-1.375c.334-.39.764-.69 1.29-.898.53-.212 1.144-.318 1.84-.318.486 0 .95.057 1.393.17.447.114.843.29 1.187.529.349.239.623.545.824.92.201.372.301.817.301 1.336V22h-2.295v-1.21h-.068a2.45 2.45 0 0 1-.563.721 2.603 2.603 0 0 1-.846.483c-.33.114-.71.17-1.142.17Zm.693-1.67c.356 0 .67-.07.943-.21a1.67 1.67 0 0 0 .642-.58c.155-.243.233-.517.233-.824v-.927a1.28 1.28 0 0 1-.313.137 5.692 5.692 0 0 1-.437.108c-.163.03-.326.059-.489.085l-.443.063a2.991 2.991 0 0 0-.744.198 1.19 1.19 0 0 0-.494.37.9.9 0 0 0-.177.568c0 .33.12.581.358.756.243.17.55.255.92.255ZM29.37 22V10.364h2.42v4.375h.074a3.2 3.2 0 0 1 .46-.716c.205-.246.47-.451.796-.614.33-.167.738-.25 1.227-.25a3.28 3.28 0 0 1 1.761.5c.538.33.968.828 1.29 1.494.322.663.483 1.495.483 2.495 0 .973-.157 1.795-.471 2.466-.311.666-.735 1.172-1.273 1.517a3.267 3.267 0 0 1-1.796.511c-.47 0-.869-.078-1.198-.233a2.48 2.48 0 0 1-.802-.585 2.973 2.973 0 0 1-.477-.722h-.108V22H29.37Zm2.37-4.364c0 .52.071.972.215 1.358.144.387.352.688.625.904.273.212.604.318.994.318.394 0 .728-.108 1-.324.273-.22.48-.523.62-.909.144-.39.215-.84.215-1.347 0-.503-.07-.947-.21-1.33-.14-.382-.346-.681-.619-.897-.273-.216-.608-.324-1.006-.324-.394 0-.727.104-1 .313-.269.208-.475.504-.619.886-.144.383-.216.833-.216 1.352Zm11.733 4.535c-.897 0-1.67-.182-2.318-.546a3.736 3.736 0 0 1-1.488-1.557c-.349-.674-.523-1.471-.523-2.392 0-.898.174-1.685.523-2.363a3.864 3.864 0 0 1 1.471-1.586c.637-.379 1.383-.568 2.239-.568.576 0 1.112.093 1.608.278.5.182.935.457 1.307.824.375.368.666.83.875 1.387.208.553.312 1.2.312 1.943v.665h-7.37v-1.5h5.092c0-.349-.076-.657-.228-.927a1.628 1.628 0 0 0-.63-.63 1.8 1.8 0 0 0-.926-.233c-.368 0-.694.085-.978.256-.28.166-.5.392-.659.676a1.91 1.91 0 0 0-.244.937v1.426c0 .432.08.805.239 1.12.162.314.392.556.687.727.295.17.646.256 1.051.256.27 0 .515-.038.739-.114.223-.076.415-.19.574-.34.159-.152.28-.338.363-.558l2.239.148a3.057 3.057 0 0 1-.699 1.41c-.348.397-.8.707-1.352.93-.55.22-1.184.33-1.904.33Zm8.006-11.807V22h-2.42V10.364h2.42Zm506.13 11.796c-.856 0-1.585-.234-2.187-.7-.602-.47-1.063-1.15-1.381-2.04-.318-.894-.477-1.973-.477-3.238 0-1.258.159-2.332.477-3.222.322-.894.784-1.576 1.387-2.045.606-.474 1.333-.71 2.181-.71.849 0 1.574.236 2.177.71.606.47 1.068 1.151 1.386 2.045.322.89.483 1.964.483 3.222 0 1.265-.159 2.345-.477 3.239-.319.89-.779 1.57-1.381 2.04-.602.465-1.332.698-2.188.698Zm0-1.25c.849 0 1.508-.41 1.978-1.228.469-.818.704-1.985.704-3.5 0-1.008-.108-1.866-.324-2.574-.212-.708-.519-1.248-.92-1.62a2.033 2.033 0 0 0-1.438-.556c-.841 0-1.498.415-1.971 1.244-.474.826-.71 1.995-.71 3.506 0 1.007.106 1.864.318 2.568.212.704.517 1.24.915 1.608a2.07 2.07 0 0 0 1.448.551ZM567.95 9.817 564.2 23.75h-1.227l3.75-13.932h1.227ZM569.517 22v-1.023l3.841-4.204c.451-.493.822-.92 1.114-1.284.291-.368.507-.713.647-1.035.144-.325.216-.666.216-1.022 0-.41-.098-.763-.295-1.063a1.92 1.92 0 0 0-.796-.693 2.58 2.58 0 0 0-1.136-.244c-.447 0-.837.093-1.17.278-.33.182-.586.438-.768.767-.178.33-.267.716-.267 1.16h-1.341c0-.683.158-1.28.472-1.796a3.278 3.278 0 0 1 1.284-1.205 3.871 3.871 0 0 1 1.835-.431c.682 0 1.286.143 1.813.431.526.288.939.677 1.239 1.165.299.489.448 1.032.448 1.63 0 .429-.077.847-.233 1.257-.151.405-.416.857-.795 1.357-.375.497-.896 1.103-1.563 1.819l-2.613 2.795v.091h5.409V22h-7.341Zm13.483.16c-.856 0-1.585-.234-2.188-.7-.602-.47-1.062-1.15-1.38-2.04-.318-.894-.477-1.973-.477-3.238 0-1.258.159-2.332.477-3.222.322-.894.784-1.576 1.386-2.045.606-.474 1.334-.71 2.182-.71.848 0 1.574.236 2.176.71.606.47 1.068 1.151 1.386 2.045.322.89.483 1.964.483 3.222 0 1.265-.159 2.345-.477 3.239-.318.89-.778 1.57-1.38 2.04-.603.465-1.332.698-2.188.698Zm0-1.25c.848 0 1.508-.41 1.977-1.228.47-.818.705-1.985.705-3.5 0-1.008-.108-1.866-.324-2.574-.212-.708-.519-1.248-.92-1.62a2.033 2.033 0 0 0-1.438-.556c-.841 0-1.498.415-1.972 1.244-.473.826-.71 1.995-.71 3.506 0 1.007.106 1.864.318 2.568.212.704.517 1.24.915 1.608.402.367.885.551 1.449.551Zm10 1.25c-.856 0-1.585-.234-2.188-.7-.602-.47-1.062-1.15-1.38-2.04-.318-.894-.477-1.973-.477-3.238 0-1.258.159-2.332.477-3.222.322-.894.784-1.576 1.386-2.045.606-.474 1.334-.71 2.182-.71.848 0 1.574.236 2.176.71.606.47 1.068 1.151 1.386 2.045.322.89.483 1.964.483 3.222 0 1.265-.159 2.345-.477 3.239-.318.89-.778 1.57-1.38 2.04-.603.465-1.332.698-2.188.698Zm0-1.25c.848 0 1.508-.41 1.977-1.228.47-.818.705-1.985.705-3.5 0-1.008-.108-1.866-.324-2.574-.212-.708-.519-1.248-.92-1.62a2.033 2.033 0 0 0-1.438-.556c-.841 0-1.498.415-1.972 1.244-.473.826-.71 1.995-.71 3.506 0 1.007.106 1.864.318 2.568.212.704.517 1.24.915 1.608.402.367.885.551 1.449.551Z" fill="#344054"/><rect x="10.5" y="32.5" width="587" height="289" rx="3.5" fill="#fff"/><path d="M30.068 64V53.452h-3.564v-1.26h8.64v1.26H31.58V64h-1.512Zm7.058 0V51.184h1.476v3.492l-.054 1.8c.42-.396.858-.732 1.314-1.008a2.994 2.994 0 0 1 1.602-.432c.924 0 1.596.294 2.016.882.432.576.648 1.422.648 2.538V64h-1.476v-5.346c0-.816-.132-1.41-.396-1.782-.264-.372-.684-.558-1.26-.558-.444 0-.846.114-1.206.342-.348.228-.744.564-1.188 1.008V64h-1.476Zm9.791 0v-8.748h1.476V64h-1.476Zm.756-10.548c-.288 0-.528-.084-.72-.252-.18-.18-.27-.42-.27-.72 0-.288.09-.522.27-.702.192-.18.432-.27.72-.27s.522.09.702.27c.192.18.288.414.288.702 0 .3-.096.54-.288.72-.18.168-.414.252-.702.252Zm5.96 10.764a4.71 4.71 0 0 1-1.782-.342 6.289 6.289 0 0 1-1.476-.864l.738-.99c.384.3.78.552 1.188.756.408.192.87.288 1.386.288.576 0 1.008-.132 1.296-.396.288-.276.432-.6.432-.972 0-.3-.102-.552-.306-.756a2.194 2.194 0 0 0-.756-.504c-.3-.144-.612-.276-.936-.396-.408-.156-.81-.33-1.206-.522a2.985 2.985 0 0 1-.972-.774c-.252-.324-.378-.732-.378-1.224 0-.708.264-1.296.792-1.764.54-.48 1.284-.72 2.232-.72.54 0 1.044.096 1.512.288.468.192.87.426 1.206.702l-.72.936a4.702 4.702 0 0 0-.936-.558 2.585 2.585 0 0 0-1.062-.216c-.552 0-.96.126-1.224.378a1.209 1.209 0 0 0-.378.882c0 .276.09.504.27.684.18.168.414.318.702.45.288.12.594.246.918.378.42.156.834.336 1.242.54.408.192.744.456 1.008.792.276.324.414.762.414 1.314 0 .468-.126.9-.378 1.296-.24.396-.6.714-1.08.954-.468.24-1.05.36-1.746.36ZM62.492 64v-8.748h1.476V64h-1.476Zm.756-10.548c-.288 0-.528-.084-.72-.252-.18-.18-.27-.42-.27-.72 0-.288.09-.522.27-.702.192-.18.432-.27.72-.27s.522.09.702.27c.192.18.288.414.288.702 0 .3-.096.54-.288.72-.18.168-.414.252-.702.252Zm5.96 10.764a4.71 4.71 0 0 1-1.783-.342 6.289 6.289 0 0 1-1.476-.864l.738-.99c.384.3.78.552 1.188.756.408.192.87.288 1.386.288.576 0 1.008-.132 1.296-.396.288-.276.432-.6.432-.972 0-.3-.102-.552-.306-.756a2.194 2.194 0 0 0-.756-.504c-.3-.144-.612-.276-.936-.396-.408-.156-.81-.33-1.206-.522a2.985 2.985 0 0 1-.972-.774c-.252-.324-.378-.732-.378-1.224 0-.708.264-1.296.792-1.764.54-.48 1.284-.72 2.232-.72.54 0 1.044.096 1.512.288.468.192.87.426 1.206.702l-.72.936a4.702 4.702 0 0 0-.936-.558 2.585 2.585 0 0 0-1.062-.216c-.552 0-.96.126-1.224.378a1.209 1.209 0 0 0-.378.882c0 .276.09.504.27.684.18.168.414.318.702.45.288.12.594.246.918.378.42.156.834.336 1.242.54.408.192.744.456 1.008.792.276.324.414.762.414 1.314 0 .468-.126.9-.378 1.296-.24.396-.6.714-1.08.954-.468.24-1.05.36-1.746.36Zm11.612 0c-.936 0-1.59-.27-1.962-.81-.36-.54-.54-1.242-.54-2.106v-4.842h-1.296v-1.116l1.368-.09.18-2.448h1.242v2.448h2.358v1.206h-2.358v4.86c0 .54.096.96.288 1.26.204.288.558.432 1.062.432.156 0 .324-.024.504-.072l.486-.162.288 1.116c-.24.084-.504.156-.792.216a3.269 3.269 0 0 1-.828.108Zm6.628 0c-.78 0-1.488-.18-2.124-.54a4.008 4.008 0 0 1-1.512-1.584c-.372-.684-.558-1.5-.558-2.448 0-.96.186-1.782.558-2.466.384-.684.876-1.212 1.476-1.584.6-.372 1.23-.558 1.89-.558 1.116 0 1.974.372 2.574 1.116.612.744.918 1.74.918 2.988a6.1 6.1 0 0 1-.018.468c0 .144-.012.27-.036.378h-5.904c.06.924.348 1.662.864 2.214.528.552 1.212.828 2.052.828.42 0 .804-.06 1.152-.18.36-.132.702-.3 1.026-.504l.522.972c-.372.24-.798.45-1.278.63-.468.18-1.002.27-1.602.27Zm-2.754-5.292h4.68c0-.888-.192-1.56-.576-2.016-.372-.468-.9-.702-1.584-.702-.612 0-1.164.24-1.656.72-.48.468-.768 1.134-.864 1.998ZM91.484 64l2.862-4.572-2.646-4.176h1.602l1.17 1.926.414.72c.144.252.294.498.45.738h.072c.132-.24.264-.486.396-.738s.264-.492.396-.72l1.062-1.926h1.548l-2.646 4.338L99.008 64h-1.602l-1.278-2.034-.468-.792a16.832 16.832 0 0 0-.486-.774h-.072c-.156.252-.306.51-.45.774-.144.252-.288.516-.432.792L93.032 64h-1.548Zm11.572.216c-.936 0-1.59-.27-1.962-.81-.36-.54-.54-1.242-.54-2.106v-4.842h-1.296v-1.116l1.368-.09.18-2.448h1.242v2.448h2.358v1.206h-2.358v4.86c0 .54.096.96.288 1.26.204.288.558.432 1.062.432.156 0 .324-.024.504-.072l.486-.162.288 1.116c-.24.084-.504.156-.792.216a3.269 3.269 0 0 1-.828.108Zm9.686 0c-.936 0-1.59-.27-1.962-.81-.36-.54-.54-1.242-.54-2.106v-4.842h-1.296v-1.116l1.368-.09.18-2.448h1.242v2.448h2.358v1.206h-2.358v4.86c0 .54.096.96.288 1.26.204.288.558.432 1.062.432.156 0 .324-.024.504-.072l.486-.162.288 1.116c-.24.084-.504.156-.792.216a3.269 3.269 0 0 1-.828.108ZM116.07 64V51.184h1.476v3.492l-.054 1.8c.42-.396.858-.732 1.314-1.008a2.994 2.994 0 0 1 1.602-.432c.924 0 1.596.294 2.016.882.432.576.648 1.422.648 2.538V64h-1.476v-5.346c0-.816-.132-1.41-.396-1.782-.264-.372-.684-.558-1.26-.558-.444 0-.846.114-1.206.342-.348.228-.744.564-1.188 1.008V64h-1.476Zm11.807.216c-.732 0-1.344-.216-1.836-.648-.48-.444-.72-1.056-.72-1.836 0-.96.426-1.692 1.278-2.196.864-.516 2.226-.876 4.086-1.08a3.45 3.45 0 0 0-.162-1.062 1.523 1.523 0 0 0-.54-.81c-.252-.216-.618-.324-1.098-.324-.504 0-.978.096-1.422.288-.444.192-.84.408-1.188.648l-.576-1.026a9.08 9.08 0 0 1 1.494-.756 4.969 4.969 0 0 1 1.944-.378c1.068 0 1.842.33 2.322.99.48.648.72 1.518.72 2.61V64h-1.224l-.126-1.044h-.054c-.408.336-.858.63-1.35.882a3.28 3.28 0 0 1-1.548.378Zm.432-1.188c.42 0 .816-.102 1.188-.306a6.67 6.67 0 0 0 1.188-.864v-2.43c-1.452.18-2.472.45-3.06.81-.576.36-.864.822-.864 1.386 0 .492.15.852.45 1.08.3.216.666.324 1.098.324Zm9.13 1.188c-.936 0-1.59-.27-1.962-.81-.36-.54-.54-1.242-.54-2.106v-4.842h-1.296v-1.116l1.368-.09.18-2.448h1.242v2.448h2.358v1.206h-2.358v4.86c0 .54.096.96.288 1.26.204.288.558.432 1.062.432.156 0 .324-.024.504-.072l.486-.162.288 1.116c-.24.084-.504.156-.792.216a3.269 3.269 0 0 1-.828.108Zm6.932-.216V51.184h1.476v3.492l-.054 1.8c.42-.396.858-.732 1.314-1.008a2.994 2.994 0 0 1 1.602-.432c.924 0 1.596.294 2.016.882.432.576.648 1.422.648 2.538V64h-1.476v-5.346c0-.816-.132-1.41-.396-1.782-.264-.372-.684-.558-1.26-.558-.444 0-.846.114-1.206.342-.348.228-.744.564-1.188 1.008V64h-1.476Zm11.807.216c-.732 0-1.344-.216-1.836-.648-.48-.444-.72-1.056-.72-1.836 0-.96.426-1.692 1.278-2.196.864-.516 2.226-.876 4.086-1.08a3.45 3.45 0 0 0-.162-1.062 1.523 1.523 0 0 0-.54-.81c-.252-.216-.618-.324-1.098-.324-.504 0-.978.096-1.422.288-.444.192-.84.408-1.188.648L154 56.17a9.08 9.08 0 0 1 1.494-.756 4.969 4.969 0 0 1 1.944-.378c1.068 0 1.842.33 2.322.99.48.648.72 1.518.72 2.61V64h-1.224l-.126-1.044h-.054c-.408.336-.858.63-1.35.882a3.28 3.28 0 0 1-1.548.378Zm.432-1.188c.42 0 .816-.102 1.188-.306a6.67 6.67 0 0 0 1.188-.864v-2.43c-1.452.18-2.472.45-3.06.81-.576.36-.864.822-.864 1.386 0 .492.15.852.45 1.08.3.216.666.324 1.098.324Zm8.908 1.188a4.71 4.71 0 0 1-1.782-.342 6.289 6.289 0 0 1-1.476-.864l.738-.99c.384.3.78.552 1.188.756.408.192.87.288 1.386.288.576 0 1.008-.132 1.296-.396.288-.276.432-.6.432-.972 0-.3-.102-.552-.306-.756a2.194 2.194 0 0 0-.756-.504c-.3-.144-.612-.276-.936-.396-.408-.156-.81-.33-1.206-.522a2.985 2.985 0 0 1-.972-.774c-.252-.324-.378-.732-.378-1.224 0-.708.264-1.296.792-1.764.54-.48 1.284-.72 2.232-.72.54 0 1.044.096 1.512.288.468.192.87.426 1.206.702l-.72.936a4.702 4.702 0 0 0-.936-.558 2.585 2.585 0 0 0-1.062-.216c-.552 0-.96.126-1.224.378a1.209 1.209 0 0 0-.378.882c0 .276.09.504.27.684.18.168.414.318.702.45.288.12.594.246.918.378.42.156.834.336 1.242.54.408.192.744.456 1.008.792.276.324.414.762.414 1.314 0 .468-.126.9-.378 1.296-.24.396-.6.714-1.08.954-.468.24-1.05.36-1.746.36Zm12.728 0c-.408 0-.834-.096-1.278-.288a5.005 5.005 0 0 1-1.224-.828h-.054l-.126.9h-1.188V51.184h1.476v3.492l-.036 1.584a5.812 5.812 0 0 1 1.296-.864c.48-.24.96-.36 1.44-.36 1.14 0 2.004.402 2.592 1.206.588.804.882 1.884.882 3.24 0 .996-.18 1.848-.54 2.556-.348.708-.81 1.248-1.386 1.62a3.299 3.299 0 0 1-1.854.558Zm-.252-1.242c.72 0 1.314-.306 1.782-.918.48-.624.72-1.476.72-2.556 0-.96-.18-1.734-.54-2.322-.348-.6-.936-.9-1.764-.9-.372 0-.75.102-1.134.306a5.995 5.995 0 0 0-1.206.882v4.59c.384.336.762.576 1.134.72.384.132.72.198 1.008.198Zm9.878 1.242c-.78 0-1.488-.18-2.124-.54a4.008 4.008 0 0 1-1.512-1.584c-.372-.684-.558-1.5-.558-2.448 0-.96.186-1.782.558-2.466.384-.684.876-1.212 1.476-1.584.6-.372 1.23-.558 1.89-.558 1.116 0 1.974.372 2.574 1.116.612.744.918 1.74.918 2.988a6.1 6.1 0 0 1-.018.468c0 .144-.012.27-.036.378h-5.904c.06.924.348 1.662.864 2.214.528.552 1.212.828 2.052.828.42 0 .804-.06 1.152-.18.36-.132.702-.3 1.026-.504l.522.972c-.372.24-.798.45-1.278.63-.468.18-1.002.27-1.602.27Zm-2.754-5.292h4.68c0-.888-.192-1.56-.576-2.016-.372-.468-.9-.702-1.584-.702-.612 0-1.164.24-1.656.72-.48.468-.768 1.134-.864 1.998Zm11.683 5.292c-.78 0-1.488-.18-2.124-.54a4.008 4.008 0 0 1-1.512-1.584c-.372-.684-.558-1.5-.558-2.448 0-.96.186-1.782.558-2.466.384-.684.876-1.212 1.476-1.584.6-.372 1.23-.558 1.89-.558 1.116 0 1.974.372 2.574 1.116.612.744.918 1.74.918 2.988a6.1 6.1 0 0 1-.018.468c0 .144-.012.27-.036.378h-5.904c.06.924.348 1.662.864 2.214.528.552 1.212.828 2.052.828.42 0 .804-.06 1.152-.18.36-.132.702-.3 1.026-.504l.522.972c-.372.24-.798.45-1.278.63-.468.18-1.002.27-1.602.27Zm-2.754-5.292h4.68c0-.888-.192-1.56-.576-2.016-.372-.468-.9-.702-1.584-.702-.612 0-1.164.24-1.656.72-.48.468-.768 1.134-.864 1.998ZM202.185 64v-8.748h1.224l.126 1.26h.054c.42-.42.864-.768 1.332-1.044a2.994 2.994 0 0 1 1.602-.432c.924 0 1.596.294 2.016.882.432.576.648 1.422.648 2.538V64h-1.476v-5.346c0-.816-.132-1.41-.396-1.782-.264-.372-.684-.558-1.26-.558-.444 0-.846.114-1.206.342-.348.228-.744.564-1.188 1.008V64h-1.476Zm13.699 0v-7.542h-1.188v-1.116l1.188-.09v-1.386c0-.888.204-1.59.612-2.106.42-.528 1.068-.792 1.944-.792.276 0 .54.03.792.09.252.048.474.114.666.198l-.324 1.134a2.416 2.416 0 0 0-.99-.216c-.816 0-1.224.564-1.224 1.692v1.386h1.854v1.206h-1.854V64h-1.476Zm5.004 0v-8.748h1.476V64h-1.476Zm.756-10.548c-.288 0-.528-.084-.72-.252-.18-.18-.27-.42-.27-.72 0-.288.09-.522.27-.702.192-.18.432-.27.72-.27s.522.09.702.27c.192.18.288.414.288.702 0 .3-.096.54-.288.72-.18.168-.414.252-.702.252Zm5.24 10.764c-.552 0-.954-.168-1.206-.504-.24-.348-.36-.84-.36-1.476V51.184h1.476v11.16c0 .228.042.396.126.504.084.096.18.144.288.144h.126c.048-.012.114-.024.198-.036l.198 1.116c-.096.048-.21.084-.342.108-.132.024-.3.036-.504.036Zm4.588 0c-.552 0-.954-.168-1.206-.504-.24-.348-.36-.84-.36-1.476V51.184h1.476v11.16c0 .228.042.396.126.504.084.096.18.144.288.144h.126c.048-.012.114-.024.198-.036l.198 1.116c-.096.048-.21.084-.342.108-.132.024-.3.036-.504.036Zm6.568 0c-.78 0-1.488-.18-2.124-.54a4.008 4.008 0 0 1-1.512-1.584c-.372-.684-.558-1.5-.558-2.448 0-.96.186-1.782.558-2.466.384-.684.876-1.212 1.476-1.584.6-.372 1.23-.558 1.89-.558 1.116 0 1.974.372 2.574 1.116.612.744.918 1.74.918 2.988a6.1 6.1 0 0 1-.018.468c0 .144-.012.27-.036.378h-5.904c.06.924.348 1.662.864 2.214.528.552 1.212.828 2.052.828.42 0 .804-.06 1.152-.18.36-.132.702-.3 1.026-.504l.522.972c-.372.24-.798.45-1.278.63-.468.18-1.002.27-1.602.27Zm-2.754-5.292h4.68c0-.888-.192-1.56-.576-2.016-.372-.468-.9-.702-1.584-.702-.612 0-1.164.24-1.656.72-.48.468-.768 1.134-.864 1.998Zm11.125 5.292c-1.092 0-1.968-.396-2.628-1.188-.66-.804-.99-1.932-.99-3.384 0-.948.174-1.764.522-2.448.36-.696.828-1.23 1.404-1.602a3.443 3.443 0 0 1 1.872-.558c.504 0 .942.09 1.314.27.372.18.75.426 1.134.738l-.072-1.494v-3.366h1.494V64h-1.224l-.126-1.026h-.054c-.336.336-.732.63-1.188.882-.456.24-.942.36-1.458.36Zm.324-1.242c.768 0 1.512-.402 2.232-1.206v-4.572c-.372-.336-.732-.57-1.08-.702a2.624 2.624 0 0 0-1.044-.216 2.08 2.08 0 0 0-1.278.432c-.372.276-.672.666-.9 1.17-.228.492-.342 1.074-.342 1.746 0 1.044.21 1.866.63 2.466.42.588 1.014.882 1.782.882ZM257.011 64v-8.748h1.476V64h-1.476Zm.756-10.548c-.288 0-.528-.084-.72-.252-.18-.18-.27-.42-.27-.72 0-.288.09-.522.27-.702.192-.18.432-.27.72-.27s.522.09.702.27c.192.18.288.414.288.702 0 .3-.096.54-.288.72-.18.168-.414.252-.702.252ZM261.441 64v-8.748h1.224l.126 1.26h.054c.42-.42.864-.768 1.332-1.044a2.994 2.994 0 0 1 1.602-.432c.924 0 1.596.294 2.016.882.432.576.648 1.422.648 2.538V64h-1.476v-5.346c0-.816-.132-1.41-.396-1.782-.264-.372-.684-.558-1.26-.558-.444 0-.846.114-1.206.342-.348.228-.744.564-1.188 1.008V64h-1.476Z" fill="#344054"/><rect x="10.5" y="32.5" width="587" height="289" rx="3.5" stroke="#98A2B3"/><path fill="#E8178A" fill-opacity=".24" d="M10 32h16v290H10z"/><path fill="#E8178A" fill-opacity=".24" d="M10 32h588v8H10z"/><path d="M614.5 32v8" stroke="#E8178A"/><rect x="619" y="28.5" width="31" height="18" rx="3" fill="#E8178A"/><path d="M628.303 41.6c-.547 0-1.034-.09-1.46-.267-.424-.18-.756-.425-.998-.735a1.674 1.674 0 0 1-.362-1.055c0-.303.069-.58.206-.834.14-.256.329-.468.568-.636.239-.17.507-.28.803-.327v-.05a1.577 1.577 0 0 1-.945-.564c-.241-.3-.362-.65-.362-1.047 0-.377.11-.712.33-1.005.22-.296.522-.528.906-.697a3.22 3.22 0 0 1 1.314-.255c.49 0 .926.085 1.31.255.386.171.689.404.909.7.22.294.331.628.334 1.002-.003.4-.126.749-.369 1.047a1.59 1.59 0 0 1-.938.565v.05c.291.047.555.156.792.326.239.168.428.38.568.636a1.713 1.713 0 0 1-.149 1.889c-.242.31-.575.555-1.001.735-.424.178-.91.266-1.456.266Zm0-1.13c.243 0 .456-.044.639-.131.182-.09.324-.213.426-.37a.975.975 0 0 0 .156-.546.983.983 0 0 0-.16-.558 1.097 1.097 0 0 0-.433-.384 1.343 1.343 0 0 0-.628-.142c-.235 0-.444.048-.629.142-.185.093-.33.22-.437.384a1.006 1.006 0 0 0-.156.558c0 .206.051.388.153.546.101.157.245.28.429.37.185.087.398.131.64.131Zm0-3.25c.203 0 .384-.04.543-.123a.94.94 0 0 0 .373-.345.951.951 0 0 0 .135-.508.909.909 0 0 0-.505-.834 1.147 1.147 0 0 0-.546-.124c-.206 0-.389.04-.547.124a.917.917 0 0 0-.373.337.924.924 0 0 0-.132.497c0 .192.045.361.135.508a.94.94 0 0 0 .373.345c.159.082.34.124.544.124Zm3.912 6.325v-7.5h1.491v.917h.068c.066-.147.162-.296.288-.448a1.49 1.49 0 0 1 .497-.383c.206-.105.461-.157.767-.157.398 0 .764.105 1.101.313.336.206.605.517.806.934.201.414.302.934.302 1.559 0 .608-.099 1.122-.295 1.541-.194.417-.459.733-.796.948-.333.213-.707.32-1.122.32a1.75 1.75 0 0 1-.749-.146 1.545 1.545 0 0 1-.501-.366c-.13-.149-.229-.3-.298-.45h-.046v2.918h-1.513Zm1.481-4.772c0 .324.045.607.135.848.09.242.22.43.39.565a.984.984 0 0 0 .622.199.977.977 0 0 0 .625-.203c.17-.137.299-.326.387-.568.09-.243.135-.524.135-.841a2.4 2.4 0 0 0-.132-.831 1.229 1.229 0 0 0-.387-.561.98.98 0 0 0-.628-.203.999.999 0 0 0-.625.196 1.22 1.22 0 0 0-.387.554c-.09.239-.135.52-.135.845Zm5.916-2.728 1.001 1.907 1.027-1.907h1.552l-1.581 2.728 1.623 2.727h-1.545l-1.076-1.886-1.058 1.886h-1.562l1.619-2.727-1.562-2.728h1.562Z" fill="#fff"/><path stroke="#E8178A" d="M611 32.5h7m-7 7h7m-608 299h16"/><rect y="343" width="36" height="18" rx="3" fill="#E8178A"/><path d="M9.754 348.727V356H8.216v-5.813h-.043l-1.665 1.044v-1.364l1.8-1.14h1.446Zm4.52 7.372a3.28 3.28 0 0 1-1.084-.188 2.463 2.463 0 0 1-.93-.6c-.275-.277-.493-.644-.654-1.101-.158-.457-.238-1.018-.238-1.683a6.053 6.053 0 0 1 .21-1.637c.14-.483.338-.893.597-1.229.26-.336.571-.592.933-.767a2.738 2.738 0 0 1 1.218-.266c.486 0 .914.095 1.286.284.372.187.67.441.895.763.227.322.364.683.412 1.084h-1.517a1.01 1.01 0 0 0-.372-.597 1.129 1.129 0 0 0-.704-.217c-.473 0-.833.206-1.079.618-.244.412-.368.972-.373 1.68h.05a1.7 1.7 0 0 1 .44-.551c.187-.153.4-.271.636-.351a2.29 2.29 0 0 1 .756-.124 2.162 2.162 0 0 1 1.946 1.136c.194.353.291.756.291 1.211 0 .492-.114.93-.344 1.314a2.393 2.393 0 0 1-.955.902c-.408.215-.881.322-1.42.319Zm-.008-1.207a1.205 1.205 0 0 0 1.076-.632 1.33 1.33 0 0 0 .16-.653c0-.242-.053-.459-.16-.65a1.178 1.178 0 0 0-1.065-.629 1.207 1.207 0 0 0-.888.377 1.328 1.328 0 0 0-.359.905 1.278 1.278 0 0 0 .6 1.108c.188.116.4.174.636.174Zm3.832 3.153v-7.5h1.491v.917h.068c.066-.147.162-.296.287-.448.128-.154.294-.282.498-.383.206-.104.461-.157.767-.157.397 0 .764.105 1.1.313.337.206.605.517.807.934.2.414.301.934.301 1.559 0 .608-.098 1.122-.294 1.541-.194.417-.46.733-.796.948-.334.213-.708.32-1.122.32-.293 0-.543-.049-.75-.146a1.546 1.546 0 0 1-.5-.366 1.844 1.844 0 0 1-.298-.451h-.046v2.919h-1.513Zm1.48-4.772c0 .324.046.607.136.848.09.242.22.43.39.565a.98.98 0 0 0 .622.199.98.98 0 0 0 .625-.202c.17-.138.3-.327.387-.569.09-.243.135-.524.135-.841a2.41 2.41 0 0 0-.132-.831 1.238 1.238 0 0 0-.387-.561.98.98 0 0 0-.628-.203.995.995 0 0 0-.625.196 1.22 1.22 0 0 0-.387.554c-.09.239-.135.52-.135.845Zm5.917-2.728 1.001 1.907 1.027-1.907h1.551l-1.58 2.728L29.117 356h-1.545l-1.076-1.886L25.438 356h-1.563l1.62-2.727-1.563-2.728h1.563Z" fill="#fff"/><path stroke="#E8178A" d="M10.5 342v-7m15 7v-7"/></svg>