<svg width="650" height="361" viewBox="0 0 650 361" fill="none" xmlns="http://www.w3.org/2000/svg">
<path d="M11.0114 22V10.3636H13.4716V19.9716H18.4602V22H11.0114ZM22.5327 22.1648C21.9759 22.1648 21.4796 22.0682 21.044 21.875C20.6084 21.678 20.2637 21.3883 20.0099 21.0057C19.7599 20.6193 19.6349 20.1383 19.6349 19.5625C19.6349 19.0777 19.724 18.6705 19.902 18.3409C20.08 18.0114 20.3224 17.7462 20.6293 17.5455C20.9361 17.3447 21.2846 17.1932 21.6747 17.0909C22.0687 16.9886 22.4815 16.9167 22.9134 16.875C23.4209 16.822 23.83 16.7727 24.1406 16.7273C24.4512 16.678 24.6766 16.6061 24.8168 16.5114C24.9569 16.4167 25.027 16.2765 25.027 16.0909V16.0568C25.027 15.697 24.9134 15.4186 24.6861 15.2216C24.4626 15.0246 24.1444 14.9261 23.7315 14.9261C23.2959 14.9261 22.9493 15.0227 22.6918 15.2159C22.4342 15.4053 22.2637 15.6439 22.1804 15.9318L19.9418 15.75C20.0554 15.2197 20.2789 14.7614 20.6122 14.375C20.9455 13.9848 21.3755 13.6856 21.902 13.4773C22.4323 13.2652 23.0459 13.1591 23.7429 13.1591C24.2277 13.1591 24.6918 13.2159 25.1349 13.3295C25.5819 13.4432 25.9777 13.6193 26.3224 13.858C26.6709 14.0966 26.9455 14.4034 27.1463 14.7784C27.3471 15.1496 27.4474 15.5947 27.4474 16.1136V22H25.152V20.7898H25.0838C24.9437 21.0625 24.7562 21.303 24.5213 21.5114C24.2865 21.7159 24.0043 21.8769 23.6747 21.9943C23.3452 22.108 22.9645 22.1648 22.5327 22.1648ZM23.2259 20.4943C23.5819 20.4943 23.8963 20.4242 24.169 20.2841C24.4418 20.1402 24.6558 19.947 24.8111 19.7045C24.9664 19.4621 25.044 19.1875 25.044 18.8807V17.9545C24.9683 18.0038 24.8641 18.0492 24.7315 18.0909C24.6027 18.1288 24.4569 18.1648 24.294 18.1989C24.1312 18.2292 23.9683 18.2576 23.8054 18.2841C23.6425 18.3068 23.4948 18.3277 23.3622 18.3466C23.0781 18.3883 22.83 18.4545 22.6179 18.5455C22.4058 18.6364 22.241 18.7595 22.1236 18.9148C22.0062 19.0663 21.9474 19.2557 21.9474 19.483C21.9474 19.8125 22.0668 20.0644 22.3054 20.2386C22.5478 20.4091 22.8546 20.4943 23.2259 20.4943ZM29.3707 22V10.3636H31.7912V14.7386H31.8651C31.9711 14.5038 32.1245 14.2652 32.3253 14.0227C32.5298 13.7765 32.795 13.572 33.1207 13.4091C33.4503 13.2424 33.8594 13.1591 34.348 13.1591C34.9844 13.1591 35.5715 13.3258 36.1094 13.6591C36.6473 13.9886 37.0772 14.4867 37.3991 15.1534C37.7211 15.8163 37.8821 16.6477 37.8821 17.6477C37.8821 18.6212 37.7249 19.4432 37.4105 20.1136C37.0999 20.7803 36.6757 21.286 36.1378 21.6307C35.6037 21.9716 35.0052 22.142 34.3423 22.142C33.8726 22.142 33.473 22.0644 33.1435 21.9091C32.8177 21.7538 32.5507 21.5587 32.3423 21.3239C32.134 21.0852 31.9749 20.8447 31.8651 20.6023H31.7571V22H29.3707ZM31.7401 17.6364C31.7401 18.1553 31.812 18.608 31.956 18.9943C32.0999 19.3807 32.3082 19.6818 32.581 19.8977C32.8537 20.1098 33.1851 20.2159 33.5753 20.2159C33.9692 20.2159 34.3026 20.108 34.5753 19.892C34.848 19.6723 35.0545 19.3693 35.1946 18.983C35.3385 18.5928 35.4105 18.1439 35.4105 17.6364C35.4105 17.1326 35.3404 16.6894 35.2003 16.3068C35.0601 15.9242 34.8537 15.625 34.581 15.4091C34.3082 15.1932 33.973 15.0852 33.5753 15.0852C33.1813 15.0852 32.848 15.1894 32.5753 15.3977C32.3063 15.6061 32.0999 15.9015 31.956 16.2841C31.812 16.6667 31.7401 17.1174 31.7401 17.6364ZM43.4744 22.1705C42.5767 22.1705 41.804 21.9886 41.1562 21.625C40.5123 21.2576 40.0161 20.7386 39.6676 20.0682C39.3191 19.3939 39.1449 18.5966 39.1449 17.6761C39.1449 16.7784 39.3191 15.9905 39.6676 15.3125C40.0161 14.6345 40.5066 14.1061 41.1392 13.7273C41.7756 13.3485 42.5218 13.1591 43.3778 13.1591C43.9536 13.1591 44.4896 13.2519 44.9858 13.4375C45.4858 13.6193 45.9214 13.8939 46.2926 14.2614C46.6676 14.6288 46.9593 15.0909 47.1676 15.6477C47.3759 16.2008 47.4801 16.8485 47.4801 17.5909V18.2557H40.1108V16.7557H45.2017C45.2017 16.4072 45.1259 16.0985 44.9744 15.8295C44.8229 15.5606 44.6127 15.3504 44.3438 15.1989C44.0786 15.0436 43.7699 14.9659 43.4176 14.9659C43.0502 14.9659 42.7244 15.0511 42.4403 15.2216C42.16 15.3883 41.9403 15.6136 41.7812 15.8977C41.6222 16.178 41.5407 16.4905 41.5369 16.8352V18.2614C41.5369 18.6932 41.6165 19.0663 41.7756 19.3807C41.9384 19.6951 42.1676 19.9375 42.4631 20.108C42.7585 20.2784 43.1089 20.3636 43.5142 20.3636C43.7831 20.3636 44.0294 20.3258 44.2528 20.25C44.4763 20.1742 44.6676 20.0606 44.8267 19.9091C44.9858 19.7576 45.107 19.572 45.1903 19.3523L47.429 19.5C47.3153 20.0379 47.0824 20.5076 46.7301 20.9091C46.3816 21.3068 45.9309 21.6174 45.3778 21.8409C44.8286 22.0606 44.1941 22.1705 43.4744 22.1705ZM51.4801 10.3636V22H49.0597V10.3636H51.4801Z" fill="#344054"/>
<path d="M557.609 22.1591C556.753 22.1591 556.024 21.9261 555.422 21.4602C554.82 20.9905 554.359 20.3106 554.041 19.4205C553.723 18.5265 553.564 17.447 553.564 16.1818C553.564 14.9242 553.723 13.8504 554.041 12.9602C554.363 12.0663 554.825 11.3845 555.428 10.9148C556.034 10.4413 556.761 10.2045 557.609 10.2045C558.458 10.2045 559.183 10.4413 559.786 10.9148C560.392 11.3845 560.854 12.0663 561.172 12.9602C561.494 13.8504 561.655 14.9242 561.655 16.1818C561.655 17.447 561.496 18.5265 561.178 19.4205C560.859 20.3106 560.399 20.9905 559.797 21.4602C559.195 21.9261 558.465 22.1591 557.609 22.1591ZM557.609 20.9091C558.458 20.9091 559.117 20.5 559.587 19.6818C560.056 18.8636 560.291 17.697 560.291 16.1818C560.291 15.1742 560.183 14.3163 559.967 13.608C559.755 12.8996 559.448 12.3598 559.047 11.9886C558.649 11.6174 558.17 11.4318 557.609 11.4318C556.768 11.4318 556.111 11.8466 555.638 12.6761C555.164 13.5019 554.928 14.6705 554.928 16.1818C554.928 17.1894 555.034 18.0455 555.246 18.75C555.458 19.4545 555.763 19.9905 556.161 20.358C556.562 20.7254 557.045 20.9091 557.609 20.9091ZM567.95 9.81818L564.2 23.75H562.973L566.723 9.81818H567.95ZM569.517 22V20.9773L573.358 16.7727C573.809 16.2803 574.18 15.8523 574.472 15.4886C574.763 15.1212 574.979 14.7765 575.119 14.4545C575.263 14.1288 575.335 13.7879 575.335 13.4318C575.335 13.0227 575.237 12.6686 575.04 12.3693C574.847 12.0701 574.581 11.839 574.244 11.6761C573.907 11.5133 573.528 11.4318 573.108 11.4318C572.661 11.4318 572.271 11.5246 571.938 11.7102C571.608 11.892 571.352 12.1477 571.17 12.4773C570.992 12.8068 570.903 13.1932 570.903 13.6364H569.562C569.562 12.9545 569.72 12.3561 570.034 11.8409C570.348 11.3258 570.777 10.9242 571.318 10.6364C571.864 10.3485 572.475 10.2045 573.153 10.2045C573.835 10.2045 574.439 10.3485 574.966 10.6364C575.492 10.9242 575.905 11.3125 576.205 11.8011C576.504 12.2898 576.653 12.8333 576.653 13.4318C576.653 13.8598 576.576 14.2784 576.42 14.6875C576.269 15.0928 576.004 15.5455 575.625 16.0455C575.25 16.5417 574.729 17.1477 574.062 17.8636L571.449 20.6591V20.75H576.858V22H569.517ZM583 22.1591C582.144 22.1591 581.415 21.9261 580.812 21.4602C580.21 20.9905 579.75 20.3106 579.432 19.4205C579.114 18.5265 578.955 17.447 578.955 16.1818C578.955 14.9242 579.114 13.8504 579.432 12.9602C579.754 12.0663 580.216 11.3845 580.818 10.9148C581.424 10.4413 582.152 10.2045 583 10.2045C583.848 10.2045 584.574 10.4413 585.176 10.9148C585.782 11.3845 586.244 12.0663 586.562 12.9602C586.884 13.8504 587.045 14.9242 587.045 16.1818C587.045 17.447 586.886 18.5265 586.568 19.4205C586.25 20.3106 585.79 20.9905 585.188 21.4602C584.585 21.9261 583.856 22.1591 583 22.1591ZM583 20.9091C583.848 20.9091 584.508 20.5 584.977 19.6818C585.447 18.8636 585.682 17.697 585.682 16.1818C585.682 15.1742 585.574 14.3163 585.358 13.608C585.146 12.8996 584.839 12.3598 584.438 11.9886C584.04 11.6174 583.561 11.4318 583 11.4318C582.159 11.4318 581.502 11.8466 581.028 12.6761C580.555 13.5019 580.318 14.6705 580.318 16.1818C580.318 17.1894 580.424 18.0455 580.636 18.75C580.848 19.4545 581.153 19.9905 581.551 20.358C581.953 20.7254 582.436 20.9091 583 20.9091ZM593 22.1591C592.144 22.1591 591.415 21.9261 590.812 21.4602C590.21 20.9905 589.75 20.3106 589.432 19.4205C589.114 18.5265 588.955 17.447 588.955 16.1818C588.955 14.9242 589.114 13.8504 589.432 12.9602C589.754 12.0663 590.216 11.3845 590.818 10.9148C591.424 10.4413 592.152 10.2045 593 10.2045C593.848 10.2045 594.574 10.4413 595.176 10.9148C595.782 11.3845 596.244 12.0663 596.562 12.9602C596.884 13.8504 597.045 14.9242 597.045 16.1818C597.045 17.447 596.886 18.5265 596.568 19.4205C596.25 20.3106 595.79 20.9905 595.188 21.4602C594.585 21.9261 593.856 22.1591 593 22.1591ZM593 20.9091C593.848 20.9091 594.508 20.5 594.977 19.6818C595.447 18.8636 595.682 17.697 595.682 16.1818C595.682 15.1742 595.574 14.3163 595.358 13.608C595.146 12.8996 594.839 12.3598 594.438 11.9886C594.04 11.6174 593.561 11.4318 593 11.4318C592.159 11.4318 591.502 11.8466 591.028 12.6761C590.555 13.5019 590.318 14.6705 590.318 16.1818C590.318 17.1894 590.424 18.0455 590.636 18.75C590.848 19.4545 591.153 19.9905 591.551 20.358C591.953 20.7254 592.436 20.9091 593 20.9091Z" fill="#344054"/>
<rect x="10.5" y="32.5" width="587" height="289" rx="3.5" fill="white"/>
<path d="M30.068 64V53.452H26.504V52.192H35.144V53.452H31.58V64H30.068ZM37.1264 64V51.184H38.6024V54.676L38.5484 56.476C38.9684 56.08 39.4064 55.744 39.8624 55.468C40.3304 55.18 40.8644 55.036 41.4644 55.036C42.3884 55.036 43.0604 55.33 43.4804 55.918C43.9124 56.494 44.1284 57.34 44.1284 58.456V64H42.6524V58.654C42.6524 57.838 42.5204 57.244 42.2564 56.872C41.9924 56.5 41.5724 56.314 40.9964 56.314C40.5524 56.314 40.1504 56.428 39.7904 56.656C39.4424 56.884 39.0464 57.22 38.6024 57.664V64H37.1264ZM46.9174 64V55.252H48.3934V64H46.9174ZM47.6734 53.452C47.3854 53.452 47.1454 53.368 46.9534 53.2C46.7734 53.02 46.6834 52.78 46.6834 52.48C46.6834 52.192 46.7734 51.958 46.9534 51.778C47.1454 51.598 47.3854 51.508 47.6734 51.508C47.9614 51.508 48.1954 51.598 48.3754 51.778C48.5674 51.958 48.6634 52.192 48.6634 52.48C48.6634 52.78 48.5674 53.02 48.3754 53.2C48.1954 53.368 47.9614 53.452 47.6734 53.452ZM53.6331 64.216C53.0091 64.216 52.4151 64.102 51.8511 63.874C51.2871 63.634 50.7951 63.346 50.3751 63.01L51.1131 62.02C51.4971 62.32 51.8931 62.572 52.3011 62.776C52.7091 62.968 53.1711 63.064 53.6871 63.064C54.2631 63.064 54.6951 62.932 54.9831 62.668C55.2711 62.392 55.4151 62.068 55.4151 61.696C55.4151 61.396 55.3131 61.144 55.1091 60.94C54.9171 60.736 54.6651 60.568 54.3531 60.436C54.0531 60.292 53.7411 60.16 53.4171 60.04C53.0091 59.884 52.6071 59.71 52.2111 59.518C51.8151 59.314 51.4911 59.056 51.2391 58.744C50.9871 58.42 50.8611 58.012 50.8611 57.52C50.8611 56.812 51.1251 56.224 51.6531 55.756C52.1931 55.276 52.9371 55.036 53.8851 55.036C54.4251 55.036 54.9291 55.132 55.3971 55.324C55.8651 55.516 56.2671 55.75 56.6031 56.026L55.8831 56.962C55.5831 56.734 55.2711 56.548 54.9471 56.404C54.6231 56.26 54.2691 56.188 53.8851 56.188C53.3331 56.188 52.9251 56.314 52.6611 56.566C52.4091 56.818 52.2831 57.112 52.2831 57.448C52.2831 57.724 52.3731 57.952 52.5531 58.132C52.7331 58.3 52.9671 58.45 53.2551 58.582C53.5431 58.702 53.8491 58.828 54.1731 58.96C54.5931 59.116 55.0071 59.296 55.4151 59.5C55.8231 59.692 56.1591 59.956 56.4231 60.292C56.6991 60.616 56.8371 61.054 56.8371 61.606C56.8371 62.074 56.7111 62.506 56.4591 62.902C56.2191 63.298 55.8591 63.616 55.3791 63.856C54.9111 64.096 54.3291 64.216 53.6331 64.216ZM62.4916 64V55.252H63.9676V64H62.4916ZM63.2476 53.452C62.9596 53.452 62.7196 53.368 62.5276 53.2C62.3476 53.02 62.2576 52.78 62.2576 52.48C62.2576 52.192 62.3476 51.958 62.5276 51.778C62.7196 51.598 62.9596 51.508 63.2476 51.508C63.5356 51.508 63.7696 51.598 63.9496 51.778C64.1416 51.958 64.2376 52.192 64.2376 52.48C64.2376 52.78 64.1416 53.02 63.9496 53.2C63.7696 53.368 63.5356 53.452 63.2476 53.452ZM69.2073 64.216C68.5833 64.216 67.9893 64.102 67.4253 63.874C66.8613 63.634 66.3693 63.346 65.9493 63.01L66.6873 62.02C67.0713 62.32 67.4673 62.572 67.8753 62.776C68.2833 62.968 68.7453 63.064 69.2613 63.064C69.8373 63.064 70.2693 62.932 70.5573 62.668C70.8453 62.392 70.9893 62.068 70.9893 61.696C70.9893 61.396 70.8873 61.144 70.6833 60.94C70.4913 60.736 70.2393 60.568 69.9273 60.436C69.6273 60.292 69.3153 60.16 68.9913 60.04C68.5833 59.884 68.1813 59.71 67.7853 59.518C67.3893 59.314 67.0653 59.056 66.8133 58.744C66.5613 58.42 66.4353 58.012 66.4353 57.52C66.4353 56.812 66.6993 56.224 67.2273 55.756C67.7673 55.276 68.5113 55.036 69.4593 55.036C69.9993 55.036 70.5033 55.132 70.9713 55.324C71.4393 55.516 71.8413 55.75 72.1773 56.026L71.4573 56.962C71.1573 56.734 70.8453 56.548 70.5213 56.404C70.1973 56.26 69.8433 56.188 69.4593 56.188C68.9073 56.188 68.4993 56.314 68.2353 56.566C67.9833 56.818 67.8573 57.112 67.8573 57.448C67.8573 57.724 67.9473 57.952 68.1273 58.132C68.3073 58.3 68.5413 58.45 68.8293 58.582C69.1173 58.702 69.4233 58.828 69.7473 58.96C70.1673 59.116 70.5813 59.296 70.9893 59.5C71.3973 59.692 71.7333 59.956 71.9973 60.292C72.2733 60.616 72.4113 61.054 72.4113 61.606C72.4113 62.074 72.2853 62.506 72.0333 62.902C71.7933 63.298 71.4333 63.616 70.9533 63.856C70.4853 64.096 69.9033 64.216 69.2073 64.216ZM80.8198 64.216C79.8838 64.216 79.2298 63.946 78.8578 63.406C78.4978 62.866 78.3178 62.164 78.3178 61.3V56.458H77.0218V55.342L78.3898 55.252L78.5698 52.804H79.8118V55.252H82.1698V56.458H79.8118V61.318C79.8118 61.858 79.9078 62.278 80.0998 62.578C80.3038 62.866 80.6578 63.01 81.1618 63.01C81.3178 63.01 81.4858 62.986 81.6658 62.938C81.8458 62.878 82.0078 62.824 82.1518 62.776L82.4398 63.892C82.1998 63.976 81.9358 64.048 81.6478 64.108C81.3718 64.18 81.0958 64.216 80.8198 64.216ZM87.4478 64.216C86.6678 64.216 85.9598 64.036 85.3238 63.676C84.6878 63.304 84.1838 62.776 83.8118 62.092C83.4398 61.408 83.2538 60.592 83.2538 59.644C83.2538 58.684 83.4398 57.862 83.8118 57.178C84.1958 56.494 84.6878 55.966 85.2878 55.594C85.8878 55.222 86.5178 55.036 87.1778 55.036C88.2938 55.036 89.1518 55.408 89.7518 56.152C90.3638 56.896 90.6698 57.892 90.6698 59.14C90.6698 59.296 90.6638 59.452 90.6518 59.608C90.6518 59.752 90.6398 59.878 90.6158 59.986H84.7118C84.7718 60.91 85.0598 61.648 85.5758 62.2C86.1038 62.752 86.7878 63.028 87.6278 63.028C88.0478 63.028 88.4318 62.968 88.7798 62.848C89.1398 62.716 89.4818 62.548 89.8058 62.344L90.3278 63.316C89.9558 63.556 89.5298 63.766 89.0498 63.946C88.5818 64.126 88.0478 64.216 87.4478 64.216ZM84.6938 58.924H89.3738C89.3738 58.036 89.1818 57.364 88.7978 56.908C88.4258 56.44 87.8978 56.206 87.2138 56.206C86.6018 56.206 86.0498 56.446 85.5578 56.926C85.0778 57.394 84.7898 58.06 84.6938 58.924ZM91.4844 64L94.3464 59.428L91.7004 55.252H93.3024L94.4724 57.178C94.6044 57.406 94.7424 57.646 94.8864 57.898C95.0304 58.15 95.1804 58.396 95.3364 58.636H95.4084C95.5404 58.396 95.6724 58.15 95.8044 57.898C95.9364 57.646 96.0684 57.406 96.2004 57.178L97.2624 55.252H98.8104L96.1644 59.59L99.0084 64H97.4064L96.1284 61.966C95.9724 61.702 95.8164 61.438 95.6604 61.174C95.5044 60.91 95.3424 60.652 95.1744 60.4H95.1024C94.9464 60.652 94.7964 60.91 94.6524 61.174C94.5084 61.426 94.3644 61.69 94.2204 61.966L93.0324 64H91.4844ZM103.056 64.216C102.12 64.216 101.466 63.946 101.094 63.406C100.734 62.866 100.554 62.164 100.554 61.3V56.458H99.2582V55.342L100.626 55.252L100.806 52.804H102.048V55.252H104.406V56.458H102.048V61.318C102.048 61.858 102.144 62.278 102.336 62.578C102.54 62.866 102.894 63.01 103.398 63.01C103.554 63.01 103.722 62.986 103.902 62.938C104.082 62.878 104.244 62.824 104.388 62.776L104.676 63.892C104.436 63.976 104.172 64.048 103.884 64.108C103.608 64.18 103.332 64.216 103.056 64.216ZM112.742 64.216C111.806 64.216 111.152 63.946 110.78 63.406C110.42 62.866 110.24 62.164 110.24 61.3V56.458H108.944V55.342L110.312 55.252L110.492 52.804H111.734V55.252H114.092V56.458H111.734V61.318C111.734 61.858 111.83 62.278 112.022 62.578C112.226 62.866 112.58 63.01 113.084 63.01C113.24 63.01 113.408 62.986 113.588 62.938C113.768 62.878 113.93 62.824 114.074 62.776L114.362 63.892C114.122 63.976 113.858 64.048 113.57 64.108C113.294 64.18 113.018 64.216 112.742 64.216ZM116.07 64V51.184H117.546V54.676L117.492 56.476C117.912 56.08 118.35 55.744 118.806 55.468C119.274 55.18 119.808 55.036 120.408 55.036C121.332 55.036 122.004 55.33 122.424 55.918C122.856 56.494 123.072 57.34 123.072 58.456V64H121.596V58.654C121.596 57.838 121.464 57.244 121.2 56.872C120.936 56.5 120.516 56.314 119.94 56.314C119.496 56.314 119.094 56.428 118.734 56.656C118.386 56.884 117.99 57.22 117.546 57.664V64H116.07ZM127.877 64.216C127.145 64.216 126.533 64 126.041 63.568C125.561 63.124 125.321 62.512 125.321 61.732C125.321 60.772 125.747 60.04 126.599 59.536C127.463 59.02 128.825 58.66 130.685 58.456C130.685 58.084 130.631 57.73 130.523 57.394C130.427 57.058 130.247 56.788 129.983 56.584C129.731 56.368 129.365 56.26 128.885 56.26C128.381 56.26 127.907 56.356 127.463 56.548C127.019 56.74 126.623 56.956 126.275 57.196L125.699 56.17C126.107 55.906 126.605 55.654 127.193 55.414C127.793 55.162 128.441 55.036 129.137 55.036C130.205 55.036 130.979 55.366 131.459 56.026C131.939 56.674 132.179 57.544 132.179 58.636V64H130.955L130.829 62.956H130.775C130.367 63.292 129.917 63.586 129.425 63.838C128.945 64.09 128.429 64.216 127.877 64.216ZM128.309 63.028C128.729 63.028 129.125 62.926 129.497 62.722C129.869 62.518 130.265 62.23 130.685 61.858V59.428C129.233 59.608 128.213 59.878 127.625 60.238C127.049 60.598 126.761 61.06 126.761 61.624C126.761 62.116 126.911 62.476 127.211 62.704C127.511 62.92 127.877 63.028 128.309 63.028ZM137.439 64.216C136.503 64.216 135.849 63.946 135.477 63.406C135.117 62.866 134.937 62.164 134.937 61.3V56.458H133.641V55.342L135.009 55.252L135.189 52.804H136.431V55.252H138.789V56.458H136.431V61.318C136.431 61.858 136.527 62.278 136.719 62.578C136.923 62.866 137.277 63.01 137.781 63.01C137.937 63.01 138.105 62.986 138.285 62.938C138.465 62.878 138.627 62.824 138.771 62.776L139.059 63.892C138.819 63.976 138.555 64.048 138.267 64.108C137.991 64.18 137.715 64.216 137.439 64.216ZM144.371 64V51.184H145.847V54.676L145.793 56.476C146.213 56.08 146.651 55.744 147.107 55.468C147.575 55.18 148.109 55.036 148.709 55.036C149.633 55.036 150.305 55.33 150.725 55.918C151.157 56.494 151.373 57.34 151.373 58.456V64H149.897V58.654C149.897 57.838 149.765 57.244 149.501 56.872C149.237 56.5 148.817 56.314 148.241 56.314C147.797 56.314 147.395 56.428 147.035 56.656C146.687 56.884 146.291 57.22 145.847 57.664V64H144.371ZM156.178 64.216C155.446 64.216 154.834 64 154.342 63.568C153.862 63.124 153.622 62.512 153.622 61.732C153.622 60.772 154.048 60.04 154.9 59.536C155.764 59.02 157.126 58.66 158.986 58.456C158.986 58.084 158.932 57.73 158.824 57.394C158.728 57.058 158.548 56.788 158.284 56.584C158.032 56.368 157.666 56.26 157.186 56.26C156.682 56.26 156.208 56.356 155.764 56.548C155.32 56.74 154.924 56.956 154.576 57.196L154 56.17C154.408 55.906 154.906 55.654 155.494 55.414C156.094 55.162 156.742 55.036 157.438 55.036C158.506 55.036 159.28 55.366 159.76 56.026C160.24 56.674 160.48 57.544 160.48 58.636V64H159.256L159.13 62.956H159.076C158.668 63.292 158.218 63.586 157.726 63.838C157.246 64.09 156.73 64.216 156.178 64.216ZM156.61 63.028C157.03 63.028 157.426 62.926 157.798 62.722C158.17 62.518 158.566 62.23 158.986 61.858V59.428C157.534 59.608 156.514 59.878 155.926 60.238C155.35 60.598 155.062 61.06 155.062 61.624C155.062 62.116 155.212 62.476 155.512 62.704C155.812 62.92 156.178 63.028 156.61 63.028ZM165.518 64.216C164.894 64.216 164.3 64.102 163.736 63.874C163.172 63.634 162.68 63.346 162.26 63.01L162.998 62.02C163.382 62.32 163.778 62.572 164.186 62.776C164.594 62.968 165.056 63.064 165.572 63.064C166.148 63.064 166.58 62.932 166.868 62.668C167.156 62.392 167.3 62.068 167.3 61.696C167.3 61.396 167.198 61.144 166.994 60.94C166.802 60.736 166.55 60.568 166.238 60.436C165.938 60.292 165.626 60.16 165.302 60.04C164.894 59.884 164.492 59.71 164.096 59.518C163.7 59.314 163.376 59.056 163.124 58.744C162.872 58.42 162.746 58.012 162.746 57.52C162.746 56.812 163.01 56.224 163.538 55.756C164.078 55.276 164.822 55.036 165.77 55.036C166.31 55.036 166.814 55.132 167.282 55.324C167.75 55.516 168.152 55.75 168.488 56.026L167.768 56.962C167.468 56.734 167.156 56.548 166.832 56.404C166.508 56.26 166.154 56.188 165.77 56.188C165.218 56.188 164.81 56.314 164.546 56.566C164.294 56.818 164.168 57.112 164.168 57.448C164.168 57.724 164.258 57.952 164.438 58.132C164.618 58.3 164.852 58.45 165.14 58.582C165.428 58.702 165.734 58.828 166.058 58.96C166.478 59.116 166.892 59.296 167.3 59.5C167.708 59.692 168.044 59.956 168.308 60.292C168.584 60.616 168.722 61.054 168.722 61.606C168.722 62.074 168.596 62.506 168.344 62.902C168.104 63.298 167.744 63.616 167.264 63.856C166.796 64.096 166.214 64.216 165.518 64.216ZM178.246 64.216C177.838 64.216 177.412 64.12 176.968 63.928C176.536 63.724 176.128 63.448 175.744 63.1H175.69L175.564 64H174.376V51.184H175.852V54.676L175.816 56.26C176.212 55.912 176.644 55.624 177.112 55.396C177.592 55.156 178.072 55.036 178.552 55.036C179.692 55.036 180.556 55.438 181.144 56.242C181.732 57.046 182.026 58.126 182.026 59.482C182.026 60.478 181.846 61.33 181.486 62.038C181.138 62.746 180.676 63.286 180.1 63.658C179.536 64.03 178.918 64.216 178.246 64.216ZM177.994 62.974C178.714 62.974 179.308 62.668 179.776 62.056C180.256 61.432 180.496 60.58 180.496 59.5C180.496 58.54 180.316 57.766 179.956 57.178C179.608 56.578 179.02 56.278 178.192 56.278C177.82 56.278 177.442 56.38 177.058 56.584C176.674 56.788 176.272 57.082 175.852 57.466V62.056C176.236 62.392 176.614 62.632 176.986 62.776C177.37 62.908 177.706 62.974 177.994 62.974ZM187.872 64.216C187.092 64.216 186.384 64.036 185.748 63.676C185.112 63.304 184.608 62.776 184.236 62.092C183.864 61.408 183.678 60.592 183.678 59.644C183.678 58.684 183.864 57.862 184.236 57.178C184.62 56.494 185.112 55.966 185.712 55.594C186.312 55.222 186.942 55.036 187.602 55.036C188.718 55.036 189.576 55.408 190.176 56.152C190.788 56.896 191.094 57.892 191.094 59.14C191.094 59.296 191.088 59.452 191.076 59.608C191.076 59.752 191.064 59.878 191.04 59.986H185.136C185.196 60.91 185.484 61.648 186 62.2C186.528 62.752 187.212 63.028 188.052 63.028C188.472 63.028 188.856 62.968 189.204 62.848C189.564 62.716 189.906 62.548 190.23 62.344L190.752 63.316C190.38 63.556 189.954 63.766 189.474 63.946C189.006 64.126 188.472 64.216 187.872 64.216ZM185.118 58.924H189.798C189.798 58.036 189.606 57.364 189.222 56.908C188.85 56.44 188.322 56.206 187.638 56.206C187.026 56.206 186.474 56.446 185.982 56.926C185.502 57.394 185.214 58.06 185.118 58.924ZM196.801 64.216C196.021 64.216 195.313 64.036 194.677 63.676C194.041 63.304 193.537 62.776 193.165 62.092C192.793 61.408 192.607 60.592 192.607 59.644C192.607 58.684 192.793 57.862 193.165 57.178C193.549 56.494 194.041 55.966 194.641 55.594C195.241 55.222 195.871 55.036 196.531 55.036C197.647 55.036 198.505 55.408 199.105 56.152C199.717 56.896 200.023 57.892 200.023 59.14C200.023 59.296 200.017 59.452 200.005 59.608C200.005 59.752 199.993 59.878 199.969 59.986H194.065C194.125 60.91 194.413 61.648 194.929 62.2C195.457 62.752 196.141 63.028 196.981 63.028C197.401 63.028 197.785 62.968 198.133 62.848C198.493 62.716 198.835 62.548 199.159 62.344L199.681 63.316C199.309 63.556 198.883 63.766 198.403 63.946C197.935 64.126 197.401 64.216 196.801 64.216ZM194.047 58.924H198.727C198.727 58.036 198.535 57.364 198.151 56.908C197.779 56.44 197.251 56.206 196.567 56.206C195.955 56.206 195.403 56.446 194.911 56.926C194.431 57.394 194.143 58.06 194.047 58.924ZM202.185 64V55.252H203.409L203.535 56.512H203.589C204.009 56.092 204.453 55.744 204.921 55.468C205.389 55.18 205.923 55.036 206.523 55.036C207.447 55.036 208.119 55.33 208.539 55.918C208.971 56.494 209.187 57.34 209.187 58.456V64H207.711V58.654C207.711 57.838 207.579 57.244 207.315 56.872C207.051 56.5 206.631 56.314 206.055 56.314C205.611 56.314 205.209 56.428 204.849 56.656C204.501 56.884 204.105 57.22 203.661 57.664V64H202.185ZM215.884 64V56.458H214.696V55.342L215.884 55.252V53.866C215.884 52.978 216.088 52.276 216.496 51.76C216.916 51.232 217.564 50.968 218.44 50.968C218.716 50.968 218.98 50.998 219.232 51.058C219.484 51.106 219.706 51.172 219.898 51.256L219.574 52.39C219.25 52.246 218.92 52.174 218.584 52.174C217.768 52.174 217.36 52.738 217.36 53.866V55.252H219.214V56.458H217.36V64H215.884ZM220.888 64V55.252H222.364V64H220.888ZM221.644 53.452C221.356 53.452 221.116 53.368 220.924 53.2C220.744 53.02 220.654 52.78 220.654 52.48C220.654 52.192 220.744 51.958 220.924 51.778C221.116 51.598 221.356 51.508 221.644 51.508C221.932 51.508 222.166 51.598 222.346 51.778C222.538 51.958 222.634 52.192 222.634 52.48C222.634 52.78 222.538 53.02 222.346 53.2C222.166 53.368 221.932 53.452 221.644 53.452ZM226.884 64.216C226.332 64.216 225.93 64.048 225.678 63.712C225.438 63.364 225.318 62.872 225.318 62.236V51.184H226.794V62.344C226.794 62.572 226.836 62.74 226.92 62.848C227.004 62.944 227.1 62.992 227.208 62.992C227.256 62.992 227.298 62.992 227.334 62.992C227.382 62.98 227.448 62.968 227.532 62.956L227.73 64.072C227.634 64.12 227.52 64.156 227.388 64.18C227.256 64.204 227.088 64.216 226.884 64.216ZM231.472 64.216C230.92 64.216 230.518 64.048 230.266 63.712C230.026 63.364 229.906 62.872 229.906 62.236V51.184H231.382V62.344C231.382 62.572 231.424 62.74 231.508 62.848C231.592 62.944 231.688 62.992 231.796 62.992C231.844 62.992 231.886 62.992 231.922 62.992C231.97 62.98 232.036 62.968 232.12 62.956L232.318 64.072C232.222 64.12 232.108 64.156 231.976 64.18C231.844 64.204 231.676 64.216 231.472 64.216ZM238.04 64.216C237.26 64.216 236.552 64.036 235.916 63.676C235.28 63.304 234.776 62.776 234.404 62.092C234.032 61.408 233.846 60.592 233.846 59.644C233.846 58.684 234.032 57.862 234.404 57.178C234.788 56.494 235.28 55.966 235.88 55.594C236.48 55.222 237.11 55.036 237.77 55.036C238.886 55.036 239.744 55.408 240.344 56.152C240.956 56.896 241.262 57.892 241.262 59.14C241.262 59.296 241.256 59.452 241.244 59.608C241.244 59.752 241.232 59.878 241.208 59.986H235.304C235.364 60.91 235.652 61.648 236.168 62.2C236.696 62.752 237.38 63.028 238.22 63.028C238.64 63.028 239.024 62.968 239.372 62.848C239.732 62.716 240.074 62.548 240.398 62.344L240.92 63.316C240.548 63.556 240.122 63.766 239.642 63.946C239.174 64.126 238.64 64.216 238.04 64.216ZM235.286 58.924H239.966C239.966 58.036 239.774 57.364 239.39 56.908C239.018 56.44 238.49 56.206 237.806 56.206C237.194 56.206 236.642 56.446 236.15 56.926C235.67 57.394 235.382 58.06 235.286 58.924ZM246.411 64.216C245.319 64.216 244.443 63.82 243.783 63.028C243.123 62.224 242.793 61.096 242.793 59.644C242.793 58.696 242.967 57.88 243.315 57.196C243.675 56.5 244.143 55.966 244.719 55.594C245.307 55.222 245.931 55.036 246.591 55.036C247.095 55.036 247.533 55.126 247.905 55.306C248.277 55.486 248.655 55.732 249.039 56.044L248.967 54.55V51.184H250.461V64H249.237L249.111 62.974H249.057C248.721 63.31 248.325 63.604 247.869 63.856C247.413 64.096 246.927 64.216 246.411 64.216ZM246.735 62.974C247.503 62.974 248.247 62.572 248.967 61.768V57.196C248.595 56.86 248.235 56.626 247.887 56.494C247.551 56.35 247.203 56.278 246.843 56.278C246.375 56.278 245.949 56.422 245.565 56.71C245.193 56.986 244.893 57.376 244.665 57.88C244.437 58.372 244.323 58.954 244.323 59.626C244.323 60.67 244.533 61.492 244.953 62.092C245.373 62.68 245.967 62.974 246.735 62.974ZM257.011 64V55.252H258.487V64H257.011ZM257.767 53.452C257.479 53.452 257.239 53.368 257.047 53.2C256.867 53.02 256.777 52.78 256.777 52.48C256.777 52.192 256.867 51.958 257.047 51.778C257.239 51.598 257.479 51.508 257.767 51.508C258.055 51.508 258.289 51.598 258.469 51.778C258.661 51.958 258.757 52.192 258.757 52.48C258.757 52.78 258.661 53.02 258.469 53.2C258.289 53.368 258.055 53.452 257.767 53.452ZM261.441 64V55.252H262.665L262.791 56.512H262.845C263.265 56.092 263.709 55.744 264.177 55.468C264.645 55.18 265.179 55.036 265.779 55.036C266.703 55.036 267.375 55.33 267.795 55.918C268.227 56.494 268.443 57.34 268.443 58.456V64H266.967V58.654C266.967 57.838 266.835 57.244 266.571 56.872C266.307 56.5 265.887 56.314 265.311 56.314C264.867 56.314 264.465 56.428 264.105 56.656C263.757 56.884 263.361 57.22 262.917 57.664V64H261.441Z" fill="#344054"/>
<rect x="10.5" y="32.5" width="587" height="289" rx="3.5" stroke="#98A2B3"/>
<rect x="10" y="32" width="16" height="290" fill="#E8178A" fill-opacity="0.24"/>
<rect x="10" y="32" width="588" height="8" fill="#E8178A" fill-opacity="0.24"/>
<path d="M614.5 32V40" stroke="#E8178A"/>
<rect x="619" y="28.5" width="31" height="18" rx="3" fill="#E8178A"/>
<path d="M628.303 41.5994C627.756 41.5994 627.269 41.5107 626.843 41.3331C626.419 41.1532 626.087 40.9081 625.845 40.598C625.604 40.2879 625.483 39.9363 625.483 39.5433C625.483 39.2403 625.552 38.9621 625.689 38.7088C625.829 38.4531 626.018 38.2412 626.257 38.0732C626.496 37.9027 626.764 37.7938 627.06 37.7464V37.6967C626.671 37.6186 626.357 37.4304 626.115 37.1321C625.874 36.8314 625.753 36.4822 625.753 36.0845C625.753 35.7081 625.863 35.3731 626.083 35.0795C626.303 34.7836 626.605 34.5516 626.989 34.3835C627.375 34.2131 627.812 34.1278 628.303 34.1278C628.793 34.1278 629.229 34.2131 629.613 34.3835C629.999 34.554 630.302 34.7872 630.522 35.0831C630.742 35.3767 630.853 35.7105 630.856 36.0845C630.853 36.4846 630.73 36.8338 630.487 37.1321C630.243 37.4304 629.93 37.6186 629.549 37.6967V37.7464C629.84 37.7938 630.104 37.9027 630.341 38.0732C630.58 38.2412 630.769 38.4531 630.909 38.7088C631.051 38.9621 631.123 39.2403 631.126 39.5433C631.123 39.9363 631.001 40.2879 630.76 40.598C630.518 40.9081 630.185 41.1532 629.759 41.3331C629.335 41.5107 628.849 41.5994 628.303 41.5994ZM628.303 40.4702C628.546 40.4702 628.759 40.4264 628.942 40.3388C629.124 40.2488 629.266 40.1257 629.368 39.9695C629.472 39.8108 629.524 39.6286 629.524 39.4226C629.524 39.2119 629.471 39.026 629.364 38.8651C629.258 38.7017 629.113 38.5739 628.931 38.4815C628.749 38.3868 628.539 38.3395 628.303 38.3395C628.068 38.3395 627.859 38.3868 627.674 38.4815C627.489 38.5739 627.344 38.7017 627.237 38.8651C627.133 39.026 627.081 39.2119 627.081 39.4226C627.081 39.6286 627.132 39.8108 627.234 39.9695C627.335 40.1257 627.479 40.2488 627.663 40.3388C627.848 40.4264 628.061 40.4702 628.303 40.4702ZM628.303 37.2209C628.506 37.2209 628.687 37.1795 628.846 37.0966C629.004 37.0137 629.129 36.8989 629.219 36.7521C629.309 36.6054 629.354 36.4361 629.354 36.2443C629.354 36.0549 629.309 35.8892 629.219 35.7472C629.129 35.6027 629.006 35.4903 628.849 35.4098C628.693 35.3269 628.511 35.2855 628.303 35.2855C628.097 35.2855 627.914 35.3269 627.756 35.4098C627.597 35.4903 627.473 35.6027 627.383 35.7472C627.295 35.8892 627.251 36.0549 627.251 36.2443C627.251 36.4361 627.296 36.6054 627.386 36.7521C627.476 36.8989 627.601 37.0137 627.759 37.0966C627.918 37.1795 628.099 37.2209 628.303 37.2209ZM632.215 43.5455V36.0455H633.706V36.9616H633.774C633.84 36.8149 633.936 36.6657 634.062 36.5142C634.189 36.3603 634.355 36.2325 634.559 36.1307C634.765 36.0265 635.02 35.9744 635.326 35.9744C635.724 35.9744 636.09 36.0786 636.427 36.2869C636.763 36.4929 637.032 36.8042 637.233 37.2209C637.434 37.6352 637.535 38.1548 637.535 38.7798C637.535 39.3883 637.436 39.902 637.24 40.321C637.046 40.7377 636.781 41.0537 636.444 41.2692C636.111 41.4822 635.737 41.5888 635.322 41.5888C635.029 41.5888 634.779 41.5402 634.573 41.4432C634.369 41.3461 634.202 41.2242 634.072 41.0774C633.942 40.9283 633.843 40.7779 633.774 40.6264H633.728V43.5455H632.215ZM633.696 38.7727C633.696 39.0971 633.741 39.38 633.831 39.6214C633.921 39.8629 634.051 40.0511 634.221 40.1861C634.392 40.3187 634.599 40.3849 634.843 40.3849C635.089 40.3849 635.297 40.3175 635.468 40.1825C635.638 40.0452 635.767 39.8558 635.855 39.6143C635.945 39.3705 635.99 39.09 635.99 38.7727C635.99 38.4579 635.946 38.1809 635.858 37.9418C635.771 37.7027 635.642 37.5156 635.471 37.3807C635.301 37.2457 635.091 37.1783 634.843 37.1783C634.597 37.1783 634.388 37.2434 634.218 37.3736C634.05 37.5038 633.921 37.6884 633.831 37.9276C633.741 38.1667 633.696 38.4484 633.696 38.7727ZM639.612 36.0455L640.613 37.9524L641.64 36.0455H643.192L641.611 38.7727L643.234 41.5H641.689L640.613 39.6143L639.555 41.5H637.993L639.612 38.7727L638.05 36.0455H639.612Z" fill="white"/>
<line x1="611" y1="32.5" x2="618" y2="32.5" stroke="#E8178A"/>
<line x1="611" y1="39.5" x2="618" y2="39.5" stroke="#E8178A"/>
<path d="M10 338.5H26" stroke="#E8178A"/>
<rect y="343" width="36" height="18" rx="3" fill="#E8178A"/>
<path d="M9.75355 348.727V356H8.21591V350.187H8.1733L6.50781 351.231V349.867L8.30824 348.727H9.75355ZM14.2733 356.099C13.8992 356.097 13.5382 356.034 13.1902 355.911C12.8445 355.788 12.5344 355.588 12.2598 355.311C11.9851 355.034 11.7673 354.667 11.6064 354.21C11.4477 353.753 11.3684 353.192 11.3684 352.527C11.3708 351.916 11.4406 351.371 11.5779 350.89C11.7176 350.407 11.9165 349.997 12.1745 349.661C12.435 349.325 12.7463 349.069 13.1085 348.894C13.4707 348.717 13.8767 348.628 14.3265 348.628C14.8118 348.628 15.2404 348.723 15.612 348.912C15.9837 349.099 16.282 349.353 16.5069 349.675C16.7342 349.997 16.8715 350.358 16.9189 350.759H15.4025C15.3433 350.505 15.219 350.306 15.0297 350.162C14.8403 350.018 14.6059 349.945 14.3265 349.945C13.853 349.945 13.4932 350.151 13.247 350.563C13.0031 350.975 12.8788 351.535 12.8741 352.243H12.9238C13.0327 352.027 13.1795 351.844 13.3642 351.692C13.5512 351.539 13.7631 351.421 13.9998 351.341C14.2389 351.258 14.4911 351.217 14.7562 351.217C15.1871 351.217 15.5706 351.318 15.9068 351.522C16.243 351.723 16.5081 352 16.7022 352.353C16.8964 352.706 16.9934 353.109 16.9934 353.564C16.9934 354.056 16.8786 354.494 16.649 354.878C16.4217 355.261 16.1033 355.562 15.6937 355.78C15.2865 355.995 14.813 356.102 14.2733 356.099ZM14.2662 354.892C14.5029 354.892 14.7148 354.835 14.9018 354.722C15.0888 354.608 15.2356 354.454 15.3422 354.26C15.4487 354.066 15.502 353.848 15.502 353.607C15.502 353.365 15.4487 353.148 15.3422 352.957C15.238 352.765 15.0936 352.612 14.9089 352.499C14.7243 352.385 14.5136 352.328 14.2768 352.328C14.0993 352.328 13.9347 352.361 13.7832 352.428C13.6341 352.494 13.5027 352.586 13.389 352.705C13.2778 352.823 13.1902 352.96 13.1262 353.116C13.0623 353.27 13.0304 353.435 13.0304 353.61C13.0304 353.844 13.0836 354.059 13.1902 354.253C13.2991 354.447 13.4458 354.602 13.6305 354.718C13.8175 354.834 14.0294 354.892 14.2662 354.892ZM18.0978 358.045V350.545H19.5893V351.462H19.6568C19.7231 351.315 19.819 351.166 19.9444 351.014C20.0723 350.86 20.238 350.732 20.4416 350.631C20.6475 350.527 20.9032 350.474 21.2086 350.474C21.6064 350.474 21.9733 350.579 22.3095 350.787C22.6457 350.993 22.9144 351.304 23.1156 351.721C23.3168 352.135 23.4174 352.655 23.4174 353.28C23.4174 353.888 23.3192 354.402 23.1227 354.821C22.9286 355.238 22.6634 355.554 22.3272 355.769C21.9934 355.982 21.6194 356.089 21.2051 356.089C20.9115 356.089 20.6618 356.04 20.4558 355.943C20.2522 355.846 20.0853 355.724 19.9551 355.577C19.8249 355.428 19.7254 355.278 19.6568 355.126H19.6106V358.045H18.0978ZM19.5787 353.273C19.5787 353.597 19.6236 353.88 19.7136 354.121C19.8036 354.363 19.9338 354.551 20.1042 354.686C20.2747 354.819 20.4818 354.885 20.7257 354.885C20.9719 354.885 21.1802 354.817 21.3507 354.683C21.5211 354.545 21.6502 354.356 21.7377 354.114C21.8277 353.871 21.8727 353.59 21.8727 353.273C21.8727 352.958 21.8289 352.681 21.7413 352.442C21.6537 352.203 21.5247 352.016 21.3542 351.881C21.1838 351.746 20.9743 351.678 20.7257 351.678C20.4795 351.678 20.2711 351.743 20.1007 351.874C19.9326 352.004 19.8036 352.188 19.7136 352.428C19.6236 352.667 19.5787 352.948 19.5787 353.273ZM25.4949 350.545L26.4963 352.452L27.5225 350.545H29.0744L27.4941 353.273L29.117 356H27.5723L26.4963 354.114L25.438 356H23.8755L25.4949 353.273L23.9324 350.545H25.4949Z" fill="white"/>
<line x1="10.5" y1="342" x2="10.5" y2="335" stroke="#E8178A"/>
<line x1="25.5" y1="342" x2="25.5" y2="335" stroke="#E8178A"/>
</svg>
