<svg width="741" height="135" viewBox="0 0 741 135" fill="none" xmlns="http://www.w3.org/2000/svg">
<rect width="741" height="96" fill="white"/>
<path d="M33.1364 40.7841V36.7273H52.25V40.7841H45.125V60H40.2614V40.7841H33.1364ZM55.3068 60V42.5455H60.1477V60H55.3068ZM57.7386 40.2955C57.0189 40.2955 56.4015 40.0568 55.8864 39.5795C55.3788 39.0947 55.125 38.5152 55.125 37.8409C55.125 37.1742 55.3788 36.6023 55.8864 36.125C56.4015 35.6402 57.0189 35.3977 57.7386 35.3977C58.4583 35.3977 59.072 35.6402 59.5795 36.125C60.0947 36.6023 60.3523 37.1742 60.3523 37.8409C60.3523 38.5152 60.0947 39.0947 59.5795 39.5795C59.072 40.0568 58.4583 40.2955 57.7386 40.2955ZM73.3097 42.5455V46.1818H62.7983V42.5455H73.3097ZM65.1847 38.3636H70.0256V54.6364C70.0256 55.0833 70.0938 55.4318 70.2301 55.6818C70.3665 55.9242 70.5559 56.0947 70.7983 56.1932C71.0483 56.2917 71.3362 56.3409 71.6619 56.3409C71.8892 56.3409 72.1165 56.322 72.3438 56.2841C72.571 56.2386 72.7453 56.2045 72.8665 56.1818L73.6278 59.7841C73.3854 59.8598 73.0445 59.947 72.6051 60.0455C72.1657 60.1515 71.6316 60.2159 71.0028 60.2386C69.8362 60.2841 68.8134 60.1288 67.9347 59.7727C67.0634 59.4167 66.3854 58.8636 65.9006 58.1136C65.4157 57.3636 65.1771 56.4167 65.1847 55.2727V38.3636ZM81.679 36.7273V60H76.8381V36.7273H81.679ZM93.5114 60.3409C91.7159 60.3409 90.1705 59.9773 88.875 59.25C87.5871 58.5152 86.5947 57.4773 85.8977 56.1364C85.2008 54.7879 84.8523 53.1932 84.8523 51.3523C84.8523 49.5568 85.2008 47.9811 85.8977 46.625C86.5947 45.2689 87.5758 44.2121 88.8409 43.4545C90.1136 42.697 91.6061 42.3182 93.3182 42.3182C94.4697 42.3182 95.5417 42.5038 96.5341 42.875C97.5341 43.2386 98.4053 43.7879 99.1477 44.5227C99.8977 45.2576 100.481 46.1818 100.898 47.2955C101.314 48.4015 101.523 49.697 101.523 51.1818V52.5114H86.7841V49.5114H96.9659C96.9659 48.8144 96.8144 48.197 96.5114 47.6591C96.2083 47.1212 95.7879 46.7008 95.25 46.3977C94.7197 46.0871 94.1023 45.9318 93.3977 45.9318C92.6629 45.9318 92.0114 46.1023 91.4432 46.4432C90.8826 46.7765 90.4432 47.2273 90.125 47.7955C89.8068 48.3561 89.6439 48.9811 89.6364 49.6705V52.5227C89.6364 53.3864 89.7955 54.1326 90.1136 54.7614C90.4394 55.3902 90.8977 55.875 91.4886 56.2159C92.0795 56.5568 92.7803 56.7273 93.5909 56.7273C94.1288 56.7273 94.6212 56.6515 95.0682 56.5C95.5152 56.3485 95.8977 56.1212 96.2159 55.8182C96.5341 55.5152 96.7765 55.1439 96.9432 54.7045L101.42 55C101.193 56.0758 100.727 57.0152 100.023 57.8182C99.3258 58.6136 98.4242 59.2348 97.3182 59.6818C96.2197 60.1212 94.9508 60.3409 93.5114 60.3409Z" fill="#344054"/>
<path d="M432.093 54.1818C431.275 54.1818 430.57 53.9886 429.979 53.6023C429.388 53.2159 428.934 52.6837 428.616 52.0057C428.298 51.3277 428.138 50.553 428.138 49.6818C428.138 48.7955 428.301 48.0133 428.627 47.3352C428.957 46.6534 429.415 46.1212 430.002 45.7386C430.593 45.3523 431.282 45.1591 432.07 45.1591C432.684 45.1591 433.237 45.2727 433.729 45.5C434.222 45.7273 434.625 46.0455 434.94 46.4545C435.254 46.8636 435.449 47.3409 435.525 47.8864H434.184C434.082 47.4886 433.854 47.1364 433.502 46.8295C433.154 46.5189 432.684 46.3636 432.093 46.3636C431.57 46.3636 431.112 46.5 430.718 46.7727C430.328 47.0417 430.023 47.4223 429.803 47.9148C429.587 48.4034 429.479 48.9773 429.479 49.6364C429.479 50.3106 429.585 50.8977 429.798 51.3977C430.013 51.8977 430.317 52.286 430.707 52.5625C431.101 52.839 431.563 52.9773 432.093 52.9773C432.442 52.9773 432.758 52.9167 433.042 52.7955C433.326 52.6742 433.567 52.5 433.763 52.2727C433.96 52.0455 434.101 51.7727 434.184 51.4545H435.525C435.449 51.9697 435.262 52.4337 434.962 52.8466C434.667 53.2557 434.275 53.5814 433.786 53.8239C433.301 54.0625 432.737 54.1818 432.093 54.1818ZM440.053 54.2045C439.5 54.2045 438.998 54.1004 438.548 53.892C438.097 53.6799 437.739 53.375 437.474 52.9773C437.209 52.5758 437.076 52.0909 437.076 51.5227C437.076 51.0227 437.174 50.6174 437.371 50.3068C437.568 49.9924 437.832 49.7462 438.161 49.5682C438.491 49.3902 438.854 49.2576 439.252 49.1705C439.654 49.0795 440.057 49.0076 440.462 48.9545C440.993 48.8864 441.423 48.8352 441.752 48.8011C442.085 48.7633 442.328 48.7008 442.479 48.6136C442.635 48.5265 442.712 48.375 442.712 48.1591V48.1136C442.712 47.553 442.559 47.1174 442.252 46.8068C441.949 46.4962 441.489 46.3409 440.871 46.3409C440.231 46.3409 439.729 46.4811 439.366 46.7614C439.002 47.0417 438.746 47.3409 438.599 47.6591L437.326 47.2045C437.553 46.6742 437.856 46.2614 438.235 45.9659C438.618 45.6667 439.034 45.4583 439.485 45.3409C439.94 45.2197 440.387 45.1591 440.826 45.1591C441.106 45.1591 441.428 45.1932 441.792 45.2614C442.159 45.3258 442.513 45.4602 442.854 45.6648C443.199 45.8693 443.485 46.178 443.712 46.5909C443.94 47.0038 444.053 47.5568 444.053 48.25V54H442.712V52.8182H442.644C442.553 53.0076 442.402 53.2102 442.19 53.4261C441.978 53.642 441.695 53.8258 441.343 53.9773C440.991 54.1288 440.561 54.2045 440.053 54.2045ZM440.258 53C440.788 53 441.235 52.8958 441.599 52.6875C441.966 52.4792 442.243 52.2102 442.428 51.8807C442.618 51.5511 442.712 51.2045 442.712 50.8409V49.6136C442.656 49.6818 442.531 49.7443 442.337 49.8011C442.148 49.8542 441.928 49.9015 441.678 49.9432C441.432 49.9811 441.192 50.0152 440.957 50.0455C440.726 50.072 440.538 50.0947 440.394 50.1136C440.046 50.1591 439.72 50.233 439.417 50.3352C439.118 50.4337 438.875 50.5833 438.69 50.7841C438.508 50.9811 438.417 51.25 438.417 51.5909C438.417 52.0568 438.589 52.4091 438.934 52.6477C439.282 52.8826 439.724 53 440.258 53ZM447.842 48.75V54H446.501V45.2727H447.796V46.6364H447.91C448.114 46.1932 448.425 45.8371 448.842 45.5682C449.258 45.2955 449.796 45.1591 450.455 45.1591C451.046 45.1591 451.563 45.2803 452.006 45.5227C452.45 45.7614 452.794 46.125 453.04 46.6136C453.287 47.0985 453.41 47.7121 453.41 48.4545V54H452.069V48.5455C452.069 47.8598 451.891 47.3258 451.535 46.9432C451.179 46.5568 450.69 46.3636 450.069 46.3636C449.641 46.3636 449.258 46.4564 448.921 46.642C448.588 46.8277 448.325 47.0985 448.131 47.4545C447.938 47.8106 447.842 48.2424 447.842 48.75ZM459.406 54.1818C458.587 54.1818 457.883 53.9886 457.292 53.6023C456.701 53.2159 456.246 52.6837 455.928 52.0057C455.61 51.3277 455.451 50.553 455.451 49.6818C455.451 48.7955 455.614 48.0133 455.94 47.3352C456.269 46.6534 456.728 46.1212 457.315 45.7386C457.906 45.3523 458.595 45.1591 459.383 45.1591C459.996 45.1591 460.549 45.2727 461.042 45.5C461.534 45.7273 461.938 46.0455 462.252 46.4545C462.567 46.8636 462.762 47.3409 462.837 47.8864H461.496C461.394 47.4886 461.167 47.1364 460.815 46.8295C460.466 46.5189 459.996 46.3636 459.406 46.3636C458.883 46.3636 458.424 46.5 458.031 46.7727C457.64 47.0417 457.335 47.4223 457.116 47.9148C456.9 48.4034 456.792 48.9773 456.792 49.6364C456.792 50.3106 456.898 50.8977 457.11 51.3977C457.326 51.8977 457.629 52.286 458.019 52.5625C458.413 52.839 458.875 52.9773 459.406 52.9773C459.754 52.9773 460.07 52.9167 460.354 52.7955C460.638 52.6742 460.879 52.5 461.076 52.2727C461.273 52.0455 461.413 51.7727 461.496 51.4545H462.837C462.762 51.9697 462.574 52.4337 462.275 52.8466C461.979 53.2557 461.587 53.5814 461.099 53.8239C460.614 54.0625 460.049 54.1818 459.406 54.1818ZM468.457 54.1818C467.616 54.1818 466.89 53.9962 466.281 53.625C465.674 53.25 465.207 52.7273 464.877 52.0568C464.551 51.3826 464.388 50.5985 464.388 49.7045C464.388 48.8106 464.551 48.0227 464.877 47.3409C465.207 46.6553 465.665 46.1212 466.252 45.7386C466.843 45.3523 467.532 45.1591 468.32 45.1591C468.775 45.1591 469.224 45.2348 469.667 45.3864C470.11 45.5379 470.513 45.7841 470.877 46.125C471.241 46.4621 471.531 46.9091 471.746 47.4659C471.962 48.0227 472.07 48.7083 472.07 49.5227V50.0909H465.343V48.9318H470.707C470.707 48.4394 470.608 48 470.411 47.6136C470.218 47.2273 469.942 46.9223 469.582 46.6989C469.226 46.4754 468.805 46.3636 468.32 46.3636C467.786 46.3636 467.324 46.4962 466.934 46.7614C466.548 47.0227 466.25 47.3636 466.042 47.7841C465.834 48.2045 465.729 48.6553 465.729 49.1364V49.9091C465.729 50.5682 465.843 51.1269 466.07 51.5852C466.301 52.0398 466.621 52.3864 467.031 52.625C467.44 52.8598 467.915 52.9773 468.457 52.9773C468.809 52.9773 469.127 52.928 469.411 52.8295C469.699 52.7273 469.947 52.5758 470.156 52.375C470.364 52.1705 470.525 51.9167 470.638 51.6136L471.934 51.9773C471.798 52.4167 471.568 52.803 471.246 53.1364C470.924 53.4659 470.527 53.7235 470.053 53.9091C469.58 54.0909 469.048 54.1818 468.457 54.1818ZM475.451 42.3636V54H474.11V42.3636H475.451Z" fill="#0F71BB"/>
<path d="M427.32 57.1818H476.678V58.2727H427.32V57.1818Z" fill="#0F71BB"/>
<rect x="493.5" y="24.5" width="131" height="47" rx="4.5" fill="white"/>
<rect x="493.5" y="24.5" width="131" height="47" rx="4.5" stroke="#344054"/>
<path d="M516.937 45.2727C516.869 44.697 516.592 44.25 516.107 43.9318C515.622 43.6136 515.028 43.4545 514.323 43.4545C513.808 43.4545 513.357 43.5379 512.971 43.7045C512.588 43.8712 512.289 44.1004 512.073 44.392C511.861 44.6837 511.755 45.0152 511.755 45.3864C511.755 45.697 511.829 45.964 511.977 46.1875C512.128 46.4072 512.321 46.5909 512.556 46.7386C512.791 46.8826 513.037 47.0019 513.295 47.0966C513.552 47.1875 513.789 47.2614 514.005 47.3182L515.187 47.6364C515.49 47.7159 515.827 47.8258 516.198 47.9659C516.573 48.1061 516.931 48.2973 517.272 48.5398C517.617 48.7784 517.901 49.0852 518.124 49.4602C518.348 49.8352 518.46 50.2955 518.46 50.8409C518.46 51.4697 518.295 52.0379 517.965 52.5455C517.639 53.053 517.162 53.4564 516.533 53.7557C515.908 54.0549 515.149 54.2045 514.255 54.2045C513.422 54.2045 512.7 54.0701 512.09 53.8011C511.484 53.5322 511.007 53.1572 510.658 52.6761C510.314 52.1951 510.119 51.6364 510.073 51H511.528C511.566 51.4394 511.713 51.803 511.971 52.0909C512.232 52.375 512.562 52.5871 512.96 52.7273C513.361 52.8636 513.793 52.9318 514.255 52.9318C514.793 52.9318 515.276 52.8447 515.704 52.6705C516.132 52.4924 516.471 52.2462 516.721 51.9318C516.971 51.6136 517.096 51.2424 517.096 50.8182C517.096 50.4318 516.988 50.1174 516.772 49.875C516.556 49.6326 516.272 49.4356 515.92 49.2841C515.567 49.1326 515.187 49 514.778 48.8864L513.346 48.4773C512.437 48.2159 511.717 47.8428 511.187 47.358C510.656 46.8731 510.391 46.2386 510.391 45.4545C510.391 44.803 510.567 44.2348 510.92 43.75C511.276 43.2614 511.753 42.8826 512.352 42.6136C512.954 42.3409 513.626 42.2045 514.369 42.2045C515.119 42.2045 515.785 42.339 516.369 42.608C516.952 42.8731 517.414 43.2367 517.755 43.6989C518.1 44.161 518.281 44.6856 518.3 45.2727H516.937ZM523.163 54.2045C522.61 54.2045 522.108 54.1004 521.657 53.892C521.206 53.6799 520.848 53.375 520.583 52.9773C520.318 52.5758 520.185 52.0909 520.185 51.5227C520.185 51.0227 520.284 50.6174 520.481 50.3068C520.678 49.9924 520.941 49.7462 521.271 49.5682C521.6 49.3902 521.964 49.2576 522.362 49.1705C522.763 49.0795 523.166 49.0076 523.572 48.9545C524.102 48.8864 524.532 48.8352 524.862 48.8011C525.195 48.7633 525.437 48.7008 525.589 48.6136C525.744 48.5265 525.822 48.375 525.822 48.1591V48.1136C525.822 47.553 525.668 47.1174 525.362 46.8068C525.058 46.4962 524.598 46.3409 523.981 46.3409C523.341 46.3409 522.839 46.4811 522.475 46.7614C522.112 47.0417 521.856 47.3409 521.708 47.6591L520.435 47.2045C520.663 46.6742 520.966 46.2614 521.344 45.9659C521.727 45.6667 522.144 45.4583 522.594 45.3409C523.049 45.2197 523.496 45.1591 523.935 45.1591C524.216 45.1591 524.538 45.1932 524.901 45.2614C525.269 45.3258 525.623 45.4602 525.964 45.6648C526.308 45.8693 526.594 46.178 526.822 46.5909C527.049 47.0038 527.163 47.5568 527.163 48.25V54H525.822V52.8182H525.754C525.663 53.0076 525.511 53.2102 525.299 53.4261C525.087 53.642 524.805 53.8258 524.452 53.9773C524.1 54.1288 523.67 54.2045 523.163 54.2045ZM523.367 53C523.897 53 524.344 52.8958 524.708 52.6875C525.076 52.4792 525.352 52.2102 525.538 51.8807C525.727 51.5511 525.822 51.2045 525.822 50.8409V49.6136C525.765 49.6818 525.64 49.7443 525.447 49.8011C525.257 49.8542 525.038 49.9015 524.788 49.9432C524.541 49.9811 524.301 50.0152 524.066 50.0455C523.835 50.072 523.647 50.0947 523.504 50.1136C523.155 50.1591 522.829 50.233 522.526 50.3352C522.227 50.4337 521.985 50.5833 521.799 50.7841C521.617 50.9811 521.526 51.25 521.526 51.5909C521.526 52.0568 521.699 52.4091 522.043 52.6477C522.392 52.8826 522.833 53 523.367 53ZM536.434 45.2727L533.207 54H531.843L528.616 45.2727H530.07L532.479 52.2273H532.57L534.979 45.2727H536.434ZM541.55 54.1818C540.71 54.1818 539.984 53.9962 539.374 53.625C538.768 53.25 538.3 52.7273 537.971 52.0568C537.645 51.3826 537.482 50.5985 537.482 49.7045C537.482 48.8106 537.645 48.0227 537.971 47.3409C538.3 46.6553 538.759 46.1212 539.346 45.7386C539.937 45.3523 540.626 45.1591 541.414 45.1591C541.869 45.1591 542.317 45.2348 542.761 45.3864C543.204 45.5379 543.607 45.7841 543.971 46.125C544.335 46.4621 544.624 46.9091 544.84 47.4659C545.056 48.0227 545.164 48.7083 545.164 49.5227V50.0909H538.437V48.9318H543.8C543.8 48.4394 543.702 48 543.505 47.6136C543.312 47.2273 543.035 46.9223 542.675 46.6989C542.319 46.4754 541.899 46.3636 541.414 46.3636C540.88 46.3636 540.418 46.4962 540.028 46.7614C539.641 47.0227 539.344 47.3636 539.136 47.7841C538.927 48.2045 538.823 48.6553 538.823 49.1364V49.9091C538.823 50.5682 538.937 51.1269 539.164 51.5852C539.395 52.0398 539.715 52.3864 540.124 52.625C540.533 52.8598 541.009 52.9773 541.55 52.9773C541.903 52.9773 542.221 52.928 542.505 52.8295C542.793 52.7273 543.041 52.5758 543.249 52.375C543.458 52.1705 543.619 51.9167 543.732 51.6136L545.028 51.9773C544.891 52.4167 544.662 52.803 544.34 53.1364C544.018 53.4659 543.621 53.7235 543.147 53.9091C542.674 54.0909 542.141 54.1818 541.55 54.1818ZM554.272 54.2045C553.719 54.2045 553.217 54.1004 552.766 53.892C552.316 53.6799 551.958 53.375 551.692 52.9773C551.427 52.5758 551.295 52.0909 551.295 51.5227C551.295 51.0227 551.393 50.6174 551.59 50.3068C551.787 49.9924 552.05 49.7462 552.38 49.5682C552.71 49.3902 553.073 49.2576 553.471 49.1705C553.872 49.0795 554.276 49.0076 554.681 48.9545C555.211 48.8864 555.641 48.8352 555.971 48.8011C556.304 48.7633 556.547 48.7008 556.698 48.6136C556.853 48.5265 556.931 48.375 556.931 48.1591V48.1136C556.931 47.553 556.778 47.1174 556.471 46.8068C556.168 46.4962 555.708 46.3409 555.09 46.3409C554.45 46.3409 553.948 46.4811 553.585 46.7614C553.221 47.0417 552.965 47.3409 552.817 47.6591L551.545 47.2045C551.772 46.6742 552.075 46.2614 552.454 45.9659C552.836 45.6667 553.253 45.4583 553.704 45.3409C554.158 45.2197 554.605 45.1591 555.045 45.1591C555.325 45.1591 555.647 45.1932 556.011 45.2614C556.378 45.3258 556.732 45.4602 557.073 45.6648C557.418 45.8693 557.704 46.178 557.931 46.5909C558.158 47.0038 558.272 47.5568 558.272 48.25V54H556.931V52.8182H556.863C556.772 53.0076 556.621 53.2102 556.408 53.4261C556.196 53.642 555.914 53.8258 555.562 53.9773C555.21 54.1288 554.78 54.2045 554.272 54.2045ZM554.477 53C555.007 53 555.454 52.8958 555.817 52.6875C556.185 52.4792 556.461 52.2102 556.647 51.8807C556.836 51.5511 556.931 51.2045 556.931 50.8409V49.6136C556.874 49.6818 556.749 49.7443 556.556 49.8011C556.367 49.8542 556.147 49.9015 555.897 49.9432C555.651 49.9811 555.41 50.0152 555.175 50.0455C554.944 50.072 554.757 50.0947 554.613 50.1136C554.264 50.1591 553.939 50.233 553.636 50.3352C553.336 50.4337 553.094 50.5833 552.908 50.7841C552.727 50.9811 552.636 51.25 552.636 51.5909C552.636 52.0568 552.808 52.4091 553.153 52.6477C553.501 52.8826 553.942 53 554.477 53ZM566.901 47.2273L565.697 47.5682C565.621 47.3674 565.509 47.1723 565.362 46.983C565.218 46.7898 565.021 46.6307 564.771 46.5057C564.521 46.3807 564.201 46.3182 563.81 46.3182C563.276 46.3182 562.831 46.4413 562.475 46.6875C562.123 46.9299 561.947 47.2386 561.947 47.6136C561.947 47.947 562.068 48.2102 562.31 48.4034C562.553 48.5966 562.932 48.7576 563.447 48.8864L564.742 49.2045C565.522 49.3939 566.104 49.6837 566.487 50.0739C566.869 50.4602 567.06 50.9583 567.06 51.5682C567.06 52.0682 566.916 52.5152 566.629 52.9091C566.344 53.303 565.947 53.6136 565.435 53.8409C564.924 54.0682 564.329 54.1818 563.651 54.1818C562.761 54.1818 562.024 53.9886 561.441 53.6023C560.858 53.2159 560.488 52.6515 560.333 51.9091L561.606 51.5909C561.727 52.0606 561.956 52.4129 562.293 52.6477C562.634 52.8826 563.079 53 563.629 53C564.254 53 564.75 52.8674 565.117 52.6023C565.488 52.3333 565.674 52.0114 565.674 51.6364C565.674 51.3333 565.568 51.0795 565.356 50.875C565.144 50.6667 564.818 50.5114 564.379 50.4091L562.924 50.0682C562.125 49.8788 561.538 49.5852 561.163 49.1875C560.791 48.786 560.606 48.2841 560.606 47.6818C560.606 47.1894 560.744 46.7538 561.021 46.375C561.301 45.9962 561.682 45.6989 562.163 45.483C562.647 45.267 563.197 45.1591 563.81 45.1591C564.674 45.1591 565.352 45.3485 565.844 45.7273C566.341 46.1061 566.693 46.6061 566.901 47.2273ZM576.874 54.1818C576.147 54.1818 575.505 53.9981 574.948 53.6307C574.391 53.2595 573.956 52.7367 573.641 52.0625C573.327 51.3845 573.17 50.5833 573.17 49.6591C573.17 48.7424 573.327 47.947 573.641 47.2727C573.956 46.5985 574.393 46.0777 574.954 45.7102C575.514 45.3428 576.162 45.1591 576.897 45.1591C577.465 45.1591 577.914 45.2538 578.244 45.4432C578.577 45.6288 578.831 45.8409 579.005 46.0795C579.183 46.3144 579.321 46.5076 579.42 46.6591H579.533V42.3636H580.874V54H579.579V52.6591H579.42C579.321 52.8182 579.181 53.0189 578.999 53.2614C578.817 53.5 578.558 53.714 578.221 53.9034C577.884 54.089 577.435 54.1818 576.874 54.1818ZM577.056 52.9773C577.594 52.9773 578.049 52.8371 578.42 52.5568C578.791 52.2727 579.073 51.8807 579.266 51.3807C579.46 50.8769 579.556 50.2955 579.556 49.6364C579.556 48.9848 579.461 48.4148 579.272 47.9261C579.083 47.4337 578.802 47.0511 578.431 46.7784C578.06 46.5019 577.602 46.3636 577.056 46.3636C576.488 46.3636 576.014 46.5095 575.636 46.8011C575.261 47.089 574.978 47.4811 574.789 47.9773C574.603 48.4697 574.511 49.0227 574.511 49.6364C574.511 50.2576 574.605 50.822 574.795 51.3295C574.988 51.8333 575.272 52.2348 575.647 52.5341C576.026 52.8295 576.496 52.9773 577.056 52.9773ZM583.516 54V45.2727H584.812V46.5909H584.903C585.062 46.1591 585.35 45.8087 585.766 45.5398C586.183 45.2708 586.653 45.1364 587.175 45.1364C587.274 45.1364 587.397 45.1383 587.545 45.142C587.692 45.1458 587.804 45.1515 587.88 45.1591V46.5227C587.835 46.5114 587.73 46.4943 587.567 46.4716C587.408 46.4451 587.24 46.4318 587.062 46.4318C586.638 46.4318 586.259 46.5208 585.925 46.6989C585.596 46.8731 585.335 47.1155 585.141 47.4261C584.952 47.733 584.857 48.0833 584.857 48.4773V54H583.516ZM592.038 54.2045C591.485 54.2045 590.983 54.1004 590.532 53.892C590.081 53.6799 589.723 53.375 589.458 52.9773C589.193 52.5758 589.06 52.0909 589.06 51.5227C589.06 51.0227 589.159 50.6174 589.356 50.3068C589.553 49.9924 589.816 49.7462 590.146 49.5682C590.475 49.3902 590.839 49.2576 591.237 49.1705C591.638 49.0795 592.041 49.0076 592.447 48.9545C592.977 48.8864 593.407 48.8352 593.737 48.8011C594.07 48.7633 594.312 48.7008 594.464 48.6136C594.619 48.5265 594.697 48.375 594.697 48.1591V48.1136C594.697 47.553 594.543 47.1174 594.237 46.8068C593.933 46.4962 593.473 46.3409 592.856 46.3409C592.216 46.3409 591.714 46.4811 591.35 46.7614C590.987 47.0417 590.731 47.3409 590.583 47.6591L589.31 47.2045C589.538 46.6742 589.841 46.2614 590.219 45.9659C590.602 45.6667 591.019 45.4583 591.469 45.3409C591.924 45.2197 592.371 45.1591 592.81 45.1591C593.091 45.1591 593.413 45.1932 593.776 45.2614C594.144 45.3258 594.498 45.4602 594.839 45.6648C595.183 45.8693 595.469 46.178 595.697 46.5909C595.924 47.0038 596.038 47.5568 596.038 48.25V54H594.697V52.8182H594.629C594.538 53.0076 594.386 53.2102 594.174 53.4261C593.962 53.642 593.68 53.8258 593.327 53.9773C592.975 54.1288 592.545 54.2045 592.038 54.2045ZM592.242 53C592.772 53 593.219 52.8958 593.583 52.6875C593.951 52.4792 594.227 52.2102 594.413 51.8807C594.602 51.5511 594.697 51.2045 594.697 50.8409V49.6136C594.64 49.6818 594.515 49.7443 594.322 49.8011C594.132 49.8542 593.913 49.9015 593.663 49.9432C593.416 49.9811 593.176 50.0152 592.941 50.0455C592.71 50.072 592.522 50.0947 592.379 50.1136C592.03 50.1591 591.704 50.233 591.401 50.3352C591.102 50.4337 590.86 50.5833 590.674 50.7841C590.492 50.9811 590.401 51.25 590.401 51.5909C590.401 52.0568 590.574 52.4091 590.918 52.6477C591.267 52.8826 591.708 53 592.242 53ZM602.371 45.2727V46.4091H597.667V45.2727H602.371ZM599.076 54V44.0682C599.076 43.5682 599.193 43.1515 599.428 42.8182C599.663 42.4848 599.968 42.2348 600.343 42.0682C600.718 41.9015 601.114 41.8182 601.531 41.8182C601.86 41.8182 602.129 41.8447 602.337 41.8977C602.546 41.9508 602.701 42 602.803 42.0455L602.417 43.2045C602.349 43.1818 602.254 43.1534 602.133 43.1193C602.015 43.0852 601.86 43.0682 601.667 43.0682C601.224 43.0682 600.904 43.1799 600.707 43.4034C600.513 43.6269 600.417 43.9545 600.417 44.3864V54H599.076ZM608.046 45.2727V46.4091H603.523V45.2727H608.046ZM604.842 43.1818H606.183V51.5C606.183 51.8788 606.237 52.1629 606.347 52.3523C606.461 52.5379 606.605 52.6629 606.779 52.7273C606.957 52.7879 607.145 52.8182 607.342 52.8182C607.489 52.8182 607.611 52.8106 607.705 52.7955C607.8 52.7765 607.876 52.7614 607.933 52.75L608.205 53.9545C608.114 53.9886 607.987 54.0227 607.825 54.0568C607.662 54.0947 607.455 54.1136 607.205 54.1136C606.826 54.1136 606.455 54.0322 606.092 53.8693C605.732 53.7064 605.433 53.4583 605.194 53.125C604.959 52.7917 604.842 52.3712 604.842 51.8636V43.1818Z" fill="#344054"/>
<rect x="641" y="24" width="68" height="48" rx="5" fill="#1F69FF"/>
<path d="M667.847 42.3636V54H666.484L660.143 44.8636H660.029V54H658.62V42.3636H659.984L666.347 51.5227H666.461V42.3636H667.847ZM674.144 54.1818C673.303 54.1818 672.578 53.9962 671.968 53.625C671.362 53.25 670.894 52.7273 670.565 52.0568C670.239 51.3826 670.076 50.5985 670.076 49.7045C670.076 48.8106 670.239 48.0227 670.565 47.3409C670.894 46.6553 671.353 46.1212 671.94 45.7386C672.531 45.3523 673.22 45.1591 674.008 45.1591C674.462 45.1591 674.911 45.2348 675.354 45.3864C675.798 45.5379 676.201 45.7841 676.565 46.125C676.928 46.4621 677.218 46.9091 677.434 47.4659C677.65 48.0227 677.758 48.7083 677.758 49.5227V50.0909H671.031V48.9318H676.394C676.394 48.4394 676.296 48 676.099 47.6136C675.906 47.2273 675.629 46.9223 675.269 46.6989C674.913 46.4754 674.493 46.3636 674.008 46.3636C673.474 46.3636 673.012 46.4962 672.621 46.7614C672.235 47.0227 671.938 47.3636 671.729 47.7841C671.521 48.2045 671.417 48.6553 671.417 49.1364V49.9091C671.417 50.5682 671.531 51.1269 671.758 51.5852C671.989 52.0398 672.309 52.3864 672.718 52.625C673.127 52.8598 673.603 52.9773 674.144 52.9773C674.496 52.9773 674.815 52.928 675.099 52.8295C675.387 52.7273 675.635 52.5758 675.843 52.375C676.051 52.1705 676.212 51.9167 676.326 51.6136L677.621 51.9773C677.485 52.4167 677.256 52.803 676.934 53.1364C676.612 53.4659 676.214 53.7235 675.741 53.9091C675.267 54.0909 674.735 54.1818 674.144 54.1818ZM680.563 45.2727L682.654 48.8409L684.745 45.2727H686.29L683.472 49.6364L686.29 54H684.745L682.654 50.6136L680.563 54H679.018L681.79 49.6364L679.018 45.2727H680.563ZM691.999 45.2727V46.4091H687.477V45.2727H691.999ZM688.795 43.1818H690.136V51.5C690.136 51.8788 690.191 52.1629 690.3 52.3523C690.414 52.5379 690.558 52.6629 690.732 52.7273C690.91 52.7879 691.098 52.8182 691.295 52.8182C691.442 52.8182 691.564 52.8106 691.658 52.7955C691.753 52.7765 691.829 52.7614 691.886 52.75L692.158 53.9545C692.067 53.9886 691.941 54.0227 691.778 54.0568C691.615 54.0947 691.408 54.1136 691.158 54.1136C690.78 54.1136 690.408 54.0322 690.045 53.8693C689.685 53.7064 689.386 53.4583 689.147 53.125C688.912 52.7917 688.795 52.3712 688.795 51.8636V43.1818Z" fill="white"/>
<rect width="150" height="25" transform="translate(232)" fill="#5925DC"/>
<path d="M239.12 14.82C239.393 15.02 239.687 15.18 240 15.3C240.313 15.42 240.69 15.48 241.13 15.48C241.57 15.48 241.897 15.4067 242.11 15.26C242.323 15.1133 242.43 14.9333 242.43 14.72C242.43 14.5333 242.313 14.3667 242.08 14.22C241.853 14.0733 241.443 13.9267 240.85 13.78C240.597 13.72 240.357 13.6467 240.13 13.56C239.91 13.4733 239.717 13.3733 239.55 13.26C239.383 13.14 239.25 13.01 239.15 12.87C239.05 12.73 239 12.5733 239 12.4C239 12.2067 239.043 12.0267 239.13 11.86C239.217 11.6867 239.343 11.54 239.51 11.42C239.683 11.2933 239.897 11.1967 240.15 11.13C240.41 11.0567 240.707 11.02 241.04 11.02C241.407 11.02 241.763 11.0833 242.11 11.21C242.457 11.33 242.75 11.4733 242.99 11.64L242.59 12.17C242.377 12.0167 242.14 11.8933 241.88 11.8C241.62 11.7067 241.34 11.66 241.04 11.66C240.813 11.66 240.623 11.68 240.47 11.72C240.317 11.7533 240.193 11.8033 240.1 11.87C240.007 11.93 239.94 12.0033 239.9 12.09C239.86 12.1767 239.84 12.2667 239.84 12.36C239.84 12.56 239.977 12.7267 240.25 12.86C240.523 12.9867 240.88 13.1067 241.32 13.22C241.98 13.3867 242.467 13.5767 242.78 13.79C243.1 14.0033 243.26 14.2967 243.26 14.67C243.26 14.87 243.213 15.0567 243.12 15.23C243.027 15.4033 242.887 15.5567 242.7 15.69C242.52 15.8233 242.293 15.9267 242.02 16C241.753 16.08 241.447 16.12 241.1 16.12C240.62 16.12 240.177 16.0467 239.77 15.9C239.37 15.7467 239.02 15.5667 238.72 15.36L239.12 14.82ZM245.426 16.81C245.426 17.0633 245.559 17.27 245.826 17.43C246.099 17.59 246.496 17.67 247.016 17.67C247.296 17.67 247.549 17.64 247.776 17.58C248.003 17.5267 248.196 17.4533 248.356 17.36C248.516 17.2667 248.636 17.16 248.716 17.04C248.803 16.92 248.846 16.7967 248.846 16.67C248.846 16.4367 248.753 16.28 248.566 16.2C248.386 16.12 248.109 16.08 247.736 16.08H246.786C246.646 16.08 246.513 16.0733 246.386 16.06C246.266 16.0533 246.153 16.0333 246.046 16C245.813 16.1267 245.649 16.2567 245.556 16.39C245.469 16.53 245.426 16.67 245.426 16.81ZM244.716 16.89C244.716 16.6967 244.783 16.5067 244.916 16.32C245.056 16.1333 245.256 15.9633 245.516 15.81V15.77C245.383 15.6967 245.266 15.5967 245.166 15.47C245.066 15.3433 245.016 15.1767 245.016 14.97C245.016 14.8167 245.066 14.66 245.166 14.5C245.266 14.3333 245.409 14.1867 245.596 14.06V14.02C245.429 13.8933 245.286 13.7267 245.166 13.52C245.053 13.3067 244.996 13.0533 244.996 12.76C244.996 12.4933 245.046 12.2533 245.146 12.04C245.253 11.8267 245.393 11.6467 245.566 11.5C245.739 11.3467 245.939 11.23 246.166 11.15C246.399 11.0633 246.646 11.02 246.906 11.02C247.173 11.02 247.413 11.06 247.626 11.14H249.636V11.77H248.336C248.449 11.89 248.553 12.0367 248.646 12.21C248.739 12.3833 248.786 12.5767 248.786 12.79C248.786 13.05 248.736 13.2833 248.636 13.49C248.543 13.6967 248.409 13.8733 248.236 14.02C248.069 14.16 247.869 14.27 247.636 14.35C247.409 14.4233 247.166 14.46 246.906 14.46C246.779 14.46 246.643 14.4467 246.496 14.42C246.356 14.3867 246.219 14.34 246.086 14.28C245.833 14.44 245.706 14.6267 245.706 14.84C245.706 15.0333 245.793 15.1767 245.966 15.27C246.146 15.3567 246.396 15.4 246.716 15.4H247.806C248.433 15.4 248.896 15.4867 249.196 15.66C249.503 15.8333 249.656 16.1267 249.656 16.54C249.656 16.7667 249.593 16.9833 249.466 17.19C249.339 17.3967 249.159 17.5767 248.926 17.73C248.693 17.8833 248.409 18.0067 248.076 18.1C247.743 18.1933 247.369 18.24 246.956 18.24C246.243 18.24 245.689 18.1233 245.296 17.89C244.909 17.6567 244.716 17.3233 244.716 16.89ZM246.906 13.91C247.219 13.91 247.483 13.8067 247.696 13.6C247.916 13.3933 248.026 13.1133 248.026 12.76C248.026 12.5933 247.996 12.44 247.936 12.3C247.876 12.16 247.796 12.04 247.696 11.94C247.596 11.84 247.476 11.7633 247.336 11.71C247.203 11.65 247.059 11.62 246.906 11.62C246.753 11.62 246.606 11.65 246.466 11.71C246.333 11.7633 246.216 11.84 246.116 11.94C246.016 12.04 245.936 12.16 245.876 12.3C245.816 12.44 245.786 12.5933 245.786 12.76C245.786 13.1133 245.896 13.3933 246.116 13.6C246.336 13.8067 246.599 13.91 246.906 13.91ZM250.592 13.58C250.592 13.1867 250.652 12.8333 250.772 12.52C250.899 12.2 251.062 11.93 251.262 11.71C251.469 11.49 251.706 11.32 251.972 11.2C252.239 11.08 252.516 11.02 252.802 11.02C253.102 11.02 253.366 11.0767 253.592 11.19C253.819 11.3033 254.046 11.4567 254.272 11.65L254.242 10.75V8.88H255.062V16H254.382L254.312 15.36H254.282C254.082 15.5667 253.842 15.7467 253.562 15.9C253.289 16.0467 253.002 16.12 252.702 16.12C252.382 16.12 252.092 16.0633 251.832 15.95C251.579 15.8367 251.359 15.6733 251.172 15.46C250.986 15.24 250.842 14.9733 250.742 14.66C250.642 14.3467 250.592 13.9867 250.592 13.58ZM251.442 13.57C251.442 14.1567 251.566 14.6133 251.812 14.94C252.066 15.2667 252.419 15.43 252.872 15.43C253.352 15.43 253.809 15.1867 254.242 14.7V12.28C254.022 12.0733 253.806 11.9267 253.592 11.84C253.386 11.7533 253.176 11.71 252.962 11.71C252.749 11.71 252.549 11.7567 252.362 11.85C252.182 11.9367 252.022 12.0633 251.882 12.23C251.749 12.39 251.642 12.5833 251.562 12.81C251.482 13.0367 251.442 13.29 251.442 13.57ZM257.108 14.82C257.382 15.02 257.675 15.18 257.988 15.3C258.302 15.42 258.678 15.48 259.118 15.48C259.558 15.48 259.885 15.4067 260.098 15.26C260.312 15.1133 260.418 14.9333 260.418 14.72C260.418 14.5333 260.302 14.3667 260.068 14.22C259.842 14.0733 259.432 13.9267 258.838 13.78C258.585 13.72 258.345 13.6467 258.118 13.56C257.898 13.4733 257.705 13.3733 257.538 13.26C257.372 13.14 257.238 13.01 257.138 12.87C257.038 12.73 256.988 12.5733 256.988 12.4C256.988 12.2067 257.032 12.0267 257.118 11.86C257.205 11.6867 257.332 11.54 257.498 11.42C257.672 11.2933 257.885 11.1967 258.138 11.13C258.398 11.0567 258.695 11.02 259.028 11.02C259.395 11.02 259.752 11.0833 260.098 11.21C260.445 11.33 260.738 11.4733 260.978 11.64L260.578 12.17C260.365 12.0167 260.128 11.8933 259.868 11.8C259.608 11.7067 259.328 11.66 259.028 11.66C258.802 11.66 258.612 11.68 258.458 11.72C258.305 11.7533 258.182 11.8033 258.088 11.87C257.995 11.93 257.928 12.0033 257.888 12.09C257.848 12.1767 257.828 12.2667 257.828 12.36C257.828 12.56 257.965 12.7267 258.238 12.86C258.512 12.9867 258.868 13.1067 259.308 13.22C259.968 13.3867 260.455 13.5767 260.768 13.79C261.088 14.0033 261.248 14.2967 261.248 14.67C261.248 14.87 261.202 15.0567 261.108 15.23C261.015 15.4033 260.875 15.5567 260.688 15.69C260.508 15.8233 260.282 15.9267 260.008 16C259.742 16.08 259.435 16.12 259.088 16.12C258.608 16.12 258.165 16.0467 257.758 15.9C257.358 15.7467 257.008 15.5667 256.708 15.36L257.108 14.82ZM263.324 12.71H266.644V13.43H263.324V12.71ZM268.78 13.58C268.78 13.1733 268.85 12.8133 268.99 12.5C269.137 12.18 269.334 11.91 269.58 11.69C269.827 11.47 270.114 11.3033 270.44 11.19C270.774 11.0767 271.124 11.02 271.49 11.02C271.89 11.02 272.234 11.09 272.52 11.23C272.814 11.37 273.06 11.5367 273.26 11.73L272.85 12.26C272.65 12.0867 272.44 11.95 272.22 11.85C272.007 11.75 271.774 11.7 271.52 11.7C271.24 11.7 270.984 11.7467 270.75 11.84C270.517 11.9267 270.317 12.0533 270.15 12.22C269.99 12.3867 269.864 12.5867 269.77 12.82C269.677 13.0467 269.63 13.3 269.63 13.58C269.63 13.86 269.674 14.1133 269.76 14.34C269.854 14.5667 269.98 14.7633 270.14 14.93C270.307 15.09 270.504 15.2167 270.73 15.31C270.964 15.3967 271.22 15.44 271.5 15.44C271.8 15.44 272.074 15.3833 272.32 15.27C272.574 15.15 272.804 15.0033 273.01 14.83L273.37 15.36C273.104 15.6 272.804 15.7867 272.47 15.92C272.144 16.0533 271.8 16.12 271.44 16.12C271.06 16.12 270.707 16.0633 270.38 15.95C270.06 15.8367 269.78 15.6733 269.54 15.46C269.3 15.24 269.114 14.9733 268.98 14.66C268.847 14.34 268.78 13.98 268.78 13.58ZM274.577 13.58C274.577 13.1733 274.64 12.8133 274.767 12.5C274.9 12.18 275.077 11.91 275.297 11.69C275.517 11.47 275.77 11.3033 276.057 11.19C276.35 11.0767 276.657 11.02 276.977 11.02C277.297 11.02 277.6 11.0767 277.887 11.19C278.18 11.3033 278.437 11.47 278.657 11.69C278.877 11.91 279.05 12.18 279.177 12.5C279.31 12.8133 279.377 13.1733 279.377 13.58C279.377 13.98 279.31 14.34 279.177 14.66C279.05 14.9733 278.877 15.24 278.657 15.46C278.437 15.6733 278.18 15.8367 277.887 15.95C277.6 16.0633 277.297 16.12 276.977 16.12C276.657 16.12 276.35 16.0633 276.057 15.95C275.77 15.8367 275.517 15.6733 275.297 15.46C275.077 15.24 274.9 14.9733 274.767 14.66C274.64 14.34 274.577 13.98 274.577 13.58ZM275.427 13.58C275.427 13.86 275.463 14.1133 275.537 14.34C275.61 14.5667 275.713 14.7633 275.847 14.93C275.987 15.09 276.15 15.2167 276.337 15.31C276.53 15.3967 276.743 15.44 276.977 15.44C277.21 15.44 277.42 15.3967 277.607 15.31C277.8 15.2167 277.963 15.09 278.097 14.93C278.237 14.7633 278.343 14.5667 278.417 14.34C278.49 14.1133 278.527 13.86 278.527 13.58C278.527 13.3 278.49 13.0467 278.417 12.82C278.343 12.5867 278.237 12.3867 278.097 12.22C277.963 12.0533 277.8 11.9267 277.607 11.84C277.42 11.7467 277.21 11.7 276.977 11.7C276.743 11.7 276.53 11.7467 276.337 11.84C276.15 11.9267 275.987 12.0533 275.847 12.22C275.713 12.3867 275.61 12.5867 275.537 12.82C275.463 13.0467 275.427 13.3 275.427 13.58ZM280.903 11.14H281.583L281.653 11.97H281.693C281.946 11.6967 282.219 11.47 282.513 11.29C282.806 11.11 283.143 11.02 283.523 11.02C284.103 11.02 284.526 11.1867 284.793 11.52C285.066 11.8467 285.203 12.3333 285.203 12.98V16H284.383V13.09C284.383 12.63 284.296 12.29 284.123 12.07C283.949 11.8433 283.663 11.73 283.263 11.73C283.116 11.73 282.979 11.75 282.853 11.79C282.733 11.8233 282.613 11.8767 282.493 11.95C282.373 12.0233 282.249 12.1167 282.123 12.23C281.996 12.3367 281.863 12.4633 281.723 12.61V16H280.903V11.14ZM288.029 11.81H286.659V11.19L288.059 11.14L288.169 9.78H288.849V11.14H291.229V11.81H288.849V14.12C288.849 14.34 288.869 14.5333 288.909 14.7C288.949 14.86 289.015 14.9967 289.109 15.11C289.202 15.2233 289.329 15.31 289.489 15.37C289.649 15.4233 289.845 15.45 290.079 15.45C290.312 15.45 290.522 15.43 290.709 15.39C290.895 15.35 291.075 15.2967 291.249 15.23L291.419 15.83C291.205 15.91 290.965 15.9767 290.699 16.03C290.432 16.09 290.165 16.12 289.899 16.12C289.545 16.12 289.249 16.0733 289.009 15.98C288.769 15.88 288.575 15.7433 288.429 15.57C288.289 15.39 288.185 15.1767 288.119 14.93C288.059 14.6833 288.029 14.41 288.029 14.11V11.81ZM292.655 13.58C292.655 13.18 292.725 12.8233 292.865 12.51C293.005 12.19 293.188 11.92 293.415 11.7C293.648 11.48 293.912 11.3133 294.205 11.2C294.505 11.08 294.812 11.02 295.125 11.02C295.472 11.02 295.782 11.0767 296.055 11.19C296.328 11.2967 296.558 11.45 296.745 11.65C296.938 11.85 297.085 12.09 297.185 12.37C297.285 12.65 297.335 12.96 297.335 13.3C297.335 13.48 297.325 13.63 297.305 13.75H293.505C293.538 14.2767 293.722 14.6933 294.055 15C294.395 15.3067 294.832 15.46 295.365 15.46C295.652 15.46 295.912 15.42 296.145 15.34C296.385 15.26 296.618 15.15 296.845 15.01L297.135 15.55C296.895 15.7033 296.622 15.8367 296.315 15.95C296.008 16.0633 295.658 16.12 295.265 16.12C294.905 16.12 294.565 16.0633 294.245 15.95C293.932 15.83 293.655 15.6633 293.415 15.45C293.182 15.23 292.995 14.9633 292.855 14.65C292.722 14.3367 292.655 13.98 292.655 13.58ZM296.575 13.21C296.575 12.71 296.448 12.33 296.195 12.07C295.942 11.8033 295.588 11.67 295.135 11.67C294.935 11.67 294.742 11.7067 294.555 11.78C294.375 11.8467 294.212 11.9467 294.065 12.08C293.918 12.2067 293.792 12.3667 293.685 12.56C293.585 12.7467 293.522 12.9633 293.495 13.21H296.575ZM298.891 11.14H299.571L299.641 11.97H299.681C299.934 11.6967 300.208 11.47 300.501 11.29C300.794 11.11 301.131 11.02 301.511 11.02C302.091 11.02 302.514 11.1867 302.781 11.52C303.054 11.8467 303.191 12.3333 303.191 12.98V16H302.371V13.09C302.371 12.63 302.284 12.29 302.111 12.07C301.938 11.8433 301.651 11.73 301.251 11.73C301.104 11.73 300.968 11.75 300.841 11.79C300.721 11.8233 300.601 11.8767 300.481 11.95C300.361 12.0233 300.238 12.1167 300.111 12.23C299.984 12.3367 299.851 12.4633 299.711 12.61V16H298.891V11.14ZM306.017 11.81H304.647V11.19L306.047 11.14L306.157 9.78H306.837V11.14H309.217V11.81H306.837V14.12C306.837 14.34 306.857 14.5333 306.897 14.7C306.937 14.86 307.004 14.9967 307.097 15.11C307.19 15.2233 307.317 15.31 307.477 15.37C307.637 15.4233 307.834 15.45 308.067 15.45C308.3 15.45 308.51 15.43 308.697 15.39C308.884 15.35 309.064 15.2967 309.237 15.23L309.407 15.83C309.194 15.91 308.954 15.9767 308.687 16.03C308.42 16.09 308.154 16.12 307.887 16.12C307.534 16.12 307.237 16.0733 306.997 15.98C306.757 15.88 306.564 15.7433 306.417 15.57C306.277 15.39 306.174 15.1767 306.107 14.93C306.047 14.6833 306.017 14.41 306.017 14.11V11.81ZM311.293 12.71H314.613V13.43H311.293V12.71ZM316.879 8.88H317.699V10.82L317.659 11.97C317.919 11.6967 318.196 11.47 318.489 11.29C318.783 11.11 319.119 11.02 319.499 11.02C320.079 11.02 320.503 11.1867 320.769 11.52C321.043 11.8467 321.179 12.3333 321.179 12.98V16H320.359V13.09C320.359 12.63 320.273 12.29 320.099 12.07C319.926 11.8433 319.639 11.73 319.239 11.73C319.093 11.73 318.956 11.75 318.829 11.79C318.709 11.8233 318.589 11.8767 318.469 11.95C318.349 12.0233 318.226 12.1167 318.099 12.23C317.973 12.3367 317.839 12.4633 317.699 12.61V16H316.879V8.88ZM322.635 13.58C322.635 13.18 322.705 12.8233 322.845 12.51C322.985 12.19 323.169 11.92 323.395 11.7C323.629 11.48 323.892 11.3133 324.185 11.2C324.485 11.08 324.792 11.02 325.105 11.02C325.452 11.02 325.762 11.0767 326.035 11.19C326.309 11.2967 326.539 11.45 326.725 11.65C326.919 11.85 327.065 12.09 327.165 12.37C327.265 12.65 327.315 12.96 327.315 13.3C327.315 13.48 327.305 13.63 327.285 13.75H323.485C323.519 14.2767 323.702 14.6933 324.035 15C324.375 15.3067 324.812 15.46 325.345 15.46C325.632 15.46 325.892 15.42 326.125 15.34C326.365 15.26 326.599 15.15 326.825 15.01L327.115 15.55C326.875 15.7033 326.602 15.8367 326.295 15.95C325.989 16.0633 325.639 16.12 325.245 16.12C324.885 16.12 324.545 16.0633 324.225 15.95C323.912 15.83 323.635 15.6633 323.395 15.45C323.162 15.23 322.975 14.9633 322.835 14.65C322.702 14.3367 322.635 13.98 322.635 13.58ZM326.555 13.21C326.555 12.71 326.429 12.33 326.175 12.07C325.922 11.8033 325.569 11.67 325.115 11.67C324.915 11.67 324.722 11.7067 324.535 11.78C324.355 11.8467 324.192 11.9467 324.045 12.08C323.899 12.2067 323.772 12.3667 323.665 12.56C323.565 12.7467 323.502 12.9633 323.475 13.21H326.555ZM328.751 14.74C328.751 14.4667 328.815 14.23 328.941 14.03C329.075 13.8233 329.281 13.6467 329.561 13.5C329.848 13.3533 330.215 13.2333 330.661 13.14C331.108 13.0467 331.645 12.9733 332.271 12.92C332.265 12.7533 332.238 12.5967 332.191 12.45C332.145 12.3033 332.071 12.1767 331.971 12.07C331.871 11.9567 331.738 11.8667 331.571 11.8C331.411 11.7333 331.215 11.7 330.981 11.7C330.661 11.7 330.355 11.7633 330.061 11.89C329.768 12.01 329.508 12.14 329.281 12.28L328.961 11.72C329.081 11.64 329.221 11.56 329.381 11.48C329.548 11.3933 329.721 11.3167 329.901 11.25C330.088 11.1833 330.285 11.13 330.491 11.09C330.698 11.0433 330.908 11.02 331.121 11.02C331.788 11.02 332.281 11.2033 332.601 11.57C332.928 11.93 333.091 12.4133 333.091 13.02V16H332.421L332.351 15.34H332.321C332.048 15.5533 331.745 15.7367 331.411 15.89C331.085 16.0433 330.748 16.12 330.401 16.12C330.175 16.12 329.961 16.0867 329.761 16.02C329.561 15.96 329.385 15.8733 329.231 15.76C329.085 15.64 328.968 15.4967 328.881 15.33C328.795 15.1567 328.751 14.96 328.751 14.74ZM329.551 14.68C329.551 14.82 329.581 14.94 329.641 15.04C329.701 15.1333 329.778 15.2133 329.871 15.28C329.971 15.34 330.085 15.3867 330.211 15.42C330.345 15.4467 330.481 15.46 330.621 15.46C330.901 15.46 331.175 15.4 331.441 15.28C331.715 15.1533 331.991 14.9733 332.271 14.74V13.46C331.751 13.5 331.315 13.5567 330.961 13.63C330.615 13.7033 330.335 13.7933 330.121 13.9C329.915 14 329.768 14.1167 329.681 14.25C329.595 14.3767 329.551 14.52 329.551 14.68ZM334.538 13.58C334.538 13.1867 334.598 12.8333 334.718 12.52C334.844 12.2 335.008 11.93 335.208 11.71C335.414 11.49 335.651 11.32 335.918 11.2C336.184 11.08 336.461 11.02 336.748 11.02C337.048 11.02 337.311 11.0767 337.538 11.19C337.764 11.3033 337.991 11.4567 338.218 11.65L338.188 10.75V8.88H339.008V16H338.328L338.258 15.36H338.228C338.028 15.5667 337.788 15.7467 337.508 15.9C337.234 16.0467 336.948 16.12 336.648 16.12C336.328 16.12 336.038 16.0633 335.778 15.95C335.524 15.8367 335.304 15.6733 335.118 15.46C334.931 15.24 334.788 14.9733 334.688 14.66C334.588 14.3467 334.538 13.9867 334.538 13.58ZM335.388 13.57C335.388 14.1567 335.511 14.6133 335.758 14.94C336.011 15.2667 336.364 15.43 336.818 15.43C337.298 15.43 337.754 15.1867 338.188 14.7V12.28C337.968 12.0733 337.751 11.9267 337.538 11.84C337.331 11.7533 337.121 11.71 336.908 11.71C336.694 11.71 336.494 11.7567 336.308 11.85C336.128 11.9367 335.968 12.0633 335.828 12.23C335.694 12.39 335.588 12.5833 335.508 12.81C335.428 13.0367 335.388 13.29 335.388 13.57ZM340.624 13.58C340.624 13.18 340.694 12.8233 340.834 12.51C340.974 12.19 341.157 11.92 341.384 11.7C341.617 11.48 341.88 11.3133 342.174 11.2C342.474 11.08 342.78 11.02 343.094 11.02C343.44 11.02 343.75 11.0767 344.024 11.19C344.297 11.2967 344.527 11.45 344.714 11.65C344.907 11.85 345.054 12.09 345.154 12.37C345.254 12.65 345.304 12.96 345.304 13.3C345.304 13.48 345.294 13.63 345.274 13.75H341.474C341.507 14.2767 341.69 14.6933 342.024 15C342.364 15.3067 342.8 15.46 343.334 15.46C343.62 15.46 343.88 15.42 344.114 15.34C344.354 15.26 344.587 15.15 344.814 15.01L345.104 15.55C344.864 15.7033 344.59 15.8367 344.284 15.95C343.977 16.0633 343.627 16.12 343.234 16.12C342.874 16.12 342.534 16.0633 342.214 15.95C341.9 15.83 341.624 15.6633 341.384 15.45C341.15 15.23 340.964 14.9633 340.824 14.65C340.69 14.3367 340.624 13.98 340.624 13.58ZM344.544 13.21C344.544 12.71 344.417 12.33 344.164 12.07C343.91 11.8033 343.557 11.67 343.104 11.67C342.904 11.67 342.71 11.7067 342.524 11.78C342.344 11.8467 342.18 11.9467 342.034 12.08C341.887 12.2067 341.76 12.3667 341.654 12.56C341.554 12.7467 341.49 12.9633 341.464 13.21H344.544ZM347.39 11.14H348.07L348.14 12.29H348.17C348.423 11.8967 348.733 11.5867 349.1 11.36C349.473 11.1333 349.886 11.02 350.34 11.02C350.52 11.02 350.683 11.0367 350.83 11.07C350.983 11.0967 351.136 11.1467 351.29 11.22L351.12 11.93C350.946 11.87 350.8 11.8267 350.68 11.8C350.56 11.7733 350.403 11.76 350.21 11.76C349.843 11.76 349.49 11.8667 349.15 12.08C348.816 12.2867 348.503 12.6433 348.21 13.15V16H347.39V11.14ZM353.266 12.71H356.586V13.43H353.266V12.71ZM359.982 11.81H358.612V11.19L360.012 11.14L360.122 9.78H360.802V11.14H363.182V11.81H360.802V14.12C360.802 14.34 360.822 14.5333 360.862 14.7C360.902 14.86 360.969 14.9967 361.062 15.11C361.155 15.2233 361.282 15.31 361.442 15.37C361.602 15.4233 361.799 15.45 362.032 15.45C362.265 15.45 362.475 15.43 362.662 15.39C362.849 15.35 363.029 15.2967 363.202 15.23L363.372 15.83C363.159 15.91 362.919 15.9767 362.652 16.03C362.385 16.09 362.119 16.12 361.852 16.12C361.499 16.12 361.202 16.0733 360.962 15.98C360.722 15.88 360.529 15.7433 360.382 15.57C360.242 15.39 360.139 15.1767 360.072 14.93C360.012 14.6833 359.982 14.41 359.982 14.11V11.81ZM364.518 13.58C364.518 13.1733 364.581 12.8133 364.708 12.5C364.841 12.18 365.018 11.91 365.238 11.69C365.458 11.47 365.711 11.3033 365.998 11.19C366.291 11.0767 366.598 11.02 366.918 11.02C367.238 11.02 367.541 11.0767 367.828 11.19C368.121 11.3033 368.378 11.47 368.598 11.69C368.818 11.91 368.991 12.18 369.118 12.5C369.251 12.8133 369.318 13.1733 369.318 13.58C369.318 13.98 369.251 14.34 369.118 14.66C368.991 14.9733 368.818 15.24 368.598 15.46C368.378 15.6733 368.121 15.8367 367.828 15.95C367.541 16.0633 367.238 16.12 366.918 16.12C366.598 16.12 366.291 16.0633 365.998 15.95C365.711 15.8367 365.458 15.6733 365.238 15.46C365.018 15.24 364.841 14.9733 364.708 14.66C364.581 14.34 364.518 13.98 364.518 13.58ZM365.368 13.58C365.368 13.86 365.405 14.1133 365.478 14.34C365.551 14.5667 365.655 14.7633 365.788 14.93C365.928 15.09 366.091 15.2167 366.278 15.31C366.471 15.3967 366.685 15.44 366.918 15.44C367.151 15.44 367.361 15.3967 367.548 15.31C367.741 15.2167 367.905 15.09 368.038 14.93C368.178 14.7633 368.285 14.5667 368.358 14.34C368.431 14.1133 368.468 13.86 368.468 13.58C368.468 13.3 368.431 13.0467 368.358 12.82C368.285 12.5867 368.178 12.3867 368.038 12.22C367.905 12.0533 367.741 11.9267 367.548 11.84C367.361 11.7467 367.151 11.7 366.918 11.7C366.685 11.7 366.471 11.7467 366.278 11.84C366.091 11.9267 365.928 12.0533 365.788 12.22C365.655 12.3867 365.551 12.5867 365.478 12.82C365.405 13.0467 365.368 13.3 365.368 13.58ZM371.664 16.41V18.05H370.844V11.14H371.524L371.594 11.76H371.624C371.851 11.5467 372.111 11.37 372.404 11.23C372.704 11.09 373.004 11.02 373.304 11.02C373.631 11.02 373.917 11.08 374.164 11.2C374.417 11.3133 374.627 11.48 374.794 11.7C374.967 11.9133 375.097 12.1733 375.184 12.48C375.271 12.78 375.314 13.12 375.314 13.5C375.314 13.9133 375.254 14.2833 375.134 14.61C375.014 14.93 374.851 15.2033 374.644 15.43C374.444 15.6567 374.211 15.83 373.944 15.95C373.677 16.0633 373.397 16.12 373.104 16.12C372.877 16.12 372.631 16.0667 372.364 15.96C372.104 15.8467 371.864 15.69 371.644 15.49L371.664 16.41ZM371.664 14.86C371.897 15.0667 372.131 15.2133 372.364 15.3C372.597 15.3867 372.797 15.43 372.964 15.43C373.404 15.43 373.764 15.26 374.044 14.92C374.324 14.58 374.464 14.1067 374.464 13.5C374.464 13.2333 374.437 12.99 374.384 12.77C374.331 12.55 374.247 12.3633 374.134 12.21C374.027 12.05 373.887 11.9267 373.714 11.84C373.541 11.7533 373.334 11.71 373.094 11.71C372.881 11.71 372.651 11.77 372.404 11.89C372.164 12.0033 371.917 12.1867 371.664 12.44V14.86Z" fill="white"/>
<rect x="0.5" y="0.5" width="740" height="96" stroke="#5925DC" stroke-dasharray="2 2"/>
<path d="M20 19.0469V17.0156H20.5V16.5H20.9821V16H22.9464V16.5H24.9107V16H26.875V16.5H28.8393V16H30.8035V16.5H32.7678V16H34.7321V16.5H36.6964V16H38.6607V16.5H40.625V16H42.5893V16.5H44.5536V16H46.5178V16.5H48.4821V16H50.4464V16.5H52.4107V16H54.375V16.5H56.3393V16H58.3036V16.5H60.2678V16H62.2321V16.5H64.1964V16H66.1607V16.5H68.125V16H70.0893V16.5H72.0536V16H74.0178V16.5H75.9821V16H77.9464V16.5H79.9107V16H81.875V16.5H83.8393V16H85.8036V16.5H87.7679V16H89.7321V16.5H91.6964V16H93.6607V16.5H95.625V16H97.5893V16.5H99.5536V16H101.518V16.5H103.482V16H105.446V16.5H107.411V16H109.375V16.5H111.339V16H113.304V16.5H115.268V16H117.232V16.5H119.196V16H121.161V16.5H123.125V16H125.089V16.5H127.054V16H129.018V16.5H129.5V17.0156H130V19.0469H129.5V21.0781H130V23.1094H129.5V25.1406H130V27.1719H129.5V29.2031H130V31.2344H129.5V33.2656H130V35.2969H129.5V37.3281H130V39.3594H129.5V41.3906H130V43.4219H129.5V45.4531H130V47.4844H129.5V49.5156H130V51.5469H129.5V53.5781H130V55.6094H129.5V57.6406H130V59.6719H129.5V61.7031H130V63.7344H129.5V65.7656H130V67.7969H129.5V69.8281H130V71.8594H129.5V73.8906H130V75.9219H129.5V77.9531H130V79.9844H129.5V80.5H129.018V81H127.054V80.5H125.089V81H123.125V80.5H121.161V81H119.196V80.5H117.232V81H115.268V80.5H113.304V81H111.339V80.5H109.375V81H107.411V80.5H105.446V81H103.482V80.5H101.518V81H99.5536V80.5H97.5893V81H95.625V80.5H93.6607V81H91.6964V80.5H89.7322V81H87.7679V80.5H85.8036V81H83.8393V80.5H81.875V81H79.9107V80.5H77.9464V81H75.9822V80.5H74.0179V81H72.0536V80.5H70.0893V81H68.125V80.5H66.1607V81H64.1964V80.5H62.2321V81H60.2679V80.5H58.3036V81H56.3393V80.5H54.375V81H52.4107V80.5H50.4464V81H48.4821V80.5H46.5179V81H44.5536V80.5H42.5893V81H40.625V80.5H38.6607V81H36.6964V80.5H34.7321V81H32.7679V80.5H30.8036V81H28.8393V80.5H26.875V81H24.9107V80.5H22.9464V81H20.9821V80.5H20.5V79.9844H20V77.9531H20.5V75.9219H20V73.8906H20.5V71.8594H20V69.8281H20.5V67.7969H20V65.7656H20.5V63.7344H20V61.7031H20.5V59.6719H20V57.6406H20.5V55.6094H20V53.5781H20.5V51.5469H20V49.5156H20.5V47.4844H20V45.4531H20.5V43.4219H20V41.3906H20.5V39.3594H20V37.3281H20.5V35.2969H20V33.2656H20.5V31.2344H20V29.2031H20.5V27.1719H20V25.1406H20.5V23.1094H20V21.0781H20.5V19.0469H20Z" stroke="#344054" stroke-dasharray="2 2"/>
<rect x="419.5" y="16.5" width="297" height="64" stroke="#344054" stroke-dasharray="2 2"/>
<circle cx="45" cy="119" r="12" fill="#344054"/>
<path d="M47.0057 113.364V125H44.5455V115.699H44.4773L41.8125 117.369V115.188L44.6932 113.364H47.0057Z" fill="white"/>
<path d="M45 109L45 80" stroke="#344054" stroke-dasharray="2 2"/>
<path d="M69.0795 117H68.0227C67.9602 116.696 67.8509 116.429 67.6946 116.199C67.5412 115.969 67.3537 115.776 67.1321 115.619C66.9134 115.46 66.6705 115.341 66.4034 115.261C66.1364 115.182 65.858 115.142 65.5682 115.142C65.0398 115.142 64.5611 115.276 64.1321 115.543C63.706 115.81 63.3665 116.203 63.1136 116.723C62.8636 117.243 62.7386 117.881 62.7386 118.636C62.7386 119.392 62.8636 120.03 63.1136 120.55C63.3665 121.07 63.706 121.463 64.1321 121.73C64.5611 121.997 65.0398 122.131 65.5682 122.131C65.858 122.131 66.1364 122.091 66.4034 122.011C66.6705 121.932 66.9134 121.814 67.1321 121.658C67.3537 121.499 67.5412 121.304 67.6946 121.074C67.8509 120.841 67.9602 120.574 68.0227 120.273H69.0795C69 120.719 68.8551 121.118 68.6449 121.47C68.4347 121.822 68.1733 122.122 67.8608 122.369C67.5483 122.614 67.1974 122.8 66.8082 122.928C66.4219 123.055 66.0085 123.119 65.5682 123.119C64.8239 123.119 64.1619 122.938 63.5824 122.574C63.0028 122.21 62.5469 121.693 62.2145 121.023C61.8821 120.352 61.7159 119.557 61.7159 118.636C61.7159 117.716 61.8821 116.92 62.2145 116.25C62.5469 115.58 63.0028 115.062 63.5824 114.699C64.1619 114.335 64.8239 114.153 65.5682 114.153C66.0085 114.153 66.4219 114.217 66.8082 114.345C67.1974 114.473 67.5483 114.661 67.8608 114.908C68.1733 115.152 68.4347 115.45 68.6449 115.803C68.8551 116.152 69 116.551 69.0795 117ZM71.6566 119.062V123H70.6509V114.273H71.6566V117.477H71.7418C71.8952 117.139 72.1254 116.871 72.4322 116.672C72.7418 116.47 73.1538 116.369 73.668 116.369C74.114 116.369 74.5046 116.459 74.8398 116.638C75.1751 116.814 75.435 117.085 75.6197 117.452C75.8072 117.815 75.9009 118.278 75.9009 118.841V123H74.8952V118.909C74.8952 118.389 74.7603 117.987 74.4904 117.703C74.2234 117.416 73.8526 117.273 73.3782 117.273C73.0487 117.273 72.7532 117.342 72.4918 117.482C72.2333 117.621 72.0288 117.824 71.8782 118.091C71.7305 118.358 71.6566 118.682 71.6566 119.062ZM77.7408 123V116.455H78.7464V123H77.7408ZM78.2521 115.364C78.0561 115.364 77.8871 115.297 77.745 115.163C77.6058 115.03 77.5362 114.869 77.5362 114.682C77.5362 114.494 77.6058 114.334 77.745 114.2C77.8871 114.067 78.0561 114 78.2521 114C78.4482 114 78.6158 114.067 78.755 114.2C78.897 114.334 78.968 114.494 78.968 114.682C78.968 114.869 78.897 115.03 78.755 115.163C78.6158 115.297 78.4482 115.364 78.2521 115.364ZM81.5941 114.273V123H80.5884V114.273H81.5941ZM85.9077 123.136C85.3622 123.136 84.8807 122.999 84.4631 122.723C84.0455 122.445 83.7188 122.053 83.483 121.547C83.2472 121.038 83.1293 120.438 83.1293 119.744C83.1293 119.057 83.2472 118.46 83.483 117.955C83.7188 117.449 84.0469 117.058 84.4673 116.783C84.8878 116.507 85.3736 116.369 85.9247 116.369C86.3509 116.369 86.6875 116.44 86.9347 116.582C87.1847 116.722 87.375 116.881 87.5057 117.06C87.6392 117.236 87.7429 117.381 87.8168 117.494H87.902V114.273H88.9077V123H87.9361V121.994H87.8168C87.7429 122.114 87.6378 122.264 87.5014 122.446C87.3651 122.625 87.1705 122.786 86.9176 122.928C86.6648 123.067 86.3281 123.136 85.9077 123.136ZM86.044 122.233C86.4474 122.233 86.7884 122.128 87.0668 121.918C87.3452 121.705 87.5568 121.411 87.7017 121.036C87.8466 120.658 87.919 120.222 87.919 119.727C87.919 119.239 87.848 118.811 87.706 118.445C87.5639 118.075 87.3537 117.788 87.0753 117.584C86.7969 117.376 86.4531 117.273 86.044 117.273C85.6179 117.273 85.2628 117.382 84.9787 117.601C84.6974 117.817 84.4858 118.111 84.3438 118.483C84.2045 118.852 84.1349 119.267 84.1349 119.727C84.1349 120.193 84.206 120.616 84.348 120.997C84.4929 121.375 84.706 121.676 84.9872 121.901C85.2713 122.122 85.6236 122.233 86.044 122.233ZM97.3153 114.273V123H96.2585V115.381H96.2074L94.0767 116.795V115.722L96.2585 114.273H97.3153ZM100.575 121.884C100.365 121.884 100.185 121.808 100.034 121.658C99.8835 121.507 99.8082 121.327 99.8082 121.116C99.8082 120.906 99.8835 120.726 100.034 120.575C100.185 120.425 100.365 120.349 100.575 120.349C100.786 120.349 100.966 120.425 101.116 120.575C101.267 120.726 101.342 120.906 101.342 121.116C101.342 121.256 101.307 121.384 101.236 121.5C101.168 121.616 101.075 121.71 100.959 121.781C100.845 121.849 100.717 121.884 100.575 121.884ZM100.575 117.469C100.365 117.469 100.185 117.393 100.034 117.243C99.8835 117.092 99.8082 116.912 99.8082 116.702C99.8082 116.491 99.8835 116.311 100.034 116.161C100.185 116.01 100.365 115.935 100.575 115.935C100.786 115.935 100.966 116.01 101.116 116.161C101.267 116.311 101.342 116.491 101.342 116.702C101.342 116.841 101.307 116.969 101.236 117.085C101.168 117.202 101.075 117.295 100.959 117.366C100.845 117.435 100.717 117.469 100.575 117.469ZM106.658 123V114.273H107.715V118.159H112.369V114.273H113.425V123H112.369V119.097H107.715V123H106.658ZM118.149 123.136C117.518 123.136 116.974 122.997 116.517 122.719C116.062 122.438 115.712 122.045 115.464 121.543C115.22 121.037 115.098 120.449 115.098 119.778C115.098 119.108 115.22 118.517 115.464 118.006C115.712 117.491 116.055 117.091 116.496 116.804C116.939 116.514 117.456 116.369 118.047 116.369C118.388 116.369 118.724 116.426 119.057 116.54C119.389 116.653 119.692 116.838 119.964 117.094C120.237 117.347 120.455 117.682 120.616 118.099C120.778 118.517 120.859 119.031 120.859 119.642V120.068H115.814V119.199H119.837C119.837 118.83 119.763 118.5 119.615 118.21C119.47 117.92 119.263 117.692 118.993 117.524C118.726 117.357 118.411 117.273 118.047 117.273C117.646 117.273 117.3 117.372 117.007 117.571C116.717 117.767 116.494 118.023 116.338 118.338C116.182 118.653 116.104 118.991 116.104 119.352V119.932C116.104 120.426 116.189 120.845 116.359 121.189C116.533 121.53 116.773 121.79 117.08 121.969C117.386 122.145 117.743 122.233 118.149 122.233C118.413 122.233 118.652 122.196 118.865 122.122C119.081 122.045 119.267 121.932 119.423 121.781C119.58 121.628 119.7 121.437 119.786 121.21L120.757 121.483C120.655 121.812 120.483 122.102 120.241 122.352C120 122.599 119.702 122.793 119.347 122.932C118.991 123.068 118.592 123.136 118.149 123.136ZM124.315 123.153C123.901 123.153 123.524 123.075 123.186 122.919C122.848 122.76 122.58 122.531 122.381 122.233C122.182 121.932 122.082 121.568 122.082 121.142C122.082 120.767 122.156 120.463 122.304 120.23C122.452 119.994 122.649 119.81 122.896 119.676C123.143 119.543 123.416 119.443 123.714 119.378C124.016 119.31 124.318 119.256 124.622 119.216C125.02 119.165 125.342 119.126 125.589 119.101C125.839 119.072 126.021 119.026 126.135 118.96C126.251 118.895 126.31 118.781 126.31 118.619V118.585C126.31 118.165 126.195 117.838 125.964 117.605C125.737 117.372 125.392 117.256 124.929 117.256C124.449 117.256 124.072 117.361 123.8 117.571C123.527 117.781 123.335 118.006 123.224 118.244L122.27 117.903C122.44 117.506 122.668 117.196 122.952 116.974C123.239 116.75 123.551 116.594 123.889 116.506C124.23 116.415 124.565 116.369 124.895 116.369C125.105 116.369 125.347 116.395 125.619 116.446C125.895 116.494 126.161 116.595 126.416 116.749C126.675 116.902 126.889 117.134 127.06 117.443C127.23 117.753 127.315 118.168 127.315 118.688V123H126.31V122.114H126.259C126.19 122.256 126.077 122.408 125.918 122.57C125.759 122.732 125.547 122.869 125.283 122.983C125.018 123.097 124.696 123.153 124.315 123.153ZM124.469 122.25C124.866 122.25 125.202 122.172 125.474 122.016C125.75 121.859 125.957 121.658 126.097 121.411C126.239 121.163 126.31 120.903 126.31 120.631V119.71C126.267 119.761 126.173 119.808 126.028 119.851C125.886 119.891 125.722 119.926 125.534 119.957C125.349 119.986 125.169 120.011 124.993 120.034C124.82 120.054 124.679 120.071 124.571 120.085C124.31 120.119 124.065 120.175 123.838 120.251C123.614 120.325 123.432 120.437 123.293 120.588C123.156 120.736 123.088 120.937 123.088 121.193C123.088 121.543 123.217 121.807 123.476 121.986C123.737 122.162 124.068 122.25 124.469 122.25ZM131.623 123.136C131.077 123.136 130.596 122.999 130.178 122.723C129.76 122.445 129.434 122.053 129.198 121.547C128.962 121.038 128.844 120.438 128.844 119.744C128.844 119.057 128.962 118.46 129.198 117.955C129.434 117.449 129.762 117.058 130.182 116.783C130.603 116.507 131.088 116.369 131.64 116.369C132.066 116.369 132.402 116.44 132.65 116.582C132.9 116.722 133.09 116.881 133.221 117.06C133.354 117.236 133.458 117.381 133.532 117.494H133.617V114.273H134.623V123H133.651V121.994H133.532C133.458 122.114 133.353 122.264 133.216 122.446C133.08 122.625 132.885 122.786 132.632 122.928C132.38 123.067 132.043 123.136 131.623 123.136ZM131.759 122.233C132.162 122.233 132.503 122.128 132.782 121.918C133.06 121.705 133.272 121.411 133.417 121.036C133.561 120.658 133.634 120.222 133.634 119.727C133.634 119.239 133.563 118.811 133.421 118.445C133.279 118.075 133.069 117.788 132.79 117.584C132.512 117.376 132.168 117.273 131.759 117.273C131.333 117.273 130.978 117.382 130.694 117.601C130.412 117.817 130.201 118.111 130.059 118.483C129.919 118.852 129.85 119.267 129.85 119.727C129.85 120.193 129.921 120.616 130.063 120.997C130.208 121.375 130.421 121.676 130.702 121.901C130.986 122.122 131.338 122.233 131.759 122.233ZM139.348 123.136C138.718 123.136 138.174 122.997 137.716 122.719C137.262 122.438 136.911 122.045 136.664 121.543C136.419 121.037 136.297 120.449 136.297 119.778C136.297 119.108 136.419 118.517 136.664 118.006C136.911 117.491 137.255 117.091 137.695 116.804C138.138 116.514 138.655 116.369 139.246 116.369C139.587 116.369 139.924 116.426 140.256 116.54C140.588 116.653 140.891 116.838 141.164 117.094C141.436 117.347 141.654 117.682 141.816 118.099C141.978 118.517 142.059 119.031 142.059 119.642V120.068H137.013V119.199H141.036C141.036 118.83 140.962 118.5 140.814 118.21C140.669 117.92 140.462 117.692 140.192 117.524C139.925 117.357 139.61 117.273 139.246 117.273C138.846 117.273 138.499 117.372 138.206 117.571C137.917 117.767 137.694 118.023 137.537 118.338C137.381 118.653 137.303 118.991 137.303 119.352V119.932C137.303 120.426 137.388 120.845 137.559 121.189C137.732 121.53 137.972 121.79 138.279 121.969C138.586 122.145 138.942 122.233 139.348 122.233C139.613 122.233 139.851 122.196 140.064 122.122C140.28 122.045 140.466 121.932 140.623 121.781C140.779 121.628 140.9 121.437 140.985 121.21L141.956 121.483C141.854 121.812 141.682 122.102 141.441 122.352C141.199 122.599 140.901 122.793 140.546 122.932C140.191 123.068 139.792 123.136 139.348 123.136ZM143.588 123V116.455H144.56V117.443H144.628C144.748 117.119 144.963 116.857 145.276 116.655C145.588 116.453 145.941 116.352 146.333 116.352C146.407 116.352 146.499 116.354 146.61 116.357C146.721 116.359 146.804 116.364 146.861 116.369V117.392C146.827 117.384 146.749 117.371 146.627 117.354C146.507 117.334 146.381 117.324 146.248 117.324C145.929 117.324 145.645 117.391 145.395 117.524C145.148 117.655 144.952 117.837 144.807 118.07C144.665 118.3 144.594 118.562 144.594 118.858V123H143.588ZM151.565 123V114.273H152.621V118.159H157.275V114.273H158.332V123H157.275V119.097H152.621V123H151.565ZM163.362 114.273V123H162.305V115.381H162.254L160.124 116.795V115.722L162.305 114.273H163.362Z" fill="#344054"/>
<circle cx="503" cy="119" r="12" fill="#344054"/>
<path d="M498.943 125V123.227L503.085 119.392C503.438 119.051 503.733 118.744 503.972 118.472C504.214 118.199 504.398 117.932 504.523 117.67C504.648 117.405 504.71 117.119 504.71 116.812C504.71 116.472 504.633 116.178 504.477 115.932C504.322 115.682 504.11 115.491 503.841 115.358C503.572 115.222 503.267 115.153 502.926 115.153C502.57 115.153 502.259 115.225 501.994 115.369C501.729 115.513 501.525 115.72 501.381 115.989C501.237 116.258 501.165 116.578 501.165 116.949H498.83C498.83 116.187 499.002 115.527 499.347 114.966C499.691 114.405 500.174 113.972 500.795 113.665C501.417 113.358 502.133 113.205 502.943 113.205C503.777 113.205 504.502 113.352 505.119 113.648C505.741 113.939 506.223 114.345 506.568 114.864C506.913 115.383 507.085 115.977 507.085 116.648C507.085 117.087 506.998 117.521 506.824 117.949C506.653 118.377 506.348 118.852 505.909 119.375C505.47 119.894 504.85 120.517 504.051 121.244L502.352 122.909V122.989H507.239V125H498.943Z" fill="white"/>
<path d="M503 109L503 80" stroke="#344054" stroke-dasharray="2 2"/>
<path d="M527.08 117H526.023C525.96 116.696 525.851 116.429 525.695 116.199C525.541 115.969 525.354 115.776 525.132 115.619C524.913 115.46 524.67 115.341 524.403 115.261C524.136 115.182 523.858 115.142 523.568 115.142C523.04 115.142 522.561 115.276 522.132 115.543C521.706 115.81 521.366 116.203 521.114 116.723C520.864 117.243 520.739 117.881 520.739 118.636C520.739 119.392 520.864 120.03 521.114 120.55C521.366 121.07 521.706 121.463 522.132 121.73C522.561 121.997 523.04 122.131 523.568 122.131C523.858 122.131 524.136 122.091 524.403 122.011C524.67 121.932 524.913 121.814 525.132 121.658C525.354 121.499 525.541 121.304 525.695 121.074C525.851 120.841 525.96 120.574 526.023 120.273H527.08C527 120.719 526.855 121.118 526.645 121.47C526.435 121.822 526.173 122.122 525.861 122.369C525.548 122.614 525.197 122.8 524.808 122.928C524.422 123.055 524.009 123.119 523.568 123.119C522.824 123.119 522.162 122.938 521.582 122.574C521.003 122.21 520.547 121.693 520.214 121.023C519.882 120.352 519.716 119.557 519.716 118.636C519.716 117.716 519.882 116.92 520.214 116.25C520.547 115.58 521.003 115.062 521.582 114.699C522.162 114.335 522.824 114.153 523.568 114.153C524.009 114.153 524.422 114.217 524.808 114.345C525.197 114.473 525.548 114.661 525.861 114.908C526.173 115.152 526.435 115.45 526.645 115.803C526.855 116.152 527 116.551 527.08 117ZM529.657 119.062V123H528.651V114.273H529.657V117.477H529.742C529.895 117.139 530.125 116.871 530.432 116.672C530.742 116.47 531.154 116.369 531.668 116.369C532.114 116.369 532.505 116.459 532.84 116.638C533.175 116.814 533.435 117.085 533.62 117.452C533.807 117.815 533.901 118.278 533.901 118.841V123H532.895V118.909C532.895 118.389 532.76 117.987 532.49 117.703C532.223 117.416 531.853 117.273 531.378 117.273C531.049 117.273 530.753 117.342 530.492 117.482C530.233 117.621 530.029 117.824 529.878 118.091C529.73 118.358 529.657 118.682 529.657 119.062ZM535.741 123V116.455H536.746V123H535.741ZM536.252 115.364C536.056 115.364 535.887 115.297 535.745 115.163C535.606 115.03 535.536 114.869 535.536 114.682C535.536 114.494 535.606 114.334 535.745 114.2C535.887 114.067 536.056 114 536.252 114C536.448 114 536.616 114.067 536.755 114.2C536.897 114.334 536.968 114.494 536.968 114.682C536.968 114.869 536.897 115.03 536.755 115.163C536.616 115.297 536.448 115.364 536.252 115.364ZM539.594 114.273V123H538.588V114.273H539.594ZM543.908 123.136C543.362 123.136 542.881 122.999 542.463 122.723C542.045 122.445 541.719 122.053 541.483 121.547C541.247 121.038 541.129 120.438 541.129 119.744C541.129 119.057 541.247 118.46 541.483 117.955C541.719 117.449 542.047 117.058 542.467 116.783C542.888 116.507 543.374 116.369 543.925 116.369C544.351 116.369 544.688 116.44 544.935 116.582C545.185 116.722 545.375 116.881 545.506 117.06C545.639 117.236 545.743 117.381 545.817 117.494H545.902V114.273H546.908V123H545.936V121.994H545.817C545.743 122.114 545.638 122.264 545.501 122.446C545.365 122.625 545.17 122.786 544.918 122.928C544.665 123.067 544.328 123.136 543.908 123.136ZM544.044 122.233C544.447 122.233 544.788 122.128 545.067 121.918C545.345 121.705 545.557 121.411 545.702 121.036C545.847 120.658 545.919 120.222 545.919 119.727C545.919 119.239 545.848 118.811 545.706 118.445C545.564 118.075 545.354 117.788 545.075 117.584C544.797 117.376 544.453 117.273 544.044 117.273C543.618 117.273 543.263 117.382 542.979 117.601C542.697 117.817 542.486 118.111 542.344 118.483C542.205 118.852 542.135 119.267 542.135 119.727C542.135 120.193 542.206 120.616 542.348 120.997C542.493 121.375 542.706 121.676 542.987 121.901C543.271 122.122 543.624 122.233 544.044 122.233ZM552.247 123V122.233L555.128 119.08C555.466 118.71 555.744 118.389 555.963 118.116C556.182 117.841 556.344 117.582 556.449 117.341C556.557 117.097 556.611 116.841 556.611 116.574C556.611 116.267 556.537 116.001 556.389 115.777C556.244 115.553 556.045 115.379 555.793 115.257C555.54 115.135 555.256 115.074 554.94 115.074C554.605 115.074 554.312 115.143 554.062 115.283C553.815 115.419 553.624 115.611 553.487 115.858C553.354 116.105 553.287 116.395 553.287 116.727H552.281C552.281 116.216 552.399 115.767 552.635 115.381C552.871 114.994 553.192 114.693 553.598 114.477C554.007 114.261 554.466 114.153 554.974 114.153C555.486 114.153 555.939 114.261 556.334 114.477C556.729 114.693 557.038 114.984 557.263 115.351C557.487 115.717 557.599 116.125 557.599 116.574C557.599 116.895 557.541 117.209 557.425 117.516C557.311 117.82 557.112 118.159 556.828 118.534C556.547 118.906 556.156 119.361 555.656 119.898L553.696 121.994V122.062H557.753V123H552.247ZM563.638 121.884C563.428 121.884 563.247 121.808 563.097 121.658C562.946 121.507 562.871 121.327 562.871 121.116C562.871 120.906 562.946 120.726 563.097 120.575C563.247 120.425 563.428 120.349 563.638 120.349C563.848 120.349 564.028 120.425 564.179 120.575C564.33 120.726 564.405 120.906 564.405 121.116C564.405 121.256 564.369 121.384 564.298 121.5C564.23 121.616 564.138 121.71 564.021 121.781C563.908 121.849 563.78 121.884 563.638 121.884ZM563.638 117.469C563.428 117.469 563.247 117.393 563.097 117.243C562.946 117.092 562.871 116.912 562.871 116.702C562.871 116.491 562.946 116.311 563.097 116.161C563.247 116.01 563.428 115.935 563.638 115.935C563.848 115.935 564.028 116.01 564.179 116.161C564.33 116.311 564.405 116.491 564.405 116.702C564.405 116.841 564.369 116.969 564.298 117.085C564.23 117.202 564.138 117.295 564.021 117.366C563.908 117.435 563.78 117.469 563.638 117.469ZM572.056 123.136C571.511 123.136 571.029 122.999 570.612 122.723C570.194 122.445 569.867 122.053 569.631 121.547C569.396 121.038 569.278 120.438 569.278 119.744C569.278 119.057 569.396 118.46 569.631 117.955C569.867 117.449 570.195 117.058 570.616 116.783C571.036 116.507 571.522 116.369 572.073 116.369C572.499 116.369 572.836 116.44 573.083 116.582C573.333 116.722 573.523 116.881 573.654 117.06C573.788 117.236 573.891 117.381 573.965 117.494H574.05V114.273H575.056V123H574.085V121.994H573.965C573.891 122.114 573.786 122.264 573.65 122.446C573.513 122.625 573.319 122.786 573.066 122.928C572.813 123.067 572.477 123.136 572.056 123.136ZM572.192 122.233C572.596 122.233 572.937 122.128 573.215 121.918C573.494 121.705 573.705 121.411 573.85 121.036C573.995 120.658 574.067 120.222 574.067 119.727C574.067 119.239 573.996 118.811 573.854 118.445C573.712 118.075 573.502 117.788 573.224 117.584C572.945 117.376 572.602 117.273 572.192 117.273C571.766 117.273 571.411 117.382 571.127 117.601C570.846 117.817 570.634 118.111 570.492 118.483C570.353 118.852 570.283 119.267 570.283 119.727C570.283 120.193 570.354 120.616 570.496 120.997C570.641 121.375 570.854 121.676 571.136 121.901C571.42 122.122 571.772 122.233 572.192 122.233ZM577.038 123V116.455H578.043V123H577.038ZM577.549 115.364C577.353 115.364 577.184 115.297 577.042 115.163C576.903 115.03 576.833 114.869 576.833 114.682C576.833 114.494 576.903 114.334 577.042 114.2C577.184 114.067 577.353 114 577.549 114C577.745 114 577.913 114.067 578.052 114.2C578.194 114.334 578.265 114.494 578.265 114.682C578.265 114.869 578.194 115.03 578.052 115.163C577.913 115.297 577.745 115.364 577.549 115.364ZM585.238 116.455L582.817 123H581.794L579.374 116.455H580.465L582.272 121.67H582.34L584.147 116.455H585.238ZM592.599 123.136C591.985 123.136 591.457 122.991 591.014 122.702C590.571 122.412 590.23 122.013 589.991 121.504C589.752 120.996 589.633 120.415 589.633 119.761C589.633 119.097 589.755 118.51 590 118.001C590.247 117.49 590.591 117.091 591.031 116.804C591.474 116.514 591.991 116.369 592.582 116.369C593.042 116.369 593.457 116.455 593.826 116.625C594.196 116.795 594.498 117.034 594.734 117.341C594.97 117.648 595.116 118.006 595.173 118.415H594.167C594.091 118.116 593.92 117.852 593.656 117.622C593.395 117.389 593.042 117.273 592.599 117.273C592.207 117.273 591.863 117.375 591.568 117.58C591.275 117.781 591.047 118.067 590.882 118.436C590.72 118.803 590.639 119.233 590.639 119.727C590.639 120.233 590.718 120.673 590.877 121.048C591.039 121.423 591.267 121.714 591.559 121.922C591.855 122.129 592.201 122.233 592.599 122.233C592.86 122.233 593.098 122.188 593.311 122.097C593.524 122.006 593.704 121.875 593.852 121.705C594 121.534 594.105 121.33 594.167 121.091H595.173C595.116 121.477 594.975 121.825 594.751 122.135C594.529 122.442 594.235 122.686 593.869 122.868C593.505 123.047 593.082 123.136 592.599 123.136ZM599.302 123.136C598.711 123.136 598.193 122.996 597.747 122.714C597.304 122.433 596.957 122.04 596.707 121.534C596.46 121.028 596.336 120.437 596.336 119.761C596.336 119.08 596.46 118.484 596.707 117.976C596.957 117.467 597.304 117.072 597.747 116.791C598.193 116.51 598.711 116.369 599.302 116.369C599.893 116.369 600.41 116.51 600.853 116.791C601.299 117.072 601.646 117.467 601.893 117.976C602.143 118.484 602.268 119.08 602.268 119.761C602.268 120.437 602.143 121.028 601.893 121.534C601.646 122.04 601.299 122.433 600.853 122.714C600.41 122.996 599.893 123.136 599.302 123.136ZM599.302 122.233C599.751 122.233 600.12 122.118 600.41 121.888C600.7 121.658 600.914 121.355 601.054 120.98C601.193 120.605 601.262 120.199 601.262 119.761C601.262 119.324 601.193 118.916 601.054 118.538C600.914 118.161 600.7 117.855 600.41 117.622C600.12 117.389 599.751 117.273 599.302 117.273C598.853 117.273 598.484 117.389 598.194 117.622C597.904 117.855 597.69 118.161 597.551 118.538C597.412 118.916 597.342 119.324 597.342 119.761C597.342 120.199 597.412 120.605 597.551 120.98C597.69 121.355 597.904 121.658 598.194 121.888C598.484 122.118 598.853 122.233 599.302 122.233ZM604.809 119.062V123H603.803V116.455H604.775V117.477H604.86C605.013 117.145 605.246 116.878 605.559 116.676C605.871 116.472 606.275 116.369 606.769 116.369C607.212 116.369 607.6 116.46 607.933 116.642C608.265 116.821 608.523 117.094 608.708 117.46C608.893 117.824 608.985 118.284 608.985 118.841V123H607.979V118.909C607.979 118.395 607.846 117.994 607.579 117.707C607.312 117.418 606.945 117.273 606.479 117.273C606.158 117.273 605.871 117.342 605.619 117.482C605.369 117.621 605.171 117.824 605.026 118.091C604.881 118.358 604.809 118.682 604.809 119.062ZM613.669 116.455V117.307H610.277V116.455H613.669ZM611.266 114.886H612.272V121.125C612.272 121.409 612.313 121.622 612.395 121.764C612.48 121.903 612.588 121.997 612.719 122.045C612.853 122.091 612.993 122.114 613.141 122.114C613.252 122.114 613.343 122.108 613.414 122.097C613.485 122.082 613.542 122.071 613.584 122.062L613.789 122.966C613.721 122.991 613.625 123.017 613.503 123.043C613.381 123.071 613.226 123.085 613.039 123.085C612.755 123.085 612.476 123.024 612.203 122.902C611.934 122.78 611.709 122.594 611.53 122.344C611.354 122.094 611.266 121.778 611.266 121.398V114.886ZM617.108 123.153C616.694 123.153 616.317 123.075 615.979 122.919C615.641 122.76 615.373 122.531 615.174 122.233C614.975 121.932 614.875 121.568 614.875 121.142C614.875 120.767 614.949 120.463 615.097 120.23C615.245 119.994 615.442 119.81 615.689 119.676C615.936 119.543 616.209 119.443 616.507 119.378C616.809 119.31 617.111 119.256 617.415 119.216C617.813 119.165 618.135 119.126 618.382 119.101C618.632 119.072 618.814 119.026 618.928 118.96C619.044 118.895 619.103 118.781 619.103 118.619V118.585C619.103 118.165 618.988 117.838 618.757 117.605C618.53 117.372 618.185 117.256 617.722 117.256C617.242 117.256 616.865 117.361 616.593 117.571C616.32 117.781 616.128 118.006 616.017 118.244L615.063 117.903C615.233 117.506 615.461 117.196 615.745 116.974C616.032 116.75 616.344 116.594 616.682 116.506C617.023 116.415 617.358 116.369 617.688 116.369C617.898 116.369 618.14 116.395 618.412 116.446C618.688 116.494 618.953 116.595 619.209 116.749C619.468 116.902 619.682 117.134 619.853 117.443C620.023 117.753 620.108 118.168 620.108 118.688V123H619.103V122.114H619.051C618.983 122.256 618.87 122.408 618.711 122.57C618.551 122.732 618.34 122.869 618.076 122.983C617.811 123.097 617.489 123.153 617.108 123.153ZM617.262 122.25C617.659 122.25 617.995 122.172 618.267 122.016C618.543 121.859 618.75 121.658 618.89 121.411C619.032 121.163 619.103 120.903 619.103 120.631V119.71C619.06 119.761 618.966 119.808 618.821 119.851C618.679 119.891 618.515 119.926 618.327 119.957C618.142 119.986 617.962 120.011 617.786 120.034C617.613 120.054 617.472 120.071 617.364 120.085C617.103 120.119 616.858 120.175 616.631 120.251C616.407 120.325 616.225 120.437 616.086 120.588C615.949 120.736 615.881 120.937 615.881 121.193C615.881 121.543 616.01 121.807 616.269 121.986C616.53 122.162 616.861 122.25 617.262 122.25ZM621.944 123V116.455H622.95V123H621.944ZM622.455 115.364C622.259 115.364 622.09 115.297 621.948 115.163C621.809 115.03 621.739 114.869 621.739 114.682C621.739 114.494 621.809 114.334 621.948 114.2C622.09 114.067 622.259 114 622.455 114C622.651 114 622.819 114.067 622.958 114.2C623.1 114.334 623.171 114.494 623.171 114.682C623.171 114.869 623.1 115.03 622.958 115.163C622.819 115.297 622.651 115.364 622.455 115.364ZM625.797 119.062V123H624.792V116.455H625.763V117.477H625.848C626.002 117.145 626.235 116.878 626.547 116.676C626.86 116.472 627.263 116.369 627.757 116.369C628.201 116.369 628.588 116.46 628.921 116.642C629.253 116.821 629.512 117.094 629.696 117.46C629.881 117.824 629.973 118.284 629.973 118.841V123H628.968V118.909C628.968 118.395 628.834 117.994 628.567 117.707C628.3 117.418 627.934 117.273 627.468 117.273C627.147 117.273 626.86 117.342 626.607 117.482C626.357 117.621 626.159 117.824 626.015 118.091C625.87 118.358 625.797 118.682 625.797 119.062ZM634.555 123.136C633.925 123.136 633.381 122.997 632.923 122.719C632.469 122.438 632.118 122.045 631.871 121.543C631.626 121.037 631.504 120.449 631.504 119.778C631.504 119.108 631.626 118.517 631.871 118.006C632.118 117.491 632.462 117.091 632.902 116.804C633.345 116.514 633.862 116.369 634.453 116.369C634.794 116.369 635.131 116.426 635.463 116.54C635.795 116.653 636.098 116.838 636.371 117.094C636.643 117.347 636.861 117.682 637.023 118.099C637.185 118.517 637.266 119.031 637.266 119.642V120.068H632.22V119.199H636.243C636.243 118.83 636.169 118.5 636.021 118.21C635.876 117.92 635.669 117.692 635.399 117.524C635.132 117.357 634.817 117.273 634.453 117.273C634.053 117.273 633.706 117.372 633.413 117.571C633.124 117.767 632.901 118.023 632.744 118.338C632.588 118.653 632.51 118.991 632.51 119.352V119.932C632.51 120.426 632.595 120.845 632.766 121.189C632.939 121.53 633.179 121.79 633.486 121.969C633.793 122.145 634.149 122.233 634.555 122.233C634.82 122.233 635.058 122.196 635.271 122.122C635.487 122.045 635.673 121.932 635.83 121.781C635.986 121.628 636.107 121.437 636.192 121.21L637.163 121.483C637.061 121.812 636.889 122.102 636.648 122.352C636.406 122.599 636.108 122.793 635.753 122.932C635.398 123.068 634.999 123.136 634.555 123.136ZM638.795 123V116.455H639.767V117.443H639.835C639.955 117.119 640.17 116.857 640.483 116.655C640.795 116.453 641.148 116.352 641.54 116.352C641.614 116.352 641.706 116.354 641.817 116.357C641.928 116.359 642.011 116.364 642.068 116.369V117.392C642.034 117.384 641.956 117.371 641.834 117.354C641.714 117.334 641.588 117.324 641.455 117.324C641.136 117.324 640.852 117.391 640.602 117.524C640.355 117.655 640.159 117.837 640.014 118.07C639.872 118.3 639.801 118.562 639.801 118.858V123H638.795ZM649.294 123.136C648.703 123.136 648.185 122.996 647.739 122.714C647.296 122.433 646.949 122.04 646.699 121.534C646.452 121.028 646.328 120.437 646.328 119.761C646.328 119.08 646.452 118.484 646.699 117.976C646.949 117.467 647.296 117.072 647.739 116.791C648.185 116.51 648.703 116.369 649.294 116.369C649.885 116.369 650.402 116.51 650.846 116.791C651.292 117.072 651.638 117.467 651.885 117.976C652.135 118.484 652.26 119.08 652.26 119.761C652.26 120.437 652.135 121.028 651.885 121.534C651.638 122.04 651.292 122.433 650.846 122.714C650.402 122.996 649.885 123.136 649.294 123.136ZM649.294 122.233C649.743 122.233 650.113 122.118 650.402 121.888C650.692 121.658 650.907 121.355 651.046 120.98C651.185 120.605 651.255 120.199 651.255 119.761C651.255 119.324 651.185 118.916 651.046 118.538C650.907 118.161 650.692 117.855 650.402 117.622C650.113 117.389 649.743 117.273 649.294 117.273C648.846 117.273 648.476 117.389 648.186 117.622C647.897 117.855 647.682 118.161 647.543 118.538C647.404 118.916 647.334 119.324 647.334 119.761C647.334 120.199 647.404 120.605 647.543 120.98C647.682 121.355 647.897 121.658 648.186 121.888C648.476 122.118 648.846 122.233 649.294 122.233ZM656.71 116.455V117.307H653.182V116.455H656.71ZM654.239 123V115.551C654.239 115.176 654.327 114.864 654.503 114.614C654.679 114.364 654.908 114.176 655.189 114.051C655.47 113.926 655.767 113.864 656.08 113.864C656.327 113.864 656.528 113.884 656.685 113.923C656.841 113.963 656.957 114 657.034 114.034L656.744 114.903C656.693 114.886 656.622 114.865 656.531 114.839C656.443 114.814 656.327 114.801 656.182 114.801C655.849 114.801 655.609 114.885 655.462 115.053C655.317 115.22 655.244 115.466 655.244 115.79V123H654.239ZM661.631 123V114.273H662.637V117.494H662.722C662.796 117.381 662.898 117.236 663.029 117.06C663.162 116.881 663.353 116.722 663.6 116.582C663.85 116.44 664.188 116.369 664.614 116.369C665.165 116.369 665.651 116.507 666.071 116.783C666.492 117.058 666.82 117.449 667.056 117.955C667.292 118.46 667.409 119.057 667.409 119.744C667.409 120.438 667.292 121.038 667.056 121.547C666.82 122.053 666.493 122.445 666.076 122.723C665.658 122.999 665.176 123.136 664.631 123.136C664.211 123.136 663.874 123.067 663.621 122.928C663.368 122.786 663.174 122.625 663.037 122.446C662.901 122.264 662.796 122.114 662.722 121.994H662.603V123H661.631ZM662.62 119.727C662.62 120.222 662.692 120.658 662.837 121.036C662.982 121.411 663.194 121.705 663.472 121.918C663.75 122.128 664.091 122.233 664.495 122.233C664.915 122.233 665.266 122.122 665.547 121.901C665.831 121.676 666.044 121.375 666.186 120.997C666.331 120.616 666.404 120.193 666.404 119.727C666.404 119.267 666.333 118.852 666.191 118.483C666.051 118.111 665.84 117.817 665.556 117.601C665.275 117.382 664.921 117.273 664.495 117.273C664.086 117.273 663.742 117.376 663.463 117.584C663.185 117.788 662.975 118.075 662.833 118.445C662.691 118.811 662.62 119.239 662.62 119.727ZM673.073 120.324V116.455H674.078V123H673.073V121.892H673.005C672.851 122.224 672.613 122.507 672.289 122.74C671.965 122.97 671.556 123.085 671.061 123.085C670.652 123.085 670.289 122.996 669.971 122.817C669.652 122.635 669.402 122.362 669.221 121.999C669.039 121.632 668.948 121.17 668.948 120.614V116.455H669.953V120.545C669.953 121.023 670.087 121.403 670.354 121.688C670.624 121.972 670.968 122.114 671.385 122.114C671.635 122.114 671.89 122.05 672.148 121.922C672.409 121.794 672.628 121.598 672.804 121.334C672.983 121.07 673.073 120.733 673.073 120.324ZM678.767 116.455V117.307H675.375V116.455H678.767ZM676.364 114.886H677.369V121.125C677.369 121.409 677.411 121.622 677.493 121.764C677.578 121.903 677.686 121.997 677.817 122.045C677.95 122.091 678.091 122.114 678.239 122.114C678.349 122.114 678.44 122.108 678.511 122.097C678.582 122.082 678.639 122.071 678.682 122.062L678.886 122.966C678.818 122.991 678.723 123.017 678.601 123.043C678.479 123.071 678.324 123.085 678.136 123.085C677.852 123.085 677.574 123.024 677.301 122.902C677.031 122.78 676.807 122.594 676.628 122.344C676.452 122.094 676.364 121.778 676.364 121.398V114.886ZM683.126 116.455V117.307H679.734V116.455H683.126ZM680.723 114.886H681.729V121.125C681.729 121.409 681.77 121.622 681.852 121.764C681.938 121.903 682.045 121.997 682.176 122.045C682.31 122.091 682.45 122.114 682.598 122.114C682.709 122.114 682.8 122.108 682.871 122.097C682.942 122.082 682.999 122.071 683.041 122.062L683.246 122.966C683.178 122.991 683.082 123.017 682.96 123.043C682.838 123.071 682.683 123.085 682.496 123.085C682.212 123.085 681.933 123.024 681.661 122.902C681.391 122.78 681.166 122.594 680.987 122.344C680.811 122.094 680.723 121.778 680.723 121.398V114.886ZM687.228 123.136C686.637 123.136 686.119 122.996 685.673 122.714C685.229 122.433 684.883 122.04 684.633 121.534C684.386 121.028 684.262 120.437 684.262 119.761C684.262 119.08 684.386 118.484 684.633 117.976C684.883 117.467 685.229 117.072 685.673 116.791C686.119 116.51 686.637 116.369 687.228 116.369C687.819 116.369 688.336 116.51 688.779 116.791C689.225 117.072 689.572 117.467 689.819 117.976C690.069 118.484 690.194 119.08 690.194 119.761C690.194 120.437 690.069 121.028 689.819 121.534C689.572 122.04 689.225 122.433 688.779 122.714C688.336 122.996 687.819 123.136 687.228 123.136ZM687.228 122.233C687.677 122.233 688.046 122.118 688.336 121.888C688.626 121.658 688.84 121.355 688.979 120.98C689.119 120.605 689.188 120.199 689.188 119.761C689.188 119.324 689.119 118.916 688.979 118.538C688.84 118.161 688.626 117.855 688.336 117.622C688.046 117.389 687.677 117.273 687.228 117.273C686.779 117.273 686.41 117.389 686.12 117.622C685.83 117.855 685.616 118.161 685.477 118.538C685.337 118.916 685.268 119.324 685.268 119.761C685.268 120.199 685.337 120.605 685.477 120.98C685.616 121.355 685.83 121.658 686.12 121.888C686.41 122.118 686.779 122.233 687.228 122.233ZM692.735 119.062V123H691.729V116.455H692.701V117.477H692.786C692.939 117.145 693.172 116.878 693.485 116.676C693.797 116.472 694.201 116.369 694.695 116.369C695.138 116.369 695.526 116.46 695.858 116.642C696.191 116.821 696.449 117.094 696.634 117.46C696.819 117.824 696.911 118.284 696.911 118.841V123H695.905V118.909C695.905 118.395 695.772 117.994 695.505 117.707C695.238 117.418 694.871 117.273 694.405 117.273C694.084 117.273 693.797 117.342 693.544 117.482C693.294 117.621 693.097 117.824 692.952 118.091C692.807 118.358 692.735 118.682 692.735 119.062ZM703.385 117.92L702.482 118.176C702.425 118.026 702.341 117.879 702.23 117.737C702.122 117.592 701.974 117.473 701.787 117.379C701.599 117.286 701.359 117.239 701.067 117.239C700.666 117.239 700.332 117.331 700.065 117.516C699.801 117.697 699.669 117.929 699.669 118.21C699.669 118.46 699.76 118.658 699.942 118.803C700.124 118.947 700.408 119.068 700.794 119.165L701.766 119.403C702.351 119.545 702.787 119.763 703.074 120.055C703.361 120.345 703.504 120.719 703.504 121.176C703.504 121.551 703.396 121.886 703.18 122.182C702.967 122.477 702.669 122.71 702.286 122.881C701.902 123.051 701.456 123.136 700.947 123.136C700.28 123.136 699.727 122.991 699.29 122.702C698.852 122.412 698.575 121.989 698.459 121.432L699.413 121.193C699.504 121.545 699.676 121.81 699.929 121.986C700.185 122.162 700.518 122.25 700.93 122.25C701.399 122.25 701.771 122.151 702.047 121.952C702.325 121.75 702.464 121.509 702.464 121.227C702.464 121 702.385 120.81 702.226 120.656C702.067 120.5 701.822 120.384 701.493 120.307L700.402 120.051C699.803 119.909 699.362 119.689 699.081 119.391C698.803 119.089 698.663 118.713 698.663 118.261C698.663 117.892 698.767 117.565 698.974 117.281C699.185 116.997 699.47 116.774 699.831 116.612C700.195 116.45 700.607 116.369 701.067 116.369C701.714 116.369 702.223 116.511 702.592 116.795C702.964 117.08 703.229 117.455 703.385 117.92Z" fill="#344054"/>
</svg>
