<svg width="437" height="424" viewBox="0 0 437 424" fill="none" xmlns="http://www.w3.org/2000/svg">
<rect x="0.5" y="38.5" width="383" height="385" rx="4.5" fill="white"/>
<path fill-rule="evenodd" clip-rule="evenodd" d="M41.031 68.469C41.1008 68.5387 41.1563 68.6214 41.1941 68.7125C41.2319 68.8037 41.2513 68.9013 41.2513 69C41.2513 69.0986 41.2319 69.1963 41.1941 69.2874C41.1563 69.3786 41.1008 69.4613 41.031 69.531L32.5605 78L41.031 86.469C41.1718 86.6098 41.2509 86.8008 41.2509 87C41.2509 87.1992 41.1718 87.3902 41.031 87.531C40.8902 87.6718 40.6992 87.7509 40.5 87.7509C40.3008 87.7509 40.1098 87.6718 39.969 87.531L30.969 78.531C30.8992 78.4613 30.8437 78.3786 30.8059 78.2874C30.7681 78.1963 30.7487 78.0986 30.7487 78C30.7487 77.9013 30.7681 77.8037 30.8059 77.7125C30.8437 77.6214 30.8992 77.5387 30.969 77.469L39.969 68.469C40.0387 68.3992 40.1214 68.3437 40.2125 68.3059C40.3037 68.2681 40.4013 68.2487 40.5 68.2487C40.5987 68.2487 40.6963 68.2681 40.7874 68.3059C40.8786 68.3437 40.9613 68.3992 41.031 68.469V68.469Z" fill="#4A1FB8"/>
<path d="M129.386 84V72.264H136.784V74.496H132.032V77.214H136.1V79.446H132.032V84H129.386ZM142.289 84.216C141.437 84.216 140.669 84.03 139.985 83.658C139.301 83.286 138.761 82.752 138.365 82.056C137.969 81.36 137.771 80.52 137.771 79.536C137.771 78.564 137.969 77.73 138.365 77.034C138.773 76.338 139.301 75.804 139.949 75.432C140.597 75.048 141.275 74.856 141.983 74.856C142.835 74.856 143.537 75.048 144.089 75.432C144.653 75.804 145.073 76.314 145.349 76.962C145.637 77.598 145.781 78.324 145.781 79.14C145.781 79.368 145.769 79.596 145.745 79.824C145.721 80.04 145.697 80.202 145.673 80.31H140.327C140.447 80.958 140.717 81.438 141.137 81.75C141.557 82.05 142.061 82.2 142.649 82.2C143.285 82.2 143.927 82.002 144.575 81.606L145.457 83.208C145.001 83.52 144.491 83.766 143.927 83.946C143.363 84.126 142.817 84.216 142.289 84.216ZM140.309 78.564H143.531C143.531 78.072 143.411 77.67 143.171 77.358C142.943 77.034 142.565 76.872 142.037 76.872C141.629 76.872 141.263 77.016 140.939 77.304C140.615 77.58 140.405 78 140.309 78.564ZM152.289 84.216C151.893 84.216 151.491 84.12 151.083 83.928C150.687 83.724 150.315 83.43 149.967 83.046H149.895L149.679 84H147.609V71.382H150.255V74.478L150.183 75.846C150.531 75.534 150.909 75.294 151.317 75.126C151.725 74.946 152.133 74.856 152.541 74.856C153.261 74.856 153.885 75.042 154.413 75.414C154.941 75.786 155.343 76.314 155.619 76.998C155.907 77.67 156.051 78.462 156.051 79.374C156.051 80.394 155.871 81.27 155.511 82.002C155.151 82.722 154.683 83.274 154.107 83.658C153.543 84.03 152.937 84.216 152.289 84.216ZM151.677 82.056C152.133 82.056 152.523 81.846 152.847 81.426C153.171 81.006 153.333 80.34 153.333 79.428C153.333 77.82 152.817 77.016 151.785 77.016C151.257 77.016 150.747 77.286 150.255 77.826V81.48C150.495 81.696 150.735 81.846 150.975 81.93C151.215 82.014 151.449 82.056 151.677 82.056ZM157.928 84V75.072H160.088L160.268 76.638H160.34C160.664 76.038 161.054 75.594 161.51 75.306C161.966 75.006 162.422 74.856 162.878 74.856C163.13 74.856 163.34 74.874 163.508 74.91C163.676 74.934 163.82 74.976 163.94 75.036L163.508 77.322C163.352 77.274 163.196 77.238 163.04 77.214C162.896 77.19 162.728 77.178 162.536 77.178C162.2 77.178 161.846 77.304 161.474 77.556C161.114 77.796 160.814 78.216 160.574 78.816V84H157.928ZM167.782 84.216C166.81 84.216 166.102 83.898 165.658 83.262C165.226 82.614 165.01 81.732 165.01 80.616V75.072H167.656V80.274C167.656 80.91 167.746 81.354 167.926 81.606C168.106 81.846 168.388 81.966 168.772 81.966C169.108 81.966 169.39 81.888 169.618 81.732C169.846 81.576 170.092 81.324 170.356 80.976V75.072H173.002V84H170.842L170.644 82.758H170.59C170.218 83.202 169.81 83.556 169.366 83.82C168.922 84.084 168.394 84.216 167.782 84.216ZM177.58 84.216C176.764 84.216 176.116 83.958 175.636 83.442C175.156 82.914 174.916 82.272 174.916 81.516C174.916 80.58 175.312 79.848 176.104 79.32C176.896 78.792 178.174 78.438 179.938 78.258C179.914 77.862 179.794 77.55 179.578 77.322C179.374 77.082 179.026 76.962 178.534 76.962C178.162 76.962 177.784 77.034 177.4 77.178C177.016 77.322 176.608 77.52 176.176 77.772L175.222 76.026C175.786 75.678 176.386 75.396 177.022 75.18C177.67 74.964 178.342 74.856 179.038 74.856C180.178 74.856 181.054 75.186 181.666 75.846C182.278 76.506 182.584 77.52 182.584 78.888V84H180.424L180.244 83.082H180.172C179.8 83.418 179.398 83.694 178.966 83.91C178.546 84.114 178.084 84.216 177.58 84.216ZM178.48 82.164C178.78 82.164 179.038 82.098 179.254 81.966C179.482 81.822 179.71 81.636 179.938 81.408V79.842C179.002 79.962 178.354 80.154 177.994 80.418C177.634 80.67 177.454 80.97 177.454 81.318C177.454 81.606 177.544 81.822 177.724 81.966C177.916 82.098 178.168 82.164 178.48 82.164ZM184.822 84V75.072H186.982L187.162 76.638H187.234C187.558 76.038 187.948 75.594 188.404 75.306C188.86 75.006 189.316 74.856 189.772 74.856C190.024 74.856 190.234 74.874 190.402 74.91C190.57 74.934 190.714 74.976 190.834 75.036L190.402 77.322C190.246 77.274 190.09 77.238 189.934 77.214C189.79 77.19 189.622 77.178 189.43 77.178C189.094 77.178 188.74 77.304 188.368 77.556C188.008 77.796 187.708 78.216 187.468 78.816V84H184.822ZM193.107 87.492C192.843 87.492 192.609 87.474 192.405 87.438C192.213 87.402 192.027 87.36 191.847 87.312L192.315 85.296C192.399 85.308 192.495 85.326 192.603 85.35C192.711 85.386 192.813 85.404 192.909 85.404C193.353 85.404 193.695 85.296 193.935 85.08C194.175 84.864 194.355 84.582 194.475 84.234L194.601 83.766L191.163 75.072H193.827L195.105 78.906C195.237 79.314 195.357 79.728 195.465 80.148C195.573 80.568 195.687 81 195.807 81.444H195.879C195.975 81.024 196.071 80.604 196.167 80.184C196.275 79.752 196.383 79.326 196.491 78.906L197.571 75.072H200.109L197.013 84.09C196.737 84.834 196.431 85.458 196.095 85.962C195.759 86.478 195.351 86.862 194.871 87.114C194.403 87.366 193.815 87.492 193.107 87.492Z" fill="#4A1FB8"/>
<path d="M217.666 84V82.488C218.638 81.564 219.496 80.73 220.24 79.986C220.996 79.23 221.584 78.54 222.004 77.916C222.424 77.28 222.634 76.692 222.634 76.152C222.634 75.588 222.484 75.162 222.184 74.874C221.896 74.574 221.506 74.424 221.014 74.424C220.606 74.424 220.234 74.544 219.898 74.784C219.574 75.012 219.268 75.282 218.98 75.594L217.54 74.172C218.104 73.572 218.68 73.122 219.268 72.822C219.856 72.51 220.558 72.354 221.374 72.354C222.13 72.354 222.79 72.504 223.354 72.804C223.918 73.104 224.356 73.53 224.668 74.082C224.992 74.622 225.154 75.258 225.154 75.99C225.154 76.626 224.974 77.28 224.614 77.952C224.266 78.612 223.816 79.278 223.264 79.95C222.712 80.61 222.124 81.264 221.5 81.912C221.788 81.876 222.112 81.846 222.472 81.822C222.832 81.786 223.144 81.768 223.408 81.768H225.712V84H217.666ZM231.262 84.216C230.038 84.216 229.048 83.706 228.292 82.686C227.548 81.666 227.176 80.184 227.176 78.24C227.176 76.296 227.548 74.832 228.292 73.848C229.048 72.852 230.038 72.354 231.262 72.354C232.486 72.354 233.47 72.852 234.214 73.848C234.97 74.832 235.348 76.296 235.348 78.24C235.348 80.184 234.97 81.666 234.214 82.686C233.47 83.706 232.486 84.216 231.262 84.216ZM231.262 82.164C231.562 82.164 231.832 82.056 232.072 81.84C232.312 81.612 232.498 81.216 232.63 80.652C232.774 80.088 232.846 79.284 232.846 78.24C232.846 77.196 232.774 76.398 232.63 75.846C232.498 75.294 232.312 74.916 232.072 74.712C231.832 74.508 231.562 74.406 231.262 74.406C230.974 74.406 230.71 74.508 230.47 74.712C230.23 74.916 230.038 75.294 229.894 75.846C229.75 76.398 229.678 77.196 229.678 78.24C229.678 79.284 229.75 80.088 229.894 80.652C230.038 81.216 230.23 81.612 230.47 81.84C230.71 82.056 230.974 82.164 231.262 82.164ZM236.686 84V82.488C237.658 81.564 238.516 80.73 239.26 79.986C240.016 79.23 240.604 78.54 241.024 77.916C241.444 77.28 241.654 76.692 241.654 76.152C241.654 75.588 241.504 75.162 241.204 74.874C240.916 74.574 240.526 74.424 240.034 74.424C239.626 74.424 239.254 74.544 238.918 74.784C238.594 75.012 238.288 75.282 238 75.594L236.56 74.172C237.124 73.572 237.7 73.122 238.288 72.822C238.876 72.51 239.578 72.354 240.394 72.354C241.15 72.354 241.81 72.504 242.374 72.804C242.938 73.104 243.376 73.53 243.688 74.082C244.012 74.622 244.174 75.258 244.174 75.99C244.174 76.626 243.994 77.28 243.634 77.952C243.286 78.612 242.836 79.278 242.284 79.95C241.732 80.61 241.144 81.264 240.52 81.912C240.808 81.876 241.132 81.846 241.492 81.822C241.852 81.786 242.164 81.768 242.428 81.768H244.732V84H236.686ZM246.195 84V82.488C247.167 81.564 248.025 80.73 248.769 79.986C249.525 79.23 250.113 78.54 250.533 77.916C250.953 77.28 251.163 76.692 251.163 76.152C251.163 75.588 251.013 75.162 250.713 74.874C250.425 74.574 250.035 74.424 249.543 74.424C249.135 74.424 248.763 74.544 248.427 74.784C248.103 75.012 247.797 75.282 247.509 75.594L246.069 74.172C246.633 73.572 247.209 73.122 247.797 72.822C248.385 72.51 249.087 72.354 249.903 72.354C250.659 72.354 251.319 72.504 251.883 72.804C252.447 73.104 252.885 73.53 253.197 74.082C253.521 74.622 253.683 75.258 253.683 75.99C253.683 76.626 253.503 77.28 253.143 77.952C252.795 78.612 252.345 79.278 251.793 79.95C251.241 80.61 250.653 81.264 250.029 81.912C250.317 81.876 250.641 81.846 251.001 81.822C251.361 81.786 251.673 81.768 251.937 81.768H254.241V84H246.195Z" fill="#4A1FB8"/>
<path fill-rule="evenodd" clip-rule="evenodd" d="M342.969 68.469C343.039 68.3992 343.121 68.3437 343.213 68.3059C343.304 68.2681 343.401 68.2487 343.5 68.2487C343.599 68.2487 343.696 68.2681 343.787 68.3059C343.879 68.3437 343.961 68.3992 344.031 68.469L353.031 77.469C353.101 77.5387 353.156 77.6214 353.194 77.7125C353.232 77.8037 353.251 77.9013 353.251 78C353.251 78.0986 353.232 78.1963 353.194 78.2874C353.156 78.3786 353.101 78.4613 353.031 78.531L344.031 87.531C343.89 87.6718 343.699 87.7509 343.5 87.7509C343.301 87.7509 343.11 87.6718 342.969 87.531C342.828 87.3902 342.749 87.1992 342.749 87C342.749 86.8008 342.828 86.6098 342.969 86.469L351.44 78L342.969 69.531C342.899 69.4613 342.844 69.3786 342.806 69.2874C342.768 69.1963 342.749 69.0986 342.749 69C342.749 68.9013 342.768 68.8037 342.806 68.7125C342.844 68.6214 342.899 68.5387 342.969 68.469V68.469Z" fill="#4A1FB8"/>
<path d="M37.896 142.216C37.068 142.216 36.3 142.06 35.592 141.748C34.884 141.424 34.272 140.998 33.756 140.47L34.656 139.426C35.076 139.87 35.568 140.23 36.132 140.506C36.708 140.77 37.302 140.902 37.914 140.902C38.694 140.902 39.3 140.728 39.732 140.38C40.164 140.02 40.38 139.552 40.38 138.976C40.38 138.568 40.29 138.244 40.11 138.004C39.942 137.764 39.708 137.56 39.408 137.392C39.12 137.224 38.79 137.056 38.418 136.888L36.726 136.15C36.354 135.994 35.982 135.79 35.61 135.538C35.25 135.286 34.944 134.962 34.692 134.566C34.452 134.17 34.332 133.684 34.332 133.108C34.332 132.508 34.488 131.974 34.8 131.506C35.124 131.026 35.568 130.654 36.132 130.39C36.696 130.114 37.332 129.976 38.04 129.976C38.748 129.976 39.402 130.114 40.002 130.39C40.602 130.654 41.112 131.002 41.532 131.434L40.722 132.406C40.362 132.058 39.96 131.788 39.516 131.596C39.084 131.392 38.592 131.29 38.04 131.29C37.38 131.29 36.846 131.446 36.438 131.758C36.042 132.07 35.844 132.49 35.844 133.018C35.844 133.39 35.94 133.702 36.132 133.954C36.336 134.194 36.588 134.392 36.888 134.548C37.188 134.704 37.494 134.848 37.806 134.98L39.48 135.7C39.936 135.892 40.344 136.126 40.704 136.402C41.076 136.666 41.37 136.996 41.586 137.392C41.802 137.776 41.91 138.262 41.91 138.85C41.91 139.474 41.748 140.044 41.424 140.56C41.1 141.064 40.638 141.466 40.038 141.766C39.438 142.066 38.724 142.216 37.896 142.216ZM46.6472 142.216C45.7232 142.216 45.0452 141.928 44.6132 141.352C44.1812 140.764 43.9652 139.912 43.9652 138.796V133.252H45.4592V138.598C45.4592 139.414 45.5852 140.008 45.8372 140.38C46.1012 140.752 46.5212 140.938 47.0972 140.938C47.5532 140.938 47.9552 140.824 48.3032 140.596C48.6632 140.356 49.0472 139.978 49.4552 139.462V133.252H50.9312V142H49.7072L49.5812 140.632H49.5272C49.1192 141.112 48.6872 141.496 48.2312 141.784C47.7752 142.072 47.2472 142.216 46.6472 142.216ZM53.8823 142V133.252H55.1063L55.2323 134.512H55.2863C55.7063 134.092 56.1503 133.744 56.6183 133.468C57.0863 133.18 57.6203 133.036 58.2203 133.036C59.1443 133.036 59.8163 133.33 60.2363 133.918C60.6683 134.494 60.8843 135.34 60.8843 136.456V142H59.4083V136.654C59.4083 135.838 59.2763 135.244 59.0123 134.872C58.7483 134.5 58.3283 134.314 57.7523 134.314C57.3083 134.314 56.9063 134.428 56.5463 134.656C56.1983 134.884 55.8023 135.22 55.3583 135.664V142H53.8823Z" fill="#344054"/>
<path d="M81.12 142V130.192H82.92L85.188 136.492C85.332 136.9 85.47 137.314 85.602 137.734C85.746 138.142 85.89 138.55 86.034 138.958H86.106C86.25 138.55 86.382 138.142 86.502 137.734C86.634 137.314 86.772 136.9 86.916 136.492L89.148 130.192H90.966V142H89.562V135.502C89.562 134.974 89.586 134.392 89.634 133.756C89.682 133.108 89.724 132.526 89.76 132.01H89.688L88.752 134.692L86.52 140.812H85.53L83.298 134.692L82.362 132.01H82.29C82.326 132.526 82.362 133.108 82.398 133.756C82.446 134.392 82.47 134.974 82.47 135.502V142H81.12ZM97.4561 142.216C96.7481 142.216 96.0821 142.036 95.4581 141.676C94.8461 141.316 94.3481 140.794 93.9641 140.11C93.5921 139.426 93.4061 138.604 93.4061 137.644C93.4061 136.66 93.5921 135.826 93.9641 135.142C94.3481 134.458 94.8461 133.936 95.4581 133.576C96.0821 133.216 96.7481 133.036 97.4561 133.036C98.1761 133.036 98.8421 133.216 99.4541 133.576C100.066 133.936 100.558 134.458 100.93 135.142C101.314 135.826 101.506 136.66 101.506 137.644C101.506 138.604 101.314 139.426 100.93 140.11C100.558 140.794 100.066 141.316 99.4541 141.676C98.8421 142.036 98.1761 142.216 97.4561 142.216ZM97.4561 140.992C98.2121 140.992 98.8181 140.686 99.2741 140.074C99.7421 139.45 99.9761 138.64 99.9761 137.644C99.9761 136.636 99.7421 135.82 99.2741 135.196C98.8181 134.572 98.2121 134.26 97.4561 134.26C96.7121 134.26 96.1061 134.572 95.6381 135.196C95.1701 135.82 94.9361 136.636 94.9361 137.644C94.9361 138.64 95.1701 139.45 95.6381 140.074C96.1061 140.686 96.7121 140.992 97.4561 140.992ZM103.81 142V133.252H105.034L105.16 134.512H105.214C105.634 134.092 106.078 133.744 106.546 133.468C107.014 133.18 107.548 133.036 108.148 133.036C109.072 133.036 109.744 133.33 110.164 133.918C110.596 134.494 110.812 135.34 110.812 136.456V142H109.336V136.654C109.336 135.838 109.204 135.244 108.94 134.872C108.676 134.5 108.256 134.314 107.68 134.314C107.236 134.314 106.834 134.428 106.474 134.656C106.126 134.884 105.73 135.22 105.286 135.664V142H103.81Z" fill="#344054"/>
<path d="M134.068 142V131.452H130.504V130.192H139.144V131.452H135.58V142H134.068ZM142.856 142.216C141.932 142.216 141.254 141.928 140.822 141.352C140.39 140.764 140.174 139.912 140.174 138.796V133.252H141.668V138.598C141.668 139.414 141.794 140.008 142.046 140.38C142.31 140.752 142.73 140.938 143.306 140.938C143.762 140.938 144.164 140.824 144.512 140.596C144.872 140.356 145.256 139.978 145.664 139.462V133.252H147.14V142H145.916L145.79 140.632H145.736C145.328 141.112 144.896 141.496 144.44 141.784C143.984 142.072 143.456 142.216 142.856 142.216ZM153.637 142.216C152.857 142.216 152.149 142.036 151.513 141.676C150.877 141.304 150.373 140.776 150.001 140.092C149.629 139.408 149.443 138.592 149.443 137.644C149.443 136.684 149.629 135.862 150.001 135.178C150.385 134.494 150.877 133.966 151.477 133.594C152.077 133.222 152.707 133.036 153.367 133.036C154.483 133.036 155.341 133.408 155.941 134.152C156.553 134.896 156.859 135.892 156.859 137.14C156.859 137.296 156.853 137.452 156.841 137.608C156.841 137.752 156.829 137.878 156.805 137.986H150.901C150.961 138.91 151.249 139.648 151.765 140.2C152.293 140.752 152.977 141.028 153.817 141.028C154.237 141.028 154.621 140.968 154.969 140.848C155.329 140.716 155.671 140.548 155.995 140.344L156.517 141.316C156.145 141.556 155.719 141.766 155.239 141.946C154.771 142.126 154.237 142.216 153.637 142.216ZM150.883 136.924H155.563C155.563 136.036 155.371 135.364 154.987 134.908C154.615 134.44 154.087 134.206 153.403 134.206C152.791 134.206 152.239 134.446 151.747 134.926C151.267 135.394 150.979 136.06 150.883 136.924Z" fill="#344054"/>
<path d="M177.916 142L175.414 130.192H176.962L178.204 136.618C178.312 137.254 178.426 137.89 178.546 138.526C178.666 139.162 178.78 139.798 178.888 140.434H178.96C179.092 139.798 179.23 139.162 179.374 138.526C179.518 137.878 179.656 137.242 179.788 136.618L181.426 130.192H182.794L184.432 136.618C184.576 137.242 184.72 137.878 184.864 138.526C185.008 139.162 185.152 139.798 185.296 140.434H185.368C185.476 139.798 185.584 139.162 185.692 138.526C185.8 137.878 185.914 137.242 186.034 136.618L187.276 130.192H188.716L186.268 142H184.468L182.686 134.89C182.578 134.434 182.476 133.99 182.38 133.558C182.296 133.114 182.206 132.664 182.11 132.208H182.038C181.954 132.664 181.858 133.114 181.75 133.558C181.642 133.99 181.54 134.434 181.444 134.89L179.698 142H177.916ZM194.172 142.216C193.392 142.216 192.684 142.036 192.048 141.676C191.412 141.304 190.908 140.776 190.536 140.092C190.164 139.408 189.978 138.592 189.978 137.644C189.978 136.684 190.164 135.862 190.536 135.178C190.92 134.494 191.412 133.966 192.012 133.594C192.612 133.222 193.242 133.036 193.902 133.036C195.018 133.036 195.876 133.408 196.476 134.152C197.088 134.896 197.394 135.892 197.394 137.14C197.394 137.296 197.388 137.452 197.376 137.608C197.376 137.752 197.364 137.878 197.34 137.986H191.436C191.496 138.91 191.784 139.648 192.3 140.2C192.828 140.752 193.512 141.028 194.352 141.028C194.772 141.028 195.156 140.968 195.504 140.848C195.864 140.716 196.206 140.548 196.53 140.344L197.052 141.316C196.68 141.556 196.254 141.766 195.774 141.946C195.306 142.126 194.772 142.216 194.172 142.216ZM191.418 136.924H196.098C196.098 136.036 195.906 135.364 195.522 134.908C195.15 134.44 194.622 134.206 193.938 134.206C193.326 134.206 192.774 134.446 192.282 134.926C191.802 135.394 191.514 136.06 191.418 136.924ZM202.544 142.216C201.452 142.216 200.576 141.82 199.916 141.028C199.256 140.224 198.926 139.096 198.926 137.644C198.926 136.696 199.1 135.88 199.448 135.196C199.808 134.5 200.276 133.966 200.852 133.594C201.44 133.222 202.064 133.036 202.724 133.036C203.228 133.036 203.666 133.126 204.038 133.306C204.41 133.486 204.788 133.732 205.172 134.044L205.1 132.55V129.184H206.594V142H205.37L205.244 140.974H205.19C204.854 141.31 204.458 141.604 204.002 141.856C203.546 142.096 203.06 142.216 202.544 142.216ZM202.868 140.974C203.636 140.974 204.38 140.572 205.1 139.768V135.196C204.728 134.86 204.368 134.626 204.02 134.494C203.684 134.35 203.336 134.278 202.976 134.278C202.508 134.278 202.082 134.422 201.698 134.71C201.326 134.986 201.026 135.376 200.798 135.88C200.57 136.372 200.456 136.954 200.456 137.626C200.456 138.67 200.666 139.492 201.086 140.092C201.506 140.68 202.1 140.974 202.868 140.974Z" fill="#344054"/>
<path d="M229.068 142V131.452H225.504V130.192H234.144V131.452H230.58V142H229.068ZM236.126 142V129.184H237.602V132.676L237.548 134.476C237.968 134.08 238.406 133.744 238.862 133.468C239.33 133.18 239.864 133.036 240.464 133.036C241.388 133.036 242.06 133.33 242.48 133.918C242.912 134.494 243.128 135.34 243.128 136.456V142H241.652V136.654C241.652 135.838 241.52 135.244 241.256 134.872C240.992 134.5 240.572 134.314 239.996 134.314C239.552 134.314 239.15 134.428 238.79 134.656C238.442 134.884 238.046 135.22 237.602 135.664V142H236.126ZM248.473 142.216C247.549 142.216 246.871 141.928 246.439 141.352C246.007 140.764 245.791 139.912 245.791 138.796V133.252H247.285V138.598C247.285 139.414 247.411 140.008 247.663 140.38C247.927 140.752 248.347 140.938 248.923 140.938C249.379 140.938 249.781 140.824 250.129 140.596C250.489 140.356 250.873 139.978 251.281 139.462V133.252H252.757V142H251.533L251.407 140.632H251.353C250.945 141.112 250.513 141.496 250.057 141.784C249.601 142.072 249.073 142.216 248.473 142.216Z" fill="#344054"/>
<path d="M279.62 142V130.192H286.424V131.452H281.114V135.448H285.614V136.708H281.114V142H279.62ZM288.019 142V133.252H289.243L289.369 134.836H289.423C289.723 134.284 290.089 133.846 290.521 133.522C290.953 133.198 291.415 133.036 291.907 133.036C292.255 133.036 292.567 133.096 292.843 133.216L292.555 134.512C292.411 134.464 292.279 134.428 292.159 134.404C292.039 134.38 291.889 134.368 291.709 134.368C291.337 134.368 290.947 134.518 290.539 134.818C290.143 135.118 289.795 135.64 289.495 136.384V142H288.019ZM294.259 142V133.252H295.735V142H294.259ZM295.015 131.452C294.727 131.452 294.487 131.368 294.295 131.2C294.115 131.02 294.025 130.78 294.025 130.48C294.025 130.192 294.115 129.958 294.295 129.778C294.487 129.598 294.727 129.508 295.015 129.508C295.303 129.508 295.537 129.598 295.717 129.778C295.909 129.958 296.005 130.192 296.005 130.48C296.005 130.78 295.909 131.02 295.717 131.2C295.537 131.368 295.303 131.452 295.015 131.452Z" fill="#344054"/>
<path d="M328.396 142.216C327.568 142.216 326.8 142.06 326.092 141.748C325.384 141.424 324.772 140.998 324.256 140.47L325.156 139.426C325.576 139.87 326.068 140.23 326.632 140.506C327.208 140.77 327.802 140.902 328.414 140.902C329.194 140.902 329.8 140.728 330.232 140.38C330.664 140.02 330.88 139.552 330.88 138.976C330.88 138.568 330.79 138.244 330.61 138.004C330.442 137.764 330.208 137.56 329.908 137.392C329.62 137.224 329.29 137.056 328.918 136.888L327.226 136.15C326.854 135.994 326.482 135.79 326.11 135.538C325.75 135.286 325.444 134.962 325.192 134.566C324.952 134.17 324.832 133.684 324.832 133.108C324.832 132.508 324.988 131.974 325.3 131.506C325.624 131.026 326.068 130.654 326.632 130.39C327.196 130.114 327.832 129.976 328.54 129.976C329.248 129.976 329.902 130.114 330.502 130.39C331.102 130.654 331.612 131.002 332.032 131.434L331.222 132.406C330.862 132.058 330.46 131.788 330.016 131.596C329.584 131.392 329.092 131.29 328.54 131.29C327.88 131.29 327.346 131.446 326.938 131.758C326.542 132.07 326.344 132.49 326.344 133.018C326.344 133.39 326.44 133.702 326.632 133.954C326.836 134.194 327.088 134.392 327.388 134.548C327.688 134.704 327.994 134.848 328.306 134.98L329.98 135.7C330.436 135.892 330.844 136.126 331.204 136.402C331.576 136.666 331.87 136.996 332.086 137.392C332.302 137.776 332.41 138.262 332.41 138.85C332.41 139.474 332.248 140.044 331.924 140.56C331.6 141.064 331.138 141.466 330.538 141.766C329.938 142.066 329.224 142.216 328.396 142.216ZM336.607 142.216C335.875 142.216 335.263 142 334.771 141.568C334.291 141.124 334.051 140.512 334.051 139.732C334.051 138.772 334.477 138.04 335.329 137.536C336.193 137.02 337.555 136.66 339.415 136.456C339.415 136.084 339.361 135.73 339.253 135.394C339.157 135.058 338.977 134.788 338.713 134.584C338.461 134.368 338.095 134.26 337.615 134.26C337.111 134.26 336.637 134.356 336.193 134.548C335.749 134.74 335.353 134.956 335.005 135.196L334.429 134.17C334.837 133.906 335.335 133.654 335.923 133.414C336.523 133.162 337.171 133.036 337.867 133.036C338.935 133.036 339.709 133.366 340.189 134.026C340.669 134.674 340.909 135.544 340.909 136.636V142H339.685L339.559 140.956H339.505C339.097 141.292 338.647 141.586 338.155 141.838C337.675 142.09 337.159 142.216 336.607 142.216ZM337.039 141.028C337.459 141.028 337.855 140.926 338.227 140.722C338.599 140.518 338.995 140.23 339.415 139.858V137.428C337.963 137.608 336.943 137.878 336.355 138.238C335.779 138.598 335.491 139.06 335.491 139.624C335.491 140.116 335.641 140.476 335.941 140.704C336.241 140.92 336.607 141.028 337.039 141.028ZM346.169 142.216C345.233 142.216 344.579 141.946 344.207 141.406C343.847 140.866 343.667 140.164 343.667 139.3V134.458H342.371V133.342L343.739 133.252L343.919 130.804H345.161V133.252H347.519V134.458H345.161V139.318C345.161 139.858 345.257 140.278 345.449 140.578C345.653 140.866 346.007 141.01 346.511 141.01C346.667 141.01 346.835 140.986 347.015 140.938C347.195 140.878 347.357 140.824 347.501 140.776L347.789 141.892C347.549 141.976 347.285 142.048 346.997 142.108C346.721 142.18 346.445 142.216 346.169 142.216Z" fill="#344054"/>
<path d="M39.72 190V189.118C40.872 187.966 41.85 186.958 42.654 186.094C43.458 185.218 44.07 184.432 44.49 183.736C44.91 183.028 45.12 182.368 45.12 181.756C45.12 181.096 44.94 180.556 44.58 180.136C44.22 179.716 43.674 179.506 42.942 179.506C42.462 179.506 42.018 179.644 41.61 179.92C41.202 180.184 40.83 180.508 40.494 180.892L39.648 180.046C40.128 179.518 40.638 179.098 41.178 178.786C41.73 178.462 42.378 178.3 43.122 178.3C44.19 178.3 45.03 178.612 45.642 179.236C46.254 179.848 46.56 180.664 46.56 181.684C46.56 182.404 46.356 183.136 45.948 183.88C45.552 184.612 45 185.386 44.292 186.202C43.596 187.006 42.792 187.882 41.88 188.83C42.192 188.806 42.516 188.782 42.852 188.758C43.188 188.734 43.506 188.722 43.806 188.722H47.136V190H39.72ZM50.0533 181.99C50.0533 182.734 50.2273 183.328 50.5753 183.772C50.9353 184.204 51.4693 184.42 52.1773 184.42C52.5613 184.42 52.9633 184.3 53.3833 184.06C53.8153 183.82 54.2173 183.43 54.5893 182.89C54.4933 181.774 54.2293 180.928 53.7973 180.352C53.3653 179.764 52.7833 179.47 52.0513 179.47C51.4993 179.47 51.0253 179.704 50.6293 180.172C50.2453 180.628 50.0533 181.234 50.0533 181.99ZM51.6373 190.216C51.0253 190.216 50.4853 190.102 50.0173 189.874C49.5613 189.634 49.1773 189.346 48.8653 189.01L49.6933 188.074C49.9333 188.35 50.2153 188.572 50.5393 188.74C50.8753 188.908 51.2233 188.992 51.5833 188.992C52.1233 188.992 52.6213 188.836 53.0773 188.524C53.5333 188.212 53.8993 187.696 54.1753 186.976C54.4633 186.256 54.6133 185.284 54.6253 184.06C54.2653 184.516 53.8453 184.876 53.3653 185.14C52.8853 185.404 52.4053 185.536 51.9253 185.536C50.9413 185.536 50.1493 185.242 49.5493 184.654C48.9613 184.054 48.6673 183.166 48.6673 181.99C48.6673 181.258 48.8233 180.616 49.1353 180.064C49.4473 179.512 49.8553 179.08 50.3593 178.768C50.8753 178.456 51.4393 178.3 52.0513 178.3C52.8073 178.3 53.4853 178.504 54.0853 178.912C54.6853 179.32 55.1533 179.932 55.4893 180.748C55.8373 181.564 56.0113 182.59 56.0113 183.826C56.0113 185.362 55.8013 186.598 55.3813 187.534C54.9733 188.47 54.4393 189.154 53.7793 189.586C53.1193 190.006 52.4053 190.216 51.6373 190.216Z" fill="black" fill-opacity="0.3"/>
<path d="M91.248 190.216C90.336 190.216 89.574 190.054 88.962 189.73C88.35 189.394 87.852 189.016 87.468 188.596L88.224 187.624C88.572 187.984 88.98 188.302 89.448 188.578C89.916 188.854 90.486 188.992 91.158 188.992C91.854 188.992 92.424 188.8 92.868 188.416C93.312 188.032 93.534 187.522 93.534 186.886C93.534 186.43 93.414 186.034 93.174 185.698C92.946 185.35 92.562 185.08 92.022 184.888C91.494 184.696 90.774 184.6 89.862 184.6V183.466C90.678 183.466 91.32 183.37 91.788 183.178C92.268 182.986 92.61 182.728 92.814 182.404C93.018 182.08 93.12 181.72 93.12 181.324C93.12 180.76 92.94 180.316 92.58 179.992C92.232 179.668 91.752 179.506 91.14 179.506C90.66 179.506 90.216 179.614 89.808 179.83C89.412 180.046 89.04 180.328 88.692 180.676L87.9 179.74C88.344 179.32 88.836 178.978 89.376 178.714C89.916 178.438 90.522 178.3 91.194 178.3C92.19 178.3 93.012 178.558 93.66 179.074C94.308 179.578 94.632 180.292 94.632 181.216C94.632 181.912 94.44 182.482 94.056 182.926C93.672 183.37 93.168 183.712 92.544 183.952V184.024C93.24 184.18 93.828 184.51 94.308 185.014C94.788 185.506 95.028 186.148 95.028 186.94C95.028 187.612 94.86 188.194 94.524 188.686C94.188 189.178 93.732 189.556 93.156 189.82C92.592 190.084 91.956 190.216 91.248 190.216ZM100.429 190.216C99.2773 190.216 98.3713 189.7 97.7113 188.668C97.0633 187.624 96.7393 186.142 96.7393 184.222C96.7393 182.29 97.0633 180.82 97.7113 179.812C98.3713 178.804 99.2773 178.3 100.429 178.3C101.569 178.3 102.463 178.804 103.111 179.812C103.771 180.82 104.101 182.29 104.101 184.222C104.101 186.142 103.771 187.624 103.111 188.668C102.463 189.7 101.569 190.216 100.429 190.216ZM100.429 189.028C101.101 189.028 101.641 188.65 102.049 187.894C102.457 187.126 102.661 185.902 102.661 184.222C102.661 182.542 102.457 181.336 102.049 180.604C101.641 179.86 101.101 179.488 100.429 179.488C99.7573 179.488 99.2113 179.86 98.7913 180.604C98.3833 181.336 98.1793 182.542 98.1793 184.222C98.1793 185.902 98.3833 187.126 98.7913 187.894C99.2113 188.65 99.7573 189.028 100.429 189.028Z" fill="black" fill-opacity="0.3"/>
<path d="M140.922 190V188.776H143.55V180.316H141.462V179.362C141.99 179.266 142.446 179.152 142.83 179.02C143.226 178.876 143.58 178.708 143.892 178.516H145.026V188.776H147.402V190H140.922Z" fill="black" fill-opacity="0.3"/>
<path d="M187.666 190V188.488C188.638 187.564 189.496 186.73 190.24 185.986C190.996 185.23 191.584 184.54 192.004 183.916C192.424 183.28 192.634 182.692 192.634 182.152C192.634 181.588 192.484 181.162 192.184 180.874C191.896 180.574 191.506 180.424 191.014 180.424C190.606 180.424 190.234 180.544 189.898 180.784C189.574 181.012 189.268 181.282 188.98 181.594L187.54 180.172C188.104 179.572 188.68 179.122 189.268 178.822C189.856 178.51 190.558 178.354 191.374 178.354C192.13 178.354 192.79 178.504 193.354 178.804C193.918 179.104 194.356 179.53 194.668 180.082C194.992 180.622 195.154 181.258 195.154 181.99C195.154 182.626 194.974 183.28 194.614 183.952C194.266 184.612 193.816 185.278 193.264 185.95C192.712 186.61 192.124 187.264 191.5 187.912C191.788 187.876 192.112 187.846 192.472 187.822C192.832 187.786 193.144 187.768 193.408 187.768H195.712V190H187.666Z" fill="#4A1FB8"/>
<path d="M239.748 190.216C238.836 190.216 238.074 190.054 237.462 189.73C236.85 189.394 236.352 189.016 235.968 188.596L236.724 187.624C237.072 187.984 237.48 188.302 237.948 188.578C238.416 188.854 238.986 188.992 239.658 188.992C240.354 188.992 240.924 188.8 241.368 188.416C241.812 188.032 242.034 187.522 242.034 186.886C242.034 186.43 241.914 186.034 241.674 185.698C241.446 185.35 241.062 185.08 240.522 184.888C239.994 184.696 239.274 184.6 238.362 184.6V183.466C239.178 183.466 239.82 183.37 240.288 183.178C240.768 182.986 241.11 182.728 241.314 182.404C241.518 182.08 241.62 181.72 241.62 181.324C241.62 180.76 241.44 180.316 241.08 179.992C240.732 179.668 240.252 179.506 239.64 179.506C239.16 179.506 238.716 179.614 238.308 179.83C237.912 180.046 237.54 180.328 237.192 180.676L236.4 179.74C236.844 179.32 237.336 178.978 237.876 178.714C238.416 178.438 239.022 178.3 239.694 178.3C240.69 178.3 241.512 178.558 242.16 179.074C242.808 179.578 243.132 180.292 243.132 181.216C243.132 181.912 242.94 182.482 242.556 182.926C242.172 183.37 241.668 183.712 241.044 183.952V184.024C241.74 184.18 242.328 184.51 242.808 185.014C243.288 185.506 243.528 186.148 243.528 186.94C243.528 187.612 243.36 188.194 243.024 188.686C242.688 189.178 242.232 189.556 241.656 189.82C241.092 190.084 240.456 190.216 239.748 190.216Z" fill="#344054"/>
<path d="M285.372 185.644H288.972V182.314C288.972 182.002 288.984 181.63 289.008 181.198C289.032 180.766 289.05 180.4 289.062 180.1H288.99C288.846 180.376 288.696 180.646 288.54 180.91C288.384 181.174 288.222 181.444 288.054 181.72L285.372 185.644ZM288.972 190V186.832H283.806V185.86L288.72 178.516H290.376V185.644H291.942V186.832H290.376V190H288.972Z" fill="#344054"/>
<path d="M335.712 190.216C334.8 190.216 334.044 190.054 333.444 189.73C332.844 189.406 332.346 189.046 331.95 188.65L332.67 187.678C333.018 188.014 333.42 188.32 333.876 188.596C334.332 188.86 334.896 188.992 335.568 188.992C336.276 188.992 336.87 188.758 337.35 188.29C337.842 187.81 338.088 187.168 338.088 186.364C338.088 185.572 337.866 184.954 337.422 184.51C336.978 184.066 336.384 183.844 335.64 183.844C335.244 183.844 334.902 183.904 334.614 184.024C334.338 184.144 334.026 184.318 333.678 184.546L332.886 184.042L333.264 178.516H339.006V179.794H334.56L334.254 183.196C334.53 183.052 334.806 182.938 335.082 182.854C335.358 182.77 335.67 182.728 336.018 182.728C336.678 182.728 337.272 182.86 337.8 183.124C338.34 183.376 338.772 183.766 339.096 184.294C339.42 184.822 339.582 185.5 339.582 186.328C339.582 187.156 339.396 187.864 339.024 188.452C338.664 189.028 338.19 189.466 337.602 189.766C337.014 190.066 336.384 190.216 335.712 190.216Z" fill="#344054"/>
<path d="M48.198 232.096C47.826 232.096 47.424 232.216 46.992 232.456C46.56 232.696 46.164 233.08 45.804 233.608C45.9 234.724 46.158 235.576 46.578 236.164C47.01 236.752 47.592 237.046 48.324 237.046C48.888 237.046 49.362 236.818 49.746 236.362C50.13 235.894 50.322 235.282 50.322 234.526C50.322 233.782 50.142 233.194 49.782 232.762C49.434 232.318 48.906 232.096 48.198 232.096ZM48.324 238.216C47.58 238.216 46.908 238.012 46.308 237.604C45.708 237.196 45.234 236.584 44.886 235.768C44.538 234.94 44.364 233.914 44.364 232.69C44.364 231.154 44.568 229.918 44.976 228.982C45.396 228.046 45.936 227.368 46.596 226.948C47.268 226.516 47.982 226.3 48.738 226.3C49.362 226.3 49.896 226.42 50.34 226.66C50.796 226.888 51.186 227.176 51.51 227.524L50.682 228.442C50.454 228.166 50.172 227.95 49.836 227.794C49.5 227.626 49.152 227.542 48.792 227.542C48.252 227.542 47.76 227.698 47.316 228.01C46.872 228.31 46.506 228.82 46.218 229.54C45.942 230.248 45.792 231.208 45.768 232.42C46.128 231.976 46.548 231.628 47.028 231.376C47.508 231.112 47.982 230.98 48.45 230.98C49.446 230.98 50.238 231.28 50.826 231.88C51.426 232.468 51.726 233.35 51.726 234.526C51.726 235.258 51.57 235.9 51.258 236.452C50.946 237.004 50.532 237.436 50.016 237.748C49.512 238.06 48.948 238.216 48.324 238.216Z" fill="#344054"/>
<path d="M94.686 238C94.758 236.56 94.908 235.27 95.136 234.13C95.376 232.978 95.724 231.898 96.18 230.89C96.648 229.87 97.26 228.838 98.016 227.794H92.292V226.516H99.69V227.434C99.006 228.298 98.448 229.132 98.016 229.936C97.584 230.728 97.248 231.532 97.008 232.348C96.768 233.152 96.588 234.016 96.468 234.94C96.348 235.864 96.264 236.884 96.216 238H94.686Z" fill="#344054"/>
<path d="M144 238.216C143.28 238.216 142.638 238.084 142.074 237.82C141.51 237.544 141.06 237.166 140.724 236.686C140.4 236.206 140.238 235.666 140.238 235.066C140.238 234.562 140.34 234.118 140.544 233.734C140.76 233.338 141.03 232.996 141.354 232.708C141.69 232.408 142.038 232.162 142.398 231.97V231.898C141.978 231.598 141.606 231.232 141.282 230.8C140.958 230.368 140.796 229.852 140.796 229.252C140.796 228.664 140.94 228.148 141.228 227.704C141.516 227.26 141.906 226.918 142.398 226.678C142.89 226.426 143.442 226.3 144.054 226.3C145.05 226.3 145.836 226.588 146.412 227.164C147 227.74 147.294 228.472 147.294 229.36C147.294 229.756 147.21 230.134 147.042 230.494C146.874 230.842 146.67 231.16 146.43 231.448C146.19 231.724 145.95 231.952 145.71 232.132V232.204C146.058 232.396 146.382 232.624 146.682 232.888C146.982 233.152 147.228 233.47 147.42 233.842C147.612 234.202 147.708 234.64 147.708 235.156C147.708 235.72 147.552 236.236 147.24 236.704C146.94 237.172 146.508 237.544 145.944 237.82C145.392 238.084 144.744 238.216 144 238.216ZM144.81 231.736C145.194 231.388 145.488 231.022 145.692 230.638C145.908 230.254 146.016 229.852 146.016 229.432C146.016 228.868 145.842 228.388 145.494 227.992C145.146 227.596 144.654 227.398 144.018 227.398C143.49 227.398 143.046 227.566 142.686 227.902C142.338 228.238 142.164 228.688 142.164 229.252C142.164 229.708 142.284 230.086 142.524 230.386C142.776 230.686 143.106 230.944 143.514 231.16C143.922 231.364 144.354 231.556 144.81 231.736ZM144.036 237.118C144.708 237.118 145.248 236.932 145.656 236.56C146.076 236.176 146.286 235.69 146.286 235.102C146.286 234.61 146.142 234.208 145.854 233.896C145.566 233.584 145.182 233.314 144.702 233.086C144.234 232.858 143.724 232.636 143.172 232.42C142.716 232.72 142.332 233.08 142.02 233.5C141.72 233.92 141.57 234.394 141.57 234.922C141.57 235.558 141.804 236.086 142.272 236.506C142.752 236.914 143.34 237.118 144.036 237.118Z" fill="#344054"/>
<path d="M189.606 229.99C189.606 230.734 189.78 231.328 190.128 231.772C190.488 232.204 191.022 232.42 191.73 232.42C192.114 232.42 192.516 232.3 192.936 232.06C193.368 231.82 193.77 231.43 194.142 230.89C194.046 229.774 193.782 228.928 193.35 228.352C192.918 227.764 192.336 227.47 191.604 227.47C191.052 227.47 190.578 227.704 190.182 228.172C189.798 228.628 189.606 229.234 189.606 229.99ZM191.19 238.216C190.578 238.216 190.038 238.102 189.57 237.874C189.114 237.634 188.73 237.346 188.418 237.01L189.246 236.074C189.486 236.35 189.768 236.572 190.092 236.74C190.428 236.908 190.776 236.992 191.136 236.992C191.676 236.992 192.174 236.836 192.63 236.524C193.086 236.212 193.452 235.696 193.728 234.976C194.016 234.256 194.166 233.284 194.178 232.06C193.818 232.516 193.398 232.876 192.918 233.14C192.438 233.404 191.958 233.536 191.478 233.536C190.494 233.536 189.702 233.242 189.102 232.654C188.514 232.054 188.22 231.166 188.22 229.99C188.22 229.258 188.376 228.616 188.688 228.064C189 227.512 189.408 227.08 189.912 226.768C190.428 226.456 190.992 226.3 191.604 226.3C192.36 226.3 193.038 226.504 193.638 226.912C194.238 227.32 194.706 227.932 195.042 228.748C195.39 229.564 195.564 230.59 195.564 231.826C195.564 233.362 195.354 234.598 194.934 235.534C194.526 236.47 193.992 237.154 193.332 237.586C192.672 238.006 191.958 238.216 191.19 238.216Z" fill="#344054"/>
<path d="M232.422 238V236.776H235.05V228.316H232.962V227.362C233.49 227.266 233.946 227.152 234.33 227.02C234.726 226.876 235.08 226.708 235.392 226.516H236.526V236.776H238.902V238H232.422ZM244.429 238.216C243.277 238.216 242.371 237.7 241.711 236.668C241.063 235.624 240.739 234.142 240.739 232.222C240.739 230.29 241.063 228.82 241.711 227.812C242.371 226.804 243.277 226.3 244.429 226.3C245.569 226.3 246.463 226.804 247.111 227.812C247.771 228.82 248.101 230.29 248.101 232.222C248.101 234.142 247.771 235.624 247.111 236.668C246.463 237.7 245.569 238.216 244.429 238.216ZM244.429 237.028C245.101 237.028 245.641 236.65 246.049 235.894C246.457 235.126 246.661 233.902 246.661 232.222C246.661 230.542 246.457 229.336 246.049 228.604C245.641 227.86 245.101 227.488 244.429 227.488C243.757 227.488 243.211 227.86 242.791 228.604C242.383 229.336 242.179 230.542 242.179 232.222C242.179 233.902 242.383 235.126 242.791 235.894C243.211 236.65 243.757 237.028 244.429 237.028Z" fill="#344054"/>
<path d="M280.422 238V236.776H283.05V228.316H280.962V227.362C281.49 227.266 281.946 227.152 282.33 227.02C282.726 226.876 283.08 226.708 283.392 226.516H284.526V236.776H286.902V238H280.422ZM289.369 238V236.776H291.997V228.316H289.909V227.362C290.437 227.266 290.893 227.152 291.277 227.02C291.673 226.876 292.027 226.708 292.339 226.516H293.473V236.776H295.849V238H289.369Z" fill="#344054"/>
<path d="M328.422 238V236.776H331.05V228.316H328.962V227.362C329.49 227.266 329.946 227.152 330.33 227.02C330.726 226.876 331.08 226.708 331.392 226.516H332.526V236.776H334.902V238H328.422ZM336.667 238V237.118C337.819 235.966 338.797 234.958 339.601 234.094C340.405 233.218 341.017 232.432 341.437 231.736C341.857 231.028 342.067 230.368 342.067 229.756C342.067 229.096 341.887 228.556 341.527 228.136C341.167 227.716 340.621 227.506 339.889 227.506C339.409 227.506 338.965 227.644 338.557 227.92C338.149 228.184 337.777 228.508 337.441 228.892L336.595 228.046C337.075 227.518 337.585 227.098 338.125 226.786C338.677 226.462 339.325 226.3 340.069 226.3C341.137 226.3 341.977 226.612 342.589 227.236C343.201 227.848 343.507 228.664 343.507 229.684C343.507 230.404 343.303 231.136 342.895 231.88C342.499 232.612 341.947 233.386 341.239 234.202C340.543 235.006 339.739 235.882 338.827 236.83C339.139 236.806 339.463 236.782 339.799 236.758C340.135 236.734 340.453 236.722 340.753 236.722H344.083V238H336.667Z" fill="#344054"/>
<path d="M40.422 286V284.776H43.05V276.316H40.962V275.362C41.49 275.266 41.946 275.152 42.33 275.02C42.726 274.876 43.08 274.708 43.392 274.516H44.526V284.776H46.902V286H40.422ZM52.1953 286.216C51.2833 286.216 50.5213 286.054 49.9093 285.73C49.2973 285.394 48.7993 285.016 48.4153 284.596L49.1713 283.624C49.5193 283.984 49.9273 284.302 50.3953 284.578C50.8633 284.854 51.4333 284.992 52.1053 284.992C52.8013 284.992 53.3713 284.8 53.8153 284.416C54.2593 284.032 54.4813 283.522 54.4813 282.886C54.4813 282.43 54.3613 282.034 54.1213 281.698C53.8933 281.35 53.5093 281.08 52.9693 280.888C52.4413 280.696 51.7213 280.6 50.8093 280.6V279.466C51.6253 279.466 52.2673 279.37 52.7353 279.178C53.2153 278.986 53.5573 278.728 53.7613 278.404C53.9653 278.08 54.0673 277.72 54.0673 277.324C54.0673 276.76 53.8873 276.316 53.5273 275.992C53.1793 275.668 52.6993 275.506 52.0873 275.506C51.6073 275.506 51.1633 275.614 50.7553 275.83C50.3593 276.046 49.9873 276.328 49.6393 276.676L48.8473 275.74C49.2913 275.32 49.7833 274.978 50.3233 274.714C50.8633 274.438 51.4693 274.3 52.1413 274.3C53.1373 274.3 53.9593 274.558 54.6073 275.074C55.2553 275.578 55.5793 276.292 55.5793 277.216C55.5793 277.912 55.3873 278.482 55.0033 278.926C54.6193 279.37 54.1153 279.712 53.4913 279.952V280.024C54.1873 280.18 54.7753 280.51 55.2553 281.014C55.7353 281.506 55.9753 282.148 55.9753 282.94C55.9753 283.612 55.8073 284.194 55.4713 284.686C55.1353 285.178 54.6793 285.556 54.1033 285.82C53.5393 286.084 52.9033 286.216 52.1953 286.216Z" fill="#344054"/>
<path d="M88.422 286V284.776H91.05V276.316H88.962V275.362C89.49 275.266 89.946 275.152 90.33 275.02C90.726 274.876 91.08 274.708 91.392 274.516H92.526V284.776H94.902V286H88.422ZM97.8193 281.644H101.419V278.314C101.419 278.002 101.431 277.63 101.455 277.198C101.479 276.766 101.497 276.4 101.509 276.1H101.437C101.293 276.376 101.143 276.646 100.987 276.91C100.831 277.174 100.669 277.444 100.501 277.72L97.8193 281.644ZM101.419 286V282.832H96.2533V281.86L101.167 274.516H102.823V281.644H104.389V282.832H102.823V286H101.419Z" fill="#344054"/>
<path d="M136.422 286V284.776H139.05V276.316H136.962V275.362C137.49 275.266 137.946 275.152 138.33 275.02C138.726 274.876 139.08 274.708 139.392 274.516H140.526V284.776H142.902V286H136.422ZM148.159 286.216C147.247 286.216 146.491 286.054 145.891 285.73C145.291 285.406 144.793 285.046 144.397 284.65L145.117 283.678C145.465 284.014 145.867 284.32 146.323 284.596C146.779 284.86 147.343 284.992 148.015 284.992C148.723 284.992 149.317 284.758 149.797 284.29C150.289 283.81 150.535 283.168 150.535 282.364C150.535 281.572 150.313 280.954 149.869 280.51C149.425 280.066 148.831 279.844 148.087 279.844C147.691 279.844 147.349 279.904 147.061 280.024C146.785 280.144 146.473 280.318 146.125 280.546L145.333 280.042L145.711 274.516H151.453V275.794H147.007L146.701 279.196C146.977 279.052 147.253 278.938 147.529 278.854C147.805 278.77 148.117 278.728 148.465 278.728C149.125 278.728 149.719 278.86 150.247 279.124C150.787 279.376 151.219 279.766 151.543 280.294C151.867 280.822 152.029 281.5 152.029 282.328C152.029 283.156 151.843 283.864 151.471 284.452C151.111 285.028 150.637 285.466 150.049 285.766C149.461 286.066 148.831 286.216 148.159 286.216Z" fill="#344054"/>
<path d="M184.422 286V284.776H187.05V276.316H184.962V275.362C185.49 275.266 185.946 275.152 186.33 275.02C186.726 274.876 187.08 274.708 187.392 274.516H188.526V284.776H190.902V286H184.422ZM196.645 280.096C196.273 280.096 195.871 280.216 195.439 280.456C195.007 280.696 194.611 281.08 194.251 281.608C194.347 282.724 194.605 283.576 195.025 284.164C195.457 284.752 196.039 285.046 196.771 285.046C197.335 285.046 197.809 284.818 198.193 284.362C198.577 283.894 198.769 283.282 198.769 282.526C198.769 281.782 198.589 281.194 198.229 280.762C197.881 280.318 197.353 280.096 196.645 280.096ZM196.771 286.216C196.027 286.216 195.355 286.012 194.755 285.604C194.155 285.196 193.681 284.584 193.333 283.768C192.985 282.94 192.811 281.914 192.811 280.69C192.811 279.154 193.015 277.918 193.423 276.982C193.843 276.046 194.383 275.368 195.043 274.948C195.715 274.516 196.429 274.3 197.185 274.3C197.809 274.3 198.343 274.42 198.787 274.66C199.243 274.888 199.633 275.176 199.957 275.524L199.129 276.442C198.901 276.166 198.619 275.95 198.283 275.794C197.947 275.626 197.599 275.542 197.239 275.542C196.699 275.542 196.207 275.698 195.763 276.01C195.319 276.31 194.953 276.82 194.665 277.54C194.389 278.248 194.239 279.208 194.215 280.42C194.575 279.976 194.995 279.628 195.475 279.376C195.955 279.112 196.429 278.98 196.897 278.98C197.893 278.98 198.685 279.28 199.273 279.88C199.873 280.468 200.173 281.35 200.173 282.526C200.173 283.258 200.017 283.9 199.705 284.452C199.393 285.004 198.979 285.436 198.463 285.748C197.959 286.06 197.395 286.216 196.771 286.216Z" fill="#344054"/>
<path d="M232.422 286V284.776H235.05V276.316H232.962V275.362C233.49 275.266 233.946 275.152 234.33 275.02C234.726 274.876 235.08 274.708 235.392 274.516H236.526V284.776H238.902V286H232.422ZM243.133 286C243.205 284.56 243.355 283.27 243.583 282.13C243.823 280.978 244.171 279.898 244.627 278.89C245.095 277.87 245.707 276.838 246.463 275.794H240.739V274.516H248.137V275.434C247.453 276.298 246.895 277.132 246.463 277.936C246.031 278.728 245.695 279.532 245.455 280.348C245.215 281.152 245.035 282.016 244.915 282.94C244.795 283.864 244.711 284.884 244.663 286H243.133Z" fill="#344054"/>
<path d="M280.422 286V284.776H283.05V276.316H280.962V275.362C281.49 275.266 281.946 275.152 282.33 275.02C282.726 274.876 283.08 274.708 283.392 274.516H284.526V284.776H286.902V286H280.422ZM292.447 286.216C291.727 286.216 291.085 286.084 290.521 285.82C289.957 285.544 289.507 285.166 289.171 284.686C288.847 284.206 288.685 283.666 288.685 283.066C288.685 282.562 288.787 282.118 288.991 281.734C289.207 281.338 289.477 280.996 289.801 280.708C290.137 280.408 290.485 280.162 290.845 279.97V279.898C290.425 279.598 290.053 279.232 289.729 278.8C289.405 278.368 289.243 277.852 289.243 277.252C289.243 276.664 289.387 276.148 289.675 275.704C289.963 275.26 290.353 274.918 290.845 274.678C291.337 274.426 291.889 274.3 292.501 274.3C293.497 274.3 294.283 274.588 294.859 275.164C295.447 275.74 295.741 276.472 295.741 277.36C295.741 277.756 295.657 278.134 295.489 278.494C295.321 278.842 295.117 279.16 294.877 279.448C294.637 279.724 294.397 279.952 294.157 280.132V280.204C294.505 280.396 294.829 280.624 295.129 280.888C295.429 281.152 295.675 281.47 295.867 281.842C296.059 282.202 296.155 282.64 296.155 283.156C296.155 283.72 295.999 284.236 295.687 284.704C295.387 285.172 294.955 285.544 294.391 285.82C293.839 286.084 293.191 286.216 292.447 286.216ZM293.257 279.736C293.641 279.388 293.935 279.022 294.139 278.638C294.355 278.254 294.463 277.852 294.463 277.432C294.463 276.868 294.289 276.388 293.941 275.992C293.593 275.596 293.101 275.398 292.465 275.398C291.937 275.398 291.493 275.566 291.133 275.902C290.785 276.238 290.611 276.688 290.611 277.252C290.611 277.708 290.731 278.086 290.971 278.386C291.223 278.686 291.553 278.944 291.961 279.16C292.369 279.364 292.801 279.556 293.257 279.736ZM292.483 285.118C293.155 285.118 293.695 284.932 294.103 284.56C294.523 284.176 294.733 283.69 294.733 283.102C294.733 282.61 294.589 282.208 294.301 281.896C294.013 281.584 293.629 281.314 293.149 281.086C292.681 280.858 292.171 280.636 291.619 280.42C291.163 280.72 290.779 281.08 290.467 281.5C290.167 281.92 290.017 282.394 290.017 282.922C290.017 283.558 290.251 284.086 290.719 284.506C291.199 284.914 291.787 285.118 292.483 285.118Z" fill="#344054"/>
<path d="M328.422 286V284.776H331.05V276.316H328.962V275.362C329.49 275.266 329.946 275.152 330.33 275.02C330.726 274.876 331.08 274.708 331.392 274.516H332.526V284.776H334.902V286H328.422ZM338.053 277.99C338.053 278.734 338.227 279.328 338.575 279.772C338.935 280.204 339.469 280.42 340.177 280.42C340.561 280.42 340.963 280.3 341.383 280.06C341.815 279.82 342.217 279.43 342.589 278.89C342.493 277.774 342.229 276.928 341.797 276.352C341.365 275.764 340.783 275.47 340.051 275.47C339.499 275.47 339.025 275.704 338.629 276.172C338.245 276.628 338.053 277.234 338.053 277.99ZM339.637 286.216C339.025 286.216 338.485 286.102 338.017 285.874C337.561 285.634 337.177 285.346 336.865 285.01L337.693 284.074C337.933 284.35 338.215 284.572 338.539 284.74C338.875 284.908 339.223 284.992 339.583 284.992C340.123 284.992 340.621 284.836 341.077 284.524C341.533 284.212 341.899 283.696 342.175 282.976C342.463 282.256 342.613 281.284 342.625 280.06C342.265 280.516 341.845 280.876 341.365 281.14C340.885 281.404 340.405 281.536 339.925 281.536C338.941 281.536 338.149 281.242 337.549 280.654C336.961 280.054 336.667 279.166 336.667 277.99C336.667 277.258 336.823 276.616 337.135 276.064C337.447 275.512 337.855 275.08 338.359 274.768C338.875 274.456 339.439 274.3 340.051 274.3C340.807 274.3 341.485 274.504 342.085 274.912C342.685 275.32 343.153 275.932 343.489 276.748C343.837 277.564 344.011 278.59 344.011 279.826C344.011 281.362 343.801 282.598 343.381 283.534C342.973 284.47 342.439 285.154 341.779 285.586C341.119 286.006 340.405 286.216 339.637 286.216Z" fill="#344054"/>
<path d="M39.72 334V333.118C40.872 331.966 41.85 330.958 42.654 330.094C43.458 329.218 44.07 328.432 44.49 327.736C44.91 327.028 45.12 326.368 45.12 325.756C45.12 325.096 44.94 324.556 44.58 324.136C44.22 323.716 43.674 323.506 42.942 323.506C42.462 323.506 42.018 323.644 41.61 323.92C41.202 324.184 40.83 324.508 40.494 324.892L39.648 324.046C40.128 323.518 40.638 323.098 41.178 322.786C41.73 322.462 42.378 322.3 43.122 322.3C44.19 322.3 45.03 322.612 45.642 323.236C46.254 323.848 46.56 324.664 46.56 325.684C46.56 326.404 46.356 327.136 45.948 327.88C45.552 328.612 45 329.386 44.292 330.202C43.596 331.006 42.792 331.882 41.88 332.83C42.192 332.806 42.516 332.782 42.852 332.758C43.188 332.734 43.506 332.722 43.806 332.722H47.136V334H39.72ZM52.4293 334.216C51.2773 334.216 50.3713 333.7 49.7113 332.668C49.0633 331.624 48.7393 330.142 48.7393 328.222C48.7393 326.29 49.0633 324.82 49.7113 323.812C50.3713 322.804 51.2773 322.3 52.4293 322.3C53.5693 322.3 54.4633 322.804 55.1113 323.812C55.7713 324.82 56.1013 326.29 56.1013 328.222C56.1013 330.142 55.7713 331.624 55.1113 332.668C54.4633 333.7 53.5693 334.216 52.4293 334.216ZM52.4293 333.028C53.1013 333.028 53.6413 332.65 54.0493 331.894C54.4573 331.126 54.6613 329.902 54.6613 328.222C54.6613 326.542 54.4573 325.336 54.0493 324.604C53.6413 323.86 53.1013 323.488 52.4293 323.488C51.7573 323.488 51.2113 323.86 50.7913 324.604C50.3833 325.336 50.1793 326.542 50.1793 328.222C50.1793 329.902 50.3833 331.126 50.7913 331.894C51.2113 332.65 51.7573 333.028 52.4293 333.028Z" fill="#344054"/>
<path d="M87.72 334V333.118C88.872 331.966 89.85 330.958 90.654 330.094C91.458 329.218 92.07 328.432 92.49 327.736C92.91 327.028 93.12 326.368 93.12 325.756C93.12 325.096 92.94 324.556 92.58 324.136C92.22 323.716 91.674 323.506 90.942 323.506C90.462 323.506 90.018 323.644 89.61 323.92C89.202 324.184 88.83 324.508 88.494 324.892L87.648 324.046C88.128 323.518 88.638 323.098 89.178 322.786C89.73 322.462 90.378 322.3 91.122 322.3C92.19 322.3 93.03 322.612 93.642 323.236C94.254 323.848 94.56 324.664 94.56 325.684C94.56 326.404 94.356 327.136 93.948 327.88C93.552 328.612 93 329.386 92.292 330.202C91.596 331.006 90.792 331.882 89.88 332.83C90.192 332.806 90.516 332.782 90.852 332.758C91.188 332.734 91.506 332.722 91.806 332.722H95.136V334H87.72ZM97.3693 334V332.776H99.9973V324.316H97.9093V323.362C98.4373 323.266 98.8933 323.152 99.2773 323.02C99.6733 322.876 100.027 322.708 100.339 322.516H101.473V332.776H103.849V334H97.3693Z" fill="#344054"/>
<path d="M135.72 334V333.118C136.872 331.966 137.85 330.958 138.654 330.094C139.458 329.218 140.07 328.432 140.49 327.736C140.91 327.028 141.12 326.368 141.12 325.756C141.12 325.096 140.94 324.556 140.58 324.136C140.22 323.716 139.674 323.506 138.942 323.506C138.462 323.506 138.018 323.644 137.61 323.92C137.202 324.184 136.83 324.508 136.494 324.892L135.648 324.046C136.128 323.518 136.638 323.098 137.178 322.786C137.73 322.462 138.378 322.3 139.122 322.3C140.19 322.3 141.03 322.612 141.642 323.236C142.254 323.848 142.56 324.664 142.56 325.684C142.56 326.404 142.356 327.136 141.948 327.88C141.552 328.612 141 329.386 140.292 330.202C139.596 331.006 138.792 331.882 137.88 332.83C138.192 332.806 138.516 332.782 138.852 332.758C139.188 332.734 139.506 332.722 139.806 332.722H143.136V334H135.72ZM144.667 334V333.118C145.819 331.966 146.797 330.958 147.601 330.094C148.405 329.218 149.017 328.432 149.437 327.736C149.857 327.028 150.067 326.368 150.067 325.756C150.067 325.096 149.887 324.556 149.527 324.136C149.167 323.716 148.621 323.506 147.889 323.506C147.409 323.506 146.965 323.644 146.557 323.92C146.149 324.184 145.777 324.508 145.441 324.892L144.595 324.046C145.075 323.518 145.585 323.098 146.125 322.786C146.677 322.462 147.325 322.3 148.069 322.3C149.137 322.3 149.977 322.612 150.589 323.236C151.201 323.848 151.507 324.664 151.507 325.684C151.507 326.404 151.303 327.136 150.895 327.88C150.499 328.612 149.947 329.386 149.239 330.202C148.543 331.006 147.739 331.882 146.827 332.83C147.139 332.806 147.463 332.782 147.799 332.758C148.135 332.734 148.453 332.722 148.753 332.722H152.083V334H144.667Z" fill="#344054"/>
<path d="M183.72 334V333.118C184.872 331.966 185.85 330.958 186.654 330.094C187.458 329.218 188.07 328.432 188.49 327.736C188.91 327.028 189.12 326.368 189.12 325.756C189.12 325.096 188.94 324.556 188.58 324.136C188.22 323.716 187.674 323.506 186.942 323.506C186.462 323.506 186.018 323.644 185.61 323.92C185.202 324.184 184.83 324.508 184.494 324.892L183.648 324.046C184.128 323.518 184.638 323.098 185.178 322.786C185.73 322.462 186.378 322.3 187.122 322.3C188.19 322.3 189.03 322.612 189.642 323.236C190.254 323.848 190.56 324.664 190.56 325.684C190.56 326.404 190.356 327.136 189.948 327.88C189.552 328.612 189 329.386 188.292 330.202C187.596 331.006 186.792 331.882 185.88 332.83C186.192 332.806 186.516 332.782 186.852 332.758C187.188 332.734 187.506 332.722 187.806 332.722H191.136V334H183.72ZM196.195 334.216C195.283 334.216 194.521 334.054 193.909 333.73C193.297 333.394 192.799 333.016 192.415 332.596L193.171 331.624C193.519 331.984 193.927 332.302 194.395 332.578C194.863 332.854 195.433 332.992 196.105 332.992C196.801 332.992 197.371 332.8 197.815 332.416C198.259 332.032 198.481 331.522 198.481 330.886C198.481 330.43 198.361 330.034 198.121 329.698C197.893 329.35 197.509 329.08 196.969 328.888C196.441 328.696 195.721 328.6 194.809 328.6V327.466C195.625 327.466 196.267 327.37 196.735 327.178C197.215 326.986 197.557 326.728 197.761 326.404C197.965 326.08 198.067 325.72 198.067 325.324C198.067 324.76 197.887 324.316 197.527 323.992C197.179 323.668 196.699 323.506 196.087 323.506C195.607 323.506 195.163 323.614 194.755 323.83C194.359 324.046 193.987 324.328 193.639 324.676L192.847 323.74C193.291 323.32 193.783 322.978 194.323 322.714C194.863 322.438 195.469 322.3 196.141 322.3C197.137 322.3 197.959 322.558 198.607 323.074C199.255 323.578 199.579 324.292 199.579 325.216C199.579 325.912 199.387 326.482 199.003 326.926C198.619 327.37 198.115 327.712 197.491 327.952V328.024C198.187 328.18 198.775 328.51 199.255 329.014C199.735 329.506 199.975 330.148 199.975 330.94C199.975 331.612 199.807 332.194 199.471 332.686C199.135 333.178 198.679 333.556 198.103 333.82C197.539 334.084 196.903 334.216 196.195 334.216Z" fill="#344054"/>
<path d="M231.72 334V333.118C232.872 331.966 233.85 330.958 234.654 330.094C235.458 329.218 236.07 328.432 236.49 327.736C236.91 327.028 237.12 326.368 237.12 325.756C237.12 325.096 236.94 324.556 236.58 324.136C236.22 323.716 235.674 323.506 234.942 323.506C234.462 323.506 234.018 323.644 233.61 323.92C233.202 324.184 232.83 324.508 232.494 324.892L231.648 324.046C232.128 323.518 232.638 323.098 233.178 322.786C233.73 322.462 234.378 322.3 235.122 322.3C236.19 322.3 237.03 322.612 237.642 323.236C238.254 323.848 238.56 324.664 238.56 325.684C238.56 326.404 238.356 327.136 237.948 327.88C237.552 328.612 237 329.386 236.292 330.202C235.596 331.006 234.792 331.882 233.88 332.83C234.192 332.806 234.516 332.782 234.852 332.758C235.188 332.734 235.506 332.722 235.806 332.722H239.136V334H231.72ZM241.819 329.644H245.419V326.314C245.419 326.002 245.431 325.63 245.455 325.198C245.479 324.766 245.497 324.4 245.509 324.1H245.437C245.293 324.376 245.143 324.646 244.987 324.91C244.831 325.174 244.669 325.444 244.501 325.72L241.819 329.644ZM245.419 334V330.832H240.253V329.86L245.167 322.516H246.823V329.644H248.389V330.832H246.823V334H245.419Z" fill="#344054"/>
<path d="M279.72 334V333.118C280.872 331.966 281.85 330.958 282.654 330.094C283.458 329.218 284.07 328.432 284.49 327.736C284.91 327.028 285.12 326.368 285.12 325.756C285.12 325.096 284.94 324.556 284.58 324.136C284.22 323.716 283.674 323.506 282.942 323.506C282.462 323.506 282.018 323.644 281.61 323.92C281.202 324.184 280.83 324.508 280.494 324.892L279.648 324.046C280.128 323.518 280.638 323.098 281.178 322.786C281.73 322.462 282.378 322.3 283.122 322.3C284.19 322.3 285.03 322.612 285.642 323.236C286.254 323.848 286.56 324.664 286.56 325.684C286.56 326.404 286.356 327.136 285.948 327.88C285.552 328.612 285 329.386 284.292 330.202C283.596 331.006 282.792 331.882 281.88 332.83C282.192 332.806 282.516 332.782 282.852 332.758C283.188 332.734 283.506 332.722 283.806 332.722H287.136V334H279.72ZM292.159 334.216C291.247 334.216 290.491 334.054 289.891 333.73C289.291 333.406 288.793 333.046 288.397 332.65L289.117 331.678C289.465 332.014 289.867 332.32 290.323 332.596C290.779 332.86 291.343 332.992 292.015 332.992C292.723 332.992 293.317 332.758 293.797 332.29C294.289 331.81 294.535 331.168 294.535 330.364C294.535 329.572 294.313 328.954 293.869 328.51C293.425 328.066 292.831 327.844 292.087 327.844C291.691 327.844 291.349 327.904 291.061 328.024C290.785 328.144 290.473 328.318 290.125 328.546L289.333 328.042L289.711 322.516H295.453V323.794H291.007L290.701 327.196C290.977 327.052 291.253 326.938 291.529 326.854C291.805 326.77 292.117 326.728 292.465 326.728C293.125 326.728 293.719 326.86 294.247 327.124C294.787 327.376 295.219 327.766 295.543 328.294C295.867 328.822 296.029 329.5 296.029 330.328C296.029 331.156 295.843 331.864 295.471 332.452C295.111 333.028 294.637 333.466 294.049 333.766C293.461 334.066 292.831 334.216 292.159 334.216Z" fill="#344054"/>
<path d="M327.72 334V333.118C328.872 331.966 329.85 330.958 330.654 330.094C331.458 329.218 332.07 328.432 332.49 327.736C332.91 327.028 333.12 326.368 333.12 325.756C333.12 325.096 332.94 324.556 332.58 324.136C332.22 323.716 331.674 323.506 330.942 323.506C330.462 323.506 330.018 323.644 329.61 323.92C329.202 324.184 328.83 324.508 328.494 324.892L327.648 324.046C328.128 323.518 328.638 323.098 329.178 322.786C329.73 322.462 330.378 322.3 331.122 322.3C332.19 322.3 333.03 322.612 333.642 323.236C334.254 323.848 334.56 324.664 334.56 325.684C334.56 326.404 334.356 327.136 333.948 327.88C333.552 328.612 333 329.386 332.292 330.202C331.596 331.006 330.792 331.882 329.88 332.83C330.192 332.806 330.516 332.782 330.852 332.758C331.188 332.734 331.506 332.722 331.806 332.722H335.136V334H327.72ZM340.645 328.096C340.273 328.096 339.871 328.216 339.439 328.456C339.007 328.696 338.611 329.08 338.251 329.608C338.347 330.724 338.605 331.576 339.025 332.164C339.457 332.752 340.039 333.046 340.771 333.046C341.335 333.046 341.809 332.818 342.193 332.362C342.577 331.894 342.769 331.282 342.769 330.526C342.769 329.782 342.589 329.194 342.229 328.762C341.881 328.318 341.353 328.096 340.645 328.096ZM340.771 334.216C340.027 334.216 339.355 334.012 338.755 333.604C338.155 333.196 337.681 332.584 337.333 331.768C336.985 330.94 336.811 329.914 336.811 328.69C336.811 327.154 337.015 325.918 337.423 324.982C337.843 324.046 338.383 323.368 339.043 322.948C339.715 322.516 340.429 322.3 341.185 322.3C341.809 322.3 342.343 322.42 342.787 322.66C343.243 322.888 343.633 323.176 343.957 323.524L343.129 324.442C342.901 324.166 342.619 323.95 342.283 323.794C341.947 323.626 341.599 323.542 341.239 323.542C340.699 323.542 340.207 323.698 339.763 324.01C339.319 324.31 338.953 324.82 338.665 325.54C338.389 326.248 338.239 327.208 338.215 328.42C338.575 327.976 338.995 327.628 339.475 327.376C339.955 327.112 340.429 326.98 340.897 326.98C341.893 326.98 342.685 327.28 343.273 327.88C343.873 328.468 344.173 329.35 344.173 330.526C344.173 331.258 344.017 331.9 343.705 332.452C343.393 333.004 342.979 333.436 342.463 333.748C341.959 334.06 341.395 334.216 340.771 334.216Z" fill="#344054"/>
<path d="M39.72 382V381.118C40.872 379.966 41.85 378.958 42.654 378.094C43.458 377.218 44.07 376.432 44.49 375.736C44.91 375.028 45.12 374.368 45.12 373.756C45.12 373.096 44.94 372.556 44.58 372.136C44.22 371.716 43.674 371.506 42.942 371.506C42.462 371.506 42.018 371.644 41.61 371.92C41.202 372.184 40.83 372.508 40.494 372.892L39.648 372.046C40.128 371.518 40.638 371.098 41.178 370.786C41.73 370.462 42.378 370.3 43.122 370.3C44.19 370.3 45.03 370.612 45.642 371.236C46.254 371.848 46.56 372.664 46.56 373.684C46.56 374.404 46.356 375.136 45.948 375.88C45.552 376.612 45 377.386 44.292 378.202C43.596 379.006 42.792 379.882 41.88 380.83C42.192 380.806 42.516 380.782 42.852 380.758C43.188 380.734 43.506 380.722 43.806 380.722H47.136V382H39.72ZM51.1333 382C51.2053 380.56 51.3553 379.27 51.5833 378.13C51.8233 376.978 52.1713 375.898 52.6273 374.89C53.0953 373.87 53.7073 372.838 54.4633 371.794H48.7393V370.516H56.1373V371.434C55.4533 372.298 54.8953 373.132 54.4633 373.936C54.0313 374.728 53.6953 375.532 53.4553 376.348C53.2153 377.152 53.0353 378.016 52.9153 378.94C52.7953 379.864 52.7113 380.884 52.6633 382H51.1333Z" fill="#344054"/>
<path d="M87.72 382V381.118C88.872 379.966 89.85 378.958 90.654 378.094C91.458 377.218 92.07 376.432 92.49 375.736C92.91 375.028 93.12 374.368 93.12 373.756C93.12 373.096 92.94 372.556 92.58 372.136C92.22 371.716 91.674 371.506 90.942 371.506C90.462 371.506 90.018 371.644 89.61 371.92C89.202 372.184 88.83 372.508 88.494 372.892L87.648 372.046C88.128 371.518 88.638 371.098 89.178 370.786C89.73 370.462 90.378 370.3 91.122 370.3C92.19 370.3 93.03 370.612 93.642 371.236C94.254 371.848 94.56 372.664 94.56 373.684C94.56 374.404 94.356 375.136 93.948 375.88C93.552 376.612 93 377.386 92.292 378.202C91.596 379.006 90.792 379.882 89.88 380.83C90.192 380.806 90.516 380.782 90.852 380.758C91.188 380.734 91.506 380.722 91.806 380.722H95.136V382H87.72ZM100.447 382.216C99.7273 382.216 99.0853 382.084 98.5213 381.82C97.9573 381.544 97.5073 381.166 97.1713 380.686C96.8473 380.206 96.6853 379.666 96.6853 379.066C96.6853 378.562 96.7873 378.118 96.9913 377.734C97.2073 377.338 97.4773 376.996 97.8013 376.708C98.1373 376.408 98.4853 376.162 98.8453 375.97V375.898C98.4253 375.598 98.0533 375.232 97.7293 374.8C97.4053 374.368 97.2433 373.852 97.2433 373.252C97.2433 372.664 97.3873 372.148 97.6753 371.704C97.9633 371.26 98.3533 370.918 98.8453 370.678C99.3373 370.426 99.8893 370.3 100.501 370.3C101.497 370.3 102.283 370.588 102.859 371.164C103.447 371.74 103.741 372.472 103.741 373.36C103.741 373.756 103.657 374.134 103.489 374.494C103.321 374.842 103.117 375.16 102.877 375.448C102.637 375.724 102.397 375.952 102.157 376.132V376.204C102.505 376.396 102.829 376.624 103.129 376.888C103.429 377.152 103.675 377.47 103.867 377.842C104.059 378.202 104.155 378.64 104.155 379.156C104.155 379.72 103.999 380.236 103.687 380.704C103.387 381.172 102.955 381.544 102.391 381.82C101.839 382.084 101.191 382.216 100.447 382.216ZM101.257 375.736C101.641 375.388 101.935 375.022 102.139 374.638C102.355 374.254 102.463 373.852 102.463 373.432C102.463 372.868 102.289 372.388 101.941 371.992C101.593 371.596 101.101 371.398 100.465 371.398C99.9373 371.398 99.4933 371.566 99.1333 371.902C98.7853 372.238 98.6113 372.688 98.6113 373.252C98.6113 373.708 98.7313 374.086 98.9713 374.386C99.2233 374.686 99.5533 374.944 99.9613 375.16C100.369 375.364 100.801 375.556 101.257 375.736ZM100.483 381.118C101.155 381.118 101.695 380.932 102.103 380.56C102.523 380.176 102.733 379.69 102.733 379.102C102.733 378.61 102.589 378.208 102.301 377.896C102.013 377.584 101.629 377.314 101.149 377.086C100.681 376.858 100.171 376.636 99.6193 376.42C99.1633 376.72 98.7793 377.08 98.4673 377.5C98.1673 377.92 98.0173 378.394 98.0173 378.922C98.0173 379.558 98.2513 380.086 98.7193 380.506C99.1993 380.914 99.7873 381.118 100.483 381.118Z" fill="#344054"/>
<path d="M135.72 382V381.118C136.872 379.966 137.85 378.958 138.654 378.094C139.458 377.218 140.07 376.432 140.49 375.736C140.91 375.028 141.12 374.368 141.12 373.756C141.12 373.096 140.94 372.556 140.58 372.136C140.22 371.716 139.674 371.506 138.942 371.506C138.462 371.506 138.018 371.644 137.61 371.92C137.202 372.184 136.83 372.508 136.494 372.892L135.648 372.046C136.128 371.518 136.638 371.098 137.178 370.786C137.73 370.462 138.378 370.3 139.122 370.3C140.19 370.3 141.03 370.612 141.642 371.236C142.254 371.848 142.56 372.664 142.56 373.684C142.56 374.404 142.356 375.136 141.948 375.88C141.552 376.612 141 377.386 140.292 378.202C139.596 379.006 138.792 379.882 137.88 380.83C138.192 380.806 138.516 380.782 138.852 380.758C139.188 380.734 139.506 380.722 139.806 380.722H143.136V382H135.72ZM146.053 373.99C146.053 374.734 146.227 375.328 146.575 375.772C146.935 376.204 147.469 376.42 148.177 376.42C148.561 376.42 148.963 376.3 149.383 376.06C149.815 375.82 150.217 375.43 150.589 374.89C150.493 373.774 150.229 372.928 149.797 372.352C149.365 371.764 148.783 371.47 148.051 371.47C147.499 371.47 147.025 371.704 146.629 372.172C146.245 372.628 146.053 373.234 146.053 373.99ZM147.637 382.216C147.025 382.216 146.485 382.102 146.017 381.874C145.561 381.634 145.177 381.346 144.865 381.01L145.693 380.074C145.933 380.35 146.215 380.572 146.539 380.74C146.875 380.908 147.223 380.992 147.583 380.992C148.123 380.992 148.621 380.836 149.077 380.524C149.533 380.212 149.899 379.696 150.175 378.976C150.463 378.256 150.613 377.284 150.625 376.06C150.265 376.516 149.845 376.876 149.365 377.14C148.885 377.404 148.405 377.536 147.925 377.536C146.941 377.536 146.149 377.242 145.549 376.654C144.961 376.054 144.667 375.166 144.667 373.99C144.667 373.258 144.823 372.616 145.135 372.064C145.447 371.512 145.855 371.08 146.359 370.768C146.875 370.456 147.439 370.3 148.051 370.3C148.807 370.3 149.485 370.504 150.085 370.912C150.685 371.32 151.153 371.932 151.489 372.748C151.837 373.564 152.011 374.59 152.011 375.826C152.011 377.362 151.801 378.598 151.381 379.534C150.973 380.47 150.439 381.154 149.779 381.586C149.119 382.006 148.405 382.216 147.637 382.216Z" fill="#344054"/>
<path d="M187.248 382.216C186.336 382.216 185.574 382.054 184.962 381.73C184.35 381.394 183.852 381.016 183.468 380.596L184.224 379.624C184.572 379.984 184.98 380.302 185.448 380.578C185.916 380.854 186.486 380.992 187.158 380.992C187.854 380.992 188.424 380.8 188.868 380.416C189.312 380.032 189.534 379.522 189.534 378.886C189.534 378.43 189.414 378.034 189.174 377.698C188.946 377.35 188.562 377.08 188.022 376.888C187.494 376.696 186.774 376.6 185.862 376.6V375.466C186.678 375.466 187.32 375.37 187.788 375.178C188.268 374.986 188.61 374.728 188.814 374.404C189.018 374.08 189.12 373.72 189.12 373.324C189.12 372.76 188.94 372.316 188.58 371.992C188.232 371.668 187.752 371.506 187.14 371.506C186.66 371.506 186.216 371.614 185.808 371.83C185.412 372.046 185.04 372.328 184.692 372.676L183.9 371.74C184.344 371.32 184.836 370.978 185.376 370.714C185.916 370.438 186.522 370.3 187.194 370.3C188.19 370.3 189.012 370.558 189.66 371.074C190.308 371.578 190.632 372.292 190.632 373.216C190.632 373.912 190.44 374.482 190.056 374.926C189.672 375.37 189.168 375.712 188.544 375.952V376.024C189.24 376.18 189.828 376.51 190.308 377.014C190.788 377.506 191.028 378.148 191.028 378.94C191.028 379.612 190.86 380.194 190.524 380.686C190.188 381.178 189.732 381.556 189.156 381.82C188.592 382.084 187.956 382.216 187.248 382.216ZM196.429 382.216C195.277 382.216 194.371 381.7 193.711 380.668C193.063 379.624 192.739 378.142 192.739 376.222C192.739 374.29 193.063 372.82 193.711 371.812C194.371 370.804 195.277 370.3 196.429 370.3C197.569 370.3 198.463 370.804 199.111 371.812C199.771 372.82 200.101 374.29 200.101 376.222C200.101 378.142 199.771 379.624 199.111 380.668C198.463 381.7 197.569 382.216 196.429 382.216ZM196.429 381.028C197.101 381.028 197.641 380.65 198.049 379.894C198.457 379.126 198.661 377.902 198.661 376.222C198.661 374.542 198.457 373.336 198.049 372.604C197.641 371.86 197.101 371.488 196.429 371.488C195.757 371.488 195.211 371.86 194.791 372.604C194.383 373.336 194.179 374.542 194.179 376.222C194.179 377.902 194.383 379.126 194.791 379.894C195.211 380.65 195.757 381.028 196.429 381.028Z" fill="#344054"/>
<path d="M235.248 382.216C234.336 382.216 233.574 382.054 232.962 381.73C232.35 381.394 231.852 381.016 231.468 380.596L232.224 379.624C232.572 379.984 232.98 380.302 233.448 380.578C233.916 380.854 234.486 380.992 235.158 380.992C235.854 380.992 236.424 380.8 236.868 380.416C237.312 380.032 237.534 379.522 237.534 378.886C237.534 378.43 237.414 378.034 237.174 377.698C236.946 377.35 236.562 377.08 236.022 376.888C235.494 376.696 234.774 376.6 233.862 376.6V375.466C234.678 375.466 235.32 375.37 235.788 375.178C236.268 374.986 236.61 374.728 236.814 374.404C237.018 374.08 237.12 373.72 237.12 373.324C237.12 372.76 236.94 372.316 236.58 371.992C236.232 371.668 235.752 371.506 235.14 371.506C234.66 371.506 234.216 371.614 233.808 371.83C233.412 372.046 233.04 372.328 232.692 372.676L231.9 371.74C232.344 371.32 232.836 370.978 233.376 370.714C233.916 370.438 234.522 370.3 235.194 370.3C236.19 370.3 237.012 370.558 237.66 371.074C238.308 371.578 238.632 372.292 238.632 373.216C238.632 373.912 238.44 374.482 238.056 374.926C237.672 375.37 237.168 375.712 236.544 375.952V376.024C237.24 376.18 237.828 376.51 238.308 377.014C238.788 377.506 239.028 378.148 239.028 378.94C239.028 379.612 238.86 380.194 238.524 380.686C238.188 381.178 237.732 381.556 237.156 381.82C236.592 382.084 235.956 382.216 235.248 382.216ZM241.369 382V380.776H243.997V372.316H241.909V371.362C242.437 371.266 242.893 371.152 243.277 371.02C243.673 370.876 244.027 370.708 244.339 370.516H245.473V380.776H247.849V382H241.369Z" fill="black"/>
<path d="M284.922 382V380.776H287.55V372.316H285.462V371.362C285.99 371.266 286.446 371.152 286.83 371.02C287.226 370.876 287.58 370.708 287.892 370.516H289.026V380.776H291.402V382H284.922Z" fill="black" fill-opacity="0.3"/>
<path d="M332.22 382V381.118C333.372 379.966 334.35 378.958 335.154 378.094C335.958 377.218 336.57 376.432 336.99 375.736C337.41 375.028 337.62 374.368 337.62 373.756C337.62 373.096 337.44 372.556 337.08 372.136C336.72 371.716 336.174 371.506 335.442 371.506C334.962 371.506 334.518 371.644 334.11 371.92C333.702 372.184 333.33 372.508 332.994 372.892L332.148 372.046C332.628 371.518 333.138 371.098 333.678 370.786C334.23 370.462 334.878 370.3 335.622 370.3C336.69 370.3 337.53 370.612 338.142 371.236C338.754 371.848 339.06 372.664 339.06 373.684C339.06 374.404 338.856 375.136 338.448 375.88C338.052 376.612 337.5 377.386 336.792 378.202C336.096 379.006 335.292 379.882 334.38 380.83C334.692 380.806 335.016 380.782 335.352 380.758C335.688 380.734 336.006 380.722 336.306 380.722H339.636V382H332.22Z" fill="black" fill-opacity="0.3"/>
<rect x="0.5" y="38.5" width="383" height="385" rx="4.5" stroke="#98A2B3"/>
<circle cx="92" cy="13" r="12" fill="#344054"/>
<path d="M89.12 18V16.096H91.328V10.224H89.424V8.768C89.9787 8.66133 90.448 8.53333 90.832 8.384C91.216 8.23467 91.5893 8.05333 91.952 7.84H93.68V16.096H95.584V18H89.12Z" fill="white"/>
<path d="M105 13H178V64" stroke="#344054" stroke-dasharray="2 2"/>
<circle cx="319" cy="13" r="12" fill="#344054"/>
<path d="M315.592 18V16.656C316.456 15.8347 317.219 15.0933 317.88 14.432C318.552 13.76 319.075 13.1467 319.448 12.592C319.821 12.0267 320.008 11.504 320.008 11.024C320.008 10.5227 319.875 10.144 319.608 9.888C319.352 9.62133 319.005 9.488 318.568 9.488C318.205 9.488 317.875 9.59467 317.576 9.808C317.288 10.0107 317.016 10.2507 316.76 10.528L315.48 9.264C315.981 8.73067 316.493 8.33067 317.016 8.064C317.539 7.78667 318.163 7.648 318.888 7.648C319.56 7.648 320.147 7.78133 320.648 8.048C321.149 8.31467 321.539 8.69333 321.816 9.184C322.104 9.664 322.248 10.2293 322.248 10.88C322.248 11.4453 322.088 12.0267 321.768 12.624C321.459 13.2107 321.059 13.8027 320.568 14.4C320.077 14.9867 319.555 15.568 319 16.144C319.256 16.112 319.544 16.0853 319.864 16.064C320.184 16.032 320.461 16.016 320.696 16.016H322.744V18H315.592Z" fill="white"/>
<path d="M304.5 13.5H234.5V62.5" stroke="#344054" stroke-dasharray="2 2"/>
<circle cx="425" cy="77" r="12" fill="#344054"/>
<path d="M424.888 82.192C424.067 82.192 423.363 82.0587 422.776 81.792C422.2 81.5253 421.725 81.1787 421.352 80.752L422.44 79.264C422.749 79.5627 423.091 79.808 423.464 80C423.837 80.192 424.237 80.288 424.664 80.288C425.165 80.288 425.565 80.1867 425.864 79.984C426.163 79.7707 426.312 79.472 426.312 79.088C426.312 78.7893 426.237 78.5333 426.088 78.32C425.939 78.096 425.667 77.9253 425.272 77.808C424.877 77.6907 424.312 77.632 423.576 77.632V75.968C424.493 75.968 425.123 75.8453 425.464 75.6C425.805 75.344 425.976 75.0133 425.976 74.608C425.976 74.256 425.869 73.984 425.656 73.792C425.443 73.5893 425.133 73.488 424.728 73.488C424.365 73.488 424.035 73.568 423.736 73.728C423.448 73.888 423.144 74.1067 422.824 74.384L421.64 72.944C422.109 72.5387 422.605 72.224 423.128 72C423.651 71.7653 424.221 71.648 424.84 71.648C425.885 71.648 426.728 71.8933 427.368 72.384C428.019 72.864 428.344 73.5467 428.344 74.432C428.344 74.9547 428.195 75.4027 427.896 75.776C427.608 76.1493 427.192 76.4533 426.648 76.688V76.752C427.235 76.9227 427.715 77.216 428.088 77.632C428.472 78.0373 428.664 78.5707 428.664 79.232C428.664 79.8613 428.488 80.4 428.136 80.848C427.795 81.2853 427.336 81.6213 426.76 81.856C426.195 82.08 425.571 82.192 424.888 82.192Z" fill="white"/>
<path d="M365 77H418" stroke="#344054" stroke-dasharray="2 2"/>
</svg>
