<svg width="449" height="425" viewBox="0 0 449 425" fill="none" xmlns="http://www.w3.org/2000/svg"><rect x="58.5" y=".5" width="383" height="385" rx="4.5" fill="#fff"/><path fill-rule="evenodd" clip-rule="evenodd" d="M99.031 30.469a.75.75 0 0 1 0 1.062L90.561 40l8.47 8.469a.75.75 0 1 1-1.062 1.062l-9-9a.75.75 0 0 1 0-1.062l9-9a.751.751 0 0 1 1.062 0Z" fill="#4A1FB8"/><path d="M187.386 46V34.264h7.398v2.232h-4.752v2.718h4.068v2.232h-4.068V46h-2.646Zm12.903.216c-.852 0-1.62-.186-2.304-.558a4.078 4.078 0 0 1-1.62-1.602c-.396-.696-.594-1.536-.594-2.52 0-.972.198-1.806.594-2.502.408-.696.936-1.23 1.584-1.602a3.932 3.932 0 0 1 2.034-.576c.852 0 1.554.192 2.106.576.564.372.984.882 1.26 1.53.288.636.432 1.362.432 2.178a6.53 6.53 0 0 1-.108 1.17h-5.346c.12.648.39 1.128.81 1.44.42.3.924.45 1.512.45.636 0 1.278-.198 1.926-.594l.882 1.602a5.83 5.83 0 0 1-1.53.738c-.564.18-1.11.27-1.638.27Zm-1.98-5.652h3.222c0-.492-.12-.894-.36-1.206-.228-.324-.606-.486-1.134-.486-.408 0-.774.144-1.098.432-.324.276-.534.696-.63 1.26Zm11.98 5.652c-.396 0-.798-.096-1.206-.288a3.97 3.97 0 0 1-1.116-.882h-.072l-.216.954h-2.07V33.382h2.646v3.096l-.072 1.368a3.94 3.94 0 0 1 1.134-.72 3.01 3.01 0 0 1 1.224-.27c.72 0 1.344.186 1.872.558.528.372.93.9 1.206 1.584.288.672.432 1.464.432 2.376 0 1.02-.18 1.896-.54 2.628-.36.72-.828 1.272-1.404 1.656a3.241 3.241 0 0 1-1.818.558Zm-.612-2.16c.456 0 .846-.21 1.17-.63.324-.42.486-1.086.486-1.998 0-1.608-.516-2.412-1.548-2.412-.528 0-1.038.27-1.53.81v3.654c.24.216.48.366.72.45.24.084.474.126.702.126ZM215.928 46v-8.928h2.16l.18 1.566h.072c.324-.6.714-1.044 1.17-1.332.456-.3.912-.45 1.368-.45.252 0 .462.018.63.054.168.024.312.066.432.126l-.432 2.286a3.101 3.101 0 0 0-.972-.144c-.336 0-.69.126-1.062.378-.36.24-.66.66-.9 1.26V46h-2.646Zm9.854.216c-.972 0-1.68-.318-2.124-.954-.432-.648-.648-1.53-.648-2.646v-5.544h2.646v5.202c0 .636.09 1.08.27 1.332.18.24.462.36.846.36.336 0 .618-.078.846-.234.228-.156.474-.408.738-.756v-5.904h2.646V46h-2.16l-.198-1.242h-.054a4.81 4.81 0 0 1-1.224 1.062c-.444.264-.972.396-1.584.396Zm9.798 0c-.816 0-1.464-.258-1.944-.774-.48-.528-.72-1.17-.72-1.926 0-.936.396-1.668 1.188-2.196.792-.528 2.07-.882 3.834-1.062-.024-.396-.144-.708-.36-.936-.204-.24-.552-.36-1.044-.36-.372 0-.75.072-1.134.216a8.09 8.09 0 0 0-1.224.594l-.954-1.746a8.813 8.813 0 0 1 1.8-.846 6.333 6.333 0 0 1 2.016-.324c1.14 0 2.016.33 2.628.99.612.66.918 1.674.918 3.042V46h-2.16l-.18-.918h-.072a5.392 5.392 0 0 1-1.206.828 3.13 3.13 0 0 1-1.386.306Zm.9-2.052c.3 0 .558-.066.774-.198.228-.144.456-.33.684-.558v-1.566c-.936.12-1.584.312-1.944.576-.36.252-.54.552-.54.9 0 .288.09.504.27.648.192.132.444.198.756.198ZM242.822 46v-8.928h2.16l.18 1.566h.072c.324-.6.714-1.044 1.17-1.332.456-.3.912-.45 1.368-.45.252 0 .462.018.63.054.168.024.312.066.432.126l-.432 2.286a3.101 3.101 0 0 0-.972-.144c-.336 0-.69.126-1.062.378-.36.24-.66.66-.9 1.26V46h-2.646Zm8.285 3.492c-.264 0-.498-.018-.702-.054a7.604 7.604 0 0 1-.558-.126l.468-2.016c.084.012.18.03.288.054.108.036.21.054.306.054.444 0 .786-.108 1.026-.324.24-.216.42-.498.54-.846l.126-.468-3.438-8.694h2.664l1.278 3.834c.132.408.252.822.36 1.242.108.42.222.852.342 1.296h.072l.288-1.26c.108-.432.216-.858.324-1.278l1.08-3.834h2.538l-3.096 9.018c-.276.744-.582 1.368-.918 1.872-.336.516-.744.9-1.224 1.152-.468.252-1.056.378-1.764.378ZM275.666 46v-1.512c.972-.924 1.83-1.758 2.574-2.502.756-.756 1.344-1.446 1.764-2.07.42-.636.63-1.224.63-1.764 0-.564-.15-.99-.45-1.278-.288-.3-.678-.45-1.17-.45-.408 0-.78.12-1.116.36a5.77 5.77 0 0 0-.918.81l-1.44-1.422c.564-.6 1.14-1.05 1.728-1.35.588-.312 1.29-.468 2.106-.468.756 0 1.416.15 1.98.45a3.21 3.21 0 0 1 1.314 1.278c.324.54.486 1.176.486 1.908 0 .636-.18 1.29-.54 1.962-.348.66-.798 1.326-1.35 1.998-.552.66-1.14 1.314-1.764 1.962.288-.036.612-.066.972-.09.36-.036.672-.054.936-.054h2.304V46h-8.046Zm13.596.216c-1.224 0-2.214-.51-2.97-1.53-.744-1.02-1.116-2.502-1.116-4.446s.372-3.408 1.116-4.392c.756-.996 1.746-1.494 2.97-1.494 1.224 0 2.208.498 2.952 1.494.756.984 1.134 2.448 1.134 4.392 0 1.944-.378 3.426-1.134 4.446-.744 1.02-1.728 1.53-2.952 1.53Zm0-2.052c.3 0 .57-.108.81-.324.24-.228.426-.624.558-1.188.144-.564.216-1.368.216-2.412 0-1.044-.072-1.842-.216-2.394-.132-.552-.318-.93-.558-1.134a1.218 1.218 0 0 0-.81-.306c-.288 0-.552.102-.792.306-.24.204-.432.582-.576 1.134-.144.552-.216 1.35-.216 2.394s.072 1.848.216 2.412c.144.564.336.96.576 1.188.24.216.504.324.792.324ZM294.686 46v-1.512c.972-.924 1.83-1.758 2.574-2.502.756-.756 1.344-1.446 1.764-2.07.42-.636.63-1.224.63-1.764 0-.564-.15-.99-.45-1.278-.288-.3-.678-.45-1.17-.45-.408 0-.78.12-1.116.36a5.77 5.77 0 0 0-.918.81l-1.44-1.422c.564-.6 1.14-1.05 1.728-1.35.588-.312 1.29-.468 2.106-.468.756 0 1.416.15 1.98.45a3.21 3.21 0 0 1 1.314 1.278c.324.54.486 1.176.486 1.908 0 .636-.18 1.29-.54 1.962-.348.66-.798 1.326-1.35 1.998-.552.66-1.14 1.314-1.764 1.962.288-.036.612-.066.972-.09.36-.036.672-.054.936-.054h2.304V46h-8.046Zm9.509 0v-1.512c.972-.924 1.83-1.758 2.574-2.502.756-.756 1.344-1.446 1.764-2.07.42-.636.63-1.224.63-1.764 0-.564-.15-.99-.45-1.278-.288-.3-.678-.45-1.17-.45-.408 0-.78.12-1.116.36a5.77 5.77 0 0 0-.918.81l-1.44-1.422c.564-.6 1.14-1.05 1.728-1.35.588-.312 1.29-.468 2.106-.468.756 0 1.416.15 1.98.45a3.21 3.21 0 0 1 1.314 1.278c.324.54.486 1.176.486 1.908 0 .636-.18 1.29-.54 1.962-.348.66-.798 1.326-1.35 1.998-.552.66-1.14 1.314-1.764 1.962.288-.036.612-.066.972-.09.36-.036.672-.054.936-.054h2.304V46h-8.046Z" fill="#4A1FB8"/><path fill-rule="evenodd" clip-rule="evenodd" d="M400.969 30.469a.747.747 0 0 1 .818-.163.747.747 0 0 1 .244.163l9 9a.75.75 0 0 1 0 1.062l-9 9a.752.752 0 0 1-1.062-1.062L409.44 40l-8.471-8.469a.75.75 0 0 1 0-1.062Z" fill="#4A1FB8"/><path d="M95.896 104.216a5.65 5.65 0 0 1-2.304-.468 6.07 6.07 0 0 1-1.836-1.278l.9-1.044c.42.444.912.804 1.476 1.08.576.264 1.17.396 1.782.396.78 0 1.386-.174 1.818-.522.432-.36.648-.828.648-1.404 0-.408-.09-.732-.27-.972a2.073 2.073 0 0 0-.702-.612 10.774 10.774 0 0 0-.99-.504l-1.692-.738a6.426 6.426 0 0 1-1.116-.612 3.391 3.391 0 0 1-.918-.972c-.24-.396-.36-.882-.36-1.458 0-.6.156-1.134.468-1.602.324-.48.768-.852 1.332-1.116.564-.276 1.2-.414 1.908-.414s1.362.138 1.962.414c.6.264 1.11.612 1.53 1.044l-.81.972a4.022 4.022 0 0 0-1.206-.81c-.432-.204-.924-.306-1.476-.306-.66 0-1.194.156-1.602.468-.396.312-.594.732-.594 1.26 0 .372.096.684.288.936.204.24.456.438.756.594.3.156.606.3.918.432l1.674.72c.456.192.864.426 1.224.702.372.264.666.594.882.99.216.384.324.87.324 1.458 0 .624-.162 1.194-.486 1.71-.324.504-.786.906-1.386 1.206-.6.3-1.314.45-2.142.45Zm8.751 0c-.924 0-1.602-.288-2.034-.864-.432-.588-.648-1.44-.648-2.556v-5.544h1.494v5.346c0 .816.126 1.41.378 1.782.264.372.684.558 1.26.558a2.15 2.15 0 0 0 1.206-.342c.36-.24.744-.618 1.152-1.134v-6.21h1.476V104h-1.224l-.126-1.368h-.054c-.408.48-.84.864-1.296 1.152-.456.288-.984.432-1.584.432Zm7.235-.216v-8.748h1.224l.126 1.26h.054c.42-.42.864-.768 1.332-1.044a2.994 2.994 0 0 1 1.602-.432c.924 0 1.596.294 2.016.882.432.576.648 1.422.648 2.538V104h-1.476v-5.346c0-.816-.132-1.41-.396-1.782-.264-.372-.684-.558-1.26-.558-.444 0-.846.114-1.206.342-.348.228-.744.564-1.188 1.008V104h-1.476Zm27.238 0V92.192h1.8l2.268 6.3c.144.408.282.822.414 1.242l.432 1.224h.072c.144-.408.276-.816.396-1.224.132-.42.27-.834.414-1.242l2.232-6.3h1.818V104h-1.404v-6.498c0-.528.024-1.11.072-1.746.048-.648.09-1.23.126-1.746h-.072l-.936 2.682-2.232 6.12h-.99l-2.232-6.12-.936-2.682h-.072c.036.516.072 1.098.108 1.746.048.636.072 1.218.072 1.746V104h-1.35Zm16.336.216c-.708 0-1.374-.18-1.998-.54-.612-.36-1.11-.882-1.494-1.566-.372-.684-.558-1.506-.558-2.466 0-.984.186-1.818.558-2.502.384-.684.882-1.206 1.494-1.566.624-.36 1.29-.54 1.998-.54.72 0 1.386.18 1.998.54.612.36 1.104.882 1.476 1.566.384.684.576 1.518.576 2.502 0 .96-.192 1.782-.576 2.466-.372.684-.864 1.206-1.476 1.566a3.87 3.87 0 0 1-1.998.54Zm0-1.224c.756 0 1.362-.306 1.818-.918.468-.624.702-1.434.702-2.43 0-1.008-.234-1.824-.702-2.448-.456-.624-1.062-.936-1.818-.936-.744 0-1.35.312-1.818.936-.468.624-.702 1.44-.702 2.448 0 .996.234 1.806.702 2.43.468.612 1.074.918 1.818.918ZM161.81 104v-8.748h1.224l.126 1.26h.054c.42-.42.864-.768 1.332-1.044a2.994 2.994 0 0 1 1.602-.432c.924 0 1.596.294 2.016.882.432.576.648 1.422.648 2.538V104h-1.476v-5.346c0-.816-.132-1.41-.396-1.782-.264-.372-.684-.558-1.26-.558-.444 0-.846.114-1.206.342-.348.228-.744.564-1.188 1.008V104h-1.476Zm30.258 0V93.452h-3.564v-1.26h8.64v1.26h-3.564V104h-1.512Zm8.788.216c-.924 0-1.602-.288-2.034-.864-.432-.588-.648-1.44-.648-2.556v-5.544h1.494v5.346c0 .816.126 1.41.378 1.782.264.372.684.558 1.26.558a2.15 2.15 0 0 0 1.206-.342c.36-.24.744-.618 1.152-1.134v-6.21h1.476V104h-1.224l-.126-1.368h-.054c-.408.48-.84.864-1.296 1.152-.456.288-.984.432-1.584.432Zm10.781 0c-.78 0-1.488-.18-2.124-.54a4.008 4.008 0 0 1-1.512-1.584c-.372-.684-.558-1.5-.558-2.448 0-.96.186-1.782.558-2.466.384-.684.876-1.212 1.476-1.584.6-.372 1.23-.558 1.89-.558 1.116 0 1.974.372 2.574 1.116.612.744.918 1.74.918 2.988a6.1 6.1 0 0 1-.018.468c0 .144-.012.27-.036.378h-5.904c.06.924.348 1.662.864 2.214.528.552 1.212.828 2.052.828.42 0 .804-.06 1.152-.18.36-.132.702-.3 1.026-.504l.522.972c-.372.24-.798.45-1.278.63-.468.18-1.002.27-1.602.27Zm-2.754-5.292h4.68c0-.888-.192-1.56-.576-2.016-.372-.468-.9-.702-1.584-.702-.612 0-1.164.24-1.656.72-.48.468-.768 1.134-.864 1.998ZM235.916 104l-2.502-11.808h1.548l1.242 6.426c.108.636.222 1.272.342 1.908.12.636.234 1.272.342 1.908h.072c.132-.636.27-1.272.414-1.908.144-.648.282-1.284.414-1.908l1.638-6.426h1.368l1.638 6.426c.144.624.288 1.26.432 1.908l.432 1.908h.072l.324-1.908c.108-.648.222-1.284.342-1.908l1.242-6.426h1.44L244.268 104h-1.8l-1.782-7.11c-.108-.456-.21-.9-.306-1.332a67.114 67.114 0 0 0-.27-1.35h-.072c-.084.456-.18.906-.288 1.35-.108.432-.21.876-.306 1.332l-1.746 7.11h-1.782Zm16.256.216c-.78 0-1.488-.18-2.124-.54a4.008 4.008 0 0 1-1.512-1.584c-.372-.684-.558-1.5-.558-2.448 0-.96.186-1.782.558-2.466.384-.684.876-1.212 1.476-1.584.6-.372 1.23-.558 1.89-.558 1.116 0 1.974.372 2.574 1.116.612.744.918 1.74.918 2.988a6.1 6.1 0 0 1-.018.468c0 .144-.012.27-.036.378h-5.904c.06.924.348 1.662.864 2.214.528.552 1.212.828 2.052.828.42 0 .804-.06 1.152-.18.36-.132.702-.3 1.026-.504l.522.972c-.372.24-.798.45-1.278.63-.468.18-1.002.27-1.602.27Zm-2.754-5.292h4.68c0-.888-.192-1.56-.576-2.016-.372-.468-.9-.702-1.584-.702-.612 0-1.164.24-1.656.72-.48.468-.768 1.134-.864 1.998Zm11.126 5.292c-1.092 0-1.968-.396-2.628-1.188-.66-.804-.99-1.932-.99-3.384 0-.948.174-1.764.522-2.448.36-.696.828-1.23 1.404-1.602a3.443 3.443 0 0 1 1.872-.558c.504 0 .942.09 1.314.27.372.18.75.426 1.134.738l-.072-1.494v-3.366h1.494V104h-1.224l-.126-1.026h-.054c-.336.336-.732.63-1.188.882-.456.24-.942.36-1.458.36Zm.324-1.242c.768 0 1.512-.402 2.232-1.206v-4.572c-.372-.336-.732-.57-1.08-.702a2.624 2.624 0 0 0-1.044-.216 2.08 2.08 0 0 0-1.278.432c-.372.276-.672.666-.9 1.17-.228.492-.342 1.074-.342 1.746 0 1.044.21 1.866.63 2.466.42.588 1.014.882 1.782.882Zm26.2 1.026V93.452h-3.564v-1.26h8.64v1.26h-3.564V104h-1.512Zm7.058 0V91.184h1.476v3.492l-.054 1.8c.42-.396.858-.732 1.314-1.008a2.994 2.994 0 0 1 1.602-.432c.924 0 1.596.294 2.016.882.432.576.648 1.422.648 2.538V104h-1.476v-5.346c0-.816-.132-1.41-.396-1.782-.264-.372-.684-.558-1.26-.558-.444 0-.846.114-1.206.342-.348.228-.744.564-1.188 1.008V104h-1.476Zm12.347.216c-.924 0-1.602-.288-2.034-.864-.432-.588-.648-1.44-.648-2.556v-5.544h1.494v5.346c0 .816.126 1.41.378 1.782.264.372.684.558 1.26.558a2.15 2.15 0 0 0 1.206-.342c.36-.24.744-.618 1.152-1.134v-6.21h1.476V104h-1.224l-.126-1.368h-.054c-.408.48-.84.864-1.296 1.152-.456.288-.984.432-1.584.432ZM337.62 104V92.192h6.804v1.26h-5.31v3.996h4.5v1.26h-4.5V104h-1.494Zm8.399 0v-8.748h1.224l.126 1.584h.054c.3-.552.666-.99 1.098-1.314.432-.324.894-.486 1.386-.486.348 0 .66.06.936.18l-.288 1.296a3.329 3.329 0 0 0-.396-.108 2.35 2.35 0 0 0-.45-.036c-.372 0-.762.15-1.17.45-.396.3-.744.822-1.044 1.566V104h-1.476Zm6.24 0v-8.748h1.476V104h-1.476Zm.756-10.548c-.288 0-.528-.084-.72-.252-.18-.18-.27-.42-.27-.72 0-.288.09-.522.27-.702.192-.18.432-.27.72-.27s.522.09.702.27c.192.18.288.414.288.702 0 .3-.096.54-.288.72-.18.168-.414.252-.702.252Zm33.381 10.764a5.65 5.65 0 0 1-2.304-.468 6.07 6.07 0 0 1-1.836-1.278l.9-1.044c.42.444.912.804 1.476 1.08.576.264 1.17.396 1.782.396.78 0 1.386-.174 1.818-.522.432-.36.648-.828.648-1.404 0-.408-.09-.732-.27-.972a2.073 2.073 0 0 0-.702-.612 10.774 10.774 0 0 0-.99-.504l-1.692-.738a6.426 6.426 0 0 1-1.116-.612 3.391 3.391 0 0 1-.918-.972c-.24-.396-.36-.882-.36-1.458 0-.6.156-1.134.468-1.602.324-.48.768-.852 1.332-1.116.564-.276 1.2-.414 1.908-.414s1.362.138 1.962.414c.6.264 1.11.612 1.53 1.044l-.81.972a4.022 4.022 0 0 0-1.206-.81c-.432-.204-.924-.306-1.476-.306-.66 0-1.194.156-1.602.468-.396.312-.594.732-.594 1.26 0 .372.096.684.288.936.204.24.456.438.756.594.3.156.606.3.918.432l1.674.72c.456.192.864.426 1.224.702.372.264.666.594.882.99.216.384.324.87.324 1.458 0 .624-.162 1.194-.486 1.71-.324.504-.786.906-1.386 1.206-.6.3-1.314.45-2.142.45Zm8.211 0c-.732 0-1.344-.216-1.836-.648-.48-.444-.72-1.056-.72-1.836 0-.96.426-1.692 1.278-2.196.864-.516 2.226-.876 4.086-1.08a3.45 3.45 0 0 0-.162-1.062 1.523 1.523 0 0 0-.54-.81c-.252-.216-.618-.324-1.098-.324-.504 0-.978.096-1.422.288-.444.192-.84.408-1.188.648l-.576-1.026a9.08 9.08 0 0 1 1.494-.756 4.969 4.969 0 0 1 1.944-.378c1.068 0 1.842.33 2.322.99.48.648.72 1.518.72 2.61V104h-1.224l-.126-1.044h-.054c-.408.336-.858.63-1.35.882a3.28 3.28 0 0 1-1.548.378Zm.432-1.188c.42 0 .816-.102 1.188-.306a6.67 6.67 0 0 0 1.188-.864v-2.43c-1.452.18-2.472.45-3.06.81-.576.36-.864.822-.864 1.386 0 .492.15.852.45 1.08.3.216.666.324 1.098.324Zm9.13 1.188c-.936 0-1.59-.27-1.962-.81-.36-.54-.54-1.242-.54-2.106v-4.842h-1.296v-1.116l1.368-.09.18-2.448h1.242v2.448h2.358v1.206h-2.358v4.86c0 .54.096.96.288 1.26.204.288.558.432 1.062.432.156 0 .324-.024.504-.072l.486-.162.288 1.116c-.24.084-.504.156-.792.216a3.269 3.269 0 0 1-.828.108Z" fill="#344054"/><path d="M97.72 152v-.882c1.152-1.152 2.13-2.16 2.934-3.024.804-.876 1.416-1.662 1.836-2.358.42-.708.63-1.368.63-1.98 0-.66-.18-1.2-.54-1.62-.36-.42-.906-.63-1.638-.63-.48 0-.924.138-1.332.414-.408.264-.78.588-1.116.972l-.846-.846c.48-.528.99-.948 1.53-1.26.552-.324 1.2-.486 1.944-.486 1.068 0 1.908.312 2.52.936.612.612.918 1.428.918 2.448 0 .72-.204 1.452-.612 2.196-.396.732-.948 1.506-1.656 2.322-.696.804-1.5 1.68-2.412 2.628l.972-.072c.336-.024.654-.036.954-.036h3.33V152H97.72Zm10.333-8.01c0 .744.174 1.338.522 1.782.36.432.894.648 1.602.648.384 0 .786-.12 1.206-.36.432-.24.834-.63 1.206-1.17-.096-1.116-.36-1.962-.792-2.538-.432-.588-1.014-.882-1.746-.882-.552 0-1.026.234-1.422.702-.384.456-.576 1.062-.576 1.818Zm1.584 8.226c-.612 0-1.152-.114-1.62-.342a4.262 4.262 0 0 1-1.152-.864l.828-.936c.24.276.522.498.846.666.336.168.684.252 1.044.252.54 0 1.038-.156 1.494-.468.456-.312.822-.828 1.098-1.548.288-.72.438-1.692.45-2.916-.36.456-.78.816-1.26 1.08-.48.264-.96.396-1.44.396-.984 0-1.776-.294-2.376-.882-.588-.6-.882-1.488-.882-2.664 0-.732.156-1.374.468-1.926.312-.552.72-.984 1.224-1.296a3.21 3.21 0 0 1 1.692-.468c.756 0 1.434.204 2.034.612.6.408 1.068 1.02 1.404 1.836.348.816.522 1.842.522 3.078 0 1.536-.21 2.772-.63 3.708-.408.936-.942 1.62-1.602 2.052-.66.42-1.374.63-2.142.63Zm39.611 0c-.912 0-1.674-.162-2.286-.486-.612-.336-1.11-.714-1.494-1.134l.756-.972c.348.36.756.678 1.224.954.468.276 1.038.414 1.71.414.696 0 1.266-.192 1.71-.576.444-.384.666-.894.666-1.53 0-.456-.12-.852-.36-1.188-.228-.348-.612-.618-1.152-.81-.528-.192-1.248-.288-2.16-.288v-1.134c.816 0 1.458-.096 1.926-.288.48-.192.822-.45 1.026-.774.204-.324.306-.684.306-1.08 0-.564-.18-1.008-.54-1.332-.348-.324-.828-.486-1.44-.486-.48 0-.924.108-1.332.324a4.894 4.894 0 0 0-1.116.846l-.792-.936c.444-.42.936-.762 1.476-1.026.54-.276 1.146-.414 1.818-.414.996 0 1.818.258 2.466.774.648.504.972 1.218.972 2.142 0 .696-.192 1.266-.576 1.71-.384.444-.888.786-1.512 1.026v.072a3.41 3.41 0 0 1 1.764.99c.48.492.72 1.134.72 1.926 0 .672-.168 1.254-.504 1.746-.336.492-.792.87-1.368 1.134-.564.264-1.2.396-1.908.396Zm9.181 0c-1.152 0-2.058-.516-2.718-1.548-.648-1.044-.972-2.526-.972-4.446 0-1.932.324-3.402.972-4.41.66-1.008 1.566-1.512 2.718-1.512 1.14 0 2.034.504 2.682 1.512.66 1.008.99 2.478.99 4.41 0 1.92-.33 3.402-.99 4.446-.648 1.032-1.542 1.548-2.682 1.548Zm0-1.188c.672 0 1.212-.378 1.62-1.134.408-.768.612-1.992.612-3.672 0-1.68-.204-2.886-.612-3.618-.408-.744-.948-1.116-1.62-1.116-.672 0-1.218.372-1.638 1.116-.408.732-.612 1.938-.612 3.618s.204 2.904.612 3.672c.42.756.966 1.134 1.638 1.134Zm40.493.972v-1.224h2.628v-8.46h-2.088v-.954c.528-.096.984-.21 1.368-.342a5.81 5.81 0 0 0 1.062-.504h1.134v10.26h2.376V152h-6.48Z" fill="#000" fill-opacity=".3"/><path d="M245.666 152v-1.512c.972-.924 1.83-1.758 2.574-2.502.756-.756 1.344-1.446 1.764-2.07.42-.636.63-1.224.63-1.764 0-.564-.15-.99-.45-1.278-.288-.3-.678-.45-1.17-.45-.408 0-.78.12-1.116.36a5.77 5.77 0 0 0-.918.81l-1.44-1.422c.564-.6 1.14-1.05 1.728-1.35.588-.312 1.29-.468 2.106-.468.756 0 1.416.15 1.98.45a3.21 3.21 0 0 1 1.314 1.278c.324.54.486 1.176.486 1.908 0 .636-.18 1.29-.54 1.962-.348.66-.798 1.326-1.35 1.998-.552.66-1.14 1.314-1.764 1.962.288-.036.612-.066.972-.09.36-.036.672-.054.936-.054h2.304V152h-8.046Z" fill="#4A1FB8"/><path d="M297.748 152.216c-.912 0-1.674-.162-2.286-.486-.612-.336-1.11-.714-1.494-1.134l.756-.972c.348.36.756.678 1.224.954.468.276 1.038.414 1.71.414.696 0 1.266-.192 1.71-.576.444-.384.666-.894.666-1.53 0-.456-.12-.852-.36-1.188-.228-.348-.612-.618-1.152-.81-.528-.192-1.248-.288-2.16-.288v-1.134c.816 0 1.458-.096 1.926-.288.48-.192.822-.45 1.026-.774.204-.324.306-.684.306-1.08 0-.564-.18-1.008-.54-1.332-.348-.324-.828-.486-1.44-.486-.48 0-.924.108-1.332.324a4.894 4.894 0 0 0-1.116.846l-.792-.936c.444-.42.936-.762 1.476-1.026.54-.276 1.146-.414 1.818-.414.996 0 1.818.258 2.466.774.648.504.972 1.218.972 2.142 0 .696-.192 1.266-.576 1.71-.384.444-.888.786-1.512 1.026v.072a3.41 3.41 0 0 1 1.764.99c.48.492.72 1.134.72 1.926 0 .672-.168 1.254-.504 1.746-.336.492-.792.87-1.368 1.134-.564.264-1.2.396-1.908.396Zm45.624-4.572h3.6v-3.33c0-.312.012-.684.036-1.116.024-.432.042-.798.054-1.098h-.072c-.144.276-.294.546-.45.81-.156.264-.318.534-.486.81l-2.682 3.924Zm3.6 4.356v-3.168h-5.166v-.972l4.914-7.344h1.656v7.128h1.566v1.188h-1.566V152h-1.404Zm46.74.216c-.912 0-1.668-.162-2.268-.486-.6-.324-1.098-.684-1.494-1.08l.72-.972c.348.336.75.642 1.206.918.456.264 1.02.396 1.692.396.708 0 1.302-.234 1.782-.702.492-.48.738-1.122.738-1.926 0-.792-.222-1.41-.666-1.854-.444-.444-1.038-.666-1.782-.666-.396 0-.738.06-1.026.18a6.43 6.43 0 0 0-.936.522l-.792-.504.378-5.526h5.742v1.278h-4.446l-.306 3.402c.276-.144.552-.258.828-.342.276-.084.588-.126.936-.126.66 0 1.254.132 1.782.396.54.252.972.642 1.296 1.17.324.528.486 1.206.486 2.034 0 .828-.186 1.536-.558 2.124a3.563 3.563 0 0 1-1.422 1.314 4.1 4.1 0 0 1-1.89.45Zm-287.514 41.88c-.372 0-.774.12-1.206.36-.432.24-.828.624-1.188 1.152.096 1.116.354 1.968.774 2.556.432.588 1.014.882 1.746.882.564 0 1.038-.228 1.422-.684.384-.468.576-1.08.576-1.836 0-.744-.18-1.332-.54-1.764-.348-.444-.876-.666-1.584-.666Zm.126 6.12a3.504 3.504 0 0 1-2.016-.612c-.6-.408-1.074-1.02-1.422-1.836-.348-.828-.522-1.854-.522-3.078 0-1.536.204-2.772.612-3.708.42-.936.96-1.614 1.62-2.034a3.894 3.894 0 0 1 2.142-.648c.624 0 1.158.12 1.602.36.456.228.846.516 1.17.864l-.828.918a2.382 2.382 0 0 0-.846-.648 2.307 2.307 0 0 0-1.044-.252 2.51 2.51 0 0 0-1.476.468c-.444.3-.81.81-1.098 1.53-.276.708-.426 1.668-.45 2.88.36-.444.78-.792 1.26-1.044.48-.264.954-.396 1.422-.396.996 0 1.788.3 2.376.9.6.588.9 1.47.9 2.646 0 .732-.156 1.374-.468 1.926a3.486 3.486 0 0 1-1.242 1.296 3.15 3.15 0 0 1-1.692.468Zm46.362-.216c.072-1.44.222-2.73.45-3.87.24-1.152.588-2.232 1.044-3.24a18.362 18.362 0 0 1 1.836-3.096h-5.724v-1.278h7.398v.918a17.15 17.15 0 0 0-1.674 2.502 12.253 12.253 0 0 0-1.008 2.412c-.24.804-.42 1.668-.54 2.592a35.85 35.85 0 0 0-.252 3.06h-1.53Zm49.314.216c-.72 0-1.362-.132-1.926-.396a3.477 3.477 0 0 1-1.35-1.134 2.83 2.83 0 0 1-.486-1.62c0-.504.102-.948.306-1.332.216-.396.486-.738.81-1.026.336-.3.684-.546 1.044-.738v-.072c-.42-.3-.792-.666-1.116-1.098-.324-.432-.486-.948-.486-1.548 0-.588.144-1.104.432-1.548a2.858 2.858 0 0 1 1.17-1.026 3.58 3.58 0 0 1 1.656-.378c.996 0 1.782.288 2.358.864.588.576.882 1.308.882 2.196 0 .396-.084.774-.252 1.134a4.622 4.622 0 0 1-.612.954c-.24.276-.48.504-.72.684v.072c.348.192.672.42.972.684.3.264.546.582.738.954.192.36.288.798.288 1.314 0 .564-.156 1.08-.468 1.548-.3.468-.732.84-1.296 1.116-.552.264-1.2.396-1.944.396Zm.81-6.48c.384-.348.678-.714.882-1.098.216-.384.324-.786.324-1.206 0-.564-.174-1.044-.522-1.44-.348-.396-.84-.594-1.476-.594-.528 0-.972.168-1.332.504-.348.336-.522.786-.522 1.35 0 .456.12.834.36 1.134.252.3.582.558.99.774.408.204.84.396 1.296.576Zm-.774 5.382c.672 0 1.212-.186 1.62-.558.42-.384.63-.87.63-1.458 0-.492-.144-.894-.432-1.206-.288-.312-.672-.582-1.152-.81a20.83 20.83 0 0 0-1.53-.666c-.456.3-.84.66-1.152 1.08-.3.42-.45.894-.45 1.422 0 .636.234 1.164.702 1.584.48.408 1.068.612 1.764.612Zm45.57-7.128c0 .744.174 1.338.522 1.782.36.432.894.648 1.602.648.384 0 .786-.12 1.206-.36.432-.24.834-.63 1.206-1.17-.096-1.116-.36-1.962-.792-2.538-.432-.588-1.014-.882-1.746-.882-.552 0-1.026.234-1.422.702-.384.456-.576 1.062-.576 1.818Zm1.584 8.226c-.612 0-1.152-.114-1.62-.342a4.262 4.262 0 0 1-1.152-.864l.828-.936c.24.276.522.498.846.666.336.168.684.252 1.044.252.54 0 1.038-.156 1.494-.468.456-.312.822-.828 1.098-1.548.288-.72.438-1.692.45-2.916-.36.456-.78.816-1.26 1.08-.48.264-.96.396-1.44.396-.984 0-1.776-.294-2.376-.882-.588-.6-.882-1.488-.882-2.664 0-.732.156-1.374.468-1.926.312-.552.72-.984 1.224-1.296a3.21 3.21 0 0 1 1.692-.468c.756 0 1.434.204 2.034.612.6.408 1.068 1.02 1.404 1.836.348.816.522 1.842.522 3.078 0 1.536-.21 2.772-.63 3.708-.408.936-.942 1.62-1.602 2.052-.66.42-1.374.63-2.142.63Zm41.232-.216v-1.224h2.628v-8.46h-2.088v-.954c.528-.096.984-.21 1.368-.342a5.81 5.81 0 0 0 1.062-.504h1.134v10.26h2.376V200h-6.48Zm12.007.216c-1.152 0-2.058-.516-2.718-1.548-.648-1.044-.972-2.526-.972-4.446 0-1.932.324-3.402.972-4.41.66-1.008 1.566-1.512 2.718-1.512 1.14 0 2.034.504 2.682 1.512.66 1.008.99 2.478.99 4.41 0 1.92-.33 3.402-.99 4.446-.648 1.032-1.542 1.548-2.682 1.548Zm0-1.188c.672 0 1.212-.378 1.62-1.134.408-.768.612-1.992.612-3.672 0-1.68-.204-2.886-.612-3.618-.408-.744-.948-1.116-1.62-1.116-.672 0-1.218.372-1.638 1.116-.408.732-.612 1.938-.612 3.618s.204 2.904.612 3.672c.42.756.966 1.134 1.638 1.134Zm35.993.972v-1.224h2.628v-8.46h-2.088v-.954c.528-.096.984-.21 1.368-.342a5.81 5.81 0 0 0 1.062-.504h1.134v10.26h2.376V200h-6.48Zm8.947 0v-1.224h2.628v-8.46h-2.088v-.954c.528-.096.984-.21 1.368-.342a5.81 5.81 0 0 0 1.062-.504h1.134v10.26h2.376V200h-6.48Zm39.053 0v-1.224h2.628v-8.46h-2.088v-.954c.528-.096.984-.21 1.368-.342a5.81 5.81 0 0 0 1.062-.504h1.134v10.26h2.376V200h-6.48Zm8.245 0v-.882c1.152-1.152 2.13-2.16 2.934-3.024.804-.876 1.416-1.662 1.836-2.358.42-.708.63-1.368.63-1.98 0-.66-.18-1.2-.54-1.62-.36-.42-.906-.63-1.638-.63-.48 0-.924.138-1.332.414-.408.264-.78.588-1.116.972l-.846-.846c.48-.528.99-.948 1.53-1.26.552-.324 1.2-.486 1.944-.486 1.068 0 1.908.312 2.52.936.612.612.918 1.428.918 2.448 0 .72-.204 1.452-.612 2.196-.396.732-.948 1.506-1.656 2.322-.696.804-1.5 1.68-2.412 2.628l.972-.072c.336-.024.654-.036.954-.036h3.33V200h-7.416ZM98.422 248v-1.224h2.628v-8.46h-2.088v-.954c.528-.096.984-.21 1.368-.342a5.81 5.81 0 0 0 1.062-.504h1.134v10.26h2.376V248h-6.48Zm11.773.216c-.912 0-1.674-.162-2.286-.486-.612-.336-1.11-.714-1.494-1.134l.756-.972c.348.36.756.678 1.224.954.468.276 1.038.414 1.71.414.696 0 1.266-.192 1.71-.576.444-.384.666-.894.666-1.53 0-.456-.12-.852-.36-1.188-.228-.348-.612-.618-1.152-.81-.528-.192-1.248-.288-2.16-.288v-1.134c.816 0 1.458-.096 1.926-.288.48-.192.822-.45 1.026-.774.204-.324.306-.684.306-1.08 0-.564-.18-1.008-.54-1.332-.348-.324-.828-.486-1.44-.486-.48 0-.924.108-1.332.324a4.894 4.894 0 0 0-1.116.846l-.792-.936c.444-.42.936-.762 1.476-1.026.54-.276 1.146-.414 1.818-.414.996 0 1.818.258 2.466.774.648.504.972 1.218.972 2.142 0 .696-.192 1.266-.576 1.71-.384.444-.888.786-1.512 1.026v.072a3.41 3.41 0 0 1 1.764.99c.48.492.72 1.134.72 1.926 0 .672-.168 1.254-.504 1.746-.336.492-.792.87-1.368 1.134-.564.264-1.2.396-1.908.396Zm36.227-.216v-1.224h2.628v-8.46h-2.088v-.954c.528-.096.984-.21 1.368-.342a5.81 5.81 0 0 0 1.062-.504h1.134v10.26h2.376V248h-6.48Zm9.397-4.356h3.6v-3.33c0-.312.012-.684.036-1.116.024-.432.042-.798.054-1.098h-.072c-.144.276-.294.546-.45.81-.156.264-.318.534-.486.81l-2.682 3.924Zm3.6 4.356v-3.168h-5.166v-.972l4.914-7.344h1.656v7.128h1.566v1.188h-1.566V248h-1.404Zm35.003 0v-1.224h2.628v-8.46h-2.088v-.954c.528-.096.984-.21 1.368-.342a5.81 5.81 0 0 0 1.062-.504h1.134v10.26h2.376V248h-6.48Zm11.737.216c-.912 0-1.668-.162-2.268-.486-.6-.324-1.098-.684-1.494-1.08l.72-.972c.348.336.75.642 1.206.918.456.264 1.02.396 1.692.396.708 0 1.302-.234 1.782-.702.492-.48.738-1.122.738-1.926 0-.792-.222-1.41-.666-1.854-.444-.444-1.038-.666-1.782-.666-.396 0-.738.06-1.026.18a6.43 6.43 0 0 0-.936.522l-.792-.504.378-5.526h5.742v1.278h-4.446l-.306 3.402c.276-.144.552-.258.828-.342.276-.084.588-.126.936-.126.66 0 1.254.132 1.782.396.54.252.972.642 1.296 1.17.324.528.486 1.206.486 2.034 0 .828-.186 1.536-.558 2.124a3.563 3.563 0 0 1-1.422 1.314 4.1 4.1 0 0 1-1.89.45Zm36.263-.216v-1.224h2.628v-8.46h-2.088v-.954c.528-.096.984-.21 1.368-.342a5.81 5.81 0 0 0 1.062-.504h1.134v10.26h2.376V248h-6.48Zm12.223-5.904c-.372 0-.774.12-1.206.36-.432.24-.828.624-1.188 1.152.096 1.116.354 1.968.774 2.556.432.588 1.014.882 1.746.882.564 0 1.038-.228 1.422-.684.384-.468.576-1.08.576-1.836 0-.744-.18-1.332-.54-1.764-.348-.444-.876-.666-1.584-.666Zm.126 6.12a3.504 3.504 0 0 1-2.016-.612c-.6-.408-1.074-1.02-1.422-1.836-.348-.828-.522-1.854-.522-3.078 0-1.536.204-2.772.612-3.708.42-.936.96-1.614 1.62-2.034a3.894 3.894 0 0 1 2.142-.648c.624 0 1.158.12 1.602.36.456.228.846.516 1.17.864l-.828.918a2.382 2.382 0 0 0-.846-.648 2.307 2.307 0 0 0-1.044-.252 2.51 2.51 0 0 0-1.476.468c-.444.3-.81.81-1.098 1.53-.276.708-.426 1.668-.45 2.88.36-.444.78-.792 1.26-1.044.48-.264.954-.396 1.422-.396.996 0 1.788.3 2.376.9.6.588.9 1.47.9 2.646 0 .732-.156 1.374-.468 1.926a3.486 3.486 0 0 1-1.242 1.296 3.15 3.15 0 0 1-1.692.468Zm35.651-.216v-1.224h2.628v-8.46h-2.088v-.954c.528-.096.984-.21 1.368-.342a5.81 5.81 0 0 0 1.062-.504h1.134v10.26h2.376V248h-6.48Zm10.711 0c.072-1.44.222-2.73.45-3.87.24-1.152.588-2.232 1.044-3.24a18.362 18.362 0 0 1 1.836-3.096h-5.724v-1.278h7.398v.918a17.15 17.15 0 0 0-1.674 2.502 12.253 12.253 0 0 0-1.008 2.412c-.24.804-.42 1.668-.54 2.592a35.85 35.85 0 0 0-.252 3.06h-1.53Zm37.289 0v-1.224h2.628v-8.46h-2.088v-.954c.528-.096.984-.21 1.368-.342a5.81 5.81 0 0 0 1.062-.504h1.134v10.26h2.376V248h-6.48Zm12.025.216c-.72 0-1.362-.132-1.926-.396a3.477 3.477 0 0 1-1.35-1.134 2.83 2.83 0 0 1-.486-1.62c0-.504.102-.948.306-1.332.216-.396.486-.738.81-1.026.336-.3.684-.546 1.044-.738v-.072c-.42-.3-.792-.666-1.116-1.098-.324-.432-.486-.948-.486-1.548 0-.588.144-1.104.432-1.548a2.858 2.858 0 0 1 1.17-1.026 3.58 3.58 0 0 1 1.656-.378c.996 0 1.782.288 2.358.864.588.576.882 1.308.882 2.196 0 .396-.084.774-.252 1.134a4.622 4.622 0 0 1-.612.954c-.24.276-.48.504-.72.684v.072c.348.192.672.42.972.684.3.264.546.582.738.954.192.36.288.798.288 1.314 0 .564-.156 1.08-.468 1.548-.3.468-.732.84-1.296 1.116-.552.264-1.2.396-1.944.396Zm.81-6.48c.384-.348.678-.714.882-1.098.216-.384.324-.786.324-1.206 0-.564-.174-1.044-.522-1.44-.348-.396-.84-.594-1.476-.594-.528 0-.972.168-1.332.504-.348.336-.522.786-.522 1.35 0 .456.12.834.36 1.134.252.3.582.558.99.774.408.204.84.396 1.296.576Zm-.774 5.382c.672 0 1.212-.186 1.62-.558.42-.384.63-.87.63-1.458 0-.492-.144-.894-.432-1.206-.288-.312-.672-.582-1.152-.81a20.83 20.83 0 0 0-1.53-.666c-.456.3-.84.66-1.152 1.08-.3.42-.45.894-.45 1.422 0 .636.234 1.164.702 1.584.48.408 1.068.612 1.764.612Zm35.939.882v-1.224h2.628v-8.46h-2.088v-.954c.528-.096.984-.21 1.368-.342a5.81 5.81 0 0 0 1.062-.504h1.134v10.26h2.376V248h-6.48Zm9.631-8.01c0 .744.174 1.338.522 1.782.36.432.894.648 1.602.648.384 0 .786-.12 1.206-.36.432-.24.834-.63 1.206-1.17-.096-1.116-.36-1.962-.792-2.538-.432-.588-1.014-.882-1.746-.882-.552 0-1.026.234-1.422.702-.384.456-.576 1.062-.576 1.818Zm1.584 8.226c-.612 0-1.152-.114-1.62-.342a4.262 4.262 0 0 1-1.152-.864l.828-.936c.24.276.522.498.846.666.336.168.684.252 1.044.252.54 0 1.038-.156 1.494-.468.456-.312.822-.828 1.098-1.548.288-.72.438-1.692.45-2.916-.36.456-.78.816-1.26 1.08-.48.264-.96.396-1.44.396-.984 0-1.776-.294-2.376-.882-.588-.6-.882-1.488-.882-2.664 0-.732.156-1.374.468-1.926.312-.552.72-.984 1.224-1.296a3.21 3.21 0 0 1 1.692-.468c.756 0 1.434.204 2.034.612.6.408 1.068 1.02 1.404 1.836.348.816.522 1.842.522 3.078 0 1.536-.21 2.772-.63 3.708-.408.936-.942 1.62-1.602 2.052-.66.42-1.374.63-2.142.63ZM97.72 296v-.882c1.152-1.152 2.13-2.16 2.934-3.024.804-.876 1.416-1.662 1.836-2.358.42-.708.63-1.368.63-1.98 0-.66-.18-1.2-.54-1.62-.36-.42-.906-.63-1.638-.63-.48 0-.924.138-1.332.414-.408.264-.78.588-1.116.972l-.846-.846c.48-.528.99-.948 1.53-1.26.552-.324 1.2-.486 1.944-.486 1.068 0 1.908.312 2.52.936.612.612.918 1.428.918 2.448 0 .72-.204 1.452-.612 2.196-.396.732-.948 1.506-1.656 2.322-.696.804-1.5 1.68-2.412 2.628l.972-.072c.336-.024.654-.036.954-.036h3.33V296H97.72Zm12.709.216c-1.152 0-2.058-.516-2.718-1.548-.648-1.044-.972-2.526-.972-4.446 0-1.932.324-3.402.972-4.41.66-1.008 1.566-1.512 2.718-1.512 1.14 0 2.034.504 2.682 1.512.66 1.008.99 2.478.99 4.41 0 1.92-.33 3.402-.99 4.446-.648 1.032-1.542 1.548-2.682 1.548Zm0-1.188c.672 0 1.212-.378 1.62-1.134.408-.768.612-1.992.612-3.672 0-1.68-.204-2.886-.612-3.618-.408-.744-.948-1.116-1.62-1.116-.672 0-1.218.372-1.638 1.116-.408.732-.612 1.938-.612 3.618s.204 2.904.612 3.672c.42.756.966 1.134 1.638 1.134Zm35.291.972v-.882c1.152-1.152 2.13-2.16 2.934-3.024.804-.876 1.416-1.662 1.836-2.358.42-.708.63-1.368.63-1.98 0-.66-.18-1.2-.54-1.62-.36-.42-.906-.63-1.638-.63-.48 0-.924.138-1.332.414-.408.264-.78.588-1.116.972l-.846-.846c.48-.528.99-.948 1.53-1.26.552-.324 1.2-.486 1.944-.486 1.068 0 1.908.312 2.52.936.612.612.918 1.428.918 2.448 0 .72-.204 1.452-.612 2.196-.396.732-.948 1.506-1.656 2.322-.696.804-1.5 1.68-2.412 2.628l.972-.072c.336-.024.654-.036.954-.036h3.33V296h-7.416Zm9.649 0v-1.224h2.628v-8.46h-2.088v-.954c.528-.096.984-.21 1.368-.342a5.81 5.81 0 0 0 1.062-.504h1.134v10.26h2.376V296h-6.48Zm38.351 0v-.882c1.152-1.152 2.13-2.16 2.934-3.024.804-.876 1.416-1.662 1.836-2.358.42-.708.63-1.368.63-1.98 0-.66-.18-1.2-.54-1.62-.36-.42-.906-.63-1.638-.63-.48 0-.924.138-1.332.414-.408.264-.78.588-1.116.972l-.846-.846c.48-.528.99-.948 1.53-1.26.552-.324 1.2-.486 1.944-.486 1.068 0 1.908.312 2.52.936.612.612.918 1.428.918 2.448 0 .72-.204 1.452-.612 2.196-.396.732-.948 1.506-1.656 2.322-.696.804-1.5 1.68-2.412 2.628l.972-.072c.336-.024.654-.036.954-.036h3.33V296h-7.416Zm8.947 0v-.882c1.152-1.152 2.13-2.16 2.934-3.024.804-.876 1.416-1.662 1.836-2.358.42-.708.63-1.368.63-1.98 0-.66-.18-1.2-.54-1.62-.36-.42-.906-.63-1.638-.63-.48 0-.924.138-1.332.414-.408.264-.78.588-1.116.972l-.846-.846c.48-.528.99-.948 1.53-1.26.552-.324 1.2-.486 1.944-.486 1.068 0 1.908.312 2.52.936.612.612.918 1.428.918 2.448 0 .72-.204 1.452-.612 2.196-.396.732-.948 1.506-1.656 2.322-.696.804-1.5 1.68-2.412 2.628l.972-.072c.336-.024.654-.036.954-.036h3.33V296h-7.416Zm39.053 0v-.882c1.152-1.152 2.13-2.16 2.934-3.024.804-.876 1.416-1.662 1.836-2.358.42-.708.63-1.368.63-1.98 0-.66-.18-1.2-.54-1.62-.36-.42-.906-.63-1.638-.63-.48 0-.924.138-1.332.414-.408.264-.78.588-1.116.972l-.846-.846c.48-.528.99-.948 1.53-1.26.552-.324 1.2-.486 1.944-.486 1.068 0 1.908.312 2.52.936.612.612.918 1.428.918 2.448 0 .72-.204 1.452-.612 2.196-.396.732-.948 1.506-1.656 2.322-.696.804-1.5 1.68-2.412 2.628l.972-.072c.336-.024.654-.036.954-.036h3.33V296h-7.416Zm12.475.216c-.912 0-1.674-.162-2.286-.486-.612-.336-1.11-.714-1.494-1.134l.756-.972c.348.36.756.678 1.224.954.468.276 1.038.414 1.71.414.696 0 1.266-.192 1.71-.576.444-.384.666-.894.666-1.53 0-.456-.12-.852-.36-1.188-.228-.348-.612-.618-1.152-.81-.528-.192-1.248-.288-2.16-.288v-1.134c.816 0 1.458-.096 1.926-.288.48-.192.822-.45 1.026-.774.204-.324.306-.684.306-1.08 0-.564-.18-1.008-.54-1.332-.348-.324-.828-.486-1.44-.486-.48 0-.924.108-1.332.324a4.894 4.894 0 0 0-1.116.846l-.792-.936c.444-.42.936-.762 1.476-1.026.54-.276 1.146-.414 1.818-.414.996 0 1.818.258 2.466.774.648.504.972 1.218.972 2.142 0 .696-.192 1.266-.576 1.71-.384.444-.888.786-1.512 1.026v.072a3.41 3.41 0 0 1 1.764.99c.48.492.72 1.134.72 1.926 0 .672-.168 1.254-.504 1.746-.336.492-.792.87-1.368 1.134-.564.264-1.2.396-1.908.396ZM289.72 296v-.882c1.152-1.152 2.13-2.16 2.934-3.024.804-.876 1.416-1.662 1.836-2.358.42-.708.63-1.368.63-1.98 0-.66-.18-1.2-.54-1.62-.36-.42-.906-.63-1.638-.63-.48 0-.924.138-1.332.414-.408.264-.78.588-1.116.972l-.846-.846c.48-.528.99-.948 1.53-1.26.552-.324 1.2-.486 1.944-.486 1.068 0 1.908.312 2.52.936.612.612.918 1.428.918 2.448 0 .72-.204 1.452-.612 2.196-.396.732-.948 1.506-1.656 2.322-.696.804-1.5 1.68-2.412 2.628l.972-.072c.336-.024.654-.036.954-.036h3.33V296h-7.416Zm10.099-4.356h3.6v-3.33c0-.312.012-.684.036-1.116.024-.432.042-.798.054-1.098h-.072c-.144.276-.294.546-.45.81-.156.264-.318.534-.486.81l-2.682 3.924Zm3.6 4.356v-3.168h-5.166v-.972l4.914-7.344h1.656v7.128h1.566v1.188h-1.566V296h-1.404Zm34.301 0v-.882c1.152-1.152 2.13-2.16 2.934-3.024.804-.876 1.416-1.662 1.836-2.358.42-.708.63-1.368.63-1.98 0-.66-.18-1.2-.54-1.62-.36-.42-.906-.63-1.638-.63-.48 0-.924.138-1.332.414-.408.264-.78.588-1.116.972l-.846-.846c.48-.528.99-.948 1.53-1.26.552-.324 1.2-.486 1.944-.486 1.068 0 1.908.312 2.52.936.612.612.918 1.428.918 2.448 0 .72-.204 1.452-.612 2.196-.396.732-.948 1.506-1.656 2.322-.696.804-1.5 1.68-2.412 2.628l.972-.072c.336-.024.654-.036.954-.036h3.33V296h-7.416Zm12.439.216c-.912 0-1.668-.162-2.268-.486-.6-.324-1.098-.684-1.494-1.08l.72-.972c.348.336.75.642 1.206.918.456.264 1.02.396 1.692.396.708 0 1.302-.234 1.782-.702.492-.48.738-1.122.738-1.926 0-.792-.222-1.41-.666-1.854-.444-.444-1.038-.666-1.782-.666-.396 0-.738.06-1.026.18a6.43 6.43 0 0 0-.936.522l-.792-.504.378-5.526h5.742v1.278h-4.446l-.306 3.402c.276-.144.552-.258.828-.342.276-.084.588-.126.936-.126.66 0 1.254.132 1.782.396.54.252.972.642 1.296 1.17.324.528.486 1.206.486 2.034 0 .828-.186 1.536-.558 2.124a3.563 3.563 0 0 1-1.422 1.314 4.1 4.1 0 0 1-1.89.45ZM385.72 296v-.882c1.152-1.152 2.13-2.16 2.934-3.024.804-.876 1.416-1.662 1.836-2.358.42-.708.63-1.368.63-1.98 0-.66-.18-1.2-.54-1.62-.36-.42-.906-.63-1.638-.63-.48 0-.924.138-1.332.414-.408.264-.78.588-1.116.972l-.846-.846c.48-.528.99-.948 1.53-1.26.552-.324 1.2-.486 1.944-.486 1.068 0 1.908.312 2.52.936.612.612.918 1.428.918 2.448 0 .72-.204 1.452-.612 2.196-.396.732-.948 1.506-1.656 2.322-.696.804-1.5 1.68-2.412 2.628l.972-.072c.336-.024.654-.036.954-.036h3.33V296h-7.416Zm12.925-5.904c-.372 0-.774.12-1.206.36-.432.24-.828.624-1.188 1.152.096 1.116.354 1.968.774 2.556.432.588 1.014.882 1.746.882.564 0 1.038-.228 1.422-.684.384-.468.576-1.08.576-1.836 0-.744-.18-1.332-.54-1.764-.348-.444-.876-.666-1.584-.666Zm.126 6.12a3.504 3.504 0 0 1-2.016-.612c-.6-.408-1.074-1.02-1.422-1.836-.348-.828-.522-1.854-.522-3.078 0-1.536.204-2.772.612-3.708.42-.936.96-1.614 1.62-2.034a3.894 3.894 0 0 1 2.142-.648c.624 0 1.158.12 1.602.36.456.228.846.516 1.17.864l-.828.918a2.382 2.382 0 0 0-.846-.648 2.307 2.307 0 0 0-1.044-.252 2.51 2.51 0 0 0-1.476.468c-.444.3-.81.81-1.098 1.53-.276.708-.426 1.668-.45 2.88.36-.444.78-.792 1.26-1.044.48-.264.954-.396 1.422-.396.996 0 1.788.3 2.376.9.6.588.9 1.47.9 2.646 0 .732-.156 1.374-.468 1.926a3.486 3.486 0 0 1-1.242 1.296 3.15 3.15 0 0 1-1.692.468ZM97.72 344v-.882c1.152-1.152 2.13-2.16 2.934-3.024.804-.876 1.416-1.662 1.836-2.358.42-.708.63-1.368.63-1.98 0-.66-.18-1.2-.54-1.62-.36-.42-.906-.63-1.638-.63-.48 0-.924.138-1.332.414-.408.264-.78.588-1.116.972l-.846-.846c.48-.528.99-.948 1.53-1.26.552-.324 1.2-.486 1.944-.486 1.068 0 1.908.312 2.52.936.612.612.918 1.428.918 2.448 0 .72-.204 1.452-.612 2.196-.396.732-.948 1.506-1.656 2.322-.696.804-1.5 1.68-2.412 2.628l.972-.072c.336-.024.654-.036.954-.036h3.33V344H97.72Zm11.413 0c.072-1.44.222-2.73.45-3.87.24-1.152.588-2.232 1.044-3.24a18.362 18.362 0 0 1 1.836-3.096h-5.724v-1.278h7.398v.918a17.15 17.15 0 0 0-1.674 2.502 12.253 12.253 0 0 0-1.008 2.412c-.24.804-.42 1.668-.54 2.592a35.85 35.85 0 0 0-.252 3.06h-1.53Zm36.587 0v-.882c1.152-1.152 2.13-2.16 2.934-3.024.804-.876 1.416-1.662 1.836-2.358.42-.708.63-1.368.63-1.98 0-.66-.18-1.2-.54-1.62-.36-.42-.906-.63-1.638-.63-.48 0-.924.138-1.332.414-.408.264-.78.588-1.116.972l-.846-.846c.48-.528.99-.948 1.53-1.26.552-.324 1.2-.486 1.944-.486 1.068 0 1.908.312 2.52.936.612.612.918 1.428.918 2.448 0 .72-.204 1.452-.612 2.196-.396.732-.948 1.506-1.656 2.322-.696.804-1.5 1.68-2.412 2.628l.972-.072c.336-.024.654-.036.954-.036h3.33V344h-7.416Zm12.727.216c-.72 0-1.362-.132-1.926-.396a3.477 3.477 0 0 1-1.35-1.134 2.83 2.83 0 0 1-.486-1.62c0-.504.102-.948.306-1.332.216-.396.486-.738.81-1.026.336-.3.684-.546 1.044-.738v-.072c-.42-.3-.792-.666-1.116-1.098-.324-.432-.486-.948-.486-1.548 0-.588.144-1.104.432-1.548a2.858 2.858 0 0 1 1.17-1.026 3.58 3.58 0 0 1 1.656-.378c.996 0 1.782.288 2.358.864.588.576.882 1.308.882 2.196 0 .396-.084.774-.252 1.134a4.622 4.622 0 0 1-.612.954c-.24.276-.48.504-.72.684v.072c.348.192.672.42.972.684.3.264.546.582.738.954.192.36.288.798.288 1.314 0 .564-.156 1.08-.468 1.548-.3.468-.732.84-1.296 1.116-.552.264-1.2.396-1.944.396Zm.81-6.48c.384-.348.678-.714.882-1.098.216-.384.324-.786.324-1.206 0-.564-.174-1.044-.522-1.44-.348-.396-.84-.594-1.476-.594-.528 0-.972.168-1.332.504-.348.336-.522.786-.522 1.35 0 .456.12.834.36 1.134.252.3.582.558.99.774.408.204.84.396 1.296.576Zm-.774 5.382c.672 0 1.212-.186 1.62-.558.42-.384.63-.87.63-1.458 0-.492-.144-.894-.432-1.206-.288-.312-.672-.582-1.152-.81a20.83 20.83 0 0 0-1.53-.666c-.456.3-.84.66-1.152 1.08-.3.42-.45.894-.45 1.422 0 .636.234 1.164.702 1.584.48.408 1.068.612 1.764.612Zm35.237.882v-.882c1.152-1.152 2.13-2.16 2.934-3.024.804-.876 1.416-1.662 1.836-2.358.42-.708.63-1.368.63-1.98 0-.66-.18-1.2-.54-1.62-.36-.42-.906-.63-1.638-.63-.48 0-.924.138-1.332.414-.408.264-.78.588-1.116.972l-.846-.846c.48-.528.99-.948 1.53-1.26.552-.324 1.2-.486 1.944-.486 1.068 0 1.908.312 2.52.936.612.612.918 1.428.918 2.448 0 .72-.204 1.452-.612 2.196-.396.732-.948 1.506-1.656 2.322-.696.804-1.5 1.68-2.412 2.628l.972-.072c.336-.024.654-.036.954-.036h3.33V344h-7.416Zm10.333-8.01c0 .744.174 1.338.522 1.782.36.432.894.648 1.602.648.384 0 .786-.12 1.206-.36.432-.24.834-.63 1.206-1.17-.096-1.116-.36-1.962-.792-2.538-.432-.588-1.014-.882-1.746-.882-.552 0-1.026.234-1.422.702-.384.456-.576 1.062-.576 1.818Zm1.584 8.226c-.612 0-1.152-.114-1.62-.342a4.262 4.262 0 0 1-1.152-.864l.828-.936c.24.276.522.498.846.666.336.168.684.252 1.044.252.54 0 1.038-.156 1.494-.468.456-.312.822-.828 1.098-1.548.288-.72.438-1.692.45-2.916-.36.456-.78.816-1.26 1.08-.48.264-.96.396-1.44.396-.984 0-1.776-.294-2.376-.882-.588-.6-.882-1.488-.882-2.664 0-.732.156-1.374.468-1.926.312-.552.72-.984 1.224-1.296a3.21 3.21 0 0 1 1.692-.468c.756 0 1.434.204 2.034.612.6.408 1.068 1.02 1.404 1.836.348.816.522 1.842.522 3.078 0 1.536-.21 2.772-.63 3.708-.408.936-.942 1.62-1.602 2.052-.66.42-1.374.63-2.142.63Zm39.611 0c-.912 0-1.674-.162-2.286-.486-.612-.336-1.11-.714-1.494-1.134l.756-.972c.348.36.756.678 1.224.954.468.276 1.038.414 1.71.414.696 0 1.266-.192 1.71-.576.444-.384.666-.894.666-1.53 0-.456-.12-.852-.36-1.188-.228-.348-.612-.618-1.152-.81-.528-.192-1.248-.288-2.16-.288v-1.134c.816 0 1.458-.096 1.926-.288.48-.192.822-.45 1.026-.774.204-.324.306-.684.306-1.08 0-.564-.18-1.008-.54-1.332-.348-.324-.828-.486-1.44-.486-.48 0-.924.108-1.332.324a4.894 4.894 0 0 0-1.116.846l-.792-.936c.444-.42.936-.762 1.476-1.026.54-.276 1.146-.414 1.818-.414.996 0 1.818.258 2.466.774.648.504.972 1.218.972 2.142 0 .696-.192 1.266-.576 1.71-.384.444-.888.786-1.512 1.026v.072a3.41 3.41 0 0 1 1.764.99c.48.492.72 1.134.72 1.926 0 .672-.168 1.254-.504 1.746-.336.492-.792.87-1.368 1.134-.564.264-1.2.396-1.908.396Zm9.181 0c-1.152 0-2.058-.516-2.718-1.548-.648-1.044-.972-2.526-.972-4.446 0-1.932.324-3.402.972-4.41.66-1.008 1.566-1.512 2.718-1.512 1.14 0 2.034.504 2.682 1.512.66 1.008.99 2.478.99 4.41 0 1.92-.33 3.402-.99 4.446-.648 1.032-1.542 1.548-2.682 1.548Zm0-1.188c.672 0 1.212-.378 1.62-1.134.408-.768.612-1.992.612-3.672 0-1.68-.204-2.886-.612-3.618-.408-.744-.948-1.116-1.62-1.116-.672 0-1.218.372-1.638 1.116-.408.732-.612 1.938-.612 3.618s.204 2.904.612 3.672c.42.756.966 1.134 1.638 1.134Z" fill="#344054"/><path d="M293.248 344.216c-.912 0-1.674-.162-2.286-.486-.612-.336-1.11-.714-1.494-1.134l.756-.972c.348.36.756.678 1.224.954.468.276 1.038.414 1.71.414.696 0 1.266-.192 1.71-.576.444-.384.666-.894.666-1.53 0-.456-.12-.852-.36-1.188-.228-.348-.612-.618-1.152-.81-.528-.192-1.248-.288-2.16-.288v-1.134c.816 0 1.458-.096 1.926-.288.48-.192.822-.45 1.026-.774.204-.324.306-.684.306-1.08 0-.564-.18-1.008-.54-1.332-.348-.324-.828-.486-1.44-.486-.48 0-.924.108-1.332.324a4.894 4.894 0 0 0-1.116.846l-.792-.936c.444-.42.936-.762 1.476-1.026.54-.276 1.146-.414 1.818-.414.996 0 1.818.258 2.466.774.648.504.972 1.218.972 2.142 0 .696-.192 1.266-.576 1.71-.384.444-.888.786-1.512 1.026v.072a3.41 3.41 0 0 1 1.764.99c.48.492.72 1.134.72 1.926 0 .672-.168 1.254-.504 1.746-.336.492-.792.87-1.368 1.134-.564.264-1.2.396-1.908.396Zm6.121-.216v-1.224h2.628v-8.46h-2.088v-.954c.528-.096.984-.21 1.368-.342a5.81 5.81 0 0 0 1.062-.504h1.134v10.26h2.376V344h-6.48Z" fill="#000"/><path d="M342.922 344v-1.224h2.628v-8.46h-2.088v-.954c.528-.096.984-.21 1.368-.342a5.81 5.81 0 0 0 1.062-.504h1.134v10.26h2.376V344h-6.48Zm47.298 0v-.882c1.152-1.152 2.13-2.16 2.934-3.024.804-.876 1.416-1.662 1.836-2.358.42-.708.63-1.368.63-1.98 0-.66-.18-1.2-.54-1.62-.36-.42-.906-.63-1.638-.63-.48 0-.924.138-1.332.414-.408.264-.78.588-1.116.972l-.846-.846c.48-.528.99-.948 1.53-1.26.552-.324 1.2-.486 1.944-.486 1.068 0 1.908.312 2.52.936.612.612.918 1.428.918 2.448 0 .72-.204 1.452-.612 2.196-.396.732-.948 1.506-1.656 2.322-.696.804-1.5 1.68-2.412 2.628l.972-.072c.336-.024.654-.036.954-.036h3.33V344h-7.416Z" fill="#000" fill-opacity=".3"/><rect x="58.5" y=".5" width="383" height="385" rx="4.5" stroke="#98A2B3"/><path fill="#E8178A" fill-opacity=".25" d="M58 2h384v24H58z"/><path fill="#E8178A" fill-opacity=".25" d="M58 2h24v384H58zm360 0h24v384h-24z"/><path fill="#E8178A" fill-opacity=".25" d="M58 58h384v24H58zm0 304h384v24H58z"/><path d="M41.5 2v24" stroke="#E8178A"/><rect y="6.5" width="37" height="18" rx="3" fill="#E8178A"/><path d="M6.59 19.5h5.184v-1.257H8.72v-.05l1.062-1.04c1.495-1.364 1.896-2.046 1.896-2.873 0-1.26-1.03-2.152-2.589-2.152-1.527 0-2.574.912-2.57 2.34h1.459c-.004-.696.437-1.122 1.1-1.122.64 0 1.116.398 1.116 1.037 0 .579-.355.976-1.016 1.612L6.59 18.392V19.5Zm6.032-1.278h3.49V19.5h1.47v-1.278h.903v-1.233h-.902v-4.762h-1.925l-3.036 4.784v1.21Zm3.52-1.233H14.17v-.056l1.914-3.03h.057v3.086Zm3.382 4.556h1.512v-2.919h.047c.21.455.667.963 1.548.963 1.243 0 2.212-.984 2.212-2.81 0-1.874-1.012-2.805-2.209-2.805-.912 0-1.349.544-1.551.988h-.068v-.916h-1.491v7.5Zm1.48-4.772c0-.973.412-1.595 1.147-1.595.75 0 1.148.65 1.148 1.595 0 .951-.405 1.612-1.148 1.612-.727 0-1.147-.64-1.147-1.612Zm5.907-2.727h-1.563l1.563 2.727-1.62 2.727h1.563l1.058-1.886 1.076 1.886h1.545l-1.623-2.727 1.58-2.727h-1.55l-1.027 1.906-1.001-1.906Z" fill="#fff"/><path stroke="#E8178A" d="M38 2.5h7m-7 23h7M41.5 58v24"/><rect y="62.5" width="37" height="18" rx="3" fill="#E8178A"/><path d="M6.59 75.5h5.184v-1.257H8.72v-.05l1.062-1.04c1.495-1.364 1.896-2.046 1.896-2.873 0-1.26-1.03-2.152-2.589-2.152-1.527 0-2.574.912-2.57 2.34h1.459c-.004-.696.437-1.122 1.1-1.122.64 0 1.116.398 1.116 1.037 0 .579-.355.976-1.016 1.612L6.59 74.392V75.5Zm6.032-1.278h3.49V75.5h1.47v-1.278h.903v-1.233h-.902v-4.762h-1.925l-3.036 4.784v1.21Zm3.52-1.233H14.17v-.056l1.914-3.03h.057v3.086Zm3.382 4.556h1.512v-2.919h.047c.21.455.667.963 1.548.963 1.243 0 2.212-.984 2.212-2.81 0-1.874-1.012-2.805-2.209-2.805-.912 0-1.349.544-1.551.988h-.068v-.916h-1.491v7.5Zm1.48-4.772c0-.973.412-1.595 1.147-1.595.75 0 1.148.65 1.148 1.595 0 .951-.405 1.612-1.148 1.612-.727 0-1.147-.64-1.147-1.612Zm5.907-2.727h-1.563l1.563 2.727-1.62 2.727h1.563l1.058-1.886 1.076 1.886h1.545l-1.623-2.727 1.58-2.727h-1.55l-1.027 1.906-1.001-1.906Z" fill="#fff"/><path stroke="#E8178A" d="M38 58.5h7m-7 23h7M41.5 362v24"/><rect y="366.5" width="37" height="18" rx="3" fill="#E8178A"/><path d="M6.59 379.5h5.184v-1.257H8.72v-.05l1.062-1.04c1.495-1.364 1.896-2.046 1.896-2.873 0-1.261-1.03-2.152-2.589-2.152-1.527 0-2.574.912-2.57 2.34h1.459c-.004-.696.437-1.122 1.1-1.122.64 0 1.116.398 1.116 1.037 0 .579-.355.976-1.016 1.612l-2.589 2.397v1.108Zm6.032-1.278h3.49v1.278h1.47v-1.278h.903v-1.233h-.902v-4.762h-1.925l-3.036 4.784v1.211Zm3.52-1.233H14.17v-.056l1.914-3.03h.057v3.086Zm3.382 4.556h1.512v-2.919h.047c.21.455.667.963 1.548.963 1.243 0 2.212-.984 2.212-2.809 0-1.875-1.012-2.806-2.209-2.806-.912 0-1.349.544-1.551.988h-.068v-.917h-1.491v7.5Zm1.48-4.772c0-.973.412-1.595 1.147-1.595.75 0 1.148.65 1.148 1.595 0 .951-.405 1.612-1.148 1.612-.727 0-1.147-.639-1.147-1.612Zm5.907-2.728h-1.563l1.563 2.728-1.62 2.727h1.563l1.058-1.886 1.076 1.886h1.545l-1.623-2.727 1.58-2.728h-1.55l-1.027 1.907-1.001-1.907Z" fill="#fff"/><path stroke="#E8178A" d="M38 362.5h7m-7 23h7m13 17h24"/><rect x="51.5" y="407" width="37" height="18" rx="3" fill="#E8178A"/><path d="M58.09 420h5.184v-1.257H60.22v-.05l1.062-1.04c1.495-1.364 1.896-2.046 1.896-2.873 0-1.261-1.03-2.152-2.588-2.152-1.528 0-2.575.912-2.572 2.34h1.46c-.004-.696.437-1.122 1.1-1.122.64 0 1.116.398 1.116 1.037 0 .579-.355.976-1.016 1.612l-2.588 2.397V420Zm6.032-1.278h3.49V420h1.47v-1.278h.903v-1.233h-.902v-4.762h-1.925l-3.036 4.784v1.211Zm3.52-1.233H65.67v-.056l1.914-3.03h.057v3.086Zm3.382 4.556h1.512v-2.919h.047c.21.455.667.963 1.548.963 1.243 0 2.212-.984 2.212-2.809 0-1.875-1.012-2.806-2.209-2.806-.912 0-1.349.544-1.551.988h-.068v-.917h-1.491v7.5Zm1.48-4.772c0-.973.412-1.595 1.147-1.595.75 0 1.148.65 1.148 1.595 0 .951-.405 1.612-1.148 1.612-.727 0-1.147-.639-1.147-1.612Zm5.907-2.728h-1.563l1.563 2.728L76.79 420h1.563l1.058-1.886L80.488 420h1.545l-1.623-2.727 1.58-2.728h-1.55l-1.027 1.907-1.001-1.907Z" fill="#fff"/><path stroke="#E8178A" d="M58.5 406v-7m23 7v-7m336.5 3.5h24"/><rect x="411.5" y="407" width="37" height="18" rx="3" fill="#E8178A"/><path d="M418.089 420h5.185v-1.257h-3.054v-.05l1.062-1.04c1.495-1.364 1.896-2.046 1.896-2.873 0-1.261-1.03-2.152-2.589-2.152-1.527 0-2.574.912-2.571 2.34h1.46c-.004-.696.437-1.122 1.101-1.122.639 0 1.115.398 1.115 1.037 0 .579-.355.976-1.016 1.612l-2.589 2.397V420Zm6.033-1.278h3.491V420h1.47v-1.278h.902v-1.233h-.902v-4.762h-1.925l-3.036 4.784v1.211Zm3.519-1.233h-1.971v-.056l1.914-3.03h.057v3.086Zm3.383 4.556h1.512v-2.919h.047c.209.455.667.963 1.548.963 1.243 0 2.212-.984 2.212-2.809 0-1.875-1.012-2.806-2.209-2.806-.912 0-1.349.544-1.551.988h-.068v-.917h-1.491v7.5Zm1.48-4.772c0-.973.412-1.595 1.147-1.595.75 0 1.147.65 1.147 1.595 0 .951-.404 1.612-1.147 1.612-.728 0-1.147-.639-1.147-1.612Zm5.907-2.728h-1.563l1.563 2.728-1.619 2.727h1.562l1.058-1.886 1.076 1.886h1.545l-1.623-2.727 1.58-2.728h-1.551l-1.027 1.907-1.001-1.907Z" fill="#fff"/><path stroke="#E8178A" d="M418.5 406v-7m23 7v-7"/></svg>