<svg width="475" height="153" viewBox="0 0 475 153" fill="none" xmlns="http://www.w3.org/2000/svg"><path fill="#F0F0F0" d="M38 46h434v28H38z"/><path d="M42.416 56.014s-.702 1.028.217 2.356c0 0 .145-.676 1.597-.676h1.743c1.646 0 2.88-1.629 2.105-3.309 0 0 1.162.126 1.55-.626.387-.752-.024-1.053-.605-1.053h-2.929c0 .54-.992.614-.992 0h-1.645s-1.235 0-1.259 1.078c0 0 .28-.175.556-.2v.287s-.338.063-.496.151c-.157.087-.387.326-.169.94.218.614.303.827.303.827s.351-.315.92-.315h.666c1.185 0 .968 1.19-.218 1.19s-1.343-.65-1.343-.65h-.001Z" fill="#DB0000"/><path d="M48.6 54.774s.399.026.689-.237c0 0 2.626 2.118-1.27 6.378-3.897 4.26-.884 7.018-.884 7.018s-.702.7-.303 2.067c0 0-1.62-.948-2.86-2.557-1.792-2.325-2.887-5.883 2.033-8.721 0 0 3.247-1.692 2.594-3.948Zm-4.014-2.468s.524-.97 1.742-.97c.96 0 1.179-.51 1.179-.51S47.926 50 50.04 50c1.937 0 3.243.669 4.3 1.562 0 0-2.849-1.83-5.656.744h-4.098Z" fill="#DB0000"/><path d="M56.429 58.437c-.08-3.024-2.34-6.265-7.196-6.08 4.744-4.161 12.973 5.127 6.195 10.008 0 0 1.134-1.675 1.001-3.927Z" fill="#DB0000"/><path d="M49.959 52.69c5.922-.184 8.036 7.168 4.211 10.476l-3.84 1.922s-.5-1.67 1.356-3.626c1.856-1.955 3.647-5.614-1.484-8.02 0 0 .097-.5-.241-.751h-.002Z" fill="#DB0000"/><path d="M49.652 54.344s.29-.284.388-.518c4.404 1.904 3.711 5.13 1.08 7.836-1.613 1.72-1.113 3.576-1.113 3.576s-1.968 1.27-2.646 2.372c0 0-2.85-2.512 1.097-6.682 3.873-4.094 1.194-6.583 1.194-6.583v-.001Z" fill="#DB0000"/><path d="M67.65 65h-1.292l3.739-10.182h1.272L75.108 65h-1.293l-3.042-8.571h-.08L67.651 65Zm.478-3.977h5.21v1.093h-5.21v-1.093Zm18.072-3.66a1.56 1.56 0 0 0-.726-1.173c-.425-.278-.945-.417-1.561-.417-.451 0-.846.073-1.184.218a1.889 1.889 0 0 0-.785.602 1.442 1.442 0 0 0-.279.87c0 .272.065.505.194.701.133.192.302.353.508.482.205.126.42.23.646.313.225.08.432.145.621.194l1.034.279c.265.07.56.165.885.288.328.123.642.29.94.502.302.21.55.478.746.806.195.328.293.73.293 1.208a2.68 2.68 0 0 1-.433 1.491c-.285.444-.702.797-1.252 1.06-.547.261-1.212.392-1.994.392-.73 0-1.36-.118-1.894-.353-.53-.235-.948-.563-1.253-.984a2.809 2.809 0 0 1-.512-1.467h1.273c.033.385.162.703.387.955a2.1 2.1 0 0 0 .865.556c.352.12.73.18 1.134.18.47 0 .893-.077 1.268-.23.374-.155.67-.37.89-.646.218-.278.328-.603.328-.974 0-.338-.095-.613-.284-.825a2.08 2.08 0 0 0-.745-.517 7.834 7.834 0 0 0-1-.348l-1.252-.358c-.796-.23-1.426-.556-1.89-.98-.464-.424-.696-.98-.696-1.665 0-.57.154-1.068.463-1.492a3.07 3.07 0 0 1 1.252-.994 4.231 4.231 0 0 1 1.765-.358c.657 0 1.24.118 1.75.353.51.232.915.55 1.213.955.302.404.461.863.478 1.377H86.2ZM89.4 65v-7.636h1.173V65H89.4Zm.597-8.91a.834.834 0 0 1-.592-.233.75.75 0 0 1-.244-.562.75.75 0 0 1 .244-.561.834.834 0 0 1 .592-.234c.228 0 .424.078.586.234a.744.744 0 0 1 .249.561.744.744 0 0 1-.249.562.817.817 0 0 1-.586.234Zm3.899 4.316V65h-1.174v-7.636h1.134v1.193h.1c.178-.388.45-.7.815-.935.364-.239.835-.358 1.412-.358.517 0 .969.106 1.357.318.388.21.69.527.905.955.215.424.323.961.323 1.61V65h-1.174v-4.773c0-.6-.155-1.067-.467-1.402-.311-.338-.739-.507-1.282-.507-.375 0-.71.081-1.005.244-.291.162-.522.4-.69.71-.17.312-.254.69-.254 1.134Zm10.098 7.617c-.567 0-1.054-.073-1.462-.219a3.11 3.11 0 0 1-1.019-.567 3.108 3.108 0 0 1-.641-.745l.935-.657c.106.14.24.299.402.478.163.182.385.34.667.472.285.136.657.204 1.118.204.617 0 1.125-.15 1.526-.448.401-.298.602-.765.602-1.402v-1.55h-.099a6.56 6.56 0 0 1-.368.516 2.1 2.1 0 0 1-.676.542c-.292.156-.687.234-1.184.234-.616 0-1.17-.146-1.66-.438-.487-.291-.874-.716-1.159-1.273-.281-.556-.422-1.233-.422-2.028 0-.782.137-1.463.412-2.043.276-.584.658-1.034 1.149-1.353.49-.321 1.057-.482 1.7-.482.497 0 .892.083 1.183.249.295.162.521.348.677.557.159.205.281.374.367.507h.12v-1.213h1.133v7.855c0 .656-.149 1.19-.447 1.6a2.55 2.55 0 0 1-1.193.91 4.506 4.506 0 0 1-1.661.294Zm-.04-4.196c.471 0 .869-.108 1.194-.323.324-.216.571-.526.74-.93.169-.404.254-.888.254-1.452 0-.55-.083-1.036-.249-1.456a2.18 2.18 0 0 0-.736-.99c-.324-.239-.725-.358-1.203-.358-.497 0-.911.126-1.243.378-.328.252-.575.59-.74 1.014a3.908 3.908 0 0 0-.244 1.412c0 .53.083 1 .249 1.407.169.404.417.723.745.955.332.228.743.343 1.233.343Zm7.736 1.352a3.1 3.1 0 0 1-1.317-.273 2.258 2.258 0 0 1-.94-.8c-.232-.352-.348-.776-.348-1.274 0-.437.086-.792.259-1.063.172-.276.402-.491.691-.647.288-.156.606-.272.954-.348.351-.08.704-.142 1.059-.189.464-.06.84-.104 1.129-.134.291-.033.503-.088.636-.164.136-.076.204-.209.204-.398v-.04c0-.49-.134-.871-.403-1.143-.265-.272-.668-.408-1.208-.408-.56 0-.999.123-1.317.368-.319.245-.542.507-.672.786l-1.113-.398c.199-.464.464-.825.795-1.084.335-.262.7-.444 1.094-.547a4.546 4.546 0 0 1 1.173-.159c.246 0 .527.03.845.09.322.056.632.174.93.353.302.179.552.449.751.81.199.361.298.845.298 1.452V65h-1.173v-1.034h-.06a2.047 2.047 0 0 1-.398.532c-.185.189-.432.35-.74.482-.309.133-.685.199-1.129.199Zm.179-1.054c.464 0 .855-.091 1.173-.273a1.863 1.863 0 0 0 .975-1.616v-1.074c-.05.06-.159.114-.328.164a5.554 5.554 0 0 1-.577.124 26.387 26.387 0 0 1-1.124.15 4.55 4.55 0 0 0-.855.193 1.475 1.475 0 0 0-.636.393c-.159.172-.239.408-.239.706 0 .408.151.716.453.925.305.205.691.308 1.158.308Zm5.463 3.739v-10.5h1.133v1.213h.139c.087-.133.206-.302.358-.507.156-.21.378-.395.667-.557.291-.166.686-.249 1.183-.249.643 0 1.21.161 1.7.482.491.322.873.778 1.149 1.368.275.59.412 1.286.412 2.088 0 .808-.137 1.51-.412 2.103-.276.59-.657 1.047-1.144 1.372-.487.321-1.049.482-1.685.482-.491 0-.884-.081-1.179-.244a2.182 2.182 0 0 1-.681-.561 7.856 7.856 0 0 1-.368-.527h-.099v4.037h-1.173Zm1.153-6.682c0 .576.085 1.085.254 1.526.169.438.416.78.74 1.03.325.245.723.367 1.194.367.49 0 .899-.13 1.228-.388.331-.261.58-.613.745-1.054.169-.444.254-.938.254-1.481 0-.537-.083-1.021-.249-1.452a2.242 2.242 0 0 0-.74-1.029c-.329-.255-.741-.383-1.238-.383-.478 0-.879.121-1.204.363-.324.239-.57.574-.735 1.004-.166.428-.249.927-.249 1.497Zm10.48 3.977c-.689 0-1.294-.164-1.814-.492a3.34 3.34 0 0 1-1.213-1.377c-.289-.59-.433-1.28-.433-2.068 0-.796.144-1.49.433-2.084a3.333 3.333 0 0 1 1.213-1.382c.52-.328 1.125-.492 1.814-.492.69 0 1.293.164 1.81.492.52.328.925.79 1.213 1.383.292.593.437 1.287.437 2.083 0 .788-.145 1.478-.437 2.068a3.298 3.298 0 0 1-1.213 1.377c-.517.328-1.12.492-1.81.492Zm0-1.054c.524 0 .955-.134 1.293-.403a2.38 2.38 0 0 0 .751-1.058c.162-.438.243-.912.243-1.422 0-.51-.081-.986-.243-1.427a2.41 2.41 0 0 0-.751-1.07c-.338-.27-.769-.407-1.293-.407-.523 0-.954.136-1.292.408a2.402 2.402 0 0 0-.751 1.069c-.163.44-.244.916-.244 1.427 0 .51.081.984.244 1.422.162.437.413.79.751 1.058.338.269.769.403 1.292.403Zm5.251.895v-7.636h1.134v1.153h.08c.139-.378.391-.684.755-.92a2.227 2.227 0 0 1 1.233-.353c.086 0 .194.002.323.005.13.004.227.009.294.015v1.193a3.46 3.46 0 0 0-.274-.044 2.69 2.69 0 0 0-.442-.035 2.09 2.09 0 0 0-.995.233 1.765 1.765 0 0 0-.686.637 1.72 1.72 0 0 0-.248.92V65h-1.174Zm8.179.16c-.736 0-1.371-.163-1.904-.488a3.263 3.263 0 0 1-1.228-1.372c-.285-.59-.428-1.276-.428-2.058 0-.783.143-1.472.428-2.069.288-.6.689-1.067 1.203-1.402.517-.338 1.12-.507 1.809-.507.398 0 .791.066 1.179.2.387.132.74.347 1.059.645.318.295.571.686.76 1.174.189.487.284 1.087.284 1.8v.497h-5.887v-1.015h4.693c0-.43-.086-.815-.258-1.153a1.948 1.948 0 0 0-.726-.8c-.311-.196-.679-.294-1.104-.294-.467 0-.871.116-1.213.348a2.286 2.286 0 0 0-.78.895 2.62 2.62 0 0 0-.274 1.183v.676c0 .577.1 1.066.299 1.467.202.398.482.701.84.91.358.205.774.308 1.248.308.308 0 .586-.043.835-.13a1.77 1.77 0 0 0 .651-.397c.183-.179.323-.4.423-.666l1.133.318c-.119.385-.32.723-.601 1.014-.282.289-.63.514-1.044.677-.415.158-.88.238-1.397.238ZM158.398 58a3.578 3.578 0 0 0-.432-.9 2.772 2.772 0 0 0-.632-.686 2.652 2.652 0 0 0-.825-.433 3.299 3.299 0 0 0-1.014-.149 3.02 3.02 0 0 0-1.646.468c-.494.311-.886.77-1.178 1.377-.292.606-.438 1.35-.438 2.232 0 .882.148 1.626.443 2.232.295.607.694 1.066 1.198 1.378a3.169 3.169 0 0 0 1.7.467c.584 0 1.097-.124 1.542-.373a2.65 2.65 0 0 0 1.044-1.064c.252-.46.377-1.003.377-1.626l.378.08h-3.062v-1.094h3.878v1.094c0 .838-.179 1.568-.537 2.187-.355.62-.845 1.1-1.472 1.442-.623.338-1.339.507-2.148.507-.901 0-1.693-.212-2.376-.636-.679-.424-1.21-1.028-1.591-1.81-.378-.782-.567-1.71-.567-2.784 0-.805.108-1.53.323-2.172a4.813 4.813 0 0 1 .925-1.651 4.053 4.053 0 0 1 1.412-1.044 4.367 4.367 0 0 1 1.795-.363c.537 0 1.037.081 1.501.244a4.031 4.031 0 0 1 2.168 1.73 4 4 0 0 1 .507 1.347h-1.273Zm6.388 7.16c-.69 0-1.295-.165-1.815-.493a3.34 3.34 0 0 1-1.213-1.377c-.289-.59-.433-1.28-.433-2.068 0-.796.144-1.49.433-2.084a3.333 3.333 0 0 1 1.213-1.382c.52-.328 1.125-.492 1.815-.492.689 0 1.292.164 1.809.492.521.328.925.79 1.213 1.383.292.593.438 1.287.438 2.083 0 .788-.146 1.478-.438 2.068a3.291 3.291 0 0 1-1.213 1.377c-.517.328-1.12.492-1.809.492Zm0-1.055c.523 0 .954-.134 1.292-.403a2.38 2.38 0 0 0 .751-1.058c.162-.438.243-.912.243-1.422 0-.51-.081-.986-.243-1.427a2.41 2.41 0 0 0-.751-1.07c-.338-.27-.769-.407-1.292-.407-.524 0-.955.136-1.293.408a2.41 2.41 0 0 0-.751 1.069 4.1 4.1 0 0 0-.243 1.427c0 .51.081.984.243 1.422.163.437.413.79.751 1.058.338.269.769.403 1.293.403Zm11.222-6.741L173.184 65h-1.193l-2.824-7.636h1.272l2.108 6.085h.08l2.108-6.085h1.273Zm4.477 7.795c-.736 0-1.371-.162-1.905-.487a3.276 3.276 0 0 1-1.228-1.372c-.285-.59-.427-1.276-.427-2.058 0-.783.142-1.472.427-2.069.289-.6.69-1.067 1.204-1.402.517-.338 1.12-.507 1.809-.507.398 0 .791.066 1.179.2.387.132.74.347 1.058.645.319.295.572.686.761 1.174.189.487.283 1.087.283 1.8v.497h-5.886v-1.015h4.693c0-.43-.086-.815-.258-1.153a1.948 1.948 0 0 0-.726-.8c-.312-.196-.68-.294-1.104-.294-.467 0-.871.116-1.213.348a2.286 2.286 0 0 0-.78.895 2.62 2.62 0 0 0-.274 1.183v.676c0 .577.1 1.066.298 1.467.203.398.483.701.841.91.358.205.774.308 1.248.308.308 0 .586-.043.835-.13a1.77 1.77 0 0 0 .651-.397c.182-.179.323-.4.423-.666l1.133.318c-.119.385-.32.723-.601 1.014-.282.289-.63.514-1.044.677-.415.158-.88.238-1.397.238Zm4.946-.159v-7.636h1.134v1.153h.079a1.84 1.84 0 0 1 .756-.92 2.227 2.227 0 0 1 1.233-.353c.086 0 .194.002.323.005.129.004.227.009.293.015v1.193a3.321 3.321 0 0 0-.273-.044 2.69 2.69 0 0 0-.442-.035c-.372 0-.703.078-.995.233a1.712 1.712 0 0 0-.934 1.556V65h-1.174Zm6.383-4.594V65h-1.174v-7.636h1.134v1.193h.099c.179-.388.451-.7.816-.935.364-.239.835-.358 1.411-.358.518 0 .97.106 1.358.318.388.21.689.527.905.955.215.424.323.961.323 1.61V65h-1.174v-4.773c0-.6-.155-1.067-.467-1.402-.311-.338-.739-.507-1.283-.507-.374 0-.709.081-1.004.244-.291.162-.522.4-.691.71-.169.312-.253.69-.253 1.134ZM198.83 65v-7.636h1.133v1.193h.1a1.92 1.92 0 0 1 .77-.95c.355-.228.781-.343 1.278-.343.504 0 .923.115 1.258.343.338.226.601.542.79.95h.08a2.22 2.22 0 0 1 .88-.94c.391-.235.86-.353 1.407-.353.683 0 1.241.214 1.675.642.434.424.651 1.085.651 1.983V65h-1.173v-5.11c0-.564-.154-.967-.462-1.209a1.711 1.711 0 0 0-1.089-.363c-.537 0-.953.163-1.248.487-.295.322-.442.73-.442 1.223V65h-1.194v-5.23c0-.434-.14-.784-.422-1.05-.282-.268-.645-.402-1.089-.402-.305 0-.59.081-.855.244a1.834 1.834 0 0 0-.636.676 1.997 1.997 0 0 0-.239.99V65h-1.173Zm15.369.16c-.735 0-1.37-.163-1.904-.488a3.276 3.276 0 0 1-1.228-1.372c-.285-.59-.427-1.276-.427-2.058 0-.783.142-1.472.427-2.069.289-.6.69-1.067 1.203-1.402.517-.338 1.121-.507 1.81-.507.398 0 .791.066 1.178.2.388.132.741.347 1.059.645.318.295.572.686.761 1.174.189.487.283 1.087.283 1.8v.497h-5.886v-1.015h4.693c0-.43-.086-.815-.258-1.153a1.948 1.948 0 0 0-.726-.8c-.312-.196-.68-.294-1.104-.294-.467 0-.872.116-1.213.348a2.297 2.297 0 0 0-.781.895 2.632 2.632 0 0 0-.273 1.183v.676c0 .577.099 1.066.298 1.467.203.398.483.701.841.91.357.205.773.308 1.247.308.309 0 .587-.043.836-.13a1.77 1.77 0 0 0 .651-.397c.182-.179.323-.4.422-.666l1.134.318c-.119.385-.32.723-.602 1.014a2.92 2.92 0 0 1-1.044.677c-.414.158-.88.238-1.397.238Zm6.12-4.754V65h-1.173v-7.636h1.134v1.193h.099c.179-.388.451-.7.815-.935.365-.239.836-.358 1.412-.358.517 0 .97.106 1.358.318.387.21.689.527.904.955.216.424.324.961.324 1.61V65h-1.174v-4.773c0-.6-.155-1.067-.467-1.402-.312-.338-.739-.507-1.283-.507-.374 0-.709.081-1.004.244a1.74 1.74 0 0 0-.691.71c-.169.312-.254.69-.254 1.134Zm10.338-3.042v.994h-3.958v-.994h3.958Zm-2.804-1.83h1.173v7.279c0 .33.048.58.144.745.1.163.225.272.378.328.156.053.32.08.492.08.129 0 .235-.007.318-.02l.199-.04.239 1.054c-.08.03-.191.06-.333.09-.143.033-.323.05-.542.05-.332 0-.656-.072-.975-.214a1.942 1.942 0 0 1-.785-.652c-.206-.291-.308-.66-.308-1.103v-7.597ZM236.936 65h-1.293l3.739-10.182h1.272L244.393 65H243.1l-3.042-8.571h-.08L236.936 65Zm.477-3.977h5.21v1.093h-5.21v-1.093Zm11.489 7c-.566 0-1.054-.073-1.461-.219a3.09 3.09 0 0 1-1.019-.567 3.09 3.09 0 0 1-.642-.745l.935-.657c.106.14.24.299.403.478.162.182.384.34.666.472.285.136.658.204 1.118.204.617 0 1.126-.15 1.527-.448.401-.298.601-.765.601-1.402v-1.55h-.099c-.086.138-.209.31-.368.516a2.088 2.088 0 0 1-.676.542c-.292.156-.686.234-1.184.234-.616 0-1.17-.146-1.66-.438-.487-.291-.873-.716-1.158-1.273-.282-.556-.423-1.233-.423-2.028 0-.782.138-1.463.413-2.043.275-.584.658-1.034 1.148-1.353.491-.321 1.057-.482 1.7-.482.498 0 .892.083 1.184.249.295.162.52.348.676.557.159.205.281.374.368.507h.119v-1.213h1.133v7.855c0 .656-.149 1.19-.447 1.6a2.55 2.55 0 0 1-1.193.91 4.502 4.502 0 0 1-1.661.294Zm-.039-4.196c.47 0 .868-.108 1.193-.323.325-.216.571-.526.741-.93.169-.404.253-.888.253-1.452 0-.55-.083-1.036-.249-1.456-.165-.421-.41-.751-.735-.99s-.726-.358-1.203-.358c-.498 0-.912.126-1.243.378-.328.252-.575.59-.741 1.014a3.93 3.93 0 0 0-.244 1.412c0 .53.083 1 .249 1.407.169.404.417.723.746.955.331.228.742.343 1.233.343Zm8.69 1.332c-.736 0-1.371-.162-1.904-.487a3.263 3.263 0 0 1-1.228-1.372c-.285-.59-.428-1.276-.428-2.058 0-.783.143-1.472.428-2.069.288-.6.689-1.067 1.203-1.402.517-.338 1.12-.507 1.81-.507.397 0 .79.066 1.178.2.388.132.741.347 1.059.645.318.295.572.686.76 1.174.189.487.284 1.087.284 1.8v.497h-5.887v-1.015h4.694c0-.43-.087-.815-.259-1.153a1.948 1.948 0 0 0-.726-.8c-.311-.196-.679-.294-1.103-.294-.468 0-.872.116-1.213.348a2.28 2.28 0 0 0-.781.895 2.632 2.632 0 0 0-.273 1.183v.676c0 .577.099 1.066.298 1.467.202.398.482.701.84.91.358.205.774.308 1.248.308.308 0 .587-.043.835-.13a1.77 1.77 0 0 0 .651-.397c.183-.179.324-.4.423-.666l1.134.318a2.51 2.51 0 0 1-.602 1.014c-.282.289-.63.514-1.044.677-.414.158-.88.238-1.397.238Zm6.12-4.753V65H262.5v-7.636h1.133v1.193h.1c.179-.388.45-.7.815-.935.365-.239.835-.358 1.412-.358.517 0 .969.106 1.357.318.388.21.69.527.905.955.215.424.323.961.323 1.61V65h-1.173v-4.773c0-.6-.156-1.067-.468-1.402-.311-.338-.739-.507-1.282-.507-.375 0-.709.081-1.004.244a1.75 1.75 0 0 0-.692.71c-.169.312-.253.69-.253 1.134Zm10.118 4.753c-.716 0-1.332-.169-1.849-.507a3.302 3.302 0 0 1-1.193-1.397c-.279-.593-.418-1.271-.418-2.033 0-.776.143-1.46.428-2.054a3.375 3.375 0 0 1 1.203-1.397c.517-.338 1.12-.507 1.809-.507.537 0 1.021.1 1.452.298a2.78 2.78 0 0 1 1.059.836 2.6 2.6 0 0 1 .512 1.253h-1.173a1.818 1.818 0 0 0-.597-.925c-.305-.272-.716-.408-1.233-.408-.457 0-.858.12-1.203.358-.341.235-.608.569-.8 1-.189.427-.284.93-.284 1.506 0 .59.093 1.103.279 1.541.189.438.454.777.795 1.02.345.241.749.362 1.213.362a2.1 2.1 0 0 0 .831-.159 1.71 1.71 0 0 0 .631-.457c.172-.2.295-.438.368-.716h1.173a2.713 2.713 0 0 1-1.521 2.073c-.424.209-.918.313-1.482.313Zm5.474 2.705a2.58 2.58 0 0 1-.532-.05 1.398 1.398 0 0 1-.323-.09l.298-1.034c.285.073.537.1.756.08a.906.906 0 0 0 .582-.293c.172-.173.329-.453.472-.84l.219-.597-2.824-7.676h1.273l2.108 6.085h.079l2.108-6.085h1.273l-3.242 8.75a3.3 3.3 0 0 1-.542.979 2.024 2.024 0 0 1-.75.582c-.282.126-.6.189-.955.189ZM292.248 65l-2.784-10.182h1.253l2.128 8.293h.099l2.168-8.293h1.392l2.168 8.293h.099l2.128-8.293h1.253L299.368 65h-1.273l-2.247-8.114h-.08L293.521 65h-1.273Zm13.772.16c-.736 0-1.371-.163-1.904-.488a3.263 3.263 0 0 1-1.228-1.372c-.285-.59-.428-1.276-.428-2.058 0-.783.143-1.472.428-2.069.288-.6.689-1.067 1.203-1.402.517-.338 1.12-.507 1.809-.507.398 0 .791.066 1.179.2.387.132.74.347 1.059.645.318.295.571.686.76 1.174.189.487.284 1.087.284 1.8v.497h-5.887v-1.015h4.693c0-.43-.086-.815-.258-1.153a1.948 1.948 0 0 0-.726-.8c-.311-.196-.679-.294-1.104-.294-.467 0-.871.116-1.213.348a2.286 2.286 0 0 0-.78.895 2.62 2.62 0 0 0-.274 1.183v.676c0 .577.1 1.066.299 1.467.202.398.482.701.84.91.358.205.774.308 1.248.308.308 0 .586-.043.835-.13a1.77 1.77 0 0 0 .651-.397c.183-.179.323-.4.423-.666l1.133.318c-.119.385-.32.723-.601 1.014-.282.289-.63.514-1.044.677-.415.158-.88.238-1.397.238Zm5.106-.16V54.818h1.173v3.759h.099c.086-.133.206-.302.358-.507.156-.21.378-.395.666-.557.292-.166.686-.249 1.184-.249.643 0 1.209.161 1.7.482.49.322.873.778 1.148 1.368.275.59.413 1.286.413 2.088 0 .808-.138 1.51-.413 2.103-.275.59-.656 1.047-1.143 1.372-.487.321-1.049.482-1.685.482-.491 0-.884-.081-1.179-.244a2.182 2.182 0 0 1-.681-.561 7.5 7.5 0 0 1-.368-.527h-.139V65h-1.133Zm1.153-3.818c0 .576.084 1.085.253 1.526.17.438.416.78.741 1.03.325.245.723.367 1.193.367.491 0 .9-.13 1.228-.388a2.37 2.37 0 0 0 .746-1.054c.169-.444.254-.938.254-1.481 0-.537-.083-1.021-.249-1.452a2.237 2.237 0 0 0-.741-1.029c-.328-.255-.74-.383-1.238-.383-.477 0-.878.121-1.203.363-.324.239-.57.574-.735 1.004-.166.428-.249.927-.249 1.497Zm12.792-2.108-1.054.298a1.955 1.955 0 0 0-.293-.512 1.425 1.425 0 0 0-.518-.417c-.218-.11-.498-.165-.84-.165-.467 0-.856.108-1.168.324-.308.212-.462.482-.462.81 0 .292.106.522.318.691.212.169.543.31.994.423l1.134.278c.682.166 1.191.42 1.526.76.335.339.502.775.502 1.308 0 .438-.126.829-.378 1.174-.248.344-.596.616-1.044.815-.447.199-.968.298-1.561.298-.779 0-1.423-.169-1.934-.507-.51-.338-.833-.832-.969-1.482l1.113-.278c.106.411.307.72.602.925.298.205.688.308 1.168.308.547 0 .981-.116 1.303-.348.325-.235.487-.517.487-.845a.89.89 0 0 0-.278-.666c-.186-.183-.471-.319-.856-.408l-1.272-.298c-.7-.166-1.213-.423-1.541-.77-.325-.352-.488-.791-.488-1.318 0-.431.121-.812.363-1.144a2.477 2.477 0 0 1 1-.78 3.504 3.504 0 0 1 1.441-.284c.756 0 1.349.166 1.78.497.434.332.743.77.925 1.313ZM326.976 65v-7.636h1.174V65h-1.174Zm.597-8.91a.835.835 0 0 1-.592-.233.751.751 0 0 1-.243-.562.75.75 0 0 1 .243-.561.835.835 0 0 1 .592-.234c.228 0 .424.078.586.234a.743.743 0 0 1 .249.561.743.743 0 0 1-.249.562.816.816 0 0 1-.586.234Zm6.046 1.274v.994h-3.957v-.994h3.957Zm-2.803-1.83h1.173v7.279c0 .33.048.58.144.745a.744.744 0 0 0 .378.328c.156.053.32.08.492.08.129 0 .235-.007.318-.02l.199-.04.239 1.054c-.08.03-.191.06-.333.09-.143.033-.324.05-.542.05a2.37 2.37 0 0 1-.975-.214 1.936 1.936 0 0 1-.785-.652c-.206-.291-.308-.66-.308-1.103v-7.597Zm7.688 9.625c-.736 0-1.37-.162-1.904-.487a3.27 3.27 0 0 1-1.228-1.372c-.285-.59-.428-1.276-.428-2.058 0-.783.143-1.472.428-2.069.288-.6.689-1.067 1.203-1.402.517-.338 1.12-.507 1.81-.507.397 0 .79.066 1.178.2.388.132.741.347 1.059.645.318.295.572.686.761 1.174.189.487.283 1.087.283 1.8v.497h-5.886v-1.015h4.693c0-.43-.086-.815-.259-1.153a1.948 1.948 0 0 0-.726-.8c-.311-.196-.679-.294-1.103-.294-.468 0-.872.116-1.213.348a2.289 2.289 0 0 0-.781.895 2.632 2.632 0 0 0-.273 1.183v.676c0 .577.099 1.066.298 1.467.202.398.482.701.84.91.358.205.774.308 1.248.308.308 0 .587-.043.835-.13.252-.089.469-.221.652-.397.182-.179.323-.4.422-.666l1.134.318a2.51 2.51 0 0 1-.602 1.014c-.282.289-.63.514-1.044.677-.414.158-.88.238-1.397.238Z" fill="#344054"/><path d="M347.885 65V54.818h2.153v4.201h4.37v-4.2h2.147V65h-2.147v-4.206h-4.37V65h-2.153Zm13.856.15c-.772 0-1.44-.165-2.004-.493a3.369 3.369 0 0 1-1.297-1.382c-.305-.593-.458-1.281-.458-2.063 0-.79.153-1.479.458-2.069a3.328 3.328 0 0 1 1.297-1.382c.564-.331 1.232-.497 2.004-.497s1.438.166 1.998.497c.564.328.998.79 1.303 1.383.305.59.457 1.279.457 2.068 0 .782-.152 1.47-.457 2.063a3.357 3.357 0 0 1-1.303 1.382c-.56.328-1.226.492-1.998.492Zm.01-1.642c.351 0 .644-.099.88-.298.235-.202.412-.477.532-.825a3.58 3.58 0 0 0 .184-1.188c0-.444-.062-.84-.184-1.189-.12-.348-.297-.623-.532-.825-.236-.202-.529-.303-.88-.303-.355 0-.653.101-.895.303a1.866 1.866 0 0 0-.542.825 3.663 3.663 0 0 0-.179 1.189c0 .444.06.84.179 1.188.123.348.303.623.542.825.242.2.54.298.895.298Zm6.44 1.492-2.078-7.636h2.143l1.183 5.13h.07l1.233-5.13h2.103l1.253 5.1h.064l1.164-5.1h2.137L375.39 65h-2.242l-1.312-4.803h-.095L370.429 65h-2.238Zm17.704-7.636v1.59h-4.598v-1.59h4.598Zm-3.554-1.83h2.117v7.12c0 .195.03.347.09.457.06.106.142.18.249.224.109.043.235.064.377.064.1 0 .199-.008.299-.025.099-.02.175-.035.228-.044l.333 1.576a5.934 5.934 0 0 1-.447.114 3.583 3.583 0 0 1-.701.084c-.51.02-.958-.048-1.342-.203a1.874 1.874 0 0 1-.89-.726c-.212-.328-.317-.743-.313-1.243v-7.398Zm8.302 9.615c-.772 0-1.44-.164-2.003-.492a3.365 3.365 0 0 1-1.298-1.382c-.305-.593-.457-1.281-.457-2.063 0-.79.152-1.479.457-2.069a3.324 3.324 0 0 1 1.298-1.382c.563-.331 1.231-.497 2.003-.497s1.439.166 1.999.497a3.32 3.32 0 0 1 1.302 1.383c.305.59.458 1.279.458 2.068 0 .782-.153 1.47-.458 2.063a3.361 3.361 0 0 1-1.302 1.382c-.56.328-1.227.492-1.999.492Zm.01-1.64c.351 0 .645-.1.88-.299a1.85 1.85 0 0 0 .532-.825c.123-.348.184-.744.184-1.188 0-.444-.061-.84-.184-1.189a1.85 1.85 0 0 0-.532-.825c-.235-.202-.529-.303-.88-.303-.355 0-.653.101-.895.303a1.874 1.874 0 0 0-.542.825 3.663 3.663 0 0 0-.179 1.189c0 .444.06.84.179 1.188.123.348.304.623.542.825.242.2.54.298.895.298ZM399.019 65v-7.636h2.118V65h-2.118Zm1.064-8.62c-.315 0-.585-.105-.81-.314a1.013 1.013 0 0 1-.334-.76c0-.292.111-.542.334-.751a1.14 1.14 0 0 1 .81-.319c.315 0 .583.107.805.319a.986.986 0 0 1 .338.75c0 .295-.112.549-.338.761-.222.209-.49.313-.805.313Zm5.564 8.744c-.58 0-1.105-.149-1.576-.447-.467-.302-.838-.744-1.113-1.328-.272-.586-.408-1.305-.408-2.157 0-.875.141-1.603.423-2.183.281-.583.656-1.019 1.123-1.307a2.88 2.88 0 0 1 1.546-.438c.428 0 .784.073 1.069.219.289.143.521.322.696.537.179.212.315.42.408.626h.065v-3.828h2.113V65h-2.089v-1.223h-.089a2.68 2.68 0 0 1-.423.631 2.094 2.094 0 0 1-.701.513c-.285.135-.633.203-1.044.203Zm.672-1.685c.341 0 .629-.093.865-.279a1.76 1.76 0 0 0 .546-.79c.13-.338.194-.734.194-1.188 0-.454-.063-.849-.189-1.183-.126-.335-.308-.594-.546-.776a1.392 1.392 0 0 0-.87-.273c-.348 0-.642.094-.88.283-.239.189-.42.45-.542.786a3.365 3.365 0 0 0-.184 1.163c0 .444.061.837.184 1.178.126.338.306.603.542.796.238.188.532.283.88.283Zm8.895 1.71c-.786 0-1.462-.159-2.028-.477a3.267 3.267 0 0 1-1.303-1.362c-.305-.59-.457-1.288-.457-2.093 0-.786.152-1.475.457-2.069a3.38 3.38 0 0 1 1.288-1.387c.556-.331 1.209-.497 1.958-.497.504 0 .973.081 1.407.244.438.159.819.4 1.144.72.328.322.583.727.765 1.214.183.484.274 1.05.274 1.7v.582h-6.448V60.41h4.454c0-.305-.066-.575-.199-.81a1.42 1.42 0 0 0-.551-.552 1.577 1.577 0 0 0-.811-.204 1.63 1.63 0 0 0-.855.224 1.577 1.577 0 0 0-.577.591 1.67 1.67 0 0 0-.213.82v1.249c0 .377.069.704.208.98.143.274.343.486.602.635.259.15.565.224.92.224.235 0 .451-.033.646-.1.196-.066.363-.165.502-.298a1.3 1.3 0 0 0 .318-.487l1.959.13c-.099.47-.303.881-.611 1.233-.305.347-.7.62-1.184.815-.48.192-1.035.288-1.665.288Zm7.005-4.564V65h-2.118v-7.636h2.018v1.347h.09c.169-.444.452-.795.85-1.054.398-.262.88-.393 1.447-.393.53 0 .993.116 1.387.348.394.232.701.564.92.994.218.428.328.938.328 1.532V65h-2.118v-4.484c.003-.468-.116-.832-.358-1.094-.242-.265-.575-.398-.999-.398-.285 0-.537.062-.756.184a1.287 1.287 0 0 0-.507.537 1.86 1.86 0 0 0-.184.84Zm10.653-3.221v1.59h-4.599v-1.59h4.599Zm-3.555-1.83h2.118v7.12c0 .195.03.347.09.457a.49.49 0 0 0 .248.224c.109.043.235.064.378.064.099 0 .199-.008.298-.025.1-.02.176-.035.229-.044l.333 1.576a5.934 5.934 0 0 1-.447.114 3.593 3.593 0 0 1-.701.084c-.511.02-.958-.048-1.343-.203a1.874 1.874 0 0 1-.89-.726c-.212-.328-.316-.743-.313-1.243v-7.398ZM434.251 65v-7.636h2.118V65h-2.118Zm1.064-8.62c-.315 0-.585-.105-.81-.314a1.016 1.016 0 0 1-.333-.76c0-.292.111-.542.333-.751a1.14 1.14 0 0 1 .81-.319c.315 0 .584.107.806.319a.99.99 0 0 1 .338.75c0 .295-.113.549-.338.761a1.134 1.134 0 0 1-.806.313Zm6.857.984v1.59h-4.713v-1.59h4.713ZM438.538 65v-8.188c0-.554.108-1.013.323-1.377.219-.365.517-.638.895-.82a2.929 2.929 0 0 1 1.288-.274c.325 0 .621.025.89.075.272.05.474.094.606.134l-.378 1.59a2.586 2.586 0 0 0-.308-.074 1.921 1.921 0 0 0-.368-.035c-.311 0-.528.073-.651.219-.123.142-.184.343-.184.602V65h-2.113Zm6.236 2.864a4.2 4.2 0 0 1-.756-.065 2.764 2.764 0 0 1-.577-.154l.478-1.581c.248.076.472.118.671.124a.853.853 0 0 0 .522-.139c.149-.1.27-.269.363-.507l.124-.323-2.739-7.855h2.227l1.581 5.608h.08l1.595-5.608h2.243l-2.968 8.461a3.57 3.57 0 0 1-.582 1.074 2.386 2.386 0 0 1-.92.711c-.371.17-.819.254-1.342.254Z" fill="#0F71BB"/><path d="M347 67.784h103.824v.955H347v-.955Z" fill="#0F71BB"/><path fill-rule="evenodd" clip-rule="evenodd" d="M457.136 56.904a.45.45 0 0 1 .326-.135.462.462 0 0 1 .327.135L463 62.116l5.211-5.212a.464.464 0 0 1 .754.15.466.466 0 0 1-.1.504l-5.538 5.538a.466.466 0 0 1-.504.1.466.466 0 0 1-.15-.1l-5.537-5.538a.467.467 0 0 1 0-.653Z" fill="#0F71BB"/><circle cx="12" cy="16" r="12" fill="#344054"/><path d="M14.006 10.364V22h-2.46v-9.301h-.069l-2.665 1.67v-2.181l2.881-1.824h2.313Z" fill="#fff"/><circle cx="463" cy="137" r="12" fill="#344054"/><path d="M463.244 143.159c-.848 0-1.604-.146-2.267-.437-.659-.296-1.18-.701-1.562-1.216a3.054 3.054 0 0 1-.585-1.796h2.477c.015.284.108.534.278.75.174.212.406.377.693.495.288.117.612.176.972.176.375 0 .706-.067.994-.199.288-.133.514-.316.676-.551.163-.235.245-.506.245-.813 0-.31-.087-.585-.262-.824a1.666 1.666 0 0 0-.738-.568c-.318-.136-.697-.204-1.137-.204h-1.085v-1.807h1.085c.372 0 .699-.065.983-.193.288-.129.512-.307.671-.534.159-.232.238-.5.238-.807 0-.292-.07-.548-.21-.767a1.382 1.382 0 0 0-.579-.523 1.887 1.887 0 0 0-.864-.188c-.333 0-.638.061-.915.182a1.599 1.599 0 0 0-.664.506c-.167.22-.256.477-.268.773h-2.358c.012-.671.203-1.262.574-1.773.372-.511.872-.911 1.5-1.199.633-.292 1.347-.437 2.142-.437.803 0 1.506.145 2.108.437.603.292 1.07.686 1.404 1.182.337.492.504 1.045.5 1.659.004.651-.199 1.195-.608 1.631-.405.435-.934.712-1.585.829v.091c.856.11 1.507.407 1.954.892.451.481.674 1.083.671 1.807a2.846 2.846 0 0 1-.574 1.767c-.383.515-.911.92-1.586 1.216-.674.295-1.446.443-2.318.443Z" fill="#fff"/><path d="M463 125.5V78" stroke="#344054" stroke-dasharray="2 2"/><circle cx="232" cy="137" r="12" fill="#344054"/><path d="M227.943 143v-1.773l4.142-3.835c.353-.341.648-.648.887-.92.242-.273.426-.54.551-.802.125-.265.187-.551.187-.858 0-.34-.077-.634-.233-.88a1.53 1.53 0 0 0-.636-.574 2 2 0 0 0-.915-.205c-.356 0-.667.072-.932.216a1.49 1.49 0 0 0-.613.62c-.144.269-.216.589-.216.96h-2.335c0-.762.172-1.422.517-1.983a3.446 3.446 0 0 1 1.448-1.301c.622-.307 1.338-.46 2.148-.46.834 0 1.559.147 2.176.443.622.291 1.104.697 1.449 1.216s.517 1.113.517 1.784c0 .439-.087.873-.261 1.301-.171.428-.476.903-.915 1.426-.439.519-1.059 1.142-1.858 1.869l-1.699 1.665v.08h4.887V143h-8.296Z" fill="#fff"/><path d="M232 125.5V78M24 13h73v36" stroke="#344054" stroke-dasharray="2 2"/></svg>