<svg width="180" height="91" viewBox="0 0 180 91" fill="none" xmlns="http://www.w3.org/2000/svg">
<path d="M10 3.5H128V51.5H10V3.5Z" fill="white"/>
<path fill-rule="evenodd" clip-rule="evenodd" d="M29.2004 31.8168V27.5835L30.0003 26.7834V31.8168C30.0003 31.9229 30.0425 32.0246 30.1175 32.0996C30.1925 32.1746 30.2942 32.2168 30.4003 32.2168H37.5997C37.7058 32.2168 37.8075 32.1746 37.8825 32.0996C37.9575 32.0246 37.9997 31.9229 37.9997 31.8168V26.7834L38.694 27.4779L38.7996 31.8168C38.7996 32.135 38.6732 32.4402 38.4481 32.6653C38.2231 32.8903 37.9179 33.0167 37.5997 33.0167H30.4003C30.0821 33.0167 29.7769 32.8903 29.5518 32.6653C29.3268 32.4402 29.2004 32.135 29.2004 31.8168ZM37.9997 23.0176V25.6512L36.3998 24.0513V23.0176C36.3998 22.9115 36.4419 22.8097 36.5169 22.7347C36.5919 22.6597 36.6937 22.6176 36.7998 22.6176H37.5997C37.7058 22.6176 37.8075 22.6597 37.8825 22.7347C37.9575 22.8097 37.9997 22.9115 37.9997 23.0176Z" fill="#344054"/>
<path fill-rule="evenodd" clip-rule="evenodd" d="M33.4344 22.2176C33.5845 22.0676 33.7879 21.9834 34 21.9834C34.2121 21.9834 34.4155 22.0676 34.5656 22.2176L39.8827 27.534C39.9578 27.6091 40 27.7109 40 27.8171C40 27.9233 39.9578 28.0252 39.8827 28.1003C39.8076 28.1754 39.7057 28.2176 39.5995 28.2176C39.4933 28.2176 39.3915 28.1754 39.3164 28.1003L34 22.7832L28.6836 28.1003C28.6085 28.1754 28.5067 28.2176 28.4005 28.2176C28.2943 28.2176 28.1924 28.1754 28.1173 28.1003C28.0422 28.0252 28 27.9233 28 27.8171C28 27.7109 28.0422 27.6091 28.1173 27.534L33.4344 22.2176Z" fill="#344054"/>
<path d="M60.4091 33.5V21.8636H61.8182V32.25H67.2273V33.5H60.4091ZM71.7955 33.7045C71.2424 33.7045 70.7405 33.6004 70.2898 33.392C69.839 33.1799 69.4811 32.875 69.2159 32.4773C68.9508 32.0758 68.8182 31.5909 68.8182 31.0227C68.8182 30.5227 68.9167 30.1174 69.1136 29.8068C69.3106 29.4924 69.5739 29.2462 69.9034 29.0682C70.233 28.8902 70.5966 28.7576 70.9943 28.6705C71.3958 28.5795 71.7992 28.5076 72.2045 28.4545C72.7348 28.3864 73.1648 28.3352 73.4943 28.3011C73.8277 28.2633 74.0701 28.2008 74.2216 28.1136C74.3769 28.0265 74.4545 27.875 74.4545 27.6591V27.6136C74.4545 27.053 74.3011 26.6174 73.9943 26.3068C73.6913 25.9962 73.2311 25.8409 72.6136 25.8409C71.9735 25.8409 71.4716 25.9811 71.108 26.2614C70.7443 26.5417 70.4886 26.8409 70.3409 27.1591L69.0682 26.7045C69.2955 26.1742 69.5985 25.7614 69.9773 25.4659C70.3598 25.1667 70.7765 24.9583 71.2273 24.8409C71.6818 24.7197 72.1288 24.6591 72.5682 24.6591C72.8485 24.6591 73.1705 24.6932 73.5341 24.7614C73.9015 24.8258 74.2557 24.9602 74.5966 25.1648C74.9413 25.3693 75.2273 25.678 75.4545 26.0909C75.6818 26.5038 75.7955 27.0568 75.7955 27.75V33.5H74.4545V32.3182H74.3864C74.2955 32.5076 74.1439 32.7102 73.9318 32.9261C73.7197 33.142 73.4375 33.3258 73.0852 33.4773C72.733 33.6288 72.303 33.7045 71.7955 33.7045ZM72 32.5C72.5303 32.5 72.9773 32.3958 73.3409 32.1875C73.7083 31.9792 73.9848 31.7102 74.1705 31.3807C74.3598 31.0511 74.4545 30.7045 74.4545 30.3409V29.1136C74.3977 29.1818 74.2727 29.2443 74.0795 29.3011C73.8902 29.3542 73.6705 29.4015 73.4205 29.4432C73.1742 29.4811 72.9337 29.5152 72.6989 29.5455C72.4678 29.572 72.2803 29.5947 72.1364 29.6136C71.7879 29.6591 71.4621 29.733 71.1591 29.8352C70.8598 29.9337 70.6174 30.0833 70.4318 30.2841C70.25 30.4811 70.1591 30.75 70.1591 31.0909C70.1591 31.5568 70.3314 31.9091 70.6761 32.1477C71.0246 32.3826 71.4659 32.5 72 32.5ZM78.4247 33.5V21.8636H79.7656V26.1591H79.8793C79.9777 26.0076 80.1141 25.8144 80.2884 25.5795C80.4664 25.3409 80.7202 25.1288 81.0497 24.9432C81.383 24.7538 81.8338 24.6591 82.402 24.6591C83.1368 24.6591 83.7846 24.8428 84.3452 25.2102C84.9058 25.5777 85.3433 26.0985 85.6577 26.7727C85.9721 27.447 86.1293 28.2424 86.1293 29.1591C86.1293 30.0833 85.9721 30.8845 85.6577 31.5625C85.3433 32.2367 84.9077 32.7595 84.3509 33.1307C83.794 33.4981 83.152 33.6818 82.4247 33.6818C81.8641 33.6818 81.4152 33.589 81.0781 33.4034C80.741 33.214 80.4815 33 80.2997 32.7614C80.1179 32.5189 79.9777 32.3182 79.8793 32.1591H79.7202V33.5H78.4247ZM79.7429 29.1364C79.7429 29.7955 79.8395 30.3769 80.0327 30.8807C80.2259 31.3807 80.508 31.7727 80.8793 32.0568C81.2505 32.3371 81.705 32.4773 82.2429 32.4773C82.8035 32.4773 83.2713 32.3295 83.6463 32.0341C84.0251 31.7348 84.3092 31.3333 84.4986 30.8295C84.6918 30.322 84.7884 29.7576 84.7884 29.1364C84.7884 28.5227 84.6937 27.9697 84.5043 27.4773C84.3187 26.9811 84.0365 26.589 83.6577 26.3011C83.2827 26.0095 82.8111 25.8636 82.2429 25.8636C81.6974 25.8636 81.2391 26.0019 80.8679 26.2784C80.4967 26.5511 80.2164 26.9337 80.027 27.4261C79.8376 27.9148 79.7429 28.4848 79.7429 29.1364ZM91.8395 33.6818C90.9986 33.6818 90.2732 33.4962 89.6634 33.125C89.0573 32.75 88.5895 32.2273 88.2599 31.5568C87.9342 30.8826 87.7713 30.0985 87.7713 29.2045C87.7713 28.3106 87.9342 27.5227 88.2599 26.8409C88.5895 26.1553 89.0478 25.6212 89.6349 25.2386C90.2259 24.8523 90.9152 24.6591 91.7031 24.6591C92.1577 24.6591 92.6065 24.7348 93.0497 24.8864C93.4929 25.0379 93.8963 25.2841 94.2599 25.625C94.6236 25.9621 94.9134 26.4091 95.1293 26.9659C95.3452 27.5227 95.4531 28.2083 95.4531 29.0227V29.5909H88.7259V28.4318H94.0895C94.0895 27.9394 93.991 27.5 93.794 27.1136C93.6009 26.7273 93.3243 26.4223 92.9645 26.1989C92.6084 25.9754 92.188 25.8636 91.7031 25.8636C91.169 25.8636 90.7069 25.9962 90.3168 26.2614C89.9304 26.5227 89.633 26.8636 89.4247 27.2841C89.2164 27.7045 89.1122 28.1553 89.1122 28.6364V29.4091C89.1122 30.0682 89.2259 30.6269 89.4531 31.0852C89.6842 31.5398 90.0043 31.8864 90.4134 32.125C90.8224 32.3598 91.2978 32.4773 91.8395 32.4773C92.1918 32.4773 92.5099 32.428 92.794 32.3295C93.0819 32.2273 93.33 32.0758 93.5384 31.875C93.7467 31.6705 93.9077 31.4167 94.0213 31.1136L95.3168 31.4773C95.1804 31.9167 94.9512 32.303 94.6293 32.6364C94.3073 32.9659 93.9096 33.2235 93.4361 33.4091C92.9626 33.5909 92.4304 33.6818 91.8395 33.6818ZM98.8338 21.8636V33.5H97.4929V21.8636H98.8338ZM109.858 21.8636V33.5H108.449V23.3409H108.381L105.54 25.2273V23.7955L108.449 21.8636H109.858Z" fill="#344054"/>
<path d="M10 3.5V2.5H9V3.5H10ZM128 3.5H129V2.5H128V3.5ZM128 51.5V52.5H129V51.5H128ZM10 51.5H9V52.5H10V51.5ZM10 4.5H128V2.5H10V4.5ZM127 3.5V51.5H129V3.5H127ZM128 50.5H10V52.5H128V50.5ZM11 51.5V3.5H9V51.5H11Z" fill="#98A2B3"/>
<rect x="10" y="3.5" width="16" height="48" fill="#E8178A" fill-opacity="0.24"/>
<rect x="10" y="3.5" width="118" height="8" fill="#E8178A" fill-opacity="0.24"/>
<rect x="10" y="42.5" width="118" height="8" fill="#E8178A" fill-opacity="0.24"/>
<rect x="112" y="3.5" width="16" height="48" fill="#E8178A" fill-opacity="0.24"/>
<path d="M112 68H128" stroke="#E8178A"/>
<rect x="102" y="73" width="36" height="18" rx="3" fill="#E8178A"/>
<path d="M111.754 78.7273V86H110.216V80.1868H110.173L108.508 81.2308V79.8672L110.308 78.7273H111.754ZM116.273 86.0994C115.899 86.0971 115.538 86.0343 115.19 85.9112C114.845 85.7881 114.534 85.5881 114.26 85.3111C113.985 85.0341 113.767 84.6671 113.606 84.2102C113.448 83.7533 113.368 83.1922 113.368 82.527C113.371 81.9162 113.441 81.3705 113.578 80.8899C113.718 80.407 113.916 79.9974 114.175 79.6612C114.435 79.325 114.746 79.0694 115.108 78.8942C115.471 78.7166 115.877 78.6278 116.327 78.6278C116.812 78.6278 117.24 78.7225 117.612 78.9119C117.984 79.099 118.282 79.3535 118.507 79.6754C118.734 79.9974 118.872 80.3584 118.919 80.7585H117.403C117.343 80.5052 117.219 80.3063 117.03 80.1619C116.84 80.0175 116.606 79.9453 116.327 79.9453C115.853 79.9453 115.493 80.1513 115.247 80.5632C115.003 80.9751 114.879 81.535 114.874 82.2429H114.924C115.033 82.0275 115.18 81.844 115.364 81.6925C115.551 81.5386 115.763 81.4214 116 81.3409C116.239 81.258 116.491 81.2166 116.756 81.2166C117.187 81.2166 117.571 81.3184 117.907 81.522C118.243 81.7232 118.508 82.0002 118.702 82.353C118.896 82.7057 118.993 83.1094 118.993 83.5639C118.993 84.0563 118.879 84.4943 118.649 84.8778C118.422 85.2614 118.103 85.562 117.694 85.7798C117.287 85.9953 116.813 86.1018 116.273 86.0994ZM116.266 84.892C116.503 84.892 116.715 84.8352 116.902 84.7216C117.089 84.608 117.236 84.4541 117.342 84.2599C117.449 84.0658 117.502 83.848 117.502 83.6065C117.502 83.3651 117.449 83.1484 117.342 82.9567C117.238 82.7649 117.094 82.6122 116.909 82.4986C116.724 82.3849 116.514 82.3281 116.277 82.3281C116.099 82.3281 115.935 82.3613 115.783 82.4276C115.634 82.4938 115.503 82.5862 115.389 82.7045C115.278 82.8229 115.19 82.9602 115.126 83.1165C115.062 83.2704 115.03 83.4349 115.03 83.6101C115.03 83.8445 115.084 84.0587 115.19 84.2528C115.299 84.447 115.446 84.602 115.631 84.718C115.818 84.834 116.029 84.892 116.266 84.892ZM120.098 88.0455V80.5455H121.589V81.4616H121.657C121.723 81.3149 121.819 81.1657 121.944 81.0142C122.072 80.8603 122.238 80.7325 122.442 80.6307C122.648 80.5265 122.903 80.4744 123.209 80.4744C123.606 80.4744 123.973 80.5786 124.309 80.7869C124.646 80.9929 124.914 81.3042 125.116 81.7209C125.317 82.1352 125.417 82.6548 125.417 83.2798C125.417 83.8883 125.319 84.402 125.123 84.821C124.929 85.2377 124.663 85.5537 124.327 85.7692C123.993 85.9822 123.619 86.0888 123.205 86.0888C122.912 86.0888 122.662 86.0402 122.456 85.9432C122.252 85.8461 122.085 85.7242 121.955 85.5774C121.825 85.4283 121.725 85.2779 121.657 85.1264H121.611V88.0455H120.098ZM121.579 83.2727C121.579 83.5971 121.624 83.88 121.714 84.1214C121.804 84.3629 121.934 84.5511 122.104 84.6861C122.275 84.8187 122.482 84.8849 122.726 84.8849C122.972 84.8849 123.18 84.8175 123.351 84.6825C123.521 84.5452 123.65 84.3558 123.738 84.1143C123.828 83.8705 123.873 83.59 123.873 83.2727C123.873 82.9579 123.829 82.6809 123.741 82.4418C123.654 82.2027 123.525 82.0156 123.354 81.8807C123.184 81.7457 122.974 81.6783 122.726 81.6783C122.479 81.6783 122.271 81.7434 122.101 81.8736C121.933 82.0038 121.804 82.1884 121.714 82.4276C121.624 82.6667 121.579 82.9484 121.579 83.2727ZM127.495 80.5455L128.496 82.4524L129.523 80.5455H131.074L129.494 83.2727L131.117 86H129.572L128.496 84.1143L127.438 86H125.876L127.495 83.2727L125.932 80.5455H127.495Z" fill="white"/>
<line x1="112.5" y1="71.5" x2="112.5" y2="64.5" stroke="#E8178A"/>
<line x1="127.5" y1="71.5" x2="127.5" y2="64.5" stroke="#E8178A"/>
<path d="M144.5 3.5V11.5" stroke="#E8178A"/>
<rect x="149" width="31" height="18" rx="3" fill="#E8178A"/>
<path d="M158.303 13.0994C157.756 13.0994 157.269 13.0107 156.843 12.8331C156.419 12.6532 156.087 12.4081 155.845 12.098C155.604 11.7879 155.483 11.4363 155.483 11.0433C155.483 10.7403 155.552 10.4621 155.689 10.2088C155.829 9.95312 156.018 9.74124 156.257 9.57315C156.496 9.4027 156.764 9.2938 157.06 9.24645V9.19673C156.671 9.11861 156.357 8.9304 156.115 8.6321C155.874 8.33144 155.753 7.98224 155.753 7.58452C155.753 7.2081 155.863 6.87311 156.083 6.57955C156.303 6.28362 156.605 6.05161 156.989 5.88352C157.375 5.71307 157.812 5.62784 158.303 5.62784C158.793 5.62784 159.229 5.71307 159.613 5.88352C159.999 6.05398 160.302 6.28717 160.522 6.5831C160.742 6.87666 160.853 7.21046 160.856 7.58452C160.853 7.98461 160.73 8.33381 160.487 8.6321C160.243 8.9304 159.93 9.11861 159.549 9.19673V9.24645C159.84 9.2938 160.104 9.4027 160.341 9.57315C160.58 9.74124 160.769 9.95312 160.909 10.2088C161.051 10.4621 161.123 10.7403 161.126 11.0433C161.123 11.4363 161.001 11.7879 160.76 12.098C160.518 12.4081 160.185 12.6532 159.759 12.8331C159.335 13.0107 158.849 13.0994 158.303 13.0994ZM158.303 11.9702C158.546 11.9702 158.759 11.9264 158.942 11.8388C159.124 11.7488 159.266 11.6257 159.368 11.4695C159.472 11.3108 159.524 11.1286 159.524 10.9226C159.524 10.7119 159.471 10.526 159.364 10.3651C159.258 10.2017 159.113 10.0739 158.931 9.98153C158.749 9.88684 158.539 9.83949 158.303 9.83949C158.068 9.83949 157.859 9.88684 157.674 9.98153C157.489 10.0739 157.344 10.2017 157.237 10.3651C157.133 10.526 157.081 10.7119 157.081 10.9226C157.081 11.1286 157.132 11.3108 157.234 11.4695C157.335 11.6257 157.479 11.7488 157.663 11.8388C157.848 11.9264 158.061 11.9702 158.303 11.9702ZM158.303 8.72088C158.506 8.72088 158.687 8.67945 158.846 8.59659C159.004 8.51373 159.129 8.39891 159.219 8.25213C159.309 8.10535 159.354 7.93608 159.354 7.74432C159.354 7.55492 159.309 7.3892 159.219 7.24716C159.129 7.10275 159.006 6.99029 158.849 6.9098C158.693 6.82694 158.511 6.78551 158.303 6.78551C158.097 6.78551 157.914 6.82694 157.756 6.9098C157.597 6.99029 157.473 7.10275 157.383 7.24716C157.295 7.3892 157.251 7.55492 157.251 7.74432C157.251 7.93608 157.296 8.10535 157.386 8.25213C157.476 8.39891 157.601 8.51373 157.759 8.59659C157.918 8.67945 158.099 8.72088 158.303 8.72088ZM162.215 15.0455V7.54545H163.706V8.46165H163.774C163.84 8.31487 163.936 8.16572 164.062 8.0142C164.189 7.86032 164.355 7.73248 164.559 7.63068C164.765 7.52652 165.02 7.47443 165.326 7.47443C165.724 7.47443 166.09 7.5786 166.427 7.78693C166.763 7.9929 167.032 8.30421 167.233 8.72088C167.434 9.13518 167.535 9.65483 167.535 10.2798C167.535 10.8883 167.436 11.402 167.24 11.821C167.046 12.2377 166.781 12.5537 166.444 12.7692C166.111 12.9822 165.737 13.0888 165.322 13.0888C165.029 13.0888 164.779 13.0402 164.573 12.9432C164.369 12.8461 164.202 12.7242 164.072 12.5774C163.942 12.4283 163.843 12.2779 163.774 12.1264H163.728V15.0455H162.215ZM163.696 10.2727C163.696 10.5971 163.741 10.88 163.831 11.1214C163.921 11.3629 164.051 11.5511 164.221 11.6861C164.392 11.8187 164.599 11.8849 164.843 11.8849C165.089 11.8849 165.297 11.8175 165.468 11.6825C165.638 11.5452 165.767 11.3558 165.855 11.1143C165.945 10.8705 165.99 10.59 165.99 10.2727C165.99 9.95786 165.946 9.68087 165.858 9.44176C165.771 9.20265 165.642 9.01562 165.471 8.88068C165.301 8.74574 165.091 8.67827 164.843 8.67827C164.597 8.67827 164.388 8.74337 164.218 8.87358C164.05 9.00379 163.921 9.18845 163.831 9.42756C163.741 9.66667 163.696 9.94839 163.696 10.2727ZM169.612 7.54545L170.613 9.45241L171.64 7.54545H173.192L171.611 10.2727L173.234 13H171.689L170.613 11.1143L169.555 13H167.993L169.612 10.2727L168.05 7.54545H169.612Z" fill="white"/>
<line x1="141" y1="4" x2="148" y2="4" stroke="#E8178A"/>
<line x1="141" y1="11" x2="148" y2="11" stroke="#E8178A"/>
<path d="M144.5 42.5V50.5" stroke="#E8178A"/>
<rect x="149" y="39" width="31" height="18" rx="3" fill="#E8178A"/>
<path d="M158.303 52.0994C157.756 52.0994 157.269 52.0107 156.843 51.8331C156.419 51.6532 156.087 51.4081 155.845 51.098C155.604 50.7879 155.483 50.4363 155.483 50.0433C155.483 49.7403 155.552 49.4621 155.689 49.2088C155.829 48.9531 156.018 48.7412 156.257 48.5732C156.496 48.4027 156.764 48.2938 157.06 48.2464V48.1967C156.671 48.1186 156.357 47.9304 156.115 47.6321C155.874 47.3314 155.753 46.9822 155.753 46.5845C155.753 46.2081 155.863 45.8731 156.083 45.5795C156.303 45.2836 156.605 45.0516 156.989 44.8835C157.375 44.7131 157.812 44.6278 158.303 44.6278C158.793 44.6278 159.229 44.7131 159.613 44.8835C159.999 45.054 160.302 45.2872 160.522 45.5831C160.742 45.8767 160.853 46.2105 160.856 46.5845C160.853 46.9846 160.73 47.3338 160.487 47.6321C160.243 47.9304 159.93 48.1186 159.549 48.1967V48.2464C159.84 48.2938 160.104 48.4027 160.341 48.5732C160.58 48.7412 160.769 48.9531 160.909 49.2088C161.051 49.4621 161.123 49.7403 161.126 50.0433C161.123 50.4363 161.001 50.7879 160.76 51.098C160.518 51.4081 160.185 51.6532 159.759 51.8331C159.335 52.0107 158.849 52.0994 158.303 52.0994ZM158.303 50.9702C158.546 50.9702 158.759 50.9264 158.942 50.8388C159.124 50.7488 159.266 50.6257 159.368 50.4695C159.472 50.3108 159.524 50.1286 159.524 49.9226C159.524 49.7119 159.471 49.526 159.364 49.3651C159.258 49.2017 159.113 49.0739 158.931 48.9815C158.749 48.8868 158.539 48.8395 158.303 48.8395C158.068 48.8395 157.859 48.8868 157.674 48.9815C157.489 49.0739 157.344 49.2017 157.237 49.3651C157.133 49.526 157.081 49.7119 157.081 49.9226C157.081 50.1286 157.132 50.3108 157.234 50.4695C157.335 50.6257 157.479 50.7488 157.663 50.8388C157.848 50.9264 158.061 50.9702 158.303 50.9702ZM158.303 47.7209C158.506 47.7209 158.687 47.6795 158.846 47.5966C159.004 47.5137 159.129 47.3989 159.219 47.2521C159.309 47.1054 159.354 46.9361 159.354 46.7443C159.354 46.5549 159.309 46.3892 159.219 46.2472C159.129 46.1027 159.006 45.9903 158.849 45.9098C158.693 45.8269 158.511 45.7855 158.303 45.7855C158.097 45.7855 157.914 45.8269 157.756 45.9098C157.597 45.9903 157.473 46.1027 157.383 46.2472C157.295 46.3892 157.251 46.5549 157.251 46.7443C157.251 46.9361 157.296 47.1054 157.386 47.2521C157.476 47.3989 157.601 47.5137 157.759 47.5966C157.918 47.6795 158.099 47.7209 158.303 47.7209ZM162.215 54.0455V46.5455H163.706V47.4616H163.774C163.84 47.3149 163.936 47.1657 164.062 47.0142C164.189 46.8603 164.355 46.7325 164.559 46.6307C164.765 46.5265 165.02 46.4744 165.326 46.4744C165.724 46.4744 166.09 46.5786 166.427 46.7869C166.763 46.9929 167.032 47.3042 167.233 47.7209C167.434 48.1352 167.535 48.6548 167.535 49.2798C167.535 49.8883 167.436 50.402 167.24 50.821C167.046 51.2377 166.781 51.5537 166.444 51.7692C166.111 51.9822 165.737 52.0888 165.322 52.0888C165.029 52.0888 164.779 52.0402 164.573 51.9432C164.369 51.8461 164.202 51.7242 164.072 51.5774C163.942 51.4283 163.843 51.2779 163.774 51.1264H163.728V54.0455H162.215ZM163.696 49.2727C163.696 49.5971 163.741 49.88 163.831 50.1214C163.921 50.3629 164.051 50.5511 164.221 50.6861C164.392 50.8187 164.599 50.8849 164.843 50.8849C165.089 50.8849 165.297 50.8175 165.468 50.6825C165.638 50.5452 165.767 50.3558 165.855 50.1143C165.945 49.8705 165.99 49.59 165.99 49.2727C165.99 48.9579 165.946 48.6809 165.858 48.4418C165.771 48.2027 165.642 48.0156 165.471 47.8807C165.301 47.7457 165.091 47.6783 164.843 47.6783C164.597 47.6783 164.388 47.7434 164.218 47.8736C164.05 48.0038 163.921 48.1884 163.831 48.4276C163.741 48.6667 163.696 48.9484 163.696 49.2727ZM169.612 46.5455L170.613 48.4524L171.64 46.5455H173.192L171.611 49.2727L173.234 52H171.689L170.613 50.1143L169.555 52H167.993L169.612 49.2727L168.05 46.5455H169.612Z" fill="white"/>
<line x1="141" y1="43" x2="148" y2="43" stroke="#E8178A"/>
<line x1="141" y1="50" x2="148" y2="50" stroke="#E8178A"/>
<path d="M10 68H26" stroke="#E8178A"/>
<rect y="73" width="36" height="18" rx="3" fill="#E8178A"/>
<path d="M9.75355 78.7273V86H8.21591V80.1868H8.1733L6.50781 81.2308V79.8672L8.30824 78.7273H9.75355ZM14.2733 86.0994C13.8992 86.0971 13.5382 86.0343 13.1902 85.9112C12.8445 85.7881 12.5344 85.5881 12.2598 85.3111C11.9851 85.0341 11.7673 84.6671 11.6064 84.2102C11.4477 83.7533 11.3684 83.1922 11.3684 82.527C11.3708 81.9162 11.4406 81.3705 11.5779 80.8899C11.7176 80.407 11.9165 79.9974 12.1745 79.6612C12.435 79.325 12.7463 79.0694 13.1085 78.8942C13.4707 78.7166 13.8767 78.6278 14.3265 78.6278C14.8118 78.6278 15.2404 78.7225 15.612 78.9119C15.9837 79.099 16.282 79.3535 16.5069 79.6754C16.7342 79.9974 16.8715 80.3584 16.9189 80.7585H15.4025C15.3433 80.5052 15.219 80.3063 15.0297 80.1619C14.8403 80.0175 14.6059 79.9453 14.3265 79.9453C13.853 79.9453 13.4932 80.1513 13.247 80.5632C13.0031 80.9751 12.8788 81.535 12.8741 82.2429H12.9238C13.0327 82.0275 13.1795 81.844 13.3642 81.6925C13.5512 81.5386 13.7631 81.4214 13.9998 81.3409C14.2389 81.258 14.4911 81.2166 14.7562 81.2166C15.1871 81.2166 15.5706 81.3184 15.9068 81.522C16.243 81.7232 16.5081 82.0002 16.7022 82.353C16.8964 82.7057 16.9934 83.1094 16.9934 83.5639C16.9934 84.0563 16.8786 84.4943 16.649 84.8778C16.4217 85.2614 16.1033 85.562 15.6937 85.7798C15.2865 85.9953 14.813 86.1018 14.2733 86.0994ZM14.2662 84.892C14.5029 84.892 14.7148 84.8352 14.9018 84.7216C15.0888 84.608 15.2356 84.4541 15.3422 84.2599C15.4487 84.0658 15.502 83.848 15.502 83.6065C15.502 83.3651 15.4487 83.1484 15.3422 82.9567C15.238 82.7649 15.0936 82.6122 14.9089 82.4986C14.7243 82.3849 14.5136 82.3281 14.2768 82.3281C14.0993 82.3281 13.9347 82.3613 13.7832 82.4276C13.6341 82.4938 13.5027 82.5862 13.389 82.7045C13.2778 82.8229 13.1902 82.9602 13.1262 83.1165C13.0623 83.2704 13.0304 83.4349 13.0304 83.6101C13.0304 83.8445 13.0836 84.0587 13.1902 84.2528C13.2991 84.447 13.4458 84.602 13.6305 84.718C13.8175 84.834 14.0294 84.892 14.2662 84.892ZM18.0978 88.0455V80.5455H19.5893V81.4616H19.6568C19.7231 81.3149 19.819 81.1657 19.9444 81.0142C20.0723 80.8603 20.238 80.7325 20.4416 80.6307C20.6475 80.5265 20.9032 80.4744 21.2086 80.4744C21.6064 80.4744 21.9733 80.5786 22.3095 80.7869C22.6457 80.9929 22.9144 81.3042 23.1156 81.7209C23.3168 82.1352 23.4174 82.6548 23.4174 83.2798C23.4174 83.8883 23.3192 84.402 23.1227 84.821C22.9286 85.2377 22.6634 85.5537 22.3272 85.7692C21.9934 85.9822 21.6194 86.0888 21.2051 86.0888C20.9115 86.0888 20.6618 86.0402 20.4558 85.9432C20.2522 85.8461 20.0853 85.7242 19.9551 85.5774C19.8249 85.4283 19.7254 85.2779 19.6568 85.1264H19.6106V88.0455H18.0978ZM19.5787 83.2727C19.5787 83.5971 19.6236 83.88 19.7136 84.1214C19.8036 84.3629 19.9338 84.5511 20.1042 84.6861C20.2747 84.8187 20.4818 84.8849 20.7257 84.8849C20.9719 84.8849 21.1802 84.8175 21.3507 84.6825C21.5211 84.5452 21.6502 84.3558 21.7377 84.1143C21.8277 83.8705 21.8727 83.59 21.8727 83.2727C21.8727 82.9579 21.8289 82.6809 21.7413 82.4418C21.6537 82.2027 21.5247 82.0156 21.3542 81.8807C21.1838 81.7457 20.9743 81.6783 20.7257 81.6783C20.4795 81.6783 20.2711 81.7434 20.1007 81.8736C19.9326 82.0038 19.8036 82.1884 19.7136 82.4276C19.6236 82.6667 19.5787 82.9484 19.5787 83.2727ZM25.4949 80.5455L26.4963 82.4524L27.5225 80.5455H29.0744L27.4941 83.2727L29.117 86H27.5723L26.4963 84.1143L25.438 86H23.8755L25.4949 83.2727L23.9324 80.5455H25.4949Z" fill="white"/>
<line x1="10.5" y1="71.5" x2="10.5" y2="64.5" stroke="#E8178A"/>
<line x1="25.5" y1="71.5" x2="25.5" y2="64.5" stroke="#E8178A"/>
</svg>
