<svg width="425" height="258" viewBox="0 0 425 258" fill="none" xmlns="http://www.w3.org/2000/svg">
<g filter="url(#filter0_d_5019_1627)">
<rect width="355" height="176" transform="translate(32 41)" fill="white"/>
<rect x="32" y="41" width="6" height="176" fill="#0A8217"/>
<path d="M74.7701 66.9685C74.843 67.0412 74.9008 67.1275 74.9402 67.2226C74.9797 67.3176 75 67.4196 75 67.5225C75 67.6254 74.9797 67.7273 74.9402 67.8224C74.9008 67.9175 74.843 68.0038 74.7701 68.0765L63.815 79.0316C63.7424 79.1044 63.656 79.1623 63.5609 79.2017C63.4659 79.2412 63.364 79.2615 63.261 79.2615C63.1581 79.2615 63.0562 79.2412 62.9611 79.2017C62.8661 79.1623 62.7797 79.1044 62.707 79.0316L57.2295 73.554C57.0825 73.4071 57 73.2078 57 73C57 72.7922 57.0825 72.5929 57.2295 72.446C57.3764 72.2991 57.5757 72.2165 57.7835 72.2165C57.9913 72.2165 58.1906 72.2991 58.3375 72.446L63.261 77.3711L73.6621 66.9685C73.7348 66.8956 73.8211 66.8378 73.9162 66.7983C74.0113 66.7589 74.1132 66.7386 74.2161 66.7386C74.319 66.7386 74.4209 66.7589 74.516 66.7983C74.6111 66.8378 74.6974 66.8956 74.7701 66.9685Z" fill="#0A8217"/>
<path d="M93.3239 70.7102C93.2784 70.2519 93.0833 69.8958 92.7386 69.642C92.3939 69.3883 91.9261 69.2614 91.3352 69.2614C90.9337 69.2614 90.5947 69.3182 90.3182 69.4318C90.0417 69.5417 89.8295 69.6951 89.6818 69.892C89.5379 70.089 89.4659 70.3125 89.4659 70.5625C89.4583 70.7708 89.5019 70.9527 89.5966 71.108C89.6951 71.2633 89.8295 71.3977 90 71.5114C90.1705 71.6212 90.3674 71.7178 90.5909 71.8011C90.8144 71.8807 91.053 71.9489 91.3068 72.0057L92.3523 72.2557C92.8598 72.3693 93.3258 72.5208 93.75 72.7102C94.1742 72.8996 94.5417 73.1326 94.8523 73.4091C95.1629 73.6856 95.4034 74.0114 95.5739 74.3864C95.7481 74.7614 95.8371 75.1913 95.8409 75.6761C95.8371 76.3883 95.6553 77.0057 95.2955 77.5284C94.9394 78.0473 94.4242 78.4508 93.75 78.7386C93.0795 79.0227 92.2708 79.1648 91.3239 79.1648C90.3845 79.1648 89.5663 79.0208 88.8693 78.733C88.1761 78.4451 87.6345 78.0189 87.2443 77.4545C86.858 76.8864 86.6553 76.1837 86.6364 75.3466H89.017C89.0436 75.7367 89.1553 76.0625 89.3523 76.3239C89.553 76.5814 89.8201 76.7765 90.1534 76.9091C90.4905 77.0379 90.8712 77.1023 91.2955 77.1023C91.7121 77.1023 92.0739 77.0417 92.3807 76.9205C92.6913 76.7992 92.9318 76.6307 93.1023 76.4148C93.2727 76.1989 93.358 75.9508 93.358 75.6705C93.358 75.4091 93.2803 75.1894 93.125 75.0114C92.9735 74.8333 92.75 74.6818 92.4545 74.5568C92.1629 74.4318 91.8049 74.3182 91.3807 74.2159L90.1136 73.8977C89.1326 73.6591 88.358 73.286 87.7898 72.7784C87.2216 72.2708 86.9394 71.5871 86.9432 70.7273C86.9394 70.0227 87.1269 69.4072 87.5057 68.8807C87.8883 68.3542 88.4129 67.9432 89.0795 67.6477C89.7462 67.3523 90.5038 67.2045 91.3523 67.2045C92.2159 67.2045 92.9697 67.3523 93.6136 67.6477C94.2614 67.9432 94.7652 68.3542 95.125 68.8807C95.4848 69.4072 95.6705 70.017 95.6818 70.7102H93.3239ZM103.047 75.2841V70.2727H105.467V79H103.143V77.4148H103.053C102.856 77.9261 102.528 78.3371 102.07 78.6477C101.615 78.9583 101.06 79.1136 100.405 79.1136C99.8215 79.1136 99.3082 78.9811 98.8651 78.7159C98.4219 78.4508 98.0753 78.0739 97.8253 77.5852C97.5791 77.0966 97.4541 76.5114 97.4503 75.8295V70.2727H99.8707V75.3977C99.8745 75.9129 100.013 76.3201 100.286 76.6193C100.558 76.9186 100.924 77.0682 101.382 77.0682C101.674 77.0682 101.946 77.0019 102.2 76.8693C102.454 76.733 102.659 76.5322 102.814 76.267C102.973 76.0019 103.051 75.6742 103.047 75.2841ZM111.347 79.1705C110.453 79.1705 109.684 78.9811 109.04 78.6023C108.4 78.2197 107.907 77.6894 107.562 77.0114C107.222 76.3333 107.051 75.553 107.051 74.6705C107.051 73.7765 107.223 72.9924 107.568 72.3182C107.917 71.6402 108.411 71.1117 109.051 70.733C109.691 70.3504 110.453 70.1591 111.335 70.1591C112.097 70.1591 112.763 70.2973 113.335 70.5739C113.907 70.8504 114.36 71.2386 114.693 71.7386C115.027 72.2386 115.21 72.8258 115.244 73.5H112.96C112.896 73.0644 112.725 72.714 112.449 72.4489C112.176 72.1799 111.818 72.0455 111.375 72.0455C111 72.0455 110.672 72.1477 110.392 72.3523C110.116 72.553 109.9 72.8466 109.744 73.233C109.589 73.6193 109.511 74.0871 109.511 74.6364C109.511 75.1932 109.587 75.6667 109.739 76.0568C109.894 76.447 110.112 76.7443 110.392 76.9489C110.672 77.1534 111 77.2557 111.375 77.2557C111.652 77.2557 111.9 77.1989 112.119 77.0852C112.343 76.9716 112.527 76.8068 112.67 76.5909C112.818 76.3712 112.915 76.108 112.96 75.8011H115.244C115.206 76.4678 115.025 77.0549 114.699 77.5625C114.377 78.0663 113.932 78.4602 113.364 78.7443C112.795 79.0284 112.123 79.1705 111.347 79.1705ZM120.737 79.1705C119.843 79.1705 119.074 78.9811 118.43 78.6023C117.79 78.2197 117.298 77.6894 116.953 77.0114C116.612 76.3333 116.442 75.553 116.442 74.6705C116.442 73.7765 116.614 72.9924 116.959 72.3182C117.307 71.6402 117.802 71.1117 118.442 70.733C119.082 70.3504 119.843 70.1591 120.726 70.1591C121.487 70.1591 122.154 70.2973 122.726 70.5739C123.298 70.8504 123.75 71.2386 124.084 71.7386C124.417 72.2386 124.601 72.8258 124.635 73.5H122.351C122.286 73.0644 122.116 72.714 121.839 72.4489C121.567 72.1799 121.209 72.0455 120.766 72.0455C120.391 72.0455 120.063 72.1477 119.783 72.3523C119.506 72.553 119.29 72.8466 119.135 73.233C118.98 73.6193 118.902 74.0871 118.902 74.6364C118.902 75.1932 118.978 75.6667 119.129 76.0568C119.285 76.447 119.502 76.7443 119.783 76.9489C120.063 77.1534 120.391 77.2557 120.766 77.2557C121.042 77.2557 121.29 77.1989 121.51 77.0852C121.733 76.9716 121.917 76.8068 122.061 76.5909C122.209 76.3712 122.305 76.108 122.351 75.8011H124.635C124.597 76.4678 124.415 77.0549 124.089 77.5625C123.768 78.0663 123.322 78.4602 122.754 78.7443C122.186 79.0284 121.514 79.1705 120.737 79.1705ZM130.162 79.1705C129.264 79.1705 128.491 78.9886 127.844 78.625C127.2 78.2576 126.704 77.7386 126.355 77.0682C126.007 76.3939 125.832 75.5966 125.832 74.6761C125.832 73.7784 126.007 72.9905 126.355 72.3125C126.704 71.6345 127.194 71.1061 127.827 70.7273C128.463 70.3485 129.209 70.1591 130.065 70.1591C130.641 70.1591 131.177 70.2519 131.673 70.4375C132.173 70.6193 132.609 70.8939 132.98 71.2614C133.355 71.6288 133.647 72.0909 133.855 72.6477C134.063 73.2008 134.168 73.8485 134.168 74.5909V75.2557H126.798V73.7557H131.889C131.889 73.4072 131.813 73.0985 131.662 72.8295C131.51 72.5606 131.3 72.3504 131.031 72.1989C130.766 72.0436 130.457 71.9659 130.105 71.9659C129.738 71.9659 129.412 72.0511 129.128 72.2216C128.848 72.3883 128.628 72.6136 128.469 72.8977C128.31 73.178 128.228 73.4905 128.224 73.8352V75.2614C128.224 75.6932 128.304 76.0663 128.463 76.3807C128.626 76.6951 128.855 76.9375 129.151 77.108C129.446 77.2784 129.796 77.3636 130.202 77.3636C130.471 77.3636 130.717 77.3258 130.94 77.25C131.164 77.1742 131.355 77.0606 131.514 76.9091C131.673 76.7576 131.795 76.572 131.878 76.3523L134.116 76.5C134.003 77.0379 133.77 77.5076 133.418 77.9091C133.069 78.3068 132.618 78.6174 132.065 78.8409C131.516 79.0606 130.882 79.1705 130.162 79.1705ZM143.009 72.7614L140.793 72.8977C140.755 72.7083 140.673 72.5379 140.548 72.3864C140.423 72.2311 140.259 72.108 140.054 72.017C139.853 71.9223 139.613 71.875 139.332 71.875C138.957 71.875 138.641 71.9545 138.384 72.1136C138.126 72.2689 137.997 72.4773 137.997 72.7386C137.997 72.947 138.08 73.1231 138.247 73.267C138.414 73.411 138.7 73.5265 139.105 73.6136L140.685 73.9318C141.533 74.1061 142.166 74.3864 142.582 74.7727C142.999 75.1591 143.207 75.6667 143.207 76.2955C143.207 76.8674 143.039 77.3693 142.702 77.8011C142.368 78.233 141.91 78.5701 141.327 78.8125C140.747 79.0511 140.079 79.1705 139.321 79.1705C138.166 79.1705 137.245 78.9299 136.56 78.4489C135.878 77.964 135.478 77.3049 135.361 76.4716L137.741 76.3466C137.813 76.6989 137.988 76.9678 138.264 77.1534C138.541 77.3352 138.895 77.4261 139.327 77.4261C139.751 77.4261 140.092 77.3447 140.349 77.1818C140.611 77.0152 140.743 76.8011 140.747 76.5398C140.743 76.3201 140.651 76.1402 140.469 76C140.287 75.8561 140.007 75.7462 139.628 75.6705L138.116 75.3693C137.264 75.1989 136.63 74.9034 136.213 74.483C135.8 74.0625 135.594 73.5265 135.594 72.875C135.594 72.3144 135.745 71.8314 136.048 71.4261C136.355 71.0208 136.785 70.7083 137.338 70.4886C137.895 70.2689 138.546 70.1591 139.293 70.1591C140.395 70.1591 141.262 70.392 141.895 70.858C142.531 71.3239 142.902 71.9583 143.009 72.7614ZM151.993 72.7614L149.777 72.8977C149.739 72.7083 149.658 72.5379 149.533 72.3864C149.408 72.2311 149.243 72.108 149.038 72.017C148.838 71.9223 148.597 71.875 148.317 71.875C147.942 71.875 147.625 71.9545 147.368 72.1136C147.11 72.2689 146.982 72.4773 146.982 72.7386C146.982 72.947 147.065 73.1231 147.232 73.267C147.398 73.411 147.684 73.5265 148.089 73.6136L149.669 73.9318C150.518 74.1061 151.15 74.3864 151.567 74.7727C151.983 75.1591 152.192 75.6667 152.192 76.2955C152.192 76.8674 152.023 77.3693 151.686 77.8011C151.353 78.233 150.894 78.5701 150.311 78.8125C149.732 79.0511 149.063 79.1705 148.305 79.1705C147.15 79.1705 146.23 78.9299 145.544 78.4489C144.862 77.964 144.463 77.3049 144.345 76.4716L146.726 76.3466C146.798 76.6989 146.972 76.9678 147.249 77.1534C147.525 77.3352 147.879 77.4261 148.311 77.4261C148.735 77.4261 149.076 77.3447 149.334 77.1818C149.595 77.0152 149.728 76.8011 149.732 76.5398C149.728 76.3201 149.635 76.1402 149.453 76C149.271 75.8561 148.991 75.7462 148.612 75.6705L147.101 75.3693C146.249 75.1989 145.614 74.9034 145.197 74.483C144.785 74.0625 144.578 73.5265 144.578 72.875C144.578 72.3144 144.73 71.8314 145.033 71.4261C145.339 71.0208 145.769 70.7083 146.322 70.4886C146.879 70.2689 147.531 70.1591 148.277 70.1591C149.379 70.1591 150.247 70.392 150.879 70.858C151.516 71.3239 151.887 71.9583 151.993 72.7614Z" fill="#0A8217"/>
<path fill-rule="evenodd" clip-rule="evenodd" d="M352.614 66.6139C352.755 66.4732 352.945 66.3942 353.144 66.3942C353.343 66.3942 353.534 66.4732 353.675 66.6139L358.978 71.9172L364.281 66.6139C364.422 66.4732 364.613 66.3942 364.812 66.3942C365.01 66.3942 365.201 66.4732 365.342 66.6139C365.483 66.7545 365.562 66.9453 365.562 67.1442C365.562 67.3431 365.483 67.5339 365.342 67.6745L360.039 72.9778L365.342 78.2811C365.483 78.4218 365.562 78.6126 365.562 78.8115C365.562 79.0104 365.483 79.2012 365.342 79.3418C365.201 79.4825 365.01 79.5615 364.812 79.5615C364.613 79.5615 364.422 79.4825 364.281 79.3418L358.978 74.0385L353.675 79.3418C353.534 79.4825 353.343 79.5615 353.144 79.5615C352.945 79.5615 352.755 79.4825 352.614 79.3418C352.473 79.2012 352.394 79.0104 352.394 78.8115C352.394 78.6126 352.473 78.4218 352.614 78.2811L357.917 72.9778L352.614 67.6745C352.473 67.5339 352.394 67.3431 352.394 67.1442C352.394 66.9453 352.473 66.7545 352.614 66.6139Z" fill="#344054"/>
<path d="M54.7727 108.614V107.364H63.5V108.614H59.8409V119H58.4318V108.614H54.7727ZM66.8338 113.75V119H65.4929V107.364H66.8338V111.636H66.9474C67.152 111.186 67.4588 110.828 67.8679 110.562C68.2808 110.294 68.83 110.159 69.5156 110.159C70.1103 110.159 70.6312 110.278 71.0781 110.517C71.5251 110.752 71.8717 111.114 72.1179 111.602C72.3679 112.087 72.4929 112.705 72.4929 113.455V119H71.152V113.545C71.152 112.852 70.9721 112.316 70.6122 111.938C70.2562 111.555 69.7618 111.364 69.1293 111.364C68.6899 111.364 68.2959 111.456 67.9474 111.642C67.6027 111.828 67.33 112.098 67.1293 112.455C66.9323 112.811 66.8338 113.242 66.8338 113.75ZM74.946 119V110.273H76.2869V119H74.946ZM75.6278 108.818C75.3665 108.818 75.1411 108.729 74.9517 108.551C74.7661 108.373 74.6733 108.159 74.6733 107.909C74.6733 107.659 74.7661 107.445 74.9517 107.267C75.1411 107.089 75.3665 107 75.6278 107C75.8892 107 76.1127 107.089 76.2983 107.267C76.4877 107.445 76.5824 107.659 76.5824 107.909C76.5824 108.159 76.4877 108.373 76.2983 108.551C76.1127 108.729 75.8892 108.818 75.6278 108.818ZM84.9247 112.227L83.7202 112.568C83.6444 112.367 83.5327 112.172 83.3849 111.983C83.241 111.79 83.044 111.631 82.794 111.506C82.544 111.381 82.224 111.318 81.8338 111.318C81.2997 111.318 80.8546 111.441 80.4986 111.688C80.1463 111.93 79.9702 112.239 79.9702 112.614C79.9702 112.947 80.0914 113.21 80.3338 113.403C80.5762 113.597 80.955 113.758 81.4702 113.886L82.7656 114.205C83.5459 114.394 84.1274 114.684 84.5099 115.074C84.8925 115.46 85.0838 115.958 85.0838 116.568C85.0838 117.068 84.9399 117.515 84.652 117.909C84.3679 118.303 83.9702 118.614 83.4588 118.841C82.9474 119.068 82.3527 119.182 81.6747 119.182C80.7846 119.182 80.0478 118.989 79.4645 118.602C78.8812 118.216 78.5118 117.652 78.3565 116.909L79.6293 116.591C79.7505 117.061 79.9796 117.413 80.3168 117.648C80.6577 117.883 81.1027 118 81.652 118C82.277 118 82.7732 117.867 83.1406 117.602C83.5118 117.333 83.6974 117.011 83.6974 116.636C83.6974 116.333 83.5914 116.08 83.3793 115.875C83.1671 115.667 82.8414 115.511 82.402 115.409L80.9474 115.068C80.1482 114.879 79.5611 114.585 79.1861 114.188C78.8149 113.786 78.6293 113.284 78.6293 112.682C78.6293 112.189 78.7675 111.754 79.044 111.375C79.3243 110.996 79.705 110.699 80.1861 110.483C80.6709 110.267 81.2202 110.159 81.8338 110.159C82.6974 110.159 83.3755 110.348 83.8679 110.727C84.3641 111.106 84.7164 111.606 84.9247 112.227ZM91.6023 119V110.273H92.9432V119H91.6023ZM92.2841 108.818C92.0227 108.818 91.7973 108.729 91.608 108.551C91.4223 108.373 91.3295 108.159 91.3295 107.909C91.3295 107.659 91.4223 107.445 91.608 107.267C91.7973 107.089 92.0227 107 92.2841 107C92.5455 107 92.7689 107.089 92.9545 107.267C93.1439 107.445 93.2386 107.659 93.2386 107.909C93.2386 108.159 93.1439 108.373 92.9545 108.551C92.7689 108.729 92.5455 108.818 92.2841 108.818ZM101.581 112.227L100.376 112.568C100.301 112.367 100.189 112.172 100.041 111.983C99.8973 111.79 99.7003 111.631 99.4503 111.506C99.2003 111.381 98.8802 111.318 98.4901 111.318C97.956 111.318 97.5109 111.441 97.1548 111.688C96.8026 111.93 96.6264 112.239 96.6264 112.614C96.6264 112.947 96.7476 113.21 96.9901 113.403C97.2325 113.597 97.6113 113.758 98.1264 113.886L99.4219 114.205C100.202 114.394 100.784 114.684 101.166 115.074C101.549 115.46 101.74 115.958 101.74 116.568C101.74 117.068 101.596 117.515 101.308 117.909C101.024 118.303 100.626 118.614 100.115 118.841C99.6037 119.068 99.009 119.182 98.331 119.182C97.4408 119.182 96.7041 118.989 96.1207 118.602C95.5374 118.216 95.1681 117.652 95.0128 116.909L96.2855 116.591C96.4067 117.061 96.6359 117.413 96.973 117.648C97.3139 117.883 97.759 118 98.3082 118C98.9332 118 99.4295 117.867 99.7969 117.602C100.168 117.333 100.354 117.011 100.354 116.636C100.354 116.333 100.248 116.08 100.036 115.875C99.8234 115.667 99.4976 115.511 99.0582 115.409L97.6037 115.068C96.8045 114.879 96.2173 114.585 95.8423 114.188C95.4711 113.786 95.2855 113.284 95.2855 112.682C95.2855 112.189 95.4238 111.754 95.7003 111.375C95.9806 110.996 96.3613 110.699 96.8423 110.483C97.3272 110.267 97.8764 110.159 98.4901 110.159C99.3537 110.159 100.032 110.348 100.524 110.727C101.02 111.106 101.373 111.606 101.581 112.227ZM110.827 119.205C110.274 119.205 109.772 119.1 109.321 118.892C108.87 118.68 108.512 118.375 108.247 117.977C107.982 117.576 107.849 117.091 107.849 116.523C107.849 116.023 107.948 115.617 108.145 115.307C108.342 114.992 108.605 114.746 108.935 114.568C109.264 114.39 109.628 114.258 110.026 114.17C110.427 114.08 110.83 114.008 111.236 113.955C111.766 113.886 112.196 113.835 112.526 113.801C112.859 113.763 113.101 113.701 113.253 113.614C113.408 113.527 113.486 113.375 113.486 113.159V113.114C113.486 112.553 113.332 112.117 113.026 111.807C112.723 111.496 112.262 111.341 111.645 111.341C111.005 111.341 110.503 111.481 110.139 111.761C109.776 112.042 109.52 112.341 109.372 112.659L108.099 112.205C108.327 111.674 108.63 111.261 109.009 110.966C109.391 110.667 109.808 110.458 110.259 110.341C110.713 110.22 111.16 110.159 111.599 110.159C111.88 110.159 112.202 110.193 112.565 110.261C112.933 110.326 113.287 110.46 113.628 110.665C113.973 110.869 114.259 111.178 114.486 111.591C114.713 112.004 114.827 112.557 114.827 113.25V119H113.486V117.818H113.418C113.327 118.008 113.175 118.21 112.963 118.426C112.751 118.642 112.469 118.826 112.116 118.977C111.764 119.129 111.334 119.205 110.827 119.205ZM111.031 118C111.562 118 112.009 117.896 112.372 117.688C112.74 117.479 113.016 117.21 113.202 116.881C113.391 116.551 113.486 116.205 113.486 115.841V114.614C113.429 114.682 113.304 114.744 113.111 114.801C112.921 114.854 112.702 114.902 112.452 114.943C112.205 114.981 111.965 115.015 111.73 115.045C111.499 115.072 111.312 115.095 111.168 115.114C110.819 115.159 110.493 115.233 110.19 115.335C109.891 115.434 109.649 115.583 109.463 115.784C109.281 115.981 109.19 116.25 109.19 116.591C109.19 117.057 109.363 117.409 109.707 117.648C110.056 117.883 110.497 118 111.031 118ZM127.956 112.227L126.751 112.568C126.676 112.367 126.564 112.172 126.416 111.983C126.272 111.79 126.075 111.631 125.825 111.506C125.575 111.381 125.255 111.318 124.865 111.318C124.331 111.318 123.886 111.441 123.53 111.688C123.178 111.93 123.001 112.239 123.001 112.614C123.001 112.947 123.123 113.21 123.365 113.403C123.607 113.597 123.986 113.758 124.501 113.886L125.797 114.205C126.577 114.394 127.159 114.684 127.541 115.074C127.924 115.46 128.115 115.958 128.115 116.568C128.115 117.068 127.971 117.515 127.683 117.909C127.399 118.303 127.001 118.614 126.49 118.841C125.979 119.068 125.384 119.182 124.706 119.182C123.816 119.182 123.079 118.989 122.496 118.602C121.912 118.216 121.543 117.652 121.388 116.909L122.661 116.591C122.782 117.061 123.011 117.413 123.348 117.648C123.689 117.883 124.134 118 124.683 118C125.308 118 125.804 117.867 126.172 117.602C126.543 117.333 126.729 117.011 126.729 116.636C126.729 116.333 126.623 116.08 126.411 115.875C126.198 115.667 125.873 115.511 125.433 115.409L123.979 115.068C123.179 114.879 122.592 114.585 122.217 114.188C121.846 113.786 121.661 113.284 121.661 112.682C121.661 112.189 121.799 111.754 122.075 111.375C122.356 110.996 122.736 110.699 123.217 110.483C123.702 110.267 124.251 110.159 124.865 110.159C125.729 110.159 126.407 110.348 126.899 110.727C127.395 111.106 127.748 111.606 127.956 112.227ZM135.634 115.432V110.273H136.974V119H135.634V117.523H135.543C135.338 117.966 135.02 118.343 134.588 118.653C134.156 118.96 133.611 119.114 132.952 119.114C132.406 119.114 131.921 118.994 131.497 118.756C131.073 118.513 130.74 118.15 130.497 117.665C130.255 117.176 130.134 116.561 130.134 115.818V110.273H131.474V115.727C131.474 116.364 131.652 116.871 132.009 117.25C132.368 117.629 132.827 117.818 133.384 117.818C133.717 117.818 134.056 117.733 134.401 117.562C134.749 117.392 135.041 117.131 135.276 116.778C135.514 116.426 135.634 115.977 135.634 115.432ZM142.976 119.182C142.158 119.182 141.453 118.989 140.862 118.602C140.271 118.216 139.817 117.684 139.499 117.006C139.18 116.328 139.021 115.553 139.021 114.682C139.021 113.795 139.184 113.013 139.51 112.335C139.839 111.653 140.298 111.121 140.885 110.739C141.476 110.352 142.165 110.159 142.953 110.159C143.567 110.159 144.12 110.273 144.612 110.5C145.105 110.727 145.508 111.045 145.822 111.455C146.137 111.864 146.332 112.341 146.408 112.886H145.067C144.964 112.489 144.737 112.136 144.385 111.83C144.036 111.519 143.567 111.364 142.976 111.364C142.453 111.364 141.995 111.5 141.601 111.773C141.211 112.042 140.906 112.422 140.686 112.915C140.47 113.403 140.362 113.977 140.362 114.636C140.362 115.311 140.468 115.898 140.68 116.398C140.896 116.898 141.199 117.286 141.589 117.562C141.983 117.839 142.446 117.977 142.976 117.977C143.324 117.977 143.641 117.917 143.925 117.795C144.209 117.674 144.449 117.5 144.646 117.273C144.843 117.045 144.983 116.773 145.067 116.455H146.408C146.332 116.97 146.144 117.434 145.845 117.847C145.55 118.256 145.158 118.581 144.669 118.824C144.184 119.062 143.62 119.182 142.976 119.182ZM151.913 119.182C151.095 119.182 150.391 118.989 149.8 118.602C149.209 118.216 148.754 117.684 148.436 117.006C148.118 116.328 147.959 115.553 147.959 114.682C147.959 113.795 148.122 113.013 148.447 112.335C148.777 111.653 149.235 111.121 149.822 110.739C150.413 110.352 151.103 110.159 151.891 110.159C152.504 110.159 153.057 110.273 153.55 110.5C154.042 110.727 154.446 111.045 154.76 111.455C155.074 111.864 155.269 112.341 155.345 112.886H154.004C153.902 112.489 153.675 112.136 153.322 111.83C152.974 111.519 152.504 111.364 151.913 111.364C151.391 111.364 150.932 111.5 150.538 111.773C150.148 112.042 149.843 112.422 149.624 112.915C149.408 113.403 149.3 113.977 149.3 114.636C149.3 115.311 149.406 115.898 149.618 116.398C149.834 116.898 150.137 117.286 150.527 117.562C150.921 117.839 151.383 117.977 151.913 117.977C152.262 117.977 152.578 117.917 152.862 117.795C153.146 117.674 153.387 117.5 153.584 117.273C153.781 117.045 153.921 116.773 154.004 116.455H155.345C155.269 116.97 155.082 117.434 154.783 117.847C154.487 118.256 154.095 118.581 153.607 118.824C153.122 119.062 152.557 119.182 151.913 119.182ZM160.964 119.182C160.124 119.182 159.398 118.996 158.788 118.625C158.182 118.25 157.714 117.727 157.385 117.057C157.059 116.383 156.896 115.598 156.896 114.705C156.896 113.811 157.059 113.023 157.385 112.341C157.714 111.655 158.173 111.121 158.76 110.739C159.351 110.352 160.04 110.159 160.828 110.159C161.283 110.159 161.732 110.235 162.175 110.386C162.618 110.538 163.021 110.784 163.385 111.125C163.749 111.462 164.038 111.909 164.254 112.466C164.47 113.023 164.578 113.708 164.578 114.523V115.091H157.851V113.932H163.214C163.214 113.439 163.116 113 162.919 112.614C162.726 112.227 162.449 111.922 162.089 111.699C161.733 111.475 161.313 111.364 160.828 111.364C160.294 111.364 159.832 111.496 159.442 111.761C159.055 112.023 158.758 112.364 158.55 112.784C158.341 113.205 158.237 113.655 158.237 114.136V114.909C158.237 115.568 158.351 116.127 158.578 116.585C158.809 117.04 159.129 117.386 159.538 117.625C159.947 117.86 160.423 117.977 160.964 117.977C161.317 117.977 161.635 117.928 161.919 117.83C162.207 117.727 162.455 117.576 162.663 117.375C162.872 117.17 163.033 116.917 163.146 116.614L164.442 116.977C164.305 117.417 164.076 117.803 163.754 118.136C163.432 118.466 163.035 118.723 162.561 118.909C162.088 119.091 161.555 119.182 160.964 119.182ZM172.8 112.227L171.595 112.568C171.519 112.367 171.408 112.172 171.26 111.983C171.116 111.79 170.919 111.631 170.669 111.506C170.419 111.381 170.099 111.318 169.709 111.318C169.175 111.318 168.73 111.441 168.374 111.688C168.021 111.93 167.845 112.239 167.845 112.614C167.845 112.947 167.966 113.21 168.209 113.403C168.451 113.597 168.83 113.758 169.345 113.886L170.641 114.205C171.421 114.394 172.002 114.684 172.385 115.074C172.768 115.46 172.959 115.958 172.959 116.568C172.959 117.068 172.815 117.515 172.527 117.909C172.243 118.303 171.845 118.614 171.334 118.841C170.822 119.068 170.228 119.182 169.55 119.182C168.66 119.182 167.923 118.989 167.339 118.602C166.756 118.216 166.387 117.652 166.232 116.909L167.504 116.591C167.625 117.061 167.855 117.413 168.192 117.648C168.533 117.883 168.978 118 169.527 118C170.152 118 170.648 117.867 171.016 117.602C171.387 117.333 171.572 117.011 171.572 116.636C171.572 116.333 171.466 116.08 171.254 115.875C171.042 115.667 170.716 115.511 170.277 115.409L168.822 115.068C168.023 114.879 167.436 114.585 167.061 114.188C166.69 113.786 166.504 113.284 166.504 112.682C166.504 112.189 166.643 111.754 166.919 111.375C167.199 110.996 167.58 110.699 168.061 110.483C168.546 110.267 169.095 110.159 169.709 110.159C170.572 110.159 171.25 110.348 171.743 110.727C172.239 111.106 172.591 111.606 172.8 112.227ZM181.159 112.227L179.955 112.568C179.879 112.367 179.767 112.172 179.619 111.983C179.475 111.79 179.278 111.631 179.028 111.506C178.778 111.381 178.458 111.318 178.068 111.318C177.534 111.318 177.089 111.441 176.733 111.688C176.381 111.93 176.205 112.239 176.205 112.614C176.205 112.947 176.326 113.21 176.568 113.403C176.811 113.597 177.189 113.758 177.705 113.886L179 114.205C179.78 114.394 180.362 114.684 180.744 115.074C181.127 115.46 181.318 115.958 181.318 116.568C181.318 117.068 181.174 117.515 180.886 117.909C180.602 118.303 180.205 118.614 179.693 118.841C179.182 119.068 178.587 119.182 177.909 119.182C177.019 119.182 176.282 118.989 175.699 118.602C175.116 118.216 174.746 117.652 174.591 116.909L175.864 116.591C175.985 117.061 176.214 117.413 176.551 117.648C176.892 117.883 177.337 118 177.886 118C178.511 118 179.008 117.867 179.375 117.602C179.746 117.333 179.932 117.011 179.932 116.636C179.932 116.333 179.826 116.08 179.614 115.875C179.402 115.667 179.076 115.511 178.636 115.409L177.182 115.068C176.383 114.879 175.795 114.585 175.42 114.188C175.049 113.786 174.864 113.284 174.864 112.682C174.864 112.189 175.002 111.754 175.278 111.375C175.559 110.996 175.939 110.699 176.42 110.483C176.905 110.267 177.455 110.159 178.068 110.159C178.932 110.159 179.61 110.348 180.102 110.727C180.598 111.106 180.951 111.606 181.159 112.227ZM187.837 119V110.273H189.132V111.636H189.246C189.428 111.17 189.721 110.809 190.126 110.551C190.532 110.29 191.018 110.159 191.587 110.159C192.162 110.159 192.642 110.29 193.024 110.551C193.411 110.809 193.712 111.17 193.928 111.636H194.018C194.242 111.186 194.577 110.828 195.024 110.562C195.471 110.294 196.007 110.159 196.632 110.159C197.412 110.159 198.051 110.403 198.547 110.892C199.043 111.377 199.291 112.133 199.291 113.159V119H197.95V113.159C197.95 112.515 197.774 112.055 197.422 111.778C197.07 111.502 196.655 111.364 196.178 111.364C195.564 111.364 195.089 111.549 194.751 111.92C194.414 112.288 194.246 112.754 194.246 113.318V119H192.882V113.023C192.882 112.527 192.721 112.127 192.399 111.824C192.077 111.517 191.662 111.364 191.155 111.364C190.806 111.364 190.481 111.456 190.178 111.642C189.878 111.828 189.636 112.085 189.45 112.415C189.268 112.741 189.178 113.117 189.178 113.545V119H187.837ZM205.402 119.182C204.561 119.182 203.836 118.996 203.226 118.625C202.62 118.25 202.152 117.727 201.822 117.057C201.497 116.383 201.334 115.598 201.334 114.705C201.334 113.811 201.497 113.023 201.822 112.341C202.152 111.655 202.61 111.121 203.197 110.739C203.788 110.352 204.478 110.159 205.266 110.159C205.72 110.159 206.169 110.235 206.612 110.386C207.055 110.538 207.459 110.784 207.822 111.125C208.186 111.462 208.476 111.909 208.692 112.466C208.908 113.023 209.016 113.708 209.016 114.523V115.091H202.288V113.932H207.652C207.652 113.439 207.554 113 207.357 112.614C207.163 112.227 206.887 111.922 206.527 111.699C206.171 111.475 205.75 111.364 205.266 111.364C204.732 111.364 204.269 111.496 203.879 111.761C203.493 112.023 203.196 112.364 202.987 112.784C202.779 113.205 202.675 113.655 202.675 114.136V114.909C202.675 115.568 202.788 116.127 203.016 116.585C203.247 117.04 203.567 117.386 203.976 117.625C204.385 117.86 204.86 117.977 205.402 117.977C205.754 117.977 206.072 117.928 206.357 117.83C206.644 117.727 206.893 117.576 207.101 117.375C207.309 117.17 207.47 116.917 207.584 116.614L208.879 116.977C208.743 117.417 208.514 117.803 208.192 118.136C207.87 118.466 207.472 118.723 206.999 118.909C206.525 119.091 205.993 119.182 205.402 119.182ZM217.237 112.227L216.033 112.568C215.957 112.367 215.845 112.172 215.697 111.983C215.554 111.79 215.357 111.631 215.107 111.506C214.857 111.381 214.536 111.318 214.146 111.318C213.612 111.318 213.167 111.441 212.811 111.688C212.459 111.93 212.283 112.239 212.283 112.614C212.283 112.947 212.404 113.21 212.646 113.403C212.889 113.597 213.268 113.758 213.783 113.886L215.078 114.205C215.858 114.394 216.44 114.684 216.822 115.074C217.205 115.46 217.396 115.958 217.396 116.568C217.396 117.068 217.252 117.515 216.964 117.909C216.68 118.303 216.283 118.614 215.771 118.841C215.26 119.068 214.665 119.182 213.987 119.182C213.097 119.182 212.36 118.989 211.777 118.602C211.194 118.216 210.824 117.652 210.669 116.909L211.942 116.591C212.063 117.061 212.292 117.413 212.629 117.648C212.97 117.883 213.415 118 213.964 118C214.589 118 215.086 117.867 215.453 117.602C215.824 117.333 216.01 117.011 216.01 116.636C216.01 116.333 215.904 116.08 215.692 115.875C215.48 115.667 215.154 115.511 214.714 115.409L213.26 115.068C212.461 114.879 211.874 114.585 211.499 114.188C211.127 113.786 210.942 113.284 210.942 112.682C210.942 112.189 211.08 111.754 211.357 111.375C211.637 110.996 212.018 110.699 212.499 110.483C212.983 110.267 213.533 110.159 214.146 110.159C215.01 110.159 215.688 110.348 216.18 110.727C216.677 111.106 217.029 111.606 217.237 112.227ZM225.597 112.227L224.392 112.568C224.316 112.367 224.205 112.172 224.057 111.983C223.913 111.79 223.716 111.631 223.466 111.506C223.216 111.381 222.896 111.318 222.506 111.318C221.972 111.318 221.527 111.441 221.17 111.688C220.818 111.93 220.642 112.239 220.642 112.614C220.642 112.947 220.763 113.21 221.006 113.403C221.248 113.597 221.627 113.758 222.142 113.886L223.438 114.205C224.218 114.394 224.799 114.684 225.182 115.074C225.564 115.46 225.756 115.958 225.756 116.568C225.756 117.068 225.612 117.515 225.324 117.909C225.04 118.303 224.642 118.614 224.131 118.841C223.619 119.068 223.025 119.182 222.347 119.182C221.456 119.182 220.72 118.989 220.136 118.602C219.553 118.216 219.184 117.652 219.028 116.909L220.301 116.591C220.422 117.061 220.652 117.413 220.989 117.648C221.33 117.883 221.775 118 222.324 118C222.949 118 223.445 117.867 223.812 117.602C224.184 117.333 224.369 117.011 224.369 116.636C224.369 116.333 224.263 116.08 224.051 115.875C223.839 115.667 223.513 115.511 223.074 115.409L221.619 115.068C220.82 114.879 220.233 114.585 219.858 114.188C219.487 113.786 219.301 113.284 219.301 112.682C219.301 112.189 219.439 111.754 219.716 111.375C219.996 110.996 220.377 110.699 220.858 110.483C221.343 110.267 221.892 110.159 222.506 110.159C223.369 110.159 224.047 110.348 224.54 110.727C225.036 111.106 225.388 111.606 225.597 112.227ZM230.342 119.205C229.789 119.205 229.287 119.1 228.837 118.892C228.386 118.68 228.028 118.375 227.763 117.977C227.498 117.576 227.365 117.091 227.365 116.523C227.365 116.023 227.464 115.617 227.661 115.307C227.857 114.992 228.121 114.746 228.45 114.568C228.78 114.39 229.143 114.258 229.541 114.17C229.943 114.08 230.346 114.008 230.751 113.955C231.282 113.886 231.712 113.835 232.041 113.801C232.375 113.763 232.617 113.701 232.768 113.614C232.924 113.527 233.001 113.375 233.001 113.159V113.114C233.001 112.553 232.848 112.117 232.541 111.807C232.238 111.496 231.778 111.341 231.161 111.341C230.52 111.341 230.018 111.481 229.655 111.761C229.291 112.042 229.036 112.341 228.888 112.659L227.615 112.205C227.842 111.674 228.145 111.261 228.524 110.966C228.907 110.667 229.323 110.458 229.774 110.341C230.229 110.22 230.676 110.159 231.115 110.159C231.395 110.159 231.717 110.193 232.081 110.261C232.448 110.326 232.803 110.46 233.143 110.665C233.488 110.869 233.774 111.178 234.001 111.591C234.229 112.004 234.342 112.557 234.342 113.25V119H233.001V117.818H232.933C232.842 118.008 232.691 118.21 232.479 118.426C232.267 118.642 231.984 118.826 231.632 118.977C231.28 119.129 230.85 119.205 230.342 119.205ZM230.547 118C231.077 118 231.524 117.896 231.888 117.688C232.255 117.479 232.532 117.21 232.717 116.881C232.907 116.551 233.001 116.205 233.001 115.841V114.614C232.945 114.682 232.82 114.744 232.626 114.801C232.437 114.854 232.217 114.902 231.967 114.943C231.721 114.981 231.481 115.015 231.246 115.045C231.015 115.072 230.827 115.095 230.683 115.114C230.335 115.159 230.009 115.233 229.706 115.335C229.407 115.434 229.164 115.583 228.979 115.784C228.797 115.981 228.706 116.25 228.706 116.591C228.706 117.057 228.878 117.409 229.223 117.648C229.571 117.883 230.013 118 230.547 118ZM240.312 122.455C239.665 122.455 239.108 122.371 238.642 122.205C238.176 122.042 237.788 121.826 237.477 121.557C237.17 121.292 236.926 121.008 236.744 120.705L237.812 119.955C237.934 120.114 238.087 120.295 238.273 120.5C238.458 120.708 238.712 120.888 239.034 121.04C239.36 121.195 239.786 121.273 240.312 121.273C241.017 121.273 241.598 121.102 242.057 120.761C242.515 120.42 242.744 119.886 242.744 119.159V117.386H242.631C242.532 117.545 242.392 117.742 242.21 117.977C242.032 118.208 241.775 118.415 241.438 118.597C241.104 118.775 240.653 118.864 240.085 118.864C239.381 118.864 238.748 118.697 238.188 118.364C237.631 118.03 237.189 117.545 236.864 116.909C236.542 116.273 236.381 115.5 236.381 114.591C236.381 113.697 236.538 112.919 236.852 112.256C237.167 111.589 237.604 111.074 238.165 110.71C238.725 110.343 239.373 110.159 240.108 110.159C240.676 110.159 241.127 110.254 241.46 110.443C241.797 110.629 242.055 110.841 242.233 111.08C242.415 111.314 242.555 111.508 242.653 111.659H242.79V110.273H244.085V119.25C244.085 120 243.915 120.61 243.574 121.08C243.237 121.553 242.782 121.9 242.21 122.119C241.642 122.343 241.009 122.455 240.312 122.455ZM240.267 117.659C240.805 117.659 241.259 117.536 241.631 117.29C242.002 117.044 242.284 116.689 242.477 116.227C242.67 115.765 242.767 115.212 242.767 114.568C242.767 113.939 242.672 113.384 242.483 112.903C242.294 112.422 242.013 112.045 241.642 111.773C241.271 111.5 240.813 111.364 240.267 111.364C239.699 111.364 239.225 111.508 238.847 111.795C238.472 112.083 238.189 112.47 238 112.955C237.814 113.439 237.722 113.977 237.722 114.568C237.722 115.174 237.816 115.71 238.006 116.176C238.199 116.638 238.483 117.002 238.858 117.267C239.237 117.528 239.706 117.659 240.267 117.659ZM250.199 119.182C249.358 119.182 248.633 118.996 248.023 118.625C247.417 118.25 246.949 117.727 246.619 117.057C246.294 116.383 246.131 115.598 246.131 114.705C246.131 113.811 246.294 113.023 246.619 112.341C246.949 111.655 247.407 111.121 247.994 110.739C248.585 110.352 249.275 110.159 250.062 110.159C250.517 110.159 250.966 110.235 251.409 110.386C251.852 110.538 252.256 110.784 252.619 111.125C252.983 111.462 253.273 111.909 253.489 112.466C253.705 113.023 253.812 113.708 253.812 114.523V115.091H247.085V113.932H252.449C252.449 113.439 252.35 113 252.153 112.614C251.96 112.227 251.684 111.922 251.324 111.699C250.968 111.475 250.547 111.364 250.062 111.364C249.528 111.364 249.066 111.496 248.676 111.761C248.29 112.023 247.992 112.364 247.784 112.784C247.576 113.205 247.472 113.655 247.472 114.136V114.909C247.472 115.568 247.585 116.127 247.812 116.585C248.044 117.04 248.364 117.386 248.773 117.625C249.182 117.86 249.657 117.977 250.199 117.977C250.551 117.977 250.869 117.928 251.153 117.83C251.441 117.727 251.689 117.576 251.898 117.375C252.106 117.17 252.267 116.917 252.381 116.614L253.676 116.977C253.54 117.417 253.311 117.803 252.989 118.136C252.667 118.466 252.269 118.723 251.795 118.909C251.322 119.091 250.79 119.182 250.199 119.182ZM256.83 119.091C256.549 119.091 256.309 118.991 256.108 118.79C255.907 118.589 255.807 118.348 255.807 118.068C255.807 117.788 255.907 117.547 256.108 117.347C256.309 117.146 256.549 117.045 256.83 117.045C257.11 117.045 257.35 117.146 257.551 117.347C257.752 117.547 257.852 117.788 257.852 118.068C257.852 118.254 257.805 118.424 257.71 118.58C257.619 118.735 257.496 118.86 257.341 118.955C257.189 119.045 257.019 119.091 256.83 119.091Z" fill="#344054"/>
<path d="M54 166C54 163.239 56.2386 161 59 161H157C159.761 161 162 163.239 162 166V196C162 198.761 159.761 201 157 201H59C56.2386 201 54 198.761 54 196V166Z" fill="white"/>
<path d="M79.4426 175.818V186H78.2494L72.7011 178.006H72.6017V186H71.3687V175.818H72.5619L78.1301 183.832H78.2295V175.818H79.4426ZM84.9523 186.159C84.2165 186.159 83.5818 185.997 83.0482 185.672C82.5179 185.344 82.1086 184.886 81.8202 184.3C81.5352 183.71 81.3927 183.024 81.3927 182.241C81.3927 181.459 81.5352 180.77 81.8202 180.173C82.1086 179.573 82.5096 179.106 83.0233 178.771C83.5404 178.433 84.1436 178.264 84.833 178.264C85.2307 178.264 85.6235 178.33 86.0113 178.463C86.3991 178.596 86.752 178.811 87.0702 179.109C87.3884 179.404 87.642 179.795 87.8309 180.283C88.0198 180.77 88.1143 181.37 88.1143 182.082V182.58H82.2279V181.565H86.9211C86.9211 181.134 86.8349 180.75 86.6626 180.412C86.4935 180.074 86.2516 179.807 85.9367 179.612C85.6251 179.416 85.2573 179.318 84.833 179.318C84.3657 179.318 83.9613 179.434 83.6199 179.666C83.2819 179.895 83.0217 180.193 82.8394 180.561C82.6571 180.929 82.566 181.323 82.566 181.744V182.42C82.566 182.997 82.6654 183.486 82.8643 183.887C83.0664 184.285 83.3465 184.588 83.7045 184.797C84.0624 185.002 84.4784 185.105 84.9523 185.105C85.2606 185.105 85.539 185.062 85.7876 184.976C86.0394 184.886 86.2565 184.754 86.4388 184.578C86.6211 184.399 86.762 184.177 86.8614 183.912L87.9949 184.23C87.8756 184.615 87.6751 184.953 87.3934 185.244C87.1117 185.533 86.7636 185.758 86.3493 185.92C85.935 186.08 85.4694 186.159 84.9523 186.159ZM90.569 178.364L92.3985 181.486L94.2281 178.364H95.5803L93.1144 182.182L95.5803 186H94.2281L92.3985 183.037L90.569 186H89.2167L91.6428 182.182L89.2167 178.364H90.569ZM100.576 178.364V179.358H96.6182V178.364H100.576ZM97.7716 176.534H98.9449V183.812C98.9449 184.144 98.9929 184.393 99.089 184.558C99.1885 184.721 99.3144 184.83 99.4669 184.886C99.6227 184.939 99.7867 184.966 99.9591 184.966C100.088 184.966 100.194 184.959 100.277 184.946C100.36 184.929 100.426 184.916 100.476 184.906L100.715 185.96C100.635 185.99 100.524 186.02 100.382 186.05C100.239 186.083 100.059 186.099 99.8398 186.099C99.5083 186.099 99.1835 186.028 98.8653 185.886C98.5505 185.743 98.2886 185.526 98.0798 185.234C97.8743 184.943 97.7716 184.575 97.7716 184.131V176.534ZM108.525 186.179C108.041 186.179 107.602 186.088 107.208 185.906C106.813 185.72 106.5 185.453 106.268 185.105C106.036 184.754 105.92 184.33 105.92 183.832C105.92 183.395 106.006 183.04 106.179 182.768C106.351 182.493 106.581 182.278 106.87 182.122C107.158 181.966 107.476 181.85 107.824 181.774C108.175 181.695 108.528 181.632 108.883 181.585C109.347 181.526 109.723 181.481 110.012 181.451C110.303 181.418 110.515 181.363 110.648 181.287C110.784 181.211 110.852 181.078 110.852 180.889V180.849C110.852 180.359 110.718 179.978 110.449 179.706C110.184 179.434 109.781 179.298 109.241 179.298C108.681 179.298 108.242 179.421 107.924 179.666C107.605 179.911 107.382 180.173 107.252 180.452L106.139 180.054C106.338 179.59 106.603 179.229 106.934 178.97C107.269 178.708 107.634 178.526 108.028 178.423C108.426 178.317 108.817 178.264 109.201 178.264C109.447 178.264 109.728 178.294 110.046 178.354C110.368 178.41 110.678 178.528 110.976 178.707C111.278 178.886 111.528 179.156 111.727 179.517C111.926 179.878 112.025 180.362 112.025 180.969V186H110.852V184.966H110.792C110.713 185.132 110.58 185.309 110.394 185.498C110.209 185.687 109.962 185.848 109.654 185.98C109.345 186.113 108.969 186.179 108.525 186.179ZM108.704 185.125C109.168 185.125 109.559 185.034 109.877 184.852C110.199 184.669 110.441 184.434 110.603 184.146C110.769 183.857 110.852 183.554 110.852 183.236V182.162C110.802 182.222 110.693 182.276 110.524 182.326C110.358 182.372 110.166 182.414 109.947 182.45C109.732 182.483 109.521 182.513 109.316 182.54C109.113 182.563 108.949 182.583 108.823 182.599C108.518 182.639 108.233 182.704 107.968 182.793C107.706 182.879 107.494 183.01 107.332 183.186C107.173 183.358 107.093 183.594 107.093 183.892C107.093 184.3 107.244 184.608 107.546 184.817C107.851 185.022 108.237 185.125 108.704 185.125ZM117.269 186.159C116.553 186.159 115.937 185.99 115.419 185.652C114.902 185.314 114.505 184.848 114.226 184.255C113.948 183.662 113.809 182.984 113.809 182.222C113.809 181.446 113.951 180.762 114.236 180.168C114.525 179.572 114.926 179.106 115.439 178.771C115.956 178.433 116.56 178.264 117.249 178.264C117.786 178.264 118.27 178.364 118.701 178.562C119.132 178.761 119.485 179.04 119.76 179.398C120.035 179.756 120.205 180.173 120.272 180.651H119.098C119.009 180.303 118.81 179.994 118.502 179.726C118.197 179.454 117.786 179.318 117.269 179.318C116.812 179.318 116.41 179.437 116.066 179.676C115.724 179.911 115.458 180.245 115.265 180.675C115.076 181.103 114.982 181.605 114.982 182.182C114.982 182.772 115.075 183.286 115.26 183.723C115.449 184.161 115.714 184.5 116.056 184.742C116.401 184.984 116.805 185.105 117.269 185.105C117.574 185.105 117.851 185.052 118.099 184.946C118.348 184.84 118.558 184.688 118.731 184.489C118.903 184.29 119.026 184.051 119.098 183.773H120.272C120.205 184.223 120.041 184.629 119.78 184.991C119.521 185.349 119.178 185.634 118.75 185.846C118.326 186.055 117.832 186.159 117.269 186.159ZM125.308 178.364V179.358H121.351V178.364H125.308ZM122.504 176.534H123.677V183.812C123.677 184.144 123.725 184.393 123.821 184.558C123.921 184.721 124.047 184.83 124.199 184.886C124.355 184.939 124.519 184.966 124.691 184.966C124.821 184.966 124.927 184.959 125.01 184.946C125.093 184.929 125.159 184.916 125.209 184.906L125.447 185.96C125.368 185.99 125.257 186.02 125.114 186.05C124.972 186.083 124.791 186.099 124.572 186.099C124.241 186.099 123.916 186.028 123.598 185.886C123.283 185.743 123.021 185.526 122.812 185.234C122.607 184.943 122.504 184.575 122.504 184.131V176.534ZM127.073 186V178.364H128.246V186H127.073ZM127.669 177.091C127.441 177.091 127.244 177.013 127.078 176.857C126.915 176.701 126.834 176.514 126.834 176.295C126.834 176.077 126.915 175.889 127.078 175.734C127.244 175.578 127.441 175.5 127.669 175.5C127.898 175.5 128.094 175.578 128.256 175.734C128.422 175.889 128.505 176.077 128.505 176.295C128.505 176.514 128.422 176.701 128.256 176.857C128.094 177.013 127.898 177.091 127.669 177.091ZM133.497 186.159C132.808 186.159 132.203 185.995 131.683 185.667C131.166 185.339 130.761 184.88 130.47 184.29C130.181 183.7 130.037 183.01 130.037 182.222C130.037 181.426 130.181 180.732 130.47 180.138C130.761 179.545 131.166 179.085 131.683 178.756C132.203 178.428 132.808 178.264 133.497 178.264C134.187 178.264 134.79 178.428 135.307 178.756C135.827 179.085 136.232 179.545 136.52 180.138C136.812 180.732 136.958 181.426 136.958 182.222C136.958 183.01 136.812 183.7 136.52 184.29C136.232 184.88 135.827 185.339 135.307 185.667C134.79 185.995 134.187 186.159 133.497 186.159ZM133.497 185.105C134.021 185.105 134.452 184.971 134.79 184.702C135.128 184.434 135.378 184.081 135.541 183.643C135.703 183.206 135.784 182.732 135.784 182.222C135.784 181.711 135.703 181.236 135.541 180.795C135.378 180.354 135.128 179.998 134.79 179.726C134.452 179.454 134.021 179.318 133.497 179.318C132.974 179.318 132.543 179.454 132.205 179.726C131.867 179.998 131.617 180.354 131.454 180.795C131.292 181.236 131.21 181.711 131.21 182.222C131.21 182.732 131.292 183.206 131.454 183.643C131.617 184.081 131.867 184.434 132.205 184.702C132.543 184.971 132.974 185.105 133.497 185.105ZM139.922 181.406V186H138.749V178.364H139.882V179.557H139.982C140.161 179.169 140.432 178.857 140.797 178.622C141.162 178.384 141.632 178.264 142.209 178.264C142.726 178.264 143.178 178.37 143.566 178.582C143.954 178.791 144.256 179.109 144.471 179.537C144.686 179.961 144.794 180.498 144.794 181.148V186H143.621V181.227C143.621 180.627 143.465 180.16 143.153 179.825C142.842 179.487 142.414 179.318 141.871 179.318C141.496 179.318 141.162 179.399 140.867 179.562C140.575 179.724 140.345 179.961 140.176 180.273C140.006 180.584 139.922 180.962 139.922 181.406Z" fill="#344054"/>
<path d="M59 162H157V160H59V162ZM161 166V196H163V166H161ZM157 200H59V202H157V200ZM55 196V166H53V196H55ZM59 200C56.7909 200 55 198.209 55 196H53C53 199.314 55.6863 202 59 202V200ZM161 196C161 198.209 159.209 200 157 200V202C160.314 202 163 199.314 163 196H161ZM157 162C159.209 162 161 163.791 161 166H163C163 162.686 160.314 160 157 160V162ZM59 160C55.6863 160 53 162.686 53 166H55C55 163.791 56.7909 162 59 162V160Z" fill="#344054"/>
</g>
<circle cx="103" cy="16" r="12" fill="#344054"/>
<path d="M98.9432 22V20.2273L103.085 16.392C103.438 16.0511 103.733 15.7443 103.972 15.4716C104.214 15.1989 104.398 14.9318 104.523 14.6705C104.648 14.4053 104.71 14.1193 104.71 13.8125C104.71 13.4716 104.633 13.178 104.477 12.9318C104.322 12.6818 104.11 12.4905 103.841 12.358C103.572 12.2216 103.267 12.1534 102.926 12.1534C102.57 12.1534 102.259 12.2254 101.994 12.3693C101.729 12.5133 101.525 12.7197 101.381 12.9886C101.237 13.2576 101.165 13.5777 101.165 13.9489H98.8295C98.8295 13.1875 99.0019 12.5265 99.3466 11.9659C99.6913 11.4053 100.174 10.9716 100.795 10.6648C101.417 10.358 102.133 10.2045 102.943 10.2045C103.777 10.2045 104.502 10.3523 105.119 10.6477C105.741 10.9394 106.223 11.3447 106.568 11.8636C106.913 12.3826 107.085 12.9773 107.085 13.6477C107.085 14.0871 106.998 14.5208 106.824 14.9489C106.653 15.3769 106.348 15.8523 105.909 16.375C105.47 16.8939 104.85 17.517 104.051 18.2443L102.352 19.9091V19.9886H107.239V22H98.9432Z" fill="white"/>
<path d="M103 58L103 28" stroke="#344054" stroke-dasharray="2 2"/>
<circle cx="12" cy="16" r="12" fill="#344054"/>
<path d="M14.0057 10.3636V22H11.5455V12.6989H11.4773L8.8125 14.3693V12.1875L11.6932 10.3636H14.0057Z" fill="white"/>
<path d="M21 16H65V58" stroke="#344054" stroke-dasharray="2 2"/>
<circle cx="12" cy="242" r="12" fill="#344054"/>
<path d="M6.76705 245.955V244.017L11.625 236.364H13.2955V239.045H12.3068L9.24432 243.892V243.983H16.1477V245.955H6.76705ZM12.3523 248V245.364L12.3977 244.506V236.364H14.7045V248H12.3523Z" fill="white"/>
<path d="M21 242H65V200" stroke="#344054" stroke-dasharray="2 2"/>
<circle cx="413" cy="16" r="12" fill="#344054"/>
<path d="M413.244 22.1591C412.396 22.1591 411.64 22.0133 410.977 21.7216C410.318 21.4261 409.797 21.0208 409.415 20.5057C409.036 19.9867 408.841 19.3883 408.83 18.7102H411.307C411.322 18.9943 411.415 19.2443 411.585 19.4602C411.759 19.6723 411.991 19.8371 412.278 19.9545C412.566 20.072 412.89 20.1307 413.25 20.1307C413.625 20.1307 413.956 20.0644 414.244 19.9318C414.532 19.7992 414.758 19.6155 414.92 19.3807C415.083 19.1458 415.165 18.875 415.165 18.5682C415.165 18.2576 415.078 17.983 414.903 17.7443C414.733 17.5019 414.487 17.3125 414.165 17.1761C413.847 17.0398 413.468 16.9716 413.028 16.9716H411.943V15.1648H413.028C413.4 15.1648 413.727 15.1004 414.011 14.9716C414.299 14.8428 414.523 14.6648 414.682 14.4375C414.841 14.2064 414.92 13.9375 414.92 13.6307C414.92 13.339 414.85 13.0833 414.71 12.8636C414.574 12.6402 414.381 12.4659 414.131 12.3409C413.884 12.2159 413.597 12.1534 413.267 12.1534C412.934 12.1534 412.629 12.214 412.352 12.3352C412.076 12.4527 411.854 12.6212 411.688 12.8409C411.521 13.0606 411.432 13.3182 411.42 13.6136H409.062C409.074 12.9432 409.265 12.3523 409.636 11.8409C410.008 11.3295 410.508 10.9299 411.136 10.642C411.769 10.3504 412.483 10.2045 413.278 10.2045C414.081 10.2045 414.784 10.3504 415.386 10.642C415.989 10.9337 416.456 11.3277 416.79 11.8239C417.127 12.3163 417.294 12.8693 417.29 13.483C417.294 14.1345 417.091 14.678 416.682 15.1136C416.277 15.5492 415.748 15.8258 415.097 15.9432V16.0341C415.953 16.1439 416.604 16.4413 417.051 16.9261C417.502 17.4072 417.725 18.0095 417.722 18.733C417.725 19.3958 417.534 19.9848 417.148 20.5C416.765 21.0152 416.237 21.4205 415.562 21.7159C414.888 22.0114 414.116 22.1591 413.244 22.1591Z" fill="white"/>
<path d="M403 16H359V58" stroke="#344054" stroke-dasharray="2 2"/>
<defs>
<filter id="filter0_d_5019_1627" x="24" y="33" width="371" height="192" filterUnits="userSpaceOnUse" color-interpolation-filters="sRGB">
<feFlood flood-opacity="0" result="BackgroundImageFix"/>
<feColorMatrix in="SourceAlpha" type="matrix" values="0 0 0 0 0 0 0 0 0 0 0 0 0 0 0 0 0 0 127 0" result="hardAlpha"/>
<feOffset/>
<feGaussianBlur stdDeviation="4"/>
<feColorMatrix type="matrix" values="0 0 0 0 0 0 0 0 0 0 0 0 0 0 0 0 0 0 0.15 0"/>
<feBlend mode="normal" in2="BackgroundImageFix" result="effect1_dropShadow_5019_1627"/>
<feBlend mode="normal" in="SourceGraphic" in2="effect1_dropShadow_5019_1627" result="shape"/>
</filter>
</defs>
</svg>
