<svg width="421" height="223" viewBox="0 0 421 223" fill="none" xmlns="http://www.w3.org/2000/svg">
<path d="M12.0845 31L8.33878 17.9091H11.3622L13.5291 27.005H13.6378L16.0284 17.9091H18.6172L21.0014 27.0241H21.1165L23.2834 17.9091H26.3068L22.5611 31H19.8636L17.3707 22.4411H17.2685L14.782 31H12.0845ZM27.737 31V21.1818H30.46V31H27.737ZM29.1049 19.9162C28.7001 19.9162 28.3528 19.782 28.063 19.5135C27.7775 19.2408 27.6348 18.9148 27.6348 18.5355C27.6348 18.1605 27.7775 17.8388 28.063 17.5703C28.3528 17.2976 28.7001 17.1612 29.1049 17.1612C29.5098 17.1612 29.8549 17.2976 30.1404 17.5703C30.4302 17.8388 30.5751 18.1605 30.5751 18.5355C30.5751 18.9148 30.4302 19.2408 30.1404 19.5135C29.8549 19.782 29.5098 19.9162 29.1049 19.9162ZM37.8636 21.1818V23.2273H31.951V21.1818H37.8636ZM33.2933 18.8295H36.0163V27.983C36.0163 28.2344 36.0547 28.4304 36.1314 28.571C36.2081 28.7074 36.3146 28.8033 36.451 28.8587C36.5916 28.9141 36.7536 28.9418 36.9368 28.9418C37.0646 28.9418 37.1925 28.9311 37.3203 28.9098C37.4482 28.8842 37.5462 28.8651 37.6143 28.8523L38.0426 30.8786C37.9063 30.9212 37.7145 30.9702 37.4673 31.0256C37.2202 31.0852 36.9197 31.1214 36.5661 31.1342C35.9098 31.1598 35.3345 31.0724 34.8402 30.8722C34.3501 30.6719 33.9688 30.3608 33.696 29.9389C33.4233 29.517 33.2891 28.9844 33.2933 28.3409V18.8295ZM42.5714 25.3239V31H39.8484V17.9091H42.4947V22.9141H42.6097C42.8313 22.3345 43.1893 21.8807 43.6836 21.5526C44.1779 21.2202 44.7979 21.054 45.5437 21.054C46.2255 21.054 46.82 21.2031 47.3271 21.5014C47.8384 21.7955 48.2347 22.2195 48.516 22.7734C48.8015 23.3232 48.9421 23.9815 48.9379 24.7486V31H46.2148V25.2344C46.2191 24.6293 46.0657 24.1584 45.7546 23.8217C45.4478 23.4851 45.0174 23.3168 44.4634 23.3168C44.0927 23.3168 43.7646 23.3956 43.479 23.5533C43.1978 23.7109 42.9762 23.9411 42.8143 24.2436C42.6566 24.5419 42.5756 24.902 42.5714 25.3239ZM51.0808 31V21.1818H53.8038V31H51.0808ZM52.4487 19.9162C52.0439 19.9162 51.6966 19.782 51.4068 19.5135C51.1213 19.2408 50.9785 18.9148 50.9785 18.5355C50.9785 18.1605 51.1213 17.8388 51.4068 17.5703C51.6966 17.2976 52.0439 17.1612 52.4487 17.1612C52.8535 17.1612 53.1987 17.2976 53.4842 17.5703C53.774 17.8388 53.9189 18.1605 53.9189 18.5355C53.9189 18.9148 53.774 19.2408 53.4842 19.5135C53.1987 19.782 52.8535 19.9162 52.4487 19.9162ZM58.7081 25.3239V31H55.9851V21.1818H58.5803V22.9141H58.6953C58.9126 22.343 59.277 21.8913 59.7884 21.5589C60.2997 21.2223 60.9197 21.054 61.6484 21.054C62.3303 21.054 62.9247 21.2031 63.4318 21.5014C63.9389 21.7997 64.3331 22.2259 64.6143 22.7798C64.8956 23.3295 65.0362 23.9858 65.0362 24.7486V31H62.3132V25.2344C62.3175 24.6335 62.1641 24.1648 61.853 23.8281C61.5419 23.4872 61.1136 23.3168 60.5682 23.3168C60.2017 23.3168 59.8778 23.3956 59.5966 23.5533C59.3196 23.7109 59.1023 23.9411 58.9446 24.2436C58.7912 24.5419 58.7124 24.902 58.7081 25.3239ZM76.5707 21.1818V23.2273H70.658V21.1818H76.5707ZM72.0004 18.8295H74.7234V27.983C74.7234 28.2344 74.7617 28.4304 74.8384 28.571C74.9151 28.7074 75.0217 28.8033 75.158 28.8587C75.2987 28.9141 75.4606 28.9418 75.6438 28.9418C75.7717 28.9418 75.8995 28.9311 76.0273 28.9098C76.1552 28.8842 76.2532 28.8651 76.3214 28.8523L76.7496 30.8786C76.6133 30.9212 76.4215 30.9702 76.1744 31.0256C75.9272 31.0852 75.6268 31.1214 75.2731 31.1342C74.6168 31.1598 74.0415 31.0724 73.5472 30.8722C73.0572 30.6719 72.6758 30.3608 72.4031 29.9389C72.1303 29.517 71.9961 28.9844 72.0004 28.3409V18.8295ZM81.2784 25.3239V31H78.5554V17.9091H81.2017V22.9141H81.3168C81.5384 22.3345 81.8963 21.8807 82.3906 21.5526C82.8849 21.2202 83.505 21.054 84.2507 21.054C84.9325 21.054 85.527 21.2031 86.0341 21.5014C86.5455 21.7955 86.9418 22.2195 87.223 22.7734C87.5085 23.3232 87.6491 23.9815 87.6449 24.7486V31H84.9219V25.2344C84.9261 24.6293 84.7727 24.1584 84.4616 23.8217C84.1548 23.4851 83.7244 23.3168 83.1705 23.3168C82.7997 23.3168 82.4716 23.3956 82.1861 23.5533C81.9048 23.7109 81.6832 23.9411 81.5213 24.2436C81.3636 24.5419 81.2827 24.902 81.2784 25.3239ZM94.2623 31.1918C93.2523 31.1918 92.383 30.9872 91.6543 30.5781C90.9299 30.1648 90.3716 29.581 89.9796 28.8267C89.5875 28.0682 89.3915 27.1712 89.3915 26.1357C89.3915 25.1257 89.5875 24.2393 89.9796 23.4766C90.3716 22.7138 90.9235 22.1193 91.6351 21.6932C92.351 21.267 93.1905 21.054 94.1536 21.054C94.8013 21.054 95.4043 21.1584 95.9625 21.3672C96.525 21.5717 97.0151 21.8807 97.4327 22.294C97.8546 22.7074 98.1827 23.2273 98.4171 23.8537C98.6515 24.4759 98.7686 25.2045 98.7686 26.0398V26.7876H90.4782V25.1001H96.2054C96.2054 24.7081 96.1202 24.3608 95.9498 24.0582C95.7793 23.7557 95.5428 23.5192 95.2402 23.3487C94.9419 23.174 94.5946 23.0866 94.1983 23.0866C93.785 23.0866 93.4185 23.1825 93.0989 23.3743C92.7836 23.5618 92.5364 23.8153 92.3574 24.1349C92.1784 24.4503 92.0868 24.8018 92.0826 25.1896V26.794C92.0826 27.2798 92.1721 27.6996 92.351 28.0533C92.5343 28.407 92.7921 28.6797 93.1245 28.8714C93.4569 29.0632 93.851 29.1591 94.307 29.1591C94.6096 29.1591 94.8865 29.1165 95.138 29.0312C95.3894 28.946 95.6046 28.8182 95.7836 28.6477C95.9625 28.4773 96.0989 28.2685 96.1926 28.0213L98.7111 28.1875C98.5833 28.7926 98.3212 29.321 97.9249 29.7727C97.5328 30.2202 97.0257 30.5696 96.4036 30.821C95.7857 31.0682 95.0719 31.1918 94.2623 31.1918ZM109.934 21.1818V23.2273H104.021V21.1818H109.934ZM105.364 18.8295H108.087V27.983C108.087 28.2344 108.125 28.4304 108.202 28.571C108.278 28.7074 108.385 28.8033 108.521 28.8587C108.662 28.9141 108.824 28.9418 109.007 28.9418C109.135 28.9418 109.263 28.9311 109.391 28.9098C109.518 28.8842 109.616 28.8651 109.685 28.8523L110.113 30.8786C109.977 30.9212 109.785 30.9702 109.538 31.0256C109.29 31.0852 108.99 31.1214 108.636 31.1342C107.98 31.1598 107.405 31.0724 106.911 30.8722C106.42 30.6719 106.039 30.3608 105.766 29.9389C105.494 29.517 105.359 28.9844 105.364 28.3409V18.8295ZM116.038 31.1918C115.045 31.1918 114.187 30.9808 113.462 30.5589C112.742 30.1328 112.186 29.5405 111.794 28.782C111.402 28.0192 111.206 27.1349 111.206 26.1293C111.206 25.1151 111.402 24.2287 111.794 23.4702C112.186 22.7074 112.742 22.1151 113.462 21.6932C114.187 21.267 115.045 21.054 116.038 21.054C117.031 21.054 117.888 21.267 118.608 21.6932C119.332 22.1151 119.891 22.7074 120.283 23.4702C120.675 24.2287 120.871 25.1151 120.871 26.1293C120.871 27.1349 120.675 28.0192 120.283 28.782C119.891 29.5405 119.332 30.1328 118.608 30.5589C117.888 30.9808 117.031 31.1918 116.038 31.1918ZM116.051 29.0824C116.503 29.0824 116.88 28.9545 117.183 28.6989C117.485 28.4389 117.713 28.0852 117.866 27.6378C118.024 27.1903 118.103 26.6811 118.103 26.1101C118.103 25.5391 118.024 25.0298 117.866 24.5824C117.713 24.1349 117.485 23.7812 117.183 23.5213C116.88 23.2614 116.503 23.1314 116.051 23.1314C115.595 23.1314 115.212 23.2614 114.901 23.5213C114.594 23.7812 114.362 24.1349 114.204 24.5824C114.05 25.0298 113.974 25.5391 113.974 26.1101C113.974 26.6811 114.05 27.1903 114.204 27.6378C114.362 28.0852 114.594 28.4389 114.901 28.6989C115.212 28.9545 115.595 29.0824 116.051 29.0824ZM125.441 31.1854C124.815 31.1854 124.256 31.0767 123.766 30.8594C123.276 30.6378 122.888 30.3118 122.603 29.8814C122.322 29.4467 122.181 28.9055 122.181 28.2578C122.181 27.7124 122.281 27.2543 122.482 26.8835C122.682 26.5128 122.955 26.2145 123.3 25.9886C123.645 25.7628 124.037 25.5923 124.476 25.4773C124.919 25.3622 125.384 25.2812 125.869 25.2344C126.44 25.1747 126.901 25.1193 127.25 25.0682C127.599 25.0128 127.853 24.9318 128.011 24.8253C128.168 24.7187 128.247 24.5611 128.247 24.3523V24.3139C128.247 23.9091 128.119 23.5959 127.864 23.3743C127.612 23.1527 127.254 23.0419 126.79 23.0419C126.3 23.0419 125.91 23.1506 125.62 23.3679C125.33 23.581 125.138 23.8494 125.045 24.1733L122.526 23.9688C122.654 23.3722 122.906 22.8565 123.281 22.4219C123.656 21.983 124.139 21.6463 124.732 21.4119C125.328 21.1733 126.018 21.054 126.803 21.054C127.348 21.054 127.87 21.1179 128.369 21.2457C128.871 21.3736 129.317 21.5717 129.705 21.8402C130.097 22.1087 130.406 22.4538 130.631 22.8757C130.857 23.2933 130.97 23.794 130.97 24.3778V31H128.388V29.6385H128.311C128.153 29.9453 127.942 30.2159 127.678 30.4503C127.414 30.6804 127.097 30.8615 126.726 30.9936C126.355 31.1214 125.927 31.1854 125.441 31.1854ZM126.221 29.3061C126.621 29.3061 126.975 29.2273 127.282 29.0696C127.589 28.9077 127.83 28.6903 128.004 28.4176C128.179 28.1449 128.266 27.8359 128.266 27.4908V26.4489C128.181 26.5043 128.064 26.5554 127.915 26.6023C127.77 26.6449 127.606 26.6854 127.423 26.7237C127.239 26.7578 127.056 26.7898 126.873 26.8196C126.69 26.8452 126.523 26.8686 126.374 26.8899C126.055 26.9368 125.776 27.0114 125.537 27.1136C125.298 27.2159 125.113 27.3544 124.981 27.5291C124.849 27.6996 124.783 27.9126 124.783 28.1683C124.783 28.5391 124.917 28.8224 125.185 29.0185C125.458 29.2102 125.803 29.3061 126.221 29.3061ZM141.252 23.9815L138.759 24.1349C138.716 23.9219 138.625 23.7301 138.484 23.5597C138.343 23.3849 138.158 23.2464 137.928 23.1442C137.702 23.0376 137.431 22.9844 137.116 22.9844C136.694 22.9844 136.338 23.0739 136.049 23.2528C135.759 23.4276 135.614 23.6619 135.614 23.956C135.614 24.1903 135.708 24.3885 135.895 24.5504C136.083 24.7124 136.404 24.8423 136.86 24.9403L138.637 25.2983C139.592 25.4943 140.304 25.8097 140.772 26.2443C141.241 26.679 141.475 27.25 141.475 27.9574C141.475 28.6009 141.286 29.1655 140.907 29.6513C140.532 30.1371 140.016 30.5163 139.36 30.7891C138.708 31.0575 137.956 31.1918 137.103 31.1918C135.804 31.1918 134.768 30.9212 133.997 30.38C133.23 29.8345 132.78 29.093 132.648 28.1555L135.326 28.0149C135.407 28.4112 135.603 28.7138 135.914 28.9226C136.225 29.1271 136.624 29.2294 137.11 29.2294C137.587 29.2294 137.971 29.1378 138.26 28.9545C138.554 28.767 138.703 28.5263 138.708 28.2322C138.703 27.9851 138.599 27.7827 138.395 27.625C138.19 27.4631 137.875 27.3395 137.449 27.2543L135.748 26.9155C134.789 26.7237 134.076 26.3913 133.607 25.9183C133.142 25.4453 132.91 24.8423 132.91 24.1094C132.91 23.4787 133.081 22.9354 133.422 22.4794C133.767 22.0234 134.25 21.6719 134.873 21.4247C135.499 21.1776 136.232 21.054 137.071 21.054C138.311 21.054 139.287 21.3161 139.999 21.8402C140.715 22.3643 141.132 23.0781 141.252 23.9815ZM148.412 21.1818V23.2273H142.5V21.1818H148.412ZM143.842 18.8295H146.565V27.983C146.565 28.2344 146.604 28.4304 146.68 28.571C146.757 28.7074 146.863 28.8033 147 28.8587C147.14 28.9141 147.302 28.9418 147.486 28.9418C147.613 28.9418 147.741 28.9311 147.869 28.9098C147.997 28.8842 148.095 28.8651 148.163 28.8523L148.591 30.8786C148.455 30.9212 148.263 30.9702 148.016 31.0256C147.769 31.0852 147.469 31.1214 147.115 31.1342C146.459 31.1598 145.883 31.0724 145.389 30.8722C144.899 30.6719 144.518 30.3608 144.245 29.9389C143.972 29.517 143.838 28.9844 143.842 28.3409V18.8295Z" fill="#344054"/>
<g filter="url(#filter0_d_5033_1501)">
<rect width="355" height="176" transform="translate(8 8)" fill="white"/>
<rect x="8" y="8" width="6" height="176" fill="#D7260F"/>
<path d="M42 47.875C39.9114 47.875 37.9084 47.0453 36.4315 45.5685C34.9547 44.0916 34.125 42.0886 34.125 40C34.125 37.9114 34.9547 35.9084 36.4315 34.4315C37.9084 32.9547 39.9114 32.125 42 32.125C44.0886 32.125 46.0916 32.9547 47.5685 34.4315C49.0453 35.9084 49.875 37.9114 49.875 40C49.875 42.0886 49.0453 44.0916 47.5685 45.5685C46.0916 47.0453 44.0886 47.875 42 47.875ZM42 49C44.3869 49 46.6761 48.0518 48.364 46.364C50.0518 44.6761 51 42.3869 51 40C51 37.6131 50.0518 35.3239 48.364 33.636C46.6761 31.9482 44.3869 31 42 31C39.6131 31 37.3239 31.9482 35.636 33.636C33.9482 35.3239 33 37.6131 33 40C33 42.3869 33.9482 44.6761 35.636 46.364C37.3239 48.0518 39.6131 49 42 49Z" fill="#D7260F"/>
<path d="M40.8772 43.3751C40.8772 43.2274 40.9063 43.0811 40.9628 42.9446C41.0194 42.8081 41.1022 42.6841 41.2067 42.5796C41.3112 42.4752 41.4352 42.3923 41.5717 42.3357C41.7082 42.2792 41.8545 42.2501 42.0022 42.2501C42.1499 42.2501 42.2962 42.2792 42.4327 42.3357C42.5692 42.3923 42.6932 42.4752 42.7977 42.5796C42.9022 42.6841 42.985 42.8081 43.0416 42.9446C43.0981 43.0811 43.1272 43.2274 43.1272 43.3751C43.1272 43.6735 43.0087 43.9596 42.7977 44.1706C42.5867 44.3816 42.3006 44.5001 42.0022 44.5001C41.7038 44.5001 41.4177 44.3816 41.2067 44.1706C40.9957 43.9596 40.8772 43.6735 40.8772 43.3751ZM40.9874 36.6195C40.9725 36.4776 40.9875 36.3341 41.0315 36.1983C41.0756 36.0626 41.1477 35.9376 41.2432 35.8315C41.3387 35.7254 41.4554 35.6406 41.5857 35.5826C41.7161 35.5245 41.8572 35.4945 41.9999 35.4945C42.1427 35.4945 42.2838 35.5245 42.4142 35.5826C42.5445 35.6406 42.6612 35.7254 42.7567 35.8315C42.8522 35.9376 42.9243 36.0626 42.9683 36.1983C43.0124 36.3341 43.0274 36.4776 43.0124 36.6195L42.6187 40.5649C42.6055 40.7199 42.5346 40.8642 42.42 40.9695C42.3054 41.0747 42.1555 41.133 41.9999 41.133C41.8444 41.133 41.6945 41.0747 41.5799 40.9695C41.4653 40.8642 41.3944 40.7199 41.3812 40.5649L40.9874 36.6195Z" fill="#D7260F"/>
<path d="M63.0114 46V34.3636H65.4716V43.9716H70.4602V46H63.0114ZM74.5327 46.1648C73.9759 46.1648 73.4796 46.0682 73.044 45.875C72.6084 45.678 72.2637 45.3883 72.0099 45.0057C71.7599 44.6193 71.6349 44.1383 71.6349 43.5625C71.6349 43.0777 71.724 42.6705 71.902 42.3409C72.08 42.0114 72.3224 41.7462 72.6293 41.5455C72.9361 41.3447 73.2846 41.1932 73.6747 41.0909C74.0687 40.9886 74.4815 40.9167 74.9134 40.875C75.4209 40.822 75.83 40.7727 76.1406 40.7273C76.4512 40.678 76.6766 40.6061 76.8168 40.5114C76.9569 40.4167 77.027 40.2765 77.027 40.0909V40.0568C77.027 39.697 76.9134 39.4186 76.6861 39.2216C76.4626 39.0246 76.1444 38.9261 75.7315 38.9261C75.2959 38.9261 74.9493 39.0227 74.6918 39.2159C74.4342 39.4053 74.2637 39.6439 74.1804 39.9318L71.9418 39.75C72.0554 39.2197 72.2789 38.7614 72.6122 38.375C72.9455 37.9848 73.3755 37.6856 73.902 37.4773C74.4323 37.2652 75.0459 37.1591 75.7429 37.1591C76.2277 37.1591 76.6918 37.2159 77.1349 37.3295C77.5819 37.4432 77.9777 37.6193 78.3224 37.858C78.6709 38.0966 78.9455 38.4034 79.1463 38.7784C79.3471 39.1496 79.4474 39.5947 79.4474 40.1136V46H77.152V44.7898H77.0838C76.9437 45.0625 76.7562 45.303 76.5213 45.5114C76.2865 45.7159 76.0043 45.8769 75.6747 45.9943C75.3452 46.108 74.9645 46.1648 74.5327 46.1648ZM75.2259 44.4943C75.5819 44.4943 75.8963 44.4242 76.169 44.2841C76.4418 44.1402 76.6558 43.947 76.8111 43.7045C76.9664 43.4621 77.044 43.1875 77.044 42.8807V41.9545C76.9683 42.0038 76.8641 42.0492 76.7315 42.0909C76.6027 42.1288 76.4569 42.1648 76.294 42.1989C76.1312 42.2292 75.9683 42.2576 75.8054 42.2841C75.6425 42.3068 75.4948 42.3277 75.3622 42.3466C75.0781 42.3883 74.83 42.4545 74.6179 42.5455C74.4058 42.6364 74.241 42.7595 74.1236 42.9148C74.0062 43.0663 73.9474 43.2557 73.9474 43.483C73.9474 43.8125 74.0668 44.0644 74.3054 44.2386C74.5478 44.4091 74.8546 44.4943 75.2259 44.4943ZM86.9219 42.2841V37.2727H89.3423V46H87.0185V44.4148H86.9276C86.7306 44.9261 86.4029 45.3371 85.9446 45.6477C85.4901 45.9583 84.9351 46.1136 84.2798 46.1136C83.6965 46.1136 83.1832 45.9811 82.7401 45.7159C82.2969 45.4508 81.9503 45.0739 81.7003 44.5852C81.4541 44.0966 81.3291 43.5114 81.3253 42.8295V37.2727H83.7457V42.3977C83.7495 42.9129 83.8878 43.3201 84.1605 43.6193C84.4332 43.9186 84.7988 44.0682 85.2571 44.0682C85.5488 44.0682 85.8215 44.0019 86.0753 43.8693C86.3291 43.733 86.5336 43.5322 86.6889 43.267C86.848 43.0019 86.9257 42.6742 86.9219 42.2841ZM93.6989 40.9545V46H91.2784V37.2727H93.5852V38.8125H93.6875C93.8807 38.3049 94.2045 37.9034 94.6591 37.608C95.1136 37.3087 95.6648 37.1591 96.3125 37.1591C96.9186 37.1591 97.447 37.2917 97.8977 37.5568C98.3485 37.822 98.6989 38.2008 98.9489 38.6932C99.1989 39.1818 99.3239 39.7652 99.3239 40.4432V46H96.9034V40.875C96.9072 40.3409 96.7708 39.9242 96.4943 39.625C96.2178 39.322 95.8371 39.1705 95.3523 39.1705C95.0265 39.1705 94.7386 39.2405 94.4886 39.3807C94.2424 39.5208 94.0492 39.7254 93.9091 39.9943C93.7727 40.2595 93.7027 40.5795 93.6989 40.9545ZM105.175 46.1705C104.281 46.1705 103.512 45.9811 102.868 45.6023C102.228 45.2197 101.735 44.6894 101.391 44.0114C101.05 43.3333 100.879 42.553 100.879 41.6705C100.879 40.7765 101.052 39.9924 101.396 39.3182C101.745 38.6402 102.239 38.1117 102.879 37.733C103.519 37.3504 104.281 37.1591 105.163 37.1591C105.925 37.1591 106.591 37.2973 107.163 37.5739C107.735 37.8504 108.188 38.2386 108.521 38.7386C108.855 39.2386 109.038 39.8258 109.072 40.5H106.788C106.724 40.0644 106.554 39.714 106.277 39.4489C106.004 39.1799 105.646 39.0455 105.203 39.0455C104.828 39.0455 104.5 39.1477 104.22 39.3523C103.944 39.553 103.728 39.8466 103.572 40.233C103.417 40.6193 103.339 41.0871 103.339 41.6364C103.339 42.1932 103.415 42.6667 103.567 43.0568C103.722 43.447 103.94 43.7443 104.22 43.9489C104.5 44.1534 104.828 44.2557 105.203 44.2557C105.48 44.2557 105.728 44.1989 105.947 44.0852C106.171 43.9716 106.355 43.8068 106.499 43.5909C106.646 43.3712 106.743 43.108 106.788 42.8011H109.072C109.035 43.4678 108.853 44.0549 108.527 44.5625C108.205 45.0663 107.76 45.4602 107.192 45.7443C106.624 46.0284 105.951 46.1705 105.175 46.1705ZM113.043 40.9545V46H110.622V34.3636H112.974V38.8125H113.077C113.274 38.2973 113.592 37.8939 114.031 37.6023C114.471 37.3068 115.022 37.1591 115.685 37.1591C116.291 37.1591 116.819 37.2917 117.27 37.5568C117.724 37.8182 118.077 38.1951 118.327 38.6875C118.58 39.1761 118.705 39.7614 118.702 40.4432V46H116.281V40.875C116.285 40.3371 116.149 39.9186 115.872 39.6193C115.599 39.3201 115.217 39.1705 114.724 39.1705C114.395 39.1705 114.103 39.2405 113.849 39.3807C113.599 39.5208 113.402 39.7254 113.259 39.9943C113.118 40.2595 113.046 40.5795 113.043 40.9545ZM124.355 46V34.3636H132.06V36.392H126.815V39.1648H131.548V41.1932H126.815V46H124.355ZM136.048 46.1648C135.491 46.1648 134.995 46.0682 134.56 45.875C134.124 45.678 133.779 45.3883 133.526 45.0057C133.276 44.6193 133.151 44.1383 133.151 43.5625C133.151 43.0777 133.24 42.6705 133.418 42.3409C133.596 42.0114 133.838 41.7462 134.145 41.5455C134.452 41.3447 134.8 41.1932 135.19 41.0909C135.584 40.9886 135.997 40.9167 136.429 40.875C136.937 40.822 137.346 40.7727 137.656 40.7273C137.967 40.678 138.192 40.6061 138.332 40.5114C138.473 40.4167 138.543 40.2765 138.543 40.0909V40.0568C138.543 39.697 138.429 39.4186 138.202 39.2216C137.978 39.0246 137.66 38.9261 137.247 38.9261C136.812 38.9261 136.465 39.0227 136.207 39.2159C135.95 39.4053 135.779 39.6439 135.696 39.9318L133.457 39.75C133.571 39.2197 133.795 38.7614 134.128 38.375C134.461 37.9848 134.891 37.6856 135.418 37.4773C135.948 37.2652 136.562 37.1591 137.259 37.1591C137.743 37.1591 138.207 37.2159 138.651 37.3295C139.098 37.4432 139.493 37.6193 139.838 37.858C140.187 38.0966 140.461 38.4034 140.662 38.7784C140.863 39.1496 140.963 39.5947 140.963 40.1136V46H138.668V44.7898H138.599C138.459 45.0625 138.272 45.303 138.037 45.5114C137.802 45.7159 137.52 45.8769 137.19 45.9943C136.861 46.108 136.48 46.1648 136.048 46.1648ZM136.741 44.4943C137.098 44.4943 137.412 44.4242 137.685 44.2841C137.957 44.1402 138.171 43.947 138.327 43.7045C138.482 43.4621 138.56 43.1875 138.56 42.8807V41.9545C138.484 42.0038 138.38 42.0492 138.247 42.0909C138.118 42.1288 137.973 42.1648 137.81 42.1989C137.647 42.2292 137.484 42.2576 137.321 42.2841C137.158 42.3068 137.01 42.3277 136.878 42.3466C136.594 42.3883 136.346 42.4545 136.134 42.5455C135.921 42.6364 135.757 42.7595 135.639 42.9148C135.522 43.0663 135.463 43.2557 135.463 43.483C135.463 43.8125 135.582 44.0644 135.821 44.2386C136.063 44.4091 136.37 44.4943 136.741 44.4943ZM142.841 46V37.2727H145.261V46H142.841ZM144.057 36.1477C143.697 36.1477 143.388 36.0284 143.131 35.7898C142.877 35.5473 142.75 35.2576 142.75 34.9205C142.75 34.5871 142.877 34.3011 143.131 34.0625C143.388 33.8201 143.697 33.6989 144.057 33.6989C144.417 33.6989 144.723 33.8201 144.977 34.0625C145.235 34.3011 145.364 34.5871 145.364 34.9205C145.364 35.2576 145.235 35.5473 144.977 35.7898C144.723 36.0284 144.417 36.1477 144.057 36.1477ZM149.621 34.3636V46H147.2V34.3636H149.621ZM155.537 46.1705C154.639 46.1705 153.866 45.9886 153.219 45.625C152.575 45.2576 152.079 44.7386 151.73 44.0682C151.382 43.3939 151.207 42.5966 151.207 41.6761C151.207 40.7784 151.382 39.9905 151.73 39.3125C152.079 38.6345 152.569 38.1061 153.202 37.7273C153.838 37.3485 154.584 37.1591 155.44 37.1591C156.016 37.1591 156.552 37.2519 157.048 37.4375C157.548 37.6193 157.984 37.8939 158.355 38.2614C158.73 38.6288 159.022 39.0909 159.23 39.6477C159.438 40.2008 159.543 40.8485 159.543 41.5909V42.2557H152.173V40.7557H157.264C157.264 40.4072 157.188 40.0985 157.037 39.8295C156.885 39.5606 156.675 39.3504 156.406 39.1989C156.141 39.0436 155.832 38.9659 155.48 38.9659C155.113 38.9659 154.787 39.0511 154.503 39.2216C154.223 39.3883 154.003 39.6136 153.844 39.8977C153.685 40.178 153.603 40.4905 153.599 40.8352V42.2614C153.599 42.6932 153.679 43.0663 153.838 43.3807C154.001 43.6951 154.23 43.9375 154.526 44.108C154.821 44.2784 155.171 44.3636 155.577 44.3636C155.846 44.3636 156.092 44.3258 156.315 44.25C156.539 44.1742 156.73 44.0606 156.889 43.9091C157.048 43.7576 157.17 43.572 157.253 43.3523L159.491 43.5C159.378 44.0379 159.145 44.5076 158.793 44.9091C158.444 45.3068 157.993 45.6174 157.44 45.8409C156.891 46.0606 156.257 46.1705 155.537 46.1705ZM164.338 46.142C163.675 46.142 163.075 45.9716 162.537 45.6307C162.003 45.286 161.579 44.7803 161.264 44.1136C160.954 43.4432 160.798 42.6212 160.798 41.6477C160.798 40.6477 160.959 39.8163 161.281 39.1534C161.603 38.4867 162.031 37.9886 162.565 37.6591C163.103 37.3258 163.692 37.1591 164.332 37.1591C164.821 37.1591 165.228 37.2424 165.554 37.4091C165.884 37.572 166.149 37.7765 166.349 38.0227C166.554 38.2652 166.709 38.5038 166.815 38.7386H166.889V34.3636H169.304V46H166.918V44.6023H166.815C166.702 44.8447 166.541 45.0852 166.332 45.3239C166.128 45.5587 165.861 45.7538 165.531 45.9091C165.205 46.0644 164.808 46.142 164.338 46.142ZM165.105 44.2159C165.495 44.2159 165.825 44.1098 166.094 43.8977C166.366 43.6818 166.575 43.3807 166.719 42.9943C166.866 42.608 166.94 42.1553 166.94 41.6364C166.94 41.1174 166.868 40.6667 166.724 40.2841C166.58 39.9015 166.372 39.6061 166.099 39.3977C165.827 39.1894 165.495 39.0852 165.105 39.0852C164.707 39.0852 164.372 39.1932 164.099 39.4091C163.827 39.625 163.62 39.9242 163.48 40.3068C163.34 40.6894 163.27 41.1326 163.27 41.6364C163.27 42.1439 163.34 42.5928 163.48 42.983C163.624 43.3693 163.83 43.6723 164.099 43.892C164.372 44.108 164.707 44.2159 165.105 44.2159Z" fill="#D7260F"/>
<path fill-rule="evenodd" clip-rule="evenodd" d="M328.614 33.6139C328.755 33.4733 328.945 33.3943 329.144 33.3943C329.343 33.3943 329.534 33.4733 329.675 33.6139L334.978 38.9172L340.281 33.6139C340.422 33.4733 340.613 33.3943 340.812 33.3943C341.01 33.3943 341.201 33.4733 341.342 33.6139C341.483 33.7546 341.562 33.9454 341.562 34.1443C341.562 34.3432 341.483 34.534 341.342 34.6746L336.039 39.9779L341.342 45.2812C341.483 45.4219 341.562 45.6126 341.562 45.8115C341.562 46.0104 341.483 46.2012 341.342 46.3419C341.201 46.4825 341.01 46.5615 340.812 46.5615C340.613 46.5615 340.422 46.4825 340.281 46.3419L334.978 41.0386L329.675 46.3419C329.534 46.4825 329.343 46.5615 329.144 46.5615C328.945 46.5615 328.755 46.4825 328.614 46.3419C328.473 46.2012 328.394 46.0104 328.394 45.8115C328.394 45.6126 328.473 45.4219 328.614 45.2812L333.917 39.9779L328.614 34.6746C328.473 34.534 328.394 34.3432 328.394 34.1443C328.394 33.9454 328.473 33.7546 328.614 33.6139Z" fill="#344054"/>
<path d="M31.4091 86V74.3636H35.3409C36.25 74.3636 36.9962 74.5189 37.5795 74.8295C38.1629 75.1364 38.5947 75.5587 38.875 76.0966C39.1553 76.6345 39.2955 77.2462 39.2955 77.9318C39.2955 78.6174 39.1553 79.2254 38.875 79.7557C38.5947 80.286 38.1648 80.7027 37.5852 81.0057C37.0057 81.3049 36.2652 81.4545 35.3636 81.4545H32.1818V80.1818H35.3182C35.9394 80.1818 36.4394 80.0909 36.8182 79.9091C37.2008 79.7273 37.4773 79.4697 37.6477 79.1364C37.822 78.7992 37.9091 78.3977 37.9091 77.9318C37.9091 77.4659 37.822 77.0587 37.6477 76.7102C37.4735 76.3617 37.1951 76.0928 36.8125 75.9034C36.4299 75.7102 35.9242 75.6136 35.2955 75.6136H32.8182V86H31.4091ZM36.8864 80.7727L39.75 86H38.1136L35.2955 80.7727H36.8864ZM45.027 86.1818C44.1861 86.1818 43.4607 85.9962 42.8509 85.625C42.2448 85.25 41.777 84.7273 41.4474 84.0568C41.1217 83.3826 40.9588 82.5985 40.9588 81.7045C40.9588 80.8106 41.1217 80.0227 41.4474 79.3409C41.777 78.6553 42.2353 78.1212 42.8224 77.7386C43.4134 77.3523 44.1027 77.1591 44.8906 77.1591C45.3452 77.1591 45.794 77.2348 46.2372 77.3864C46.6804 77.5379 47.0838 77.7841 47.4474 78.125C47.8111 78.4621 48.1009 78.9091 48.3168 79.4659C48.5327 80.0227 48.6406 80.7083 48.6406 81.5227V82.0909H41.9134V80.9318H47.277C47.277 80.4394 47.1785 80 46.9815 79.6136C46.7884 79.2273 46.5118 78.9223 46.152 78.6989C45.7959 78.4754 45.3755 78.3636 44.8906 78.3636C44.3565 78.3636 43.8944 78.4962 43.5043 78.7614C43.1179 79.0227 42.8205 79.3636 42.6122 79.7841C42.4039 80.2045 42.2997 80.6553 42.2997 81.1364V81.9091C42.2997 82.5682 42.4134 83.1269 42.6406 83.5852C42.8717 84.0398 43.1918 84.3864 43.6009 84.625C44.0099 84.8598 44.4853 84.9773 45.027 84.9773C45.3793 84.9773 45.6974 84.928 45.9815 84.8295C46.2694 84.7273 46.5175 84.5758 46.7259 84.375C46.9342 84.1705 47.0952 83.9167 47.2088 83.6136L48.5043 83.9773C48.3679 84.4167 48.1387 84.803 47.8168 85.1364C47.4948 85.4659 47.0971 85.7235 46.6236 85.9091C46.1501 86.0909 45.6179 86.1818 45.027 86.1818ZM56.6349 89.2727V84.6591H56.5213C56.4228 84.8182 56.2827 85.0189 56.1009 85.2614C55.919 85.5 55.6596 85.714 55.3224 85.9034C54.9853 86.089 54.5365 86.1818 53.9759 86.1818C53.2486 86.1818 52.6065 85.9981 52.0497 85.6307C51.4929 85.2595 51.0573 84.7367 50.7429 84.0625C50.4285 83.3845 50.2713 82.5833 50.2713 81.6591C50.2713 80.7424 50.4285 79.947 50.7429 79.2727C51.0573 78.5985 51.4948 78.0777 52.0554 77.7102C52.616 77.3428 53.2637 77.1591 53.9986 77.1591C54.5668 77.1591 55.0156 77.2538 55.3452 77.4432C55.6785 77.6288 55.9323 77.8409 56.1065 78.0795C56.2846 78.3144 56.4228 78.5076 56.5213 78.6591H56.6804V77.2727H57.9759V89.2727H56.6349ZM54.1577 84.9773C54.6955 84.9773 55.1501 84.8371 55.5213 84.5568C55.8925 84.2727 56.1747 83.8807 56.3679 83.3807C56.5611 82.8769 56.6577 82.2955 56.6577 81.6364C56.6577 80.9848 56.563 80.4148 56.3736 79.9261C56.1842 79.4337 55.9039 79.0511 55.5327 78.7784C55.1615 78.5019 54.7031 78.3636 54.1577 78.3636C53.5895 78.3636 53.116 78.5095 52.7372 78.8011C52.3622 79.089 52.08 79.4811 51.8906 79.9773C51.705 80.4697 51.6122 81.0227 51.6122 81.6364C51.6122 82.2576 51.7069 82.822 51.8963 83.3295C52.0895 83.8333 52.3736 84.2348 52.7486 84.5341C53.1274 84.8295 53.5971 84.9773 54.1577 84.9773ZM65.9304 82.4318V77.2727H67.2713V86H65.9304V84.5227H65.8395C65.6349 84.9659 65.3168 85.3428 64.8849 85.6534C64.4531 85.9602 63.9077 86.1136 63.2486 86.1136C62.7031 86.1136 62.2183 85.9943 61.794 85.7557C61.3698 85.5133 61.0365 85.1496 60.794 84.6648C60.5516 84.1761 60.4304 83.5606 60.4304 82.8182V77.2727H61.7713V82.7273C61.7713 83.3636 61.9493 83.8712 62.3054 84.25C62.6652 84.6288 63.1236 84.8182 63.6804 84.8182C64.0137 84.8182 64.3527 84.733 64.6974 84.5625C65.0459 84.392 65.3376 84.1307 65.5724 83.7784C65.8111 83.4261 65.9304 82.9773 65.9304 82.4318ZM73.3864 86.1818C72.5455 86.1818 71.8201 85.9962 71.2102 85.625C70.6042 85.25 70.1364 84.7273 69.8068 84.0568C69.4811 83.3826 69.3182 82.5985 69.3182 81.7045C69.3182 80.8106 69.4811 80.0227 69.8068 79.3409C70.1364 78.6553 70.5947 78.1212 71.1818 77.7386C71.7727 77.3523 72.4621 77.1591 73.25 77.1591C73.7045 77.1591 74.1534 77.2348 74.5966 77.3864C75.0398 77.5379 75.4432 77.7841 75.8068 78.125C76.1705 78.4621 76.4602 78.9091 76.6761 79.4659C76.892 80.0227 77 80.7083 77 81.5227V82.0909H70.2727V80.9318H75.6364C75.6364 80.4394 75.5379 80 75.3409 79.6136C75.1477 79.2273 74.8712 78.9223 74.5114 78.6989C74.1553 78.4754 73.7348 78.3636 73.25 78.3636C72.7159 78.3636 72.2538 78.4962 71.8636 78.7614C71.4773 79.0227 71.1799 79.3636 70.9716 79.7841C70.7633 80.2045 70.6591 80.6553 70.6591 81.1364V81.9091C70.6591 82.5682 70.7727 83.1269 71 83.5852C71.2311 84.0398 71.5511 84.3864 71.9602 84.625C72.3693 84.8598 72.8447 84.9773 73.3864 84.9773C73.7386 84.9773 74.0568 84.928 74.3409 84.8295C74.6288 84.7273 74.8769 84.5758 75.0852 84.375C75.2936 84.1705 75.4545 83.9167 75.5682 83.6136L76.8636 83.9773C76.7273 84.4167 76.4981 84.803 76.1761 85.1364C75.8542 85.4659 75.4564 85.7235 74.983 85.9091C74.5095 86.0909 73.9773 86.1818 73.3864 86.1818ZM85.2216 79.2273L84.017 79.5682C83.9413 79.3674 83.8295 79.1723 83.6818 78.983C83.5379 78.7898 83.3409 78.6307 83.0909 78.5057C82.8409 78.3807 82.5208 78.3182 82.1307 78.3182C81.5966 78.3182 81.1515 78.4413 80.7955 78.6875C80.4432 78.9299 80.267 79.2386 80.267 79.6136C80.267 79.947 80.3883 80.2102 80.6307 80.4034C80.8731 80.5966 81.2519 80.7576 81.767 80.8864L83.0625 81.2045C83.8428 81.3939 84.4242 81.6837 84.8068 82.0739C85.1894 82.4602 85.3807 82.9583 85.3807 83.5682C85.3807 84.0682 85.2367 84.5152 84.9489 84.9091C84.6648 85.303 84.267 85.6136 83.7557 85.8409C83.2443 86.0682 82.6496 86.1818 81.9716 86.1818C81.0814 86.1818 80.3447 85.9886 79.7614 85.6023C79.178 85.2159 78.8087 84.6515 78.6534 83.9091L79.9261 83.5909C80.0473 84.0606 80.2765 84.4129 80.6136 84.6477C80.9545 84.8826 81.3996 85 81.9489 85C82.5739 85 83.0701 84.8674 83.4375 84.6023C83.8087 84.3333 83.9943 84.0114 83.9943 83.6364C83.9943 83.3333 83.8883 83.0795 83.6761 82.875C83.464 82.6667 83.1383 82.5114 82.6989 82.4091L81.2443 82.0682C80.4451 81.8788 79.858 81.5852 79.483 81.1875C79.1117 80.786 78.9261 80.2841 78.9261 79.6818C78.9261 79.1894 79.0644 78.7538 79.3409 78.375C79.6212 77.9962 80.0019 77.6989 80.483 77.483C80.9678 77.267 81.517 77.1591 82.1307 77.1591C82.9943 77.1591 83.6723 77.3485 84.1648 77.7273C84.661 78.1061 85.0133 78.6061 85.2216 79.2273ZM91.1946 77.2727V78.4091H86.6719V77.2727H91.1946ZM87.9901 75.1818H89.331V83.5C89.331 83.8788 89.3859 84.1629 89.4957 84.3523C89.6094 84.5379 89.7533 84.6629 89.9276 84.7273C90.1056 84.7879 90.2931 84.8182 90.4901 84.8182C90.6378 84.8182 90.759 84.8106 90.8537 84.7955C90.9484 84.7765 91.0241 84.7614 91.081 84.75L91.3537 85.9545C91.2628 85.9886 91.1359 86.0227 90.973 86.0568C90.8101 86.0947 90.6037 86.1136 90.3537 86.1136C89.9749 86.1136 89.6037 86.0322 89.2401 85.8693C88.8802 85.7064 88.581 85.4583 88.3423 85.125C88.1075 84.7917 87.9901 84.3712 87.9901 83.8636V75.1818ZM99.0526 74.3636V86H97.7116V74.3636H99.0526ZM101.509 86V77.2727H102.849V86H101.509ZM102.19 75.8182C101.929 75.8182 101.704 75.7292 101.514 75.5511C101.329 75.3731 101.236 75.1591 101.236 74.9091C101.236 74.6591 101.329 74.4451 101.514 74.267C101.704 74.089 101.929 74 102.19 74C102.452 74 102.675 74.089 102.861 74.267C103.05 74.4451 103.145 74.6591 103.145 74.9091C103.145 75.1591 103.05 75.3731 102.861 75.5511C102.675 75.7292 102.452 75.8182 102.19 75.8182ZM105.305 86V77.2727H106.601V78.6364H106.714C106.896 78.1705 107.19 77.8087 107.595 77.5511C108 77.2898 108.487 77.1591 109.055 77.1591C109.631 77.1591 110.11 77.2898 110.493 77.5511C110.879 77.8087 111.18 78.1705 111.396 78.6364H111.487C111.711 78.1856 112.046 77.8277 112.493 77.5625C112.94 77.2936 113.476 77.1591 114.101 77.1591C114.881 77.1591 115.519 77.4034 116.016 77.892C116.512 78.3769 116.76 79.1326 116.76 80.1591V86H115.419V80.1591C115.419 79.5152 115.243 79.0549 114.891 78.7784C114.538 78.5019 114.124 78.3636 113.646 78.3636C113.033 78.3636 112.557 78.5492 112.22 78.9205C111.883 79.2879 111.714 79.7538 111.714 80.3182V86H110.351V80.0227C110.351 79.5265 110.19 79.1269 109.868 78.8239C109.546 78.517 109.131 78.3636 108.624 78.3636C108.275 78.3636 107.949 78.4564 107.646 78.642C107.347 78.8277 107.105 79.0852 106.919 79.4148C106.737 79.7405 106.646 80.1174 106.646 80.5455V86H105.305ZM119.212 86V77.2727H120.553V86H119.212ZM119.893 75.8182C119.632 75.8182 119.407 75.7292 119.217 75.5511C119.032 75.3731 118.939 75.1591 118.939 74.9091C118.939 74.6591 119.032 74.4451 119.217 74.267C119.407 74.089 119.632 74 119.893 74C120.155 74 120.378 74.089 120.564 74.267C120.753 74.4451 120.848 74.6591 120.848 74.9091C120.848 75.1591 120.753 75.3731 120.564 75.5511C120.378 75.7292 120.155 75.8182 119.893 75.8182ZM126.804 77.2727V78.4091H122.281V77.2727H126.804ZM123.599 75.1818H124.94V83.5C124.94 83.8788 124.995 84.1629 125.105 84.3523C125.219 84.5379 125.363 84.6629 125.537 84.7273C125.715 84.7879 125.902 84.8182 126.099 84.8182C126.247 84.8182 126.368 84.8106 126.463 84.7955C126.558 84.7765 126.634 84.7614 126.69 84.75L126.963 85.9545C126.872 85.9886 126.745 86.0227 126.582 86.0568C126.42 86.0947 126.213 86.1136 125.963 86.1136C125.584 86.1136 125.213 86.0322 124.849 85.8693C124.49 85.7064 124.19 85.4583 123.952 85.125C123.717 84.7917 123.599 84.3712 123.599 83.8636V75.1818ZM136.98 86.1818C136.139 86.1818 135.414 85.9962 134.804 85.625C134.198 85.25 133.73 84.7273 133.401 84.0568C133.075 83.3826 132.912 82.5985 132.912 81.7045C132.912 80.8106 133.075 80.0227 133.401 79.3409C133.73 78.6553 134.188 78.1212 134.776 77.7386C135.366 77.3523 136.056 77.1591 136.844 77.1591C137.298 77.1591 137.747 77.2348 138.19 77.3864C138.634 77.5379 139.037 77.7841 139.401 78.125C139.764 78.4621 140.054 78.9091 140.27 79.4659C140.486 80.0227 140.594 80.7083 140.594 81.5227V82.0909H133.866V80.9318H139.23C139.23 80.4394 139.132 80 138.935 79.6136C138.741 79.2273 138.465 78.9223 138.105 78.6989C137.749 78.4754 137.329 78.3636 136.844 78.3636C136.31 78.3636 135.848 78.4962 135.457 78.7614C135.071 79.0227 134.774 79.3636 134.565 79.7841C134.357 80.2045 134.253 80.6553 134.253 81.1364V81.9091C134.253 82.5682 134.366 83.1269 134.594 83.5852C134.825 84.0398 135.145 84.3864 135.554 84.625C135.963 84.8598 136.438 84.9773 136.98 84.9773C137.332 84.9773 137.651 84.928 137.935 84.8295C138.223 84.7273 138.471 84.5758 138.679 84.375C138.887 84.1705 139.048 83.9167 139.162 83.6136L140.457 83.9773C140.321 84.4167 140.092 84.803 139.77 85.1364C139.448 85.4659 139.05 85.7235 138.577 85.9091C138.103 86.0909 137.571 86.1818 136.98 86.1818ZM143.399 77.2727L145.49 80.8409L147.581 77.2727H149.126L146.308 81.6364L149.126 86H147.581L145.49 82.6136L143.399 86H141.854L144.626 81.6364L141.854 77.2727H143.399ZM154.226 86.1818C153.408 86.1818 152.703 85.9886 152.112 85.6023C151.521 85.2159 151.067 84.6837 150.749 84.0057C150.43 83.3277 150.271 82.553 150.271 81.6818C150.271 80.7955 150.434 80.0133 150.76 79.3352C151.089 78.6534 151.548 78.1212 152.135 77.7386C152.726 77.3523 153.415 77.1591 154.203 77.1591C154.817 77.1591 155.37 77.2727 155.862 77.5C156.355 77.7273 156.758 78.0455 157.072 78.4545C157.387 78.8636 157.582 79.3409 157.658 79.8864H156.317C156.214 79.4886 155.987 79.1364 155.635 78.8295C155.286 78.5189 154.817 78.3636 154.226 78.3636C153.703 78.3636 153.245 78.5 152.851 78.7727C152.461 79.0417 152.156 79.4223 151.936 79.9148C151.72 80.4034 151.612 80.9773 151.612 81.6364C151.612 82.3106 151.718 82.8977 151.93 83.3977C152.146 83.8977 152.449 84.286 152.839 84.5625C153.233 84.839 153.696 84.9773 154.226 84.9773C154.574 84.9773 154.891 84.9167 155.175 84.7955C155.459 84.6742 155.699 84.5 155.896 84.2727C156.093 84.0455 156.233 83.7727 156.317 83.4545H157.658C157.582 83.9697 157.394 84.4337 157.095 84.8466C156.8 85.2557 156.408 85.5814 155.919 85.8239C155.434 86.0625 154.87 86.1818 154.226 86.1818ZM163.277 86.1818C162.436 86.1818 161.711 85.9962 161.101 85.625C160.495 85.25 160.027 84.7273 159.697 84.0568C159.372 83.3826 159.209 82.5985 159.209 81.7045C159.209 80.8106 159.372 80.0227 159.697 79.3409C160.027 78.6553 160.485 78.1212 161.072 77.7386C161.663 77.3523 162.353 77.1591 163.141 77.1591C163.595 77.1591 164.044 77.2348 164.487 77.3864C164.93 77.5379 165.334 77.7841 165.697 78.125C166.061 78.4621 166.351 78.9091 166.567 79.4659C166.783 80.0227 166.891 80.7083 166.891 81.5227V82.0909H160.163V80.9318H165.527C165.527 80.4394 165.429 80 165.232 79.6136C165.038 79.2273 164.762 78.9223 164.402 78.6989C164.046 78.4754 163.625 78.3636 163.141 78.3636C162.607 78.3636 162.144 78.4962 161.754 78.7614C161.368 79.0227 161.071 79.3636 160.862 79.7841C160.654 80.2045 160.55 80.6553 160.55 81.1364V81.9091C160.55 82.5682 160.663 83.1269 160.891 83.5852C161.122 84.0398 161.442 84.3864 161.851 84.625C162.26 84.8598 162.735 84.9773 163.277 84.9773C163.629 84.9773 163.947 84.928 164.232 84.8295C164.519 84.7273 164.768 84.5758 164.976 84.375C165.184 84.1705 165.345 83.9167 165.459 83.6136L166.754 83.9773C166.618 84.4167 166.389 84.803 166.067 85.1364C165.745 85.4659 165.347 85.7235 164.874 85.9091C164.4 86.0909 163.868 86.1818 163.277 86.1818ZM172.589 86.1818C171.749 86.1818 171.023 85.9962 170.413 85.625C169.807 85.25 169.339 84.7273 169.01 84.0568C168.684 83.3826 168.521 82.5985 168.521 81.7045C168.521 80.8106 168.684 80.0227 169.01 79.3409C169.339 78.6553 169.798 78.1212 170.385 77.7386C170.976 77.3523 171.665 77.1591 172.453 77.1591C172.908 77.1591 173.357 77.2348 173.8 77.3864C174.243 77.5379 174.646 77.7841 175.01 78.125C175.374 78.4621 175.663 78.9091 175.879 79.4659C176.095 80.0227 176.203 80.7083 176.203 81.5227V82.0909H169.476V80.9318H174.839C174.839 80.4394 174.741 80 174.544 79.6136C174.351 79.2273 174.074 78.9223 173.714 78.6989C173.358 78.4754 172.938 78.3636 172.453 78.3636C171.919 78.3636 171.457 78.4962 171.067 78.7614C170.68 79.0227 170.383 79.3636 170.175 79.7841C169.966 80.2045 169.862 80.6553 169.862 81.1364V81.9091C169.862 82.5682 169.976 83.1269 170.203 83.5852C170.434 84.0398 170.754 84.3864 171.163 84.625C171.572 84.8598 172.048 84.9773 172.589 84.9773C172.942 84.9773 173.26 84.928 173.544 84.8295C173.832 84.7273 174.08 84.5758 174.288 84.375C174.497 84.1705 174.658 83.9167 174.771 83.6136L176.067 83.9773C175.93 84.4167 175.701 84.803 175.379 85.1364C175.057 85.4659 174.66 85.7235 174.186 85.9091C173.713 86.0909 173.18 86.1818 172.589 86.1818ZM181.538 86.1818C180.811 86.1818 180.169 85.9981 179.612 85.6307C179.055 85.2595 178.62 84.7367 178.305 84.0625C177.991 83.3845 177.834 82.5833 177.834 81.6591C177.834 80.7424 177.991 79.947 178.305 79.2727C178.62 78.5985 179.057 78.0777 179.618 77.7102C180.179 77.3428 180.826 77.1591 181.561 77.1591C182.129 77.1591 182.578 77.2538 182.908 77.4432C183.241 77.6288 183.495 77.8409 183.669 78.0795C183.847 78.3144 183.985 78.5076 184.084 78.6591H184.197V74.3636H185.538V86H184.243V84.6591H184.084C183.985 84.8182 183.845 85.0189 183.663 85.2614C183.482 85.5 183.222 85.714 182.885 85.9034C182.548 86.089 182.099 86.1818 181.538 86.1818ZM181.72 84.9773C182.258 84.9773 182.713 84.8371 183.084 84.5568C183.455 84.2727 183.737 83.8807 183.93 83.3807C184.124 82.8769 184.22 82.2955 184.22 81.6364C184.22 80.9848 184.125 80.4148 183.936 79.9261C183.747 79.4337 183.466 79.0511 183.095 78.7784C182.724 78.5019 182.266 78.3636 181.72 78.3636C181.152 78.3636 180.679 78.5095 180.3 78.8011C179.925 79.089 179.643 79.4811 179.453 79.9773C179.268 80.4697 179.175 81.0227 179.175 81.6364C179.175 82.2576 179.269 82.822 179.459 83.3295C179.652 83.8333 179.936 84.2348 180.311 84.5341C180.69 84.8295 181.16 84.9773 181.72 84.9773ZM191.839 86.1818C190.999 86.1818 190.273 85.9962 189.663 85.625C189.057 85.25 188.589 84.7273 188.26 84.0568C187.934 83.3826 187.771 82.5985 187.771 81.7045C187.771 80.8106 187.934 80.0227 188.26 79.3409C188.589 78.6553 189.048 78.1212 189.635 77.7386C190.226 77.3523 190.915 77.1591 191.703 77.1591C192.158 77.1591 192.607 77.2348 193.05 77.3864C193.493 77.5379 193.896 77.7841 194.26 78.125C194.624 78.4621 194.913 78.9091 195.129 79.4659C195.345 80.0227 195.453 80.7083 195.453 81.5227V82.0909H188.726V80.9318H194.089C194.089 80.4394 193.991 80 193.794 79.6136C193.601 79.2273 193.324 78.9223 192.964 78.6989C192.608 78.4754 192.188 78.3636 191.703 78.3636C191.169 78.3636 190.707 78.4962 190.317 78.7614C189.93 79.0227 189.633 79.3636 189.425 79.7841C189.216 80.2045 189.112 80.6553 189.112 81.1364V81.9091C189.112 82.5682 189.226 83.1269 189.453 83.5852C189.684 84.0398 190.004 84.3864 190.413 84.625C190.822 84.8598 191.298 84.9773 191.839 84.9773C192.192 84.9773 192.51 84.928 192.794 84.8295C193.082 84.7273 193.33 84.5758 193.538 84.375C193.747 84.1705 193.908 83.9167 194.021 83.6136L195.317 83.9773C195.18 84.4167 194.951 84.803 194.629 85.1364C194.307 85.4659 193.91 85.7235 193.436 85.9091C192.963 86.0909 192.43 86.1818 191.839 86.1818ZM200.788 86.1818C200.061 86.1818 199.419 85.9981 198.862 85.6307C198.305 85.2595 197.87 84.7367 197.555 84.0625C197.241 83.3845 197.084 82.5833 197.084 81.6591C197.084 80.7424 197.241 79.947 197.555 79.2727C197.87 78.5985 198.307 78.0777 198.868 77.7102C199.429 77.3428 200.076 77.1591 200.811 77.1591C201.379 77.1591 201.828 77.2538 202.158 77.4432C202.491 77.6288 202.745 77.8409 202.919 78.0795C203.097 78.3144 203.235 78.5076 203.334 78.6591H203.447V74.3636H204.788V86H203.493V84.6591H203.334C203.235 84.8182 203.095 85.0189 202.913 85.2614C202.732 85.5 202.472 85.714 202.135 85.9034C201.798 86.089 201.349 86.1818 200.788 86.1818ZM200.97 84.9773C201.508 84.9773 201.963 84.8371 202.334 84.5568C202.705 84.2727 202.987 83.8807 203.18 83.3807C203.374 82.8769 203.47 82.2955 203.47 81.6364C203.47 80.9848 203.375 80.4148 203.186 79.9261C202.997 79.4337 202.716 79.0511 202.345 78.7784C201.974 78.5019 201.516 78.3636 200.97 78.3636C200.402 78.3636 199.929 78.5095 199.55 78.8011C199.175 79.089 198.893 79.4811 198.703 79.9773C198.518 80.4697 198.425 81.0227 198.425 81.6364C198.425 82.2576 198.519 82.822 198.709 83.3295C198.902 83.8333 199.186 84.2348 199.561 84.5341C199.94 84.8295 200.41 84.9773 200.97 84.9773ZM208.408 86.0909C208.127 86.0909 207.887 85.9905 207.686 85.7898C207.485 85.589 207.385 85.3485 207.385 85.0682C207.385 84.7879 207.485 84.5473 207.686 84.3466C207.887 84.1458 208.127 84.0455 208.408 84.0455C208.688 84.0455 208.929 84.1458 209.129 84.3466C209.33 84.5473 209.43 84.7879 209.43 85.0682C209.43 85.2538 209.383 85.4242 209.288 85.5795C209.197 85.7348 209.074 85.8598 208.919 85.9545C208.768 86.0455 208.597 86.0909 208.408 86.0909Z" fill="#344054"/>
<path d="M30 133C30 130.239 32.2386 128 35 128H119C121.761 128 124 130.239 124 133V163C124 165.761 121.761 168 119 168H35C32.2386 168 30 165.761 30 163V133Z" fill="white"/>
<path d="M47.0853 143.912V142.818H54.7217V143.912H51.52V153H50.287V143.912H47.0853ZM55.6725 153V145.364H56.806V146.517H56.8856C57.0248 146.139 57.2767 145.833 57.6412 145.597C58.0058 145.362 58.4168 145.244 58.8742 145.244C58.9604 145.244 59.0681 145.246 59.1974 145.249C59.3266 145.253 59.4244 145.258 59.4907 145.264V146.457C59.4509 146.447 59.3598 146.433 59.2172 146.413C59.078 146.389 58.9305 146.378 58.7748 146.378C58.4036 146.378 58.0721 146.456 57.7805 146.612C57.4921 146.764 57.2634 146.976 57.0944 147.248C56.9287 147.516 56.8458 147.823 56.8458 148.168V153H55.6725ZM61.8696 155.864C61.6707 155.864 61.4934 155.847 61.3376 155.814C61.1818 155.784 61.0741 155.754 61.0145 155.724L61.3128 154.69C61.5978 154.763 61.8497 154.79 62.0684 154.77C62.2872 154.75 62.4811 154.652 62.6501 154.477C62.8225 154.304 62.9799 154.024 63.1224 153.636L63.3412 153.04L60.5173 145.364H61.79L63.898 151.449H63.9775L66.0855 145.364H67.3582L64.1167 154.114C63.9709 154.508 63.7903 154.835 63.5748 155.093C63.3594 155.355 63.1092 155.549 62.8241 155.675C62.5424 155.801 62.2242 155.864 61.8696 155.864ZM75.0915 153.179C74.6076 153.179 74.1685 153.088 73.7741 152.906C73.3796 152.72 73.0664 152.453 72.8344 152.105C72.6024 151.754 72.4864 151.33 72.4864 150.832C72.4864 150.395 72.5726 150.04 72.7449 149.768C72.9173 149.493 73.1476 149.278 73.436 149.122C73.7243 148.966 74.0425 148.85 74.3905 148.774C74.7419 148.695 75.0948 148.632 75.4495 148.585C75.9135 148.526 76.2897 148.481 76.578 148.451C76.8697 148.418 77.0818 148.363 77.2144 148.287C77.3503 148.211 77.4182 148.078 77.4182 147.889V147.849C77.4182 147.359 77.284 146.978 77.0155 146.706C76.7504 146.434 76.3477 146.298 75.8074 146.298C75.2473 146.298 74.8082 146.421 74.49 146.666C74.1718 146.911 73.9481 147.173 73.8188 147.452L72.7052 147.054C72.904 146.59 73.1692 146.229 73.5006 145.97C73.8354 145.708 74.2 145.526 74.5944 145.423C74.9921 145.317 75.3832 145.264 75.7677 145.264C76.0129 145.264 76.2947 145.294 76.6128 145.354C76.9343 145.41 77.2442 145.528 77.5425 145.707C77.8441 145.886 78.0944 146.156 78.2932 146.517C78.4921 146.878 78.5915 147.362 78.5915 147.969V153H77.4182V151.966H77.3586C77.279 152.132 77.1465 152.309 76.9608 152.498C76.7752 152.687 76.5283 152.848 76.2201 152.98C75.9118 153.113 75.5357 153.179 75.0915 153.179ZM75.2705 152.125C75.7345 152.125 76.1256 152.034 76.4438 151.852C76.7653 151.669 77.0073 151.434 77.1697 151.146C77.3354 150.857 77.4182 150.554 77.4182 150.236V149.162C77.3685 149.222 77.2591 149.276 77.0901 149.326C76.9244 149.372 76.7322 149.414 76.5134 149.45C76.298 149.483 76.0875 149.513 75.882 149.54C75.6798 149.563 75.5158 149.583 75.3898 149.599C75.0849 149.639 74.7999 149.704 74.5347 149.793C74.2729 149.879 74.0608 150.01 73.8983 150.186C73.7393 150.358 73.6597 150.594 73.6597 150.892C73.6597 151.3 73.8105 151.608 74.1121 151.817C74.4171 152.022 74.8032 152.125 75.2705 152.125ZM83.8154 156.023C83.2487 156.023 82.7615 155.95 82.3538 155.804C81.9461 155.661 81.6064 155.473 81.3346 155.237C81.0661 155.005 80.8524 154.757 80.6933 154.491L81.6279 153.835C81.734 153.974 81.8682 154.134 82.0306 154.312C82.193 154.495 82.4151 154.652 82.6968 154.785C82.9819 154.921 83.3547 154.989 83.8154 154.989C84.4319 154.989 84.9407 154.839 85.3417 154.541C85.7428 154.243 85.9433 153.776 85.9433 153.139V151.588H85.8438C85.7577 151.727 85.635 151.9 85.4759 152.105C85.3202 152.307 85.0948 152.488 84.7998 152.647C84.5081 152.803 84.1137 152.881 83.6166 152.881C83.0001 152.881 82.4466 152.735 81.9561 152.443C81.4688 152.152 81.0827 151.727 80.7977 151.17C80.516 150.614 80.3751 149.937 80.3751 149.142C80.3751 148.36 80.5126 147.679 80.7877 147.099C81.0628 146.515 81.4456 146.065 81.9362 145.746C82.4267 145.425 82.9935 145.264 83.6365 145.264C84.1336 145.264 84.528 145.347 84.8197 145.513C85.1147 145.675 85.3401 145.861 85.4958 146.07C85.6549 146.275 85.7776 146.444 85.8637 146.577H85.983V145.364H87.1166V153.219C87.1166 153.875 86.9674 154.409 86.6691 154.82C86.3741 155.234 85.9764 155.537 85.4759 155.729C84.9788 155.925 84.4253 156.023 83.8154 156.023ZM83.7757 151.827C84.2463 151.827 84.644 151.719 84.9688 151.504C85.2936 151.288 85.5406 150.978 85.7096 150.574C85.8786 150.17 85.9632 149.686 85.9632 149.122C85.9632 148.572 85.8803 148.086 85.7146 147.665C85.5489 147.245 85.3036 146.915 84.9788 146.676C84.654 146.437 84.2529 146.318 83.7757 146.318C83.2785 146.318 82.8642 146.444 82.5328 146.696C82.2046 146.948 81.9577 147.286 81.792 147.71C81.6296 148.134 81.5484 148.605 81.5484 149.122C81.5484 149.652 81.6312 150.121 81.797 150.529C81.966 150.933 82.2146 151.252 82.5427 151.484C82.8741 151.712 83.2851 151.827 83.7757 151.827ZM91.5115 153.179C91.0276 153.179 90.5884 153.088 90.194 152.906C89.7996 152.72 89.4864 152.453 89.2544 152.105C89.0223 151.754 88.9063 151.33 88.9063 150.832C88.9063 150.395 88.9925 150.04 89.1649 149.768C89.3372 149.493 89.5676 149.278 89.8559 149.122C90.1443 148.966 90.4624 148.85 90.8105 148.774C91.1618 148.695 91.5148 148.632 91.8694 148.585C92.3334 148.526 92.7096 148.481 92.998 148.451C93.2896 148.418 93.5017 148.363 93.6343 148.287C93.7702 148.211 93.8382 148.078 93.8382 147.889V147.849C93.8382 147.359 93.7039 146.978 93.4355 146.706C93.1703 146.434 92.7676 146.298 92.2274 146.298C91.6672 146.298 91.2281 146.421 90.9099 146.666C90.5917 146.911 90.368 147.173 90.2387 147.452L89.1251 147.054C89.324 146.59 89.5891 146.229 89.9205 145.97C90.2553 145.708 90.6199 145.526 91.0143 145.423C91.412 145.317 91.8031 145.264 92.1876 145.264C92.4329 145.264 92.7146 145.294 93.0328 145.354C93.3543 145.41 93.6642 145.528 93.9624 145.707C94.2641 145.886 94.5143 146.156 94.7132 146.517C94.912 146.878 95.0115 147.362 95.0115 147.969V153H93.8382V151.966H93.7785C93.699 152.132 93.5664 152.309 93.3808 152.498C93.1952 152.687 92.9482 152.848 92.64 152.98C92.3318 153.113 91.9556 153.179 91.5115 153.179ZM91.6904 152.125C92.1544 152.125 92.5455 152.034 92.8637 151.852C93.1852 151.669 93.4272 151.434 93.5896 151.146C93.7553 150.857 93.8382 150.554 93.8382 150.236V149.162C93.7884 149.222 93.6791 149.276 93.51 149.326C93.3443 149.372 93.1521 149.414 92.9333 149.45C92.7179 149.483 92.5074 149.513 92.3019 149.54C92.0998 149.563 91.9357 149.583 91.8097 149.599C91.5048 149.639 91.2198 149.704 90.9546 149.793C90.6928 149.879 90.4807 150.01 90.3183 150.186C90.1592 150.358 90.0796 150.594 90.0796 150.892C90.0796 151.3 90.2304 151.608 90.532 151.817C90.837 152.022 91.2231 152.125 91.6904 152.125ZM97.153 153V145.364H98.3263V153H97.153ZM97.7496 144.091C97.5209 144.091 97.3237 144.013 97.1579 143.857C96.9955 143.701 96.9143 143.514 96.9143 143.295C96.9143 143.077 96.9955 142.889 97.1579 142.734C97.3237 142.578 97.5209 142.5 97.7496 142.5C97.9782 142.5 98.1738 142.578 98.3362 142.734C98.5019 142.889 98.5848 143.077 98.5848 143.295C98.5848 143.514 98.5019 143.701 98.3362 143.857C98.1738 144.013 97.9782 144.091 97.7496 144.091ZM101.649 148.406V153H100.475V145.364H101.609V146.557H101.708C101.887 146.169 102.159 145.857 102.524 145.622C102.888 145.384 103.359 145.264 103.935 145.264C104.453 145.264 104.905 145.37 105.293 145.582C105.68 145.791 105.982 146.109 106.198 146.537C106.413 146.961 106.521 147.498 106.521 148.148V153H105.347V148.227C105.347 147.627 105.192 147.16 104.88 146.825C104.569 146.487 104.141 146.318 103.597 146.318C103.223 146.318 102.888 146.399 102.593 146.562C102.301 146.724 102.071 146.961 101.902 147.273C101.733 147.584 101.649 147.962 101.649 148.406Z" fill="#344054"/>
<path d="M35 129H119V127H35V129ZM123 133V163H125V133H123ZM119 167H35V169H119V167ZM31 163V133H29V163H31ZM35 167C32.7909 167 31 165.209 31 163H29C29 166.314 31.6863 169 35 169V167ZM123 163C123 165.209 121.209 167 119 167V169C122.314 169 125 166.314 125 163H123ZM119 129C121.209 129 123 130.791 123 133H125C125 129.686 122.314 127 119 127V129ZM35 127C31.6863 127 29 129.686 29 133H31C31 130.791 32.7909 129 35 129V127Z" fill="#344054"/>
</g>
<rect x="8" y="8" width="355" height="16" fill="#E8178A" fill-opacity="0.24"/>
<rect x="8" y="96" width="355" height="32" fill="#E8178A" fill-opacity="0.24"/>
<rect x="8" y="168" width="355" height="16" fill="#E8178A" fill-opacity="0.24"/>
<rect x="14" y="8" width="16" height="176" fill="#E8178A" fill-opacity="0.24"/>
<rect x="347" y="8" width="16" height="176" fill="#E8178A" fill-opacity="0.24"/>
<path d="M373.5 8V24" stroke="#E8178A"/>
<rect x="378" y="8.5" width="36" height="18" rx="3" fill="#E8178A"/>
<path d="M387.754 14.2273V21.5H386.216V15.6868H386.173L384.508 16.7308V15.3672L386.308 14.2273H387.754ZM392.273 21.5994C391.899 21.5971 391.538 21.5343 391.19 21.4112C390.845 21.2881 390.534 21.0881 390.26 20.8111C389.985 20.5341 389.767 20.1671 389.606 19.7102C389.448 19.2533 389.368 18.6922 389.368 18.027C389.371 17.4162 389.441 16.8705 389.578 16.3899C389.718 15.907 389.916 15.4974 390.175 15.1612C390.435 14.825 390.746 14.5694 391.108 14.3942C391.471 14.2166 391.877 14.1278 392.327 14.1278C392.812 14.1278 393.24 14.2225 393.612 14.4119C393.984 14.599 394.282 14.8535 394.507 15.1754C394.734 15.4974 394.872 15.8584 394.919 16.2585H393.403C393.343 16.0052 393.219 15.8063 393.03 15.6619C392.84 15.5175 392.606 15.4453 392.327 15.4453C391.853 15.4453 391.493 15.6513 391.247 16.0632C391.003 16.4751 390.879 17.035 390.874 17.7429H390.924C391.033 17.5275 391.18 17.344 391.364 17.1925C391.551 17.0386 391.763 16.9214 392 16.8409C392.239 16.758 392.491 16.7166 392.756 16.7166C393.187 16.7166 393.571 16.8184 393.907 17.022C394.243 17.2232 394.508 17.5002 394.702 17.853C394.896 18.2057 394.993 18.6094 394.993 19.0639C394.993 19.5563 394.879 19.9943 394.649 20.3778C394.422 20.7614 394.103 21.062 393.694 21.2798C393.287 21.4953 392.813 21.6018 392.273 21.5994ZM392.266 20.392C392.503 20.392 392.715 20.3352 392.902 20.2216C393.089 20.108 393.236 19.9541 393.342 19.7599C393.449 19.5658 393.502 19.348 393.502 19.1065C393.502 18.8651 393.449 18.6484 393.342 18.4567C393.238 18.2649 393.094 18.1122 392.909 17.9986C392.724 17.8849 392.514 17.8281 392.277 17.8281C392.099 17.8281 391.935 17.8613 391.783 17.9276C391.634 17.9938 391.503 18.0862 391.389 18.2045C391.278 18.3229 391.19 18.4602 391.126 18.6165C391.062 18.7704 391.03 18.9349 391.03 19.1101C391.03 19.3445 391.084 19.5587 391.19 19.7528C391.299 19.947 391.446 20.102 391.631 20.218C391.818 20.334 392.029 20.392 392.266 20.392ZM396.098 23.5455V16.0455H397.589V16.9616H397.657C397.723 16.8149 397.819 16.6657 397.944 16.5142C398.072 16.3603 398.238 16.2325 398.442 16.1307C398.648 16.0265 398.903 15.9744 399.209 15.9744C399.606 15.9744 399.973 16.0786 400.309 16.2869C400.646 16.4929 400.914 16.8042 401.116 17.2209C401.317 17.6352 401.417 18.1548 401.417 18.7798C401.417 19.3883 401.319 19.902 401.123 20.321C400.929 20.7377 400.663 21.0537 400.327 21.2692C399.993 21.4822 399.619 21.5888 399.205 21.5888C398.912 21.5888 398.662 21.5402 398.456 21.4432C398.252 21.3461 398.085 21.2242 397.955 21.0774C397.825 20.9283 397.725 20.7779 397.657 20.6264H397.611V23.5455H396.098ZM397.579 18.7727C397.579 19.0971 397.624 19.38 397.714 19.6214C397.804 19.8629 397.934 20.0511 398.104 20.1861C398.275 20.3187 398.482 20.3849 398.726 20.3849C398.972 20.3849 399.18 20.3175 399.351 20.1825C399.521 20.0452 399.65 19.8558 399.738 19.6143C399.828 19.3705 399.873 19.09 399.873 18.7727C399.873 18.4579 399.829 18.1809 399.741 17.9418C399.654 17.7027 399.525 17.5156 399.354 17.3807C399.184 17.2457 398.974 17.1783 398.726 17.1783C398.479 17.1783 398.271 17.2434 398.101 17.3736C397.933 17.5038 397.804 17.6884 397.714 17.9276C397.624 18.1667 397.579 18.4484 397.579 18.7727ZM403.495 16.0455L404.496 17.9524L405.523 16.0455H407.074L405.494 18.7727L407.117 21.5H405.572L404.496 19.6143L403.438 21.5H401.876L403.495 18.7727L401.932 16.0455H403.495Z" fill="white"/>
<line x1="370" y1="8.5" x2="377" y2="8.5" stroke="#E8178A"/>
<line x1="370" y1="23.5" x2="377" y2="23.5" stroke="#E8178A"/>
<path d="M14 200.5H30" stroke="#E8178A"/>
<rect x="4" y="205" width="36" height="18" rx="3" fill="#E8178A"/>
<path d="M13.7536 210.727V218H12.2159V212.187H12.1733L10.5078 213.231V211.867L12.3082 210.727H13.7536ZM18.2733 218.099C17.8992 218.097 17.5382 218.034 17.1902 217.911C16.8445 217.788 16.5344 217.588 16.2598 217.311C15.9851 217.034 15.7673 216.667 15.6064 216.21C15.4477 215.753 15.3684 215.192 15.3684 214.527C15.3708 213.916 15.4406 213.371 15.5779 212.89C15.7176 212.407 15.9165 211.997 16.1745 211.661C16.435 211.325 16.7463 211.069 17.1085 210.894C17.4707 210.717 17.8767 210.628 18.3265 210.628C18.8118 210.628 19.2404 210.723 19.612 210.912C19.9837 211.099 20.282 211.353 20.5069 211.675C20.7342 211.997 20.8715 212.358 20.9189 212.759H19.4025C19.3433 212.505 19.219 212.306 19.0297 212.162C18.8403 212.018 18.6059 211.945 18.3265 211.945C17.853 211.945 17.4932 212.151 17.247 212.563C17.0031 212.975 16.8788 213.535 16.8741 214.243H16.9238C17.0327 214.027 17.1795 213.844 17.3642 213.692C17.5512 213.539 17.7631 213.421 17.9998 213.341C18.2389 213.258 18.4911 213.217 18.7562 213.217C19.1871 213.217 19.5706 213.318 19.9068 213.522C20.243 213.723 20.5081 214 20.7022 214.353C20.8964 214.706 20.9934 215.109 20.9934 215.564C20.9934 216.056 20.8786 216.494 20.649 216.878C20.4217 217.261 20.1033 217.562 19.6937 217.78C19.2865 217.995 18.813 218.102 18.2733 218.099ZM18.2662 216.892C18.5029 216.892 18.7148 216.835 18.9018 216.722C19.0888 216.608 19.2356 216.454 19.3422 216.26C19.4487 216.066 19.502 215.848 19.502 215.607C19.502 215.365 19.4487 215.148 19.3422 214.957C19.238 214.765 19.0936 214.612 18.9089 214.499C18.7243 214.385 18.5136 214.328 18.2768 214.328C18.0993 214.328 17.9347 214.361 17.7832 214.428C17.6341 214.494 17.5027 214.586 17.389 214.705C17.2778 214.823 17.1902 214.96 17.1262 215.116C17.0623 215.27 17.0304 215.435 17.0304 215.61C17.0304 215.844 17.0836 216.059 17.1902 216.253C17.2991 216.447 17.4458 216.602 17.6305 216.718C17.8175 216.834 18.0294 216.892 18.2662 216.892ZM22.0978 220.045V212.545H23.5893V213.462H23.6568C23.7231 213.315 23.819 213.166 23.9444 213.014C24.0723 212.86 24.238 212.732 24.4416 212.631C24.6475 212.527 24.9032 212.474 25.2086 212.474C25.6064 212.474 25.9733 212.579 26.3095 212.787C26.6457 212.993 26.9144 213.304 27.1156 213.721C27.3168 214.135 27.4174 214.655 27.4174 215.28C27.4174 215.888 27.3192 216.402 27.1227 216.821C26.9286 217.238 26.6634 217.554 26.3272 217.769C25.9934 217.982 25.6194 218.089 25.2051 218.089C24.9115 218.089 24.6618 218.04 24.4558 217.943C24.2522 217.846 24.0853 217.724 23.9551 217.577C23.8249 217.428 23.7254 217.278 23.6568 217.126H23.6106V220.045H22.0978ZM23.5787 215.273C23.5787 215.597 23.6236 215.88 23.7136 216.121C23.8036 216.363 23.9338 216.551 24.1042 216.686C24.2747 216.819 24.4818 216.885 24.7257 216.885C24.9719 216.885 25.1802 216.817 25.3507 216.683C25.5211 216.545 25.6502 216.356 25.7377 216.114C25.8277 215.871 25.8727 215.59 25.8727 215.273C25.8727 214.958 25.8289 214.681 25.7413 214.442C25.6537 214.203 25.5247 214.016 25.3542 213.881C25.1838 213.746 24.9743 213.678 24.7257 213.678C24.4795 213.678 24.2711 213.743 24.1007 213.874C23.9326 214.004 23.8036 214.188 23.7136 214.428C23.6236 214.667 23.5787 214.948 23.5787 215.273ZM29.4949 212.545L30.4963 214.452L31.5225 212.545H33.0744L31.4941 215.273L33.117 218H31.5723L30.4963 216.114L29.438 218H27.8755L29.4949 215.273L27.9324 212.545H29.4949Z" fill="white"/>
<line x1="14.5" y1="204" x2="14.5" y2="197" stroke="#E8178A"/>
<line x1="29.5" y1="204" x2="29.5" y2="197" stroke="#E8178A"/>
<path d="M347 200.5H363" stroke="#E8178A"/>
<rect x="337" y="205" width="36" height="18" rx="3" fill="#E8178A"/>
<path d="M346.754 210.727V218H345.216V212.187H345.173L343.508 213.231V211.867L345.308 210.727H346.754ZM351.273 218.099C350.899 218.097 350.538 218.034 350.19 217.911C349.845 217.788 349.534 217.588 349.26 217.311C348.985 217.034 348.767 216.667 348.606 216.21C348.448 215.753 348.368 215.192 348.368 214.527C348.371 213.916 348.441 213.371 348.578 212.89C348.718 212.407 348.916 211.997 349.175 211.661C349.435 211.325 349.746 211.069 350.108 210.894C350.471 210.717 350.877 210.628 351.327 210.628C351.812 210.628 352.24 210.723 352.612 210.912C352.984 211.099 353.282 211.353 353.507 211.675C353.734 211.997 353.872 212.358 353.919 212.759H352.403C352.343 212.505 352.219 212.306 352.03 212.162C351.84 212.018 351.606 211.945 351.327 211.945C350.853 211.945 350.493 212.151 350.247 212.563C350.003 212.975 349.879 213.535 349.874 214.243H349.924C350.033 214.027 350.18 213.844 350.364 213.692C350.551 213.539 350.763 213.421 351 213.341C351.239 213.258 351.491 213.217 351.756 213.217C352.187 213.217 352.571 213.318 352.907 213.522C353.243 213.723 353.508 214 353.702 214.353C353.896 214.706 353.993 215.109 353.993 215.564C353.993 216.056 353.879 216.494 353.649 216.878C353.422 217.261 353.103 217.562 352.694 217.78C352.287 217.995 351.813 218.102 351.273 218.099ZM351.266 216.892C351.503 216.892 351.715 216.835 351.902 216.722C352.089 216.608 352.236 216.454 352.342 216.26C352.449 216.066 352.502 215.848 352.502 215.607C352.502 215.365 352.449 215.148 352.342 214.957C352.238 214.765 352.094 214.612 351.909 214.499C351.724 214.385 351.514 214.328 351.277 214.328C351.099 214.328 350.935 214.361 350.783 214.428C350.634 214.494 350.503 214.586 350.389 214.705C350.278 214.823 350.19 214.96 350.126 215.116C350.062 215.27 350.03 215.435 350.03 215.61C350.03 215.844 350.084 216.059 350.19 216.253C350.299 216.447 350.446 216.602 350.631 216.718C350.818 216.834 351.029 216.892 351.266 216.892ZM355.098 220.045V212.545H356.589V213.462H356.657C356.723 213.315 356.819 213.166 356.944 213.014C357.072 212.86 357.238 212.732 357.442 212.631C357.648 212.527 357.903 212.474 358.209 212.474C358.606 212.474 358.973 212.579 359.309 212.787C359.646 212.993 359.914 213.304 360.116 213.721C360.317 214.135 360.417 214.655 360.417 215.28C360.417 215.888 360.319 216.402 360.123 216.821C359.929 217.238 359.663 217.554 359.327 217.769C358.993 217.982 358.619 218.089 358.205 218.089C357.912 218.089 357.662 218.04 357.456 217.943C357.252 217.846 357.085 217.724 356.955 217.577C356.825 217.428 356.725 217.278 356.657 217.126H356.611V220.045H355.098ZM356.579 215.273C356.579 215.597 356.624 215.88 356.714 216.121C356.804 216.363 356.934 216.551 357.104 216.686C357.275 216.819 357.482 216.885 357.726 216.885C357.972 216.885 358.18 216.817 358.351 216.683C358.521 216.545 358.65 216.356 358.738 216.114C358.828 215.871 358.873 215.59 358.873 215.273C358.873 214.958 358.829 214.681 358.741 214.442C358.654 214.203 358.525 214.016 358.354 213.881C358.184 213.746 357.974 213.678 357.726 213.678C357.479 213.678 357.271 213.743 357.101 213.874C356.933 214.004 356.804 214.188 356.714 214.428C356.624 214.667 356.579 214.948 356.579 215.273ZM362.495 212.545L363.496 214.452L364.523 212.545H366.074L364.494 215.273L366.117 218H364.572L363.496 216.114L362.438 218H360.876L362.495 215.273L360.932 212.545H362.495Z" fill="white"/>
<line x1="347.5" y1="204" x2="347.5" y2="197" stroke="#E8178A"/>
<line x1="362.5" y1="204" x2="362.5" y2="197" stroke="#E8178A"/>
<path d="M379.5 96V128" stroke="#E8178A"/>
<rect x="384" y="104.5" width="37" height="18" rx="3" fill="#E8178A"/>
<path d="M393.278 117.599C392.747 117.599 392.275 117.508 391.861 117.326C391.449 117.141 391.123 116.888 390.884 116.566C390.647 116.242 390.526 115.868 390.518 115.444H392.067C392.076 115.621 392.134 115.778 392.241 115.913C392.35 116.045 392.494 116.148 392.674 116.222C392.854 116.295 393.056 116.332 393.281 116.332C393.516 116.332 393.723 116.29 393.903 116.207C394.083 116.125 394.223 116.01 394.325 115.863C394.427 115.716 394.478 115.547 394.478 115.355C394.478 115.161 394.424 114.989 394.315 114.84C394.208 114.689 394.054 114.57 393.853 114.485C393.654 114.4 393.417 114.357 393.143 114.357H392.464V113.228H393.143C393.375 113.228 393.58 113.188 393.757 113.107C393.937 113.027 394.077 112.915 394.176 112.773C394.276 112.629 394.325 112.461 394.325 112.269C394.325 112.087 394.281 111.927 394.194 111.79C394.109 111.65 393.988 111.541 393.832 111.463C393.678 111.385 393.498 111.346 393.292 111.346C393.084 111.346 392.893 111.384 392.72 111.46C392.547 111.533 392.409 111.638 392.305 111.776C392.201 111.913 392.145 112.074 392.138 112.259H390.664C390.671 111.839 390.791 111.47 391.023 111.151C391.255 110.831 391.567 110.581 391.96 110.401C392.356 110.219 392.802 110.128 393.299 110.128C393.801 110.128 394.24 110.219 394.616 110.401C394.993 110.584 395.285 110.83 395.494 111.14C395.704 111.448 395.808 111.793 395.806 112.177C395.808 112.584 395.682 112.924 395.426 113.196C395.173 113.468 394.843 113.641 394.435 113.714V113.771C394.97 113.84 395.378 114.026 395.657 114.329C395.939 114.629 396.078 115.006 396.076 115.458C396.078 115.872 395.959 116.241 395.717 116.562C395.478 116.884 395.148 117.138 394.727 117.322C394.305 117.507 393.822 117.599 393.278 117.599ZM397.181 117.5V116.392L399.77 113.995C399.99 113.782 400.175 113.59 400.324 113.42C400.476 113.249 400.59 113.082 400.669 112.919C400.747 112.753 400.786 112.575 400.786 112.383C400.786 112.17 400.737 111.986 400.64 111.832C400.543 111.676 400.41 111.557 400.242 111.474C400.074 111.388 399.884 111.346 399.671 111.346C399.448 111.346 399.254 111.391 399.088 111.481C398.923 111.571 398.795 111.7 398.705 111.868C398.615 112.036 398.57 112.236 398.57 112.468H397.11C397.11 111.992 397.218 111.579 397.433 111.229C397.649 110.878 397.951 110.607 398.339 110.415C398.727 110.224 399.175 110.128 399.681 110.128C400.202 110.128 400.655 110.22 401.041 110.405C401.43 110.587 401.731 110.84 401.947 111.165C402.162 111.489 402.27 111.861 402.27 112.28C402.27 112.554 402.216 112.826 402.107 113.093C402 113.361 401.81 113.658 401.535 113.984C401.26 114.309 400.873 114.698 400.374 115.153L399.312 116.193V116.243H402.366V117.5H397.181ZM403.494 119.545V112.045H404.986V112.962H405.053C405.12 112.815 405.215 112.666 405.341 112.514C405.469 112.36 405.634 112.232 405.838 112.131C406.044 112.027 406.3 111.974 406.605 111.974C407.003 111.974 407.37 112.079 407.706 112.287C408.042 112.493 408.311 112.804 408.512 113.221C408.713 113.635 408.814 114.155 408.814 114.78C408.814 115.388 408.716 115.902 408.519 116.321C408.325 116.738 408.06 117.054 407.724 117.269C407.39 117.482 407.016 117.589 406.602 117.589C406.308 117.589 406.058 117.54 405.852 117.443C405.649 117.346 405.482 117.224 405.352 117.077C405.221 116.928 405.122 116.778 405.053 116.626H405.007V119.545H403.494ZM404.975 114.773C404.975 115.097 405.02 115.38 405.11 115.621C405.2 115.863 405.33 116.051 405.501 116.186C405.671 116.319 405.878 116.385 406.122 116.385C406.368 116.385 406.577 116.317 406.747 116.183C406.918 116.045 407.047 115.856 407.134 115.614C407.224 115.371 407.269 115.09 407.269 114.773C407.269 114.458 407.225 114.181 407.138 113.942C407.05 113.703 406.921 113.516 406.751 113.381C406.58 113.246 406.371 113.178 406.122 113.178C405.876 113.178 405.668 113.243 405.497 113.374C405.329 113.504 405.2 113.688 405.11 113.928C405.02 114.167 404.975 114.448 404.975 114.773ZM410.891 112.045L411.893 113.952L412.919 112.045H414.471L412.891 114.773L414.513 117.5H412.969L411.893 115.614L410.835 117.5H409.272L410.891 114.773L409.329 112.045H410.891Z" fill="white"/>
<line x1="376" y1="96.5" x2="383" y2="96.5" stroke="#E8178A"/>
<line x1="376" y1="127.5" x2="383" y2="127.5" stroke="#E8178A"/>
<path d="M379.5 168V184" stroke="#E8178A"/>
<rect x="384" y="168.5" width="36" height="18" rx="3" fill="#E8178A"/>
<path d="M393.754 174.227V181.5H392.216V175.687H392.173L390.508 176.731V175.367L392.308 174.227H393.754ZM398.273 181.599C397.899 181.597 397.538 181.534 397.19 181.411C396.845 181.288 396.534 181.088 396.26 180.811C395.985 180.534 395.767 180.167 395.606 179.71C395.448 179.253 395.368 178.692 395.368 178.027C395.371 177.416 395.441 176.871 395.578 176.39C395.718 175.907 395.916 175.497 396.175 175.161C396.435 174.825 396.746 174.569 397.108 174.394C397.471 174.217 397.877 174.128 398.327 174.128C398.812 174.128 399.24 174.223 399.612 174.412C399.984 174.599 400.282 174.853 400.507 175.175C400.734 175.497 400.872 175.858 400.919 176.259H399.403C399.343 176.005 399.219 175.806 399.03 175.662C398.84 175.518 398.606 175.445 398.327 175.445C397.853 175.445 397.493 175.651 397.247 176.063C397.003 176.475 396.879 177.035 396.874 177.743H396.924C397.033 177.527 397.18 177.344 397.364 177.192C397.551 177.039 397.763 176.921 398 176.841C398.239 176.758 398.491 176.717 398.756 176.717C399.187 176.717 399.571 176.818 399.907 177.022C400.243 177.223 400.508 177.5 400.702 177.853C400.896 178.206 400.993 178.609 400.993 179.064C400.993 179.556 400.879 179.994 400.649 180.378C400.422 180.761 400.103 181.062 399.694 181.28C399.287 181.495 398.813 181.602 398.273 181.599ZM398.266 180.392C398.503 180.392 398.715 180.335 398.902 180.222C399.089 180.108 399.236 179.954 399.342 179.76C399.449 179.566 399.502 179.348 399.502 179.107C399.502 178.865 399.449 178.648 399.342 178.457C399.238 178.265 399.094 178.112 398.909 177.999C398.724 177.885 398.514 177.828 398.277 177.828C398.099 177.828 397.935 177.861 397.783 177.928C397.634 177.994 397.503 178.086 397.389 178.205C397.278 178.323 397.19 178.46 397.126 178.616C397.062 178.77 397.03 178.935 397.03 179.11C397.03 179.344 397.084 179.559 397.19 179.753C397.299 179.947 397.446 180.102 397.631 180.218C397.818 180.334 398.029 180.392 398.266 180.392ZM402.098 183.545V176.045H403.589V176.962H403.657C403.723 176.815 403.819 176.666 403.944 176.514C404.072 176.36 404.238 176.232 404.442 176.131C404.648 176.027 404.903 175.974 405.209 175.974C405.606 175.974 405.973 176.079 406.309 176.287C406.646 176.493 406.914 176.804 407.116 177.221C407.317 177.635 407.417 178.155 407.417 178.78C407.417 179.388 407.319 179.902 407.123 180.321C406.929 180.738 406.663 181.054 406.327 181.269C405.993 181.482 405.619 181.589 405.205 181.589C404.912 181.589 404.662 181.54 404.456 181.443C404.252 181.346 404.085 181.224 403.955 181.077C403.825 180.928 403.725 180.778 403.657 180.626H403.611V183.545H402.098ZM403.579 178.773C403.579 179.097 403.624 179.38 403.714 179.621C403.804 179.863 403.934 180.051 404.104 180.186C404.275 180.319 404.482 180.385 404.726 180.385C404.972 180.385 405.18 180.317 405.351 180.183C405.521 180.045 405.65 179.856 405.738 179.614C405.828 179.371 405.873 179.09 405.873 178.773C405.873 178.458 405.829 178.181 405.741 177.942C405.654 177.703 405.525 177.516 405.354 177.381C405.184 177.246 404.974 177.178 404.726 177.178C404.479 177.178 404.271 177.243 404.101 177.374C403.933 177.504 403.804 177.688 403.714 177.928C403.624 178.167 403.579 178.448 403.579 178.773ZM409.495 176.045L410.496 177.952L411.523 176.045H413.074L411.494 178.773L413.117 181.5H411.572L410.496 179.614L409.438 181.5H407.876L409.495 178.773L407.932 176.045H409.495Z" fill="white"/>
<line x1="376" y1="168.5" x2="383" y2="168.5" stroke="#E8178A"/>
<line x1="376" y1="183.5" x2="383" y2="183.5" stroke="#E8178A"/>
<defs>
<filter id="filter0_d_5033_1501" x="0" y="0" width="371" height="192" filterUnits="userSpaceOnUse" color-interpolation-filters="sRGB">
<feFlood flood-opacity="0" result="BackgroundImageFix"/>
<feColorMatrix in="SourceAlpha" type="matrix" values="0 0 0 0 0 0 0 0 0 0 0 0 0 0 0 0 0 0 127 0" result="hardAlpha"/>
<feOffset/>
<feGaussianBlur stdDeviation="4"/>
<feColorMatrix type="matrix" values="0 0 0 0 0 0 0 0 0 0 0 0 0 0 0 0 0 0 0.15 0"/>
<feBlend mode="normal" in2="BackgroundImageFix" result="effect1_dropShadow_5033_1501"/>
<feBlend mode="normal" in="SourceGraphic" in2="effect1_dropShadow_5033_1501" result="shape"/>
</filter>
</defs>
</svg>
