<svg width="225" height="165" viewBox="0 0 225 165" fill="none" xmlns="http://www.w3.org/2000/svg"><circle cx="97" cy="150" r="12" fill="#344054"/><path d="M92.943 155v-1.773l4.142-3.835c.353-.341.648-.648.887-.92.242-.273.426-.54.55-.802.126-.265.188-.551.188-.858 0-.34-.077-.634-.233-.88a1.533 1.533 0 0 0-.636-.574 2 2 0 0 0-.915-.205c-.356 0-.666.072-.932.216a1.49 1.49 0 0 0-.613.62c-.144.269-.216.589-.216.96h-2.336c0-.762.173-1.422.518-1.983a3.45 3.45 0 0 1 1.449-1.301c.62-.307 1.337-.46 2.147-.46.834 0 1.559.147 2.176.443.621.291 1.104.697 1.449 1.216s.517 1.113.517 1.784c0 .439-.087.873-.261 1.301-.171.428-.476.903-.915 1.426-.44.519-1.059 1.142-1.858 1.869l-1.699 1.665v.08h4.887V155h-8.296Z" fill="#fff"/><path d="M97 86v53" stroke="#344054" stroke-dasharray="2 2"/><circle cx="213" cy="48" r="12" fill="#344054"/><path d="M213.244 54.16c-.848 0-1.604-.147-2.267-.438-.659-.296-1.18-.701-1.562-1.216a3.052 3.052 0 0 1-.585-1.796h2.477c.015.284.108.534.278.75.174.212.406.377.693.495.288.117.612.176.972.176.375 0 .706-.067.994-.2.288-.132.514-.316.676-.55a1.39 1.39 0 0 0 .245-.813c0-.31-.087-.585-.262-.824a1.666 1.666 0 0 0-.738-.568c-.318-.136-.697-.204-1.137-.204h-1.085v-1.807h1.085c.372 0 .699-.065.983-.193a1.59 1.59 0 0 0 .671-.535c.159-.23.238-.5.238-.806a1.396 1.396 0 0 0-.789-1.29 1.887 1.887 0 0 0-.864-.188c-.333 0-.638.061-.915.182a1.596 1.596 0 0 0-.664.506c-.167.22-.256.477-.268.773h-2.358c.012-.67.203-1.262.574-1.773.372-.511.872-.911 1.5-1.199.633-.292 1.347-.438 2.142-.438.803 0 1.506.146 2.108.438.603.292 1.07.686 1.404 1.182.337.492.504 1.045.5 1.659.004.652-.199 1.195-.608 1.63-.405.436-.934.713-1.585.83v.091c.856.11 1.507.407 1.954.892.451.481.674 1.084.671 1.807a2.846 2.846 0 0 1-.574 1.767c-.383.515-.911.92-1.586 1.216-.674.295-1.446.443-2.318.443Z" fill="#fff"/><path d="M153 48h53" stroke="#344054" stroke-dasharray="2 2"/><circle cx="12" cy="16" r="12" fill="#344054"/><path d="M14.006 10.364V22h-2.46v-9.301h-.069l-2.665 1.67v-2.181l2.881-1.824h2.313Z" fill="#fff"/><path d="M24.5 16h73v23" stroke="#344054" stroke-dasharray="2 2"/><path d="M52.324 45.71c-.046-.458-.24-.814-.585-1.068-.345-.254-.813-.38-1.404-.38-.401 0-.74.056-1.017.17-.276.11-.488.263-.636.46-.144.197-.216.42-.216.67a.958.958 0 0 0 .13.546c.1.155.234.29.404.403.17.11.367.207.59.29.224.08.463.148.717.205l1.045.25c.508.113.974.265 1.398.454.424.19.792.423 1.102.7.31.276.551.601.722.976.174.375.263.805.267 1.29-.004.712-.186 1.33-.546 1.852-.356.52-.87.923-1.545 1.21-.67.285-1.48.427-2.426.427-.94 0-1.758-.144-2.455-.432-.693-.288-1.234-.714-1.625-1.278-.386-.569-.589-1.271-.608-2.108h2.381c.027.39.138.715.335.977.201.257.468.453.801.585a3.18 3.18 0 0 0 1.142.193c.417 0 .779-.06 1.086-.181.31-.122.55-.29.721-.506.17-.216.256-.464.256-.745a.967.967 0 0 0-.233-.659c-.151-.178-.375-.33-.67-.454a6.819 6.819 0 0 0-1.074-.341l-1.267-.318c-.981-.239-1.756-.612-2.324-1.12-.568-.507-.85-1.19-.847-2.05-.004-.705.184-1.32.563-1.847.382-.527.907-.938 1.574-1.233.666-.296 1.424-.444 2.272-.444.864 0 1.618.148 2.262.444.647.295 1.151.706 1.511 1.233.36.526.545 1.136.557 1.83h-2.358Zm8.104 8.46c-.898 0-1.67-.181-2.319-.545a3.736 3.736 0 0 1-1.488-1.557c-.349-.674-.523-1.471-.523-2.392 0-.898.174-1.686.523-2.364a3.865 3.865 0 0 1 1.471-1.585c.637-.378 1.383-.568 2.239-.568.576 0 1.112.093 1.608.279.5.181.935.456 1.307.823.375.368.666.83.875 1.387.208.553.312 1.2.312 1.943v.665h-7.37v-1.5h5.092c0-.349-.076-.657-.227-.926a1.629 1.629 0 0 0-.631-.631 1.8 1.8 0 0 0-.926-.233c-.368 0-.693.085-.977.256a1.8 1.8 0 0 0-.66.676c-.159.28-.24.592-.244.937v1.426c0 .432.08.805.239 1.12.163.314.392.556.687.727.296.17.646.256 1.051.256.27 0 .516-.038.739-.114.223-.076.415-.19.574-.34.159-.152.28-.338.364-.558l2.238.148a3.056 3.056 0 0 1-.699 1.41c-.348.397-.799.707-1.352.93-.55.22-1.184.33-1.903.33Zm9.528 0c-.894 0-1.663-.189-2.307-.568a3.841 3.841 0 0 1-1.477-1.59c-.341-.679-.511-1.459-.511-2.342 0-.894.172-1.678.517-2.352a3.84 3.84 0 0 1 1.483-1.585c.64-.383 1.401-.574 2.284-.574.761 0 1.428.138 2 .415a3.343 3.343 0 0 1 1.358 1.165c.333.5.517 1.087.55 1.761H71.57c-.065-.436-.235-.786-.512-1.051-.273-.27-.63-.404-1.074-.404-.375 0-.702.103-.983.307-.276.201-.492.495-.647.881-.156.386-.233.854-.233 1.403 0 .557.076 1.03.227 1.42.155.391.373.688.653.893.28.204.608.307.983.307.277 0 .525-.057.745-.17.223-.114.407-.28.55-.495a1.87 1.87 0 0 0 .29-.79h2.285c-.038.667-.22 1.254-.546 1.761a3.294 3.294 0 0 1-1.335 1.182c-.568.284-1.24.426-2.017.426Zm10.09-8.897v1.818H74.79v-1.818h5.255Zm-4.063-2.091h2.42v8.136c0 .224.034.398.103.523a.564.564 0 0 0 .284.256c.125.049.269.073.432.073.113 0 .227-.009.34-.028l.262-.051.38 1.801a6.772 6.772 0 0 1-.51.13 4.09 4.09 0 0 1-.802.097c-.583.023-1.095-.055-1.534-.233a2.141 2.141 0 0 1-1.017-.83c-.242-.374-.362-.848-.358-1.42v-8.454ZM81.623 54v-8.727h2.42V54h-2.42Zm1.215-9.852c-.36 0-.668-.12-.926-.358a1.16 1.16 0 0 1-.38-.87c0-.333.126-.619.38-.858.257-.242.566-.363.926-.363.36 0 .667.121.92.364.258.238.387.524.387.857 0 .338-.129.627-.386.87a1.299 1.299 0 0 1-.92.358Zm7.087 10.022c-.883 0-1.646-.187-2.29-.562a3.85 3.85 0 0 1-1.483-1.58c-.349-.678-.523-1.464-.523-2.358 0-.901.174-1.689.523-2.363a3.804 3.804 0 0 1 1.483-1.58c.644-.378 1.407-.568 2.29-.568.882 0 1.644.19 2.284.568a3.79 3.79 0 0 1 1.488 1.58c.349.674.523 1.462.523 2.363 0 .894-.174 1.68-.523 2.358a3.838 3.838 0 0 1-1.488 1.58c-.64.375-1.402.563-2.284.563Zm.011-1.875c.402 0 .737-.113 1.006-.34.269-.231.471-.546.608-.944.14-.397.21-.85.21-1.358 0-.507-.07-.96-.21-1.358-.137-.397-.34-.712-.608-.943-.27-.23-.604-.346-1.006-.346-.405 0-.746.115-1.023.346-.272.231-.479.546-.619.944a4.18 4.18 0 0 0-.204 1.357c0 .508.068.96.204 1.358.14.398.347.712.62.944.276.227.617.34 1.022.34Zm8.278-3.34V54h-2.42v-8.727h2.307v1.54h.102a2.43 2.43 0 0 1 .972-1.205c.454-.3 1.005-.449 1.653-.449.606 0 1.135.133 1.585.398.451.265.801.644 1.051 1.136.25.489.375 1.072.375 1.75V54h-2.42v-5.125c.004-.534-.133-.95-.409-1.25-.277-.303-.657-.455-1.142-.455-.326 0-.614.07-.864.21-.246.14-.44.345-.58.614-.136.266-.206.586-.21.96Z" fill="#5925DC"/><path fill-rule="evenodd" clip-rule="evenodd" d="M123.136 44.904a.45.45 0 0 1 .326-.135.462.462 0 0 1 .327.135L129 50.116l5.211-5.212a.464.464 0 0 1 .754.15.466.466 0 0 1-.1.504l-5.538 5.538a.466.466 0 0 1-.504.1.466.466 0 0 1-.15-.1l-5.537-5.538a.467.467 0 0 1 0-.653Z" fill="#344054"/><path d="M137 86H45v4h92v-4Z" fill="#5925DC"/></svg>