<svg width="441" height="149" viewBox="0 0 441 149" fill="none" xmlns="http://www.w3.org/2000/svg"><path d="M31.324 71.71c-.046-.458-.24-.814-.585-1.068-.345-.254-.813-.38-1.404-.38-.401 0-.74.056-1.017.17a1.43 1.43 0 0 0-.636.46c-.144.197-.216.42-.216.67a.958.958 0 0 0 .13.546c.1.155.233.29.404.403.17.11.367.207.59.29.224.08.463.148.717.205l1.045.25c.508.113.974.265 1.398.454.424.19.792.423 1.102.7.31.276.551.601.722.976.174.375.263.805.267 1.29-.004.712-.186 1.33-.546 1.852-.356.52-.87.923-1.545 1.21-.67.285-1.48.427-2.426.427-.94 0-1.758-.144-2.455-.432-.693-.288-1.235-.714-1.625-1.279-.386-.568-.589-1.27-.608-2.107h2.381c.027.39.138.716.335.977.201.257.468.453.801.585a3.18 3.18 0 0 0 1.143.193c.416 0 .778-.06 1.085-.181.31-.122.55-.29.721-.506.17-.216.256-.464.256-.745a.967.967 0 0 0-.233-.659c-.151-.178-.375-.33-.67-.454a6.819 6.819 0 0 0-1.074-.341l-1.267-.318c-.981-.239-1.756-.612-2.324-1.12-.568-.507-.85-1.19-.847-2.05-.004-.705.184-1.32.563-1.847.382-.527.907-.938 1.573-1.233.667-.296 1.425-.444 2.273-.444.864 0 1.618.148 2.262.444.647.295 1.151.706 1.511 1.233.36.526.545 1.136.557 1.83h-2.358ZM35.496 80V68.364h7.84v2.028h-5.38v2.773h4.977v2.028h-4.977v2.779h5.403V80h-7.863Zm20.064-7.563h-2.49a2.432 2.432 0 0 0-.278-.858 2.17 2.17 0 0 0-.54-.647 2.376 2.376 0 0 0-.761-.41 2.912 2.912 0 0 0-.927-.141c-.602 0-1.127.15-1.573.448-.447.296-.794.728-1.04 1.296-.246.564-.37 1.25-.37 2.057 0 .83.123 1.526.37 2.09.25.565.598.991 1.045 1.28.447.287.964.431 1.551.431.33 0 .635-.044.915-.13.284-.088.536-.215.756-.381.22-.17.401-.377.545-.62.148-.242.25-.519.307-.83l2.489.012a4.643 4.643 0 0 1-1.511 2.87 4.84 4.84 0 0 1-1.535.92c-.59.223-1.26.335-2.006.335-1.037 0-1.965-.235-2.784-.705-.814-.47-1.458-1.15-1.931-2.04-.47-.89-.705-1.967-.705-3.232 0-1.27.239-2.349.716-3.239.477-.89 1.125-1.568 1.943-2.034.818-.47 1.739-.705 2.761-.705.675 0 1.3.095 1.875.285.58.189 1.093.465 1.54.83.447.359.81.8 1.091 1.323.284.523.466 1.121.546 1.796Zm1.32-2.045v-2.028h9.557v2.028h-3.562V80h-2.432v-9.608h-3.562Zm13.592-2.028V80h-2.46V68.364h2.46Zm12.717 5.818c0 1.269-.24 2.348-.722 3.239-.477.89-1.129 1.57-1.954 2.04-.822.465-1.746.698-2.773.698-1.034 0-1.962-.235-2.784-.705-.822-.47-1.472-1.15-1.949-2.04-.477-.89-.716-1.967-.716-3.232 0-1.27.239-2.349.716-3.239.477-.89 1.127-1.568 1.949-2.034.822-.47 1.75-.705 2.784-.705 1.027 0 1.95.235 2.773.705.825.466 1.477 1.144 1.954 2.034.481.89.722 1.97.722 3.239Zm-2.494 0c0-.822-.123-1.515-.37-2.08-.242-.564-.585-.992-1.028-1.284-.443-.291-.962-.437-1.557-.437s-1.114.145-1.557.437c-.443.292-.788.72-1.034 1.284-.242.565-.364 1.258-.364 2.08 0 .822.122 1.515.364 2.08.246.564.591.992 1.034 1.284.443.291.962.437 1.557.437s1.114-.146 1.557-.438c.443-.291.786-.72 1.028-1.284.246-.564.37-1.257.37-2.08Zm14.05-5.818V80h-2.126l-5.062-7.324h-.085V80h-2.46V68.364h2.159l5.022 7.318h.103v-7.318h2.448Zm10.729 0V80h-2.46v-9.301h-.068l-2.665 1.67v-2.181l2.881-1.824h2.312Z" fill="#344054"/><path d="M139.324 71.71c-.046-.458-.241-.814-.585-1.068-.345-.254-.813-.38-1.404-.38-.401 0-.74.056-1.017.17-.276.11-.488.263-.636.46-.144.197-.216.42-.216.67a.952.952 0 0 0 .131.546c.098.155.233.29.403.403.17.11.367.207.591.29.223.08.462.148.716.205l1.045.25c.508.113.974.265 1.398.454.424.19.792.423 1.102.7.311.276.551.601.722.976.174.375.263.805.267 1.29-.004.712-.186 1.33-.546 1.852-.356.52-.871.923-1.545 1.21-.67.285-1.479.427-2.426.427-.94 0-1.758-.144-2.455-.432-.693-.288-1.235-.714-1.625-1.279-.386-.568-.589-1.27-.608-2.107h2.381c.027.39.138.716.335.977.201.257.468.453.801.585a3.18 3.18 0 0 0 1.142.193c.417 0 .779-.06 1.086-.181.31-.122.551-.29.721-.506.171-.216.256-.464.256-.745a.968.968 0 0 0-.233-.659c-.152-.178-.375-.33-.67-.454a6.842 6.842 0 0 0-1.074-.341l-1.267-.318c-.981-.239-1.756-.612-2.324-1.12-.568-.507-.851-1.19-.847-2.05-.004-.705.184-1.32.563-1.847.382-.527.907-.938 1.574-1.233.666-.296 1.424-.444 2.272-.444.864 0 1.618.148 2.262.444.647.295 1.151.706 1.511 1.233.36.526.545 1.136.557 1.83h-2.358Zm4.172 8.29V68.364h7.841v2.028h-5.381v2.773h4.977v2.028h-4.977v2.779h5.403V80h-7.863Zm20.064-7.563h-2.489a2.427 2.427 0 0 0-.278-.858 2.192 2.192 0 0 0-.54-.647 2.381 2.381 0 0 0-.762-.41 2.908 2.908 0 0 0-.926-.141c-.602 0-1.127.15-1.574.448-.446.296-.793.728-1.039 1.296-.247.564-.37 1.25-.37 2.057 0 .83.123 1.526.37 2.09.25.565.598.991 1.045 1.28.447.287.964.431 1.551.431.33 0 .635-.044.915-.13.284-.088.536-.215.756-.381.219-.17.401-.377.545-.62.148-.242.25-.519.307-.83l2.489.012a4.645 4.645 0 0 1-1.512 2.87 4.837 4.837 0 0 1-1.534.92c-.591.223-1.259.335-2.005.335-1.038 0-1.966-.235-2.785-.705-.814-.47-1.458-1.15-1.931-2.04-.47-.89-.705-1.967-.705-3.232 0-1.27.239-2.349.716-3.239.477-.89 1.125-1.568 1.943-2.034.818-.47 1.739-.705 2.762-.705a5.97 5.97 0 0 1 1.875.285 4.724 4.724 0 0 1 1.539.83c.447.359.811.8 1.091 1.323.284.523.466 1.121.546 1.796Zm1.321-2.045v-2.028h9.557v2.028h-3.563V80h-2.432v-9.608h-3.562Zm13.591-2.028V80h-2.461V68.364h2.461Zm12.717 5.818c0 1.269-.241 2.348-.722 3.239-.477.89-1.128 1.57-1.954 2.04-.822.465-1.746.698-2.773.698-1.034 0-1.962-.235-2.784-.705-.822-.47-1.472-1.15-1.949-2.04-.477-.89-.716-1.967-.716-3.232 0-1.27.239-2.349.716-3.239.477-.89 1.127-1.568 1.949-2.034.822-.47 1.75-.705 2.784-.705 1.027 0 1.951.235 2.773.705.826.466 1.477 1.144 1.954 2.034.481.89.722 1.97.722 3.239Zm-2.494 0c0-.822-.124-1.515-.37-2.08-.242-.564-.585-.992-1.028-1.284-.443-.291-.962-.437-1.557-.437s-1.114.145-1.557.437c-.443.292-.788.72-1.034 1.284-.242.565-.363 1.258-.363 2.08 0 .822.121 1.515.363 2.08.246.564.591.992 1.034 1.284.443.291.962.437 1.557.437s1.114-.146 1.557-.438c.443-.291.786-.72 1.028-1.284.246-.564.37-1.257.37-2.08Zm14.049-5.818V80h-2.125l-5.062-7.324h-.085V80h-2.461V68.364h2.159l5.023 7.318h.102v-7.318h2.449ZM208.412 80v-1.773l4.142-3.835c.352-.34.648-.648.886-.92a3.49 3.49 0 0 0 .551-.801c.125-.266.188-.552.188-.859 0-.34-.078-.634-.233-.88a1.526 1.526 0 0 0-.636-.574 1.995 1.995 0 0 0-.915-.205c-.356 0-.667.072-.932.216a1.49 1.49 0 0 0-.614.62c-.144.269-.215.589-.215.96h-2.336c0-.761.173-1.422.517-1.983.345-.56.828-.994 1.449-1.301.621-.307 1.337-.46 2.148-.46.833 0 1.559.147 2.176.443.621.291 1.104.697 1.449 1.216s.517 1.113.517 1.784c0 .44-.087.873-.261 1.3-.171.429-.476.904-.915 1.427-.44.519-1.059 1.142-1.858 1.87l-1.699 1.664v.08h4.886V80h-8.295Z" fill="#5925DC"/><path fill-rule="evenodd" clip-rule="evenodd" d="M236.136 70.904a.45.45 0 0 1 .326-.135.462.462 0 0 1 .327.135L242 76.116l5.211-5.212a.464.464 0 0 1 .754.15.466.466 0 0 1-.1.504l-5.538 5.538a.466.466 0 0 1-.504.1.466.466 0 0 1-.15-.1l-5.537-5.538a.467.467 0 0 1 0-.653Z" fill="#344054"/><path d="M250 112H132v4h118v-4Z" fill="#5925DC"/><path d="M281.324 71.71c-.046-.458-.241-.814-.585-1.068-.345-.254-.813-.38-1.404-.38-.401 0-.74.056-1.017.17-.276.11-.488.263-.636.46-.144.197-.216.42-.216.67a.952.952 0 0 0 .131.546c.098.155.233.29.403.403.17.11.367.207.591.29.223.08.462.148.716.205l1.045.25c.508.113.974.265 1.398.454.424.19.792.423 1.102.7.311.276.551.601.722.976.174.375.263.805.267 1.29-.004.712-.186 1.33-.546 1.852-.356.52-.871.923-1.545 1.21-.67.285-1.479.427-2.426.427-.94 0-1.758-.144-2.455-.432-.693-.288-1.235-.714-1.625-1.279-.386-.568-.589-1.27-.608-2.107h2.381c.027.39.138.716.335.977.201.257.468.453.801.585a3.18 3.18 0 0 0 1.142.193c.417 0 .779-.06 1.086-.181.31-.122.551-.29.721-.506.171-.216.256-.464.256-.745a.968.968 0 0 0-.233-.659c-.152-.178-.375-.33-.67-.454a6.842 6.842 0 0 0-1.074-.341l-1.267-.318c-.981-.239-1.756-.612-2.324-1.12-.568-.507-.851-1.19-.847-2.05-.004-.705.184-1.32.563-1.847.382-.527.907-.938 1.574-1.233.666-.296 1.424-.444 2.272-.444.864 0 1.618.148 2.262.444.647.295 1.151.706 1.511 1.233.36.526.545 1.136.557 1.83h-2.358Zm4.172 8.29V68.364h7.841v2.028h-5.381v2.773h4.977v2.028h-4.977v2.779h5.403V80h-7.863Zm20.064-7.563h-2.489a2.427 2.427 0 0 0-.278-.858 2.192 2.192 0 0 0-.54-.647 2.381 2.381 0 0 0-.762-.41 2.908 2.908 0 0 0-.926-.141c-.602 0-1.127.15-1.574.448-.446.296-.793.728-1.039 1.296-.247.564-.37 1.25-.37 2.057 0 .83.123 1.526.37 2.09.25.565.598.991 1.045 1.28.447.287.964.431 1.551.431.33 0 .635-.044.915-.13.284-.088.536-.215.756-.381.219-.17.401-.377.545-.62.148-.242.25-.519.307-.83l2.489.012a4.645 4.645 0 0 1-1.512 2.87 4.837 4.837 0 0 1-1.534.92c-.591.223-1.259.335-2.005.335-1.038 0-1.966-.235-2.785-.705-.814-.47-1.458-1.15-1.931-2.04-.47-.89-.705-1.967-.705-3.232 0-1.27.239-2.349.716-3.239.477-.89 1.125-1.568 1.943-2.034.818-.47 1.739-.705 2.762-.705a5.97 5.97 0 0 1 1.875.285 4.724 4.724 0 0 1 1.539.83c.447.359.811.8 1.091 1.323.284.523.466 1.121.546 1.796Zm1.321-2.045v-2.028h9.557v2.028h-3.563V80h-2.432v-9.608h-3.562Zm13.591-2.028V80h-2.461V68.364h2.461Zm12.717 5.818c0 1.269-.241 2.348-.722 3.239-.477.89-1.128 1.57-1.954 2.04-.822.465-1.746.698-2.773.698-1.034 0-1.962-.235-2.784-.705-.822-.47-1.472-1.15-1.949-2.04-.477-.89-.716-1.967-.716-3.232 0-1.27.239-2.349.716-3.239.477-.89 1.127-1.568 1.949-2.034.822-.47 1.75-.705 2.784-.705 1.027 0 1.951.235 2.773.705.826.466 1.477 1.144 1.954 2.034.481.89.722 1.97.722 3.239Zm-2.494 0c0-.822-.124-1.515-.37-2.08-.242-.564-.585-.992-1.028-1.284-.443-.291-.962-.437-1.557-.437s-1.114.145-1.557.437c-.443.292-.788.72-1.034 1.284-.242.565-.363 1.258-.363 2.08 0 .822.121 1.515.363 2.08.246.564.591.992 1.034 1.284.443.291.962.437 1.557.437s1.114-.146 1.557-.438c.443-.291.786-.72 1.028-1.284.246-.564.37-1.257.37-2.08Zm14.049-5.818V80h-2.125l-5.062-7.324h-.085V80h-2.461V68.364h2.159l5.023 7.318h.102v-7.318h2.449Zm9.969 11.795c-.848 0-1.604-.146-2.267-.437-.659-.296-1.18-.701-1.562-1.216a3.06 3.06 0 0 1-.586-1.796h2.478c.015.284.108.534.278.75.174.212.405.377.693.495.288.117.612.176.972.176.375 0 .706-.067.994-.2a1.63 1.63 0 0 0 .676-.55 1.39 1.39 0 0 0 .245-.813c0-.31-.088-.585-.262-.824a1.672 1.672 0 0 0-.738-.568c-.319-.136-.697-.204-1.137-.204h-1.085v-1.807h1.085c.371 0 .699-.065.983-.193.288-.13.511-.307.671-.534.159-.232.238-.5.238-.807a1.396 1.396 0 0 0-.79-1.29 1.882 1.882 0 0 0-.863-.188c-.334 0-.638.061-.915.182a1.606 1.606 0 0 0-.665.506 1.34 1.34 0 0 0-.267.773h-2.358c.012-.67.203-1.262.574-1.773.371-.511.871-.911 1.5-1.199.633-.292 1.347-.438 2.142-.438.803 0 1.506.146 2.108.438.602.292 1.07.686 1.404 1.182.337.492.503 1.045.5 1.659.003.651-.199 1.195-.608 1.63-.406.436-.934.713-1.586.83v.091c.856.11 1.508.407 1.955.892.451.481.674 1.084.67 1.807a2.834 2.834 0 0 1-.574 1.767c-.382.515-.911.92-1.585 1.216-.674.295-1.447.443-2.318.443Z" fill="#344054"/><path fill="#E8178A" fill-opacity=".24" d="M108 34h24v78h-24zm142 0h24v78h-24z"/><path fill="#E8178A" fill-opacity=".24" d="M0 88h385v24H0zm0-54h385v24H0z"/><path fill="#E8178A" fill-opacity=".24" d="M219 34h16v78h-16z"/><path d="M108 123h24" stroke="#E8178A"/><rect x="101" y="131" width="37" height="18" rx="3" fill="#E8178A"/><path d="M107.589 144v-1.108l2.589-2.397c.22-.213.405-.405.554-.575a2.19 2.19 0 0 0 .345-.501c.078-.166.117-.344.117-.536 0-.213-.049-.397-.146-.551a.955.955 0 0 0-.397-.358 1.24 1.24 0 0 0-.572-.128c-.223 0-.417.045-.583.135a.934.934 0 0 0-.383.387c-.09.168-.135.368-.135.6h-1.46c0-.476.108-.889.324-1.239.215-.351.517-.622.905-.814.388-.191.836-.287 1.342-.287.521 0 .975.092 1.361.277.388.182.69.435.905.76.216.324.323.696.323 1.115 0 .274-.054.546-.163.813-.107.268-.297.565-.572.891-.274.325-.662.714-1.161 1.169l-1.062 1.04v.05h3.054V144h-5.185Zm6.033-1.278v-1.211l3.036-4.784h1.044v1.676h-.618l-1.914 3.03v.056h4.315v1.233h-5.863Zm3.491 1.278v-1.648l.028-.536v-5.089h1.442V144h-1.47Zm3.411 2.045v-7.5h1.491v.917h.068c.066-.147.162-.296.287-.448a1.51 1.51 0 0 1 .497-.383c.206-.104.462-.157.767-.157.398 0 .765.105 1.101.313.336.206.605.517.806.934.202.414.302.934.302 1.559 0 .608-.098 1.122-.295 1.541-.194.417-.459.733-.795.948-.334.213-.708.32-1.122.32-.294 0-.543-.049-.749-.146a1.54 1.54 0 0 1-.501-.366 1.831 1.831 0 0 1-.298-.451h-.047v2.919h-1.512Zm1.48-4.772c0 .324.045.607.135.848.09.242.221.43.391.565.17.133.378.199.621.199a.978.978 0 0 0 .625-.202c.171-.138.3-.327.388-.569a2.44 2.44 0 0 0 .134-.841 2.4 2.4 0 0 0-.131-.831 1.245 1.245 0 0 0-.387-.561.98.98 0 0 0-.629-.203.996.996 0 0 0-.625.196 1.22 1.22 0 0 0-.387.554c-.09.239-.135.52-.135.845Zm5.917-2.728 1.001 1.907 1.026-1.907h1.552l-1.58 2.728 1.623 2.727h-1.545l-1.076-1.886-1.058 1.886h-1.563l1.62-2.727-1.563-2.728h1.563Z" fill="#fff"/><path stroke="#E8178A" d="M108.5 127v-7m23 7v-7m263.5-8V88"/><rect x="404" y="91" width="37" height="18" rx="3" fill="#E8178A"/><path d="M410.589 104v-1.108l2.589-2.397c.22-.213.405-.405.554-.575.152-.17.267-.338.345-.501.078-.166.117-.344.117-.536a1.01 1.01 0 0 0-.146-.55.954.954 0 0 0-.397-.36 1.25 1.25 0 0 0-.572-.127c-.223 0-.417.045-.583.135a.933.933 0 0 0-.383.387c-.09.168-.135.368-.135.6h-1.46c0-.476.108-.889.324-1.24.215-.35.517-.62.905-.813.388-.191.836-.287 1.342-.287.521 0 .975.092 1.361.277.388.182.69.435.905.76.216.324.323.696.323 1.115 0 .275-.054.546-.163.813-.107.268-.297.565-.572.891-.274.325-.662.714-1.161 1.169l-1.062 1.04v.05h3.054V104h-5.185Zm6.033-1.278v-1.211l3.036-4.784h1.044v1.676h-.618l-1.914 3.03v.056h4.315v1.233h-5.863Zm3.491 1.278v-1.648l.028-.536v-5.089h1.442V104h-1.47Zm3.411 2.045v-7.5h1.491v.917h.068c.066-.147.162-.296.287-.448.128-.154.294-.281.497-.383.206-.105.462-.157.767-.157.398 0 .765.105 1.101.313.336.206.605.517.806.934.202.414.302.934.302 1.559 0 .608-.098 1.122-.295 1.541-.194.417-.459.733-.795.948-.334.213-.708.32-1.122.32-.294 0-.543-.049-.749-.146a1.54 1.54 0 0 1-.501-.366 1.831 1.831 0 0 1-.298-.451h-.047v2.919h-1.512Zm1.48-4.772c0 .324.045.607.135.848.09.242.221.43.391.565.17.133.378.199.621.199a.978.978 0 0 0 .625-.202c.171-.138.3-.327.388-.569a2.44 2.44 0 0 0 .134-.841 2.4 2.4 0 0 0-.131-.831 1.248 1.248 0 0 0-.387-.561.98.98 0 0 0-.629-.203 1 1 0 0 0-.625.196 1.22 1.22 0 0 0-.387.554c-.09.239-.135.52-.135.845Zm5.917-2.727 1.001 1.906 1.026-1.906h1.552l-1.58 2.727 1.623 2.727h-1.545l-1.076-1.886-1.058 1.886h-1.563l1.62-2.727-1.563-2.727h1.563Z" fill="#fff"/><path stroke="#E8178A" d="M398 111.5h-7m7-23h-7M250 123h24"/><rect x="243" y="131" width="37" height="18" rx="3" fill="#E8178A"/><path d="M249.589 144v-1.108l2.589-2.397c.22-.213.405-.405.554-.575a2.19 2.19 0 0 0 .345-.501c.078-.166.117-.344.117-.536 0-.213-.049-.397-.146-.551a.955.955 0 0 0-.397-.358 1.24 1.24 0 0 0-.572-.128c-.223 0-.417.045-.583.135a.934.934 0 0 0-.383.387c-.09.168-.135.368-.135.6h-1.46c0-.476.108-.889.324-1.239.215-.351.517-.622.905-.814.388-.191.836-.287 1.342-.287.521 0 .975.092 1.361.277.388.182.69.435.905.76.216.324.323.696.323 1.115 0 .274-.054.546-.163.813-.107.268-.297.565-.572.891-.274.325-.662.714-1.161 1.169l-1.062 1.04v.05h3.054V144h-5.185Zm6.033-1.278v-1.211l3.036-4.784h1.044v1.676h-.618l-1.914 3.03v.056h4.315v1.233h-5.863Zm3.491 1.278v-1.648l.028-.536v-5.089h1.442V144h-1.47Zm3.411 2.045v-7.5h1.491v.917h.068c.066-.147.162-.296.287-.448a1.51 1.51 0 0 1 .497-.383c.206-.104.462-.157.767-.157.398 0 .765.105 1.101.313.336.206.605.517.806.934.202.414.302.934.302 1.559 0 .608-.098 1.122-.295 1.541-.194.417-.459.733-.795.948-.334.213-.708.32-1.122.32-.294 0-.543-.049-.749-.146a1.54 1.54 0 0 1-.501-.366 1.831 1.831 0 0 1-.298-.451h-.047v2.919h-1.512Zm1.48-4.772c0 .324.045.607.135.848.09.242.221.43.391.565.17.133.378.199.621.199a.978.978 0 0 0 .625-.202c.171-.138.3-.327.388-.569a2.44 2.44 0 0 0 .134-.841 2.4 2.4 0 0 0-.131-.831 1.245 1.245 0 0 0-.387-.561.98.98 0 0 0-.629-.203.996.996 0 0 0-.625.196 1.22 1.22 0 0 0-.387.554c-.09.239-.135.52-.135.845Zm5.917-2.728 1.001 1.907 1.026-1.907h1.552l-1.58 2.728 1.623 2.727h-1.545l-1.076-1.886-1.058 1.886h-1.563l1.62-2.727-1.563-2.728h1.563Z" fill="#fff"/><path stroke="#E8178A" d="M250.5 127v-7m23 7v-7M219 26h16"/><rect x="209" width="36" height="18" rx="3" fill="#E8178A"/><path d="M218.754 5.727V13h-1.538V7.187h-.043l-1.665 1.044V6.867l1.8-1.14h1.446Zm4.519 7.372a3.285 3.285 0 0 1-1.083-.188 2.464 2.464 0 0 1-.93-.6c-.275-.277-.493-.644-.654-1.1-.158-.458-.238-1.019-.238-1.684.003-.61.073-1.156.21-1.637.14-.483.338-.893.597-1.229.26-.336.571-.592.933-.767a2.736 2.736 0 0 1 1.219-.266c.485 0 .913.095 1.285.284.372.187.67.441.895.763.227.322.365.683.412 1.084h-1.516a1.018 1.018 0 0 0-.373-.597 1.127 1.127 0 0 0-.703-.217c-.474 0-.834.206-1.08.618-.244.412-.368.972-.373 1.68h.05c.109-.216.256-.399.44-.55.187-.154.399-.272.636-.352.239-.083.491-.124.756-.124a2.162 2.162 0 0 1 1.946 1.136c.194.353.291.756.291 1.21 0 .493-.114.931-.344 1.315a2.389 2.389 0 0 1-.955.902c-.407.215-.881.322-1.421.32Zm-.007-1.207a1.2 1.2 0 0 0 1.076-.632 1.33 1.33 0 0 0 .16-.653 1.31 1.31 0 0 0-.16-.65 1.181 1.181 0 0 0-1.065-.629 1.22 1.22 0 0 0-.494.1 1.244 1.244 0 0 0-.657.688 1.272 1.272 0 0 0-.096.494 1.277 1.277 0 0 0 .601 1.108c.187.116.398.174.635.174Zm3.832 3.154v-7.5h1.491v.916h.068c.066-.147.162-.296.287-.448.128-.154.294-.282.498-.383.206-.104.461-.157.767-.157.397 0 .764.105 1.1.313.337.206.605.517.807.934.201.414.301.934.301 1.559 0 .608-.098 1.122-.294 1.541-.194.417-.46.733-.796.948-.334.213-.708.32-1.122.32a1.75 1.75 0 0 1-.749-.146 1.545 1.545 0 0 1-.501-.366c-.13-.149-.23-.3-.298-.45h-.046v2.918h-1.513Zm1.481-4.773c0 .324.045.607.135.848.09.242.22.43.39.565a.984.984 0 0 0 .622.199.977.977 0 0 0 .625-.203c.17-.137.299-.326.387-.568a2.42 2.42 0 0 0 .135-.841 2.4 2.4 0 0 0-.132-.831 1.23 1.23 0 0 0-.387-.561.98.98 0 0 0-.628-.203.997.997 0 0 0-.625.196 1.22 1.22 0 0 0-.387.554c-.09.239-.135.52-.135.845Zm5.916-2.728 1.001 1.907 1.027-1.907h1.551l-1.58 2.728L238.117 13h-1.545l-1.076-1.886L234.438 13h-1.562l1.619-2.727-1.563-2.728h1.563Z" fill="#fff"/><path stroke="#E8178A" d="M219.5 30v-7m15 7v-7"/></svg>