<svg width="626" height="189" viewBox="0 0 626 189" fill="none" xmlns="http://www.w3.org/2000/svg"><circle cx="187" cy="173" r="12" fill="#344054"/><path d="M182.943 179v-1.773l4.142-3.835c.353-.341.648-.648.887-.92.242-.273.426-.54.551-.802.125-.265.187-.551.187-.858 0-.34-.077-.634-.233-.88a1.53 1.53 0 0 0-.636-.574 2 2 0 0 0-.915-.205c-.356 0-.667.072-.932.216a1.49 1.49 0 0 0-.613.62c-.144.269-.216.589-.216.96h-2.335c0-.762.172-1.422.517-1.983a3.446 3.446 0 0 1 1.448-1.301c.622-.307 1.338-.46 2.148-.46.834 0 1.559.147 2.176.443.622.291 1.104.697 1.449 1.216s.517 1.113.517 1.784c0 .439-.087.873-.261 1.301-.171.428-.476.903-.915 1.426-.439.519-1.059 1.142-1.858 1.869l-1.699 1.665v.08h4.887V179h-8.296Z" fill="#fff"/><path d="M187 161.5V114" stroke="#344054" stroke-dasharray="2 2"/><path d="M0 54a4 4 0 0 1 4-4h618a4 4 0 0 1 4 4v56a4 4 0 0 1-4 4H4a4 4 0 0 1-4-4V54Z" fill="#fff"/><path d="M25.886 88H24.41l4.273-11.636h1.454L34.41 88h-1.477l-3.478-9.796h-.09L25.886 88Zm.546-4.546h5.954v1.25h-5.954v-1.25Zm13.153 4.728c-.818 0-1.523-.193-2.113-.58a3.777 3.777 0 0 1-1.364-1.596c-.318-.678-.477-1.453-.477-2.324 0-.886.163-1.669.488-2.347.33-.682.788-1.214 1.375-1.596.591-.387 1.28-.58 2.069-.58.613 0 1.166.114 1.659.341a3.19 3.19 0 0 1 1.21.954c.314.41.51.887.585 1.432h-1.34c-.103-.397-.33-.75-.683-1.056-.348-.311-.818-.466-1.409-.466-.523 0-.98.136-1.375.409-.39.269-.695.65-.915 1.142-.215.488-.323 1.062-.323 1.721 0 .675.106 1.262.318 1.762.216.5.519.888.909 1.165.394.276.856.414 1.386.414.349 0 .665-.06.95-.181.283-.122.524-.296.72-.523.198-.227.338-.5.421-.819h1.341c-.076.516-.263.98-.563 1.393a3.142 3.142 0 0 1-1.176.977c-.484.239-1.049.358-1.693.358Zm8.938 0c-.819 0-1.523-.193-2.114-.58a3.777 3.777 0 0 1-1.364-1.596c-.318-.678-.477-1.453-.477-2.324 0-.886.163-1.669.489-2.347.33-.682.788-1.214 1.375-1.596.59-.387 1.28-.58 2.068-.58.614 0 1.167.114 1.66.341a3.19 3.19 0 0 1 1.21.954c.314.41.509.887.585 1.432h-1.341c-.103-.397-.33-.75-.682-1.056-.349-.311-.818-.466-1.41-.466-.522 0-.98.136-1.374.409-.39.269-.695.65-.915 1.142-.216.488-.324 1.062-.324 1.721 0 .675.106 1.262.318 1.762.216.5.52.888.91 1.165.393.276.855.414 1.386.414.348 0 .664-.06.949-.181.284-.122.524-.296.721-.523.197-.227.337-.5.42-.819h1.342c-.076.516-.264.98-.563 1.393a3.15 3.15 0 0 1-1.176.977c-.485.239-1.05.358-1.693.358Zm8.937 0c-.788 0-1.479-.188-2.074-.563-.59-.375-1.053-.9-1.386-1.573-.33-.675-.494-1.463-.494-2.364 0-.91.164-1.703.494-2.38.333-.679.795-1.205 1.386-1.58.595-.375 1.286-.563 2.074-.563.788 0 1.477.188 2.068.563.595.375 1.057.901 1.387 1.58.333.677.5 1.47.5 2.38 0 .901-.167 1.69-.5 2.364a3.77 3.77 0 0 1-1.387 1.573c-.59.375-1.28.563-2.068.563Zm0-1.205c.599 0 1.091-.153 1.477-.46.387-.307.673-.71.858-1.21.186-.5.279-1.042.279-1.625 0-.584-.093-1.127-.279-1.63a2.75 2.75 0 0 0-.858-1.223c-.386-.31-.878-.465-1.477-.465-.598 0-1.09.155-1.477.465a2.757 2.757 0 0 0-.858 1.222 4.681 4.681 0 0 0-.278 1.63c0 .584.092 1.126.278 1.626.186.5.472.903.858 1.21.386.307.879.46 1.477.46ZM63.462 88v-8.727h1.295v1.318h.091c.16-.432.447-.782.864-1.051a2.542 2.542 0 0 1 1.409-.404c.098 0 .221.002.37.006.147.004.258.01.334.017v1.364a4.008 4.008 0 0 0-.312-.051 3.077 3.077 0 0 0-.506-.04c-.424 0-.803.089-1.136.267a1.954 1.954 0 0 0-1.068 1.778V88h-1.341Zm8.983.182c-.728 0-1.37-.184-1.926-.551-.557-.371-.993-.894-1.307-1.569-.315-.677-.472-1.479-.472-2.403 0-.917.157-1.712.472-2.386.314-.674.751-1.195 1.312-1.563.56-.367 1.209-.55 1.943-.55.569 0 1.017.094 1.347.283.333.186.587.398.761.636.178.235.317.429.415.58h.114v-4.295h1.34V88H75.15v-1.34h-.159a8.63 8.63 0 0 1-.42.601c-.182.239-.442.453-.779.642-.337.186-.786.279-1.346.279Zm.181-1.205c.538 0 .993-.14 1.364-.42.371-.284.654-.676.847-1.176.193-.504.29-1.085.29-1.745 0-.651-.095-1.221-.285-1.71-.19-.492-.47-.875-.84-1.148-.372-.276-.83-.414-1.376-.414-.568 0-1.041.145-1.42.437-.375.288-.657.68-.847 1.176a4.675 4.675 0 0 0-.278 1.66c0 .62.095 1.185.284 1.692.193.504.477.906.852 1.205.38.295.849.443 1.41.443ZM79.086 88v-8.727h1.342V88h-1.341Zm.683-10.182a.953.953 0 0 1-.677-.267.858.858 0 0 1-.278-.642.86.86 0 0 1 .278-.642.954.954 0 0 1 .678-.267c.26 0 .484.089.67.267a.85.85 0 0 1 .284.642.85.85 0 0 1-.284.642.934.934 0 0 1-.67.267Zm6.66 10.364c-.788 0-1.48-.188-2.074-.563-.59-.375-1.053-.9-1.386-1.573-.33-.675-.495-1.463-.495-2.364 0-.91.165-1.703.495-2.38.333-.679.795-1.205 1.386-1.58.595-.375 1.286-.563 2.074-.563.788 0 1.477.188 2.068.563.595.375 1.057.901 1.386 1.58.334.677.5 1.47.5 2.38 0 .901-.166 1.69-.5 2.364a3.769 3.769 0 0 1-1.386 1.573c-.59.375-1.28.563-2.068.563Zm0-1.205c.599 0 1.09-.153 1.477-.46.387-.307.673-.71.858-1.21.186-.5.279-1.042.279-1.625 0-.584-.093-1.127-.279-1.63a2.749 2.749 0 0 0-.858-1.223c-.386-.31-.879-.465-1.477-.465-.599 0-1.09.155-1.477.465a2.741 2.741 0 0 0-.858 1.222 4.679 4.679 0 0 0-.279 1.63c0 .584.093 1.126.279 1.626.185.5.471.903.858 1.21.386.307.879.46 1.477.46Zm7.342-4.227V88h-1.34v-8.727h1.295v1.363h.114c.204-.443.515-.799.931-1.068.417-.272.955-.409 1.614-.409.59 0 1.108.121 1.551.364.443.238.788.602 1.034 1.09.246.486.37 1.1.37 1.841V88h-1.341v-5.454c0-.686-.178-1.22-.534-1.603-.357-.386-.845-.58-1.466-.58-.428 0-.811.093-1.148.279a1.993 1.993 0 0 0-.79.813c-.193.356-.29.787-.29 1.295ZM106.29 88v-8.727h1.341V88h-1.341Zm.682-10.182a.955.955 0 0 1-.677-.267.86.86 0 0 1-.278-.642.86.86 0 0 1 .278-.642.955.955 0 0 1 .677-.267c.261 0 .484.089.67.267a.851.851 0 0 1 .284.642c0 .25-.095.464-.284.642a.934.934 0 0 1-.67.267Zm6.91 1.455v1.136h-4.523v-1.136h4.523Zm-3.204-2.091h1.34V85.5c0 .379.055.663.165.852.114.186.258.31.432.375.178.06.366.091.563.091.147 0 .268-.007.363-.022l.227-.046.273 1.204a2.753 2.753 0 0 1-.38.103c-.163.038-.37.057-.62.057-.379 0-.75-.082-1.113-.245a2.208 2.208 0 0 1-.898-.744c-.235-.333-.352-.754-.352-1.261v-8.682Zm8.786 11c-.84 0-1.566-.186-2.176-.557a3.733 3.733 0 0 1-1.403-1.568c-.326-.674-.489-1.459-.489-2.353 0-.893.163-1.681.489-2.363.329-.686.788-1.22 1.375-1.602.591-.387 1.28-.58 2.068-.58.455 0 .904.076 1.347.227a3.34 3.34 0 0 1 1.21.739c.364.337.653.784.869 1.34.216.558.324 1.243.324 2.058v.568h-6.727v-1.16h5.363c0-.492-.098-.931-.295-1.317a2.225 2.225 0 0 0-.83-.915c-.356-.224-.776-.335-1.261-.335-.534 0-.996.132-1.386.397a2.608 2.608 0 0 0-.892 1.023c-.209.42-.313.871-.313 1.352v.773c0 .66.114 1.218.341 1.676.231.455.551.801.96 1.04.409.235.885.352 1.426.352a2.9 2.9 0 0 0 .955-.148 2.03 2.03 0 0 0 .744-.454c.209-.204.37-.458.483-.761l1.296.363a2.88 2.88 0 0 1-.688 1.16 3.344 3.344 0 0 1-1.193.772 4.426 4.426 0 0 1-1.597.273Zm5.654-.182v-8.727h1.295v1.363h.114c.182-.465.475-.827.881-1.085.405-.261.892-.392 1.46-.392.576 0 1.055.13 1.437.392.387.258.688.62.904 1.085h.091c.223-.45.558-.808 1.005-1.073.447-.27.983-.404 1.608-.404.781 0 1.419.244 1.915.733.496.485.744 1.24.744 2.267V88h-1.34v-5.84c0-.645-.177-1.105-.529-1.382a1.955 1.955 0 0 0-1.244-.414c-.614 0-1.089.185-1.426.556-.337.368-.506.834-.506 1.398V88h-1.364v-5.977c0-.496-.161-.896-.483-1.2-.322-.306-.736-.46-1.244-.46-.348 0-.674.093-.977.279a2.1 2.1 0 0 0-.727.773 2.28 2.28 0 0 0-.273 1.13V88h-1.341Zm22.474-11.636V88h-1.409V77.84h-.068l-2.841 1.887v-1.431l2.909-1.932h1.409Z" fill="#344054"/><path fill-rule="evenodd" clip-rule="evenodd" d="M580.469 76.969a.746.746 0 0 1 .818-.163.746.746 0 0 1 .244.163l8.469 8.47 8.469-8.47a.756.756 0 0 1 .818-.163.756.756 0 0 1 .407.407.746.746 0 0 1 0 .574.751.751 0 0 1-.163.244l-9 9a.745.745 0 0 1-.818.163.745.745 0 0 1-.244-.163l-9-9a.75.75 0 0 1 0-1.062Z" fill="#344054"/><path d="M4 51h618v-2H4v2Zm621 3v56h2V54h-2Zm-3 59H4v2h618v-2ZM1 110V54h-2v56h2Zm3 3a3 3 0 0 1-3-3h-2a5 5 0 0 0 5 5v-2Zm621-3a3 3 0 0 1-3 3v2a5 5 0 0 0 5-5h-2Zm-3-59a3 3 0 0 1 3 3h2a5 5 0 0 0-5-5v2ZM4 49a5 5 0 0 0-5 5h2a3 3 0 0 1 3-3v-2Z" fill="#98A2B3"/><circle cx="21" cy="16" r="12" fill="#344054"/><path d="M23.006 10.364V22h-2.46v-9.301h-.069l-2.665 1.67v-2.181l2.881-1.824h2.313Z" fill="#fff"/><path d="M34 16h73v50" stroke="#344054" stroke-dasharray="2 2"/></svg>