<svg width="741" height="102" viewBox="0 0 741 102" fill="none" xmlns="http://www.w3.org/2000/svg"><path d="M57 4a4 4 0 0 1 4-4h618a4 4 0 0 1 4 4v56a4 4 0 0 1-4 4H61a4 4 0 0 1-4-4V4Z" fill="#fff"/><path d="M82.886 38H81.41l4.273-11.636h1.454L91.41 38h-1.477l-3.478-9.796h-.09L82.886 38Zm.546-4.545h5.954v1.25h-5.954v-1.25Zm13.153 4.727c-.818 0-1.522-.193-2.113-.58a3.777 3.777 0 0 1-1.364-1.596c-.318-.678-.477-1.453-.477-2.324 0-.887.163-1.669.488-2.347.33-.682.788-1.214 1.375-1.596.591-.387 1.28-.58 2.069-.58.613 0 1.166.114 1.659.341a3.19 3.19 0 0 1 1.21.954c.314.41.51.887.585 1.432h-1.34c-.103-.397-.33-.75-.683-1.056-.348-.311-.818-.466-1.409-.466-.522 0-.98.136-1.375.409-.39.269-.695.65-.914 1.142-.217.488-.324 1.062-.324 1.721 0 .675.106 1.262.318 1.762.216.5.519.888.909 1.164.394.277.856.415 1.386.415.349 0 .665-.06.95-.181.283-.122.524-.296.72-.523.198-.228.338-.5.421-.819h1.341c-.076.516-.263.98-.563 1.393a3.142 3.142 0 0 1-1.176.977c-.484.239-1.049.358-1.693.358Zm8.938 0c-.818 0-1.523-.193-2.114-.58a3.783 3.783 0 0 1-1.364-1.596c-.318-.678-.477-1.453-.477-2.324 0-.887.163-1.669.489-2.347.329-.682.788-1.214 1.375-1.596.591-.387 1.28-.58 2.068-.58a3.91 3.91 0 0 1 1.659.341 3.17 3.17 0 0 1 1.21.954c.315.41.51.887.586 1.432h-1.341c-.103-.397-.33-.75-.682-1.056-.349-.311-.818-.466-1.409-.466-.523 0-.981.136-1.375.409-.39.269-.695.65-.915 1.142-.216.488-.324 1.062-.324 1.721 0 .675.106 1.262.318 1.762.216.5.519.888.909 1.164.394.277.856.415 1.387.415a2.4 2.4 0 0 0 .949-.181c.284-.122.524-.296.721-.523.197-.228.337-.5.421-.819h1.341c-.076.516-.264.98-.563 1.393a3.142 3.142 0 0 1-1.176.977c-.485.239-1.049.358-1.693.358Zm8.937 0c-.788 0-1.479-.188-2.074-.563-.591-.375-1.053-.9-1.386-1.574-.33-.674-.494-1.462-.494-2.363 0-.91.164-1.703.494-2.38.333-.679.795-1.205 1.386-1.58.595-.375 1.286-.563 2.074-.563.788 0 1.478.188 2.068.563.595.375 1.057.901 1.387 1.58.333.677.5 1.47.5 2.38 0 .901-.167 1.69-.5 2.363-.33.675-.792 1.2-1.387 1.574-.59.375-1.28.563-2.068.563Zm0-1.205c.599 0 1.091-.153 1.478-.46a2.71 2.71 0 0 0 .857-1.21c.186-.5.279-1.042.279-1.625 0-.584-.093-1.127-.279-1.63a2.745 2.745 0 0 0-.857-1.223c-.387-.31-.879-.465-1.478-.465-.598 0-1.091.155-1.477.465a2.757 2.757 0 0 0-.858 1.222 4.672 4.672 0 0 0-.278 1.63c0 .584.092 1.126.278 1.626.186.5.472.903.858 1.21.386.307.879.46 1.477.46ZM120.462 38v-8.727h1.295v1.318h.091c.159-.432.447-.782.864-1.051a2.54 2.54 0 0 1 1.409-.404c.098 0 .221.002.369.006s.26.01.335.017v1.364a3.926 3.926 0 0 0-.312-.051 3.08 3.08 0 0 0-.506-.04c-.424 0-.803.089-1.136.267a1.955 1.955 0 0 0-1.068 1.778V38h-1.341Zm8.983.182c-.728 0-1.37-.184-1.927-.551-.556-.371-.992-.894-1.306-1.569-.315-.677-.472-1.479-.472-2.403 0-.917.157-1.712.472-2.386.314-.674.752-1.195 1.312-1.563.561-.367 1.208-.55 1.943-.55.569 0 1.017.094 1.347.283.333.186.587.398.761.636.178.235.317.429.415.58h.114v-4.295h1.341V38h-1.296v-1.34h-.159a8.7 8.7 0 0 1-.42.601c-.182.239-.442.453-.779.642-.337.186-.786.279-1.346.279Zm.181-1.205c.538 0 .993-.14 1.364-.42.371-.284.653-.676.847-1.176.193-.504.289-1.086.289-1.745 0-.651-.094-1.221-.284-1.71-.189-.492-.469-.875-.841-1.148-.371-.276-.829-.414-1.375-.414-.568 0-1.041.145-1.42.437-.375.288-.657.68-.847 1.176a4.689 4.689 0 0 0-.278 1.66c0 .62.095 1.185.284 1.693.193.503.477.905.852 1.204.379.296.849.443 1.409.443ZM136.087 38v-8.727h1.341V38h-1.341Zm.681-10.182a.954.954 0 0 1-.676-.267.86.86 0 0 1-.278-.642.86.86 0 0 1 .278-.642.955.955 0 0 1 .676-.267c.262 0 .485.089.671.267a.851.851 0 0 1 .284.642c0 .25-.095.464-.284.642a.934.934 0 0 1-.671.267Zm6.661 10.364c-.788 0-1.479-.188-2.074-.563-.591-.375-1.053-.9-1.386-1.574-.33-.674-.495-1.462-.495-2.363 0-.91.165-1.703.495-2.38.333-.679.795-1.205 1.386-1.58.595-.375 1.286-.563 2.074-.563.788 0 1.477.188 2.068.563.595.375 1.057.901 1.387 1.58.333.677.5 1.47.5 2.38 0 .901-.167 1.69-.5 2.363-.33.675-.792 1.2-1.387 1.574-.591.375-1.28.563-2.068.563Zm0-1.205c.598 0 1.091-.153 1.477-.46.387-.307.673-.71.858-1.21.186-.5.279-1.042.279-1.625 0-.584-.093-1.127-.279-1.63a2.74 2.74 0 0 0-.858-1.223c-.386-.31-.879-.465-1.477-.465-.599 0-1.091.155-1.477.465a2.74 2.74 0 0 0-.858 1.222 4.672 4.672 0 0 0-.279 1.63c0 .584.093 1.126.279 1.626.185.5.471.903.858 1.21.386.307.878.46 1.477.46Zm7.342-4.227V38h-1.341v-8.727h1.296v1.363h.113a2.5 2.5 0 0 1 .932-1.068c.417-.273.955-.409 1.614-.409.591 0 1.108.121 1.551.364a2.45 2.45 0 0 1 1.034 1.09c.246.486.369 1.1.369 1.842V38h-1.34v-5.455c0-.685-.178-1.22-.535-1.602-.356-.386-.844-.58-1.465-.58a2.34 2.34 0 0 0-1.148.279 1.994 1.994 0 0 0-.79.813c-.193.356-.29.787-.29 1.295ZM163.29 38v-8.727h1.341V38h-1.341Zm.682-10.182a.955.955 0 0 1-.677-.267.86.86 0 0 1-.278-.642.86.86 0 0 1 .278-.642.955.955 0 0 1 .677-.267c.261 0 .484.089.67.267a.851.851 0 0 1 .284.642c0 .25-.095.464-.284.642a.934.934 0 0 1-.67.267Zm6.91 1.455v1.136h-4.523v-1.136h4.523Zm-3.204-2.091h1.34V35.5c0 .379.055.663.165.852.114.186.258.31.432.375.178.06.366.091.563.091.147 0 .268-.007.363-.023l.227-.045.273 1.205a2.753 2.753 0 0 1-.38.102c-.163.038-.37.057-.62.057-.379 0-.75-.082-1.113-.245a2.208 2.208 0 0 1-.898-.744c-.235-.333-.352-.754-.352-1.261v-8.682Zm8.786 11c-.84 0-1.566-.186-2.176-.557a3.733 3.733 0 0 1-1.403-1.568c-.326-.674-.489-1.459-.489-2.352 0-.894.163-1.682.489-2.364.329-.686.788-1.22 1.375-1.602.591-.387 1.28-.58 2.068-.58.455 0 .904.076 1.347.227a3.34 3.34 0 0 1 1.21.739c.364.337.653.784.869 1.34.216.558.324 1.243.324 2.058v.568h-6.727v-1.16h5.363c0-.492-.098-.931-.295-1.317a2.225 2.225 0 0 0-.83-.915c-.356-.224-.776-.335-1.261-.335-.534 0-.996.132-1.386.397a2.608 2.608 0 0 0-.892 1.023c-.209.42-.313.871-.313 1.352v.773c0 .66.114 1.218.341 1.676.231.455.551.801.96 1.04.409.235.885.352 1.426.352a2.9 2.9 0 0 0 .955-.147c.288-.103.536-.254.744-.455.209-.205.37-.458.483-.761l1.296.363a2.88 2.88 0 0 1-.688 1.16 3.344 3.344 0 0 1-1.193.772 4.426 4.426 0 0 1-1.597.273Zm5.654-.182v-8.727h1.295v1.363h.114c.182-.465.475-.827.881-1.085.405-.261.892-.392 1.46-.392.576 0 1.055.13 1.437.392.387.258.688.62.904 1.085h.091c.223-.45.558-.808 1.005-1.073.447-.27.983-.404 1.608-.404.781 0 1.419.244 1.915.733.496.485.744 1.24.744 2.267V38h-1.34v-5.84c0-.645-.177-1.105-.529-1.382a1.955 1.955 0 0 0-1.244-.414c-.614 0-1.089.185-1.426.556-.337.368-.506.834-.506 1.398V38h-1.364v-5.977c0-.497-.161-.896-.483-1.2-.322-.306-.736-.46-1.244-.46-.348 0-.674.093-.977.279a2.1 2.1 0 0 0-.727.773 2.28 2.28 0 0 0-.273 1.13V38h-1.341Zm22.474-11.636V38h-1.409V27.84h-.068l-2.841 1.887v-1.431l2.909-1.932h1.409Z" fill="#344054"/><path fill-rule="evenodd" clip-rule="evenodd" d="M637.469 26.969a.757.757 0 0 1 .819-.163.753.753 0 0 1 .243.163l8.469 8.47 8.469-8.47a.756.756 0 0 1 .818-.163.746.746 0 0 1 .464.694.746.746 0 0 1-.22.53l-9 9a.752.752 0 0 1-1.062 0l-9-9a.75.75 0 0 1 0-1.061Z" fill="#344054"/><path d="M61 1h618v-2H61v2Zm621 3v56h2V4h-2Zm-3 59H61v2h618v-2ZM58 60V4h-2v56h2Zm3 3a3 3 0 0 1-3-3h-2a5 5 0 0 0 5 5v-2Zm621-3a3 3 0 0 1-3 3v2a5 5 0 0 0 5-5h-2Zm-3-59a3 3 0 0 1 3 3h2a5 5 0 0 0-5-5v2ZM61-1a5 5 0 0 0-5 5h2a3 3 0 0 1 3-3v-2Z" fill="#98A2B3"/><path fill="#E8178A" fill-opacity=".24" d="M57 0h626v16H57zm0 48h626v16H57z"/><path d="M57 4a4 4 0 0 1 4-4h618a4 4 0 0 1 4 4v56a4 4 0 0 1-4 4H61a4 4 0 0 1-4-4V4Z" fill="#fff"/><path d="M82.886 38H81.41l4.273-11.636h1.454L91.41 38h-1.477l-3.478-9.796h-.09L82.886 38Zm.546-4.545h5.954v1.25h-5.954v-1.25Zm13.153 4.727c-.818 0-1.522-.193-2.113-.58a3.777 3.777 0 0 1-1.364-1.596c-.318-.678-.477-1.453-.477-2.324 0-.887.163-1.669.488-2.347.33-.682.788-1.214 1.375-1.596.591-.387 1.28-.58 2.069-.58.613 0 1.166.114 1.659.341a3.19 3.19 0 0 1 1.21.954c.314.41.51.887.585 1.432h-1.34c-.103-.397-.33-.75-.683-1.056-.348-.311-.818-.466-1.409-.466-.522 0-.98.136-1.375.409-.39.269-.695.65-.914 1.142-.217.488-.324 1.062-.324 1.721 0 .675.106 1.262.318 1.762.216.5.519.888.909 1.164.394.277.856.415 1.386.415.349 0 .665-.06.95-.181.283-.122.524-.296.72-.523.198-.228.338-.5.421-.819h1.341c-.076.516-.263.98-.563 1.393a3.142 3.142 0 0 1-1.176.977c-.484.239-1.049.358-1.693.358Zm8.938 0c-.818 0-1.523-.193-2.114-.58a3.783 3.783 0 0 1-1.364-1.596c-.318-.678-.477-1.453-.477-2.324 0-.887.163-1.669.489-2.347.329-.682.788-1.214 1.375-1.596.591-.387 1.28-.58 2.068-.58a3.91 3.91 0 0 1 1.659.341 3.17 3.17 0 0 1 1.21.954c.315.41.51.887.586 1.432h-1.341c-.103-.397-.33-.75-.682-1.056-.349-.311-.818-.466-1.409-.466-.523 0-.981.136-1.375.409-.39.269-.695.65-.915 1.142-.216.488-.324 1.062-.324 1.721 0 .675.106 1.262.318 1.762.216.5.519.888.909 1.164.394.277.856.415 1.387.415a2.4 2.4 0 0 0 .949-.181c.284-.122.524-.296.721-.523.197-.228.337-.5.421-.819h1.341c-.076.516-.264.98-.563 1.393a3.142 3.142 0 0 1-1.176.977c-.485.239-1.049.358-1.693.358Zm8.937 0c-.788 0-1.479-.188-2.074-.563-.591-.375-1.053-.9-1.386-1.574-.33-.674-.494-1.462-.494-2.363 0-.91.164-1.703.494-2.38.333-.679.795-1.205 1.386-1.58.595-.375 1.286-.563 2.074-.563.788 0 1.478.188 2.068.563.595.375 1.057.901 1.387 1.58.333.677.5 1.47.5 2.38 0 .901-.167 1.69-.5 2.363-.33.675-.792 1.2-1.387 1.574-.59.375-1.28.563-2.068.563Zm0-1.205c.599 0 1.091-.153 1.478-.46a2.71 2.71 0 0 0 .857-1.21c.186-.5.279-1.042.279-1.625 0-.584-.093-1.127-.279-1.63a2.745 2.745 0 0 0-.857-1.223c-.387-.31-.879-.465-1.478-.465-.598 0-1.091.155-1.477.465a2.757 2.757 0 0 0-.858 1.222 4.672 4.672 0 0 0-.278 1.63c0 .584.092 1.126.278 1.626.186.5.472.903.858 1.21.386.307.879.46 1.477.46ZM120.462 38v-8.727h1.295v1.318h.091c.159-.432.447-.782.864-1.051a2.54 2.54 0 0 1 1.409-.404c.098 0 .221.002.369.006s.26.01.335.017v1.364a3.926 3.926 0 0 0-.312-.051 3.08 3.08 0 0 0-.506-.04c-.424 0-.803.089-1.136.267a1.955 1.955 0 0 0-1.068 1.778V38h-1.341Zm8.983.182c-.728 0-1.37-.184-1.927-.551-.556-.371-.992-.894-1.306-1.569-.315-.677-.472-1.479-.472-2.403 0-.917.157-1.712.472-2.386.314-.674.752-1.195 1.312-1.563.561-.367 1.208-.55 1.943-.55.569 0 1.017.094 1.347.283.333.186.587.398.761.636.178.235.317.429.415.58h.114v-4.295h1.341V38h-1.296v-1.34h-.159a8.7 8.7 0 0 1-.42.601c-.182.239-.442.453-.779.642-.337.186-.786.279-1.346.279Zm.181-1.205c.538 0 .993-.14 1.364-.42.371-.284.653-.676.847-1.176.193-.504.289-1.086.289-1.745 0-.651-.094-1.221-.284-1.71-.189-.492-.469-.875-.841-1.148-.371-.276-.829-.414-1.375-.414-.568 0-1.041.145-1.42.437-.375.288-.657.68-.847 1.176a4.689 4.689 0 0 0-.278 1.66c0 .62.095 1.185.284 1.693.193.503.477.905.852 1.204.379.296.849.443 1.409.443ZM136.087 38v-8.727h1.341V38h-1.341Zm.681-10.182a.954.954 0 0 1-.676-.267.86.86 0 0 1-.278-.642.86.86 0 0 1 .278-.642.955.955 0 0 1 .676-.267c.262 0 .485.089.671.267a.851.851 0 0 1 .284.642c0 .25-.095.464-.284.642a.934.934 0 0 1-.671.267Zm6.661 10.364c-.788 0-1.479-.188-2.074-.563-.591-.375-1.053-.9-1.386-1.574-.33-.674-.495-1.462-.495-2.363 0-.91.165-1.703.495-2.38.333-.679.795-1.205 1.386-1.58.595-.375 1.286-.563 2.074-.563.788 0 1.477.188 2.068.563.595.375 1.057.901 1.387 1.58.333.677.5 1.47.5 2.38 0 .901-.167 1.69-.5 2.363-.33.675-.792 1.2-1.387 1.574-.591.375-1.28.563-2.068.563Zm0-1.205c.598 0 1.091-.153 1.477-.46.387-.307.673-.71.858-1.21.186-.5.279-1.042.279-1.625 0-.584-.093-1.127-.279-1.63a2.74 2.74 0 0 0-.858-1.223c-.386-.31-.879-.465-1.477-.465-.599 0-1.091.155-1.477.465a2.74 2.74 0 0 0-.858 1.222 4.672 4.672 0 0 0-.279 1.63c0 .584.093 1.126.279 1.626.185.5.471.903.858 1.21.386.307.878.46 1.477.46Zm7.342-4.227V38h-1.341v-8.727h1.296v1.363h.113a2.5 2.5 0 0 1 .932-1.068c.417-.273.955-.409 1.614-.409.591 0 1.108.121 1.551.364a2.45 2.45 0 0 1 1.034 1.09c.246.486.369 1.1.369 1.842V38h-1.34v-5.455c0-.685-.178-1.22-.535-1.602-.356-.386-.844-.58-1.465-.58a2.34 2.34 0 0 0-1.148.279 1.994 1.994 0 0 0-.79.813c-.193.356-.29.787-.29 1.295ZM163.29 38v-8.727h1.341V38h-1.341Zm.682-10.182a.955.955 0 0 1-.677-.267.86.86 0 0 1-.278-.642.86.86 0 0 1 .278-.642.955.955 0 0 1 .677-.267c.261 0 .484.089.67.267a.851.851 0 0 1 .284.642c0 .25-.095.464-.284.642a.934.934 0 0 1-.67.267Zm6.91 1.455v1.136h-4.523v-1.136h4.523Zm-3.204-2.091h1.34V35.5c0 .379.055.663.165.852.114.186.258.31.432.375.178.06.366.091.563.091.147 0 .268-.007.363-.023l.227-.045.273 1.205a2.753 2.753 0 0 1-.38.102c-.163.038-.37.057-.62.057-.379 0-.75-.082-1.113-.245a2.208 2.208 0 0 1-.898-.744c-.235-.333-.352-.754-.352-1.261v-8.682Zm8.786 11c-.84 0-1.566-.186-2.176-.557a3.733 3.733 0 0 1-1.403-1.568c-.326-.674-.489-1.459-.489-2.352 0-.894.163-1.682.489-2.364.329-.686.788-1.22 1.375-1.602.591-.387 1.28-.58 2.068-.58.455 0 .904.076 1.347.227a3.34 3.34 0 0 1 1.21.739c.364.337.653.784.869 1.34.216.558.324 1.243.324 2.058v.568h-6.727v-1.16h5.363c0-.492-.098-.931-.295-1.317a2.225 2.225 0 0 0-.83-.915c-.356-.224-.776-.335-1.261-.335-.534 0-.996.132-1.386.397a2.608 2.608 0 0 0-.892 1.023c-.209.42-.313.871-.313 1.352v.773c0 .66.114 1.218.341 1.676.231.455.551.801.96 1.04.409.235.885.352 1.426.352a2.9 2.9 0 0 0 .955-.147c.288-.103.536-.254.744-.455.209-.205.37-.458.483-.761l1.296.363a2.88 2.88 0 0 1-.688 1.16 3.344 3.344 0 0 1-1.193.772 4.426 4.426 0 0 1-1.597.273Zm5.654-.182v-8.727h1.295v1.363h.114c.182-.465.475-.827.881-1.085.405-.261.892-.392 1.46-.392.576 0 1.055.13 1.437.392.387.258.688.62.904 1.085h.091c.223-.45.558-.808 1.005-1.073.447-.27.983-.404 1.608-.404.781 0 1.419.244 1.915.733.496.485.744 1.24.744 2.267V38h-1.34v-5.84c0-.645-.177-1.105-.529-1.382a1.955 1.955 0 0 0-1.244-.414c-.614 0-1.089.185-1.426.556-.337.368-.506.834-.506 1.398V38h-1.364v-5.977c0-.497-.161-.896-.483-1.2-.322-.306-.736-.46-1.244-.46-.348 0-.674.093-.977.279a2.1 2.1 0 0 0-.727.773 2.28 2.28 0 0 0-.273 1.13V38h-1.341Zm22.474-11.636V38h-1.409V27.84h-.068l-2.841 1.887v-1.431l2.909-1.932h1.409Z" fill="#344054"/><path fill-rule="evenodd" clip-rule="evenodd" d="M637.469 26.969a.757.757 0 0 1 .819-.163.753.753 0 0 1 .243.163l8.469 8.47 8.469-8.47a.756.756 0 0 1 .818-.163.746.746 0 0 1 .464.694.746.746 0 0 1-.22.53l-9 9a.752.752 0 0 1-1.062 0l-9-9a.75.75 0 0 1 0-1.061Z" fill="#344054"/><path d="M61 1h618v-2H61v2Zm621 3v56h2V4h-2Zm-3 59H61v2h618v-2ZM58 60V4h-2v56h2Zm3 3a3 3 0 0 1-3-3h-2a5 5 0 0 0 5 5v-2Zm621-3a3 3 0 0 1-3 3v2a5 5 0 0 0 5-5h-2Zm-3-59a3 3 0 0 1 3 3h2a5 5 0 0 0-5-5v2ZM61-1a5 5 0 0 0-5 5h2a3 3 0 0 1 3-3v-2Z" fill="#98A2B3"/><path fill="#E8178A" fill-opacity=".24" d="M57 0h626v16H57zm0 48h626v16H57z"/><path fill="#E8178A" fill-opacity=".24" d="M57 0h24v64H57zm602 0h24v64h-24z"/><path d="M40.5 0v16" stroke="#E8178A"/><rect y=".5" width="36" height="18" rx="3" fill="#E8178A"/><path d="M9.754 6.227V13.5H8.216V7.687h-.043L6.508 8.73V7.367l1.8-1.14h1.446Zm4.52 7.372a3.285 3.285 0 0 1-1.084-.188 2.465 2.465 0 0 1-.93-.6c-.275-.277-.493-.644-.654-1.1-.158-.458-.238-1.019-.238-1.684.003-.61.073-1.156.21-1.637.14-.483.338-.893.597-1.229.26-.336.571-.592.933-.767a2.73 2.73 0 0 1 1.218-.266c.486 0 .914.095 1.286.284.372.187.67.441.895.763.227.322.364.683.412 1.084h-1.517a1.013 1.013 0 0 0-.372-.597 1.126 1.126 0 0 0-.704-.217c-.473 0-.833.206-1.079.618-.244.412-.368.972-.373 1.68h.05a1.69 1.69 0 0 1 .44-.55c.187-.154.4-.272.636-.352.239-.083.491-.124.756-.124a2.168 2.168 0 0 1 1.946 1.136c.194.353.291.756.291 1.21 0 .493-.114.931-.344 1.315a2.388 2.388 0 0 1-.955.902c-.408.215-.881.322-1.42.32Zm-.008-1.207a1.2 1.2 0 0 0 1.076-.632 1.33 1.33 0 0 0 .16-.653c0-.242-.053-.459-.16-.65a1.181 1.181 0 0 0-1.065-.629c-.178 0-.342.033-.494.1a1.241 1.241 0 0 0-.657.688 1.274 1.274 0 0 0-.096.494 1.277 1.277 0 0 0 .6 1.108c.188.116.4.174.636.174Zm3.832 3.154v-7.5h1.491v.916h.068c.066-.147.162-.296.287-.448.128-.154.294-.282.498-.383.206-.104.461-.157.767-.157.397 0 .764.105 1.1.313.337.206.605.517.807.934.2.414.301.934.301 1.559 0 .608-.098 1.122-.294 1.541-.194.417-.46.733-.796.948-.334.213-.708.32-1.122.32-.293 0-.543-.049-.75-.146a1.55 1.55 0 0 1-.5-.366c-.13-.149-.23-.3-.298-.45h-.046v2.918h-1.513Zm1.48-4.773c0 .324.046.607.136.848.09.242.22.43.39.565a.98.98 0 0 0 .622.199.975.975 0 0 0 .625-.203c.17-.137.3-.326.387-.568a2.42 2.42 0 0 0 .135-.841 2.41 2.41 0 0 0-.132-.831 1.238 1.238 0 0 0-.387-.561.98.98 0 0 0-.628-.203 1 1 0 0 0-.625.196 1.22 1.22 0 0 0-.387.554c-.09.239-.135.52-.135.845Zm5.917-2.728 1.001 1.907 1.027-1.907h1.551l-1.58 2.728 1.623 2.727h-1.545l-1.076-1.886-1.058 1.886h-1.563l1.62-2.727-1.563-2.728h1.563Z" fill="#fff"/><path stroke="#E8178A" d="M37 .5h7m-7 15h7M41.5 48v16"/><rect x="1" y="48.5" width="36" height="18" rx="3" fill="#E8178A"/><path d="M10.754 54.227H9.308l-1.8 1.14v1.364l1.665-1.044h.043V61.5h1.538v-7.273Zm4.52 7.372c1.619.008 2.723-1.054 2.72-2.535.003-1.364-.949-2.347-2.238-2.347-.799 0-1.505.383-1.832 1.026h-.05c.007-1.417.504-2.298 1.452-2.298.558 0 .96.306 1.076.813h1.517c-.146-1.196-1.14-2.13-2.593-2.13-1.796 0-2.95 1.456-2.958 3.899-.003 2.663 1.41 3.565 2.905 3.572Zm-.008-1.207c-.71 0-1.236-.572-1.236-1.282.004-.707.54-1.282 1.247-1.282.71 0 1.229.558 1.225 1.278.004.728-.526 1.286-1.236 1.286Zm3.832 3.153h1.513v-2.919h.046c.21.455.667.963 1.548.963 1.243 0 2.212-.984 2.212-2.81 0-1.874-1.012-2.805-2.208-2.805-.913 0-1.35.544-1.552.988h-.068v-.917h-1.491v7.5Zm1.48-4.772c0-.973.413-1.595 1.148-1.595.749 0 1.147.65 1.147 1.595 0 .951-.405 1.612-1.147 1.612-.728 0-1.147-.64-1.147-1.612Zm5.907-2.728h-1.562l1.562 2.728-1.62 2.727h1.563l1.058-1.886 1.076 1.886h1.545l-1.623-2.727 1.58-2.728h-1.551l-1.027 1.907-1-1.907Z" fill="#fff"/><path stroke="#E8178A" d="M38 48.5h7m-7 15h7m614 16h24"/><rect x="652.5" y="84" width="37" height="18" rx="3" fill="#E8178A"/><path d="M659.089 97v-1.108l2.589-2.397c.22-.213.405-.405.554-.575.152-.17.267-.338.345-.501.078-.166.117-.344.117-.536a1.01 1.01 0 0 0-.146-.55.954.954 0 0 0-.397-.36 1.25 1.25 0 0 0-.572-.127c-.223 0-.417.045-.583.135a.933.933 0 0 0-.383.387c-.09.168-.135.368-.135.6h-1.46c0-.476.108-.889.324-1.24.215-.35.517-.62.905-.813.388-.191.836-.287 1.342-.287.521 0 .975.092 1.361.277.388.182.69.435.905.76.216.324.323.696.323 1.115 0 .275-.054.546-.163.813-.107.268-.297.565-.572.891-.274.325-.662.714-1.161 1.169l-1.062 1.04v.05h3.054V97h-5.185Zm6.033-1.278V94.51l3.036-4.784h1.044v1.676h-.618l-1.914 3.03v.056h4.315v1.233h-5.863ZM668.613 97v-1.648l.028-.536v-5.089h1.442V97h-1.47Zm3.411 2.046v-7.5h1.491v.916h.068c.066-.147.162-.296.287-.448.128-.154.294-.281.497-.383.206-.105.462-.157.767-.157.398 0 .765.105 1.101.313.336.206.605.517.806.934.202.414.302.934.302 1.559 0 .608-.098 1.122-.295 1.541-.194.417-.459.733-.795.948-.334.213-.708.32-1.122.32-.294 0-.543-.049-.749-.146a1.545 1.545 0 0 1-.501-.366c-.13-.149-.23-.3-.298-.45h-.047v2.919h-1.512Zm1.48-4.773c0 .324.045.607.135.848.09.242.221.43.391.565a.98.98 0 0 0 .621.199.973.973 0 0 0 .625-.203c.171-.137.3-.326.388-.568a2.44 2.44 0 0 0 .134-.841 2.4 2.4 0 0 0-.131-.831 1.244 1.244 0 0 0-.387-.561.98.98 0 0 0-.629-.203 1 1 0 0 0-.625.196 1.22 1.22 0 0 0-.387.554c-.09.239-.135.52-.135.845Zm5.917-2.727 1.001 1.906 1.026-1.906H683l-1.58 2.727L683.043 97h-1.545l-1.076-1.886L679.364 97h-1.563l1.62-2.727-1.563-2.727h1.563Z" fill="#fff"/><path stroke="#E8178A" d="M659.5 83v-7m23 7v-7"/><path d="M698.5 0v64" stroke="#1745E8"/><rect x="703" y="24.5" width="38" height="18" rx="3" fill="#1745E8"/><path d="M712.381 37.6c1.619.006 2.723-1.055 2.72-2.536.003-1.364-.948-2.347-2.237-2.347-.799 0-1.506.383-1.833 1.026h-.049c.007-1.417.504-2.298 1.452-2.298.557 0 .959.306 1.076.813h1.516c-.145-1.196-1.14-2.13-2.592-2.13-1.797 0-2.951 1.456-2.958 3.899-.004 2.663 1.41 3.565 2.905 3.572Zm-.007-1.208c-.711 0-1.236-.572-1.236-1.282.003-.707.54-1.282 1.246-1.282.71 0 1.229.558 1.225 1.278.004.728-.525 1.286-1.235 1.286Zm3.707-.17h3.491V37.5h1.47v-1.278h.902v-1.233h-.902v-4.762h-1.925l-3.036 4.784v1.21Zm3.519-1.233h-1.971v-.056l1.914-3.03h.057v3.086Zm3.383 4.556h1.512v-2.919h.047c.209.455.667.963 1.548.963 1.243 0 2.212-.984 2.212-2.81 0-1.874-1.012-2.805-2.209-2.805-.912 0-1.349.544-1.551.988h-.068v-.917h-1.491v7.5Zm1.48-4.772c0-.973.412-1.595 1.147-1.595.75 0 1.147.65 1.147 1.595 0 .951-.404 1.612-1.147 1.612-.728 0-1.147-.64-1.147-1.612Zm5.907-2.728h-1.563l1.563 2.728-1.619 2.727h1.562l1.058-1.886 1.076 1.886h1.545l-1.623-2.727 1.58-2.728h-1.551l-1.027 1.907-1.001-1.907Z" fill="#fff"/><path stroke="#1745E8" d="M695 .5h7m-7 63h7"/></svg>