<svg width="741" height="102" viewBox="0 0 741 102" fill="none" xmlns="http://www.w3.org/2000/svg">
<path d="M57 4C57 1.79086 58.7909 0 61 0H679C681.209 0 683 1.79086 683 4V60C683 62.2091 681.209 64 679 64H61C58.7909 64 57 62.2091 57 60V4Z" fill="white"/>
<path d="M82.8864 38H81.4091L85.6818 26.3636H87.1364L91.4091 38H89.9318L86.4545 28.2045H86.3636L82.8864 38ZM83.4318 33.4545H89.3864V34.7045H83.4318V33.4545ZM96.5852 38.1818C95.767 38.1818 95.0625 37.9886 94.4716 37.6023C93.8807 37.2159 93.4261 36.6837 93.108 36.0057C92.7898 35.3277 92.6307 34.553 92.6307 33.6818C92.6307 32.7955 92.7936 32.0133 93.1193 31.3352C93.4489 30.6534 93.9072 30.1212 94.4943 29.7386C95.0852 29.3523 95.7746 29.1591 96.5625 29.1591C97.1761 29.1591 97.7292 29.2727 98.2216 29.5C98.714 29.7273 99.1174 30.0455 99.4318 30.4545C99.7462 30.8636 99.9413 31.3409 100.017 31.8864H98.6761C98.5739 31.4886 98.3466 31.1364 97.9943 30.8295C97.6458 30.5189 97.1761 30.3636 96.5852 30.3636C96.0625 30.3636 95.6042 30.5 95.2102 30.7727C94.8201 31.0417 94.5152 31.4223 94.2955 31.9148C94.0795 32.4034 93.9716 32.9773 93.9716 33.6364C93.9716 34.3106 94.0777 34.8977 94.2898 35.3977C94.5057 35.8977 94.8087 36.286 95.1989 36.5625C95.5928 36.839 96.0549 36.9773 96.5852 36.9773C96.9337 36.9773 97.25 36.9167 97.5341 36.7955C97.8182 36.6742 98.0587 36.5 98.2557 36.2727C98.4527 36.0455 98.5928 35.7727 98.6761 35.4545H100.017C99.9413 35.9697 99.7538 36.4337 99.4545 36.8466C99.1591 37.2557 98.767 37.5814 98.2784 37.8239C97.7936 38.0625 97.2292 38.1818 96.5852 38.1818ZM105.523 38.1818C104.705 38.1818 104 37.9886 103.409 37.6023C102.818 37.2159 102.364 36.6837 102.045 36.0057C101.727 35.3277 101.568 34.553 101.568 33.6818C101.568 32.7955 101.731 32.0133 102.057 31.3352C102.386 30.6534 102.845 30.1212 103.432 29.7386C104.023 29.3523 104.712 29.1591 105.5 29.1591C106.114 29.1591 106.667 29.2727 107.159 29.5C107.652 29.7273 108.055 30.0455 108.369 30.4545C108.684 30.8636 108.879 31.3409 108.955 31.8864H107.614C107.511 31.4886 107.284 31.1364 106.932 30.8295C106.583 30.5189 106.114 30.3636 105.523 30.3636C105 30.3636 104.542 30.5 104.148 30.7727C103.758 31.0417 103.453 31.4223 103.233 31.9148C103.017 32.4034 102.909 32.9773 102.909 33.6364C102.909 34.3106 103.015 34.8977 103.227 35.3977C103.443 35.8977 103.746 36.286 104.136 36.5625C104.53 36.839 104.992 36.9773 105.523 36.9773C105.871 36.9773 106.188 36.9167 106.472 36.7955C106.756 36.6742 106.996 36.5 107.193 36.2727C107.39 36.0455 107.53 35.7727 107.614 35.4545H108.955C108.879 35.9697 108.691 36.4337 108.392 36.8466C108.097 37.2557 107.705 37.5814 107.216 37.8239C106.731 38.0625 106.167 38.1818 105.523 38.1818ZM114.46 38.1818C113.672 38.1818 112.981 37.9943 112.386 37.6193C111.795 37.2443 111.333 36.7197 111 36.0455C110.67 35.3712 110.506 34.5833 110.506 33.6818C110.506 32.7727 110.67 31.9792 111 31.3011C111.333 30.6231 111.795 30.0966 112.386 29.7216C112.981 29.3466 113.672 29.1591 114.46 29.1591C115.248 29.1591 115.938 29.3466 116.528 29.7216C117.123 30.0966 117.585 30.6231 117.915 31.3011C118.248 31.9792 118.415 32.7727 118.415 33.6818C118.415 34.5833 118.248 35.3712 117.915 36.0455C117.585 36.7197 117.123 37.2443 116.528 37.6193C115.938 37.9943 115.248 38.1818 114.46 38.1818ZM114.46 36.9773C115.059 36.9773 115.551 36.8239 115.938 36.517C116.324 36.2102 116.61 35.8068 116.795 35.3068C116.981 34.8068 117.074 34.2652 117.074 33.6818C117.074 33.0985 116.981 32.5549 116.795 32.0511C116.61 31.5473 116.324 31.1402 115.938 30.8295C115.551 30.5189 115.059 30.3636 114.46 30.3636C113.862 30.3636 113.369 30.5189 112.983 30.8295C112.597 31.1402 112.311 31.5473 112.125 32.0511C111.939 32.5549 111.847 33.0985 111.847 33.6818C111.847 34.2652 111.939 34.8068 112.125 35.3068C112.311 35.8068 112.597 36.2102 112.983 36.517C113.369 36.8239 113.862 36.9773 114.46 36.9773ZM120.462 38V29.2727H121.757V30.5909H121.848C122.007 30.1591 122.295 29.8087 122.712 29.5398C123.128 29.2708 123.598 29.1364 124.121 29.1364C124.219 29.1364 124.342 29.1383 124.49 29.142C124.638 29.1458 124.75 29.1515 124.825 29.1591V30.5227C124.78 30.5114 124.676 30.4943 124.513 30.4716C124.354 30.4451 124.185 30.4318 124.007 30.4318C123.583 30.4318 123.204 30.5208 122.871 30.6989C122.541 30.8731 122.28 31.1155 122.087 31.4261C121.897 31.733 121.803 32.0833 121.803 32.4773V38H120.462ZM129.445 38.1818C128.717 38.1818 128.075 37.9981 127.518 37.6307C126.962 37.2595 126.526 36.7367 126.212 36.0625C125.897 35.3845 125.74 34.5833 125.74 33.6591C125.74 32.7424 125.897 31.947 126.212 31.2727C126.526 30.5985 126.964 30.0777 127.524 29.7102C128.085 29.3428 128.732 29.1591 129.467 29.1591C130.036 29.1591 130.484 29.2538 130.814 29.4432C131.147 29.6288 131.401 29.8409 131.575 30.0795C131.753 30.3144 131.892 30.5076 131.99 30.6591H132.104V26.3636H133.445V38H132.149V36.6591H131.99C131.892 36.8182 131.751 37.0189 131.57 37.2614C131.388 37.5 131.128 37.714 130.791 37.9034C130.454 38.089 130.005 38.1818 129.445 38.1818ZM129.626 36.9773C130.164 36.9773 130.619 36.8371 130.99 36.5568C131.361 36.2727 131.643 35.8807 131.837 35.3807C132.03 34.8769 132.126 34.2955 132.126 33.6364C132.126 32.9848 132.032 32.4148 131.842 31.9261C131.653 31.4337 131.373 31.0511 131.001 30.7784C130.63 30.5019 130.172 30.3636 129.626 30.3636C129.058 30.3636 128.585 30.5095 128.206 30.8011C127.831 31.089 127.549 31.4811 127.359 31.9773C127.174 32.4697 127.081 33.0227 127.081 33.6364C127.081 34.2576 127.176 34.822 127.365 35.3295C127.558 35.8333 127.842 36.2348 128.217 36.5341C128.596 36.8295 129.066 36.9773 129.626 36.9773ZM136.087 38V29.2727H137.428V38H136.087ZM136.768 27.8182C136.507 27.8182 136.282 27.7292 136.092 27.5511C135.907 27.3731 135.814 27.1591 135.814 26.9091C135.814 26.6591 135.907 26.4451 136.092 26.267C136.282 26.089 136.507 26 136.768 26C137.03 26 137.253 26.089 137.439 26.267C137.628 26.4451 137.723 26.6591 137.723 26.9091C137.723 27.1591 137.628 27.3731 137.439 27.5511C137.253 27.7292 137.03 27.8182 136.768 27.8182ZM143.429 38.1818C142.641 38.1818 141.95 37.9943 141.355 37.6193C140.764 37.2443 140.302 36.7197 139.969 36.0455C139.639 35.3712 139.474 34.5833 139.474 33.6818C139.474 32.7727 139.639 31.9792 139.969 31.3011C140.302 30.6231 140.764 30.0966 141.355 29.7216C141.95 29.3466 142.641 29.1591 143.429 29.1591C144.217 29.1591 144.906 29.3466 145.497 29.7216C146.092 30.0966 146.554 30.6231 146.884 31.3011C147.217 31.9792 147.384 32.7727 147.384 33.6818C147.384 34.5833 147.217 35.3712 146.884 36.0455C146.554 36.7197 146.092 37.2443 145.497 37.6193C144.906 37.9943 144.217 38.1818 143.429 38.1818ZM143.429 36.9773C144.027 36.9773 144.52 36.8239 144.906 36.517C145.293 36.2102 145.579 35.8068 145.764 35.3068C145.95 34.8068 146.043 34.2652 146.043 33.6818C146.043 33.0985 145.95 32.5549 145.764 32.0511C145.579 31.5473 145.293 31.1402 144.906 30.8295C144.52 30.5189 144.027 30.3636 143.429 30.3636C142.83 30.3636 142.338 30.5189 141.952 30.8295C141.565 31.1402 141.279 31.5473 141.094 32.0511C140.908 32.5549 140.815 33.0985 140.815 33.6818C140.815 34.2652 140.908 34.8068 141.094 35.3068C141.279 35.8068 141.565 36.2102 141.952 36.517C142.338 36.8239 142.83 36.9773 143.429 36.9773ZM150.771 32.75V38H149.43V29.2727H150.726V30.6364H150.839C151.044 30.1932 151.355 29.8371 151.771 29.5682C152.188 29.2955 152.726 29.1591 153.385 29.1591C153.976 29.1591 154.493 29.2803 154.936 29.5227C155.379 29.7614 155.724 30.125 155.97 30.6136C156.216 31.0985 156.339 31.7121 156.339 32.4545V38H154.999V32.5455C154.999 31.8598 154.821 31.3258 154.464 30.9432C154.108 30.5568 153.62 30.3636 152.999 30.3636C152.571 30.3636 152.188 30.4564 151.851 30.642C151.518 30.8277 151.254 31.0985 151.061 31.4545C150.868 31.8106 150.771 32.2424 150.771 32.75ZM163.29 38V29.2727H164.631V38H163.29ZM163.972 27.8182C163.71 27.8182 163.485 27.7292 163.295 27.5511C163.11 27.3731 163.017 27.1591 163.017 26.9091C163.017 26.6591 163.11 26.4451 163.295 26.267C163.485 26.089 163.71 26 163.972 26C164.233 26 164.456 26.089 164.642 26.267C164.831 26.4451 164.926 26.6591 164.926 26.9091C164.926 27.1591 164.831 27.3731 164.642 27.5511C164.456 27.7292 164.233 27.8182 163.972 27.8182ZM170.882 29.2727V30.4091H166.359V29.2727H170.882ZM167.678 27.1818H169.018V35.5C169.018 35.8788 169.073 36.1629 169.183 36.3523C169.297 36.5379 169.441 36.6629 169.615 36.7273C169.793 36.7879 169.981 36.8182 170.178 36.8182C170.325 36.8182 170.446 36.8106 170.541 36.7955C170.636 36.7765 170.712 36.7614 170.768 36.75L171.041 37.9545C170.95 37.9886 170.823 38.0227 170.661 38.0568C170.498 38.0947 170.291 38.1136 170.041 38.1136C169.662 38.1136 169.291 38.0322 168.928 37.8693C168.568 37.7064 168.268 37.4583 168.03 37.125C167.795 36.7917 167.678 36.3712 167.678 35.8636V27.1818ZM176.464 38.1818C175.624 38.1818 174.898 37.9962 174.288 37.625C173.682 37.25 173.214 36.7273 172.885 36.0568C172.559 35.3826 172.396 34.5985 172.396 33.7045C172.396 32.8106 172.559 32.0227 172.885 31.3409C173.214 30.6553 173.673 30.1212 174.26 29.7386C174.851 29.3523 175.54 29.1591 176.328 29.1591C176.783 29.1591 177.232 29.2348 177.675 29.3864C178.118 29.5379 178.521 29.7841 178.885 30.125C179.249 30.4621 179.538 30.9091 179.754 31.4659C179.97 32.0227 180.078 32.7083 180.078 33.5227V34.0909H173.351V32.9318H178.714C178.714 32.4394 178.616 32 178.419 31.6136C178.226 31.2273 177.949 30.9223 177.589 30.6989C177.233 30.4754 176.813 30.3636 176.328 30.3636C175.794 30.3636 175.332 30.4962 174.942 30.7614C174.555 31.0227 174.258 31.3636 174.05 31.7841C173.841 32.2045 173.737 32.6553 173.737 33.1364V33.9091C173.737 34.5682 173.851 35.1269 174.078 35.5852C174.309 36.0398 174.629 36.3864 175.038 36.625C175.447 36.8598 175.923 36.9773 176.464 36.9773C176.817 36.9773 177.135 36.928 177.419 36.8295C177.707 36.7273 177.955 36.5758 178.163 36.375C178.372 36.1705 178.533 35.9167 178.646 35.6136L179.942 35.9773C179.805 36.4167 179.576 36.803 179.254 37.1364C178.932 37.4659 178.535 37.7235 178.061 37.9091C177.588 38.0909 177.055 38.1818 176.464 38.1818ZM182.118 38V29.2727H183.413V30.6364H183.527C183.709 30.1705 184.002 29.8087 184.408 29.5511C184.813 29.2898 185.3 29.1591 185.868 29.1591C186.444 29.1591 186.923 29.2898 187.305 29.5511C187.692 29.8087 187.993 30.1705 188.209 30.6364H188.3C188.523 30.1856 188.858 29.8277 189.305 29.5625C189.752 29.2936 190.288 29.1591 190.913 29.1591C191.694 29.1591 192.332 29.4034 192.828 29.892C193.324 30.3769 193.572 31.1326 193.572 32.1591V38H192.232V32.1591C192.232 31.5152 192.055 31.0549 191.703 30.7784C191.351 30.5019 190.936 30.3636 190.459 30.3636C189.845 30.3636 189.37 30.5492 189.033 30.9205C188.696 31.2879 188.527 31.7538 188.527 32.3182V38H187.163V32.0227C187.163 31.5265 187.002 31.1269 186.68 30.8239C186.358 30.517 185.944 30.3636 185.436 30.3636C185.088 30.3636 184.762 30.4564 184.459 30.642C184.16 30.8277 183.917 31.0852 183.732 31.4148C183.55 31.7405 183.459 32.1174 183.459 32.5455V38H182.118ZM204.592 26.3636V38H203.183V27.8409H203.115L200.274 29.7273V28.2955L203.183 26.3636H204.592Z" fill="#344054"/>
<path fill-rule="evenodd" clip-rule="evenodd" d="M637.469 26.9689C637.539 26.8991 637.622 26.8437 637.713 26.8059C637.804 26.7681 637.901 26.7486 638 26.7486C638.099 26.7486 638.196 26.7681 638.288 26.8059C638.379 26.8437 638.461 26.8991 638.531 26.9689L647 35.4394L655.469 26.9689C655.539 26.8992 655.622 26.8439 655.713 26.8062C655.804 26.7684 655.902 26.749 656 26.749C656.099 26.749 656.196 26.7684 656.287 26.8062C656.379 26.8439 656.461 26.8992 656.531 26.9689C656.601 27.0387 656.656 27.1215 656.694 27.2126C656.732 27.3037 656.751 27.4013 656.751 27.4999C656.751 27.5986 656.732 27.6962 656.694 27.7873C656.656 27.8784 656.601 27.9612 656.531 28.0309L647.531 37.0309C647.461 37.1008 647.379 37.1562 647.288 37.194C647.196 37.2318 647.099 37.2513 647 37.2513C646.901 37.2513 646.804 37.2318 646.713 37.194C646.622 37.1562 646.539 37.1008 646.469 37.0309L637.469 28.0309C637.399 27.9613 637.344 27.8785 637.306 27.7874C637.268 27.6963 637.249 27.5986 637.249 27.4999C637.249 27.4013 637.268 27.3036 637.306 27.2125C637.344 27.1214 637.399 27.0386 637.469 26.9689Z" fill="#344054"/>
<path d="M61 1H679V-1H61V1ZM682 4V60H684V4H682ZM679 63H61V65H679V63ZM58 60V4H56V60H58ZM61 63C59.3432 63 58 61.6569 58 60H56C56 62.7614 58.2386 65 61 65V63ZM682 60C682 61.6569 680.657 63 679 63V65C681.761 65 684 62.7614 684 60H682ZM679 1C680.657 1 682 2.34315 682 4H684C684 1.23857 681.761 -1 679 -1V1ZM61 -1C58.2386 -1 56 1.23858 56 4H58C58 2.34315 59.3431 1 61 1V-1Z" fill="#98A2B3"/>
<rect x="57" width="626" height="16" fill="#E8178A" fill-opacity="0.24"/>
<rect x="57" y="48" width="626" height="16" fill="#E8178A" fill-opacity="0.24"/>
<path d="M57 4C57 1.79086 58.7909 0 61 0H679C681.209 0 683 1.79086 683 4V60C683 62.2091 681.209 64 679 64H61C58.7909 64 57 62.2091 57 60V4Z" fill="white"/>
<path d="M82.8864 38H81.4091L85.6818 26.3636H87.1364L91.4091 38H89.9318L86.4545 28.2045H86.3636L82.8864 38ZM83.4318 33.4545H89.3864V34.7045H83.4318V33.4545ZM96.5852 38.1818C95.767 38.1818 95.0625 37.9886 94.4716 37.6023C93.8807 37.2159 93.4261 36.6837 93.108 36.0057C92.7898 35.3277 92.6307 34.553 92.6307 33.6818C92.6307 32.7955 92.7936 32.0133 93.1193 31.3352C93.4489 30.6534 93.9072 30.1212 94.4943 29.7386C95.0852 29.3523 95.7746 29.1591 96.5625 29.1591C97.1761 29.1591 97.7292 29.2727 98.2216 29.5C98.714 29.7273 99.1174 30.0455 99.4318 30.4545C99.7462 30.8636 99.9413 31.3409 100.017 31.8864H98.6761C98.5739 31.4886 98.3466 31.1364 97.9943 30.8295C97.6458 30.5189 97.1761 30.3636 96.5852 30.3636C96.0625 30.3636 95.6042 30.5 95.2102 30.7727C94.8201 31.0417 94.5152 31.4223 94.2955 31.9148C94.0795 32.4034 93.9716 32.9773 93.9716 33.6364C93.9716 34.3106 94.0777 34.8977 94.2898 35.3977C94.5057 35.8977 94.8087 36.286 95.1989 36.5625C95.5928 36.839 96.0549 36.9773 96.5852 36.9773C96.9337 36.9773 97.25 36.9167 97.5341 36.7955C97.8182 36.6742 98.0587 36.5 98.2557 36.2727C98.4527 36.0455 98.5928 35.7727 98.6761 35.4545H100.017C99.9413 35.9697 99.7538 36.4337 99.4545 36.8466C99.1591 37.2557 98.767 37.5814 98.2784 37.8239C97.7936 38.0625 97.2292 38.1818 96.5852 38.1818ZM105.523 38.1818C104.705 38.1818 104 37.9886 103.409 37.6023C102.818 37.2159 102.364 36.6837 102.045 36.0057C101.727 35.3277 101.568 34.553 101.568 33.6818C101.568 32.7955 101.731 32.0133 102.057 31.3352C102.386 30.6534 102.845 30.1212 103.432 29.7386C104.023 29.3523 104.712 29.1591 105.5 29.1591C106.114 29.1591 106.667 29.2727 107.159 29.5C107.652 29.7273 108.055 30.0455 108.369 30.4545C108.684 30.8636 108.879 31.3409 108.955 31.8864H107.614C107.511 31.4886 107.284 31.1364 106.932 30.8295C106.583 30.5189 106.114 30.3636 105.523 30.3636C105 30.3636 104.542 30.5 104.148 30.7727C103.758 31.0417 103.453 31.4223 103.233 31.9148C103.017 32.4034 102.909 32.9773 102.909 33.6364C102.909 34.3106 103.015 34.8977 103.227 35.3977C103.443 35.8977 103.746 36.286 104.136 36.5625C104.53 36.839 104.992 36.9773 105.523 36.9773C105.871 36.9773 106.188 36.9167 106.472 36.7955C106.756 36.6742 106.996 36.5 107.193 36.2727C107.39 36.0455 107.53 35.7727 107.614 35.4545H108.955C108.879 35.9697 108.691 36.4337 108.392 36.8466C108.097 37.2557 107.705 37.5814 107.216 37.8239C106.731 38.0625 106.167 38.1818 105.523 38.1818ZM114.46 38.1818C113.672 38.1818 112.981 37.9943 112.386 37.6193C111.795 37.2443 111.333 36.7197 111 36.0455C110.67 35.3712 110.506 34.5833 110.506 33.6818C110.506 32.7727 110.67 31.9792 111 31.3011C111.333 30.6231 111.795 30.0966 112.386 29.7216C112.981 29.3466 113.672 29.1591 114.46 29.1591C115.248 29.1591 115.938 29.3466 116.528 29.7216C117.123 30.0966 117.585 30.6231 117.915 31.3011C118.248 31.9792 118.415 32.7727 118.415 33.6818C118.415 34.5833 118.248 35.3712 117.915 36.0455C117.585 36.7197 117.123 37.2443 116.528 37.6193C115.938 37.9943 115.248 38.1818 114.46 38.1818ZM114.46 36.9773C115.059 36.9773 115.551 36.8239 115.938 36.517C116.324 36.2102 116.61 35.8068 116.795 35.3068C116.981 34.8068 117.074 34.2652 117.074 33.6818C117.074 33.0985 116.981 32.5549 116.795 32.0511C116.61 31.5473 116.324 31.1402 115.938 30.8295C115.551 30.5189 115.059 30.3636 114.46 30.3636C113.862 30.3636 113.369 30.5189 112.983 30.8295C112.597 31.1402 112.311 31.5473 112.125 32.0511C111.939 32.5549 111.847 33.0985 111.847 33.6818C111.847 34.2652 111.939 34.8068 112.125 35.3068C112.311 35.8068 112.597 36.2102 112.983 36.517C113.369 36.8239 113.862 36.9773 114.46 36.9773ZM120.462 38V29.2727H121.757V30.5909H121.848C122.007 30.1591 122.295 29.8087 122.712 29.5398C123.128 29.2708 123.598 29.1364 124.121 29.1364C124.219 29.1364 124.342 29.1383 124.49 29.142C124.638 29.1458 124.75 29.1515 124.825 29.1591V30.5227C124.78 30.5114 124.676 30.4943 124.513 30.4716C124.354 30.4451 124.185 30.4318 124.007 30.4318C123.583 30.4318 123.204 30.5208 122.871 30.6989C122.541 30.8731 122.28 31.1155 122.087 31.4261C121.897 31.733 121.803 32.0833 121.803 32.4773V38H120.462ZM129.445 38.1818C128.717 38.1818 128.075 37.9981 127.518 37.6307C126.962 37.2595 126.526 36.7367 126.212 36.0625C125.897 35.3845 125.74 34.5833 125.74 33.6591C125.74 32.7424 125.897 31.947 126.212 31.2727C126.526 30.5985 126.964 30.0777 127.524 29.7102C128.085 29.3428 128.732 29.1591 129.467 29.1591C130.036 29.1591 130.484 29.2538 130.814 29.4432C131.147 29.6288 131.401 29.8409 131.575 30.0795C131.753 30.3144 131.892 30.5076 131.99 30.6591H132.104V26.3636H133.445V38H132.149V36.6591H131.99C131.892 36.8182 131.751 37.0189 131.57 37.2614C131.388 37.5 131.128 37.714 130.791 37.9034C130.454 38.089 130.005 38.1818 129.445 38.1818ZM129.626 36.9773C130.164 36.9773 130.619 36.8371 130.99 36.5568C131.361 36.2727 131.643 35.8807 131.837 35.3807C132.03 34.8769 132.126 34.2955 132.126 33.6364C132.126 32.9848 132.032 32.4148 131.842 31.9261C131.653 31.4337 131.373 31.0511 131.001 30.7784C130.63 30.5019 130.172 30.3636 129.626 30.3636C129.058 30.3636 128.585 30.5095 128.206 30.8011C127.831 31.089 127.549 31.4811 127.359 31.9773C127.174 32.4697 127.081 33.0227 127.081 33.6364C127.081 34.2576 127.176 34.822 127.365 35.3295C127.558 35.8333 127.842 36.2348 128.217 36.5341C128.596 36.8295 129.066 36.9773 129.626 36.9773ZM136.087 38V29.2727H137.428V38H136.087ZM136.768 27.8182C136.507 27.8182 136.282 27.7292 136.092 27.5511C135.907 27.3731 135.814 27.1591 135.814 26.9091C135.814 26.6591 135.907 26.4451 136.092 26.267C136.282 26.089 136.507 26 136.768 26C137.03 26 137.253 26.089 137.439 26.267C137.628 26.4451 137.723 26.6591 137.723 26.9091C137.723 27.1591 137.628 27.3731 137.439 27.5511C137.253 27.7292 137.03 27.8182 136.768 27.8182ZM143.429 38.1818C142.641 38.1818 141.95 37.9943 141.355 37.6193C140.764 37.2443 140.302 36.7197 139.969 36.0455C139.639 35.3712 139.474 34.5833 139.474 33.6818C139.474 32.7727 139.639 31.9792 139.969 31.3011C140.302 30.6231 140.764 30.0966 141.355 29.7216C141.95 29.3466 142.641 29.1591 143.429 29.1591C144.217 29.1591 144.906 29.3466 145.497 29.7216C146.092 30.0966 146.554 30.6231 146.884 31.3011C147.217 31.9792 147.384 32.7727 147.384 33.6818C147.384 34.5833 147.217 35.3712 146.884 36.0455C146.554 36.7197 146.092 37.2443 145.497 37.6193C144.906 37.9943 144.217 38.1818 143.429 38.1818ZM143.429 36.9773C144.027 36.9773 144.52 36.8239 144.906 36.517C145.293 36.2102 145.579 35.8068 145.764 35.3068C145.95 34.8068 146.043 34.2652 146.043 33.6818C146.043 33.0985 145.95 32.5549 145.764 32.0511C145.579 31.5473 145.293 31.1402 144.906 30.8295C144.52 30.5189 144.027 30.3636 143.429 30.3636C142.83 30.3636 142.338 30.5189 141.952 30.8295C141.565 31.1402 141.279 31.5473 141.094 32.0511C140.908 32.5549 140.815 33.0985 140.815 33.6818C140.815 34.2652 140.908 34.8068 141.094 35.3068C141.279 35.8068 141.565 36.2102 141.952 36.517C142.338 36.8239 142.83 36.9773 143.429 36.9773ZM150.771 32.75V38H149.43V29.2727H150.726V30.6364H150.839C151.044 30.1932 151.355 29.8371 151.771 29.5682C152.188 29.2955 152.726 29.1591 153.385 29.1591C153.976 29.1591 154.493 29.2803 154.936 29.5227C155.379 29.7614 155.724 30.125 155.97 30.6136C156.216 31.0985 156.339 31.7121 156.339 32.4545V38H154.999V32.5455C154.999 31.8598 154.821 31.3258 154.464 30.9432C154.108 30.5568 153.62 30.3636 152.999 30.3636C152.571 30.3636 152.188 30.4564 151.851 30.642C151.518 30.8277 151.254 31.0985 151.061 31.4545C150.868 31.8106 150.771 32.2424 150.771 32.75ZM163.29 38V29.2727H164.631V38H163.29ZM163.972 27.8182C163.71 27.8182 163.485 27.7292 163.295 27.5511C163.11 27.3731 163.017 27.1591 163.017 26.9091C163.017 26.6591 163.11 26.4451 163.295 26.267C163.485 26.089 163.71 26 163.972 26C164.233 26 164.456 26.089 164.642 26.267C164.831 26.4451 164.926 26.6591 164.926 26.9091C164.926 27.1591 164.831 27.3731 164.642 27.5511C164.456 27.7292 164.233 27.8182 163.972 27.8182ZM170.882 29.2727V30.4091H166.359V29.2727H170.882ZM167.678 27.1818H169.018V35.5C169.018 35.8788 169.073 36.1629 169.183 36.3523C169.297 36.5379 169.441 36.6629 169.615 36.7273C169.793 36.7879 169.981 36.8182 170.178 36.8182C170.325 36.8182 170.446 36.8106 170.541 36.7955C170.636 36.7765 170.712 36.7614 170.768 36.75L171.041 37.9545C170.95 37.9886 170.823 38.0227 170.661 38.0568C170.498 38.0947 170.291 38.1136 170.041 38.1136C169.662 38.1136 169.291 38.0322 168.928 37.8693C168.568 37.7064 168.268 37.4583 168.03 37.125C167.795 36.7917 167.678 36.3712 167.678 35.8636V27.1818ZM176.464 38.1818C175.624 38.1818 174.898 37.9962 174.288 37.625C173.682 37.25 173.214 36.7273 172.885 36.0568C172.559 35.3826 172.396 34.5985 172.396 33.7045C172.396 32.8106 172.559 32.0227 172.885 31.3409C173.214 30.6553 173.673 30.1212 174.26 29.7386C174.851 29.3523 175.54 29.1591 176.328 29.1591C176.783 29.1591 177.232 29.2348 177.675 29.3864C178.118 29.5379 178.521 29.7841 178.885 30.125C179.249 30.4621 179.538 30.9091 179.754 31.4659C179.97 32.0227 180.078 32.7083 180.078 33.5227V34.0909H173.351V32.9318H178.714C178.714 32.4394 178.616 32 178.419 31.6136C178.226 31.2273 177.949 30.9223 177.589 30.6989C177.233 30.4754 176.813 30.3636 176.328 30.3636C175.794 30.3636 175.332 30.4962 174.942 30.7614C174.555 31.0227 174.258 31.3636 174.05 31.7841C173.841 32.2045 173.737 32.6553 173.737 33.1364V33.9091C173.737 34.5682 173.851 35.1269 174.078 35.5852C174.309 36.0398 174.629 36.3864 175.038 36.625C175.447 36.8598 175.923 36.9773 176.464 36.9773C176.817 36.9773 177.135 36.928 177.419 36.8295C177.707 36.7273 177.955 36.5758 178.163 36.375C178.372 36.1705 178.533 35.9167 178.646 35.6136L179.942 35.9773C179.805 36.4167 179.576 36.803 179.254 37.1364C178.932 37.4659 178.535 37.7235 178.061 37.9091C177.588 38.0909 177.055 38.1818 176.464 38.1818ZM182.118 38V29.2727H183.413V30.6364H183.527C183.709 30.1705 184.002 29.8087 184.408 29.5511C184.813 29.2898 185.3 29.1591 185.868 29.1591C186.444 29.1591 186.923 29.2898 187.305 29.5511C187.692 29.8087 187.993 30.1705 188.209 30.6364H188.3C188.523 30.1856 188.858 29.8277 189.305 29.5625C189.752 29.2936 190.288 29.1591 190.913 29.1591C191.694 29.1591 192.332 29.4034 192.828 29.892C193.324 30.3769 193.572 31.1326 193.572 32.1591V38H192.232V32.1591C192.232 31.5152 192.055 31.0549 191.703 30.7784C191.351 30.5019 190.936 30.3636 190.459 30.3636C189.845 30.3636 189.37 30.5492 189.033 30.9205C188.696 31.2879 188.527 31.7538 188.527 32.3182V38H187.163V32.0227C187.163 31.5265 187.002 31.1269 186.68 30.8239C186.358 30.517 185.944 30.3636 185.436 30.3636C185.088 30.3636 184.762 30.4564 184.459 30.642C184.16 30.8277 183.917 31.0852 183.732 31.4148C183.55 31.7405 183.459 32.1174 183.459 32.5455V38H182.118ZM204.592 26.3636V38H203.183V27.8409H203.115L200.274 29.7273V28.2955L203.183 26.3636H204.592Z" fill="#344054"/>
<path fill-rule="evenodd" clip-rule="evenodd" d="M637.469 26.9689C637.539 26.8991 637.622 26.8437 637.713 26.8059C637.804 26.7681 637.901 26.7486 638 26.7486C638.099 26.7486 638.196 26.7681 638.288 26.8059C638.379 26.8437 638.461 26.8991 638.531 26.9689L647 35.4394L655.469 26.9689C655.539 26.8992 655.622 26.8439 655.713 26.8062C655.804 26.7684 655.902 26.749 656 26.749C656.099 26.749 656.196 26.7684 656.287 26.8062C656.379 26.8439 656.461 26.8992 656.531 26.9689C656.601 27.0387 656.656 27.1215 656.694 27.2126C656.732 27.3037 656.751 27.4013 656.751 27.4999C656.751 27.5986 656.732 27.6962 656.694 27.7873C656.656 27.8784 656.601 27.9612 656.531 28.0309L647.531 37.0309C647.461 37.1008 647.379 37.1562 647.288 37.194C647.196 37.2318 647.099 37.2513 647 37.2513C646.901 37.2513 646.804 37.2318 646.713 37.194C646.622 37.1562 646.539 37.1008 646.469 37.0309L637.469 28.0309C637.399 27.9613 637.344 27.8785 637.306 27.7874C637.268 27.6963 637.249 27.5986 637.249 27.4999C637.249 27.4013 637.268 27.3036 637.306 27.2125C637.344 27.1214 637.399 27.0386 637.469 26.9689Z" fill="#344054"/>
<path d="M61 1H679V-1H61V1ZM682 4V60H684V4H682ZM679 63H61V65H679V63ZM58 60V4H56V60H58ZM61 63C59.3432 63 58 61.6569 58 60H56C56 62.7614 58.2386 65 61 65V63ZM682 60C682 61.6569 680.657 63 679 63V65C681.761 65 684 62.7614 684 60H682ZM679 1C680.657 1 682 2.34315 682 4H684C684 1.23857 681.761 -1 679 -1V1ZM61 -1C58.2386 -1 56 1.23858 56 4H58C58 2.34315 59.3431 1 61 1V-1Z" fill="#98A2B3"/>
<rect x="57" width="626" height="16" fill="#E8178A" fill-opacity="0.24"/>
<rect x="57" y="48" width="626" height="16" fill="#E8178A" fill-opacity="0.24"/>
<rect x="57" width="24" height="64" fill="#E8178A" fill-opacity="0.24"/>
<rect x="659" width="24" height="64" fill="#E8178A" fill-opacity="0.24"/>
<path d="M40.5 0V16" stroke="#E8178A"/>
<rect y="0.5" width="36" height="18" rx="3" fill="#E8178A"/>
<path d="M9.75355 6.22727V13.5H8.21591V7.68679H8.1733L6.50781 8.73082V7.36719L8.30824 6.22727H9.75355ZM14.2733 13.5994C13.8992 13.5971 13.5382 13.5343 13.1902 13.4112C12.8445 13.2881 12.5344 13.0881 12.2598 12.8111C11.9851 12.5341 11.7673 12.1671 11.6064 11.7102C11.4477 11.2533 11.3684 10.6922 11.3684 10.027C11.3708 9.41619 11.4406 8.8705 11.5779 8.38991C11.7176 7.90696 11.9165 7.4974 12.1745 7.16122C12.435 6.82505 12.7463 6.56937 13.1085 6.39418C13.4707 6.21662 13.8767 6.12784 14.3265 6.12784C14.8118 6.12784 15.2404 6.22254 15.612 6.41193C15.9837 6.59896 16.282 6.85346 16.5069 7.17543C16.7342 7.4974 16.8715 7.85843 16.9189 8.25852H15.4025C15.3433 8.00521 15.219 7.80634 15.0297 7.66193C14.8403 7.51752 14.6059 7.44531 14.3265 7.44531C13.853 7.44531 13.4932 7.65128 13.247 8.06321C13.0031 8.47514 12.8788 9.03504 12.8741 9.7429H12.9238C13.0327 9.52746 13.1795 9.34399 13.3642 9.19247C13.5512 9.03859 13.7631 8.9214 13.9998 8.84091C14.2389 8.75805 14.4911 8.71662 14.7562 8.71662C15.1871 8.71662 15.5706 8.81842 15.9068 9.02202C16.243 9.22325 16.5081 9.50024 16.7022 9.85298C16.8964 10.2057 16.9934 10.6094 16.9934 11.0639C16.9934 11.5563 16.8786 11.9943 16.649 12.3778C16.4217 12.7614 16.1033 13.062 15.6937 13.2798C15.2865 13.4953 14.813 13.6018 14.2733 13.5994ZM14.2662 12.392C14.5029 12.392 14.7148 12.3352 14.9018 12.2216C15.0888 12.108 15.2356 11.9541 15.3422 11.7599C15.4487 11.5658 15.502 11.348 15.502 11.1065C15.502 10.8651 15.4487 10.6484 15.3422 10.4567C15.238 10.2649 15.0936 10.1122 14.9089 9.99858C14.7243 9.88494 14.5136 9.82812 14.2768 9.82812C14.0993 9.82812 13.9347 9.86127 13.7832 9.92756C13.6341 9.99384 13.5027 10.0862 13.389 10.2045C13.2778 10.3229 13.1902 10.4602 13.1262 10.6165C13.0623 10.7704 13.0304 10.9349 13.0304 11.1101C13.0304 11.3445 13.0836 11.5587 13.1902 11.7528C13.2991 11.947 13.4458 12.102 13.6305 12.218C13.8175 12.334 14.0294 12.392 14.2662 12.392ZM18.0978 15.5455V8.04545H19.5893V8.96165H19.6568C19.7231 8.81487 19.819 8.66572 19.9444 8.5142C20.0723 8.36032 20.238 8.23248 20.4416 8.13068C20.6475 8.02652 20.9032 7.97443 21.2086 7.97443C21.6064 7.97443 21.9733 8.0786 22.3095 8.28693C22.6457 8.4929 22.9144 8.80421 23.1156 9.22088C23.3168 9.63518 23.4174 10.1548 23.4174 10.7798C23.4174 11.3883 23.3192 11.902 23.1227 12.321C22.9286 12.7377 22.6634 13.0537 22.3272 13.2692C21.9934 13.4822 21.6194 13.5888 21.2051 13.5888C20.9115 13.5888 20.6618 13.5402 20.4558 13.4432C20.2522 13.3461 20.0853 13.2242 19.9551 13.0774C19.8249 12.9283 19.7254 12.7779 19.6568 12.6264H19.6106V15.5455H18.0978ZM19.5787 10.7727C19.5787 11.0971 19.6236 11.38 19.7136 11.6214C19.8036 11.8629 19.9338 12.0511 20.1042 12.1861C20.2747 12.3187 20.4818 12.3849 20.7257 12.3849C20.9719 12.3849 21.1802 12.3175 21.3507 12.1825C21.5211 12.0452 21.6502 11.8558 21.7377 11.6143C21.8277 11.3705 21.8727 11.09 21.8727 10.7727C21.8727 10.4579 21.8289 10.1809 21.7413 9.94176C21.6537 9.70265 21.5247 9.51562 21.3542 9.38068C21.1838 9.24574 20.9743 9.17827 20.7257 9.17827C20.4795 9.17827 20.2711 9.24337 20.1007 9.37358C19.9326 9.50379 19.8036 9.68845 19.7136 9.92756C19.6236 10.1667 19.5787 10.4484 19.5787 10.7727ZM25.4949 8.04545L26.4963 9.95241L27.5225 8.04545H29.0744L27.4941 10.7727L29.117 13.5H27.5723L26.4963 11.6143L25.438 13.5H23.8755L25.4949 10.7727L23.9324 8.04545H25.4949Z" fill="white"/>
<line x1="37" y1="0.5" x2="44" y2="0.5" stroke="#E8178A"/>
<line x1="37" y1="15.5" x2="44" y2="15.5" stroke="#E8178A"/>
<path d="M41.5 48V64" stroke="#E8178A"/>
<rect x="1" y="48.5" width="36" height="18" rx="3" fill="#E8178A"/>
<path d="M10.7536 54.2273H9.30824L7.50781 55.3672V56.7308L9.1733 55.6868H9.21591V61.5H10.7536V54.2273ZM15.2733 61.5994C16.8926 61.6065 17.997 60.5447 17.9934 59.0639C17.997 57.7003 17.0453 56.7166 15.7562 56.7166C14.9572 56.7166 14.2505 57.1001 13.9238 57.7429H13.8741C13.8812 56.326 14.3784 55.4453 15.3265 55.4453C15.8841 55.4453 16.2853 55.7507 16.4025 56.2585H17.9189C17.7733 55.0618 16.7789 54.1278 15.3265 54.1278C13.5297 54.1278 12.3755 55.5838 12.3684 58.027C12.3649 60.6903 13.7782 61.5923 15.2733 61.5994ZM15.2662 60.392C14.5559 60.392 14.0304 59.8203 14.0304 59.1101C14.0339 58.4034 14.5701 57.8281 15.2768 57.8281C15.987 57.8281 16.5055 58.3857 16.502 59.1065C16.5055 59.8345 15.9764 60.392 15.2662 60.392ZM19.0978 63.5455H20.6106V60.6264H20.6568C20.8663 61.081 21.3244 61.5888 22.2051 61.5888C23.448 61.5888 24.4174 60.6051 24.4174 58.7798C24.4174 56.9048 23.4054 55.9744 22.2086 55.9744C21.296 55.9744 20.8592 56.5178 20.6568 56.9616H20.5893V56.0455H19.0978V63.5455ZM20.5787 58.7727C20.5787 57.7997 20.9906 57.1783 21.7257 57.1783C22.475 57.1783 22.8727 57.8281 22.8727 58.7727C22.8727 59.7244 22.4679 60.3849 21.7257 60.3849C20.9977 60.3849 20.5787 59.7457 20.5787 58.7727ZM26.4851 56.0455H24.9226L26.4851 58.7727L24.8658 61.5H26.4283L27.4865 59.6143L28.5625 61.5H30.1072L28.4844 58.7727L30.0646 56.0455H28.5128L27.4865 57.9524L26.4851 56.0455Z" fill="white"/>
<line x1="38" y1="48.5" x2="45" y2="48.5" stroke="#E8178A"/>
<line x1="38" y1="63.5" x2="45" y2="63.5" stroke="#E8178A"/>
<path d="M659 79.5H683" stroke="#E8178A"/>
<rect x="652.5" y="84" width="37" height="18" rx="3" fill="#E8178A"/>
<path d="M659.089 97V95.892L661.678 93.495C661.898 93.282 662.083 93.0902 662.232 92.9197C662.384 92.7493 662.499 92.5824 662.577 92.419C662.655 92.2533 662.694 92.0746 662.694 91.8828C662.694 91.6697 662.645 91.4863 662.548 91.3324C662.451 91.1761 662.319 91.0566 662.151 90.9737C661.982 90.8885 661.792 90.8459 661.579 90.8459C661.356 90.8459 661.162 90.8909 660.996 90.9808C660.831 91.0708 660.703 91.1998 660.613 91.3679C660.523 91.536 660.478 91.736 660.478 91.968H659.018C659.018 91.4922 659.126 91.0791 659.342 90.7287C659.557 90.3783 659.859 90.1072 660.247 89.9155C660.635 89.7237 661.083 89.6278 661.589 89.6278C662.11 89.6278 662.564 89.7202 662.95 89.9048C663.338 90.0871 663.64 90.3404 663.855 90.6648C664.071 90.9891 664.178 91.3608 664.178 91.7798C664.178 92.0545 664.124 92.3255 664.015 92.593C663.908 92.8606 663.718 93.1577 663.443 93.4844C663.169 93.8087 662.781 94.1982 662.282 94.6527L661.22 95.6932V95.7429H664.274V97H659.089ZM665.122 95.7216V94.5107L668.158 89.7273H669.202V91.4034H668.584L666.67 94.4325V94.4893H670.985V95.7216H665.122ZM668.613 97V95.3523L668.641 94.8161V89.7273H670.083V97H668.613ZM672.024 99.0455V91.5455H673.515V92.4616H673.583C673.649 92.3149 673.745 92.1657 673.87 92.0142C673.998 91.8603 674.164 91.7325 674.367 91.6307C674.573 91.5265 674.829 91.4744 675.134 91.4744C675.532 91.4744 675.899 91.5786 676.235 91.7869C676.571 91.9929 676.84 92.3042 677.041 92.7209C677.243 93.1352 677.343 93.6548 677.343 94.2798C677.343 94.8883 677.245 95.402 677.048 95.821C676.854 96.2377 676.589 96.5537 676.253 96.7692C675.919 96.9822 675.545 97.0888 675.131 97.0888C674.837 97.0888 674.588 97.0402 674.382 96.9432C674.178 96.8461 674.011 96.7242 673.881 96.5774C673.751 96.4283 673.651 96.2779 673.583 96.1264H673.536V99.0455H672.024ZM673.504 94.2727C673.504 94.5971 673.549 94.88 673.639 95.1214C673.729 95.3629 673.86 95.5511 674.03 95.6861C674.2 95.8187 674.408 95.8849 674.651 95.8849C674.898 95.8849 675.106 95.8175 675.276 95.6825C675.447 95.5452 675.576 95.3558 675.664 95.1143C675.753 94.8705 675.798 94.59 675.798 94.2727C675.798 93.9579 675.755 93.6809 675.667 93.4418C675.579 93.2027 675.45 93.0156 675.28 92.8807C675.11 92.7457 674.9 92.6783 674.651 92.6783C674.405 92.6783 674.197 92.7434 674.026 92.8736C673.858 93.0038 673.729 93.1884 673.639 93.4276C673.549 93.6667 673.504 93.9484 673.504 94.2727ZM679.421 91.5455L680.422 93.4524L681.448 91.5455H683L681.42 94.2727L683.043 97H681.498L680.422 95.1143L679.364 97H677.801L679.421 94.2727L677.858 91.5455H679.421Z" fill="white"/>
<line x1="659.5" y1="83" x2="659.5" y2="76" stroke="#E8178A"/>
<line x1="682.5" y1="83" x2="682.5" y2="76" stroke="#E8178A"/>
<path d="M698.5 0V64" stroke="#1745E8"/>
<rect x="703" y="24.5" width="38" height="18" rx="3" fill="#1745E8"/>
<path d="M712.381 37.5994C714 37.6065 715.104 36.5447 715.101 35.0639C715.104 33.7003 714.153 32.7166 712.864 32.7166C712.065 32.7166 711.358 33.1001 711.031 33.7429H710.982C710.989 32.326 711.486 31.4453 712.434 31.4453C712.991 31.4453 713.393 31.7507 713.51 32.2585H715.026C714.881 31.0618 713.886 30.1278 712.434 30.1278C710.637 30.1278 709.483 31.5838 709.476 34.027C709.472 36.6903 710.886 37.5923 712.381 37.5994ZM712.374 36.392C711.663 36.392 711.138 35.8203 711.138 35.1101C711.141 34.4034 711.678 33.8281 712.384 33.8281C713.094 33.8281 713.613 34.3857 713.609 35.1065C713.613 35.8345 713.084 36.392 712.374 36.392ZM716.081 36.2216H719.572V37.5H721.042V36.2216H721.944V34.9893H721.042V30.2273H719.117L716.081 35.0107V36.2216ZM719.6 34.9893H717.629V34.9325L719.543 31.9034H719.6V34.9893ZM722.983 39.5455H724.495V36.6264H724.542C724.751 37.081 725.209 37.5888 726.09 37.5888C727.333 37.5888 728.302 36.6051 728.302 34.7798C728.302 32.9048 727.29 31.9744 726.093 31.9744C725.181 31.9744 724.744 32.5178 724.542 32.9616H724.474V32.0455H722.983V39.5455ZM724.463 34.7727C724.463 33.7997 724.875 33.1783 725.61 33.1783C726.36 33.1783 726.757 33.8281 726.757 34.7727C726.757 35.7244 726.353 36.3849 725.61 36.3849C724.882 36.3849 724.463 35.7457 724.463 34.7727ZM730.37 32.0455H728.807L730.37 34.7727L728.751 37.5H730.313L731.371 35.6143L732.447 37.5H733.992L732.369 34.7727L733.949 32.0455H732.398L731.371 33.9524L730.37 32.0455Z" fill="white"/>
<line x1="695" y1="0.5" x2="702" y2="0.5" stroke="#1745E8"/>
<line x1="695" y1="63.5" x2="702" y2="63.5" stroke="#1745E8"/>
</svg>
