<svg width="414" height="247" viewBox="0 0 414 247" fill="none" xmlns="http://www.w3.org/2000/svg">
<path d="M1.01136 73V61.3636H3.47159V70.9716H8.46023V73H1.01136ZM12.5327 73.1648C11.9759 73.1648 11.4796 73.0682 11.044 72.875C10.6084 72.678 10.2637 72.3883 10.0099 72.0057C9.75994 71.6193 9.63494 71.1383 9.63494 70.5625C9.63494 70.0777 9.72396 69.6705 9.90199 69.3409C10.08 69.0114 10.3224 68.7462 10.6293 68.5455C10.9361 68.3447 11.2846 68.1932 11.6747 68.0909C12.0687 67.9886 12.4815 67.9167 12.9134 67.875C13.4209 67.822 13.83 67.7727 14.1406 67.7273C14.4512 67.678 14.6766 67.6061 14.8168 67.5114C14.9569 67.4167 15.027 67.2765 15.027 67.0909V67.0568C15.027 66.697 14.9134 66.4186 14.6861 66.2216C14.4626 66.0246 14.1444 65.9261 13.7315 65.9261C13.2959 65.9261 12.9493 66.0227 12.6918 66.2159C12.4342 66.4053 12.2637 66.6439 12.1804 66.9318L9.94176 66.75C10.0554 66.2197 10.2789 65.7614 10.6122 65.375C10.9455 64.9848 11.3755 64.6856 11.902 64.4773C12.4323 64.2652 13.0459 64.1591 13.7429 64.1591C14.2277 64.1591 14.6918 64.2159 15.1349 64.3295C15.5819 64.4432 15.9777 64.6193 16.3224 64.858C16.6709 65.0966 16.9455 65.4034 17.1463 65.7784C17.3471 66.1496 17.4474 66.5947 17.4474 67.1136V73H15.152V71.7898H15.0838C14.9437 72.0625 14.7562 72.303 14.5213 72.5114C14.2865 72.7159 14.0043 72.8769 13.6747 72.9943C13.3452 73.108 12.9645 73.1648 12.5327 73.1648ZM13.2259 71.4943C13.5819 71.4943 13.8963 71.4242 14.169 71.2841C14.4418 71.1402 14.6558 70.947 14.8111 70.7045C14.9664 70.4621 15.044 70.1875 15.044 69.8807V68.9545C14.9683 69.0038 14.8641 69.0492 14.7315 69.0909C14.6027 69.1288 14.4569 69.1648 14.294 69.1989C14.1312 69.2292 13.9683 69.2576 13.8054 69.2841C13.6425 69.3068 13.4948 69.3277 13.3622 69.3466C13.0781 69.3883 12.83 69.4545 12.6179 69.5455C12.4058 69.6364 12.241 69.7595 12.1236 69.9148C12.0062 70.0663 11.9474 70.2557 11.9474 70.483C11.9474 70.8125 12.0668 71.0644 12.3054 71.2386C12.5478 71.4091 12.8546 71.4943 13.2259 71.4943ZM19.3707 73V61.3636H21.7912V65.7386H21.8651C21.9711 65.5038 22.1245 65.2652 22.3253 65.0227C22.5298 64.7765 22.795 64.572 23.1207 64.4091C23.4503 64.2424 23.8594 64.1591 24.348 64.1591C24.9844 64.1591 25.5715 64.3258 26.1094 64.6591C26.6473 64.9886 27.0772 65.4867 27.3991 66.1534C27.7211 66.8163 27.8821 67.6477 27.8821 68.6477C27.8821 69.6212 27.7249 70.4432 27.4105 71.1136C27.0999 71.7803 26.6757 72.286 26.1378 72.6307C25.6037 72.9716 25.0052 73.142 24.3423 73.142C23.8726 73.142 23.473 73.0644 23.1435 72.9091C22.8177 72.7538 22.5507 72.5587 22.3423 72.3239C22.134 72.0852 21.9749 71.8447 21.8651 71.6023H21.7571V73H19.3707ZM21.7401 68.6364C21.7401 69.1553 21.812 69.608 21.956 69.9943C22.0999 70.3807 22.3082 70.6818 22.581 70.8977C22.8537 71.1098 23.1851 71.2159 23.5753 71.2159C23.9692 71.2159 24.3026 71.108 24.5753 70.892C24.848 70.6723 25.0545 70.3693 25.1946 69.983C25.3385 69.5928 25.4105 69.1439 25.4105 68.6364C25.4105 68.1326 25.3404 67.6894 25.2003 67.3068C25.0601 66.9242 24.8537 66.625 24.581 66.4091C24.3082 66.1932 23.973 66.0852 23.5753 66.0852C23.1813 66.0852 22.848 66.1894 22.5753 66.3977C22.3063 66.6061 22.0999 66.9015 21.956 67.2841C21.812 67.6667 21.7401 68.1174 21.7401 68.6364ZM33.4744 73.1705C32.5767 73.1705 31.804 72.9886 31.1562 72.625C30.5123 72.2576 30.0161 71.7386 29.6676 71.0682C29.3191 70.3939 29.1449 69.5966 29.1449 68.6761C29.1449 67.7784 29.3191 66.9905 29.6676 66.3125C30.0161 65.6345 30.5066 65.1061 31.1392 64.7273C31.7756 64.3485 32.5218 64.1591 33.3778 64.1591C33.9536 64.1591 34.4896 64.2519 34.9858 64.4375C35.4858 64.6193 35.9214 64.8939 36.2926 65.2614C36.6676 65.6288 36.9593 66.0909 37.1676 66.6477C37.3759 67.2008 37.4801 67.8485 37.4801 68.5909V69.2557H30.1108V67.7557H35.2017C35.2017 67.4072 35.1259 67.0985 34.9744 66.8295C34.8229 66.5606 34.6127 66.3504 34.3438 66.1989C34.0786 66.0436 33.7699 65.9659 33.4176 65.9659C33.0502 65.9659 32.7244 66.0511 32.4403 66.2216C32.16 66.3883 31.9403 66.6136 31.7812 66.8977C31.6222 67.178 31.5407 67.4905 31.5369 67.8352V69.2614C31.5369 69.6932 31.6165 70.0663 31.7756 70.3807C31.9384 70.6951 32.1676 70.9375 32.4631 71.108C32.7585 71.2784 33.1089 71.3636 33.5142 71.3636C33.7831 71.3636 34.0294 71.3258 34.2528 71.25C34.4763 71.1742 34.6676 71.0606 34.8267 70.9091C34.9858 70.7576 35.107 70.572 35.1903 70.3523L37.429 70.5C37.3153 71.0379 37.0824 71.5076 36.7301 71.9091C36.3816 72.3068 35.9309 72.6174 35.3778 72.8409C34.8286 73.0606 34.1941 73.1705 33.4744 73.1705ZM41.4801 61.3636V73H39.0597V61.3636H41.4801Z" fill="#344054"/>
<path d="M0.772727 94.6136V93.3636H9.5V94.6136H5.84091V105H4.43182V94.6136H0.772727ZM12.8338 99.75V105H11.4929V93.3636H12.8338V97.6364H12.9474C13.152 97.1856 13.4588 96.8277 13.8679 96.5625C14.2808 96.2936 14.83 96.1591 15.5156 96.1591C16.1103 96.1591 16.6312 96.2784 17.0781 96.517C17.5251 96.7519 17.8717 97.1136 18.1179 97.6023C18.3679 98.0871 18.4929 98.7045 18.4929 99.4545V105H17.152V99.5455C17.152 98.8523 16.9721 98.3163 16.6122 97.9375C16.2562 97.5549 15.7618 97.3636 15.1293 97.3636C14.6899 97.3636 14.2959 97.4564 13.9474 97.642C13.6027 97.8277 13.33 98.0985 13.1293 98.4545C12.9323 98.8106 12.8338 99.2424 12.8338 99.75ZM20.946 105V96.2727H22.2869V105H20.946ZM21.6278 94.8182C21.3665 94.8182 21.1411 94.7292 20.9517 94.5511C20.7661 94.3731 20.6733 94.1591 20.6733 93.9091C20.6733 93.6591 20.7661 93.4451 20.9517 93.267C21.1411 93.089 21.3665 93 21.6278 93C21.8892 93 22.1127 93.089 22.2983 93.267C22.4877 93.4451 22.5824 93.6591 22.5824 93.9091C22.5824 94.1591 22.4877 94.3731 22.2983 94.5511C22.1127 94.7292 21.8892 94.8182 21.6278 94.8182ZM30.9247 98.2273L29.7202 98.5682C29.6444 98.3674 29.5327 98.1723 29.3849 97.983C29.241 97.7898 29.044 97.6307 28.794 97.5057C28.544 97.3807 28.224 97.3182 27.8338 97.3182C27.2997 97.3182 26.8546 97.4413 26.4986 97.6875C26.1463 97.9299 25.9702 98.2386 25.9702 98.6136C25.9702 98.947 26.0914 99.2102 26.3338 99.4034C26.5762 99.5966 26.955 99.7576 27.4702 99.8864L28.7656 100.205C29.5459 100.394 30.1274 100.684 30.5099 101.074C30.8925 101.46 31.0838 101.958 31.0838 102.568C31.0838 103.068 30.9399 103.515 30.652 103.909C30.3679 104.303 29.9702 104.614 29.4588 104.841C28.9474 105.068 28.3527 105.182 27.6747 105.182C26.7846 105.182 26.0478 104.989 25.4645 104.602C24.8812 104.216 24.5118 103.652 24.3565 102.909L25.6293 102.591C25.7505 103.061 25.9796 103.413 26.3168 103.648C26.6577 103.883 27.1027 104 27.652 104C28.277 104 28.7732 103.867 29.1406 103.602C29.5118 103.333 29.6974 103.011 29.6974 102.636C29.6974 102.333 29.5914 102.08 29.3793 101.875C29.1671 101.667 28.8414 101.511 28.402 101.409L26.9474 101.068C26.1482 100.879 25.5611 100.585 25.1861 100.188C24.8149 99.786 24.6293 99.2841 24.6293 98.6818C24.6293 98.1894 24.7675 97.7538 25.044 97.375C25.3243 96.9962 25.705 96.6989 26.1861 96.483C26.6709 96.267 27.2202 96.1591 27.8338 96.1591C28.6974 96.1591 29.3755 96.3485 29.8679 96.7273C30.3641 97.1061 30.7164 97.6061 30.9247 98.2273ZM37.6023 105V96.2727H38.9432V105H37.6023ZM38.2841 94.8182C38.0227 94.8182 37.7973 94.7292 37.608 94.5511C37.4223 94.3731 37.3295 94.1591 37.3295 93.9091C37.3295 93.6591 37.4223 93.4451 37.608 93.267C37.7973 93.089 38.0227 93 38.2841 93C38.5455 93 38.7689 93.089 38.9545 93.267C39.1439 93.4451 39.2386 93.6591 39.2386 93.9091C39.2386 94.1591 39.1439 94.3731 38.9545 94.5511C38.7689 94.7292 38.5455 94.8182 38.2841 94.8182ZM47.581 98.2273L46.3764 98.5682C46.3007 98.3674 46.1889 98.1723 46.0412 97.983C45.8973 97.7898 45.7003 97.6307 45.4503 97.5057C45.2003 97.3807 44.8802 97.3182 44.4901 97.3182C43.956 97.3182 43.5109 97.4413 43.1548 97.6875C42.8026 97.9299 42.6264 98.2386 42.6264 98.6136C42.6264 98.947 42.7476 99.2102 42.9901 99.4034C43.2325 99.5966 43.6113 99.7576 44.1264 99.8864L45.4219 100.205C46.2022 100.394 46.7836 100.684 47.1662 101.074C47.5488 101.46 47.7401 101.958 47.7401 102.568C47.7401 103.068 47.5961 103.515 47.3082 103.909C47.0241 104.303 46.6264 104.614 46.1151 104.841C45.6037 105.068 45.009 105.182 44.331 105.182C43.4408 105.182 42.7041 104.989 42.1207 104.602C41.5374 104.216 41.1681 103.652 41.0128 102.909L42.2855 102.591C42.4067 103.061 42.6359 103.413 42.973 103.648C43.3139 103.883 43.759 104 44.3082 104C44.9332 104 45.4295 103.867 45.7969 103.602C46.1681 103.333 46.3537 103.011 46.3537 102.636C46.3537 102.333 46.2476 102.08 46.0355 101.875C45.8234 101.667 45.4976 101.511 45.0582 101.409L43.6037 101.068C42.8045 100.879 42.2173 100.585 41.8423 100.188C41.4711 99.786 41.2855 99.2841 41.2855 98.6818C41.2855 98.1894 41.4238 97.7538 41.7003 97.375C41.9806 96.9962 42.3613 96.6989 42.8423 96.483C43.3272 96.267 43.8764 96.1591 44.4901 96.1591C45.3537 96.1591 46.0317 96.3485 46.5241 96.7273C47.0204 97.1061 47.3726 97.6061 47.581 98.2273ZM58.054 96.2727V97.4091H53.5312V96.2727H58.054ZM54.8494 94.1818H56.1903V102.5C56.1903 102.879 56.2453 103.163 56.3551 103.352C56.4688 103.538 56.6127 103.663 56.7869 103.727C56.965 103.788 57.1525 103.818 57.3494 103.818C57.4972 103.818 57.6184 103.811 57.7131 103.795C57.8078 103.777 57.8835 103.761 57.9403 103.75L58.2131 104.955C58.1222 104.989 57.9953 105.023 57.8324 105.057C57.6695 105.095 57.4631 105.114 57.2131 105.114C56.8343 105.114 56.4631 105.032 56.0994 104.869C55.7396 104.706 55.4403 104.458 55.2017 104.125C54.9669 103.792 54.8494 103.371 54.8494 102.864V94.1818ZM61.5994 99.75V105H60.2585V93.3636H61.5994V97.6364H61.7131C61.9176 97.1856 62.2244 96.8277 62.6335 96.5625C63.0464 96.2936 63.5956 96.1591 64.2812 96.1591C64.8759 96.1591 65.3968 96.2784 65.8438 96.517C66.2907 96.7519 66.6373 97.1136 66.8835 97.6023C67.1335 98.0871 67.2585 98.7045 67.2585 99.4545V105H65.9176V99.5455C65.9176 98.8523 65.7377 98.3163 65.3778 97.9375C65.0218 97.5549 64.5275 97.3636 63.8949 97.3636C63.4555 97.3636 63.0616 97.4564 62.7131 97.642C62.3684 97.8277 62.0956 98.0985 61.8949 98.4545C61.6979 98.8106 61.5994 99.2424 61.5994 99.75ZM73.3707 105.182C72.5298 105.182 71.8045 104.996 71.1946 104.625C70.5885 104.25 70.1207 103.727 69.7912 103.057C69.4654 102.383 69.3026 101.598 69.3026 100.705C69.3026 99.8106 69.4654 99.0227 69.7912 98.3409C70.1207 97.6553 70.5791 97.1212 71.1662 96.7386C71.7571 96.3523 72.4465 96.1591 73.2344 96.1591C73.6889 96.1591 74.1378 96.2348 74.581 96.3864C75.0241 96.5379 75.4276 96.7841 75.7912 97.125C76.1548 97.4621 76.4446 97.9091 76.6605 98.4659C76.8764 99.0227 76.9844 99.7083 76.9844 100.523V101.091H70.2571V99.9318H75.6207C75.6207 99.4394 75.5223 99 75.3253 98.6136C75.1321 98.2273 74.8556 97.9223 74.4957 97.6989C74.1397 97.4754 73.7192 97.3636 73.2344 97.3636C72.7003 97.3636 72.2382 97.4962 71.848 97.7614C71.4616 98.0227 71.1643 98.3636 70.956 98.7841C70.7476 99.2045 70.6435 99.6553 70.6435 100.136V100.909C70.6435 101.568 70.7571 102.127 70.9844 102.585C71.2154 103.04 71.5355 103.386 71.9446 103.625C72.3537 103.86 72.8291 103.977 73.3707 103.977C73.723 103.977 74.0412 103.928 74.3253 103.83C74.6132 103.727 74.8613 103.576 75.0696 103.375C75.2779 103.17 75.4389 102.917 75.5526 102.614L76.848 102.977C76.7116 103.417 76.4825 103.803 76.1605 104.136C75.8385 104.466 75.4408 104.723 74.9673 104.909C74.4938 105.091 73.9616 105.182 73.3707 105.182ZM84.8651 99.75V105H83.5241V93.3636H84.8651V97.6364H84.9787C85.1832 97.1856 85.4901 96.8277 85.8991 96.5625C86.312 96.2936 86.8613 96.1591 87.5469 96.1591C88.1416 96.1591 88.6624 96.2784 89.1094 96.517C89.5563 96.7519 89.9029 97.1136 90.1491 97.6023C90.3991 98.0871 90.5241 98.7045 90.5241 99.4545V105H89.1832V99.5455C89.1832 98.8523 89.0033 98.3163 88.6435 97.9375C88.2874 97.5549 87.7931 97.3636 87.1605 97.3636C86.7211 97.3636 86.3272 97.4564 85.9787 97.642C85.634 97.8277 85.3613 98.0985 85.1605 98.4545C84.9635 98.8106 84.8651 99.2424 84.8651 99.75ZM92.9773 105V96.2727H94.3182V105H92.9773ZM93.6591 94.8182C93.3977 94.8182 93.1723 94.7292 92.983 94.5511C92.7973 94.3731 92.7045 94.1591 92.7045 93.9091C92.7045 93.6591 92.7973 93.4451 92.983 93.267C93.1723 93.089 93.3977 93 93.6591 93C93.9205 93 94.1439 93.089 94.3295 93.267C94.5189 93.4451 94.6136 93.6591 94.6136 93.9091C94.6136 94.1591 94.5189 94.3731 94.3295 94.5511C94.1439 94.7292 93.9205 94.8182 93.6591 94.8182ZM98.1151 99.75V105H96.7741V96.2727H98.0696V97.6364H98.1832C98.3878 97.1932 98.6984 96.8371 99.1151 96.5682C99.5317 96.2955 100.07 96.1591 100.729 96.1591C101.32 96.1591 101.837 96.2803 102.28 96.5227C102.723 96.7614 103.068 97.125 103.314 97.6136C103.56 98.0985 103.683 98.7121 103.683 99.4545V105H102.342V99.5455C102.342 98.8598 102.164 98.3258 101.808 97.9432C101.452 97.5568 100.964 97.3636 100.342 97.3636C99.9143 97.3636 99.5317 97.4564 99.1946 97.642C98.8613 97.8277 98.598 98.0985 98.4048 98.4545C98.2116 98.8106 98.1151 99.2424 98.1151 99.75ZM109.929 96.2727V97.4091H105.406V96.2727H109.929ZM106.724 94.1818H108.065V102.5C108.065 102.879 108.12 103.163 108.23 103.352C108.344 103.538 108.488 103.663 108.662 103.727C108.84 103.788 109.027 103.818 109.224 103.818C109.372 103.818 109.493 103.811 109.588 103.795C109.683 103.777 109.759 103.761 109.815 103.75L110.088 104.955C109.997 104.989 109.87 105.023 109.707 105.057C109.545 105.095 109.338 105.114 109.088 105.114C108.709 105.114 108.338 105.032 107.974 104.869C107.615 104.706 107.315 104.458 107.077 104.125C106.842 103.792 106.724 103.371 106.724 102.864V94.1818ZM120.241 96.2727V97.4091H115.719V96.2727H120.241ZM117.037 94.1818H118.378V102.5C118.378 102.879 118.433 103.163 118.543 103.352C118.656 103.538 118.8 103.663 118.974 103.727C119.152 103.788 119.34 103.818 119.537 103.818C119.685 103.818 119.806 103.811 119.901 103.795C119.995 103.777 120.071 103.761 120.128 103.75L120.401 104.955C120.31 104.989 120.183 105.023 120.02 105.057C119.857 105.095 119.651 105.114 119.401 105.114C119.022 105.114 118.651 105.032 118.287 104.869C117.927 104.706 117.628 104.458 117.389 104.125C117.154 103.792 117.037 103.371 117.037 102.864V94.1818ZM125.824 105.182C124.983 105.182 124.258 104.996 123.648 104.625C123.042 104.25 122.574 103.727 122.244 103.057C121.919 102.383 121.756 101.598 121.756 100.705C121.756 99.8106 121.919 99.0227 122.244 98.3409C122.574 97.6553 123.032 97.1212 123.619 96.7386C124.21 96.3523 124.9 96.1591 125.688 96.1591C126.142 96.1591 126.591 96.2348 127.034 96.3864C127.477 96.5379 127.881 96.7841 128.244 97.125C128.608 97.4621 128.898 97.9091 129.114 98.4659C129.33 99.0227 129.438 99.7083 129.438 100.523V101.091H122.71V99.9318H128.074C128.074 99.4394 127.975 99 127.778 98.6136C127.585 98.2273 127.309 97.9223 126.949 97.6989C126.593 97.4754 126.172 97.3636 125.688 97.3636C125.153 97.3636 124.691 97.4962 124.301 97.7614C123.915 98.0227 123.617 98.3636 123.409 98.7841C123.201 99.2045 123.097 99.6553 123.097 100.136V100.909C123.097 101.568 123.21 102.127 123.438 102.585C123.669 103.04 123.989 103.386 124.398 103.625C124.807 103.86 125.282 103.977 125.824 103.977C126.176 103.977 126.494 103.928 126.778 103.83C127.066 103.727 127.314 103.576 127.523 103.375C127.731 103.17 127.892 102.917 128.006 102.614L129.301 102.977C129.165 103.417 128.936 103.803 128.614 104.136C128.292 104.466 127.894 104.723 127.42 104.909C126.947 105.091 126.415 105.182 125.824 105.182ZM132.243 96.2727L134.334 99.8409L136.425 96.2727H137.97L135.152 100.636L137.97 105H136.425L134.334 101.614L132.243 105H130.697L133.47 100.636L130.697 96.2727H132.243ZM143.679 96.2727V97.4091H139.156V96.2727H143.679ZM140.474 94.1818H141.815V102.5C141.815 102.879 141.87 103.163 141.98 103.352C142.094 103.538 142.238 103.663 142.412 103.727C142.59 103.788 142.777 103.818 142.974 103.818C143.122 103.818 143.243 103.811 143.338 103.795C143.433 103.777 143.509 103.761 143.565 103.75L143.838 104.955C143.747 104.989 143.62 105.023 143.457 105.057C143.295 105.095 143.088 105.114 142.838 105.114C142.459 105.114 142.088 105.032 141.724 104.869C141.365 104.706 141.065 104.458 140.827 104.125C140.592 103.792 140.474 103.371 140.474 102.864V94.1818Z" fill="#667085"/>
<rect x="0.5" y="115.5" width="358" height="47" rx="3.5" fill="white"/>
<path d="M16.7727 134.614V133.364H25.5V134.614H21.8409V145H20.4318V134.614H16.7727ZM29.8864 145.182C29.0455 145.182 28.3201 144.996 27.7102 144.625C27.1042 144.25 26.6364 143.727 26.3068 143.057C25.9811 142.383 25.8182 141.598 25.8182 140.705C25.8182 139.811 25.9811 139.023 26.3068 138.341C26.6364 137.655 27.0947 137.121 27.6818 136.739C28.2727 136.352 28.9621 136.159 29.75 136.159C30.2045 136.159 30.6534 136.235 31.0966 136.386C31.5398 136.538 31.9432 136.784 32.3068 137.125C32.6705 137.462 32.9602 137.909 33.1761 138.466C33.392 139.023 33.5 139.708 33.5 140.523V141.091H26.7727V139.932H32.1364C32.1364 139.439 32.0379 139 31.8409 138.614C31.6477 138.227 31.3712 137.922 31.0114 137.699C30.6553 137.475 30.2348 137.364 29.75 137.364C29.2159 137.364 28.7538 137.496 28.3636 137.761C27.9773 138.023 27.6799 138.364 27.4716 138.784C27.2633 139.205 27.1591 139.655 27.1591 140.136V140.909C27.1591 141.568 27.2727 142.127 27.5 142.585C27.7311 143.04 28.0511 143.386 28.4602 143.625C28.8693 143.86 29.3447 143.977 29.8864 143.977C30.2386 143.977 30.5568 143.928 30.8409 143.83C31.1288 143.727 31.3769 143.576 31.5852 143.375C31.7936 143.17 31.9545 142.917 32.0682 142.614L33.3636 142.977C33.2273 143.417 32.9981 143.803 32.6761 144.136C32.3542 144.466 31.9564 144.723 31.483 144.909C31.0095 145.091 30.4773 145.182 29.8864 145.182ZM36.3054 136.273L38.3963 139.841L40.4872 136.273H42.0327L39.2145 140.636L42.0327 145H40.4872L38.3963 141.614L36.3054 145H34.7599L37.5327 140.636L34.7599 136.273H36.3054ZM47.7415 136.273V137.409H43.2188V136.273H47.7415ZM44.5369 134.182H45.8778V142.5C45.8778 142.879 45.9328 143.163 46.0426 143.352C46.1563 143.538 46.3002 143.663 46.4744 143.727C46.6525 143.788 46.84 143.818 47.0369 143.818C47.1847 143.818 47.3059 143.811 47.4006 143.795C47.4953 143.777 47.571 143.761 47.6278 143.75L47.9006 144.955C47.8097 144.989 47.6828 145.023 47.5199 145.057C47.357 145.095 47.1506 145.114 46.9006 145.114C46.5218 145.114 46.1506 145.032 45.7869 144.869C45.4271 144.706 45.1278 144.458 44.8892 144.125C44.6544 143.792 44.5369 143.371 44.5369 142.864V134.182ZM57.7812 148.455C57.1335 148.455 56.5767 148.371 56.1108 148.205C55.6449 148.042 55.2566 147.826 54.946 147.557C54.6392 147.292 54.3949 147.008 54.2131 146.705L55.2812 145.955C55.4025 146.114 55.5559 146.295 55.7415 146.5C55.9271 146.708 56.1809 146.888 56.5028 147.04C56.8286 147.195 57.2547 147.273 57.7812 147.273C58.4858 147.273 59.0672 147.102 59.5256 146.761C59.9839 146.42 60.2131 145.886 60.2131 145.159V143.386H60.0994C60.0009 143.545 59.8608 143.742 59.679 143.977C59.5009 144.208 59.2434 144.415 58.9062 144.597C58.5729 144.775 58.1222 144.864 57.554 144.864C56.8494 144.864 56.2169 144.697 55.6562 144.364C55.0994 144.03 54.6581 143.545 54.3324 142.909C54.0104 142.273 53.8494 141.5 53.8494 140.591C53.8494 139.697 54.0066 138.919 54.321 138.256C54.6354 137.589 55.0729 137.074 55.6335 136.71C56.1941 136.343 56.8419 136.159 57.5767 136.159C58.1449 136.159 58.5956 136.254 58.929 136.443C59.2661 136.629 59.5237 136.841 59.7017 137.08C59.8835 137.314 60.0237 137.508 60.1222 137.659H60.2585V136.273H61.554V145.25C61.554 146 61.3835 146.61 61.0426 147.08C60.7055 147.553 60.2509 147.9 59.679 148.119C59.1108 148.343 58.4782 148.455 57.7812 148.455ZM57.7358 143.659C58.2737 143.659 58.7282 143.536 59.0994 143.29C59.4706 143.044 59.7528 142.689 59.946 142.227C60.1392 141.765 60.2358 141.212 60.2358 140.568C60.2358 139.939 60.1411 139.384 59.9517 138.903C59.7623 138.422 59.482 138.045 59.1108 137.773C58.7396 137.5 58.2813 137.364 57.7358 137.364C57.1676 137.364 56.6941 137.508 56.3153 137.795C55.9403 138.083 55.6581 138.47 55.4688 138.955C55.2831 139.439 55.1903 139.977 55.1903 140.568C55.1903 141.174 55.285 141.71 55.4744 142.176C55.6676 142.638 55.9517 143.002 56.3267 143.267C56.7055 143.528 57.1752 143.659 57.7358 143.659ZM67.554 145.182C66.7661 145.182 66.0748 144.994 65.4801 144.619C64.8892 144.244 64.4271 143.72 64.0938 143.045C63.7642 142.371 63.5994 141.583 63.5994 140.682C63.5994 139.773 63.7642 138.979 64.0938 138.301C64.4271 137.623 64.8892 137.097 65.4801 136.722C66.0748 136.347 66.7661 136.159 67.554 136.159C68.3419 136.159 69.0313 136.347 69.6222 136.722C70.2169 137.097 70.679 137.623 71.0085 138.301C71.3419 138.979 71.5085 139.773 71.5085 140.682C71.5085 141.583 71.3419 142.371 71.0085 143.045C70.679 143.72 70.2169 144.244 69.6222 144.619C69.0313 144.994 68.3419 145.182 67.554 145.182ZM67.554 143.977C68.1525 143.977 68.6449 143.824 69.0312 143.517C69.4176 143.21 69.7036 142.807 69.8892 142.307C70.0748 141.807 70.1676 141.265 70.1676 140.682C70.1676 140.098 70.0748 139.555 69.8892 139.051C69.7036 138.547 69.4176 138.14 69.0312 137.83C68.6449 137.519 68.1525 137.364 67.554 137.364C66.9555 137.364 66.4631 137.519 66.0767 137.83C65.6903 138.14 65.4044 138.547 65.2188 139.051C65.0331 139.555 64.9403 140.098 64.9403 140.682C64.9403 141.265 65.0331 141.807 65.2188 142.307C65.4044 142.807 65.6903 143.21 66.0767 143.517C66.4631 143.824 66.9555 143.977 67.554 143.977ZM77.2145 145.182C76.3736 145.182 75.6482 144.996 75.0384 144.625C74.4323 144.25 73.9645 143.727 73.6349 143.057C73.3092 142.383 73.1463 141.598 73.1463 140.705C73.1463 139.811 73.3092 139.023 73.6349 138.341C73.9645 137.655 74.4228 137.121 75.0099 136.739C75.6009 136.352 76.2902 136.159 77.0781 136.159C77.5327 136.159 77.9815 136.235 78.4247 136.386C78.8679 136.538 79.2713 136.784 79.6349 137.125C79.9986 137.462 80.2884 137.909 80.5043 138.466C80.7202 139.023 80.8281 139.708 80.8281 140.523V141.091H74.1009V139.932H79.4645C79.4645 139.439 79.366 139 79.169 138.614C78.9759 138.227 78.6993 137.922 78.3395 137.699C77.9834 137.475 77.563 137.364 77.0781 137.364C76.544 137.364 76.0819 137.496 75.6918 137.761C75.3054 138.023 75.008 138.364 74.7997 138.784C74.5914 139.205 74.4872 139.655 74.4872 140.136V140.909C74.4872 141.568 74.6009 142.127 74.8281 142.585C75.0592 143.04 75.3793 143.386 75.7884 143.625C76.1974 143.86 76.6728 143.977 77.2145 143.977C77.5668 143.977 77.8849 143.928 78.169 143.83C78.4569 143.727 78.705 143.576 78.9134 143.375C79.1217 143.17 79.2827 142.917 79.3963 142.614L80.6918 142.977C80.5554 143.417 80.3262 143.803 80.0043 144.136C79.6823 144.466 79.2846 144.723 78.8111 144.909C78.3376 145.091 77.8054 145.182 77.2145 145.182ZM89.0497 138.227L87.8452 138.568C87.7694 138.367 87.6577 138.172 87.5099 137.983C87.366 137.79 87.169 137.631 86.919 137.506C86.669 137.381 86.349 137.318 85.9588 137.318C85.4247 137.318 84.9796 137.441 84.6236 137.688C84.2713 137.93 84.0952 138.239 84.0952 138.614C84.0952 138.947 84.2164 139.21 84.4588 139.403C84.7012 139.597 85.08 139.758 85.5952 139.886L86.8906 140.205C87.6709 140.394 88.2524 140.684 88.6349 141.074C89.0175 141.46 89.2088 141.958 89.2088 142.568C89.2088 143.068 89.0649 143.515 88.777 143.909C88.4929 144.303 88.0952 144.614 87.5838 144.841C87.0724 145.068 86.4777 145.182 85.7997 145.182C84.9096 145.182 84.1728 144.989 83.5895 144.602C83.0062 144.216 82.6368 143.652 82.4815 142.909L83.7543 142.591C83.8755 143.061 84.1046 143.413 84.4418 143.648C84.7827 143.883 85.2277 144 85.777 144C86.402 144 86.8982 143.867 87.2656 143.602C87.6368 143.333 87.8224 143.011 87.8224 142.636C87.8224 142.333 87.7164 142.08 87.5043 141.875C87.2921 141.667 86.9664 141.511 86.527 141.409L85.0724 141.068C84.2732 140.879 83.6861 140.585 83.3111 140.188C82.9399 139.786 82.7543 139.284 82.7543 138.682C82.7543 138.189 82.8925 137.754 83.169 137.375C83.4493 136.996 83.83 136.699 84.3111 136.483C84.7959 136.267 85.3452 136.159 85.9588 136.159C86.8224 136.159 87.5005 136.348 87.9929 136.727C88.4891 137.106 88.8414 137.606 89.0497 138.227ZM97.0682 139.75V145H95.7273V133.364H97.0682V137.636H97.1818C97.3864 137.186 97.6932 136.828 98.1023 136.562C98.5152 136.294 99.0644 136.159 99.75 136.159C100.345 136.159 100.866 136.278 101.312 136.517C101.759 136.752 102.106 137.114 102.352 137.602C102.602 138.087 102.727 138.705 102.727 139.455V145H101.386V139.545C101.386 138.852 101.206 138.316 100.847 137.938C100.491 137.555 99.9962 137.364 99.3636 137.364C98.9242 137.364 98.5303 137.456 98.1818 137.642C97.8371 137.828 97.5644 138.098 97.3636 138.455C97.1667 138.811 97.0682 139.242 97.0682 139.75ZM108.839 145.182C107.999 145.182 107.273 144.996 106.663 144.625C106.057 144.25 105.589 143.727 105.26 143.057C104.934 142.383 104.771 141.598 104.771 140.705C104.771 139.811 104.934 139.023 105.26 138.341C105.589 137.655 106.048 137.121 106.635 136.739C107.226 136.352 107.915 136.159 108.703 136.159C109.158 136.159 109.607 136.235 110.05 136.386C110.493 136.538 110.896 136.784 111.26 137.125C111.624 137.462 111.913 137.909 112.129 138.466C112.345 139.023 112.453 139.708 112.453 140.523V141.091H105.726V139.932H111.089C111.089 139.439 110.991 139 110.794 138.614C110.601 138.227 110.324 137.922 109.964 137.699C109.608 137.475 109.188 137.364 108.703 137.364C108.169 137.364 107.707 137.496 107.317 137.761C106.93 138.023 106.633 138.364 106.425 138.784C106.216 139.205 106.112 139.655 106.112 140.136V140.909C106.112 141.568 106.226 142.127 106.453 142.585C106.684 143.04 107.004 143.386 107.413 143.625C107.822 143.86 108.298 143.977 108.839 143.977C109.192 143.977 109.51 143.928 109.794 143.83C110.082 143.727 110.33 143.576 110.538 143.375C110.747 143.17 110.908 142.917 111.021 142.614L112.317 142.977C112.18 143.417 111.951 143.803 111.629 144.136C111.307 144.466 110.91 144.723 110.436 144.909C109.963 145.091 109.43 145.182 108.839 145.182ZM114.493 145V136.273H115.788V137.591H115.879C116.038 137.159 116.326 136.809 116.743 136.54C117.16 136.271 117.629 136.136 118.152 136.136C118.25 136.136 118.374 136.138 118.521 136.142C118.669 136.146 118.781 136.152 118.857 136.159V137.523C118.811 137.511 118.707 137.494 118.544 137.472C118.385 137.445 118.216 137.432 118.038 137.432C117.614 137.432 117.235 137.521 116.902 137.699C116.572 137.873 116.311 138.116 116.118 138.426C115.929 138.733 115.834 139.083 115.834 139.477V145H114.493ZM123.839 145.182C122.999 145.182 122.273 144.996 121.663 144.625C121.057 144.25 120.589 143.727 120.26 143.057C119.934 142.383 119.771 141.598 119.771 140.705C119.771 139.811 119.934 139.023 120.26 138.341C120.589 137.655 121.048 137.121 121.635 136.739C122.226 136.352 122.915 136.159 123.703 136.159C124.158 136.159 124.607 136.235 125.05 136.386C125.493 136.538 125.896 136.784 126.26 137.125C126.624 137.462 126.913 137.909 127.129 138.466C127.345 139.023 127.453 139.708 127.453 140.523V141.091H120.726V139.932H126.089C126.089 139.439 125.991 139 125.794 138.614C125.601 138.227 125.324 137.922 124.964 137.699C124.608 137.475 124.188 137.364 123.703 137.364C123.169 137.364 122.707 137.496 122.317 137.761C121.93 138.023 121.633 138.364 121.425 138.784C121.216 139.205 121.112 139.655 121.112 140.136V140.909C121.112 141.568 121.226 142.127 121.453 142.585C121.684 143.04 122.004 143.386 122.413 143.625C122.822 143.86 123.298 143.977 123.839 143.977C124.192 143.977 124.51 143.928 124.794 143.83C125.082 143.727 125.33 143.576 125.538 143.375C125.747 143.17 125.908 142.917 126.021 142.614L127.317 142.977C127.18 143.417 126.951 143.803 126.629 144.136C126.307 144.466 125.91 144.723 125.436 144.909C124.963 145.091 124.43 145.182 123.839 145.182Z" fill="#344054"/>
<path d="M337.807 140.757C338.533 139.766 338.859 138.538 338.718 137.317C338.577 136.097 337.981 134.974 337.048 134.175C336.115 133.375 334.915 132.957 333.687 133.004C332.46 133.052 331.295 133.561 330.427 134.43C329.558 135.299 329.05 136.464 329.003 137.692C328.957 138.919 329.376 140.119 330.176 141.051C330.977 141.984 332.099 142.579 333.32 142.719C334.541 142.859 335.769 142.533 336.759 141.806H336.759C336.781 141.836 336.805 141.864 336.832 141.892L339.72 144.78C339.86 144.92 340.051 145 340.25 145C340.449 145 340.64 144.921 340.781 144.78C340.921 144.639 341 144.449 341 144.25C341.001 144.051 340.922 143.86 340.781 143.719L337.893 140.832C337.867 140.805 337.838 140.78 337.807 140.757V140.757ZM338.001 137.874C338.001 138.416 337.894 138.953 337.687 139.453C337.479 139.954 337.176 140.408 336.792 140.791C336.409 141.174 335.955 141.478 335.454 141.685C334.954 141.893 334.417 141.999 333.876 141.999C333.334 141.999 332.798 141.893 332.297 141.685C331.797 141.478 331.342 141.174 330.959 140.791C330.576 140.408 330.272 139.954 330.065 139.453C329.857 138.953 329.751 138.416 329.751 137.874C329.751 136.78 330.185 135.731 330.959 134.958C331.732 134.184 332.782 133.749 333.876 133.749C334.97 133.749 336.019 134.184 336.792 134.958C337.566 135.731 338.001 136.78 338.001 137.874Z" fill="#344054"/>
<rect x="0.5" y="115.5" width="358" height="47" rx="3.5" stroke="#98A2B3"/>
<path d="M1.40909 185V173.364H8.43182V174.614H2.81818V178.545H8.06818V179.795H2.81818V183.75H8.52273V185H1.40909ZM10.7898 185V176.273H12.0852V177.591H12.1761C12.3352 177.159 12.6231 176.809 13.0398 176.54C13.4564 176.271 13.9261 176.136 14.4489 176.136C14.5473 176.136 14.6705 176.138 14.8182 176.142C14.9659 176.146 15.0777 176.152 15.1534 176.159V177.523C15.108 177.511 15.0038 177.494 14.8409 177.472C14.6818 177.445 14.5133 177.432 14.3352 177.432C13.911 177.432 13.5322 177.521 13.1989 177.699C12.8693 177.873 12.608 178.116 12.4148 178.426C12.2254 178.733 12.1307 179.083 12.1307 179.477V185H10.7898ZM16.7429 185V176.273H18.0384V177.591H18.1293C18.2884 177.159 18.5762 176.809 18.9929 176.54C19.4096 176.271 19.8793 176.136 20.402 176.136C20.5005 176.136 20.6236 176.138 20.7713 176.142C20.919 176.146 21.0308 176.152 21.1065 176.159V177.523C21.0611 177.511 20.9569 177.494 20.794 177.472C20.6349 177.445 20.4664 177.432 20.2884 177.432C19.8641 177.432 19.4853 177.521 19.152 177.699C18.8224 177.873 18.5611 178.116 18.3679 178.426C18.1785 178.733 18.0838 179.083 18.0838 179.477V185H16.7429ZM25.9759 185.182C25.188 185.182 24.4967 184.994 23.902 184.619C23.3111 184.244 22.849 183.72 22.5156 183.045C22.1861 182.371 22.0213 181.583 22.0213 180.682C22.0213 179.773 22.1861 178.979 22.5156 178.301C22.849 177.623 23.3111 177.097 23.902 176.722C24.4967 176.347 25.188 176.159 25.9759 176.159C26.7637 176.159 27.4531 176.347 28.044 176.722C28.6387 177.097 29.1009 177.623 29.4304 178.301C29.7637 178.979 29.9304 179.773 29.9304 180.682C29.9304 181.583 29.7637 182.371 29.4304 183.045C29.1009 183.72 28.6387 184.244 28.044 184.619C27.4531 184.994 26.7637 185.182 25.9759 185.182ZM25.9759 183.977C26.5743 183.977 27.0668 183.824 27.4531 183.517C27.8395 183.21 28.1255 182.807 28.3111 182.307C28.4967 181.807 28.5895 181.265 28.5895 180.682C28.5895 180.098 28.4967 179.555 28.3111 179.051C28.1255 178.547 27.8395 178.14 27.4531 177.83C27.0668 177.519 26.5743 177.364 25.9759 177.364C25.3774 177.364 24.8849 177.519 24.4986 177.83C24.1122 178.14 23.8262 178.547 23.6406 179.051C23.455 179.555 23.3622 180.098 23.3622 180.682C23.3622 181.265 23.455 181.807 23.6406 182.307C23.8262 182.807 24.1122 183.21 24.4986 183.517C24.8849 183.824 25.3774 183.977 25.9759 183.977ZM31.9773 185V176.273H33.2727V177.591H33.3636C33.5227 177.159 33.8106 176.809 34.2273 176.54C34.6439 176.271 35.1136 176.136 35.6364 176.136C35.7348 176.136 35.858 176.138 36.0057 176.142C36.1534 176.146 36.2652 176.152 36.3409 176.159V177.523C36.2955 177.511 36.1913 177.494 36.0284 177.472C35.8693 177.445 35.7008 177.432 35.5227 177.432C35.0985 177.432 34.7197 177.521 34.3864 177.699C34.0568 177.873 33.7955 178.116 33.6023 178.426C33.4129 178.733 33.3182 179.083 33.3182 179.477V185H31.9773ZM42.4304 185V176.273H43.7259V177.636H43.8395C44.0213 177.17 44.3149 176.809 44.7202 176.551C45.1255 176.29 45.6122 176.159 46.1804 176.159C46.7562 176.159 47.2353 176.29 47.6179 176.551C48.0043 176.809 48.3054 177.17 48.5213 177.636H48.6122C48.8357 177.186 49.1709 176.828 49.6179 176.562C50.0649 176.294 50.6009 176.159 51.2259 176.159C52.0062 176.159 52.6444 176.403 53.1406 176.892C53.6368 177.377 53.8849 178.133 53.8849 179.159V185H52.544V179.159C52.544 178.515 52.3679 178.055 52.0156 177.778C51.6634 177.502 51.2486 177.364 50.7713 177.364C50.1577 177.364 49.6823 177.549 49.3452 177.92C49.008 178.288 48.8395 178.754 48.8395 179.318V185H47.4759V179.023C47.4759 178.527 47.3149 178.127 46.9929 177.824C46.6709 177.517 46.2562 177.364 45.7486 177.364C45.4001 177.364 45.0743 177.456 44.7713 177.642C44.4721 177.828 44.2296 178.085 44.044 178.415C43.8622 178.741 43.7713 179.117 43.7713 179.545V185H42.4304ZM59.9957 185.182C59.1548 185.182 58.4295 184.996 57.8196 184.625C57.2135 184.25 56.7457 183.727 56.4162 183.057C56.0904 182.383 55.9276 181.598 55.9276 180.705C55.9276 179.811 56.0904 179.023 56.4162 178.341C56.7457 177.655 57.2041 177.121 57.7912 176.739C58.3821 176.352 59.0715 176.159 59.8594 176.159C60.3139 176.159 60.7628 176.235 61.206 176.386C61.6491 176.538 62.0526 176.784 62.4162 177.125C62.7798 177.462 63.0696 177.909 63.2855 178.466C63.5014 179.023 63.6094 179.708 63.6094 180.523V181.091H56.8821V179.932H62.2457C62.2457 179.439 62.1473 179 61.9503 178.614C61.7571 178.227 61.4806 177.922 61.1207 177.699C60.7647 177.475 60.3442 177.364 59.8594 177.364C59.3253 177.364 58.8632 177.496 58.473 177.761C58.0866 178.023 57.7893 178.364 57.581 178.784C57.3726 179.205 57.2685 179.655 57.2685 180.136V180.909C57.2685 181.568 57.3821 182.127 57.6094 182.585C57.8404 183.04 58.1605 183.386 58.5696 183.625C58.9787 183.86 59.4541 183.977 59.9957 183.977C60.348 183.977 60.6662 183.928 60.9503 183.83C61.2382 183.727 61.4863 183.576 61.6946 183.375C61.9029 183.17 62.0639 182.917 62.1776 182.614L63.473 182.977C63.3366 183.417 63.1075 183.803 62.7855 184.136C62.4635 184.466 62.0658 184.723 61.5923 184.909C61.1188 185.091 60.5866 185.182 59.9957 185.182ZM71.831 178.227L70.6264 178.568C70.5507 178.367 70.4389 178.172 70.2912 177.983C70.1473 177.79 69.9503 177.631 69.7003 177.506C69.4503 177.381 69.1302 177.318 68.7401 177.318C68.206 177.318 67.7609 177.441 67.4048 177.688C67.0526 177.93 66.8764 178.239 66.8764 178.614C66.8764 178.947 66.9976 179.21 67.2401 179.403C67.4825 179.597 67.8613 179.758 68.3764 179.886L69.6719 180.205C70.4522 180.394 71.0336 180.684 71.4162 181.074C71.7988 181.46 71.9901 181.958 71.9901 182.568C71.9901 183.068 71.8461 183.515 71.5582 183.909C71.2741 184.303 70.8764 184.614 70.3651 184.841C69.8537 185.068 69.259 185.182 68.581 185.182C67.6908 185.182 66.9541 184.989 66.3707 184.602C65.7874 184.216 65.4181 183.652 65.2628 182.909L66.5355 182.591C66.6567 183.061 66.8859 183.413 67.223 183.648C67.5639 183.883 68.009 184 68.5582 184C69.1832 184 69.6795 183.867 70.0469 183.602C70.4181 183.333 70.6037 183.011 70.6037 182.636C70.6037 182.333 70.4976 182.08 70.2855 181.875C70.0734 181.667 69.7476 181.511 69.3082 181.409L67.8537 181.068C67.0545 180.879 66.4673 180.585 66.0923 180.188C65.7211 179.786 65.5355 179.284 65.5355 178.682C65.5355 178.189 65.6738 177.754 65.9503 177.375C66.2306 176.996 66.6113 176.699 67.0923 176.483C67.5772 176.267 68.1264 176.159 68.7401 176.159C69.6037 176.159 70.2817 176.348 70.7741 176.727C71.2704 177.106 71.6226 177.606 71.831 178.227ZM80.1903 178.227L78.9858 178.568C78.91 178.367 78.7983 178.172 78.6506 177.983C78.5066 177.79 78.3097 177.631 78.0597 177.506C77.8097 177.381 77.4896 177.318 77.0994 177.318C76.5653 177.318 76.1203 177.441 75.7642 177.688C75.4119 177.93 75.2358 178.239 75.2358 178.614C75.2358 178.947 75.357 179.21 75.5994 179.403C75.8419 179.597 76.2206 179.758 76.7358 179.886L78.0312 180.205C78.8116 180.394 79.393 180.684 79.7756 181.074C80.1581 181.46 80.3494 181.958 80.3494 182.568C80.3494 183.068 80.2055 183.515 79.9176 183.909C79.6335 184.303 79.2358 184.614 78.7244 184.841C78.2131 185.068 77.6184 185.182 76.9403 185.182C76.0502 185.182 75.3134 184.989 74.7301 184.602C74.1468 184.216 73.7775 183.652 73.6222 182.909L74.8949 182.591C75.0161 183.061 75.2453 183.413 75.5824 183.648C75.9233 183.883 76.3684 184 76.9176 184C77.5426 184 78.0388 183.867 78.4062 183.602C78.7775 183.333 78.9631 183.011 78.9631 182.636C78.9631 182.333 78.857 182.08 78.6449 181.875C78.4328 181.667 78.107 181.511 77.6676 181.409L76.2131 181.068C75.4138 180.879 74.8267 180.585 74.4517 180.188C74.0805 179.786 73.8949 179.284 73.8949 178.682C73.8949 178.189 74.0331 177.754 74.3097 177.375C74.59 176.996 74.9706 176.699 75.4517 176.483C75.9366 176.267 76.4858 176.159 77.0994 176.159C77.9631 176.159 78.6411 176.348 79.1335 176.727C79.6297 177.106 79.982 177.606 80.1903 178.227ZM84.9361 185.205C84.383 185.205 83.8812 185.1 83.4304 184.892C82.9796 184.68 82.6217 184.375 82.3565 183.977C82.0914 183.576 81.9588 183.091 81.9588 182.523C81.9588 182.023 82.0573 181.617 82.2543 181.307C82.4512 180.992 82.7145 180.746 83.044 180.568C83.3736 180.39 83.7372 180.258 84.1349 180.17C84.5365 180.08 84.9399 180.008 85.3452 179.955C85.8755 179.886 86.3054 179.835 86.6349 179.801C86.9683 179.763 87.2107 179.701 87.3622 179.614C87.5175 179.527 87.5952 179.375 87.5952 179.159V179.114C87.5952 178.553 87.4418 178.117 87.1349 177.807C86.8319 177.496 86.3717 177.341 85.7543 177.341C85.1141 177.341 84.6122 177.481 84.2486 177.761C83.8849 178.042 83.6293 178.341 83.4815 178.659L82.2088 178.205C82.4361 177.674 82.7391 177.261 83.1179 176.966C83.5005 176.667 83.9171 176.458 84.3679 176.341C84.8224 176.22 85.2694 176.159 85.7088 176.159C85.9891 176.159 86.3111 176.193 86.6747 176.261C87.0421 176.326 87.3963 176.46 87.7372 176.665C88.0819 176.869 88.3679 177.178 88.5952 177.591C88.8224 178.004 88.9361 178.557 88.9361 179.25V185H87.5952V183.818H87.527C87.4361 184.008 87.2846 184.21 87.0724 184.426C86.8603 184.642 86.5781 184.826 86.2259 184.977C85.8736 185.129 85.4437 185.205 84.9361 185.205ZM85.1406 184C85.6709 184 86.1179 183.896 86.4815 183.688C86.849 183.479 87.1255 183.21 87.3111 182.881C87.5005 182.551 87.5952 182.205 87.5952 181.841V180.614C87.5384 180.682 87.4134 180.744 87.2202 180.801C87.0308 180.854 86.8111 180.902 86.5611 180.943C86.3149 180.981 86.0743 181.015 85.8395 181.045C85.6084 181.072 85.4209 181.095 85.277 181.114C84.9285 181.159 84.6027 181.233 84.2997 181.335C84.0005 181.434 83.758 181.583 83.5724 181.784C83.3906 181.981 83.2997 182.25 83.2997 182.591C83.2997 183.057 83.4721 183.409 83.8168 183.648C84.1652 183.883 84.6065 184 85.1406 184ZM94.9062 188.455C94.2585 188.455 93.7017 188.371 93.2358 188.205C92.7699 188.042 92.3816 187.826 92.071 187.557C91.7642 187.292 91.5199 187.008 91.3381 186.705L92.4062 185.955C92.5275 186.114 92.6809 186.295 92.8665 186.5C93.0521 186.708 93.3059 186.888 93.6278 187.04C93.9536 187.195 94.3797 187.273 94.9062 187.273C95.6108 187.273 96.1922 187.102 96.6506 186.761C97.1089 186.42 97.3381 185.886 97.3381 185.159V183.386H97.2244C97.1259 183.545 96.9858 183.742 96.804 183.977C96.6259 184.208 96.3684 184.415 96.0312 184.597C95.6979 184.775 95.2472 184.864 94.679 184.864C93.9744 184.864 93.3419 184.697 92.7812 184.364C92.2244 184.03 91.7831 183.545 91.4574 182.909C91.1354 182.273 90.9744 181.5 90.9744 180.591C90.9744 179.697 91.1316 178.919 91.446 178.256C91.7604 177.589 92.1979 177.074 92.7585 176.71C93.3191 176.343 93.9669 176.159 94.7017 176.159C95.2699 176.159 95.7206 176.254 96.054 176.443C96.3911 176.629 96.6487 176.841 96.8267 177.08C97.0085 177.314 97.1487 177.508 97.2472 177.659H97.3835V176.273H98.679V185.25C98.679 186 98.5085 186.61 98.1676 187.08C97.8305 187.553 97.3759 187.9 96.804 188.119C96.2358 188.343 95.6032 188.455 94.9062 188.455ZM94.8608 183.659C95.3987 183.659 95.8532 183.536 96.2244 183.29C96.5956 183.044 96.8778 182.689 97.071 182.227C97.2642 181.765 97.3608 181.212 97.3608 180.568C97.3608 179.939 97.2661 179.384 97.0767 178.903C96.8873 178.422 96.607 178.045 96.2358 177.773C95.8646 177.5 95.4063 177.364 94.8608 177.364C94.2926 177.364 93.8191 177.508 93.4403 177.795C93.0653 178.083 92.7831 178.47 92.5938 178.955C92.4081 179.439 92.3153 179.977 92.3153 180.568C92.3153 181.174 92.41 181.71 92.5994 182.176C92.7926 182.638 93.0767 183.002 93.4517 183.267C93.8305 183.528 94.3002 183.659 94.8608 183.659ZM104.793 185.182C103.952 185.182 103.226 184.996 102.616 184.625C102.01 184.25 101.543 183.727 101.213 183.057C100.887 182.383 100.724 181.598 100.724 180.705C100.724 179.811 100.887 179.023 101.213 178.341C101.543 177.655 102.001 177.121 102.588 176.739C103.179 176.352 103.868 176.159 104.656 176.159C105.111 176.159 105.56 176.235 106.003 176.386C106.446 176.538 106.849 176.784 107.213 177.125C107.577 177.462 107.866 177.909 108.082 178.466C108.298 179.023 108.406 179.708 108.406 180.523V181.091H101.679V179.932H107.043C107.043 179.439 106.944 179 106.747 178.614C106.554 178.227 106.277 177.922 105.918 177.699C105.562 177.475 105.141 177.364 104.656 177.364C104.122 177.364 103.66 177.496 103.27 177.761C102.884 178.023 102.586 178.364 102.378 178.784C102.17 179.205 102.065 179.655 102.065 180.136V180.909C102.065 181.568 102.179 182.127 102.406 182.585C102.637 183.04 102.957 183.386 103.366 183.625C103.776 183.86 104.251 183.977 104.793 183.977C105.145 183.977 105.463 183.928 105.747 183.83C106.035 183.727 106.283 183.576 106.491 183.375C106.7 183.17 106.861 182.917 106.974 182.614L108.27 182.977C108.134 183.417 107.904 183.803 107.582 184.136C107.26 184.466 106.863 184.723 106.389 184.909C105.916 185.091 105.384 185.182 104.793 185.182Z" fill="#D7260F"/>
<circle cx="204" cy="99" r="12" fill="#344054"/>
<path d="M199.943 105V103.227L204.085 99.392C204.438 99.0511 204.733 98.7443 204.972 98.4716C205.214 98.1989 205.398 97.9318 205.523 97.6705C205.648 97.4053 205.71 97.1193 205.71 96.8125C205.71 96.4716 205.633 96.178 205.477 95.9318C205.322 95.6818 205.11 95.4905 204.841 95.358C204.572 95.2216 204.267 95.1534 203.926 95.1534C203.57 95.1534 203.259 95.2254 202.994 95.3693C202.729 95.5133 202.525 95.7197 202.381 95.9886C202.237 96.2576 202.165 96.5777 202.165 96.9489H199.83C199.83 96.1875 200.002 95.5265 200.347 94.9659C200.691 94.4053 201.174 93.9716 201.795 93.6648C202.417 93.358 203.133 93.2045 203.943 93.2045C204.777 93.2045 205.502 93.3523 206.119 93.6477C206.741 93.9394 207.223 94.3447 207.568 94.8636C207.913 95.3826 208.085 95.9773 208.085 96.6477C208.085 97.0871 207.998 97.5208 207.824 97.9489C207.653 98.3769 207.348 98.8523 206.909 99.375C206.47 99.8939 205.85 100.517 205.051 101.244L203.352 102.909V102.989H208.239V105H199.943Z" fill="white"/>
<path d="M195 99L143 99.5" stroke="#344054" stroke-dasharray="2 2"/>
<circle cx="402" cy="139" r="12" fill="#344054"/>
<path d="M402.244 145.159C401.396 145.159 400.64 145.013 399.977 144.722C399.318 144.426 398.797 144.021 398.415 143.506C398.036 142.987 397.841 142.388 397.83 141.71H400.307C400.322 141.994 400.415 142.244 400.585 142.46C400.759 142.672 400.991 142.837 401.278 142.955C401.566 143.072 401.89 143.131 402.25 143.131C402.625 143.131 402.956 143.064 403.244 142.932C403.532 142.799 403.758 142.616 403.92 142.381C404.083 142.146 404.165 141.875 404.165 141.568C404.165 141.258 404.078 140.983 403.903 140.744C403.733 140.502 403.487 140.312 403.165 140.176C402.847 140.04 402.468 139.972 402.028 139.972H400.943V138.165H402.028C402.4 138.165 402.727 138.1 403.011 137.972C403.299 137.843 403.523 137.665 403.682 137.438C403.841 137.206 403.92 136.938 403.92 136.631C403.92 136.339 403.85 136.083 403.71 135.864C403.574 135.64 403.381 135.466 403.131 135.341C402.884 135.216 402.597 135.153 402.267 135.153C401.934 135.153 401.629 135.214 401.352 135.335C401.076 135.453 400.854 135.621 400.688 135.841C400.521 136.061 400.432 136.318 400.42 136.614H398.062C398.074 135.943 398.265 135.352 398.636 134.841C399.008 134.33 399.508 133.93 400.136 133.642C400.769 133.35 401.483 133.205 402.278 133.205C403.081 133.205 403.784 133.35 404.386 133.642C404.989 133.934 405.456 134.328 405.79 134.824C406.127 135.316 406.294 135.869 406.29 136.483C406.294 137.134 406.091 137.678 405.682 138.114C405.277 138.549 404.748 138.826 404.097 138.943V139.034C404.953 139.144 405.604 139.441 406.051 139.926C406.502 140.407 406.725 141.009 406.722 141.733C406.725 142.396 406.534 142.985 406.148 143.5C405.765 144.015 405.237 144.42 404.562 144.716C403.888 145.011 403.116 145.159 402.244 145.159Z" fill="white"/>
<path d="M393 139L341 139.5" stroke="#344054" stroke-dasharray="2 2"/>
<circle cx="67" cy="16" r="12" fill="#344054"/>
<path d="M69.0057 10.3636V22H66.5455V12.6989H66.4773L63.8125 14.3693V12.1875L66.6932 10.3636H69.0057Z" fill="white"/>
<path d="M64 16H20V58" stroke="#344054" stroke-dasharray="2 2"/>
<circle cx="67" cy="231" r="12" fill="#344054"/>
<path d="M62.767 234.955V233.017L67.625 225.364H69.2955V228.045H68.3068L65.2443 232.892V232.983H72.1477V234.955H62.767ZM68.3523 237V234.364L68.3977 233.506V225.364H70.7045V237H68.3523Z" fill="white"/>
<path d="M64 232H20V190" stroke="#344054" stroke-dasharray="2 2"/>
</svg>
