<svg width="334" height="224" viewBox="0 0 334 224" fill="none" xmlns="http://www.w3.org/2000/svg"><path d="M0 5a5 5 0 0 1 5-5h161a5 5 0 0 1 5 5v38a5 5 0 0 1-5 5H5a5 5 0 0 1-5-5V5Z" fill="#5925DC"/><path d="M20.75 26.926a.75.75 0 0 1 .75.75v3.75a1.5 1.5 0 0 0 1.5 1.5h18a1.5 1.5 0 0 0 1.5-1.5v-3.75a.75.75 0 1 1 1.5 0v3.75a3 3 0 0 1-3 3H23a3 3 0 0 1-3-3v-3.75a.75.75 0 0 1 .75-.75Z" fill="#fff"/><path d="M31.469 13.795a.749.749 0 0 1 1.062 0l4.5 4.5a.751.751 0 1 1-1.062 1.062l-3.219-3.22v13.189a.75.75 0 1 1-1.5 0v-13.19l-3.219 3.22a.752.752 0 0 1-1.062-1.061l4.5-4.5ZM67 22h-1.41a2.93 2.93 0 0 0-1.187-1.84 3.185 3.185 0 0 0-.972-.478 3.883 3.883 0 0 0-1.113-.16 3.55 3.55 0 0 0-1.915.535c-.569.356-1.021.88-1.358 1.574-.334.693-.5 1.543-.5 2.55 0 1.008.166 1.859.5 2.552.337.693.79 1.218 1.358 1.574a3.55 3.55 0 0 0 1.915.534 3.88 3.88 0 0 0 1.113-.16c.356-.105.68-.262.972-.47a2.984 2.984 0 0 0 1.188-1.847h1.408a4.695 4.695 0 0 1-.58 1.596c-.28.47-.628.87-1.045 1.2a4.58 4.58 0 0 1-1.403.743 5.23 5.23 0 0 1-1.653.256c-.993 0-1.875-.242-2.648-.727-.773-.485-1.38-1.174-1.824-2.068-.443-.894-.665-1.955-.665-3.182 0-1.227.222-2.288.665-3.182.443-.894 1.051-1.583 1.824-2.068.773-.485 1.655-.727 2.648-.727.587 0 1.138.085 1.653.255.519.17.987.42 1.403.75.417.326.765.724 1.046 1.193.28.466.473.998.58 1.597Zm3.435 2.75V30h-1.34V18.364h1.34v4.272h.114a2.47 2.47 0 0 1 .92-1.073c.413-.27.963-.404 1.648-.404.595 0 1.116.12 1.563.358.447.235.793.597 1.04 1.085.25.485.374 1.102.374 1.852V30h-1.34v-5.454c0-.694-.18-1.23-.54-1.608-.356-.383-.85-.574-1.483-.574-.44 0-.834.092-1.182.278a2.036 2.036 0 0 0-.818.813c-.197.356-.296.787-.296 1.295Zm11.658 5.432c-.788 0-1.48-.188-2.074-.563-.59-.375-1.053-.9-1.386-1.573-.33-.675-.495-1.463-.495-2.364 0-.91.165-1.703.495-2.38.333-.679.795-1.205 1.386-1.58.595-.375 1.286-.563 2.074-.563.788 0 1.477.188 2.068.563.595.375 1.057.901 1.387 1.58.333.677.5 1.47.5 2.38 0 .901-.167 1.69-.5 2.364a3.77 3.77 0 0 1-1.387 1.573c-.59.375-1.28.563-2.068.563Zm0-1.205c.599 0 1.09-.153 1.477-.46.387-.307.673-.71.858-1.21.186-.5.279-1.042.279-1.625s-.093-1.127-.279-1.63a2.749 2.749 0 0 0-.858-1.223c-.386-.31-.878-.465-1.477-.465-.598 0-1.09.155-1.477.465a2.741 2.741 0 0 0-.858 1.222 4.681 4.681 0 0 0-.279 1.63c0 .584.093 1.126.279 1.626.185.5.471.903.858 1.21.386.307.879.46 1.477.46Zm9.547 1.205c-.788 0-1.48-.188-2.074-.563-.59-.375-1.053-.9-1.386-1.573-.33-.675-.495-1.463-.495-2.364 0-.91.165-1.703.495-2.38.333-.679.795-1.205 1.386-1.58.595-.375 1.286-.563 2.074-.563.788 0 1.477.188 2.068.563.595.375 1.057.901 1.386 1.58.334.677.5 1.47.5 2.38 0 .901-.166 1.69-.5 2.364a3.77 3.77 0 0 1-1.386 1.573c-.59.375-1.28.563-2.068.563Zm0-1.205c.598 0 1.09-.153 1.477-.46.387-.307.672-.71.858-1.21.186-.5.279-1.042.279-1.625s-.093-1.127-.279-1.63a2.748 2.748 0 0 0-.858-1.223c-.386-.31-.879-.465-1.477-.465-.599 0-1.091.155-1.477.465a2.75 2.75 0 0 0-.858 1.222 4.681 4.681 0 0 0-.279 1.63c0 .584.093 1.126.279 1.626.185.5.471.903.858 1.21.386.307.878.46 1.477.46Zm12.183-5.75-1.204.341a2.238 2.238 0 0 0-.336-.585 1.628 1.628 0 0 0-.591-.477c-.25-.125-.57-.188-.96-.188-.534 0-.979.123-1.335.37-.352.242-.528.55-.528.926 0 .333.12.596.363.79.243.193.621.354 1.137.482l1.295.319c.78.189 1.362.479 1.744.869.383.386.574.884.574 1.494 0 .5-.144.947-.432 1.341-.284.394-.681.705-1.193.932-.511.227-1.106.34-1.784.34-.89 0-1.627-.192-2.21-.579-.583-.386-.953-.95-1.108-1.693l1.273-.318c.12.47.35.822.687 1.057.341.235.786.352 1.335.352.625 0 1.122-.133 1.489-.398.371-.269.557-.59.557-.966 0-.303-.106-.556-.318-.761-.212-.208-.538-.364-.978-.466l-1.454-.34c-.8-.19-1.386-.484-1.761-.881-.372-.402-.557-.904-.557-1.506 0-.493.138-.928.414-1.307.28-.379.662-.676 1.143-.892.484-.216 1.034-.324 1.647-.324.864 0 1.542.19 2.034.568.497.38.849.88 1.057 1.5Zm5.837 6.955c-.841 0-1.566-.186-2.176-.557a3.742 3.742 0 0 1-1.404-1.568c-.326-.674-.488-1.458-.488-2.352 0-.894.162-1.682.488-2.364.33-.686.788-1.22 1.375-1.602.591-.387 1.281-.58 2.068-.58.455 0 .904.076 1.347.227.443.152.847.398 1.21.739.364.337.654.784.87 1.34.215.558.323 1.243.323 2.058v.568h-6.727v-1.16h5.364c0-.492-.099-.931-.296-1.317a2.223 2.223 0 0 0-.829-.915c-.356-.224-.777-.335-1.262-.335-.534 0-.996.132-1.386.397a2.615 2.615 0 0 0-.892 1.023c-.208.42-.312.871-.312 1.352v.773c0 .66.113 1.218.34 1.676.231.455.552.801.961 1.04.409.235.884.352 1.426.352.352 0 .67-.049.954-.148.288-.102.536-.253.745-.454.208-.204.369-.458.483-.761l1.295.363a2.87 2.87 0 0 1-.687 1.16 3.35 3.35 0 0 1-1.194.772 4.42 4.42 0 0 1-1.596.273Zm12.721.023a3.54 3.54 0 0 1-1.505-.313 2.582 2.582 0 0 1-1.074-.915c-.265-.401-.398-.886-.398-1.454 0-.5.099-.906.296-1.216.197-.315.46-.56.789-.739a4.2 4.2 0 0 1 1.091-.398c.402-.09.805-.162 1.21-.216.531-.068.961-.119 1.29-.153.334-.038.576-.1.728-.187.155-.088.232-.239.232-.455v-.045c0-.561-.153-.997-.46-1.307-.303-.31-.763-.466-1.38-.466-.641 0-1.142.14-1.506.42-.364.28-.619.58-.767.898l-1.273-.454c.227-.53.53-.944.909-1.24a3.419 3.419 0 0 1 1.25-.624 5.196 5.196 0 0 1 1.341-.182c.28 0 .602.034.966.102.367.065.722.2 1.063.404.344.204.63.513.857.926.228.413.341.966.341 1.659V30h-1.341v-1.182h-.068c-.091.19-.242.392-.454.608-.212.216-.495.4-.847.551-.352.152-.782.227-1.29.227Zm.205-1.205c.53 0 .977-.104 1.341-.313a2.124 2.124 0 0 0 1.113-1.846v-1.227c-.056.068-.181.13-.375.187a6.29 6.29 0 0 1-.659.142 29.56 29.56 0 0 1-1.284.17 5.19 5.19 0 0 0-.977.222 1.681 1.681 0 0 0-.727.45c-.182.196-.273.465-.273.806 0 .466.172.818.517 1.057.349.235.79.352 1.324.352Zm14.629-7.727v1.136h-4.704v-1.136h4.704ZM133.92 30v-9.932c0-.5.117-.917.352-1.25a2.19 2.19 0 0 1 .915-.75 2.89 2.89 0 0 1 1.187-.25c.33 0 .599.027.807.08.208.053.364.102.466.148l-.386 1.159a7.154 7.154 0 0 0-.284-.086 1.727 1.727 0 0 0-.466-.05c-.444 0-.764.11-.961.334-.193.224-.289.552-.289.983V30h-1.341Zm5.174 0v-8.727h1.341V30h-1.341Zm.682-10.182a.954.954 0 0 1-.676-.267.86.86 0 0 1-.278-.642.86.86 0 0 1 .278-.642.955.955 0 0 1 .676-.267c.262 0 .485.089.671.267a.851.851 0 0 1 .284.642c0 .25-.095.464-.284.642a.934.934 0 0 1-.671.267Zm4.456-1.454V30h-1.341V18.364h1.341Zm6.115 11.818c-.841 0-1.566-.186-2.176-.557a3.733 3.733 0 0 1-1.403-1.568c-.326-.674-.489-1.458-.489-2.352 0-.894.163-1.682.489-2.364.329-.686.788-1.22 1.375-1.602.591-.387 1.28-.58 2.068-.58.454 0 .903.076 1.347.227a3.34 3.34 0 0 1 1.21.739c.363.337.653.784.869 1.34.216.558.324 1.243.324 2.058v.568h-6.727v-1.16h5.363c0-.492-.098-.931-.295-1.317a2.225 2.225 0 0 0-.83-.915c-.356-.224-.776-.335-1.261-.335-.534 0-.996.132-1.386.397a2.608 2.608 0 0 0-.892 1.023c-.209.42-.313.871-.313 1.352v.773c0 .66.114 1.218.341 1.676.231.455.551.801.96 1.04.409.235.885.352 1.426.352a2.9 2.9 0 0 0 .955-.148 2.03 2.03 0 0 0 .744-.454c.208-.204.369-.458.483-.761l1.296.363a2.88 2.88 0 0 1-.688 1.16c-.322.329-.72.587-1.193.772a4.43 4.43 0 0 1-1.597.273Z" fill="#fff"/><path d="M.773 75.614v-1.25H9.5v1.25H5.84V86H4.433V75.614H.772Zm12.06 5.136V86h-1.34V74.364h1.34v4.272h.114c.205-.45.512-.808.92-1.073.414-.27.963-.404 1.649-.404.594 0 1.115.12 1.562.358a2.41 2.41 0 0 1 1.04 1.085c.25.485.375 1.102.375 1.852V86h-1.341v-5.454c0-.694-.18-1.23-.54-1.609-.356-.382-.85-.573-1.483-.573-.44 0-.833.092-1.182.278a2.035 2.035 0 0 0-.818.813c-.197.356-.295.787-.295 1.295ZM20.947 86v-8.727h1.34V86h-1.34Zm.682-10.182a.953.953 0 0 1-.676-.267.858.858 0 0 1-.279-.642c0-.25.093-.464.279-.642a.954.954 0 0 1 .676-.267c.261 0 .485.089.67.267a.85.85 0 0 1 .284.642.85.85 0 0 1-.284.642.934.934 0 0 1-.67.267Zm9.297 3.41-1.205.34a2.235 2.235 0 0 0-.335-.585 1.626 1.626 0 0 0-.591-.477c-.25-.125-.57-.188-.96-.188-.534 0-.98.123-1.335.37-.353.242-.529.55-.529.926 0 .333.121.596.364.79.242.193.621.354 1.136.482l1.296.319c.78.189 1.361.479 1.744.869.382.386.574.884.574 1.494 0 .5-.144.947-.432 1.341-.284.394-.682.705-1.193.932-.512.227-1.106.34-1.784.34-.89 0-1.627-.192-2.21-.579-.584-.386-.953-.95-1.108-1.693l1.272-.318c.121.47.35.822.688 1.057.34.235.786.352 1.335.352.625 0 1.121-.133 1.489-.398.37-.269.556-.59.556-.966 0-.303-.106-.556-.318-.761-.212-.208-.538-.364-.977-.466l-1.455-.34c-.799-.19-1.386-.484-1.76-.882-.372-.401-.558-.903-.558-1.505 0-.493.138-.928.415-1.307a2.82 2.82 0 0 1 1.142-.892c.485-.216 1.034-.324 1.648-.324.863 0 1.541.19 2.034.568.496.38.848.88 1.057 1.5ZM37.602 86v-8.727h1.341V86h-1.34Zm.682-10.182a.953.953 0 0 1-.676-.267.858.858 0 0 1-.278-.642c0-.25.092-.464.278-.642a.953.953 0 0 1 .676-.267c.261 0 .485.089.67.267a.85.85 0 0 1 .285.642.85.85 0 0 1-.284.642.933.933 0 0 1-.67.267Zm9.297 3.41-1.205.34a2.234 2.234 0 0 0-.335-.585 1.626 1.626 0 0 0-.59-.477c-.25-.125-.57-.188-.96-.188-.535 0-.98.123-1.336.37-.352.242-.529.55-.529.926 0 .333.122.596.364.79.242.193.621.354 1.136.482l1.296.319c.78.189 1.362.479 1.744.869.383.386.574.884.574 1.494 0 .5-.144.947-.432 1.341-.284.394-.682.705-1.193.932-.511.227-1.106.34-1.784.34-.89 0-1.627-.192-2.21-.579-.584-.386-.953-.95-1.108-1.693l1.273-.318c.12.47.35.822.687 1.057.34.235.786.352 1.335.352.625 0 1.121-.133 1.489-.398.371-.269.557-.59.557-.966 0-.303-.106-.556-.319-.761-.212-.208-.537-.364-.977-.466l-1.454-.34c-.8-.19-1.387-.484-1.762-.882-.37-.401-.556-.903-.556-1.505 0-.493.138-.928.414-1.307a2.82 2.82 0 0 1 1.142-.892c.485-.216 1.034-.324 1.648-.324.864 0 1.542.19 2.034.568.496.38.849.88 1.057 1.5Zm8.018 1.522V86h-1.34V74.364h1.34v4.272h.114a2.47 2.47 0 0 1 .92-1.073c.413-.27.963-.404 1.648-.404.595 0 1.116.12 1.563.358.447.235.793.597 1.04 1.085.25.485.374 1.102.374 1.852V86h-1.34v-5.454c0-.694-.18-1.23-.54-1.609-.356-.382-.85-.573-1.483-.573-.44 0-.833.092-1.182.278a2.035 2.035 0 0 0-.818.813c-.197.356-.296.787-.296 1.295ZM63.712 86v-8.727h1.34V86h-1.34Zm.681-10.182a.953.953 0 0 1-.676-.267.858.858 0 0 1-.278-.642.86.86 0 0 1 .278-.642.954.954 0 0 1 .677-.267c.26 0 .484.089.67.267a.85.85 0 0 1 .284.642.85.85 0 0 1-.284.642.934.934 0 0 1-.67.267Zm4.456 4.932V86h-1.34v-8.727h1.295v1.363h.114c.204-.443.515-.799.931-1.068.417-.272.955-.409 1.614-.409.591 0 1.108.121 1.551.364.443.238.788.602 1.034 1.09.246.486.37 1.1.37 1.841V86h-1.341v-5.454c0-.686-.178-1.22-.534-1.603-.356-.386-.845-.58-1.466-.58-.428 0-.81.093-1.148.279a1.993 1.993 0 0 0-.79.813c-.193.356-.29.787-.29 1.295Zm11.814-3.477v1.136h-4.522v-1.136h4.522Zm-3.204-2.091h1.34V83.5c0 .379.056.663.165.852.114.186.258.31.432.375.178.06.366.091.563.091a2.4 2.4 0 0 0 .363-.022l.228-.046.272 1.204a2.73 2.73 0 0 1-.38.103c-.163.038-.37.057-.62.057-.378 0-.75-.082-1.113-.245a2.213 2.213 0 0 1-.898-.744c-.235-.333-.352-.754-.352-1.261v-8.682Zm13.517 2.09v1.137h-4.523v-1.136h4.523Zm-3.205-2.09h1.341V83.5c0 .379.055.663.165.852.114.186.258.31.432.375.178.06.365.091.562.091.148 0 .27-.007.364-.022l.227-.046.273 1.204a2.73 2.73 0 0 1-.38.103c-.164.038-.37.057-.62.057a2.7 2.7 0 0 1-1.114-.245 2.213 2.213 0 0 1-.897-.744c-.235-.333-.353-.754-.353-1.261v-8.682Zm8.787 11c-.84 0-1.566-.186-2.176-.557a3.737 3.737 0 0 1-1.403-1.568c-.326-.674-.489-1.459-.489-2.353 0-.893.163-1.681.489-2.363.33-.686.788-1.22 1.375-1.602.59-.387 1.28-.58 2.068-.58.454 0 .903.076 1.347.227.443.152.846.398 1.21.739.363.337.653.784.869 1.34.216.558.324 1.243.324 2.058v.568h-6.727v-1.16h5.363c0-.492-.098-.931-.295-1.317a2.226 2.226 0 0 0-.83-.915c-.356-.224-.776-.335-1.261-.335-.534 0-.996.132-1.386.397a2.615 2.615 0 0 0-.892 1.023c-.209.42-.313.871-.313 1.352v.773c0 .66.114 1.218.34 1.676.232.455.552.801.961 1.04.41.235.885.352 1.426.352.352 0 .67-.049.955-.148a2.03 2.03 0 0 0 .744-.454c.208-.204.37-.458.483-.761l1.296.363a2.88 2.88 0 0 1-.688 1.16c-.322.329-.72.587-1.193.772a4.426 4.426 0 0 1-1.597.273Zm6.419-8.91 2.091 3.569 2.091-3.568h1.546l-2.819 4.363L108.705 86h-1.546l-2.091-3.386L102.977 86h-1.545l2.773-4.364-2.773-4.363h1.545Zm11.436 0v1.137h-4.522v-1.136h4.522Zm-3.204-2.09h1.341V83.5c0 .379.055.663.164.852.114.186.258.31.432.375.178.06.366.091.563.091.148 0 .269-.007.363-.022l.228-.046.272 1.204c-.09.035-.217.069-.38.103-.163.038-.37.057-.62.057-.378 0-.75-.082-1.113-.245a2.215 2.215 0 0 1-.898-.744c-.235-.333-.352-.754-.352-1.261v-8.682Z" fill="#767676"/><path d="M20.77 121.968a.778.778 0 0 1 .23.554.782.782 0 0 1-.23.554L9.815 134.032a.79.79 0 0 1-1.108 0l-5.478-5.478a.783.783 0 1 1 1.109-1.108l4.923 4.925 10.401-10.403a.79.79 0 0 1 1.108 0Z" fill="#0A8217"/><path d="M47.199 122.364h2.46v7.556c0 .849-.203 1.591-.608 2.228-.401.636-.964 1.132-1.687 1.488-.724.353-1.567.529-2.529.529-.966 0-1.81-.176-2.534-.529-.723-.356-1.286-.852-1.687-1.488-.402-.637-.603-1.379-.603-2.228v-7.556h2.46v7.346c0 .443.097.837.29 1.182.197.345.474.616.83.813.356.197.77.295 1.244.295.477 0 .892-.098 1.245-.295a2.07 2.07 0 0 0 .823-.813c.197-.345.296-.739.296-1.182v-7.346Zm4.439 14.909v-12h2.386v1.466h.108c.106-.235.26-.474.46-.716.205-.246.47-.451.796-.614.33-.167.738-.25 1.227-.25a3.28 3.28 0 0 1 1.761.5c.538.33.968.828 1.29 1.494.322.663.483 1.495.483 2.495 0 .973-.157 1.795-.471 2.466-.311.666-.735 1.172-1.273 1.517a3.265 3.265 0 0 1-1.796.511c-.47 0-.869-.078-1.199-.233a2.473 2.473 0 0 1-.8-.585 2.97 2.97 0 0 1-.478-.722h-.074v4.671h-2.42Zm2.37-7.637c0 .519.071.972.215 1.358.144.387.352.688.625.904.273.212.604.318.994.318.394 0 .728-.108 1-.324.273-.22.48-.523.62-.909.144-.39.216-.839.216-1.347 0-.503-.07-.947-.21-1.329-.14-.383-.347-.682-.62-.898-.273-.216-.608-.324-1.006-.324-.394 0-.727.104-1 .313-.269.208-.475.504-.619.886-.144.383-.216.833-.216 1.352Zm10.175-7.272V134h-2.42v-11.636h2.42Zm5.882 11.806c-.882 0-1.645-.187-2.29-.562a3.847 3.847 0 0 1-1.482-1.58c-.349-.678-.523-1.464-.523-2.358 0-.901.174-1.689.523-2.363a3.805 3.805 0 0 1 1.483-1.58c.644-.379 1.407-.568 2.29-.568.882 0 1.643.189 2.283.568.644.375 1.14.902 1.49 1.58.348.674.522 1.462.522 2.363 0 .894-.174 1.68-.523 2.358a3.836 3.836 0 0 1-1.489 1.58c-.64.375-1.401.562-2.284.562Zm.012-1.875c.401 0 .736-.113 1.005-.34.27-.232.472-.546.608-.944.14-.397.21-.85.21-1.358 0-.507-.07-.96-.21-1.358-.136-.397-.339-.712-.608-.943-.269-.231-.604-.346-1.005-.346-.406 0-.746.115-1.023.346-.273.231-.48.546-.62.943a4.18 4.18 0 0 0-.204 1.358c0 .508.068.961.205 1.358.14.398.346.712.619.944.276.227.617.34 1.023.34Zm8.346 1.87c-.556 0-1.053-.097-1.488-.29a2.4 2.4 0 0 1-1.034-.869c-.25-.387-.375-.868-.375-1.444 0-.484.089-.892.267-1.221.178-.33.42-.595.727-.796a3.54 3.54 0 0 1 1.045-.454 8.044 8.044 0 0 1 1.239-.216 30.18 30.18 0 0 0 1.227-.148c.31-.049.536-.121.676-.216a.473.473 0 0 0 .21-.42v-.034c0-.36-.113-.638-.34-.835-.224-.197-.542-.296-.955-.296-.435 0-.782.097-1.04.29a1.332 1.332 0 0 0-.511.716l-2.239-.182c.114-.53.338-.989.67-1.375.334-.39.764-.689 1.29-.898.53-.212 1.145-.318 1.841-.318.485 0 .95.057 1.393.171a3.62 3.62 0 0 1 1.187.528c.349.239.623.545.824.92.2.372.301.817.301 1.336V134h-2.295v-1.21h-.069c-.14.272-.327.513-.562.721a2.587 2.587 0 0 1-.847.483 3.49 3.49 0 0 1-1.142.171Zm.694-1.671c.355 0 .67-.07.943-.21.272-.144.486-.337.642-.579a1.5 1.5 0 0 0 .233-.824v-.926c-.076.049-.18.094-.313.136a5.612 5.612 0 0 1-.437.108c-.163.03-.326.059-.489.085l-.443.063a3.007 3.007 0 0 0-.745.198 1.186 1.186 0 0 0-.494.37.899.899 0 0 0-.176.568c0 .329.12.581.358.756.242.17.55.255.92.255Zm9.315 1.648c-.663 0-1.263-.17-1.801-.511-.534-.345-.959-.851-1.273-1.517-.31-.671-.466-1.493-.466-2.466 0-1 .161-1.832.483-2.495.322-.666.75-1.164 1.284-1.494a3.293 3.293 0 0 1 1.767-.5c.489 0 .896.083 1.222.25.33.163.594.368.795.614.205.242.36.481.466.716h.074v-4.375h2.415V134H91.01v-1.398h-.102a3.114 3.114 0 0 1-.483.722c-.204.235-.472.43-.801.585-.326.155-.724.233-1.193.233Zm.767-1.926c.39 0 .72-.106.989-.318.272-.216.48-.517.624-.904.148-.386.222-.839.222-1.358 0-.519-.072-.969-.216-1.352-.144-.382-.352-.678-.625-.886-.272-.209-.604-.313-.994-.313-.398 0-.733.108-1.006.324-.272.216-.479.515-.62.898-.14.382-.21.826-.21 1.329 0 .508.07.957.21 1.347.145.386.351.689.62.909.273.216.608.324 1.006.324Zm10.166 1.954c-.898 0-1.67-.181-2.318-.545a3.73 3.73 0 0 1-1.489-1.557c-.348-.674-.523-1.471-.523-2.392 0-.898.175-1.685.523-2.364a3.866 3.866 0 0 1 1.472-1.585c.636-.379 1.382-.568 2.239-.568.575 0 1.111.093 1.607.279.5.181.936.456 1.307.823.375.368.667.83.875 1.387.209.553.313 1.2.313 1.943v.665h-7.37v-1.5h5.091c0-.349-.075-.658-.227-.926a1.622 1.622 0 0 0-.631-.631 1.8 1.8 0 0 0-.926-.233c-.367 0-.693.085-.977.256a1.8 1.8 0 0 0-.66.676c-.158.28-.24.593-.243.937v1.426c0 .432.08.805.238 1.12.163.314.392.557.688.727.295.17.645.256 1.05.256.27 0 .516-.038.739-.114a1.474 1.474 0 0 0 .938-.898l2.239.148a3.06 3.06 0 0 1-.699 1.409c-.349.398-.8.708-1.353.932-.549.22-1.183.329-1.903.329Zm8.801-.028c-.663 0-1.263-.17-1.801-.511-.534-.345-.958-.851-1.273-1.517-.31-.671-.466-1.493-.466-2.466 0-1 .161-1.832.483-2.495.322-.666.75-1.164 1.284-1.494a3.295 3.295 0 0 1 1.768-.5c.488 0 .895.083 1.221.25.33.163.595.368.796.614.204.242.359.481.465.716h.074v-4.375h2.415V134h-2.386v-1.398h-.103a3.102 3.102 0 0 1-.482.722c-.205.235-.472.43-.802.585-.325.155-.723.233-1.193.233Zm.767-1.926c.39 0 .72-.106.989-.318.273-.216.481-.517.625-.904.148-.386.221-.839.221-1.358 0-.519-.072-.969-.215-1.352-.144-.382-.353-.678-.625-.886-.273-.209-.605-.313-.995-.313-.397 0-.733.108-1.005.324-.273.216-.48.515-.62.898-.14.382-.21.826-.21 1.329 0 .508.07.957.21 1.347.144.386.351.689.62.909.272.216.608.324 1.005.324Zm14.585-6.943v1.818h-5.386v-1.818h5.386ZM119.365 134v-9.358c0-.633.123-1.157.369-1.574.25-.416.591-.729 1.023-.937.432-.209.922-.313 1.472-.313.371 0 .71.029 1.017.085.31.057.541.108.693.154l-.432 1.818a3.004 3.004 0 0 0-.352-.085 2.17 2.17 0 0 0-.421-.04c-.356 0-.604.083-.744.25-.14.163-.21.392-.21.688V134h-2.415Zm5.632 0v-8.727h2.421V134h-2.421Zm1.216-9.852c-.36 0-.668-.12-.926-.358a1.161 1.161 0 0 1-.381-.87c0-.333.127-.619.381-.858.258-.242.566-.363.926-.363.36 0 .667.121.921.363.257.239.386.525.386.858 0 .338-.129.627-.386.87a1.3 1.3 0 0 1-.921.358Zm5.564-1.784V134h-2.42v-11.636h2.42Zm5.916 11.806c-.898 0-1.67-.181-2.318-.545a3.734 3.734 0 0 1-1.489-1.557c-.348-.674-.522-1.471-.522-2.392 0-.898.174-1.685.522-2.364a3.866 3.866 0 0 1 1.472-1.585c.636-.379 1.383-.568 2.239-.568.575 0 1.111.093 1.608.279.5.181.935.456 1.306.823.375.368.667.83.875 1.387.209.553.313 1.2.313 1.943v.665h-7.369v-1.5h5.09c0-.349-.075-.658-.227-.926a1.622 1.622 0 0 0-.631-.631 1.799 1.799 0 0 0-.926-.233c-.367 0-.693.085-.977.256-.28.166-.5.392-.659.676-.159.28-.241.593-.244.937v1.426c0 .432.079.805.238 1.12.163.314.392.557.688.727.295.17.646.256 1.051.256.269 0 .515-.038.739-.114a1.53 1.53 0 0 0 .573-.341c.16-.151.281-.337.364-.557l2.239.148a3.06 3.06 0 0 1-.699 1.409c-.349.398-.799.708-1.352.932-.55.22-1.184.329-1.904.329Zm14.328-11.806V134h-2.46v-9.301h-.068l-2.665 1.67v-2.181l2.881-1.824h2.312Zm3.578 11.784c-.375 0-.697-.133-.965-.398a1.324 1.324 0 0 1-.398-.966c0-.371.132-.689.398-.954a1.32 1.32 0 0 1 .965-.398c.364 0 .682.132.955.398.273.265.409.583.409.954 0 .25-.064.479-.193.688-.125.204-.29.369-.494.494-.205.121-.43.182-.677.182Zm7.329.022c-.898 0-1.671-.181-2.319-.545a3.726 3.726 0 0 1-1.488-1.557c-.349-.674-.523-1.471-.523-2.392 0-.898.174-1.685.523-2.364a3.864 3.864 0 0 1 1.471-1.585c.637-.379 1.383-.568 2.239-.568.576 0 1.112.093 1.608.279.5.181.936.456 1.307.823.375.368.666.83.875 1.387.208.553.312 1.2.312 1.943v.665h-7.369v-1.5h5.091c0-.349-.076-.658-.227-.926a1.629 1.629 0 0 0-.631-.631 1.802 1.802 0 0 0-.926-.233 1.86 1.86 0 0 0-.978.256c-.28.166-.5.392-.659.676-.159.28-.24.593-.244.937v1.426c0 .432.08.805.239 1.12.163.314.392.557.687.727.296.17.646.256 1.051.256.269 0 .515-.038.739-.114a1.472 1.472 0 0 0 .937-.898l2.239.148a3.05 3.05 0 0 1-.699 1.409c-.348.398-.799.708-1.352.932-.549.22-1.184.329-1.903.329Zm7.451-8.897 1.603 3.051 1.642-3.051h2.483l-2.529 4.363 2.597 4.364h-2.472l-1.721-3.017-1.694 3.017h-2.5l2.591-4.364-2.5-4.363h2.5Zm11.807 0v1.818h-5.256v-1.818h5.256Zm-4.062-2.091h2.42v8.136c0 .224.034.398.102.523a.569.569 0 0 0 .284.256c.125.049.269.073.432.073.114 0 .227-.009.341-.028l.261-.051.381 1.801a7.018 7.018 0 0 1-.511.131c-.22.053-.487.085-.801.096-.584.023-1.095-.055-1.534-.233a2.136 2.136 0 0 1-1.017-.829c-.243-.375-.362-.849-.358-1.421v-8.454Zm9.522 10.988c-.897 0-1.67-.181-2.318-.545a3.734 3.734 0 0 1-1.489-1.557c-.348-.674-.522-1.471-.522-2.392 0-.898.174-1.685.522-2.364a3.873 3.873 0 0 1 1.472-1.585c.636-.379 1.383-.568 2.239-.568.575 0 1.111.093 1.608.279.5.181.935.456 1.306.823.375.368.667.83.875 1.387.209.553.313 1.2.313 1.943v.665h-7.369v-1.5h5.091c0-.349-.076-.658-.228-.926a1.62 1.62 0 0 0-.63-.631 1.805 1.805 0 0 0-.927-.233c-.367 0-.693.085-.977.256-.28.166-.5.392-.659.676-.159.28-.24.593-.244.937v1.426c0 .432.079.805.238 1.12.163.314.392.557.688.727.295.17.646.256 1.051.256.269 0 .515-.038.739-.114a1.472 1.472 0 0 0 .937-.898l2.239.148a3.06 3.06 0 0 1-.699 1.409c-.348.398-.799.708-1.352.932-.55.22-1.184.329-1.904.329Zm8.006-5.215V134h-2.42v-8.727h2.306v1.539h.103c.193-.507.517-.909.971-1.204.455-.299 1.006-.449 1.654-.449.606 0 1.134.133 1.585.398.451.265.801.644 1.051 1.136.25.489.375 1.072.375 1.75V134h-2.42v-5.125c.003-.534-.133-.951-.41-1.25-.276-.303-.657-.455-1.142-.455-.325 0-.613.071-.863.211-.246.14-.44.344-.58.613-.136.265-.206.586-.21.961Zm14.794-1.194-2.216.137a1.148 1.148 0 0 0-.244-.512 1.3 1.3 0 0 0-.495-.369 1.67 1.67 0 0 0-.721-.142c-.375 0-.691.08-.949.239-.258.155-.386.363-.386.625 0 .208.083.384.25.528.166.144.452.26.858.347l1.579.318c.849.174 1.481.454 1.898.841.417.386.625.894.625 1.522a2.38 2.38 0 0 1-.506 1.506c-.333.432-.791.769-1.375 1.011-.579.239-1.248.358-2.005.358-1.156 0-2.076-.24-2.762-.721a2.813 2.813 0 0 1-1.199-1.977l2.381-.125c.072.352.246.621.523.806.276.182.63.273 1.062.273.424 0 .765-.081 1.023-.244.261-.167.394-.381.398-.642a.668.668 0 0 0-.279-.54c-.182-.144-.462-.254-.841-.33l-1.511-.301c-.852-.17-1.487-.466-1.903-.886-.413-.421-.62-.956-.62-1.608 0-.561.152-1.044.455-1.449.307-.405.737-.718 1.29-.937.556-.22 1.208-.33 1.954-.33 1.102 0 1.97.233 2.602.699.637.466 1.008 1.1 1.114 1.903Zm1.723 6.239v-8.727h2.42V134h-2.42Zm1.216-9.852c-.36 0-.669-.12-.926-.358a1.161 1.161 0 0 1-.381-.87c0-.333.127-.619.381-.858.257-.242.566-.363.926-.363.36 0 .667.121.92.363.258.239.387.525.387.858 0 .338-.129.627-.387.87-.253.238-.56.358-.92.358Zm7.087 10.022c-.883 0-1.646-.187-2.29-.562a3.845 3.845 0 0 1-1.483-1.58c-.349-.678-.523-1.464-.523-2.358 0-.901.174-1.689.523-2.363a3.803 3.803 0 0 1 1.483-1.58c.644-.379 1.407-.568 2.29-.568.882 0 1.644.189 2.284.568a3.79 3.79 0 0 1 1.488 1.58c.349.674.523 1.462.523 2.363 0 .894-.174 1.68-.523 2.358a3.831 3.831 0 0 1-1.488 1.58c-.64.375-1.402.562-2.284.562Zm.011-1.875c.401 0 .737-.113 1.006-.34.269-.232.471-.546.608-.944.14-.397.21-.85.21-1.358 0-.507-.07-.96-.21-1.358-.137-.397-.339-.712-.608-.943-.269-.231-.605-.346-1.006-.346-.405 0-.746.115-1.023.346-.272.231-.479.546-.619.943a4.19 4.19 0 0 0-.205 1.358c0 .508.069.961.205 1.358.14.398.347.712.619.944.277.227.618.34 1.023.34Zm8.278-3.34V134h-2.42v-8.727h2.307v1.539h.102c.193-.507.517-.909.972-1.204.454-.299 1.005-.449 1.653-.449.606 0 1.134.133 1.585.398.451.265.801.644 1.051 1.136.25.489.375 1.072.375 1.75V134h-2.42v-5.125c.004-.534-.133-.951-.409-1.25-.277-.303-.657-.455-1.142-.455-.326 0-.614.071-.864.211-.246.14-.439.344-.579.613-.137.265-.207.586-.211.961Z" fill="#0F71BB"/><path d="M39 137.182h196.324v1.091H39v-1.091Z" fill="#0F71BB"/><path d="M263 135.875a7.872 7.872 0 0 1-5.568-2.307 7.872 7.872 0 0 1 0-11.136 7.872 7.872 0 0 1 11.136 0 7.872 7.872 0 0 1 0 11.136 7.872 7.872 0 0 1-5.568 2.307Zm0 1.125a9 9 0 1 0 0-18 9 9 0 0 0 0 18Z" fill="#D7260F"/><path d="M259.227 124.227a.563.563 0 0 1 .614-.123c.068.029.13.07.182.123l2.977 2.978 2.977-2.978a.555.555 0 0 1 .614-.122c.068.028.13.069.182.122a.555.555 0 0 1 .122.614.545.545 0 0 1-.122.182L263.795 128l2.978 2.977a.555.555 0 0 1 .122.613.539.539 0 0 1-.122.183.555.555 0 0 1-.614.122.545.545 0 0 1-.182-.122L263 128.795l-2.977 2.978a.555.555 0 0 1-.614.122.545.545 0 0 1-.182-.122.539.539 0 0 1-.122-.183.547.547 0 0 1 0-.431.545.545 0 0 1 .122-.182l2.978-2.977-2.978-2.977a.563.563 0 0 1-.123-.614.563.563 0 0 1 .123-.182Z" fill="#D7260F"/><path d="M20.77 161.968a.778.778 0 0 1 .23.554.782.782 0 0 1-.23.554L9.815 174.032a.79.79 0 0 1-1.108 0l-5.478-5.478a.783.783 0 1 1 1.109-1.108l4.923 4.925 10.401-10.403a.79.79 0 0 1 1.108 0Z" fill="#0A8217"/><path d="M48.199 162.364h2.46v7.556c0 .849-.203 1.591-.608 2.228-.401.636-.964 1.132-1.687 1.488-.724.353-1.567.529-2.529.529-.966 0-1.81-.176-2.534-.529-.723-.356-1.286-.852-1.687-1.488-.402-.637-.603-1.379-.603-2.228v-7.556h2.46v7.346c0 .443.097.837.29 1.182.197.345.474.616.83.813.356.197.77.295 1.244.295.477 0 .892-.098 1.245-.295a2.07 2.07 0 0 0 .823-.813c.197-.345.296-.739.296-1.182v-7.346Zm4.439 14.909v-12h2.386v1.466h.108c.106-.235.26-.474.46-.716.205-.246.47-.451.796-.614.33-.167.738-.25 1.227-.25a3.28 3.28 0 0 1 1.761.5c.538.33.968.828 1.29 1.494.322.663.483 1.495.483 2.495 0 .973-.157 1.795-.471 2.466-.311.666-.735 1.172-1.273 1.517a3.265 3.265 0 0 1-1.796.511c-.47 0-.869-.078-1.199-.233a2.473 2.473 0 0 1-.8-.585 2.97 2.97 0 0 1-.478-.722h-.074v4.671h-2.42Zm2.37-7.637c0 .519.071.972.215 1.358.144.387.352.688.625.904.273.212.604.318.994.318.394 0 .728-.108 1-.324.273-.22.48-.523.62-.909.144-.39.216-.839.216-1.347 0-.503-.07-.947-.21-1.329-.14-.383-.347-.682-.62-.898-.273-.216-.608-.324-1.006-.324-.394 0-.727.104-1 .313-.269.208-.475.504-.619.886-.144.383-.216.833-.216 1.352Zm10.175-7.272V174h-2.42v-11.636h2.42Zm5.882 11.806c-.882 0-1.645-.187-2.29-.562a3.847 3.847 0 0 1-1.482-1.58c-.349-.678-.523-1.464-.523-2.358 0-.901.174-1.689.523-2.363a3.805 3.805 0 0 1 1.483-1.58c.644-.379 1.407-.568 2.29-.568.882 0 1.643.189 2.283.568.644.375 1.14.902 1.49 1.58.348.674.522 1.462.522 2.363 0 .894-.174 1.68-.523 2.358a3.836 3.836 0 0 1-1.489 1.58c-.64.375-1.401.562-2.284.562Zm.012-1.875c.401 0 .736-.113 1.005-.34.27-.232.472-.546.608-.944.14-.397.21-.85.21-1.358 0-.507-.07-.96-.21-1.358-.136-.397-.339-.712-.608-.943-.269-.231-.604-.346-1.005-.346-.406 0-.746.115-1.023.346-.273.231-.48.546-.62.943a4.18 4.18 0 0 0-.204 1.358c0 .508.068.961.205 1.358.14.398.346.712.619.944.276.227.617.34 1.023.34Zm8.346 1.87c-.556 0-1.053-.097-1.488-.29a2.4 2.4 0 0 1-1.034-.869c-.25-.387-.375-.868-.375-1.444 0-.484.089-.892.267-1.221.178-.33.42-.595.727-.796a3.54 3.54 0 0 1 1.045-.454 8.044 8.044 0 0 1 1.239-.216 30.18 30.18 0 0 0 1.227-.148c.31-.049.536-.121.676-.216a.473.473 0 0 0 .21-.42v-.034c0-.36-.113-.638-.34-.835-.224-.197-.542-.296-.955-.296-.435 0-.782.097-1.04.29a1.332 1.332 0 0 0-.511.716l-2.239-.182c.114-.53.338-.989.67-1.375.334-.39.764-.689 1.29-.898.53-.212 1.145-.318 1.841-.318.485 0 .95.057 1.393.171a3.62 3.62 0 0 1 1.187.528c.349.239.623.545.824.92.2.372.301.817.301 1.336V174h-2.295v-1.21h-.069c-.14.272-.327.513-.562.721a2.587 2.587 0 0 1-.847.483 3.49 3.49 0 0 1-1.142.171Zm.694-1.671c.355 0 .67-.07.943-.21.272-.144.486-.337.642-.579a1.5 1.5 0 0 0 .233-.824v-.926c-.076.049-.18.094-.313.136a5.612 5.612 0 0 1-.437.108c-.163.03-.326.059-.489.085l-.443.063a3.007 3.007 0 0 0-.745.198 1.186 1.186 0 0 0-.494.37.899.899 0 0 0-.176.568c0 .329.12.581.358.756.242.17.55.255.92.255Zm9.315 1.648c-.663 0-1.263-.17-1.801-.511-.534-.345-.959-.851-1.273-1.517-.31-.671-.466-1.493-.466-2.466 0-1 .161-1.832.483-2.495.322-.666.75-1.164 1.284-1.494a3.293 3.293 0 0 1 1.767-.5c.489 0 .896.083 1.222.25.33.163.594.368.795.614.205.242.36.481.466.716h.074v-4.375h2.415V174H92.01v-1.398h-.102a3.114 3.114 0 0 1-.483.722c-.204.235-.472.43-.801.585-.326.155-.724.233-1.193.233Zm.767-1.926c.39 0 .72-.106.989-.318.272-.216.48-.517.624-.904.148-.386.222-.839.222-1.358 0-.519-.072-.969-.216-1.352-.144-.382-.352-.678-.625-.886-.272-.209-.604-.313-.994-.313-.398 0-.733.108-1.006.324-.272.216-.479.515-.62.898-.14.382-.21.826-.21 1.329 0 .508.07.957.21 1.347.145.386.351.689.62.909.273.216.608.324 1.006.324Zm10.166 1.954c-.898 0-1.67-.181-2.318-.545a3.73 3.73 0 0 1-1.489-1.557c-.348-.674-.523-1.471-.523-2.392 0-.898.175-1.685.523-2.364a3.866 3.866 0 0 1 1.472-1.585c.636-.379 1.382-.568 2.238-.568.576 0 1.112.093 1.608.279.5.181.936.456 1.307.823.375.368.667.83.875 1.387.209.553.313 1.2.313 1.943v.665h-7.37v-1.5h5.091c0-.349-.075-.658-.227-.926a1.622 1.622 0 0 0-.631-.631 1.799 1.799 0 0 0-.926-.233c-.367 0-.693.085-.977.256a1.8 1.8 0 0 0-.66.676c-.158.28-.24.593-.243.937v1.426c0 .432.08.805.238 1.12.163.314.392.557.688.727.295.17.645.256 1.051.256.269 0 .515-.038.738-.114a1.474 1.474 0 0 0 .938-.898l2.239.148a3.06 3.06 0 0 1-.699 1.409c-.349.398-.8.708-1.353.932-.549.22-1.183.329-1.903.329Zm8.801-.028c-.663 0-1.263-.17-1.801-.511-.534-.345-.958-.851-1.273-1.517-.31-.671-.466-1.493-.466-2.466 0-1 .161-1.832.483-2.495.322-.666.75-1.164 1.284-1.494a3.295 3.295 0 0 1 1.768-.5c.488 0 .895.083 1.221.25.33.163.595.368.796.614.204.242.359.481.465.716h.074v-4.375h2.415V174h-2.386v-1.398h-.103a3.102 3.102 0 0 1-.482.722c-.205.235-.472.43-.802.585-.325.155-.723.233-1.193.233Zm.767-1.926c.39 0 .72-.106.989-.318.273-.216.481-.517.625-.904.148-.386.221-.839.221-1.358 0-.519-.072-.969-.215-1.352-.144-.382-.353-.678-.625-.886-.273-.209-.605-.313-.995-.313-.397 0-.733.108-1.005.324-.273.216-.48.515-.62.898-.14.382-.21.826-.21 1.329 0 .508.07.957.21 1.347.144.386.351.689.62.909.272.216.608.324 1.005.324Zm14.585-6.943v1.818h-5.386v-1.818h5.386ZM120.365 174v-9.358c0-.633.123-1.157.369-1.574.25-.416.591-.729 1.023-.937.432-.209.922-.313 1.472-.313.371 0 .71.029 1.017.085.31.057.541.108.693.154l-.432 1.818a3.004 3.004 0 0 0-.352-.085 2.17 2.17 0 0 0-.421-.04c-.356 0-.604.083-.744.25-.14.163-.21.392-.21.688V174h-2.415Zm5.632 0v-8.727h2.421V174h-2.421Zm1.216-9.852c-.36 0-.668-.12-.926-.358a1.161 1.161 0 0 1-.381-.87c0-.333.127-.619.381-.858.258-.242.566-.363.926-.363.36 0 .667.121.921.363.257.239.386.525.386.858 0 .338-.129.627-.386.87a1.3 1.3 0 0 1-.921.358Zm5.564-1.784V174h-2.42v-11.636h2.42Zm5.916 11.806c-.898 0-1.67-.181-2.318-.545a3.734 3.734 0 0 1-1.489-1.557c-.348-.674-.522-1.471-.522-2.392 0-.898.174-1.685.522-2.364a3.866 3.866 0 0 1 1.472-1.585c.636-.379 1.383-.568 2.239-.568.575 0 1.111.093 1.608.279.5.181.935.456 1.306.823.375.368.667.83.875 1.387.209.553.313 1.2.313 1.943v.665h-7.369v-1.5h5.09c0-.349-.075-.658-.227-.926a1.622 1.622 0 0 0-.631-.631 1.799 1.799 0 0 0-.926-.233c-.367 0-.693.085-.977.256-.28.166-.5.392-.659.676-.159.28-.241.593-.244.937v1.426c0 .432.079.805.238 1.12.163.314.392.557.688.727.295.17.646.256 1.051.256.269 0 .515-.038.739-.114a1.53 1.53 0 0 0 .573-.341c.16-.151.281-.337.364-.557l2.239.148a3.06 3.06 0 0 1-.699 1.409c-.349.398-.799.708-1.352.932-.55.22-1.184.329-1.904.329Zm9.266-.17v-1.773l4.142-3.835c.352-.341.648-.648.886-.92.243-.273.426-.54.551-.802.125-.265.188-.551.188-.858 0-.34-.078-.634-.233-.88a1.535 1.535 0 0 0-.636-.574 2 2 0 0 0-.915-.205c-.356 0-.667.072-.932.216-.265.144-.47.351-.614.62-.144.269-.216.589-.216.96h-2.335c0-.762.173-1.422.517-1.983a3.455 3.455 0 0 1 1.449-1.301c.621-.307 1.337-.46 2.148-.46.833 0 1.559.147 2.176.443.621.291 1.104.697 1.449 1.216s.517 1.113.517 1.784c0 .439-.087.873-.262 1.301-.17.428-.475.903-.914 1.426-.44.519-1.059 1.142-1.858 1.869l-1.699 1.665v.08h4.886V174h-8.295Zm11.515.148c-.375 0-.697-.133-.965-.398a1.324 1.324 0 0 1-.398-.966c0-.371.132-.689.398-.954a1.32 1.32 0 0 1 .965-.398c.364 0 .682.132.955.398.273.265.409.583.409.954 0 .25-.064.479-.193.688-.125.204-.29.369-.494.494-.205.121-.43.182-.677.182Zm7.329.022c-.898 0-1.671-.181-2.319-.545a3.726 3.726 0 0 1-1.488-1.557c-.349-.674-.523-1.471-.523-2.392 0-.898.174-1.685.523-2.364a3.864 3.864 0 0 1 1.471-1.585c.637-.379 1.383-.568 2.239-.568.576 0 1.112.093 1.608.279.5.181.936.456 1.307.823.375.368.666.83.875 1.387.208.553.312 1.2.312 1.943v.665h-7.369v-1.5h5.091c0-.349-.076-.658-.227-.926a1.629 1.629 0 0 0-.631-.631 1.802 1.802 0 0 0-.926-.233 1.86 1.86 0 0 0-.978.256c-.28.166-.5.392-.659.676-.159.28-.24.593-.244.937v1.426c0 .432.08.805.239 1.12.163.314.392.557.687.727.296.17.646.256 1.051.256.269 0 .515-.038.739-.114a1.472 1.472 0 0 0 .937-.898l2.239.148a3.05 3.05 0 0 1-.699 1.409c-.348.398-.799.708-1.352.932-.549.22-1.184.329-1.903.329Zm7.451-8.897 1.603 3.051 1.642-3.051h2.483l-2.529 4.363L180.05 174h-2.472l-1.721-3.017-1.694 3.017h-2.5l2.591-4.364-2.5-4.363h2.5Zm11.807 0v1.818h-5.256v-1.818h5.256Zm-4.062-2.091h2.42v8.136c0 .224.034.398.102.523a.569.569 0 0 0 .284.256c.125.049.269.073.432.073.114 0 .227-.009.341-.028l.261-.051.381 1.801a7.018 7.018 0 0 1-.511.131c-.22.053-.487.085-.801.096-.584.023-1.095-.055-1.534-.233a2.136 2.136 0 0 1-1.017-.829c-.243-.375-.362-.849-.358-1.421v-8.454Zm9.522 10.988c-.897 0-1.67-.181-2.318-.545a3.734 3.734 0 0 1-1.489-1.557c-.348-.674-.522-1.471-.522-2.392 0-.898.174-1.685.522-2.364a3.873 3.873 0 0 1 1.472-1.585c.636-.379 1.383-.568 2.239-.568.575 0 1.111.093 1.608.279.5.181.935.456 1.306.823.375.368.667.83.875 1.387.209.553.313 1.2.313 1.943v.665h-7.369v-1.5h5.091c0-.349-.076-.658-.228-.926a1.62 1.62 0 0 0-.63-.631 1.805 1.805 0 0 0-.927-.233c-.367 0-.693.085-.977.256-.28.166-.5.392-.659.676-.159.28-.24.593-.244.937v1.426c0 .432.079.805.238 1.12.163.314.392.557.688.727.295.17.646.256 1.051.256.269 0 .515-.038.739-.114a1.472 1.472 0 0 0 .937-.898l2.239.148a3.06 3.06 0 0 1-.699 1.409c-.348.398-.799.708-1.352.932-.55.22-1.184.329-1.904.329Zm8.006-5.215V174h-2.42v-8.727h2.306v1.539h.103c.193-.507.517-.909.971-1.204.455-.299 1.006-.449 1.654-.449.606 0 1.134.133 1.585.398.451.265.801.644 1.051 1.136.25.489.375 1.072.375 1.75V174h-2.42v-5.125c.003-.534-.133-.951-.41-1.25-.276-.303-.657-.455-1.142-.455-.325 0-.613.071-.863.211-.246.14-.44.344-.58.613-.136.265-.206.586-.21.961Zm14.794-1.194-2.216.137a1.148 1.148 0 0 0-.244-.512 1.3 1.3 0 0 0-.495-.369 1.67 1.67 0 0 0-.721-.142c-.375 0-.691.08-.949.239-.258.155-.386.363-.386.625 0 .208.083.384.25.528.166.144.452.26.858.347l1.579.318c.849.174 1.481.454 1.898.841.417.386.625.894.625 1.522a2.38 2.38 0 0 1-.506 1.506c-.333.432-.791.769-1.375 1.011-.579.239-1.248.358-2.005.358-1.156 0-2.076-.24-2.762-.721a2.813 2.813 0 0 1-1.199-1.977l2.381-.125c.072.352.246.621.523.806.276.182.63.273 1.062.273.424 0 .765-.081 1.023-.244.261-.167.394-.381.398-.642a.668.668 0 0 0-.279-.54c-.182-.144-.462-.254-.841-.33l-1.511-.301c-.852-.17-1.487-.466-1.903-.886-.413-.421-.62-.956-.62-1.608 0-.561.152-1.044.455-1.449.307-.405.737-.718 1.29-.937.556-.22 1.208-.33 1.954-.33 1.102 0 1.97.233 2.602.699.637.466 1.008 1.1 1.114 1.903Zm1.723 6.239v-8.727h2.42V174h-2.42Zm1.216-9.852c-.36 0-.669-.12-.926-.358a1.161 1.161 0 0 1-.381-.87c0-.333.127-.619.381-.858.257-.242.566-.363.926-.363.36 0 .667.121.92.363.258.239.387.525.387.858 0 .338-.129.627-.387.87-.253.238-.56.358-.92.358Zm7.087 10.022c-.883 0-1.646-.187-2.29-.562a3.845 3.845 0 0 1-1.483-1.58c-.349-.678-.523-1.464-.523-2.358 0-.901.174-1.689.523-2.363a3.803 3.803 0 0 1 1.483-1.58c.644-.379 1.407-.568 2.29-.568.882 0 1.644.189 2.284.568a3.79 3.79 0 0 1 1.488 1.58c.349.674.523 1.462.523 2.363 0 .894-.174 1.68-.523 2.358a3.831 3.831 0 0 1-1.488 1.58c-.64.375-1.402.562-2.284.562Zm.011-1.875c.401 0 .737-.113 1.006-.34.269-.232.471-.546.608-.944.14-.397.21-.85.21-1.358 0-.507-.07-.96-.21-1.358-.137-.397-.339-.712-.608-.943-.269-.231-.605-.346-1.006-.346-.405 0-.746.115-1.023.346-.272.231-.479.546-.619.943a4.19 4.19 0 0 0-.205 1.358c0 .508.069.961.205 1.358.14.398.347.712.619.944.277.227.618.34 1.023.34Zm8.278-3.34V174h-2.42v-8.727h2.307v1.539h.102c.193-.507.517-.909.972-1.204.454-.299 1.005-.449 1.653-.449.606 0 1.134.133 1.585.398.451.265.801.644 1.051 1.136.25.489.375 1.072.375 1.75V174h-2.42v-5.125c.004-.534-.133-.951-.409-1.25-.277-.303-.657-.455-1.142-.455-.326 0-.614.071-.864.211-.246.14-.439.344-.579.613-.137.265-.207.586-.211.961Z" fill="#0F71BB"/><path d="M40 177.182h199.199v1.091H40v-1.091Z" fill="#0F71BB"/><path d="M268 175.875a7.872 7.872 0 0 1-5.568-2.307 7.872 7.872 0 0 1 0-11.136 7.872 7.872 0 0 1 11.136 0 7.872 7.872 0 0 1 0 11.136 7.872 7.872 0 0 1-5.568 2.307Zm0 1.125a9 9 0 1 0 0-18 9 9 0 0 0 0 18Z" fill="#D7260F"/><path d="M264.227 164.227a.563.563 0 0 1 .614-.123c.068.029.13.07.182.123l2.977 2.978 2.977-2.978a.555.555 0 0 1 .614-.122c.068.028.13.069.182.122a.555.555 0 0 1 .122.614.545.545 0 0 1-.122.182L268.795 168l2.978 2.977a.555.555 0 0 1 .122.613.539.539 0 0 1-.122.183.555.555 0 0 1-.614.122.545.545 0 0 1-.182-.122L268 168.795l-2.977 2.978a.555.555 0 0 1-.614.122.545.545 0 0 1-.182-.122.539.539 0 0 1-.122-.183.547.547 0 0 1 0-.431.545.545 0 0 1 .122-.182l2.978-2.977-2.978-2.977a.563.563 0 0 1-.123-.614.563.563 0 0 1 .123-.182Z" fill="#D7260F"/><path d="M20.77 201.968a.778.778 0 0 1 .23.554.782.782 0 0 1-.23.554L9.815 214.032a.79.79 0 0 1-1.108 0l-5.478-5.478a.783.783 0 1 1 1.109-1.108l4.923 4.925 10.401-10.403a.79.79 0 0 1 1.108 0Z" fill="#0A8217"/><path d="M48.199 202.364h2.46v7.556c0 .849-.203 1.591-.608 2.228-.401.636-.964 1.132-1.687 1.488-.724.353-1.567.529-2.529.529-.966 0-1.81-.176-2.534-.529-.723-.356-1.286-.852-1.687-1.488-.402-.637-.603-1.379-.603-2.228v-7.556h2.46v7.346c0 .443.097.837.29 1.182.197.345.474.616.83.813.356.197.77.295 1.244.295.477 0 .892-.098 1.245-.295a2.07 2.07 0 0 0 .823-.813c.197-.345.296-.739.296-1.182v-7.346Zm4.439 14.909v-12h2.386v1.466h.108c.106-.235.26-.474.46-.716.205-.246.47-.451.796-.614.33-.167.738-.25 1.227-.25a3.28 3.28 0 0 1 1.761.5c.538.33.968.828 1.29 1.494.322.663.483 1.495.483 2.495 0 .973-.157 1.795-.471 2.466-.311.666-.735 1.172-1.273 1.517a3.265 3.265 0 0 1-1.796.511c-.47 0-.869-.078-1.199-.233a2.473 2.473 0 0 1-.8-.585 2.97 2.97 0 0 1-.478-.722h-.074v4.671h-2.42Zm2.37-7.637c0 .519.071.972.215 1.358.144.387.352.688.625.904.273.212.604.318.994.318.394 0 .728-.108 1-.324.273-.22.48-.523.62-.909.144-.39.216-.839.216-1.347 0-.503-.07-.947-.21-1.329-.14-.383-.347-.682-.62-.898-.273-.216-.608-.324-1.006-.324-.394 0-.727.104-1 .313-.269.208-.475.504-.619.886-.144.383-.216.833-.216 1.352Zm10.175-7.272V214h-2.42v-11.636h2.42Zm5.882 11.806c-.882 0-1.645-.187-2.29-.562a3.847 3.847 0 0 1-1.482-1.58c-.349-.678-.523-1.464-.523-2.358 0-.901.174-1.689.523-2.363a3.805 3.805 0 0 1 1.483-1.58c.644-.379 1.407-.568 2.29-.568.882 0 1.643.189 2.283.568.644.375 1.14.902 1.49 1.58.348.674.522 1.462.522 2.363 0 .894-.174 1.68-.523 2.358a3.836 3.836 0 0 1-1.489 1.58c-.64.375-1.401.562-2.284.562Zm.012-1.875c.401 0 .736-.113 1.005-.34.27-.232.472-.546.608-.944.14-.397.21-.85.21-1.358 0-.507-.07-.96-.21-1.358-.136-.397-.339-.712-.608-.943-.269-.231-.604-.346-1.005-.346-.406 0-.746.115-1.023.346-.273.231-.48.546-.62.943a4.18 4.18 0 0 0-.204 1.358c0 .508.068.961.205 1.358.14.398.346.712.619.944.276.227.617.34 1.023.34Zm8.346 1.87c-.556 0-1.053-.097-1.488-.29a2.4 2.4 0 0 1-1.034-.869c-.25-.387-.375-.868-.375-1.444 0-.484.089-.892.267-1.221.178-.33.42-.595.727-.796a3.54 3.54 0 0 1 1.045-.454 8.044 8.044 0 0 1 1.239-.216 30.18 30.18 0 0 0 1.227-.148c.31-.049.536-.121.676-.216a.473.473 0 0 0 .21-.42v-.034c0-.36-.113-.638-.34-.835-.224-.197-.542-.296-.955-.296-.435 0-.782.097-1.04.29a1.332 1.332 0 0 0-.511.716l-2.239-.182c.114-.53.338-.989.67-1.375.334-.39.764-.689 1.29-.898.53-.212 1.145-.318 1.841-.318.485 0 .95.057 1.393.171a3.62 3.62 0 0 1 1.187.528c.349.239.623.545.824.92.2.372.301.817.301 1.336V214h-2.295v-1.21h-.069c-.14.272-.327.513-.562.721a2.587 2.587 0 0 1-.847.483 3.49 3.49 0 0 1-1.142.171Zm.694-1.671c.355 0 .67-.07.943-.21.272-.144.486-.337.642-.579a1.5 1.5 0 0 0 .233-.824v-.926c-.076.049-.18.094-.313.136a5.612 5.612 0 0 1-.437.108c-.163.03-.326.059-.489.085l-.443.063a3.007 3.007 0 0 0-.745.198 1.186 1.186 0 0 0-.494.37.899.899 0 0 0-.176.568c0 .329.12.581.358.756.242.17.55.255.92.255Zm9.315 1.648c-.663 0-1.263-.17-1.801-.511-.534-.345-.959-.851-1.273-1.517-.31-.671-.466-1.493-.466-2.466 0-1 .161-1.832.483-2.495.322-.666.75-1.164 1.284-1.494a3.293 3.293 0 0 1 1.767-.5c.489 0 .896.083 1.222.25.33.163.594.368.795.614.205.242.36.481.466.716h.074v-4.375h2.415V214H92.01v-1.398h-.102a3.114 3.114 0 0 1-.483.722c-.204.235-.472.43-.801.585-.326.155-.724.233-1.193.233Zm.767-1.926c.39 0 .72-.106.989-.318.272-.216.48-.517.624-.904.148-.386.222-.839.222-1.358 0-.519-.072-.969-.216-1.352-.144-.382-.352-.678-.625-.886-.272-.209-.604-.313-.994-.313-.398 0-.733.108-1.006.324-.272.216-.479.515-.62.898-.14.382-.21.826-.21 1.329 0 .508.07.957.21 1.347.145.386.351.689.62.909.273.216.608.324 1.006.324Zm10.166 1.954c-.898 0-1.67-.181-2.318-.545a3.73 3.73 0 0 1-1.489-1.557c-.348-.674-.523-1.471-.523-2.392 0-.898.175-1.685.523-2.364a3.866 3.866 0 0 1 1.472-1.585c.636-.379 1.382-.568 2.238-.568.576 0 1.112.093 1.608.279.5.181.936.456 1.307.823.375.368.667.83.875 1.387.209.553.313 1.2.313 1.943v.665h-7.37v-1.5h5.091c0-.349-.075-.658-.227-.926a1.622 1.622 0 0 0-.631-.631 1.799 1.799 0 0 0-.926-.233c-.367 0-.693.085-.977.256a1.8 1.8 0 0 0-.66.676c-.158.28-.24.593-.243.937v1.426c0 .432.08.805.238 1.12.163.314.392.557.688.727.295.17.645.256 1.051.256.269 0 .515-.038.738-.114a1.474 1.474 0 0 0 .938-.898l2.239.148a3.06 3.06 0 0 1-.699 1.409c-.349.398-.8.708-1.353.932-.549.22-1.183.329-1.903.329Zm8.801-.028c-.663 0-1.263-.17-1.801-.511-.534-.345-.958-.851-1.273-1.517-.31-.671-.466-1.493-.466-2.466 0-1 .161-1.832.483-2.495.322-.666.75-1.164 1.284-1.494a3.295 3.295 0 0 1 1.768-.5c.488 0 .895.083 1.221.25.33.163.595.368.796.614.204.242.359.481.465.716h.074v-4.375h2.415V214h-2.386v-1.398h-.103a3.102 3.102 0 0 1-.482.722c-.205.235-.472.43-.802.585-.325.155-.723.233-1.193.233Zm.767-1.926c.39 0 .72-.106.989-.318.273-.216.481-.517.625-.904.148-.386.221-.839.221-1.358 0-.519-.072-.969-.215-1.352-.144-.382-.353-.678-.625-.886-.273-.209-.605-.313-.995-.313-.397 0-.733.108-1.005.324-.273.216-.48.515-.62.898-.14.382-.21.826-.21 1.329 0 .508.07.957.21 1.347.144.386.351.689.62.909.272.216.608.324 1.005.324Zm14.585-6.943v1.818h-5.386v-1.818h5.386ZM120.365 214v-9.358c0-.633.123-1.157.369-1.574.25-.416.591-.729 1.023-.937.432-.209.922-.313 1.472-.313.371 0 .71.029 1.017.085.31.057.541.108.693.154l-.432 1.818a3.004 3.004 0 0 0-.352-.085 2.17 2.17 0 0 0-.421-.04c-.356 0-.604.083-.744.25-.14.163-.21.392-.21.688V214h-2.415Zm5.632 0v-8.727h2.421V214h-2.421Zm1.216-9.852c-.36 0-.668-.12-.926-.358a1.161 1.161 0 0 1-.381-.87c0-.333.127-.619.381-.858.258-.242.566-.363.926-.363.36 0 .667.121.921.363.257.239.386.525.386.858 0 .338-.129.627-.386.87a1.3 1.3 0 0 1-.921.358Zm5.564-1.784V214h-2.42v-11.636h2.42Zm5.916 11.806c-.898 0-1.67-.181-2.318-.545a3.734 3.734 0 0 1-1.489-1.557c-.348-.674-.522-1.471-.522-2.392 0-.898.174-1.685.522-2.364a3.866 3.866 0 0 1 1.472-1.585c.636-.379 1.383-.568 2.239-.568.575 0 1.111.093 1.608.279.5.181.935.456 1.306.823.375.368.667.83.875 1.387.209.553.313 1.2.313 1.943v.665h-7.369v-1.5h5.09c0-.349-.075-.658-.227-.926a1.622 1.622 0 0 0-.631-.631 1.799 1.799 0 0 0-.926-.233c-.367 0-.693.085-.977.256-.28.166-.5.392-.659.676-.159.28-.241.593-.244.937v1.426c0 .432.079.805.238 1.12.163.314.392.557.688.727.295.17.646.256 1.051.256.269 0 .515-.038.739-.114a1.53 1.53 0 0 0 .573-.341c.16-.151.281-.337.364-.557l2.239.148a3.06 3.06 0 0 1-.699 1.409c-.349.398-.799.708-1.352.932-.55.22-1.184.329-1.904.329Zm13.567-.011c-.849 0-1.604-.146-2.267-.437-.659-.296-1.18-.701-1.563-1.216a3.068 3.068 0 0 1-.585-1.796h2.477c.016.284.108.534.279.75.174.212.405.377.693.495.288.117.612.176.972.176.375 0 .706-.067.994-.199.288-.133.513-.316.676-.551a1.39 1.39 0 0 0 .244-.813c0-.31-.087-.585-.261-.824a1.669 1.669 0 0 0-.739-.568c-.318-.136-.697-.204-1.136-.204h-1.085v-1.807h1.085c.371 0 .699-.065.983-.193.288-.129.511-.307.67-.534.16-.232.239-.5.239-.807 0-.292-.07-.548-.21-.767a1.39 1.39 0 0 0-.58-.523 1.882 1.882 0 0 0-.863-.188c-.334 0-.639.061-.915.182a1.602 1.602 0 0 0-.665.506c-.167.22-.256.477-.267.773h-2.358a3.028 3.028 0 0 1 .574-1.773c.371-.511.871-.911 1.5-1.199.633-.292 1.347-.437 2.142-.437.803 0 1.506.145 2.108.437.602.292 1.07.686 1.403 1.182.338.492.504 1.045.5 1.659.004.651-.198 1.195-.608 1.631-.405.435-.933.712-1.585.829v.091c.856.11 1.508.407 1.955.892.451.481.674 1.083.67 1.807a2.833 2.833 0 0 1-.574 1.767c-.382.515-.911.92-1.585 1.216-.674.295-1.447.443-2.318.443Zm7.355-.011c-.375 0-.697-.133-.966-.398a1.328 1.328 0 0 1-.398-.966c0-.371.133-.689.398-.954.269-.266.591-.398.966-.398.364 0 .682.132.955.398.272.265.409.583.409.954 0 .25-.065.479-.193.688-.125.204-.29.369-.495.494-.204.121-.43.182-.676.182Zm7.328.022c-.898 0-1.67-.181-2.318-.545a3.734 3.734 0 0 1-1.489-1.557c-.348-.674-.522-1.471-.522-2.392 0-.898.174-1.685.522-2.364a3.866 3.866 0 0 1 1.472-1.585c.636-.379 1.383-.568 2.239-.568.575 0 1.111.093 1.608.279.5.181.935.456 1.306.823.375.368.667.83.875 1.387.209.553.313 1.2.313 1.943v.665h-7.369v-1.5h5.09c0-.349-.075-.658-.227-.926a1.622 1.622 0 0 0-.631-.631 1.799 1.799 0 0 0-.926-.233c-.367 0-.693.085-.977.256-.28.166-.5.392-.659.676-.159.28-.241.593-.244.937v1.426c0 .432.079.805.238 1.12.163.314.392.557.688.727.295.17.646.256 1.051.256.269 0 .515-.038.739-.114a1.53 1.53 0 0 0 .573-.341c.16-.151.281-.337.364-.557l2.239.148a3.06 3.06 0 0 1-.699 1.409c-.349.398-.799.708-1.352.932-.55.22-1.184.329-1.904.329Zm7.452-8.897 1.602 3.051 1.642-3.051h2.483l-2.528 4.363L180.19 214h-2.471l-1.722-3.017-1.693 3.017h-2.5l2.591-4.364-2.5-4.363h2.5Zm11.807 0v1.818h-5.256v-1.818h5.256Zm-4.063-2.091h2.421v8.136c0 .224.034.398.102.523a.569.569 0 0 0 .284.256c.125.049.269.073.432.073.113 0 .227-.009.341-.028l.261-.051.381 1.801a7.07 7.07 0 0 1-.512.131 4.065 4.065 0 0 1-.801.096c-.583.023-1.094-.055-1.534-.233a2.145 2.145 0 0 1-1.017-.829c-.242-.375-.362-.849-.358-1.421v-8.454Zm9.523 10.988c-.898 0-1.671-.181-2.318-.545a3.734 3.734 0 0 1-1.489-1.557c-.348-.674-.523-1.471-.523-2.392 0-.898.175-1.685.523-2.364a3.866 3.866 0 0 1 1.472-1.585c.636-.379 1.382-.568 2.238-.568.576 0 1.112.093 1.608.279.5.181.936.456 1.307.823.375.368.667.83.875 1.387.208.553.313 1.2.313 1.943v.665h-7.37v-1.5h5.091c0-.349-.076-.658-.227-.926a1.629 1.629 0 0 0-.631-.631 1.802 1.802 0 0 0-.926-.233c-.367 0-.693.085-.977.256-.28.166-.5.392-.659.676-.159.28-.241.593-.245.937v1.426c0 .432.08.805.239 1.12.163.314.392.557.688.727.295.17.645.256 1.051.256.269 0 .515-.038.738-.114a1.474 1.474 0 0 0 .938-.898l2.238.148a3.049 3.049 0 0 1-.698 1.409c-.349.398-.8.708-1.353.932-.549.22-1.183.329-1.903.329Zm8.006-5.215V214h-2.421v-8.727h2.307v1.539h.102c.193-.507.517-.909.972-1.204.454-.299 1.006-.449 1.653-.449.606 0 1.135.133 1.585.398.451.265.802.644 1.052 1.136.25.489.375 1.072.375 1.75V214h-2.421v-5.125c.004-.534-.132-.951-.409-1.25-.276-.303-.657-.455-1.142-.455-.326 0-.614.071-.864.211-.246.14-.439.344-.579.613-.137.265-.207.586-.21.961Zm14.794-1.194-2.216.137a1.15 1.15 0 0 0-.245-.512 1.296 1.296 0 0 0-.494-.369 1.674 1.674 0 0 0-.721-.142c-.375 0-.692.08-.949.239-.258.155-.387.363-.387.625 0 .208.084.384.25.528.167.144.453.26.858.347l1.58.318c.848.174 1.481.454 1.898.841.416.386.625.894.625 1.522a2.38 2.38 0 0 1-.506 1.506c-.334.432-.792.769-1.375 1.011-.58.239-1.248.358-2.006.358-1.155 0-2.076-.24-2.761-.721a2.81 2.81 0 0 1-1.199-1.977l2.381-.125c.072.352.246.621.522.806.277.182.631.273 1.063.273.424 0 .765-.081 1.023-.244.261-.167.393-.381.397-.642a.667.667 0 0 0-.278-.54c-.182-.144-.462-.254-.841-.33l-1.511-.301c-.853-.17-1.487-.466-1.904-.886-.413-.421-.619-.956-.619-1.608 0-.561.151-1.044.454-1.449.307-.405.737-.718 1.29-.937.557-.22 1.209-.33 1.955-.33 1.102 0 1.969.233 2.602.699.636.466 1.008 1.1 1.114 1.903Zm1.723 6.239v-8.727h2.42V214h-2.42Zm1.216-9.852c-.36 0-.669-.12-.927-.358a1.164 1.164 0 0 1-.38-.87c0-.333.127-.619.38-.858.258-.242.567-.363.927-.363.359 0 .666.121.92.363.258.239.386.525.386.858 0 .338-.128.627-.386.87a1.299 1.299 0 0 1-.92.358Zm7.086 10.022c-.882 0-1.646-.187-2.29-.562a3.852 3.852 0 0 1-1.483-1.58c-.348-.678-.522-1.464-.522-2.358 0-.901.174-1.689.522-2.363a3.81 3.81 0 0 1 1.483-1.58c.644-.379 1.408-.568 2.29-.568.883 0 1.644.189 2.284.568.644.375 1.14.902 1.489 1.58.348.674.523 1.462.523 2.363 0 .894-.175 1.68-.523 2.358a3.84 3.84 0 0 1-1.489 1.58c-.64.375-1.401.562-2.284.562Zm.012-1.875c.401 0 .736-.113 1.005-.34.269-.232.472-.546.608-.944.14-.397.21-.85.21-1.358 0-.507-.07-.96-.21-1.358-.136-.397-.339-.712-.608-.943-.269-.231-.604-.346-1.005-.346-.406 0-.747.115-1.023.346-.273.231-.479.546-.619.943a4.163 4.163 0 0 0-.205 1.358c0 .508.068.961.205 1.358.14.398.346.712.619.944.276.227.617.34 1.023.34Zm8.278-3.34V214h-2.42v-8.727h2.306v1.539h.103c.193-.507.517-.909.971-1.204.455-.299 1.006-.449 1.654-.449.606 0 1.134.133 1.585.398.451.265.801.644 1.051 1.136.25.489.375 1.072.375 1.75V214h-2.42v-5.125c.003-.534-.133-.951-.41-1.25-.276-.303-.657-.455-1.142-.455-.325 0-.613.071-.863.211-.246.14-.44.344-.58.613-.136.265-.206.586-.21.961Z" fill="#0F71BB"/><path d="M40 217.182h199.339v1.091H40v-1.091Z" fill="#0F71BB"/><path d="M268 215.875a7.872 7.872 0 0 1-5.568-2.307 7.872 7.872 0 0 1 0-11.136 7.872 7.872 0 0 1 11.136 0 7.872 7.872 0 0 1 0 11.136 7.872 7.872 0 0 1-5.568 2.307Zm0 1.125a9 9 0 1 0 0-18 9 9 0 0 0 0 18Z" fill="#D7260F"/><path d="M264.227 204.227a.563.563 0 0 1 .614-.123c.068.029.13.07.182.123l2.977 2.978 2.977-2.978a.555.555 0 0 1 .614-.122c.068.028.13.069.182.122a.555.555 0 0 1 .122.614.545.545 0 0 1-.122.182L268.795 208l2.978 2.977a.555.555 0 0 1 .122.613.539.539 0 0 1-.122.183.555.555 0 0 1-.614.122.545.545 0 0 1-.182-.122L268 208.795l-2.977 2.978a.555.555 0 0 1-.614.122.545.545 0 0 1-.182-.122.539.539 0 0 1-.122-.183.547.547 0 0 1 0-.431.545.545 0 0 1 .122-.182l2.978-2.977-2.978-2.977a.563.563 0 0 1-.123-.614.563.563 0 0 1 .123-.182Z" fill="#D7260F"/><path fill="#E8178A" fill-opacity=".24" d="M0 48h171v16H0zm0 48h277v16H0zm0 48h277v8H0zm0 40h277v8H0z"/><path d="M187.5 48v16" stroke="#E8178A"/><rect x="192" y="48.5" width="36" height="18" rx="3" fill="#E8178A"/><path d="M201.754 54.227V61.5h-1.538v-5.813h-.043l-1.665 1.044v-1.364l1.8-1.14h1.446Zm4.519 7.372a3.285 3.285 0 0 1-1.083-.188 2.464 2.464 0 0 1-.93-.6c-.275-.277-.493-.644-.654-1.1-.158-.458-.238-1.019-.238-1.684.003-.61.073-1.157.21-1.637a3.66 3.66 0 0 1 .597-1.229c.26-.336.571-.592.933-.767a2.736 2.736 0 0 1 1.219-.266c.485 0 .913.094 1.285.284.372.187.67.441.895.763.227.322.365.683.412 1.084h-1.516a1.018 1.018 0 0 0-.373-.597 1.127 1.127 0 0 0-.703-.217c-.474 0-.834.206-1.08.618-.244.412-.368.972-.373 1.68h.05a1.7 1.7 0 0 1 .44-.55c.187-.154.399-.272.636-.352a2.29 2.29 0 0 1 .756-.124 2.162 2.162 0 0 1 1.946 1.136c.194.353.291.756.291 1.21 0 .493-.114.931-.344 1.315a2.389 2.389 0 0 1-.955.902c-.407.215-.881.322-1.421.32Zm-.007-1.207a1.2 1.2 0 0 0 1.076-.632 1.33 1.33 0 0 0 .16-.654 1.31 1.31 0 0 0-.16-.65 1.18 1.18 0 0 0-1.065-.629 1.22 1.22 0 0 0-.494.1 1.244 1.244 0 0 0-.657.69 1.272 1.272 0 0 0-.096.493 1.277 1.277 0 0 0 .601 1.108c.187.116.398.174.635.174Zm3.832 3.153v-7.5h1.491v.917h.068c.066-.147.162-.296.287-.448.128-.154.294-.282.498-.383.206-.105.461-.157.767-.157.397 0 .764.105 1.1.313.337.206.605.517.807.934.201.414.301.934.301 1.559 0 .608-.098 1.122-.294 1.541-.194.417-.46.733-.796.948-.334.213-.708.32-1.122.32a1.75 1.75 0 0 1-.749-.146 1.545 1.545 0 0 1-.501-.366c-.13-.149-.23-.3-.298-.45h-.046v2.918h-1.513Zm1.481-4.772c0 .324.045.607.135.848.09.242.22.43.39.565a.984.984 0 0 0 .622.199.977.977 0 0 0 .625-.203c.17-.137.299-.326.387-.568.09-.243.135-.524.135-.841a2.4 2.4 0 0 0-.132-.831 1.229 1.229 0 0 0-.387-.561.98.98 0 0 0-.628-.203.997.997 0 0 0-.625.196 1.22 1.22 0 0 0-.387.554c-.09.239-.135.52-.135.845Zm5.916-2.728 1.001 1.907 1.027-1.907h1.551l-1.58 2.728 1.623 2.727h-1.545l-1.076-1.886-1.058 1.886h-1.562l1.619-2.727-1.563-2.728h1.563Z" fill="#fff"/><path stroke="#E8178A" d="M184 48.5h7m-7 15h7M293.5 96v16"/><rect x="298" y="96.5" width="36" height="18" rx="3" fill="#E8178A"/><path d="M307.754 102.227v7.273h-1.538v-5.813h-.043l-1.665 1.044v-1.364l1.8-1.14h1.446Zm4.519 7.372a3.28 3.28 0 0 1-1.083-.188 2.463 2.463 0 0 1-.93-.6c-.275-.277-.493-.644-.654-1.101-.158-.457-.238-1.018-.238-1.683a6.088 6.088 0 0 1 .21-1.637c.14-.483.338-.893.597-1.229.26-.336.571-.592.933-.767a2.744 2.744 0 0 1 1.219-.266c.485 0 .913.095 1.285.284.372.187.67.441.895.763.227.322.365.683.412 1.084h-1.516a1.016 1.016 0 0 0-.373-.597 1.13 1.13 0 0 0-.703-.217c-.474 0-.834.206-1.08.618-.244.412-.368.972-.373 1.68h.05a1.7 1.7 0 0 1 .44-.551c.187-.153.399-.271.636-.351.239-.083.491-.124.756-.124a2.162 2.162 0 0 1 1.946 1.136c.194.353.291.756.291 1.211 0 .492-.114.93-.344 1.314a2.394 2.394 0 0 1-.955.902c-.407.215-.881.322-1.421.319Zm-.007-1.207c.237 0 .449-.057.636-.17.187-.114.334-.268.44-.462a1.33 1.33 0 0 0 .16-.653c0-.242-.053-.459-.16-.65a1.192 1.192 0 0 0-1.065-.629 1.208 1.208 0 0 0-.888.377 1.332 1.332 0 0 0-.199 1.548c.109.194.256.349.441.465.187.116.398.174.635.174Zm3.832 3.153v-7.5h1.491v.917h.068c.066-.147.162-.296.287-.448.128-.154.294-.282.498-.383.206-.104.461-.157.767-.157.397 0 .764.105 1.1.313.337.206.605.517.807.934.201.414.301.934.301 1.559 0 .608-.098 1.122-.294 1.541-.194.417-.46.733-.796.948-.334.213-.708.32-1.122.32-.293 0-.543-.049-.749-.146a1.54 1.54 0 0 1-.501-.366 1.831 1.831 0 0 1-.298-.451h-.046v2.919h-1.513Zm1.481-4.772c0 .324.045.607.135.848.09.242.22.43.39.565a.982.982 0 0 0 .622.199.982.982 0 0 0 .625-.202c.17-.138.299-.327.387-.569.09-.243.135-.524.135-.841a2.4 2.4 0 0 0-.132-.831 1.23 1.23 0 0 0-.387-.561.98.98 0 0 0-.628-.203.992.992 0 0 0-.625.196 1.22 1.22 0 0 0-.387.554c-.09.239-.135.52-.135.845Zm5.916-2.728 1.001 1.907 1.027-1.907h1.551l-1.58 2.728 1.623 2.727h-1.545l-1.076-1.886-1.058 1.886h-1.562l1.619-2.727-1.563-2.728h1.563Z" fill="#fff"/><path stroke="#E8178A" d="M290 96.5h7m-7 15h7m-3.5 72.5v8"/><rect x="298" y="180.5" width="31" height="18" rx="3" fill="#E8178A"/><path d="M307.303 193.599c-.547 0-1.034-.088-1.46-.266-.424-.18-.756-.425-.998-.735a1.675 1.675 0 0 1-.362-1.055c0-.303.069-.581.206-.834.14-.256.329-.468.568-.636.239-.17.507-.279.803-.327v-.049a1.579 1.579 0 0 1-.945-.565 1.627 1.627 0 0 1-.362-1.047c0-.377.11-.712.33-1.005.22-.296.522-.528.906-.696a3.21 3.21 0 0 1 1.314-.256c.49 0 .926.085 1.31.256.386.17.689.403.909.699.22.294.331.627.334 1.002-.003.4-.126.749-.369 1.047a1.59 1.59 0 0 1-.938.565v.049c.291.048.555.157.792.327.239.168.428.38.568.636a1.71 1.71 0 0 1-.149 1.889c-.242.31-.575.555-1.001.735-.424.178-.91.266-1.456.266Zm0-1.129c.243 0 .456-.044.639-.131.182-.09.324-.213.426-.37a.97.97 0 0 0 .156-.546.984.984 0 0 0-.16-.558 1.095 1.095 0 0 0-.433-.383 1.34 1.34 0 0 0-.628-.143c-.235 0-.444.048-.629.143-.185.092-.33.22-.437.383a1.006 1.006 0 0 0-.156.558c0 .206.051.388.153.546.101.157.245.28.429.37.185.087.398.131.64.131Zm0-3.249c.203 0 .384-.042.543-.124a.941.941 0 0 0 .373-.345.952.952 0 0 0 .135-.508.91.91 0 0 0-.505-.834 1.146 1.146 0 0 0-.546-.124 1.16 1.16 0 0 0-.547.124.916.916 0 0 0-.373.337.925.925 0 0 0-.132.497c0 .192.045.361.135.508.09.147.215.262.373.345.159.082.34.124.544.124Zm3.912 6.324v-7.5h1.491v.917h.068c.066-.147.162-.296.288-.448a1.49 1.49 0 0 1 .497-.383c.206-.104.461-.157.767-.157.398 0 .764.105 1.101.313.336.206.605.517.806.934.201.414.302.934.302 1.559 0 .608-.099 1.122-.295 1.541-.194.417-.459.733-.796.948-.333.213-.707.32-1.122.32-.293 0-.543-.049-.749-.146a1.54 1.54 0 0 1-.501-.366 1.86 1.86 0 0 1-.298-.451h-.046v2.919h-1.513Zm1.481-4.772c0 .324.045.607.135.848.09.242.22.43.39.565a.982.982 0 0 0 .622.199.982.982 0 0 0 .625-.202c.17-.138.299-.327.387-.569.09-.243.135-.524.135-.841a2.4 2.4 0 0 0-.132-.831 1.23 1.23 0 0 0-.387-.561.98.98 0 0 0-.628-.203.994.994 0 0 0-.625.196 1.22 1.22 0 0 0-.387.554c-.09.239-.135.52-.135.845Zm5.916-2.728 1.001 1.907 1.027-1.907h1.552l-1.581 2.728 1.623 2.727h-1.545l-1.076-1.886-1.058 1.886h-1.562l1.619-2.727-1.562-2.728h1.562Z" fill="#fff"/><path stroke="#E8178A" d="M290 184.5h7m-7 7h7m-3.5-47.5v8"/><rect x="298" y="140.5" width="31" height="18" rx="3" fill="#E8178A"/><path d="M307.303 153.599c-.547 0-1.034-.088-1.46-.266-.424-.18-.756-.425-.998-.735a1.675 1.675 0 0 1-.362-1.055c0-.303.069-.581.206-.834.14-.256.329-.468.568-.636.239-.17.507-.279.803-.327v-.049a1.579 1.579 0 0 1-.945-.565 1.627 1.627 0 0 1-.362-1.047c0-.377.11-.712.33-1.005.22-.296.522-.528.906-.696a3.21 3.21 0 0 1 1.314-.256c.49 0 .926.085 1.31.256.386.17.689.403.909.699.22.294.331.627.334 1.002-.003.4-.126.749-.369 1.047a1.59 1.59 0 0 1-.938.565v.049c.291.048.555.157.792.327.239.168.428.38.568.636a1.71 1.71 0 0 1-.149 1.889c-.242.31-.575.555-1.001.735-.424.178-.91.266-1.456.266Zm0-1.129c.243 0 .456-.044.639-.131.182-.09.324-.213.426-.37a.97.97 0 0 0 .156-.546.984.984 0 0 0-.16-.558 1.095 1.095 0 0 0-.433-.383 1.34 1.34 0 0 0-.628-.143c-.235 0-.444.048-.629.143-.185.092-.33.22-.437.383a1.006 1.006 0 0 0-.156.558c0 .206.051.388.153.546.101.157.245.28.429.37.185.087.398.131.64.131Zm0-3.249c.203 0 .384-.042.543-.124a.941.941 0 0 0 .373-.345.952.952 0 0 0 .135-.508.91.91 0 0 0-.505-.834 1.146 1.146 0 0 0-.546-.124 1.16 1.16 0 0 0-.547.124.916.916 0 0 0-.373.337.925.925 0 0 0-.132.497c0 .192.045.361.135.508.09.147.215.262.373.345.159.082.34.124.544.124Zm3.912 6.324v-7.5h1.491v.917h.068c.066-.147.162-.296.288-.448a1.49 1.49 0 0 1 .497-.383c.206-.104.461-.157.767-.157.398 0 .764.105 1.101.313.336.206.605.517.806.934.201.414.302.934.302 1.559 0 .608-.099 1.122-.295 1.541-.194.417-.459.733-.796.948-.333.213-.707.32-1.122.32-.293 0-.543-.049-.749-.146a1.54 1.54 0 0 1-.501-.366 1.86 1.86 0 0 1-.298-.451h-.046v2.919h-1.513Zm1.481-4.772c0 .324.045.607.135.848.09.242.22.43.39.565a.982.982 0 0 0 .622.199.982.982 0 0 0 .625-.202c.17-.138.299-.327.387-.569.09-.243.135-.524.135-.841a2.4 2.4 0 0 0-.132-.831 1.23 1.23 0 0 0-.387-.561.98.98 0 0 0-.628-.203.994.994 0 0 0-.625.196 1.22 1.22 0 0 0-.387.554c-.09.239-.135.52-.135.845Zm5.916-2.728 1.001 1.907 1.027-1.907h1.552l-1.581 2.728 1.623 2.727h-1.545l-1.076-1.886-1.058 1.886h-1.562l1.619-2.727-1.562-2.728h1.562Z" fill="#fff"/><path stroke="#E8178A" d="M290 144.5h7m-7 7h7"/></svg>