<svg width="326" height="65" viewBox="0 0 326 65" fill="none" xmlns="http://www.w3.org/2000/svg"><path fill="#E8178A" fill-opacity=".24" d="M48 4h16v28H48z"/><path d="M48 42.5h16" stroke="#E8178A"/><rect x="38" y="47" width="36" height="18" rx="3" fill="#E8178A"/><path d="M47.754 52.727V60h-1.538v-5.813h-.043l-1.665 1.044v-1.364l1.8-1.14h1.446Zm4.52 7.372a3.285 3.285 0 0 1-1.084-.188 2.465 2.465 0 0 1-.93-.6c-.275-.277-.493-.644-.654-1.1-.158-.458-.238-1.019-.238-1.684.003-.61.073-1.157.21-1.637.14-.483.338-.893.596-1.229.261-.336.572-.592.934-.767a2.73 2.73 0 0 1 1.219-.266c.485 0 .913.094 1.285.284.372.187.67.441.895.763.227.322.364.683.412 1.084h-1.516a1.013 1.013 0 0 0-.373-.597 1.126 1.126 0 0 0-.703-.217c-.474 0-.834.206-1.08.618-.244.412-.368.972-.373 1.68h.05a1.69 1.69 0 0 1 .44-.55c.187-.154.4-.272.636-.352.239-.083.491-.124.756-.124a2.168 2.168 0 0 1 1.946 1.136c.194.353.291.756.291 1.21 0 .493-.114.931-.344 1.315a2.388 2.388 0 0 1-.955.902c-.408.215-.881.322-1.42.32Zm-.008-1.207a1.2 1.2 0 0 0 1.076-.632c.107-.194.16-.412.16-.654 0-.24-.053-.458-.16-.65a1.18 1.18 0 0 0-1.065-.629 1.242 1.242 0 0 0-.494.1 1.24 1.24 0 0 0-.657.69 1.274 1.274 0 0 0-.096.493 1.277 1.277 0 0 0 .6 1.108c.188.116.4.174.636.174Zm3.832 3.153v-7.5h1.491v.917h.068c.066-.147.162-.296.287-.448.128-.154.294-.282.498-.383.206-.105.461-.157.767-.157.397 0 .764.105 1.1.313.337.206.605.517.807.934.2.414.301.934.301 1.559 0 .608-.098 1.122-.294 1.541-.194.417-.46.733-.796.948-.334.213-.708.32-1.122.32-.294 0-.543-.049-.75-.146a1.55 1.55 0 0 1-.5-.366c-.13-.149-.23-.3-.298-.45h-.046v2.918h-1.513Zm1.48-4.772c0 .324.046.607.136.848.09.242.22.43.39.565a.98.98 0 0 0 .622.199.975.975 0 0 0 .625-.203c.17-.137.3-.326.387-.568.09-.243.135-.524.135-.841a2.41 2.41 0 0 0-.132-.831 1.237 1.237 0 0 0-.387-.561.98.98 0 0 0-.628-.203 1 1 0 0 0-.625.196 1.22 1.22 0 0 0-.387.554c-.09.239-.135.52-.135.845Zm5.917-2.728 1.001 1.907 1.026-1.907h1.552l-1.58 2.728L67.117 60h-1.545l-1.076-1.886L63.438 60h-1.563l1.62-2.727-1.563-2.728h1.563Z" fill="#fff"/><path stroke="#E8178A" d="M48.5 46v-7m15 7v-7"/><path d="M1.41 22V10.364h1.408v5.181h6.205v-5.181h1.409V22h-1.41v-5.204H2.819V22H1.41Zm21.661-5.818c0 1.227-.222 2.288-.665 3.182-.443.894-1.05 1.583-1.824 2.068-.772.485-1.655.727-2.647.727-.993 0-1.875-.242-2.648-.727-.773-.485-1.38-1.174-1.824-2.068-.443-.894-.665-1.955-.665-3.182 0-1.227.222-2.288.665-3.182.443-.894 1.051-1.583 1.824-2.068.773-.485 1.655-.728 2.648-.728.992 0 1.875.243 2.647.728.773.485 1.381 1.174 1.824 2.068.443.894.665 1.954.665 3.182Zm-1.364 0c0-1.008-.168-1.858-.505-2.551-.334-.694-.786-1.218-1.358-1.574a3.522 3.522 0 0 0-1.91-.534 3.55 3.55 0 0 0-1.914.534c-.568.356-1.02.88-1.358 1.574-.333.693-.5 1.543-.5 2.55 0 1.008.167 1.859.5 2.552.337.693.79 1.218 1.358 1.574a3.55 3.55 0 0 0 1.915.534c.704 0 1.34-.178 1.909-.534.572-.356 1.024-.88 1.358-1.574.337-.693.505-1.544.505-2.551Zm3.733-5.818h1.682l3.955 9.659h.136l3.955-9.66h1.681V22h-1.318v-8.84h-.113L31.78 22h-1.27l-3.637-8.84h-.113V22h-1.32V10.364ZM39.675 22V10.364h7.022v1.25h-5.613v3.931h5.25v1.25h-5.25v3.955h5.704V22h-7.113ZM0 25.182h47.834v1.09H0v-1.09Z" fill="#0F71BB"/><path d="M69.34 9.818 65.59 23.75h-1.226l3.75-13.932h1.227Z" fill="#344054"/><path d="M93.773 13.273a1.784 1.784 0 0 0-.83-1.341c-.485-.318-1.08-.478-1.784-.478-.515 0-.966.084-1.352.25a2.16 2.16 0 0 0-.898.688 1.648 1.648 0 0 0-.318.994c0 .311.074.578.222.802.151.22.344.403.579.55a4.1 4.1 0 0 0 .739.359c.257.09.494.164.71.221l1.182.318c.303.08.64.19 1.011.33.375.14.733.331 1.074.574.345.238.629.545.852.92.224.375.336.835.336 1.38 0 .63-.165 1.198-.495 1.706-.326.507-.803.91-1.432 1.21-.625.299-1.384.448-2.278.448-.833 0-1.555-.134-2.165-.403-.606-.269-1.083-.644-1.432-1.125A3.209 3.209 0 0 1 86.91 19h1.455c.037.44.185.803.443 1.09a2.4 2.4 0 0 0 .989.637c.401.137.833.205 1.295.205.538 0 1.02-.087 1.449-.261.428-.179.767-.425 1.017-.74.25-.317.375-.689.375-1.113 0-.386-.108-.7-.324-.943-.216-.242-.5-.44-.852-.59a8.954 8.954 0 0 0-1.142-.399l-1.432-.409c-.91-.261-1.629-.634-2.16-1.119-.53-.485-.795-1.12-.795-1.904 0-.651.176-1.22.529-1.704a3.51 3.51 0 0 1 1.431-1.136c.603-.273 1.275-.41 2.017-.41.75 0 1.417.135 2 .404.584.265 1.046.629 1.387 1.09.345.463.526.988.545 1.575h-1.363Zm3.203-1.66v-1.25h8.727v1.25h-3.659V22h-1.409V11.614h-3.66ZM107.878 22V10.364h7.023v1.25h-5.614v3.931h5.25v1.25h-5.25v3.955h5.704V22h-7.113Zm9.562 0V10.364h3.932c.913 0 1.659.164 2.239.494.583.326 1.015.767 1.295 1.324.281.557.421 1.178.421 1.864 0 .685-.14 1.308-.421 1.869-.276.56-.704 1.007-1.284 1.34-.579.33-1.322.495-2.227.495h-2.818V16.5h2.772c.625 0 1.127-.108 1.506-.324.379-.216.654-.507.824-.875.174-.371.261-.79.261-1.255 0-.466-.087-.883-.261-1.25a1.862 1.862 0 0 0-.83-.864c-.382-.212-.89-.318-1.522-.318h-2.478V22h-1.409Zm18.543-11.636V22h-1.409V11.84h-.068l-2.841 1.887v-1.431l2.909-1.932h1.409ZM86 25.182h52.119v1.09H86v-1.09Z" fill="#0F71BB"/><path d="m160.341 9.818-3.75 13.932h-1.227l3.75-13.932h1.227Z" fill="#344054"/><path d="M184.773 13.273a1.783 1.783 0 0 0-.83-1.341c-.485-.318-1.079-.478-1.784-.478-.515 0-.966.084-1.352.25a2.16 2.16 0 0 0-.898.688 1.649 1.649 0 0 0-.318.994c0 .311.074.578.221.802.152.22.345.403.58.55a4.1 4.1 0 0 0 .739.359c.257.09.494.164.71.221l1.182.318c.303.08.64.19 1.011.33.375.14.733.331 1.074.574.345.238.629.545.852.92.224.375.335.835.335 1.38a3.06 3.06 0 0 1-.494 1.706c-.326.507-.803.91-1.432 1.21-.625.299-1.384.448-2.278.448-.833 0-1.555-.134-2.165-.403-.606-.269-1.083-.644-1.432-1.125a3.22 3.22 0 0 1-.585-1.676h1.455c.038.44.185.803.443 1.09a2.4 2.4 0 0 0 .988.637 4.01 4.01 0 0 0 1.296.205c.538 0 1.021-.087 1.449-.261.428-.179.767-.425 1.017-.74.25-.317.375-.689.375-1.113 0-.386-.108-.7-.324-.943-.216-.242-.5-.44-.852-.59a8.996 8.996 0 0 0-1.142-.399l-1.432-.409c-.909-.261-1.629-.634-2.159-1.119-.531-.485-.796-1.12-.796-1.904 0-.651.176-1.22.529-1.704a3.507 3.507 0 0 1 1.432-1.136c.602-.273 1.274-.41 2.017-.41.75 0 1.416.135 2 .404.583.265 1.045.629 1.386 1.09.345.463.526.988.545 1.575h-1.363Zm3.203-1.66v-1.25h8.727v1.25h-3.659V22h-1.409V11.614h-3.659ZM198.878 22V10.364h7.023v1.25h-5.614v3.931h5.25v1.25h-5.25v3.955h5.704V22h-7.113Zm9.562 0V10.364h3.932c.913 0 1.659.164 2.239.494.583.326 1.015.767 1.295 1.324.281.557.421 1.178.421 1.864 0 .685-.14 1.308-.421 1.869-.276.56-.704 1.007-1.284 1.34-.579.33-1.322.495-2.227.495h-2.818V16.5h2.772c.625 0 1.127-.108 1.506-.324.379-.216.654-.507.824-.875.174-.371.261-.79.261-1.255 0-.466-.087-.883-.261-1.25a1.862 1.862 0 0 0-.83-.864c-.382-.212-.89-.318-1.522-.318h-2.478V22h-1.409Zm14.452 0v-1.023l3.841-4.204c.451-.493.822-.92 1.114-1.284.291-.368.507-.713.647-1.035.144-.325.216-.666.216-1.022 0-.41-.098-.763-.295-1.063a1.92 1.92 0 0 0-.796-.693 2.58 2.58 0 0 0-1.136-.244c-.447 0-.837.093-1.171.278a1.92 1.92 0 0 0-.767.767c-.178.33-.267.716-.267 1.16h-1.34c0-.683.157-1.28.471-1.796a3.278 3.278 0 0 1 1.284-1.205 3.871 3.871 0 0 1 1.835-.431c.682 0 1.286.143 1.813.431.526.288.939.677 1.239 1.165.299.489.448 1.032.448 1.63 0 .429-.077.847-.233 1.257-.151.405-.416.857-.795 1.357-.375.497-.896 1.103-1.562 1.819l-2.614 2.795v.091h5.409V22h-7.341ZM177 25.182h54.369v1.09H177v-1.09Z" fill="#0F71BB"/><path d="m253.341 9.818-3.75 13.932h-1.227l3.75-13.932h1.227Zm23.983 3.892c-.046-.458-.241-.814-.585-1.068-.345-.254-.813-.38-1.404-.38-.401 0-.74.056-1.017.17-.276.11-.488.263-.636.46-.144.197-.216.42-.216.67a.952.952 0 0 0 .131.546c.098.155.233.29.403.403.17.11.367.207.591.29.223.08.462.148.716.205l1.045.25c.508.113.974.265 1.398.454.424.19.792.423 1.102.7.311.276.551.601.722.976.174.375.263.805.267 1.29-.004.712-.186 1.33-.546 1.852-.356.52-.871.923-1.545 1.21-.67.285-1.479.427-2.426.427-.94 0-1.758-.144-2.455-.432-.693-.288-1.235-.714-1.625-1.279-.386-.568-.589-1.27-.608-2.107h2.381c.027.39.138.715.335.977.201.257.468.452.801.585a3.18 3.18 0 0 0 1.142.193c.417 0 .779-.06 1.086-.181.31-.122.551-.29.721-.506.171-.216.256-.464.256-.744a.968.968 0 0 0-.233-.66c-.152-.178-.375-.33-.67-.454a6.842 6.842 0 0 0-1.074-.341l-1.267-.318c-.981-.239-1.756-.612-2.324-1.12-.568-.507-.851-1.19-.847-2.05-.004-.705.184-1.32.563-1.847.382-.527.907-.938 1.574-1.233.666-.296 1.424-.444 2.272-.444.864 0 1.618.148 2.262.444.647.295 1.151.706 1.511 1.233.36.526.545 1.136.557 1.83h-2.358Zm3.729-1.318v-2.028h9.556v2.028h-3.562V22h-2.432v-9.608h-3.562ZM292.183 22V10.364h7.841v2.028h-5.381v2.773h4.978v2.028h-4.978v2.779h5.404V22h-7.864Zm9.797 0V10.364h4.591c.883 0 1.634.168 2.256.505a3.426 3.426 0 0 1 1.42 1.392c.33.591.494 1.273.494 2.046 0 .772-.166 1.454-.5 2.045a3.448 3.448 0 0 1-1.448 1.381c-.629.33-1.391.494-2.284.494h-2.927v-1.971h2.529c.473 0 .863-.082 1.17-.245.311-.166.542-.395.693-.687.156-.296.233-.635.233-1.017a2.09 2.09 0 0 0-.233-1.011 1.55 1.55 0 0 0-.693-.677c-.31-.163-.704-.244-1.182-.244h-1.659V22h-2.46Zm18.296.16c-.849 0-1.605-.147-2.267-.438-.66-.296-1.18-.701-1.563-1.216a3.052 3.052 0 0 1-.585-1.796h2.477c.015.284.108.534.278.75.175.212.406.377.694.494.288.118.611.177.971.177.375 0 .707-.067.995-.2.287-.132.513-.316.676-.55a1.39 1.39 0 0 0 .244-.813c0-.31-.087-.585-.261-.824a1.675 1.675 0 0 0-.739-.568c-.318-.136-.697-.204-1.136-.204h-1.086v-1.807h1.086c.371 0 .699-.065.983-.193a1.6 1.6 0 0 0 .67-.534c.159-.232.239-.5.239-.807 0-.292-.07-.548-.211-.767a1.385 1.385 0 0 0-.579-.523 1.884 1.884 0 0 0-.864-.188c-.333 0-.638.061-.914.182a1.593 1.593 0 0 0-.665.506c-.167.22-.256.477-.267.773h-2.358c.011-.67.202-1.262.574-1.773.371-.511.871-.911 1.5-1.199.632-.292 1.346-.438 2.142-.438.803 0 1.505.146 2.108.438.602.292 1.07.686 1.403 1.182.337.492.504 1.045.5 1.659.004.651-.199 1.195-.608 1.63-.405.436-.934.713-1.585.83v.091c.856.11 1.507.407 1.954.892.451.481.675 1.084.671 1.807a2.84 2.84 0 0 1-.574 1.767c-.383.515-.911.92-1.585 1.216-.674.295-1.447.443-2.318.443Z" fill="#344054"/></svg>