<svg width="13" height="16" viewBox="0 0 13 16" fill="none" xmlns="http://www.w3.org/2000/svg"><mask id="a" style="mask-type:alpha" maskUnits="userSpaceOnUse" x="0" y="0" width="13" height="16"><path d="M.495 14.712.001 1.533a.803.803 0 0 1 .752-.83l11.21-.701a.803.803 0 0 1 .852.8v14.361a.803.803 0 0 1-.839.802l-10.715-.481a.803.803 0 0 1-.766-.772Z" fill="#fff"/></mask><g mask="url(#a)"><path d="M.495 14.712.001 1.533a.803.803 0 0 1 .752-.83l11.21-.701a.803.803 0 0 1 .852.8v14.361a.803.803 0 0 1-.839.802l-10.715-.481a.803.803 0 0 1-.766-.772Z" fill="#FF4785"/><path d="M9.463 1.962 9.54.121 11.08 0l.066 1.9a.12.12 0 0 1-.194.097l-.594-.467-.703.533a.12.12 0 0 1-.192-.1ZM7.494 6.018c0 .312 2.104.162 2.387-.057 0-2.127-1.142-3.244-3.231-3.244-2.09 0-3.26 1.135-3.26 2.837 0 2.965 4 3.022 4 4.64 0 .453-.222.723-.71.723-.638 0-.89-.326-.86-1.432 0-.24-2.43-.315-2.505 0-.189 2.681 1.482 3.455 3.394 3.455 1.853 0 3.305-.987 3.305-2.775 0-3.178-4.06-3.093-4.06-4.668 0-.638.473-.723.755-.723.296 0 .83.052.785 1.244Z" fill="#fff"/></g></svg>