<svg width="453" height="175" viewBox="0 0 453 175" fill="none" xmlns="http://www.w3.org/2000/svg">
<path d="M0 49C0 46.7909 1.79086 45 4 45H449C451.209 45 453 46.7909 453 49V105C453 107.209 451.209 109 449 109H3.99999C1.79086 109 0 107.209 0 105V49Z" fill="#E2EFF8"/>
<path d="M40 87.5C37.2152 87.5 34.5445 86.3938 32.5754 84.4246C30.6062 82.4555 29.5 79.7848 29.5 77C29.5 74.2152 30.6062 71.5445 32.5754 69.5754C34.5445 67.6062 37.2152 66.5 40 66.5C42.7848 66.5 45.4555 67.6062 47.4246 69.5754C49.3938 71.5445 50.5 74.2152 50.5 77C50.5 79.7848 49.3938 82.4555 47.4246 84.4246C45.4555 86.3938 42.7848 87.5 40 87.5ZM40 89C43.1826 89 46.2348 87.7357 48.4853 85.4853C50.7357 83.2348 52 80.1826 52 77C52 73.8174 50.7357 70.7652 48.4853 68.5147C46.2348 66.2643 43.1826 65 40 65C36.8174 65 33.7652 66.2643 31.5147 68.5147C29.2643 70.7652 28 73.8174 28 77C28 80.1826 29.2643 83.2348 31.5147 85.4853C33.7652 87.7357 36.8174 89 40 89Z" fill="#0F71BB"/>
<path d="M38.5029 81.5001C38.5029 81.3032 38.5417 81.1081 38.6171 80.9261C38.6925 80.7441 38.803 80.5788 38.9423 80.4395C39.0816 80.3002 39.2469 80.1897 39.4289 80.1143C39.6109 80.0389 39.8059 80.0001 40.0029 80.0001C40.1999 80.0001 40.395 80.0389 40.577 80.1143C40.7589 80.1897 40.9243 80.3002 41.0636 80.4395C41.2029 80.5788 41.3134 80.7441 41.3888 80.9261C41.4641 81.1081 41.5029 81.3032 41.5029 81.5001C41.5029 81.898 41.3449 82.2795 41.0636 82.5608C40.7823 82.8421 40.4008 83.0001 40.0029 83.0001C39.6051 83.0001 39.2236 82.8421 38.9423 82.5608C38.661 82.2795 38.5029 81.898 38.5029 81.5001ZM38.6499 72.4927C38.63 72.3034 38.65 72.1121 38.7087 71.9311C38.7675 71.7501 38.8636 71.5835 38.9909 71.442C39.1182 71.3006 39.2738 71.1875 39.4476 71.1101C39.6215 71.0327 39.8096 70.9927 39.9999 70.9927C40.1902 70.9927 40.3784 71.0327 40.5522 71.1101C40.726 71.1875 40.8817 71.3006 41.009 71.442C41.1362 71.5835 41.2324 71.7501 41.2911 71.9311C41.3499 72.1121 41.3699 72.3034 41.3499 72.4927L40.8249 77.7531C40.8073 77.9598 40.7127 78.1523 40.56 78.2926C40.4072 78.4329 40.2073 78.5107 39.9999 78.5107C39.7925 78.5107 39.5927 78.4329 39.4399 78.2926C39.2871 78.1523 39.1926 77.9598 39.1749 77.7531L38.6499 72.4927Z" fill="#0F71BB"/>
<path d="M73.8864 83H72.4091L76.6818 71.3636H78.1364L82.4091 83H80.9318L77.4545 73.2045H77.3636L73.8864 83ZM74.4318 78.4545H80.3864V79.7045H74.4318V78.4545ZM94.7216 76.2273L93.517 76.5682C93.4413 76.3674 93.3295 76.1723 93.1818 75.983C93.0379 75.7898 92.8409 75.6307 92.5909 75.5057C92.3409 75.3807 92.0208 75.3182 91.6307 75.3182C91.0966 75.3182 90.6515 75.4413 90.2955 75.6875C89.9432 75.9299 89.767 76.2386 89.767 76.6136C89.767 76.947 89.8883 77.2102 90.1307 77.4034C90.3731 77.5966 90.7519 77.7576 91.267 77.8864L92.5625 78.2045C93.3428 78.3939 93.9242 78.6837 94.3068 79.0739C94.6894 79.4602 94.8807 79.9583 94.8807 80.5682C94.8807 81.0682 94.7367 81.5152 94.4489 81.9091C94.1648 82.303 93.767 82.6136 93.2557 82.8409C92.7443 83.0682 92.1496 83.1818 91.4716 83.1818C90.5814 83.1818 89.8447 82.9886 89.2614 82.6023C88.678 82.2159 88.3087 81.6515 88.1534 80.9091L89.4261 80.5909C89.5473 81.0606 89.7765 81.4129 90.1136 81.6477C90.4545 81.8826 90.8996 82 91.4489 82C92.0739 82 92.5701 81.8674 92.9375 81.6023C93.3087 81.3333 93.4943 81.0114 93.4943 80.6364C93.4943 80.3333 93.3883 80.0795 93.1761 79.875C92.964 79.6667 92.6383 79.5114 92.1989 79.4091L90.7443 79.0682C89.9451 78.8788 89.358 78.5852 88.983 78.1875C88.6117 77.786 88.4261 77.2841 88.4261 76.6818C88.4261 76.1894 88.5644 75.7538 88.8409 75.375C89.1212 74.9962 89.5019 74.6989 89.983 74.483C90.4678 74.267 91.017 74.1591 91.6307 74.1591C92.4943 74.1591 93.1723 74.3485 93.6648 74.7273C94.161 75.1061 94.5133 75.6061 94.7216 76.2273ZM99.4673 83.2045C98.9143 83.2045 98.4124 83.1004 97.9616 82.892C97.5109 82.6799 97.1529 82.375 96.8878 81.9773C96.6226 81.5758 96.4901 81.0909 96.4901 80.5227C96.4901 80.0227 96.5885 79.6174 96.7855 79.3068C96.9825 78.9924 97.2457 78.7462 97.5753 78.5682C97.9048 78.3902 98.2685 78.2576 98.6662 78.1705C99.0677 78.0795 99.4711 78.0076 99.8764 77.9545C100.407 77.8864 100.837 77.8352 101.166 77.8011C101.5 77.7633 101.742 77.7008 101.893 77.6136C102.049 77.5265 102.126 77.375 102.126 77.1591V77.1136C102.126 76.553 101.973 76.1174 101.666 75.8068C101.363 75.4962 100.903 75.3409 100.286 75.3409C99.6454 75.3409 99.1435 75.4811 98.7798 75.7614C98.4162 76.0417 98.1605 76.3409 98.0128 76.6591L96.7401 76.2045C96.9673 75.6742 97.2704 75.2614 97.6491 74.9659C98.0317 74.6667 98.4484 74.4583 98.8991 74.3409C99.3537 74.2197 99.8007 74.1591 100.24 74.1591C100.52 74.1591 100.842 74.1932 101.206 74.2614C101.573 74.3258 101.928 74.4602 102.268 74.6648C102.613 74.8693 102.899 75.178 103.126 75.5909C103.354 76.0038 103.467 76.5568 103.467 77.25V83H102.126V81.8182H102.058C101.967 82.0076 101.816 82.2102 101.604 82.4261C101.392 82.642 101.109 82.8258 100.757 82.9773C100.405 83.1288 99.9749 83.2045 99.4673 83.2045ZM99.6719 82C100.202 82 100.649 81.8958 101.013 81.6875C101.38 81.4792 101.657 81.2102 101.842 80.8807C102.032 80.5511 102.126 80.2045 102.126 79.8409V78.6136C102.07 78.6818 101.945 78.7443 101.751 78.8011C101.562 78.8542 101.342 78.9015 101.092 78.9432C100.846 78.9811 100.606 79.0152 100.371 79.0455C100.14 79.072 99.9522 79.0947 99.8082 79.1136C99.4598 79.1591 99.134 79.233 98.831 79.3352C98.5317 79.4337 98.2893 79.5833 98.1037 79.7841C97.9219 79.9811 97.831 80.25 97.831 80.5909C97.831 81.0568 98.0033 81.4091 98.348 81.6477C98.6965 81.8826 99.1378 82 99.6719 82ZM105.915 83V74.2727H107.21V75.6364H107.324C107.506 75.1705 107.799 74.8087 108.205 74.5511C108.61 74.2898 109.097 74.1591 109.665 74.1591C110.241 74.1591 110.72 74.2898 111.102 74.5511C111.489 74.8087 111.79 75.1705 112.006 75.6364H112.097C112.32 75.1856 112.655 74.8277 113.102 74.5625C113.549 74.2936 114.085 74.1591 114.71 74.1591C115.491 74.1591 116.129 74.4034 116.625 74.892C117.121 75.3769 117.369 76.1326 117.369 77.1591V83H116.028V77.1591C116.028 76.5152 115.852 76.0549 115.5 75.7784C115.148 75.5019 114.733 75.3636 114.256 75.3636C113.642 75.3636 113.167 75.5492 112.83 75.9205C112.492 76.2879 112.324 76.7538 112.324 77.3182V83H110.96V77.0227C110.96 76.5265 110.799 76.1269 110.477 75.8239C110.155 75.517 109.741 75.3636 109.233 75.3636C108.884 75.3636 108.559 75.4564 108.256 75.642C107.956 75.8277 107.714 76.0852 107.528 76.4148C107.347 76.7405 107.256 77.1174 107.256 77.5455V83H105.915ZM119.821 86.2727V74.2727H121.116V75.6591H121.276C121.374 75.5076 121.51 75.3144 121.685 75.0795C121.863 74.8409 122.116 74.6288 122.446 74.4432C122.779 74.2538 123.23 74.1591 123.798 74.1591C124.533 74.1591 125.181 74.3428 125.741 74.7102C126.302 75.0777 126.74 75.5985 127.054 76.2727C127.368 76.947 127.526 77.7424 127.526 78.6591C127.526 79.5833 127.368 80.3845 127.054 81.0625C126.74 81.7367 126.304 82.2595 125.747 82.6307C125.19 82.9981 124.548 83.1818 123.821 83.1818C123.26 83.1818 122.812 83.089 122.474 82.9034C122.137 82.714 121.878 82.5 121.696 82.2614C121.514 82.0189 121.374 81.8182 121.276 81.6591H121.162V86.2727H119.821ZM121.139 78.6364C121.139 79.2955 121.236 79.8769 121.429 80.3807C121.622 80.8807 121.904 81.2727 122.276 81.5568C122.647 81.8371 123.101 81.9773 123.639 81.9773C124.2 81.9773 124.668 81.8295 125.043 81.5341C125.421 81.2348 125.705 80.8333 125.895 80.3295C126.088 79.822 126.185 79.2576 126.185 78.6364C126.185 78.0227 126.09 77.4697 125.901 76.9773C125.715 76.4811 125.433 76.089 125.054 75.8011C124.679 75.5095 124.207 75.3636 123.639 75.3636C123.094 75.3636 122.635 75.5019 122.264 75.7784C121.893 76.0511 121.613 76.4337 121.423 76.9261C121.234 77.4148 121.139 77.9848 121.139 78.6364ZM130.912 71.3636V83H129.571V71.3636H130.912ZM137.027 83.1818C136.186 83.1818 135.461 82.9962 134.851 82.625C134.245 82.25 133.777 81.7273 133.447 81.0568C133.122 80.3826 132.959 79.5985 132.959 78.7045C132.959 77.8106 133.122 77.0227 133.447 76.3409C133.777 75.6553 134.235 75.1212 134.822 74.7386C135.413 74.3523 136.103 74.1591 136.891 74.1591C137.345 74.1591 137.794 74.2348 138.237 74.3864C138.68 74.5379 139.084 74.7841 139.447 75.125C139.811 75.4621 140.101 75.9091 140.317 76.4659C140.533 77.0227 140.641 77.7083 140.641 78.5227V79.0909H133.913V77.9318H139.277C139.277 77.4394 139.179 77 138.982 76.6136C138.788 76.2273 138.512 75.9223 138.152 75.6989C137.796 75.4754 137.375 75.3636 136.891 75.3636C136.357 75.3636 135.894 75.4962 135.504 75.7614C135.118 76.0227 134.821 76.3636 134.612 76.7841C134.404 77.2045 134.3 77.6553 134.3 78.1364V78.9091C134.3 79.5682 134.413 80.1269 134.641 80.5852C134.872 81.0398 135.192 81.3864 135.601 81.625C136.01 81.8598 136.485 81.9773 137.027 81.9773C137.379 81.9773 137.697 81.928 137.982 81.8295C138.269 81.7273 138.518 81.5758 138.726 81.375C138.934 81.1705 139.095 80.9167 139.209 80.6136L140.504 80.9773C140.368 81.4167 140.139 81.803 139.817 82.1364C139.495 82.4659 139.097 82.7235 138.624 82.9091C138.15 83.0909 137.618 83.1818 137.027 83.1818ZM147.18 86.2727V74.2727H148.476V75.6591H148.635C148.733 75.5076 148.87 75.3144 149.044 75.0795C149.222 74.8409 149.476 74.6288 149.805 74.4432C150.139 74.2538 150.589 74.1591 151.158 74.1591C151.893 74.1591 152.54 74.3428 153.101 74.7102C153.661 75.0777 154.099 75.5985 154.413 76.2727C154.728 76.947 154.885 77.7424 154.885 78.6591C154.885 79.5833 154.728 80.3845 154.413 81.0625C154.099 81.7367 153.663 82.2595 153.107 82.6307C152.55 82.9981 151.908 83.1818 151.18 83.1818C150.62 83.1818 150.171 83.089 149.834 82.9034C149.497 82.714 149.237 82.5 149.055 82.2614C148.874 82.0189 148.733 81.8182 148.635 81.6591H148.521V86.2727H147.18ZM148.499 78.6364C148.499 79.2955 148.595 79.8769 148.788 80.3807C148.982 80.8807 149.264 81.2727 149.635 81.5568C150.006 81.8371 150.461 81.9773 150.999 81.9773C151.559 81.9773 152.027 81.8295 152.402 81.5341C152.781 81.2348 153.065 80.8333 153.254 80.3295C153.447 79.822 153.544 79.2576 153.544 78.6364C153.544 78.0227 153.449 77.4697 153.26 76.9773C153.074 76.4811 152.792 76.089 152.413 75.8011C152.038 75.5095 151.567 75.3636 150.999 75.3636C150.453 75.3636 149.995 75.5019 149.624 75.7784C149.252 76.0511 148.972 76.4337 148.783 76.9261C148.593 77.4148 148.499 77.9848 148.499 78.6364ZM156.93 83V74.2727H158.226V75.5909H158.317C158.476 75.1591 158.764 74.8087 159.18 74.5398C159.597 74.2708 160.067 74.1364 160.589 74.1364C160.688 74.1364 160.811 74.1383 160.959 74.142C161.107 74.1458 161.218 74.1515 161.294 74.1591V75.5227C161.249 75.5114 161.144 75.4943 160.982 75.4716C160.822 75.4451 160.654 75.4318 160.476 75.4318C160.052 75.4318 159.673 75.5208 159.339 75.6989C159.01 75.8731 158.749 76.1155 158.555 76.4261C158.366 76.733 158.271 77.0833 158.271 77.4773V83H156.93ZM162.884 83V74.2727H164.224V83H162.884ZM163.565 72.8182C163.304 72.8182 163.079 72.7292 162.889 72.5511C162.704 72.3731 162.611 72.1591 162.611 71.9091C162.611 71.6591 162.704 71.4451 162.889 71.267C163.079 71.089 163.304 71 163.565 71C163.827 71 164.05 71.089 164.236 71.267C164.425 71.4451 164.52 71.6591 164.52 71.9091C164.52 72.1591 164.425 72.3731 164.236 72.5511C164.05 72.7292 163.827 72.8182 163.565 72.8182ZM166.68 83V74.2727H167.976V75.6364H168.089C168.271 75.1705 168.565 74.8087 168.97 74.5511C169.375 74.2898 169.862 74.1591 170.43 74.1591C171.006 74.1591 171.485 74.2898 171.868 74.5511C172.254 74.8087 172.555 75.1705 172.771 75.6364H172.862C173.086 75.1856 173.421 74.8277 173.868 74.5625C174.315 74.2936 174.851 74.1591 175.476 74.1591C176.256 74.1591 176.894 74.4034 177.391 74.892C177.887 75.3769 178.135 76.1326 178.135 77.1591V83H176.794V77.1591C176.794 76.5152 176.618 76.0549 176.266 75.7784C175.913 75.5019 175.499 75.3636 175.021 75.3636C174.408 75.3636 173.932 75.5492 173.595 75.9205C173.258 76.2879 173.089 76.7538 173.089 77.3182V83H171.726V77.0227C171.726 76.5265 171.565 76.1269 171.243 75.8239C170.921 75.517 170.506 75.3636 169.999 75.3636C169.65 75.3636 169.324 75.4564 169.021 75.642C168.722 75.8277 168.48 76.0852 168.294 76.4148C168.112 76.7405 168.021 77.1174 168.021 77.5455V83H166.68ZM183.155 83.2045C182.602 83.2045 182.1 83.1004 181.649 82.892C181.198 82.6799 180.84 82.375 180.575 81.9773C180.31 81.5758 180.178 81.0909 180.178 80.5227C180.178 80.0227 180.276 79.6174 180.473 79.3068C180.67 78.9924 180.933 78.7462 181.263 78.5682C181.592 78.3902 181.956 78.2576 182.354 78.1705C182.755 78.0795 183.159 78.0076 183.564 77.9545C184.094 77.8864 184.524 77.8352 184.854 77.8011C185.187 77.7633 185.429 77.7008 185.581 77.6136C185.736 77.5265 185.814 77.375 185.814 77.1591V77.1136C185.814 76.553 185.661 76.1174 185.354 75.8068C185.051 75.4962 184.59 75.3409 183.973 75.3409C183.333 75.3409 182.831 75.4811 182.467 75.7614C182.104 76.0417 181.848 76.3409 181.7 76.6591L180.428 76.2045C180.655 75.6742 180.958 75.2614 181.337 74.9659C181.719 74.6667 182.136 74.4583 182.587 74.3409C183.041 74.2197 183.488 74.1591 183.928 74.1591C184.208 74.1591 184.53 74.1932 184.893 74.2614C185.261 74.3258 185.615 74.4602 185.956 74.6648C186.301 74.8693 186.587 75.178 186.814 75.5909C187.041 76.0038 187.155 76.5568 187.155 77.25V83H185.814V81.8182H185.746C185.655 82.0076 185.503 82.2102 185.291 82.4261C185.079 82.642 184.797 82.8258 184.445 82.9773C184.092 83.1288 183.662 83.2045 183.155 83.2045ZM183.359 82C183.89 82 184.337 81.8958 184.7 81.6875C185.068 81.4792 185.344 81.2102 185.53 80.8807C185.719 80.5511 185.814 80.2045 185.814 79.8409V78.6136C185.757 78.6818 185.632 78.7443 185.439 78.8011C185.25 78.8542 185.03 78.9015 184.78 78.9432C184.534 78.9811 184.293 79.0152 184.058 79.0455C183.827 79.072 183.64 79.0947 183.496 79.1136C183.147 79.1591 182.821 79.233 182.518 79.3352C182.219 79.4337 181.977 79.5833 181.791 79.7841C181.609 79.9811 181.518 80.25 181.518 80.5909C181.518 81.0568 181.691 81.4091 182.036 81.6477C182.384 81.8826 182.825 82 183.359 82ZM189.602 83V74.2727H190.898V75.5909H190.989C191.148 75.1591 191.436 74.8087 191.852 74.5398C192.269 74.2708 192.739 74.1364 193.261 74.1364C193.36 74.1364 193.483 74.1383 193.631 74.142C193.778 74.1458 193.89 74.1515 193.966 74.1591V75.5227C193.92 75.5114 193.816 75.4943 193.653 75.4716C193.494 75.4451 193.326 75.4318 193.148 75.4318C192.723 75.4318 192.345 75.5208 192.011 75.6989C191.682 75.8731 191.42 76.1155 191.227 76.4261C191.038 76.733 190.943 77.0833 190.943 77.4773V83H189.602ZM196.685 86.2727C196.457 86.2727 196.255 86.2538 196.077 86.2159C195.899 86.1818 195.776 86.1477 195.707 86.1136L196.048 84.9318C196.374 85.0152 196.662 85.0455 196.912 85.0227C197.162 85 197.384 84.8883 197.577 84.6875C197.774 84.4905 197.954 84.1705 198.116 83.7273L198.366 83.0455L195.139 74.2727H196.594L199.003 81.2273H199.094L201.503 74.2727H202.957L199.253 84.2727C199.086 84.7235 198.88 85.0966 198.634 85.392C198.387 85.6913 198.101 85.9129 197.776 86.0568C197.454 86.2008 197.09 86.2727 196.685 86.2727ZM211.795 83.2045C211.242 83.2045 210.741 83.1004 210.29 82.892C209.839 82.6799 209.481 82.375 209.216 81.9773C208.951 81.5758 208.818 81.0909 208.818 80.5227C208.818 80.0227 208.917 79.6174 209.114 79.3068C209.311 78.9924 209.574 78.7462 209.903 78.5682C210.233 78.3902 210.597 78.2576 210.994 78.1705C211.396 78.0795 211.799 78.0076 212.205 77.9545C212.735 77.8864 213.165 77.8352 213.494 77.8011C213.828 77.7633 214.07 77.7008 214.222 77.6136C214.377 77.5265 214.455 77.375 214.455 77.1591V77.1136C214.455 76.553 214.301 76.1174 213.994 75.8068C213.691 75.4962 213.231 75.3409 212.614 75.3409C211.973 75.3409 211.472 75.4811 211.108 75.7614C210.744 76.0417 210.489 76.3409 210.341 76.6591L209.068 76.2045C209.295 75.6742 209.598 75.2614 209.977 74.9659C210.36 74.6667 210.777 74.4583 211.227 74.3409C211.682 74.2197 212.129 74.1591 212.568 74.1591C212.848 74.1591 213.17 74.1932 213.534 74.2614C213.902 74.3258 214.256 74.4602 214.597 74.6648C214.941 74.8693 215.227 75.178 215.455 75.5909C215.682 76.0038 215.795 76.5568 215.795 77.25V83H214.455V81.8182H214.386C214.295 82.0076 214.144 82.2102 213.932 82.4261C213.72 82.642 213.438 82.8258 213.085 82.9773C212.733 83.1288 212.303 83.2045 211.795 83.2045ZM212 82C212.53 82 212.977 81.8958 213.341 81.6875C213.708 81.4792 213.985 81.2102 214.17 80.8807C214.36 80.5511 214.455 80.2045 214.455 79.8409V78.6136C214.398 78.6818 214.273 78.7443 214.08 78.8011C213.89 78.8542 213.67 78.9015 213.42 78.9432C213.174 78.9811 212.934 79.0152 212.699 79.0455C212.468 79.072 212.28 79.0947 212.136 79.1136C211.788 79.1591 211.462 79.233 211.159 79.3352C210.86 79.4337 210.617 79.5833 210.432 79.7841C210.25 79.9811 210.159 80.25 210.159 80.5909C210.159 81.0568 210.331 81.4091 210.676 81.6477C211.025 81.8826 211.466 82 212 82ZM219.584 71.3636V83H218.243V71.3636H219.584ZM225.699 83.1818C224.858 83.1818 224.133 82.9962 223.523 82.625C222.917 82.25 222.449 81.7273 222.119 81.0568C221.794 80.3826 221.631 79.5985 221.631 78.7045C221.631 77.8106 221.794 77.0227 222.119 76.3409C222.449 75.6553 222.907 75.1212 223.494 74.7386C224.085 74.3523 224.775 74.1591 225.562 74.1591C226.017 74.1591 226.466 74.2348 226.909 74.3864C227.352 74.5379 227.756 74.7841 228.119 75.125C228.483 75.4621 228.773 75.9091 228.989 76.4659C229.205 77.0227 229.312 77.7083 229.312 78.5227V79.0909H222.585V77.9318H227.949C227.949 77.4394 227.85 77 227.653 76.6136C227.46 76.2273 227.184 75.9223 226.824 75.6989C226.468 75.4754 226.047 75.3636 225.562 75.3636C225.028 75.3636 224.566 75.4962 224.176 75.7614C223.79 76.0227 223.492 76.3636 223.284 76.7841C223.076 77.2045 222.972 77.6553 222.972 78.1364V78.9091C222.972 79.5682 223.085 80.1269 223.312 80.5852C223.544 81.0398 223.864 81.3864 224.273 81.625C224.682 81.8598 225.157 81.9773 225.699 81.9773C226.051 81.9773 226.369 81.928 226.653 81.8295C226.941 81.7273 227.189 81.5758 227.398 81.375C227.606 81.1705 227.767 80.9167 227.881 80.6136L229.176 80.9773C229.04 81.4167 228.811 81.803 228.489 82.1364C228.167 82.4659 227.769 82.7235 227.295 82.9091C226.822 83.0909 226.29 83.1818 225.699 83.1818ZM231.352 83V74.2727H232.648V75.5909H232.739C232.898 75.1591 233.186 74.8087 233.602 74.5398C234.019 74.2708 234.489 74.1364 235.011 74.1364C235.11 74.1364 235.233 74.1383 235.381 74.142C235.528 74.1458 235.64 74.1515 235.716 74.1591V75.5227C235.67 75.5114 235.566 75.4943 235.403 75.4716C235.244 75.4451 235.076 75.4318 234.898 75.4318C234.473 75.4318 234.095 75.5208 233.761 75.6989C233.432 75.8731 233.17 76.1155 232.977 76.4261C232.788 76.733 232.693 77.0833 232.693 77.4773V83H231.352ZM241.648 74.2727V75.4091H237.125V74.2727H241.648ZM238.443 72.1818H239.784V80.5C239.784 80.8788 239.839 81.1629 239.949 81.3523C240.063 81.5379 240.206 81.6629 240.381 81.7273C240.559 81.7879 240.746 81.8182 240.943 81.8182C241.091 81.8182 241.212 81.8106 241.307 81.7955C241.402 81.7765 241.477 81.7614 241.534 81.75L241.807 82.9545C241.716 82.9886 241.589 83.0227 241.426 83.0568C241.263 83.0947 241.057 83.1136 240.807 83.1136C240.428 83.1136 240.057 83.0322 239.693 82.8693C239.333 82.7064 239.034 82.4583 238.795 82.125C238.561 81.7917 238.443 81.3712 238.443 80.8636V72.1818Z" fill="#344054"/>
<path fill-rule="evenodd" clip-rule="evenodd" d="M410.614 70.6139C410.755 70.4732 410.945 70.3942 411.144 70.3942C411.343 70.3942 411.534 70.4732 411.675 70.6139L416.978 75.9172L422.281 70.6139C422.422 70.4732 422.613 70.3942 422.812 70.3942C423.01 70.3942 423.201 70.4732 423.342 70.6139C423.483 70.7545 423.562 70.9453 423.562 71.1442C423.562 71.3431 423.483 71.5339 423.342 71.6745L418.039 76.9778L423.342 82.2811C423.483 82.4218 423.562 82.6126 423.562 82.8115C423.562 83.0104 423.483 83.2012 423.342 83.3418C423.201 83.4825 423.01 83.5615 422.812 83.5615C422.613 83.5615 422.422 83.4825 422.281 83.3418L416.978 78.0385L411.675 83.3418C411.534 83.4825 411.343 83.5615 411.144 83.5615C410.945 83.5615 410.755 83.4825 410.614 83.3418C410.473 83.2012 410.394 83.0104 410.394 82.8115C410.394 82.6126 410.473 82.4218 410.614 82.2811L415.917 76.9778L410.614 71.6745C410.473 71.5339 410.394 71.3431 410.394 71.1442C410.394 70.9453 410.473 70.7545 410.614 70.6139Z" fill="#344054"/>
<path d="M4 46H449V44H4V46ZM452 49V105H454V49H452ZM449 108H3.99999V110H449V108ZM1 105V49H-1V105H1ZM3.99999 108C2.34314 108 1 106.657 1 105H-1C-1 107.761 1.23857 110 3.99999 110V108ZM452 105C452 106.657 450.657 108 449 108V110C451.761 110 454 107.761 454 105H452ZM449 46C450.657 46 452 47.3431 452 49H454C454 46.2386 451.761 44 449 44V46ZM4 44C1.23858 44 -1 46.2386 -1 49H1C1 47.3431 2.34315 46 4 46V44Z" fill="#58A1D4"/>
<circle cx="417" cy="159" r="12" fill="#344054"/>
<path d="M417.244 165.159C416.396 165.159 415.64 165.013 414.977 164.722C414.318 164.426 413.797 164.021 413.415 163.506C413.036 162.987 412.841 162.388 412.83 161.71H415.307C415.322 161.994 415.415 162.244 415.585 162.46C415.759 162.672 415.991 162.837 416.278 162.955C416.566 163.072 416.89 163.131 417.25 163.131C417.625 163.131 417.956 163.064 418.244 162.932C418.532 162.799 418.758 162.616 418.92 162.381C419.083 162.146 419.165 161.875 419.165 161.568C419.165 161.258 419.078 160.983 418.903 160.744C418.733 160.502 418.487 160.312 418.165 160.176C417.847 160.04 417.468 159.972 417.028 159.972H415.943V158.165H417.028C417.4 158.165 417.727 158.1 418.011 157.972C418.299 157.843 418.523 157.665 418.682 157.438C418.841 157.206 418.92 156.938 418.92 156.631C418.92 156.339 418.85 156.083 418.71 155.864C418.574 155.64 418.381 155.466 418.131 155.341C417.884 155.216 417.597 155.153 417.267 155.153C416.934 155.153 416.629 155.214 416.352 155.335C416.076 155.453 415.854 155.621 415.688 155.841C415.521 156.061 415.432 156.318 415.42 156.614H413.062C413.074 155.943 413.265 155.352 413.636 154.841C414.008 154.33 414.508 153.93 415.136 153.642C415.769 153.35 416.483 153.205 417.278 153.205C418.081 153.205 418.784 153.35 419.386 153.642C419.989 153.934 420.456 154.328 420.79 154.824C421.127 155.316 421.294 155.869 421.29 156.483C421.294 157.134 421.091 157.678 420.682 158.114C420.277 158.549 419.748 158.826 419.097 158.943V159.034C419.953 159.144 420.604 159.441 421.051 159.926C421.502 160.407 421.725 161.009 421.722 161.733C421.725 162.396 421.534 162.985 421.148 163.5C420.765 164.015 420.237 164.42 419.562 164.716C418.888 165.011 418.116 165.159 417.244 165.159Z" fill="white"/>
<path d="M417 148L417 84" stroke="#344054" stroke-dasharray="2 2"/>
<circle cx="326" cy="159" r="12" fill="#344054"/>
<path d="M320.767 162.955V161.017L325.625 153.364H327.295V156.045H326.307L323.244 160.892V160.983H330.148V162.955H320.767ZM326.352 165V162.364L326.398 161.506V153.364H328.705V165H326.352Z" fill="white"/>
<path d="M326 148L326 109" stroke="#344054" stroke-dasharray="2 2"/>
<circle cx="83" cy="15" r="12" fill="#344054"/>
<path d="M85.0057 10.3636V22H82.5455V12.6989H82.4773L79.8125 14.3693V12.1875L82.6932 10.3636H85.0057Z" fill="white"/>
<circle cx="28" cy="159" r="12" fill="#344054"/>
<path d="M23.9432 165V163.227L28.0852 159.392C28.4375 159.051 28.733 158.744 28.9716 158.472C29.214 158.199 29.3977 157.932 29.5227 157.67C29.6477 157.405 29.7102 157.119 29.7102 156.812C29.7102 156.472 29.6326 156.178 29.4773 155.932C29.322 155.682 29.1098 155.491 28.8409 155.358C28.572 155.222 28.267 155.153 27.9261 155.153C27.5701 155.153 27.2595 155.225 26.9943 155.369C26.7292 155.513 26.5246 155.72 26.3807 155.989C26.2367 156.258 26.1648 156.578 26.1648 156.949H23.8295C23.8295 156.187 24.0019 155.527 24.3466 154.966C24.6913 154.405 25.1742 153.972 25.7955 153.665C26.4167 153.358 27.1326 153.205 27.9432 153.205C28.7765 153.205 29.5019 153.352 30.1193 153.648C30.7405 153.939 31.2235 154.345 31.5682 154.864C31.9129 155.383 32.0852 155.977 32.0852 156.648C32.0852 157.087 31.9981 157.521 31.8239 157.949C31.6534 158.377 31.3485 158.852 30.9091 159.375C30.4697 159.894 29.8504 160.517 29.0511 161.244L27.3523 162.909V162.989H32.2386V165H23.9432Z" fill="white"/>
<path d="M80 15H36V65" stroke="#344054" stroke-dasharray="2 2"/>
<path d="M41 159H114V93" stroke="#344054" stroke-dasharray="2 2"/>
</svg>
