<svg width="421" height="167" viewBox="0 0 421 167" fill="none" xmlns="http://www.w3.org/2000/svg">
<path d="M11.0114 22V10.3636H13.4716V19.9716H18.4602V22H11.0114ZM22.5327 22.1648C21.9759 22.1648 21.4796 22.0682 21.044 21.875C20.6084 21.678 20.2637 21.3883 20.0099 21.0057C19.7599 20.6193 19.6349 20.1383 19.6349 19.5625C19.6349 19.0777 19.724 18.6705 19.902 18.3409C20.08 18.0114 20.3224 17.7462 20.6293 17.5455C20.9361 17.3447 21.2846 17.1932 21.6747 17.0909C22.0687 16.9886 22.4815 16.9167 22.9134 16.875C23.4209 16.822 23.83 16.7727 24.1406 16.7273C24.4512 16.678 24.6766 16.6061 24.8168 16.5114C24.9569 16.4167 25.027 16.2765 25.027 16.0909V16.0568C25.027 15.697 24.9134 15.4186 24.6861 15.2216C24.4626 15.0246 24.1444 14.9261 23.7315 14.9261C23.2959 14.9261 22.9493 15.0227 22.6918 15.2159C22.4342 15.4053 22.2637 15.6439 22.1804 15.9318L19.9418 15.75C20.0554 15.2197 20.2789 14.7614 20.6122 14.375C20.9455 13.9848 21.3755 13.6856 21.902 13.4773C22.4323 13.2652 23.0459 13.1591 23.7429 13.1591C24.2277 13.1591 24.6918 13.2159 25.1349 13.3295C25.5819 13.4432 25.9777 13.6193 26.3224 13.858C26.6709 14.0966 26.9455 14.4034 27.1463 14.7784C27.3471 15.1496 27.4474 15.5947 27.4474 16.1136V22H25.152V20.7898H25.0838C24.9437 21.0625 24.7562 21.303 24.5213 21.5114C24.2865 21.7159 24.0043 21.8769 23.6747 21.9943C23.3452 22.108 22.9645 22.1648 22.5327 22.1648ZM23.2259 20.4943C23.5819 20.4943 23.8963 20.4242 24.169 20.2841C24.4418 20.1402 24.6558 19.947 24.8111 19.7045C24.9664 19.4621 25.044 19.1875 25.044 18.8807V17.9545C24.9683 18.0038 24.8641 18.0492 24.7315 18.0909C24.6027 18.1288 24.4569 18.1648 24.294 18.1989C24.1312 18.2292 23.9683 18.2576 23.8054 18.2841C23.6425 18.3068 23.4948 18.3277 23.3622 18.3466C23.0781 18.3883 22.83 18.4545 22.6179 18.5455C22.4058 18.6364 22.241 18.7595 22.1236 18.9148C22.0062 19.0663 21.9474 19.2557 21.9474 19.483C21.9474 19.8125 22.0668 20.0644 22.3054 20.2386C22.5478 20.4091 22.8546 20.4943 23.2259 20.4943ZM29.3707 22V10.3636H31.7912V14.7386H31.8651C31.9711 14.5038 32.1245 14.2652 32.3253 14.0227C32.5298 13.7765 32.795 13.572 33.1207 13.4091C33.4503 13.2424 33.8594 13.1591 34.348 13.1591C34.9844 13.1591 35.5715 13.3258 36.1094 13.6591C36.6473 13.9886 37.0772 14.4867 37.3991 15.1534C37.7211 15.8163 37.8821 16.6477 37.8821 17.6477C37.8821 18.6212 37.7249 19.4432 37.4105 20.1136C37.0999 20.7803 36.6757 21.286 36.1378 21.6307C35.6037 21.9716 35.0052 22.142 34.3423 22.142C33.8726 22.142 33.473 22.0644 33.1435 21.9091C32.8177 21.7538 32.5507 21.5587 32.3423 21.3239C32.134 21.0852 31.9749 20.8447 31.8651 20.6023H31.7571V22H29.3707ZM31.7401 17.6364C31.7401 18.1553 31.812 18.608 31.956 18.9943C32.0999 19.3807 32.3082 19.6818 32.581 19.8977C32.8537 20.1098 33.1851 20.2159 33.5753 20.2159C33.9692 20.2159 34.3026 20.108 34.5753 19.892C34.848 19.6723 35.0545 19.3693 35.1946 18.983C35.3385 18.5928 35.4105 18.1439 35.4105 17.6364C35.4105 17.1326 35.3404 16.6894 35.2003 16.3068C35.0601 15.9242 34.8537 15.625 34.581 15.4091C34.3082 15.1932 33.973 15.0852 33.5753 15.0852C33.1813 15.0852 32.848 15.1894 32.5753 15.3977C32.3063 15.6061 32.0999 15.9015 31.956 16.2841C31.812 16.6667 31.7401 17.1174 31.7401 17.6364ZM43.4744 22.1705C42.5767 22.1705 41.804 21.9886 41.1562 21.625C40.5123 21.2576 40.0161 20.7386 39.6676 20.0682C39.3191 19.3939 39.1449 18.5966 39.1449 17.6761C39.1449 16.7784 39.3191 15.9905 39.6676 15.3125C40.0161 14.6345 40.5066 14.1061 41.1392 13.7273C41.7756 13.3485 42.5218 13.1591 43.3778 13.1591C43.9536 13.1591 44.4896 13.2519 44.9858 13.4375C45.4858 13.6193 45.9214 13.8939 46.2926 14.2614C46.6676 14.6288 46.9593 15.0909 47.1676 15.6477C47.3759 16.2008 47.4801 16.8485 47.4801 17.5909V18.2557H40.1108V16.7557H45.2017C45.2017 16.4072 45.1259 16.0985 44.9744 15.8295C44.8229 15.5606 44.6127 15.3504 44.3438 15.1989C44.0786 15.0436 43.7699 14.9659 43.4176 14.9659C43.0502 14.9659 42.7244 15.0511 42.4403 15.2216C42.16 15.3883 41.9403 15.6136 41.7812 15.8977C41.6222 16.178 41.5407 16.4905 41.5369 16.8352V18.2614C41.5369 18.6932 41.6165 19.0663 41.7756 19.3807C41.9384 19.6951 42.1676 19.9375 42.4631 20.108C42.7585 20.2784 43.1089 20.3636 43.5142 20.3636C43.7831 20.3636 44.0294 20.3258 44.2528 20.25C44.4763 20.1742 44.6676 20.0606 44.8267 19.9091C44.9858 19.7576 45.107 19.572 45.1903 19.3523L47.429 19.5C47.3153 20.0379 47.0824 20.5076 46.7301 20.9091C46.3816 21.3068 45.9309 21.6174 45.3778 21.8409C44.8286 22.0606 44.1941 22.1705 43.4744 22.1705ZM51.4801 10.3636V22H49.0597V10.3636H51.4801Z" fill="#344054"/>
<path d="M10.7727 43.6136V42.3636H19.5V43.6136H15.8409V54H14.4318V43.6136H10.7727ZM22.8338 48.75V54H21.4929V42.3636H22.8338V46.6364H22.9474C23.152 46.1856 23.4588 45.8277 23.8679 45.5625C24.2808 45.2936 24.83 45.1591 25.5156 45.1591C26.1103 45.1591 26.6312 45.2784 27.0781 45.517C27.5251 45.7519 27.8717 46.1136 28.1179 46.6023C28.3679 47.0871 28.4929 47.7045 28.4929 48.4545V54H27.152V48.5455C27.152 47.8523 26.9721 47.3163 26.6122 46.9375C26.2562 46.5549 25.7618 46.3636 25.1293 46.3636C24.6899 46.3636 24.2959 46.4564 23.9474 46.642C23.6027 46.8277 23.33 47.0985 23.1293 47.4545C22.9323 47.8106 22.8338 48.2424 22.8338 48.75ZM30.946 54V45.2727H32.2869V54H30.946ZM31.6278 43.8182C31.3665 43.8182 31.1411 43.7292 30.9517 43.5511C30.7661 43.3731 30.6733 43.1591 30.6733 42.9091C30.6733 42.6591 30.7661 42.4451 30.9517 42.267C31.1411 42.089 31.3665 42 31.6278 42C31.8892 42 32.1127 42.089 32.2983 42.267C32.4877 42.4451 32.5824 42.6591 32.5824 42.9091C32.5824 43.1591 32.4877 43.3731 32.2983 43.5511C32.1127 43.7292 31.8892 43.8182 31.6278 43.8182ZM40.9247 47.2273L39.7202 47.5682C39.6444 47.3674 39.5327 47.1723 39.3849 46.983C39.241 46.7898 39.044 46.6307 38.794 46.5057C38.544 46.3807 38.224 46.3182 37.8338 46.3182C37.2997 46.3182 36.8546 46.4413 36.4986 46.6875C36.1463 46.9299 35.9702 47.2386 35.9702 47.6136C35.9702 47.947 36.0914 48.2102 36.3338 48.4034C36.5762 48.5966 36.955 48.7576 37.4702 48.8864L38.7656 49.2045C39.5459 49.3939 40.1274 49.6837 40.5099 50.0739C40.8925 50.4602 41.0838 50.9583 41.0838 51.5682C41.0838 52.0682 40.9399 52.5152 40.652 52.9091C40.3679 53.303 39.9702 53.6136 39.4588 53.8409C38.9474 54.0682 38.3527 54.1818 37.6747 54.1818C36.7846 54.1818 36.0478 53.9886 35.4645 53.6023C34.8812 53.2159 34.5118 52.6515 34.3565 51.9091L35.6293 51.5909C35.7505 52.0606 35.9796 52.4129 36.3168 52.6477C36.6577 52.8826 37.1027 53 37.652 53C38.277 53 38.7732 52.8674 39.1406 52.6023C39.5118 52.3333 39.6974 52.0114 39.6974 51.6364C39.6974 51.3333 39.5914 51.0795 39.3793 50.875C39.1671 50.6667 38.8414 50.5114 38.402 50.4091L36.9474 50.0682C36.1482 49.8788 35.5611 49.5852 35.1861 49.1875C34.8149 48.786 34.6293 48.2841 34.6293 47.6818C34.6293 47.1894 34.7675 46.7538 35.044 46.375C35.3243 45.9962 35.705 45.6989 36.1861 45.483C36.6709 45.267 37.2202 45.1591 37.8338 45.1591C38.6974 45.1591 39.3755 45.3485 39.8679 45.7273C40.3641 46.1061 40.7164 46.6061 40.9247 47.2273ZM47.6023 54V45.2727H48.9432V54H47.6023ZM48.2841 43.8182C48.0227 43.8182 47.7973 43.7292 47.608 43.5511C47.4223 43.3731 47.3295 43.1591 47.3295 42.9091C47.3295 42.6591 47.4223 42.4451 47.608 42.267C47.7973 42.089 48.0227 42 48.2841 42C48.5455 42 48.7689 42.089 48.9545 42.267C49.1439 42.4451 49.2386 42.6591 49.2386 42.9091C49.2386 43.1591 49.1439 43.3731 48.9545 43.5511C48.7689 43.7292 48.5455 43.8182 48.2841 43.8182ZM57.581 47.2273L56.3764 47.5682C56.3007 47.3674 56.1889 47.1723 56.0412 46.983C55.8973 46.7898 55.7003 46.6307 55.4503 46.5057C55.2003 46.3807 54.8802 46.3182 54.4901 46.3182C53.956 46.3182 53.5109 46.4413 53.1548 46.6875C52.8026 46.9299 52.6264 47.2386 52.6264 47.6136C52.6264 47.947 52.7476 48.2102 52.9901 48.4034C53.2325 48.5966 53.6113 48.7576 54.1264 48.8864L55.4219 49.2045C56.2022 49.3939 56.7836 49.6837 57.1662 50.0739C57.5488 50.4602 57.7401 50.9583 57.7401 51.5682C57.7401 52.0682 57.5961 52.5152 57.3082 52.9091C57.0241 53.303 56.6264 53.6136 56.1151 53.8409C55.6037 54.0682 55.009 54.1818 54.331 54.1818C53.4408 54.1818 52.7041 53.9886 52.1207 53.6023C51.5374 53.2159 51.1681 52.6515 51.0128 51.9091L52.2855 51.5909C52.4067 52.0606 52.6359 52.4129 52.973 52.6477C53.3139 52.8826 53.759 53 54.3082 53C54.9332 53 55.4295 52.8674 55.7969 52.6023C56.1681 52.3333 56.3537 52.0114 56.3537 51.6364C56.3537 51.3333 56.2476 51.0795 56.0355 50.875C55.8234 50.6667 55.4976 50.5114 55.0582 50.4091L53.6037 50.0682C52.8045 49.8788 52.2173 49.5852 51.8423 49.1875C51.4711 48.786 51.2855 48.2841 51.2855 47.6818C51.2855 47.1894 51.4238 46.7538 51.7003 46.375C51.9806 45.9962 52.3613 45.6989 52.8423 45.483C53.3272 45.267 53.8764 45.1591 54.4901 45.1591C55.3537 45.1591 56.0317 45.3485 56.5241 45.7273C57.0204 46.1061 57.3726 46.6061 57.581 47.2273ZM68.054 45.2727V46.4091H63.5312V45.2727H68.054ZM64.8494 43.1818H66.1903V51.5C66.1903 51.8788 66.2453 52.1629 66.3551 52.3523C66.4688 52.5379 66.6127 52.6629 66.7869 52.7273C66.965 52.7879 67.1525 52.8182 67.3494 52.8182C67.4972 52.8182 67.6184 52.8106 67.7131 52.7955C67.8078 52.7765 67.8835 52.7614 67.9403 52.75L68.2131 53.9545C68.1222 53.9886 67.9953 54.0227 67.8324 54.0568C67.6695 54.0947 67.4631 54.1136 67.2131 54.1136C66.8343 54.1136 66.4631 54.0322 66.0994 53.8693C65.7396 53.7064 65.4403 53.4583 65.2017 53.125C64.9669 52.7917 64.8494 52.3712 64.8494 51.8636V43.1818ZM71.5994 48.75V54H70.2585V42.3636H71.5994V46.6364H71.7131C71.9176 46.1856 72.2244 45.8277 72.6335 45.5625C73.0464 45.2936 73.5956 45.1591 74.2812 45.1591C74.8759 45.1591 75.3968 45.2784 75.8438 45.517C76.2907 45.7519 76.6373 46.1136 76.8835 46.6023C77.1335 47.0871 77.2585 47.7045 77.2585 48.4545V54H75.9176V48.5455C75.9176 47.8523 75.7377 47.3163 75.3778 46.9375C75.0218 46.5549 74.5275 46.3636 73.8949 46.3636C73.4555 46.3636 73.0616 46.4564 72.7131 46.642C72.3684 46.8277 72.0956 47.0985 71.8949 47.4545C71.6979 47.8106 71.5994 48.2424 71.5994 48.75ZM83.3707 54.1818C82.5298 54.1818 81.8045 53.9962 81.1946 53.625C80.5885 53.25 80.1207 52.7273 79.7912 52.0568C79.4654 51.3826 79.3026 50.5985 79.3026 49.7045C79.3026 48.8106 79.4654 48.0227 79.7912 47.3409C80.1207 46.6553 80.5791 46.1212 81.1662 45.7386C81.7571 45.3523 82.4465 45.1591 83.2344 45.1591C83.6889 45.1591 84.1378 45.2348 84.581 45.3864C85.0241 45.5379 85.4276 45.7841 85.7912 46.125C86.1548 46.4621 86.4446 46.9091 86.6605 47.4659C86.8764 48.0227 86.9844 48.7083 86.9844 49.5227V50.0909H80.2571V48.9318H85.6207C85.6207 48.4394 85.5223 48 85.3253 47.6136C85.1321 47.2273 84.8556 46.9223 84.4957 46.6989C84.1397 46.4754 83.7192 46.3636 83.2344 46.3636C82.7003 46.3636 82.2382 46.4962 81.848 46.7614C81.4616 47.0227 81.1643 47.3636 80.956 47.7841C80.7476 48.2045 80.6435 48.6553 80.6435 49.1364V49.9091C80.6435 50.5682 80.7571 51.1269 80.9844 51.5852C81.2154 52.0398 81.5355 52.3864 81.9446 52.625C82.3537 52.8598 82.8291 52.9773 83.3707 52.9773C83.723 52.9773 84.0412 52.928 84.3253 52.8295C84.6132 52.7273 84.8613 52.5758 85.0696 52.375C85.2779 52.1705 85.4389 51.9167 85.5526 51.6136L86.848 51.9773C86.7116 52.4167 86.4825 52.803 86.1605 53.1364C85.8385 53.4659 85.4408 53.7235 84.9673 53.9091C84.4938 54.0909 83.9616 54.1818 83.3707 54.1818ZM94.8651 48.75V54H93.5241V42.3636H94.8651V46.6364H94.9787C95.1832 46.1856 95.4901 45.8277 95.8991 45.5625C96.312 45.2936 96.8613 45.1591 97.5469 45.1591C98.1416 45.1591 98.6624 45.2784 99.1094 45.517C99.5563 45.7519 99.9029 46.1136 100.149 46.6023C100.399 47.0871 100.524 47.7045 100.524 48.4545V54H99.1832V48.5455C99.1832 47.8523 99.0033 47.3163 98.6435 46.9375C98.2874 46.5549 97.7931 46.3636 97.1605 46.3636C96.7211 46.3636 96.3272 46.4564 95.9787 46.642C95.634 46.8277 95.3613 47.0985 95.1605 47.4545C94.9635 47.8106 94.8651 48.2424 94.8651 48.75ZM102.977 54V45.2727H104.318V54H102.977ZM103.659 43.8182C103.398 43.8182 103.172 43.7292 102.983 43.5511C102.797 43.3731 102.705 43.1591 102.705 42.9091C102.705 42.6591 102.797 42.4451 102.983 42.267C103.172 42.089 103.398 42 103.659 42C103.92 42 104.144 42.089 104.33 42.267C104.519 42.4451 104.614 42.6591 104.614 42.9091C104.614 43.1591 104.519 43.3731 104.33 43.5511C104.144 43.7292 103.92 43.8182 103.659 43.8182ZM108.115 48.75V54H106.774V45.2727H108.07V46.6364H108.183C108.388 46.1932 108.698 45.8371 109.115 45.5682C109.532 45.2955 110.07 45.1591 110.729 45.1591C111.32 45.1591 111.837 45.2803 112.28 45.5227C112.723 45.7614 113.068 46.125 113.314 46.6136C113.56 47.0985 113.683 47.7121 113.683 48.4545V54H112.342V48.5455C112.342 47.8598 112.164 47.3258 111.808 46.9432C111.452 46.5568 110.964 46.3636 110.342 46.3636C109.914 46.3636 109.532 46.4564 109.195 46.642C108.861 46.8277 108.598 47.0985 108.405 47.4545C108.212 47.8106 108.115 48.2424 108.115 48.75ZM119.929 45.2727V46.4091H115.406V45.2727H119.929ZM116.724 43.1818H118.065V51.5C118.065 51.8788 118.12 52.1629 118.23 52.3523C118.344 52.5379 118.488 52.6629 118.662 52.7273C118.84 52.7879 119.027 52.8182 119.224 52.8182C119.372 52.8182 119.493 52.8106 119.588 52.7955C119.683 52.7765 119.759 52.7614 119.815 52.75L120.088 53.9545C119.997 53.9886 119.87 54.0227 119.707 54.0568C119.545 54.0947 119.338 54.1136 119.088 54.1136C118.709 54.1136 118.338 54.0322 117.974 53.8693C117.615 53.7064 117.315 53.4583 117.077 53.125C116.842 52.7917 116.724 52.3712 116.724 51.8636V43.1818ZM130.241 45.2727V46.4091H125.719V45.2727H130.241ZM127.037 43.1818H128.378V51.5C128.378 51.8788 128.433 52.1629 128.543 52.3523C128.656 52.5379 128.8 52.6629 128.974 52.7273C129.152 52.7879 129.34 52.8182 129.537 52.8182C129.685 52.8182 129.806 52.8106 129.901 52.7955C129.995 52.7765 130.071 52.7614 130.128 52.75L130.401 53.9545C130.31 53.9886 130.183 54.0227 130.02 54.0568C129.857 54.0947 129.651 54.1136 129.401 54.1136C129.022 54.1136 128.651 54.0322 128.287 53.8693C127.927 53.7064 127.628 53.4583 127.389 53.125C127.154 52.7917 127.037 52.3712 127.037 51.8636V43.1818ZM135.824 54.1818C134.983 54.1818 134.258 53.9962 133.648 53.625C133.042 53.25 132.574 52.7273 132.244 52.0568C131.919 51.3826 131.756 50.5985 131.756 49.7045C131.756 48.8106 131.919 48.0227 132.244 47.3409C132.574 46.6553 133.032 46.1212 133.619 45.7386C134.21 45.3523 134.9 45.1591 135.688 45.1591C136.142 45.1591 136.591 45.2348 137.034 45.3864C137.477 45.5379 137.881 45.7841 138.244 46.125C138.608 46.4621 138.898 46.9091 139.114 47.4659C139.33 48.0227 139.438 48.7083 139.438 49.5227V50.0909H132.71V48.9318H138.074C138.074 48.4394 137.975 48 137.778 47.6136C137.585 47.2273 137.309 46.9223 136.949 46.6989C136.593 46.4754 136.172 46.3636 135.688 46.3636C135.153 46.3636 134.691 46.4962 134.301 46.7614C133.915 47.0227 133.617 47.3636 133.409 47.7841C133.201 48.2045 133.097 48.6553 133.097 49.1364V49.9091C133.097 50.5682 133.21 51.1269 133.438 51.5852C133.669 52.0398 133.989 52.3864 134.398 52.625C134.807 52.8598 135.282 52.9773 135.824 52.9773C136.176 52.9773 136.494 52.928 136.778 52.8295C137.066 52.7273 137.314 52.5758 137.523 52.375C137.731 52.1705 137.892 51.9167 138.006 51.6136L139.301 51.9773C139.165 52.4167 138.936 52.803 138.614 53.1364C138.292 53.4659 137.894 53.7235 137.42 53.9091C136.947 54.0909 136.415 54.1818 135.824 54.1818ZM142.243 45.2727L144.334 48.8409L146.425 45.2727H147.97L145.152 49.6364L147.97 54H146.425L144.334 50.6136L142.243 54H140.697L143.47 49.6364L140.697 45.2727H142.243ZM153.679 45.2727V46.4091H149.156V45.2727H153.679ZM150.474 43.1818H151.815V51.5C151.815 51.8788 151.87 52.1629 151.98 52.3523C152.094 52.5379 152.238 52.6629 152.412 52.7273C152.59 52.7879 152.777 52.8182 152.974 52.8182C153.122 52.8182 153.243 52.8106 153.338 52.7955C153.433 52.7765 153.509 52.7614 153.565 52.75L153.838 53.9545C153.747 53.9886 153.62 54.0227 153.457 54.0568C153.295 54.0947 153.088 54.1136 152.838 54.1136C152.459 54.1136 152.088 54.0322 151.724 53.8693C151.365 53.7064 151.065 53.4583 150.827 53.125C150.592 52.7917 150.474 52.3712 150.474 51.8636V43.1818Z" fill="#667085"/>
<rect x="10.5" y="64.5" width="358" height="47" rx="3.5" fill="white"/>
<path d="M26.7727 83.6136V82.3636H35.5V83.6136H31.8409V94H30.4318V83.6136H26.7727ZM39.8864 94.1818C39.0455 94.1818 38.3201 93.9962 37.7102 93.625C37.1042 93.25 36.6364 92.7273 36.3068 92.0568C35.9811 91.3826 35.8182 90.5985 35.8182 89.7045C35.8182 88.8106 35.9811 88.0227 36.3068 87.3409C36.6364 86.6553 37.0947 86.1212 37.6818 85.7386C38.2727 85.3523 38.9621 85.1591 39.75 85.1591C40.2045 85.1591 40.6534 85.2348 41.0966 85.3864C41.5398 85.5379 41.9432 85.7841 42.3068 86.125C42.6705 86.4621 42.9602 86.9091 43.1761 87.4659C43.392 88.0227 43.5 88.7083 43.5 89.5227V90.0909H36.7727V88.9318H42.1364C42.1364 88.4394 42.0379 88 41.8409 87.6136C41.6477 87.2273 41.3712 86.9223 41.0114 86.6989C40.6553 86.4754 40.2348 86.3636 39.75 86.3636C39.2159 86.3636 38.7538 86.4962 38.3636 86.7614C37.9773 87.0227 37.6799 87.3636 37.4716 87.7841C37.2633 88.2045 37.1591 88.6553 37.1591 89.1364V89.9091C37.1591 90.5682 37.2727 91.1269 37.5 91.5852C37.7311 92.0398 38.0511 92.3864 38.4602 92.625C38.8693 92.8598 39.3447 92.9773 39.8864 92.9773C40.2386 92.9773 40.5568 92.928 40.8409 92.8295C41.1288 92.7273 41.3769 92.5758 41.5852 92.375C41.7936 92.1705 41.9545 91.9167 42.0682 91.6136L43.3636 91.9773C43.2273 92.4167 42.9981 92.803 42.6761 93.1364C42.3542 93.4659 41.9564 93.7235 41.483 93.9091C41.0095 94.0909 40.4773 94.1818 39.8864 94.1818ZM46.3054 85.2727L48.3963 88.8409L50.4872 85.2727H52.0327L49.2145 89.6364L52.0327 94H50.4872L48.3963 90.6136L46.3054 94H44.7599L47.5327 89.6364L44.7599 85.2727H46.3054ZM57.7415 85.2727V86.4091H53.2188V85.2727H57.7415ZM54.5369 83.1818H55.8778V91.5C55.8778 91.8788 55.9328 92.1629 56.0426 92.3523C56.1563 92.5379 56.3002 92.6629 56.4744 92.7273C56.6525 92.7879 56.84 92.8182 57.0369 92.8182C57.1847 92.8182 57.3059 92.8106 57.4006 92.7955C57.4953 92.7765 57.571 92.7614 57.6278 92.75L57.9006 93.9545C57.8097 93.9886 57.6828 94.0227 57.5199 94.0568C57.357 94.0947 57.1506 94.1136 56.9006 94.1136C56.5218 94.1136 56.1506 94.0322 55.7869 93.8693C55.4271 93.7064 55.1278 93.4583 54.8892 93.125C54.6544 92.7917 54.5369 92.3712 54.5369 91.8636V83.1818ZM67.7812 97.4545C67.1335 97.4545 66.5767 97.3712 66.1108 97.2045C65.6449 97.0417 65.2566 96.8258 64.946 96.5568C64.6392 96.2917 64.3949 96.0076 64.2131 95.7045L65.2812 94.9545C65.4025 95.1136 65.5559 95.2955 65.7415 95.5C65.9271 95.7083 66.1809 95.8883 66.5028 96.0398C66.8286 96.1951 67.2547 96.2727 67.7812 96.2727C68.4858 96.2727 69.0672 96.1023 69.5256 95.7614C69.9839 95.4205 70.2131 94.8864 70.2131 94.1591V92.3864H70.0994C70.0009 92.5455 69.8608 92.7424 69.679 92.9773C69.5009 93.2083 69.2434 93.4148 68.9062 93.5966C68.5729 93.7746 68.1222 93.8636 67.554 93.8636C66.8494 93.8636 66.2169 93.697 65.6562 93.3636C65.0994 93.0303 64.6581 92.5455 64.3324 91.9091C64.0104 91.2727 63.8494 90.5 63.8494 89.5909C63.8494 88.697 64.0066 87.9186 64.321 87.2557C64.6354 86.589 65.0729 86.0739 65.6335 85.7102C66.1941 85.3428 66.8419 85.1591 67.5767 85.1591C68.1449 85.1591 68.5956 85.2538 68.929 85.4432C69.2661 85.6288 69.5237 85.8409 69.7017 86.0795C69.8835 86.3144 70.0237 86.5076 70.1222 86.6591H70.2585V85.2727H71.554V94.25C71.554 95 71.3835 95.6098 71.0426 96.0795C70.7055 96.553 70.2509 96.8996 69.679 97.1193C69.1108 97.3428 68.4782 97.4545 67.7812 97.4545ZM67.7358 92.6591C68.2737 92.6591 68.7282 92.536 69.0994 92.2898C69.4706 92.0436 69.7528 91.6894 69.946 91.2273C70.1392 90.7652 70.2358 90.2121 70.2358 89.5682C70.2358 88.9394 70.1411 88.3845 69.9517 87.9034C69.7623 87.4223 69.482 87.0455 69.1108 86.7727C68.7396 86.5 68.2813 86.3636 67.7358 86.3636C67.1676 86.3636 66.6941 86.5076 66.3153 86.7955C65.9403 87.0833 65.6581 87.4697 65.4688 87.9545C65.2831 88.4394 65.1903 88.9773 65.1903 89.5682C65.1903 90.1742 65.285 90.7102 65.4744 91.1761C65.6676 91.6383 65.9517 92.0019 66.3267 92.267C66.7055 92.5284 67.1752 92.6591 67.7358 92.6591ZM77.554 94.1818C76.7661 94.1818 76.0748 93.9943 75.4801 93.6193C74.8892 93.2443 74.4271 92.7197 74.0938 92.0455C73.7642 91.3712 73.5994 90.5833 73.5994 89.6818C73.5994 88.7727 73.7642 87.9792 74.0938 87.3011C74.4271 86.6231 74.8892 86.0966 75.4801 85.7216C76.0748 85.3466 76.7661 85.1591 77.554 85.1591C78.3419 85.1591 79.0313 85.3466 79.6222 85.7216C80.2169 86.0966 80.679 86.6231 81.0085 87.3011C81.3419 87.9792 81.5085 88.7727 81.5085 89.6818C81.5085 90.5833 81.3419 91.3712 81.0085 92.0455C80.679 92.7197 80.2169 93.2443 79.6222 93.6193C79.0313 93.9943 78.3419 94.1818 77.554 94.1818ZM77.554 92.9773C78.1525 92.9773 78.6449 92.8239 79.0312 92.517C79.4176 92.2102 79.7036 91.8068 79.8892 91.3068C80.0748 90.8068 80.1676 90.2652 80.1676 89.6818C80.1676 89.0985 80.0748 88.5549 79.8892 88.0511C79.7036 87.5473 79.4176 87.1402 79.0312 86.8295C78.6449 86.5189 78.1525 86.3636 77.554 86.3636C76.9555 86.3636 76.4631 86.5189 76.0767 86.8295C75.6903 87.1402 75.4044 87.5473 75.2188 88.0511C75.0331 88.5549 74.9403 89.0985 74.9403 89.6818C74.9403 90.2652 75.0331 90.8068 75.2188 91.3068C75.4044 91.8068 75.6903 92.2102 76.0767 92.517C76.4631 92.8239 76.9555 92.9773 77.554 92.9773ZM87.2145 94.1818C86.3736 94.1818 85.6482 93.9962 85.0384 93.625C84.4323 93.25 83.9645 92.7273 83.6349 92.0568C83.3092 91.3826 83.1463 90.5985 83.1463 89.7045C83.1463 88.8106 83.3092 88.0227 83.6349 87.3409C83.9645 86.6553 84.4228 86.1212 85.0099 85.7386C85.6009 85.3523 86.2902 85.1591 87.0781 85.1591C87.5327 85.1591 87.9815 85.2348 88.4247 85.3864C88.8679 85.5379 89.2713 85.7841 89.6349 86.125C89.9986 86.4621 90.2884 86.9091 90.5043 87.4659C90.7202 88.0227 90.8281 88.7083 90.8281 89.5227V90.0909H84.1009V88.9318H89.4645C89.4645 88.4394 89.366 88 89.169 87.6136C88.9759 87.2273 88.6993 86.9223 88.3395 86.6989C87.9834 86.4754 87.563 86.3636 87.0781 86.3636C86.544 86.3636 86.0819 86.4962 85.6918 86.7614C85.3054 87.0227 85.008 87.3636 84.7997 87.7841C84.5914 88.2045 84.4872 88.6553 84.4872 89.1364V89.9091C84.4872 90.5682 84.6009 91.1269 84.8281 91.5852C85.0592 92.0398 85.3793 92.3864 85.7884 92.625C86.1974 92.8598 86.6728 92.9773 87.2145 92.9773C87.5668 92.9773 87.8849 92.928 88.169 92.8295C88.4569 92.7273 88.705 92.5758 88.9134 92.375C89.1217 92.1705 89.2827 91.9167 89.3963 91.6136L90.6918 91.9773C90.5554 92.4167 90.3262 92.803 90.0043 93.1364C89.6823 93.4659 89.2846 93.7235 88.8111 93.9091C88.3376 94.0909 87.8054 94.1818 87.2145 94.1818ZM99.0497 87.2273L97.8452 87.5682C97.7694 87.3674 97.6577 87.1723 97.5099 86.983C97.366 86.7898 97.169 86.6307 96.919 86.5057C96.669 86.3807 96.349 86.3182 95.9588 86.3182C95.4247 86.3182 94.9796 86.4413 94.6236 86.6875C94.2713 86.9299 94.0952 87.2386 94.0952 87.6136C94.0952 87.947 94.2164 88.2102 94.4588 88.4034C94.7012 88.5966 95.08 88.7576 95.5952 88.8864L96.8906 89.2045C97.6709 89.3939 98.2524 89.6837 98.6349 90.0739C99.0175 90.4602 99.2088 90.9583 99.2088 91.5682C99.2088 92.0682 99.0649 92.5152 98.777 92.9091C98.4929 93.303 98.0952 93.6136 97.5838 93.8409C97.0724 94.0682 96.4777 94.1818 95.7997 94.1818C94.9096 94.1818 94.1728 93.9886 93.5895 93.6023C93.0062 93.2159 92.6368 92.6515 92.4815 91.9091L93.7543 91.5909C93.8755 92.0606 94.1046 92.4129 94.4418 92.6477C94.7827 92.8826 95.2277 93 95.777 93C96.402 93 96.8982 92.8674 97.2656 92.6023C97.6368 92.3333 97.8224 92.0114 97.8224 91.6364C97.8224 91.3333 97.7164 91.0795 97.5043 90.875C97.2921 90.6667 96.9664 90.5114 96.527 90.4091L95.0724 90.0682C94.2732 89.8788 93.6861 89.5852 93.3111 89.1875C92.9399 88.786 92.7543 88.2841 92.7543 87.6818C92.7543 87.1894 92.8925 86.7538 93.169 86.375C93.4493 85.9962 93.83 85.6989 94.3111 85.483C94.7959 85.267 95.3452 85.1591 95.9588 85.1591C96.8224 85.1591 97.5005 85.3485 97.9929 85.7273C98.4891 86.1061 98.8414 86.6061 99.0497 87.2273ZM107.068 88.75V94H105.727V82.3636H107.068V86.6364H107.182C107.386 86.1856 107.693 85.8277 108.102 85.5625C108.515 85.2936 109.064 85.1591 109.75 85.1591C110.345 85.1591 110.866 85.2784 111.312 85.517C111.759 85.7519 112.106 86.1136 112.352 86.6023C112.602 87.0871 112.727 87.7045 112.727 88.4545V94H111.386V88.5455C111.386 87.8523 111.206 87.3163 110.847 86.9375C110.491 86.5549 109.996 86.3636 109.364 86.3636C108.924 86.3636 108.53 86.4564 108.182 86.642C107.837 86.8277 107.564 87.0985 107.364 87.4545C107.167 87.8106 107.068 88.2424 107.068 88.75ZM118.839 94.1818C117.999 94.1818 117.273 93.9962 116.663 93.625C116.057 93.25 115.589 92.7273 115.26 92.0568C114.934 91.3826 114.771 90.5985 114.771 89.7045C114.771 88.8106 114.934 88.0227 115.26 87.3409C115.589 86.6553 116.048 86.1212 116.635 85.7386C117.226 85.3523 117.915 85.1591 118.703 85.1591C119.158 85.1591 119.607 85.2348 120.05 85.3864C120.493 85.5379 120.896 85.7841 121.26 86.125C121.624 86.4621 121.913 86.9091 122.129 87.4659C122.345 88.0227 122.453 88.7083 122.453 89.5227V90.0909H115.726V88.9318H121.089C121.089 88.4394 120.991 88 120.794 87.6136C120.601 87.2273 120.324 86.9223 119.964 86.6989C119.608 86.4754 119.188 86.3636 118.703 86.3636C118.169 86.3636 117.707 86.4962 117.317 86.7614C116.93 87.0227 116.633 87.3636 116.425 87.7841C116.216 88.2045 116.112 88.6553 116.112 89.1364V89.9091C116.112 90.5682 116.226 91.1269 116.453 91.5852C116.684 92.0398 117.004 92.3864 117.413 92.625C117.822 92.8598 118.298 92.9773 118.839 92.9773C119.192 92.9773 119.51 92.928 119.794 92.8295C120.082 92.7273 120.33 92.5758 120.538 92.375C120.747 92.1705 120.908 91.9167 121.021 91.6136L122.317 91.9773C122.18 92.4167 121.951 92.803 121.629 93.1364C121.307 93.4659 120.91 93.7235 120.436 93.9091C119.963 94.0909 119.43 94.1818 118.839 94.1818ZM124.493 94V85.2727H125.788V86.5909H125.879C126.038 86.1591 126.326 85.8087 126.743 85.5398C127.16 85.2708 127.629 85.1364 128.152 85.1364C128.25 85.1364 128.374 85.1383 128.521 85.142C128.669 85.1458 128.781 85.1515 128.857 85.1591V86.5227C128.811 86.5114 128.707 86.4943 128.544 86.4716C128.385 86.4451 128.216 86.4318 128.038 86.4318C127.614 86.4318 127.235 86.5208 126.902 86.6989C126.572 86.8731 126.311 87.1155 126.118 87.4261C125.929 87.733 125.834 88.0833 125.834 88.4773V94H124.493ZM133.839 94.1818C132.999 94.1818 132.273 93.9962 131.663 93.625C131.057 93.25 130.589 92.7273 130.26 92.0568C129.934 91.3826 129.771 90.5985 129.771 89.7045C129.771 88.8106 129.934 88.0227 130.26 87.3409C130.589 86.6553 131.048 86.1212 131.635 85.7386C132.226 85.3523 132.915 85.1591 133.703 85.1591C134.158 85.1591 134.607 85.2348 135.05 85.3864C135.493 85.5379 135.896 85.7841 136.26 86.125C136.624 86.4621 136.913 86.9091 137.129 87.4659C137.345 88.0227 137.453 88.7083 137.453 89.5227V90.0909H130.726V88.9318H136.089C136.089 88.4394 135.991 88 135.794 87.6136C135.601 87.2273 135.324 86.9223 134.964 86.6989C134.608 86.4754 134.188 86.3636 133.703 86.3636C133.169 86.3636 132.707 86.4962 132.317 86.7614C131.93 87.0227 131.633 87.3636 131.425 87.7841C131.216 88.2045 131.112 88.6553 131.112 89.1364V89.9091C131.112 90.5682 131.226 91.1269 131.453 91.5852C131.684 92.0398 132.004 92.3864 132.413 92.625C132.822 92.8598 133.298 92.9773 133.839 92.9773C134.192 92.9773 134.51 92.928 134.794 92.8295C135.082 92.7273 135.33 92.5758 135.538 92.375C135.747 92.1705 135.908 91.9167 136.021 91.6136L137.317 91.9773C137.18 92.4167 136.951 92.803 136.629 93.1364C136.307 93.4659 135.91 93.7235 135.436 93.9091C134.963 94.0909 134.43 94.1818 133.839 94.1818Z" fill="#344054"/>
<path d="M347.807 89.7575C348.533 88.7665 348.859 87.5378 348.718 86.3173C348.577 85.0968 347.981 83.9745 347.048 83.1748C346.115 82.3752 344.915 81.9572 343.687 82.0045C342.46 82.0518 341.295 82.5609 340.427 83.4299C339.558 84.299 339.05 85.4639 339.003 86.6916C338.957 87.9194 339.376 89.1193 340.176 90.0515C340.977 90.9837 342.099 91.5793 343.32 91.7192C344.541 91.859 345.769 91.5329 346.759 90.806H346.759C346.781 90.836 346.805 90.8645 346.832 90.8922L349.72 93.7797C349.86 93.9204 350.051 93.9995 350.25 93.9996C350.449 93.9997 350.64 93.9207 350.781 93.7801C350.921 93.6395 351 93.4487 351 93.2497C351.001 93.0508 350.922 92.8599 350.781 92.7192L347.893 89.8317C347.867 89.8046 347.838 89.7795 347.807 89.7567V89.7575ZM348.001 86.8745C348.001 87.4162 347.894 87.9526 347.687 88.453C347.479 88.9535 347.176 89.4082 346.792 89.7913C346.409 90.1743 345.955 90.4782 345.454 90.6855C344.954 90.8928 344.417 90.9995 343.876 90.9995C343.334 90.9995 342.798 90.8928 342.297 90.6855C341.797 90.4782 341.342 90.1743 340.959 89.7913C340.576 89.4082 340.272 88.9535 340.065 88.453C339.857 87.9526 339.751 87.4162 339.751 86.8745C339.751 85.7804 340.185 84.7312 340.959 83.9576C341.732 83.1841 342.782 82.7495 343.876 82.7495C344.97 82.7495 346.019 83.1841 346.792 83.9576C347.566 84.7312 348.001 85.7804 348.001 86.8745Z" fill="#344054"/>
<rect x="10.5" y="64.5" width="358" height="47" rx="3.5" stroke="#98A2B3"/>
<path d="M11.4091 134V122.364H18.4318V123.614H12.8182V127.545H18.0682V128.795H12.8182V132.75H18.5227V134H11.4091ZM20.7898 134V125.273H22.0852V126.591H22.1761C22.3352 126.159 22.6231 125.809 23.0398 125.54C23.4564 125.271 23.9261 125.136 24.4489 125.136C24.5473 125.136 24.6705 125.138 24.8182 125.142C24.9659 125.146 25.0777 125.152 25.1534 125.159V126.523C25.108 126.511 25.0038 126.494 24.8409 126.472C24.6818 126.445 24.5133 126.432 24.3352 126.432C23.911 126.432 23.5322 126.521 23.1989 126.699C22.8693 126.873 22.608 127.116 22.4148 127.426C22.2254 127.733 22.1307 128.083 22.1307 128.477V134H20.7898ZM26.7429 134V125.273H28.0384V126.591H28.1293C28.2884 126.159 28.5762 125.809 28.9929 125.54C29.4096 125.271 29.8793 125.136 30.402 125.136C30.5005 125.136 30.6236 125.138 30.7713 125.142C30.919 125.146 31.0308 125.152 31.1065 125.159V126.523C31.0611 126.511 30.9569 126.494 30.794 126.472C30.6349 126.445 30.4664 126.432 30.2884 126.432C29.8641 126.432 29.4853 126.521 29.152 126.699C28.8224 126.873 28.5611 127.116 28.3679 127.426C28.1785 127.733 28.0838 128.083 28.0838 128.477V134H26.7429ZM35.9759 134.182C35.188 134.182 34.4967 133.994 33.902 133.619C33.3111 133.244 32.849 132.72 32.5156 132.045C32.1861 131.371 32.0213 130.583 32.0213 129.682C32.0213 128.773 32.1861 127.979 32.5156 127.301C32.849 126.623 33.3111 126.097 33.902 125.722C34.4967 125.347 35.188 125.159 35.9759 125.159C36.7637 125.159 37.4531 125.347 38.044 125.722C38.6387 126.097 39.1009 126.623 39.4304 127.301C39.7637 127.979 39.9304 128.773 39.9304 129.682C39.9304 130.583 39.7637 131.371 39.4304 132.045C39.1009 132.72 38.6387 133.244 38.044 133.619C37.4531 133.994 36.7637 134.182 35.9759 134.182ZM35.9759 132.977C36.5743 132.977 37.0668 132.824 37.4531 132.517C37.8395 132.21 38.1255 131.807 38.3111 131.307C38.4967 130.807 38.5895 130.265 38.5895 129.682C38.5895 129.098 38.4967 128.555 38.3111 128.051C38.1255 127.547 37.8395 127.14 37.4531 126.83C37.0668 126.519 36.5743 126.364 35.9759 126.364C35.3774 126.364 34.8849 126.519 34.4986 126.83C34.1122 127.14 33.8262 127.547 33.6406 128.051C33.455 128.555 33.3622 129.098 33.3622 129.682C33.3622 130.265 33.455 130.807 33.6406 131.307C33.8262 131.807 34.1122 132.21 34.4986 132.517C34.8849 132.824 35.3774 132.977 35.9759 132.977ZM41.9773 134V125.273H43.2727V126.591H43.3636C43.5227 126.159 43.8106 125.809 44.2273 125.54C44.6439 125.271 45.1136 125.136 45.6364 125.136C45.7348 125.136 45.858 125.138 46.0057 125.142C46.1534 125.146 46.2652 125.152 46.3409 125.159V126.523C46.2955 126.511 46.1913 126.494 46.0284 126.472C45.8693 126.445 45.7008 126.432 45.5227 126.432C45.0985 126.432 44.7197 126.521 44.3864 126.699C44.0568 126.873 43.7955 127.116 43.6023 127.426C43.4129 127.733 43.3182 128.083 43.3182 128.477V134H41.9773ZM52.4304 134V125.273H53.7259V126.636H53.8395C54.0213 126.17 54.3149 125.809 54.7202 125.551C55.1255 125.29 55.6122 125.159 56.1804 125.159C56.7562 125.159 57.2353 125.29 57.6179 125.551C58.0043 125.809 58.3054 126.17 58.5213 126.636H58.6122C58.8357 126.186 59.1709 125.828 59.6179 125.562C60.0649 125.294 60.6009 125.159 61.2259 125.159C62.0062 125.159 62.6444 125.403 63.1406 125.892C63.6368 126.377 63.8849 127.133 63.8849 128.159V134H62.544V128.159C62.544 127.515 62.3679 127.055 62.0156 126.778C61.6634 126.502 61.2486 126.364 60.7713 126.364C60.1577 126.364 59.6823 126.549 59.3452 126.92C59.008 127.288 58.8395 127.754 58.8395 128.318V134H57.4759V128.023C57.4759 127.527 57.3149 127.127 56.9929 126.824C56.6709 126.517 56.2562 126.364 55.7486 126.364C55.4001 126.364 55.0743 126.456 54.7713 126.642C54.4721 126.828 54.2296 127.085 54.044 127.415C53.8622 127.741 53.7713 128.117 53.7713 128.545V134H52.4304ZM69.9957 134.182C69.1548 134.182 68.4295 133.996 67.8196 133.625C67.2135 133.25 66.7457 132.727 66.4162 132.057C66.0904 131.383 65.9276 130.598 65.9276 129.705C65.9276 128.811 66.0904 128.023 66.4162 127.341C66.7457 126.655 67.2041 126.121 67.7912 125.739C68.3821 125.352 69.0715 125.159 69.8594 125.159C70.3139 125.159 70.7628 125.235 71.206 125.386C71.6491 125.538 72.0526 125.784 72.4162 126.125C72.7798 126.462 73.0696 126.909 73.2855 127.466C73.5014 128.023 73.6094 128.708 73.6094 129.523V130.091H66.8821V128.932H72.2457C72.2457 128.439 72.1473 128 71.9503 127.614C71.7571 127.227 71.4806 126.922 71.1207 126.699C70.7647 126.475 70.3442 126.364 69.8594 126.364C69.3253 126.364 68.8632 126.496 68.473 126.761C68.0866 127.023 67.7893 127.364 67.581 127.784C67.3726 128.205 67.2685 128.655 67.2685 129.136V129.909C67.2685 130.568 67.3821 131.127 67.6094 131.585C67.8404 132.04 68.1605 132.386 68.5696 132.625C68.9787 132.86 69.4541 132.977 69.9957 132.977C70.348 132.977 70.6662 132.928 70.9503 132.83C71.2382 132.727 71.4863 132.576 71.6946 132.375C71.9029 132.17 72.0639 131.917 72.1776 131.614L73.473 131.977C73.3366 132.417 73.1075 132.803 72.7855 133.136C72.4635 133.466 72.0658 133.723 71.5923 133.909C71.1188 134.091 70.5866 134.182 69.9957 134.182ZM81.831 127.227L80.6264 127.568C80.5507 127.367 80.4389 127.172 80.2912 126.983C80.1473 126.79 79.9503 126.631 79.7003 126.506C79.4503 126.381 79.1302 126.318 78.7401 126.318C78.206 126.318 77.7609 126.441 77.4048 126.688C77.0526 126.93 76.8764 127.239 76.8764 127.614C76.8764 127.947 76.9976 128.21 77.2401 128.403C77.4825 128.597 77.8613 128.758 78.3764 128.886L79.6719 129.205C80.4522 129.394 81.0336 129.684 81.4162 130.074C81.7988 130.46 81.9901 130.958 81.9901 131.568C81.9901 132.068 81.8461 132.515 81.5582 132.909C81.2741 133.303 80.8764 133.614 80.3651 133.841C79.8537 134.068 79.259 134.182 78.581 134.182C77.6908 134.182 76.9541 133.989 76.3707 133.602C75.7874 133.216 75.4181 132.652 75.2628 131.909L76.5355 131.591C76.6567 132.061 76.8859 132.413 77.223 132.648C77.5639 132.883 78.009 133 78.5582 133C79.1832 133 79.6795 132.867 80.0469 132.602C80.4181 132.333 80.6037 132.011 80.6037 131.636C80.6037 131.333 80.4976 131.08 80.2855 130.875C80.0734 130.667 79.7476 130.511 79.3082 130.409L77.8537 130.068C77.0545 129.879 76.4673 129.585 76.0923 129.188C75.7211 128.786 75.5355 128.284 75.5355 127.682C75.5355 127.189 75.6738 126.754 75.9503 126.375C76.2306 125.996 76.6113 125.699 77.0923 125.483C77.5772 125.267 78.1264 125.159 78.7401 125.159C79.6037 125.159 80.2817 125.348 80.7741 125.727C81.2704 126.106 81.6226 126.606 81.831 127.227ZM90.1903 127.227L88.9858 127.568C88.91 127.367 88.7983 127.172 88.6506 126.983C88.5066 126.79 88.3097 126.631 88.0597 126.506C87.8097 126.381 87.4896 126.318 87.0994 126.318C86.5653 126.318 86.1203 126.441 85.7642 126.688C85.4119 126.93 85.2358 127.239 85.2358 127.614C85.2358 127.947 85.357 128.21 85.5994 128.403C85.8419 128.597 86.2206 128.758 86.7358 128.886L88.0312 129.205C88.8116 129.394 89.393 129.684 89.7756 130.074C90.1581 130.46 90.3494 130.958 90.3494 131.568C90.3494 132.068 90.2055 132.515 89.9176 132.909C89.6335 133.303 89.2358 133.614 88.7244 133.841C88.2131 134.068 87.6184 134.182 86.9403 134.182C86.0502 134.182 85.3134 133.989 84.7301 133.602C84.1468 133.216 83.7775 132.652 83.6222 131.909L84.8949 131.591C85.0161 132.061 85.2453 132.413 85.5824 132.648C85.9233 132.883 86.3684 133 86.9176 133C87.5426 133 88.0388 132.867 88.4062 132.602C88.7775 132.333 88.9631 132.011 88.9631 131.636C88.9631 131.333 88.857 131.08 88.6449 130.875C88.4328 130.667 88.107 130.511 87.6676 130.409L86.2131 130.068C85.4138 129.879 84.8267 129.585 84.4517 129.188C84.0805 128.786 83.8949 128.284 83.8949 127.682C83.8949 127.189 84.0331 126.754 84.3097 126.375C84.59 125.996 84.9706 125.699 85.4517 125.483C85.9366 125.267 86.4858 125.159 87.0994 125.159C87.9631 125.159 88.6411 125.348 89.1335 125.727C89.6297 126.106 89.982 126.606 90.1903 127.227ZM94.9361 134.205C94.383 134.205 93.8812 134.1 93.4304 133.892C92.9796 133.68 92.6217 133.375 92.3565 132.977C92.0914 132.576 91.9588 132.091 91.9588 131.523C91.9588 131.023 92.0573 130.617 92.2543 130.307C92.4512 129.992 92.7145 129.746 93.044 129.568C93.3736 129.39 93.7372 129.258 94.1349 129.17C94.5365 129.08 94.9399 129.008 95.3452 128.955C95.8755 128.886 96.3054 128.835 96.6349 128.801C96.9683 128.763 97.2107 128.701 97.3622 128.614C97.5175 128.527 97.5952 128.375 97.5952 128.159V128.114C97.5952 127.553 97.4418 127.117 97.1349 126.807C96.8319 126.496 96.3717 126.341 95.7543 126.341C95.1141 126.341 94.6122 126.481 94.2486 126.761C93.8849 127.042 93.6293 127.341 93.4815 127.659L92.2088 127.205C92.4361 126.674 92.7391 126.261 93.1179 125.966C93.5005 125.667 93.9171 125.458 94.3679 125.341C94.8224 125.22 95.2694 125.159 95.7088 125.159C95.9891 125.159 96.3111 125.193 96.6747 125.261C97.0421 125.326 97.3963 125.46 97.7372 125.665C98.0819 125.869 98.3679 126.178 98.5952 126.591C98.8224 127.004 98.9361 127.557 98.9361 128.25V134H97.5952V132.818H97.527C97.4361 133.008 97.2846 133.21 97.0724 133.426C96.8603 133.642 96.5781 133.826 96.2259 133.977C95.8736 134.129 95.4437 134.205 94.9361 134.205ZM95.1406 133C95.6709 133 96.1179 132.896 96.4815 132.688C96.849 132.479 97.1255 132.21 97.3111 131.881C97.5005 131.551 97.5952 131.205 97.5952 130.841V129.614C97.5384 129.682 97.4134 129.744 97.2202 129.801C97.0308 129.854 96.8111 129.902 96.5611 129.943C96.3149 129.981 96.0743 130.015 95.8395 130.045C95.6084 130.072 95.4209 130.095 95.277 130.114C94.9285 130.159 94.6027 130.233 94.2997 130.335C94.0005 130.434 93.758 130.583 93.5724 130.784C93.3906 130.981 93.2997 131.25 93.2997 131.591C93.2997 132.057 93.4721 132.409 93.8168 132.648C94.1652 132.883 94.6065 133 95.1406 133ZM104.906 137.455C104.259 137.455 103.702 137.371 103.236 137.205C102.77 137.042 102.382 136.826 102.071 136.557C101.764 136.292 101.52 136.008 101.338 135.705L102.406 134.955C102.527 135.114 102.681 135.295 102.866 135.5C103.052 135.708 103.306 135.888 103.628 136.04C103.954 136.195 104.38 136.273 104.906 136.273C105.611 136.273 106.192 136.102 106.651 135.761C107.109 135.42 107.338 134.886 107.338 134.159V132.386H107.224C107.126 132.545 106.986 132.742 106.804 132.977C106.626 133.208 106.368 133.415 106.031 133.597C105.698 133.775 105.247 133.864 104.679 133.864C103.974 133.864 103.342 133.697 102.781 133.364C102.224 133.03 101.783 132.545 101.457 131.909C101.135 131.273 100.974 130.5 100.974 129.591C100.974 128.697 101.132 127.919 101.446 127.256C101.76 126.589 102.198 126.074 102.759 125.71C103.319 125.343 103.967 125.159 104.702 125.159C105.27 125.159 105.721 125.254 106.054 125.443C106.391 125.629 106.649 125.841 106.827 126.08C107.009 126.314 107.149 126.508 107.247 126.659H107.384V125.273H108.679V134.25C108.679 135 108.509 135.61 108.168 136.08C107.83 136.553 107.376 136.9 106.804 137.119C106.236 137.343 105.603 137.455 104.906 137.455ZM104.861 132.659C105.399 132.659 105.853 132.536 106.224 132.29C106.596 132.044 106.878 131.689 107.071 131.227C107.264 130.765 107.361 130.212 107.361 129.568C107.361 128.939 107.266 128.384 107.077 127.903C106.887 127.422 106.607 127.045 106.236 126.773C105.865 126.5 105.406 126.364 104.861 126.364C104.293 126.364 103.819 126.508 103.44 126.795C103.065 127.083 102.783 127.47 102.594 127.955C102.408 128.439 102.315 128.977 102.315 129.568C102.315 130.174 102.41 130.71 102.599 131.176C102.793 131.638 103.077 132.002 103.452 132.267C103.83 132.528 104.3 132.659 104.861 132.659ZM114.793 134.182C113.952 134.182 113.226 133.996 112.616 133.625C112.01 133.25 111.543 132.727 111.213 132.057C110.887 131.383 110.724 130.598 110.724 129.705C110.724 128.811 110.887 128.023 111.213 127.341C111.543 126.655 112.001 126.121 112.588 125.739C113.179 125.352 113.868 125.159 114.656 125.159C115.111 125.159 115.56 125.235 116.003 125.386C116.446 125.538 116.849 125.784 117.213 126.125C117.577 126.462 117.866 126.909 118.082 127.466C118.298 128.023 118.406 128.708 118.406 129.523V130.091H111.679V128.932H117.043C117.043 128.439 116.944 128 116.747 127.614C116.554 127.227 116.277 126.922 115.918 126.699C115.562 126.475 115.141 126.364 114.656 126.364C114.122 126.364 113.66 126.496 113.27 126.761C112.884 127.023 112.586 127.364 112.378 127.784C112.17 128.205 112.065 128.655 112.065 129.136V129.909C112.065 130.568 112.179 131.127 112.406 131.585C112.637 132.04 112.957 132.386 113.366 132.625C113.776 132.86 114.251 132.977 114.793 132.977C115.145 132.977 115.463 132.928 115.747 132.83C116.035 132.727 116.283 132.576 116.491 132.375C116.7 132.17 116.861 131.917 116.974 131.614L118.27 131.977C118.134 132.417 117.904 132.803 117.582 133.136C117.26 133.466 116.863 133.723 116.389 133.909C115.916 134.091 115.384 134.182 114.793 134.182Z" fill="#D7260F"/>
<rect x="10" y="64" width="16" height="48" fill="#E8178A" fill-opacity="0.24"/>
<rect x="10" y="64" width="359" height="8" fill="#E8178A" fill-opacity="0.24"/>
<rect x="10" y="104" width="359" height="8" fill="#E8178A" fill-opacity="0.24"/>
<rect x="353" y="64" width="16" height="48" fill="#E8178A" fill-opacity="0.24"/>
<path d="M10 144.5H26" stroke="#E8178A"/>
<rect y="149" width="36" height="18" rx="3" fill="#E8178A"/>
<path d="M9.75355 154.727V162H8.21591V156.187H8.1733L6.50781 157.231V155.867L8.30824 154.727H9.75355ZM14.2733 162.099C13.8992 162.097 13.5382 162.034 13.1902 161.911C12.8445 161.788 12.5344 161.588 12.2598 161.311C11.9851 161.034 11.7673 160.667 11.6064 160.21C11.4477 159.753 11.3684 159.192 11.3684 158.527C11.3708 157.916 11.4406 157.371 11.5779 156.89C11.7176 156.407 11.9165 155.997 12.1745 155.661C12.435 155.325 12.7463 155.069 13.1085 154.894C13.4707 154.717 13.8767 154.628 14.3265 154.628C14.8118 154.628 15.2404 154.723 15.612 154.912C15.9837 155.099 16.282 155.353 16.5069 155.675C16.7342 155.997 16.8715 156.358 16.9189 156.759H15.4025C15.3433 156.505 15.219 156.306 15.0297 156.162C14.8403 156.018 14.6059 155.945 14.3265 155.945C13.853 155.945 13.4932 156.151 13.247 156.563C13.0031 156.975 12.8788 157.535 12.8741 158.243H12.9238C13.0327 158.027 13.1795 157.844 13.3642 157.692C13.5512 157.539 13.7631 157.421 13.9998 157.341C14.2389 157.258 14.4911 157.217 14.7562 157.217C15.1871 157.217 15.5706 157.318 15.9068 157.522C16.243 157.723 16.5081 158 16.7022 158.353C16.8964 158.706 16.9934 159.109 16.9934 159.564C16.9934 160.056 16.8786 160.494 16.649 160.878C16.4217 161.261 16.1033 161.562 15.6937 161.78C15.2865 161.995 14.813 162.102 14.2733 162.099ZM14.2662 160.892C14.5029 160.892 14.7148 160.835 14.9018 160.722C15.0888 160.608 15.2356 160.454 15.3422 160.26C15.4487 160.066 15.502 159.848 15.502 159.607C15.502 159.365 15.4487 159.148 15.3422 158.957C15.238 158.765 15.0936 158.612 14.9089 158.499C14.7243 158.385 14.5136 158.328 14.2768 158.328C14.0993 158.328 13.9347 158.361 13.7832 158.428C13.6341 158.494 13.5027 158.586 13.389 158.705C13.2778 158.823 13.1902 158.96 13.1262 159.116C13.0623 159.27 13.0304 159.435 13.0304 159.61C13.0304 159.844 13.0836 160.059 13.1902 160.253C13.2991 160.447 13.4458 160.602 13.6305 160.718C13.8175 160.834 14.0294 160.892 14.2662 160.892ZM18.0978 164.045V156.545H19.5893V157.462H19.6568C19.7231 157.315 19.819 157.166 19.9444 157.014C20.0723 156.86 20.238 156.732 20.4416 156.631C20.6475 156.527 20.9032 156.474 21.2086 156.474C21.6064 156.474 21.9733 156.579 22.3095 156.787C22.6457 156.993 22.9144 157.304 23.1156 157.721C23.3168 158.135 23.4174 158.655 23.4174 159.28C23.4174 159.888 23.3192 160.402 23.1227 160.821C22.9286 161.238 22.6634 161.554 22.3272 161.769C21.9934 161.982 21.6194 162.089 21.2051 162.089C20.9115 162.089 20.6618 162.04 20.4558 161.943C20.2522 161.846 20.0853 161.724 19.9551 161.577C19.8249 161.428 19.7254 161.278 19.6568 161.126H19.6106V164.045H18.0978ZM19.5787 159.273C19.5787 159.597 19.6236 159.88 19.7136 160.121C19.8036 160.363 19.9338 160.551 20.1042 160.686C20.2747 160.819 20.4818 160.885 20.7257 160.885C20.9719 160.885 21.1802 160.817 21.3507 160.683C21.5211 160.545 21.6502 160.356 21.7377 160.114C21.8277 159.871 21.8727 159.59 21.8727 159.273C21.8727 158.958 21.8289 158.681 21.7413 158.442C21.6537 158.203 21.5247 158.016 21.3542 157.881C21.1838 157.746 20.9743 157.678 20.7257 157.678C20.4795 157.678 20.2711 157.743 20.1007 157.874C19.9326 158.004 19.8036 158.188 19.7136 158.428C19.6236 158.667 19.5787 158.948 19.5787 159.273ZM25.4949 156.545L26.4963 158.452L27.5225 156.545H29.0744L27.4941 159.273L29.117 162H27.5723L26.4963 160.114L25.438 162H23.8755L25.4949 159.273L23.9324 156.545H25.4949Z" fill="white"/>
<line x1="10.5" y1="148" x2="10.5" y2="141" stroke="#E8178A"/>
<line x1="25.5" y1="148" x2="25.5" y2="141" stroke="#E8178A"/>
<path d="M353 128.5H369" stroke="#E8178A"/>
<rect x="343" y="133" width="36" height="18" rx="3" fill="#E8178A"/>
<path d="M352.754 138.727V146H351.216V140.187H351.173L349.508 141.231V139.867L351.308 138.727H352.754ZM357.273 146.099C356.899 146.097 356.538 146.034 356.19 145.911C355.845 145.788 355.534 145.588 355.26 145.311C354.985 145.034 354.767 144.667 354.606 144.21C354.448 143.753 354.368 143.192 354.368 142.527C354.371 141.916 354.441 141.371 354.578 140.89C354.718 140.407 354.916 139.997 355.175 139.661C355.435 139.325 355.746 139.069 356.108 138.894C356.471 138.717 356.877 138.628 357.327 138.628C357.812 138.628 358.24 138.723 358.612 138.912C358.984 139.099 359.282 139.353 359.507 139.675C359.734 139.997 359.872 140.358 359.919 140.759H358.403C358.343 140.505 358.219 140.306 358.03 140.162C357.84 140.018 357.606 139.945 357.327 139.945C356.853 139.945 356.493 140.151 356.247 140.563C356.003 140.975 355.879 141.535 355.874 142.243H355.924C356.033 142.027 356.18 141.844 356.364 141.692C356.551 141.539 356.763 141.421 357 141.341C357.239 141.258 357.491 141.217 357.756 141.217C358.187 141.217 358.571 141.318 358.907 141.522C359.243 141.723 359.508 142 359.702 142.353C359.896 142.706 359.993 143.109 359.993 143.564C359.993 144.056 359.879 144.494 359.649 144.878C359.422 145.261 359.103 145.562 358.694 145.78C358.287 145.995 357.813 146.102 357.273 146.099ZM357.266 144.892C357.503 144.892 357.715 144.835 357.902 144.722C358.089 144.608 358.236 144.454 358.342 144.26C358.449 144.066 358.502 143.848 358.502 143.607C358.502 143.365 358.449 143.148 358.342 142.957C358.238 142.765 358.094 142.612 357.909 142.499C357.724 142.385 357.514 142.328 357.277 142.328C357.099 142.328 356.935 142.361 356.783 142.428C356.634 142.494 356.503 142.586 356.389 142.705C356.278 142.823 356.19 142.96 356.126 143.116C356.062 143.27 356.03 143.435 356.03 143.61C356.03 143.844 356.084 144.059 356.19 144.253C356.299 144.447 356.446 144.602 356.631 144.718C356.818 144.834 357.029 144.892 357.266 144.892ZM361.098 148.045V140.545H362.589V141.462H362.657C362.723 141.315 362.819 141.166 362.944 141.014C363.072 140.86 363.238 140.732 363.442 140.631C363.648 140.527 363.903 140.474 364.209 140.474C364.606 140.474 364.973 140.579 365.309 140.787C365.646 140.993 365.914 141.304 366.116 141.721C366.317 142.135 366.417 142.655 366.417 143.28C366.417 143.888 366.319 144.402 366.123 144.821C365.929 145.238 365.663 145.554 365.327 145.769C364.993 145.982 364.619 146.089 364.205 146.089C363.912 146.089 363.662 146.04 363.456 145.943C363.252 145.846 363.085 145.724 362.955 145.577C362.825 145.428 362.725 145.278 362.657 145.126H362.611V148.045H361.098ZM362.579 143.273C362.579 143.597 362.624 143.88 362.714 144.121C362.804 144.363 362.934 144.551 363.104 144.686C363.275 144.819 363.482 144.885 363.726 144.885C363.972 144.885 364.18 144.817 364.351 144.683C364.521 144.545 364.65 144.356 364.738 144.114C364.828 143.871 364.873 143.59 364.873 143.273C364.873 142.958 364.829 142.681 364.741 142.442C364.654 142.203 364.525 142.016 364.354 141.881C364.184 141.746 363.974 141.678 363.726 141.678C363.479 141.678 363.271 141.743 363.101 141.874C362.933 142.004 362.804 142.188 362.714 142.428C362.624 142.667 362.579 142.948 362.579 143.273ZM368.495 140.545L369.496 142.452L370.523 140.545H372.074L370.494 143.273L372.117 146H370.572L369.496 144.114L368.438 146H366.876L368.495 143.273L366.932 140.545H368.495Z" fill="white"/>
<line x1="353.5" y1="132" x2="353.5" y2="125" stroke="#E8178A"/>
<line x1="368.5" y1="132" x2="368.5" y2="125" stroke="#E8178A"/>
<path d="M385.5 64V72" stroke="#E8178A"/>
<rect x="390" y="60.5" width="31" height="18" rx="3" fill="#E8178A"/>
<path d="M399.303 73.5994C398.756 73.5994 398.269 73.5107 397.843 73.3331C397.419 73.1532 397.087 72.9081 396.845 72.598C396.604 72.2879 396.483 71.9363 396.483 71.5433C396.483 71.2403 396.552 70.9621 396.689 70.7088C396.829 70.4531 397.018 70.2412 397.257 70.0732C397.496 69.9027 397.764 69.7938 398.06 69.7464V69.6967C397.671 69.6186 397.357 69.4304 397.115 69.1321C396.874 68.8314 396.753 68.4822 396.753 68.0845C396.753 67.7081 396.863 67.3731 397.083 67.0795C397.303 66.7836 397.605 66.5516 397.989 66.3835C398.375 66.2131 398.812 66.1278 399.303 66.1278C399.793 66.1278 400.229 66.2131 400.613 66.3835C400.999 66.554 401.302 66.7872 401.522 67.0831C401.742 67.3767 401.853 67.7105 401.856 68.0845C401.853 68.4846 401.73 68.8338 401.487 69.1321C401.243 69.4304 400.93 69.6186 400.549 69.6967V69.7464C400.84 69.7938 401.104 69.9027 401.341 70.0732C401.58 70.2412 401.769 70.4531 401.909 70.7088C402.051 70.9621 402.123 71.2403 402.126 71.5433C402.123 71.9363 402.001 72.2879 401.76 72.598C401.518 72.9081 401.185 73.1532 400.759 73.3331C400.335 73.5107 399.849 73.5994 399.303 73.5994ZM399.303 72.4702C399.546 72.4702 399.759 72.4264 399.942 72.3388C400.124 72.2488 400.266 72.1257 400.368 71.9695C400.472 71.8108 400.524 71.6286 400.524 71.4226C400.524 71.2119 400.471 71.026 400.364 70.8651C400.258 70.7017 400.113 70.5739 399.931 70.4815C399.749 70.3868 399.539 70.3395 399.303 70.3395C399.068 70.3395 398.859 70.3868 398.674 70.4815C398.489 70.5739 398.344 70.7017 398.237 70.8651C398.133 71.026 398.081 71.2119 398.081 71.4226C398.081 71.6286 398.132 71.8108 398.234 71.9695C398.335 72.1257 398.479 72.2488 398.663 72.3388C398.848 72.4264 399.061 72.4702 399.303 72.4702ZM399.303 69.2209C399.506 69.2209 399.687 69.1795 399.846 69.0966C400.004 69.0137 400.129 68.8989 400.219 68.7521C400.309 68.6054 400.354 68.4361 400.354 68.2443C400.354 68.0549 400.309 67.8892 400.219 67.7472C400.129 67.6027 400.006 67.4903 399.849 67.4098C399.693 67.3269 399.511 67.2855 399.303 67.2855C399.097 67.2855 398.914 67.3269 398.756 67.4098C398.597 67.4903 398.473 67.6027 398.383 67.7472C398.295 67.8892 398.251 68.0549 398.251 68.2443C398.251 68.4361 398.296 68.6054 398.386 68.7521C398.476 68.8989 398.601 69.0137 398.759 69.0966C398.918 69.1795 399.099 69.2209 399.303 69.2209ZM403.215 75.5455V68.0455H404.706V68.9616H404.774C404.84 68.8149 404.936 68.6657 405.062 68.5142C405.189 68.3603 405.355 68.2325 405.559 68.1307C405.765 68.0265 406.02 67.9744 406.326 67.9744C406.724 67.9744 407.09 68.0786 407.427 68.2869C407.763 68.4929 408.032 68.8042 408.233 69.2209C408.434 69.6352 408.535 70.1548 408.535 70.7798C408.535 71.3883 408.436 71.902 408.24 72.321C408.046 72.7377 407.781 73.0537 407.444 73.2692C407.111 73.4822 406.737 73.5888 406.322 73.5888C406.029 73.5888 405.779 73.5402 405.573 73.4432C405.369 73.3461 405.202 73.2242 405.072 73.0774C404.942 72.9283 404.843 72.7779 404.774 72.6264H404.728V75.5455H403.215ZM404.696 70.7727C404.696 71.0971 404.741 71.38 404.831 71.6214C404.921 71.8629 405.051 72.0511 405.221 72.1861C405.392 72.3187 405.599 72.3849 405.843 72.3849C406.089 72.3849 406.297 72.3175 406.468 72.1825C406.638 72.0452 406.767 71.8558 406.855 71.6143C406.945 71.3705 406.99 71.09 406.99 70.7727C406.99 70.4579 406.946 70.1809 406.858 69.9418C406.771 69.7027 406.642 69.5156 406.471 69.3807C406.301 69.2457 406.091 69.1783 405.843 69.1783C405.597 69.1783 405.388 69.2434 405.218 69.3736C405.05 69.5038 404.921 69.6884 404.831 69.9276C404.741 70.1667 404.696 70.4484 404.696 70.7727ZM410.612 68.0455L411.613 69.9524L412.64 68.0455H414.192L412.611 70.7727L414.234 73.5H412.689L411.613 71.6143L410.555 73.5H408.993L410.612 70.7727L409.05 68.0455H410.612Z" fill="white"/>
<line x1="382" y1="64.5" x2="389" y2="64.5" stroke="#E8178A"/>
<line x1="382" y1="71.5" x2="389" y2="71.5" stroke="#E8178A"/>
<path d="M385.5 104V112" stroke="#E8178A"/>
<rect x="390" y="100.5" width="31" height="18" rx="3" fill="#E8178A"/>
<path d="M399.303 113.599C398.756 113.599 398.269 113.511 397.843 113.333C397.419 113.153 397.087 112.908 396.845 112.598C396.604 112.288 396.483 111.936 396.483 111.543C396.483 111.24 396.552 110.962 396.689 110.709C396.829 110.453 397.018 110.241 397.257 110.073C397.496 109.903 397.764 109.794 398.06 109.746V109.697C397.671 109.619 397.357 109.43 397.115 109.132C396.874 108.831 396.753 108.482 396.753 108.085C396.753 107.708 396.863 107.373 397.083 107.08C397.303 106.784 397.605 106.552 397.989 106.384C398.375 106.213 398.812 106.128 399.303 106.128C399.793 106.128 400.229 106.213 400.613 106.384C400.999 106.554 401.302 106.787 401.522 107.083C401.742 107.377 401.853 107.71 401.856 108.085C401.853 108.485 401.73 108.834 401.487 109.132C401.243 109.43 400.93 109.619 400.549 109.697V109.746C400.84 109.794 401.104 109.903 401.341 110.073C401.58 110.241 401.769 110.453 401.909 110.709C402.051 110.962 402.123 111.24 402.126 111.543C402.123 111.936 402.001 112.288 401.76 112.598C401.518 112.908 401.185 113.153 400.759 113.333C400.335 113.511 399.849 113.599 399.303 113.599ZM399.303 112.47C399.546 112.47 399.759 112.426 399.942 112.339C400.124 112.249 400.266 112.126 400.368 111.969C400.472 111.811 400.524 111.629 400.524 111.423C400.524 111.212 400.471 111.026 400.364 110.865C400.258 110.702 400.113 110.574 399.931 110.482C399.749 110.387 399.539 110.339 399.303 110.339C399.068 110.339 398.859 110.387 398.674 110.482C398.489 110.574 398.344 110.702 398.237 110.865C398.133 111.026 398.081 111.212 398.081 111.423C398.081 111.629 398.132 111.811 398.234 111.969C398.335 112.126 398.479 112.249 398.663 112.339C398.848 112.426 399.061 112.47 399.303 112.47ZM399.303 109.221C399.506 109.221 399.687 109.179 399.846 109.097C400.004 109.014 400.129 108.899 400.219 108.752C400.309 108.605 400.354 108.436 400.354 108.244C400.354 108.055 400.309 107.889 400.219 107.747C400.129 107.603 400.006 107.49 399.849 107.41C399.693 107.327 399.511 107.286 399.303 107.286C399.097 107.286 398.914 107.327 398.756 107.41C398.597 107.49 398.473 107.603 398.383 107.747C398.295 107.889 398.251 108.055 398.251 108.244C398.251 108.436 398.296 108.605 398.386 108.752C398.476 108.899 398.601 109.014 398.759 109.097C398.918 109.179 399.099 109.221 399.303 109.221ZM403.215 115.545V108.045H404.706V108.962H404.774C404.84 108.815 404.936 108.666 405.062 108.514C405.189 108.36 405.355 108.232 405.559 108.131C405.765 108.027 406.02 107.974 406.326 107.974C406.724 107.974 407.09 108.079 407.427 108.287C407.763 108.493 408.032 108.804 408.233 109.221C408.434 109.635 408.535 110.155 408.535 110.78C408.535 111.388 408.436 111.902 408.24 112.321C408.046 112.738 407.781 113.054 407.444 113.269C407.111 113.482 406.737 113.589 406.322 113.589C406.029 113.589 405.779 113.54 405.573 113.443C405.369 113.346 405.202 113.224 405.072 113.077C404.942 112.928 404.843 112.778 404.774 112.626H404.728V115.545H403.215ZM404.696 110.773C404.696 111.097 404.741 111.38 404.831 111.621C404.921 111.863 405.051 112.051 405.221 112.186C405.392 112.319 405.599 112.385 405.843 112.385C406.089 112.385 406.297 112.317 406.468 112.183C406.638 112.045 406.767 111.856 406.855 111.614C406.945 111.371 406.99 111.09 406.99 110.773C406.99 110.458 406.946 110.181 406.858 109.942C406.771 109.703 406.642 109.516 406.471 109.381C406.301 109.246 406.091 109.178 405.843 109.178C405.597 109.178 405.388 109.243 405.218 109.374C405.05 109.504 404.921 109.688 404.831 109.928C404.741 110.167 404.696 110.448 404.696 110.773ZM410.612 108.045L411.613 109.952L412.64 108.045H414.192L412.611 110.773L414.234 113.5H412.689L411.613 111.614L410.555 113.5H408.993L410.612 110.773L409.05 108.045H410.612Z" fill="white"/>
<line x1="382" y1="104.5" x2="389" y2="104.5" stroke="#E8178A"/>
<line x1="382" y1="111.5" x2="389" y2="111.5" stroke="#E8178A"/>
</svg>
