<svg width="231" height="92" viewBox="0 0 231 92" fill="none" xmlns="http://www.w3.org/2000/svg">
<path d="M38.3189 48V47.5H37.8189H5C2.51472 47.5 0.5 49.5147 0.5 52V86C0.5 88.4853 2.51471 90.5 5 90.5H37.8189H38.3189V90V48Z" fill="#E4E7EC"/>
<path d="M25.819 75.5883L17 75.5883C14.7909 75.5883 13 73.7974 13 71.5883L13 66.4118C13 64.2027 14.7909 62.4118 17 62.4118L25.819 62.4118L25.819 75.5883Z" fill="#E4E7EC"/>
<path fill-rule="evenodd" clip-rule="evenodd" d="M24.2166 69C24.2166 69.1092 24.1743 69.2139 24.0992 69.2911C24.0241 69.3684 23.9222 69.4117 23.816 69.4117L15.0029 69.4117C14.8967 69.4117 14.7948 69.3684 14.7197 69.2911C14.6446 69.2139 14.6024 69.1092 14.6024 69C14.6024 68.8908 14.6446 68.786 14.7197 68.7088C14.7948 68.6316 14.8967 68.5882 15.0029 68.5882L23.816 68.5882C23.9222 68.5882 24.0241 68.6316 24.0992 68.7088C24.1743 68.786 24.2166 68.8908 24.2166 69Z" fill="#98A2B3"/>
<path d="M38.3189 48V47.5H37.8189H5C2.51472 47.5 0.5 49.5147 0.5 52V86C0.5 88.4853 2.51471 90.5 5 90.5H37.8189H38.3189V90V48Z" stroke="#98A2B3"/>
<path d="M71.8168 75.2557C70.8396 75.2519 69.9987 75.0114 69.2941 74.5341C68.5934 74.0568 68.0536 73.3655 67.6748 72.4602C67.2998 71.5549 67.1142 70.4659 67.118 69.1932C67.118 67.9242 67.3055 66.8428 67.6805 65.9489C68.0593 65.0549 68.599 64.375 69.2998 63.9091C70.0043 63.4394 70.8434 63.2045 71.8168 63.2045C72.7903 63.2045 73.6274 63.4394 74.3282 63.9091C75.0327 64.3788 75.5744 65.0606 75.9532 65.9545C76.332 66.8447 76.5195 67.9242 76.5157 69.1932C76.5157 70.4697 76.3263 71.5606 75.9475 72.4659C75.5725 73.3712 75.0346 74.0625 74.3339 74.5398C73.6331 75.017 72.7941 75.2557 71.8168 75.2557ZM71.8168 73.2159C72.4835 73.2159 73.0157 72.8807 73.4134 72.2102C73.8112 71.5398 74.0081 70.5341 74.0043 69.1932C74.0043 68.3106 73.9134 67.5758 73.7316 66.9886C73.5536 66.4015 73.2998 65.9602 72.9702 65.6648C72.6445 65.3693 72.26 65.2216 71.8168 65.2216C71.154 65.2216 70.6237 65.553 70.2259 66.2159C69.8282 66.8788 69.6274 67.8712 69.6237 69.1932C69.6237 70.0871 69.7127 70.8333 69.8907 71.4318C70.0725 72.0265 70.3282 72.4735 70.6577 72.7727C70.9873 73.0682 71.3737 73.2159 71.8168 73.2159Z" fill="#344054"/>
<rect x="38.319" y="47.5" width="67" height="43" stroke="#98A2B3"/>
<path d="M105.819 47.5H105.319V48V90V90.5H105.819H138.638C141.123 90.5 143.138 88.4853 143.138 86V52C143.138 49.5147 141.123 47.5 138.638 47.5H105.819Z" fill="#5925DC"/>
<path d="M130.638 75.5883L121.819 75.5883C119.61 75.5883 117.819 73.7974 117.819 71.5883L117.819 66.4118C117.819 64.2027 119.61 62.4118 121.819 62.4118L130.638 62.4118L130.638 75.5883Z" fill="#5925DC"/>
<path fill-rule="evenodd" clip-rule="evenodd" d="M124.228 73.9412C124.122 73.9412 124.02 73.8978 123.945 73.8206C123.87 73.7433 123.828 73.6386 123.828 73.5294L123.828 69.4118L119.822 69.4118C119.716 69.4118 119.614 69.3684 119.539 69.2912C119.464 69.2139 119.421 69.1092 119.421 69C119.421 68.8908 119.464 68.786 119.539 68.7088C119.614 68.6316 119.716 68.5882 119.822 68.5882L123.828 68.5882L123.828 64.4706C123.828 64.3614 123.87 64.2566 123.945 64.1794C124.02 64.1022 124.122 64.0588 124.228 64.0588C124.335 64.0588 124.437 64.1022 124.512 64.1794C124.587 64.2566 124.629 64.3614 124.629 64.4706L124.629 68.5882L128.635 68.5882C128.741 68.5882 128.843 68.6316 128.918 68.7088C128.993 68.786 129.036 68.8908 129.036 69C129.036 69.1092 128.993 69.2139 128.918 69.2912C128.843 69.3684 128.741 69.4118 128.635 69.4118L124.629 69.4118L124.629 73.5294C124.629 73.6386 124.587 73.7433 124.512 73.8206C124.437 73.8978 124.335 73.9412 124.228 73.9412Z" fill="white"/>
<path d="M105.819 47.5H105.319V48V90V90.5H105.819H138.638C141.123 90.5 143.138 88.4853 143.138 86V52C143.138 49.5147 141.123 47.5 138.638 47.5H105.819Z" stroke="#98A2B3"/>
<path d="M151.5 63L151.5 47" stroke="#E8178A"/>
<rect x="162" y="46" width="36" height="18" rx="3" fill="#E8178A"/>
<path d="M171.754 51.7273V59H170.216V53.1868H170.173L168.508 54.2308V52.8672L170.308 51.7273H171.754ZM176.273 59.0994C175.899 59.0971 175.538 59.0343 175.19 58.9112C174.845 58.7881 174.534 58.5881 174.26 58.3111C173.985 58.0341 173.767 57.6671 173.606 57.2102C173.448 56.7533 173.368 56.1922 173.368 55.527C173.371 54.9162 173.441 54.3705 173.578 53.8899C173.718 53.407 173.916 52.9974 174.175 52.6612C174.435 52.325 174.746 52.0694 175.108 51.8942C175.471 51.7166 175.877 51.6278 176.327 51.6278C176.812 51.6278 177.24 51.7225 177.612 51.9119C177.984 52.099 178.282 52.3535 178.507 52.6754C178.734 52.9974 178.872 53.3584 178.919 53.7585H177.403C177.343 53.5052 177.219 53.3063 177.03 53.1619C176.84 53.0175 176.606 52.9453 176.327 52.9453C175.853 52.9453 175.493 53.1513 175.247 53.5632C175.003 53.9751 174.879 54.535 174.874 55.2429H174.924C175.033 55.0275 175.18 54.844 175.364 54.6925C175.551 54.5386 175.763 54.4214 176 54.3409C176.239 54.258 176.491 54.2166 176.756 54.2166C177.187 54.2166 177.571 54.3184 177.907 54.522C178.243 54.7232 178.508 55.0002 178.702 55.353C178.896 55.7057 178.993 56.1094 178.993 56.5639C178.993 57.0563 178.879 57.4943 178.649 57.8778C178.422 58.2614 178.103 58.562 177.694 58.7798C177.287 58.9953 176.813 59.1018 176.273 59.0994ZM176.266 57.892C176.503 57.892 176.715 57.8352 176.902 57.7216C177.089 57.608 177.236 57.4541 177.342 57.2599C177.449 57.0658 177.502 56.848 177.502 56.6065C177.502 56.3651 177.449 56.1484 177.342 55.9567C177.238 55.7649 177.094 55.6122 176.909 55.4986C176.724 55.3849 176.514 55.3281 176.277 55.3281C176.099 55.3281 175.935 55.3613 175.783 55.4276C175.634 55.4938 175.503 55.5862 175.389 55.7045C175.278 55.8229 175.19 55.9602 175.126 56.1165C175.062 56.2704 175.03 56.4349 175.03 56.6101C175.03 56.8445 175.084 57.0587 175.19 57.2528C175.299 57.447 175.446 57.602 175.631 57.718C175.818 57.834 176.029 57.892 176.266 57.892ZM180.098 61.0455V53.5455H181.589V54.4616H181.657C181.723 54.3149 181.819 54.1657 181.944 54.0142C182.072 53.8603 182.238 53.7325 182.442 53.6307C182.648 53.5265 182.903 53.4744 183.209 53.4744C183.606 53.4744 183.973 53.5786 184.309 53.7869C184.646 53.9929 184.914 54.3042 185.116 54.7209C185.317 55.1352 185.417 55.6548 185.417 56.2798C185.417 56.8883 185.319 57.402 185.123 57.821C184.929 58.2377 184.663 58.5537 184.327 58.7692C183.993 58.9822 183.619 59.0888 183.205 59.0888C182.912 59.0888 182.662 59.0402 182.456 58.9432C182.252 58.8461 182.085 58.7242 181.955 58.5774C181.825 58.4283 181.725 58.2779 181.657 58.1264H181.611V61.0455H180.098ZM181.579 56.2727C181.579 56.5971 181.624 56.88 181.714 57.1214C181.804 57.3629 181.934 57.5511 182.104 57.6861C182.275 57.8187 182.482 57.8849 182.726 57.8849C182.972 57.8849 183.18 57.8175 183.351 57.6825C183.521 57.5452 183.65 57.3558 183.738 57.1143C183.828 56.8705 183.873 56.59 183.873 56.2727C183.873 55.9579 183.829 55.6809 183.741 55.4418C183.654 55.2027 183.525 55.0156 183.354 54.8807C183.184 54.7457 182.974 54.6783 182.726 54.6783C182.479 54.6783 182.271 54.7434 182.101 54.8736C181.933 55.0038 181.804 55.1884 181.714 55.4276C181.624 55.6667 181.579 55.9484 181.579 56.2727ZM187.495 53.5455L188.496 55.4524L189.523 53.5455H191.074L189.494 56.2727L191.117 59H189.572L188.496 57.1143L187.438 59H185.876L187.495 56.2727L185.932 53.5455H187.495Z" fill="white"/>
<line x1="155" y1="62.5" x2="148" y2="62.5" stroke="#E8178A"/>
<line x1="155" y1="47.5" x2="148" y2="47.5" stroke="#E8178A"/>
<path d="M151.5 91L151.5 75" stroke="#E8178A"/>
<rect x="162" y="74" width="36" height="18" rx="3" fill="#E8178A"/>
<path d="M171.754 79.7273V87H170.216V81.1868H170.173L168.508 82.2308V80.8672L170.308 79.7273H171.754ZM176.273 87.0994C175.899 87.0971 175.538 87.0343 175.19 86.9112C174.845 86.7881 174.534 86.5881 174.26 86.3111C173.985 86.0341 173.767 85.6671 173.606 85.2102C173.448 84.7533 173.368 84.1922 173.368 83.527C173.371 82.9162 173.441 82.3705 173.578 81.8899C173.718 81.407 173.916 80.9974 174.175 80.6612C174.435 80.325 174.746 80.0694 175.108 79.8942C175.471 79.7166 175.877 79.6278 176.327 79.6278C176.812 79.6278 177.24 79.7225 177.612 79.9119C177.984 80.099 178.282 80.3535 178.507 80.6754C178.734 80.9974 178.872 81.3584 178.919 81.7585H177.403C177.343 81.5052 177.219 81.3063 177.03 81.1619C176.84 81.0175 176.606 80.9453 176.327 80.9453C175.853 80.9453 175.493 81.1513 175.247 81.5632C175.003 81.9751 174.879 82.535 174.874 83.2429H174.924C175.033 83.0275 175.18 82.844 175.364 82.6925C175.551 82.5386 175.763 82.4214 176 82.3409C176.239 82.258 176.491 82.2166 176.756 82.2166C177.187 82.2166 177.571 82.3184 177.907 82.522C178.243 82.7232 178.508 83.0002 178.702 83.353C178.896 83.7057 178.993 84.1094 178.993 84.5639C178.993 85.0563 178.879 85.4943 178.649 85.8778C178.422 86.2614 178.103 86.562 177.694 86.7798C177.287 86.9953 176.813 87.1018 176.273 87.0994ZM176.266 85.892C176.503 85.892 176.715 85.8352 176.902 85.7216C177.089 85.608 177.236 85.4541 177.342 85.2599C177.449 85.0658 177.502 84.848 177.502 84.6065C177.502 84.3651 177.449 84.1484 177.342 83.9567C177.238 83.7649 177.094 83.6122 176.909 83.4986C176.724 83.3849 176.514 83.3281 176.277 83.3281C176.099 83.3281 175.935 83.3613 175.783 83.4276C175.634 83.4938 175.503 83.5862 175.389 83.7045C175.278 83.8229 175.19 83.9602 175.126 84.1165C175.062 84.2704 175.03 84.4349 175.03 84.6101C175.03 84.8445 175.084 85.0587 175.19 85.2528C175.299 85.447 175.446 85.602 175.631 85.718C175.818 85.834 176.029 85.892 176.266 85.892ZM180.098 89.0455V81.5455H181.589V82.4616H181.657C181.723 82.3149 181.819 82.1657 181.944 82.0142C182.072 81.8603 182.238 81.7325 182.442 81.6307C182.648 81.5265 182.903 81.4744 183.209 81.4744C183.606 81.4744 183.973 81.5786 184.309 81.7869C184.646 81.9929 184.914 82.3042 185.116 82.7209C185.317 83.1352 185.417 83.6548 185.417 84.2798C185.417 84.8883 185.319 85.402 185.123 85.821C184.929 86.2377 184.663 86.5537 184.327 86.7692C183.993 86.9822 183.619 87.0888 183.205 87.0888C182.912 87.0888 182.662 87.0402 182.456 86.9432C182.252 86.8461 182.085 86.7242 181.955 86.5774C181.825 86.4283 181.725 86.2779 181.657 86.1264H181.611V89.0455H180.098ZM181.579 84.2727C181.579 84.5971 181.624 84.88 181.714 85.1214C181.804 85.3629 181.934 85.5511 182.104 85.6861C182.275 85.8187 182.482 85.8849 182.726 85.8849C182.972 85.8849 183.18 85.8175 183.351 85.6825C183.521 85.5452 183.65 85.3558 183.738 85.1143C183.828 84.8705 183.873 84.59 183.873 84.2727C183.873 83.9579 183.829 83.6809 183.741 83.4418C183.654 83.2027 183.525 83.0156 183.354 82.8807C183.184 82.7457 182.974 82.6783 182.726 82.6783C182.479 82.6783 182.271 82.7434 182.101 82.8736C181.933 83.0038 181.804 83.1884 181.714 83.4276C181.624 83.6667 181.579 83.9484 181.579 84.2727ZM187.495 81.5455L188.496 83.4524L189.523 81.5455H191.074L189.494 84.2727L191.117 87H189.572L188.496 85.1143L187.438 87H185.876L187.495 84.2727L185.932 81.5455H187.495Z" fill="white"/>
<line x1="155" y1="90.5" x2="148" y2="90.5" stroke="#E8178A"/>
<line x1="155" y1="75.5" x2="148" y2="75.5" stroke="#E8178A"/>
<path d="M5.08452 23.5L1.33878 10.4091H4.36222L6.52912 19.505H6.63778L9.02841 10.4091H11.6172L14.0014 19.5241H14.1165L16.2834 10.4091H19.3068L15.5611 23.5H12.8636L10.3707 14.9411H10.2685L7.78196 23.5H5.08452ZM20.737 23.5V13.6818H23.46V23.5H20.737ZM22.1049 12.4162C21.7001 12.4162 21.3528 12.282 21.063 12.0135C20.7775 11.7408 20.6348 11.4148 20.6348 11.0355C20.6348 10.6605 20.7775 10.3388 21.063 10.0703C21.3528 9.79758 21.7001 9.66122 22.1049 9.66122C22.5098 9.66122 22.8549 9.79758 23.1404 10.0703C23.4302 10.3388 23.5751 10.6605 23.5751 11.0355C23.5751 11.4148 23.4302 11.7408 23.1404 12.0135C22.8549 12.282 22.5098 12.4162 22.1049 12.4162ZM30.8636 13.6818V15.7273H24.951V13.6818H30.8636ZM26.2933 11.3295H29.0163V20.483C29.0163 20.7344 29.0547 20.9304 29.1314 21.071C29.2081 21.2074 29.3146 21.3033 29.451 21.3587C29.5916 21.4141 29.7536 21.4418 29.9368 21.4418C30.0646 21.4418 30.1925 21.4311 30.3203 21.4098C30.4482 21.3842 30.5462 21.3651 30.6143 21.3523L31.0426 23.3786C30.9063 23.4212 30.7145 23.4702 30.4673 23.5256C30.2202 23.5852 29.9197 23.6214 29.5661 23.6342C28.9098 23.6598 28.3345 23.5724 27.8402 23.3722C27.3501 23.1719 26.9688 22.8608 26.696 22.4389C26.4233 22.017 26.2891 21.4844 26.2933 20.8409V11.3295ZM35.5714 17.8239V23.5H32.8484V10.4091H35.4947V15.4141H35.6097C35.8313 14.8345 36.1893 14.3807 36.6836 14.0526C37.1779 13.7202 37.7979 13.554 38.5437 13.554C39.2255 13.554 39.82 13.7031 40.3271 14.0014C40.8384 14.2955 41.2347 14.7195 41.516 15.2734C41.8015 15.8232 41.9421 16.4815 41.9379 17.2486V23.5H39.2148V17.7344C39.2191 17.1293 39.0657 16.6584 38.7546 16.3217C38.4478 15.9851 38.0174 15.8168 37.4634 15.8168C37.0927 15.8168 36.7646 15.8956 36.479 16.0533C36.1978 16.2109 35.9762 16.4411 35.8143 16.7436C35.6566 17.0419 35.5756 17.402 35.5714 17.8239ZM44.0808 23.5V13.6818H46.8038V23.5H44.0808ZM45.4487 12.4162C45.0439 12.4162 44.6966 12.282 44.4068 12.0135C44.1213 11.7408 43.9785 11.4148 43.9785 11.0355C43.9785 10.6605 44.1213 10.3388 44.4068 10.0703C44.6966 9.79758 45.0439 9.66122 45.4487 9.66122C45.8535 9.66122 46.1987 9.79758 46.4842 10.0703C46.774 10.3388 46.9189 10.6605 46.9189 11.0355C46.9189 11.4148 46.774 11.7408 46.4842 12.0135C46.1987 12.282 45.8535 12.4162 45.4487 12.4162ZM51.7081 17.8239V23.5H48.9851V13.6818H51.5803V15.4141H51.6953C51.9126 14.843 52.277 14.3913 52.7884 14.0589C53.2997 13.7223 53.9197 13.554 54.6484 13.554C55.3303 13.554 55.9247 13.7031 56.4318 14.0014C56.9389 14.2997 57.3331 14.7259 57.6143 15.2798C57.8956 15.8295 58.0362 16.4858 58.0362 17.2486V23.5H55.3132V17.7344C55.3175 17.1335 55.1641 16.6648 54.853 16.3281C54.5419 15.9872 54.1136 15.8168 53.5682 15.8168C53.2017 15.8168 52.8778 15.8956 52.5966 16.0533C52.3196 16.2109 52.1023 16.4411 51.9446 16.7436C51.7912 17.0419 51.7124 17.402 51.7081 17.8239ZM69.5707 13.6818V15.7273H63.658V13.6818H69.5707ZM65.0004 11.3295H67.7234V20.483C67.7234 20.7344 67.7617 20.9304 67.8384 21.071C67.9151 21.2074 68.0217 21.3033 68.158 21.3587C68.2987 21.4141 68.4606 21.4418 68.6438 21.4418C68.7717 21.4418 68.8995 21.4311 69.0273 21.4098C69.1552 21.3842 69.2532 21.3651 69.3214 21.3523L69.7496 23.3786C69.6133 23.4212 69.4215 23.4702 69.1744 23.5256C68.9272 23.5852 68.6268 23.6214 68.2731 23.6342C67.6168 23.6598 67.0415 23.5724 66.5472 23.3722C66.0572 23.1719 65.6758 22.8608 65.4031 22.4389C65.1303 22.017 64.9961 21.4844 65.0004 20.8409V11.3295ZM74.2784 17.8239V23.5H71.5554V10.4091H74.2017V15.4141H74.3168C74.5384 14.8345 74.8963 14.3807 75.3906 14.0526C75.8849 13.7202 76.505 13.554 77.2507 13.554C77.9325 13.554 78.527 13.7031 79.0341 14.0014C79.5455 14.2955 79.9418 14.7195 80.223 15.2734C80.5085 15.8232 80.6491 16.4815 80.6449 17.2486V23.5H77.9219V17.7344C77.9261 17.1293 77.7727 16.6584 77.4616 16.3217C77.1548 15.9851 76.7244 15.8168 76.1705 15.8168C75.7997 15.8168 75.4716 15.8956 75.1861 16.0533C74.9048 16.2109 74.6832 16.4411 74.5213 16.7436C74.3636 17.0419 74.2827 17.402 74.2784 17.8239ZM87.2623 23.6918C86.2523 23.6918 85.383 23.4872 84.6543 23.0781C83.9299 22.6648 83.3716 22.081 82.9796 21.3267C82.5875 20.5682 82.3915 19.6712 82.3915 18.6357C82.3915 17.6257 82.5875 16.7393 82.9796 15.9766C83.3716 15.2138 83.9235 14.6193 84.6351 14.1932C85.351 13.767 86.1905 13.554 87.1536 13.554C87.8013 13.554 88.4043 13.6584 88.9625 13.8672C89.525 14.0717 90.0151 14.3807 90.4327 14.794C90.8546 15.2074 91.1827 15.7273 91.4171 16.3537C91.6515 16.9759 91.7686 17.7045 91.7686 18.5398V19.2876H83.4782V17.6001H89.2054C89.2054 17.2081 89.1202 16.8608 88.9498 16.5582C88.7793 16.2557 88.5428 16.0192 88.2402 15.8487C87.9419 15.674 87.5946 15.5866 87.1983 15.5866C86.785 15.5866 86.4185 15.6825 86.0989 15.8743C85.7836 16.0618 85.5364 16.3153 85.3574 16.6349C85.1784 16.9503 85.0868 17.3018 85.0826 17.6896V19.294C85.0826 19.7798 85.1721 20.1996 85.351 20.5533C85.5343 20.907 85.7921 21.1797 86.1245 21.3714C86.4569 21.5632 86.851 21.6591 87.307 21.6591C87.6096 21.6591 87.8865 21.6165 88.138 21.5312C88.3894 21.446 88.6046 21.3182 88.7836 21.1477C88.9625 20.9773 89.0989 20.7685 89.1926 20.5213L91.7111 20.6875C91.5833 21.2926 91.3212 21.821 90.9249 22.2727C90.5328 22.7202 90.0257 23.0696 89.4036 23.321C88.7857 23.5682 88.0719 23.6918 87.2623 23.6918ZM104.2 27.1818V21.9276H104.116C103.989 22.2003 103.808 22.4709 103.573 22.7393C103.343 23.0036 103.043 23.223 102.672 23.3977C102.305 23.5724 101.858 23.6598 101.33 23.6598C100.584 23.6598 99.9084 23.468 99.3033 23.0845C98.7024 22.6967 98.2251 22.1278 97.8714 21.3778C97.522 20.6236 97.3473 19.6989 97.3473 18.6037C97.3473 17.4787 97.5284 16.5433 97.8906 15.7976C98.2528 15.0476 98.7344 14.4872 99.3352 14.1165C99.9403 13.7415 100.603 13.554 101.323 13.554C101.873 13.554 102.331 13.6477 102.697 13.8352C103.068 14.0185 103.366 14.2486 103.592 14.5256C103.822 14.7983 103.997 15.0668 104.116 15.331H104.232V13.6818H106.916V27.1818H104.2ZM102.192 21.4929C102.631 21.4929 103.002 21.3736 103.305 21.1349C103.612 20.892 103.846 20.5533 104.008 20.1186C104.174 19.6839 104.257 19.1747 104.257 18.5909C104.257 18.0071 104.176 17.5 104.014 17.0696C103.852 16.6392 103.618 16.3068 103.311 16.0724C103.004 15.8381 102.631 15.7209 102.192 15.7209C101.745 15.7209 101.368 15.8423 101.061 16.0852C100.754 16.3281 100.522 16.6648 100.364 17.0952C100.207 17.5256 100.128 18.0241 100.128 18.5909C100.128 19.1619 100.207 19.6669 100.364 20.1058C100.526 20.5405 100.759 20.8814 101.061 21.1286C101.368 21.3714 101.745 21.4929 102.192 21.4929ZM115.398 19.3196V13.6818H118.121V23.5H115.507V21.7166H115.405C115.183 22.2919 114.815 22.7543 114.299 23.1037C113.788 23.4531 113.163 23.6278 112.426 23.6278C111.77 23.6278 111.192 23.4787 110.694 23.1804C110.195 22.8821 109.805 22.4581 109.524 21.9084C109.247 21.3587 109.107 20.7003 109.102 19.9332V13.6818H111.825V19.4474C111.83 20.027 111.985 20.4851 112.292 20.8217C112.599 21.1584 113.01 21.3267 113.526 21.3267C113.854 21.3267 114.161 21.2521 114.446 21.103C114.732 20.9496 114.962 20.7237 115.136 20.4254C115.315 20.1271 115.403 19.7585 115.398 19.3196ZM123.099 23.6854C122.473 23.6854 121.915 23.5767 121.425 23.3594C120.934 23.1378 120.547 22.8118 120.261 22.3814C119.98 21.9467 119.839 21.4055 119.839 20.7578C119.839 20.2124 119.939 19.7543 120.14 19.3835C120.34 19.0128 120.613 18.7145 120.958 18.4886C121.303 18.2628 121.695 18.0923 122.134 17.9773C122.577 17.8622 123.042 17.7812 123.528 17.7344C124.099 17.6747 124.559 17.6193 124.908 17.5682C125.258 17.5128 125.511 17.4318 125.669 17.3253C125.827 17.2187 125.905 17.0611 125.905 16.8523V16.8139C125.905 16.4091 125.778 16.0959 125.522 15.8743C125.27 15.6527 124.912 15.5419 124.448 15.5419C123.958 15.5419 123.568 15.6506 123.278 15.8679C122.988 16.081 122.797 16.3494 122.703 16.6733L120.184 16.4688C120.312 15.8722 120.564 15.3565 120.939 14.9219C121.314 14.483 121.797 14.1463 122.39 13.9119C122.986 13.6733 123.677 13.554 124.461 13.554C125.006 13.554 125.528 13.6179 126.027 13.7457C126.53 13.8736 126.975 14.0717 127.363 14.3402C127.755 14.6087 128.064 14.9538 128.29 15.3757C128.515 15.7933 128.628 16.294 128.628 16.8778V23.5H126.046V22.1385H125.969C125.812 22.4453 125.601 22.7159 125.336 22.9503C125.072 23.1804 124.755 23.3615 124.384 23.4936C124.013 23.6214 123.585 23.6854 123.099 23.6854ZM123.879 21.8061C124.28 21.8061 124.633 21.7273 124.94 21.5696C125.247 21.4077 125.488 21.1903 125.662 20.9176C125.837 20.6449 125.925 20.3359 125.925 19.9908V18.9489C125.839 19.0043 125.722 19.0554 125.573 19.1023C125.428 19.1449 125.264 19.1854 125.081 19.2237C124.898 19.2578 124.714 19.2898 124.531 19.3196C124.348 19.3452 124.182 19.3686 124.032 19.3899C123.713 19.4368 123.434 19.5114 123.195 19.6136C122.956 19.7159 122.771 19.8544 122.639 20.0291C122.507 20.1996 122.441 20.4126 122.441 20.6683C122.441 21.0391 122.575 21.3224 122.844 21.5185C123.116 21.7102 123.461 21.8061 123.879 21.8061ZM133.464 17.8239V23.5H130.741V13.6818H133.336V15.4141H133.451C133.669 14.843 134.033 14.3913 134.544 14.0589C135.056 13.7223 135.676 13.554 136.404 13.554C137.086 13.554 137.681 13.7031 138.188 14.0014C138.695 14.2997 139.089 14.7259 139.37 15.2798C139.651 15.8295 139.792 16.4858 139.792 17.2486V23.5H137.069V17.7344C137.073 17.1335 136.92 16.6648 136.609 16.3281C136.298 15.9872 135.869 15.8168 135.324 15.8168C134.958 15.8168 134.634 15.8956 134.352 16.0533C134.075 16.2109 133.858 16.4411 133.7 16.7436C133.547 17.0419 133.468 17.402 133.464 17.8239ZM147.161 13.6818V15.7273H141.248V13.6818H147.161ZM142.59 11.3295H145.313V20.483C145.313 20.7344 145.352 20.9304 145.428 21.071C145.505 21.2074 145.612 21.3033 145.748 21.3587C145.888 21.4141 146.05 21.4418 146.234 21.4418C146.362 21.4418 146.489 21.4311 146.617 21.4098C146.745 21.3842 146.843 21.3651 146.911 21.3523L147.339 23.3786C147.203 23.4212 147.011 23.4702 146.764 23.5256C146.517 23.5852 146.217 23.6214 145.863 23.6342C145.207 23.6598 144.631 23.5724 144.137 23.3722C143.647 23.1719 143.266 22.8608 142.993 22.4389C142.72 22.017 142.586 21.4844 142.59 20.8409V11.3295ZM148.934 23.5V13.6818H151.657V23.5H148.934ZM150.302 12.4162C149.897 12.4162 149.55 12.282 149.26 12.0135C148.975 11.7408 148.832 11.4148 148.832 11.0355C148.832 10.6605 148.975 10.3388 149.26 10.0703C149.55 9.79758 149.897 9.66122 150.302 9.66122C150.707 9.66122 151.052 9.79758 151.338 10.0703C151.627 10.3388 151.772 10.6605 151.772 11.0355C151.772 11.4148 151.627 11.7408 151.338 12.0135C151.052 12.282 150.707 12.4162 150.302 12.4162ZM159.061 13.6818V15.7273H153.148V13.6818H159.061ZM154.491 11.3295H157.214V20.483C157.214 20.7344 157.252 20.9304 157.329 21.071C157.405 21.2074 157.512 21.3033 157.648 21.3587C157.789 21.4141 157.951 21.4418 158.134 21.4418C158.262 21.4418 158.39 21.4311 158.518 21.4098C158.645 21.3842 158.743 21.3651 158.812 21.3523L159.24 23.3786C159.104 23.4212 158.912 23.4702 158.665 23.5256C158.417 23.5852 158.117 23.6214 157.763 23.6342C157.107 23.6598 156.532 23.5724 156.037 23.3722C155.547 23.1719 155.166 22.8608 154.893 22.4389C154.621 22.017 154.486 21.4844 154.491 20.8409V11.3295ZM162.516 27.1818C162.171 27.1818 161.847 27.1541 161.544 27.0987C161.246 27.0476 160.999 26.9815 160.803 26.9006L161.416 24.8679C161.736 24.9659 162.024 25.0192 162.279 25.0277C162.539 25.0362 162.763 24.9766 162.95 24.8487C163.142 24.7209 163.298 24.5036 163.417 24.1967L163.577 23.7812L160.055 13.6818H162.919L164.951 20.892H165.053L167.105 13.6818H169.988L166.172 24.5611C165.989 25.0895 165.74 25.5497 165.424 25.9418C165.113 26.3381 164.719 26.6428 164.242 26.8558C163.764 27.0732 163.189 27.1818 162.516 27.1818ZM180.77 13.6818V15.7273H174.857V13.6818H180.77ZM176.2 11.3295H178.923V20.483C178.923 20.7344 178.961 20.9304 179.038 21.071C179.114 21.2074 179.221 21.3033 179.357 21.3587C179.498 21.4141 179.66 21.4418 179.843 21.4418C179.971 21.4418 180.099 21.4311 180.227 21.4098C180.354 21.3842 180.452 21.3651 180.521 21.3523L180.949 23.3786C180.813 23.4212 180.621 23.4702 180.374 23.5256C180.126 23.5852 179.826 23.6214 179.472 23.6342C178.816 23.6598 178.241 23.5724 177.746 23.3722C177.256 23.1719 176.875 22.8608 176.602 22.4389C176.33 22.017 176.195 21.4844 176.2 20.8409V11.3295ZM186.874 23.6918C185.881 23.6918 185.023 23.4808 184.298 23.0589C183.578 22.6328 183.022 22.0405 182.63 21.282C182.238 20.5192 182.042 19.6349 182.042 18.6293C182.042 17.6151 182.238 16.7287 182.63 15.9702C183.022 15.2074 183.578 14.6151 184.298 14.1932C185.023 13.767 185.881 13.554 186.874 13.554C187.867 13.554 188.724 13.767 189.444 14.1932C190.168 14.6151 190.727 15.2074 191.119 15.9702C191.511 16.7287 191.707 17.6151 191.707 18.6293C191.707 19.6349 191.511 20.5192 191.119 21.282C190.727 22.0405 190.168 22.6328 189.444 23.0589C188.724 23.4808 187.867 23.6918 186.874 23.6918ZM186.887 21.5824C187.339 21.5824 187.716 21.4545 188.018 21.1989C188.321 20.9389 188.549 20.5852 188.702 20.1378C188.86 19.6903 188.939 19.1811 188.939 18.6101C188.939 18.0391 188.86 17.5298 188.702 17.0824C188.549 16.6349 188.321 16.2812 188.018 16.0213C187.716 15.7614 187.339 15.6314 186.887 15.6314C186.431 15.6314 186.048 15.7614 185.737 16.0213C185.43 16.2812 185.197 16.6349 185.04 17.0824C184.886 17.5298 184.81 18.0391 184.81 18.6101C184.81 19.1811 184.886 19.6903 185.04 20.1378C185.197 20.5852 185.43 20.9389 185.737 21.1989C186.048 21.4545 186.431 21.5824 186.887 21.5824ZM197.901 27.3864C197.018 27.3864 196.262 27.2649 195.631 27.022C195.005 26.7834 194.506 26.4574 194.136 26.044C193.765 25.6307 193.524 25.1662 193.413 24.6506L195.932 24.3118C196.009 24.5078 196.13 24.6911 196.296 24.8615C196.462 25.032 196.682 25.1683 196.955 25.2706C197.232 25.3771 197.568 25.4304 197.964 25.4304C198.557 25.4304 199.045 25.2855 199.428 24.9957C199.816 24.7102 200.01 24.2308 200.01 23.5575V21.7614H199.895C199.776 22.0341 199.597 22.2919 199.358 22.5348C199.119 22.7777 198.812 22.9759 198.438 23.1293C198.062 23.2827 197.615 23.3594 197.095 23.3594C196.358 23.3594 195.687 23.1889 195.082 22.848C194.481 22.5028 194.001 21.9766 193.643 21.2692C193.29 20.5575 193.113 19.6584 193.113 18.5717C193.113 17.4595 193.294 16.5305 193.656 15.7848C194.018 15.0391 194.5 14.4808 195.101 14.1101C195.706 13.7393 196.369 13.554 197.089 13.554C197.638 13.554 198.099 13.6477 198.469 13.8352C198.84 14.0185 199.138 14.2486 199.364 14.5256C199.594 14.7983 199.771 15.0668 199.895 15.331H199.997V13.6818H202.701V23.5959C202.701 24.4311 202.496 25.13 202.087 25.6925C201.678 26.255 201.112 26.6768 200.387 26.9581C199.667 27.2436 198.838 27.3864 197.901 27.3864ZM197.958 21.3139C198.397 21.3139 198.768 21.2053 199.07 20.9879C199.377 20.7663 199.612 20.451 199.773 20.0419C199.94 19.6286 200.023 19.1342 200.023 18.5589C200.023 17.9837 199.942 17.4851 199.78 17.0632C199.618 16.6371 199.384 16.3068 199.077 16.0724C198.77 15.8381 198.397 15.7209 197.958 15.7209C197.511 15.7209 197.134 15.8423 196.827 16.0852C196.52 16.3239 196.288 16.6562 196.13 17.0824C195.972 17.5085 195.893 18.0007 195.893 18.5589C195.893 19.1257 195.972 19.6158 196.13 20.0291C196.292 20.4382 196.524 20.7557 196.827 20.9815C197.134 21.2031 197.511 21.3139 197.958 21.3139ZM209.291 27.3864C208.409 27.3864 207.653 27.2649 207.022 27.022C206.396 26.7834 205.897 26.4574 205.526 26.044C205.156 25.6307 204.915 25.1662 204.804 24.6506L207.322 24.3118C207.399 24.5078 207.521 24.6911 207.687 24.8615C207.853 25.032 208.072 25.1683 208.345 25.2706C208.622 25.3771 208.959 25.4304 209.355 25.4304C209.947 25.4304 210.435 25.2855 210.819 24.9957C211.207 24.7102 211.401 24.2308 211.401 23.5575V21.7614H211.286C211.166 22.0341 210.987 22.2919 210.749 22.5348C210.51 22.7777 210.203 22.9759 209.828 23.1293C209.453 23.2827 209.006 23.3594 208.486 23.3594C207.749 23.3594 207.077 23.1889 206.472 22.848C205.871 22.5028 205.392 21.9766 205.034 21.2692C204.68 20.5575 204.504 19.6584 204.504 18.5717C204.504 17.4595 204.685 16.5305 205.047 15.7848C205.409 15.0391 205.891 14.4808 206.491 14.1101C207.097 13.7393 207.759 13.554 208.479 13.554C209.029 13.554 209.489 13.6477 209.86 13.8352C210.231 14.0185 210.529 14.2486 210.755 14.5256C210.985 14.7983 211.162 15.0668 211.286 15.331H211.388V13.6818H214.092V23.5959C214.092 24.4311 213.887 25.13 213.478 25.6925C213.069 26.255 212.502 26.6768 211.778 26.9581C211.058 27.2436 210.229 27.3864 209.291 27.3864ZM209.349 21.3139C209.788 21.3139 210.158 21.2053 210.461 20.9879C210.768 20.7663 211.002 20.451 211.164 20.0419C211.33 19.6286 211.413 19.1342 211.413 18.5589C211.413 17.9837 211.332 17.4851 211.17 17.0632C211.009 16.6371 210.774 16.3068 210.467 16.0724C210.161 15.8381 209.788 15.7209 209.349 15.7209C208.901 15.7209 208.524 15.8423 208.217 16.0852C207.911 16.3239 207.678 16.6562 207.521 17.0824C207.363 17.5085 207.284 18.0007 207.284 18.5589C207.284 19.1257 207.363 19.6158 207.521 20.0291C207.683 20.4382 207.915 20.7557 208.217 20.9815C208.524 21.2031 208.901 21.3139 209.349 21.3139ZM218.982 10.4091V23.5H216.259V10.4091H218.982ZM225.637 23.6918C224.627 23.6918 223.758 23.4872 223.029 23.0781C222.305 22.6648 221.747 22.081 221.355 21.3267C220.963 20.5682 220.767 19.6712 220.767 18.6357C220.767 17.6257 220.963 16.7393 221.355 15.9766C221.747 15.2138 222.298 14.6193 223.01 14.1932C223.726 13.767 224.566 13.554 225.529 13.554C226.176 13.554 226.779 13.6584 227.338 13.8672C227.9 14.0717 228.39 14.3807 228.808 14.794C229.23 15.2074 229.558 15.7273 229.792 16.3537C230.026 16.9759 230.144 17.7045 230.144 18.5398V19.2876H221.853V17.6001H227.58C227.58 17.2081 227.495 16.8608 227.325 16.5582C227.154 16.2557 226.918 16.0192 226.615 15.8487C226.317 15.674 225.97 15.5866 225.573 15.5866C225.16 15.5866 224.794 15.6825 224.474 15.8743C224.159 16.0618 223.911 16.3153 223.732 16.6349C223.553 16.9503 223.462 17.3018 223.458 17.6896V19.294C223.458 19.7798 223.547 20.1996 223.726 20.5533C223.909 20.907 224.167 21.1797 224.499 21.3714C224.832 21.5632 225.226 21.6591 225.682 21.6591C225.985 21.6591 226.262 21.6165 226.513 21.5312C226.764 21.446 226.98 21.3182 227.159 21.1477C227.338 20.9773 227.474 20.7685 227.568 20.5213L230.086 20.6875C229.958 21.2926 229.696 21.821 229.3 22.2727C228.908 22.7202 228.401 23.0696 227.779 23.321C227.161 23.5682 226.447 23.6918 225.637 23.6918Z" fill="#344054"/>
<rect y="47" width="144" height="16" fill="#E8178A" fill-opacity="0.24"/>
<rect y="75" width="144" height="16" fill="#E8178A" fill-opacity="0.24"/>
</svg>
