<svg height="60" width="197" xmlns="http://www.w3.org/2000/svg"><mask id="a" fill="#fff"><path d="M.725.602h59.779v18.24H.725z" fill="none"/></mask><mask id="b" fill="#fff"><path d="M.195.125h45.931v59.218H.196z" fill="none"/></mask><g fill="none" fill-rule="evenodd"><path d="M25.777 42.413c-3.141 0-6.007-2.325-6.007-6.641 0-4.344 2.866-6.643 6.007-6.643 3.146 0 6.034 2.299 6.034 6.643 0 4.316-2.888 6.641-6.034 6.641zm0-15.748c-4.4 0-8.804 3.638-8.804 9.107 0 5.466 4.404 9.108 8.804 9.108 4.403 0 8.829-3.642 8.829-9.108 0-5.47-4.426-9.107-8.829-9.107zm23.502.113L43.411 40.35l-5.64-13.57h-2.98l7.22 17.183s.33.8 1.4.8c1.027 0 1.373-.8 1.373-.8l7.479-17.184zm-39.663 2.16c1.324 0 2.674.261 3.802.773l.907-1.382c-1.004-.679-2.892-1.688-5.323-1.688-5.42 0-9 4.39-9 9.107 0 5.164 3.752 9.132 9.346 9.132 2.037 0 4.977-.469 4.977-2.723v-6.41h-2.648v5.587c0 1.08-1.323 1.175-2.133 1.175-3.29 0-6.6-2.138-6.6-6.761 0-4.58 3.337-6.81 6.672-6.81z" fill="#4d4d4f"/><path d="M57.707.741V8.49h-8.616V.741h-2.794v17.985h2.794v-7.772h8.616v7.772h2.797V.74zm-18.765 2.16c1.259 0 2.542.26 3.611.778l.862-1.387c-.954-.68-2.75-1.691-5.055-1.691-5.15 0-8.547 4.39-8.547 9.108 0 5.166 3.773 9.134 8.547 9.134 2.005 0 3.82-.805 5.055-1.718l-.886-1.386c-1.024.539-2.328.779-3.587.779-3.143 0-6.334-2.182-6.334-6.809 0-4.58 3.168-6.808 6.334-6.808zm-22.6.847v11.948c0 2.77 2.702 3.03 4.284 3.03h6.94v-2.378h-6.405c-1.349 0-2.026-.16-2.026-1.708v-3.736h7.92V8.536h-7.92V4.829c0-1.55.677-1.72 2.026-1.72h6.405V.742h-6.94c-1.582 0-4.284.237-4.284 3.007zM.725 3.11h5.172v15.616H8.69V3.11h5.17V.74H.725z" fill="#9e9e9e" mask="url(#a)" transform="translate(53.517 26.038)"/><path d="M94.806 58.454c-1.632 0-2.212-1.432-2.212-2.664 0-1.32.677-2.653 2.195-2.653h.033c1.516 0 2.196 1.333 2.196 2.653 0 1.232-.58 2.664-2.212 2.664zm0-6.323c-2.028 0-3.39 1.468-3.39 3.659 0 2.23 1.33 3.67 3.39 3.67s3.392-1.44 3.392-3.67c0-2.191-1.365-3.66-3.392-3.66zm-8.788 3.42h-.915v-2.297h.776c.588 0 1.462.302 1.462 1.133 0 .858-.716 1.163-1.323 1.163zm-.157-3.304h-1.876v7.094h1.118v-2.784h.905c1.573 0 2.509-.808 2.509-2.16 0-1.405-.92-2.15-2.656-2.15zM76.08 56.64l1.28-3.219 1.283 3.219zm1.877-4.393h-1.124l-3.004 7.094h1.179l.703-1.755h3.297l.703 1.755h1.22l-2.958-7.056zm25.576 2.996h-.779v-1.989h.888c.839 0 1.32.355 1.32.966 0 .64-.536 1.023-1.429 1.023zm1.292.57c.794-.203 1.318-.834 1.318-1.616 0-1.716-1.392-1.95-2.75-1.95h-1.756v7.094h1.117v-3.09h.53c.524 0 .812 0 1.102.635l1.073 2.455h1.272l-1.349-2.87c-.185-.36-.326-.538-.557-.659zm9.093-2.559v-1.007h-3.997v7.094h3.997v-1.01h-2.88v-2.163h2.624v-1.004h-2.625v-1.91zm-45.615 3.094h1.454v1.998c-.026.007-.046.007-.066.013-.205.048-.412.095-.978.095-1.47 0-2.539-1.117-2.539-2.664 0-1.56 1.06-2.653 2.588-2.653.817 0 1.36.137 1.864.466l.092.063.09-1.17-.045-.015c-.57-.196-1.015-.35-2.05-.35-2.19 0-3.719 1.493-3.719 3.631 0 2.25 1.457 3.699 3.709 3.699.82 0 1.517-.101 2.128-.313l.044-.016V55.4h-2.572zm-17.25 2.993h1.119v-7.094h-1.118zm9.48-1.637l-2.946-5.426-.018-.031h-1.448v7.094h1.118v-5.578l3.027 5.545.019.033h1.368v-7.094h-1.12zm-14.741-2.606c-.617-.302-1.151-.561-1.151-1.097 0-.783.802-.864 1.144-.864.5 0 .774.081 1.272.284l.076.029.158-1.048-.05-.019a4.574 4.574 0 00-1.496-.252c-1.385 0-2.283.768-2.283 1.96 0 1.212.906 1.639 1.704 2.02.682.32 1.267.595 1.267 1.273 0 .785-.773 1.07-1.292 1.07-.561 0-1.224-.26-1.41-.335l-.08-.036-.112 1.068.047.012c.43.145.933.298 1.436.298 1.645 0 2.586-.778 2.586-2.137 0-1.343-1.005-1.834-1.816-2.226z" fill="#4d4d4f"/><path d="M170.5 9.844a.399.399 0 01-.393-.399.39.39 0 01.4-.388c.212 0 .386.178.386.393a.397.397 0 01-.393.394zm-1.96-.346a.396.396 0 01.374-.41.394.394 0 01.036.788h-.015a.398.398 0 01-.395-.378zm3.512.393a.393.393 0 01-.372-.414.393.393 0 11.392.414zm-5.076-.258a.392.392 0 11.43.352c-.011.006-.025.006-.037.006a.4.4 0 01-.393-.358zm6.62.379a.391.391 0 01-.35-.43.384.384 0 01.428-.351c.214.02.37.214.35.429a.39.39 0 01-.389.352zm-8.175-.153a.398.398 0 01.328-.45.406.406 0 01.453.329.405.405 0 01-.331.452c-.022 0-.042.006-.056.006a.398.398 0 01-.394-.337zm9.714.346a.394.394 0 01.115-.78c.215.03.36.235.331.45a.393.393 0 01-.39.336c-.02 0-.036-.006-.056-.006zm1.532.259a.39.39 0 01-.312-.458.394.394 0 01.461-.315c.214.042.35.246.309.463a.394.394 0 01-.384.32.348.348 0 01-.074-.01zm-12.782-.284a.396.396 0 01.298-.473.396.396 0 01.17.771c-.027.006-.052.006-.085.006a.395.395 0 01-.383-.304zm14.302.614a.397.397 0 01-.292-.478.388.388 0 01.471-.288.393.393 0 01-.179.766zm-15.814-.205a.387.387 0 01.268-.484v-.004a.395.395 0 01.485.274.398.398 0 01-.265.488.389.389 0 01-.488-.274zm17.317.592a.392.392 0 01.21-.754.384.384 0 01.27.48.387.387 0 01-.48.274zm-18.803-.079a.396.396 0 01.235-.507.391.391 0 01.502.24.393.393 0 01-.236.505.395.395 0 01-.501-.238zm20.29.531a.387.387 0 01-.251-.491.385.385 0 01.492-.254.39.39 0 01.253.493.388.388 0 01-.494.252zm-21.736.073c-.09-.2 0-.43.2-.518a.394.394 0 11.157.755.385.385 0 01-.357-.237zm23.199.446a.388.388 0 01-.225-.508.39.39 0 01.501-.232c.203.08.31.306.229.51a.39.39 0 01-.505.23zm-24.602.258a.39.39 0 01.163-.531.397.397 0 01.533.168.395.395 0 01-.353.573.38.38 0 01-.343-.21zm26.042.325a.393.393 0 01-.206-.518c.09-.2.32-.29.519-.2.199.082.287.314.199.513a.38.38 0 01-.357.237.397.397 0 01-.155-.032zm-27.4.472a.399.399 0 01.13-.54.384.384 0 01.54.13.389.389 0 01-.332.598.398.398 0 01-.339-.188zm28.793.195a.394.394 0 01-.169-.532.383.383 0 01.528-.166c.195.1.268.336.17.53a.394.394 0 01-.353.208.36.36 0 01-.176-.04zm1.308.776a.393.393 0 11.545-.1.399.399 0 01-.545.1zm-31.395-.084a.397.397 0 01.097-.552.388.388 0 01.544.096.395.395 0 01-.095.55.394.394 0 01-.224.07.393.393 0 01-.322-.164zm-1.233.97a.396.396 0 01.058-.556.393.393 0 01.49.614.386.386 0 01-.247.084.386.386 0 01-.301-.142zm33.828.052a.39.39 0 11.512-.592.393.393 0 01-.257.692.369.369 0 01-.255-.1zm-35.001.991a.391.391 0 01.025-.554.388.388 0 01.555.027.391.391 0 01-.287.653.392.392 0 01-.293-.126zm36.103.074a.392.392 0 01.018-.555.388.388 0 01.553.015.397.397 0 01-.015.557.381.381 0 01-.271.105.389.389 0 01-.285-.122zm-37.204 1.045a.392.392 0 01-.01-.556.39.39 0 01.555-.012c.152.154.157.4.01.558a.4.4 0 01-.283.12.384.384 0 01-.272-.11zm38.222.116a.388.388 0 01.058-.552.385.385 0 01.548.053.396.396 0 01-.303.646.393.393 0 01-.303-.147zm-39.259 1.064a.394.394 0 01-.043-.551.39.39 0 01.553-.046c.166.14.187.388.046.556a.403.403 0 01-.298.135.371.371 0 01-.258-.094zm40.19.167a.393.393 0 01.096-.55.399.399 0 01.549.095.398.398 0 01-.093.551.39.39 0 01-.552-.096zm-41.153 1.07a.389.389 0 01-.078-.545.39.39 0 01.55-.079.395.395 0 01-.236.71.357.357 0 01-.236-.085zm42.012.222a.389.389 0 01.126-.541.388.388 0 01.54.127.392.392 0 01-.666.414zm-42.924 1.085a.396.396 0 01-.104-.544.39.39 0 01.555-.12c.178.12.225.366.103.544-.004.006-.004.011-.007.017a.405.405 0 01-.327.172.373.373 0 01-.22-.069zm43.706.253a.396.396 0 01.15-.536.394.394 0 01.534.159.393.393 0 01-.151.533.39.39 0 01-.533-.156zm-44.611 1.033a.404.404 0 01-.096-.551.4.4 0 01.553-.088.388.388 0 01.091.545.391.391 0 01-.548.094zm45.32.347a.395.395 0 01.18-.526.4.4 0 01.53.184.396.396 0 01-.357.567.39.39 0 01-.352-.225zm-46.242.928a.39.39 0 01-.084-.55.382.382 0 01.545-.084.394.394 0 01.089.55.398.398 0 01-.55.084zm46.883.488a.4.4 0 01.21-.52.394.394 0 01.303.73.388.388 0 01-.513-.21zm-47.82.771a.392.392 0 01-.079-.55v.004a.393.393 0 01.55-.083c.173.13.206.377.077.551a.391.391 0 01-.548.078zm48.39.672a.391.391 0 01.23-.503.4.4 0 01.509.234.395.395 0 01-.236.505.424.424 0 01-.137.02.385.385 0 01-.366-.256zm-49.338.588a.393.393 0 01-.078-.551.393.393 0 11.626.472.381.381 0 01-.313.159.382.382 0 01-.235-.08zm49.83.886a.395.395 0 11.756-.23.395.395 0 01-.263.49.34.34 0 01-.115.02.401.401 0 01-.378-.28zm-50.783.363a.393.393 0 11.55-.073.4.4 0 01-.315.156.36.36 0 01-.235-.083zm-.96 1.249a.395.395 0 01-.073-.551.396.396 0 01.553-.074c.17.13.202.378.072.551a.373.373 0 01-.31.156.394.394 0 01-.241-.082zm52.164-.117a.392.392 0 11.758-.193v.005a.39.39 0 01-.284.472c-.03.01-.067.01-.1.01a.383.383 0 01-.374-.294zm-53.116 1.364a.393.393 0 01.477-.623c.173.13.204.377.074.55a.39.39 0 01-.315.158.357.357 0 01-.236-.085zm53.445.147c-.042-.21.1-.42.313-.455.216-.043.42.1.458.313a.39.39 0 01-.317.458.273.273 0 01-.067.01.398.398 0 01-.387-.326zm-54.392 1.114a.395.395 0 01.471-.631.393.393 0 01-.471.631zm54.627.419a.39.39 0 01.34-.44.394.394 0 11.095.781c-.017.006-.033.006-.047.006a.39.39 0 01-.388-.347zm-55.564.845a.4.4 0 01-.084-.552.387.387 0 01.549-.083c.173.126.21.373.085.55a.398.398 0 01-.55.085zm55.69.691a.383.383 0 01.372-.407.392.392 0 11.038.781l-.013.005a.394.394 0 01-.397-.379zm-56.606.583a.394.394 0 01-.095-.55.4.4 0 01.55-.089.39.39 0 01.088.546.381.381 0 01-.32.167.397.397 0 01-.223-.074zm-.89 1.297a.393.393 0 01.439-.651.39.39 0 01.103.545.383.383 0 01-.323.174.382.382 0 01-.22-.068zm57.863.068a.391.391 0 01-.373-.41.393.393 0 01.416-.377c.213.01.38.2.371.414a.397.397 0 01-.393.373zm-58.702 1.264a.398.398 0 01-.133-.546.396.396 0 01.542-.126.393.393 0 01-.41.672zm58.498.294a.387.387 0 01-.324-.45.389.389 0 01.449-.326.388.388 0 01.323.45.389.389 0 01-.386.33c-.02 0-.04 0-.062-.004zm-59.264 1.08a.394.394 0 01.368-.696.395.395 0 01-.185.743.372.372 0 01-.183-.046zm58.855.44a.394.394 0 11.228-.754.394.394 0 01-.228.755zm-59.47 1.002a.39.39 0 01-.228-.507.394.394 0 01.733.283.392.392 0 01-.506.224zm58.81.427a.401.401 0 01-.168-.535h.006a.393.393 0 01.529-.168c.187.106.26.342.162.535h.006a.405.405 0 01-.534.168zm-59.08 1.122a.392.392 0 01-.36-.418.39.39 0 01.42-.369.392.392 0 01.36.422.39.39 0 01-.393.365zm58.148.137a.397.397 0 01-.052-.555.392.392 0 01.554-.048.392.392 0 01.048.555.391.391 0 01-.298.143.386.386 0 01-.252-.095zm-1.168 1.054a.4.4 0 01.052-.556.385.385 0 01.549.051.392.392 0 01-.044.551.403.403 0 01-.557-.046zm-16.758-.147a.398.398 0 01.388-.404.394.394 0 01.398.39.391.391 0 01-.38.398h-.013a.397.397 0 01-.393-.384zm-40.058.294a.39.39 0 01.032-.556.39.39 0 01.555.027.394.394 0 01-.587.529zm41.981.151a.39.39 0 01-.35-.43.388.388 0 01.428-.35.39.39 0 01.35.429.39.39 0 01-.386.351zm-3.477-.24a.392.392 0 11.775-.137.393.393 0 01-.32.456c-.02.006-.046.006-.067.006a.4.4 0 01-.388-.324zm5.002.456a.394.394 0 01-.32-.455.395.395 0 01.454-.32.39.39 0 01.32.454c-.03.19-.2.326-.386.326-.021 0-.042-.005-.068-.005zm-6.499.011a.393.393 0 11.737-.268.395.395 0 01-.367.53.391.391 0 01-.37-.262zm8.02.294a.392.392 0 01.17-.766h.004a.389.389 0 01.294.466.386.386 0 01-.383.31c-.025 0-.057 0-.085-.01zm10.454.005a.392.392 0 01.157-.535.39.39 0 01.534.156c.104.19.033.43-.158.537a.397.397 0 01-.533-.158zm-8.929.345v.007a.403.403 0 01-.293-.478.396.396 0 01.47-.293.39.39 0 01.295.47.39.39 0 01-.379.307c-.03 0-.06 0-.093-.013zm-45.323.06a.408.408 0 01-.066-.558c.136-.166.38-.2.55-.067a.396.396 0 01.073.55.396.396 0 01-.314.154.415.415 0 01-.243-.079zm34.39.026a.396.396 0 01.142-.541.392.392 0 01.533.147.39.39 0 01-.334.587.38.38 0 01-.341-.193zm12.473.266a.4.4 0 01-.303-.465.392.392 0 11.77.16.39.39 0 01-.384.312c-.027 0-.053 0-.083-.007zm5.918-.162a.395.395 0 01.261-.494.394.394 0 01.486.269.39.39 0 01-.376.503.385.385 0 01-.371-.278zm-4.352.45a.394.394 0 11.45-.33.399.399 0 01-.388.337c-.022 0-.043-.006-.062-.006zm2.795-.224a.393.393 0 01.782-.078.394.394 0 01-.352.433h-.036c-.2 0-.373-.15-.394-.355zm-1.192.389a.385.385 0 01-.372-.41.391.391 0 01.409-.378c.214.017.38.2.371.414a.394.394 0 01-.392.374zm-48.712.171a.388.388 0 01-.119-.539.389.389 0 01.54-.126.392.392 0 01.123.54.397.397 0 01-.333.189.388.388 0 01-.21-.064zm31.703-.12a.385.385 0 01.163-.53.385.385 0 01.529.164.397.397 0 01-.164.534.444.444 0 01-.183.041.377.377 0 01-.345-.209zm-1.43.652a.393.393 0 11.72-.316.396.396 0 01-.365.55.388.388 0 01-.356-.234zm-28.874.26a.393.393 0 11.357-.704.393.393 0 01-.357.704zm27.401.295a.4.4 0 01.237-.503.391.391 0 01.503.236.392.392 0 01-.236.504.433.433 0 01-.132.026c-.16 0-.313-.1-.372-.263zm-25.946.377a.391.391 0 01-.213-.513.39.39 0 01.511-.216.4.4 0 01.214.516.386.386 0 01-.364.241.472.472 0 01-.148-.028zm24.454.105a.388.388 0 01.263-.486h-.005a.39.39 0 01.493.255.4.4 0 01-.257.494.399.399 0 01-.494-.263zm-22.962.458v-.005a.392.392 0 11.127.02.58.58 0 01-.127-.015zm21.45-.042a.394.394 0 01.278-.482.399.399 0 01.48.281.4.4 0 01-.28.484.396.396 0 01-.478-.283zm-19.924.504a.399.399 0 01-.28-.484.395.395 0 01.761.205.394.394 0 01-.377.29c-.036 0-.069-.007-.104-.011zm18.39-.159a.397.397 0 01.303-.468.394.394 0 11.16.771h.009c-.033.007-.06.007-.084.007a.397.397 0 01-.388-.31zm-16.84.531a.393.393 0 01-.305-.467.39.39 0 01.467-.304.402.402 0 01.303.466.396.396 0 01-.387.316c-.026 0-.053-.006-.079-.011zm15.3-.237c-.04-.215.1-.42.315-.456.215-.042.418.1.455.314a.39.39 0 01-.315.457c-.025.007-.046.007-.072.007a.39.39 0 01-.383-.322zm-13.74.53a.39.39 0 01-.325-.451.388.388 0 01.45-.325.39.39 0 01.324.45.392.392 0 01-.388.332c-.018 0-.04 0-.06-.006zm12.185-.298a.396.396 0 01.335-.447.4.4 0 01.446.337.4.4 0 01-.335.445c-.022 0-.038.006-.06.006a.39.39 0 01-.386-.341zm-10.614.519a.393.393 0 01-.346-.436.388.388 0 01.435-.345h.005c.209.026.367.22.342.433a.394.394 0 01-.391.348zm9.053-.342a.396.396 0 01.353-.43.4.4 0 01.433.352.393.393 0 01-.35.43c-.017 0-.027.006-.042.006a.402.402 0 01-.394-.358zm-7.472.492a.398.398 0 01-.368-.424.402.402 0 01.426-.361.396.396 0 01.362.426.395.395 0 01-.394.36zm5.913-.365a.39.39 0 11.78-.053.39.39 0 01-.365.418h-.023a.389.389 0 01-.392-.365zm-1.573.073a.398.398 0 01.384-.41.394.394 0 01.024.786l-.013.001a.399.399 0 01-.395-.377zm-2.759.377a.389.389 0 01-.377-.404.386.386 0 01.402-.377c.221.004.39.19.384.404a.393.393 0 01-.394.377zm1.58.033a.392.392 0 01-.387-.394.394.394 0 11.394.394z" fill="#b41e8e"/><path d="M166.37 8.32a.4.4 0 01.389-.395c.222 0 .4.17.4.382a.387.387 0 01-.388.395h-.005a.394.394 0 01-.396-.383zm1.955.404a.393.393 0 01-.38-.405.392.392 0 01.412-.368c.219.005.39.185.377.405a.388.388 0 01-.393.373c-.007 0-.011 0-.016-.005zm-3.53-.32a.394.394 0 01.368-.417.393.393 0 01.42.363c.017.213-.15.4-.366.416h-.029a.392.392 0 01-.393-.363zm5.088.42a.394.394 0 01-.363-.42.396.396 0 01.79.066.395.395 0 01-.394.357c-.012 0-.02-.003-.033-.003zm-6.653-.246a.381.381 0 01.338-.435.385.385 0 01.441.336.388.388 0 01-.336.438h-.053a.386.386 0 01-.39-.34zm8.203.417a.395.395 0 01-.342-.438.39.39 0 01.442-.337.393.393 0 01.343.435.393.393 0 01-.392.34zm-9.758-.142a.386.386 0 01.31-.456.39.39 0 11.155.764c-.03.005-.053.005-.074.005a.39.39 0 01-.391-.313zm11.3.368a.389.389 0 11.133-.767.391.391 0 01.327.446.395.395 0 01-.39.327c-.02 0-.047-.006-.07-.006zm1.54.283a.39.39 0 01-.311-.458.4.4 0 01.469-.306c.216.047.354.25.307.461a.394.394 0 01-.466.303zm-14.367-.27a.386.386 0 01.277-.48.395.395 0 01.482.276.386.386 0 01-.276.479.8.8 0 01-.104.008.39.39 0 01-.38-.284zm15.896.601a.393.393 0 01-.297-.466.405.405 0 01.48-.291h-.005c.215.05.348.26.295.472a.393.393 0 01-.383.295c-.033 0-.058 0-.09-.01zm-17.398-.12a.388.388 0 01.247-.494.394.394 0 01.5.242.383.383 0 01-.243.493.416.416 0 01-.13.026.4.4 0 01-.374-.267zm18.919.494a.385.385 0 01-.283-.472.402.402 0 01.485-.28.39.39 0 01.279.477.395.395 0 01-.383.291.316.316 0 01-.098-.016zm-20.373.104a.388.388 0 01.206-.514.4.4 0 01.522.203.389.389 0 01-.208.508.326.326 0 01-.156.038.4.4 0 01-.364-.235zm21.885.308a.392.392 0 01-.272-.484.393.393 0 01.489-.265c.21.057.333.27.274.478a.403.403 0 01-.49.271zm1.513.43a.386.386 0 01-.268-.483.393.393 0 01.49-.265.388.388 0 01-.11.764.391.391 0 01-.112-.016zm-24.806-.035a.398.398 0 01.164-.532.402.402 0 01.537.167c.1.188.027.42-.168.524a.398.398 0 01-.533-.159zm26.325.472a.385.385 0 01-.27-.483.384.384 0 01.485-.265c.21.056.332.27.274.477a.407.407 0 01-.38.286.438.438 0 01-.11-.015zm1.532.4a.388.388 0 01-.28-.478.386.386 0 01.48-.275.39.39 0 01.285.473.402.402 0 01-.386.29c-.03 0-.067 0-.1-.01zm-29.205-.067a.396.396 0 01.12-.54.404.404 0 01.55.124.38.38 0 01-.124.534.397.397 0 01-.208.063.41.41 0 01-.338-.181zm30.642.55a.389.389 0 01-.209-.515.395.395 0 01.516-.207c.2.087.293.31.21.513a.4.4 0 01-.517.21zm-31.929.353a.39.39 0 01.084-.545.4.4 0 01.554.076.382.382 0 01-.083.546.384.384 0 01-.232.079.422.422 0 01-.323-.156zm33.29.316a.385.385 0 01-.143-.529.397.397 0 01.542-.14.38.38 0 01.144.529.39.39 0 01-.343.192.387.387 0 01-.2-.052zm-34.5.677a.392.392 0 01.042-.552.4.4 0 01.559.042c.141.16.12.411-.042.546a.387.387 0 01-.258.098.41.41 0 01-.301-.134zm35.775.16a.385.385 0 01-.079-.545.395.395 0 01.55-.078c.177.13.215.374.083.545a.398.398 0 01-.317.155.393.393 0 01-.237-.077zm-36.916.909a.393.393 0 010-.55.404.404 0 01.566.005.387.387 0 01-.284.66.395.395 0 01-.282-.115zm38.089.062a.39.39 0 01-.019-.55.402.402 0 01.558-.016.385.385 0 01.021.55.394.394 0 01-.56.015zm-39.156 1.08a.386.386 0 01-.032-.55.4.4 0 01.557-.03c.166.144.18.388.033.55a.398.398 0 01-.558.03zm40.232.011a.386.386 0 01.032-.55.397.397 0 01.559.03.385.385 0 01-.032.551.419.419 0 01-.263.1.408.408 0 01-.296-.131zm-41.222 1.2a.39.39 0 01-.069-.55.402.402 0 01.558-.063c.168.13.2.374.065.545a.404.404 0 01-.314.152.421.421 0 01-.24-.085zm42.196-.021a.385.385 0 01.08-.545.4.4 0 01.554.078.387.387 0 01-.08.545.421.421 0 01-.237.078.402.402 0 01-.317-.156zm-43.129 1.273a.388.388 0 01-.089-.545.399.399 0 01.552-.09.387.387 0 01.084.547.385.385 0 01-.315.16.404.404 0 01-.232-.072zm43.999-.016a.39.39 0 01.128-.54.396.396 0 01.542.125.384.384 0 01-.123.534.4.4 0 01-.209.064.411.411 0 01-.338-.183zm-44.915 1.278a.382.382 0 01-.095-.541.394.394 0 01.547-.092.383.383 0 01.095.54.38.38 0 01-.321.165.363.363 0 01-.226-.072zm45.69.042a.383.383 0 01.163-.525.392.392 0 01.531.16.378.378 0 01-.162.526.397.397 0 01-.186.046.381.381 0 01-.345-.207zM145.99 20.93a.38.38 0 01-.1-.54.394.394 0 01.548-.1c.18.121.228.366.101.542a.393.393 0 01-.322.17.403.403 0 01-.227-.072zm47.262.142a.388.388 0 01.205-.515c.2-.089.43.004.521.2a.39.39 0 01-.205.513.399.399 0 01-.521-.198zm-48.142 1.152a.388.388 0 01-.11-.54.398.398 0 01.548-.11c.183.12.231.36.11.54a.38.38 0 01-.328.172.42.42 0 01-.22-.062zm48.715.265a.39.39 0 01.238-.5.401.401 0 01.506.24.39.39 0 01-.374.52.396.396 0 01-.37-.26zm-49.57 1.04a.38.38 0 01-.12-.536.394.394 0 01.547-.119c.18.114.234.352.116.535a.38.38 0 01-.33.18.41.41 0 01-.212-.06zm50.04.414a.38.38 0 01.274-.477.393.393 0 01.484.27.385.385 0 01-.274.477.393.393 0 01-.484-.27zm-50.87.909a.386.386 0 01-.132-.54.398.398 0 01.542-.125.39.39 0 01.133.536.4.4 0 01-.338.187.39.39 0 01-.205-.058zm51.227.579h.005a.389.389 0 01.306-.46.39.39 0 01.464.302h.006a.395.395 0 01-.31.462c-.028.005-.054.005-.08.005a.398.398 0 01-.39-.31zm-52.033.756a.382.382 0 01-.143-.528.401.401 0 01.543-.143c.185.11.253.343.14.531a.392.392 0 01-.34.193.386.386 0 01-.2-.053zm52.293.749h-.008a.395.395 0 01.345-.437.394.394 0 01.44.339.397.397 0 01-.342.436h-.047a.385.385 0 01-.388-.338zm-53.062.606a.38.38 0 01-.154-.524.391.391 0 01.533-.155.383.383 0 01.156.528.392.392 0 01-.345.205.348.348 0 01-.19-.054zm53.192.91a.391.391 0 01.38-.405.386.386 0 01.41.37.394.394 0 01-.373.41h-.022a.393.393 0 01-.395-.374zm-53.92.473a.389.389 0 01-.175-.525.404.404 0 01.533-.172.388.388 0 01.174.525.397.397 0 01-.353.213.358.358 0 01-.179-.04zm-.68 1.402a.38.38 0 01-.189-.514.395.395 0 01.716.328.406.406 0 01-.36.224.39.39 0 01-.167-.038zm54.995.053a.389.389 0 01-.379-.406.386.386 0 01.405-.373.39.39 0 01.386.399.397.397 0 01-.395.38zm-55.611 1.382a.39.39 0 01-.216-.51.4.4 0 01.516-.213c.2.084.301.313.217.51a.398.398 0 01-.37.24.38.38 0 01-.147-.027zm55.46.164a.396.396 0 01-.35-.434.394.394 0 01.443-.337c.216.026.37.217.343.43a.39.39 0 01-.39.341zm-55.997 1.295a.386.386 0 01-.247-.492.404.404 0 01.505-.245.39.39 0 11-.258.737zm55.697.233a.397.397 0 01-.307-.467.398.398 0 01.475-.296.39.39 0 01.3.463.398.398 0 01-.385.306c-.033 0-.058 0-.083-.006zm-56.131 1.262a.38.38 0 01-.277-.473.392.392 0 01.477-.278c.213.051.34.27.287.475a.404.404 0 01-.386.291.32.32 0 01-.101-.015zm55.672.225a.39.39 0 01-.253-.494.396.396 0 01.5-.244.38.38 0 01.252.487.4.4 0 01-.499.25zm-55.949 1.309a.396.396 0 01-.332-.447.395.395 0 01.78.119.391.391 0 01-.391.332c-.02 0-.038-.004-.057-.004zm55.333.118a.383.383 0 01-.197-.514.4.4 0 01.528-.191.384.384 0 01.19.514.392.392 0 01-.52.191zm-.782 1.35a.378.378 0 01-.13-.533.4.4 0 01.54-.132.393.393 0 01.133.537.4.4 0 01-.543.129zm-55.016-.305v-.004a.396.396 0 01.79 0 .386.386 0 01-.389.387.39.39 0 01-.4-.383zm54.048 1.583a.38.38 0 01-.058-.544c0-.005.006-.01.01-.016 0-.006.003-.01.011-.014a.392.392 0 01.552-.065c.175.13.202.38.07.546-.007.006-.01.012-.017.017a.064.064 0 00-.01.01.387.387 0 01-.558.066zm-53.864.043a.388.388 0 01.296-.467.4.4 0 01.474.29.391.391 0 01-.296.468c-.03.01-.061.01-.093.01a.387.387 0 01-.38-.301zm52.762 1.069a.387.387 0 01.016-.55.397.397 0 01.558.016.383.383 0 01-.016.55.37.37 0 01-.267.104.411.411 0 01-.29-.12zm-52.144.473a.381.381 0 01.152-.529.398.398 0 01.537.15.387.387 0 01-.152.53.422.422 0 01-.195.052.382.382 0 01-.342-.203zm50.863.432a.393.393 0 01.665-.42c.121.18.068.42-.117.54a.415.415 0 01-.214.061.405.405 0 01-.334-.181zm-1.449.607a.388.388 0 01.237-.499.398.398 0 01.507.235.389.389 0 01-.237.499.418.418 0 01-.132.025.403.403 0 01-.375-.26zm-7.459.264a.394.394 0 01-.38-.41.393.393 0 01.417-.368.39.39 0 01.374.405.395.395 0 01-.396.373zm-1.957-.342a.4.4 0 01.365-.42.395.395 0 01.428.359.393.393 0 01-.364.42h-.032a.405.405 0 01-.397-.359zm3.498.467a.391.391 0 11.087-.777.394.394 0 01.353.429.399.399 0 01-.395.348zm-42.607-.081a.393.393 0 01.08-.552.398.398 0 01.553.08.389.389 0 01-.073.543.412.412 0 01-.56-.071zm37.568-.073a.392.392 0 01.29-.473.393.393 0 01.477.279.39.39 0 01-.288.473h.004a.335.335 0 01-.099.017.405.405 0 01-.384-.296zm6.612.325a.39.39 0 01-.353-.424.395.395 0 01.437-.348c.216.02.375.212.348.425a.386.386 0 01-.39.347zm2.797-.29a.387.387 0 01.337-.435.391.391 0 01.443.336.387.387 0 01-.342.436c-.016.006-.033.006-.048.006a.392.392 0 01-.39-.342zm-1.196.405a.393.393 0 01-.384-.4.4.4 0 01.405-.38.39.39 0 11-.01.78zm-9.675.134a.386.386 0 01.198-.512.392.392 0 01.52.191.382.382 0 01-.194.514v.005a.448.448 0 01-.164.032.395.395 0 01-.36-.23zm-35.038.703v.006a.39.39 0 010-.55.404.404 0 01.566 0c.153.154.147.4-.006.55a.393.393 0 01-.56-.006zm33.697.114a.373.373 0 01.11-.534v-.006a.395.395 0 01.547.11.384.384 0 01-.11.54.412.412 0 01-.216.067.397.397 0 01-.33-.177zm-32.489.955a.384.384 0 01-.058-.546.393.393 0 01.555-.061c.168.135.2.38.063.545a.398.398 0 01-.311.152.408.408 0 01-.249-.09zm31.266.026a.386.386 0 01.059-.549.39.39 0 01.552.061.375.375 0 01-.058.546.402.402 0 01-.248.088.399.399 0 01-.305-.146zm-29.95.9v.005a.39.39 0 01-.118-.54.4.4 0 01.544-.12c.188.12.24.36.125.54a.406.406 0 01-.55.115zm28.63-.042a.387.387 0 01.128-.535.4.4 0 01.547.125.39.39 0 01-.125.534h-.004a.381.381 0 01-.206.057.395.395 0 01-.34-.181zm-27.23.836a.382.382 0 01-.17-.523.393.393 0 01.53-.167.38.38 0 01.17.523.388.388 0 01-.53.167zm25.837-.114a.391.391 0 01.179-.525.392.392 0 01.354.701.428.428 0 01-.182.038.395.395 0 01-.351-.214zm-24.386.79a.387.387 0 01-.209-.508.396.396 0 01.522-.21c.2.084.295.314.21.51a.395.395 0 01-.523.207zm22.929-.187a.401.401 0 01.224-.51c.2-.077.431.021.516.219a.398.398 0 01-.221.51.545.545 0 01-.149.025.403.403 0 01-.37-.244zm-21.427.748a.39.39 0 01-.246-.494.403.403 0 01.503-.245.382.382 0 01.242.494.393.393 0 01-.5.245zm19.937-.245a.388.388 0 01.254-.489.396.396 0 01.5.25.385.385 0 01-.254.488.395.395 0 01-.5-.25zm-1.517.415a.38.38 0 01.28-.47.395.395 0 01.484.273.396.396 0 01-.284.478.54.54 0 01-.1.01.393.393 0 01-.38-.291zm-16.888.292a.39.39 0 01-.276-.479.396.396 0 01.763.205.39.39 0 01-.487.274zm15.351.047a.385.385 0 01.306-.462c.21-.043.42.093.462.3a.387.387 0 01-.305.464c-.026.003-.054.008-.079.008a.392.392 0 01-.384-.31zm-13.794.321v.006a.391.391 0 01-.306-.468.393.393 0 01.47-.296.389.389 0 01.305.462.4.4 0 01-.384.306c-.032 0-.06 0-.085-.01zm12.233-.063a.398.398 0 01.331-.446.404.404 0 01.455.328.399.399 0 01-.333.447v-.007c-.02.007-.041.007-.063.007a.395.395 0 01-.39-.33zm-10.664.348v.006a.39.39 0 01-.326-.446.4.4 0 01.453-.329.398.398 0 01.327.448.394.394 0 01-.39.327c-.022 0-.042 0-.064-.006zm9.1-.155a.398.398 0 01.351-.43.388.388 0 01.434.343.395.395 0 01-.348.431c-.016.004-.026.004-.044.004-.2 0-.367-.15-.393-.348zm-7.519.368a.39.39 0 01-.348-.429.399.399 0 01.438-.35v.006a.387.387 0 01.347.427.389.389 0 01-.394.346zm5.947-.243a.392.392 0 01.372-.416.391.391 0 01.419.359c.016.22-.145.4-.368.416-.01 0-.015.006-.027.006a.402.402 0 01-.396-.365zm-4.725-.035c.012-.22.2-.38.417-.364.222.01.383.197.37.41a.39.39 0 01-.418.363.387.387 0 01-.37-.41zm3.15.086a.397.397 0 01.386-.4c.221-.004.4.167.404.385a.391.391 0 01-.383.396h-.011a.397.397 0 01-.396-.381zm-1.186.385a.39.39 0 01-.39-.395.39.39 0 01.403-.378.387.387 0 11-.006.773z" fill="#9f3594"/><path d="M162.784 8.327a.397.397 0 01.795-.01.403.403 0 01-.392.401h-.006a.395.395 0 01-.397-.391zm1.97.413a.398.398 0 01-.382-.413.391.391 0 01.414-.38h-.008a.391.391 0 01.384.412.395.395 0 01-.398.381zm-3.559-.311a.405.405 0 01.367-.43.4.4 0 01.427.365.4.4 0 01-.364.428h-.032a.402.402 0 01-.398-.363zm5.123.413a.405.405 0 01-.363-.436.403.403 0 01.435-.36.398.398 0 01.358.43.393.393 0 01-.395.366zm-6.695-.203a.399.399 0 01.335-.454.396.396 0 01.116.783c-.021.004-.038.004-.06.004a.394.394 0 01-.391-.333zm8.259.366a.397.397 0 01-.344-.44.398.398 0 11.79.1.395.395 0 01-.398.345c-.015 0-.031 0-.048-.005zm1.558.227a.407.407 0 01-.33-.455.398.398 0 01.457-.327.39.39 0 01.328.454.39.39 0 01-.392.333c-.021 0-.042 0-.063-.005zm-11.374-.27a.404.404 0 01.298-.476.396.396 0 01.476.296.398.398 0 01-.297.482c-.026.005-.06.005-.09.005a.398.398 0 01-.387-.307zm12.93.54a.403.403 0 01-.317-.465.404.404 0 01.464-.319.405.405 0 01.32.461.4.4 0 01-.393.328c-.02 0-.047-.006-.073-.006zm-14.449-.084a.396.396 0 11.754-.245.395.395 0 01-.38.52.392.392 0 01-.374-.275zm16.006.38a.396.396 0 11.466-.312.398.398 0 01-.386.323c-.027 0-.054-.006-.08-.011zm1.556.313a.397.397 0 11.468-.308.393.393 0 01-.393.319.378.378 0 01-.075-.011zm-19.04-.107a.398.398 0 01.732-.307.401.401 0 01-.212.521.395.395 0 01-.52-.214zm20.601.42a.4.4 0 01-.316-.467.398.398 0 01.465-.312.404.404 0 01.32.466.41.41 0 01-.393.324c-.027 0-.047-.006-.076-.012zm1.574.285a.396.396 0 11.127-.784.399.399 0 01-.063.79c-.021 0-.042-.006-.064-.006zm1.6.213a.396.396 0 11.434-.356.398.398 0 01-.393.36c-.015 0-.027-.004-.041-.004zm-25.193-.202a.405.405 0 01.164-.541.406.406 0 01.54.165c.1.196.026.433-.164.539a.417.417 0 01-.192.048.41.41 0 01-.348-.211zm26.421-.118a.396.396 0 01.385-.407.395.395 0 11.021.789h-.01a.395.395 0 01-.396-.382zm1.954.415a.4.4 0 11.064-.795.39.39 0 01.359.428.398.398 0 01-.392.367zm1.514.222a.407.407 0 01-.308-.472.397.397 0 11.391.476c-.03 0-.056 0-.083-.004zm1.472.422a.396.396 0 11.509-.237.399.399 0 01-.377.263.365.365 0 01-.132-.026zm-32.713-.106a.406.406 0 01.117-.55.397.397 0 01.552.118.388.388 0 01-.117.544.38.38 0 01-.216.068.408.408 0 01-.336-.18zm34.11.732a.403.403 0 01-.164-.54.399.399 0 01.704.37.398.398 0 01-.354.211.474.474 0 01-.186-.041zm-35.38.217a.402.402 0 01.07-.561.4.4 0 01.556.068.4.4 0 01-.068.562.436.436 0 01-.245.084.4.4 0 01-.312-.153zm36.687.587a.399.399 0 01.461-.651.402.402 0 01.09.556.392.392 0 01-.322.165.408.408 0 01-.229-.07zm-37.877.46a.394.394 0 01.027-.56.394.394 0 01.56.025.407.407 0 01-.027.563.405.405 0 01-.56-.027zm39.07.504a.392.392 0 01-.021-.562.399.399 0 01.56-.02.4.4 0 01.022.56.402.402 0 01-.29.128.38.38 0 01-.27-.106zm-40.176.635a.397.397 0 11.538-.583.397.397 0 01-.538.583zm41.246.476a.399.399 0 01.603-.524v.005a.394.394 0 01-.043.556.361.361 0 01-.259.095.388.388 0 01-.301-.132zm-42.275.731a.394.394 0 01-.058-.555.401.401 0 01.561-.06.396.396 0 01-.253.705.377.377 0 01-.25-.09zm43.217.486a.394.394 0 01.106-.551.396.396 0 01.548.101.4.4 0 01-.1.557.387.387 0 01-.226.069.388.388 0 01-.328-.176zm-44.18.778a.397.397 0 11.478-.633c.173.126.21.375.078.553a.4.4 0 01-.318.161.408.408 0 01-.238-.08zm44.994.541a.392.392 0 01.154-.534.391.391 0 01.54.154.39.39 0 01-.159.538.392.392 0 01-.536-.158zm-45.899.767a.398.398 0 01.444-.661.395.395 0 01-.222.725.426.426 0 01-.222-.064zm46.577.625a.397.397 0 01.73-.311.393.393 0 01-.204.518.348.348 0 01-.16.038.396.396 0 01-.366-.245zm-47.419.715a.39.39 0 01-.133-.545.401.401 0 01.545-.133c.185.116.244.36.133.55a.395.395 0 01-.339.186.374.374 0 01-.206-.058zm47.97.735a.399.399 0 01.757-.247.398.398 0 11-.758.247zm-48.754.652a.4.4 0 01-.153-.54.397.397 0 11.153.54zm49.183.847a.4.4 0 01.29-.483.4.4 0 01.477.297.39.39 0 01-.29.476c-.033.012-.064.012-.096.012a.39.39 0 01-.38-.302zm-49.892.565a.389.389 0 01-.185-.527.393.393 0 01.53-.181.395.395 0 01-.17.752.35.35 0 01-.175-.044zm50.189.96a.405.405 0 01.332-.457.399.399 0 01.451.335.396.396 0 01-.328.455h-.063a.396.396 0 01-.392-.334zm-50.83.498a.398.398 0 01-.212-.518.406.406 0 01.525-.214c.2.084.29.32.206.52a.394.394 0 01-.519.212zm51.01 1.047a.397.397 0 01.365-.423.399.399 0 01.424.366.396.396 0 01-.366.422c-.01 0-.021.006-.026.006a.39.39 0 01-.397-.37zm-51.572.439a.399.399 0 01-.238-.508.394.394 0 01.51-.238c.205.074.31.302.237.509a.4.4 0 01-.376.258.358.358 0 01-.133-.021zm51.625 1.118a.397.397 0 11.397.397.396.396 0 01-.397-.397zm-52.106.396a.4.4 0 01-.264-.497.398.398 0 11.265.497zm-.392 1.537a.395.395 0 01-.291-.482.393.393 0 01.477-.292.396.396 0 01-.096.783c-.026 0-.058-.005-.09-.01zm52.8.047a.4.4 0 01-.367-.424.398.398 0 11.796.064h-.006a.392.392 0 01-.392.364c-.01 0-.02 0-.031-.004zm-53.107 1.508a.392.392 0 01-.318-.461.388.388 0 01.46-.316c.219.035.36.242.319.46a.394.394 0 01-.392.323c-.02 0-.043 0-.07-.006zm52.89.063a.386.386 0 01-.329-.45.395.395 0 11.782.122.393.393 0 01-.39.333c-.02 0-.041 0-.063-.005zm-53.1 1.514a.398.398 0 01-.346-.443.397.397 0 01.79.095.404.404 0 01-.398.348zm52.766.043a.401.401 0 01-.296-.477.395.395 0 01.475-.296c.218.048.35.265.298.476a.396.396 0 01-.387.309c-.028 0-.058-.007-.09-.012zm-52.884 1.54a.396.396 0 01.047-.793.4.4 0 01.376.419.403.403 0 01-.397.375zm52.434-.02a.396.396 0 01-.26-.498.397.397 0 01.499-.253.392.392 0 01.258.497.401.401 0 01-.375.275.331.331 0 01-.122-.02zm-.567 1.489a.401.401 0 01-.218-.522.391.391 0 01.515-.216c.205.08.301.313.222.514a.404.404 0 01-.37.25c-.049 0-.096-.013-.149-.026zm-52.28-.277c0-.223.175-.396.397-.396a.39.39 0 01.396.391.405.405 0 01-.391.403h-.005a.4.4 0 01-.397-.398zm51.608 1.71a.39.39 0 01-.18-.529.39.39 0 01.53-.18.39.39 0 01.178.529.395.395 0 01-.354.222.428.428 0 01-.174-.042zm-51.544-.096v-.004a.397.397 0 11.793-.053.395.395 0 01-.37.424h-.027a.397.397 0 01-.396-.367zm50.765 1.477a.394.394 0 01-.143-.54.399.399 0 01.546-.143.4.4 0 01.137.546.41.41 0 01-.343.195.405.405 0 01-.197-.058zm-50.596.127a.398.398 0 01.788-.11.402.402 0 01-.338.449h-.052a.4.4 0 01-.398-.339zm49.655 1.277a.4.4 0 01-.098-.556c.007-.012.018-.022.027-.033.006-.014.018-.031.027-.046a.404.404 0 01.556-.102.404.404 0 01.065.593.399.399 0 01-.577.143zm-49.374.31a.402.402 0 01.306-.47.407.407 0 01.472.308.397.397 0 01-.778.163zm48.371.911a.396.396 0 11.52-.596.4.4 0 01.042.56.391.391 0 01-.562.036zm-47.974.663a.394.394 0 01.265-.493.394.394 0 01.492.266.392.392 0 01-.265.49c-.037.017-.08.017-.117.017a.389.389 0 01-.375-.28zm46.82.424a.398.398 0 11.56.041.39.39 0 01-.258.096.413.413 0 01-.302-.137zm-1.338.836a.395.395 0 01.158-.541.398.398 0 01.382.7.414.414 0 01-.19.046.39.39 0 01-.35-.205zm-44.911.275a.392.392 0 01.197-.525.394.394 0 01.522.197.391.391 0 01-.195.524.372.372 0 01-.164.035.386.386 0 01-.36-.23zm43.406.217a.399.399 0 01.28-.488.406.406 0 01.49.281.398.398 0 11-.77.207zm-1.566.216a.392.392 0 01.344-.437.393.393 0 01.44.348.395.395 0 01-.35.44c-.011 0-.027.005-.042.005a.396.396 0 01-.392-.356zm-1.578.175a.397.397 0 01.343-.445.403.403 0 01.445.345.403.403 0 01-.345.445h-.051a.393.393 0 01-.392-.345zm-1.546.35a.392.392 0 01.28-.485.397.397 0 01.488.279.401.401 0 01-.283.486c-.035.005-.067.012-.104.012a.394.394 0 01-.381-.292zm-37.937.486a.397.397 0 11.67-.427.397.397 0 01-.67.427zm36.48.14a.4.4 0 01.186-.53.392.392 0 01.53.18.403.403 0 01-.181.534.43.43 0 01-.176.038.397.397 0 01-.359-.223zm-1.323.868a.401.401 0 01.095-.552.401.401 0 01.557.09.402.402 0 01-.323.63.398.398 0 01-.329-.168zm-34.199.317a.398.398 0 11.613-.507.398.398 0 01-.613.507zm33.007.725a.396.396 0 01.026-.56c.16-.15.41-.14.558.02a.39.39 0 01-.022.56.401.401 0 01-.562-.02zm-31.89.465a.397.397 0 01-.015-.562.397.397 0 01.561-.009.4.4 0 01.016.561.414.414 0 01-.292.121.38.38 0 01-.27-.11zm30.81.694a.395.395 0 01-.032-.562.397.397 0 01.562-.03.402.402 0 01.032.56.4.4 0 01-.562.032zm-29.577.366a.394.394 0 01-.068-.557.393.393 0 01.557-.068c.174.133.206.38.068.556a.397.397 0 01-.557.07zm28.386.682a.397.397 0 01.056-.556v-.005a.4.4 0 01.504.618v-.004a.385.385 0 01-.253.09.39.39 0 01-.307-.143zm-27.05.249a.397.397 0 11.544-.12.388.388 0 01-.544.12zm25.725.63a.395.395 0 01.129-.545.397.397 0 11.421.673.388.388 0 01-.21.055.395.395 0 01-.34-.183zm-24.323.18a.403.403 0 01-.17-.54.398.398 0 11.355.583.434.434 0 01-.185-.043zm1.462.693v-.006a.391.391 0 01-.207-.517.39.39 0 01.517-.207v-.005c.204.09.3.322.214.524a.405.405 0 01-.365.244.419.419 0 01-.159-.033zm21.45-.147a.395.395 0 01.188-.53.395.395 0 01.531.185.4.4 0 01-.185.53.436.436 0 01-.175.036.396.396 0 01-.36-.22zm-19.948.73a.397.397 0 01.265-.746.396.396 0 11-.265.746zm18.475-.143a.396.396 0 11.74-.28.4.4 0 01-.227.513.398.398 0 01-.513-.233zm-16.933.635a.396.396 0 01-.275-.492.399.399 0 01.491-.276.404.404 0 01.27.492.394.394 0 01-.486.276zm15.413-.164a.404.404 0 01.27-.494.39.39 0 01.489.271.39.39 0 01-.38.508.405.405 0 01-.379-.285zm-13.856.557a.39.39 0 01-.296-.474.398.398 0 01.471-.301.4.4 0 01.302.472.4.4 0 01-.387.311c-.03 0-.06 0-.09-.008zm12.31-.198a.398.398 0 01.777-.17.389.389 0 01-.307.471v.006c-.025.006-.052.006-.078.006a.4.4 0 01-.392-.313zm-10.727.509a.402.402 0 01-.328-.46.405.405 0 01.46-.33v.005c.213.034.359.24.324.456a.397.397 0 01-.393.334c-.022 0-.042-.005-.063-.005zm9.16-.243a.4.4 0 01.334-.456.403.403 0 01.455.335.402.402 0 01-.335.454c-.02 0-.041.004-.057.004a.399.399 0 01-.397-.337zm-7.566.465a.397.397 0 11.09-.789.396.396 0 01-.042.79zm5.987-.295a.4.4 0 01.795-.075.402.402 0 01-.36.434h-.037a.401.401 0 01-.398-.36zm-4.383.434a.398.398 0 11.419-.37.393.393 0 01-.398.37zm2.799-.345a.393.393 0 01.382-.413.396.396 0 01.414.376.396.396 0 01-.38.413c-.006.003-.014.003-.014.003a.398.398 0 01-.402-.379zm-1.195.403a.398.398 0 01-.392-.403.402.402 0 01.403-.39.397.397 0 01-.005.794z" fill="#8a4399"/><path d="M160.25 7.184a.396.396 0 01.79 0 .39.39 0 01-.395.392.397.397 0 01-.395-.392zm1.946.438a.403.403 0 01-.374-.418c.016-.213.2-.38.415-.364a.392.392 0 01-.02.782zm-3.516-.353a.397.397 0 01.793-.059.386.386 0 01-.37.417c-.01.006-.02.006-.03.006a.4.4 0 01-.393-.364zm5.063.477a.392.392 0 01-.349-.431.394.394 0 01.434-.35v.005a.393.393 0 01.352.428.394.394 0 01-.395.348zm-6.616-.27a.39.39 0 01.325-.449c.216-.03.42.116.45.329a.387.387 0 01-.323.444c-.023.005-.042.005-.063.005a.385.385 0 01-.39-.33zm8.166.46a.39.39 0 01-.336-.443.389.389 0 01.443-.336.398.398 0 01.337.444.392.392 0 01-.391.339c-.014 0-.038-.005-.053-.005zm-9.701-.11a.394.394 0 01.288-.476.391.391 0 11.193.758c-.03.01-.067.01-.1.01a.395.395 0 01-.381-.293zm11.247.34a.388.388 0 11.126-.768.39.39 0 01.328.448.394.394 0 01-.389.324c-.02 0-.042 0-.065-.005zm1.546.26a.396.396 0 01-.324-.453.395.395 0 01.778.134.395.395 0 01-.39.324c-.022 0-.041 0-.064-.005zm-14.284-.105a.395.395 0 01.744-.266.395.395 0 01-.232.502.44.44 0 01-.139.02.39.39 0 01-.373-.256zm15.837.37a.395.395 0 01-.326-.454.4.4 0 01.459-.318c.21.037.357.241.32.456a.398.398 0 01-.391.322c-.02 0-.041 0-.062-.006zm10.996.163a.39.39 0 01-.39-.397c0-.214.182-.385.403-.385a.4.4 0 01.388.401.392.392 0 01-.394.381zm-1.96-.297a.395.395 0 01.362-.423.393.393 0 01.427.354.398.398 0 01-.358.428V8.91c-.015.006-.025.006-.037.006a.402.402 0 01-.394-.359zm-7.48.386a.394.394 0 01.116-.778.394.394 0 01-.058.783c-.015 0-.035-.005-.057-.005zm10.96.015a.393.393 0 01-.34-.438.394.394 0 01.44-.339c.218.027.37.225.346.437a.398.398 0 01-.392.346c-.015 0-.03 0-.054-.006zm-5.033-.161a.397.397 0 01.323-.456.393.393 0 01.138.774c-.023 0-.049.005-.07.005a.4.4 0 01-.391-.323zm-4.354.355a.395.395 0 01-.347-.434.393.393 0 01.435-.343c.218.02.375.212.348.427a.392.392 0 01-.393.35zm-20.394-.183a.392.392 0 01.18-.522.396.396 0 01.529.183.388.388 0 01-.18.522.41.41 0 01-.53-.183zm31.282.272a.395.395 0 01-.29-.481.4.4 0 01.484-.281c.21.051.336.265.285.475a.401.401 0 01-.386.297c-.03 0-.062-.006-.093-.01zm-9.293.04a.392.392 0 01-.379-.41.395.395 0 01.789.04.391.391 0 01-.397.37zm1.194-.365a.393.393 0 01.38-.408.393.393 0 01.408.372.395.395 0 01-.38.412h.007-.022a.395.395 0 01-.393-.376zm9.54.787a.392.392 0 01-.222-.51.398.398 0 01.516-.214.381.381 0 01.215.506.386.386 0 01-.361.245.345.345 0 01-.148-.027zm-34.078.059a.389.389 0 01.13-.537.387.387 0 01.54.126.382.382 0 01-.126.536.366.366 0 01-.207.058.399.399 0 01-.337-.183zm35.44.6a.39.39 0 01-.147-.538.397.397 0 01.542-.14c.19.11.251.344.14.532a.395.395 0 01-.34.2.361.361 0 01-.195-.054zm-36.705.324a.396.396 0 01.074-.553.39.39 0 01.55.074.385.385 0 01-.073.547.358.358 0 01-.236.083.4.4 0 01-.315-.15zm37.955.517a.39.39 0 01-.062-.548.395.395 0 01.553-.067c.168.134.199.38.064.546a.395.395 0 01-.555.069zm-39.133.51a.384.384 0 01.02-.548h.007a.385.385 0 01.552.02.386.386 0 01-.022.554.397.397 0 01-.268.106.381.381 0 01-.289-.132zm40.254.496a.398.398 0 01.011-.553.41.41 0 01.563.011v.006a.39.39 0 01-.014.551.403.403 0 01-.272.104.392.392 0 01-.288-.119zm-41.338.633a.39.39 0 01-.026-.554.395.395 0 01.556-.02.385.385 0 01.028.55.4.4 0 01-.294.127.366.366 0 01-.264-.103zm42.317.525a.385.385 0 01.083-.548.4.4 0 01.553.084.395.395 0 01-.083.549.396.396 0 01-.237.073.382.382 0 01-.316-.158zm-43.317.68a.384.384 0 01-.062-.549.391.391 0 01.552-.062.39.39 0 01-.247.694.385.385 0 01-.243-.083zm44.132.59h.004a.382.382 0 01.154-.533.392.392 0 11.383.685.402.402 0 01-.193.05.402.402 0 01-.348-.203zm-45.036.682a.38.38 0 01-.104-.543.397.397 0 01.547-.103.39.39 0 11-.443.646zm45.703.68a.391.391 0 11.725-.299.386.386 0 01-.208.511.363.363 0 01-.153.033.4.4 0 01-.364-.246zm-46.499.667a.39.39 0 11.384-.683c.19.104.261.344.153.531a.386.386 0 01-.537.152zm47.01.767a.395.395 0 01.262-.49.403.403 0 01.496.265.394.394 0 01-.378.502.398.398 0 01-.38-.277zm-47.681.641a.384.384 0 01-.2-.516.399.399 0 01.52-.198.39.39 0 01.2.516.39.39 0 01-.357.236.348.348 0 01-.163-.038zm48.05.836h-.007a.394.394 0 01.31-.46.396.396 0 01.47.309.397.397 0 01-.315.459c-.02.006-.046.006-.073.006a.383.383 0 01-.385-.314zm-48.587.633a.392.392 0 11.254-.742.394.394 0 01.246.496.39.39 0 01-.5.246zm48.813.875a.395.395 0 01.785-.083.392.392 0 01-.348.428c-.016.004-.033.004-.043.004a.396.396 0 01-.394-.349zm-49.212.632a.394.394 0 01-.294-.47.398.398 0 01.478-.292.39.39 0 01.288.475.39.39 0 01-.38.297c-.03 0-.06-.005-.092-.01zm49.311.892h.005a.39.39 0 01.381-.403.395.395 0 01.404.383.394.394 0 01-.385.402h-.01a.396.396 0 01-.395-.382zm-49.58.643a.393.393 0 01-.332-.445.394.394 0 01.447-.328.39.39 0 01-.056.778c-.017 0-.037 0-.059-.005zm49.94 1.299a.392.392 0 11.041-.784.394.394 0 01.374.408.396.396 0 01-.396.376zm-50.082.255a.394.394 0 01-.37-.418.388.388 0 01.423-.36.388.388 0 01.367.419.394.394 0 01-.394.359zm49.922 1.295a.392.392 0 01.095-.779.394.394 0 01-.047.784c-.016 0-.032-.005-.048-.005zm-49.965.265a.39.39 0 11.011-.782.39.39 0 01-.004.782zm49.707 1.274a.393.393 0 11.07.006c-.023 0-.048 0-.07-.006zm-50.059-.089a.388.388 0 01.374-.407.394.394 0 01.412.37.397.397 0 01-.374.412h-.017a.393.393 0 01-.395-.375zm49.703 1.608a.393.393 0 01-.293-.475.402.402 0 01.481-.288.397.397 0 01.29.475h-.004a.394.394 0 01-.474.288zm-49.59-.032a.39.39 0 01.356-.428.39.39 0 01.426.355.388.388 0 01-.358.424c-.01.005-.021.005-.03.005a.389.389 0 01-.395-.356zm49.135 1.524a.395.395 0 01-.256-.49.403.403 0 01.493-.257.393.393 0 11-.237.747zm-48.962.037a.388.388 0 01.34-.434.389.389 0 11.1.772c-.02.007-.036.007-.052.007a.393.393 0 01-.388-.345zm48.433 1.436a.396.396 0 01-.233-.508.398.398 0 01.744.277.4.4 0 01-.373.25.514.514 0 01-.138-.019zm-48.22.12a.39.39 0 01.334-.444.4.4 0 01.453.329.397.397 0 01-.338.443c-.015.005-.036.005-.058.005a.401.401 0 01-.39-.333zm47.61 1.315a.397.397 0 01-.205-.518.391.391 0 01.52-.197.385.385 0 01.204.51.395.395 0 01-.52.205zm-47.361.234a.396.396 0 01.326-.453.392.392 0 11.126.772c-.022.003-.04.003-.063.003a.392.392 0 01-.39-.322zm46.676 1.167a.394.394 0 01-.178-.524.395.395 0 01.53-.173.39.39 0 11-.352.697zm-46.418.372a.392.392 0 01.326-.453.39.39 0 11.131.77c-.027.006-.049.006-.068.006a.386.386 0 01-.389-.323zm45.667.997a.384.384 0 01-.152-.532.396.396 0 01.69.386.41.41 0 01-.349.2.35.35 0 01-.19-.054zm-45.405.536h-.005a.398.398 0 01.326-.448.391.391 0 01.452.323.385.385 0 01-.32.45c-.02.006-.048.006-.069.006a.388.388 0 01-.384-.33zm44.526.885a.39.39 0 01-.12-.54c.003-.014.015-.025.026-.04.01-.016.016-.033.025-.048a.401.401 0 01.548-.125.388.388 0 01.089.585c-.004.016-.016.03-.022.047a.407.407 0 01-.336.181.404.404 0 01-.21-.06zm-44.283.655h.003a.39.39 0 01.327-.448.401.401 0 01.453.329.4.4 0 01-.331.45h-.065a.393.393 0 01-.387-.331zm43.406.633a.388.388 0 01-.101-.543.395.395 0 01.547-.098.388.388 0 01-.22.71.398.398 0 01-.226-.069zm-43.181.901a.39.39 0 01.336-.436.389.389 0 01.443.332.396.396 0 01-.336.446h-.053a.394.394 0 01-.39-.342zm42.21.324a.384.384 0 01-.052-.548.387.387 0 01.555-.055c.166.135.194.38.057.546a.402.402 0 01-.56.057zm-1.092 1.113a.387.387 0 01.016-.553.395.395 0 01.557.01.4.4 0 01-.014.559.414.414 0 01-.269.103.416.416 0 01-.29-.12zm-40.803.141a.384.384 0 01.28-.475.393.393 0 01.484.276.396.396 0 01-.383.491.39.39 0 01-.38-.292zm39.53.761a.395.395 0 01.116-.542.403.403 0 01.547.115.392.392 0 01-.33.606.407.407 0 01-.333-.179zm-1.351.782a.393.393 0 01.138-.536.4.4 0 01.54.134.391.391 0 01-.137.54.411.411 0 01-.2.056.4.4 0 01-.341-.194zm-37.668-.02a.385.385 0 01.217-.505.397.397 0 01.514.213.39.39 0 01-.368.538.378.378 0 01-.363-.245zm36.406.938a.392.392 0 01.063-.547.4.4 0 01.557.064.387.387 0 01-.063.548.407.407 0 01-.248.088.397.397 0 01-.31-.153zm-35.71.513a.39.39 0 01.151-.532.395.395 0 01.535.152.389.389 0 01-.151.532.371.371 0 01-.189.051.395.395 0 01-.347-.203zm34.584.57a.39.39 0 01-.005-.554.399.399 0 01.558-.006.386.386 0 01.005.554.385.385 0 01-.277.12.4.4 0 01-.28-.114zm-33.719.782a.382.382 0 01.091-.543.39.39 0 01.545.089.388.388 0 01-.315.62.384.384 0 01-.32-.166zm32.692.391a.383.383 0 01-.046-.548.396.396 0 01.553-.052.395.395 0 01.053.553.397.397 0 01-.56.048zm-31.683.856a.39.39 0 01.033-.552.401.401 0 01.559.03.392.392 0 01-.295.653.39.39 0 01-.297-.13zm30.726.379a.389.389 0 01-.078-.547.397.397 0 01.552-.078.39.39 0 01-.236.705.39.39 0 01-.238-.08zm-29.588.754a.388.388 0 01-.026-.554.401.401 0 01.558-.027.388.388 0 01.026.555.406.406 0 01-.296.13.39.39 0 01-.262-.104zm28.673.51a.39.39 0 11.464-.63.397.397 0 01.09.548l-.005-.006a.375.375 0 01-.315.161.371.371 0 01-.234-.073zm-27.438.508a.388.388 0 01-.072-.549.396.396 0 01.552-.073.39.39 0 01.074.548.392.392 0 01-.317.151.42.42 0 01-.237-.077zm26.362.63a.39.39 0 01.003-.553.398.398 0 01.56.005.389.389 0 01-.279.664.391.391 0 01-.284-.116zm-25.041.277a.39.39 0 01-.12-.542.394.394 0 01.542-.12c.183.113.24.36.125.542a.409.409 0 01-.547.12zm23.805.683a.389.389 0 01.082-.547.4.4 0 01.553.083.39.39 0 01-.32.62.378.378 0 01-.315-.156zm-22.422.116a.4.4 0 01-.163-.533.405.405 0 01.536-.162c.19.105.263.34.164.532a.408.408 0 01-.351.21.403.403 0 01-.186-.047zm1.441.694a.391.391 0 01-.202-.517c.093-.197.324-.287.523-.197.2.087.29.317.2.515a.398.398 0 01-.363.235.413.413 0 01-.158-.036zm19.623-.026a.381.381 0 01.16-.527.384.384 0 01.529.156.384.384 0 01-.157.528.34.34 0 01-.185.047.386.386 0 01-.347-.204zm-18.145.62a.392.392 0 01-.232-.5.388.388 0 01.506-.23c.203.072.31.296.237.501a.4.4 0 01-.51.23zm16.705.011a.392.392 0 01.215-.511.393.393 0 11.3.726.364.364 0 01-.148.025.393.393 0 01-.367-.24zm-15.185.496h-.006a.398.398 0 01-.263-.491.397.397 0 01.76.224.4.4 0 01-.38.284.386.386 0 01-.111-.017zm13.691-.01a.388.388 0 01.263-.49v.004a.392.392 0 01.492.26.387.387 0 01-.263.485.39.39 0 01-.492-.26zm-12.15.417a.385.385 0 01-.294-.47.399.399 0 01.473-.292.39.39 0 11-.178.762zm10.62-.064a.394.394 0 01.772-.161.39.39 0 01-.305.464c-.03.006-.054.006-.083.006a.397.397 0 01-.385-.309zm-9.06.382a.393.393 0 01.138-.773.391.391 0 01-.067.779c-.021 0-.05 0-.07-.006zm7.508-.14a.391.391 0 01.338-.444.397.397 0 01.44.34.387.387 0 01-.337.437c-.015 0-.037.005-.052.005a.392.392 0 01-.39-.337zm-5.926.37a.39.39 0 11.087-.777.392.392 0 01.347.433.393.393 0 01-.394.344zm4.357-.24a.393.393 0 01.37-.418.39.39 0 11.052.778c-.01.006-.015.006-.027.006a.402.402 0 01-.395-.367zm-2.773.375a.395.395 0 01-.372-.41.395.395 0 01.789.04.388.388 0 01-.393.37zm1.2-.35c0-.214.174-.392.396-.392a.392.392 0 110 .785.393.393 0 01-.395-.393z" fill="#744d9f"/><path d="M180.256 6.45a.39.39 0 01-.376-.407.388.388 0 01.402-.383.4.4 0 01.382.404.398.398 0 01-.395.385zm-1.95-.333a.393.393 0 01.785-.057.39.39 0 01-.362.421c-.01.005-.022.005-.03.005a.395.395 0 01-.392-.37zm-21.38.407a.398.398 0 01-.38-.407.4.4 0 01.408-.383v.005a.39.39 0 01.382.399.402.402 0 01-.396.386zm-1.948-.349a.39.39 0 01.372-.414h-.006a.392.392 0 01.419.367c.01.22-.15.406-.372.42h-.02a.397.397 0 01-.393-.373zm26.799.405a.393.393 0 01-.33-.446.39.39 0 01.446-.332c.211.033.36.231.33.447a.393.393 0 01-.388.336c-.017 0-.04 0-.058-.005zm-23.301.036a.388.388 0 01-.356-.426.394.394 0 01.429-.355c.214.021.37.208.349.43a.386.386 0 01-.385.357c-.013 0-.027 0-.037-.006zm18.27-.282a.4.4 0 01.332-.453h-.006a.389.389 0 01.452.326.389.389 0 01-.326.452c-.021.004-.042.004-.064.004a.395.395 0 01-.387-.329zm-23.324.056a.392.392 0 11.773-.126.394.394 0 01-.323.452c-.022.007-.044.007-.063.007a.394.394 0 01-.387-.333zm6.594.41a.399.399 0 01-.334-.445.398.398 0 01.445-.338.397.397 0 01-.05.79c-.022 0-.039-.006-.06-.006zm23.246.106a.395.395 0 01-.266-.49.385.385 0 01.485-.266.394.394 0 01.268.487.404.404 0 01-.378.285.431.431 0 01-.11-.016zm-8.05-.243a.393.393 0 11.764-.177.39.39 0 01-.294.473c-.026.003-.056.01-.089.01a.392.392 0 01-.381-.306zm-13.647.374a.396.396 0 01-.323-.457.388.388 0 01.448-.32v-.006a.397.397 0 01-.063.787c-.021 0-.04-.004-.062-.004zm-9.664-.241a.392.392 0 11.752-.226.392.392 0 01-.752.226zm11.21.5a.388.388 0 01-.318-.453.397.397 0 01.449-.327.396.396 0 01-.062.784c-.02 0-.048 0-.068-.005zm10.59-.2a.392.392 0 01.263-.49.392.392 0 01.485.263.393.393 0 01-.377.51.386.386 0 01-.37-.284zm10.971.34a.4.4 0 01-.187-.525.388.388 0 01.523-.188.387.387 0 01.186.519.388.388 0 01-.522.194zm-20.004.117a.384.384 0 01-.323-.447.395.395 0 01.45-.332.401.401 0 01.325.454.395.395 0 01-.387.33c-.021 0-.042 0-.065-.005zm-14.22-.164c-.09-.2 0-.43.192-.52a.395.395 0 01.522.2.396.396 0 01-.36.552.38.38 0 01-.355-.232zm21.718.059a.398.398 0 01.312-.463c.213-.043.42.1.46.31a.398.398 0 01-.313.463c-.025.003-.046.01-.072.01a.397.397 0 01-.387-.32zm-5.928.336a.397.397 0 01-.342-.442.397.397 0 01.442-.341.395.395 0 01.338.44.392.392 0 01-.387.347c-.015 0-.035-.004-.05-.004zm1.582.168a.396.396 0 01.065-.79.399.399 0 01.359.426.396.396 0 01-.39.364zm2.782-.343a.394.394 0 01.362-.42.395.395 0 01.422.358.395.395 0 01-.36.426h-.033a.39.39 0 01-.391-.364zm-1.18.416a.393.393 0 01-.392-.398.398.398 0 01.397-.39.39.39 0 01.387.399c0 .216-.178.39-.392.39zm16.563.158a.396.396 0 01-.104-.547.392.392 0 11.648.443.383.383 0 01-.323.173.384.384 0 01-.221-.07zm-36.907-.016a.393.393 0 11.538.132.396.396 0 01-.538-.132zm38.072.972a.4.4 0 01-.01-.562.394.394 0 11.01.562zm-39.338-.031a.395.395 0 01.069-.552.385.385 0 01.549.07.392.392 0 01-.069.552h.007a.412.412 0 01-.247.081.396.396 0 01-.309-.151zm-1.154 1.072a.394.394 0 01.564-.551.402.402 0 01-.01.561.4.4 0 01-.272.112.394.394 0 01-.282-.122zm41.486.095a.396.396 0 01.084-.552.39.39 0 01.549.08.401.401 0 01-.085.55.394.394 0 01-.548-.078zm-42.538 1.083a.398.398 0 01-.041-.557.382.382 0 01.548-.043c.168.137.19.389.049.552a.395.395 0 01-.556.048zm43.353.198a.396.396 0 01.157-.535.4.4 0 01.533.163c.1.19.03.431-.163.53a.332.332 0 01-.182.048.383.383 0 01-.345-.206zm-44.267 1.084a.395.395 0 01-.104-.547.39.39 0 01.543-.105c.177.12.225.361.105.546a.39.39 0 01-.544.106zm44.894.309a.394.394 0 01.23-.509.388.388 0 01.502.226.392.392 0 01-.366.535.386.386 0 01-.366-.252zm-45.632 1.088a.407.407 0 01-.184-.53.395.395 0 01.525-.18.39.39 0 01.181.527.385.385 0 01-.349.22.377.377 0 01-.173-.037zm46.092.374h-.005a.393.393 0 01.763-.195.401.401 0 01-.281.485c-.036.004-.07.01-.1.01a.39.39 0 01-.377-.3zm-46.624 1.114a.399.399 0 01-.255-.494.39.39 0 01.496-.258.397.397 0 01.256.494.395.395 0 01-.376.273.464.464 0 01-.121-.015zm46.922.4a.403.403 0 01.33-.453.396.396 0 01.113.784c-.019 0-.036.004-.056.004a.394.394 0 01-.387-.335zm-47.224 1.15a.392.392 0 01-.325-.452.388.388 0 01.449-.325.396.396 0 01.326.452.396.396 0 01-.388.33c-.022 0-.043-.005-.062-.005zm47.382.384a.391.391 0 01.37-.414.39.39 0 01.413.365.4.4 0 01-.366.423h-.025a.397.397 0 01-.392-.374zm-47.476 1.193a.396.396 0 01-.384-.405.401.401 0 01.404-.385c.219.007.386.19.382.406a.392.392 0 01-.392.384zm47.897.762a.393.393 0 01.011-.788c.22 0 .394.178.387.4a.395.395 0 01-.391.388zm-48.236.458a.392.392 0 11.422.356c-.01.004-.02.004-.031.004a.39.39 0 01-.391-.36zm48.133 1.118a.392.392 0 01-.356-.425.392.392 0 01.419-.362c.22.02.376.21.36.425a.392.392 0 01-.391.362zm-47.943.48a.399.399 0 01.325-.453.392.392 0 01.45.326.39.39 0 01-.323.452c-.021.005-.043.005-.064.005a.396.396 0 01-.388-.33zm47.739 1.087a.39.39 0 01-.328-.447.391.391 0 01.443-.332c.214.032.36.232.329.447a.39.39 0 01-.386.337c-.016 0-.037 0-.058-.005zm-47.442.489a.404.404 0 01.307-.474.394.394 0 01.463.304.394.394 0 01-.299.469c-.029.004-.055.01-.082.01a.4.4 0 01-.389-.31zm47.154 1.066a.398.398 0 01-.308-.464.395.395 0 01.774.153.397.397 0 01-.387.317c-.026 0-.054 0-.08-.006zm-46.782.483a.394.394 0 11.481.285.636.636 0 01-.098.01.396.396 0 01-.383-.295zm46.417 1.057a.399.399 0 01-.283-.484.39.39 0 01.476-.282c.21.051.333.267.282.478a.4.4 0 01-.475.288zm-46.002.478a.39.39 0 01.271-.483.384.384 0 01.48.272.393.393 0 01-.375.5.387.387 0 01-.376-.289zm45.562 1.034a.39.39 0 01-.262-.487.39.39 0 01.487-.263.395.395 0 01-.115.773.256.256 0 01-.11-.023zm-45.138.49a.4.4 0 01.272-.49.397.397 0 01.485.274.4.4 0 01-.272.49c-.036.01-.073.01-.104.01a.394.394 0 01-.381-.283zm44.632 1.008a.388.388 0 01-.24-.5.393.393 0 01.742.26h-.005a.385.385 0 01-.497.24zm-44.21.511a.398.398 0 01.277-.483.396.396 0 01.209.762.824.824 0 01-.103.01.4.4 0 01-.382-.289zm43.646.967a.394.394 0 01-.221-.51.392.392 0 01.507-.226.397.397 0 01-.147.763.478.478 0 01-.14-.027zm-43.244.558h.006a.398.398 0 01.282-.485.391.391 0 01.476.29.393.393 0 01-.283.478.404.404 0 01-.481-.283zm42.621.899c-.199-.091-.289-.322-.199-.525v.005a.39.39 0 01.513-.205.393.393 0 01-.157.755.403.403 0 01-.157-.03zm-42.25.625a.394.394 0 01.294-.473.396.396 0 11.088.782.387.387 0 01-.382-.309zm41.573.799a.39.39 0 01-.175-.526.39.39 0 01.522-.183.397.397 0 01-.172.75.377.377 0 01-.175-.041zm-41.26.735c-.04-.215.1-.42.315-.457.215-.043.419.1.454.31a.391.391 0 01-.313.462c-.02.006-.046.006-.068.006a.393.393 0 01-.387-.321zm40.54.673a.403.403 0 01-.161-.535c.1-.19.34-.264.529-.165.192.1.264.342.166.532a.396.396 0 01-.35.208.386.386 0 01-.183-.04zm-40.288.866a.393.393 0 11.445.338.391.391 0 01-.445-.338zm39.469.616a.398.398 0 01-.147-.542.284.284 0 01.032-.04c.004-.023.016-.038.026-.06a.392.392 0 11.647.437c-.003.02-.015.035-.025.059a.389.389 0 01-.341.193.43.43 0 01-.192-.047zm-39.29.94c-.02-.22.14-.41.355-.432a.402.402 0 01.427.359.397.397 0 01-.36.431h-.03a.396.396 0 01-.392-.357zm38.527.436a.393.393 0 01-.158-.535h.005a.384.384 0 01.53-.153.39.39 0 01.155.532.397.397 0 01-.344.205.383.383 0 01-.188-.049zm-.738 1.393a.398.398 0 01-.165-.53.395.395 0 01.531-.169c.188.1.267.337.167.53a.395.395 0 01-.35.212.376.376 0 01-.183-.043zm-37.696-.277a.39.39 0 01.382-.405.393.393 0 01.02.787h-.01a.39.39 0 01-.392-.382zm37.016 1.698a.394.394 0 11.524-.19.393.393 0 01-.356.224.385.385 0 01-.168-.034zm-36.897-.087a.387.387 0 01.342-.434.38.38 0 01.433.335.39.39 0 01-.341.442c-.015.006-.03.006-.046.006a.394.394 0 01-.388-.349zm36.297 1.536a.394.394 0 01.293-.73.395.395 0 01-.146.761.376.376 0 01-.147-.03zm-36.008.063a.397.397 0 01.287-.48.404.404 0 01.476.295.397.397 0 01-.293.474c-.031.01-.057.01-.09.01a.39.39 0 01-.38-.299zm35.428 1.398a.397.397 0 01-.215-.514.39.39 0 01.512-.212.393.393 0 01-.297.726zm-34.969.157a.392.392 0 11.738-.269.395.395 0 01-.235.507.38.38 0 01-.137.02.394.394 0 01-.366-.258zm34.314 1.277a.406.406 0 01-.189-.524.39.39 0 01.523-.19.395.395 0 01-.166.752.448.448 0 01-.168-.038zm-33.687.217a.394.394 0 01.706-.348.394.394 0 01-.181.526.388.388 0 01-.168.043.406.406 0 01-.357-.22zm32.988 1.193a.396.396 0 01.356-.706.396.396 0 01-.18.747.43.43 0 01-.176-.041zm-32.203.22a.391.391 0 11.665-.414.396.396 0 01-.336.604.386.386 0 01-.33-.19zm31.472 1.171a.385.385 0 01-.163-.53c.1-.196.34-.262.525-.162.197.1.269.34.165.53a.383.383 0 01-.527.162zm-30.552.159a.395.395 0 01.073-.552.386.386 0 01.549.067c.13.173.1.42-.069.552a.393.393 0 01-.554-.067zm29.798 1.23a.394.394 0 01-.15-.536.39.39 0 11.684.378.39.39 0 01-.534.158zm-28.753 0a.401.401 0 01.02-.558.39.39 0 01.555.014.395.395 0 01-.02.559.38.38 0 01-.268.11.395.395 0 01-.287-.125zm1.151 1.125h.005a.392.392 0 01-.031-.557.386.386 0 01.548-.027.387.387 0 01.03.552.368.368 0 01-.285.13.402.402 0 01-.267-.098zm26.823.246a.395.395 0 01-.135-.542.396.396 0 01.537-.136.395.395 0 01-.204.736.398.398 0 01-.198-.058zm-25.579.778a.395.395 0 01-.079-.552.39.39 0 01.55-.074.393.393 0 01.076.55.388.388 0 01-.312.154.35.35 0 01-.235-.078zm24.606.468a.4.4 0 01-.04-.558.386.386 0 01.553-.041.393.393 0 01.044.55.392.392 0 01-.299.144.415.415 0 01-.258-.095zm-23.295.456a.402.402 0 01-.117-.545.397.397 0 01.546-.121c.178.12.235.362.114.545a.39.39 0 01-.543.121zm22.136.606a.4.4 0 01.046-.553.393.393 0 11-.046.553zm-20.756.214a.4.4 0 01-.157-.536.392.392 0 01.532-.157c.19.106.263.34.158.536a.397.397 0 01-.533.157zm1.432.721a.392.392 0 01-.193-.525c.088-.196.324-.284.521-.196h-.005a.397.397 0 01-.16.757.424.424 0 01-.163-.036zm18.018-.053a.395.395 0 01.13-.545.387.387 0 01.54.128.4.4 0 01-.127.544.399.399 0 01-.543-.126zm-16.544.674a.396.396 0 01-.225-.511.386.386 0 01.503-.227.394.394 0 11-.278.738zm15.131.02a.4.4 0 01.198-.525.394.394 0 11.32.72.354.354 0 01-.156.036.397.397 0 01-.362-.23zm-13.62.5a.389.389 0 01-.258-.49.39.39 0 01.488-.262.394.394 0 11-.23.752zm12.137.02a.387.387 0 01.255-.493.39.39 0 01.492.252.403.403 0 01-.257.5.392.392 0 01-.49-.259zm-10.597.406a.395.395 0 01.185-.769c.209.052.34.263.287.478a.389.389 0 01-.383.299.678.678 0 01-.09-.008zm9.064-.044a.405.405 0 01.305-.467.392.392 0 01.464.305.388.388 0 01-.302.468h.004c-.03.005-.056.01-.085.01a.397.397 0 01-.386-.316zm-7.502.369a.394.394 0 01-.316-.457.388.388 0 01.451-.32.393.393 0 01-.065.781c-.02 0-.04-.004-.07-.004zm5.946-.144a.397.397 0 01.344-.439.391.391 0 01.433.346.39.39 0 01-.339.437c-.014.004-.03.004-.048.004a.398.398 0 01-.39-.348zm-4.361.364a.397.397 0 01-.344-.438.387.387 0 01.43-.346c.214.021.37.218.35.433a.397.397 0 01-.393.351zm2.792-.267a.393.393 0 11.783-.032.395.395 0 01-.374.41h-.016a.397.397 0 01-.393-.378zm-1.573-.032a.394.394 0 01.409-.378c.214.01.38.188.374.41a.39.39 0 01-.4.378.393.393 0 01-.383-.41z" fill="#5855a4"/><path d="M179.218 3.8a.394.394 0 01.384-.404.4.4 0 01.404.388.396.396 0 01-.39.397h-.005a.386.386 0 01-.393-.381zm1.93.44a.391.391 0 11.073-.78c.216.02.38.214.358.428a.397.397 0 01-.396.356c-.008 0-.024 0-.036-.004zm-3.503-.3a.393.393 0 01.344-.433.4.4 0 01.441.346.396.396 0 01-.348.433c-.018 0-.025.005-.044.005a.4.4 0 01-.393-.35zm4.995.557a.399.399 0 01-.288-.477.395.395 0 01.479-.288c.21.052.343.26.29.476a.4.4 0 01-.385.298.675.675 0 01-.096-.009zm-6.547-.284a.393.393 0 01.31-.46c.216-.042.421.1.463.307a.389.389 0 01-.31.462c-.027.005-.054.01-.078.01a.39.39 0 01-.385-.32zm-1.53.378a.39.39 0 01.278-.482.4.4 0 01.486.283.385.385 0 01-.28.475.391.391 0 01-.484-.277zm9.51.376a.386.386 0 01-.207-.513.396.396 0 01.516-.21h.005c.2.09.29.32.205.519a.4.4 0 01-.52.204zm-11.015.088a.396.396 0 01.255-.498c.203-.066.43.05.491.253a.391.391 0 01-.251.497.392.392 0 01-.495-.252zm12.328.63a.393.393 0 01-.104-.545.388.388 0 01.547-.106c.183.12.225.368.106.545a.395.395 0 01-.549.106zm-32.409-.31a.393.393 0 01.405-.381.392.392 0 11-.02.784.393.393 0 01-.385-.402zm-1.572.1a.392.392 0 01.35-.43c.22-.02.412.137.434.352a.392.392 0 01-.352.427h-.042a.39.39 0 01-.39-.349zm20.17.12a.397.397 0 01.232-.506.394.394 0 01.51.224.394.394 0 01-.368.533.397.397 0 01-.375-.25zm-16.682.304a.39.39 0 01-.343-.435.396.396 0 01.784.094.395.395 0 01-.394.345c-.016 0-.032 0-.047-.004zm-5.029-.084a.4.4 0 01.283-.482.388.388 0 01.48.278.394.394 0 01-.28.481.365.365 0 01-.1.016.396.396 0 01-.383-.293zm6.568.32a.394.394 0 01-.321-.456.396.396 0 01.78.136.402.402 0 01-.392.325c-.025 0-.044 0-.067-.006zm13.67.02a.392.392 0 01.242-.503.396.396 0 01.506.236.394.394 0 01-.242.503h.006a.398.398 0 01-.513-.235zm-12.133.272a.385.385 0 01-.304-.46.394.394 0 01.772.15.4.4 0 01-.39.315c-.026 0-.052 0-.078-.005zm-9.557-.016a.384.384 0 01.19-.517.397.397 0 01.527.188.397.397 0 01-.359.56.384.384 0 01-.358-.23zm11.108.32a.395.395 0 01-.315-.46.39.39 0 01.461-.308.39.39 0 01-.073.774c-.02 0-.046 0-.073-.006zm27.019-.094a.395.395 0 010-.56.396.396 0 01.557.005.394.394 0 01-.557.555zm-17.952-.058a.393.393 0 01.285-.477.393.393 0 11.195.76c-.032.01-.063.01-.1.01a.389.389 0 01-.38-.293zm-7.504.43a.393.393 0 01-.327-.45.396.396 0 01.454-.325.393.393 0 01-.063.78c-.022-.001-.044-.001-.064-.006zm5.952-.164a.395.395 0 01.779-.114.389.389 0 01-.331.445c-.02.006-.042.006-.058.006a.394.394 0 01-.39-.337zm-4.37.378a.387.387 0 01-.347-.43.39.39 0 01.431-.35.404.404 0 01.352.435.396.396 0 01-.393.35c-.01 0-.027 0-.043-.005zm2.798-.261a.392.392 0 11.782-.043.384.384 0 01-.37.415h-.016a.394.394 0 01-.396-.372zm-1.199.38a.397.397 0 01-.378-.407.39.39 0 01.41-.376.392.392 0 01-.016.783zm-17.193-.098a.4.4 0 01.106-.55h.005a.395.395 0 01.548.11.39.39 0 01-.112.545.415.415 0 01-.22.067.401.401 0 01-.327-.172zm40.414.543a.393.393 0 01.654-.438.381.381 0 01-.108.543.371.371 0 01-.22.068.39.39 0 01-.326-.173zm-41.619.462a.392.392 0 01.032-.556c.16-.14.41-.13.553.032a.39.39 0 01-.033.556.383.383 0 01-.257.099.38.38 0 01-.295-.131zm42.36.853a.388.388 0 01.196-.523.394.394 0 01.52.188.396.396 0 01-.715.335zm-43.438.294a.395.395 0 01.522-.592.393.393 0 01.035.553.388.388 0 01-.557.039zm-.877 1.297a.383.383 0 01-.132-.54.4.4 0 01.54-.13.403.403 0 01.133.545.392.392 0 01-.336.184.354.354 0 01-.205-.06zm44.854-.178a.395.395 0 11.756-.23.398.398 0 01-.263.492.45.45 0 01-.117.015.396.396 0 01-.376-.277zM143.3 12.142a.386.386 0 01-.236-.502.395.395 0 01.5-.24.395.395 0 01.24.503.396.396 0 01-.504.24zm45.826-.146a.392.392 0 11.774-.14.398.398 0 01-.316.454c-.027.006-.047.006-.072.006a.389.389 0 01-.386-.32zm-46.105 1.692a.4.4 0 01-.342-.442.399.399 0 01.441-.344c.217.03.37.225.343.44a.396.396 0 01-.394.346zm46.31-.174v-.005a.389.389 0 01.358-.423.396.396 0 01.426.355.398.398 0 01-.357.43h-.039a.389.389 0 01-.388-.357zm-46.688 1.371a.392.392 0 11.784-.052.394.394 0 01-.363.42h-.026a.393.393 0 01-.395-.368zm46.757.162c0-.219.173-.39.394-.397a.39.39 0 01.395.392.388.388 0 01-.391.393h-.004a.395.395 0 01-.394-.388zm-46.526 1.445h.005a.392.392 0 01.766-.167.393.393 0 01-.3.47c-.03.007-.055.007-.082.007a.399.399 0 01-.389-.31zm46.857.513a.39.39 0 01-.367-.414c.01-.22.2-.38.414-.371a.39.39 0 01.367.413.388.388 0 01-.387.372zm-46.43 1.036a.389.389 0 01.25-.493.4.4 0 01.5.252.395.395 0 01-.257.497.44.44 0 01-.12.016.385.385 0 01-.374-.272zm46.266.524a.391.391 0 01-.341-.435.39.39 0 01.437-.345c.216.027.368.22.341.433a.39.39 0 01-.388.347zm-45.73.98a.39.39 0 01.226-.51.4.4 0 01.51.222.387.387 0 01-.227.506.358.358 0 01-.141.032.403.403 0 01-.368-.25zm45.49.568a.392.392 0 01.132-.773c.215.036.356.24.324.455a.4.4 0 01-.388.324c-.027 0-.049 0-.068-.006zm-44.886.89a.389.389 0 01.206-.512.394.394 0 11-.206.512zm44.567.65a.393.393 0 11.086.006c-.025 0-.056 0-.086-.007zm-43.93.795a.39.39 0 01.2-.518c.2-.089.431 0 .52.2a.389.389 0 01-.358.55.392.392 0 01-.362-.232zm43.552.729a.404.404 0 01-.283-.483.402.402 0 01.486-.282.401.401 0 01.283.48.396.396 0 01-.386.294.778.778 0 01-.1-.01zm-42.91.704a.387.387 0 01.199-.517c.2-.088.43 0 .52.2a.39.39 0 01-.356.55.402.402 0 01-.363-.233zm42.48.802a.393.393 0 11.222-.753.4.4 0 01.268.486.397.397 0 01-.49.267zm-41.85.629a.387.387 0 01.207-.513.389.389 0 01.514.209.386.386 0 01-.358.544.389.389 0 01-.364-.24zm41.362.864a.391.391 0 01-.246-.498.388.388 0 01.5-.246.394.394 0 01.248.497v-.006a.403.403 0 01-.375.273c-.043 0-.085-.01-.127-.02zm-40.767.58a.399.399 0 01.22-.514.397.397 0 01.511.221.39.39 0 01-.363.54.4.4 0 01-.368-.247zm40.236.895a.39.39 0 01-.237-.501c.079-.205.3-.31.505-.238.204.08.31.304.237.509a.4.4 0 01-.369.257.379.379 0 01-.136-.027zm-39.684.56a.392.392 0 11.74-.262.386.386 0 01-.24.498.384.384 0 01-.5-.237zm39.11.9a.384.384 0 01-.22-.507.394.394 0 01.732.289.395.395 0 01-.511.219zm-38.621.57a.388.388 0 01.262-.486.39.39 0 11.111.764.382.382 0 01-.373-.278zm38.007.875a.393.393 0 01-.212-.515.4.4 0 01.52-.207c.2.088.29.319.206.517a.395.395 0 01-.514.205zm-37.597.619a.401.401 0 01.29-.477.393.393 0 11.188.763.4.4 0 01-.479-.287zm36.945.81a.388.388 0 01-.195-.518.398.398 0 01.525-.193.388.388 0 01.189.522h.008a.407.407 0 01-.366.226.36.36 0 01-.161-.038zm-36.612.7a.392.392 0 01.315-.459c.215-.037.42.1.462.314a.4.4 0 01-.315.46c-.027 0-.052.005-.073.005a.394.394 0 01-.39-.32zm35.924.713a.389.389 0 01-.181-.524.402.402 0 01.53-.182.398.398 0 01.18.529.404.404 0 01-.354.22.461.461 0 01-.175-.043zm-35.689.812a.396.396 0 01.784-.095.404.404 0 01-.345.44h-.05a.393.393 0 01-.389-.345zm34.935.67a.392.392 0 01-.149-.566c.005-.016.012-.03.018-.047h.005a.39.39 0 01.53-.167.393.393 0 01.142.57l-.016.04a.405.405 0 01-.351.211.451.451 0 01-.18-.041zm-34.808.863a.395.395 0 01.79-.038.394.394 0 01-.375.41c-.004.004-.015.004-.021.004a.398.398 0 01-.394-.376zm34.166.564a.39.39 0 01-.216-.511.395.395 0 01.515-.21.391.391 0 11-.3.721zm-33.755 1.378a.396.396 0 01-.392-.398.4.4 0 01.407-.387.4.4 0 01.389.403.403.403 0 01-.4.382zm33.28.12a.397.397 0 01-.277-.481.397.397 0 01.484-.279.393.393 0 01.278.483.391.391 0 01-.486.277zm-33.712 1.058c0-.221.173-.394.389-.394a.393.393 0 11.005.787h-.005a.392.392 0 01-.39-.393zm33.519.497a.396.396 0 01-.369-.42.393.393 0 01.42-.36.388.388 0 01.37.419.393.393 0 01-.394.361zm-33.446 1.105a.395.395 0 11.789-.074h-.005a.39.39 0 01-.351.424.107.107 0 01-.04.006.394.394 0 01-.393-.356zm33.132.114a.387.387 0 01.34-.433.392.392 0 11.095.779c-.015 0-.033.005-.048.005a.39.39 0 01-.387-.351zm-32.906 1.471a.394.394 0 11.458.314c-.025.005-.047.005-.073.005a.391.391 0 01-.385-.319zm33.136.094a.395.395 0 01.332-.445.392.392 0 01.451.33.398.398 0 01-.336.445c-.016 0-.037.006-.058.006a.4.4 0 01-.389-.336zm-32.763 1.464a.391.391 0 01.268-.485.406.406 0 01.491.266.398.398 0 01-.378.503.389.389 0 01-.38-.284zm32.906.048a.39.39 0 01.383-.402.393.393 0 11.021.784h-.01a.39.39 0 01-.394-.382zm-32.384 1.47a.385.385 0 01.219-.505.39.39 0 01.513.22.385.385 0 01-.22.506.385.385 0 01-.145.032.394.394 0 01-.367-.252zm32.651.472a.389.389 0 01-.34-.433c.02-.216.22-.371.435-.346s.37.224.346.439h-.005a.393.393 0 01-.39.347c-.014 0-.03 0-.046-.007zm-31.989.99a.395.395 0 01.706-.356.392.392 0 01-.354.571.399.399 0 01-.352-.215zm31.663.548a.393.393 0 01-.294-.476.39.39 0 01.473-.286c.214.046.347.26.294.47a.401.401 0 01-.385.304.392.392 0 01-.088-.012zm-30.863.843a.382.382 0 01.122-.538.392.392 0 01.54.12.39.39 0 01-.332.603.384.384 0 01-.33-.185zm30.4.657a.393.393 0 11.243-.75.393.393 0 01-.243.75zm-29.486.662a.393.393 0 11.627-.476c.136.172.1.42-.074.55a.4.4 0 01-.552-.073zm28.924.802a.394.394 0 01-.221-.508.39.39 0 01.51-.22.386.386 0 01.222.508.389.389 0 01-.364.246.346.346 0 01-.147-.026zm-27.892.429a.389.389 0 01.026-.555.393.393 0 11.53.58.398.398 0 01-.556-.025zm27.266 1.01a.39.39 0 01-.2-.518.39.39 0 01.52-.199c.2.088.291.319.2.518a.398.398 0 01-.52.2zm-26.14.132h-.005a.394.394 0 01.54-.572.388.388 0 01-.268.676.375.375 0 01-.267-.104zm1.21 1.05a.393.393 0 11.552-.062.378.378 0 01-.306.147.394.394 0 01-.246-.084zm24.123.168a.389.389 0 01-.114-.544.393.393 0 11.331.607.42.42 0 01-.217-.063zm-22.84.79a.393.393 0 01-.1-.548.402.402 0 01.551-.1.393.393 0 01-.225.717.391.391 0 01-.226-.069zm21.827.403a.389.389 0 01-.027-.554.398.398 0 01.559-.02.387.387 0 01.023.552.386.386 0 01-.292.127.383.383 0 01-.263-.105zm-20.476.456a.385.385 0 01-.138-.537.394.394 0 11.338.596.396.396 0 01-.2-.06zm19.271.56a.396.396 0 01.069-.549.39.39 0 01.552.067.394.394 0 11-.62.483zm-17.868.21a.392.392 0 01-.172-.53.395.395 0 01.53-.172.379.379 0 01.172.522.391.391 0 01-.53.18zm1.457.664a.397.397 0 01-.21-.513.398.398 0 01.517-.208.39.39 0 01-.152.751.372.372 0 01-.155-.03zm15.07-.057a.387.387 0 01.144-.534.402.402 0 01.54.151.39.39 0 01-.148.535.385.385 0 01-.536-.153zm-13.575.629a.386.386 0 01-.241-.498.392.392 0 01.5-.248.4.4 0 01.247.498.396.396 0 01-.506.248zm12.128-.006a.386.386 0 01.222-.509.4.4 0 01.511.22.401.401 0 01-.222.513.395.395 0 01-.511-.225zm-10.593.47a.39.39 0 01-.277-.48.394.394 0 01.48-.279c.214.058.34.273.282.483a.392.392 0 01-.378.293.376.376 0 01-.107-.017zm9.08-.03a.387.387 0 01.283-.483.397.397 0 01.478.283.39.39 0 01-.284.477.39.39 0 01-.477-.277zm-7.518.391h.007a.39.39 0 11.144-.77.385.385 0 01.312.457.392.392 0 01-.383.319c-.027 0-.053 0-.08-.006zm5.96-.13a.396.396 0 01.785-.11.396.396 0 01-.338.445c-.016 0-.037.004-.058.004a.398.398 0 01-.389-.34zm-4.372.377a.398.398 0 01-.345-.44.388.388 0 01.436-.34.39.39 0 01.348.433.395.395 0 01-.39.347zm2.8-.261a.39.39 0 01.378-.41.392.392 0 01.411.372.394.394 0 01-.374.41h-.021a.395.395 0 01-.394-.372zm-1.195.38a.385.385 0 01-.378-.406.393.393 0 01.405-.378h.007a.4.4 0 01.376.408.397.397 0 01-.399.377z" fill="#325baa"/><path d="M37.657.908a.391.391 0 01-.37-.41.385.385 0 01.411-.372c.214.012.38.196.37.41a.393.393 0 01-.392.372zM35.72.556a.4.4 0 01.364-.418.398.398 0 01.42.367.392.392 0 01-.366.418h-.028a.394.394 0 01-.39-.367zm3.425.536v.004a.398.398 0 01-.306-.465.392.392 0 11.767.158.393.393 0 01-.38.313c-.027 0-.053-.006-.08-.01zM34.18.772a.387.387 0 01.322-.45.398.398 0 01.448.329.399.399 0 01-.329.45h-.057a.38.38 0 01-.384-.33zm-1.53.336a.39.39 0 01.283-.472h.01a.39.39 0 01.47.293.4.4 0 01-.382.483.392.392 0 01-.381-.304zm7.928.412a.395.395 0 01-.22-.511.39.39 0 11.725.292.385.385 0 01-.505.22zm-9.436.018a.395.395 0 01.266-.49c.202-.06.424.06.486.264a.4.4 0 01-.26.493.446.446 0 01-.116.014.395.395 0 01-.376-.281zm10.736.68a.398.398 0 01-.106-.545.395.395 0 01.55-.104.4.4 0 01.096.549.39.39 0 01-.54.1zM29.665 2.05a.395.395 0 01.235-.503.39.39 0 01.502.236.394.394 0 01-.366.53.4.4 0 01-.371-.263zm-1.455.57a.392.392 0 01.726-.293.399.399 0 01-.22.514.391.391 0 01-.507-.22zm14.777.566a.395.395 0 01.02-.554.387.387 0 01.553.021.395.395 0 01-.021.555.403.403 0 01-.266.104.376.376 0 01-.286-.126zm-16.21.065a.393.393 0 01.198-.52.389.389 0 01.516.2c.089.2 0 .428-.202.52a.384.384 0 01-.51-.2zm-19.712.373a.4.4 0 01.386-.4.39.39 0 01.397.388.39.39 0 01-.385.398h-.006a.395.395 0 01-.392-.386zm1.89.507a.4.4 0 01-.33-.45.392.392 0 11.773.124.385.385 0 01-.388.33c-.02 0-.04 0-.054-.004zm16.408-.204a.394.394 0 01.182-.524.384.384 0 01.52.182.392.392 0 01-.177.525h-.004a.38.38 0 01-.166.037.389.389 0 01-.355-.22zm-19.83-.011a.393.393 0 01.282-.478.39.39 0 01.473.284.394.394 0 01-.281.477.317.317 0 01-.093.015.397.397 0 01-.382-.298zm4.912.535a.395.395 0 01-.282-.477.396.396 0 01.477-.284.395.395 0 01.28.478.395.395 0 01-.38.3.341.341 0 01-.095-.017zm33.423-.074a.395.395 0 01.137-.54.395.395 0 01.535.137.4.4 0 01-.135.54.386.386 0 01-.537-.137zm-19.946.157a.39.39 0 01.22-.507.384.384 0 01.507.22.386.386 0 01-.36.533.397.397 0 01-.367-.246zm-19.808.049a.4.4 0 01.162-.536.396.396 0 01.532.162.397.397 0 01-.162.53.4.4 0 01-.532-.156zm7.834.282a.394.394 0 01-.27-.488c.055-.21.27-.33.477-.273.209.058.33.279.272.488a.383.383 0 01-.375.283.602.602 0 01-.104-.01zm1.514.415a.397.397 0 01-.284-.479.391.391 0 01.482-.282.393.393 0 01.28.478.393.393 0 01-.38.293c-.033 0-.063 0-.098-.01zm8.974-.258a.39.39 0 01.261-.488.394.394 0 01.492.264.394.394 0 01-.753.224zm-7.426.614a.39.39 0 01-.308-.462.383.383 0 01.458-.309.39.39 0 01-.077.776c-.027 0-.049 0-.073-.005zM2.861 5.52a.393.393 0 01.611-.494.394.394 0 01-.307.642.406.406 0 01-.304-.148zm18.052-.15a.393.393 0 01.3-.464.393.393 0 11.16.77c-.027.006-.052.006-.078.006a.387.387 0 01-.382-.312zm-4.329.512a.395.395 0 01-.345-.435.391.391 0 11.778.088.39.39 0 01-.39.347zm2.773-.324a.392.392 0 11.43.355h-.037a.4.4 0 01-.393-.355zm-1.177.423a.4.4 0 01-.387-.397.393.393 0 01.397-.389c.215 0 .393.177.385.394 0 .22-.175.392-.387.392zm26.333-.252h.008a.389.389 0 11.724-.282.393.393 0 01-.225.508.395.395 0 01-.507-.226zm-42.735.917a.39.39 0 11.516-.586.392.392 0 01-.262.686.368.368 0 01-.254-.1zm43.18.536a.385.385 0 01.292-.472.387.387 0 01.468.288.399.399 0 01-.291.478c-.032.005-.056.01-.09.01a.394.394 0 01-.38-.304zm-44 .802a.392.392 0 01-.167-.53.396.396 0 01.533-.167c.187.103.26.341.161.534a.386.386 0 01-.526.163zm44.265.701a.396.396 0 01.341-.44.395.395 0 01.437.341.397.397 0 01-.338.44c-.022 0-.037.005-.053.005a.39.39 0 01-.387-.346zM.562 9.504a.39.39 0 01-.317-.455.391.391 0 11.771.135.396.396 0 01-.387.326c-.02 0-.047 0-.067-.006zm44.782.714a.392.392 0 01.374-.41.401.401 0 01.408.38.393.393 0 01-.375.408h-.017a.39.39 0 01-.39-.378zm-45.147.507a.391.391 0 01.348-.433.385.385 0 01.43.345.395.395 0 01-.346.435h-.04a.396.396 0 01-.392-.347zm45.528 1.442a.39.39 0 01-.381-.402.395.395 0 01.407-.383.39.39 0 01.375.403.388.388 0 01-.385.382zm-45.18.164a.398.398 0 01.257-.493c.21-.07.428.047.49.255a.394.394 0 01-.251.494.466.466 0 01-.119.016.399.399 0 01-.377-.272zm45.06 1.403a.395.395 0 01.072-.785c.213.02.371.214.357.43a.398.398 0 01-.393.355zm-44.47.1a.394.394 0 01.194-.52.398.398 0 01.523.196.398.398 0 01-.361.556.393.393 0 01-.355-.232zm44.272 1.458a.395.395 0 01-.336-.44.393.393 0 01.779.105.4.4 0 01-.384.34c-.022 0-.045 0-.06-.005zm-43.55-.025a.395.395 0 01.155-.537.392.392 0 01.533.16.397.397 0 01-.158.533.39.39 0 01-.53-.156zm.787 1.373a.397.397 0 01.135-.542.397.397 0 01.537.138.397.397 0 01-.339.597.386.386 0 01-.333-.193zm42.496.203a.393.393 0 01.14-.775.392.392 0 01.313.46.388.388 0 01-.385.32c-.021 0-.047-.005-.068-.005zM3.462 17.985a.391.391 0 01.662-.414.399.399 0 01-.124.546.416.416 0 01-.204.058.393.393 0 01-.334-.19zm41.35.394a.391.391 0 01-.291-.467.383.383 0 01.462-.299.386.386 0 01.297.468.388.388 0 01-.467.298zm-40.528.944a.396.396 0 01.127-.54.392.392 0 01.412.666.374.374 0 01-.203.062.394.394 0 01-.336-.188zm40.158.58a.395.395 0 01-.284-.475.393.393 0 01.477-.284.392.392 0 01.281.478.39.39 0 01-.376.298.314.314 0 01-.098-.016zM5.1 20.66a.387.387 0 01.13-.534.388.388 0 01.537.13.395.395 0 01-.335.598.38.38 0 01-.332-.194zm38.923.76a.398.398 0 01-.27-.487.387.387 0 01.485-.267.394.394 0 01.272.482.402.402 0 01-.38.289.352.352 0 01-.107-.018zm-38.14.594a.394.394 0 01.146-.537.387.387 0 01.53.148.389.389 0 01-.146.535.344.344 0 01-.192.052.393.393 0 01-.338-.198zm37.677.905a.385.385 0 01-.249-.492.39.39 0 01.484-.258c.21.07.323.29.26.494a.397.397 0 01-.374.277.32.32 0 01-.121-.021zm-36.937.463a.393.393 0 01.167-.531.384.384 0 01.527.162.395.395 0 01-.345.578.404.404 0 01-.35-.21zm36.442 1.031a.39.39 0 01-.241-.498.391.391 0 11.74.252.393.393 0 01-.499.246zm-35.754.357a.395.395 0 01.189-.518.385.385 0 01.52.188.392.392 0 11-.71.33zm35.227 1.122a.393.393 0 01-.236-.504h.007a.389.389 0 11.73.268.388.388 0 01-.366.263.444.444 0 01-.135-.027zm-34.6.299a.383.383 0 01.213-.509.384.384 0 01.508.215h.003a.392.392 0 01-.22.508.37.37 0 01-.145.032.383.383 0 01-.36-.246zm34.041 1.169a.396.396 0 01-.225-.51.39.39 0 01.506-.225.393.393 0 01-.28.735zm-33.505.281a.395.395 0 01.245-.498.386.386 0 01.496.243.394.394 0 01-.37.524.396.396 0 01-.37-.269zm32.92 1.175a.389.389 0 01-.21-.513.386.386 0 01.502-.215c.204.084.3.315.215.514a.388.388 0 01-.359.248.388.388 0 01-.147-.034zm-32.466.305a.39.39 0 01.272-.483.386.386 0 01.479.277.39.39 0 01-.277.484.644.644 0 01-.098.009.39.39 0 01-.376-.287zm31.852 1.143a.4.4 0 01-.203-.519.388.388 0 01.511-.205.392.392 0 01-.152.756.461.461 0 01-.156-.032zm-31.508.357a.398.398 0 01.308-.463.39.39 0 01.459.316.39.39 0 01-.31.46c-.025.006-.044.006-.07.006a.396.396 0 01-.387-.319zM40.144 31.7a.391.391 0 01-.194-.52.391.391 0 11.716.321.402.402 0 01-.36.236.48.48 0 01-.162-.037zm-30.631.444a.393.393 0 01.338-.439.397.397 0 01.438.345.4.4 0 01-.343.437c-.02.005-.033.005-.048.005a.39.39 0 01-.385-.348zm29.926 1.082a.4.4 0 01-.186-.524c.01-.016.015-.033.025-.048.004-.016.014-.038.02-.052a.399.399 0 01.523-.189.4.4 0 01.162.572l-.022.051a.392.392 0 01-.522.19zm-29.81.451a.397.397 0 01.38-.41.403.403 0 01.407.379.4.4 0 01-.377.408h-.016a.392.392 0 01-.393-.377zm29.305 1.032a.388.388 0 01-.261-.487h-.007a.394.394 0 01.492-.267.393.393 0 01.26.487v.005a.385.385 0 01-.484.262zm-28.926.917a.398.398 0 01-.378-.407.4.4 0 01.409-.38.396.396 0 01.377.41.394.394 0 01-.393.377zm28.724.641a.387.387 0 01-.36-.42.383.383 0 01.414-.368.393.393 0 01.36.424.392.392 0 01-.388.364zm-28.866.922a.393.393 0 01-.35-.43.4.4 0 01.434-.351.392.392 0 01.345.434.391.391 0 01-.387.351c-.014 0-.031 0-.042-.004zm28.588.314a.386.386 0 01.318-.45.393.393 0 01.455.319h-.006a.387.387 0 01-.314.45.294.294 0 01-.067.011.392.392 0 01-.386-.33zM9.784 38.76a.398.398 0 01-.382-.407h.005a.387.387 0 01.403-.378.384.384 0 01.374.404.386.386 0 01-.39.381zm29.113.324a.395.395 0 01.224-.506.395.395 0 01.276.74.412.412 0 01-.135.02.382.382 0 01-.365-.254zm-29.484.871a.392.392 0 01.783-.035.397.397 0 01-.37.413h-.023a.395.395 0 01-.39-.378zm30.111.597a.397.397 0 01.19-.523.388.388 0 01.517.196.393.393 0 01-.186.523.469.469 0 01-.168.036.394.394 0 01-.353-.232zm-29.974.996a.396.396 0 01.336-.439.396.396 0 01.44.34.396.396 0 01-.339.442c-.015.003-.031.003-.047.003a.398.398 0 01-.39-.346zm30.615.426a.398.398 0 01.204-.52.393.393 0 11.156.756.395.395 0 01-.36-.236zm-30.352 1.16a.4.4 0 01.305-.469.39.39 0 01.464.305.393.393 0 01-.303.466c-.026.006-.052.006-.08.006a.4.4 0 01-.386-.308zm30.893.272h-.004a.4.4 0 01.257-.494.39.39 0 01.488.257.387.387 0 01-.25.492.309.309 0 01-.12.022.394.394 0 01-.371-.277zM10.21 44.682a.4.4 0 01.261-.492.401.401 0 01.492.266.395.395 0 01-.377.506.4.4 0 01-.376-.28zm30.85.194a.393.393 0 11.455.322c-.02.004-.046.004-.068.004a.392.392 0 01-.387-.326zm-30.328 1.321a.4.4 0 01.226-.513.387.387 0 01.504.226c.079.2-.02.43-.218.508a.397.397 0 01-.511-.22zm30.48.19a.394.394 0 01.381-.409.393.393 0 01.022.787h-.01a.394.394 0 01-.393-.378zM11.38 47.661a.389.389 0 01.18-.524.383.383 0 01.524.177.391.391 0 01-.178.524.408.408 0 01-.173.043.395.395 0 01-.353-.22zm30.13.671a.392.392 0 01-.35-.43.39.39 0 11.778.078.387.387 0 01-.385.356c-.018 0-.027-.004-.044-.004zm-29.363.733a.393.393 0 01.135-.54.396.396 0 01.537.135.4.4 0 01-.135.542.418.418 0 01-.203.056.384.384 0 01-.334-.193zm29.091.812a.394.394 0 01.157-.77c.213.047.35.25.308.466a.397.397 0 01-.385.316c-.027 0-.052 0-.08-.012zm-28.217.529a.402.402 0 01.09-.55.392.392 0 11-.09.55zm27.817.99a.385.385 0 01-.266-.486.386.386 0 01.486-.268.398.398 0 01.265.489.397.397 0 01-.376.283.37.37 0 01-.11-.017zm-26.84.274a.388.388 0 01.046-.55.39.39 0 11.5.597.376.376 0 01-.547-.047zm26.328 1.211a.386.386 0 01-.229-.503h-.006a.397.397 0 01.507-.236.402.402 0 01.23.51.392.392 0 01-.364.256.393.393 0 01-.138-.027zm-25.265-.026a.393.393 0 11.566-.545.393.393 0 01-.566.545zm1.152 1.105a.394.394 0 01.523-.586c.162.142.17.386.03.555a.397.397 0 01-.292.131.384.384 0 01-.261-.1zm23.424.33a.398.398 0 01-.161-.534.393.393 0 11.161.535zm-22.199.688a.392.392 0 01.476-.624.394.394 0 01.073.55.393.393 0 01-.307.15.42.42 0 01-.242-.076zm21.294.593a.386.386 0 01-.069-.55.38.38 0 01.546-.069.4.4 0 01.07.55.395.395 0 01-.308.152.36.36 0 01-.24-.083zm-19.998.334a.392.392 0 11.434-.656.392.392 0 01-.434.656zm1.354.836a.395.395 0 01-.144-.537.388.388 0 01.532-.147.395.395 0 01.15.535.405.405 0 01-.345.2.409.409 0 01-.193-.051zm17.532-.065a.397.397 0 01.025-.556.392.392 0 11.528.581.386.386 0 01-.261.107.398.398 0 01-.292-.132zm-16.115.804a.395.395 0 01-.184-.526.388.388 0 01.52-.184.396.396 0 01.185.525.397.397 0 01-.356.225.37.37 0 01-.165-.04zm14.835.104a.394.394 0 11.665-.424.39.39 0 01-.121.538.4.4 0 01-.215.063.406.406 0 01-.33-.177zm-13.376.533a.39.39 0 01-.224-.508.395.395 0 01.51-.225.4.4 0 01.218.514.393.393 0 01-.504.219zm11.975.16a.4.4 0 01.203-.52c.193-.09.427 0 .51.199.09.198 0 .429-.198.52a.433.433 0 01-.156.03.39.39 0 01-.359-.23zm-10.474.371a.397.397 0 01-.26-.494.396.396 0 01.49-.256.391.391 0 01.26.492.395.395 0 01-.376.278.301.301 0 01-.114-.02zm8.987.109a.397.397 0 01.27-.488.394.394 0 11.106.77.385.385 0 01-.376-.282zm-7.45.31a.398.398 0 01-.297-.473.395.395 0 01.77.173.397.397 0 01-.473.3zm1.572.294a.394.394 0 01.11-.782.396.396 0 01-.059.786c-.015 0-.04-.004-.051-.004zm4.34-.321a.39.39 0 01.325-.446.392.392 0 01.453.326.4.4 0 01-.33.451c-.024.006-.04.006-.064.006a.396.396 0 01-.385-.337zm-2.75.478a.386.386 0 01-.37-.415.39.39 0 01.412-.372.394.394 0 01-.026.787zm1.6.01a.384.384 0 01-.404-.377.389.389 0 11.777-.032.393.393 0 01-.373.409z" fill="#0061af" mask="url(#b)" transform="translate(142.642)"/></g></svg>