<svg width="449" height="425" viewBox="0 0 449 425" fill="none" xmlns="http://www.w3.org/2000/svg">
<rect x="58.5" y="0.5" width="383" height="385" rx="4.5" fill="white"/>
<path fill-rule="evenodd" clip-rule="evenodd" d="M99.031 30.469C99.1009 30.5387 99.1563 30.6214 99.1941 30.7125C99.2319 30.8037 99.2514 30.9013 99.2514 31C99.2514 31.0986 99.2319 31.1963 99.1941 31.2874C99.1563 31.3786 99.1009 31.4613 99.031 31.531L90.5605 40L99.031 48.469C99.1719 48.6098 99.251 48.8008 99.251 49C99.251 49.1992 99.1719 49.3902 99.031 49.531C98.8902 49.6718 98.6992 49.7509 98.5 49.7509C98.3009 49.7509 98.1099 49.6718 97.969 49.531L88.969 40.531C88.8992 40.4613 88.8438 40.3786 88.806 40.2874C88.7681 40.1963 88.7487 40.0986 88.7487 40C88.7487 39.9013 88.7681 39.8037 88.806 39.7125C88.8438 39.6214 88.8992 39.5387 88.969 39.469L97.969 30.469C98.0387 30.3992 98.1215 30.3437 98.2126 30.3059C98.3037 30.2681 98.4014 30.2487 98.5 30.2487C98.5987 30.2487 98.6964 30.2681 98.7875 30.3059C98.8786 30.3437 98.9614 30.3992 99.031 30.469V30.469Z" fill="#4A1FB8"/>
<path d="M187.386 46V34.264H194.784V36.496H190.032V39.214H194.1V41.446H190.032V46H187.386ZM200.289 46.216C199.437 46.216 198.669 46.03 197.985 45.658C197.301 45.286 196.761 44.752 196.365 44.056C195.969 43.36 195.771 42.52 195.771 41.536C195.771 40.564 195.969 39.73 196.365 39.034C196.773 38.338 197.301 37.804 197.949 37.432C198.597 37.048 199.275 36.856 199.983 36.856C200.835 36.856 201.537 37.048 202.089 37.432C202.653 37.804 203.073 38.314 203.349 38.962C203.637 39.598 203.781 40.324 203.781 41.14C203.781 41.368 203.769 41.596 203.745 41.824C203.721 42.04 203.697 42.202 203.673 42.31H198.327C198.447 42.958 198.717 43.438 199.137 43.75C199.557 44.05 200.061 44.2 200.649 44.2C201.285 44.2 201.927 44.002 202.575 43.606L203.457 45.208C203.001 45.52 202.491 45.766 201.927 45.946C201.363 46.126 200.817 46.216 200.289 46.216ZM198.309 40.564H201.531C201.531 40.072 201.411 39.67 201.171 39.358C200.943 39.034 200.565 38.872 200.037 38.872C199.629 38.872 199.263 39.016 198.939 39.304C198.615 39.58 198.405 40 198.309 40.564ZM210.289 46.216C209.893 46.216 209.491 46.12 209.083 45.928C208.687 45.724 208.315 45.43 207.967 45.046H207.895L207.679 46H205.609V33.382H208.255V36.478L208.183 37.846C208.531 37.534 208.909 37.294 209.317 37.126C209.725 36.946 210.133 36.856 210.541 36.856C211.261 36.856 211.885 37.042 212.413 37.414C212.941 37.786 213.343 38.314 213.619 38.998C213.907 39.67 214.051 40.462 214.051 41.374C214.051 42.394 213.871 43.27 213.511 44.002C213.151 44.722 212.683 45.274 212.107 45.658C211.543 46.03 210.937 46.216 210.289 46.216ZM209.677 44.056C210.133 44.056 210.523 43.846 210.847 43.426C211.171 43.006 211.333 42.34 211.333 41.428C211.333 39.82 210.817 39.016 209.785 39.016C209.257 39.016 208.747 39.286 208.255 39.826V43.48C208.495 43.696 208.735 43.846 208.975 43.93C209.215 44.014 209.449 44.056 209.677 44.056ZM215.928 46V37.072H218.088L218.268 38.638H218.34C218.664 38.038 219.054 37.594 219.51 37.306C219.966 37.006 220.422 36.856 220.878 36.856C221.13 36.856 221.34 36.874 221.508 36.91C221.676 36.934 221.82 36.976 221.94 37.036L221.508 39.322C221.352 39.274 221.196 39.238 221.04 39.214C220.896 39.19 220.728 39.178 220.536 39.178C220.2 39.178 219.846 39.304 219.474 39.556C219.114 39.796 218.814 40.216 218.574 40.816V46H215.928ZM225.782 46.216C224.81 46.216 224.102 45.898 223.658 45.262C223.226 44.614 223.01 43.732 223.01 42.616V37.072H225.656V42.274C225.656 42.91 225.746 43.354 225.926 43.606C226.106 43.846 226.388 43.966 226.772 43.966C227.108 43.966 227.39 43.888 227.618 43.732C227.846 43.576 228.092 43.324 228.356 42.976V37.072H231.002V46H228.842L228.644 44.758H228.59C228.218 45.202 227.81 45.556 227.366 45.82C226.922 46.084 226.394 46.216 225.782 46.216ZM235.58 46.216C234.764 46.216 234.116 45.958 233.636 45.442C233.156 44.914 232.916 44.272 232.916 43.516C232.916 42.58 233.312 41.848 234.104 41.32C234.896 40.792 236.174 40.438 237.938 40.258C237.914 39.862 237.794 39.55 237.578 39.322C237.374 39.082 237.026 38.962 236.534 38.962C236.162 38.962 235.784 39.034 235.4 39.178C235.016 39.322 234.608 39.52 234.176 39.772L233.222 38.026C233.786 37.678 234.386 37.396 235.022 37.18C235.67 36.964 236.342 36.856 237.038 36.856C238.178 36.856 239.054 37.186 239.666 37.846C240.278 38.506 240.584 39.52 240.584 40.888V46H238.424L238.244 45.082H238.172C237.8 45.418 237.398 45.694 236.966 45.91C236.546 46.114 236.084 46.216 235.58 46.216ZM236.48 44.164C236.78 44.164 237.038 44.098 237.254 43.966C237.482 43.822 237.71 43.636 237.938 43.408V41.842C237.002 41.962 236.354 42.154 235.994 42.418C235.634 42.67 235.454 42.97 235.454 43.318C235.454 43.606 235.544 43.822 235.724 43.966C235.916 44.098 236.168 44.164 236.48 44.164ZM242.822 46V37.072H244.982L245.162 38.638H245.234C245.558 38.038 245.948 37.594 246.404 37.306C246.86 37.006 247.316 36.856 247.772 36.856C248.024 36.856 248.234 36.874 248.402 36.91C248.57 36.934 248.714 36.976 248.834 37.036L248.402 39.322C248.246 39.274 248.09 39.238 247.934 39.214C247.79 39.19 247.622 39.178 247.43 39.178C247.094 39.178 246.74 39.304 246.368 39.556C246.008 39.796 245.708 40.216 245.468 40.816V46H242.822ZM251.107 49.492C250.843 49.492 250.609 49.474 250.405 49.438C250.213 49.402 250.027 49.36 249.847 49.312L250.315 47.296C250.399 47.308 250.495 47.326 250.603 47.35C250.711 47.386 250.813 47.404 250.909 47.404C251.353 47.404 251.695 47.296 251.935 47.08C252.175 46.864 252.355 46.582 252.475 46.234L252.601 45.766L249.163 37.072H251.827L253.105 40.906C253.237 41.314 253.357 41.728 253.465 42.148C253.573 42.568 253.687 43 253.807 43.444H253.879C253.975 43.024 254.071 42.604 254.167 42.184C254.275 41.752 254.383 41.326 254.491 40.906L255.571 37.072H258.109L255.013 46.09C254.737 46.834 254.431 47.458 254.095 47.962C253.759 48.478 253.351 48.862 252.871 49.114C252.403 49.366 251.815 49.492 251.107 49.492Z" fill="#4A1FB8"/>
<path d="M275.666 46V44.488C276.638 43.564 277.496 42.73 278.24 41.986C278.996 41.23 279.584 40.54 280.004 39.916C280.424 39.28 280.634 38.692 280.634 38.152C280.634 37.588 280.484 37.162 280.184 36.874C279.896 36.574 279.506 36.424 279.014 36.424C278.606 36.424 278.234 36.544 277.898 36.784C277.574 37.012 277.268 37.282 276.98 37.594L275.54 36.172C276.104 35.572 276.68 35.122 277.268 34.822C277.856 34.51 278.558 34.354 279.374 34.354C280.13 34.354 280.79 34.504 281.354 34.804C281.918 35.104 282.356 35.53 282.668 36.082C282.992 36.622 283.154 37.258 283.154 37.99C283.154 38.626 282.974 39.28 282.614 39.952C282.266 40.612 281.816 41.278 281.264 41.95C280.712 42.61 280.124 43.264 279.5 43.912C279.788 43.876 280.112 43.846 280.472 43.822C280.832 43.786 281.144 43.768 281.408 43.768H283.712V46H275.666ZM289.262 46.216C288.038 46.216 287.048 45.706 286.292 44.686C285.548 43.666 285.176 42.184 285.176 40.24C285.176 38.296 285.548 36.832 286.292 35.848C287.048 34.852 288.038 34.354 289.262 34.354C290.486 34.354 291.47 34.852 292.214 35.848C292.97 36.832 293.348 38.296 293.348 40.24C293.348 42.184 292.97 43.666 292.214 44.686C291.47 45.706 290.486 46.216 289.262 46.216ZM289.262 44.164C289.562 44.164 289.832 44.056 290.072 43.84C290.312 43.612 290.498 43.216 290.63 42.652C290.774 42.088 290.846 41.284 290.846 40.24C290.846 39.196 290.774 38.398 290.63 37.846C290.498 37.294 290.312 36.916 290.072 36.712C289.832 36.508 289.562 36.406 289.262 36.406C288.974 36.406 288.71 36.508 288.47 36.712C288.23 36.916 288.038 37.294 287.894 37.846C287.75 38.398 287.678 39.196 287.678 40.24C287.678 41.284 287.75 42.088 287.894 42.652C288.038 43.216 288.23 43.612 288.47 43.84C288.71 44.056 288.974 44.164 289.262 44.164ZM294.686 46V44.488C295.658 43.564 296.516 42.73 297.26 41.986C298.016 41.23 298.604 40.54 299.024 39.916C299.444 39.28 299.654 38.692 299.654 38.152C299.654 37.588 299.504 37.162 299.204 36.874C298.916 36.574 298.526 36.424 298.034 36.424C297.626 36.424 297.254 36.544 296.918 36.784C296.594 37.012 296.288 37.282 296 37.594L294.56 36.172C295.124 35.572 295.7 35.122 296.288 34.822C296.876 34.51 297.578 34.354 298.394 34.354C299.15 34.354 299.81 34.504 300.374 34.804C300.938 35.104 301.376 35.53 301.688 36.082C302.012 36.622 302.174 37.258 302.174 37.99C302.174 38.626 301.994 39.28 301.634 39.952C301.286 40.612 300.836 41.278 300.284 41.95C299.732 42.61 299.144 43.264 298.52 43.912C298.808 43.876 299.132 43.846 299.492 43.822C299.852 43.786 300.164 43.768 300.428 43.768H302.732V46H294.686ZM304.195 46V44.488C305.167 43.564 306.025 42.73 306.769 41.986C307.525 41.23 308.113 40.54 308.533 39.916C308.953 39.28 309.163 38.692 309.163 38.152C309.163 37.588 309.013 37.162 308.713 36.874C308.425 36.574 308.035 36.424 307.543 36.424C307.135 36.424 306.763 36.544 306.427 36.784C306.103 37.012 305.797 37.282 305.509 37.594L304.069 36.172C304.633 35.572 305.209 35.122 305.797 34.822C306.385 34.51 307.087 34.354 307.903 34.354C308.659 34.354 309.319 34.504 309.883 34.804C310.447 35.104 310.885 35.53 311.197 36.082C311.521 36.622 311.683 37.258 311.683 37.99C311.683 38.626 311.503 39.28 311.143 39.952C310.795 40.612 310.345 41.278 309.793 41.95C309.241 42.61 308.653 43.264 308.029 43.912C308.317 43.876 308.641 43.846 309.001 43.822C309.361 43.786 309.673 43.768 309.937 43.768H312.241V46H304.195Z" fill="#4A1FB8"/>
<path fill-rule="evenodd" clip-rule="evenodd" d="M400.969 30.469C401.039 30.3992 401.121 30.3437 401.213 30.3059C401.304 30.2681 401.401 30.2487 401.5 30.2487C401.599 30.2487 401.696 30.2681 401.787 30.3059C401.879 30.3437 401.961 30.3992 402.031 30.469L411.031 39.469C411.101 39.5387 411.156 39.6214 411.194 39.7125C411.232 39.8037 411.251 39.9013 411.251 40C411.251 40.0986 411.232 40.1963 411.194 40.2874C411.156 40.3786 411.101 40.4613 411.031 40.531L402.031 49.531C401.89 49.6718 401.699 49.7509 401.5 49.7509C401.301 49.7509 401.11 49.6718 400.969 49.531C400.828 49.3902 400.749 49.1992 400.749 49C400.749 48.8008 400.828 48.6098 400.969 48.469L409.44 40L400.969 31.531C400.899 31.4613 400.844 31.3786 400.806 31.2874C400.768 31.1963 400.749 31.0986 400.749 31C400.749 30.9013 400.768 30.8037 400.806 30.7125C400.844 30.6214 400.899 30.5387 400.969 30.469V30.469Z" fill="#4A1FB8"/>
<path d="M95.896 104.216C95.068 104.216 94.3 104.06 93.592 103.748C92.884 103.424 92.272 102.998 91.756 102.47L92.656 101.426C93.076 101.87 93.568 102.23 94.132 102.506C94.708 102.77 95.302 102.902 95.914 102.902C96.694 102.902 97.3 102.728 97.732 102.38C98.164 102.02 98.38 101.552 98.38 100.976C98.38 100.568 98.29 100.244 98.11 100.004C97.942 99.764 97.708 99.56 97.408 99.392C97.12 99.224 96.79 99.056 96.418 98.888L94.726 98.15C94.354 97.994 93.982 97.79 93.61 97.538C93.25 97.286 92.944 96.962 92.692 96.566C92.452 96.17 92.332 95.684 92.332 95.108C92.332 94.508 92.488 93.974 92.8 93.506C93.124 93.026 93.568 92.654 94.132 92.39C94.696 92.114 95.332 91.976 96.04 91.976C96.748 91.976 97.402 92.114 98.002 92.39C98.602 92.654 99.112 93.002 99.532 93.434L98.722 94.406C98.362 94.058 97.96 93.788 97.516 93.596C97.084 93.392 96.592 93.29 96.04 93.29C95.38 93.29 94.846 93.446 94.438 93.758C94.042 94.07 93.844 94.49 93.844 95.018C93.844 95.39 93.94 95.702 94.132 95.954C94.336 96.194 94.588 96.392 94.888 96.548C95.188 96.704 95.494 96.848 95.806 96.98L97.48 97.7C97.936 97.892 98.344 98.126 98.704 98.402C99.076 98.666 99.37 98.996 99.586 99.392C99.802 99.776 99.91 100.262 99.91 100.85C99.91 101.474 99.748 102.044 99.424 102.56C99.1 103.064 98.638 103.466 98.038 103.766C97.438 104.066 96.724 104.216 95.896 104.216ZM104.647 104.216C103.723 104.216 103.045 103.928 102.613 103.352C102.181 102.764 101.965 101.912 101.965 100.796V95.252H103.459V100.598C103.459 101.414 103.585 102.008 103.837 102.38C104.101 102.752 104.521 102.938 105.097 102.938C105.553 102.938 105.955 102.824 106.303 102.596C106.663 102.356 107.047 101.978 107.455 101.462V95.252H108.931V104H107.707L107.581 102.632H107.527C107.119 103.112 106.687 103.496 106.231 103.784C105.775 104.072 105.247 104.216 104.647 104.216ZM111.882 104V95.252H113.106L113.232 96.512H113.286C113.706 96.092 114.15 95.744 114.618 95.468C115.086 95.18 115.62 95.036 116.22 95.036C117.144 95.036 117.816 95.33 118.236 95.918C118.668 96.494 118.884 97.34 118.884 98.456V104H117.408V98.654C117.408 97.838 117.276 97.244 117.012 96.872C116.748 96.5 116.328 96.314 115.752 96.314C115.308 96.314 114.906 96.428 114.546 96.656C114.198 96.884 113.802 97.22 113.358 97.664V104H111.882Z" fill="#344054"/>
<path d="M139.12 104V92.192H140.92L143.188 98.492C143.332 98.9 143.47 99.314 143.602 99.734C143.746 100.142 143.89 100.55 144.034 100.958H144.106C144.25 100.55 144.382 100.142 144.502 99.734C144.634 99.314 144.772 98.9 144.916 98.492L147.148 92.192H148.966V104H147.562V97.502C147.562 96.974 147.586 96.392 147.634 95.756C147.682 95.108 147.724 94.526 147.76 94.01H147.688L146.752 96.692L144.52 102.812H143.53L141.298 96.692L140.362 94.01H140.29C140.326 94.526 140.362 95.108 140.398 95.756C140.446 96.392 140.47 96.974 140.47 97.502V104H139.12ZM155.456 104.216C154.748 104.216 154.082 104.036 153.458 103.676C152.846 103.316 152.348 102.794 151.964 102.11C151.592 101.426 151.406 100.604 151.406 99.644C151.406 98.66 151.592 97.826 151.964 97.142C152.348 96.458 152.846 95.936 153.458 95.576C154.082 95.216 154.748 95.036 155.456 95.036C156.176 95.036 156.842 95.216 157.454 95.576C158.066 95.936 158.558 96.458 158.93 97.142C159.314 97.826 159.506 98.66 159.506 99.644C159.506 100.604 159.314 101.426 158.93 102.11C158.558 102.794 158.066 103.316 157.454 103.676C156.842 104.036 156.176 104.216 155.456 104.216ZM155.456 102.992C156.212 102.992 156.818 102.686 157.274 102.074C157.742 101.45 157.976 100.64 157.976 99.644C157.976 98.636 157.742 97.82 157.274 97.196C156.818 96.572 156.212 96.26 155.456 96.26C154.712 96.26 154.106 96.572 153.638 97.196C153.17 97.82 152.936 98.636 152.936 99.644C152.936 100.64 153.17 101.45 153.638 102.074C154.106 102.686 154.712 102.992 155.456 102.992ZM161.81 104V95.252H163.034L163.16 96.512H163.214C163.634 96.092 164.078 95.744 164.546 95.468C165.014 95.18 165.548 95.036 166.148 95.036C167.072 95.036 167.744 95.33 168.164 95.918C168.596 96.494 168.812 97.34 168.812 98.456V104H167.336V98.654C167.336 97.838 167.204 97.244 166.94 96.872C166.676 96.5 166.256 96.314 165.68 96.314C165.236 96.314 164.834 96.428 164.474 96.656C164.126 96.884 163.73 97.22 163.286 97.664V104H161.81Z" fill="#344054"/>
<path d="M192.068 104V93.452H188.504V92.192H197.144V93.452H193.58V104H192.068ZM200.856 104.216C199.932 104.216 199.254 103.928 198.822 103.352C198.39 102.764 198.174 101.912 198.174 100.796V95.252H199.668V100.598C199.668 101.414 199.794 102.008 200.046 102.38C200.31 102.752 200.73 102.938 201.306 102.938C201.762 102.938 202.164 102.824 202.512 102.596C202.872 102.356 203.256 101.978 203.664 101.462V95.252H205.14V104H203.916L203.79 102.632H203.736C203.328 103.112 202.896 103.496 202.44 103.784C201.984 104.072 201.456 104.216 200.856 104.216ZM211.637 104.216C210.857 104.216 210.149 104.036 209.513 103.676C208.877 103.304 208.373 102.776 208.001 102.092C207.629 101.408 207.443 100.592 207.443 99.644C207.443 98.684 207.629 97.862 208.001 97.178C208.385 96.494 208.877 95.966 209.477 95.594C210.077 95.222 210.707 95.036 211.367 95.036C212.483 95.036 213.341 95.408 213.941 96.152C214.553 96.896 214.859 97.892 214.859 99.14C214.859 99.296 214.853 99.452 214.841 99.608C214.841 99.752 214.829 99.878 214.805 99.986H208.901C208.961 100.91 209.249 101.648 209.765 102.2C210.293 102.752 210.977 103.028 211.817 103.028C212.237 103.028 212.621 102.968 212.969 102.848C213.329 102.716 213.671 102.548 213.995 102.344L214.517 103.316C214.145 103.556 213.719 103.766 213.239 103.946C212.771 104.126 212.237 104.216 211.637 104.216ZM208.883 98.924H213.563C213.563 98.036 213.371 97.364 212.987 96.908C212.615 96.44 212.087 96.206 211.403 96.206C210.791 96.206 210.239 96.446 209.747 96.926C209.267 97.394 208.979 98.06 208.883 98.924Z" fill="#344054"/>
<path d="M235.916 104L233.414 92.192H234.962L236.204 98.618C236.312 99.254 236.426 99.89 236.546 100.526C236.666 101.162 236.78 101.798 236.888 102.434H236.96C237.092 101.798 237.23 101.162 237.374 100.526C237.518 99.878 237.656 99.242 237.788 98.618L239.426 92.192H240.794L242.432 98.618C242.576 99.242 242.72 99.878 242.864 100.526C243.008 101.162 243.152 101.798 243.296 102.434H243.368C243.476 101.798 243.584 101.162 243.692 100.526C243.8 99.878 243.914 99.242 244.034 98.618L245.276 92.192H246.716L244.268 104H242.468L240.686 96.89C240.578 96.434 240.476 95.99 240.38 95.558C240.296 95.114 240.206 94.664 240.11 94.208H240.038C239.954 94.664 239.858 95.114 239.75 95.558C239.642 95.99 239.54 96.434 239.444 96.89L237.698 104H235.916ZM252.172 104.216C251.392 104.216 250.684 104.036 250.048 103.676C249.412 103.304 248.908 102.776 248.536 102.092C248.164 101.408 247.978 100.592 247.978 99.644C247.978 98.684 248.164 97.862 248.536 97.178C248.92 96.494 249.412 95.966 250.012 95.594C250.612 95.222 251.242 95.036 251.902 95.036C253.018 95.036 253.876 95.408 254.476 96.152C255.088 96.896 255.394 97.892 255.394 99.14C255.394 99.296 255.388 99.452 255.376 99.608C255.376 99.752 255.364 99.878 255.34 99.986H249.436C249.496 100.91 249.784 101.648 250.3 102.2C250.828 102.752 251.512 103.028 252.352 103.028C252.772 103.028 253.156 102.968 253.504 102.848C253.864 102.716 254.206 102.548 254.53 102.344L255.052 103.316C254.68 103.556 254.254 103.766 253.774 103.946C253.306 104.126 252.772 104.216 252.172 104.216ZM249.418 98.924H254.098C254.098 98.036 253.906 97.364 253.522 96.908C253.15 96.44 252.622 96.206 251.938 96.206C251.326 96.206 250.774 96.446 250.282 96.926C249.802 97.394 249.514 98.06 249.418 98.924ZM260.544 104.216C259.452 104.216 258.576 103.82 257.916 103.028C257.256 102.224 256.926 101.096 256.926 99.644C256.926 98.696 257.1 97.88 257.448 97.196C257.808 96.5 258.276 95.966 258.852 95.594C259.44 95.222 260.064 95.036 260.724 95.036C261.228 95.036 261.666 95.126 262.038 95.306C262.41 95.486 262.788 95.732 263.172 96.044L263.1 94.55V91.184H264.594V104H263.37L263.244 102.974H263.19C262.854 103.31 262.458 103.604 262.002 103.856C261.546 104.096 261.06 104.216 260.544 104.216ZM260.868 102.974C261.636 102.974 262.38 102.572 263.1 101.768V97.196C262.728 96.86 262.368 96.626 262.02 96.494C261.684 96.35 261.336 96.278 260.976 96.278C260.508 96.278 260.082 96.422 259.698 96.71C259.326 96.986 259.026 97.376 258.798 97.88C258.57 98.372 258.456 98.954 258.456 99.626C258.456 100.67 258.666 101.492 259.086 102.092C259.506 102.68 260.1 102.974 260.868 102.974Z" fill="#344054"/>
<path d="M287.068 104V93.452H283.504V92.192H292.144V93.452H288.58V104H287.068ZM294.126 104V91.184H295.602V94.676L295.548 96.476C295.968 96.08 296.406 95.744 296.862 95.468C297.33 95.18 297.864 95.036 298.464 95.036C299.388 95.036 300.06 95.33 300.48 95.918C300.912 96.494 301.128 97.34 301.128 98.456V104H299.652V98.654C299.652 97.838 299.52 97.244 299.256 96.872C298.992 96.5 298.572 96.314 297.996 96.314C297.552 96.314 297.15 96.428 296.79 96.656C296.442 96.884 296.046 97.22 295.602 97.664V104H294.126ZM306.473 104.216C305.549 104.216 304.871 103.928 304.439 103.352C304.007 102.764 303.791 101.912 303.791 100.796V95.252H305.285V100.598C305.285 101.414 305.411 102.008 305.663 102.38C305.927 102.752 306.347 102.938 306.923 102.938C307.379 102.938 307.781 102.824 308.129 102.596C308.489 102.356 308.873 101.978 309.281 101.462V95.252H310.757V104H309.533L309.407 102.632H309.353C308.945 103.112 308.513 103.496 308.057 103.784C307.601 104.072 307.073 104.216 306.473 104.216Z" fill="#344054"/>
<path d="M337.62 104V92.192H344.424V93.452H339.114V97.448H343.614V98.708H339.114V104H337.62ZM346.019 104V95.252H347.243L347.369 96.836H347.423C347.723 96.284 348.089 95.846 348.521 95.522C348.953 95.198 349.415 95.036 349.907 95.036C350.255 95.036 350.567 95.096 350.843 95.216L350.555 96.512C350.411 96.464 350.279 96.428 350.159 96.404C350.039 96.38 349.889 96.368 349.709 96.368C349.337 96.368 348.947 96.518 348.539 96.818C348.143 97.118 347.795 97.64 347.495 98.384V104H346.019ZM352.259 104V95.252H353.735V104H352.259ZM353.015 93.452C352.727 93.452 352.487 93.368 352.295 93.2C352.115 93.02 352.025 92.78 352.025 92.48C352.025 92.192 352.115 91.958 352.295 91.778C352.487 91.598 352.727 91.508 353.015 91.508C353.303 91.508 353.537 91.598 353.717 91.778C353.909 91.958 354.005 92.192 354.005 92.48C354.005 92.78 353.909 93.02 353.717 93.2C353.537 93.368 353.303 93.452 353.015 93.452Z" fill="#344054"/>
<path d="M386.396 104.216C385.568 104.216 384.8 104.06 384.092 103.748C383.384 103.424 382.772 102.998 382.256 102.47L383.156 101.426C383.576 101.87 384.068 102.23 384.632 102.506C385.208 102.77 385.802 102.902 386.414 102.902C387.194 102.902 387.8 102.728 388.232 102.38C388.664 102.02 388.88 101.552 388.88 100.976C388.88 100.568 388.79 100.244 388.61 100.004C388.442 99.764 388.208 99.56 387.908 99.392C387.62 99.224 387.29 99.056 386.918 98.888L385.226 98.15C384.854 97.994 384.482 97.79 384.11 97.538C383.75 97.286 383.444 96.962 383.192 96.566C382.952 96.17 382.832 95.684 382.832 95.108C382.832 94.508 382.988 93.974 383.3 93.506C383.624 93.026 384.068 92.654 384.632 92.39C385.196 92.114 385.832 91.976 386.54 91.976C387.248 91.976 387.902 92.114 388.502 92.39C389.102 92.654 389.612 93.002 390.032 93.434L389.222 94.406C388.862 94.058 388.46 93.788 388.016 93.596C387.584 93.392 387.092 93.29 386.54 93.29C385.88 93.29 385.346 93.446 384.938 93.758C384.542 94.07 384.344 94.49 384.344 95.018C384.344 95.39 384.44 95.702 384.632 95.954C384.836 96.194 385.088 96.392 385.388 96.548C385.688 96.704 385.994 96.848 386.306 96.98L387.98 97.7C388.436 97.892 388.844 98.126 389.204 98.402C389.576 98.666 389.87 98.996 390.086 99.392C390.302 99.776 390.41 100.262 390.41 100.85C390.41 101.474 390.248 102.044 389.924 102.56C389.6 103.064 389.138 103.466 388.538 103.766C387.938 104.066 387.224 104.216 386.396 104.216ZM394.607 104.216C393.875 104.216 393.263 104 392.771 103.568C392.291 103.124 392.051 102.512 392.051 101.732C392.051 100.772 392.477 100.04 393.329 99.536C394.193 99.02 395.555 98.66 397.415 98.456C397.415 98.084 397.361 97.73 397.253 97.394C397.157 97.058 396.977 96.788 396.713 96.584C396.461 96.368 396.095 96.26 395.615 96.26C395.111 96.26 394.637 96.356 394.193 96.548C393.749 96.74 393.353 96.956 393.005 97.196L392.429 96.17C392.837 95.906 393.335 95.654 393.923 95.414C394.523 95.162 395.171 95.036 395.867 95.036C396.935 95.036 397.709 95.366 398.189 96.026C398.669 96.674 398.909 97.544 398.909 98.636V104H397.685L397.559 102.956H397.505C397.097 103.292 396.647 103.586 396.155 103.838C395.675 104.09 395.159 104.216 394.607 104.216ZM395.039 103.028C395.459 103.028 395.855 102.926 396.227 102.722C396.599 102.518 396.995 102.23 397.415 101.858V99.428C395.963 99.608 394.943 99.878 394.355 100.238C393.779 100.598 393.491 101.06 393.491 101.624C393.491 102.116 393.641 102.476 393.941 102.704C394.241 102.92 394.607 103.028 395.039 103.028ZM404.169 104.216C403.233 104.216 402.579 103.946 402.207 103.406C401.847 102.866 401.667 102.164 401.667 101.3V96.458H400.371V95.342L401.739 95.252L401.919 92.804H403.161V95.252H405.519V96.458H403.161V101.318C403.161 101.858 403.257 102.278 403.449 102.578C403.653 102.866 404.007 103.01 404.511 103.01C404.667 103.01 404.835 102.986 405.015 102.938C405.195 102.878 405.357 102.824 405.501 102.776L405.789 103.892C405.549 103.976 405.285 104.048 404.997 104.108C404.721 104.18 404.445 104.216 404.169 104.216Z" fill="#344054"/>
<path d="M97.72 152V151.118C98.872 149.966 99.85 148.958 100.654 148.094C101.458 147.218 102.07 146.432 102.49 145.736C102.91 145.028 103.12 144.368 103.12 143.756C103.12 143.096 102.94 142.556 102.58 142.136C102.22 141.716 101.674 141.506 100.942 141.506C100.462 141.506 100.018 141.644 99.61 141.92C99.202 142.184 98.83 142.508 98.494 142.892L97.648 142.046C98.128 141.518 98.638 141.098 99.178 140.786C99.73 140.462 100.378 140.3 101.122 140.3C102.19 140.3 103.03 140.612 103.642 141.236C104.254 141.848 104.56 142.664 104.56 143.684C104.56 144.404 104.356 145.136 103.948 145.88C103.552 146.612 103 147.386 102.292 148.202C101.596 149.006 100.792 149.882 99.88 150.83C100.192 150.806 100.516 150.782 100.852 150.758C101.188 150.734 101.506 150.722 101.806 150.722H105.136V152H97.72ZM108.053 143.99C108.053 144.734 108.227 145.328 108.575 145.772C108.935 146.204 109.469 146.42 110.177 146.42C110.561 146.42 110.963 146.3 111.383 146.06C111.815 145.82 112.217 145.43 112.589 144.89C112.493 143.774 112.229 142.928 111.797 142.352C111.365 141.764 110.783 141.47 110.051 141.47C109.499 141.47 109.025 141.704 108.629 142.172C108.245 142.628 108.053 143.234 108.053 143.99ZM109.637 152.216C109.025 152.216 108.485 152.102 108.017 151.874C107.561 151.634 107.177 151.346 106.865 151.01L107.693 150.074C107.933 150.35 108.215 150.572 108.539 150.74C108.875 150.908 109.223 150.992 109.583 150.992C110.123 150.992 110.621 150.836 111.077 150.524C111.533 150.212 111.899 149.696 112.175 148.976C112.463 148.256 112.613 147.284 112.625 146.06C112.265 146.516 111.845 146.876 111.365 147.14C110.885 147.404 110.405 147.536 109.925 147.536C108.941 147.536 108.149 147.242 107.549 146.654C106.961 146.054 106.667 145.166 106.667 143.99C106.667 143.258 106.823 142.616 107.135 142.064C107.447 141.512 107.855 141.08 108.359 140.768C108.875 140.456 109.439 140.3 110.051 140.3C110.807 140.3 111.485 140.504 112.085 140.912C112.685 141.32 113.153 141.932 113.489 142.748C113.837 143.564 114.011 144.59 114.011 145.826C114.011 147.362 113.801 148.598 113.381 149.534C112.973 150.47 112.439 151.154 111.779 151.586C111.119 152.006 110.405 152.216 109.637 152.216Z" fill="black" fill-opacity="0.3"/>
<path d="M149.248 152.216C148.336 152.216 147.574 152.054 146.962 151.73C146.35 151.394 145.852 151.016 145.468 150.596L146.224 149.624C146.572 149.984 146.98 150.302 147.448 150.578C147.916 150.854 148.486 150.992 149.158 150.992C149.854 150.992 150.424 150.8 150.868 150.416C151.312 150.032 151.534 149.522 151.534 148.886C151.534 148.43 151.414 148.034 151.174 147.698C150.946 147.35 150.562 147.08 150.022 146.888C149.494 146.696 148.774 146.6 147.862 146.6V145.466C148.678 145.466 149.32 145.37 149.788 145.178C150.268 144.986 150.61 144.728 150.814 144.404C151.018 144.08 151.12 143.72 151.12 143.324C151.12 142.76 150.94 142.316 150.58 141.992C150.232 141.668 149.752 141.506 149.14 141.506C148.66 141.506 148.216 141.614 147.808 141.83C147.412 142.046 147.04 142.328 146.692 142.676L145.9 141.74C146.344 141.32 146.836 140.978 147.376 140.714C147.916 140.438 148.522 140.3 149.194 140.3C150.19 140.3 151.012 140.558 151.66 141.074C152.308 141.578 152.632 142.292 152.632 143.216C152.632 143.912 152.44 144.482 152.056 144.926C151.672 145.37 151.168 145.712 150.544 145.952V146.024C151.24 146.18 151.828 146.51 152.308 147.014C152.788 147.506 153.028 148.148 153.028 148.94C153.028 149.612 152.86 150.194 152.524 150.686C152.188 151.178 151.732 151.556 151.156 151.82C150.592 152.084 149.956 152.216 149.248 152.216ZM158.429 152.216C157.277 152.216 156.371 151.7 155.711 150.668C155.063 149.624 154.739 148.142 154.739 146.222C154.739 144.29 155.063 142.82 155.711 141.812C156.371 140.804 157.277 140.3 158.429 140.3C159.569 140.3 160.463 140.804 161.111 141.812C161.771 142.82 162.101 144.29 162.101 146.222C162.101 148.142 161.771 149.624 161.111 150.668C160.463 151.7 159.569 152.216 158.429 152.216ZM158.429 151.028C159.101 151.028 159.641 150.65 160.049 149.894C160.457 149.126 160.661 147.902 160.661 146.222C160.661 144.542 160.457 143.336 160.049 142.604C159.641 141.86 159.101 141.488 158.429 141.488C157.757 141.488 157.211 141.86 156.791 142.604C156.383 143.336 156.179 144.542 156.179 146.222C156.179 147.902 156.383 149.126 156.791 149.894C157.211 150.65 157.757 151.028 158.429 151.028Z" fill="black" fill-opacity="0.3"/>
<path d="M198.922 152V150.776H201.55V142.316H199.462V141.362C199.99 141.266 200.446 141.152 200.83 141.02C201.226 140.876 201.58 140.708 201.892 140.516H203.026V150.776H205.402V152H198.922Z" fill="black" fill-opacity="0.3"/>
<path d="M245.666 152V150.488C246.638 149.564 247.496 148.73 248.24 147.986C248.996 147.23 249.584 146.54 250.004 145.916C250.424 145.28 250.634 144.692 250.634 144.152C250.634 143.588 250.484 143.162 250.184 142.874C249.896 142.574 249.506 142.424 249.014 142.424C248.606 142.424 248.234 142.544 247.898 142.784C247.574 143.012 247.268 143.282 246.98 143.594L245.54 142.172C246.104 141.572 246.68 141.122 247.268 140.822C247.856 140.51 248.558 140.354 249.374 140.354C250.13 140.354 250.79 140.504 251.354 140.804C251.918 141.104 252.356 141.53 252.668 142.082C252.992 142.622 253.154 143.258 253.154 143.99C253.154 144.626 252.974 145.28 252.614 145.952C252.266 146.612 251.816 147.278 251.264 147.95C250.712 148.61 250.124 149.264 249.5 149.912C249.788 149.876 250.112 149.846 250.472 149.822C250.832 149.786 251.144 149.768 251.408 149.768H253.712V152H245.666Z" fill="#4A1FB8"/>
<path d="M297.748 152.216C296.836 152.216 296.074 152.054 295.462 151.73C294.85 151.394 294.352 151.016 293.968 150.596L294.724 149.624C295.072 149.984 295.48 150.302 295.948 150.578C296.416 150.854 296.986 150.992 297.658 150.992C298.354 150.992 298.924 150.8 299.368 150.416C299.812 150.032 300.034 149.522 300.034 148.886C300.034 148.43 299.914 148.034 299.674 147.698C299.446 147.35 299.062 147.08 298.522 146.888C297.994 146.696 297.274 146.6 296.362 146.6V145.466C297.178 145.466 297.82 145.37 298.288 145.178C298.768 144.986 299.11 144.728 299.314 144.404C299.518 144.08 299.62 143.72 299.62 143.324C299.62 142.76 299.44 142.316 299.08 141.992C298.732 141.668 298.252 141.506 297.64 141.506C297.16 141.506 296.716 141.614 296.308 141.83C295.912 142.046 295.54 142.328 295.192 142.676L294.4 141.74C294.844 141.32 295.336 140.978 295.876 140.714C296.416 140.438 297.022 140.3 297.694 140.3C298.69 140.3 299.512 140.558 300.16 141.074C300.808 141.578 301.132 142.292 301.132 143.216C301.132 143.912 300.94 144.482 300.556 144.926C300.172 145.37 299.668 145.712 299.044 145.952V146.024C299.74 146.18 300.328 146.51 300.808 147.014C301.288 147.506 301.528 148.148 301.528 148.94C301.528 149.612 301.36 150.194 301.024 150.686C300.688 151.178 300.232 151.556 299.656 151.82C299.092 152.084 298.456 152.216 297.748 152.216Z" fill="#344054"/>
<path d="M343.372 147.644H346.972V144.314C346.972 144.002 346.984 143.63 347.008 143.198C347.032 142.766 347.05 142.4 347.062 142.1H346.99C346.846 142.376 346.696 142.646 346.54 142.91C346.384 143.174 346.222 143.444 346.054 143.72L343.372 147.644ZM346.972 152V148.832H341.806V147.86L346.72 140.516H348.376V147.644H349.942V148.832H348.376V152H346.972Z" fill="#344054"/>
<path d="M393.712 152.216C392.8 152.216 392.044 152.054 391.444 151.73C390.844 151.406 390.346 151.046 389.95 150.65L390.67 149.678C391.018 150.014 391.42 150.32 391.876 150.596C392.332 150.86 392.896 150.992 393.568 150.992C394.276 150.992 394.87 150.758 395.35 150.29C395.842 149.81 396.088 149.168 396.088 148.364C396.088 147.572 395.866 146.954 395.422 146.51C394.978 146.066 394.384 145.844 393.64 145.844C393.244 145.844 392.902 145.904 392.614 146.024C392.338 146.144 392.026 146.318 391.678 146.546L390.886 146.042L391.264 140.516H397.006V141.794H392.56L392.254 145.196C392.53 145.052 392.806 144.938 393.082 144.854C393.358 144.77 393.67 144.728 394.018 144.728C394.678 144.728 395.272 144.86 395.8 145.124C396.34 145.376 396.772 145.766 397.096 146.294C397.42 146.822 397.582 147.5 397.582 148.328C397.582 149.156 397.396 149.864 397.024 150.452C396.664 151.028 396.19 151.466 395.602 151.766C395.014 152.066 394.384 152.216 393.712 152.216Z" fill="#344054"/>
<path d="M106.198 194.096C105.826 194.096 105.424 194.216 104.992 194.456C104.56 194.696 104.164 195.08 103.804 195.608C103.9 196.724 104.158 197.576 104.578 198.164C105.01 198.752 105.592 199.046 106.324 199.046C106.888 199.046 107.362 198.818 107.746 198.362C108.13 197.894 108.322 197.282 108.322 196.526C108.322 195.782 108.142 195.194 107.782 194.762C107.434 194.318 106.906 194.096 106.198 194.096ZM106.324 200.216C105.58 200.216 104.908 200.012 104.308 199.604C103.708 199.196 103.234 198.584 102.886 197.768C102.538 196.94 102.364 195.914 102.364 194.69C102.364 193.154 102.568 191.918 102.976 190.982C103.396 190.046 103.936 189.368 104.596 188.948C105.268 188.516 105.982 188.3 106.738 188.3C107.362 188.3 107.896 188.42 108.34 188.66C108.796 188.888 109.186 189.176 109.51 189.524L108.682 190.442C108.454 190.166 108.172 189.95 107.836 189.794C107.5 189.626 107.152 189.542 106.792 189.542C106.252 189.542 105.76 189.698 105.316 190.01C104.872 190.31 104.506 190.82 104.218 191.54C103.942 192.248 103.792 193.208 103.768 194.42C104.128 193.976 104.548 193.628 105.028 193.376C105.508 193.112 105.982 192.98 106.45 192.98C107.446 192.98 108.238 193.28 108.826 193.88C109.426 194.468 109.726 195.35 109.726 196.526C109.726 197.258 109.57 197.9 109.258 198.452C108.946 199.004 108.532 199.436 108.016 199.748C107.512 200.06 106.948 200.216 106.324 200.216Z" fill="#344054"/>
<path d="M152.686 200C152.758 198.56 152.908 197.27 153.136 196.13C153.376 194.978 153.724 193.898 154.18 192.89C154.648 191.87 155.26 190.838 156.016 189.794H150.292V188.516H157.69V189.434C157.006 190.298 156.448 191.132 156.016 191.936C155.584 192.728 155.248 193.532 155.008 194.348C154.768 195.152 154.588 196.016 154.468 196.94C154.348 197.864 154.264 198.884 154.216 200H152.686Z" fill="#344054"/>
<path d="M202 200.216C201.28 200.216 200.638 200.084 200.074 199.82C199.51 199.544 199.06 199.166 198.724 198.686C198.4 198.206 198.238 197.666 198.238 197.066C198.238 196.562 198.34 196.118 198.544 195.734C198.76 195.338 199.03 194.996 199.354 194.708C199.69 194.408 200.038 194.162 200.398 193.97V193.898C199.978 193.598 199.606 193.232 199.282 192.8C198.958 192.368 198.796 191.852 198.796 191.252C198.796 190.664 198.94 190.148 199.228 189.704C199.516 189.26 199.906 188.918 200.398 188.678C200.89 188.426 201.442 188.3 202.054 188.3C203.05 188.3 203.836 188.588 204.412 189.164C205 189.74 205.294 190.472 205.294 191.36C205.294 191.756 205.21 192.134 205.042 192.494C204.874 192.842 204.67 193.16 204.43 193.448C204.19 193.724 203.95 193.952 203.71 194.132V194.204C204.058 194.396 204.382 194.624 204.682 194.888C204.982 195.152 205.228 195.47 205.42 195.842C205.612 196.202 205.708 196.64 205.708 197.156C205.708 197.72 205.552 198.236 205.24 198.704C204.94 199.172 204.508 199.544 203.944 199.82C203.392 200.084 202.744 200.216 202 200.216ZM202.81 193.736C203.194 193.388 203.488 193.022 203.692 192.638C203.908 192.254 204.016 191.852 204.016 191.432C204.016 190.868 203.842 190.388 203.494 189.992C203.146 189.596 202.654 189.398 202.018 189.398C201.49 189.398 201.046 189.566 200.686 189.902C200.338 190.238 200.164 190.688 200.164 191.252C200.164 191.708 200.284 192.086 200.524 192.386C200.776 192.686 201.106 192.944 201.514 193.16C201.922 193.364 202.354 193.556 202.81 193.736ZM202.036 199.118C202.708 199.118 203.248 198.932 203.656 198.56C204.076 198.176 204.286 197.69 204.286 197.102C204.286 196.61 204.142 196.208 203.854 195.896C203.566 195.584 203.182 195.314 202.702 195.086C202.234 194.858 201.724 194.636 201.172 194.42C200.716 194.72 200.332 195.08 200.02 195.5C199.72 195.92 199.57 196.394 199.57 196.922C199.57 197.558 199.804 198.086 200.272 198.506C200.752 198.914 201.34 199.118 202.036 199.118Z" fill="#344054"/>
<path d="M247.606 191.99C247.606 192.734 247.78 193.328 248.128 193.772C248.488 194.204 249.022 194.42 249.73 194.42C250.114 194.42 250.516 194.3 250.936 194.06C251.368 193.82 251.77 193.43 252.142 192.89C252.046 191.774 251.782 190.928 251.35 190.352C250.918 189.764 250.336 189.47 249.604 189.47C249.052 189.47 248.578 189.704 248.182 190.172C247.798 190.628 247.606 191.234 247.606 191.99ZM249.19 200.216C248.578 200.216 248.038 200.102 247.57 199.874C247.114 199.634 246.73 199.346 246.418 199.01L247.246 198.074C247.486 198.35 247.768 198.572 248.092 198.74C248.428 198.908 248.776 198.992 249.136 198.992C249.676 198.992 250.174 198.836 250.63 198.524C251.086 198.212 251.452 197.696 251.728 196.976C252.016 196.256 252.166 195.284 252.178 194.06C251.818 194.516 251.398 194.876 250.918 195.14C250.438 195.404 249.958 195.536 249.478 195.536C248.494 195.536 247.702 195.242 247.102 194.654C246.514 194.054 246.22 193.166 246.22 191.99C246.22 191.258 246.376 190.616 246.688 190.064C247 189.512 247.408 189.08 247.912 188.768C248.428 188.456 248.992 188.3 249.604 188.3C250.36 188.3 251.038 188.504 251.638 188.912C252.238 189.32 252.706 189.932 253.042 190.748C253.39 191.564 253.564 192.59 253.564 193.826C253.564 195.362 253.354 196.598 252.934 197.534C252.526 198.47 251.992 199.154 251.332 199.586C250.672 200.006 249.958 200.216 249.19 200.216Z" fill="#344054"/>
<path d="M290.422 200V198.776H293.05V190.316H290.962V189.362C291.49 189.266 291.946 189.152 292.33 189.02C292.726 188.876 293.08 188.708 293.392 188.516H294.526V198.776H296.902V200H290.422ZM302.429 200.216C301.277 200.216 300.371 199.7 299.711 198.668C299.063 197.624 298.739 196.142 298.739 194.222C298.739 192.29 299.063 190.82 299.711 189.812C300.371 188.804 301.277 188.3 302.429 188.3C303.569 188.3 304.463 188.804 305.111 189.812C305.771 190.82 306.101 192.29 306.101 194.222C306.101 196.142 305.771 197.624 305.111 198.668C304.463 199.7 303.569 200.216 302.429 200.216ZM302.429 199.028C303.101 199.028 303.641 198.65 304.049 197.894C304.457 197.126 304.661 195.902 304.661 194.222C304.661 192.542 304.457 191.336 304.049 190.604C303.641 189.86 303.101 189.488 302.429 189.488C301.757 189.488 301.211 189.86 300.791 190.604C300.383 191.336 300.179 192.542 300.179 194.222C300.179 195.902 300.383 197.126 300.791 197.894C301.211 198.65 301.757 199.028 302.429 199.028Z" fill="#344054"/>
<path d="M338.422 200V198.776H341.05V190.316H338.962V189.362C339.49 189.266 339.946 189.152 340.33 189.02C340.726 188.876 341.08 188.708 341.392 188.516H342.526V198.776H344.902V200H338.422ZM347.369 200V198.776H349.997V190.316H347.909V189.362C348.437 189.266 348.893 189.152 349.277 189.02C349.673 188.876 350.027 188.708 350.339 188.516H351.473V198.776H353.849V200H347.369Z" fill="#344054"/>
<path d="M386.422 200V198.776H389.05V190.316H386.962V189.362C387.49 189.266 387.946 189.152 388.33 189.02C388.726 188.876 389.08 188.708 389.392 188.516H390.526V198.776H392.902V200H386.422ZM394.667 200V199.118C395.819 197.966 396.797 196.958 397.601 196.094C398.405 195.218 399.017 194.432 399.437 193.736C399.857 193.028 400.067 192.368 400.067 191.756C400.067 191.096 399.887 190.556 399.527 190.136C399.167 189.716 398.621 189.506 397.889 189.506C397.409 189.506 396.965 189.644 396.557 189.92C396.149 190.184 395.777 190.508 395.441 190.892L394.595 190.046C395.075 189.518 395.585 189.098 396.125 188.786C396.677 188.462 397.325 188.3 398.069 188.3C399.137 188.3 399.977 188.612 400.589 189.236C401.201 189.848 401.507 190.664 401.507 191.684C401.507 192.404 401.303 193.136 400.895 193.88C400.499 194.612 399.947 195.386 399.239 196.202C398.543 197.006 397.739 197.882 396.827 198.83C397.139 198.806 397.463 198.782 397.799 198.758C398.135 198.734 398.453 198.722 398.753 198.722H402.083V200H394.667Z" fill="#344054"/>
<path d="M98.422 248V246.776H101.05V238.316H98.962V237.362C99.49 237.266 99.946 237.152 100.33 237.02C100.726 236.876 101.08 236.708 101.392 236.516H102.526V246.776H104.902V248H98.422ZM110.195 248.216C109.283 248.216 108.521 248.054 107.909 247.73C107.297 247.394 106.799 247.016 106.415 246.596L107.171 245.624C107.519 245.984 107.927 246.302 108.395 246.578C108.863 246.854 109.433 246.992 110.105 246.992C110.801 246.992 111.371 246.8 111.815 246.416C112.259 246.032 112.481 245.522 112.481 244.886C112.481 244.43 112.361 244.034 112.121 243.698C111.893 243.35 111.509 243.08 110.969 242.888C110.441 242.696 109.721 242.6 108.809 242.6V241.466C109.625 241.466 110.267 241.37 110.735 241.178C111.215 240.986 111.557 240.728 111.761 240.404C111.965 240.08 112.067 239.72 112.067 239.324C112.067 238.76 111.887 238.316 111.527 237.992C111.179 237.668 110.699 237.506 110.087 237.506C109.607 237.506 109.163 237.614 108.755 237.83C108.359 238.046 107.987 238.328 107.639 238.676L106.847 237.74C107.291 237.32 107.783 236.978 108.323 236.714C108.863 236.438 109.469 236.3 110.141 236.3C111.137 236.3 111.959 236.558 112.607 237.074C113.255 237.578 113.579 238.292 113.579 239.216C113.579 239.912 113.387 240.482 113.003 240.926C112.619 241.37 112.115 241.712 111.491 241.952V242.024C112.187 242.18 112.775 242.51 113.255 243.014C113.735 243.506 113.975 244.148 113.975 244.94C113.975 245.612 113.807 246.194 113.471 246.686C113.135 247.178 112.679 247.556 112.103 247.82C111.539 248.084 110.903 248.216 110.195 248.216Z" fill="#344054"/>
<path d="M146.422 248V246.776H149.05V238.316H146.962V237.362C147.49 237.266 147.946 237.152 148.33 237.02C148.726 236.876 149.08 236.708 149.392 236.516H150.526V246.776H152.902V248H146.422ZM155.819 243.644H159.419V240.314C159.419 240.002 159.431 239.63 159.455 239.198C159.479 238.766 159.497 238.4 159.509 238.1H159.437C159.293 238.376 159.143 238.646 158.987 238.91C158.831 239.174 158.669 239.444 158.501 239.72L155.819 243.644ZM159.419 248V244.832H154.253V243.86L159.167 236.516H160.823V243.644H162.389V244.832H160.823V248H159.419Z" fill="#344054"/>
<path d="M194.422 248V246.776H197.05V238.316H194.962V237.362C195.49 237.266 195.946 237.152 196.33 237.02C196.726 236.876 197.08 236.708 197.392 236.516H198.526V246.776H200.902V248H194.422ZM206.159 248.216C205.247 248.216 204.491 248.054 203.891 247.73C203.291 247.406 202.793 247.046 202.397 246.65L203.117 245.678C203.465 246.014 203.867 246.32 204.323 246.596C204.779 246.86 205.343 246.992 206.015 246.992C206.723 246.992 207.317 246.758 207.797 246.29C208.289 245.81 208.535 245.168 208.535 244.364C208.535 243.572 208.313 242.954 207.869 242.51C207.425 242.066 206.831 241.844 206.087 241.844C205.691 241.844 205.349 241.904 205.061 242.024C204.785 242.144 204.473 242.318 204.125 242.546L203.333 242.042L203.711 236.516H209.453V237.794H205.007L204.701 241.196C204.977 241.052 205.253 240.938 205.529 240.854C205.805 240.77 206.117 240.728 206.465 240.728C207.125 240.728 207.719 240.86 208.247 241.124C208.787 241.376 209.219 241.766 209.543 242.294C209.867 242.822 210.029 243.5 210.029 244.328C210.029 245.156 209.843 245.864 209.471 246.452C209.111 247.028 208.637 247.466 208.049 247.766C207.461 248.066 206.831 248.216 206.159 248.216Z" fill="#344054"/>
<path d="M242.422 248V246.776H245.05V238.316H242.962V237.362C243.49 237.266 243.946 237.152 244.33 237.02C244.726 236.876 245.08 236.708 245.392 236.516H246.526V246.776H248.902V248H242.422ZM254.645 242.096C254.273 242.096 253.871 242.216 253.439 242.456C253.007 242.696 252.611 243.08 252.251 243.608C252.347 244.724 252.605 245.576 253.025 246.164C253.457 246.752 254.039 247.046 254.771 247.046C255.335 247.046 255.809 246.818 256.193 246.362C256.577 245.894 256.769 245.282 256.769 244.526C256.769 243.782 256.589 243.194 256.229 242.762C255.881 242.318 255.353 242.096 254.645 242.096ZM254.771 248.216C254.027 248.216 253.355 248.012 252.755 247.604C252.155 247.196 251.681 246.584 251.333 245.768C250.985 244.94 250.811 243.914 250.811 242.69C250.811 241.154 251.015 239.918 251.423 238.982C251.843 238.046 252.383 237.368 253.043 236.948C253.715 236.516 254.429 236.3 255.185 236.3C255.809 236.3 256.343 236.42 256.787 236.66C257.243 236.888 257.633 237.176 257.957 237.524L257.129 238.442C256.901 238.166 256.619 237.95 256.283 237.794C255.947 237.626 255.599 237.542 255.239 237.542C254.699 237.542 254.207 237.698 253.763 238.01C253.319 238.31 252.953 238.82 252.665 239.54C252.389 240.248 252.239 241.208 252.215 242.42C252.575 241.976 252.995 241.628 253.475 241.376C253.955 241.112 254.429 240.98 254.897 240.98C255.893 240.98 256.685 241.28 257.273 241.88C257.873 242.468 258.173 243.35 258.173 244.526C258.173 245.258 258.017 245.9 257.705 246.452C257.393 247.004 256.979 247.436 256.463 247.748C255.959 248.06 255.395 248.216 254.771 248.216Z" fill="#344054"/>
<path d="M290.422 248V246.776H293.05V238.316H290.962V237.362C291.49 237.266 291.946 237.152 292.33 237.02C292.726 236.876 293.08 236.708 293.392 236.516H294.526V246.776H296.902V248H290.422ZM301.133 248C301.205 246.56 301.355 245.27 301.583 244.13C301.823 242.978 302.171 241.898 302.627 240.89C303.095 239.87 303.707 238.838 304.463 237.794H298.739V236.516H306.137V237.434C305.453 238.298 304.895 239.132 304.463 239.936C304.031 240.728 303.695 241.532 303.455 242.348C303.215 243.152 303.035 244.016 302.915 244.94C302.795 245.864 302.711 246.884 302.663 248H301.133Z" fill="#344054"/>
<path d="M338.422 248V246.776H341.05V238.316H338.962V237.362C339.49 237.266 339.946 237.152 340.33 237.02C340.726 236.876 341.08 236.708 341.392 236.516H342.526V246.776H344.902V248H338.422ZM350.447 248.216C349.727 248.216 349.085 248.084 348.521 247.82C347.957 247.544 347.507 247.166 347.171 246.686C346.847 246.206 346.685 245.666 346.685 245.066C346.685 244.562 346.787 244.118 346.991 243.734C347.207 243.338 347.477 242.996 347.801 242.708C348.137 242.408 348.485 242.162 348.845 241.97V241.898C348.425 241.598 348.053 241.232 347.729 240.8C347.405 240.368 347.243 239.852 347.243 239.252C347.243 238.664 347.387 238.148 347.675 237.704C347.963 237.26 348.353 236.918 348.845 236.678C349.337 236.426 349.889 236.3 350.501 236.3C351.497 236.3 352.283 236.588 352.859 237.164C353.447 237.74 353.741 238.472 353.741 239.36C353.741 239.756 353.657 240.134 353.489 240.494C353.321 240.842 353.117 241.16 352.877 241.448C352.637 241.724 352.397 241.952 352.157 242.132V242.204C352.505 242.396 352.829 242.624 353.129 242.888C353.429 243.152 353.675 243.47 353.867 243.842C354.059 244.202 354.155 244.64 354.155 245.156C354.155 245.72 353.999 246.236 353.687 246.704C353.387 247.172 352.955 247.544 352.391 247.82C351.839 248.084 351.191 248.216 350.447 248.216ZM351.257 241.736C351.641 241.388 351.935 241.022 352.139 240.638C352.355 240.254 352.463 239.852 352.463 239.432C352.463 238.868 352.289 238.388 351.941 237.992C351.593 237.596 351.101 237.398 350.465 237.398C349.937 237.398 349.493 237.566 349.133 237.902C348.785 238.238 348.611 238.688 348.611 239.252C348.611 239.708 348.731 240.086 348.971 240.386C349.223 240.686 349.553 240.944 349.961 241.16C350.369 241.364 350.801 241.556 351.257 241.736ZM350.483 247.118C351.155 247.118 351.695 246.932 352.103 246.56C352.523 246.176 352.733 245.69 352.733 245.102C352.733 244.61 352.589 244.208 352.301 243.896C352.013 243.584 351.629 243.314 351.149 243.086C350.681 242.858 350.171 242.636 349.619 242.42C349.163 242.72 348.779 243.08 348.467 243.5C348.167 243.92 348.017 244.394 348.017 244.922C348.017 245.558 348.251 246.086 348.719 246.506C349.199 246.914 349.787 247.118 350.483 247.118Z" fill="#344054"/>
<path d="M386.422 248V246.776H389.05V238.316H386.962V237.362C387.49 237.266 387.946 237.152 388.33 237.02C388.726 236.876 389.08 236.708 389.392 236.516H390.526V246.776H392.902V248H386.422ZM396.053 239.99C396.053 240.734 396.227 241.328 396.575 241.772C396.935 242.204 397.469 242.42 398.177 242.42C398.561 242.42 398.963 242.3 399.383 242.06C399.815 241.82 400.217 241.43 400.589 240.89C400.493 239.774 400.229 238.928 399.797 238.352C399.365 237.764 398.783 237.47 398.051 237.47C397.499 237.47 397.025 237.704 396.629 238.172C396.245 238.628 396.053 239.234 396.053 239.99ZM397.637 248.216C397.025 248.216 396.485 248.102 396.017 247.874C395.561 247.634 395.177 247.346 394.865 247.01L395.693 246.074C395.933 246.35 396.215 246.572 396.539 246.74C396.875 246.908 397.223 246.992 397.583 246.992C398.123 246.992 398.621 246.836 399.077 246.524C399.533 246.212 399.899 245.696 400.175 244.976C400.463 244.256 400.613 243.284 400.625 242.06C400.265 242.516 399.845 242.876 399.365 243.14C398.885 243.404 398.405 243.536 397.925 243.536C396.941 243.536 396.149 243.242 395.549 242.654C394.961 242.054 394.667 241.166 394.667 239.99C394.667 239.258 394.823 238.616 395.135 238.064C395.447 237.512 395.855 237.08 396.359 236.768C396.875 236.456 397.439 236.3 398.051 236.3C398.807 236.3 399.485 236.504 400.085 236.912C400.685 237.32 401.153 237.932 401.489 238.748C401.837 239.564 402.011 240.59 402.011 241.826C402.011 243.362 401.801 244.598 401.381 245.534C400.973 246.47 400.439 247.154 399.779 247.586C399.119 248.006 398.405 248.216 397.637 248.216Z" fill="#344054"/>
<path d="M97.72 296V295.118C98.872 293.966 99.85 292.958 100.654 292.094C101.458 291.218 102.07 290.432 102.49 289.736C102.91 289.028 103.12 288.368 103.12 287.756C103.12 287.096 102.94 286.556 102.58 286.136C102.22 285.716 101.674 285.506 100.942 285.506C100.462 285.506 100.018 285.644 99.61 285.92C99.202 286.184 98.83 286.508 98.494 286.892L97.648 286.046C98.128 285.518 98.638 285.098 99.178 284.786C99.73 284.462 100.378 284.3 101.122 284.3C102.19 284.3 103.03 284.612 103.642 285.236C104.254 285.848 104.56 286.664 104.56 287.684C104.56 288.404 104.356 289.136 103.948 289.88C103.552 290.612 103 291.386 102.292 292.202C101.596 293.006 100.792 293.882 99.88 294.83C100.192 294.806 100.516 294.782 100.852 294.758C101.188 294.734 101.506 294.722 101.806 294.722H105.136V296H97.72ZM110.429 296.216C109.277 296.216 108.371 295.7 107.711 294.668C107.063 293.624 106.739 292.142 106.739 290.222C106.739 288.29 107.063 286.82 107.711 285.812C108.371 284.804 109.277 284.3 110.429 284.3C111.569 284.3 112.463 284.804 113.111 285.812C113.771 286.82 114.101 288.29 114.101 290.222C114.101 292.142 113.771 293.624 113.111 294.668C112.463 295.7 111.569 296.216 110.429 296.216ZM110.429 295.028C111.101 295.028 111.641 294.65 112.049 293.894C112.457 293.126 112.661 291.902 112.661 290.222C112.661 288.542 112.457 287.336 112.049 286.604C111.641 285.86 111.101 285.488 110.429 285.488C109.757 285.488 109.211 285.86 108.791 286.604C108.383 287.336 108.179 288.542 108.179 290.222C108.179 291.902 108.383 293.126 108.791 293.894C109.211 294.65 109.757 295.028 110.429 295.028Z" fill="#344054"/>
<path d="M145.72 296V295.118C146.872 293.966 147.85 292.958 148.654 292.094C149.458 291.218 150.07 290.432 150.49 289.736C150.91 289.028 151.12 288.368 151.12 287.756C151.12 287.096 150.94 286.556 150.58 286.136C150.22 285.716 149.674 285.506 148.942 285.506C148.462 285.506 148.018 285.644 147.61 285.92C147.202 286.184 146.83 286.508 146.494 286.892L145.648 286.046C146.128 285.518 146.638 285.098 147.178 284.786C147.73 284.462 148.378 284.3 149.122 284.3C150.19 284.3 151.03 284.612 151.642 285.236C152.254 285.848 152.56 286.664 152.56 287.684C152.56 288.404 152.356 289.136 151.948 289.88C151.552 290.612 151 291.386 150.292 292.202C149.596 293.006 148.792 293.882 147.88 294.83C148.192 294.806 148.516 294.782 148.852 294.758C149.188 294.734 149.506 294.722 149.806 294.722H153.136V296H145.72ZM155.369 296V294.776H157.997V286.316H155.909V285.362C156.437 285.266 156.893 285.152 157.277 285.02C157.673 284.876 158.027 284.708 158.339 284.516H159.473V294.776H161.849V296H155.369Z" fill="#344054"/>
<path d="M193.72 296V295.118C194.872 293.966 195.85 292.958 196.654 292.094C197.458 291.218 198.07 290.432 198.49 289.736C198.91 289.028 199.12 288.368 199.12 287.756C199.12 287.096 198.94 286.556 198.58 286.136C198.22 285.716 197.674 285.506 196.942 285.506C196.462 285.506 196.018 285.644 195.61 285.92C195.202 286.184 194.83 286.508 194.494 286.892L193.648 286.046C194.128 285.518 194.638 285.098 195.178 284.786C195.73 284.462 196.378 284.3 197.122 284.3C198.19 284.3 199.03 284.612 199.642 285.236C200.254 285.848 200.56 286.664 200.56 287.684C200.56 288.404 200.356 289.136 199.948 289.88C199.552 290.612 199 291.386 198.292 292.202C197.596 293.006 196.792 293.882 195.88 294.83C196.192 294.806 196.516 294.782 196.852 294.758C197.188 294.734 197.506 294.722 197.806 294.722H201.136V296H193.72ZM202.667 296V295.118C203.819 293.966 204.797 292.958 205.601 292.094C206.405 291.218 207.017 290.432 207.437 289.736C207.857 289.028 208.067 288.368 208.067 287.756C208.067 287.096 207.887 286.556 207.527 286.136C207.167 285.716 206.621 285.506 205.889 285.506C205.409 285.506 204.965 285.644 204.557 285.92C204.149 286.184 203.777 286.508 203.441 286.892L202.595 286.046C203.075 285.518 203.585 285.098 204.125 284.786C204.677 284.462 205.325 284.3 206.069 284.3C207.137 284.3 207.977 284.612 208.589 285.236C209.201 285.848 209.507 286.664 209.507 287.684C209.507 288.404 209.303 289.136 208.895 289.88C208.499 290.612 207.947 291.386 207.239 292.202C206.543 293.006 205.739 293.882 204.827 294.83C205.139 294.806 205.463 294.782 205.799 294.758C206.135 294.734 206.453 294.722 206.753 294.722H210.083V296H202.667Z" fill="#344054"/>
<path d="M241.72 296V295.118C242.872 293.966 243.85 292.958 244.654 292.094C245.458 291.218 246.07 290.432 246.49 289.736C246.91 289.028 247.12 288.368 247.12 287.756C247.12 287.096 246.94 286.556 246.58 286.136C246.22 285.716 245.674 285.506 244.942 285.506C244.462 285.506 244.018 285.644 243.61 285.92C243.202 286.184 242.83 286.508 242.494 286.892L241.648 286.046C242.128 285.518 242.638 285.098 243.178 284.786C243.73 284.462 244.378 284.3 245.122 284.3C246.19 284.3 247.03 284.612 247.642 285.236C248.254 285.848 248.56 286.664 248.56 287.684C248.56 288.404 248.356 289.136 247.948 289.88C247.552 290.612 247 291.386 246.292 292.202C245.596 293.006 244.792 293.882 243.88 294.83C244.192 294.806 244.516 294.782 244.852 294.758C245.188 294.734 245.506 294.722 245.806 294.722H249.136V296H241.72ZM254.195 296.216C253.283 296.216 252.521 296.054 251.909 295.73C251.297 295.394 250.799 295.016 250.415 294.596L251.171 293.624C251.519 293.984 251.927 294.302 252.395 294.578C252.863 294.854 253.433 294.992 254.105 294.992C254.801 294.992 255.371 294.8 255.815 294.416C256.259 294.032 256.481 293.522 256.481 292.886C256.481 292.43 256.361 292.034 256.121 291.698C255.893 291.35 255.509 291.08 254.969 290.888C254.441 290.696 253.721 290.6 252.809 290.6V289.466C253.625 289.466 254.267 289.37 254.735 289.178C255.215 288.986 255.557 288.728 255.761 288.404C255.965 288.08 256.067 287.72 256.067 287.324C256.067 286.76 255.887 286.316 255.527 285.992C255.179 285.668 254.699 285.506 254.087 285.506C253.607 285.506 253.163 285.614 252.755 285.83C252.359 286.046 251.987 286.328 251.639 286.676L250.847 285.74C251.291 285.32 251.783 284.978 252.323 284.714C252.863 284.438 253.469 284.3 254.141 284.3C255.137 284.3 255.959 284.558 256.607 285.074C257.255 285.578 257.579 286.292 257.579 287.216C257.579 287.912 257.387 288.482 257.003 288.926C256.619 289.37 256.115 289.712 255.491 289.952V290.024C256.187 290.18 256.775 290.51 257.255 291.014C257.735 291.506 257.975 292.148 257.975 292.94C257.975 293.612 257.807 294.194 257.471 294.686C257.135 295.178 256.679 295.556 256.103 295.82C255.539 296.084 254.903 296.216 254.195 296.216Z" fill="#344054"/>
<path d="M289.72 296V295.118C290.872 293.966 291.85 292.958 292.654 292.094C293.458 291.218 294.07 290.432 294.49 289.736C294.91 289.028 295.12 288.368 295.12 287.756C295.12 287.096 294.94 286.556 294.58 286.136C294.22 285.716 293.674 285.506 292.942 285.506C292.462 285.506 292.018 285.644 291.61 285.92C291.202 286.184 290.83 286.508 290.494 286.892L289.648 286.046C290.128 285.518 290.638 285.098 291.178 284.786C291.73 284.462 292.378 284.3 293.122 284.3C294.19 284.3 295.03 284.612 295.642 285.236C296.254 285.848 296.56 286.664 296.56 287.684C296.56 288.404 296.356 289.136 295.948 289.88C295.552 290.612 295 291.386 294.292 292.202C293.596 293.006 292.792 293.882 291.88 294.83C292.192 294.806 292.516 294.782 292.852 294.758C293.188 294.734 293.506 294.722 293.806 294.722H297.136V296H289.72ZM299.819 291.644H303.419V288.314C303.419 288.002 303.431 287.63 303.455 287.198C303.479 286.766 303.497 286.4 303.509 286.1H303.437C303.293 286.376 303.143 286.646 302.987 286.91C302.831 287.174 302.669 287.444 302.501 287.72L299.819 291.644ZM303.419 296V292.832H298.253V291.86L303.167 284.516H304.823V291.644H306.389V292.832H304.823V296H303.419Z" fill="#344054"/>
<path d="M337.72 296V295.118C338.872 293.966 339.85 292.958 340.654 292.094C341.458 291.218 342.07 290.432 342.49 289.736C342.91 289.028 343.12 288.368 343.12 287.756C343.12 287.096 342.94 286.556 342.58 286.136C342.22 285.716 341.674 285.506 340.942 285.506C340.462 285.506 340.018 285.644 339.61 285.92C339.202 286.184 338.83 286.508 338.494 286.892L337.648 286.046C338.128 285.518 338.638 285.098 339.178 284.786C339.73 284.462 340.378 284.3 341.122 284.3C342.19 284.3 343.03 284.612 343.642 285.236C344.254 285.848 344.56 286.664 344.56 287.684C344.56 288.404 344.356 289.136 343.948 289.88C343.552 290.612 343 291.386 342.292 292.202C341.596 293.006 340.792 293.882 339.88 294.83C340.192 294.806 340.516 294.782 340.852 294.758C341.188 294.734 341.506 294.722 341.806 294.722H345.136V296H337.72ZM350.159 296.216C349.247 296.216 348.491 296.054 347.891 295.73C347.291 295.406 346.793 295.046 346.397 294.65L347.117 293.678C347.465 294.014 347.867 294.32 348.323 294.596C348.779 294.86 349.343 294.992 350.015 294.992C350.723 294.992 351.317 294.758 351.797 294.29C352.289 293.81 352.535 293.168 352.535 292.364C352.535 291.572 352.313 290.954 351.869 290.51C351.425 290.066 350.831 289.844 350.087 289.844C349.691 289.844 349.349 289.904 349.061 290.024C348.785 290.144 348.473 290.318 348.125 290.546L347.333 290.042L347.711 284.516H353.453V285.794H349.007L348.701 289.196C348.977 289.052 349.253 288.938 349.529 288.854C349.805 288.77 350.117 288.728 350.465 288.728C351.125 288.728 351.719 288.86 352.247 289.124C352.787 289.376 353.219 289.766 353.543 290.294C353.867 290.822 354.029 291.5 354.029 292.328C354.029 293.156 353.843 293.864 353.471 294.452C353.111 295.028 352.637 295.466 352.049 295.766C351.461 296.066 350.831 296.216 350.159 296.216Z" fill="#344054"/>
<path d="M385.72 296V295.118C386.872 293.966 387.85 292.958 388.654 292.094C389.458 291.218 390.07 290.432 390.49 289.736C390.91 289.028 391.12 288.368 391.12 287.756C391.12 287.096 390.94 286.556 390.58 286.136C390.22 285.716 389.674 285.506 388.942 285.506C388.462 285.506 388.018 285.644 387.61 285.92C387.202 286.184 386.83 286.508 386.494 286.892L385.648 286.046C386.128 285.518 386.638 285.098 387.178 284.786C387.73 284.462 388.378 284.3 389.122 284.3C390.19 284.3 391.03 284.612 391.642 285.236C392.254 285.848 392.56 286.664 392.56 287.684C392.56 288.404 392.356 289.136 391.948 289.88C391.552 290.612 391 291.386 390.292 292.202C389.596 293.006 388.792 293.882 387.88 294.83C388.192 294.806 388.516 294.782 388.852 294.758C389.188 294.734 389.506 294.722 389.806 294.722H393.136V296H385.72ZM398.645 290.096C398.273 290.096 397.871 290.216 397.439 290.456C397.007 290.696 396.611 291.08 396.251 291.608C396.347 292.724 396.605 293.576 397.025 294.164C397.457 294.752 398.039 295.046 398.771 295.046C399.335 295.046 399.809 294.818 400.193 294.362C400.577 293.894 400.769 293.282 400.769 292.526C400.769 291.782 400.589 291.194 400.229 290.762C399.881 290.318 399.353 290.096 398.645 290.096ZM398.771 296.216C398.027 296.216 397.355 296.012 396.755 295.604C396.155 295.196 395.681 294.584 395.333 293.768C394.985 292.94 394.811 291.914 394.811 290.69C394.811 289.154 395.015 287.918 395.423 286.982C395.843 286.046 396.383 285.368 397.043 284.948C397.715 284.516 398.429 284.3 399.185 284.3C399.809 284.3 400.343 284.42 400.787 284.66C401.243 284.888 401.633 285.176 401.957 285.524L401.129 286.442C400.901 286.166 400.619 285.95 400.283 285.794C399.947 285.626 399.599 285.542 399.239 285.542C398.699 285.542 398.207 285.698 397.763 286.01C397.319 286.31 396.953 286.82 396.665 287.54C396.389 288.248 396.239 289.208 396.215 290.42C396.575 289.976 396.995 289.628 397.475 289.376C397.955 289.112 398.429 288.98 398.897 288.98C399.893 288.98 400.685 289.28 401.273 289.88C401.873 290.468 402.173 291.35 402.173 292.526C402.173 293.258 402.017 293.9 401.705 294.452C401.393 295.004 400.979 295.436 400.463 295.748C399.959 296.06 399.395 296.216 398.771 296.216Z" fill="#344054"/>
<path d="M97.72 344V343.118C98.872 341.966 99.85 340.958 100.654 340.094C101.458 339.218 102.07 338.432 102.49 337.736C102.91 337.028 103.12 336.368 103.12 335.756C103.12 335.096 102.94 334.556 102.58 334.136C102.22 333.716 101.674 333.506 100.942 333.506C100.462 333.506 100.018 333.644 99.61 333.92C99.202 334.184 98.83 334.508 98.494 334.892L97.648 334.046C98.128 333.518 98.638 333.098 99.178 332.786C99.73 332.462 100.378 332.3 101.122 332.3C102.19 332.3 103.03 332.612 103.642 333.236C104.254 333.848 104.56 334.664 104.56 335.684C104.56 336.404 104.356 337.136 103.948 337.88C103.552 338.612 103 339.386 102.292 340.202C101.596 341.006 100.792 341.882 99.88 342.83C100.192 342.806 100.516 342.782 100.852 342.758C101.188 342.734 101.506 342.722 101.806 342.722H105.136V344H97.72ZM109.133 344C109.205 342.56 109.355 341.27 109.583 340.13C109.823 338.978 110.171 337.898 110.627 336.89C111.095 335.87 111.707 334.838 112.463 333.794H106.739V332.516H114.137V333.434C113.453 334.298 112.895 335.132 112.463 335.936C112.031 336.728 111.695 337.532 111.455 338.348C111.215 339.152 111.035 340.016 110.915 340.94C110.795 341.864 110.711 342.884 110.663 344H109.133Z" fill="#344054"/>
<path d="M145.72 344V343.118C146.872 341.966 147.85 340.958 148.654 340.094C149.458 339.218 150.07 338.432 150.49 337.736C150.91 337.028 151.12 336.368 151.12 335.756C151.12 335.096 150.94 334.556 150.58 334.136C150.22 333.716 149.674 333.506 148.942 333.506C148.462 333.506 148.018 333.644 147.61 333.92C147.202 334.184 146.83 334.508 146.494 334.892L145.648 334.046C146.128 333.518 146.638 333.098 147.178 332.786C147.73 332.462 148.378 332.3 149.122 332.3C150.19 332.3 151.03 332.612 151.642 333.236C152.254 333.848 152.56 334.664 152.56 335.684C152.56 336.404 152.356 337.136 151.948 337.88C151.552 338.612 151 339.386 150.292 340.202C149.596 341.006 148.792 341.882 147.88 342.83C148.192 342.806 148.516 342.782 148.852 342.758C149.188 342.734 149.506 342.722 149.806 342.722H153.136V344H145.72ZM158.447 344.216C157.727 344.216 157.085 344.084 156.521 343.82C155.957 343.544 155.507 343.166 155.171 342.686C154.847 342.206 154.685 341.666 154.685 341.066C154.685 340.562 154.787 340.118 154.991 339.734C155.207 339.338 155.477 338.996 155.801 338.708C156.137 338.408 156.485 338.162 156.845 337.97V337.898C156.425 337.598 156.053 337.232 155.729 336.8C155.405 336.368 155.243 335.852 155.243 335.252C155.243 334.664 155.387 334.148 155.675 333.704C155.963 333.26 156.353 332.918 156.845 332.678C157.337 332.426 157.889 332.3 158.501 332.3C159.497 332.3 160.283 332.588 160.859 333.164C161.447 333.74 161.741 334.472 161.741 335.36C161.741 335.756 161.657 336.134 161.489 336.494C161.321 336.842 161.117 337.16 160.877 337.448C160.637 337.724 160.397 337.952 160.157 338.132V338.204C160.505 338.396 160.829 338.624 161.129 338.888C161.429 339.152 161.675 339.47 161.867 339.842C162.059 340.202 162.155 340.64 162.155 341.156C162.155 341.72 161.999 342.236 161.687 342.704C161.387 343.172 160.955 343.544 160.391 343.82C159.839 344.084 159.191 344.216 158.447 344.216ZM159.257 337.736C159.641 337.388 159.935 337.022 160.139 336.638C160.355 336.254 160.463 335.852 160.463 335.432C160.463 334.868 160.289 334.388 159.941 333.992C159.593 333.596 159.101 333.398 158.465 333.398C157.937 333.398 157.493 333.566 157.133 333.902C156.785 334.238 156.611 334.688 156.611 335.252C156.611 335.708 156.731 336.086 156.971 336.386C157.223 336.686 157.553 336.944 157.961 337.16C158.369 337.364 158.801 337.556 159.257 337.736ZM158.483 343.118C159.155 343.118 159.695 342.932 160.103 342.56C160.523 342.176 160.733 341.69 160.733 341.102C160.733 340.61 160.589 340.208 160.301 339.896C160.013 339.584 159.629 339.314 159.149 339.086C158.681 338.858 158.171 338.636 157.619 338.42C157.163 338.72 156.779 339.08 156.467 339.5C156.167 339.92 156.017 340.394 156.017 340.922C156.017 341.558 156.251 342.086 156.719 342.506C157.199 342.914 157.787 343.118 158.483 343.118Z" fill="#344054"/>
<path d="M193.72 344V343.118C194.872 341.966 195.85 340.958 196.654 340.094C197.458 339.218 198.07 338.432 198.49 337.736C198.91 337.028 199.12 336.368 199.12 335.756C199.12 335.096 198.94 334.556 198.58 334.136C198.22 333.716 197.674 333.506 196.942 333.506C196.462 333.506 196.018 333.644 195.61 333.92C195.202 334.184 194.83 334.508 194.494 334.892L193.648 334.046C194.128 333.518 194.638 333.098 195.178 332.786C195.73 332.462 196.378 332.3 197.122 332.3C198.19 332.3 199.03 332.612 199.642 333.236C200.254 333.848 200.56 334.664 200.56 335.684C200.56 336.404 200.356 337.136 199.948 337.88C199.552 338.612 199 339.386 198.292 340.202C197.596 341.006 196.792 341.882 195.88 342.83C196.192 342.806 196.516 342.782 196.852 342.758C197.188 342.734 197.506 342.722 197.806 342.722H201.136V344H193.72ZM204.053 335.99C204.053 336.734 204.227 337.328 204.575 337.772C204.935 338.204 205.469 338.42 206.177 338.42C206.561 338.42 206.963 338.3 207.383 338.06C207.815 337.82 208.217 337.43 208.589 336.89C208.493 335.774 208.229 334.928 207.797 334.352C207.365 333.764 206.783 333.47 206.051 333.47C205.499 333.47 205.025 333.704 204.629 334.172C204.245 334.628 204.053 335.234 204.053 335.99ZM205.637 344.216C205.025 344.216 204.485 344.102 204.017 343.874C203.561 343.634 203.177 343.346 202.865 343.01L203.693 342.074C203.933 342.35 204.215 342.572 204.539 342.74C204.875 342.908 205.223 342.992 205.583 342.992C206.123 342.992 206.621 342.836 207.077 342.524C207.533 342.212 207.899 341.696 208.175 340.976C208.463 340.256 208.613 339.284 208.625 338.06C208.265 338.516 207.845 338.876 207.365 339.14C206.885 339.404 206.405 339.536 205.925 339.536C204.941 339.536 204.149 339.242 203.549 338.654C202.961 338.054 202.667 337.166 202.667 335.99C202.667 335.258 202.823 334.616 203.135 334.064C203.447 333.512 203.855 333.08 204.359 332.768C204.875 332.456 205.439 332.3 206.051 332.3C206.807 332.3 207.485 332.504 208.085 332.912C208.685 333.32 209.153 333.932 209.489 334.748C209.837 335.564 210.011 336.59 210.011 337.826C210.011 339.362 209.801 340.598 209.381 341.534C208.973 342.47 208.439 343.154 207.779 343.586C207.119 344.006 206.405 344.216 205.637 344.216Z" fill="#344054"/>
<path d="M245.248 344.216C244.336 344.216 243.574 344.054 242.962 343.73C242.35 343.394 241.852 343.016 241.468 342.596L242.224 341.624C242.572 341.984 242.98 342.302 243.448 342.578C243.916 342.854 244.486 342.992 245.158 342.992C245.854 342.992 246.424 342.8 246.868 342.416C247.312 342.032 247.534 341.522 247.534 340.886C247.534 340.43 247.414 340.034 247.174 339.698C246.946 339.35 246.562 339.08 246.022 338.888C245.494 338.696 244.774 338.6 243.862 338.6V337.466C244.678 337.466 245.32 337.37 245.788 337.178C246.268 336.986 246.61 336.728 246.814 336.404C247.018 336.08 247.12 335.72 247.12 335.324C247.12 334.76 246.94 334.316 246.58 333.992C246.232 333.668 245.752 333.506 245.14 333.506C244.66 333.506 244.216 333.614 243.808 333.83C243.412 334.046 243.04 334.328 242.692 334.676L241.9 333.74C242.344 333.32 242.836 332.978 243.376 332.714C243.916 332.438 244.522 332.3 245.194 332.3C246.19 332.3 247.012 332.558 247.66 333.074C248.308 333.578 248.632 334.292 248.632 335.216C248.632 335.912 248.44 336.482 248.056 336.926C247.672 337.37 247.168 337.712 246.544 337.952V338.024C247.24 338.18 247.828 338.51 248.308 339.014C248.788 339.506 249.028 340.148 249.028 340.94C249.028 341.612 248.86 342.194 248.524 342.686C248.188 343.178 247.732 343.556 247.156 343.82C246.592 344.084 245.956 344.216 245.248 344.216ZM254.429 344.216C253.277 344.216 252.371 343.7 251.711 342.668C251.063 341.624 250.739 340.142 250.739 338.222C250.739 336.29 251.063 334.82 251.711 333.812C252.371 332.804 253.277 332.3 254.429 332.3C255.569 332.3 256.463 332.804 257.111 333.812C257.771 334.82 258.101 336.29 258.101 338.222C258.101 340.142 257.771 341.624 257.111 342.668C256.463 343.7 255.569 344.216 254.429 344.216ZM254.429 343.028C255.101 343.028 255.641 342.65 256.049 341.894C256.457 341.126 256.661 339.902 256.661 338.222C256.661 336.542 256.457 335.336 256.049 334.604C255.641 333.86 255.101 333.488 254.429 333.488C253.757 333.488 253.211 333.86 252.791 334.604C252.383 335.336 252.179 336.542 252.179 338.222C252.179 339.902 252.383 341.126 252.791 341.894C253.211 342.65 253.757 343.028 254.429 343.028Z" fill="#344054"/>
<path d="M293.248 344.216C292.336 344.216 291.574 344.054 290.962 343.73C290.35 343.394 289.852 343.016 289.468 342.596L290.224 341.624C290.572 341.984 290.98 342.302 291.448 342.578C291.916 342.854 292.486 342.992 293.158 342.992C293.854 342.992 294.424 342.8 294.868 342.416C295.312 342.032 295.534 341.522 295.534 340.886C295.534 340.43 295.414 340.034 295.174 339.698C294.946 339.35 294.562 339.08 294.022 338.888C293.494 338.696 292.774 338.6 291.862 338.6V337.466C292.678 337.466 293.32 337.37 293.788 337.178C294.268 336.986 294.61 336.728 294.814 336.404C295.018 336.08 295.12 335.72 295.12 335.324C295.12 334.76 294.94 334.316 294.58 333.992C294.232 333.668 293.752 333.506 293.14 333.506C292.66 333.506 292.216 333.614 291.808 333.83C291.412 334.046 291.04 334.328 290.692 334.676L289.9 333.74C290.344 333.32 290.836 332.978 291.376 332.714C291.916 332.438 292.522 332.3 293.194 332.3C294.19 332.3 295.012 332.558 295.66 333.074C296.308 333.578 296.632 334.292 296.632 335.216C296.632 335.912 296.44 336.482 296.056 336.926C295.672 337.37 295.168 337.712 294.544 337.952V338.024C295.24 338.18 295.828 338.51 296.308 339.014C296.788 339.506 297.028 340.148 297.028 340.94C297.028 341.612 296.86 342.194 296.524 342.686C296.188 343.178 295.732 343.556 295.156 343.82C294.592 344.084 293.956 344.216 293.248 344.216ZM299.369 344V342.776H301.997V334.316H299.909V333.362C300.437 333.266 300.893 333.152 301.277 333.02C301.673 332.876 302.027 332.708 302.339 332.516H303.473V342.776H305.849V344H299.369Z" fill="black"/>
<path d="M342.922 344V342.776H345.55V334.316H343.462V333.362C343.99 333.266 344.446 333.152 344.83 333.02C345.226 332.876 345.58 332.708 345.892 332.516H347.026V342.776H349.402V344H342.922Z" fill="black" fill-opacity="0.3"/>
<path d="M390.22 344V343.118C391.372 341.966 392.35 340.958 393.154 340.094C393.958 339.218 394.57 338.432 394.99 337.736C395.41 337.028 395.62 336.368 395.62 335.756C395.62 335.096 395.44 334.556 395.08 334.136C394.72 333.716 394.174 333.506 393.442 333.506C392.962 333.506 392.518 333.644 392.11 333.92C391.702 334.184 391.33 334.508 390.994 334.892L390.148 334.046C390.628 333.518 391.138 333.098 391.678 332.786C392.23 332.462 392.878 332.3 393.622 332.3C394.69 332.3 395.53 332.612 396.142 333.236C396.754 333.848 397.06 334.664 397.06 335.684C397.06 336.404 396.856 337.136 396.448 337.88C396.052 338.612 395.5 339.386 394.792 340.202C394.096 341.006 393.292 341.882 392.38 342.83C392.692 342.806 393.016 342.782 393.352 342.758C393.688 342.734 394.006 342.722 394.306 342.722H397.636V344H390.22Z" fill="black" fill-opacity="0.3"/>
<rect x="58.5" y="0.5" width="383" height="385" rx="4.5" stroke="#98A2B3"/>
<rect x="58" y="2" width="384" height="24" fill="#E8178A" fill-opacity="0.25"/>
<rect x="58" y="2" width="24" height="384" fill="#E8178A" fill-opacity="0.25"/>
<rect x="418" y="2" width="24" height="384" fill="#E8178A" fill-opacity="0.25"/>
<rect x="58" y="58" width="384" height="24" fill="#E8178A" fill-opacity="0.25"/>
<rect x="58" y="362" width="384" height="24" fill="#E8178A" fill-opacity="0.25"/>
<path d="M41.5 2V26" stroke="#E8178A"/>
<rect y="6.5" width="37" height="18" rx="3" fill="#E8178A"/>
<path d="M6.58949 19.5H11.7741V18.2429H8.72017V18.1932L9.78196 17.1527C11.277 15.7891 11.6783 15.1072 11.6783 14.2798C11.6783 13.0192 10.6484 12.1278 9.08949 12.1278C7.5625 12.1278 6.51491 13.0405 6.51847 14.468H7.97798C7.97443 13.772 8.41477 13.3459 9.07884 13.3459C9.71804 13.3459 10.1939 13.7436 10.1939 14.3828C10.1939 14.9616 9.83878 15.3594 9.17827 15.995L6.58949 18.392V19.5ZM12.622 18.2216H16.1127V19.5H17.5829V18.2216H18.4849V16.9893H17.5829V12.2273H15.6582L12.622 17.0107V18.2216ZM16.1412 16.9893H14.1703V16.9325L16.0843 13.9034H16.1412V16.9893ZM19.5236 21.5455H21.0364V18.6264H21.0826C21.2921 19.081 21.7502 19.5888 22.6309 19.5888C23.8738 19.5888 24.8432 18.6051 24.8432 16.7798C24.8432 14.9048 23.8311 13.9744 22.6344 13.9744C21.7218 13.9744 21.285 14.5178 21.0826 14.9616H21.0151V14.0455H19.5236V21.5455ZM21.0044 16.7727C21.0044 15.7997 21.4164 15.1783 22.1515 15.1783C22.9007 15.1783 23.2985 15.8281 23.2985 16.7727C23.2985 17.7244 22.8936 18.3849 22.1515 18.3849C21.4235 18.3849 21.0044 17.7457 21.0044 16.7727ZM26.9109 14.0455H25.3484L26.9109 16.7727L25.2915 19.5H26.854L27.9123 17.6143L28.9883 19.5H30.533L28.9102 16.7727L30.4904 14.0455H28.9386L27.9123 15.9524L26.9109 14.0455Z" fill="white"/>
<line x1="38" y1="2.5" x2="45" y2="2.5" stroke="#E8178A"/>
<line x1="38" y1="25.5" x2="45" y2="25.5" stroke="#E8178A"/>
<path d="M41.5 58V82" stroke="#E8178A"/>
<rect y="62.5" width="37" height="18" rx="3" fill="#E8178A"/>
<path d="M6.58949 75.5H11.7741V74.2429H8.72017V74.1932L9.78196 73.1527C11.277 71.7891 11.6783 71.1072 11.6783 70.2798C11.6783 69.0192 10.6484 68.1278 9.08949 68.1278C7.5625 68.1278 6.51491 69.0405 6.51847 70.468H7.97798C7.97443 69.772 8.41477 69.3459 9.07884 69.3459C9.71804 69.3459 10.1939 69.7436 10.1939 70.3828C10.1939 70.9616 9.83878 71.3594 9.17827 71.995L6.58949 74.392V75.5ZM12.622 74.2216H16.1127V75.5H17.5829V74.2216H18.4849V72.9893H17.5829V68.2273H15.6582L12.622 73.0107V74.2216ZM16.1412 72.9893H14.1703V72.9325L16.0843 69.9034H16.1412V72.9893ZM19.5236 77.5455H21.0364V74.6264H21.0826C21.2921 75.081 21.7502 75.5888 22.6309 75.5888C23.8738 75.5888 24.8432 74.6051 24.8432 72.7798C24.8432 70.9048 23.8311 69.9744 22.6344 69.9744C21.7218 69.9744 21.285 70.5178 21.0826 70.9616H21.0151V70.0455H19.5236V77.5455ZM21.0044 72.7727C21.0044 71.7997 21.4164 71.1783 22.1515 71.1783C22.9007 71.1783 23.2985 71.8281 23.2985 72.7727C23.2985 73.7244 22.8936 74.3849 22.1515 74.3849C21.4235 74.3849 21.0044 73.7457 21.0044 72.7727ZM26.9109 70.0455H25.3484L26.9109 72.7727L25.2915 75.5H26.854L27.9123 73.6143L28.9883 75.5H30.533L28.9102 72.7727L30.4904 70.0455H28.9386L27.9123 71.9524L26.9109 70.0455Z" fill="white"/>
<line x1="38" y1="58.5" x2="45" y2="58.5" stroke="#E8178A"/>
<line x1="38" y1="81.5" x2="45" y2="81.5" stroke="#E8178A"/>
<path d="M41.5 362V386" stroke="#E8178A"/>
<rect y="366.5" width="37" height="18" rx="3" fill="#E8178A"/>
<path d="M6.58949 379.5H11.7741V378.243H8.72017V378.193L9.78196 377.153C11.277 375.789 11.6783 375.107 11.6783 374.28C11.6783 373.019 10.6484 372.128 9.08949 372.128C7.5625 372.128 6.51491 373.04 6.51847 374.468H7.97798C7.97443 373.772 8.41477 373.346 9.07884 373.346C9.71804 373.346 10.1939 373.744 10.1939 374.383C10.1939 374.962 9.83878 375.359 9.17827 375.995L6.58949 378.392V379.5ZM12.622 378.222H16.1127V379.5H17.5829V378.222H18.4849V376.989H17.5829V372.227H15.6582L12.622 377.011V378.222ZM16.1412 376.989H14.1703V376.933L16.0843 373.903H16.1412V376.989ZM19.5236 381.545H21.0364V378.626H21.0826C21.2921 379.081 21.7502 379.589 22.6309 379.589C23.8738 379.589 24.8432 378.605 24.8432 376.78C24.8432 374.905 23.8311 373.974 22.6344 373.974C21.7218 373.974 21.285 374.518 21.0826 374.962H21.0151V374.045H19.5236V381.545ZM21.0044 376.773C21.0044 375.8 21.4164 375.178 22.1515 375.178C22.9007 375.178 23.2985 375.828 23.2985 376.773C23.2985 377.724 22.8936 378.385 22.1515 378.385C21.4235 378.385 21.0044 377.746 21.0044 376.773ZM26.9109 374.045H25.3484L26.9109 376.773L25.2915 379.5H26.854L27.9123 377.614L28.9883 379.5H30.533L28.9102 376.773L30.4904 374.045H28.9386L27.9123 375.952L26.9109 374.045Z" fill="white"/>
<line x1="38" y1="362.5" x2="45" y2="362.5" stroke="#E8178A"/>
<line x1="38" y1="385.5" x2="45" y2="385.5" stroke="#E8178A"/>
<path d="M58 402.5H82" stroke="#E8178A"/>
<rect x="51.5" y="407" width="37" height="18" rx="3" fill="#E8178A"/>
<path d="M58.0895 420H63.2741V418.743H60.2202V418.693L61.282 417.653C62.777 416.289 63.1783 415.607 63.1783 414.78C63.1783 413.519 62.1484 412.628 60.5895 412.628C59.0625 412.628 58.0149 413.54 58.0185 414.968H59.478C59.4744 414.272 59.9148 413.846 60.5788 413.846C61.218 413.846 61.6939 414.244 61.6939 414.883C61.6939 415.462 61.3388 415.859 60.6783 416.495L58.0895 418.892V420ZM64.122 418.722H67.6127V420H69.0829V418.722H69.9849V417.489H69.0829V412.727H67.1582L64.122 417.511V418.722ZM67.6412 417.489H65.6703V417.433L67.5843 414.403H67.6412V417.489ZM71.0236 422.045H72.5364V419.126H72.5826C72.7921 419.581 73.2502 420.089 74.1309 420.089C75.3738 420.089 76.3432 419.105 76.3432 417.28C76.3432 415.405 75.3311 414.474 74.1344 414.474C73.2218 414.474 72.785 415.018 72.5826 415.462H72.5151V414.545H71.0236V422.045ZM72.5044 417.273C72.5044 416.3 72.9164 415.678 73.6515 415.678C74.4007 415.678 74.7985 416.328 74.7985 417.273C74.7985 418.224 74.3936 418.885 73.6515 418.885C72.9235 418.885 72.5044 418.246 72.5044 417.273ZM78.4109 414.545H76.8484L78.4109 417.273L76.7915 420H78.354L79.4123 418.114L80.4883 420H82.033L80.4102 417.273L81.9904 414.545H80.4386L79.4123 416.452L78.4109 414.545Z" fill="white"/>
<line x1="58.5" y1="406" x2="58.5" y2="399" stroke="#E8178A"/>
<line x1="81.5" y1="406" x2="81.5" y2="399" stroke="#E8178A"/>
<path d="M418 402.5H442" stroke="#E8178A"/>
<rect x="411.5" y="407" width="37" height="18" rx="3" fill="#E8178A"/>
<path d="M418.089 420H423.274V418.743H420.22V418.693L421.282 417.653C422.777 416.289 423.178 415.607 423.178 414.78C423.178 413.519 422.148 412.628 420.589 412.628C419.062 412.628 418.015 413.54 418.018 414.968H419.478C419.474 414.272 419.915 413.846 420.579 413.846C421.218 413.846 421.694 414.244 421.694 414.883C421.694 415.462 421.339 415.859 420.678 416.495L418.089 418.892V420ZM424.122 418.722H427.613V420H429.083V418.722H429.985V417.489H429.083V412.727H427.158L424.122 417.511V418.722ZM427.641 417.489H425.67V417.433L427.584 414.403H427.641V417.489ZM431.024 422.045H432.536V419.126H432.583C432.792 419.581 433.25 420.089 434.131 420.089C435.374 420.089 436.343 419.105 436.343 417.28C436.343 415.405 435.331 414.474 434.134 414.474C433.222 414.474 432.785 415.018 432.583 415.462H432.515V414.545H431.024V422.045ZM432.504 417.273C432.504 416.3 432.916 415.678 433.651 415.678C434.401 415.678 434.798 416.328 434.798 417.273C434.798 418.224 434.394 418.885 433.651 418.885C432.923 418.885 432.504 418.246 432.504 417.273ZM438.411 414.545H436.848L438.411 417.273L436.792 420H438.354L439.412 418.114L440.488 420H442.033L440.41 417.273L441.99 414.545H440.439L439.412 416.452L438.411 414.545Z" fill="white"/>
<line x1="418.5" y1="406" x2="418.5" y2="399" stroke="#E8178A"/>
<line x1="441.5" y1="406" x2="441.5" y2="399" stroke="#E8178A"/>
</svg>
