<svg width="326" height="150" viewBox="0 0 326 150" fill="none" xmlns="http://www.w3.org/2000/svg">
<circle cx="72" cy="16" r="12" fill="#344054"/>
<path d="M74.0057 10.3636V22H71.5455V12.6989H71.4773L68.8125 14.3693V12.1875L71.6932 10.3636H74.0057Z" fill="white"/>
<path d="M69 16H25V58" stroke="#344054" stroke-dasharray="2 2"/>
<circle cx="114" cy="134" r="12" fill="#344054"/>
<path d="M109.943 140V138.227L114.085 134.392C114.438 134.051 114.733 133.744 114.972 133.472C115.214 133.199 115.398 132.932 115.523 132.67C115.648 132.405 115.71 132.119 115.71 131.812C115.71 131.472 115.633 131.178 115.477 130.932C115.322 130.682 115.11 130.491 114.841 130.358C114.572 130.222 114.267 130.153 113.926 130.153C113.57 130.153 113.259 130.225 112.994 130.369C112.729 130.513 112.525 130.72 112.381 130.989C112.237 131.258 112.165 131.578 112.165 131.949H109.83C109.83 131.187 110.002 130.527 110.347 129.966C110.691 129.405 111.174 128.972 111.795 128.665C112.417 128.358 113.133 128.205 113.943 128.205C114.777 128.205 115.502 128.352 116.119 128.648C116.741 128.939 117.223 129.345 117.568 129.864C117.913 130.383 118.085 130.977 118.085 131.648C118.085 132.087 117.998 132.521 117.824 132.949C117.653 133.377 117.348 133.852 116.909 134.375C116.47 134.894 115.85 135.517 115.051 136.244L113.352 137.909V137.989H118.239V140H109.943Z" fill="white"/>
<path d="M111 134H67V94" stroke="#344054" stroke-dasharray="2 2"/>
<circle cx="242" cy="134" r="12" fill="#344054"/>
<path d="M242.244 140.159C241.396 140.159 240.64 140.013 239.977 139.722C239.318 139.426 238.797 139.021 238.415 138.506C238.036 137.987 237.841 137.388 237.83 136.71H240.307C240.322 136.994 240.415 137.244 240.585 137.46C240.759 137.672 240.991 137.837 241.278 137.955C241.566 138.072 241.89 138.131 242.25 138.131C242.625 138.131 242.956 138.064 243.244 137.932C243.532 137.799 243.758 137.616 243.92 137.381C244.083 137.146 244.165 136.875 244.165 136.568C244.165 136.258 244.078 135.983 243.903 135.744C243.733 135.502 243.487 135.312 243.165 135.176C242.847 135.04 242.468 134.972 242.028 134.972H240.943V133.165H242.028C242.4 133.165 242.727 133.1 243.011 132.972C243.299 132.843 243.523 132.665 243.682 132.438C243.841 132.206 243.92 131.938 243.92 131.631C243.92 131.339 243.85 131.083 243.71 130.864C243.574 130.64 243.381 130.466 243.131 130.341C242.884 130.216 242.597 130.153 242.267 130.153C241.934 130.153 241.629 130.214 241.352 130.335C241.076 130.453 240.854 130.621 240.688 130.841C240.521 131.061 240.432 131.318 240.42 131.614H238.062C238.074 130.943 238.265 130.352 238.636 129.841C239.008 129.33 239.508 128.93 240.136 128.642C240.769 128.35 241.483 128.205 242.278 128.205C243.081 128.205 243.784 128.35 244.386 128.642C244.989 128.934 245.456 129.328 245.79 129.824C246.127 130.316 246.294 130.869 246.29 131.483C246.294 132.134 246.091 132.678 245.682 133.114C245.277 133.549 244.748 133.826 244.097 133.943V134.034C244.953 134.144 245.604 134.441 246.051 134.926C246.502 135.407 246.725 136.009 246.722 136.733C246.725 137.396 246.534 137.985 246.148 138.5C245.765 139.015 245.237 139.42 244.562 139.716C243.888 140.011 243.116 140.159 242.244 140.159Z" fill="white"/>
<path d="M239 134H195V94" stroke="#344054" stroke-dasharray="2 2"/>
<path d="M1.40909 81V69.3636H2.81818V74.5455H9.02273V69.3636H10.4318V81H9.02273V75.7955H2.81818V81H1.40909ZM23.071 75.1818C23.071 76.4091 22.8494 77.4697 22.4062 78.3636C21.9631 79.2576 21.3551 79.947 20.5824 80.4318C19.8097 80.9167 18.9271 81.1591 17.9347 81.1591C16.9422 81.1591 16.0597 80.9167 15.2869 80.4318C14.5142 79.947 13.9063 79.2576 13.4631 78.3636C13.0199 77.4697 12.7983 76.4091 12.7983 75.1818C12.7983 73.9545 13.0199 72.8939 13.4631 72C13.9063 71.1061 14.5142 70.4167 15.2869 69.9318C16.0597 69.447 16.9422 69.2045 17.9347 69.2045C18.9271 69.2045 19.8097 69.447 20.5824 69.9318C21.3551 70.4167 21.9631 71.1061 22.4062 72C22.8494 72.8939 23.071 73.9545 23.071 75.1818ZM21.7074 75.1818C21.7074 74.1742 21.5388 73.3239 21.2017 72.6307C20.8684 71.9375 20.4157 71.4129 19.8438 71.0568C19.2756 70.7008 18.6392 70.5227 17.9347 70.5227C17.2301 70.5227 16.5919 70.7008 16.0199 71.0568C15.4517 71.4129 14.9991 71.9375 14.6619 72.6307C14.3286 73.3239 14.1619 74.1742 14.1619 75.1818C14.1619 76.1894 14.3286 77.0398 14.6619 77.733C14.9991 78.4261 15.4517 78.9508 16.0199 79.3068C16.5919 79.6629 17.2301 79.8409 17.9347 79.8409C18.6392 79.8409 19.2756 79.6629 19.8438 79.3068C20.4157 78.9508 20.8684 78.4261 21.2017 77.733C21.5388 77.0398 21.7074 76.1894 21.7074 75.1818ZM25.4403 69.3636H27.1222L31.0767 79.0227H31.2131L35.1676 69.3636H36.8494V81H35.5312V72.1591H35.4176L31.7812 81H30.5085L26.8722 72.1591H26.7585V81H25.4403V69.3636ZM39.6747 81V69.3636H46.6974V70.6136H41.0838V74.5455H46.3338V75.7955H41.0838V79.75H46.7884V81H39.6747Z" fill="#0F71BB"/>
<path d="M0 84.1818H47.8338V85.2727H0V84.1818Z" fill="#0F71BB"/>
<path d="M69.3409 68.8182L65.5909 82.75H64.3636L68.1136 68.8182H69.3409Z" fill="#344054"/>
<path d="M93.7727 72.2727C93.7045 71.697 93.428 71.25 92.9432 70.9318C92.4583 70.6136 91.8636 70.4545 91.1591 70.4545C90.6439 70.4545 90.1932 70.5379 89.8068 70.7045C89.4242 70.8712 89.125 71.1004 88.9091 71.392C88.697 71.6837 88.5909 72.0152 88.5909 72.3864C88.5909 72.697 88.6648 72.964 88.8125 73.1875C88.964 73.4072 89.1572 73.5909 89.392 73.7386C89.6269 73.8826 89.8731 74.0019 90.1307 74.0966C90.3883 74.1875 90.625 74.2614 90.8409 74.3182L92.0227 74.6364C92.3258 74.7159 92.6629 74.8258 93.0341 74.9659C93.4091 75.1061 93.767 75.2973 94.108 75.5398C94.4527 75.7784 94.7367 76.0852 94.9602 76.4602C95.1837 76.8352 95.2955 77.2955 95.2955 77.8409C95.2955 78.4697 95.1307 79.0379 94.8011 79.5455C94.4754 80.053 93.9981 80.4564 93.3693 80.7557C92.7443 81.0549 91.9848 81.2045 91.0909 81.2045C90.2576 81.2045 89.536 81.0701 88.9261 80.8011C88.3201 80.5322 87.8428 80.1572 87.4943 79.6761C87.1496 79.1951 86.9545 78.6364 86.9091 78H88.3636C88.4015 78.4394 88.5492 78.803 88.8068 79.0909C89.0682 79.375 89.3977 79.5871 89.7955 79.7273C90.197 79.8636 90.6288 79.9318 91.0909 79.9318C91.6288 79.9318 92.1117 79.8447 92.5398 79.6705C92.9678 79.4924 93.3068 79.2462 93.5568 78.9318C93.8068 78.6136 93.9318 78.2424 93.9318 77.8182C93.9318 77.4318 93.8239 77.1174 93.608 76.875C93.392 76.6326 93.108 76.4356 92.7557 76.2841C92.4034 76.1326 92.0227 76 91.6136 75.8864L90.1818 75.4773C89.2727 75.2159 88.553 74.8428 88.0227 74.358C87.4924 73.8731 87.2273 73.2386 87.2273 72.4545C87.2273 71.803 87.4034 71.2348 87.7557 70.75C88.1117 70.2614 88.589 69.8826 89.1875 69.6136C89.7898 69.3409 90.4621 69.2045 91.2045 69.2045C91.9545 69.2045 92.6212 69.339 93.2045 69.608C93.7879 69.8731 94.25 70.2367 94.5909 70.6989C94.9356 71.161 95.1174 71.6856 95.1364 72.2727H93.7727ZM96.9759 70.6136V69.3636H105.703V70.6136H102.044V81H100.635V70.6136H96.9759ZM107.878 81V69.3636H114.901V70.6136H109.287V74.5455H114.537V75.7955H109.287V79.75H114.991V81H107.878ZM117.44 81V69.3636H121.372C122.285 69.3636 123.031 69.5284 123.611 69.858C124.194 70.1837 124.626 70.625 124.906 71.1818C125.187 71.7386 125.327 72.3598 125.327 73.0455C125.327 73.7311 125.187 74.3542 124.906 74.9148C124.63 75.4754 124.202 75.9223 123.622 76.2557C123.043 76.5852 122.3 76.75 121.395 76.75H118.577V75.5H121.349C121.974 75.5 122.476 75.392 122.855 75.1761C123.234 74.9602 123.509 74.6686 123.679 74.3011C123.853 73.9299 123.94 73.5114 123.94 73.0455C123.94 72.5795 123.853 72.1629 123.679 71.7955C123.509 71.428 123.232 71.1402 122.849 70.9318C122.467 70.7197 121.959 70.6136 121.327 70.6136H118.849V81H117.44ZM135.983 69.3636V81H134.574V70.8409H134.506L131.665 72.7273V71.2955L134.574 69.3636H135.983Z" fill="#0F71BB"/>
<path d="M86 84.1818H138.119V85.2727H86V84.1818Z" fill="#0F71BB"/>
<path d="M160.341 68.8182L156.591 82.75H155.364L159.114 68.8182H160.341Z" fill="#344054"/>
<path d="M184.773 72.2727C184.705 71.697 184.428 71.25 183.943 70.9318C183.458 70.6136 182.864 70.4545 182.159 70.4545C181.644 70.4545 181.193 70.5379 180.807 70.7045C180.424 70.8712 180.125 71.1004 179.909 71.392C179.697 71.6837 179.591 72.0152 179.591 72.3864C179.591 72.697 179.665 72.964 179.812 73.1875C179.964 73.4072 180.157 73.5909 180.392 73.7386C180.627 73.8826 180.873 74.0019 181.131 74.0966C181.388 74.1875 181.625 74.2614 181.841 74.3182L183.023 74.6364C183.326 74.7159 183.663 74.8258 184.034 74.9659C184.409 75.1061 184.767 75.2973 185.108 75.5398C185.453 75.7784 185.737 76.0852 185.96 76.4602C186.184 76.8352 186.295 77.2955 186.295 77.8409C186.295 78.4697 186.131 79.0379 185.801 79.5455C185.475 80.053 184.998 80.4564 184.369 80.7557C183.744 81.0549 182.985 81.2045 182.091 81.2045C181.258 81.2045 180.536 81.0701 179.926 80.8011C179.32 80.5322 178.843 80.1572 178.494 79.6761C178.15 79.1951 177.955 78.6364 177.909 78H179.364C179.402 78.4394 179.549 78.803 179.807 79.0909C180.068 79.375 180.398 79.5871 180.795 79.7273C181.197 79.8636 181.629 79.9318 182.091 79.9318C182.629 79.9318 183.112 79.8447 183.54 79.6705C183.968 79.4924 184.307 79.2462 184.557 78.9318C184.807 78.6136 184.932 78.2424 184.932 77.8182C184.932 77.4318 184.824 77.1174 184.608 76.875C184.392 76.6326 184.108 76.4356 183.756 76.2841C183.403 76.1326 183.023 76 182.614 75.8864L181.182 75.4773C180.273 75.2159 179.553 74.8428 179.023 74.358C178.492 73.8731 178.227 73.2386 178.227 72.4545C178.227 71.803 178.403 71.2348 178.756 70.75C179.112 70.2614 179.589 69.8826 180.188 69.6136C180.79 69.3409 181.462 69.2045 182.205 69.2045C182.955 69.2045 183.621 69.339 184.205 69.608C184.788 69.8731 185.25 70.2367 185.591 70.6989C185.936 71.161 186.117 71.6856 186.136 72.2727H184.773ZM187.976 70.6136V69.3636H196.703V70.6136H193.044V81H191.635V70.6136H187.976ZM198.878 81V69.3636H205.901V70.6136H200.287V74.5455H205.537V75.7955H200.287V79.75H205.991V81H198.878ZM208.44 81V69.3636H212.372C213.285 69.3636 214.031 69.5284 214.611 69.858C215.194 70.1837 215.626 70.625 215.906 71.1818C216.187 71.7386 216.327 72.3598 216.327 73.0455C216.327 73.7311 216.187 74.3542 215.906 74.9148C215.63 75.4754 215.202 75.9223 214.622 76.2557C214.043 76.5852 213.3 76.75 212.395 76.75H209.577V75.5H212.349C212.974 75.5 213.476 75.392 213.855 75.1761C214.234 74.9602 214.509 74.6686 214.679 74.3011C214.853 73.9299 214.94 73.5114 214.94 73.0455C214.94 72.5795 214.853 72.1629 214.679 71.7955C214.509 71.428 214.232 71.1402 213.849 70.9318C213.467 70.7197 212.959 70.6136 212.327 70.6136H209.849V81H208.44ZM222.892 81V79.9773L226.733 75.7727C227.184 75.2803 227.555 74.8523 227.847 74.4886C228.138 74.1212 228.354 73.7765 228.494 73.4545C228.638 73.1288 228.71 72.7879 228.71 72.4318C228.71 72.0227 228.612 71.6686 228.415 71.3693C228.222 71.0701 227.956 70.839 227.619 70.6761C227.282 70.5133 226.903 70.4318 226.483 70.4318C226.036 70.4318 225.646 70.5246 225.312 70.7102C224.983 70.892 224.727 71.1477 224.545 71.4773C224.367 71.8068 224.278 72.1932 224.278 72.6364H222.938C222.938 71.9545 223.095 71.3561 223.409 70.8409C223.723 70.3258 224.152 69.9242 224.693 69.6364C225.239 69.3485 225.85 69.2045 226.528 69.2045C227.21 69.2045 227.814 69.3485 228.341 69.6364C228.867 69.9242 229.28 70.3125 229.58 70.8011C229.879 71.2898 230.028 71.8333 230.028 72.4318C230.028 72.8598 229.951 73.2784 229.795 73.6875C229.644 74.0928 229.379 74.5455 229 75.0455C228.625 75.5417 228.104 76.1477 227.438 76.8636L224.824 79.6591V79.75H230.233V81H222.892Z" fill="#0F71BB"/>
<path d="M177 84.1818H231.369V85.2727H177V84.1818Z" fill="#0F71BB"/>
<path d="M253.341 68.8182L249.591 82.75H248.364L252.114 68.8182H253.341Z" fill="#344054"/>
<path d="M277.324 72.7102C277.278 72.2519 277.083 71.8958 276.739 71.642C276.394 71.3883 275.926 71.2614 275.335 71.2614C274.934 71.2614 274.595 71.3182 274.318 71.4318C274.042 71.5417 273.83 71.6951 273.682 71.892C273.538 72.089 273.466 72.3125 273.466 72.5625C273.458 72.7708 273.502 72.9527 273.597 73.108C273.695 73.2633 273.83 73.3977 274 73.5114C274.17 73.6212 274.367 73.7178 274.591 73.8011C274.814 73.8807 275.053 73.9489 275.307 74.0057L276.352 74.2557C276.86 74.3693 277.326 74.5208 277.75 74.7102C278.174 74.8996 278.542 75.1326 278.852 75.4091C279.163 75.6856 279.403 76.0114 279.574 76.3864C279.748 76.7614 279.837 77.1913 279.841 77.6761C279.837 78.3883 279.655 79.0057 279.295 79.5284C278.939 80.0473 278.424 80.4508 277.75 80.7386C277.08 81.0227 276.271 81.1648 275.324 81.1648C274.384 81.1648 273.566 81.0208 272.869 80.733C272.176 80.4451 271.634 80.0189 271.244 79.4545C270.858 78.8864 270.655 78.1837 270.636 77.3466H273.017C273.044 77.7367 273.155 78.0625 273.352 78.3239C273.553 78.5814 273.82 78.7765 274.153 78.9091C274.491 79.0379 274.871 79.1023 275.295 79.1023C275.712 79.1023 276.074 79.0417 276.381 78.9205C276.691 78.7992 276.932 78.6307 277.102 78.4148C277.273 78.1989 277.358 77.9508 277.358 77.6705C277.358 77.4091 277.28 77.1894 277.125 77.0114C276.973 76.8333 276.75 76.6818 276.455 76.5568C276.163 76.4318 275.805 76.3182 275.381 76.2159L274.114 75.8977C273.133 75.6591 272.358 75.286 271.79 74.7784C271.222 74.2708 270.939 73.5871 270.943 72.7273C270.939 72.0227 271.127 71.4072 271.506 70.8807C271.888 70.3542 272.413 69.9432 273.08 69.6477C273.746 69.3523 274.504 69.2045 275.352 69.2045C276.216 69.2045 276.97 69.3523 277.614 69.6477C278.261 69.9432 278.765 70.3542 279.125 70.8807C279.485 71.4072 279.67 72.017 279.682 72.7102H277.324ZM281.053 71.392V69.3636H290.609V71.392H287.047V81H284.615V71.392H281.053ZM292.183 81V69.3636H300.024V71.392H294.643V74.1648H299.621V76.1932H294.643V78.9716H300.047V81H292.183ZM301.98 81V69.3636H306.571C307.454 69.3636 308.205 69.5322 308.827 69.8693C309.448 70.2027 309.921 70.6667 310.247 71.2614C310.577 71.8523 310.741 72.5341 310.741 73.3068C310.741 74.0795 310.575 74.7614 310.241 75.3523C309.908 75.9432 309.425 76.4034 308.793 76.733C308.164 77.0625 307.402 77.2273 306.509 77.2273H303.582V75.2557H306.111C306.584 75.2557 306.974 75.1742 307.281 75.0114C307.592 74.8447 307.823 74.6155 307.974 74.3239C308.13 74.0284 308.207 73.6894 308.207 73.3068C308.207 72.9205 308.13 72.5833 307.974 72.2955C307.823 72.0038 307.592 71.7784 307.281 71.6193C306.971 71.4564 306.577 71.375 306.099 71.375H304.44V81H301.98ZM320.276 81.1591C319.427 81.1591 318.671 81.0133 318.009 80.7216C317.349 80.4261 316.829 80.0208 316.446 79.5057C316.067 78.9867 315.872 78.3883 315.861 77.7102H318.338C318.353 77.9943 318.446 78.2443 318.616 78.4602C318.791 78.6723 319.022 78.8371 319.31 78.9545C319.598 79.072 319.921 79.1307 320.281 79.1307C320.656 79.1307 320.988 79.0644 321.276 78.9318C321.563 78.7992 321.789 78.6155 321.952 78.3807C322.115 78.1458 322.196 77.875 322.196 77.5682C322.196 77.2576 322.109 76.983 321.935 76.7443C321.764 76.5019 321.518 76.3125 321.196 76.1761C320.878 76.0398 320.499 75.9716 320.06 75.9716H318.974V74.1648H320.06C320.431 74.1648 320.759 74.1004 321.043 73.9716C321.33 73.8428 321.554 73.6648 321.713 73.4375C321.872 73.2064 321.952 72.9375 321.952 72.6307C321.952 72.339 321.882 72.0833 321.741 71.8636C321.605 71.6402 321.412 71.4659 321.162 71.3409C320.916 71.2159 320.628 71.1534 320.298 71.1534C319.965 71.1534 319.66 71.214 319.384 71.3352C319.107 71.4527 318.885 71.6212 318.719 71.8409C318.552 72.0606 318.463 72.3182 318.452 72.6136H316.094C316.105 71.9432 316.296 71.3523 316.668 70.8409C317.039 70.3295 317.539 69.9299 318.168 69.642C318.8 69.3504 319.514 69.2045 320.31 69.2045C321.113 69.2045 321.815 69.3504 322.418 69.642C323.02 69.9337 323.488 70.3277 323.821 70.8239C324.158 71.3163 324.325 71.8693 324.321 72.483C324.325 73.1345 324.122 73.678 323.713 74.1136C323.308 74.5492 322.779 74.8258 322.128 74.9432V75.0341C322.984 75.1439 323.635 75.4413 324.082 75.9261C324.533 76.4072 324.757 77.0095 324.753 77.733C324.757 78.3958 324.565 78.9848 324.179 79.5C323.796 80.0152 323.268 80.4205 322.594 80.7159C321.92 81.0114 321.147 81.1591 320.276 81.1591Z" fill="#344054"/>
</svg>
