<svg width="326" height="65" viewBox="0 0 326 65" fill="none" xmlns="http://www.w3.org/2000/svg">
<rect x="48" y="4" width="16" height="28" fill="#E8178A" fill-opacity="0.24"/>
<path d="M48 42.5H64" stroke="#E8178A"/>
<rect x="38" y="47" width="36" height="18" rx="3" fill="#E8178A"/>
<path d="M47.7536 52.7273V60H46.2159V54.1868H46.1733L44.5078 55.2308V53.8672L46.3082 52.7273H47.7536ZM52.2733 60.0994C51.8992 60.0971 51.5382 60.0343 51.1902 59.9112C50.8445 59.7881 50.5344 59.5881 50.2598 59.3111C49.9851 59.0341 49.7673 58.6671 49.6064 58.2102C49.4477 57.7533 49.3684 57.1922 49.3684 56.527C49.3708 55.9162 49.4406 55.3705 49.5779 54.8899C49.7176 54.407 49.9165 53.9974 50.1745 53.6612C50.435 53.325 50.7463 53.0694 51.1085 52.8942C51.4707 52.7166 51.8767 52.6278 52.3265 52.6278C52.8118 52.6278 53.2404 52.7225 53.612 52.9119C53.9837 53.099 54.282 53.3535 54.5069 53.6754C54.7342 53.9974 54.8715 54.3584 54.9189 54.7585H53.4025C53.3433 54.5052 53.219 54.3063 53.0297 54.1619C52.8403 54.0175 52.6059 53.9453 52.3265 53.9453C51.853 53.9453 51.4932 54.1513 51.247 54.5632C51.0031 54.9751 50.8788 55.535 50.8741 56.2429H50.9238C51.0327 56.0275 51.1795 55.844 51.3642 55.6925C51.5512 55.5386 51.7631 55.4214 51.9998 55.3409C52.2389 55.258 52.4911 55.2166 52.7562 55.2166C53.1871 55.2166 53.5706 55.3184 53.9068 55.522C54.243 55.7232 54.5081 56.0002 54.7022 56.353C54.8964 56.7057 54.9934 57.1094 54.9934 57.5639C54.9934 58.0563 54.8786 58.4943 54.649 58.8778C54.4217 59.2614 54.1033 59.562 53.6937 59.7798C53.2865 59.9953 52.813 60.1018 52.2733 60.0994ZM52.2662 58.892C52.5029 58.892 52.7148 58.8352 52.9018 58.7216C53.0888 58.608 53.2356 58.4541 53.3422 58.2599C53.4487 58.0658 53.502 57.848 53.502 57.6065C53.502 57.3651 53.4487 57.1484 53.3422 56.9567C53.238 56.7649 53.0936 56.6122 52.9089 56.4986C52.7243 56.3849 52.5136 56.3281 52.2768 56.3281C52.0993 56.3281 51.9347 56.3613 51.7832 56.4276C51.6341 56.4938 51.5027 56.5862 51.389 56.7045C51.2778 56.8229 51.1902 56.9602 51.1262 57.1165C51.0623 57.2704 51.0304 57.4349 51.0304 57.6101C51.0304 57.8445 51.0836 58.0587 51.1902 58.2528C51.2991 58.447 51.4458 58.602 51.6305 58.718C51.8175 58.834 52.0294 58.892 52.2662 58.892ZM56.0978 62.0455V54.5455H57.5893V55.4616H57.6568C57.7231 55.3149 57.819 55.1657 57.9444 55.0142C58.0723 54.8603 58.238 54.7325 58.4416 54.6307C58.6475 54.5265 58.9032 54.4744 59.2086 54.4744C59.6064 54.4744 59.9733 54.5786 60.3095 54.7869C60.6457 54.9929 60.9144 55.3042 61.1156 55.7209C61.3168 56.1352 61.4174 56.6548 61.4174 57.2798C61.4174 57.8883 61.3192 58.402 61.1227 58.821C60.9286 59.2377 60.6634 59.5537 60.3272 59.7692C59.9934 59.9822 59.6194 60.0888 59.2051 60.0888C58.9115 60.0888 58.6618 60.0402 58.4558 59.9432C58.2522 59.8461 58.0853 59.7242 57.9551 59.5774C57.8249 59.4283 57.7254 59.2779 57.6568 59.1264H57.6106V62.0455H56.0978ZM57.5787 57.2727C57.5787 57.5971 57.6236 57.88 57.7136 58.1214C57.8036 58.3629 57.9338 58.5511 58.1042 58.6861C58.2747 58.8187 58.4818 58.8849 58.7257 58.8849C58.9719 58.8849 59.1802 58.8175 59.3507 58.6825C59.5211 58.5452 59.6502 58.3558 59.7377 58.1143C59.8277 57.8705 59.8727 57.59 59.8727 57.2727C59.8727 56.9579 59.8289 56.6809 59.7413 56.4418C59.6537 56.2027 59.5247 56.0156 59.3542 55.8807C59.1838 55.7457 58.9743 55.6783 58.7257 55.6783C58.4795 55.6783 58.2711 55.7434 58.1007 55.8736C57.9326 56.0038 57.8036 56.1884 57.7136 56.4276C57.6236 56.6667 57.5787 56.9484 57.5787 57.2727ZM63.4949 54.5455L64.4963 56.4524L65.5225 54.5455H67.0744L65.4941 57.2727L67.117 60H65.5723L64.4963 58.1143L63.438 60H61.8755L63.4949 57.2727L61.9324 54.5455H63.4949Z" fill="white"/>
<line x1="48.5" y1="46" x2="48.5" y2="39" stroke="#E8178A"/>
<line x1="63.5" y1="46" x2="63.5" y2="39" stroke="#E8178A"/>
<path d="M1.40909 22V10.3636H2.81818V15.5455H9.02273V10.3636H10.4318V22H9.02273V16.7955H2.81818V22H1.40909ZM23.071 16.1818C23.071 17.4091 22.8494 18.4697 22.4062 19.3636C21.9631 20.2576 21.3551 20.947 20.5824 21.4318C19.8097 21.9167 18.9271 22.1591 17.9347 22.1591C16.9422 22.1591 16.0597 21.9167 15.2869 21.4318C14.5142 20.947 13.9063 20.2576 13.4631 19.3636C13.0199 18.4697 12.7983 17.4091 12.7983 16.1818C12.7983 14.9545 13.0199 13.8939 13.4631 13C13.9063 12.1061 14.5142 11.4167 15.2869 10.9318C16.0597 10.447 16.9422 10.2045 17.9347 10.2045C18.9271 10.2045 19.8097 10.447 20.5824 10.9318C21.3551 11.4167 21.9631 12.1061 22.4062 13C22.8494 13.8939 23.071 14.9545 23.071 16.1818ZM21.7074 16.1818C21.7074 15.1742 21.5388 14.3239 21.2017 13.6307C20.8684 12.9375 20.4157 12.4129 19.8438 12.0568C19.2756 11.7008 18.6392 11.5227 17.9347 11.5227C17.2301 11.5227 16.5919 11.7008 16.0199 12.0568C15.4517 12.4129 14.9991 12.9375 14.6619 13.6307C14.3286 14.3239 14.1619 15.1742 14.1619 16.1818C14.1619 17.1894 14.3286 18.0398 14.6619 18.733C14.9991 19.4261 15.4517 19.9508 16.0199 20.3068C16.5919 20.6629 17.2301 20.8409 17.9347 20.8409C18.6392 20.8409 19.2756 20.6629 19.8438 20.3068C20.4157 19.9508 20.8684 19.4261 21.2017 18.733C21.5388 18.0398 21.7074 17.1894 21.7074 16.1818ZM25.4403 10.3636H27.1222L31.0767 20.0227H31.2131L35.1676 10.3636H36.8494V22H35.5312V13.1591H35.4176L31.7812 22H30.5085L26.8722 13.1591H26.7585V22H25.4403V10.3636ZM39.6747 22V10.3636H46.6974V11.6136H41.0838V15.5455H46.3338V16.7955H41.0838V20.75H46.7884V22H39.6747Z" fill="#0F71BB"/>
<path d="M0 25.1818H47.8338V26.2727H0V25.1818Z" fill="#0F71BB"/>
<path d="M69.3409 9.81818L65.5909 23.75H64.3636L68.1136 9.81818H69.3409Z" fill="#344054"/>
<path d="M93.7727 13.2727C93.7045 12.697 93.428 12.25 92.9432 11.9318C92.4583 11.6136 91.8636 11.4545 91.1591 11.4545C90.6439 11.4545 90.1932 11.5379 89.8068 11.7045C89.4242 11.8712 89.125 12.1004 88.9091 12.392C88.697 12.6837 88.5909 13.0152 88.5909 13.3864C88.5909 13.697 88.6648 13.964 88.8125 14.1875C88.964 14.4072 89.1572 14.5909 89.392 14.7386C89.6269 14.8826 89.8731 15.0019 90.1307 15.0966C90.3883 15.1875 90.625 15.2614 90.8409 15.3182L92.0227 15.6364C92.3258 15.7159 92.6629 15.8258 93.0341 15.9659C93.4091 16.1061 93.767 16.2973 94.108 16.5398C94.4527 16.7784 94.7367 17.0852 94.9602 17.4602C95.1837 17.8352 95.2955 18.2955 95.2955 18.8409C95.2955 19.4697 95.1307 20.0379 94.8011 20.5455C94.4754 21.053 93.9981 21.4564 93.3693 21.7557C92.7443 22.0549 91.9848 22.2045 91.0909 22.2045C90.2576 22.2045 89.536 22.0701 88.9261 21.8011C88.3201 21.5322 87.8428 21.1572 87.4943 20.6761C87.1496 20.1951 86.9545 19.6364 86.9091 19H88.3636C88.4015 19.4394 88.5492 19.803 88.8068 20.0909C89.0682 20.375 89.3977 20.5871 89.7955 20.7273C90.197 20.8636 90.6288 20.9318 91.0909 20.9318C91.6288 20.9318 92.1117 20.8447 92.5398 20.6705C92.9678 20.4924 93.3068 20.2462 93.5568 19.9318C93.8068 19.6136 93.9318 19.2424 93.9318 18.8182C93.9318 18.4318 93.8239 18.1174 93.608 17.875C93.392 17.6326 93.108 17.4356 92.7557 17.2841C92.4034 17.1326 92.0227 17 91.6136 16.8864L90.1818 16.4773C89.2727 16.2159 88.553 15.8428 88.0227 15.358C87.4924 14.8731 87.2273 14.2386 87.2273 13.4545C87.2273 12.803 87.4034 12.2348 87.7557 11.75C88.1117 11.2614 88.589 10.8826 89.1875 10.6136C89.7898 10.3409 90.4621 10.2045 91.2045 10.2045C91.9545 10.2045 92.6212 10.339 93.2045 10.608C93.7879 10.8731 94.25 11.2367 94.5909 11.6989C94.9356 12.161 95.1174 12.6856 95.1364 13.2727H93.7727ZM96.9759 11.6136V10.3636H105.703V11.6136H102.044V22H100.635V11.6136H96.9759ZM107.878 22V10.3636H114.901V11.6136H109.287V15.5455H114.537V16.7955H109.287V20.75H114.991V22H107.878ZM117.44 22V10.3636H121.372C122.285 10.3636 123.031 10.5284 123.611 10.858C124.194 11.1837 124.626 11.625 124.906 12.1818C125.187 12.7386 125.327 13.3598 125.327 14.0455C125.327 14.7311 125.187 15.3542 124.906 15.9148C124.63 16.4754 124.202 16.9223 123.622 17.2557C123.043 17.5852 122.3 17.75 121.395 17.75H118.577V16.5H121.349C121.974 16.5 122.476 16.392 122.855 16.1761C123.234 15.9602 123.509 15.6686 123.679 15.3011C123.853 14.9299 123.94 14.5114 123.94 14.0455C123.94 13.5795 123.853 13.1629 123.679 12.7955C123.509 12.428 123.232 12.1402 122.849 11.9318C122.467 11.7197 121.959 11.6136 121.327 11.6136H118.849V22H117.44ZM135.983 10.3636V22H134.574V11.8409H134.506L131.665 13.7273V12.2955L134.574 10.3636H135.983Z" fill="#0F71BB"/>
<path d="M86 25.1818H138.119V26.2727H86V25.1818Z" fill="#0F71BB"/>
<path d="M160.341 9.81818L156.591 23.75H155.364L159.114 9.81818H160.341Z" fill="#344054"/>
<path d="M184.773 13.2727C184.705 12.697 184.428 12.25 183.943 11.9318C183.458 11.6136 182.864 11.4545 182.159 11.4545C181.644 11.4545 181.193 11.5379 180.807 11.7045C180.424 11.8712 180.125 12.1004 179.909 12.392C179.697 12.6837 179.591 13.0152 179.591 13.3864C179.591 13.697 179.665 13.964 179.812 14.1875C179.964 14.4072 180.157 14.5909 180.392 14.7386C180.627 14.8826 180.873 15.0019 181.131 15.0966C181.388 15.1875 181.625 15.2614 181.841 15.3182L183.023 15.6364C183.326 15.7159 183.663 15.8258 184.034 15.9659C184.409 16.1061 184.767 16.2973 185.108 16.5398C185.453 16.7784 185.737 17.0852 185.96 17.4602C186.184 17.8352 186.295 18.2955 186.295 18.8409C186.295 19.4697 186.131 20.0379 185.801 20.5455C185.475 21.053 184.998 21.4564 184.369 21.7557C183.744 22.0549 182.985 22.2045 182.091 22.2045C181.258 22.2045 180.536 22.0701 179.926 21.8011C179.32 21.5322 178.843 21.1572 178.494 20.6761C178.15 20.1951 177.955 19.6364 177.909 19H179.364C179.402 19.4394 179.549 19.803 179.807 20.0909C180.068 20.375 180.398 20.5871 180.795 20.7273C181.197 20.8636 181.629 20.9318 182.091 20.9318C182.629 20.9318 183.112 20.8447 183.54 20.6705C183.968 20.4924 184.307 20.2462 184.557 19.9318C184.807 19.6136 184.932 19.2424 184.932 18.8182C184.932 18.4318 184.824 18.1174 184.608 17.875C184.392 17.6326 184.108 17.4356 183.756 17.2841C183.403 17.1326 183.023 17 182.614 16.8864L181.182 16.4773C180.273 16.2159 179.553 15.8428 179.023 15.358C178.492 14.8731 178.227 14.2386 178.227 13.4545C178.227 12.803 178.403 12.2348 178.756 11.75C179.112 11.2614 179.589 10.8826 180.188 10.6136C180.79 10.3409 181.462 10.2045 182.205 10.2045C182.955 10.2045 183.621 10.339 184.205 10.608C184.788 10.8731 185.25 11.2367 185.591 11.6989C185.936 12.161 186.117 12.6856 186.136 13.2727H184.773ZM187.976 11.6136V10.3636H196.703V11.6136H193.044V22H191.635V11.6136H187.976ZM198.878 22V10.3636H205.901V11.6136H200.287V15.5455H205.537V16.7955H200.287V20.75H205.991V22H198.878ZM208.44 22V10.3636H212.372C213.285 10.3636 214.031 10.5284 214.611 10.858C215.194 11.1837 215.626 11.625 215.906 12.1818C216.187 12.7386 216.327 13.3598 216.327 14.0455C216.327 14.7311 216.187 15.3542 215.906 15.9148C215.63 16.4754 215.202 16.9223 214.622 17.2557C214.043 17.5852 213.3 17.75 212.395 17.75H209.577V16.5H212.349C212.974 16.5 213.476 16.392 213.855 16.1761C214.234 15.9602 214.509 15.6686 214.679 15.3011C214.853 14.9299 214.94 14.5114 214.94 14.0455C214.94 13.5795 214.853 13.1629 214.679 12.7955C214.509 12.428 214.232 12.1402 213.849 11.9318C213.467 11.7197 212.959 11.6136 212.327 11.6136H209.849V22H208.44ZM222.892 22V20.9773L226.733 16.7727C227.184 16.2803 227.555 15.8523 227.847 15.4886C228.138 15.1212 228.354 14.7765 228.494 14.4545C228.638 14.1288 228.71 13.7879 228.71 13.4318C228.71 13.0227 228.612 12.6686 228.415 12.3693C228.222 12.0701 227.956 11.839 227.619 11.6761C227.282 11.5133 226.903 11.4318 226.483 11.4318C226.036 11.4318 225.646 11.5246 225.312 11.7102C224.983 11.892 224.727 12.1477 224.545 12.4773C224.367 12.8068 224.278 13.1932 224.278 13.6364H222.938C222.938 12.9545 223.095 12.3561 223.409 11.8409C223.723 11.3258 224.152 10.9242 224.693 10.6364C225.239 10.3485 225.85 10.2045 226.528 10.2045C227.21 10.2045 227.814 10.3485 228.341 10.6364C228.867 10.9242 229.28 11.3125 229.58 11.8011C229.879 12.2898 230.028 12.8333 230.028 13.4318C230.028 13.8598 229.951 14.2784 229.795 14.6875C229.644 15.0928 229.379 15.5455 229 16.0455C228.625 16.5417 228.104 17.1477 227.438 17.8636L224.824 20.6591V20.75H230.233V22H222.892Z" fill="#0F71BB"/>
<path d="M177 25.1818H231.369V26.2727H177V25.1818Z" fill="#0F71BB"/>
<path d="M253.341 9.81818L249.591 23.75H248.364L252.114 9.81818H253.341Z" fill="#344054"/>
<path d="M277.324 13.7102C277.278 13.2519 277.083 12.8958 276.739 12.642C276.394 12.3883 275.926 12.2614 275.335 12.2614C274.934 12.2614 274.595 12.3182 274.318 12.4318C274.042 12.5417 273.83 12.6951 273.682 12.892C273.538 13.089 273.466 13.3125 273.466 13.5625C273.458 13.7708 273.502 13.9527 273.597 14.108C273.695 14.2633 273.83 14.3977 274 14.5114C274.17 14.6212 274.367 14.7178 274.591 14.8011C274.814 14.8807 275.053 14.9489 275.307 15.0057L276.352 15.2557C276.86 15.3693 277.326 15.5208 277.75 15.7102C278.174 15.8996 278.542 16.1326 278.852 16.4091C279.163 16.6856 279.403 17.0114 279.574 17.3864C279.748 17.7614 279.837 18.1913 279.841 18.6761C279.837 19.3883 279.655 20.0057 279.295 20.5284C278.939 21.0473 278.424 21.4508 277.75 21.7386C277.08 22.0227 276.271 22.1648 275.324 22.1648C274.384 22.1648 273.566 22.0208 272.869 21.733C272.176 21.4451 271.634 21.0189 271.244 20.4545C270.858 19.8864 270.655 19.1837 270.636 18.3466H273.017C273.044 18.7367 273.155 19.0625 273.352 19.3239C273.553 19.5814 273.82 19.7765 274.153 19.9091C274.491 20.0379 274.871 20.1023 275.295 20.1023C275.712 20.1023 276.074 20.0417 276.381 19.9205C276.691 19.7992 276.932 19.6307 277.102 19.4148C277.273 19.1989 277.358 18.9508 277.358 18.6705C277.358 18.4091 277.28 18.1894 277.125 18.0114C276.973 17.8333 276.75 17.6818 276.455 17.5568C276.163 17.4318 275.805 17.3182 275.381 17.2159L274.114 16.8977C273.133 16.6591 272.358 16.286 271.79 15.7784C271.222 15.2708 270.939 14.5871 270.943 13.7273C270.939 13.0227 271.127 12.4072 271.506 11.8807C271.888 11.3542 272.413 10.9432 273.08 10.6477C273.746 10.3523 274.504 10.2045 275.352 10.2045C276.216 10.2045 276.97 10.3523 277.614 10.6477C278.261 10.9432 278.765 11.3542 279.125 11.8807C279.485 12.4072 279.67 13.017 279.682 13.7102H277.324ZM281.053 12.392V10.3636H290.609V12.392H287.047V22H284.615V12.392H281.053ZM292.183 22V10.3636H300.024V12.392H294.643V15.1648H299.621V17.1932H294.643V19.9716H300.047V22H292.183ZM301.98 22V10.3636H306.571C307.454 10.3636 308.205 10.5322 308.827 10.8693C309.448 11.2027 309.921 11.6667 310.247 12.2614C310.577 12.8523 310.741 13.5341 310.741 14.3068C310.741 15.0795 310.575 15.7614 310.241 16.3523C309.908 16.9432 309.425 17.4034 308.793 17.733C308.164 18.0625 307.402 18.2273 306.509 18.2273H303.582V16.2557H306.111C306.584 16.2557 306.974 16.1742 307.281 16.0114C307.592 15.8447 307.823 15.6155 307.974 15.3239C308.13 15.0284 308.207 14.6894 308.207 14.3068C308.207 13.9205 308.13 13.5833 307.974 13.2955C307.823 13.0038 307.592 12.7784 307.281 12.6193C306.971 12.4564 306.577 12.375 306.099 12.375H304.44V22H301.98ZM320.276 22.1591C319.427 22.1591 318.671 22.0133 318.009 21.7216C317.349 21.4261 316.829 21.0208 316.446 20.5057C316.067 19.9867 315.872 19.3883 315.861 18.7102H318.338C318.353 18.9943 318.446 19.2443 318.616 19.4602C318.791 19.6723 319.022 19.8371 319.31 19.9545C319.598 20.072 319.921 20.1307 320.281 20.1307C320.656 20.1307 320.988 20.0644 321.276 19.9318C321.563 19.7992 321.789 19.6155 321.952 19.3807C322.115 19.1458 322.196 18.875 322.196 18.5682C322.196 18.2576 322.109 17.983 321.935 17.7443C321.764 17.5019 321.518 17.3125 321.196 17.1761C320.878 17.0398 320.499 16.9716 320.06 16.9716H318.974V15.1648H320.06C320.431 15.1648 320.759 15.1004 321.043 14.9716C321.33 14.8428 321.554 14.6648 321.713 14.4375C321.872 14.2064 321.952 13.9375 321.952 13.6307C321.952 13.339 321.882 13.0833 321.741 12.8636C321.605 12.6402 321.412 12.4659 321.162 12.3409C320.916 12.2159 320.628 12.1534 320.298 12.1534C319.965 12.1534 319.66 12.214 319.384 12.3352C319.107 12.4527 318.885 12.6212 318.719 12.8409C318.552 13.0606 318.463 13.3182 318.452 13.6136H316.094C316.105 12.9432 316.296 12.3523 316.668 11.8409C317.039 11.3295 317.539 10.9299 318.168 10.642C318.8 10.3504 319.514 10.2045 320.31 10.2045C321.113 10.2045 321.815 10.3504 322.418 10.642C323.02 10.9337 323.488 11.3277 323.821 11.8239C324.158 12.3163 324.325 12.8693 324.321 13.483C324.325 14.1345 324.122 14.678 323.713 15.1136C323.308 15.5492 322.779 15.8258 322.128 15.9432V16.0341C322.984 16.1439 323.635 16.4413 324.082 16.9261C324.533 17.4072 324.757 18.0095 324.753 18.733C324.757 19.3958 324.565 19.9848 324.179 20.5C323.796 21.0152 323.268 21.4205 322.594 21.7159C321.92 22.0114 321.147 22.1591 320.276 22.1591Z" fill="#344054"/>
</svg>
