<svg width="394" height="202" viewBox="0 0 394 202" fill="none" xmlns="http://www.w3.org/2000/svg">
<path d="M85.1765 77.1692C85.1223 77.1403 85.0617 77.1252 85.0003 77.1252C84.9388 77.1252 84.8783 77.1403 84.824 77.1692L79.199 80.1692C79.1391 80.2012 79.089 80.2489 79.0541 80.3071C79.0192 80.3654 79.0008 80.432 79.0008 80.4999C79.0008 80.5679 79.0192 80.6345 79.0541 80.6927C79.089 80.751 79.1391 80.7987 79.199 80.8307L81.3913 81.9999L79.1983 83.1692C79.1384 83.2012 79.0883 83.2489 79.0534 83.3071C79.0184 83.3654 79 83.432 79 83.4999C79 83.5679 79.0184 83.6345 79.0534 83.6927C79.0883 83.751 79.1384 83.7987 79.1983 83.8307L84.8233 86.8307C84.8775 86.8596 84.9381 86.8747 84.9995 86.8747C85.061 86.8747 85.1215 86.8596 85.1758 86.8307L90.8008 83.8307C90.8607 83.7987 90.9108 83.751 90.9457 83.6927C90.9806 83.6345 90.9991 83.5679 90.9991 83.4999C90.9991 83.432 90.9806 83.3654 90.9457 83.3071C90.9108 83.2489 90.8607 83.2012 90.8008 83.1692L88.61 81.9999L90.8015 80.8307C90.8614 80.7987 90.9115 80.751 90.9464 80.6927C90.9814 80.6345 90.9998 80.5679 90.9998 80.4999C90.9998 80.432 90.9814 80.3654 90.9464 80.3071C90.9115 80.2489 90.8614 80.2012 90.8015 80.1692L85.1765 77.1692ZM87.8128 82.4252L89.8288 83.4999L85.0003 86.0747L80.1718 83.4999L82.1878 82.4252L84.824 83.8307C84.8783 83.8596 84.9388 83.8747 85.0003 83.8747C85.0617 83.8747 85.1223 83.8596 85.1765 83.8307L87.8128 82.4252ZM85.0003 83.0747L80.1718 80.4999L85.0003 77.9252L89.8288 80.4999L85.0003 83.0747Z" fill="#5925DC"/>
<path d="M116.324 79.7102C116.278 79.2519 116.083 78.8958 115.739 78.642C115.394 78.3883 114.926 78.2614 114.335 78.2614C113.934 78.2614 113.595 78.3182 113.318 78.4318C113.042 78.5417 112.83 78.6951 112.682 78.892C112.538 79.089 112.466 79.3125 112.466 79.5625C112.458 79.7708 112.502 79.9527 112.597 80.108C112.695 80.2633 112.83 80.3977 113 80.5114C113.17 80.6212 113.367 80.7178 113.591 80.8011C113.814 80.8807 114.053 80.9489 114.307 81.0057L115.352 81.2557C115.86 81.3693 116.326 81.5208 116.75 81.7102C117.174 81.8996 117.542 82.1326 117.852 82.4091C118.163 82.6856 118.403 83.0114 118.574 83.3864C118.748 83.7614 118.837 84.1913 118.841 84.6761C118.837 85.3883 118.655 86.0057 118.295 86.5284C117.939 87.0473 117.424 87.4508 116.75 87.7386C116.08 88.0227 115.271 88.1648 114.324 88.1648C113.384 88.1648 112.566 88.0208 111.869 87.733C111.176 87.4451 110.634 87.0189 110.244 86.4545C109.858 85.8864 109.655 85.1837 109.636 84.3466H112.017C112.044 84.7367 112.155 85.0625 112.352 85.3239C112.553 85.5814 112.82 85.7765 113.153 85.9091C113.491 86.0379 113.871 86.1023 114.295 86.1023C114.712 86.1023 115.074 86.0417 115.381 85.9205C115.691 85.7992 115.932 85.6307 116.102 85.4148C116.273 85.1989 116.358 84.9508 116.358 84.6705C116.358 84.4091 116.28 84.1894 116.125 84.0114C115.973 83.8333 115.75 83.6818 115.455 83.5568C115.163 83.4318 114.805 83.3182 114.381 83.2159L113.114 82.8977C112.133 82.6591 111.358 82.286 110.79 81.7784C110.222 81.2708 109.939 80.5871 109.943 79.7273C109.939 79.0227 110.127 78.4072 110.506 77.8807C110.888 77.3542 111.413 76.9432 112.08 76.6477C112.746 76.3523 113.504 76.2045 114.352 76.2045C115.216 76.2045 115.97 76.3523 116.614 76.6477C117.261 76.9432 117.765 77.3542 118.125 77.8807C118.485 78.4072 118.67 79.017 118.682 79.7102H116.324ZM126.047 84.2841V79.2727H128.467V88H126.143V86.4148H126.053C125.856 86.9261 125.528 87.3371 125.07 87.6477C124.615 87.9583 124.06 88.1136 123.405 88.1136C122.821 88.1136 122.308 87.9811 121.865 87.7159C121.422 87.4508 121.075 87.0739 120.825 86.5852C120.579 86.0966 120.454 85.5114 120.45 84.8295V79.2727H122.871V84.3977C122.875 84.9129 123.013 85.3201 123.286 85.6193C123.558 85.9186 123.924 86.0682 124.382 86.0682C124.674 86.0682 124.946 86.0019 125.2 85.8693C125.454 85.733 125.659 85.5322 125.814 85.267C125.973 85.0019 126.051 84.6742 126.047 84.2841ZM130.449 88V76.3636H132.869V80.7386H132.943C133.049 80.5038 133.203 80.2652 133.403 80.0227C133.608 79.7765 133.873 79.572 134.199 79.4091C134.528 79.2424 134.938 79.1591 135.426 79.1591C136.063 79.1591 136.65 79.3258 137.188 79.6591C137.725 79.9886 138.155 80.4867 138.477 81.1534C138.799 81.8163 138.96 82.6477 138.96 83.6477C138.96 84.6212 138.803 85.4432 138.489 86.1136C138.178 86.7803 137.754 87.286 137.216 87.6307C136.682 87.9716 136.083 88.142 135.42 88.142C134.951 88.142 134.551 88.0644 134.222 87.9091C133.896 87.7538 133.629 87.5587 133.42 87.3239C133.212 87.0852 133.053 86.8447 132.943 86.6023H132.835V88H130.449ZM132.818 83.6364C132.818 84.1553 132.89 84.608 133.034 84.9943C133.178 85.3807 133.386 85.6818 133.659 85.8977C133.932 86.1098 134.263 86.2159 134.653 86.2159C135.047 86.2159 135.381 86.108 135.653 85.892C135.926 85.6723 136.133 85.3693 136.273 84.983C136.417 84.5928 136.489 84.1439 136.489 83.6364C136.489 83.1326 136.419 82.6894 136.278 82.3068C136.138 81.9242 135.932 81.625 135.659 81.4091C135.386 81.1932 135.051 81.0852 134.653 81.0852C134.259 81.0852 133.926 81.1894 133.653 81.3977C133.384 81.6061 133.178 81.9015 133.034 82.2841C132.89 82.6667 132.818 83.1174 132.818 83.6364ZM144.278 88V79.2727H146.585V80.8125H146.688C146.869 80.3011 147.172 79.8977 147.597 79.6023C148.021 79.3068 148.528 79.1591 149.119 79.1591C149.718 79.1591 150.227 79.3087 150.648 79.608C151.068 79.9034 151.348 80.3049 151.489 80.8125H151.58C151.758 80.3125 152.08 79.9129 152.545 79.6136C153.015 79.3106 153.57 79.1591 154.21 79.1591C155.025 79.1591 155.686 79.4186 156.193 79.9375C156.705 80.4527 156.96 81.1837 156.96 82.1307V88H154.545V82.608C154.545 82.1231 154.417 81.7595 154.159 81.517C153.902 81.2746 153.58 81.1534 153.193 81.1534C152.754 81.1534 152.411 81.2936 152.165 81.5739C151.919 81.8504 151.795 82.2159 151.795 82.6705V88H149.449V82.5568C149.449 82.1288 149.326 81.7879 149.08 81.5341C148.837 81.2803 148.517 81.1534 148.119 81.1534C147.85 81.1534 147.608 81.2216 147.392 81.358C147.18 81.4905 147.011 81.678 146.886 81.9205C146.761 82.1591 146.699 82.4394 146.699 82.7614V88H144.278ZM162.849 88.1705C161.952 88.1705 161.179 87.9886 160.531 87.625C159.887 87.2576 159.391 86.7386 159.043 86.0682C158.694 85.3939 158.52 84.5966 158.52 83.6761C158.52 82.7784 158.694 81.9905 159.043 81.3125C159.391 80.6345 159.882 80.1061 160.514 79.7273C161.151 79.3485 161.897 79.1591 162.753 79.1591C163.329 79.1591 163.865 79.2519 164.361 79.4375C164.861 79.6193 165.296 79.8939 165.668 80.2614C166.043 80.6288 166.334 81.0909 166.543 81.6477C166.751 82.2008 166.855 82.8485 166.855 83.5909V84.2557H159.486V82.7557H164.577C164.577 82.4072 164.501 82.0985 164.349 81.8295C164.198 81.5606 163.988 81.3504 163.719 81.1989C163.454 81.0436 163.145 80.9659 162.793 80.9659C162.425 80.9659 162.099 81.0511 161.815 81.2216C161.535 81.3883 161.315 81.6136 161.156 81.8977C160.997 82.178 160.916 82.4905 160.912 82.8352V84.2614C160.912 84.6932 160.991 85.0663 161.151 85.3807C161.313 85.6951 161.543 85.9375 161.838 86.108C162.134 86.2784 162.484 86.3636 162.889 86.3636C163.158 86.3636 163.404 86.3258 163.628 86.25C163.851 86.1742 164.043 86.0606 164.202 85.9091C164.361 85.7576 164.482 85.572 164.565 85.3523L166.804 85.5C166.69 86.0379 166.457 86.5076 166.105 86.9091C165.757 87.3068 165.306 87.6174 164.753 87.8409C164.204 88.0606 163.569 88.1705 162.849 88.1705ZM170.855 82.9545V88H168.435V79.2727H170.741V80.8125H170.844C171.037 80.3049 171.361 79.9034 171.815 79.608C172.27 79.3087 172.821 79.1591 173.469 79.1591C174.075 79.1591 174.603 79.2917 175.054 79.5568C175.505 79.822 175.855 80.2008 176.105 80.6932C176.355 81.1818 176.48 81.7652 176.48 82.4432V88H174.06V82.875C174.063 82.3409 173.927 81.9242 173.651 81.625C173.374 81.322 172.993 81.1705 172.509 81.1705C172.183 81.1705 171.895 81.2405 171.645 81.3807C171.399 81.5208 171.205 81.7254 171.065 81.9943C170.929 82.2595 170.859 82.5795 170.855 82.9545ZM183.984 84.2841V79.2727H186.405V88H184.081V86.4148H183.99C183.793 86.9261 183.465 87.3371 183.007 87.6477C182.553 87.9583 181.998 88.1136 181.342 88.1136C180.759 88.1136 180.246 87.9811 179.803 87.7159C179.359 87.4508 179.013 87.0739 178.763 86.5852C178.517 86.0966 178.392 85.5114 178.388 84.8295V79.2727H180.808V84.3977C180.812 84.9129 180.95 85.3201 181.223 85.6193C181.496 85.9186 181.861 86.0682 182.32 86.0682C182.611 86.0682 182.884 86.0019 183.138 85.8693C183.392 85.733 183.596 85.5322 183.751 85.267C183.911 85.0019 183.988 84.6742 183.984 84.2841Z" fill="#5925DC"/>
<path fill-rule="evenodd" clip-rule="evenodd" d="M305.673 78.9044C305.716 78.8615 305.767 78.8274 305.823 78.8041C305.879 78.7808 305.939 78.7689 306 78.7689C306.061 78.7689 306.121 78.7808 306.177 78.8041C306.233 78.8274 306.284 78.8615 306.327 78.9044L311.865 84.4424C311.951 84.529 312 84.6466 312 84.7691C312 84.8917 311.951 85.0092 311.865 85.0958C311.778 85.1825 311.66 85.2312 311.538 85.2312C311.415 85.2312 311.298 85.1825 311.211 85.0958L306 79.8837L300.789 85.0958C300.702 85.1825 300.585 85.2312 300.462 85.2312C300.34 85.2312 300.222 85.1825 300.135 85.0958C300.049 85.0092 300 84.8917 300 84.7691C300 84.6466 300.049 84.529 300.135 84.4424L305.673 78.9044Z" fill="#5925DC"/>
<path d="M63 106V58H59V106H63Z" fill="#5925DC"/>
<path d="M124.773 127.273C124.705 126.697 124.428 126.25 123.943 125.932C123.458 125.614 122.864 125.455 122.159 125.455C121.644 125.455 121.193 125.538 120.807 125.705C120.424 125.871 120.125 126.1 119.909 126.392C119.697 126.684 119.591 127.015 119.591 127.386C119.591 127.697 119.665 127.964 119.812 128.188C119.964 128.407 120.157 128.591 120.392 128.739C120.627 128.883 120.873 129.002 121.131 129.097C121.388 129.187 121.625 129.261 121.841 129.318L123.023 129.636C123.326 129.716 123.663 129.826 124.034 129.966C124.409 130.106 124.767 130.297 125.108 130.54C125.453 130.778 125.737 131.085 125.96 131.46C126.184 131.835 126.295 132.295 126.295 132.841C126.295 133.47 126.131 134.038 125.801 134.545C125.475 135.053 124.998 135.456 124.369 135.756C123.744 136.055 122.985 136.205 122.091 136.205C121.258 136.205 120.536 136.07 119.926 135.801C119.32 135.532 118.843 135.157 118.494 134.676C118.15 134.195 117.955 133.636 117.909 133H119.364C119.402 133.439 119.549 133.803 119.807 134.091C120.068 134.375 120.398 134.587 120.795 134.727C121.197 134.864 121.629 134.932 122.091 134.932C122.629 134.932 123.112 134.845 123.54 134.67C123.968 134.492 124.307 134.246 124.557 133.932C124.807 133.614 124.932 133.242 124.932 132.818C124.932 132.432 124.824 132.117 124.608 131.875C124.392 131.633 124.108 131.436 123.756 131.284C123.403 131.133 123.023 131 122.614 130.886L121.182 130.477C120.273 130.216 119.553 129.843 119.023 129.358C118.492 128.873 118.227 128.239 118.227 127.455C118.227 126.803 118.403 126.235 118.756 125.75C119.112 125.261 119.589 124.883 120.188 124.614C120.79 124.341 121.462 124.205 122.205 124.205C122.955 124.205 123.621 124.339 124.205 124.608C124.788 124.873 125.25 125.237 125.591 125.699C125.936 126.161 126.117 126.686 126.136 127.273H124.773ZM133.93 132.432V127.273H135.271V136H133.93V134.523H133.839C133.635 134.966 133.317 135.343 132.885 135.653C132.453 135.96 131.908 136.114 131.249 136.114C130.703 136.114 130.218 135.994 129.794 135.756C129.37 135.513 129.036 135.15 128.794 134.665C128.552 134.176 128.43 133.561 128.43 132.818V127.273H129.771V132.727C129.771 133.364 129.949 133.871 130.305 134.25C130.665 134.629 131.124 134.818 131.68 134.818C132.014 134.818 132.353 134.733 132.697 134.562C133.046 134.392 133.338 134.131 133.572 133.778C133.811 133.426 133.93 132.977 133.93 132.432ZM137.909 136V124.364H139.25V128.659H139.364C139.462 128.508 139.598 128.314 139.773 128.08C139.951 127.841 140.205 127.629 140.534 127.443C140.867 127.254 141.318 127.159 141.886 127.159C142.621 127.159 143.269 127.343 143.83 127.71C144.39 128.078 144.828 128.598 145.142 129.273C145.456 129.947 145.614 130.742 145.614 131.659C145.614 132.583 145.456 133.384 145.142 134.062C144.828 134.737 144.392 135.259 143.835 135.631C143.278 135.998 142.636 136.182 141.909 136.182C141.348 136.182 140.9 136.089 140.562 135.903C140.225 135.714 139.966 135.5 139.784 135.261C139.602 135.019 139.462 134.818 139.364 134.659H139.205V136H137.909ZM139.227 131.636C139.227 132.295 139.324 132.877 139.517 133.381C139.71 133.881 139.992 134.273 140.364 134.557C140.735 134.837 141.189 134.977 141.727 134.977C142.288 134.977 142.756 134.83 143.131 134.534C143.509 134.235 143.794 133.833 143.983 133.33C144.176 132.822 144.273 132.258 144.273 131.636C144.273 131.023 144.178 130.47 143.989 129.977C143.803 129.481 143.521 129.089 143.142 128.801C142.767 128.509 142.295 128.364 141.727 128.364C141.182 128.364 140.723 128.502 140.352 128.778C139.981 129.051 139.701 129.434 139.511 129.926C139.322 130.415 139.227 130.985 139.227 131.636ZM152.165 136V127.273H153.46V128.636H153.574C153.756 128.17 154.049 127.809 154.455 127.551C154.86 127.29 155.347 127.159 155.915 127.159C156.491 127.159 156.97 127.29 157.352 127.551C157.739 127.809 158.04 128.17 158.256 128.636H158.347C158.57 128.186 158.905 127.828 159.352 127.562C159.799 127.294 160.335 127.159 160.96 127.159C161.741 127.159 162.379 127.403 162.875 127.892C163.371 128.377 163.619 129.133 163.619 130.159V136H162.278V130.159C162.278 129.515 162.102 129.055 161.75 128.778C161.398 128.502 160.983 128.364 160.506 128.364C159.892 128.364 159.417 128.549 159.08 128.92C158.742 129.288 158.574 129.754 158.574 130.318V136H157.21V130.023C157.21 129.527 157.049 129.127 156.727 128.824C156.405 128.517 155.991 128.364 155.483 128.364C155.134 128.364 154.809 128.456 154.506 128.642C154.206 128.828 153.964 129.085 153.778 129.415C153.597 129.741 153.506 130.117 153.506 130.545V136H152.165ZM169.73 136.182C168.889 136.182 168.164 135.996 167.554 135.625C166.948 135.25 166.48 134.727 166.151 134.057C165.825 133.383 165.662 132.598 165.662 131.705C165.662 130.811 165.825 130.023 166.151 129.341C166.48 128.655 166.938 128.121 167.526 127.739C168.116 127.352 168.806 127.159 169.594 127.159C170.048 127.159 170.497 127.235 170.94 127.386C171.384 127.538 171.787 127.784 172.151 128.125C172.514 128.462 172.804 128.909 173.02 129.466C173.236 130.023 173.344 130.708 173.344 131.523V132.091H166.616V130.932H171.98C171.98 130.439 171.882 130 171.685 129.614C171.491 129.227 171.215 128.922 170.855 128.699C170.499 128.475 170.079 128.364 169.594 128.364C169.06 128.364 168.598 128.496 168.207 128.761C167.821 129.023 167.524 129.364 167.315 129.784C167.107 130.205 167.003 130.655 167.003 131.136V131.909C167.003 132.568 167.116 133.127 167.344 133.585C167.575 134.04 167.895 134.386 168.304 134.625C168.713 134.86 169.188 134.977 169.73 134.977C170.082 134.977 170.401 134.928 170.685 134.83C170.973 134.727 171.221 134.576 171.429 134.375C171.637 134.17 171.798 133.917 171.912 133.614L173.207 133.977C173.071 134.417 172.842 134.803 172.52 135.136C172.198 135.466 171.8 135.723 171.327 135.909C170.853 136.091 170.321 136.182 169.73 136.182ZM176.724 130.75V136H175.384V127.273H176.679V128.636H176.793C176.997 128.193 177.308 127.837 177.724 127.568C178.141 127.295 178.679 127.159 179.338 127.159C179.929 127.159 180.446 127.28 180.889 127.523C181.332 127.761 181.677 128.125 181.923 128.614C182.17 129.098 182.293 129.712 182.293 130.455V136H180.952V130.545C180.952 129.86 180.774 129.326 180.418 128.943C180.062 128.557 179.573 128.364 178.952 128.364C178.524 128.364 178.141 128.456 177.804 128.642C177.471 128.828 177.207 129.098 177.014 129.455C176.821 129.811 176.724 130.242 176.724 130.75ZM190.243 132.432V127.273H191.584V136H190.243V134.523H190.152C189.947 134.966 189.629 135.343 189.197 135.653C188.766 135.96 188.22 136.114 187.561 136.114C187.016 136.114 186.531 135.994 186.107 135.756C185.682 135.513 185.349 135.15 185.107 134.665C184.864 134.176 184.743 133.561 184.743 132.818V127.273H186.084V132.727C186.084 133.364 186.262 133.871 186.618 134.25C186.978 134.629 187.436 134.818 187.993 134.818C188.326 134.818 188.665 134.733 189.01 134.562C189.358 134.392 189.65 134.131 189.885 133.778C190.124 133.426 190.243 132.977 190.243 132.432ZM202.608 124.364V136H201.199V125.841H201.131L198.29 127.727V126.295L201.199 124.364H202.608Z" fill="#344054"/>
<path d="M124.773 175.273C124.705 174.697 124.428 174.25 123.943 173.932C123.458 173.614 122.864 173.455 122.159 173.455C121.644 173.455 121.193 173.538 120.807 173.705C120.424 173.871 120.125 174.1 119.909 174.392C119.697 174.684 119.591 175.015 119.591 175.386C119.591 175.697 119.665 175.964 119.812 176.188C119.964 176.407 120.157 176.591 120.392 176.739C120.627 176.883 120.873 177.002 121.131 177.097C121.388 177.187 121.625 177.261 121.841 177.318L123.023 177.636C123.326 177.716 123.663 177.826 124.034 177.966C124.409 178.106 124.767 178.297 125.108 178.54C125.453 178.778 125.737 179.085 125.96 179.46C126.184 179.835 126.295 180.295 126.295 180.841C126.295 181.47 126.131 182.038 125.801 182.545C125.475 183.053 124.998 183.456 124.369 183.756C123.744 184.055 122.985 184.205 122.091 184.205C121.258 184.205 120.536 184.07 119.926 183.801C119.32 183.532 118.843 183.157 118.494 182.676C118.15 182.195 117.955 181.636 117.909 181H119.364C119.402 181.439 119.549 181.803 119.807 182.091C120.068 182.375 120.398 182.587 120.795 182.727C121.197 182.864 121.629 182.932 122.091 182.932C122.629 182.932 123.112 182.845 123.54 182.67C123.968 182.492 124.307 182.246 124.557 181.932C124.807 181.614 124.932 181.242 124.932 180.818C124.932 180.432 124.824 180.117 124.608 179.875C124.392 179.633 124.108 179.436 123.756 179.284C123.403 179.133 123.023 179 122.614 178.886L121.182 178.477C120.273 178.216 119.553 177.843 119.023 177.358C118.492 176.873 118.227 176.239 118.227 175.455C118.227 174.803 118.403 174.235 118.756 173.75C119.112 173.261 119.589 172.883 120.188 172.614C120.79 172.341 121.462 172.205 122.205 172.205C122.955 172.205 123.621 172.339 124.205 172.608C124.788 172.873 125.25 173.237 125.591 173.699C125.936 174.161 126.117 174.686 126.136 175.273H124.773ZM133.93 180.432V175.273H135.271V184H133.93V182.523H133.839C133.635 182.966 133.317 183.343 132.885 183.653C132.453 183.96 131.908 184.114 131.249 184.114C130.703 184.114 130.218 183.994 129.794 183.756C129.37 183.513 129.036 183.15 128.794 182.665C128.552 182.176 128.43 181.561 128.43 180.818V175.273H129.771V180.727C129.771 181.364 129.949 181.871 130.305 182.25C130.665 182.629 131.124 182.818 131.68 182.818C132.014 182.818 132.353 182.733 132.697 182.562C133.046 182.392 133.338 182.131 133.572 181.778C133.811 181.426 133.93 180.977 133.93 180.432ZM137.909 184V172.364H139.25V176.659H139.364C139.462 176.508 139.598 176.314 139.773 176.08C139.951 175.841 140.205 175.629 140.534 175.443C140.867 175.254 141.318 175.159 141.886 175.159C142.621 175.159 143.269 175.343 143.83 175.71C144.39 176.078 144.828 176.598 145.142 177.273C145.456 177.947 145.614 178.742 145.614 179.659C145.614 180.583 145.456 181.384 145.142 182.062C144.828 182.737 144.392 183.259 143.835 183.631C143.278 183.998 142.636 184.182 141.909 184.182C141.348 184.182 140.9 184.089 140.562 183.903C140.225 183.714 139.966 183.5 139.784 183.261C139.602 183.019 139.462 182.818 139.364 182.659H139.205V184H137.909ZM139.227 179.636C139.227 180.295 139.324 180.877 139.517 181.381C139.71 181.881 139.992 182.273 140.364 182.557C140.735 182.837 141.189 182.977 141.727 182.977C142.288 182.977 142.756 182.83 143.131 182.534C143.509 182.235 143.794 181.833 143.983 181.33C144.176 180.822 144.273 180.258 144.273 179.636C144.273 179.023 144.178 178.47 143.989 177.977C143.803 177.481 143.521 177.089 143.142 176.801C142.767 176.509 142.295 176.364 141.727 176.364C141.182 176.364 140.723 176.502 140.352 176.778C139.981 177.051 139.701 177.434 139.511 177.926C139.322 178.415 139.227 178.985 139.227 179.636ZM152.165 184V175.273H153.46V176.636H153.574C153.756 176.17 154.049 175.809 154.455 175.551C154.86 175.29 155.347 175.159 155.915 175.159C156.491 175.159 156.97 175.29 157.352 175.551C157.739 175.809 158.04 176.17 158.256 176.636H158.347C158.57 176.186 158.905 175.828 159.352 175.562C159.799 175.294 160.335 175.159 160.96 175.159C161.741 175.159 162.379 175.403 162.875 175.892C163.371 176.377 163.619 177.133 163.619 178.159V184H162.278V178.159C162.278 177.515 162.102 177.055 161.75 176.778C161.398 176.502 160.983 176.364 160.506 176.364C159.892 176.364 159.417 176.549 159.08 176.92C158.742 177.288 158.574 177.754 158.574 178.318V184H157.21V178.023C157.21 177.527 157.049 177.127 156.727 176.824C156.405 176.517 155.991 176.364 155.483 176.364C155.134 176.364 154.809 176.456 154.506 176.642C154.206 176.828 153.964 177.085 153.778 177.415C153.597 177.741 153.506 178.117 153.506 178.545V184H152.165ZM169.73 184.182C168.889 184.182 168.164 183.996 167.554 183.625C166.948 183.25 166.48 182.727 166.151 182.057C165.825 181.383 165.662 180.598 165.662 179.705C165.662 178.811 165.825 178.023 166.151 177.341C166.48 176.655 166.938 176.121 167.526 175.739C168.116 175.352 168.806 175.159 169.594 175.159C170.048 175.159 170.497 175.235 170.94 175.386C171.384 175.538 171.787 175.784 172.151 176.125C172.514 176.462 172.804 176.909 173.02 177.466C173.236 178.023 173.344 178.708 173.344 179.523V180.091H166.616V178.932H171.98C171.98 178.439 171.882 178 171.685 177.614C171.491 177.227 171.215 176.922 170.855 176.699C170.499 176.475 170.079 176.364 169.594 176.364C169.06 176.364 168.598 176.496 168.207 176.761C167.821 177.023 167.524 177.364 167.315 177.784C167.107 178.205 167.003 178.655 167.003 179.136V179.909C167.003 180.568 167.116 181.127 167.344 181.585C167.575 182.04 167.895 182.386 168.304 182.625C168.713 182.86 169.188 182.977 169.73 182.977C170.082 182.977 170.401 182.928 170.685 182.83C170.973 182.727 171.221 182.576 171.429 182.375C171.637 182.17 171.798 181.917 171.912 181.614L173.207 181.977C173.071 182.417 172.842 182.803 172.52 183.136C172.198 183.466 171.8 183.723 171.327 183.909C170.853 184.091 170.321 184.182 169.73 184.182ZM176.724 178.75V184H175.384V175.273H176.679V176.636H176.793C176.997 176.193 177.308 175.837 177.724 175.568C178.141 175.295 178.679 175.159 179.338 175.159C179.929 175.159 180.446 175.28 180.889 175.523C181.332 175.761 181.677 176.125 181.923 176.614C182.17 177.098 182.293 177.712 182.293 178.455V184H180.952V178.545C180.952 177.86 180.774 177.326 180.418 176.943C180.062 176.557 179.573 176.364 178.952 176.364C178.524 176.364 178.141 176.456 177.804 176.642C177.471 176.828 177.207 177.098 177.014 177.455C176.821 177.811 176.724 178.242 176.724 178.75ZM190.243 180.432V175.273H191.584V184H190.243V182.523H190.152C189.947 182.966 189.629 183.343 189.197 183.653C188.766 183.96 188.22 184.114 187.561 184.114C187.016 184.114 186.531 183.994 186.107 183.756C185.682 183.513 185.349 183.15 185.107 182.665C184.864 182.176 184.743 181.561 184.743 180.818V175.273H186.084V180.727C186.084 181.364 186.262 181.871 186.618 182.25C186.978 182.629 187.436 182.818 187.993 182.818C188.326 182.818 188.665 182.733 189.01 182.562C189.358 182.392 189.65 182.131 189.885 181.778C190.124 181.426 190.243 180.977 190.243 180.432ZM198.517 184V182.977L202.358 178.773C202.809 178.28 203.18 177.852 203.472 177.489C203.763 177.121 203.979 176.777 204.119 176.455C204.263 176.129 204.335 175.788 204.335 175.432C204.335 175.023 204.237 174.669 204.04 174.369C203.847 174.07 203.581 173.839 203.244 173.676C202.907 173.513 202.528 173.432 202.108 173.432C201.661 173.432 201.271 173.525 200.938 173.71C200.608 173.892 200.352 174.148 200.17 174.477C199.992 174.807 199.903 175.193 199.903 175.636H198.562C198.562 174.955 198.72 174.356 199.034 173.841C199.348 173.326 199.777 172.924 200.318 172.636C200.864 172.348 201.475 172.205 202.153 172.205C202.835 172.205 203.439 172.348 203.966 172.636C204.492 172.924 204.905 173.312 205.205 173.801C205.504 174.29 205.653 174.833 205.653 175.432C205.653 175.86 205.576 176.278 205.42 176.688C205.269 177.093 205.004 177.545 204.625 178.045C204.25 178.542 203.729 179.148 203.062 179.864L200.449 182.659V182.75H205.858V184H198.517Z" fill="#344054"/>
<circle cx="168" cy="17" r="12" fill="#344054"/>
<path d="M163.943 22V20.2273L168.085 16.392C168.438 16.0511 168.733 15.7443 168.972 15.4716C169.214 15.1989 169.398 14.9318 169.523 14.6705C169.648 14.4053 169.71 14.1193 169.71 13.8125C169.71 13.4716 169.633 13.178 169.477 12.9318C169.322 12.6818 169.11 12.4905 168.841 12.358C168.572 12.2216 168.267 12.1534 167.926 12.1534C167.57 12.1534 167.259 12.2254 166.994 12.3693C166.729 12.5133 166.525 12.7197 166.381 12.9886C166.237 13.2576 166.165 13.5777 166.165 13.9489H163.83C163.83 13.1875 164.002 12.5265 164.347 11.9659C164.691 11.4053 165.174 10.9716 165.795 10.6648C166.417 10.358 167.133 10.2045 167.943 10.2045C168.777 10.2045 169.502 10.3523 170.119 10.6477C170.741 10.9394 171.223 11.3447 171.568 11.8636C171.913 12.3826 172.085 12.9773 172.085 13.6477C172.085 14.0871 171.998 14.5208 171.824 14.9489C171.653 15.3769 171.348 15.8523 170.909 16.375C170.47 16.8939 169.85 17.517 169.051 18.2443L167.352 19.9091V19.9886H172.239V22H163.943Z" fill="white"/>
<path d="M168 29L168 63" stroke="#344054" stroke-dasharray="2 2"/>
<circle cx="382" cy="82" r="12" fill="#344054"/>
<path d="M382.244 88.1591C381.396 88.1591 380.64 88.0133 379.977 87.7216C379.318 87.4261 378.797 87.0208 378.415 86.5057C378.036 85.9867 377.841 85.3883 377.83 84.7102H380.307C380.322 84.9943 380.415 85.2443 380.585 85.4602C380.759 85.6723 380.991 85.8371 381.278 85.9545C381.566 86.072 381.89 86.1307 382.25 86.1307C382.625 86.1307 382.956 86.0644 383.244 85.9318C383.532 85.7992 383.758 85.6155 383.92 85.3807C384.083 85.1458 384.165 84.875 384.165 84.5682C384.165 84.2576 384.078 83.983 383.903 83.7443C383.733 83.5019 383.487 83.3125 383.165 83.1761C382.847 83.0398 382.468 82.9716 382.028 82.9716H380.943V81.1648H382.028C382.4 81.1648 382.727 81.1004 383.011 80.9716C383.299 80.8428 383.523 80.6648 383.682 80.4375C383.841 80.2064 383.92 79.9375 383.92 79.6307C383.92 79.339 383.85 79.0833 383.71 78.8636C383.574 78.6402 383.381 78.4659 383.131 78.3409C382.884 78.2159 382.597 78.1534 382.267 78.1534C381.934 78.1534 381.629 78.214 381.352 78.3352C381.076 78.4527 380.854 78.6212 380.688 78.8409C380.521 79.0606 380.432 79.3182 380.42 79.6136H378.062C378.074 78.9432 378.265 78.3523 378.636 77.8409C379.008 77.3295 379.508 76.9299 380.136 76.642C380.769 76.3504 381.483 76.2045 382.278 76.2045C383.081 76.2045 383.784 76.3504 384.386 76.642C384.989 76.9337 385.456 77.3277 385.79 77.8239C386.127 78.3163 386.294 78.8693 386.29 79.483C386.294 80.1345 386.091 80.678 385.682 81.1136C385.277 81.5492 384.748 81.8258 384.097 81.9432V82.0341C384.953 82.1439 385.604 82.4413 386.051 82.9261C386.502 83.4072 386.725 84.0095 386.722 84.733C386.725 85.3958 386.534 85.9848 386.148 86.5C385.765 87.0152 385.237 87.4205 384.562 87.7159C383.888 88.0114 383.116 88.1591 382.244 88.1591Z" fill="white"/>
<path d="M322 82H375" stroke="#344054" stroke-dasharray="2 2"/>
<circle cx="307" cy="130" r="12" fill="#344054"/>
<path d="M301.767 133.955V132.017L306.625 124.364H308.295V127.045H307.307L304.244 131.892V131.983H311.148V133.955H301.767ZM307.352 136V133.364L307.398 132.506V124.364H309.705V136H307.352Z" fill="white"/>
<path d="M247 130H300" stroke="#344054" stroke-dasharray="2 2"/>
<circle cx="12" cy="82" r="12" fill="#344054"/>
<path d="M14.0057 76.3636V88H11.5455V78.6989H11.4773L8.8125 80.3693V78.1875L11.6932 76.3636H14.0057Z" fill="white"/>
<path d="M25 82H58" stroke="#344054" stroke-dasharray="2 2"/>
</svg>
