<svg width="367" height="208" viewBox="0 0 367 208" fill="none" xmlns="http://www.w3.org/2000/svg">
<rect width="301" height="176" transform="translate(43 13)" fill="#F7F7F9"/>
<path d="M82.3239 50.7102C82.2784 50.2519 82.0833 49.8958 81.7386 49.642C81.3939 49.3883 80.9261 49.2614 80.3352 49.2614C79.9337 49.2614 79.5947 49.3182 79.3182 49.4318C79.0417 49.5417 78.8295 49.6951 78.6818 49.892C78.5379 50.089 78.4659 50.3125 78.4659 50.5625C78.4583 50.7708 78.5019 50.9527 78.5966 51.108C78.6951 51.2633 78.8295 51.3977 79 51.5114C79.1705 51.6212 79.3674 51.7178 79.5909 51.8011C79.8144 51.8807 80.053 51.9489 80.3068 52.0057L81.3523 52.2557C81.8598 52.3693 82.3258 52.5208 82.75 52.7102C83.1742 52.8996 83.5417 53.1326 83.8523 53.4091C84.1629 53.6856 84.4034 54.0114 84.5739 54.3864C84.7481 54.7614 84.8371 55.1913 84.8409 55.6761C84.8371 56.3883 84.6553 57.0057 84.2955 57.5284C83.9394 58.0473 83.4242 58.4508 82.75 58.7386C82.0795 59.0227 81.2708 59.1648 80.3239 59.1648C79.3845 59.1648 78.5663 59.0208 77.8693 58.733C77.1761 58.4451 76.6345 58.0189 76.2443 57.4545C75.858 56.8864 75.6553 56.1837 75.6364 55.3466H78.017C78.0436 55.7367 78.1553 56.0625 78.3523 56.3239C78.553 56.5814 78.8201 56.7765 79.1534 56.9091C79.4905 57.0379 79.8712 57.1023 80.2955 57.1023C80.7121 57.1023 81.0739 57.0417 81.3807 56.9205C81.6913 56.7992 81.9318 56.6307 82.1023 56.4148C82.2727 56.1989 82.358 55.9508 82.358 55.6705C82.358 55.4091 82.2803 55.1894 82.125 55.0114C81.9735 54.8333 81.75 54.6818 81.4545 54.5568C81.1629 54.4318 80.8049 54.3182 80.3807 54.2159L79.1136 53.8977C78.1326 53.6591 77.358 53.286 76.7898 52.7784C76.2216 52.2708 75.9394 51.5871 75.9432 50.7273C75.9394 50.0227 76.1269 49.4072 76.5057 48.8807C76.8883 48.3542 77.4129 47.9432 78.0795 47.6477C78.7462 47.3523 79.5038 47.2045 80.3523 47.2045C81.2159 47.2045 81.9697 47.3523 82.6136 47.6477C83.2614 47.9432 83.7652 48.3542 84.125 48.8807C84.4848 49.4072 84.6705 50.017 84.6818 50.7102H82.3239ZM92.0469 55.2841V50.2727H94.4673V59H92.1435V57.4148H92.0526C91.8556 57.9261 91.5279 58.3371 91.0696 58.6477C90.6151 58.9583 90.0601 59.1136 89.4048 59.1136C88.8215 59.1136 88.3082 58.9811 87.8651 58.7159C87.4219 58.4508 87.0753 58.0739 86.8253 57.5852C86.5791 57.0966 86.4541 56.5114 86.4503 55.8295V50.2727H88.8707V55.3977C88.8745 55.9129 89.0128 56.3201 89.2855 56.6193C89.5582 56.9186 89.9238 57.0682 90.3821 57.0682C90.6738 57.0682 90.9465 57.0019 91.2003 56.8693C91.4541 56.733 91.6586 56.5322 91.8139 56.267C91.973 56.0019 92.0507 55.6742 92.0469 55.2841ZM96.4489 59V47.3636H98.8693V51.7386H98.9432C99.0492 51.5038 99.2027 51.2652 99.4034 51.0227C99.608 50.7765 99.8731 50.572 100.199 50.4091C100.528 50.2424 100.938 50.1591 101.426 50.1591C102.063 50.1591 102.65 50.3258 103.188 50.6591C103.725 50.9886 104.155 51.4867 104.477 52.1534C104.799 52.8163 104.96 53.6477 104.96 54.6477C104.96 55.6212 104.803 56.4432 104.489 57.1136C104.178 57.7803 103.754 58.286 103.216 58.6307C102.682 58.9716 102.083 59.142 101.42 59.142C100.951 59.142 100.551 59.0644 100.222 58.9091C99.8958 58.7538 99.6288 58.5587 99.4205 58.3239C99.2121 58.0852 99.053 57.8447 98.9432 57.6023H98.8352V59H96.4489ZM98.8182 54.6364C98.8182 55.1553 98.8902 55.608 99.0341 55.9943C99.178 56.3807 99.3864 56.6818 99.6591 56.8977C99.9318 57.1098 100.263 57.2159 100.653 57.2159C101.047 57.2159 101.381 57.108 101.653 56.892C101.926 56.6723 102.133 56.3693 102.273 55.983C102.417 55.5928 102.489 55.1439 102.489 54.6364C102.489 54.1326 102.419 53.6894 102.278 53.3068C102.138 52.9242 101.932 52.625 101.659 52.4091C101.386 52.1932 101.051 52.0852 100.653 52.0852C100.259 52.0852 99.9261 52.1894 99.6534 52.3977C99.3845 52.6061 99.178 52.9015 99.0341 53.2841C98.8902 53.6667 98.8182 54.1174 98.8182 54.6364ZM110.278 59V50.2727H112.585V51.8125H112.688C112.869 51.3011 113.172 50.8977 113.597 50.6023C114.021 50.3068 114.528 50.1591 115.119 50.1591C115.718 50.1591 116.227 50.3087 116.648 50.608C117.068 50.9034 117.348 51.3049 117.489 51.8125H117.58C117.758 51.3125 118.08 50.9129 118.545 50.6136C119.015 50.3106 119.57 50.1591 120.21 50.1591C121.025 50.1591 121.686 50.4186 122.193 50.9375C122.705 51.4527 122.96 52.1837 122.96 53.1307V59H120.545V53.608C120.545 53.1231 120.417 52.7595 120.159 52.517C119.902 52.2746 119.58 52.1534 119.193 52.1534C118.754 52.1534 118.411 52.2936 118.165 52.5739C117.919 52.8504 117.795 53.2159 117.795 53.6705V59H115.449V53.5568C115.449 53.1288 115.326 52.7879 115.08 52.5341C114.837 52.2803 114.517 52.1534 114.119 52.1534C113.85 52.1534 113.608 52.2216 113.392 52.358C113.18 52.4905 113.011 52.678 112.886 52.9205C112.761 53.1591 112.699 53.4394 112.699 53.7614V59H110.278ZM128.849 59.1705C127.952 59.1705 127.179 58.9886 126.531 58.625C125.887 58.2576 125.391 57.7386 125.043 57.0682C124.694 56.3939 124.52 55.5966 124.52 54.6761C124.52 53.7784 124.694 52.9905 125.043 52.3125C125.391 51.6345 125.882 51.1061 126.514 50.7273C127.151 50.3485 127.897 50.1591 128.753 50.1591C129.329 50.1591 129.865 50.2519 130.361 50.4375C130.861 50.6193 131.296 50.8939 131.668 51.2614C132.043 51.6288 132.334 52.0909 132.543 52.6477C132.751 53.2008 132.855 53.8485 132.855 54.5909V55.2557H125.486V53.7557H130.577C130.577 53.4072 130.501 53.0985 130.349 52.8295C130.198 52.5606 129.988 52.3504 129.719 52.1989C129.454 52.0436 129.145 51.9659 128.793 51.9659C128.425 51.9659 128.099 52.0511 127.815 52.2216C127.535 52.3883 127.315 52.6136 127.156 52.8977C126.997 53.178 126.916 53.4905 126.912 53.8352V55.2614C126.912 55.6932 126.991 56.0663 127.151 56.3807C127.313 56.6951 127.543 56.9375 127.838 57.108C128.134 57.2784 128.484 57.3636 128.889 57.3636C129.158 57.3636 129.404 57.3258 129.628 57.25C129.851 57.1742 130.043 57.0606 130.202 56.9091C130.361 56.7576 130.482 56.572 130.565 56.3523L132.804 56.5C132.69 57.0379 132.457 57.5076 132.105 57.9091C131.757 58.3068 131.306 58.6174 130.753 58.8409C130.204 59.0606 129.569 59.1705 128.849 59.1705ZM136.855 53.9545V59H134.435V50.2727H136.741V51.8125H136.844C137.037 51.3049 137.361 50.9034 137.815 50.608C138.27 50.3087 138.821 50.1591 139.469 50.1591C140.075 50.1591 140.603 50.2917 141.054 50.5568C141.505 50.822 141.855 51.2008 142.105 51.6932C142.355 52.1818 142.48 52.7652 142.48 53.4432V59H140.06V53.875C140.063 53.3409 139.927 52.9242 139.651 52.625C139.374 52.322 138.993 52.1705 138.509 52.1705C138.183 52.1705 137.895 52.2405 137.645 52.3807C137.399 52.5208 137.205 52.7254 137.065 52.9943C136.929 53.2595 136.859 53.5795 136.855 53.9545ZM149.984 55.2841V50.2727H152.405V59H150.081V57.4148H149.99C149.793 57.9261 149.465 58.3371 149.007 58.6477C148.553 58.9583 147.998 59.1136 147.342 59.1136C146.759 59.1136 146.246 58.9811 145.803 58.7159C145.359 58.4508 145.013 58.0739 144.763 57.5852C144.517 57.0966 144.392 56.5114 144.388 55.8295V50.2727H146.808V55.3977C146.812 55.9129 146.95 56.3201 147.223 56.6193C147.496 56.9186 147.861 57.0682 148.32 57.0682C148.611 57.0682 148.884 57.0019 149.138 56.8693C149.392 56.733 149.596 56.5322 149.751 56.267C149.911 56.0019 149.988 55.6742 149.984 55.2841Z" fill="#5925DC"/>
<path fill-rule="evenodd" clip-rule="evenodd" d="M303.673 49.9044C303.716 49.8614 303.767 49.8274 303.823 49.8041C303.879 49.7808 303.939 49.7688 304 49.7688C304.061 49.7688 304.121 49.7808 304.177 49.8041C304.233 49.8274 304.284 49.8614 304.327 49.9044L309.865 55.4423C309.951 55.529 310 55.6465 310 55.7691C310 55.8916 309.951 56.0092 309.865 56.0958C309.778 56.1825 309.66 56.2312 309.538 56.2312C309.415 56.2312 309.298 56.1825 309.211 56.0958L304 50.8837L298.789 56.0958C298.702 56.1825 298.585 56.2312 298.462 56.2312C298.34 56.2312 298.222 56.1825 298.135 56.0958C298.049 56.0092 298 55.8916 298 55.7691C298 55.6465 298.049 55.529 298.135 55.4423L303.673 49.9044Z" fill="#5925DC"/>
<path d="M61 77V29H57V77H61Z" fill="#5925DC"/>
<path d="M90.7727 98.2727C90.7045 97.697 90.428 97.25 89.9432 96.9318C89.4583 96.6136 88.8636 96.4545 88.1591 96.4545C87.6439 96.4545 87.1932 96.5379 86.8068 96.7045C86.4242 96.8712 86.125 97.1004 85.9091 97.392C85.697 97.6837 85.5909 98.0152 85.5909 98.3864C85.5909 98.697 85.6648 98.964 85.8125 99.1875C85.964 99.4072 86.1572 99.5909 86.392 99.7386C86.6269 99.8826 86.8731 100.002 87.1307 100.097C87.3883 100.187 87.625 100.261 87.8409 100.318L89.0227 100.636C89.3258 100.716 89.6629 100.826 90.0341 100.966C90.4091 101.106 90.767 101.297 91.108 101.54C91.4527 101.778 91.7367 102.085 91.9602 102.46C92.1837 102.835 92.2955 103.295 92.2955 103.841C92.2955 104.47 92.1307 105.038 91.8011 105.545C91.4754 106.053 90.9981 106.456 90.3693 106.756C89.7443 107.055 88.9848 107.205 88.0909 107.205C87.2576 107.205 86.536 107.07 85.9261 106.801C85.3201 106.532 84.8428 106.157 84.4943 105.676C84.1496 105.195 83.9545 104.636 83.9091 104H85.3636C85.4015 104.439 85.5492 104.803 85.8068 105.091C86.0682 105.375 86.3977 105.587 86.7955 105.727C87.197 105.864 87.6288 105.932 88.0909 105.932C88.6288 105.932 89.1117 105.845 89.5398 105.67C89.9678 105.492 90.3068 105.246 90.5568 104.932C90.8068 104.614 90.9318 104.242 90.9318 103.818C90.9318 103.432 90.8239 103.117 90.608 102.875C90.392 102.633 90.108 102.436 89.7557 102.284C89.4034 102.133 89.0227 102 88.6136 101.886L87.1818 101.477C86.2727 101.216 85.553 100.843 85.0227 100.358C84.4924 99.8731 84.2273 99.2386 84.2273 98.4545C84.2273 97.803 84.4034 97.2348 84.7557 96.75C85.1117 96.2614 85.589 95.8826 86.1875 95.6136C86.7898 95.3409 87.4621 95.2045 88.2045 95.2045C88.9545 95.2045 89.6212 95.339 90.2045 95.608C90.7879 95.8731 91.25 96.2367 91.5909 96.6989C91.9356 97.161 92.1174 97.6856 92.1364 98.2727H90.7727ZM99.9304 103.432V98.2727H101.271V107H99.9304V105.523H99.8395C99.6349 105.966 99.3168 106.343 98.8849 106.653C98.4531 106.96 97.9077 107.114 97.2486 107.114C96.7031 107.114 96.2183 106.994 95.794 106.756C95.3698 106.513 95.0365 106.15 94.794 105.665C94.5516 105.176 94.4304 104.561 94.4304 103.818V98.2727H95.7713V103.727C95.7713 104.364 95.9493 104.871 96.3054 105.25C96.6652 105.629 97.1236 105.818 97.6804 105.818C98.0137 105.818 98.3527 105.733 98.6974 105.562C99.0459 105.392 99.3376 105.131 99.5724 104.778C99.8111 104.426 99.9304 103.977 99.9304 103.432ZM103.909 107V95.3636H105.25V99.6591H105.364C105.462 99.5076 105.598 99.3144 105.773 99.0795C105.951 98.8409 106.205 98.6288 106.534 98.4432C106.867 98.2538 107.318 98.1591 107.886 98.1591C108.621 98.1591 109.269 98.3428 109.83 98.7102C110.39 99.0777 110.828 99.5985 111.142 100.273C111.456 100.947 111.614 101.742 111.614 102.659C111.614 103.583 111.456 104.384 111.142 105.062C110.828 105.737 110.392 106.259 109.835 106.631C109.278 106.998 108.636 107.182 107.909 107.182C107.348 107.182 106.9 107.089 106.562 106.903C106.225 106.714 105.966 106.5 105.784 106.261C105.602 106.019 105.462 105.818 105.364 105.659H105.205V107H103.909ZM105.227 102.636C105.227 103.295 105.324 103.877 105.517 104.381C105.71 104.881 105.992 105.273 106.364 105.557C106.735 105.837 107.189 105.977 107.727 105.977C108.288 105.977 108.756 105.83 109.131 105.534C109.509 105.235 109.794 104.833 109.983 104.33C110.176 103.822 110.273 103.258 110.273 102.636C110.273 102.023 110.178 101.47 109.989 100.977C109.803 100.481 109.521 100.089 109.142 99.8011C108.767 99.5095 108.295 99.3636 107.727 99.3636C107.182 99.3636 106.723 99.5019 106.352 99.7784C105.981 100.051 105.701 100.434 105.511 100.926C105.322 101.415 105.227 101.985 105.227 102.636ZM118.165 107V98.2727H119.46V99.6364H119.574C119.756 99.1705 120.049 98.8087 120.455 98.5511C120.86 98.2898 121.347 98.1591 121.915 98.1591C122.491 98.1591 122.97 98.2898 123.352 98.5511C123.739 98.8087 124.04 99.1705 124.256 99.6364H124.347C124.57 99.1856 124.905 98.8277 125.352 98.5625C125.799 98.2936 126.335 98.1591 126.96 98.1591C127.741 98.1591 128.379 98.4034 128.875 98.892C129.371 99.3769 129.619 100.133 129.619 101.159V107H128.278V101.159C128.278 100.515 128.102 100.055 127.75 99.7784C127.398 99.5019 126.983 99.3636 126.506 99.3636C125.892 99.3636 125.417 99.5492 125.08 99.9205C124.742 100.288 124.574 100.754 124.574 101.318V107H123.21V101.023C123.21 100.527 123.049 100.127 122.727 99.8239C122.405 99.517 121.991 99.3636 121.483 99.3636C121.134 99.3636 120.809 99.4564 120.506 99.642C120.206 99.8277 119.964 100.085 119.778 100.415C119.597 100.741 119.506 101.117 119.506 101.545V107H118.165ZM135.73 107.182C134.889 107.182 134.164 106.996 133.554 106.625C132.948 106.25 132.48 105.727 132.151 105.057C131.825 104.383 131.662 103.598 131.662 102.705C131.662 101.811 131.825 101.023 132.151 100.341C132.48 99.6553 132.938 99.1212 133.526 98.7386C134.116 98.3523 134.806 98.1591 135.594 98.1591C136.048 98.1591 136.497 98.2348 136.94 98.3864C137.384 98.5379 137.787 98.7841 138.151 99.125C138.514 99.4621 138.804 99.9091 139.02 100.466C139.236 101.023 139.344 101.708 139.344 102.523V103.091H132.616V101.932H137.98C137.98 101.439 137.882 101 137.685 100.614C137.491 100.227 137.215 99.9223 136.855 99.6989C136.499 99.4754 136.079 99.3636 135.594 99.3636C135.06 99.3636 134.598 99.4962 134.207 99.7614C133.821 100.023 133.524 100.364 133.315 100.784C133.107 101.205 133.003 101.655 133.003 102.136V102.909C133.003 103.568 133.116 104.127 133.344 104.585C133.575 105.04 133.895 105.386 134.304 105.625C134.713 105.86 135.188 105.977 135.73 105.977C136.082 105.977 136.401 105.928 136.685 105.83C136.973 105.727 137.221 105.576 137.429 105.375C137.637 105.17 137.798 104.917 137.912 104.614L139.207 104.977C139.071 105.417 138.842 105.803 138.52 106.136C138.198 106.466 137.8 106.723 137.327 106.909C136.853 107.091 136.321 107.182 135.73 107.182ZM142.724 101.75V107H141.384V98.2727H142.679V99.6364H142.793C142.997 99.1932 143.308 98.8371 143.724 98.5682C144.141 98.2955 144.679 98.1591 145.338 98.1591C145.929 98.1591 146.446 98.2803 146.889 98.5227C147.332 98.7614 147.677 99.125 147.923 99.6136C148.17 100.098 148.293 100.712 148.293 101.455V107H146.952V101.545C146.952 100.86 146.774 100.326 146.418 99.9432C146.062 99.5568 145.573 99.3636 144.952 99.3636C144.524 99.3636 144.141 99.4564 143.804 99.642C143.471 99.8277 143.207 100.098 143.014 100.455C142.821 100.811 142.724 101.242 142.724 101.75ZM156.243 103.432V98.2727H157.584V107H156.243V105.523H156.152C155.947 105.966 155.629 106.343 155.197 106.653C154.766 106.96 154.22 107.114 153.561 107.114C153.016 107.114 152.531 106.994 152.107 106.756C151.682 106.513 151.349 106.15 151.107 105.665C150.864 105.176 150.743 104.561 150.743 103.818V98.2727H152.084V103.727C152.084 104.364 152.262 104.871 152.618 105.25C152.978 105.629 153.436 105.818 153.993 105.818C154.326 105.818 154.665 105.733 155.01 105.562C155.358 105.392 155.65 105.131 155.885 104.778C156.124 104.426 156.243 103.977 156.243 103.432ZM168.608 95.3636V107H167.199V96.8409H167.131L164.29 98.7273V97.2955L167.199 95.3636H168.608Z" fill="#344054"/>
<path d="M90.3239 146.71C90.2784 146.252 90.0833 145.896 89.7386 145.642C89.3939 145.388 88.9261 145.261 88.3352 145.261C87.9337 145.261 87.5947 145.318 87.3182 145.432C87.0417 145.542 86.8295 145.695 86.6818 145.892C86.5379 146.089 86.4659 146.312 86.4659 146.562C86.4583 146.771 86.5019 146.953 86.5966 147.108C86.6951 147.263 86.8295 147.398 87 147.511C87.1705 147.621 87.3674 147.718 87.5909 147.801C87.8144 147.881 88.053 147.949 88.3068 148.006L89.3523 148.256C89.8598 148.369 90.3258 148.521 90.75 148.71C91.1742 148.9 91.5417 149.133 91.8523 149.409C92.1629 149.686 92.4034 150.011 92.5739 150.386C92.7481 150.761 92.8371 151.191 92.8409 151.676C92.8371 152.388 92.6553 153.006 92.2955 153.528C91.9394 154.047 91.4242 154.451 90.75 154.739C90.0795 155.023 89.2708 155.165 88.3239 155.165C87.3845 155.165 86.5663 155.021 85.8693 154.733C85.1761 154.445 84.6345 154.019 84.2443 153.455C83.858 152.886 83.6553 152.184 83.6364 151.347H86.017C86.0436 151.737 86.1553 152.062 86.3523 152.324C86.553 152.581 86.8201 152.777 87.1534 152.909C87.4905 153.038 87.8712 153.102 88.2955 153.102C88.7121 153.102 89.0739 153.042 89.3807 152.92C89.6913 152.799 89.9318 152.631 90.1023 152.415C90.2727 152.199 90.358 151.951 90.358 151.67C90.358 151.409 90.2803 151.189 90.125 151.011C89.9735 150.833 89.75 150.682 89.4545 150.557C89.1629 150.432 88.8049 150.318 88.3807 150.216L87.1136 149.898C86.1326 149.659 85.358 149.286 84.7898 148.778C84.2216 148.271 83.9394 147.587 83.9432 146.727C83.9394 146.023 84.1269 145.407 84.5057 144.881C84.8883 144.354 85.4129 143.943 86.0795 143.648C86.7462 143.352 87.5038 143.205 88.3523 143.205C89.2159 143.205 89.9697 143.352 90.6136 143.648C91.2614 143.943 91.7652 144.354 92.125 144.881C92.4848 145.407 92.6705 146.017 92.6818 146.71H90.3239ZM100.047 151.284V146.273H102.467V155H100.143V153.415H100.053C99.8556 153.926 99.5279 154.337 99.0696 154.648C98.6151 154.958 98.0601 155.114 97.4048 155.114C96.8215 155.114 96.3082 154.981 95.8651 154.716C95.4219 154.451 95.0753 154.074 94.8253 153.585C94.5791 153.097 94.4541 152.511 94.4503 151.83V146.273H96.8707V151.398C96.8745 151.913 97.0128 152.32 97.2855 152.619C97.5582 152.919 97.9238 153.068 98.3821 153.068C98.6738 153.068 98.9465 153.002 99.2003 152.869C99.4541 152.733 99.6586 152.532 99.8139 152.267C99.973 152.002 100.051 151.674 100.047 151.284ZM104.449 155V143.364H106.869V147.739H106.943C107.049 147.504 107.203 147.265 107.403 147.023C107.608 146.777 107.873 146.572 108.199 146.409C108.528 146.242 108.938 146.159 109.426 146.159C110.063 146.159 110.65 146.326 111.188 146.659C111.725 146.989 112.155 147.487 112.477 148.153C112.799 148.816 112.96 149.648 112.96 150.648C112.96 151.621 112.803 152.443 112.489 153.114C112.178 153.78 111.754 154.286 111.216 154.631C110.682 154.972 110.083 155.142 109.42 155.142C108.951 155.142 108.551 155.064 108.222 154.909C107.896 154.754 107.629 154.559 107.42 154.324C107.212 154.085 107.053 153.845 106.943 153.602H106.835V155H104.449ZM106.818 150.636C106.818 151.155 106.89 151.608 107.034 151.994C107.178 152.381 107.386 152.682 107.659 152.898C107.932 153.11 108.263 153.216 108.653 153.216C109.047 153.216 109.381 153.108 109.653 152.892C109.926 152.672 110.133 152.369 110.273 151.983C110.417 151.593 110.489 151.144 110.489 150.636C110.489 150.133 110.419 149.689 110.278 149.307C110.138 148.924 109.932 148.625 109.659 148.409C109.386 148.193 109.051 148.085 108.653 148.085C108.259 148.085 107.926 148.189 107.653 148.398C107.384 148.606 107.178 148.902 107.034 149.284C106.89 149.667 106.818 150.117 106.818 150.636ZM118.278 155V146.273H120.585V147.812H120.688C120.869 147.301 121.172 146.898 121.597 146.602C122.021 146.307 122.528 146.159 123.119 146.159C123.718 146.159 124.227 146.309 124.648 146.608C125.068 146.903 125.348 147.305 125.489 147.812H125.58C125.758 147.312 126.08 146.913 126.545 146.614C127.015 146.311 127.57 146.159 128.21 146.159C129.025 146.159 129.686 146.419 130.193 146.938C130.705 147.453 130.96 148.184 130.96 149.131V155H128.545V149.608C128.545 149.123 128.417 148.759 128.159 148.517C127.902 148.275 127.58 148.153 127.193 148.153C126.754 148.153 126.411 148.294 126.165 148.574C125.919 148.85 125.795 149.216 125.795 149.67V155H123.449V149.557C123.449 149.129 123.326 148.788 123.08 148.534C122.837 148.28 122.517 148.153 122.119 148.153C121.85 148.153 121.608 148.222 121.392 148.358C121.18 148.491 121.011 148.678 120.886 148.92C120.761 149.159 120.699 149.439 120.699 149.761V155H118.278ZM136.849 155.17C135.952 155.17 135.179 154.989 134.531 154.625C133.887 154.258 133.391 153.739 133.043 153.068C132.694 152.394 132.52 151.597 132.52 150.676C132.52 149.778 132.694 148.991 133.043 148.312C133.391 147.634 133.882 147.106 134.514 146.727C135.151 146.348 135.897 146.159 136.753 146.159C137.329 146.159 137.865 146.252 138.361 146.438C138.861 146.619 139.296 146.894 139.668 147.261C140.043 147.629 140.334 148.091 140.543 148.648C140.751 149.201 140.855 149.848 140.855 150.591V151.256H133.486V149.756H138.577C138.577 149.407 138.501 149.098 138.349 148.83C138.198 148.561 137.988 148.35 137.719 148.199C137.454 148.044 137.145 147.966 136.793 147.966C136.425 147.966 136.099 148.051 135.815 148.222C135.535 148.388 135.315 148.614 135.156 148.898C134.997 149.178 134.916 149.491 134.912 149.835V151.261C134.912 151.693 134.991 152.066 135.151 152.381C135.313 152.695 135.543 152.938 135.838 153.108C136.134 153.278 136.484 153.364 136.889 153.364C137.158 153.364 137.404 153.326 137.628 153.25C137.851 153.174 138.043 153.061 138.202 152.909C138.361 152.758 138.482 152.572 138.565 152.352L140.804 152.5C140.69 153.038 140.457 153.508 140.105 153.909C139.757 154.307 139.306 154.617 138.753 154.841C138.204 155.061 137.569 155.17 136.849 155.17ZM144.855 149.955V155H142.435V146.273H144.741V147.812H144.844C145.037 147.305 145.361 146.903 145.815 146.608C146.27 146.309 146.821 146.159 147.469 146.159C148.075 146.159 148.603 146.292 149.054 146.557C149.505 146.822 149.855 147.201 150.105 147.693C150.355 148.182 150.48 148.765 150.48 149.443V155H148.06V149.875C148.063 149.341 147.927 148.924 147.651 148.625C147.374 148.322 146.993 148.17 146.509 148.17C146.183 148.17 145.895 148.241 145.645 148.381C145.399 148.521 145.205 148.725 145.065 148.994C144.929 149.259 144.859 149.58 144.855 149.955ZM157.984 151.284V146.273H160.405V155H158.081V153.415H157.99C157.793 153.926 157.465 154.337 157.007 154.648C156.553 154.958 155.998 155.114 155.342 155.114C154.759 155.114 154.246 154.981 153.803 154.716C153.359 154.451 153.013 154.074 152.763 153.585C152.517 153.097 152.392 152.511 152.388 151.83V146.273H154.808V151.398C154.812 151.913 154.95 152.32 155.223 152.619C155.496 152.919 155.861 153.068 156.32 153.068C156.611 153.068 156.884 153.002 157.138 152.869C157.392 152.733 157.596 152.532 157.751 152.267C157.911 152.002 157.988 151.674 157.984 151.284ZM166.021 155V153.227L170.163 149.392C170.516 149.051 170.811 148.744 171.05 148.472C171.292 148.199 171.476 147.932 171.601 147.67C171.726 147.405 171.788 147.119 171.788 146.812C171.788 146.472 171.711 146.178 171.555 145.932C171.4 145.682 171.188 145.491 170.919 145.358C170.65 145.222 170.345 145.153 170.004 145.153C169.648 145.153 169.338 145.225 169.072 145.369C168.807 145.513 168.603 145.72 168.459 145.989C168.315 146.258 168.243 146.578 168.243 146.949H165.908C165.908 146.187 166.08 145.527 166.425 144.966C166.769 144.405 167.252 143.972 167.874 143.665C168.495 143.358 169.211 143.205 170.021 143.205C170.855 143.205 171.58 143.352 172.197 143.648C172.819 143.939 173.302 144.345 173.646 144.864C173.991 145.383 174.163 145.977 174.163 146.648C174.163 147.087 174.076 147.521 173.902 147.949C173.732 148.377 173.427 148.852 172.987 149.375C172.548 149.894 171.929 150.517 171.129 151.244L169.43 152.909V152.989H174.317V155H166.021Z" fill="#5925DC"/>
<rect x="59" y="69" width="253" height="8" fill="#E8178A" fill-opacity="0.24"/>
<rect x="59" y="29" width="253" height="8" fill="#E8178A" fill-opacity="0.24"/>
<rect x="59" y="29" width="16" height="48" fill="#E8178A" fill-opacity="0.24"/>
<rect x="43" y="29" width="16" height="48" fill="#E8178A" fill-opacity="0.24"/>
<rect y="24" width="31" height="17.8909" rx="3" fill="#E8178A"/>
<path d="M9.30256 37.0994C8.75568 37.0994 8.26918 37.0107 7.84304 36.8331C7.41927 36.6532 7.08665 36.4081 6.84517 36.098C6.60369 35.7879 6.48295 35.4363 6.48295 35.0433C6.48295 34.7403 6.55161 34.4621 6.68892 34.2088C6.8286 33.9531 7.01799 33.7412 7.2571 33.5732C7.49621 33.4027 7.76373 33.2938 8.05966 33.2464V33.1967C7.6714 33.1186 7.35653 32.9304 7.11506 32.6321C6.87358 32.3314 6.75284 31.9822 6.75284 31.5845C6.75284 31.2081 6.86293 30.8731 7.0831 30.5795C7.30327 30.2836 7.60511 30.0516 7.98864 29.8835C8.37453 29.7131 8.8125 29.6278 9.30256 29.6278C9.79261 29.6278 10.2294 29.7131 10.6129 29.8835C10.9988 30.054 11.3018 30.2872 11.522 30.5831C11.7422 30.8767 11.8535 31.2105 11.8558 31.5845C11.8535 31.9846 11.7304 32.3338 11.4865 32.6321C11.2427 32.9304 10.9302 33.1186 10.549 33.1967V33.2464C10.8402 33.2938 11.1042 33.4027 11.3409 33.5732C11.58 33.7412 11.7694 33.9531 11.9091 34.2088C12.0511 34.4621 12.1233 34.7403 12.1257 35.0433C12.1233 35.4363 12.0014 35.7879 11.7599 36.098C11.5185 36.4081 11.1847 36.6532 10.7585 36.8331C10.3348 37.0107 9.84943 37.0994 9.30256 37.0994ZM9.30256 35.9702C9.5464 35.9702 9.75947 35.9264 9.94176 35.8388C10.1241 35.7488 10.2661 35.6257 10.3679 35.4695C10.4721 35.3108 10.5241 35.1286 10.5241 34.9226C10.5241 34.7119 10.4709 34.526 10.3643 34.3651C10.2578 34.2017 10.1134 34.0739 9.93111 33.9815C9.74882 33.8868 9.5393 33.8395 9.30256 33.8395C9.06818 33.8395 8.85866 33.8868 8.67401 33.9815C8.48935 34.0739 8.34375 34.2017 8.23722 34.3651C8.13305 34.526 8.08097 34.7119 8.08097 34.9226C8.08097 35.1286 8.13187 35.3108 8.23366 35.4695C8.33546 35.6257 8.47869 35.7488 8.66335 35.8388C8.84801 35.9264 9.06108 35.9702 9.30256 35.9702ZM9.30256 32.7209C9.50616 32.7209 9.68726 32.6795 9.84588 32.5966C10.0045 32.5137 10.1288 32.3989 10.2188 32.2521C10.3087 32.1054 10.3537 31.9361 10.3537 31.7443C10.3537 31.5549 10.3087 31.3892 10.2188 31.2472C10.1288 31.1027 10.0057 30.9903 9.84943 30.9098C9.69318 30.8269 9.51089 30.7855 9.30256 30.7855C9.09659 30.7855 8.9143 30.8269 8.75568 30.9098C8.59706 30.9903 8.47277 31.1027 8.38281 31.2472C8.29522 31.3892 8.25142 31.5549 8.25142 31.7443C8.25142 31.9361 8.2964 32.1054 8.38636 32.2521C8.47633 32.3989 8.60062 32.5137 8.75923 32.5966C8.91785 32.6795 9.09896 32.7209 9.30256 32.7209ZM13.215 39.0455V31.5455H14.7065V32.4616H14.774C14.8403 32.3149 14.9361 32.1657 15.0616 32.0142C15.1895 31.8603 15.3552 31.7325 15.5588 31.6307C15.7647 31.5265 16.0204 31.4744 16.3258 31.4744C16.7235 31.4744 17.0905 31.5786 17.4267 31.7869C17.7628 31.9929 18.0315 32.3042 18.2328 32.7209C18.434 33.1352 18.5346 33.6548 18.5346 34.2798C18.5346 34.8883 18.4364 35.402 18.2399 35.821C18.0458 36.2377 17.7806 36.5537 17.4444 36.7692C17.1106 36.9822 16.7366 37.0888 16.3223 37.0888C16.0287 37.0888 15.7789 37.0402 15.573 36.9432C15.3694 36.8461 15.2025 36.7242 15.0723 36.5774C14.9421 36.4283 14.8426 36.2779 14.774 36.1264H14.7278V39.0455H13.215ZM14.6958 34.2727C14.6958 34.5971 14.7408 34.88 14.8308 35.1214C14.9208 35.3629 15.051 35.5511 15.2214 35.6861C15.3919 35.8187 15.599 35.8849 15.8429 35.8849C16.0891 35.8849 16.2974 35.8175 16.4679 35.6825C16.6383 35.5452 16.7673 35.3558 16.8549 35.1143C16.9449 34.8705 16.9899 34.59 16.9899 34.2727C16.9899 33.9579 16.9461 33.6809 16.8585 33.4418C16.7709 33.2027 16.6419 33.0156 16.4714 32.8807C16.301 32.7457 16.0914 32.6783 15.8429 32.6783C15.5967 32.6783 15.3883 32.7434 15.2179 32.8736C15.0498 33.0038 14.9208 33.1884 14.8308 33.4276C14.7408 33.6667 14.6958 33.9484 14.6958 34.2727ZM20.612 31.5455L21.6135 33.4524L22.6397 31.5455H24.1916L22.6113 34.2727L24.2342 37H22.6895L21.6135 35.1143L20.5552 37H18.9927L20.612 34.2727L19.0495 31.5455H20.612Z" fill="white"/>
<rect y="62.8061" width="31" height="17.8909" rx="3" fill="#E8178A"/>
<path d="M9.30256 75.9055C8.75568 75.9055 8.26918 75.8167 7.84304 75.6392C7.41927 75.4592 7.08665 75.2142 6.84517 74.9041C6.60369 74.594 6.48295 74.2424 6.48295 73.8494C6.48295 73.5464 6.55161 73.2682 6.68892 73.0149C6.8286 72.7592 7.01799 72.5473 7.2571 72.3792C7.49621 72.2088 7.76373 72.0999 8.05966 72.0525V72.0028C7.6714 71.9247 7.35653 71.7365 7.11506 71.4382C6.87358 71.1375 6.75284 70.7883 6.75284 70.3906C6.75284 70.0142 6.86293 69.6792 7.0831 69.3856C7.30327 69.0897 7.60511 68.8577 7.98864 68.6896C8.37453 68.5191 8.8125 68.4339 9.30256 68.4339C9.79261 68.4339 10.2294 68.5191 10.6129 68.6896C10.9988 68.8601 11.3018 69.0932 11.522 69.3892C11.7422 69.6827 11.8535 70.0165 11.8558 70.3906C11.8535 70.7907 11.7304 71.1399 11.4865 71.4382C11.2427 71.7365 10.9302 71.9247 10.549 72.0028V72.0525C10.8402 72.0999 11.1042 72.2088 11.3409 72.3792C11.58 72.5473 11.7694 72.7592 11.9091 73.0149C12.0511 73.2682 12.1233 73.5464 12.1257 73.8494C12.1233 74.2424 12.0014 74.594 11.7599 74.9041C11.5185 75.2142 11.1847 75.4592 10.7585 75.6392C10.3348 75.8167 9.84943 75.9055 9.30256 75.9055ZM9.30256 74.7762C9.5464 74.7762 9.75947 74.7324 9.94176 74.6449C10.1241 74.5549 10.2661 74.4318 10.3679 74.2755C10.4721 74.1169 10.5241 73.9346 10.5241 73.7287C10.5241 73.518 10.4709 73.3321 10.3643 73.1711C10.2578 73.0078 10.1134 72.8799 9.93111 72.7876C9.74882 72.6929 9.5393 72.6456 9.30256 72.6456C9.06818 72.6456 8.85866 72.6929 8.67401 72.7876C8.48935 72.8799 8.34375 73.0078 8.23722 73.1711C8.13305 73.3321 8.08097 73.518 8.08097 73.7287C8.08097 73.9346 8.13187 74.1169 8.23366 74.2755C8.33546 74.4318 8.47869 74.5549 8.66335 74.6449C8.84801 74.7324 9.06108 74.7762 9.30256 74.7762ZM9.30256 71.527C9.50616 71.527 9.68726 71.4855 9.84588 71.4027C10.0045 71.3198 10.1288 71.205 10.2188 71.0582C10.3087 70.9114 10.3537 70.7422 10.3537 70.5504C10.3537 70.361 10.3087 70.1953 10.2188 70.0532C10.1288 69.9088 10.0057 69.7964 9.84943 69.7159C9.69318 69.633 9.51089 69.5916 9.30256 69.5916C9.09659 69.5916 8.9143 69.633 8.75568 69.7159C8.59706 69.7964 8.47277 69.9088 8.38281 70.0532C8.29522 70.1953 8.25142 70.361 8.25142 70.5504C8.25142 70.7422 8.2964 70.9114 8.38636 71.0582C8.47633 71.205 8.60062 71.3198 8.75923 71.4027C8.91785 71.4855 9.09896 71.527 9.30256 71.527ZM13.215 77.8515V70.3515H14.7065V71.2677H14.774C14.8403 71.1209 14.9361 70.9718 15.0616 70.8203C15.1895 70.6664 15.3552 70.5386 15.5588 70.4368C15.7647 70.3326 16.0204 70.2805 16.3258 70.2805C16.7235 70.2805 17.0905 70.3847 17.4267 70.593C17.7628 70.799 18.0315 71.1103 18.2328 71.527C18.434 71.9413 18.5346 72.4609 18.5346 73.0859C18.5346 73.6943 18.4364 74.2081 18.2399 74.6271C18.0458 75.0438 17.7806 75.3598 17.4444 75.5753C17.1106 75.7883 16.7366 75.8949 16.3223 75.8949C16.0287 75.8949 15.7789 75.8463 15.573 75.7493C15.3694 75.6522 15.2025 75.5303 15.0723 75.3835C14.9421 75.2343 14.8426 75.084 14.774 74.9325H14.7278V77.8515H13.215ZM14.6958 73.0788C14.6958 73.4031 14.7408 73.686 14.8308 73.9275C14.9208 74.169 15.051 74.3572 15.2214 74.4922C15.3919 74.6247 15.599 74.691 15.8429 74.691C16.0891 74.691 16.2974 74.6235 16.4679 74.4886C16.6383 74.3513 16.7673 74.1619 16.8549 73.9204C16.9449 73.6766 16.9899 73.396 16.9899 73.0788C16.9899 72.7639 16.9461 72.4869 16.8585 72.2478C16.7709 72.0087 16.6419 71.8217 16.4714 71.6868C16.301 71.5518 16.0914 71.4843 15.8429 71.4843C15.5967 71.4843 15.3883 71.5494 15.2179 71.6797C15.0498 71.8099 14.9208 71.9945 14.8308 72.2336C14.7408 72.4727 14.6958 72.7545 14.6958 73.0788ZM20.612 70.3515L21.6135 72.2585L22.6397 70.3515H24.1916L22.6113 73.0788L24.2342 75.8061H22.6895L21.6135 73.9204L20.5552 75.8061H18.9927L20.612 73.0788L19.0495 70.3515H20.612Z" fill="white"/>
<path d="M35.5 68.2849V76.2364" stroke="#E8178A"/>
<line x1="32" y1="68.7788" x2="39" y2="68.7788" stroke="#E8178A"/>
<line x1="32" y1="75.7364" x2="39" y2="75.7364" stroke="#E8178A"/>
<path d="M35.5 29V36.9515" stroke="#E8178A"/>
<line x1="32" y1="29.494" x2="39" y2="29.494" stroke="#E8178A"/>
<line x1="32" y1="36.4515" x2="39" y2="36.4515" stroke="#E8178A"/>
<rect y="120" width="31" height="17.8909" rx="3" fill="#E8178A"/>
<path d="M9.30256 133.099C8.75568 133.099 8.26918 133.011 7.84304 132.833C7.41927 132.653 7.08665 132.408 6.84517 132.098C6.60369 131.788 6.48295 131.436 6.48295 131.043C6.48295 130.74 6.55161 130.462 6.68892 130.209C6.8286 129.953 7.01799 129.741 7.2571 129.573C7.49621 129.403 7.76373 129.294 8.05966 129.246V129.197C7.6714 129.119 7.35653 128.93 7.11506 128.632C6.87358 128.331 6.75284 127.982 6.75284 127.585C6.75284 127.208 6.86293 126.873 7.0831 126.58C7.30327 126.284 7.60511 126.052 7.98864 125.884C8.37453 125.713 8.8125 125.628 9.30256 125.628C9.79261 125.628 10.2294 125.713 10.6129 125.884C10.9988 126.054 11.3018 126.287 11.522 126.583C11.7422 126.877 11.8535 127.21 11.8558 127.585C11.8535 127.985 11.7304 128.334 11.4865 128.632C11.2427 128.93 10.9302 129.119 10.549 129.197V129.246C10.8402 129.294 11.1042 129.403 11.3409 129.573C11.58 129.741 11.7694 129.953 11.9091 130.209C12.0511 130.462 12.1233 130.74 12.1257 131.043C12.1233 131.436 12.0014 131.788 11.7599 132.098C11.5185 132.408 11.1847 132.653 10.7585 132.833C10.3348 133.011 9.84943 133.099 9.30256 133.099ZM9.30256 131.97C9.5464 131.97 9.75947 131.926 9.94176 131.839C10.1241 131.749 10.2661 131.626 10.3679 131.469C10.4721 131.311 10.5241 131.129 10.5241 130.923C10.5241 130.712 10.4709 130.526 10.3643 130.365C10.2578 130.202 10.1134 130.074 9.93111 129.982C9.74882 129.887 9.5393 129.839 9.30256 129.839C9.06818 129.839 8.85866 129.887 8.67401 129.982C8.48935 130.074 8.34375 130.202 8.23722 130.365C8.13305 130.526 8.08097 130.712 8.08097 130.923C8.08097 131.129 8.13187 131.311 8.23366 131.469C8.33546 131.626 8.47869 131.749 8.66335 131.839C8.84801 131.926 9.06108 131.97 9.30256 131.97ZM9.30256 128.721C9.50616 128.721 9.68726 128.679 9.84588 128.597C10.0045 128.514 10.1288 128.399 10.2188 128.252C10.3087 128.105 10.3537 127.936 10.3537 127.744C10.3537 127.555 10.3087 127.389 10.2188 127.247C10.1288 127.103 10.0057 126.99 9.84943 126.91C9.69318 126.827 9.51089 126.786 9.30256 126.786C9.09659 126.786 8.9143 126.827 8.75568 126.91C8.59706 126.99 8.47277 127.103 8.38281 127.247C8.29522 127.389 8.25142 127.555 8.25142 127.744C8.25142 127.936 8.2964 128.105 8.38636 128.252C8.47633 128.399 8.60062 128.514 8.75923 128.597C8.91785 128.679 9.09896 128.721 9.30256 128.721ZM13.215 135.045V127.545H14.7065V128.462H14.774C14.8403 128.315 14.9361 128.166 15.0616 128.014C15.1895 127.86 15.3552 127.732 15.5588 127.631C15.7647 127.527 16.0204 127.474 16.3258 127.474C16.7235 127.474 17.0905 127.579 17.4267 127.787C17.7628 127.993 18.0315 128.304 18.2328 128.721C18.434 129.135 18.5346 129.655 18.5346 130.28C18.5346 130.888 18.4364 131.402 18.2399 131.821C18.0458 132.238 17.7806 132.554 17.4444 132.769C17.1106 132.982 16.7366 133.089 16.3223 133.089C16.0287 133.089 15.7789 133.04 15.573 132.943C15.3694 132.846 15.2025 132.724 15.0723 132.577C14.9421 132.428 14.8426 132.278 14.774 132.126H14.7278V135.045H13.215ZM14.6958 130.273C14.6958 130.597 14.7408 130.88 14.8308 131.121C14.9208 131.363 15.051 131.551 15.2214 131.686C15.3919 131.819 15.599 131.885 15.8429 131.885C16.0891 131.885 16.2974 131.817 16.4679 131.683C16.6383 131.545 16.7673 131.356 16.8549 131.114C16.9449 130.871 16.9899 130.59 16.9899 130.273C16.9899 129.958 16.9461 129.681 16.8585 129.442C16.7709 129.203 16.6419 129.016 16.4714 128.881C16.301 128.746 16.0914 128.678 15.8429 128.678C15.5967 128.678 15.3883 128.743 15.2179 128.874C15.0498 129.004 14.9208 129.188 14.8308 129.428C14.7408 129.667 14.6958 129.948 14.6958 130.273ZM20.612 127.545L21.6135 129.452L22.6397 127.545H24.1916L22.6113 130.273L24.2342 133H22.6895L21.6135 131.114L20.5552 133H18.9927L20.612 130.273L19.0495 127.545H20.612Z" fill="white"/>
<rect y="160" width="31" height="17.8909" rx="3" fill="#E8178A"/>
<path d="M9.30256 173.099C8.75568 173.099 8.26918 173.011 7.84304 172.833C7.41927 172.653 7.08665 172.408 6.84517 172.098C6.60369 171.788 6.48295 171.436 6.48295 171.043C6.48295 170.74 6.55161 170.462 6.68892 170.209C6.8286 169.953 7.01799 169.741 7.2571 169.573C7.49621 169.403 7.76373 169.294 8.05966 169.246V169.197C7.6714 169.119 7.35653 168.93 7.11506 168.632C6.87358 168.331 6.75284 167.982 6.75284 167.585C6.75284 167.208 6.86293 166.873 7.0831 166.58C7.30327 166.284 7.60511 166.052 7.98864 165.884C8.37453 165.713 8.8125 165.628 9.30256 165.628C9.79261 165.628 10.2294 165.713 10.6129 165.884C10.9988 166.054 11.3018 166.287 11.522 166.583C11.7422 166.877 11.8535 167.21 11.8558 167.585C11.8535 167.985 11.7304 168.334 11.4865 168.632C11.2427 168.93 10.9302 169.119 10.549 169.197V169.246C10.8402 169.294 11.1042 169.403 11.3409 169.573C11.58 169.741 11.7694 169.953 11.9091 170.209C12.0511 170.462 12.1233 170.74 12.1257 171.043C12.1233 171.436 12.0014 171.788 11.7599 172.098C11.5185 172.408 11.1847 172.653 10.7585 172.833C10.3348 173.011 9.84943 173.099 9.30256 173.099ZM9.30256 171.97C9.5464 171.97 9.75947 171.926 9.94176 171.839C10.1241 171.749 10.2661 171.626 10.3679 171.469C10.4721 171.311 10.5241 171.129 10.5241 170.923C10.5241 170.712 10.4709 170.526 10.3643 170.365C10.2578 170.202 10.1134 170.074 9.93111 169.982C9.74882 169.887 9.5393 169.839 9.30256 169.839C9.06818 169.839 8.85866 169.887 8.67401 169.982C8.48935 170.074 8.34375 170.202 8.23722 170.365C8.13305 170.526 8.08097 170.712 8.08097 170.923C8.08097 171.129 8.13187 171.311 8.23366 171.469C8.33546 171.626 8.47869 171.749 8.66335 171.839C8.84801 171.926 9.06108 171.97 9.30256 171.97ZM9.30256 168.721C9.50616 168.721 9.68726 168.679 9.84588 168.597C10.0045 168.514 10.1288 168.399 10.2188 168.252C10.3087 168.105 10.3537 167.936 10.3537 167.744C10.3537 167.555 10.3087 167.389 10.2188 167.247C10.1288 167.103 10.0057 166.99 9.84943 166.91C9.69318 166.827 9.51089 166.786 9.30256 166.786C9.09659 166.786 8.9143 166.827 8.75568 166.91C8.59706 166.99 8.47277 167.103 8.38281 167.247C8.29522 167.389 8.25142 167.555 8.25142 167.744C8.25142 167.936 8.2964 168.105 8.38636 168.252C8.47633 168.399 8.60062 168.514 8.75923 168.597C8.91785 168.679 9.09896 168.721 9.30256 168.721ZM13.215 175.045V167.545H14.7065V168.462H14.774C14.8403 168.315 14.9361 168.166 15.0616 168.014C15.1895 167.86 15.3552 167.732 15.5588 167.631C15.7647 167.527 16.0204 167.474 16.3258 167.474C16.7235 167.474 17.0905 167.579 17.4267 167.787C17.7628 167.993 18.0315 168.304 18.2328 168.721C18.434 169.135 18.5346 169.655 18.5346 170.28C18.5346 170.888 18.4364 171.402 18.2399 171.821C18.0458 172.238 17.7806 172.554 17.4444 172.769C17.1106 172.982 16.7366 173.089 16.3223 173.089C16.0287 173.089 15.7789 173.04 15.573 172.943C15.3694 172.846 15.2025 172.724 15.0723 172.577C14.9421 172.428 14.8426 172.278 14.774 172.126H14.7278V175.045H13.215ZM14.6958 170.273C14.6958 170.597 14.7408 170.88 14.8308 171.121C14.9208 171.363 15.051 171.551 15.2214 171.686C15.3919 171.819 15.599 171.885 15.8429 171.885C16.0891 171.885 16.2974 171.817 16.4679 171.683C16.6383 171.545 16.7673 171.356 16.8549 171.114C16.9449 170.871 16.9899 170.59 16.9899 170.273C16.9899 169.958 16.9461 169.681 16.8585 169.442C16.7709 169.203 16.6419 169.016 16.4714 168.881C16.301 168.746 16.0914 168.678 15.8429 168.678C15.5967 168.678 15.3883 168.743 15.2179 168.874C15.0498 169.004 14.9208 169.188 14.8308 169.428C14.7408 169.667 14.6958 169.948 14.6958 170.273ZM20.612 167.545L21.6135 169.452L22.6397 167.545H24.1916L22.6113 170.273L24.2342 173H22.6895L21.6135 171.114L20.5552 173H18.9927L20.612 170.273L19.0495 167.545H20.612Z" fill="white"/>
<path d="M35.5 165.479V173.43" stroke="#E8178A"/>
<line x1="32" y1="165.973" x2="39" y2="165.973" stroke="#E8178A"/>
<line x1="32" y1="172.93" x2="39" y2="172.93" stroke="#E8178A"/>
<path d="M35.5 125V132.952" stroke="#E8178A"/>
<line x1="32" y1="125.494" x2="39" y2="125.494" stroke="#E8178A"/>
<line x1="32" y1="132.452" x2="39" y2="132.452" stroke="#E8178A"/>
<path d="M324.5 29.4788V76.4788" stroke="#1745E8"/>
<rect x="329" y="41.903" width="38" height="17.8909" rx="3" fill="#1745E8"/>
<path d="M335.479 53.6246V52.4137L338.516 47.6303H339.56V49.3065H338.942L337.028 52.3356V52.3924H341.342V53.6246H335.479ZM338.97 54.903V53.2553L338.999 52.7191V47.6303H340.44V54.903H338.97ZM345.08 55.0025C344.533 55.0025 344.047 54.9137 343.62 54.7361C343.197 54.5562 342.864 54.3112 342.623 54.0011C342.381 53.6909 342.26 53.3394 342.26 52.9464C342.26 52.6433 342.329 52.3652 342.466 52.1119C342.606 51.8562 342.795 51.6443 343.034 51.4762C343.274 51.3057 343.541 51.1968 343.837 51.1495V51.0998C343.449 51.0217 343.134 50.8334 342.892 50.5351C342.651 50.2345 342.53 49.8853 342.53 49.4876C342.53 49.1111 342.64 48.7762 342.86 48.4826C343.081 48.1867 343.382 47.9547 343.766 47.7866C344.152 47.6161 344.59 47.5309 345.08 47.5309C345.57 47.5309 346.007 47.6161 346.39 47.7866C346.776 47.957 347.079 48.1902 347.299 48.4861C347.52 48.7797 347.631 49.1135 347.633 49.4876C347.631 49.8877 347.508 50.2369 347.264 50.5351C347.02 50.8334 346.708 51.0217 346.326 51.0998V51.1495C346.618 51.1968 346.882 51.3057 347.118 51.4762C347.357 51.6443 347.547 51.8562 347.686 52.1119C347.828 52.3652 347.901 52.6433 347.903 52.9464C347.901 53.3394 347.779 53.6909 347.537 54.0011C347.296 54.3112 346.962 54.5562 346.536 54.7361C346.112 54.9137 345.627 55.0025 345.08 55.0025ZM345.08 53.8732C345.324 53.8732 345.537 53.8294 345.719 53.7418C345.901 53.6519 346.043 53.5288 346.145 53.3725C346.249 53.2139 346.301 53.0316 346.301 52.8256C346.301 52.6149 346.248 52.4291 346.142 52.2681C346.035 52.1048 345.891 51.9769 345.708 51.8846C345.526 51.7899 345.317 51.7425 345.08 51.7425C344.846 51.7425 344.636 51.7899 344.451 51.8846C344.267 51.9769 344.121 52.1048 344.015 52.2681C343.91 52.4291 343.858 52.6149 343.858 52.8256C343.858 53.0316 343.909 53.2139 344.011 53.3725C344.113 53.5288 344.256 53.6519 344.441 53.7418C344.625 53.8294 344.838 53.8732 345.08 53.8732ZM345.08 50.6239C345.283 50.6239 345.465 50.5825 345.623 50.4996C345.782 50.4168 345.906 50.302 345.996 50.1552C346.086 50.0084 346.131 49.8391 346.131 49.6474C346.131 49.458 346.086 49.2922 345.996 49.1502C345.906 49.0058 345.783 48.8933 345.627 48.8128C345.471 48.73 345.288 48.6886 345.08 48.6886C344.874 48.6886 344.692 48.73 344.533 48.8128C344.374 48.8933 344.25 49.0058 344.16 49.1502C344.073 49.2922 344.029 49.458 344.029 49.6474C344.029 49.8391 344.074 50.0084 344.164 50.1552C344.254 50.302 344.378 50.4168 344.537 50.4996C344.695 50.5825 344.876 50.6239 345.08 50.6239ZM348.992 56.9485V49.4485H350.484V50.3647H350.551C350.618 50.2179 350.713 50.0688 350.839 49.9173C350.967 49.7634 351.133 49.6355 351.336 49.5337C351.542 49.4296 351.798 49.3775 352.103 49.3775C352.501 49.3775 352.868 49.4816 353.204 49.69C353.54 49.8959 353.809 50.2073 354.01 50.6239C354.211 51.0382 354.312 51.5579 354.312 52.1829C354.312 52.7913 354.214 53.305 354.017 53.7241C353.823 54.1407 353.558 54.4568 353.222 54.6722C352.888 54.8853 352.514 54.9918 352.1 54.9918C351.806 54.9918 351.556 54.9433 351.35 54.8462C351.147 54.7492 350.98 54.6272 350.85 54.4805C350.719 54.3313 350.62 54.181 350.551 54.0295H350.505V56.9485H348.992ZM350.473 52.1758C350.473 52.5001 350.518 52.783 350.608 53.0245C350.698 53.266 350.828 53.4542 350.999 53.5891C351.169 53.7217 351.376 53.788 351.62 53.788C351.866 53.788 352.075 53.7205 352.245 53.5856C352.416 53.4483 352.545 53.2589 352.632 53.0174C352.722 52.7735 352.767 52.493 352.767 52.1758C352.767 51.8609 352.723 51.5839 352.636 51.3448C352.548 51.1057 352.419 50.9187 352.249 50.7837C352.078 50.6488 351.869 50.5813 351.62 50.5813C351.374 50.5813 351.166 50.6464 350.995 50.7766C350.827 50.9068 350.698 51.0915 350.608 51.3306C350.518 51.5697 350.473 51.8514 350.473 52.1758ZM356.389 49.4485L357.391 51.3555L358.417 49.4485H359.969L358.389 52.1758L360.012 54.903H358.467L357.391 53.0174L356.333 54.903H354.77L356.389 52.1758L354.827 49.4485H356.389Z" fill="white"/>
<line x1="321" y1="29.9727" x2="328" y2="29.9727" stroke="#1745E8"/>
<line x1="321" y1="76.5" x2="328" y2="76.5" stroke="#1745E8"/>
<path d="M324.5 125.479V172.479" stroke="#1745E8"/>
<rect x="329" y="137.903" width="38" height="17.8909" rx="3" fill="#1745E8"/>
<path d="M335.479 149.625V148.414L338.516 143.63H339.56V145.306H338.942L337.028 148.336V148.392H341.342V149.625H335.479ZM338.97 150.903V149.255L338.999 148.719V143.63H340.44V150.903H338.97ZM345.08 151.002C344.533 151.002 344.047 150.914 343.62 150.736C343.197 150.556 342.864 150.311 342.623 150.001C342.381 149.691 342.26 149.339 342.26 148.946C342.26 148.643 342.329 148.365 342.466 148.112C342.606 147.856 342.795 147.644 343.034 147.476C343.274 147.306 343.541 147.197 343.837 147.149V147.1C343.449 147.022 343.134 146.833 342.892 146.535C342.651 146.234 342.53 145.885 342.53 145.488C342.53 145.111 342.64 144.776 342.86 144.483C343.081 144.187 343.382 143.955 343.766 143.787C344.152 143.616 344.59 143.531 345.08 143.531C345.57 143.531 346.007 143.616 346.39 143.787C346.776 143.957 347.079 144.19 347.299 144.486C347.52 144.78 347.631 145.114 347.633 145.488C347.631 145.888 347.508 146.237 347.264 146.535C347.02 146.833 346.708 147.022 346.326 147.1V147.149C346.618 147.197 346.882 147.306 347.118 147.476C347.357 147.644 347.547 147.856 347.686 148.112C347.828 148.365 347.901 148.643 347.903 148.946C347.901 149.339 347.779 149.691 347.537 150.001C347.296 150.311 346.962 150.556 346.536 150.736C346.112 150.914 345.627 151.002 345.08 151.002ZM345.08 149.873C345.324 149.873 345.537 149.829 345.719 149.742C345.901 149.652 346.043 149.529 346.145 149.373C346.249 149.214 346.301 149.032 346.301 148.826C346.301 148.615 346.248 148.429 346.142 148.268C346.035 148.105 345.891 147.977 345.708 147.885C345.526 147.79 345.317 147.743 345.08 147.743C344.846 147.743 344.636 147.79 344.451 147.885C344.267 147.977 344.121 148.105 344.015 148.268C343.91 148.429 343.858 148.615 343.858 148.826C343.858 149.032 343.909 149.214 344.011 149.373C344.113 149.529 344.256 149.652 344.441 149.742C344.625 149.829 344.838 149.873 345.08 149.873ZM345.08 146.624C345.283 146.624 345.465 146.582 345.623 146.5C345.782 146.417 345.906 146.302 345.996 146.155C346.086 146.008 346.131 145.839 346.131 145.647C346.131 145.458 346.086 145.292 345.996 145.15C345.906 145.006 345.783 144.893 345.627 144.813C345.471 144.73 345.288 144.689 345.08 144.689C344.874 144.689 344.692 144.73 344.533 144.813C344.374 144.893 344.25 145.006 344.16 145.15C344.073 145.292 344.029 145.458 344.029 145.647C344.029 145.839 344.074 146.008 344.164 146.155C344.254 146.302 344.378 146.417 344.537 146.5C344.695 146.582 344.876 146.624 345.08 146.624ZM348.992 152.949V145.449H350.484V146.365H350.551C350.618 146.218 350.713 146.069 350.839 145.917C350.967 145.763 351.133 145.636 351.336 145.534C351.542 145.43 351.798 145.377 352.103 145.377C352.501 145.377 352.868 145.482 353.204 145.69C353.54 145.896 353.809 146.207 354.01 146.624C354.211 147.038 354.312 147.558 354.312 148.183C354.312 148.791 354.214 149.305 354.017 149.724C353.823 150.141 353.558 150.457 353.222 150.672C352.888 150.885 352.514 150.992 352.1 150.992C351.806 150.992 351.556 150.943 351.35 150.846C351.147 150.749 350.98 150.627 350.85 150.48C350.719 150.331 350.62 150.181 350.551 150.029H350.505V152.949H348.992ZM350.473 148.176C350.473 148.5 350.518 148.783 350.608 149.024C350.698 149.266 350.828 149.454 350.999 149.589C351.169 149.722 351.376 149.788 351.62 149.788C351.866 149.788 352.075 149.721 352.245 149.586C352.416 149.448 352.545 149.259 352.632 149.017C352.722 148.774 352.767 148.493 352.767 148.176C352.767 147.861 352.723 147.584 352.636 147.345C352.548 147.106 352.419 146.919 352.249 146.784C352.078 146.649 351.869 146.581 351.62 146.581C351.374 146.581 351.166 146.646 350.995 146.777C350.827 146.907 350.698 147.091 350.608 147.331C350.518 147.57 350.473 147.851 350.473 148.176ZM356.389 145.449L357.391 147.355L358.417 145.449H359.969L358.389 148.176L360.012 150.903H358.467L357.391 149.017L356.333 150.903H354.77L356.389 148.176L354.827 145.449H356.389Z" fill="white"/>
<line x1="321" y1="125.973" x2="328" y2="125.973" stroke="#1745E8"/>
<line x1="321" y1="172.5" x2="328" y2="172.5" stroke="#1745E8"/>
<path d="M59 23.4788H75" stroke="#E8178A"/>
<line x1="59.5" y1="26.9576" x2="59.5" y2="20" stroke="#E8178A"/>
<line x1="74.5" y1="26.9576" x2="74.5" y2="20" stroke="#E8178A"/>
<path d="M43 23.4788H59" stroke="#E8178A"/>
<line x1="43.5" y1="26.9576" x2="43.5" y2="20" stroke="#E8178A"/>
<rect x="61" width="36" height="17.8909" rx="3" fill="#E8178A"/>
<path d="M70.7536 5.72727V13H69.2159V7.18679H69.1733L67.5078 8.23082V6.86719L69.3082 5.72727H70.7536ZM75.2733 13.0994C74.8992 13.0971 74.5382 13.0343 74.1902 12.9112C73.8445 12.7881 73.5344 12.5881 73.2598 12.3111C72.9851 12.0341 72.7673 11.6671 72.6064 11.2102C72.4477 10.7533 72.3684 10.1922 72.3684 9.52699C72.3708 8.91619 72.4406 8.3705 72.5779 7.88991C72.7176 7.40696 72.9165 6.9974 73.1745 6.66122C73.435 6.32505 73.7463 6.06937 74.1085 5.89418C74.4707 5.71662 74.8767 5.62784 75.3265 5.62784C75.8118 5.62784 76.2404 5.72254 76.612 5.91193C76.9837 6.09896 77.282 6.35346 77.5069 6.67543C77.7342 6.9974 77.8715 7.35843 77.9189 7.75852H76.4025C76.3433 7.50521 76.219 7.30634 76.0297 7.16193C75.8403 7.01752 75.6059 6.94531 75.3265 6.94531C74.853 6.94531 74.4932 7.15128 74.247 7.56321C74.0031 7.97514 73.8788 8.53504 73.8741 9.2429H73.9238C74.0327 9.02746 74.1795 8.84399 74.3642 8.69247C74.5512 8.53859 74.7631 8.4214 74.9998 8.34091C75.2389 8.25805 75.4911 8.21662 75.7562 8.21662C76.1871 8.21662 76.5706 8.31842 76.9068 8.52202C77.243 8.72325 77.5081 9.00024 77.7022 9.35298C77.8964 9.70573 77.9934 10.1094 77.9934 10.5639C77.9934 11.0563 77.8786 11.4943 77.649 11.8778C77.4217 12.2614 77.1033 12.562 76.6937 12.7798C76.2865 12.9953 75.813 13.1018 75.2733 13.0994ZM75.2662 11.892C75.5029 11.892 75.7148 11.8352 75.9018 11.7216C76.0888 11.608 76.2356 11.4541 76.3422 11.2599C76.4487 11.0658 76.502 10.848 76.502 10.6065C76.502 10.3651 76.4487 10.1484 76.3422 9.95668C76.238 9.76491 76.0936 9.61222 75.9089 9.49858C75.7243 9.38494 75.5136 9.32812 75.2768 9.32812C75.0993 9.32812 74.9347 9.36127 74.7832 9.42756C74.6341 9.49384 74.5027 9.58617 74.389 9.70455C74.2778 9.82292 74.1902 9.96023 74.1262 10.1165C74.0623 10.2704 74.0304 10.4349 74.0304 10.6101C74.0304 10.8445 74.0836 11.0587 74.1902 11.2528C74.2991 11.447 74.4458 11.602 74.6305 11.718C74.8175 11.834 75.0294 11.892 75.2662 11.892ZM79.0978 15.0455V7.54545H80.5893V8.46165H80.6568C80.7231 8.31487 80.819 8.16572 80.9444 8.0142C81.0723 7.86032 81.238 7.73248 81.4416 7.63068C81.6475 7.52652 81.9032 7.47443 82.2086 7.47443C82.6064 7.47443 82.9733 7.5786 83.3095 7.78693C83.6457 7.9929 83.9144 8.30421 84.1156 8.72088C84.3168 9.13518 84.4174 9.65483 84.4174 10.2798C84.4174 10.8883 84.3192 11.402 84.1227 11.821C83.9286 12.2377 83.6634 12.5537 83.3272 12.7692C82.9934 12.9822 82.6194 13.0888 82.2051 13.0888C81.9115 13.0888 81.6618 13.0402 81.4558 12.9432C81.2522 12.8461 81.0853 12.7242 80.9551 12.5774C80.8249 12.4283 80.7254 12.2779 80.6568 12.1264H80.6106V15.0455H79.0978ZM80.5787 10.2727C80.5787 10.5971 80.6236 10.88 80.7136 11.1214C80.8036 11.3629 80.9338 11.5511 81.1042 11.6861C81.2747 11.8187 81.4818 11.8849 81.7257 11.8849C81.9719 11.8849 82.1802 11.8175 82.3507 11.6825C82.5211 11.5452 82.6502 11.3558 82.7377 11.1143C82.8277 10.8705 82.8727 10.59 82.8727 10.2727C82.8727 9.95786 82.8289 9.68087 82.7413 9.44176C82.6537 9.20265 82.5247 9.01562 82.3542 8.88068C82.1838 8.74574 81.9743 8.67827 81.7257 8.67827C81.4795 8.67827 81.2711 8.74337 81.1007 8.87358C80.9326 9.00379 80.8036 9.18845 80.7136 9.42756C80.6236 9.66667 80.5787 9.94839 80.5787 10.2727ZM86.4949 7.54545L87.4963 9.45241L88.5225 7.54545H90.0744L88.4941 10.2727L90.117 13H88.5723L87.4963 11.1143L86.438 13H84.8755L86.4949 10.2727L84.9324 7.54545H86.4949Z" fill="white"/>
<rect x="22" width="36" height="17.8909" rx="3" fill="#E8178A"/>
<path d="M31.7536 5.72727V13H30.2159V7.18679H30.1733L28.5078 8.23082V6.86719L30.3082 5.72727H31.7536ZM36.2733 13.0994C35.8992 13.0971 35.5382 13.0343 35.1902 12.9112C34.8445 12.7881 34.5344 12.5881 34.2598 12.3111C33.9851 12.0341 33.7673 11.6671 33.6064 11.2102C33.4477 10.7533 33.3684 10.1922 33.3684 9.52699C33.3708 8.91619 33.4406 8.3705 33.5779 7.88991C33.7176 7.40696 33.9165 6.9974 34.1745 6.66122C34.435 6.32505 34.7463 6.06937 35.1085 5.89418C35.4707 5.71662 35.8767 5.62784 36.3265 5.62784C36.8118 5.62784 37.2404 5.72254 37.612 5.91193C37.9837 6.09896 38.282 6.35346 38.5069 6.67543C38.7342 6.9974 38.8715 7.35843 38.9189 7.75852H37.4025C37.3433 7.50521 37.219 7.30634 37.0297 7.16193C36.8403 7.01752 36.6059 6.94531 36.3265 6.94531C35.853 6.94531 35.4932 7.15128 35.247 7.56321C35.0031 7.97514 34.8788 8.53504 34.8741 9.2429H34.9238C35.0327 9.02746 35.1795 8.84399 35.3642 8.69247C35.5512 8.53859 35.7631 8.4214 35.9998 8.34091C36.2389 8.25805 36.4911 8.21662 36.7562 8.21662C37.1871 8.21662 37.5706 8.31842 37.9068 8.52202C38.243 8.72325 38.5081 9.00024 38.7022 9.35298C38.8964 9.70573 38.9934 10.1094 38.9934 10.5639C38.9934 11.0563 38.8786 11.4943 38.649 11.8778C38.4217 12.2614 38.1033 12.562 37.6937 12.7798C37.2865 12.9953 36.813 13.1018 36.2733 13.0994ZM36.2662 11.892C36.5029 11.892 36.7148 11.8352 36.9018 11.7216C37.0888 11.608 37.2356 11.4541 37.3422 11.2599C37.4487 11.0658 37.502 10.848 37.502 10.6065C37.502 10.3651 37.4487 10.1484 37.3422 9.95668C37.238 9.76491 37.0936 9.61222 36.9089 9.49858C36.7243 9.38494 36.5136 9.32812 36.2768 9.32812C36.0993 9.32812 35.9347 9.36127 35.7832 9.42756C35.6341 9.49384 35.5027 9.58617 35.389 9.70455C35.2778 9.82292 35.1902 9.96023 35.1262 10.1165C35.0623 10.2704 35.0304 10.4349 35.0304 10.6101C35.0304 10.8445 35.0836 11.0587 35.1902 11.2528C35.2991 11.447 35.4458 11.602 35.6305 11.718C35.8175 11.834 36.0294 11.892 36.2662 11.892ZM40.0978 15.0455V7.54545H41.5893V8.46165H41.6568C41.7231 8.31487 41.819 8.16572 41.9444 8.0142C42.0723 7.86032 42.238 7.73248 42.4416 7.63068C42.6475 7.52652 42.9032 7.47443 43.2086 7.47443C43.6064 7.47443 43.9733 7.5786 44.3095 7.78693C44.6457 7.9929 44.9144 8.30421 45.1156 8.72088C45.3168 9.13518 45.4174 9.65483 45.4174 10.2798C45.4174 10.8883 45.3192 11.402 45.1227 11.821C44.9286 12.2377 44.6634 12.5537 44.3272 12.7692C43.9934 12.9822 43.6194 13.0888 43.2051 13.0888C42.9115 13.0888 42.6618 13.0402 42.4558 12.9432C42.2522 12.8461 42.0853 12.7242 41.9551 12.5774C41.8249 12.4283 41.7254 12.2779 41.6568 12.1264H41.6106V15.0455H40.0978ZM41.5787 10.2727C41.5787 10.5971 41.6236 10.88 41.7136 11.1214C41.8036 11.3629 41.9338 11.5511 42.1042 11.6861C42.2747 11.8187 42.4818 11.8849 42.7257 11.8849C42.9719 11.8849 43.1802 11.8175 43.3507 11.6825C43.5211 11.5452 43.6502 11.3558 43.7377 11.1143C43.8277 10.8705 43.8727 10.59 43.8727 10.2727C43.8727 9.95786 43.8289 9.68087 43.7413 9.44176C43.6537 9.20265 43.5247 9.01562 43.3542 8.88068C43.1838 8.74574 42.9743 8.67827 42.7257 8.67827C42.4795 8.67827 42.2711 8.74337 42.1007 8.87358C41.9326 9.00379 41.8036 9.18845 41.7136 9.42756C41.6236 9.66667 41.5787 9.94839 41.5787 10.2727ZM47.4949 7.54545L48.4963 9.45241L49.5225 7.54545H51.0744L49.4941 10.2727L51.117 13H49.5723L48.4963 11.1143L47.438 13H45.8755L47.4949 10.2727L45.9324 7.54545H47.4949Z" fill="white"/>
<rect x="43" y="125" width="32" height="48" fill="#E8178A" fill-opacity="0.24"/>
<rect x="43" y="125" width="267" height="8" fill="#E8178A" fill-opacity="0.24"/>
<rect x="43" y="165" width="267" height="8" fill="#E8178A" fill-opacity="0.24"/>
<path d="M43.5 185.5H75.5" stroke="#E8178A"/>
<rect x="37.5" y="190" width="44" height="18" rx="3" fill="#E8178A"/>
<path d="M44.3984 202.123V200.919H49.3984V202.123H44.3984ZM49.3984 199.214L44.3984 200.564V199.399L47.6974 198.604L47.6513 198.678V198.501L47.6974 198.575L44.3984 197.78V196.615L49.3984 197.964V199.214ZM53.5746 203.099C53.0443 203.099 52.572 203.008 52.1577 202.826C51.7457 202.641 51.4202 202.388 51.1811 202.066C50.9444 201.742 50.8224 201.368 50.8153 200.944H52.3636C52.3731 201.121 52.4311 201.278 52.5376 201.413C52.6465 201.545 52.791 201.648 52.9709 201.722C53.1508 201.795 53.3532 201.832 53.5781 201.832C53.8125 201.832 54.0196 201.79 54.1996 201.707C54.3795 201.625 54.5204 201.51 54.6222 201.363C54.724 201.216 54.7749 201.047 54.7749 200.855C54.7749 200.661 54.7204 200.489 54.6115 200.34C54.505 200.189 54.3511 200.07 54.1499 199.985C53.951 199.9 53.7143 199.857 53.4396 199.857H52.7614V198.728H53.4396C53.6716 198.728 53.8764 198.688 54.054 198.607C54.2339 198.527 54.3736 198.415 54.473 198.273C54.5724 198.129 54.6222 197.961 54.6222 197.769C54.6222 197.587 54.5784 197.427 54.4908 197.29C54.4055 197.15 54.2848 197.041 54.1286 196.963C53.9747 196.885 53.7947 196.846 53.5888 196.846C53.3804 196.846 53.1899 196.884 53.017 196.96C52.8442 197.033 52.7057 197.138 52.6016 197.276C52.4974 197.413 52.4418 197.574 52.4347 197.759H50.9609C50.968 197.339 51.0876 196.97 51.3196 196.651C51.5516 196.331 51.8641 196.081 52.2571 195.901C52.6525 195.719 53.0987 195.628 53.5959 195.628C54.0978 195.628 54.5369 195.719 54.9134 195.901C55.2898 196.084 55.5821 196.33 55.7905 196.64C56.0012 196.948 56.1054 197.293 56.103 197.677C56.1054 198.084 55.9787 198.424 55.723 198.696C55.4697 198.968 55.1394 199.141 54.7322 199.214V199.271C55.2673 199.34 55.6745 199.526 55.9538 199.829C56.2356 200.129 56.3752 200.506 56.3729 200.958C56.3752 201.372 56.2557 201.741 56.0142 202.062C55.7751 202.384 55.4448 202.638 55.0234 202.822C54.602 203.007 54.1191 203.099 53.5746 203.099ZM57.4782 203V201.892L60.0669 199.495C60.2871 199.282 60.4718 199.09 60.6209 198.92C60.7724 198.749 60.8873 198.582 60.9654 198.419C61.0435 198.253 61.0826 198.075 61.0826 197.883C61.0826 197.67 61.034 197.486 60.937 197.332C60.8399 197.176 60.7073 197.057 60.5392 196.974C60.3712 196.888 60.1806 196.846 59.9675 196.846C59.745 196.846 59.5508 196.891 59.3851 196.981C59.2194 197.071 59.0916 197.2 59.0016 197.368C58.9116 197.536 58.8667 197.736 58.8667 197.968H57.4071C57.4071 197.492 57.5149 197.079 57.7303 196.729C57.9457 196.378 58.2476 196.107 58.6358 195.915C59.0241 195.724 59.4715 195.628 59.9782 195.628C60.499 195.628 60.9524 195.72 61.3382 195.905C61.7265 196.087 62.0284 196.34 62.2438 196.665C62.4592 196.989 62.5669 197.361 62.5669 197.78C62.5669 198.054 62.5125 198.326 62.4036 198.593C62.2971 198.861 62.1065 199.158 61.8319 199.484C61.5572 199.809 61.1702 200.198 60.6706 200.653L59.6088 201.693V201.743H62.6628V203H57.4782ZM63.7912 205.045V197.545H65.2827V198.462H65.3501C65.4164 198.315 65.5123 198.166 65.6378 198.014C65.7656 197.86 65.9313 197.732 66.1349 197.631C66.3409 197.527 66.5966 197.474 66.902 197.474C67.2997 197.474 67.6667 197.579 68.0028 197.787C68.339 197.993 68.6077 198.304 68.8089 198.721C69.0102 199.135 69.1108 199.655 69.1108 200.28C69.1108 200.888 69.0125 201.402 68.8161 201.821C68.6219 202.238 68.3568 202.554 68.0206 202.769C67.6868 202.982 67.3127 203.089 66.8984 203.089C66.6049 203.089 66.3551 203.04 66.1491 202.943C65.9455 202.846 65.7786 202.724 65.6484 202.577C65.5182 202.428 65.4188 202.278 65.3501 202.126H65.304V205.045H63.7912ZM65.272 200.273C65.272 200.597 65.317 200.88 65.407 201.121C65.4969 201.363 65.6271 201.551 65.7976 201.686C65.968 201.819 66.1752 201.885 66.419 201.885C66.6652 201.885 66.8736 201.817 67.044 201.683C67.2145 201.545 67.3435 201.356 67.4311 201.114C67.5211 200.871 67.5661 200.59 67.5661 200.273C67.5661 199.958 67.5223 199.681 67.4347 199.442C67.3471 199.203 67.218 199.016 67.0476 198.881C66.8771 198.746 66.6676 198.678 66.419 198.678C66.1728 198.678 65.9645 198.743 65.794 198.874C65.6259 199.004 65.4969 199.188 65.407 199.428C65.317 199.667 65.272 199.948 65.272 200.273ZM71.1882 197.545L72.1896 199.452L73.2159 197.545H74.7678L73.1875 200.273L74.8104 203H73.2656L72.1896 201.114L71.1314 203H69.5689L71.1882 200.273L69.6257 197.545H71.1882Z" fill="white"/>
<line x1="44" y1="189" x2="44" y2="182" stroke="#E8178A"/>
<line x1="75" y1="189" x2="75" y2="182" stroke="#E8178A"/>
</svg>
