<svg width="414" height="247" viewBox="0 0 414 247" fill="none" xmlns="http://www.w3.org/2000/svg"><path d="M1.011 73V61.364h2.46v9.608h4.99V73H1.01Zm11.522.165c-.557 0-1.053-.097-1.489-.29a2.397 2.397 0 0 1-1.034-.87c-.25-.386-.375-.867-.375-1.442 0-.485.089-.892.267-1.222.178-.33.42-.595.727-.795a3.522 3.522 0 0 1 1.046-.455 7.97 7.97 0 0 1 1.238-.216c.508-.053.917-.102 1.228-.148.31-.049.536-.12.676-.216a.475.475 0 0 0 .21-.42v-.034c0-.36-.114-.638-.34-.835-.224-.197-.543-.296-.955-.296-.436 0-.783.097-1.04.29-.258.19-.428.428-.512.716l-2.238-.182c.113-.53.337-.989.67-1.375.333-.39.764-.69 1.29-.898.53-.212 1.144-.318 1.84-.318.486 0 .95.057 1.393.17.447.114.843.29 1.187.529.349.239.623.545.824.92.201.372.301.817.301 1.336V73h-2.295v-1.21h-.068c-.14.272-.328.513-.563.721a2.603 2.603 0 0 1-.846.483c-.33.114-.71.17-1.142.17Zm.693-1.67c.356 0 .67-.07.943-.21a1.67 1.67 0 0 0 .642-.58c.155-.243.233-.517.233-.824v-.927a1.28 1.28 0 0 1-.313.137 5.692 5.692 0 0 1-.437.108c-.163.03-.326.059-.489.085l-.443.063a2.991 2.991 0 0 0-.744.199 1.19 1.19 0 0 0-.494.369.9.9 0 0 0-.177.568c0 .33.12.581.358.756.243.17.55.255.92.255ZM19.37 73V61.364h2.42v4.375h.074a3.2 3.2 0 0 1 .46-.716c.205-.246.47-.451.796-.614.33-.167.738-.25 1.227-.25a3.28 3.28 0 0 1 1.761.5c.538.33.968.828 1.29 1.494.322.663.483 1.495.483 2.495 0 .973-.157 1.795-.472 2.466-.31.666-.734 1.172-1.272 1.517a3.267 3.267 0 0 1-1.796.511c-.47 0-.869-.078-1.198-.233a2.48 2.48 0 0 1-.802-.585 2.973 2.973 0 0 1-.477-.722h-.108V73H19.37Zm2.37-4.364c0 .52.071.972.215 1.358.144.387.352.688.625.904.273.212.604.318.994.318.394 0 .728-.108 1-.324.273-.22.48-.523.62-.909.143-.39.215-.84.215-1.347 0-.503-.07-.947-.21-1.33-.14-.382-.346-.681-.619-.897-.273-.216-.608-.324-1.006-.324-.394 0-.727.104-1 .313-.269.208-.475.504-.619.886-.144.383-.216.833-.216 1.352Zm11.733 4.535c-.897 0-1.67-.182-2.318-.546a3.736 3.736 0 0 1-1.488-1.557c-.349-.674-.523-1.471-.523-2.392 0-.898.174-1.686.523-2.364a3.864 3.864 0 0 1 1.471-1.585c.637-.379 1.383-.568 2.239-.568.576 0 1.112.093 1.608.278.5.182.935.457 1.307.824.375.368.666.83.875 1.387.208.553.312 1.2.312 1.943v.665h-7.37v-1.5h5.092c0-.349-.076-.657-.228-.927a1.628 1.628 0 0 0-.63-.63 1.8 1.8 0 0 0-.926-.233c-.368 0-.694.085-.978.256-.28.166-.5.392-.659.676a1.91 1.91 0 0 0-.244.937v1.426c0 .432.08.805.239 1.12.162.314.392.556.687.727.295.17.646.256 1.051.256.27 0 .515-.038.739-.114.223-.076.415-.19.574-.34.159-.152.28-.338.363-.558l2.239.148a3.057 3.057 0 0 1-.699 1.41c-.348.397-.8.707-1.352.93-.55.22-1.184.33-1.904.33Zm8.006-11.807V73h-2.42V61.364h2.42Z" fill="#344054"/><path d="M.773 94.614v-1.25H9.5v1.25H5.84V105H4.433V94.614H.772Zm12.06 5.136V105h-1.34V93.364h1.34v4.272h.114c.205-.45.512-.808.92-1.073.414-.27.963-.404 1.649-.404.594 0 1.115.12 1.562.358a2.41 2.41 0 0 1 1.04 1.085c.25.485.375 1.102.375 1.852V105h-1.341v-5.454c0-.694-.18-1.23-.54-1.609-.356-.382-.85-.573-1.483-.573-.44 0-.833.092-1.182.278a2.035 2.035 0 0 0-.818.813c-.197.356-.295.787-.295 1.295Zm8.113 5.25v-8.727h1.34V105h-1.34Zm.682-10.182a.953.953 0 0 1-.676-.267.858.858 0 0 1-.279-.642c0-.25.093-.464.279-.642a.954.954 0 0 1 .676-.267c.261 0 .485.089.67.267a.85.85 0 0 1 .284.642.85.85 0 0 1-.284.642.934.934 0 0 1-.67.267Zm9.297 3.41-1.205.34a2.235 2.235 0 0 0-.335-.585 1.626 1.626 0 0 0-.591-.477c-.25-.125-.57-.188-.96-.188-.534 0-.98.123-1.335.37-.353.242-.529.55-.529.926 0 .333.121.596.364.79.242.193.621.354 1.136.482l1.296.319c.78.189 1.361.479 1.744.869.382.386.574.884.574 1.494 0 .5-.144.947-.432 1.341-.284.394-.682.705-1.193.932-.512.227-1.106.341-1.784.341-.89 0-1.627-.193-2.21-.58-.584-.386-.953-.95-1.108-1.693l1.272-.318c.121.47.35.822.688 1.057.34.235.786.352 1.335.352.625 0 1.121-.133 1.489-.398.37-.269.556-.591.556-.966 0-.303-.106-.556-.318-.761-.212-.208-.538-.364-.977-.466l-1.455-.341c-.799-.189-1.386-.483-1.76-.88-.372-.402-.558-.904-.558-1.506 0-.493.138-.928.415-1.307a2.82 2.82 0 0 1 1.142-.892c.485-.216 1.034-.324 1.648-.324.863 0 1.541.19 2.034.568.496.38.848.88 1.057 1.5ZM37.602 105v-8.727h1.341V105h-1.34Zm.682-10.182a.953.953 0 0 1-.676-.267.858.858 0 0 1-.278-.642c0-.25.092-.464.278-.642a.953.953 0 0 1 .676-.267c.261 0 .485.089.67.267a.85.85 0 0 1 .285.642.85.85 0 0 1-.284.642.933.933 0 0 1-.67.267Zm9.297 3.41-1.205.34a2.234 2.234 0 0 0-.335-.585 1.626 1.626 0 0 0-.59-.477c-.25-.125-.57-.188-.96-.188-.535 0-.98.123-1.336.37-.352.242-.529.55-.529.926 0 .333.122.596.364.79.242.193.621.354 1.136.482l1.296.319c.78.189 1.362.479 1.744.869.383.386.574.884.574 1.494 0 .5-.144.947-.432 1.341-.284.394-.682.705-1.193.932-.511.227-1.106.341-1.784.341-.89 0-1.627-.193-2.21-.58-.584-.386-.953-.95-1.108-1.693l1.273-.318c.12.47.35.822.687 1.057.34.235.786.352 1.335.352.625 0 1.121-.133 1.489-.398.371-.269.557-.591.557-.966 0-.303-.106-.556-.319-.761-.212-.208-.537-.364-.977-.466l-1.454-.341c-.8-.189-1.387-.483-1.762-.88-.37-.402-.556-.904-.556-1.506 0-.493.138-.928.414-1.307a2.82 2.82 0 0 1 1.142-.892c.485-.216 1.034-.324 1.648-.324.864 0 1.542.19 2.034.568.496.38.849.88 1.057 1.5Zm10.473-1.955v1.136h-4.523v-1.136h4.523Zm-3.205-2.091h1.341v8.318c0 .379.055.663.165.852a.85.85 0 0 0 .432.375c.178.061.366.091.562.091.148 0 .27-.007.364-.023l.227-.045.273 1.205a2.72 2.72 0 0 1-.38.102c-.163.038-.37.057-.62.057a2.7 2.7 0 0 1-1.114-.245 2.215 2.215 0 0 1-.897-.744c-.235-.333-.353-.754-.353-1.261v-8.682Zm6.75 5.568V105h-1.34V93.364h1.34v4.272h.114a2.47 2.47 0 0 1 .92-1.073c.413-.27.963-.404 1.648-.404.595 0 1.116.12 1.563.358.447.235.793.597 1.04 1.085.25.485.374 1.102.374 1.852V105h-1.34v-5.454c0-.694-.18-1.23-.54-1.609-.356-.382-.85-.573-1.483-.573-.44 0-.833.092-1.182.278a2.035 2.035 0 0 0-.818.813c-.197.356-.296.787-.296 1.295Zm11.772 5.432c-.841 0-1.566-.186-2.176-.557a3.74 3.74 0 0 1-1.404-1.568c-.326-.674-.488-1.459-.488-2.352 0-.894.162-1.682.488-2.364.33-.686.788-1.22 1.375-1.602.591-.387 1.28-.58 2.068-.58.455 0 .904.076 1.347.227.443.152.847.398 1.21.739.364.337.654.784.87 1.34.215.558.323 1.243.323 2.058v.568h-6.727v-1.16h5.364c0-.492-.099-.931-.296-1.317a2.226 2.226 0 0 0-.83-.915c-.355-.224-.776-.335-1.26-.335-.535 0-.997.132-1.387.397a2.615 2.615 0 0 0-.892 1.023c-.208.42-.313.871-.313 1.352v.773c0 .659.114 1.218.341 1.676.231.455.552.801.96 1.04.41.235.885.352 1.427.352.352 0 .67-.049.954-.147a2.05 2.05 0 0 0 .745-.455c.208-.205.369-.458.483-.761l1.295.363c-.136.44-.365.826-.688 1.159-.322.33-.72.587-1.193.773a4.421 4.421 0 0 1-1.596.273Zm11.494-5.432V105h-1.34V93.364h1.34v4.272h.114c.204-.45.511-.808.92-1.073.413-.27.962-.404 1.648-.404.595 0 1.115.12 1.562.358a2.41 2.41 0 0 1 1.04 1.085c.25.485.375 1.102.375 1.852V105h-1.34v-5.454c0-.694-.18-1.23-.54-1.609-.357-.382-.85-.573-1.484-.573-.439 0-.833.092-1.181.278a2.036 2.036 0 0 0-.819.813c-.197.356-.295.787-.295 1.295Zm8.112 5.25v-8.727h1.341V105h-1.34Zm.682-10.182a.953.953 0 0 1-.676-.267.858.858 0 0 1-.279-.642c0-.25.093-.464.279-.642a.953.953 0 0 1 .676-.267c.261 0 .485.089.67.267a.85.85 0 0 1 .285.642.85.85 0 0 1-.285.642.933.933 0 0 1-.67.267Zm4.456 4.932V105h-1.34v-8.727h1.295v1.363h.113c.205-.443.515-.799.932-1.068.417-.272.955-.409 1.614-.409.591 0 1.108.121 1.551.364a2.45 2.45 0 0 1 1.034 1.09c.246.486.369 1.1.369 1.841V105h-1.341v-5.454c0-.686-.178-1.22-.534-1.603-.356-.386-.844-.58-1.466-.58-.428 0-.81.093-1.147.279a1.993 1.993 0 0 0-.79.813c-.193.356-.29.787-.29 1.295Zm11.814-3.477v1.136h-4.523v-1.136h4.523Zm-3.205-2.091h1.341v8.318c0 .379.055.663.165.852a.853.853 0 0 0 .432.375c.178.061.365.091.562.091.148 0 .269-.007.364-.023l.227-.045.273 1.205a2.74 2.74 0 0 1-.381.102 2.785 2.785 0 0 1-.619.057 2.7 2.7 0 0 1-1.114-.245 2.214 2.214 0 0 1-.897-.744c-.235-.333-.353-.754-.353-1.261v-8.682Zm13.517 2.09v1.137h-4.522v-1.136h4.522Zm-3.204-2.09h1.341v8.318c0 .379.055.663.165.852a.847.847 0 0 0 .431.375c.178.061.366.091.563.091.148 0 .269-.007.364-.023l.227-.045.273 1.205a2.74 2.74 0 0 1-.381.102 2.792 2.792 0 0 1-.619.057 2.7 2.7 0 0 1-1.114-.245 2.217 2.217 0 0 1-.898-.744c-.235-.333-.352-.754-.352-1.261v-8.682Zm8.787 11c-.841 0-1.566-.186-2.176-.557a3.744 3.744 0 0 1-1.404-1.568c-.325-.674-.488-1.459-.488-2.352 0-.894.163-1.682.488-2.364.33-.686.788-1.22 1.375-1.602.591-.387 1.281-.58 2.069-.58.454 0 .903.076 1.346.227.443.152.847.398 1.21.739.364.337.654.784.87 1.34.216.558.324 1.243.324 2.058v.568h-6.728v-1.16h5.364c0-.492-.099-.931-.296-1.317a2.223 2.223 0 0 0-.829-.915c-.356-.224-.777-.335-1.261-.335-.535 0-.997.132-1.387.397a2.615 2.615 0 0 0-.892 1.023c-.208.42-.312.871-.312 1.352v.773c0 .659.113 1.218.341 1.676.231.455.551.801.96 1.04.409.235.884.352 1.426.352.352 0 .67-.049.954-.147.288-.103.536-.254.745-.455.208-.205.369-.458.483-.761l1.295.363a2.86 2.86 0 0 1-.687 1.159 3.35 3.35 0 0 1-1.194.773 4.416 4.416 0 0 1-1.596.273Zm6.419-8.91 2.091 3.569 2.091-3.568h1.545l-2.818 4.363L137.97 105h-1.545l-2.091-3.386-2.091 3.386h-1.546l2.773-4.364-2.773-4.363h1.546Zm11.436 0v1.137h-4.523v-1.136h4.523Zm-3.205-2.09h1.341v8.318c0 .379.055.663.165.852a.853.853 0 0 0 .432.375c.178.061.365.091.562.091.148 0 .269-.007.364-.023l.227-.045.273 1.205a2.74 2.74 0 0 1-.381.102 2.785 2.785 0 0 1-.619.057 2.7 2.7 0 0 1-1.114-.245 2.214 2.214 0 0 1-.897-.744c-.235-.333-.353-.754-.353-1.261v-8.682Z" fill="#667085"/><rect x=".5" y="115.5" width="358" height="47" rx="3.5" fill="#fff"/><path d="M16.773 134.614v-1.25H25.5v1.25h-3.66V145h-1.408v-10.386h-3.66Zm13.113 10.568c-.84 0-1.566-.186-2.176-.557a3.74 3.74 0 0 1-1.403-1.568c-.326-.674-.489-1.459-.489-2.352 0-.894.163-1.682.489-2.364.33-.686.788-1.22 1.375-1.602.59-.387 1.28-.58 2.068-.58.454 0 .903.076 1.347.227.443.152.846.398 1.21.739.363.337.653.784.87 1.341.215.557.323 1.242.323 2.057v.568h-6.727v-1.159h5.363c0-.493-.098-.932-.295-1.318a2.22 2.22 0 0 0-.83-.915c-.356-.224-.776-.335-1.261-.335-.534 0-.996.132-1.386.397a2.625 2.625 0 0 0-.892 1.023 3.006 3.006 0 0 0-.313 1.352v.773c0 .659.114 1.218.341 1.676.231.455.551.801.96 1.04.41.235.885.352 1.426.352.353 0 .67-.049.955-.147a2.05 2.05 0 0 0 .744-.455c.209-.205.37-.458.483-.761l1.296.363c-.137.44-.366.826-.688 1.159a3.35 3.35 0 0 1-1.193.773 4.421 4.421 0 0 1-1.597.273Zm6.42-8.909 2.09 3.568 2.091-3.568h1.546l-2.819 4.363 2.82 4.364h-1.546l-2.09-3.386L36.304 145H34.76l2.773-4.364-2.773-4.363h1.545Zm11.436 0v1.136h-4.523v-1.136h4.523Zm-3.205-2.091h1.34v8.318c0 .379.056.663.166.852a.85.85 0 0 0 .431.375c.179.061.366.091.563.091.148 0 .269-.007.364-.023l.227-.045.273 1.205a2.74 2.74 0 0 1-.381.102c-.163.038-.37.057-.62.057-.378 0-.75-.082-1.113-.245a2.215 2.215 0 0 1-.898-.744c-.235-.333-.352-.754-.352-1.261v-8.682Zm13.244 14.273c-.648 0-1.204-.084-1.67-.25a3.546 3.546 0 0 1-1.165-.648 3.54 3.54 0 0 1-.733-.852l1.068-.75c.122.159.275.34.46.545.186.208.44.388.762.54.326.155.752.233 1.278.233.705 0 1.286-.171 1.745-.512.458-.341.687-.875.687-1.602v-1.773H60.1a7.268 7.268 0 0 1-.42.591c-.178.231-.436.438-.773.62-.333.178-.784.267-1.352.267a3.645 3.645 0 0 1-1.898-.5c-.557-.334-.998-.819-1.324-1.455-.322-.636-.483-1.409-.483-2.318 0-.894.158-1.672.472-2.335.314-.667.752-1.182 1.313-1.546.56-.367 1.208-.551 1.943-.551.568 0 1.019.095 1.352.284.337.186.595.398.773.637.181.234.322.428.42.579h.136v-1.386h1.296v8.977c0 .75-.17 1.36-.511 1.83a2.91 2.91 0 0 1-1.364 1.039c-.568.224-1.2.336-1.898.336Zm-.045-4.796c.538 0 .992-.123 1.363-.369.372-.246.654-.601.847-1.063.193-.462.29-1.015.29-1.659 0-.629-.095-1.184-.284-1.665-.19-.481-.47-.858-.841-1.13-.371-.273-.83-.409-1.375-.409-.568 0-1.042.144-1.42.431a2.631 2.631 0 0 0-.847 1.16 4.472 4.472 0 0 0-.279 1.613c0 .606.095 1.142.284 1.608.194.462.478.826.853 1.091.379.261.848.392 1.409.392Zm9.818 1.523c-.788 0-1.48-.188-2.074-.563-.59-.375-1.053-.899-1.386-1.574-.33-.674-.495-1.462-.495-2.363 0-.909.165-1.703.495-2.381.333-.678.795-1.204 1.386-1.579.595-.375 1.286-.563 2.074-.563.788 0 1.477.188 2.068.563.595.375 1.057.901 1.386 1.579.334.678.5 1.472.5 2.381 0 .901-.166 1.689-.5 2.363a3.764 3.764 0 0 1-1.386 1.574c-.59.375-1.28.563-2.068.563Zm0-1.205c.599 0 1.09-.153 1.477-.46.387-.307.673-.71.858-1.21.186-.5.279-1.042.279-1.625a4.68 4.68 0 0 0-.279-1.631 2.742 2.742 0 0 0-.858-1.221c-.386-.311-.879-.466-1.477-.466-.599 0-1.09.155-1.477.466-.387.31-.673.717-.858 1.221a4.678 4.678 0 0 0-.279 1.631c0 .583.093 1.125.279 1.625.185.5.471.903.858 1.21.386.307.879.46 1.477.46Zm9.66 1.205c-.84 0-1.566-.186-2.176-.557a3.74 3.74 0 0 1-1.403-1.568c-.326-.674-.489-1.459-.489-2.352 0-.894.163-1.682.489-2.364.33-.686.788-1.22 1.375-1.602.59-.387 1.28-.58 2.068-.58.455 0 .903.076 1.347.227.443.152.846.398 1.21.739.364.337.653.784.87 1.341.215.557.323 1.242.323 2.057v.568h-6.727v-1.159h5.364c0-.493-.099-.932-.296-1.318a2.22 2.22 0 0 0-.83-.915c-.356-.224-.776-.335-1.26-.335-.535 0-.997.132-1.387.397a2.624 2.624 0 0 0-.892 1.023 3.006 3.006 0 0 0-.313 1.352v.773c0 .659.114 1.218.341 1.676.231.455.551.801.96 1.04.41.235.885.352 1.427.352.352 0 .67-.049.954-.147.288-.103.536-.254.744-.455.209-.205.37-.458.483-.761l1.296.363c-.137.44-.366.826-.688 1.159-.322.33-.72.587-1.193.773a4.421 4.421 0 0 1-1.597.273Zm11.836-6.955-1.205.341a2.226 2.226 0 0 0-.335-.585 1.628 1.628 0 0 0-.591-.477c-.25-.125-.57-.188-.96-.188-.534 0-.98.123-1.335.37-.353.242-.529.551-.529.926 0 .333.121.596.364.789.242.194.621.355 1.136.483l1.296.319c.78.189 1.361.479 1.744.869.382.386.574.884.574 1.494 0 .5-.144.947-.432 1.341-.284.394-.682.705-1.193.932-.512.227-1.106.341-1.784.341-.89 0-1.627-.193-2.21-.58-.584-.386-.953-.95-1.109-1.693l1.273-.318c.121.47.35.822.688 1.057.34.235.786.352 1.335.352.625 0 1.121-.133 1.489-.398.37-.269.556-.591.556-.966 0-.303-.106-.556-.318-.761-.212-.208-.538-.364-.977-.466l-1.455-.341c-.799-.189-1.386-.483-1.76-.88-.372-.402-.558-.904-.558-1.506 0-.493.138-.928.415-1.307a2.82 2.82 0 0 1 1.142-.892c.485-.216 1.034-.324 1.648-.324.863 0 1.541.189 2.034.568a3.07 3.07 0 0 1 1.057 1.5Zm8.018 1.523V145h-1.34v-11.636h1.34v4.272h.114c.204-.45.511-.808.92-1.074.413-.268.962-.403 1.648-.403.595 0 1.116.119 1.562.358a2.41 2.41 0 0 1 1.04 1.085c.25.485.375 1.103.375 1.853V145h-1.341v-5.455c0-.693-.18-1.229-.539-1.607-.356-.383-.85-.574-1.483-.574-.44 0-.834.092-1.182.278a2.033 2.033 0 0 0-.818.813c-.197.356-.296.787-.296 1.295Zm11.771 5.432c-.84 0-1.566-.186-2.176-.557a3.736 3.736 0 0 1-1.403-1.568c-.326-.674-.489-1.459-.489-2.352 0-.894.163-1.682.489-2.364.329-.686.788-1.22 1.375-1.602.591-.387 1.28-.58 2.068-.58.455 0 .904.076 1.347.227.443.152.846.398 1.21.739.364.337.653.784.869 1.341.216.557.324 1.242.324 2.057v.568h-6.727v-1.159h5.363c0-.493-.098-.932-.295-1.318a2.219 2.219 0 0 0-.83-.915c-.356-.224-.776-.335-1.261-.335-.534 0-.996.132-1.386.397a2.617 2.617 0 0 0-.892 1.023 2.997 2.997 0 0 0-.313 1.352v.773c0 .659.114 1.218.341 1.676.231.455.551.801.96 1.04.409.235.885.352 1.426.352.353 0 .671-.049.955-.147.288-.103.536-.254.744-.455.209-.205.37-.458.483-.761l1.296.363c-.137.44-.366.826-.688 1.159-.322.33-.719.587-1.193.773a4.421 4.421 0 0 1-1.597.273Zm5.654-.182v-8.727h1.295v1.318h.091c.159-.432.447-.782.864-1.051a2.542 2.542 0 0 1 1.409-.404c.098 0 .222.002.369.006.148.004.26.01.336.017v1.364a3.462 3.462 0 0 0-.313-.051 3.026 3.026 0 0 0-.506-.04c-.424 0-.803.089-1.136.267-.33.174-.591.417-.784.727a1.963 1.963 0 0 0-.284 1.051V145h-1.341Zm9.346.182c-.84 0-1.566-.186-2.176-.557a3.736 3.736 0 0 1-1.403-1.568c-.326-.674-.489-1.459-.489-2.352 0-.894.163-1.682.489-2.364.329-.686.788-1.22 1.375-1.602.591-.387 1.28-.58 2.068-.58.455 0 .904.076 1.347.227.443.152.846.398 1.21.739.364.337.653.784.869 1.341.216.557.324 1.242.324 2.057v.568h-6.727v-1.159h5.363c0-.493-.098-.932-.295-1.318a2.219 2.219 0 0 0-.83-.915c-.356-.224-.776-.335-1.261-.335-.534 0-.996.132-1.386.397a2.617 2.617 0 0 0-.892 1.023 2.997 2.997 0 0 0-.313 1.352v.773c0 .659.114 1.218.341 1.676.231.455.551.801.96 1.04.409.235.885.352 1.426.352.353 0 .671-.049.955-.147.288-.103.536-.254.744-.455.209-.205.37-.458.483-.761l1.296.363c-.137.44-.366.826-.688 1.159-.322.33-.719.587-1.193.773a4.421 4.421 0 0 1-1.597.273Zm213.968-4.425a4.874 4.874 0 1 0-1.048 1.049c.022.03.046.058.073.086l2.888 2.888a.751.751 0 1 0 1.061-1.061l-2.888-2.887a.69.69 0 0 0-.086-.075Zm.194-2.883a4.13 4.13 0 0 1-1.209 2.917 4.113 4.113 0 0 1-2.916 1.208 4.115 4.115 0 0 1-2.917-1.208 4.113 4.113 0 0 1-1.208-2.917 4.123 4.123 0 1 1 8.25 0Z" fill="#344054"/><rect x=".5" y="115.5" width="358" height="47" rx="3.5" stroke="#98A2B3"/><path d="M1.41 185v-11.636h7.022v1.25H2.818v3.931h5.25v1.25h-5.25v3.955h5.705V185H1.409Zm9.38 0v-8.727h1.295v1.318h.091c.16-.432.447-.782.864-1.051a2.542 2.542 0 0 1 1.409-.404c.098 0 .222.002.37.006.147.004.259.01.334.017v1.364a3.406 3.406 0 0 0-.312-.051 3.022 3.022 0 0 0-.506-.04c-.424 0-.803.089-1.136.267-.33.174-.591.417-.784.727a1.96 1.96 0 0 0-.284 1.051V185H10.79Zm5.953 0v-8.727h1.295v1.318h.091c.16-.432.447-.782.864-1.051a2.542 2.542 0 0 1 1.409-.404c.098 0 .222.002.37.006.147.004.259.01.335.017v1.364a3.406 3.406 0 0 0-.313-.051 3.022 3.022 0 0 0-.506-.04c-.424 0-.803.089-1.136.267-.33.174-.59.417-.784.727a1.96 1.96 0 0 0-.284 1.051V185h-1.341Zm9.233.182c-.788 0-1.48-.188-2.074-.563-.59-.375-1.053-.899-1.386-1.574-.33-.674-.495-1.462-.495-2.363 0-.909.165-1.703.495-2.381.333-.678.795-1.204 1.386-1.579.595-.375 1.286-.563 2.074-.563.788 0 1.477.188 2.068.563.595.375 1.057.901 1.386 1.579.334.678.5 1.472.5 2.381 0 .901-.166 1.689-.5 2.363a3.765 3.765 0 0 1-1.386 1.574c-.59.375-1.28.563-2.068.563Zm0-1.205c.598 0 1.09-.153 1.477-.46.387-.307.672-.71.858-1.21.186-.5.279-1.042.279-1.625a4.68 4.68 0 0 0-.279-1.631 2.742 2.742 0 0 0-.858-1.221c-.386-.311-.879-.466-1.477-.466-.599 0-1.091.155-1.477.466-.387.31-.673.717-.858 1.221a4.68 4.68 0 0 0-.279 1.631c0 .583.093 1.125.279 1.625.185.5.471.903.858 1.21.386.307.878.46 1.477.46ZM31.977 185v-8.727h1.296v1.318h.09c.16-.432.448-.782.864-1.051a2.542 2.542 0 0 1 1.41-.404c.098 0 .221.002.369.006.147.004.26.01.335.017v1.364a3.406 3.406 0 0 0-.313-.051 3.022 3.022 0 0 0-.505-.04c-.425 0-.803.089-1.137.267-.33.174-.59.417-.784.727a1.96 1.96 0 0 0-.284 1.051V185h-1.34Zm10.453 0v-8.727h1.296v1.363h.114a2.19 2.19 0 0 1 .88-1.085c.406-.261.892-.392 1.46-.392.576 0 1.055.131 1.438.392.386.258.687.619.903 1.085h.091c.224-.45.559-.808 1.006-1.074.447-.268.983-.403 1.608-.403.78 0 1.418.244 1.915.733.496.485.744 1.241.744 2.267V185h-1.341v-5.841c0-.644-.176-1.104-.528-1.381a1.958 1.958 0 0 0-1.245-.414c-.613 0-1.089.185-1.426.556-.337.368-.505.834-.505 1.398V185h-1.364v-5.977c0-.496-.161-.896-.483-1.199-.322-.307-.737-.46-1.244-.46-.349 0-.675.092-.978.278a2.107 2.107 0 0 0-.727.773 2.28 2.28 0 0 0-.273 1.13V185h-1.34Zm17.566.182c-.841 0-1.567-.186-2.176-.557a3.74 3.74 0 0 1-1.404-1.568c-.326-.674-.488-1.459-.488-2.352 0-.894.162-1.682.488-2.364.33-.686.788-1.22 1.375-1.602.591-.387 1.28-.58 2.068-.58.455 0 .904.076 1.347.227.443.152.847.398 1.21.739.364.337.654.784.87 1.341.215.557.323 1.242.323 2.057v.568h-6.727v-1.159h5.364c0-.493-.099-.932-.296-1.318a2.22 2.22 0 0 0-.83-.915c-.355-.224-.776-.335-1.26-.335-.535 0-.997.132-1.387.397a2.624 2.624 0 0 0-.892 1.023 3.004 3.004 0 0 0-.313 1.352v.773c0 .659.114 1.218.341 1.676.231.455.551.801.96 1.04.41.235.885.352 1.427.352.352 0 .67-.049.954-.147a2.05 2.05 0 0 0 .745-.455c.208-.205.369-.458.483-.761l1.295.363c-.136.44-.365.826-.688 1.159-.321.33-.72.587-1.193.773a4.421 4.421 0 0 1-1.596.273Zm11.835-6.955-1.205.341a2.225 2.225 0 0 0-.335-.585 1.628 1.628 0 0 0-.59-.477c-.25-.125-.57-.188-.96-.188-.535 0-.98.123-1.336.37-.352.242-.529.551-.529.926 0 .333.122.596.364.789.243.194.621.355 1.136.483l1.296.319c.78.189 1.362.479 1.744.869.383.386.574.884.574 1.494 0 .5-.144.947-.432 1.341-.284.394-.682.705-1.193.932-.511.227-1.106.341-1.784.341-.89 0-1.627-.193-2.21-.58-.584-.386-.953-.95-1.108-1.693l1.272-.318c.122.47.35.822.688 1.057.34.235.786.352 1.335.352.625 0 1.121-.133 1.489-.398.371-.269.557-.591.557-.966 0-.303-.106-.556-.319-.761-.212-.208-.537-.364-.977-.466l-1.454-.341c-.8-.189-1.387-.483-1.762-.88-.37-.402-.556-.904-.556-1.506 0-.493.138-.928.414-1.307a2.82 2.82 0 0 1 1.142-.892c.485-.216 1.034-.324 1.648-.324.864 0 1.542.189 2.034.568.496.379.849.879 1.057 1.5Zm8.36 0-1.205.341a2.228 2.228 0 0 0-.335-.585 1.629 1.629 0 0 0-.591-.477c-.25-.125-.57-.188-.96-.188-.535 0-.98.123-1.336.37-.352.242-.528.551-.528.926 0 .333.121.596.363.789.243.194.622.355 1.137.483l1.295.319c.78.189 1.362.479 1.745.869.382.386.573.884.573 1.494 0 .5-.144.947-.431 1.341-.285.394-.682.705-1.194.932-.51.227-1.106.341-1.784.341-.89 0-1.627-.193-2.21-.58-.583-.386-.953-.95-1.108-1.693l1.273-.318c.121.47.35.822.687 1.057.341.235.786.352 1.336.352.625 0 1.12-.133 1.488-.398.371-.269.557-.591.557-.966 0-.303-.106-.556-.318-.761-.212-.208-.538-.364-.977-.466l-1.455-.341c-.8-.189-1.386-.483-1.761-.88-.371-.402-.557-.904-.557-1.506 0-.493.138-.928.415-1.307.28-.379.66-.676 1.142-.892.485-.216 1.034-.324 1.647-.324.864 0 1.542.189 2.034.568.497.379.849.879 1.057 1.5Zm4.745 6.978a3.552 3.552 0 0 1-1.506-.313 2.582 2.582 0 0 1-1.074-.915c-.265-.401-.397-.886-.397-1.454 0-.5.098-.906.295-1.216.197-.315.46-.561.79-.739.33-.178.693-.31 1.09-.398.403-.09.806-.162 1.211-.215.53-.069.96-.12 1.29-.154.333-.038.576-.1.727-.187.156-.087.233-.239.233-.455v-.045c0-.561-.153-.997-.46-1.307-.303-.311-.763-.466-1.38-.466-.64 0-1.143.14-1.506.42-.364.281-.62.58-.767.898l-1.273-.454c.227-.531.53-.944.909-1.239.383-.299.8-.508 1.25-.625a5.199 5.199 0 0 1 1.34-.182c.281 0 .603.034.967.102.367.065.721.199 1.062.404.345.204.63.513.858.926.227.413.341.966.341 1.659V185h-1.34v-1.182h-.069a2.35 2.35 0 0 1-.455.608c-.212.216-.494.4-.846.551-.352.152-.782.228-1.29.228Zm.205-1.205c.53 0 .977-.104 1.34-.312a2.13 2.13 0 0 0 1.114-1.847v-1.227c-.057.068-.182.13-.375.187-.19.053-.409.101-.659.142-.246.038-.487.072-.722.102-.23.027-.418.05-.562.069a5.108 5.108 0 0 0-.977.221c-.3.099-.542.248-.728.449-.181.197-.272.466-.272.807 0 .466.172.818.517 1.057.348.235.79.352 1.324.352Zm9.765 4.455c-.648 0-1.204-.084-1.67-.25a3.546 3.546 0 0 1-1.165-.648 3.54 3.54 0 0 1-.733-.852l1.068-.75c.121.159.275.34.46.545.186.208.44.388.762.54.326.155.752.233 1.278.233.705 0 1.286-.171 1.745-.512.458-.341.687-.875.687-1.602v-1.773h-.114a7.268 7.268 0 0 1-.42.591c-.178.231-.436.438-.773.62-.333.178-.784.267-1.352.267a3.645 3.645 0 0 1-1.898-.5c-.557-.334-.998-.819-1.324-1.455-.322-.636-.483-1.409-.483-2.318 0-.894.158-1.672.472-2.335.314-.667.752-1.182 1.313-1.546.56-.367 1.208-.551 1.943-.551.568 0 1.019.095 1.352.284.337.186.595.398.773.637.181.234.322.428.42.579h.136v-1.386h1.296v8.977c0 .75-.17 1.36-.511 1.83-.338.473-.792.82-1.364 1.039-.568.224-1.2.336-1.898.336Zm-.045-4.796c.538 0 .992-.123 1.363-.369.372-.246.654-.601.847-1.063.193-.462.29-1.015.29-1.659 0-.629-.095-1.184-.284-1.665-.19-.481-.47-.858-.841-1.13-.371-.273-.83-.409-1.375-.409-.568 0-1.042.144-1.42.431a2.631 2.631 0 0 0-.847 1.16 4.472 4.472 0 0 0-.279 1.613c0 .606.095 1.142.284 1.608.194.462.478.826.853 1.091.379.261.848.392 1.409.392Zm9.932 1.523c-.841 0-1.567-.186-2.177-.557a3.742 3.742 0 0 1-1.403-1.568c-.326-.674-.489-1.459-.489-2.352 0-.894.163-1.682.489-2.364.33-.686.788-1.22 1.375-1.602.591-.387 1.28-.58 2.068-.58.455 0 .904.076 1.347.227.443.152.846.398 1.21.739.364.337.653.784.869 1.341.216.557.324 1.242.324 2.057v.568h-6.727v-1.159h5.364c0-.493-.099-.932-.296-1.318a2.223 2.223 0 0 0-.829-.915c-.356-.224-.777-.335-1.262-.335-.534 0-.996.132-1.386.397a2.625 2.625 0 0 0-.892 1.023 3.01 3.01 0 0 0-.313 1.352v.773c0 .659.114 1.218.341 1.676.231.455.551.801.96 1.04.41.235.885.352 1.427.352.352 0 .67-.049.954-.147.288-.103.536-.254.744-.455.209-.205.37-.458.483-.761l1.296.363c-.136.44-.366.826-.688 1.159-.322.33-.719.587-1.193.773a4.416 4.416 0 0 1-1.596.273Z" fill="#D7260F"/><circle cx="204" cy="99" r="12" fill="#344054"/><path d="M199.943 105v-1.773l4.142-3.835c.353-.34.648-.648.887-.92.242-.273.426-.54.551-.801.125-.266.187-.552.187-.859 0-.34-.077-.634-.233-.88a1.526 1.526 0 0 0-.636-.574 1.995 1.995 0 0 0-.915-.205c-.356 0-.667.072-.932.216-.265.144-.469.35-.613.62-.144.269-.216.589-.216.96h-2.335c0-.761.172-1.422.517-1.983.344-.56.827-.994 1.448-1.301.622-.307 1.338-.46 2.148-.46.834 0 1.559.147 2.176.443.622.291 1.104.697 1.449 1.216s.517 1.113.517 1.784c0 .44-.087.873-.261 1.3-.171.429-.476.904-.915 1.427-.439.519-1.059 1.142-1.858 1.869l-1.699 1.665v.08h4.887V105h-8.296Z" fill="#fff"/><path d="m195 99-52 .5" stroke="#344054" stroke-dasharray="2 2"/><circle cx="402" cy="139" r="12" fill="#344054"/><path d="M402.244 145.159c-.848 0-1.604-.146-2.267-.437-.659-.296-1.18-.701-1.562-1.216a3.054 3.054 0 0 1-.585-1.796h2.477c.015.284.108.534.278.75.174.212.406.377.693.495.288.117.612.176.972.176.375 0 .706-.067.994-.199.288-.133.514-.316.676-.551.163-.235.245-.506.245-.813 0-.31-.087-.585-.262-.824a1.666 1.666 0 0 0-.738-.568c-.318-.136-.697-.204-1.137-.204h-1.085v-1.807h1.085c.372 0 .699-.065.983-.193.288-.129.512-.307.671-.534.159-.232.238-.5.238-.807 0-.292-.07-.548-.21-.767a1.382 1.382 0 0 0-.579-.523 1.887 1.887 0 0 0-.864-.188c-.333 0-.638.061-.915.182a1.599 1.599 0 0 0-.664.506c-.167.22-.256.477-.268.773h-2.358c.012-.671.203-1.262.574-1.773.372-.511.872-.911 1.5-1.199.633-.292 1.347-.437 2.142-.437.803 0 1.506.145 2.108.437.603.292 1.07.686 1.404 1.182.337.492.504 1.045.5 1.659.004.651-.199 1.195-.608 1.631-.405.435-.934.712-1.585.829v.091c.856.11 1.507.407 1.954.892.451.481.674 1.083.671 1.807a2.846 2.846 0 0 1-.574 1.767c-.383.515-.911.92-1.586 1.216-.674.295-1.446.443-2.318.443Z" fill="#fff"/><path d="m393 139-52 .5" stroke="#344054" stroke-dasharray="2 2"/><circle cx="67" cy="16" r="12" fill="#344054"/><path d="M69.006 10.364V22h-2.46v-9.301h-.069l-2.665 1.67v-2.181l2.881-1.824h2.313Z" fill="#fff"/><path d="M64 16H20v42" stroke="#344054" stroke-dasharray="2 2"/><circle cx="67" cy="231" r="12" fill="#344054"/><path d="M62.767 234.955v-1.938l4.858-7.653h1.67v2.681h-.988l-3.063 4.847v.091h6.904v1.972h-9.381ZM68.352 237v-2.636l.046-.858v-8.142h2.306V237h-2.352Z" fill="#fff"/><path d="M64 232H20v-42" stroke="#344054" stroke-dasharray="2 2"/></svg>