<svg width="182" height="115" viewBox="0 0 182 115" fill="none" xmlns="http://www.w3.org/2000/svg">
<rect x="24" y="52" width="16" height="24" fill="#E8178A" fill-opacity="0.24"/>
<rect x="0.5" y="52.5" width="23" height="23" fill="white" stroke="#98A2B3"/>
<path d="M44.7727 70.1818C43.9545 70.1818 43.25 69.9886 42.6591 69.6023C42.0682 69.2159 41.6136 68.6837 41.2955 68.0057C40.9773 67.3277 40.8182 66.553 40.8182 65.6818C40.8182 64.7955 40.9811 64.0133 41.3068 63.3352C41.6364 62.6534 42.0947 62.1212 42.6818 61.7386C43.2727 61.3523 43.9621 61.1591 44.75 61.1591C45.3636 61.1591 45.9167 61.2727 46.4091 61.5C46.9015 61.7273 47.3049 62.0455 47.6193 62.4545C47.9337 62.8636 48.1288 63.3409 48.2045 63.8864H46.8636C46.7614 63.4886 46.5341 63.1364 46.1818 62.8295C45.8333 62.5189 45.3636 62.3636 44.7727 62.3636C44.25 62.3636 43.7917 62.5 43.3977 62.7727C43.0076 63.0417 42.7027 63.4223 42.483 63.9148C42.267 64.4034 42.1591 64.9773 42.1591 65.6364C42.1591 66.3106 42.2652 66.8977 42.4773 67.3977C42.6932 67.8977 42.9962 68.286 43.3864 68.5625C43.7803 68.839 44.2424 68.9773 44.7727 68.9773C45.1212 68.9773 45.4375 68.9167 45.7216 68.7955C46.0057 68.6742 46.2462 68.5 46.4432 68.2727C46.6402 68.0455 46.7803 67.7727 46.8636 67.4545H48.2045C48.1288 67.9697 47.9413 68.4337 47.642 68.8466C47.3466 69.2557 46.9545 69.5814 46.4659 69.8239C45.9811 70.0625 45.4167 70.1818 44.7727 70.1818ZM51.5057 64.75V70H50.1648V58.3636H51.5057V62.6364H51.6193C51.8239 62.1856 52.1307 61.8277 52.5398 61.5625C52.9527 61.2936 53.5019 61.1591 54.1875 61.1591C54.7822 61.1591 55.303 61.2784 55.75 61.517C56.197 61.7519 56.5436 62.1136 56.7898 62.6023C57.0398 63.0871 57.1648 63.7045 57.1648 64.4545V70H55.8239V64.5455C55.8239 63.8523 55.6439 63.3163 55.2841 62.9375C54.928 62.5549 54.4337 62.3636 53.8011 62.3636C53.3617 62.3636 52.9678 62.4564 52.6193 62.642C52.2746 62.8277 52.0019 63.0985 51.8011 63.4545C51.6042 63.8106 51.5057 64.2424 51.5057 64.75ZM63.277 70.1818C62.4361 70.1818 61.7107 69.9962 61.1009 69.625C60.4948 69.25 60.027 68.7273 59.6974 68.0568C59.3717 67.3826 59.2088 66.5985 59.2088 65.7045C59.2088 64.8106 59.3717 64.0227 59.6974 63.3409C60.027 62.6553 60.4853 62.1212 61.0724 61.7386C61.6634 61.3523 62.3527 61.1591 63.1406 61.1591C63.5952 61.1591 64.044 61.2348 64.4872 61.3864C64.9304 61.5379 65.3338 61.7841 65.6974 62.125C66.0611 62.4621 66.3509 62.9091 66.5668 63.4659C66.7827 64.0227 66.8906 64.7083 66.8906 65.5227V66.0909H60.1634V64.9318H65.527C65.527 64.4394 65.4285 64 65.2315 63.6136C65.0384 63.2273 64.7618 62.9223 64.402 62.6989C64.0459 62.4754 63.6255 62.3636 63.1406 62.3636C62.6065 62.3636 62.1444 62.4962 61.7543 62.7614C61.3679 63.0227 61.0705 63.3636 60.8622 63.7841C60.6539 64.2045 60.5497 64.6553 60.5497 65.1364V65.9091C60.5497 66.5682 60.6634 67.1269 60.8906 67.5852C61.1217 68.0398 61.4418 68.3864 61.8509 68.625C62.2599 68.8598 62.7353 68.9773 63.277 68.9773C63.6293 68.9773 63.9474 68.928 64.2315 68.8295C64.5194 68.7273 64.7675 68.5758 64.9759 68.375C65.1842 68.1705 65.3452 67.9167 65.4588 67.6136L66.7543 67.9773C66.6179 68.4167 66.3887 68.803 66.0668 69.1364C65.7448 69.4659 65.3471 69.7235 64.8736 69.9091C64.4001 70.0909 63.8679 70.1818 63.277 70.1818ZM72.4759 70.1818C71.6577 70.1818 70.9531 69.9886 70.3622 69.6023C69.7713 69.2159 69.3168 68.6837 68.9986 68.0057C68.6804 67.3277 68.5213 66.553 68.5213 65.6818C68.5213 64.7955 68.6842 64.0133 69.0099 63.3352C69.3395 62.6534 69.7978 62.1212 70.3849 61.7386C70.9759 61.3523 71.6652 61.1591 72.4531 61.1591C73.0668 61.1591 73.6198 61.2727 74.1122 61.5C74.6046 61.7273 75.008 62.0455 75.3224 62.4545C75.6368 62.8636 75.8319 63.3409 75.9077 63.8864H74.5668C74.4645 63.4886 74.2372 63.1364 73.8849 62.8295C73.5365 62.5189 73.0668 62.3636 72.4759 62.3636C71.9531 62.3636 71.4948 62.5 71.1009 62.7727C70.7107 63.0417 70.4058 63.4223 70.1861 63.9148C69.9702 64.4034 69.8622 64.9773 69.8622 65.6364C69.8622 66.3106 69.9683 66.8977 70.1804 67.3977C70.3963 67.8977 70.6993 68.286 71.0895 68.5625C71.4834 68.839 71.9455 68.9773 72.4759 68.9773C72.8243 68.9773 73.1406 68.9167 73.4247 68.7955C73.7088 68.6742 73.9493 68.5 74.1463 68.2727C74.3433 68.0455 74.4834 67.7727 74.5668 67.4545H75.9077C75.8319 67.9697 75.6444 68.4337 75.3452 68.8466C75.0497 69.2557 74.6577 69.5814 74.169 69.8239C73.6842 70.0625 73.1198 70.1818 72.4759 70.1818ZM79.1179 66.8182L79.0952 65.1591H79.3679L83.1861 61.2727H84.8452L80.777 65.3864H80.6634L79.1179 66.8182ZM77.8679 70V58.3636H79.2088V70H77.8679ZM83.4134 70L80.0043 65.6818L80.9588 64.75L85.1179 70H83.4134ZM86.7528 70V58.3636H88.0938V62.6591H88.2074C88.3059 62.5076 88.4422 62.3144 88.6165 62.0795C88.7945 61.8409 89.0483 61.6288 89.3778 61.4432C89.7112 61.2538 90.1619 61.1591 90.7301 61.1591C91.465 61.1591 92.1127 61.3428 92.6733 61.7102C93.2339 62.0777 93.6714 62.5985 93.9858 63.2727C94.3002 63.947 94.4574 64.7424 94.4574 65.6591C94.4574 66.5833 94.3002 67.3845 93.9858 68.0625C93.6714 68.7367 93.2358 69.2595 92.679 69.6307C92.1222 69.9981 91.4801 70.1818 90.7528 70.1818C90.1922 70.1818 89.7434 70.089 89.4062 69.9034C89.0691 69.714 88.8097 69.5 88.6278 69.2614C88.446 69.0189 88.3059 68.8182 88.2074 68.6591H88.0483V70H86.7528ZM88.071 65.6364C88.071 66.2955 88.1676 66.8769 88.3608 67.3807C88.554 67.8807 88.8362 68.2727 89.2074 68.5568C89.5786 68.8371 90.0331 68.9773 90.571 68.9773C91.1316 68.9773 91.5994 68.8295 91.9744 68.5341C92.3532 68.2348 92.6373 67.8333 92.8267 67.3295C93.0199 66.822 93.1165 66.2576 93.1165 65.6364C93.1165 65.0227 93.0218 64.4697 92.8324 63.9773C92.6468 63.4811 92.3646 63.089 91.9858 62.8011C91.6108 62.5095 91.1392 62.3636 90.571 62.3636C90.0256 62.3636 89.5672 62.5019 89.196 62.7784C88.8248 63.0511 88.5445 63.4337 88.3551 63.9261C88.1657 64.4148 88.071 64.9848 88.071 65.6364ZM100.054 70.1818C99.2661 70.1818 98.5748 69.9943 97.9801 69.6193C97.3892 69.2443 96.9271 68.7197 96.5938 68.0455C96.2642 67.3712 96.0994 66.5833 96.0994 65.6818C96.0994 64.7727 96.2642 63.9792 96.5938 63.3011C96.9271 62.6231 97.3892 62.0966 97.9801 61.7216C98.5748 61.3466 99.2661 61.1591 100.054 61.1591C100.842 61.1591 101.531 61.3466 102.122 61.7216C102.717 62.0966 103.179 62.6231 103.509 63.3011C103.842 63.9792 104.009 64.7727 104.009 65.6818C104.009 66.5833 103.842 67.3712 103.509 68.0455C103.179 68.7197 102.717 69.2443 102.122 69.6193C101.531 69.9943 100.842 70.1818 100.054 70.1818ZM100.054 68.9773C100.652 68.9773 101.145 68.8239 101.531 68.517C101.918 68.2102 102.204 67.8068 102.389 67.3068C102.575 66.8068 102.668 66.2652 102.668 65.6818C102.668 65.0985 102.575 64.5549 102.389 64.0511C102.204 63.5473 101.918 63.1402 101.531 62.8295C101.145 62.5189 100.652 62.3636 100.054 62.3636C99.4555 62.3636 98.9631 62.5189 98.5767 62.8295C98.1903 63.1402 97.9044 63.5473 97.7188 64.0511C97.5331 64.5549 97.4403 65.0985 97.4403 65.6818C97.4403 66.2652 97.5331 66.8068 97.7188 67.3068C97.9044 67.8068 98.1903 68.2102 98.5767 68.517C98.9631 68.8239 99.4555 68.9773 100.054 68.9773ZM106.696 61.2727L108.787 64.8409L110.878 61.2727H112.423L109.605 65.6364L112.423 70H110.878L108.787 66.6136L106.696 70H105.151L107.923 65.6364L105.151 61.2727H106.696Z" fill="#344054"/>
<path d="M24 92.5H40" stroke="#E8178A"/>
<rect x="14" y="97" width="36" height="18" rx="3" fill="#E8178A"/>
<path d="M23.7536 102.727V110H22.2159V104.187H22.1733L20.5078 105.231V103.867L22.3082 102.727H23.7536ZM28.2733 110.099C27.8992 110.097 27.5382 110.034 27.1902 109.911C26.8445 109.788 26.5344 109.588 26.2598 109.311C25.9851 109.034 25.7673 108.667 25.6064 108.21C25.4477 107.753 25.3684 107.192 25.3684 106.527C25.3708 105.916 25.4406 105.371 25.5779 104.89C25.7176 104.407 25.9165 103.997 26.1745 103.661C26.435 103.325 26.7463 103.069 27.1085 102.894C27.4707 102.717 27.8767 102.628 28.3265 102.628C28.8118 102.628 29.2404 102.723 29.612 102.912C29.9837 103.099 30.282 103.353 30.5069 103.675C30.7342 103.997 30.8715 104.358 30.9189 104.759H29.4025C29.3433 104.505 29.219 104.306 29.0297 104.162C28.8403 104.018 28.6059 103.945 28.3265 103.945C27.853 103.945 27.4932 104.151 27.247 104.563C27.0031 104.975 26.8788 105.535 26.8741 106.243H26.9238C27.0327 106.027 27.1795 105.844 27.3642 105.692C27.5512 105.539 27.7631 105.421 27.9998 105.341C28.2389 105.258 28.4911 105.217 28.7562 105.217C29.1871 105.217 29.5706 105.318 29.9068 105.522C30.243 105.723 30.5081 106 30.7022 106.353C30.8964 106.706 30.9934 107.109 30.9934 107.564C30.9934 108.056 30.8786 108.494 30.649 108.878C30.4217 109.261 30.1033 109.562 29.6937 109.78C29.2865 109.995 28.813 110.102 28.2733 110.099ZM28.2662 108.892C28.5029 108.892 28.7148 108.835 28.9018 108.722C29.0888 108.608 29.2356 108.454 29.3422 108.26C29.4487 108.066 29.502 107.848 29.502 107.607C29.502 107.365 29.4487 107.148 29.3422 106.957C29.238 106.765 29.0936 106.612 28.9089 106.499C28.7243 106.385 28.5136 106.328 28.2768 106.328C28.0993 106.328 27.9347 106.361 27.7832 106.428C27.6341 106.494 27.5027 106.586 27.389 106.705C27.2778 106.823 27.1902 106.96 27.1262 107.116C27.0623 107.27 27.0304 107.435 27.0304 107.61C27.0304 107.844 27.0836 108.059 27.1902 108.253C27.2991 108.447 27.4458 108.602 27.6305 108.718C27.8175 108.834 28.0294 108.892 28.2662 108.892ZM32.0978 112.045V104.545H33.5893V105.462H33.6568C33.7231 105.315 33.819 105.166 33.9444 105.014C34.0723 104.86 34.238 104.732 34.4416 104.631C34.6475 104.527 34.9032 104.474 35.2086 104.474C35.6064 104.474 35.9733 104.579 36.3095 104.787C36.6457 104.993 36.9144 105.304 37.1156 105.721C37.3168 106.135 37.4174 106.655 37.4174 107.28C37.4174 107.888 37.3192 108.402 37.1227 108.821C36.9286 109.238 36.6634 109.554 36.3272 109.769C35.9934 109.982 35.6194 110.089 35.2051 110.089C34.9115 110.089 34.6618 110.04 34.4558 109.943C34.2522 109.846 34.0853 109.724 33.9551 109.577C33.8249 109.428 33.7254 109.278 33.6568 109.126H33.6106V112.045H32.0978ZM33.5787 107.273C33.5787 107.597 33.6236 107.88 33.7136 108.121C33.8036 108.363 33.9338 108.551 34.1042 108.686C34.2747 108.819 34.4818 108.885 34.7257 108.885C34.9719 108.885 35.1802 108.817 35.3507 108.683C35.5211 108.545 35.6502 108.356 35.7377 108.114C35.8277 107.871 35.8727 107.59 35.8727 107.273C35.8727 106.958 35.8289 106.681 35.7413 106.442C35.6537 106.203 35.5247 106.016 35.3542 105.881C35.1838 105.746 34.9743 105.678 34.7257 105.678C34.4795 105.678 34.2711 105.743 34.1007 105.874C33.9326 106.004 33.8036 106.188 33.7136 106.428C33.6236 106.667 33.5787 106.948 33.5787 107.273ZM39.4949 104.545L40.4963 106.452L41.5225 104.545H43.0744L41.4941 107.273L43.117 110H41.5723L40.4963 108.114L39.438 110H37.8755L39.4949 107.273L37.9324 104.545H39.4949Z" fill="white"/>
<line x1="24.5" y1="96" x2="24.5" y2="89" stroke="#E8178A"/>
<line x1="39.5" y1="96" x2="39.5" y2="89" stroke="#E8178A"/>
<path d="M4.08452 23L0.338778 9.90909H3.36222L5.52912 19.005H5.63778L8.02841 9.90909H10.6172L13.0014 19.0241H13.1165L15.2834 9.90909H18.3068L14.5611 23H11.8636L9.37074 14.4411H9.26847L6.78196 23H4.08452ZM19.737 23V13.1818H22.46V23H19.737ZM21.1049 11.9162C20.7001 11.9162 20.3528 11.782 20.063 11.5135C19.7775 11.2408 19.6348 10.9148 19.6348 10.5355C19.6348 10.1605 19.7775 9.83878 20.063 9.57031C20.3528 9.29758 20.7001 9.16122 21.1049 9.16122C21.5098 9.16122 21.8549 9.29758 22.1404 9.57031C22.4302 9.83878 22.5751 10.1605 22.5751 10.5355C22.5751 10.9148 22.4302 11.2408 22.1404 11.5135C21.8549 11.782 21.5098 11.9162 21.1049 11.9162ZM29.8636 13.1818V15.2273H23.951V13.1818H29.8636ZM25.2933 10.8295H28.0163V19.983C28.0163 20.2344 28.0547 20.4304 28.1314 20.571C28.2081 20.7074 28.3146 20.8033 28.451 20.8587C28.5916 20.9141 28.7536 20.9418 28.9368 20.9418C29.0646 20.9418 29.1925 20.9311 29.3203 20.9098C29.4482 20.8842 29.5462 20.8651 29.6143 20.8523L30.0426 22.8786C29.9063 22.9212 29.7145 22.9702 29.4673 23.0256C29.2202 23.0852 28.9197 23.1214 28.5661 23.1342C27.9098 23.1598 27.3345 23.0724 26.8402 22.8722C26.3501 22.6719 25.9688 22.3608 25.696 21.9389C25.4233 21.517 25.2891 20.9844 25.2933 20.3409V10.8295ZM34.5714 17.3239V23H31.8484V9.90909H34.4947V14.9141H34.6097C34.8313 14.3345 35.1893 13.8807 35.6836 13.5526C36.1779 13.2202 36.7979 13.054 37.5437 13.054C38.2255 13.054 38.82 13.2031 39.3271 13.5014C39.8384 13.7955 40.2347 14.2195 40.516 14.7734C40.8015 15.3232 40.9421 15.9815 40.9379 16.7486V23H38.2148V17.2344C38.2191 16.6293 38.0657 16.1584 37.7546 15.8217C37.4478 15.4851 37.0174 15.3168 36.4634 15.3168C36.0927 15.3168 35.7646 15.3956 35.479 15.5533C35.1978 15.7109 34.9762 15.9411 34.8143 16.2436C34.6566 16.5419 34.5756 16.902 34.5714 17.3239ZM43.0808 23V13.1818H45.8038V23H43.0808ZM44.4487 11.9162C44.0439 11.9162 43.6966 11.782 43.4068 11.5135C43.1213 11.2408 42.9785 10.9148 42.9785 10.5355C42.9785 10.1605 43.1213 9.83878 43.4068 9.57031C43.6966 9.29758 44.0439 9.16122 44.4487 9.16122C44.8535 9.16122 45.1987 9.29758 45.4842 9.57031C45.774 9.83878 45.9189 10.1605 45.9189 10.5355C45.9189 10.9148 45.774 11.2408 45.4842 11.5135C45.1987 11.782 44.8535 11.9162 44.4487 11.9162ZM50.7081 17.3239V23H47.9851V13.1818H50.5803V14.9141H50.6953C50.9126 14.343 51.277 13.8913 51.7884 13.5589C52.2997 13.2223 52.9197 13.054 53.6484 13.054C54.3303 13.054 54.9247 13.2031 55.4318 13.5014C55.9389 13.7997 56.3331 14.2259 56.6143 14.7798C56.8956 15.3295 57.0362 15.9858 57.0362 16.7486V23H54.3132V17.2344C54.3175 16.6335 54.1641 16.1648 53.853 15.8281C53.5419 15.4872 53.1136 15.3168 52.5682 15.3168C52.2017 15.3168 51.8778 15.3956 51.5966 15.5533C51.3196 15.7109 51.1023 15.9411 50.9446 16.2436C50.7912 16.5419 50.7124 16.902 50.7081 17.3239ZM68.5707 13.1818V15.2273H62.658V13.1818H68.5707ZM64.0004 10.8295H66.7234V19.983C66.7234 20.2344 66.7617 20.4304 66.8384 20.571C66.9151 20.7074 67.0217 20.8033 67.158 20.8587C67.2987 20.9141 67.4606 20.9418 67.6438 20.9418C67.7717 20.9418 67.8995 20.9311 68.0273 20.9098C68.1552 20.8842 68.2532 20.8651 68.3214 20.8523L68.7496 22.8786C68.6133 22.9212 68.4215 22.9702 68.1744 23.0256C67.9272 23.0852 67.6268 23.1214 67.2731 23.1342C66.6168 23.1598 66.0415 23.0724 65.5472 22.8722C65.0572 22.6719 64.6758 22.3608 64.4031 21.9389C64.1303 21.517 63.9961 20.9844 64.0004 20.3409V10.8295ZM73.2784 17.3239V23H70.5554V9.90909H73.2017V14.9141H73.3168C73.5384 14.3345 73.8963 13.8807 74.3906 13.5526C74.8849 13.2202 75.505 13.054 76.2507 13.054C76.9325 13.054 77.527 13.2031 78.0341 13.5014C78.5455 13.7955 78.9418 14.2195 79.223 14.7734C79.5085 15.3232 79.6491 15.9815 79.6449 16.7486V23H76.9219V17.2344C76.9261 16.6293 76.7727 16.1584 76.4616 15.8217C76.1548 15.4851 75.7244 15.3168 75.1705 15.3168C74.7997 15.3168 74.4716 15.3956 74.1861 15.5533C73.9048 15.7109 73.6832 15.9411 73.5213 16.2436C73.3636 16.5419 73.2827 16.902 73.2784 17.3239ZM86.2623 23.1918C85.2523 23.1918 84.383 22.9872 83.6543 22.5781C82.9299 22.1648 82.3716 21.581 81.9796 20.8267C81.5875 20.0682 81.3915 19.1712 81.3915 18.1357C81.3915 17.1257 81.5875 16.2393 81.9796 15.4766C82.3716 14.7138 82.9235 14.1193 83.6351 13.6932C84.351 13.267 85.1905 13.054 86.1536 13.054C86.8013 13.054 87.4043 13.1584 87.9625 13.3672C88.525 13.5717 89.0151 13.8807 89.4327 14.294C89.8546 14.7074 90.1827 15.2273 90.4171 15.8537C90.6515 16.4759 90.7686 17.2045 90.7686 18.0398V18.7876H82.4782V17.1001H88.2054C88.2054 16.7081 88.1202 16.3608 87.9498 16.0582C87.7793 15.7557 87.5428 15.5192 87.2402 15.3487C86.9419 15.174 86.5946 15.0866 86.1983 15.0866C85.785 15.0866 85.4185 15.1825 85.0989 15.3743C84.7836 15.5618 84.5364 15.8153 84.3574 16.1349C84.1784 16.4503 84.0868 16.8018 84.0826 17.1896V18.794C84.0826 19.2798 84.1721 19.6996 84.351 20.0533C84.5343 20.407 84.7921 20.6797 85.1245 20.8714C85.4569 21.0632 85.851 21.1591 86.307 21.1591C86.6096 21.1591 86.8865 21.1165 87.138 21.0312C87.3894 20.946 87.6046 20.8182 87.7836 20.6477C87.9625 20.4773 88.0989 20.2685 88.1926 20.0213L90.7111 20.1875C90.5833 20.7926 90.3212 21.321 89.9249 21.7727C89.5328 22.2202 89.0257 22.5696 88.4036 22.821C87.7857 23.0682 87.0719 23.1918 86.2623 23.1918ZM101.148 23.1918C100.142 23.1918 99.277 22.9787 98.5526 22.5526C97.8324 22.1222 97.2784 21.5256 96.8906 20.7628C96.5071 20 96.3153 19.1222 96.3153 18.1293C96.3153 17.1236 96.5092 16.2415 96.897 15.483C97.2891 14.7202 97.8452 14.1257 98.5653 13.6996C99.2855 13.2692 100.142 13.054 101.135 13.054C101.991 13.054 102.741 13.2095 103.385 13.5206C104.028 13.8317 104.538 14.2685 104.913 14.831C105.288 15.3935 105.494 16.054 105.533 16.8125H102.963C102.891 16.3224 102.699 15.9283 102.388 15.63C102.081 15.3274 101.678 15.1761 101.18 15.1761C100.758 15.1761 100.389 15.2912 100.074 15.5213C99.7628 15.7472 99.5199 16.0774 99.3452 16.5121C99.1705 16.9467 99.0831 17.473 99.0831 18.0909C99.0831 18.7173 99.1683 19.25 99.3388 19.6889C99.5135 20.1278 99.7585 20.4624 100.074 20.6925C100.389 20.9226 100.758 21.0376 101.18 21.0376C101.491 21.0376 101.77 20.9737 102.017 20.8459C102.268 20.718 102.475 20.5327 102.637 20.2898C102.803 20.0426 102.912 19.7464 102.963 19.4013H105.533C105.49 20.1513 105.286 20.8118 104.919 21.3828C104.557 21.9496 104.056 22.3928 103.417 22.7124C102.778 23.032 102.021 23.1918 101.148 23.1918ZM109.999 17.3239V23H107.276V9.90909H109.922V14.9141H110.037C110.259 14.3345 110.617 13.8807 111.111 13.5526C111.606 13.2202 112.226 13.054 112.971 13.054C113.653 13.054 114.248 13.2031 114.755 13.5014C115.266 13.7955 115.662 14.2195 115.944 14.7734C116.229 15.3232 116.37 15.9815 116.366 16.7486V23H113.643V17.2344C113.647 16.6293 113.493 16.1584 113.182 15.8217C112.876 15.4851 112.445 15.3168 111.891 15.3168C111.52 15.3168 111.192 15.3956 110.907 15.5533C110.626 15.7109 110.404 15.9411 110.242 16.2436C110.084 16.5419 110.003 16.902 109.999 17.3239ZM122.983 23.1918C121.973 23.1918 121.104 22.9872 120.375 22.5781C119.651 22.1648 119.092 21.581 118.7 20.8267C118.308 20.0682 118.112 19.1712 118.112 18.1357C118.112 17.1257 118.308 16.2393 118.7 15.4766C119.092 14.7138 119.644 14.1193 120.356 13.6932C121.072 13.267 121.911 13.054 122.874 13.054C123.522 13.054 124.125 13.1584 124.683 13.3672C125.246 13.5717 125.736 13.8807 126.153 14.294C126.575 14.7074 126.903 15.2273 127.138 15.8537C127.372 16.4759 127.489 17.2045 127.489 18.0398V18.7876H119.199V17.1001H124.926C124.926 16.7081 124.841 16.3608 124.67 16.0582C124.5 15.7557 124.263 15.5192 123.961 15.3487C123.663 15.174 123.315 15.0866 122.919 15.0866C122.506 15.0866 122.139 15.1825 121.82 15.3743C121.504 15.5618 121.257 15.8153 121.078 16.1349C120.899 16.4503 120.808 16.8018 120.803 17.1896V18.794C120.803 19.2798 120.893 19.6996 121.072 20.0533C121.255 20.407 121.513 20.6797 121.845 20.8714C122.178 21.0632 122.572 21.1591 123.028 21.1591C123.33 21.1591 123.607 21.1165 123.859 21.0312C124.11 20.946 124.325 20.8182 124.504 20.6477C124.683 20.4773 124.82 20.2685 124.913 20.0213L127.432 20.1875C127.304 20.7926 127.042 21.321 126.646 21.7727C126.254 22.2202 125.746 22.5696 125.124 22.821C124.506 23.0682 123.793 23.1918 122.983 23.1918ZM133.702 23.1918C132.697 23.1918 131.832 22.9787 131.107 22.5526C130.387 22.1222 129.833 21.5256 129.445 20.7628C129.062 20 128.87 19.1222 128.87 18.1293C128.87 17.1236 129.064 16.2415 129.452 15.483C129.844 14.7202 130.4 14.1257 131.12 13.6996C131.84 13.2692 132.697 13.054 133.69 13.054C134.546 13.054 135.296 13.2095 135.94 13.5206C136.583 13.8317 137.092 14.2685 137.467 14.831C137.842 15.3935 138.049 16.054 138.087 16.8125H135.518C135.445 16.3224 135.254 15.9283 134.942 15.63C134.636 15.3274 134.233 15.1761 133.734 15.1761C133.312 15.1761 132.944 15.2912 132.629 15.5213C132.317 15.7472 132.075 16.0774 131.9 16.5121C131.725 16.9467 131.638 17.473 131.638 18.0909C131.638 18.7173 131.723 19.25 131.893 19.6889C132.068 20.1278 132.313 20.4624 132.629 20.6925C132.944 20.9226 133.312 21.0376 133.734 21.0376C134.045 21.0376 134.325 20.9737 134.572 20.8459C134.823 20.718 135.03 20.5327 135.192 20.2898C135.358 20.0426 135.467 19.7464 135.518 19.4013H138.087C138.045 20.1513 137.84 20.8118 137.474 21.3828C137.112 21.9496 136.611 22.3928 135.972 22.7124C135.332 23.032 134.576 23.1918 133.702 23.1918ZM142.298 20.1747L142.305 16.9084H142.701L145.846 13.1818H148.971L144.746 18.1165H144.101L142.298 20.1747ZM139.831 23V9.90909H142.554V23H139.831ZM145.967 23L143.078 18.7237L144.893 16.7997L149.157 23H145.967ZM150.358 23V9.90909H153.081V14.831H153.165C153.284 14.5668 153.456 14.2983 153.682 14.0256C153.912 13.7486 154.211 13.5185 154.577 13.3352C154.948 13.1477 155.408 13.054 155.958 13.054C156.674 13.054 157.334 13.2415 157.939 13.6165C158.545 13.9872 159.028 14.5476 159.39 15.2976C159.753 16.0433 159.934 16.9787 159.934 18.1037C159.934 19.1989 159.757 20.1236 159.403 20.8778C159.054 21.6278 158.577 22.1967 157.971 22.5845C157.371 22.968 156.697 23.1598 155.952 23.1598C155.423 23.1598 154.974 23.0724 154.603 22.8977C154.236 22.723 153.936 22.5036 153.702 22.2393C153.467 21.9709 153.288 21.7003 153.165 21.4276H153.043V23H150.358ZM153.024 18.0909C153.024 18.6747 153.105 19.1839 153.267 19.6186C153.429 20.0533 153.663 20.392 153.97 20.6349C154.277 20.8736 154.65 20.9929 155.089 20.9929C155.532 20.9929 155.907 20.8714 156.214 20.6286C156.52 20.3814 156.753 20.0405 156.91 19.6058C157.072 19.1669 157.153 18.6619 157.153 18.0909C157.153 17.5241 157.074 17.0256 156.917 16.5952C156.759 16.1648 156.527 15.8281 156.22 15.5852C155.913 15.3423 155.536 15.2209 155.089 15.2209C154.645 15.2209 154.27 15.3381 153.964 15.5724C153.661 15.8068 153.429 16.1392 153.267 16.5696C153.105 17 153.024 17.5071 153.024 18.0909ZM166.187 23.1918C165.194 23.1918 164.335 22.9808 163.611 22.5589C162.891 22.1328 162.335 21.5405 161.942 20.782C161.55 20.0192 161.354 19.1349 161.354 18.1293C161.354 17.1151 161.55 16.2287 161.942 15.4702C162.335 14.7074 162.891 14.1151 163.611 13.6932C164.335 13.267 165.194 13.054 166.187 13.054C167.18 13.054 168.036 13.267 168.756 13.6932C169.481 14.1151 170.039 14.7074 170.431 15.4702C170.823 16.2287 171.019 17.1151 171.019 18.1293C171.019 19.1349 170.823 20.0192 170.431 20.782C170.039 21.5405 169.481 22.1328 168.756 22.5589C168.036 22.9808 167.18 23.1918 166.187 23.1918ZM166.2 21.0824C166.651 21.0824 167.028 20.9545 167.331 20.6989C167.634 20.4389 167.862 20.0852 168.015 19.6378C168.173 19.1903 168.251 18.6811 168.251 18.1101C168.251 17.5391 168.173 17.0298 168.015 16.5824C167.862 16.1349 167.634 15.7812 167.331 15.5213C167.028 15.2614 166.651 15.1314 166.2 15.1314C165.744 15.1314 165.36 15.2614 165.049 15.5213C164.742 15.7812 164.51 16.1349 164.352 16.5824C164.199 17.0298 164.122 17.5391 164.122 18.1101C164.122 18.6811 164.199 19.1903 164.352 19.6378C164.51 20.0852 164.742 20.4389 165.049 20.6989C165.36 20.9545 165.744 21.0824 166.2 21.0824ZM174.714 13.1818L176.516 16.6143L178.364 13.1818H181.157L178.312 18.0909L181.234 23H178.453L176.516 19.6058L174.612 23H171.799L174.714 18.0909L171.901 13.1818H174.714Z" fill="#344054"/>
</svg>
