<svg width="453" height="175" viewBox="0 0 453 175" fill="none" xmlns="http://www.w3.org/2000/svg"><path d="M0 49a4 4 0 0 1 4-4h445a4 4 0 0 1 4 4v56a4 4 0 0 1-4 4H4a4 4 0 0 1-4-4V49Z" fill="#E2EFF8"/><path d="M40 87.5a10.5 10.5 0 1 1 0-21 10.5 10.5 0 0 1 0 21Zm0 1.5a12 12 0 1 0 0-24 12 12 0 0 0 0 24Z" fill="#0F71BB"/><path d="M38.503 81.5a1.5 1.5 0 1 1 3 0 1.5 1.5 0 0 1-3 0Zm.147-9.007a1.36 1.36 0 0 1 1.35-1.5 1.358 1.358 0 0 1 1.291.938c.059.181.079.372.059.562l-.525 5.26a.828.828 0 0 1-1.65 0l-.525-5.26Z" fill="#0F71BB"/><path d="M73.886 83H72.41l4.273-11.636h1.454L82.41 83h-1.477l-3.478-9.796h-.09L73.886 83Zm.546-4.546h5.954v1.25h-5.954v-1.25Zm20.29-2.227-1.205.341a2.234 2.234 0 0 0-.335-.585 1.626 1.626 0 0 0-.591-.477c-.25-.125-.57-.188-.96-.188-.534 0-.98.123-1.335.37-.353.242-.529.55-.529.926 0 .333.121.596.364.79.242.193.62.354 1.136.482l1.296.319c.78.189 1.361.479 1.744.869.382.386.574.884.574 1.494 0 .5-.144.947-.432 1.341-.284.394-.682.705-1.193.932-.512.227-1.106.34-1.784.34-.89 0-1.627-.192-2.21-.579-.584-.386-.953-.95-1.109-1.693l1.273-.318c.121.47.35.822.688 1.057.34.235.786.352 1.335.352.625 0 1.121-.133 1.489-.398.37-.269.556-.59.556-.966 0-.303-.106-.556-.318-.761-.212-.208-.538-.364-.977-.466l-1.455-.34c-.799-.19-1.386-.484-1.761-.882-.371-.401-.557-.903-.557-1.505 0-.493.138-.928.415-1.307.28-.379.66-.676 1.142-.892.485-.216 1.034-.324 1.648-.324.863 0 1.541.19 2.034.568.496.38.848.88 1.057 1.5Zm4.745 6.977a3.546 3.546 0 0 1-1.505-.312 2.584 2.584 0 0 1-1.074-.915c-.265-.401-.398-.886-.398-1.454 0-.5.099-.906.296-1.216.197-.315.46-.56.79-.739a4.15 4.15 0 0 1 1.09-.397c.402-.092.805-.163 1.21-.217.531-.068.961-.119 1.29-.153.334-.038.576-.1.727-.187.156-.088.233-.239.233-.455v-.045c0-.561-.153-.997-.46-1.307-.303-.31-.763-.466-1.38-.466-.64 0-1.142.14-1.506.42-.364.28-.62.58-.767.898l-1.273-.455c.227-.53.53-.943.91-1.238.382-.3.798-.508 1.25-.625a5.191 5.191 0 0 1 1.34-.182c.28 0 .602.034.966.102.367.065.722.2 1.062.404.345.204.631.513.858.926.228.413.341.966.341 1.659V83h-1.341v-1.182h-.068c-.091.19-.242.392-.454.608-.212.216-.495.4-.847.551-.352.152-.782.227-1.29.227ZM99.672 82c.53 0 .977-.104 1.341-.313a2.124 2.124 0 0 0 1.113-1.846v-1.227c-.056.068-.181.13-.375.187a6.29 6.29 0 0 1-.659.142 29.56 29.56 0 0 1-1.284.17 5.19 5.19 0 0 0-.977.222 1.67 1.67 0 0 0-.727.45c-.182.196-.273.465-.273.806 0 .466.172.818.517 1.057.349.235.79.352 1.324.352Zm6.243 1v-8.727h1.295v1.363h.114c.182-.465.475-.827.881-1.085.405-.261.892-.392 1.46-.392.576 0 1.055.13 1.437.392.387.258.688.62.904 1.085h.091c.223-.45.558-.808 1.005-1.073.447-.27.983-.404 1.608-.404.781 0 1.419.244 1.915.733.496.485.744 1.24.744 2.267V83h-1.341v-5.84c0-.645-.176-1.105-.528-1.382a1.955 1.955 0 0 0-1.244-.414c-.614 0-1.089.185-1.426.556-.338.368-.506.834-.506 1.398V83h-1.364v-5.977c0-.496-.161-.896-.483-1.2-.322-.306-.736-.46-1.244-.46-.349 0-.674.093-.977.279-.3.186-.542.443-.728.773a2.29 2.29 0 0 0-.272 1.13V83h-1.341Zm13.906 3.273v-12h1.295v1.386h.16c.098-.151.234-.345.409-.58.178-.238.431-.45.761-.636.333-.19.784-.284 1.352-.284.735 0 1.383.184 1.943.551.561.368.999.889 1.313 1.563.314.674.472 1.47.472 2.386 0 .924-.158 1.725-.472 2.403-.314.675-.75 1.198-1.307 1.569-.557.367-1.199.55-1.926.55-.561 0-1.009-.092-1.347-.278-.337-.189-.596-.403-.778-.642a8.362 8.362 0 0 1-.42-.602h-.114v4.614h-1.341Zm1.318-7.637c0 .66.097 1.24.29 1.745.193.5.475.892.847 1.176.371.28.825.42 1.363.42.561 0 1.029-.148 1.404-.443.378-.3.662-.7.852-1.205a4.73 4.73 0 0 0 .29-1.693 4.6 4.6 0 0 0-.284-1.659c-.186-.496-.468-.888-.847-1.176-.375-.291-.847-.437-1.415-.437-.545 0-1.004.138-1.375.414-.371.273-.651.656-.841 1.148-.189.489-.284 1.059-.284 1.71Zm9.773-7.272V83h-1.341V71.364h1.341Zm6.115 11.818c-.841 0-1.566-.186-2.176-.557a3.742 3.742 0 0 1-1.404-1.568c-.325-.674-.488-1.459-.488-2.353 0-.893.163-1.681.488-2.363.33-.686.788-1.22 1.375-1.602.591-.387 1.281-.58 2.069-.58.454 0 .903.076 1.346.227.443.152.847.398 1.21.739.364.337.654.784.87 1.34.216.558.324 1.243.324 2.058v.568h-6.728v-1.16h5.364c0-.492-.098-.931-.295-1.317a2.232 2.232 0 0 0-.83-.915c-.356-.224-.777-.335-1.261-.335-.534 0-.997.132-1.387.397a2.623 2.623 0 0 0-.892 1.023c-.208.42-.312.871-.312 1.352v.773c0 .66.113 1.218.341 1.676.231.455.551.801.96 1.04.409.235.884.352 1.426.352.352 0 .67-.049.955-.148.287-.102.536-.253.744-.454.208-.204.369-.458.483-.761l1.295.363a2.87 2.87 0 0 1-.687 1.16c-.322.329-.72.587-1.193.772a4.43 4.43 0 0 1-1.597.273Zm10.153 3.09v-12h1.296v1.387h.159c.098-.151.235-.345.409-.58.178-.238.432-.45.761-.636.334-.19.784-.284 1.353-.284.735 0 1.382.184 1.943.551.56.368.998.889 1.312 1.563.315.674.472 1.47.472 2.386 0 .924-.157 1.725-.472 2.403-.314.675-.75 1.198-1.306 1.569-.557.367-1.199.55-1.927.55-.56 0-1.009-.092-1.346-.278-.337-.189-.597-.403-.779-.642a8.7 8.7 0 0 1-.42-.602h-.114v4.614h-1.341Zm1.319-7.636c0 .66.096 1.24.289 1.745.194.5.476.892.847 1.176.371.28.826.42 1.364.42.56 0 1.028-.148 1.403-.443.379-.3.663-.7.852-1.205a4.73 4.73 0 0 0 .29-1.693 4.6 4.6 0 0 0-.284-1.659c-.186-.496-.468-.888-.847-1.176-.375-.291-.846-.437-1.414-.437-.546 0-1.004.138-1.375.414-.372.273-.652.656-.841 1.148-.19.489-.284 1.059-.284 1.71ZM156.93 83v-8.727h1.296v1.318h.091c.159-.432.447-.782.863-1.051a2.544 2.544 0 0 1 1.409-.404c.099 0 .222.002.37.006s.259.01.335.017v1.364a4.014 4.014 0 0 0-.312-.051 3.09 3.09 0 0 0-.506-.04 2.38 2.38 0 0 0-1.137.267c-.329.174-.59.416-.784.727a1.964 1.964 0 0 0-.284 1.051V83h-1.341Zm5.954 0v-8.727h1.34V83h-1.34Zm.681-10.182a.954.954 0 0 1-.676-.267.86.86 0 0 1-.278-.642.86.86 0 0 1 .278-.642.955.955 0 0 1 .676-.267c.262 0 .485.089.671.267a.851.851 0 0 1 .284.642c0 .25-.095.464-.284.642a.934.934 0 0 1-.671.267ZM166.68 83v-8.727h1.296v1.363h.113c.182-.465.476-.827.881-1.085.405-.261.892-.392 1.46-.392.576 0 1.055.13 1.438.392.386.258.687.62.903 1.085h.091c.224-.45.559-.808 1.006-1.073.447-.27.983-.404 1.608-.404.78 0 1.418.244 1.915.733.496.485.744 1.24.744 2.267V83h-1.341v-5.84c0-.645-.176-1.105-.528-1.382a1.958 1.958 0 0 0-1.245-.414c-.613 0-1.089.185-1.426.556-.337.368-.506.834-.506 1.398V83h-1.363v-5.977c0-.496-.161-.896-.483-1.2-.322-.306-.737-.46-1.244-.46a1.84 1.84 0 0 0-.978.279 2.107 2.107 0 0 0-.727.773 2.28 2.28 0 0 0-.273 1.13V83h-1.341Zm16.475.204a3.548 3.548 0 0 1-1.506-.312 2.582 2.582 0 0 1-1.074-.915c-.265-.401-.397-.886-.397-1.454 0-.5.098-.906.295-1.216.197-.315.46-.56.79-.739a4.14 4.14 0 0 1 1.091-.397c.401-.092.805-.163 1.21-.217.53-.068.96-.119 1.29-.153.333-.038.575-.1.727-.187.155-.088.233-.239.233-.455v-.045c0-.561-.153-.997-.46-1.307-.303-.31-.764-.466-1.381-.466-.64 0-1.142.14-1.506.42-.363.28-.619.58-.767.898l-1.272-.455c.227-.53.53-.943.909-1.238.382-.3.799-.508 1.25-.625a5.184 5.184 0 0 1 1.341-.182c.28 0 .602.034.965.102.368.065.722.2 1.063.404.345.204.631.513.858.926.227.413.341.966.341 1.659V83h-1.341v-1.182h-.068a2.36 2.36 0 0 1-.455.608c-.212.216-.494.4-.846.551-.353.152-.783.227-1.29.227Zm.204-1.204c.531 0 .978-.104 1.341-.313a2.128 2.128 0 0 0 1.114-1.846v-1.227c-.057.068-.182.13-.375.187a6.29 6.29 0 0 1-.659.142 29.629 29.629 0 0 1-1.284.17 5.13 5.13 0 0 0-.978.222 1.687 1.687 0 0 0-.727.45c-.182.196-.273.465-.273.806 0 .466.173.818.518 1.057.348.235.789.352 1.323.352Zm6.243 1v-8.727h1.296v1.318h.091c.159-.432.447-.782.863-1.051a2.544 2.544 0 0 1 1.409-.404c.099 0 .222.002.37.006.147.004.259.01.335.017v1.364a4.073 4.073 0 0 0-.313-.051 3.068 3.068 0 0 0-.505-.04c-.425 0-.803.089-1.137.267a2.016 2.016 0 0 0-.784.727 1.964 1.964 0 0 0-.284 1.051V83h-1.341Zm7.083 3.273c-.228 0-.43-.02-.608-.057a1.626 1.626 0 0 1-.37-.102l.341-1.182c.326.083.614.114.864.09a1.03 1.03 0 0 0 .665-.335c.197-.197.377-.516.539-.96l.25-.681-3.227-8.773h1.455l2.409 6.954h.091l2.409-6.954h1.454l-3.704 10c-.167.45-.373.824-.619 1.119-.247.3-.533.52-.858.665a2.646 2.646 0 0 1-1.091.216Zm15.11-3.069a3.543 3.543 0 0 1-1.505-.312 2.582 2.582 0 0 1-1.074-.915c-.265-.401-.398-.886-.398-1.454 0-.5.099-.906.296-1.216.197-.315.46-.56.789-.739.33-.178.694-.31 1.091-.397.402-.092.805-.163 1.211-.217.53-.068.96-.119 1.289-.153.334-.038.576-.1.728-.187.155-.088.233-.239.233-.455v-.045c0-.561-.154-.997-.461-1.307-.303-.31-.763-.466-1.38-.466-.641 0-1.142.14-1.506.42-.364.28-.619.58-.767.898l-1.273-.455c.227-.53.53-.943.909-1.238.383-.3.8-.508 1.25-.625a5.196 5.196 0 0 1 1.341-.182c.28 0 .602.034.966.102.368.065.722.2 1.063.404.344.204.63.513.858.926.227.413.34.966.34 1.659V83h-1.34v-1.182h-.069c-.091.19-.242.392-.454.608-.212.216-.494.4-.847.551-.352.152-.782.227-1.29.227ZM212 82c.53 0 .977-.104 1.341-.313.367-.208.644-.477.829-.806.19-.33.285-.677.285-1.04v-1.227c-.057.068-.182.13-.375.187-.19.053-.41.1-.66.142a29.56 29.56 0 0 1-1.284.17 5.19 5.19 0 0 0-.977.222 1.681 1.681 0 0 0-.727.45c-.182.196-.273.465-.273.806 0 .466.172.818.517 1.057.349.235.79.352 1.324.352Zm7.584-10.636V83h-1.341V71.364h1.341Zm6.115 11.818c-.841 0-1.566-.186-2.176-.557a3.742 3.742 0 0 1-1.404-1.568c-.325-.674-.488-1.459-.488-2.353 0-.893.163-1.681.488-2.363.33-.686.788-1.22 1.375-1.602.591-.387 1.281-.58 2.068-.58.455 0 .904.076 1.347.227.443.152.847.398 1.21.739.364.337.654.784.87 1.34.216.558.323 1.243.323 2.058v.568h-6.727v-1.16h5.364c0-.492-.099-.931-.296-1.317a2.223 2.223 0 0 0-.829-.915c-.356-.224-.777-.335-1.262-.335-.534 0-.996.132-1.386.397a2.615 2.615 0 0 0-.892 1.023c-.208.42-.312.871-.312 1.352v.773c0 .66.113 1.218.34 1.676.232.455.552.801.961 1.04.409.235.884.352 1.426.352.352 0 .67-.049.954-.148.288-.102.536-.253.745-.454.208-.204.369-.458.483-.761l1.295.363a2.87 2.87 0 0 1-.687 1.16 3.35 3.35 0 0 1-1.194.772 4.42 4.42 0 0 1-1.596.273Zm5.653-.182v-8.727h1.296v1.318h.091c.159-.432.447-.782.863-1.051a2.544 2.544 0 0 1 1.409-.404c.099 0 .222.002.37.006.147.004.259.01.335.017v1.364a4.073 4.073 0 0 0-.313-.051 3.068 3.068 0 0 0-.505-.04c-.425 0-.803.089-1.137.267a2.016 2.016 0 0 0-.784.727 1.964 1.964 0 0 0-.284 1.051V83h-1.341Zm10.296-8.727v1.136h-4.523v-1.136h4.523Zm-3.205-2.091h1.341V80.5c0 .379.055.663.165.852.114.186.257.31.432.375.178.06.365.091.562.091.148 0 .269-.007.364-.022l.227-.046.273 1.204a2.733 2.733 0 0 1-.381.103 2.8 2.8 0 0 1-.619.057 2.7 2.7 0 0 1-1.114-.245 2.215 2.215 0 0 1-.898-.744c-.234-.333-.352-.754-.352-1.261v-8.682Z" fill="#344054"/><path fill-rule="evenodd" clip-rule="evenodd" d="M410.614 70.614a.75.75 0 0 1 1.061 0l5.303 5.303 5.303-5.303a.752.752 0 0 1 1.281.53c0 .2-.079.39-.22.53l-5.303 5.304 5.303 5.303a.75.75 0 1 1-1.061 1.06l-5.303-5.302-5.303 5.303a.752.752 0 0 1-1.281-.53.75.75 0 0 1 .22-.53l5.303-5.304-5.303-5.303a.749.749 0 0 1 0-1.061Z" fill="#344054"/><path d="M4 46h445v-2H4v2Zm448 3v56h2V49h-2Zm-3 59H4v2h445v-2ZM1 105V49h-2v56h2Zm3 3a3 3 0 0 1-3-3h-2a5 5 0 0 0 5 5v-2Zm448-3a3 3 0 0 1-3 3v2a5 5 0 0 0 5-5h-2Zm-3-59a3 3 0 0 1 3 3h2a5 5 0 0 0-5-5v2ZM4 44a5 5 0 0 0-5 5h2a3 3 0 0 1 3-3v-2Z" fill="#58A1D4"/><circle cx="417" cy="159" r="12" fill="#344054"/><path d="M417.244 165.159c-.848 0-1.604-.146-2.267-.437-.659-.296-1.18-.701-1.562-1.216a3.054 3.054 0 0 1-.585-1.796h2.477c.015.284.108.534.278.75.174.212.406.377.693.495.288.117.612.176.972.176.375 0 .706-.067.994-.199.288-.133.514-.316.676-.551.163-.235.245-.506.245-.813 0-.31-.087-.585-.262-.824a1.666 1.666 0 0 0-.738-.568c-.318-.136-.697-.204-1.137-.204h-1.085v-1.807h1.085c.372 0 .699-.065.983-.193.288-.129.512-.307.671-.534.159-.232.238-.5.238-.807 0-.292-.07-.548-.21-.767a1.382 1.382 0 0 0-.579-.523 1.887 1.887 0 0 0-.864-.188c-.333 0-.638.061-.915.182a1.599 1.599 0 0 0-.664.506c-.167.22-.256.477-.268.773h-2.358c.012-.671.203-1.262.574-1.773.372-.511.872-.911 1.5-1.199.633-.292 1.347-.437 2.142-.437.803 0 1.506.145 2.108.437.603.292 1.07.686 1.404 1.182.337.492.504 1.045.5 1.659.004.651-.199 1.195-.608 1.631-.405.435-.934.712-1.585.829v.091c.856.11 1.507.407 1.954.892.451.481.674 1.083.671 1.807a2.846 2.846 0 0 1-.574 1.767c-.383.515-.911.92-1.586 1.216-.674.295-1.446.443-2.318.443Z" fill="#fff"/><path d="M417 148V84" stroke="#344054" stroke-dasharray="2 2"/><circle cx="326" cy="159" r="12" fill="#344054"/><path d="M320.767 162.955v-1.938l4.858-7.653h1.67v2.681h-.988l-3.063 4.847v.091h6.904v1.972h-9.381Zm5.585 2.045v-2.636l.046-.858v-8.142h2.307V165h-2.353Z" fill="#fff"/><path d="M326 148v-39" stroke="#344054" stroke-dasharray="2 2"/><circle cx="83" cy="15" r="12" fill="#344054"/><path d="M85.006 10.364V22h-2.46v-9.301h-.069l-2.665 1.67v-2.181l2.881-1.824h2.313Z" fill="#fff"/><circle cx="28" cy="159" r="12" fill="#344054"/><path d="M23.943 165v-1.773l4.142-3.835c.352-.341.648-.648.887-.92.242-.273.426-.54.55-.802.126-.265.188-.551.188-.858 0-.34-.077-.634-.233-.88a1.533 1.533 0 0 0-.636-.574 2 2 0 0 0-.915-.205c-.356 0-.666.072-.932.216a1.49 1.49 0 0 0-.613.62c-.144.269-.216.589-.216.96H23.83c0-.762.172-1.422.517-1.983a3.45 3.45 0 0 1 1.448-1.301c.622-.307 1.338-.46 2.148-.46.833 0 1.559.147 2.176.443.622.291 1.105.697 1.45 1.216.344.519.516 1.113.516 1.784 0 .439-.087.873-.261 1.301-.17.428-.476.903-.915 1.426-.44.519-1.059 1.142-1.858 1.869l-1.699 1.665v.08h4.887V165h-8.296Z" fill="#fff"/><path d="M80 15H36v50m5 94h73V93" stroke="#344054" stroke-dasharray="2 2"/></svg>