<svg width="510" height="94" viewBox="0 0 510 94" fill="none" xmlns="http://www.w3.org/2000/svg"><path d="M6.5 4a4 4 0 0 1 4-4h445a4 4 0 0 1 4 4v56a4 4 0 0 1-4 4h-445a4 4 0 0 1-4-4V4Z" fill="#E2EFF8"/><path d="M46.5 42.5a10.5 10.5 0 1 1 0-21 10.5 10.5 0 0 1 0 21Zm0 1.5a12 12 0 1 0 0-24 12 12 0 0 0 0 24Z" fill="#0F71BB"/><path d="M45.003 36.5a1.5 1.5 0 1 1 3 0 1.5 1.5 0 0 1-3 0Zm.147-9.007a1.36 1.36 0 0 1 1.35-1.5 1.358 1.358 0 0 1 1.35 1.5l-.525 5.26a.828.828 0 0 1-1.65 0l-.525-5.26Z" fill="#0F71BB"/><path d="M80.386 38H78.91l4.273-11.636h1.454L88.91 38h-1.477l-3.478-9.796h-.09L80.386 38Zm.546-4.545h5.954v1.25h-5.954v-1.25Zm20.29-2.228-1.205.341a2.234 2.234 0 0 0-.335-.585 1.626 1.626 0 0 0-.591-.477c-.25-.125-.57-.188-.96-.188-.534 0-.98.123-1.335.37-.353.242-.529.55-.529.926 0 .333.121.596.364.79.242.193.62.354 1.136.482l1.296.319c.78.189 1.361.479 1.744.869.382.386.574.884.574 1.494 0 .5-.144.947-.432 1.341-.284.394-.682.705-1.193.932-.512.227-1.106.34-1.784.34-.89 0-1.627-.192-2.21-.579-.584-.386-.953-.95-1.109-1.693l1.273-.318c.121.47.35.822.688 1.057.34.235.786.352 1.335.352.625 0 1.121-.133 1.489-.398.37-.269.556-.59.556-.966 0-.303-.106-.556-.318-.761-.212-.208-.538-.364-.977-.466l-1.455-.34c-.799-.19-1.386-.484-1.761-.882-.371-.401-.557-.903-.557-1.505 0-.493.138-.928.415-1.307.28-.379.66-.676 1.142-.892.485-.216 1.034-.324 1.648-.324.863 0 1.541.19 2.034.568.496.38.848.88 1.057 1.5Zm4.745 6.978a3.54 3.54 0 0 1-1.505-.313 2.582 2.582 0 0 1-1.074-.915c-.265-.401-.398-.886-.398-1.454 0-.5.099-.906.296-1.216.196-.315.46-.56.789-.739.33-.178.693-.31 1.091-.398.402-.09.805-.162 1.21-.215.531-.069.961-.12 1.29-.154.334-.038.576-.1.727-.187.156-.087.233-.239.233-.455v-.045c0-.561-.153-.997-.46-1.307-.303-.31-.763-.466-1.38-.466-.641 0-1.143.14-1.506.42-.364.28-.619.58-.767.898l-1.273-.454c.227-.53.53-.944.909-1.24a3.419 3.419 0 0 1 1.25-.624 5.196 5.196 0 0 1 1.341-.182c.28 0 .602.034.966.102.367.065.722.2 1.062.404.345.204.631.513.858.926.228.413.341.966.341 1.659V38h-1.341v-1.182h-.068c-.091.19-.242.392-.454.608-.212.216-.495.4-.847.551-.352.152-.782.228-1.29.228Zm.205-1.205c.53 0 .977-.104 1.341-.313a2.124 2.124 0 0 0 1.113-1.846v-1.227c-.056.068-.181.13-.375.187a6.29 6.29 0 0 1-.659.142 29.56 29.56 0 0 1-1.284.17 5.19 5.19 0 0 0-.977.222 1.681 1.681 0 0 0-.727.45c-.182.196-.273.465-.273.806 0 .466.172.818.517 1.057.348.235.79.352 1.324.352Zm6.243 1v-8.727h1.295v1.363h.114c.182-.465.475-.827.881-1.085.405-.261.892-.392 1.46-.392.576 0 1.055.13 1.437.392.387.258.688.62.904 1.085h.091c.223-.45.558-.808 1.005-1.073.447-.27.983-.404 1.608-.404.781 0 1.419.244 1.915.733.496.485.744 1.24.744 2.267V38h-1.341v-5.84c0-.645-.176-1.105-.528-1.382a1.955 1.955 0 0 0-1.244-.414c-.614 0-1.089.185-1.426.556-.338.368-.506.834-.506 1.398V38h-1.364v-5.977c0-.497-.161-.896-.483-1.2-.322-.306-.736-.46-1.244-.46-.349 0-.674.093-.977.279-.3.186-.542.443-.728.773a2.29 2.29 0 0 0-.272 1.13V38h-1.341Zm13.906 3.273v-12h1.295v1.386h.16c.098-.151.234-.345.409-.58.178-.238.431-.45.761-.636.333-.19.784-.284 1.352-.284.735 0 1.383.184 1.943.551.561.368.999.889 1.313 1.563.314.674.472 1.47.472 2.386 0 .924-.158 1.726-.472 2.404-.314.674-.75 1.197-1.307 1.568-.557.367-1.199.55-1.926.55-.561 0-1.009-.092-1.347-.278-.337-.189-.596-.403-.778-.642a8.362 8.362 0 0 1-.42-.602h-.114v4.614h-1.341Zm1.318-7.637c0 .66.097 1.24.29 1.745.193.5.475.892.847 1.176.371.28.825.42 1.363.42.561 0 1.029-.147 1.404-.443.378-.3.662-.7.852-1.204a4.73 4.73 0 0 0 .29-1.694 4.6 4.6 0 0 0-.284-1.659c-.186-.496-.468-.888-.847-1.176-.375-.291-.847-.437-1.415-.437-.545 0-1.004.138-1.375.414-.371.273-.651.656-.841 1.148-.189.489-.284 1.059-.284 1.71Zm9.773-7.272V38h-1.341V26.364h1.341Zm6.115 11.818c-.841 0-1.566-.186-2.176-.557a3.742 3.742 0 0 1-1.404-1.568c-.325-.674-.488-1.459-.488-2.352 0-.894.163-1.682.488-2.364.33-.686.788-1.22 1.375-1.602.591-.387 1.281-.58 2.069-.58.454 0 .903.076 1.346.227.443.152.847.398 1.21.739.364.337.654.784.87 1.34.216.558.324 1.243.324 2.058v.568h-6.728v-1.16h5.364c0-.492-.098-.931-.295-1.317a2.232 2.232 0 0 0-.83-.915c-.356-.224-.777-.335-1.261-.335-.534 0-.997.132-1.387.397a2.623 2.623 0 0 0-.892 1.023c-.208.42-.312.871-.312 1.352v.773c0 .66.113 1.218.341 1.676.231.455.551.801.96 1.04.409.235.884.352 1.426.352.352 0 .67-.049.955-.147.287-.103.536-.254.744-.455.208-.205.369-.458.483-.761l1.295.363a2.87 2.87 0 0 1-.687 1.16c-.322.329-.72.587-1.193.772a4.43 4.43 0 0 1-1.597.273Zm10.153 3.09v-12h1.296v1.387h.159c.098-.151.235-.345.409-.58.178-.238.432-.45.761-.636.334-.19.784-.284 1.353-.284.735 0 1.382.184 1.943.551.56.368.998.889 1.312 1.563.315.674.472 1.47.472 2.386 0 .924-.157 1.726-.472 2.404-.314.674-.75 1.197-1.306 1.568-.557.367-1.199.55-1.927.55-.56 0-1.009-.092-1.346-.278-.337-.189-.597-.403-.779-.642a8.7 8.7 0 0 1-.42-.602h-.114v4.614h-1.341Zm1.319-7.636c0 .66.096 1.24.289 1.745.194.5.476.892.847 1.176.371.28.826.42 1.364.42.56 0 1.028-.147 1.403-.443.379-.3.663-.7.852-1.204a4.73 4.73 0 0 0 .29-1.694 4.6 4.6 0 0 0-.284-1.659c-.186-.496-.468-.888-.847-1.176-.375-.291-.846-.437-1.414-.437-.546 0-1.004.138-1.375.414-.372.273-.652.656-.841 1.148-.19.489-.284 1.059-.284 1.71ZM163.43 38v-8.727h1.296v1.318h.091c.159-.432.447-.782.863-1.051a2.544 2.544 0 0 1 1.409-.404c.099 0 .222.002.37.006s.259.01.335.017v1.364a4.014 4.014 0 0 0-.312-.051 3.09 3.09 0 0 0-.506-.04 2.38 2.38 0 0 0-1.137.267c-.329.174-.59.416-.784.727a1.964 1.964 0 0 0-.284 1.051V38h-1.341Zm5.954 0v-8.727h1.34V38h-1.34Zm.681-10.182a.954.954 0 0 1-.676-.267.86.86 0 0 1-.278-.642.86.86 0 0 1 .278-.642.955.955 0 0 1 .676-.267c.262 0 .485.089.671.267a.851.851 0 0 1 .284.642c0 .25-.095.464-.284.642a.934.934 0 0 1-.671.267ZM173.18 38v-8.727h1.296v1.363h.113c.182-.465.476-.827.881-1.085.405-.261.892-.392 1.46-.392.576 0 1.055.13 1.438.392.386.258.687.62.903 1.085h.091c.224-.45.559-.808 1.006-1.073.447-.27.983-.404 1.608-.404.78 0 1.418.244 1.915.733.496.485.744 1.24.744 2.267V38h-1.341v-5.84c0-.645-.176-1.105-.528-1.382a1.958 1.958 0 0 0-1.245-.414c-.613 0-1.089.185-1.426.556-.337.368-.506.834-.506 1.398V38h-1.363v-5.977c0-.497-.161-.896-.483-1.2-.322-.306-.737-.46-1.244-.46a1.84 1.84 0 0 0-.978.279 2.107 2.107 0 0 0-.727.773 2.28 2.28 0 0 0-.273 1.13V38h-1.341Zm16.475.205a3.548 3.548 0 0 1-1.506-.313 2.582 2.582 0 0 1-1.074-.915c-.265-.401-.397-.886-.397-1.454 0-.5.098-.906.295-1.216.197-.315.46-.56.79-.739a4.14 4.14 0 0 1 1.091-.398c.401-.09.805-.162 1.21-.215.53-.069.96-.12 1.29-.154.333-.038.575-.1.727-.187.155-.087.233-.239.233-.455v-.045c0-.561-.153-.997-.46-1.307-.303-.31-.764-.466-1.381-.466-.64 0-1.142.14-1.506.42-.363.28-.619.58-.767.898l-1.272-.454c.227-.53.53-.944.909-1.24a3.411 3.411 0 0 1 1.25-.624 5.184 5.184 0 0 1 1.341-.182c.28 0 .602.034.965.102.368.065.722.2 1.063.404.345.204.631.513.858.926.227.413.341.966.341 1.659V38h-1.341v-1.182h-.068a2.36 2.36 0 0 1-.455.608c-.212.216-.494.4-.846.551-.353.152-.783.228-1.29.228Zm.204-1.205c.531 0 .978-.104 1.341-.313a2.128 2.128 0 0 0 1.114-1.846v-1.227c-.057.068-.182.13-.375.187a6.29 6.29 0 0 1-.659.142 29.629 29.629 0 0 1-1.284.17 5.13 5.13 0 0 0-.978.222 1.687 1.687 0 0 0-.727.45c-.182.196-.273.465-.273.806 0 .466.173.818.518 1.057.348.235.789.352 1.323.352Zm6.243 1v-8.727h1.296v1.318h.091c.159-.432.447-.782.863-1.051a2.544 2.544 0 0 1 1.409-.404c.099 0 .222.002.37.006.147.004.259.01.335.017v1.364a4.073 4.073 0 0 0-.313-.051 3.068 3.068 0 0 0-.505-.04c-.425 0-.803.089-1.137.267a2.016 2.016 0 0 0-.784.727 1.964 1.964 0 0 0-.284 1.051V38h-1.341Zm7.083 3.273c-.228 0-.43-.02-.608-.057a1.626 1.626 0 0 1-.37-.102l.341-1.182c.326.083.614.113.864.09.25-.022.472-.134.665-.334.197-.198.377-.518.539-.96l.25-.683-3.227-8.772h1.455l2.409 6.954h.091l2.409-6.954h1.454l-3.704 10c-.167.45-.373.824-.619 1.119-.247.3-.533.52-.858.665a2.646 2.646 0 0 1-1.091.216Zm15.11-3.069a3.543 3.543 0 0 1-1.505-.312 2.582 2.582 0 0 1-1.074-.915c-.265-.401-.398-.886-.398-1.454 0-.5.099-.906.296-1.216.197-.315.46-.56.789-.739a4.2 4.2 0 0 1 1.091-.398c.402-.09.805-.162 1.211-.215.53-.069.96-.12 1.289-.154.334-.038.576-.1.728-.187.155-.087.233-.239.233-.455v-.045c0-.561-.154-.997-.461-1.307-.303-.31-.763-.466-1.38-.466-.641 0-1.142.14-1.506.42-.364.28-.619.58-.767.898l-1.273-.454c.227-.53.53-.944.909-1.24.383-.298.8-.507 1.25-.624a5.196 5.196 0 0 1 1.341-.182c.28 0 .602.034.966.102.368.065.722.2 1.063.404.344.204.63.513.858.926.227.413.34.966.34 1.659V38h-1.34v-1.182h-.069c-.091.19-.242.392-.454.608-.212.216-.494.4-.847.551-.352.152-.782.228-1.29.228ZM218.5 37c.53 0 .977-.104 1.341-.313.367-.208.644-.477.829-.806.19-.33.285-.676.285-1.04v-1.227c-.057.068-.182.13-.375.187-.19.053-.41.1-.66.142a29.56 29.56 0 0 1-1.284.17 5.19 5.19 0 0 0-.977.222 1.681 1.681 0 0 0-.727.45c-.182.196-.273.465-.273.806 0 .466.172.818.517 1.057.349.235.79.352 1.324.352Zm7.584-10.636V38h-1.341V26.364h1.341Zm6.115 11.818c-.841 0-1.566-.186-2.176-.557a3.742 3.742 0 0 1-1.404-1.568c-.325-.674-.488-1.459-.488-2.352 0-.894.163-1.682.488-2.364.33-.686.788-1.22 1.375-1.602.591-.387 1.281-.58 2.068-.58.455 0 .904.076 1.347.227.443.152.847.398 1.21.739.364.337.654.784.87 1.34.216.558.323 1.243.323 2.058v.568h-6.727v-1.16h5.364c0-.492-.099-.931-.296-1.317a2.223 2.223 0 0 0-.829-.915c-.356-.224-.777-.335-1.262-.335-.534 0-.996.132-1.386.397a2.615 2.615 0 0 0-.892 1.023c-.208.42-.312.871-.312 1.352v.773c0 .66.113 1.218.34 1.676.232.455.552.801.961 1.04.409.235.884.352 1.426.352.352 0 .67-.049.954-.147.288-.103.536-.254.745-.455.208-.205.369-.458.483-.761l1.295.363a2.87 2.87 0 0 1-.687 1.16 3.35 3.35 0 0 1-1.194.772 4.42 4.42 0 0 1-1.596.273Zm5.653-.182v-8.727h1.296v1.318h.091c.159-.432.447-.782.863-1.051a2.544 2.544 0 0 1 1.409-.404c.099 0 .222.002.37.006.147.004.259.01.335.017v1.364a4.073 4.073 0 0 0-.313-.051 3.068 3.068 0 0 0-.505-.04c-.425 0-.803.089-1.137.267a2.016 2.016 0 0 0-.784.727 1.964 1.964 0 0 0-.284 1.051V38h-1.341Zm10.296-8.727v1.136h-4.523v-1.136h4.523Zm-3.205-2.091h1.341V35.5c0 .379.055.663.165.852.114.186.257.31.432.375.178.06.365.091.562.091.148 0 .269-.007.364-.023l.227-.045.273 1.205a2.733 2.733 0 0 1-.381.102 2.8 2.8 0 0 1-.619.057 2.7 2.7 0 0 1-1.114-.245 2.215 2.215 0 0 1-.898-.744c-.234-.333-.352-.754-.352-1.261v-8.682Z" fill="#344054"/><path fill-rule="evenodd" clip-rule="evenodd" d="M417.114 25.614a.75.75 0 0 1 1.061 0l5.303 5.303 5.303-5.303a.752.752 0 0 1 1.281.53c0 .2-.079.39-.22.53l-5.303 5.304 5.303 5.303a.75.75 0 1 1-1.061 1.06l-5.303-5.303-5.303 5.304a.752.752 0 0 1-1.281-.53.75.75 0 0 1 .22-.53l5.303-5.304-5.303-5.304a.749.749 0 0 1 0-1.06Z" fill="#344054"/><path d="M10.5 1h445v-2h-445v2Zm448 3v56h2V4h-2Zm-3 59h-445v2h445v-2Zm-448-3V4h-2v56h2Zm3 3a3 3 0 0 1-3-3h-2a5 5 0 0 0 5 5v-2Zm448-3a3 3 0 0 1-3 3v2a5 5 0 0 0 5-5h-2Zm-3-59a3 3 0 0 1 3 3h2a5 5 0 0 0-5-5v2Zm-445-2a5 5 0 0 0-5 5h2a3 3 0 0 1 3-3v-2Z" fill="#58A1D4"/><path fill="#E8178A" fill-opacity=".24" d="M6.5 0h453v16H6.5zm0 48h453v16H6.5z"/><path fill="#E8178A" fill-opacity=".24" d="M6.5 0h24v64h-24zm429 0h24v64h-24z"/><path d="M467 0v64" stroke="#E8178A"/><rect x="471.5" y="24.5" width="38" height="18" rx="3" fill="#E8178A"/><path d="M480.881 37.6c1.619.006 2.723-1.055 2.72-2.536.003-1.364-.948-2.347-2.237-2.347-.799 0-1.506.383-1.833 1.026h-.049c.007-1.417.504-2.298 1.452-2.298.557 0 .959.306 1.076.813h1.516c-.145-1.196-1.14-2.13-2.592-2.13-1.797 0-2.951 1.456-2.958 3.899-.004 2.663 1.41 3.565 2.905 3.572Zm-.007-1.208c-.711 0-1.236-.572-1.236-1.282.003-.707.54-1.282 1.246-1.282.71 0 1.229.558 1.225 1.278.004.728-.525 1.286-1.235 1.286Zm3.707-.17h3.491V37.5h1.47v-1.278h.902v-1.233h-.902v-4.762h-1.925l-3.036 4.784v1.21Zm3.519-1.233h-1.971v-.056l1.914-3.03h.057v3.086Zm3.383 4.556h1.512v-2.919h.047c.209.455.667.963 1.548.963 1.243 0 2.212-.984 2.212-2.81 0-1.874-1.012-2.805-2.209-2.805-.912 0-1.349.544-1.551.988h-.068v-.917h-1.491v7.5Zm1.48-4.772c0-.973.412-1.595 1.147-1.595.75 0 1.147.65 1.147 1.595 0 .951-.404 1.612-1.147 1.612-.728 0-1.147-.64-1.147-1.612Zm5.907-2.728h-1.563l1.563 2.728-1.619 2.727h1.562l1.058-1.886 1.076 1.886h1.545l-1.623-2.727 1.58-2.728h-1.551l-1.027 1.907-1.001-1.907Z" fill="#fff"/><path stroke="#E8178A" d="M463.5.5h7m-7 63h7m-35 8h24"/><rect x="429" y="76" width="37" height="18" rx="3" fill="#E8178A"/><path d="M435.589 89h5.185v-1.257h-3.054v-.05l1.062-1.04c1.495-1.364 1.896-2.046 1.896-2.873 0-1.26-1.03-2.152-2.589-2.152-1.527 0-2.574.912-2.571 2.34h1.46c-.004-.696.437-1.122 1.101-1.122.639 0 1.115.398 1.115 1.037 0 .579-.355.976-1.016 1.612l-2.589 2.397V89Zm6.033-1.278h3.491V89h1.47v-1.278h.902v-1.233h-.902v-4.762h-1.925l-3.036 4.784v1.21Zm3.519-1.233h-1.971v-.056l1.914-3.03h.057v3.086Zm3.383 4.556h1.512v-2.919h.047c.209.455.667.963 1.548.963 1.243 0 2.212-.984 2.212-2.81 0-1.874-1.012-2.805-2.209-2.805-.912 0-1.349.544-1.551.988h-.068v-.916h-1.491v7.5Zm1.48-4.772c0-.973.412-1.595 1.147-1.595.75 0 1.147.65 1.147 1.595 0 .951-.404 1.612-1.147 1.612-.728 0-1.147-.64-1.147-1.612Zm5.907-2.727h-1.563l1.563 2.727L454.292 89h1.562l1.058-1.886L457.988 89h1.545l-1.623-2.727 1.58-2.727h-1.551l-1.027 1.906-1.001-1.906Z" fill="#fff"/><path stroke="#E8178A" d="M436 75v-7m23 7v-7M6.5 71.5h24"/><rect y="76" width="37" height="18" rx="3" fill="#E8178A"/><path d="M6.59 89h5.184v-1.257H8.72v-.05l1.062-1.04c1.495-1.364 1.896-2.046 1.896-2.873 0-1.26-1.03-2.152-2.589-2.152-1.527 0-2.574.912-2.57 2.34h1.459c-.004-.696.437-1.122 1.1-1.122.64 0 1.116.398 1.116 1.037 0 .579-.355.976-1.016 1.612L6.59 87.892V89Zm6.032-1.278h3.49V89h1.47v-1.278h.903v-1.233h-.902v-4.762h-1.925l-3.036 4.784v1.21Zm3.52-1.233H14.17v-.056l1.914-3.03h.057v3.086Zm3.382 4.556h1.512v-2.919h.047c.21.455.667.963 1.548.963 1.243 0 2.212-.984 2.212-2.81 0-1.874-1.012-2.805-2.209-2.805-.912 0-1.349.544-1.551.988h-.068v-.916h-1.491v7.5Zm1.48-4.772c0-.973.412-1.595 1.147-1.595.75 0 1.148.65 1.148 1.595 0 .951-.405 1.612-1.148 1.612-.727 0-1.147-.64-1.147-1.612Zm5.907-2.727h-1.563l1.563 2.727L25.29 89h1.563l1.058-1.886L28.988 89h1.545l-1.623-2.727 1.58-2.727h-1.55l-1.027 1.906-1.001-1.906Z" fill="#fff"/><path stroke="#E8178A" d="M7 75v-7m23 7v-7m24.5 3.5h16"/><rect x="48" y="76" width="36" height="18" rx="3" fill="#E8178A"/><path d="M57.754 81.727V89h-1.538v-5.813h-.043l-1.665 1.044v-1.364l1.8-1.14h1.446Zm4.52 7.372a3.285 3.285 0 0 1-1.084-.188 2.465 2.465 0 0 1-.93-.6c-.275-.277-.493-.644-.654-1.1-.158-.458-.238-1.019-.238-1.684.003-.61.073-1.156.21-1.637.14-.483.338-.893.596-1.229.261-.336.572-.592.934-.767a2.73 2.73 0 0 1 1.219-.266c.485 0 .913.094 1.285.284.372.187.67.441.895.763.227.322.364.683.412 1.084h-1.516a1.013 1.013 0 0 0-.373-.597 1.126 1.126 0 0 0-.703-.217c-.474 0-.834.206-1.08.618-.244.412-.368.972-.373 1.68h.05a1.69 1.69 0 0 1 .44-.55c.187-.154.4-.272.636-.352.239-.083.491-.124.756-.124a2.168 2.168 0 0 1 1.946 1.136c.194.353.291.756.291 1.21 0 .493-.114.931-.344 1.315a2.388 2.388 0 0 1-.955.902c-.408.215-.881.322-1.42.32Zm-.008-1.207a1.2 1.2 0 0 0 1.076-.632c.107-.194.16-.412.16-.654 0-.24-.053-.458-.16-.65a1.18 1.18 0 0 0-1.065-.629 1.242 1.242 0 0 0-.494.1 1.24 1.24 0 0 0-.657.69 1.274 1.274 0 0 0-.096.493 1.277 1.277 0 0 0 .6 1.108c.188.116.4.174.636.174Zm3.832 3.154v-7.5h1.491v.916h.068c.066-.147.162-.296.287-.448.128-.154.294-.281.498-.383.206-.105.461-.157.767-.157.397 0 .764.105 1.1.313.337.206.605.517.807.934.2.414.301.934.301 1.559 0 .608-.098 1.122-.294 1.541-.194.417-.46.733-.796.948-.334.213-.708.32-1.122.32-.293 0-.543-.049-.75-.146a1.55 1.55 0 0 1-.5-.366c-.13-.149-.23-.3-.298-.45h-.046v2.919h-1.513Zm1.48-4.773c0 .324.046.607.136.848.09.242.22.43.39.565a.98.98 0 0 0 .622.199.975.975 0 0 0 .625-.203c.17-.137.3-.326.387-.568.09-.243.135-.524.135-.841a2.41 2.41 0 0 0-.132-.831 1.237 1.237 0 0 0-.387-.561.98.98 0 0 0-.628-.203 1 1 0 0 0-.625.196 1.22 1.22 0 0 0-.387.554c-.09.239-.135.52-.135.845Zm5.917-2.727 1.001 1.906 1.026-1.906h1.552l-1.58 2.727L77.117 89h-1.545l-1.076-1.886L73.438 89h-1.563l1.62-2.727-1.563-2.727h1.563Z" fill="#fff"/><path stroke="#E8178A" d="M55 75v-7m15 7v-7"/><path fill="#E8178A" fill-opacity=".24" d="M54.5 0h16v64h-16z"/></svg>