<svg width="510" height="94" viewBox="0 0 510 94" fill="none" xmlns="http://www.w3.org/2000/svg">
<path d="M6.5 4C6.5 1.79086 8.29086 0 10.5 0H455.5C457.709 0 459.5 1.79086 459.5 4V60C459.5 62.2091 457.709 64 455.5 64H10.5C8.29086 64 6.5 62.2091 6.5 60V4Z" fill="#E2EFF8"/>
<path d="M46.5 42.5C43.7152 42.5 41.0445 41.3938 39.0754 39.4246C37.1062 37.4555 36 34.7848 36 32C36 29.2152 37.1062 26.5445 39.0754 24.5754C41.0445 22.6062 43.7152 21.5 46.5 21.5C49.2848 21.5 51.9555 22.6062 53.9246 24.5754C55.8938 26.5445 57 29.2152 57 32C57 34.7848 55.8938 37.4555 53.9246 39.4246C51.9555 41.3938 49.2848 42.5 46.5 42.5ZM46.5 44C49.6826 44 52.7348 42.7357 54.9853 40.4853C57.2357 38.2348 58.5 35.1826 58.5 32C58.5 28.8174 57.2357 25.7652 54.9853 23.5147C52.7348 21.2643 49.6826 20 46.5 20C43.3174 20 40.2652 21.2643 38.0147 23.5147C35.7643 25.7652 34.5 28.8174 34.5 32C34.5 35.1826 35.7643 38.2348 38.0147 40.4853C40.2652 42.7357 43.3174 44 46.5 44Z" fill="#0F71BB"/>
<path d="M45.0029 36.5001C45.0029 36.3032 45.0417 36.1081 45.1171 35.9261C45.1925 35.7441 45.303 35.5788 45.4423 35.4395C45.5816 35.3002 45.7469 35.1897 45.9289 35.1143C46.1109 35.0389 46.3059 35.0001 46.5029 35.0001C46.6999 35.0001 46.895 35.0389 47.077 35.1143C47.2589 35.1897 47.4243 35.3002 47.5636 35.4395C47.7029 35.5788 47.8134 35.7441 47.8888 35.9261C47.9641 36.1081 48.0029 36.3032 48.0029 36.5001C48.0029 36.898 47.8449 37.2795 47.5636 37.5608C47.2823 37.8421 46.9008 38.0001 46.5029 38.0001C46.1051 38.0001 45.7236 37.8421 45.4423 37.5608C45.161 37.2795 45.0029 36.898 45.0029 36.5001ZM45.1499 27.4927C45.13 27.3034 45.15 27.1121 45.2087 26.9311C45.2675 26.7501 45.3636 26.5835 45.4909 26.442C45.6182 26.3006 45.7738 26.1875 45.9476 26.1101C46.1215 26.0327 46.3096 25.9927 46.4999 25.9927C46.6902 25.9927 46.8784 26.0327 47.0522 26.1101C47.226 26.1875 47.3817 26.3006 47.509 26.442C47.6362 26.5835 47.7324 26.7501 47.7911 26.9311C47.8499 27.1121 47.8699 27.3034 47.8499 27.4927L47.3249 32.7531C47.3073 32.9598 47.2127 33.1523 47.06 33.2926C46.9072 33.4329 46.7073 33.5107 46.4999 33.5107C46.2925 33.5107 46.0927 33.4329 45.9399 33.2926C45.7871 33.1523 45.6926 32.9598 45.6749 32.7531L45.1499 27.4927Z" fill="#0F71BB"/>
<path d="M80.3864 38H78.9091L83.1818 26.3636H84.6364L88.9091 38H87.4318L83.9545 28.2045H83.8636L80.3864 38ZM80.9318 33.4545H86.8864V34.7045H80.9318V33.4545ZM101.222 31.2273L100.017 31.5682C99.9413 31.3674 99.8295 31.1723 99.6818 30.983C99.5379 30.7898 99.3409 30.6307 99.0909 30.5057C98.8409 30.3807 98.5208 30.3182 98.1307 30.3182C97.5966 30.3182 97.1515 30.4413 96.7955 30.6875C96.4432 30.9299 96.267 31.2386 96.267 31.6136C96.267 31.947 96.3883 32.2102 96.6307 32.4034C96.8731 32.5966 97.2519 32.7576 97.767 32.8864L99.0625 33.2045C99.8428 33.3939 100.424 33.6837 100.807 34.0739C101.189 34.4602 101.381 34.9583 101.381 35.5682C101.381 36.0682 101.237 36.5152 100.949 36.9091C100.665 37.303 100.267 37.6136 99.7557 37.8409C99.2443 38.0682 98.6496 38.1818 97.9716 38.1818C97.0814 38.1818 96.3447 37.9886 95.7614 37.6023C95.178 37.2159 94.8087 36.6515 94.6534 35.9091L95.9261 35.5909C96.0473 36.0606 96.2765 36.4129 96.6136 36.6477C96.9545 36.8826 97.3996 37 97.9489 37C98.5739 37 99.0701 36.8674 99.4375 36.6023C99.8087 36.3333 99.9943 36.0114 99.9943 35.6364C99.9943 35.3333 99.8883 35.0795 99.6761 34.875C99.464 34.6667 99.1383 34.5114 98.6989 34.4091L97.2443 34.0682C96.4451 33.8788 95.858 33.5852 95.483 33.1875C95.1117 32.786 94.9261 32.2841 94.9261 31.6818C94.9261 31.1894 95.0644 30.7538 95.3409 30.375C95.6212 29.9962 96.0019 29.6989 96.483 29.483C96.9678 29.267 97.517 29.1591 98.1307 29.1591C98.9943 29.1591 99.6723 29.3485 100.165 29.7273C100.661 30.1061 101.013 30.6061 101.222 31.2273ZM105.967 38.2045C105.414 38.2045 104.912 38.1004 104.462 37.892C104.011 37.6799 103.653 37.375 103.388 36.9773C103.123 36.5758 102.99 36.0909 102.99 35.5227C102.99 35.0227 103.089 34.6174 103.286 34.3068C103.482 33.9924 103.746 33.7462 104.075 33.5682C104.405 33.3902 104.768 33.2576 105.166 33.1705C105.568 33.0795 105.971 33.0076 106.376 32.9545C106.907 32.8864 107.337 32.8352 107.666 32.8011C108 32.7633 108.242 32.7008 108.393 32.6136C108.549 32.5265 108.626 32.375 108.626 32.1591V32.1136C108.626 31.553 108.473 31.1174 108.166 30.8068C107.863 30.4962 107.403 30.3409 106.786 30.3409C106.145 30.3409 105.643 30.4811 105.28 30.7614C104.916 31.0417 104.661 31.3409 104.513 31.6591L103.24 31.2045C103.467 30.6742 103.77 30.2614 104.149 29.9659C104.532 29.6667 104.948 29.4583 105.399 29.3409C105.854 29.2197 106.301 29.1591 106.74 29.1591C107.02 29.1591 107.342 29.1932 107.706 29.2614C108.073 29.3258 108.428 29.4602 108.768 29.6648C109.113 29.8693 109.399 30.178 109.626 30.5909C109.854 31.0038 109.967 31.5568 109.967 32.25V38H108.626V36.8182H108.558C108.467 37.0076 108.316 37.2102 108.104 37.4261C107.892 37.642 107.609 37.8258 107.257 37.9773C106.905 38.1288 106.475 38.2045 105.967 38.2045ZM106.172 37C106.702 37 107.149 36.8958 107.513 36.6875C107.88 36.4792 108.157 36.2102 108.342 35.8807C108.532 35.5511 108.626 35.2045 108.626 34.8409V33.6136C108.57 33.6818 108.445 33.7443 108.251 33.8011C108.062 33.8542 107.842 33.9015 107.592 33.9432C107.346 33.9811 107.106 34.0152 106.871 34.0455C106.64 34.072 106.452 34.0947 106.308 34.1136C105.96 34.1591 105.634 34.233 105.331 34.3352C105.032 34.4337 104.789 34.5833 104.604 34.7841C104.422 34.9811 104.331 35.25 104.331 35.5909C104.331 36.0568 104.503 36.4091 104.848 36.6477C105.196 36.8826 105.638 37 106.172 37ZM112.415 38V29.2727H113.71V30.6364H113.824C114.006 30.1705 114.299 29.8087 114.705 29.5511C115.11 29.2898 115.597 29.1591 116.165 29.1591C116.741 29.1591 117.22 29.2898 117.602 29.5511C117.989 29.8087 118.29 30.1705 118.506 30.6364H118.597C118.82 30.1856 119.155 29.8277 119.602 29.5625C120.049 29.2936 120.585 29.1591 121.21 29.1591C121.991 29.1591 122.629 29.4034 123.125 29.892C123.621 30.3769 123.869 31.1326 123.869 32.1591V38H122.528V32.1591C122.528 31.5152 122.352 31.0549 122 30.7784C121.648 30.5019 121.233 30.3636 120.756 30.3636C120.142 30.3636 119.667 30.5492 119.33 30.9205C118.992 31.2879 118.824 31.7538 118.824 32.3182V38H117.46V32.0227C117.46 31.5265 117.299 31.1269 116.977 30.8239C116.655 30.517 116.241 30.3636 115.733 30.3636C115.384 30.3636 115.059 30.4564 114.756 30.642C114.456 30.8277 114.214 31.0852 114.028 31.4148C113.847 31.7405 113.756 32.1174 113.756 32.5455V38H112.415ZM126.321 41.2727V29.2727H127.616V30.6591H127.776C127.874 30.5076 128.01 30.3144 128.185 30.0795C128.363 29.8409 128.616 29.6288 128.946 29.4432C129.279 29.2538 129.73 29.1591 130.298 29.1591C131.033 29.1591 131.681 29.3428 132.241 29.7102C132.802 30.0777 133.24 30.5985 133.554 31.2727C133.868 31.947 134.026 32.7424 134.026 33.6591C134.026 34.5833 133.868 35.3845 133.554 36.0625C133.24 36.7367 132.804 37.2595 132.247 37.6307C131.69 37.9981 131.048 38.1818 130.321 38.1818C129.76 38.1818 129.312 38.089 128.974 37.9034C128.637 37.714 128.378 37.5 128.196 37.2614C128.014 37.0189 127.874 36.8182 127.776 36.6591H127.662V41.2727H126.321ZM127.639 33.6364C127.639 34.2955 127.736 34.8769 127.929 35.3807C128.122 35.8807 128.404 36.2727 128.776 36.5568C129.147 36.8371 129.601 36.9773 130.139 36.9773C130.7 36.9773 131.168 36.8295 131.543 36.5341C131.921 36.2348 132.205 35.8333 132.395 35.3295C132.588 34.822 132.685 34.2576 132.685 33.6364C132.685 33.0227 132.59 32.4697 132.401 31.9773C132.215 31.4811 131.933 31.089 131.554 30.8011C131.179 30.5095 130.707 30.3636 130.139 30.3636C129.594 30.3636 129.135 30.5019 128.764 30.7784C128.393 31.0511 128.113 31.4337 127.923 31.9261C127.734 32.4148 127.639 32.9848 127.639 33.6364ZM137.412 26.3636V38H136.071V26.3636H137.412ZM143.527 38.1818C142.686 38.1818 141.961 37.9962 141.351 37.625C140.745 37.25 140.277 36.7273 139.947 36.0568C139.622 35.3826 139.459 34.5985 139.459 33.7045C139.459 32.8106 139.622 32.0227 139.947 31.3409C140.277 30.6553 140.735 30.1212 141.322 29.7386C141.913 29.3523 142.603 29.1591 143.391 29.1591C143.845 29.1591 144.294 29.2348 144.737 29.3864C145.18 29.5379 145.584 29.7841 145.947 30.125C146.311 30.4621 146.601 30.9091 146.817 31.4659C147.033 32.0227 147.141 32.7083 147.141 33.5227V34.0909H140.413V32.9318H145.777C145.777 32.4394 145.679 32 145.482 31.6136C145.288 31.2273 145.012 30.9223 144.652 30.6989C144.296 30.4754 143.875 30.3636 143.391 30.3636C142.857 30.3636 142.394 30.4962 142.004 30.7614C141.618 31.0227 141.321 31.3636 141.112 31.7841C140.904 32.2045 140.8 32.6553 140.8 33.1364V33.9091C140.8 34.5682 140.913 35.1269 141.141 35.5852C141.372 36.0398 141.692 36.3864 142.101 36.625C142.51 36.8598 142.985 36.9773 143.527 36.9773C143.879 36.9773 144.197 36.928 144.482 36.8295C144.769 36.7273 145.018 36.5758 145.226 36.375C145.434 36.1705 145.595 35.9167 145.709 35.6136L147.004 35.9773C146.868 36.4167 146.639 36.803 146.317 37.1364C145.995 37.4659 145.597 37.7235 145.124 37.9091C144.65 38.0909 144.118 38.1818 143.527 38.1818ZM153.68 41.2727V29.2727H154.976V30.6591H155.135C155.233 30.5076 155.37 30.3144 155.544 30.0795C155.722 29.8409 155.976 29.6288 156.305 29.4432C156.639 29.2538 157.089 29.1591 157.658 29.1591C158.393 29.1591 159.04 29.3428 159.601 29.7102C160.161 30.0777 160.599 30.5985 160.913 31.2727C161.228 31.947 161.385 32.7424 161.385 33.6591C161.385 34.5833 161.228 35.3845 160.913 36.0625C160.599 36.7367 160.163 37.2595 159.607 37.6307C159.05 37.9981 158.408 38.1818 157.68 38.1818C157.12 38.1818 156.671 38.089 156.334 37.9034C155.997 37.714 155.737 37.5 155.555 37.2614C155.374 37.0189 155.233 36.8182 155.135 36.6591H155.021V41.2727H153.68ZM154.999 33.6364C154.999 34.2955 155.095 34.8769 155.288 35.3807C155.482 35.8807 155.764 36.2727 156.135 36.5568C156.506 36.8371 156.961 36.9773 157.499 36.9773C158.059 36.9773 158.527 36.8295 158.902 36.5341C159.281 36.2348 159.565 35.8333 159.754 35.3295C159.947 34.822 160.044 34.2576 160.044 33.6364C160.044 33.0227 159.949 32.4697 159.76 31.9773C159.574 31.4811 159.292 31.089 158.913 30.8011C158.538 30.5095 158.067 30.3636 157.499 30.3636C156.953 30.3636 156.495 30.5019 156.124 30.7784C155.752 31.0511 155.472 31.4337 155.283 31.9261C155.093 32.4148 154.999 32.9848 154.999 33.6364ZM163.43 38V29.2727H164.726V30.5909H164.817C164.976 30.1591 165.264 29.8087 165.68 29.5398C166.097 29.2708 166.567 29.1364 167.089 29.1364C167.188 29.1364 167.311 29.1383 167.459 29.142C167.607 29.1458 167.718 29.1515 167.794 29.1591V30.5227C167.749 30.5114 167.644 30.4943 167.482 30.4716C167.322 30.4451 167.154 30.4318 166.976 30.4318C166.552 30.4318 166.173 30.5208 165.839 30.6989C165.51 30.8731 165.249 31.1155 165.055 31.4261C164.866 31.733 164.771 32.0833 164.771 32.4773V38H163.43ZM169.384 38V29.2727H170.724V38H169.384ZM170.065 27.8182C169.804 27.8182 169.579 27.7292 169.389 27.5511C169.204 27.3731 169.111 27.1591 169.111 26.9091C169.111 26.6591 169.204 26.4451 169.389 26.267C169.579 26.089 169.804 26 170.065 26C170.327 26 170.55 26.089 170.736 26.267C170.925 26.4451 171.02 26.6591 171.02 26.9091C171.02 27.1591 170.925 27.3731 170.736 27.5511C170.55 27.7292 170.327 27.8182 170.065 27.8182ZM173.18 38V29.2727H174.476V30.6364H174.589C174.771 30.1705 175.065 29.8087 175.47 29.5511C175.875 29.2898 176.362 29.1591 176.93 29.1591C177.506 29.1591 177.985 29.2898 178.368 29.5511C178.754 29.8087 179.055 30.1705 179.271 30.6364H179.362C179.586 30.1856 179.921 29.8277 180.368 29.5625C180.815 29.2936 181.351 29.1591 181.976 29.1591C182.756 29.1591 183.394 29.4034 183.891 29.892C184.387 30.3769 184.635 31.1326 184.635 32.1591V38H183.294V32.1591C183.294 31.5152 183.118 31.0549 182.766 30.7784C182.413 30.5019 181.999 30.3636 181.521 30.3636C180.908 30.3636 180.432 30.5492 180.095 30.9205C179.758 31.2879 179.589 31.7538 179.589 32.3182V38H178.226V32.0227C178.226 31.5265 178.065 31.1269 177.743 30.8239C177.421 30.517 177.006 30.3636 176.499 30.3636C176.15 30.3636 175.824 30.4564 175.521 30.642C175.222 30.8277 174.98 31.0852 174.794 31.4148C174.612 31.7405 174.521 32.1174 174.521 32.5455V38H173.18ZM189.655 38.2045C189.102 38.2045 188.6 38.1004 188.149 37.892C187.698 37.6799 187.34 37.375 187.075 36.9773C186.81 36.5758 186.678 36.0909 186.678 35.5227C186.678 35.0227 186.776 34.6174 186.973 34.3068C187.17 33.9924 187.433 33.7462 187.763 33.5682C188.092 33.3902 188.456 33.2576 188.854 33.1705C189.255 33.0795 189.659 33.0076 190.064 32.9545C190.594 32.8864 191.024 32.8352 191.354 32.8011C191.687 32.7633 191.929 32.7008 192.081 32.6136C192.236 32.5265 192.314 32.375 192.314 32.1591V32.1136C192.314 31.553 192.161 31.1174 191.854 30.8068C191.551 30.4962 191.09 30.3409 190.473 30.3409C189.833 30.3409 189.331 30.4811 188.967 30.7614C188.604 31.0417 188.348 31.3409 188.2 31.6591L186.928 31.2045C187.155 30.6742 187.458 30.2614 187.837 29.9659C188.219 29.6667 188.636 29.4583 189.087 29.3409C189.541 29.2197 189.988 29.1591 190.428 29.1591C190.708 29.1591 191.03 29.1932 191.393 29.2614C191.761 29.3258 192.115 29.4602 192.456 29.6648C192.801 29.8693 193.087 30.178 193.314 30.5909C193.541 31.0038 193.655 31.5568 193.655 32.25V38H192.314V36.8182H192.246C192.155 37.0076 192.003 37.2102 191.791 37.4261C191.579 37.642 191.297 37.8258 190.945 37.9773C190.592 38.1288 190.162 38.2045 189.655 38.2045ZM189.859 37C190.39 37 190.837 36.8958 191.2 36.6875C191.568 36.4792 191.844 36.2102 192.03 35.8807C192.219 35.5511 192.314 35.2045 192.314 34.8409V33.6136C192.257 33.6818 192.132 33.7443 191.939 33.8011C191.75 33.8542 191.53 33.9015 191.28 33.9432C191.034 33.9811 190.793 34.0152 190.558 34.0455C190.327 34.072 190.14 34.0947 189.996 34.1136C189.647 34.1591 189.321 34.233 189.018 34.3352C188.719 34.4337 188.477 34.5833 188.291 34.7841C188.109 34.9811 188.018 35.25 188.018 35.5909C188.018 36.0568 188.191 36.4091 188.536 36.6477C188.884 36.8826 189.325 37 189.859 37ZM196.102 38V29.2727H197.398V30.5909H197.489C197.648 30.1591 197.936 29.8087 198.352 29.5398C198.769 29.2708 199.239 29.1364 199.761 29.1364C199.86 29.1364 199.983 29.1383 200.131 29.142C200.278 29.1458 200.39 29.1515 200.466 29.1591V30.5227C200.42 30.5114 200.316 30.4943 200.153 30.4716C199.994 30.4451 199.826 30.4318 199.648 30.4318C199.223 30.4318 198.845 30.5208 198.511 30.6989C198.182 30.8731 197.92 31.1155 197.727 31.4261C197.538 31.733 197.443 32.0833 197.443 32.4773V38H196.102ZM203.185 41.2727C202.957 41.2727 202.755 41.2538 202.577 41.2159C202.399 41.1818 202.276 41.1477 202.207 41.1136L202.548 39.9318C202.874 40.0152 203.162 40.0455 203.412 40.0227C203.662 40 203.884 39.8883 204.077 39.6875C204.274 39.4905 204.454 39.1705 204.616 38.7273L204.866 38.0455L201.639 29.2727H203.094L205.503 36.2273H205.594L208.003 29.2727H209.457L205.753 39.2727C205.586 39.7235 205.38 40.0966 205.134 40.392C204.887 40.6913 204.601 40.9129 204.276 41.0568C203.954 41.2008 203.59 41.2727 203.185 41.2727ZM218.295 38.2045C217.742 38.2045 217.241 38.1004 216.79 37.892C216.339 37.6799 215.981 37.375 215.716 36.9773C215.451 36.5758 215.318 36.0909 215.318 35.5227C215.318 35.0227 215.417 34.6174 215.614 34.3068C215.811 33.9924 216.074 33.7462 216.403 33.5682C216.733 33.3902 217.097 33.2576 217.494 33.1705C217.896 33.0795 218.299 33.0076 218.705 32.9545C219.235 32.8864 219.665 32.8352 219.994 32.8011C220.328 32.7633 220.57 32.7008 220.722 32.6136C220.877 32.5265 220.955 32.375 220.955 32.1591V32.1136C220.955 31.553 220.801 31.1174 220.494 30.8068C220.191 30.4962 219.731 30.3409 219.114 30.3409C218.473 30.3409 217.972 30.4811 217.608 30.7614C217.244 31.0417 216.989 31.3409 216.841 31.6591L215.568 31.2045C215.795 30.6742 216.098 30.2614 216.477 29.9659C216.86 29.6667 217.277 29.4583 217.727 29.3409C218.182 29.2197 218.629 29.1591 219.068 29.1591C219.348 29.1591 219.67 29.1932 220.034 29.2614C220.402 29.3258 220.756 29.4602 221.097 29.6648C221.441 29.8693 221.727 30.178 221.955 30.5909C222.182 31.0038 222.295 31.5568 222.295 32.25V38H220.955V36.8182H220.886C220.795 37.0076 220.644 37.2102 220.432 37.4261C220.22 37.642 219.938 37.8258 219.585 37.9773C219.233 38.1288 218.803 38.2045 218.295 38.2045ZM218.5 37C219.03 37 219.477 36.8958 219.841 36.6875C220.208 36.4792 220.485 36.2102 220.67 35.8807C220.86 35.5511 220.955 35.2045 220.955 34.8409V33.6136C220.898 33.6818 220.773 33.7443 220.58 33.8011C220.39 33.8542 220.17 33.9015 219.92 33.9432C219.674 33.9811 219.434 34.0152 219.199 34.0455C218.968 34.072 218.78 34.0947 218.636 34.1136C218.288 34.1591 217.962 34.233 217.659 34.3352C217.36 34.4337 217.117 34.5833 216.932 34.7841C216.75 34.9811 216.659 35.25 216.659 35.5909C216.659 36.0568 216.831 36.4091 217.176 36.6477C217.525 36.8826 217.966 37 218.5 37ZM226.084 26.3636V38H224.743V26.3636H226.084ZM232.199 38.1818C231.358 38.1818 230.633 37.9962 230.023 37.625C229.417 37.25 228.949 36.7273 228.619 36.0568C228.294 35.3826 228.131 34.5985 228.131 33.7045C228.131 32.8106 228.294 32.0227 228.619 31.3409C228.949 30.6553 229.407 30.1212 229.994 29.7386C230.585 29.3523 231.275 29.1591 232.062 29.1591C232.517 29.1591 232.966 29.2348 233.409 29.3864C233.852 29.5379 234.256 29.7841 234.619 30.125C234.983 30.4621 235.273 30.9091 235.489 31.4659C235.705 32.0227 235.812 32.7083 235.812 33.5227V34.0909H229.085V32.9318H234.449C234.449 32.4394 234.35 32 234.153 31.6136C233.96 31.2273 233.684 30.9223 233.324 30.6989C232.968 30.4754 232.547 30.3636 232.062 30.3636C231.528 30.3636 231.066 30.4962 230.676 30.7614C230.29 31.0227 229.992 31.3636 229.784 31.7841C229.576 32.2045 229.472 32.6553 229.472 33.1364V33.9091C229.472 34.5682 229.585 35.1269 229.812 35.5852C230.044 36.0398 230.364 36.3864 230.773 36.625C231.182 36.8598 231.657 36.9773 232.199 36.9773C232.551 36.9773 232.869 36.928 233.153 36.8295C233.441 36.7273 233.689 36.5758 233.898 36.375C234.106 36.1705 234.267 35.9167 234.381 35.6136L235.676 35.9773C235.54 36.4167 235.311 36.803 234.989 37.1364C234.667 37.4659 234.269 37.7235 233.795 37.9091C233.322 38.0909 232.79 38.1818 232.199 38.1818ZM237.852 38V29.2727H239.148V30.5909H239.239C239.398 30.1591 239.686 29.8087 240.102 29.5398C240.519 29.2708 240.989 29.1364 241.511 29.1364C241.61 29.1364 241.733 29.1383 241.881 29.142C242.028 29.1458 242.14 29.1515 242.216 29.1591V30.5227C242.17 30.5114 242.066 30.4943 241.903 30.4716C241.744 30.4451 241.576 30.4318 241.398 30.4318C240.973 30.4318 240.595 30.5208 240.261 30.6989C239.932 30.8731 239.67 31.1155 239.477 31.4261C239.288 31.733 239.193 32.0833 239.193 32.4773V38H237.852ZM248.148 29.2727V30.4091H243.625V29.2727H248.148ZM244.943 27.1818H246.284V35.5C246.284 35.8788 246.339 36.1629 246.449 36.3523C246.563 36.5379 246.706 36.6629 246.881 36.7273C247.059 36.7879 247.246 36.8182 247.443 36.8182C247.591 36.8182 247.712 36.8106 247.807 36.7955C247.902 36.7765 247.977 36.7614 248.034 36.75L248.307 37.9545C248.216 37.9886 248.089 38.0227 247.926 38.0568C247.763 38.0947 247.557 38.1136 247.307 38.1136C246.928 38.1136 246.557 38.0322 246.193 37.8693C245.833 37.7064 245.534 37.4583 245.295 37.125C245.061 36.7917 244.943 36.3712 244.943 35.8636V27.1818Z" fill="#344054"/>
<path fill-rule="evenodd" clip-rule="evenodd" d="M417.114 25.6139C417.255 25.4732 417.445 25.3942 417.644 25.3942C417.843 25.3942 418.034 25.4732 418.175 25.6139L423.478 30.9172L428.781 25.6139C428.922 25.4732 429.113 25.3942 429.312 25.3942C429.51 25.3942 429.701 25.4732 429.842 25.6139C429.983 25.7545 430.062 25.9453 430.062 26.1442C430.062 26.3431 429.983 26.5339 429.842 26.6745L424.539 31.9778L429.842 37.2811C429.983 37.4218 430.062 37.6126 430.062 37.8115C430.062 38.0104 429.983 38.2012 429.842 38.3418C429.701 38.4825 429.51 38.5615 429.312 38.5615C429.113 38.5615 428.922 38.4825 428.781 38.3418L423.478 33.0385L418.175 38.3418C418.034 38.4825 417.843 38.5615 417.644 38.5615C417.445 38.5615 417.255 38.4825 417.114 38.3418C416.973 38.2012 416.894 38.0104 416.894 37.8115C416.894 37.6126 416.973 37.4218 417.114 37.2811L422.417 31.9778L417.114 26.6745C416.973 26.5339 416.894 26.3431 416.894 26.1442C416.894 25.9453 416.973 25.7545 417.114 25.6139Z" fill="#344054"/>
<path d="M10.5 1H455.5V-1H10.5V1ZM458.5 4V60H460.5V4H458.5ZM455.5 63H10.5V65H455.5V63ZM7.5 60V4H5.5V60H7.5ZM10.5 63C8.84314 63 7.5 61.6569 7.5 60H5.5C5.5 62.7614 7.73857 65 10.5 65V63ZM458.5 60C458.5 61.6569 457.157 63 455.5 63V65C458.261 65 460.5 62.7614 460.5 60H458.5ZM455.5 1C457.157 1 458.5 2.34314 458.5 4H460.5C460.5 1.23858 458.261 -1 455.5 -1V1ZM10.5 -1C7.73858 -1 5.5 1.23858 5.5 4H7.5C7.5 2.34315 8.84315 1 10.5 1V-1Z" fill="#58A1D4"/>
<rect x="6.5" width="453" height="16" fill="#E8178A" fill-opacity="0.24"/>
<rect x="6.5" y="48" width="453" height="16" fill="#E8178A" fill-opacity="0.24"/>
<rect x="6.5" width="24" height="64" fill="#E8178A" fill-opacity="0.24"/>
<rect x="435.5" width="24" height="64" fill="#E8178A" fill-opacity="0.24"/>
<path d="M467 0V64" stroke="#E8178A"/>
<rect x="471.5" y="24.5" width="38" height="18" rx="3" fill="#E8178A"/>
<path d="M480.881 37.5994C482.5 37.6065 483.604 36.5447 483.601 35.0639C483.604 33.7003 482.653 32.7166 481.364 32.7166C480.565 32.7166 479.858 33.1001 479.531 33.7429H479.482C479.489 32.326 479.986 31.4453 480.934 31.4453C481.491 31.4453 481.893 31.7507 482.01 32.2585H483.526C483.381 31.0618 482.386 30.1278 480.934 30.1278C479.137 30.1278 477.983 31.5838 477.976 34.027C477.972 36.6903 479.386 37.5923 480.881 37.5994ZM480.874 36.392C480.163 36.392 479.638 35.8203 479.638 35.1101C479.641 34.4034 480.178 33.8281 480.884 33.8281C481.594 33.8281 482.113 34.3857 482.109 35.1065C482.113 35.8345 481.584 36.392 480.874 36.392ZM484.581 36.2216H488.072V37.5H489.542V36.2216H490.444V34.9893H489.542V30.2273H487.617L484.581 35.0107V36.2216ZM488.1 34.9893H486.129V34.9325L488.043 31.9034H488.1V34.9893ZM491.483 39.5455H492.995V36.6264H493.042C493.251 37.081 493.709 37.5888 494.59 37.5888C495.833 37.5888 496.802 36.6051 496.802 34.7798C496.802 32.9048 495.79 31.9744 494.593 31.9744C493.681 31.9744 493.244 32.5178 493.042 32.9616H492.974V32.0455H491.483V39.5455ZM492.963 34.7727C492.963 33.7997 493.375 33.1783 494.11 33.1783C494.86 33.1783 495.257 33.8281 495.257 34.7727C495.257 35.7244 494.853 36.3849 494.11 36.3849C493.382 36.3849 492.963 35.7457 492.963 34.7727ZM498.87 32.0455H497.307L498.87 34.7727L497.251 37.5H498.813L499.871 35.6143L500.947 37.5H502.492L500.869 34.7727L502.449 32.0455H500.898L499.871 33.9524L498.87 32.0455Z" fill="white"/>
<line x1="463.5" y1="0.5" x2="470.5" y2="0.5" stroke="#E8178A"/>
<line x1="463.5" y1="63.5" x2="470.5" y2="63.5" stroke="#E8178A"/>
<path d="M435.5 71.5H459.5" stroke="#E8178A"/>
<rect x="429" y="76" width="37" height="18" rx="3" fill="#E8178A"/>
<path d="M435.589 89H440.774V87.7429H437.72V87.6932L438.782 86.6527C440.277 85.2891 440.678 84.6072 440.678 83.7798C440.678 82.5192 439.648 81.6278 438.089 81.6278C436.562 81.6278 435.515 82.5405 435.518 83.968H436.978C436.974 83.272 437.415 82.8459 438.079 82.8459C438.718 82.8459 439.194 83.2436 439.194 83.8828C439.194 84.4616 438.839 84.8594 438.178 85.495L435.589 87.892V89ZM441.622 87.7216H445.113V89H446.583V87.7216H447.485V86.4893H446.583V81.7273H444.658L441.622 86.5107V87.7216ZM445.141 86.4893H443.17V86.4325L445.084 83.4034H445.141V86.4893ZM448.524 91.0455H450.036V88.1264H450.083C450.292 88.581 450.75 89.0888 451.631 89.0888C452.874 89.0888 453.843 88.1051 453.843 86.2798C453.843 84.4048 452.831 83.4744 451.634 83.4744C450.722 83.4744 450.285 84.0178 450.083 84.4616H450.015V83.5455H448.524V91.0455ZM450.004 86.2727C450.004 85.2997 450.416 84.6783 451.151 84.6783C451.901 84.6783 452.298 85.3281 452.298 86.2727C452.298 87.2244 451.894 87.8849 451.151 87.8849C450.423 87.8849 450.004 87.2457 450.004 86.2727ZM455.911 83.5455H454.348L455.911 86.2727L454.292 89H455.854L456.912 87.1143L457.988 89H459.533L457.91 86.2727L459.49 83.5455H457.939L456.912 85.4524L455.911 83.5455Z" fill="white"/>
<line x1="436" y1="75" x2="436" y2="68" stroke="#E8178A"/>
<line x1="459" y1="75" x2="459" y2="68" stroke="#E8178A"/>
<path d="M6.5 71.5H30.5" stroke="#E8178A"/>
<rect y="76" width="37" height="18" rx="3" fill="#E8178A"/>
<path d="M6.58949 89H11.7741V87.7429H8.72017V87.6932L9.78196 86.6527C11.277 85.2891 11.6783 84.6072 11.6783 83.7798C11.6783 82.5192 10.6484 81.6278 9.08949 81.6278C7.5625 81.6278 6.51491 82.5405 6.51847 83.968H7.97798C7.97443 83.272 8.41477 82.8459 9.07884 82.8459C9.71804 82.8459 10.1939 83.2436 10.1939 83.8828C10.1939 84.4616 9.83878 84.8594 9.17827 85.495L6.58949 87.892V89ZM12.622 87.7216H16.1127V89H17.5829V87.7216H18.4849V86.4893H17.5829V81.7273H15.6582L12.622 86.5107V87.7216ZM16.1412 86.4893H14.1703V86.4325L16.0843 83.4034H16.1412V86.4893ZM19.5236 91.0455H21.0364V88.1264H21.0826C21.2921 88.581 21.7502 89.0888 22.6309 89.0888C23.8738 89.0888 24.8432 88.1051 24.8432 86.2798C24.8432 84.4048 23.8311 83.4744 22.6344 83.4744C21.7218 83.4744 21.285 84.0178 21.0826 84.4616H21.0151V83.5455H19.5236V91.0455ZM21.0044 86.2727C21.0044 85.2997 21.4164 84.6783 22.1515 84.6783C22.9007 84.6783 23.2985 85.3281 23.2985 86.2727C23.2985 87.2244 22.8936 87.8849 22.1515 87.8849C21.4235 87.8849 21.0044 87.2457 21.0044 86.2727ZM26.9109 83.5455H25.3484L26.9109 86.2727L25.2915 89H26.854L27.9123 87.1143L28.9883 89H30.533L28.9102 86.2727L30.4904 83.5455H28.9386L27.9123 85.4524L26.9109 83.5455Z" fill="white"/>
<line x1="7" y1="75" x2="7" y2="68" stroke="#E8178A"/>
<line x1="30" y1="75" x2="30" y2="68" stroke="#E8178A"/>
<path d="M54.5 71.5H70.5" stroke="#E8178A"/>
<rect x="48" y="76" width="36" height="18" rx="3" fill="#E8178A"/>
<path d="M57.7536 81.7273V89H56.2159V83.1868H56.1733L54.5078 84.2308V82.8672L56.3082 81.7273H57.7536ZM62.2733 89.0994C61.8992 89.0971 61.5382 89.0343 61.1902 88.9112C60.8445 88.7881 60.5344 88.5881 60.2598 88.3111C59.9851 88.0341 59.7673 87.6671 59.6064 87.2102C59.4477 86.7533 59.3684 86.1922 59.3684 85.527C59.3708 84.9162 59.4406 84.3705 59.5779 83.8899C59.7176 83.407 59.9165 82.9974 60.1745 82.6612C60.435 82.325 60.7463 82.0694 61.1085 81.8942C61.4707 81.7166 61.8767 81.6278 62.3265 81.6278C62.8118 81.6278 63.2404 81.7225 63.612 81.9119C63.9837 82.099 64.282 82.3535 64.5069 82.6754C64.7342 82.9974 64.8715 83.3584 64.9189 83.7585H63.4025C63.3433 83.5052 63.219 83.3063 63.0297 83.1619C62.8403 83.0175 62.6059 82.9453 62.3265 82.9453C61.853 82.9453 61.4932 83.1513 61.247 83.5632C61.0031 83.9751 60.8788 84.535 60.8741 85.2429H60.9238C61.0327 85.0275 61.1795 84.844 61.3642 84.6925C61.5512 84.5386 61.7631 84.4214 61.9998 84.3409C62.2389 84.258 62.4911 84.2166 62.7562 84.2166C63.1871 84.2166 63.5706 84.3184 63.9068 84.522C64.243 84.7232 64.5081 85.0002 64.7022 85.353C64.8964 85.7057 64.9934 86.1094 64.9934 86.5639C64.9934 87.0563 64.8786 87.4943 64.649 87.8778C64.4217 88.2614 64.1033 88.562 63.6937 88.7798C63.2865 88.9953 62.813 89.1018 62.2733 89.0994ZM62.2662 87.892C62.5029 87.892 62.7148 87.8352 62.9018 87.7216C63.0888 87.608 63.2356 87.4541 63.3422 87.2599C63.4487 87.0658 63.502 86.848 63.502 86.6065C63.502 86.3651 63.4487 86.1484 63.3422 85.9567C63.238 85.7649 63.0936 85.6122 62.9089 85.4986C62.7243 85.3849 62.5136 85.3281 62.2768 85.3281C62.0993 85.3281 61.9347 85.3613 61.7832 85.4276C61.6341 85.4938 61.5027 85.5862 61.389 85.7045C61.2778 85.8229 61.1902 85.9602 61.1262 86.1165C61.0623 86.2704 61.0304 86.4349 61.0304 86.6101C61.0304 86.8445 61.0836 87.0587 61.1902 87.2528C61.2991 87.447 61.4458 87.602 61.6305 87.718C61.8175 87.834 62.0294 87.892 62.2662 87.892ZM66.0978 91.0455V83.5455H67.5893V84.4616H67.6568C67.7231 84.3149 67.819 84.1657 67.9444 84.0142C68.0723 83.8603 68.238 83.7325 68.4416 83.6307C68.6475 83.5265 68.9032 83.4744 69.2086 83.4744C69.6064 83.4744 69.9733 83.5786 70.3095 83.7869C70.6457 83.9929 70.9144 84.3042 71.1156 84.7209C71.3168 85.1352 71.4174 85.6548 71.4174 86.2798C71.4174 86.8883 71.3192 87.402 71.1227 87.821C70.9286 88.2377 70.6634 88.5537 70.3272 88.7692C69.9934 88.9822 69.6194 89.0888 69.2051 89.0888C68.9115 89.0888 68.6618 89.0402 68.4558 88.9432C68.2522 88.8461 68.0853 88.7242 67.9551 88.5774C67.8249 88.4283 67.7254 88.2779 67.6568 88.1264H67.6106V91.0455H66.0978ZM67.5787 86.2727C67.5787 86.5971 67.6236 86.88 67.7136 87.1214C67.8036 87.3629 67.9338 87.5511 68.1042 87.6861C68.2747 87.8187 68.4818 87.8849 68.7257 87.8849C68.9719 87.8849 69.1802 87.8175 69.3507 87.6825C69.5211 87.5452 69.6502 87.3558 69.7377 87.1143C69.8277 86.8705 69.8727 86.59 69.8727 86.2727C69.8727 85.9579 69.8289 85.6809 69.7413 85.4418C69.6537 85.2027 69.5247 85.0156 69.3542 84.8807C69.1838 84.7457 68.9743 84.6783 68.7257 84.6783C68.4795 84.6783 68.2711 84.7434 68.1007 84.8736C67.9326 85.0038 67.8036 85.1884 67.7136 85.4276C67.6236 85.6667 67.5787 85.9484 67.5787 86.2727ZM73.4949 83.5455L74.4963 85.4524L75.5225 83.5455H77.0744L75.4941 86.2727L77.117 89H75.5723L74.4963 87.1143L73.438 89H71.8755L73.4949 86.2727L71.9324 83.5455H73.4949Z" fill="white"/>
<line x1="55" y1="75" x2="55" y2="68" stroke="#E8178A"/>
<line x1="70" y1="75" x2="70" y2="68" stroke="#E8178A"/>
<rect x="54.5" width="16" height="64" fill="#E8178A" fill-opacity="0.24"/>
</svg>
