<svg width="745" height="153" viewBox="0 0 745 153" fill="none" xmlns="http://www.w3.org/2000/svg">
<rect width="707" height="40" transform="translate(38 46)" fill="#F0F0F0"/>
<path d="M112.416 62.0145C112.416 62.0145 111.714 63.0417 112.633 64.37C112.633 64.37 112.778 63.6936 114.23 63.6936H115.973C117.619 63.6936 118.853 62.0651 118.079 60.3853C118.079 60.3853 119.24 60.5109 119.628 59.7587C120.015 59.0072 119.604 58.7062 119.023 58.7062H116.095C116.095 59.2455 115.102 59.3205 115.102 58.7062H113.457C113.457 58.7062 112.222 58.7062 112.198 59.784C112.198 59.784 112.477 59.6086 112.755 59.584V59.8713C112.755 59.8713 112.416 59.9341 112.258 60.0222C112.101 60.1095 111.871 60.3477 112.089 60.9621C112.307 61.5756 112.392 61.7886 112.392 61.7886C112.392 61.7886 112.743 61.4745 113.312 61.4745H113.978C115.163 61.4745 114.946 62.6649 113.76 62.6649C112.574 62.6649 112.417 62.0138 112.417 62.0138L112.416 62.0145Z" fill="#DB0000"/>
<path d="M118.599 60.7744C118.599 60.7744 118.999 60.7997 119.289 60.5369C119.289 60.5369 121.915 62.6549 118.019 66.9146C114.122 71.175 117.135 73.9326 117.135 73.9326C117.135 73.9326 116.433 74.6335 116.832 76C116.832 76 115.211 75.0525 113.971 73.4431C112.18 71.1176 111.085 67.5595 116.005 64.7216C116.005 64.7216 119.252 63.0302 118.599 60.7744H118.599Z" fill="#DB0000"/>
<path d="M114.586 58.3056C114.586 58.3056 115.11 57.3367 116.328 57.3367C117.288 57.3367 117.507 56.8265 117.507 56.8265C117.507 56.8265 117.926 56 120.04 56C121.977 56 123.283 56.6687 124.339 57.5619C124.339 57.5619 121.491 55.7327 118.684 58.3056H114.586Z" fill="#DB0000"/>
<path d="M126.429 64.4373C126.348 61.4132 124.089 58.1723 119.233 58.3561C123.977 54.196 132.206 63.4844 125.428 68.3646C125.428 68.3646 126.562 66.6901 126.429 64.4381V64.4373Z" fill="#DB0000"/>
<path d="M119.959 58.6902C125.881 58.5063 127.995 65.8575 124.17 69.1658L120.33 71.0877C120.33 71.0877 119.83 69.4171 121.686 67.4615C123.542 65.5075 125.333 61.8483 120.202 59.4424C120.202 59.4424 120.299 58.9414 119.961 58.6909L119.959 58.6902Z" fill="#DB0000"/>
<path d="M119.652 60.3439C119.652 60.3439 119.943 60.0597 120.04 59.8261C124.444 61.7304 123.751 64.956 121.12 67.6622C119.507 69.3826 120.007 71.2379 120.007 71.2379C120.007 71.2379 118.039 72.5071 117.361 73.6101C117.361 73.6101 114.512 71.0977 118.458 66.9276C122.331 62.8342 119.652 60.3447 119.652 60.3447V60.3439Z" fill="#DB0000"/>
<path d="M149.651 71H148.358L152.097 60.8182H153.369L157.108 71H155.815L152.773 62.429H152.693L149.651 71ZM150.128 67.0227H155.338V68.1165H150.128V67.0227ZM168.2 63.3636C168.14 62.8598 167.898 62.4688 167.474 62.1903C167.049 61.9119 166.529 61.7727 165.913 61.7727C165.462 61.7727 165.067 61.8456 164.729 61.9915C164.395 62.1373 164.133 62.3378 163.944 62.593C163.758 62.8482 163.665 63.1383 163.665 63.4631C163.665 63.7348 163.73 63.9685 163.859 64.1641C163.992 64.3563 164.161 64.517 164.366 64.6463C164.572 64.7723 164.787 64.8767 165.013 64.9595C165.238 65.0391 165.445 65.1037 165.634 65.1534L166.668 65.4318C166.933 65.5014 167.228 65.5975 167.553 65.7202C167.881 65.8428 168.195 66.0102 168.493 66.2223C168.795 66.4311 169.043 66.6996 169.239 67.0277C169.434 67.3558 169.532 67.7585 169.532 68.2358C169.532 68.786 169.388 69.2831 169.099 69.7273C168.814 70.1714 168.397 70.5244 167.847 70.7862C167.3 71.0481 166.635 71.179 165.853 71.179C165.124 71.179 164.492 71.0613 163.959 70.826C163.429 70.5907 163.011 70.2625 162.706 69.8416C162.404 69.4207 162.234 68.9318 162.194 68.375H163.467C163.5 68.7595 163.629 69.0777 163.854 69.3295C164.083 69.5781 164.371 69.7637 164.719 69.8864C165.071 70.0057 165.449 70.0653 165.853 70.0653C166.324 70.0653 166.746 69.9891 167.121 69.8366C167.495 69.6809 167.792 69.4654 168.011 69.1903C168.229 68.9119 168.339 68.5871 168.339 68.2159C168.339 67.8778 168.244 67.6027 168.055 67.3906C167.866 67.1785 167.618 67.0062 167.31 66.8736C167.001 66.741 166.668 66.625 166.31 66.5256L165.058 66.1676C164.262 65.9389 163.632 65.6125 163.168 65.1882C162.704 64.764 162.472 64.2088 162.472 63.5227C162.472 62.9527 162.626 62.4555 162.935 62.0312C163.246 61.6037 163.664 61.2723 164.188 61.0369C164.714 60.7983 165.303 60.679 165.952 60.679C166.609 60.679 167.192 60.7966 167.702 61.032C168.213 61.264 168.617 61.5821 168.915 61.9865C169.217 62.3909 169.376 62.8499 169.393 63.3636H168.2ZM171.4 71V63.3636H172.573V71H171.4ZM171.997 62.0909C171.768 62.0909 171.571 62.013 171.405 61.8572C171.243 61.7015 171.161 61.5142 171.161 61.2955C171.161 61.0767 171.243 60.8894 171.405 60.7337C171.571 60.5779 171.768 60.5 171.997 60.5C172.225 60.5 172.421 60.5779 172.583 60.7337C172.749 60.8894 172.832 61.0767 172.832 61.2955C172.832 61.5142 172.749 61.7015 172.583 61.8572C172.421 62.013 172.225 62.0909 171.997 62.0909ZM175.896 66.4062V71H174.722V63.3636H175.856V64.5568H175.955C176.134 64.169 176.406 63.8575 176.771 63.6222C177.135 63.3835 177.606 63.2642 178.183 63.2642C178.7 63.2642 179.152 63.3703 179.54 63.5824C179.928 63.7912 180.229 64.1094 180.445 64.5369C180.66 64.9612 180.768 65.4981 180.768 66.1477V71H179.594V66.2273C179.594 65.6274 179.439 65.16 179.127 64.8253C178.816 64.4872 178.388 64.3182 177.844 64.3182C177.47 64.3182 177.135 64.3994 176.84 64.5618C176.549 64.7242 176.318 64.9612 176.149 65.2727C175.98 65.5843 175.896 65.9621 175.896 66.4062ZM185.994 74.0227C185.427 74.0227 184.94 73.9498 184.532 73.804C184.125 73.6615 183.785 73.4725 183.513 73.2372C183.245 73.0052 183.031 72.7566 182.872 72.4915L183.807 71.8352C183.913 71.9744 184.047 72.1335 184.209 72.3125C184.372 72.4948 184.594 72.6522 184.876 72.7848C185.161 72.9207 185.533 72.9886 185.994 72.9886C186.611 72.9886 187.119 72.8395 187.52 72.5412C187.921 72.2429 188.122 71.7756 188.122 71.1392V69.5881H188.023C187.936 69.7273 187.814 69.8996 187.655 70.1051C187.499 70.3073 187.273 70.4879 186.979 70.647C186.687 70.8028 186.292 70.8807 185.795 70.8807C185.179 70.8807 184.625 70.7348 184.135 70.4432C183.648 70.1515 183.261 69.7273 182.976 69.1705C182.695 68.6136 182.554 67.9375 182.554 67.142C182.554 66.3598 182.691 65.6787 182.966 65.0987C183.242 64.5154 183.624 64.0646 184.115 63.7464C184.605 63.425 185.172 63.2642 185.815 63.2642C186.312 63.2642 186.707 63.3471 186.998 63.5128C187.293 63.6752 187.519 63.8608 187.675 64.0696C187.834 64.2751 187.956 64.4441 188.042 64.5767H188.162V63.3636H189.295V71.2188C189.295 71.875 189.146 72.4086 188.848 72.8196C188.553 73.2339 188.155 73.5372 187.655 73.7294C187.157 73.925 186.604 74.0227 185.994 74.0227ZM185.954 69.8267C186.425 69.8267 186.823 69.719 187.148 69.5036C187.472 69.2881 187.719 68.9782 187.888 68.5739C188.057 68.1695 188.142 67.6856 188.142 67.1222C188.142 66.572 188.059 66.0864 187.893 65.6655C187.728 65.2446 187.482 64.9148 187.157 64.6761C186.833 64.4375 186.432 64.3182 185.954 64.3182C185.457 64.3182 185.043 64.4441 184.711 64.696C184.383 64.9479 184.136 65.286 183.971 65.7102C183.808 66.1345 183.727 66.6051 183.727 67.1222C183.727 67.6525 183.81 68.1214 183.976 68.5291C184.145 68.9335 184.393 69.2517 184.721 69.4837C185.053 69.7124 185.464 69.8267 185.954 69.8267ZM193.69 71.179C193.206 71.179 192.767 71.0878 192.373 70.9055C191.978 70.7199 191.665 70.4531 191.433 70.1051C191.201 69.7538 191.085 69.3295 191.085 68.8324C191.085 68.3949 191.171 68.0402 191.344 67.7685C191.516 67.4934 191.746 67.2779 192.035 67.1222C192.323 66.9664 192.641 66.8504 192.989 66.7741C193.34 66.6946 193.693 66.6316 194.048 66.5852C194.512 66.5256 194.888 66.4808 195.177 66.451C195.468 66.4179 195.68 66.3632 195.813 66.2869C195.949 66.2107 196.017 66.0781 196.017 65.8892V65.8494C196.017 65.3589 195.883 64.9777 195.614 64.706C195.349 64.4342 194.946 64.2983 194.406 64.2983C193.846 64.2983 193.407 64.4209 193.089 64.6662C192.77 64.9115 192.547 65.1733 192.417 65.4517L191.304 65.054C191.503 64.59 191.768 64.2287 192.099 63.9702C192.434 63.7083 192.799 63.526 193.193 63.4233C193.591 63.3172 193.982 63.2642 194.366 63.2642C194.612 63.2642 194.893 63.294 195.211 63.3537C195.533 63.41 195.843 63.5277 196.141 63.7067C196.443 63.8857 196.693 64.1558 196.892 64.517C197.091 64.8783 197.19 65.3622 197.19 65.9688V71H196.017V69.9659H195.957C195.878 70.1316 195.745 70.3089 195.559 70.4979C195.374 70.6868 195.127 70.8475 194.819 70.9801C194.51 71.1127 194.134 71.179 193.69 71.179ZM193.869 70.125C194.333 70.125 194.724 70.0339 195.042 69.8516C195.364 69.6693 195.606 69.4339 195.768 69.1456C195.934 68.8572 196.017 68.554 196.017 68.2358V67.1619C195.967 67.2216 195.858 67.2763 195.689 67.326C195.523 67.3724 195.331 67.4138 195.112 67.4503C194.897 67.4834 194.686 67.5133 194.481 67.5398C194.278 67.563 194.114 67.5829 193.988 67.5994C193.684 67.6392 193.398 67.7038 193.133 67.7933C192.872 67.8795 192.659 68.0104 192.497 68.1861C192.338 68.3584 192.258 68.5937 192.258 68.892C192.258 69.2997 192.409 69.608 192.711 69.8168C193.016 70.0223 193.402 70.125 193.869 70.125ZM199.332 73.8636V63.3636H200.465V64.5767H200.604C200.691 64.4441 200.81 64.2751 200.962 64.0696C201.118 63.8608 201.34 63.6752 201.629 63.5128C201.92 63.3471 202.315 63.2642 202.812 63.2642C203.455 63.2642 204.022 63.425 204.512 63.7464C205.003 64.0679 205.385 64.5237 205.661 65.1136C205.936 65.7036 206.073 66.3996 206.073 67.2017C206.073 68.0104 205.936 68.7114 205.661 69.3047C205.385 69.8946 205.004 70.352 204.517 70.6768C204.03 70.9983 203.468 71.1591 202.832 71.1591C202.341 71.1591 201.948 71.0779 201.653 70.9155C201.358 70.7498 201.131 70.5625 200.972 70.3537C200.813 70.1416 200.691 69.9659 200.604 69.8267H200.505V73.8636H199.332ZM200.485 67.1818C200.485 67.7585 200.57 68.2673 200.739 68.7081C200.908 69.1456 201.155 69.4886 201.479 69.7372C201.804 69.9825 202.202 70.1051 202.673 70.1051C203.163 70.1051 203.572 69.9759 203.901 69.7173C204.232 69.4555 204.481 69.1042 204.646 68.6634C204.815 68.2192 204.9 67.7254 204.9 67.1818C204.9 66.6449 204.817 66.161 204.651 65.7301C204.489 65.2959 204.242 64.9529 203.911 64.701C203.582 64.4458 203.17 64.3182 202.673 64.3182C202.195 64.3182 201.794 64.4392 201.469 64.6811C201.145 64.9197 200.899 65.2545 200.734 65.6854C200.568 66.1129 200.485 66.6117 200.485 67.1818ZM210.965 71.1591C210.276 71.1591 209.671 70.995 209.151 70.6669C208.634 70.3388 208.229 69.8797 207.938 69.2898C207.649 68.6998 207.505 68.0104 207.505 67.2216C207.505 66.4261 207.649 65.7318 207.938 65.1385C208.229 64.5452 208.634 64.0845 209.151 63.7564C209.671 63.4283 210.276 63.2642 210.965 63.2642C211.655 63.2642 212.258 63.4283 212.775 63.7564C213.295 64.0845 213.7 64.5452 213.988 65.1385C214.28 65.7318 214.425 66.4261 214.425 67.2216C214.425 68.0104 214.28 68.6998 213.988 69.2898C213.7 69.8797 213.295 70.3388 212.775 70.6669C212.258 70.995 211.655 71.1591 210.965 71.1591ZM210.965 70.1051C211.489 70.1051 211.92 69.9709 212.258 69.7024C212.596 69.4339 212.846 69.081 213.009 68.6435C213.171 68.206 213.252 67.732 213.252 67.2216C213.252 66.7112 213.171 66.2356 213.009 65.7947C212.846 65.3539 212.596 64.9976 212.258 64.7259C211.92 64.4541 211.489 64.3182 210.965 64.3182C210.442 64.3182 210.011 64.4541 209.673 64.7259C209.335 64.9976 209.084 65.3539 208.922 65.7947C208.759 66.2356 208.678 66.7112 208.678 67.2216C208.678 67.732 208.759 68.206 208.922 68.6435C209.084 69.081 209.335 69.4339 209.673 69.7024C210.011 69.9709 210.442 70.1051 210.965 70.1051ZM216.216 71V63.3636H217.35V64.517H217.43C217.569 64.1392 217.821 63.8326 218.185 63.5973C218.55 63.362 218.961 63.2443 219.418 63.2443C219.504 63.2443 219.612 63.246 219.741 63.2493C219.871 63.2526 219.968 63.2576 220.035 63.2642V64.4574C219.995 64.4474 219.904 64.4325 219.761 64.4126C219.622 64.3894 219.474 64.3778 219.319 64.3778C218.948 64.3778 218.616 64.4557 218.324 64.6115C218.036 64.764 217.807 64.9761 217.638 65.2479C217.473 65.5163 217.39 65.8229 217.39 66.1676V71H216.216ZM224.395 71.1591C223.659 71.1591 223.024 70.9967 222.491 70.6719C221.96 70.3438 221.551 69.8864 221.263 69.2997C220.978 68.7098 220.835 68.0237 220.835 67.2415C220.835 66.4593 220.978 65.7699 221.263 65.1733C221.551 64.5734 221.952 64.1061 222.466 63.7713C222.983 63.4332 223.586 63.2642 224.275 63.2642C224.673 63.2642 225.066 63.3305 225.454 63.4631C225.841 63.5956 226.194 63.8111 226.513 64.1094C226.831 64.4044 227.084 64.7955 227.273 65.2827C227.462 65.7699 227.557 66.3698 227.557 67.0824V67.5795H221.67V66.5653H226.363C226.363 66.1345 226.277 65.75 226.105 65.4119C225.936 65.0739 225.694 64.8071 225.379 64.6115C225.068 64.416 224.7 64.3182 224.275 64.3182C223.808 64.3182 223.404 64.4342 223.062 64.6662C222.724 64.8949 222.464 65.1932 222.282 65.5611C222.099 65.929 222.008 66.3234 222.008 66.7443V67.4205C222.008 67.9972 222.108 68.486 222.307 68.8871C222.509 69.2848 222.789 69.5881 223.147 69.7969C223.505 70.0024 223.921 70.1051 224.395 70.1051C224.703 70.1051 224.981 70.062 225.23 69.9759C225.482 69.8864 225.699 69.7538 225.881 69.5781C226.064 69.3991 226.204 69.1771 226.304 68.9119L227.437 69.2301C227.318 69.6146 227.117 69.9527 226.836 70.2443C226.554 70.5327 226.206 70.758 225.792 70.9205C225.377 71.0795 224.912 71.1591 224.395 71.1591ZM240.398 64C240.289 63.6652 240.145 63.3653 239.966 63.1001C239.79 62.8317 239.58 62.603 239.334 62.4141C239.092 62.2251 238.817 62.081 238.509 61.9815C238.201 61.8821 237.863 61.8324 237.495 61.8324C236.892 61.8324 236.343 61.9882 235.849 62.2997C235.355 62.6113 234.963 63.0703 234.671 63.6768C234.379 64.2834 234.233 65.0275 234.233 65.9091C234.233 66.7907 234.381 67.5348 234.676 68.1413C234.971 68.7479 235.37 69.2069 235.874 69.5185C236.378 69.83 236.945 69.9858 237.574 69.9858C238.158 69.9858 238.671 69.8615 239.116 69.6129C239.563 69.361 239.911 69.0064 240.16 68.549C240.412 68.0883 240.537 67.5464 240.537 66.9233L240.915 67.0028H237.853V65.9091H241.731V67.0028C241.731 67.8414 241.552 68.5705 241.194 69.1903C240.839 69.8101 240.349 70.2907 239.722 70.6321C239.099 70.9702 238.383 71.1392 237.574 71.1392C236.673 71.1392 235.881 70.9271 235.198 70.5028C234.519 70.0786 233.988 69.4754 233.607 68.6932C233.229 67.911 233.04 66.983 233.04 65.9091C233.04 65.1037 233.148 64.3795 233.363 63.7365C233.582 63.0902 233.89 62.54 234.288 62.0859C234.686 61.6319 235.157 61.2839 235.7 61.0419C236.244 60.8 236.842 60.679 237.495 60.679C238.032 60.679 238.532 60.7602 238.996 60.9226C239.464 61.0817 239.88 61.3087 240.244 61.6037C240.612 61.8954 240.919 62.245 241.164 62.6527C241.409 63.0571 241.578 63.5062 241.671 64H240.398ZM246.786 71.1591C246.096 71.1591 245.491 70.995 244.971 70.6669C244.454 70.3388 244.049 69.8797 243.758 69.2898C243.469 68.6998 243.325 68.0104 243.325 67.2216C243.325 66.4261 243.469 65.7318 243.758 65.1385C244.049 64.5452 244.454 64.0845 244.971 63.7564C245.491 63.4283 246.096 63.2642 246.786 63.2642C247.475 63.2642 248.078 63.4283 248.595 63.7564C249.116 64.0845 249.52 64.5452 249.808 65.1385C250.1 65.7318 250.246 66.4261 250.246 67.2216C250.246 68.0104 250.1 68.6998 249.808 69.2898C249.52 69.8797 249.116 70.3388 248.595 70.6669C248.078 70.995 247.475 71.1591 246.786 71.1591ZM246.786 70.1051C247.309 70.1051 247.74 69.9709 248.078 69.7024C248.416 69.4339 248.666 69.081 248.829 68.6435C248.991 68.206 249.072 67.732 249.072 67.2216C249.072 66.7112 248.991 66.2356 248.829 65.7947C248.666 65.3539 248.416 64.9976 248.078 64.7259C247.74 64.4541 247.309 64.3182 246.786 64.3182C246.262 64.3182 245.831 64.4541 245.493 64.7259C245.155 64.9976 244.905 65.3539 244.742 65.7947C244.58 66.2356 244.499 66.7112 244.499 67.2216C244.499 67.732 244.58 68.206 244.742 68.6435C244.905 69.081 245.155 69.4339 245.493 69.7024C245.831 69.9709 246.262 70.1051 246.786 70.1051ZM258.008 63.3636L255.184 71H253.991L251.167 63.3636H252.439L254.547 69.4489H254.627L256.735 63.3636H258.008ZM262.485 71.1591C261.749 71.1591 261.114 70.9967 260.58 70.6719C260.05 70.3438 259.641 69.8864 259.352 69.2997C259.067 68.7098 258.925 68.0237 258.925 67.2415C258.925 66.4593 259.067 65.7699 259.352 65.1733C259.641 64.5734 260.042 64.1061 260.556 63.7713C261.073 63.4332 261.676 63.2642 262.365 63.2642C262.763 63.2642 263.156 63.3305 263.544 63.4631C263.931 63.5956 264.284 63.8111 264.602 64.1094C264.921 64.4044 265.174 64.7955 265.363 65.2827C265.552 65.7699 265.646 66.3698 265.646 67.0824V67.5795H259.76V66.5653H264.453C264.453 66.1345 264.367 65.75 264.195 65.4119C264.026 65.0739 263.784 64.8071 263.469 64.6115C263.157 64.416 262.789 64.3182 262.365 64.3182C261.898 64.3182 261.494 64.4342 261.152 64.6662C260.814 64.8949 260.554 65.1932 260.372 65.5611C260.189 65.929 260.098 66.3234 260.098 66.7443V67.4205C260.098 67.9972 260.198 68.486 260.396 68.8871C260.599 69.2848 260.879 69.5881 261.237 69.7969C261.595 70.0024 262.011 70.1051 262.485 70.1051C262.793 70.1051 263.071 70.062 263.32 69.9759C263.572 69.8864 263.789 69.7538 263.971 69.5781C264.153 69.3991 264.294 69.1771 264.394 68.9119L265.527 69.2301C265.408 69.6146 265.207 69.9527 264.926 70.2443C264.644 70.5327 264.296 70.758 263.882 70.9205C263.467 71.0795 263.002 71.1591 262.485 71.1591ZM267.431 71V63.3636H268.565V64.517H268.644C268.784 64.1392 269.035 63.8326 269.4 63.5973C269.765 63.362 270.176 63.2443 270.633 63.2443C270.719 63.2443 270.827 63.246 270.956 63.2493C271.085 63.2526 271.183 63.2576 271.249 63.2642V64.4574C271.21 64.4474 271.119 64.4325 270.976 64.4126C270.837 64.3894 270.689 64.3778 270.534 64.3778C270.162 64.3778 269.831 64.4557 269.539 64.6115C269.251 64.764 269.022 64.9761 268.853 65.2479C268.687 65.5163 268.605 65.8229 268.605 66.1676V71H267.431ZM273.814 66.4062V71H272.64V63.3636H273.774V64.5568H273.873C274.052 64.169 274.324 63.8575 274.689 63.6222C275.053 63.3835 275.524 63.2642 276.1 63.2642C276.618 63.2642 277.07 63.3703 277.458 63.5824C277.846 63.7912 278.147 64.1094 278.363 64.5369C278.578 64.9612 278.686 65.4981 278.686 66.1477V71H277.512V66.2273C277.512 65.6274 277.357 65.16 277.045 64.8253C276.734 64.4872 276.306 64.3182 275.762 64.3182C275.388 64.3182 275.053 64.3994 274.758 64.5618C274.467 64.7242 274.236 64.9612 274.067 65.2727C273.898 65.5843 273.814 65.9621 273.814 66.4062ZM280.83 71V63.3636H281.963V64.5568H282.063C282.222 64.1491 282.479 63.8326 282.833 63.6072C283.188 63.3786 283.614 63.2642 284.111 63.2642C284.615 63.2642 285.034 63.3786 285.369 63.6072C285.707 63.8326 285.97 64.1491 286.159 64.5568H286.239C286.434 64.1624 286.728 63.8492 287.119 63.6172C287.51 63.3819 287.979 63.2642 288.526 63.2642C289.209 63.2642 289.767 63.478 290.201 63.9055C290.635 64.3298 290.852 64.991 290.852 65.8892V71H289.679V65.8892C289.679 65.3258 289.525 64.9231 289.217 64.6811C288.909 64.4392 288.546 64.3182 288.128 64.3182C287.591 64.3182 287.175 64.4806 286.88 64.8054C286.585 65.1269 286.438 65.5346 286.438 66.0284V71H285.244V65.7699C285.244 65.3357 285.104 64.986 284.822 64.7209C284.54 64.4524 284.177 64.3182 283.733 64.3182C283.428 64.3182 283.143 64.3994 282.878 64.5618C282.616 64.7242 282.404 64.9496 282.242 65.2379C282.083 65.523 282.003 65.8527 282.003 66.2273V71H280.83ZM296.199 71.1591C295.464 71.1591 294.829 70.9967 294.295 70.6719C293.765 70.3438 293.356 69.8864 293.067 69.2997C292.782 68.7098 292.64 68.0237 292.64 67.2415C292.64 66.4593 292.782 65.7699 293.067 65.1733C293.356 64.5734 293.757 64.1061 294.27 63.7713C294.787 63.4332 295.391 63.2642 296.08 63.2642C296.478 63.2642 296.871 63.3305 297.258 63.4631C297.646 63.5956 297.999 63.8111 298.317 64.1094C298.635 64.4044 298.889 64.7955 299.078 65.2827C299.267 65.7699 299.361 66.3698 299.361 67.0824V67.5795H293.475V66.5653H298.168C298.168 66.1345 298.082 65.75 297.91 65.4119C297.741 65.0739 297.499 64.8071 297.184 64.6115C296.872 64.416 296.504 64.3182 296.08 64.3182C295.613 64.3182 295.208 64.4342 294.867 64.6662C294.529 64.8949 294.269 65.1932 294.086 65.5611C293.904 65.929 293.813 66.3234 293.813 66.7443V67.4205C293.813 67.9972 293.912 68.486 294.111 68.8871C294.314 69.2848 294.594 69.5881 294.952 69.7969C295.309 70.0024 295.725 70.1051 296.199 70.1051C296.508 70.1051 296.786 70.062 297.035 69.9759C297.287 69.8864 297.504 69.7538 297.686 69.5781C297.868 69.3991 298.009 69.1771 298.108 68.9119L299.242 69.2301C299.123 69.6146 298.922 69.9527 298.64 70.2443C298.359 70.5327 298.011 70.758 297.596 70.9205C297.182 71.0795 296.716 71.1591 296.199 71.1591ZM302.319 66.4062V71H301.146V63.3636H302.28V64.5568H302.379C302.558 64.169 302.83 63.8575 303.194 63.6222C303.559 63.3835 304.03 63.2642 304.606 63.2642C305.123 63.2642 305.576 63.3703 305.964 63.5824C306.351 63.7912 306.653 64.1094 306.868 64.5369C307.084 64.9612 307.192 65.4981 307.192 66.1477V71H306.018V66.2273C306.018 65.6274 305.863 65.16 305.551 64.8253C305.239 64.4872 304.812 64.3182 304.268 64.3182C303.894 64.3182 303.559 64.3994 303.264 64.5618C302.972 64.7242 302.742 64.9612 302.573 65.2727C302.404 65.5843 302.319 65.9621 302.319 66.4062ZM312.657 63.3636V64.358H308.699V63.3636H312.657ZM309.853 61.5341H311.026V68.8125C311.026 69.1439 311.074 69.3925 311.17 69.5582C311.27 69.7206 311.395 69.83 311.548 69.8864C311.704 69.9394 311.868 69.9659 312.04 69.9659C312.169 69.9659 312.275 69.9593 312.358 69.946C312.441 69.9295 312.507 69.9162 312.557 69.9062L312.796 70.9602C312.716 70.9901 312.605 71.0199 312.463 71.0497C312.32 71.0829 312.14 71.0994 311.921 71.0994C311.589 71.0994 311.265 71.0282 310.946 70.8857C310.632 70.7431 310.37 70.526 310.161 70.2344C309.955 69.9427 309.853 69.5748 309.853 69.1307V61.5341ZM318.936 71H317.643L321.382 60.8182H322.654L326.393 71H325.1L322.058 62.429H321.978L318.936 71ZM319.413 67.0227H324.623V68.1165H319.413V67.0227ZM330.902 74.0227C330.336 74.0227 329.848 73.9498 329.441 73.804C329.033 73.6615 328.693 73.4725 328.422 73.2372C328.153 73.0052 327.939 72.7566 327.78 72.4915L328.715 71.8352C328.821 71.9744 328.955 72.1335 329.118 72.3125C329.28 72.4948 329.502 72.6522 329.784 72.7848C330.069 72.9207 330.442 72.9886 330.902 72.9886C331.519 72.9886 332.028 72.8395 332.429 72.5412C332.83 72.2429 333.03 71.7756 333.03 71.1392V69.5881H332.931C332.845 69.7273 332.722 69.8996 332.563 70.1051C332.407 70.3073 332.182 70.4879 331.887 70.647C331.595 70.8028 331.201 70.8807 330.703 70.8807C330.087 70.8807 329.533 70.7348 329.043 70.4432C328.556 70.1515 328.17 69.7273 327.885 69.1705C327.603 68.6136 327.462 67.9375 327.462 67.142C327.462 66.3598 327.6 65.6787 327.875 65.0987C328.15 64.5154 328.533 64.0646 329.023 63.7464C329.514 63.425 330.08 63.2642 330.723 63.2642C331.221 63.2642 331.615 63.3471 331.907 63.5128C332.202 63.6752 332.427 63.8608 332.583 64.0696C332.742 64.2751 332.864 64.4441 332.951 64.5767H333.07V63.3636H334.203V71.2188C334.203 71.875 334.054 72.4086 333.756 72.8196C333.461 73.2339 333.063 73.5372 332.563 73.7294C332.066 73.925 331.512 74.0227 330.902 74.0227ZM330.863 69.8267C331.333 69.8267 331.731 69.719 332.056 69.5036C332.381 69.2881 332.627 68.9782 332.797 68.5739C332.966 68.1695 333.05 67.6856 333.05 67.1222C333.05 66.572 332.967 66.0864 332.801 65.6655C332.636 65.2446 332.391 64.9148 332.066 64.6761C331.741 64.4375 331.34 64.3182 330.863 64.3182C330.365 64.3182 329.951 64.4441 329.62 64.696C329.292 64.9479 329.045 65.286 328.879 65.7102C328.717 66.1345 328.635 66.6051 328.635 67.1222C328.635 67.6525 328.718 68.1214 328.884 68.5291C329.053 68.9335 329.301 69.2517 329.63 69.4837C329.961 69.7124 330.372 69.8267 330.863 69.8267ZM339.553 71.1591C338.817 71.1591 338.182 70.9967 337.649 70.6719C337.118 70.3438 336.709 69.8864 336.421 69.2997C336.136 68.7098 335.993 68.0237 335.993 67.2415C335.993 66.4593 336.136 65.7699 336.421 65.1733C336.709 64.5734 337.11 64.1061 337.624 63.7713C338.141 63.4332 338.744 63.2642 339.434 63.2642C339.831 63.2642 340.224 63.3305 340.612 63.4631C341 63.5956 341.353 63.8111 341.671 64.1094C341.989 64.4044 342.243 64.7955 342.431 65.2827C342.62 65.7699 342.715 66.3698 342.715 67.0824V67.5795H336.828V66.5653H341.522C341.522 66.1345 341.435 65.75 341.263 65.4119C341.094 65.0739 340.852 64.8071 340.537 64.6115C340.226 64.416 339.858 64.3182 339.434 64.3182C338.966 64.3182 338.562 64.4342 338.221 64.6662C337.882 64.8949 337.622 65.1932 337.44 65.5611C337.258 65.929 337.167 66.3234 337.167 66.7443V67.4205C337.167 67.9972 337.266 68.486 337.465 68.8871C337.667 69.2848 337.947 69.5881 338.305 69.7969C338.663 70.0024 339.079 70.1051 339.553 70.1051C339.861 70.1051 340.14 70.062 340.388 69.9759C340.64 69.8864 340.857 69.7538 341.039 69.5781C341.222 69.3991 341.363 69.1771 341.462 68.9119L342.596 69.2301C342.476 69.6146 342.276 69.9527 341.994 70.2443C341.712 70.5327 341.364 70.758 340.95 70.9205C340.536 71.0795 340.07 71.1591 339.553 71.1591ZM345.673 66.4062V71H344.5V63.3636H345.633V64.5568H345.733C345.912 64.169 346.183 63.8575 346.548 63.6222C346.913 63.3835 347.383 63.2642 347.96 63.2642C348.477 63.2642 348.929 63.3703 349.317 63.5824C349.705 63.7912 350.007 64.1094 350.222 64.5369C350.437 64.9612 350.545 65.4981 350.545 66.1477V71H349.372V66.2273C349.372 65.6274 349.216 65.16 348.904 64.8253C348.593 64.4872 348.165 64.3182 347.622 64.3182C347.247 64.3182 346.913 64.3994 346.618 64.5618C346.326 64.7242 346.096 64.9612 345.926 65.2727C345.757 65.5843 345.673 65.9621 345.673 66.4062ZM355.791 71.1591C355.075 71.1591 354.459 70.9901 353.942 70.652C353.425 70.3139 353.027 69.8482 352.749 69.255C352.47 68.6617 352.331 67.9839 352.331 67.2216C352.331 66.446 352.474 65.7616 352.759 65.1683C353.047 64.5717 353.448 64.1061 353.962 63.7713C354.479 63.4332 355.082 63.2642 355.771 63.2642C356.308 63.2642 356.792 63.3636 357.223 63.5625C357.654 63.7614 358.007 64.0398 358.282 64.3977C358.557 64.7557 358.728 65.1733 358.794 65.6506H357.621C357.531 65.3026 357.333 64.9943 357.024 64.7259C356.719 64.4541 356.308 64.3182 355.791 64.3182C355.334 64.3182 354.933 64.4375 354.588 64.6761C354.247 64.9115 353.98 65.2446 353.788 65.6754C353.599 66.103 353.504 66.6051 353.504 67.1818C353.504 67.7718 353.597 68.2855 353.783 68.723C353.972 69.1605 354.237 69.5002 354.578 69.7422C354.923 69.9841 355.327 70.1051 355.791 70.1051C356.096 70.1051 356.373 70.0521 356.622 69.946C356.87 69.84 357.081 69.6875 357.253 69.4886C357.425 69.2898 357.548 69.0511 357.621 68.7727H358.794C358.728 69.2235 358.564 69.6295 358.302 69.9908C358.044 70.3487 357.7 70.6338 357.273 70.8459C356.849 71.0547 356.355 71.1591 355.791 71.1591ZM361.265 73.8636C361.066 73.8636 360.889 73.8471 360.733 73.8139C360.577 73.7841 360.47 73.7543 360.41 73.7244L360.708 72.6903C360.993 72.7633 361.245 72.7898 361.464 72.7699C361.683 72.75 361.877 72.6522 362.046 72.4766C362.218 72.3042 362.375 72.0241 362.518 71.6364L362.737 71.0398L359.913 63.3636H361.186L363.294 69.4489H363.373L365.481 63.3636H366.754L363.512 72.1136C363.366 72.508 363.186 72.8345 362.97 73.093C362.755 73.3549 362.505 73.5488 362.22 73.6747C361.938 73.8007 361.62 73.8636 361.265 73.8636ZM374.248 71L371.464 60.8182H372.717L374.845 69.1108H374.944L377.112 60.8182H378.504L380.672 69.1108H380.771L382.899 60.8182H384.152L381.368 71H380.095L377.848 62.8864H377.768L375.521 71H374.248ZM388.02 71.1591C387.284 71.1591 386.649 70.9967 386.116 70.6719C385.585 70.3438 385.176 69.8864 384.888 69.2997C384.603 68.7098 384.46 68.0237 384.46 67.2415C384.46 66.4593 384.603 65.7699 384.888 65.1733C385.176 64.5734 385.577 64.1061 386.091 63.7713C386.608 63.4332 387.211 63.2642 387.9 63.2642C388.298 63.2642 388.691 63.3305 389.079 63.4631C389.466 63.5956 389.819 63.8111 390.138 64.1094C390.456 64.4044 390.709 64.7955 390.898 65.2827C391.087 65.7699 391.182 66.3698 391.182 67.0824V67.5795H385.295V66.5653H389.988C389.988 66.1345 389.902 65.75 389.73 65.4119C389.561 65.0739 389.319 64.8071 389.004 64.6115C388.693 64.416 388.325 64.3182 387.9 64.3182C387.433 64.3182 387.029 64.4342 386.687 64.6662C386.349 64.8949 386.089 65.1932 385.907 65.5611C385.724 65.929 385.633 66.3234 385.633 66.7443V67.4205C385.633 67.9972 385.733 68.486 385.932 68.8871C386.134 69.2848 386.414 69.5881 386.772 69.7969C387.13 70.0024 387.546 70.1051 388.02 70.1051C388.328 70.1051 388.606 70.062 388.855 69.9759C389.107 69.8864 389.324 69.7538 389.506 69.5781C389.689 69.3991 389.829 69.1771 389.929 68.9119L391.062 69.2301C390.943 69.6146 390.742 69.9527 390.461 70.2443C390.179 70.5327 389.831 70.758 389.417 70.9205C389.002 71.0795 388.537 71.1591 388.02 71.1591ZM393.126 71V60.8182H394.299V64.5767H394.398C394.484 64.4441 394.604 64.2751 394.756 64.0696C394.912 63.8608 395.134 63.6752 395.422 63.5128C395.714 63.3471 396.108 63.2642 396.606 63.2642C397.249 63.2642 397.815 63.425 398.306 63.7464C398.796 64.0679 399.179 64.5237 399.454 65.1136C399.729 65.7036 399.867 66.3996 399.867 67.2017C399.867 68.0104 399.729 68.7114 399.454 69.3047C399.179 69.8946 398.798 70.352 398.311 70.6768C397.824 70.9983 397.262 71.1591 396.626 71.1591C396.135 71.1591 395.742 71.0779 395.447 70.9155C395.152 70.7498 394.925 70.5625 394.766 70.3537C394.607 70.1416 394.484 69.9659 394.398 69.8267H394.259V71H393.126ZM394.279 67.1818C394.279 67.7585 394.363 68.2673 394.532 68.7081C394.702 69.1456 394.948 69.4886 395.273 69.7372C395.598 69.9825 395.996 70.1051 396.466 70.1051C396.957 70.1051 397.366 69.9759 397.694 69.7173C398.026 69.4555 398.274 69.1042 398.44 68.6634C398.609 68.2192 398.694 67.7254 398.694 67.1818C398.694 66.6449 398.611 66.161 398.445 65.7301C398.283 65.2959 398.036 64.9529 397.704 64.701C397.376 64.4458 396.964 64.3182 396.466 64.3182C395.989 64.3182 395.588 64.4392 395.263 64.6811C394.939 64.9197 394.693 65.2545 394.528 65.6854C394.362 66.1129 394.279 66.6117 394.279 67.1818ZM407.071 65.0739L406.017 65.3722C405.951 65.1965 405.853 65.0258 405.724 64.8601C405.598 64.6911 405.425 64.5518 405.206 64.4425C404.988 64.3331 404.708 64.2784 404.366 64.2784C403.899 64.2784 403.51 64.3861 403.198 64.6016C402.89 64.8137 402.736 65.0838 402.736 65.4119C402.736 65.7036 402.842 65.9339 403.054 66.103C403.266 66.272 403.597 66.4129 404.048 66.5256L405.182 66.804C405.864 66.9697 406.373 67.2232 406.708 67.5646C407.043 67.9027 407.21 68.3385 407.21 68.8722C407.21 69.3097 407.084 69.7008 406.832 70.0455C406.584 70.3902 406.236 70.6619 405.788 70.8608C405.341 71.0597 404.82 71.1591 404.227 71.1591C403.448 71.1591 402.804 70.9901 402.293 70.652C401.783 70.3139 401.46 69.8201 401.324 69.1705L402.437 68.892C402.543 69.303 402.744 69.6113 403.039 69.8168C403.337 70.0223 403.727 70.125 404.207 70.125C404.754 70.125 405.188 70.009 405.51 69.777C405.835 69.5417 405.997 69.2599 405.997 68.9318C405.997 68.6667 405.904 68.4446 405.719 68.2656C405.533 68.0833 405.248 67.9474 404.863 67.858L403.591 67.5597C402.891 67.3939 402.378 67.1371 402.05 66.7891C401.725 66.4377 401.562 65.9986 401.562 65.4716C401.562 65.0407 401.683 64.6596 401.925 64.3281C402.171 63.9967 402.504 63.7365 402.925 63.5476C403.349 63.3587 403.829 63.2642 404.366 63.2642C405.122 63.2642 405.715 63.4299 406.146 63.7614C406.58 64.0928 406.889 64.5303 407.071 65.0739ZM408.976 71V63.3636H410.15V71H408.976ZM409.573 62.0909C409.344 62.0909 409.147 62.013 408.981 61.8572C408.819 61.7015 408.738 61.5142 408.738 61.2955C408.738 61.0767 408.819 60.8894 408.981 60.7337C409.147 60.5779 409.344 60.5 409.573 60.5C409.801 60.5 409.997 60.5779 410.159 60.7337C410.325 60.8894 410.408 61.0767 410.408 61.2955C410.408 61.5142 410.325 61.7015 410.159 61.8572C409.997 62.013 409.801 62.0909 409.573 62.0909ZM415.619 63.3636V64.358H411.662V63.3636H415.619ZM412.816 61.5341H413.989V68.8125C413.989 69.1439 414.037 69.3925 414.133 69.5582C414.232 69.7206 414.358 69.83 414.511 69.8864C414.667 69.9394 414.831 69.9659 415.003 69.9659C415.132 69.9659 415.238 69.9593 415.321 69.946C415.404 69.9295 415.47 69.9162 415.52 69.9062L415.759 70.9602C415.679 70.9901 415.568 71.0199 415.426 71.0497C415.283 71.0829 415.102 71.0994 414.884 71.0994C414.552 71.0994 414.227 71.0282 413.909 70.8857C413.594 70.7431 413.333 70.526 413.124 70.2344C412.918 69.9427 412.816 69.5748 412.816 69.1307V61.5341ZM420.504 71.1591C419.768 71.1591 419.134 70.9967 418.6 70.6719C418.07 70.3438 417.66 69.8864 417.372 69.2997C417.087 68.7098 416.944 68.0237 416.944 67.2415C416.944 66.4593 417.087 65.7699 417.372 65.1733C417.66 64.5734 418.061 64.1061 418.575 63.7713C419.092 63.4332 419.695 63.2642 420.385 63.2642C420.782 63.2642 421.175 63.3305 421.563 63.4631C421.951 63.5956 422.304 63.8111 422.622 64.1094C422.94 64.4044 423.194 64.7955 423.383 65.2827C423.572 65.7699 423.666 66.3698 423.666 67.0824V67.5795H417.78V66.5653H422.473C422.473 66.1345 422.387 65.75 422.214 65.4119C422.045 65.0739 421.803 64.8071 421.488 64.6115C421.177 64.416 420.809 64.3182 420.385 64.3182C419.917 64.3182 419.513 64.4342 419.172 64.6662C418.834 64.8949 418.573 65.1932 418.391 65.5611C418.209 65.929 418.118 66.3234 418.118 66.7443V67.4205C418.118 67.9972 418.217 68.486 418.416 68.8871C418.618 69.2848 418.898 69.5881 419.256 69.7969C419.614 70.0024 420.03 70.1051 420.504 70.1051C420.812 70.1051 421.091 70.062 421.339 69.9759C421.591 69.8864 421.808 69.7538 421.991 69.5781C422.173 69.3991 422.314 69.1771 422.413 68.9119L423.547 69.2301C423.427 69.6146 423.227 69.9527 422.945 70.2443C422.663 70.5327 422.315 70.758 421.901 70.9205C421.487 71.0795 421.021 71.1591 420.504 71.1591Z" fill="#344054"/>
<path d="M441.885 71V60.8182H444.038V65.0192H448.408V60.8182H450.555V71H448.408V66.794H444.038V71H441.885ZM455.741 71.1491C454.969 71.1491 454.301 70.9851 453.737 70.657C453.177 70.3255 452.745 69.8648 452.44 69.2749C452.135 68.6816 451.982 67.9938 451.982 67.2116C451.982 66.4228 452.135 65.7334 452.44 65.1435C452.745 64.5502 453.177 64.0895 453.737 63.7614C454.301 63.4299 454.969 63.2642 455.741 63.2642C456.513 63.2642 457.179 63.4299 457.739 63.7614C458.303 64.0895 458.737 64.5502 459.042 65.1435C459.347 65.7334 459.499 66.4228 459.499 67.2116C459.499 67.9938 459.347 68.6816 459.042 69.2749C458.737 69.8648 458.303 70.3255 457.739 70.657C457.179 70.9851 456.513 71.1491 455.741 71.1491ZM455.751 69.5085C456.102 69.5085 456.395 69.4091 456.631 69.2102C456.866 69.008 457.043 68.733 457.163 68.3849C457.285 68.0369 457.347 67.6409 457.347 67.1967C457.347 66.7526 457.285 66.3565 457.163 66.0085C457.043 65.6605 456.866 65.3854 456.631 65.1832C456.395 64.9811 456.102 64.88 455.751 64.88C455.396 64.88 455.098 64.9811 454.856 65.1832C454.617 65.3854 454.437 65.6605 454.314 66.0085C454.195 66.3565 454.135 66.7526 454.135 67.1967C454.135 67.6409 454.195 68.0369 454.314 68.3849C454.437 68.733 454.617 69.008 454.856 69.2102C455.098 69.4091 455.396 69.5085 455.751 69.5085ZM462.191 71L460.113 63.3636H462.256L463.439 68.4943H463.509L464.742 63.3636H466.845L468.098 68.4645H468.162L469.326 63.3636H471.463L469.39 71H467.148L465.836 66.1974H465.741L464.429 71H462.191ZM479.895 63.3636V64.9545H475.297V63.3636H479.895ZM476.341 61.5341H478.458V68.6534C478.458 68.849 478.488 69.0014 478.548 69.1108C478.608 69.2169 478.69 69.2914 478.797 69.3345C478.906 69.3776 479.032 69.3991 479.174 69.3991C479.274 69.3991 479.373 69.3909 479.473 69.3743C479.572 69.3544 479.648 69.3395 479.701 69.3295L480.034 70.9055C479.928 70.9387 479.779 70.9768 479.587 71.0199C479.395 71.0663 479.161 71.0945 478.886 71.1044C478.376 71.1243 477.928 71.0563 477.544 70.9006C477.163 70.7448 476.866 70.5028 476.654 70.1747C476.442 69.8466 476.337 69.4323 476.341 68.9318V61.5341ZM484.643 71.1491C483.871 71.1491 483.203 70.9851 482.64 70.657C482.079 70.3255 481.647 69.8648 481.342 69.2749C481.037 68.6816 480.885 67.9938 480.885 67.2116C480.885 66.4228 481.037 65.7334 481.342 65.1435C481.647 64.5502 482.079 64.0895 482.64 63.7614C483.203 63.4299 483.871 63.2642 484.643 63.2642C485.415 63.2642 486.082 63.4299 486.642 63.7614C487.205 64.0895 487.639 64.5502 487.944 65.1435C488.249 65.7334 488.402 66.4228 488.402 67.2116C488.402 67.9938 488.249 68.6816 487.944 69.2749C487.639 69.8648 487.205 70.3255 486.642 70.657C486.082 70.9851 485.415 71.1491 484.643 71.1491ZM484.653 69.5085C485.004 69.5085 485.298 69.4091 485.533 69.2102C485.768 69.008 485.946 68.733 486.065 68.3849C486.188 68.0369 486.249 67.6409 486.249 67.1967C486.249 66.7526 486.188 66.3565 486.065 66.0085C485.946 65.6605 485.768 65.3854 485.533 65.1832C485.298 64.9811 485.004 64.88 484.653 64.88C484.298 64.88 484 64.9811 483.758 65.1832C483.52 65.3854 483.339 65.6605 483.216 66.0085C483.097 66.3565 483.037 66.7526 483.037 67.1967C483.037 67.6409 483.097 68.0369 483.216 68.3849C483.339 68.733 483.52 69.008 483.758 69.2102C484 69.4091 484.298 69.5085 484.653 69.5085ZM493.019 71V63.3636H495.137V71H493.019ZM494.083 62.3793C493.768 62.3793 493.498 62.2749 493.273 62.0661C493.05 61.8539 492.939 61.6004 492.939 61.3054C492.939 61.0137 493.05 60.7635 493.273 60.5547C493.498 60.3426 493.768 60.2365 494.083 60.2365C494.398 60.2365 494.666 60.3426 494.888 60.5547C495.114 60.7635 495.226 61.0137 495.226 61.3054C495.226 61.6004 495.114 61.8539 494.888 62.0661C494.666 62.2749 494.398 62.3793 494.083 62.3793ZM499.647 71.1243C499.067 71.1243 498.542 70.9751 498.071 70.6768C497.604 70.3752 497.233 69.9328 496.958 69.3494C496.686 68.7628 496.55 68.0436 496.55 67.1918C496.55 66.3168 496.691 65.5893 496.973 65.0092C497.254 64.4259 497.629 63.9901 498.096 63.7017C498.567 63.41 499.082 63.2642 499.642 63.2642C500.07 63.2642 500.426 63.3371 500.711 63.483C501 63.6255 501.232 63.8045 501.407 64.0199C501.586 64.232 501.722 64.4408 501.815 64.6463H501.88V60.8182H503.993V71H501.904V69.777H501.815C501.716 69.9891 501.575 70.1996 501.392 70.4084C501.213 70.6139 500.98 70.7846 500.691 70.9205C500.406 71.0563 500.058 71.1243 499.647 71.1243ZM500.319 69.4389C500.66 69.4389 500.948 69.3461 501.184 69.1605C501.422 68.9716 501.605 68.7081 501.73 68.37C501.86 68.032 501.924 67.6359 501.924 67.1818C501.924 66.7277 501.861 66.3333 501.735 65.9986C501.609 65.6638 501.427 65.4053 501.189 65.223C500.95 65.0407 500.66 64.9496 500.319 64.9496C499.971 64.9496 499.677 65.044 499.439 65.233C499.2 65.4219 499.019 65.6837 498.897 66.0185C498.774 66.3532 498.713 66.741 498.713 67.1818C498.713 67.6259 498.774 68.0187 498.897 68.3601C499.023 68.6982 499.203 68.9633 499.439 69.1555C499.677 69.3445 499.971 69.4389 500.319 69.4389ZM509.214 71.1491C508.428 71.1491 507.752 70.9901 507.186 70.6719C506.622 70.3504 506.188 69.8963 505.883 69.3097C505.578 68.7197 505.426 68.022 505.426 67.2166C505.426 66.4311 505.578 65.7417 505.883 65.1484C506.188 64.5552 506.617 64.0928 507.171 63.7614C507.727 63.4299 508.38 63.2642 509.129 63.2642C509.633 63.2642 510.102 63.3454 510.536 63.5078C510.974 63.6669 511.355 63.9072 511.68 64.2287C512.008 64.5502 512.263 64.9545 512.445 65.4418C512.628 65.9257 512.719 66.4924 512.719 67.142V67.7237H506.271V66.4112H510.725C510.725 66.1063 510.659 65.8362 510.526 65.6009C510.394 65.3655 510.21 65.1816 509.975 65.049C509.743 64.9131 509.472 64.8452 509.164 64.8452C508.843 64.8452 508.558 64.9197 508.309 65.0689C508.064 65.2147 507.872 65.4119 507.732 65.6605C507.593 65.9058 507.522 66.1792 507.519 66.4808V67.7287C507.519 68.1065 507.588 68.433 507.727 68.7081C507.87 68.9832 508.07 69.1953 508.329 69.3445C508.588 69.4936 508.894 69.5682 509.249 69.5682C509.484 69.5682 509.7 69.535 509.895 69.4688C510.091 69.4025 510.258 69.303 510.397 69.1705C510.536 69.0379 510.642 68.8755 510.715 68.6832L512.674 68.8125C512.575 69.2831 512.371 69.6941 512.063 70.0455C511.758 70.3935 511.363 70.6652 510.879 70.8608C510.399 71.053 509.844 71.1491 509.214 71.1491ZM516.219 66.5852V71H514.101V63.3636H516.119V64.7109H516.209C516.378 64.2668 516.661 63.9155 517.059 63.657C517.457 63.3951 517.939 63.2642 518.506 63.2642C519.036 63.2642 519.499 63.3802 519.893 63.6122C520.287 63.8442 520.594 64.1757 520.813 64.6065C521.031 65.0341 521.141 65.5445 521.141 66.1378V71H519.023V66.5156C519.026 66.0483 518.907 65.6837 518.665 65.4219C518.423 65.1567 518.09 65.0241 517.666 65.0241C517.381 65.0241 517.129 65.0855 516.91 65.2081C516.695 65.3307 516.526 65.5097 516.403 65.745C516.284 65.977 516.222 66.2571 516.219 66.5852ZM526.872 63.3636V64.9545H522.273V63.3636H526.872ZM523.317 61.5341H525.435V68.6534C525.435 68.849 525.465 69.0014 525.525 69.1108C525.584 69.2169 525.667 69.2914 525.773 69.3345C525.882 69.3776 526.008 69.3991 526.151 69.3991C526.25 69.3991 526.35 69.3909 526.449 69.3743C526.549 69.3544 526.625 69.3395 526.678 69.3295L527.011 70.9055C526.905 70.9387 526.756 70.9768 526.564 71.0199C526.371 71.0663 526.138 71.0945 525.863 71.1044C525.352 71.1243 524.905 71.0563 524.52 70.9006C524.139 70.7448 523.842 70.5028 523.63 70.1747C523.418 69.8466 523.314 69.4323 523.317 68.9318V61.5341ZM528.251 71V63.3636H530.369V71H528.251ZM529.315 62.3793C529 62.3793 528.73 62.2749 528.505 62.0661C528.283 61.8539 528.172 61.6004 528.172 61.3054C528.172 61.0137 528.283 60.7635 528.505 60.5547C528.73 60.3426 529 60.2365 529.315 60.2365C529.63 60.2365 529.899 60.3426 530.121 60.5547C530.346 60.7635 530.459 61.0137 530.459 61.3054C530.459 61.6004 530.346 61.8539 530.121 62.0661C529.899 62.2749 529.63 62.3793 529.315 62.3793ZM536.172 63.3636V64.9545H531.459V63.3636H536.172ZM532.538 71V62.8118C532.538 62.2583 532.646 61.7992 532.861 61.4347C533.08 61.0701 533.378 60.7966 533.756 60.6143C534.134 60.4321 534.563 60.3409 535.044 60.3409C535.369 60.3409 535.665 60.3658 535.934 60.4155C536.206 60.4652 536.408 60.5099 536.54 60.5497L536.162 62.1406C536.08 62.1141 535.977 62.0893 535.854 62.0661C535.735 62.0429 535.612 62.0312 535.486 62.0312C535.175 62.0312 534.958 62.1042 534.835 62.25C534.712 62.3925 534.651 62.593 534.651 62.8516V71H532.538ZM538.774 73.8636C538.505 73.8636 538.253 73.8421 538.018 73.799C537.786 73.7592 537.594 73.7079 537.441 73.6449L537.919 72.0639C538.167 72.1402 538.391 72.1816 538.59 72.1882C538.792 72.1948 538.966 72.1484 539.112 72.049C539.261 71.9496 539.382 71.7805 539.475 71.5419L539.599 71.2188L536.86 63.3636H539.087L540.668 68.9716H540.748L542.343 63.3636H544.586L541.618 71.8253C541.475 72.2363 541.281 72.5942 541.036 72.8991C540.794 73.2074 540.487 73.4444 540.116 73.6101C539.745 73.7791 539.297 73.8636 538.774 73.8636Z" fill="#0F71BB"/>
<path d="M441 73.7841H544.824V74.7386H441V73.7841Z" fill="#0F71BB"/>
<path fill-rule="evenodd" clip-rule="evenodd" d="M563.136 62.9044C563.178 62.8614 563.229 62.8273 563.285 62.804C563.342 62.7808 563.402 62.7688 563.462 62.7688C563.523 62.7688 563.583 62.7808 563.639 62.804C563.695 62.8273 563.746 62.8614 563.789 62.9044L569 68.1164L574.211 62.9044C574.254 62.8615 574.305 62.8274 574.361 62.8042C574.417 62.781 574.477 62.769 574.538 62.769C574.599 62.769 574.659 62.781 574.715 62.8042C574.771 62.8274 574.822 62.8615 574.865 62.9044C574.908 62.9473 574.942 62.9982 574.965 63.0543C574.988 63.1103 575 63.1704 575 63.2311C575 63.2918 574.988 63.3519 574.965 63.4079C574.942 63.464 574.908 63.5149 574.865 63.5578L569.327 69.0957C569.284 69.1386 569.233 69.1727 569.177 69.196C569.121 69.2193 569.061 69.2312 569 69.2312C568.939 69.2312 568.879 69.2193 568.823 69.196C568.767 69.1727 568.716 69.1386 568.673 69.0957L563.136 63.5578C563.093 63.515 563.059 63.464 563.035 63.408C563.012 63.3519 563 63.2918 563 63.2311C563 63.1704 563.012 63.1103 563.035 63.0542C563.059 62.9982 563.093 62.9472 563.136 62.9044Z" fill="#0F71BB"/>
<circle cx="12" cy="16" r="12" fill="#344054"/>
<path d="M14.0057 10.3636V22H11.5455V12.6989H11.4773L8.8125 14.3693V12.1875L11.6932 10.3636H14.0057Z" fill="white"/>
<circle cx="569" cy="137" r="12" fill="#344054"/>
<path d="M569.244 143.159C568.396 143.159 567.64 143.013 566.977 142.722C566.318 142.426 565.797 142.021 565.415 141.506C565.036 140.987 564.841 140.388 564.83 139.71H567.307C567.322 139.994 567.415 140.244 567.585 140.46C567.759 140.672 567.991 140.837 568.278 140.955C568.566 141.072 568.89 141.131 569.25 141.131C569.625 141.131 569.956 141.064 570.244 140.932C570.532 140.799 570.758 140.616 570.92 140.381C571.083 140.146 571.165 139.875 571.165 139.568C571.165 139.258 571.078 138.983 570.903 138.744C570.733 138.502 570.487 138.312 570.165 138.176C569.847 138.04 569.468 137.972 569.028 137.972H567.943V136.165H569.028C569.4 136.165 569.727 136.1 570.011 135.972C570.299 135.843 570.523 135.665 570.682 135.438C570.841 135.206 570.92 134.938 570.92 134.631C570.92 134.339 570.85 134.083 570.71 133.864C570.574 133.64 570.381 133.466 570.131 133.341C569.884 133.216 569.597 133.153 569.267 133.153C568.934 133.153 568.629 133.214 568.352 133.335C568.076 133.453 567.854 133.621 567.688 133.841C567.521 134.061 567.432 134.318 567.42 134.614H565.062C565.074 133.943 565.265 133.352 565.636 132.841C566.008 132.33 566.508 131.93 567.136 131.642C567.769 131.35 568.483 131.205 569.278 131.205C570.081 131.205 570.784 131.35 571.386 131.642C571.989 131.934 572.456 132.328 572.79 132.824C573.127 133.316 573.294 133.869 573.29 134.483C573.294 135.134 573.091 135.678 572.682 136.114C572.277 136.549 571.748 136.826 571.097 136.943V137.034C571.953 137.144 572.604 137.441 573.051 137.926C573.502 138.407 573.725 139.009 573.722 139.733C573.725 140.396 573.534 140.985 573.148 141.5C572.765 142.015 572.237 142.42 571.562 142.716C570.888 143.011 570.116 143.159 569.244 143.159Z" fill="white"/>
<path d="M569 125.5V78" stroke="#344054" stroke-dasharray="2 2"/>
<circle cx="232" cy="137" r="12" fill="#344054"/>
<path d="M227.943 143V141.227L232.085 137.392C232.438 137.051 232.733 136.744 232.972 136.472C233.214 136.199 233.398 135.932 233.523 135.67C233.648 135.405 233.71 135.119 233.71 134.812C233.71 134.472 233.633 134.178 233.477 133.932C233.322 133.682 233.11 133.491 232.841 133.358C232.572 133.222 232.267 133.153 231.926 133.153C231.57 133.153 231.259 133.225 230.994 133.369C230.729 133.513 230.525 133.72 230.381 133.989C230.237 134.258 230.165 134.578 230.165 134.949H227.83C227.83 134.187 228.002 133.527 228.347 132.966C228.691 132.405 229.174 131.972 229.795 131.665C230.417 131.358 231.133 131.205 231.943 131.205C232.777 131.205 233.502 131.352 234.119 131.648C234.741 131.939 235.223 132.345 235.568 132.864C235.913 133.383 236.085 133.977 236.085 134.648C236.085 135.087 235.998 135.521 235.824 135.949C235.653 136.377 235.348 136.852 234.909 137.375C234.47 137.894 233.85 138.517 233.051 139.244L231.352 140.909V140.989H236.239V143H227.943Z" fill="white"/>
<path d="M232 125.5V78" stroke="#344054" stroke-dasharray="2 2"/>
<path d="M24 13H97V49" stroke="#344054" stroke-dasharray="2 2"/>
</svg>
