<svg width="475" height="153" viewBox="0 0 475 153" fill="none" xmlns="http://www.w3.org/2000/svg">
<rect width="434" height="28" transform="translate(38 46)" fill="#F0F0F0"/>
<path d="M42.4157 56.0145C42.4157 56.0145 41.7137 57.0417 42.6332 58.37C42.6332 58.37 42.7782 57.6936 44.2303 57.6936H45.9732C47.6191 57.6936 48.853 56.0651 48.0785 54.3853C48.0785 54.3853 49.2399 54.5109 49.6283 53.7587C50.0152 53.0072 49.6039 52.7062 49.0232 52.7062H46.0945C46.0945 53.2455 45.1025 53.3205 45.1025 52.7062H43.4565C43.4565 52.7062 42.2219 52.7062 42.1982 53.784C42.1982 53.784 42.4771 53.6086 42.7545 53.584V53.8713C42.7545 53.8713 42.4157 53.9341 42.2581 54.0222C42.1013 54.1095 41.8713 54.3477 42.0895 54.9621C42.307 55.5756 42.392 55.7886 42.392 55.7886C42.392 55.7886 42.7434 55.4745 43.3123 55.4745H43.9781C45.1632 55.4745 44.9457 56.6649 43.7598 56.6649C42.574 56.6649 42.4172 56.0138 42.4172 56.0138L42.4157 56.0145Z" fill="#DB0000"/>
<path d="M48.5993 54.7744C48.5993 54.7744 48.9988 54.7997 49.2888 54.5369C49.2888 54.5369 51.9149 56.6549 48.0186 60.9146C44.1216 65.175 47.1346 67.9326 47.1346 67.9326C47.1346 67.9326 46.4333 68.6335 46.832 70C46.832 70 45.2112 69.0525 43.9714 67.4431C42.1797 65.1176 41.0849 61.5595 46.005 58.7216C46.005 58.7216 49.2518 57.0302 48.5986 54.7744H48.5993Z" fill="#DB0000"/>
<path d="M44.5855 52.3056C44.5855 52.3056 45.11 51.3367 46.3276 51.3367C47.2878 51.3367 47.5068 50.8265 47.5068 50.8265C47.5068 50.8265 47.9255 50 50.0397 50C51.9771 50 53.2828 50.6687 54.3392 51.5619C54.3392 51.5619 51.4911 49.7327 48.6838 52.3056H44.5855Z" fill="#DB0000"/>
<path d="M56.429 58.4373C56.3483 55.4132 54.0891 52.1723 49.2326 52.3561C53.9767 48.196 62.2057 57.4844 55.4281 62.3646C55.4281 62.3646 56.5621 60.6901 56.429 58.4381V58.4373Z" fill="#DB0000"/>
<path d="M49.959 52.6902C55.8808 52.5063 57.995 59.8575 54.1704 63.1658L50.3304 65.0877C50.3304 65.0877 49.8303 63.4171 51.6864 61.4615C53.5424 59.5075 55.3326 55.8483 50.2024 53.4424C50.2024 53.4424 50.2993 52.9414 49.9605 52.6909L49.959 52.6902Z" fill="#DB0000"/>
<path d="M49.6521 54.3439C49.6521 54.3439 49.9428 54.0597 50.0397 53.8261C54.4442 55.7304 53.751 58.956 51.1205 61.6622C49.5071 63.3826 50.0071 65.2379 50.0071 65.2379C50.0071 65.2379 48.0394 66.5071 47.361 67.6101C47.361 67.6101 44.5115 65.0977 48.4581 60.9276C52.3307 56.8342 49.6521 54.3447 49.6521 54.3447V54.3439Z" fill="#DB0000"/>
<path d="M67.6506 65H66.358L70.0966 54.8182H71.3693L75.108 65H73.8153L70.7727 56.429H70.6932L67.6506 65ZM68.1278 61.0227H73.3381V62.1165H68.1278V61.0227ZM86.1996 57.3636C86.1399 56.8598 85.898 56.4688 85.4737 56.1903C85.0495 55.9119 84.5291 55.7727 83.9126 55.7727C83.4619 55.7727 83.0675 55.8456 82.7294 55.9915C82.3946 56.1373 82.1328 56.3378 81.9439 56.593C81.7583 56.8482 81.6655 57.1383 81.6655 57.4631C81.6655 57.7348 81.7301 57.9685 81.8594 58.1641C81.992 58.3563 82.161 58.517 82.3665 58.6463C82.572 58.7723 82.7874 58.8767 83.0128 58.9595C83.2382 59.0391 83.4453 59.1037 83.6342 59.1534L84.6683 59.4318C84.9335 59.5014 85.2285 59.5975 85.5533 59.7202C85.8814 59.8428 86.1946 60.0102 86.4929 60.2223C86.7945 60.4311 87.0431 60.6996 87.2386 61.0277C87.4342 61.3558 87.532 61.7585 87.532 62.2358C87.532 62.786 87.3878 63.2831 87.0994 63.7273C86.8144 64.1714 86.3968 64.5244 85.8466 64.7862C85.2997 65.0481 84.6352 65.179 83.853 65.179C83.1238 65.179 82.4924 65.0613 81.9588 64.826C81.4285 64.5907 81.0109 64.2625 80.706 63.8416C80.4044 63.4207 80.2337 62.9318 80.1939 62.375H81.4666C81.4998 62.7595 81.629 63.0777 81.8544 63.3295C82.0831 63.5781 82.3714 63.7637 82.7195 63.8864C83.0708 64.0057 83.4486 64.0653 83.853 64.0653C84.3236 64.0653 84.7462 63.9891 85.1207 63.8366C85.4953 63.6809 85.7919 63.4654 86.0107 63.1903C86.2294 62.9119 86.3388 62.5871 86.3388 62.2159C86.3388 61.8778 86.2443 61.6027 86.0554 61.3906C85.8665 61.1785 85.6179 61.0062 85.3097 60.8736C85.0014 60.741 84.6683 60.625 84.3104 60.5256L83.0575 60.1676C82.2621 59.9389 81.6323 59.6125 81.1683 59.1882C80.7043 58.764 80.4723 58.2088 80.4723 57.5227C80.4723 56.9527 80.6264 56.4555 80.9347 56.0312C81.2462 55.6037 81.6638 55.2723 82.1875 55.0369C82.7145 54.7983 83.3028 54.679 83.9524 54.679C84.6087 54.679 85.192 54.7966 85.7024 55.032C86.2128 55.264 86.6172 55.5821 86.9155 55.9865C87.2171 56.3909 87.3762 56.8499 87.3928 57.3636H86.1996ZM89.4 65V57.3636H90.5733V65H89.4ZM89.9966 56.0909C89.7679 56.0909 89.5707 56.013 89.405 55.8572C89.2426 55.7015 89.1614 55.5142 89.1614 55.2955C89.1614 55.0767 89.2426 54.8894 89.405 54.7337C89.5707 54.5779 89.7679 54.5 89.9966 54.5C90.2253 54.5 90.4209 54.5779 90.5833 54.7337C90.749 54.8894 90.8319 55.0767 90.8319 55.2955C90.8319 55.5142 90.749 55.7015 90.5833 55.8572C90.4209 56.013 90.2253 56.0909 89.9966 56.0909ZM93.8956 60.4062V65H92.7223V57.3636H93.8558V58.5568H93.9553C94.1342 58.169 94.406 57.8575 94.7706 57.6222C95.1352 57.3835 95.6058 57.2642 96.1825 57.2642C96.6996 57.2642 97.152 57.3703 97.5398 57.5824C97.9276 57.7912 98.2292 58.1094 98.4446 58.5369C98.66 58.9612 98.7678 59.4981 98.7678 60.1477V65H97.5945V60.2273C97.5945 59.6274 97.4387 59.16 97.1271 58.8253C96.8156 58.4872 96.388 58.3182 95.8445 58.3182C95.4699 58.3182 95.1352 58.3994 94.8402 58.5618C94.5485 58.7242 94.3182 58.9612 94.1491 59.2727C93.9801 59.5843 93.8956 59.9621 93.8956 60.4062ZM103.994 68.0227C103.427 68.0227 102.94 67.9498 102.532 67.804C102.125 67.6615 101.785 67.4725 101.513 67.2372C101.245 67.0052 101.031 66.7566 100.872 66.4915L101.807 65.8352C101.913 65.9744 102.047 66.1335 102.209 66.3125C102.372 66.4948 102.594 66.6522 102.876 66.7848C103.161 66.9207 103.533 66.9886 103.994 66.9886C104.611 66.9886 105.119 66.8395 105.52 66.5412C105.921 66.2429 106.122 65.7756 106.122 65.1392V63.5881H106.023C105.936 63.7273 105.814 63.8996 105.655 64.1051C105.499 64.3073 105.273 64.4879 104.979 64.647C104.687 64.8028 104.292 64.8807 103.795 64.8807C103.179 64.8807 102.625 64.7348 102.135 64.4432C101.648 64.1515 101.261 63.7273 100.976 63.1705C100.695 62.6136 100.554 61.9375 100.554 61.142C100.554 60.3598 100.691 59.6787 100.966 59.0987C101.242 58.5154 101.624 58.0646 102.115 57.7464C102.605 57.425 103.172 57.2642 103.815 57.2642C104.312 57.2642 104.707 57.3471 104.998 57.5128C105.293 57.6752 105.519 57.8608 105.675 58.0696C105.834 58.2751 105.956 58.4441 106.042 58.5767H106.162V57.3636H107.295V65.2188C107.295 65.875 107.146 66.4086 106.848 66.8196C106.553 67.2339 106.155 67.5372 105.655 67.7294C105.157 67.925 104.604 68.0227 103.994 68.0227ZM103.954 63.8267C104.425 63.8267 104.823 63.719 105.148 63.5036C105.472 63.2881 105.719 62.9782 105.888 62.5739C106.057 62.1695 106.142 61.6856 106.142 61.1222C106.142 60.572 106.059 60.0864 105.893 59.6655C105.728 59.2446 105.482 58.9148 105.157 58.6761C104.833 58.4375 104.432 58.3182 103.954 58.3182C103.457 58.3182 103.043 58.4441 102.711 58.696C102.383 58.9479 102.136 59.286 101.971 59.7102C101.808 60.1345 101.727 60.6051 101.727 61.1222C101.727 61.6525 101.81 62.1214 101.976 62.5291C102.145 62.9335 102.393 63.2517 102.721 63.4837C103.053 63.7124 103.464 63.8267 103.954 63.8267ZM111.69 65.179C111.206 65.179 110.767 65.0878 110.373 64.9055C109.978 64.7199 109.665 64.4531 109.433 64.1051C109.201 63.7538 109.085 63.3295 109.085 62.8324C109.085 62.3949 109.171 62.0402 109.344 61.7685C109.516 61.4934 109.746 61.2779 110.035 61.1222C110.323 60.9664 110.641 60.8504 110.989 60.7741C111.34 60.6946 111.693 60.6316 112.048 60.5852C112.512 60.5256 112.888 60.4808 113.177 60.451C113.468 60.4179 113.68 60.3632 113.813 60.2869C113.949 60.2107 114.017 60.0781 114.017 59.8892V59.8494C114.017 59.3589 113.883 58.9777 113.614 58.706C113.349 58.4342 112.946 58.2983 112.406 58.2983C111.846 58.2983 111.407 58.4209 111.089 58.6662C110.77 58.9115 110.547 59.1733 110.417 59.4517L109.304 59.054C109.503 58.59 109.768 58.2287 110.099 57.9702C110.434 57.7083 110.799 57.526 111.193 57.4233C111.591 57.3172 111.982 57.2642 112.366 57.2642C112.612 57.2642 112.893 57.294 113.211 57.3537C113.533 57.41 113.843 57.5277 114.141 57.7067C114.443 57.8857 114.693 58.1558 114.892 58.517C115.091 58.8783 115.19 59.3622 115.19 59.9688V65H114.017V63.9659H113.957C113.878 64.1316 113.745 64.3089 113.559 64.4979C113.374 64.6868 113.127 64.8475 112.819 64.9801C112.51 65.1127 112.134 65.179 111.69 65.179ZM111.869 64.125C112.333 64.125 112.724 64.0339 113.042 63.8516C113.364 63.6693 113.606 63.4339 113.768 63.1456C113.934 62.8572 114.017 62.554 114.017 62.2358V61.1619C113.967 61.2216 113.858 61.2763 113.689 61.326C113.523 61.3724 113.331 61.4138 113.112 61.4503C112.897 61.4834 112.686 61.5133 112.481 61.5398C112.278 61.563 112.114 61.5829 111.988 61.5994C111.684 61.6392 111.398 61.7038 111.133 61.7933C110.872 61.8795 110.659 62.0104 110.497 62.1861C110.338 62.3584 110.258 62.5937 110.258 62.892C110.258 63.2997 110.409 63.608 110.711 63.8168C111.016 64.0223 111.402 64.125 111.869 64.125ZM117.332 67.8636V57.3636H118.465V58.5767H118.604C118.691 58.4441 118.81 58.2751 118.962 58.0696C119.118 57.8608 119.34 57.6752 119.629 57.5128C119.92 57.3471 120.315 57.2642 120.812 57.2642C121.455 57.2642 122.022 57.425 122.512 57.7464C123.003 58.0679 123.385 58.5237 123.661 59.1136C123.936 59.7036 124.073 60.3996 124.073 61.2017C124.073 62.0104 123.936 62.7114 123.661 63.3047C123.385 63.8946 123.004 64.352 122.517 64.6768C122.03 64.9983 121.468 65.1591 120.832 65.1591C120.341 65.1591 119.948 65.0779 119.653 64.9155C119.358 64.7498 119.131 64.5625 118.972 64.3537C118.813 64.1416 118.691 63.9659 118.604 63.8267H118.505V67.8636H117.332ZM118.485 61.1818C118.485 61.7585 118.57 62.2673 118.739 62.7081C118.908 63.1456 119.155 63.4886 119.479 63.7372C119.804 63.9825 120.202 64.1051 120.673 64.1051C121.163 64.1051 121.572 63.9759 121.901 63.7173C122.232 63.4555 122.481 63.1042 122.646 62.6634C122.815 62.2192 122.9 61.7254 122.9 61.1818C122.9 60.6449 122.817 60.161 122.651 59.7301C122.489 59.2959 122.242 58.9529 121.911 58.701C121.582 58.4458 121.17 58.3182 120.673 58.3182C120.195 58.3182 119.794 58.4392 119.469 58.6811C119.145 58.9197 118.899 59.2545 118.734 59.6854C118.568 60.1129 118.485 60.6117 118.485 61.1818ZM128.965 65.1591C128.276 65.1591 127.671 64.995 127.151 64.6669C126.634 64.3388 126.229 63.8797 125.938 63.2898C125.649 62.6998 125.505 62.0104 125.505 61.2216C125.505 60.4261 125.649 59.7318 125.938 59.1385C126.229 58.5452 126.634 58.0845 127.151 57.7564C127.671 57.4283 128.276 57.2642 128.965 57.2642C129.655 57.2642 130.258 57.4283 130.775 57.7564C131.295 58.0845 131.7 58.5452 131.988 59.1385C132.28 59.7318 132.425 60.4261 132.425 61.2216C132.425 62.0104 132.28 62.6998 131.988 63.2898C131.7 63.8797 131.295 64.3388 130.775 64.6669C130.258 64.995 129.655 65.1591 128.965 65.1591ZM128.965 64.1051C129.489 64.1051 129.92 63.9709 130.258 63.7024C130.596 63.4339 130.846 63.081 131.009 62.6435C131.171 62.206 131.252 61.732 131.252 61.2216C131.252 60.7112 131.171 60.2356 131.009 59.7947C130.846 59.3539 130.596 58.9976 130.258 58.7259C129.92 58.4541 129.489 58.3182 128.965 58.3182C128.442 58.3182 128.011 58.4541 127.673 58.7259C127.335 58.9976 127.084 59.3539 126.922 59.7947C126.759 60.2356 126.678 60.7112 126.678 61.2216C126.678 61.732 126.759 62.206 126.922 62.6435C127.084 63.081 127.335 63.4339 127.673 63.7024C128.011 63.9709 128.442 64.1051 128.965 64.1051ZM134.216 65V57.3636H135.35V58.517H135.43C135.569 58.1392 135.821 57.8326 136.185 57.5973C136.55 57.362 136.961 57.2443 137.418 57.2443C137.504 57.2443 137.612 57.246 137.741 57.2493C137.871 57.2526 137.968 57.2576 138.035 57.2642V58.4574C137.995 58.4474 137.904 58.4325 137.761 58.4126C137.622 58.3894 137.474 58.3778 137.319 58.3778C136.948 58.3778 136.616 58.4557 136.324 58.6115C136.036 58.764 135.807 58.9761 135.638 59.2479C135.473 59.5163 135.39 59.8229 135.39 60.1676V65H134.216ZM142.395 65.1591C141.659 65.1591 141.024 64.9967 140.491 64.6719C139.96 64.3438 139.551 63.8864 139.263 63.2997C138.978 62.7098 138.835 62.0237 138.835 61.2415C138.835 60.4593 138.978 59.7699 139.263 59.1733C139.551 58.5734 139.952 58.1061 140.466 57.7713C140.983 57.4332 141.586 57.2642 142.275 57.2642C142.673 57.2642 143.066 57.3305 143.454 57.4631C143.841 57.5956 144.194 57.8111 144.513 58.1094C144.831 58.4044 145.084 58.7955 145.273 59.2827C145.462 59.7699 145.557 60.3698 145.557 61.0824V61.5795H139.67V60.5653H144.363C144.363 60.1345 144.277 59.75 144.105 59.4119C143.936 59.0739 143.694 58.8071 143.379 58.6115C143.068 58.416 142.7 58.3182 142.275 58.3182C141.808 58.3182 141.404 58.4342 141.062 58.6662C140.724 58.8949 140.464 59.1932 140.282 59.5611C140.099 59.929 140.008 60.3234 140.008 60.7443V61.4205C140.008 61.9972 140.108 62.486 140.307 62.8871C140.509 63.2848 140.789 63.5881 141.147 63.7969C141.505 64.0024 141.921 64.1051 142.395 64.1051C142.703 64.1051 142.981 64.062 143.23 63.9759C143.482 63.8864 143.699 63.7538 143.881 63.5781C144.064 63.3991 144.204 63.1771 144.304 62.9119L145.437 63.2301C145.318 63.6146 145.117 63.9527 144.836 64.2443C144.554 64.5327 144.206 64.758 143.792 64.9205C143.377 65.0795 142.912 65.1591 142.395 65.1591ZM158.398 58C158.289 57.6652 158.145 57.3653 157.966 57.1001C157.79 56.8317 157.58 56.603 157.334 56.4141C157.092 56.2251 156.817 56.081 156.509 55.9815C156.201 55.8821 155.863 55.8324 155.495 55.8324C154.892 55.8324 154.343 55.9882 153.849 56.2997C153.355 56.6113 152.963 57.0703 152.671 57.6768C152.379 58.2834 152.233 59.0275 152.233 59.9091C152.233 60.7907 152.381 61.5348 152.676 62.1413C152.971 62.7479 153.37 63.2069 153.874 63.5185C154.378 63.83 154.945 63.9858 155.574 63.9858C156.158 63.9858 156.671 63.8615 157.116 63.6129C157.563 63.361 157.911 63.0064 158.16 62.549C158.412 62.0883 158.537 61.5464 158.537 60.9233L158.915 61.0028H155.853V59.9091H159.731V61.0028C159.731 61.8414 159.552 62.5705 159.194 63.1903C158.839 63.8101 158.349 64.2907 157.722 64.6321C157.099 64.9702 156.383 65.1392 155.574 65.1392C154.673 65.1392 153.881 64.9271 153.198 64.5028C152.519 64.0786 151.988 63.4754 151.607 62.6932C151.229 61.911 151.04 60.983 151.04 59.9091C151.04 59.1037 151.148 58.3795 151.363 57.7365C151.582 57.0902 151.89 56.54 152.288 56.0859C152.686 55.6319 153.157 55.2839 153.7 55.0419C154.244 54.8 154.842 54.679 155.495 54.679C156.032 54.679 156.532 54.7602 156.996 54.9226C157.464 55.0817 157.88 55.3087 158.244 55.6037C158.612 55.8954 158.919 56.245 159.164 56.6527C159.409 57.0571 159.578 57.5062 159.671 58H158.398ZM164.786 65.1591C164.096 65.1591 163.491 64.995 162.971 64.6669C162.454 64.3388 162.049 63.8797 161.758 63.2898C161.469 62.6998 161.325 62.0104 161.325 61.2216C161.325 60.4261 161.469 59.7318 161.758 59.1385C162.049 58.5452 162.454 58.0845 162.971 57.7564C163.491 57.4283 164.096 57.2642 164.786 57.2642C165.475 57.2642 166.078 57.4283 166.595 57.7564C167.116 58.0845 167.52 58.5452 167.808 59.1385C168.1 59.7318 168.246 60.4261 168.246 61.2216C168.246 62.0104 168.1 62.6998 167.808 63.2898C167.52 63.8797 167.116 64.3388 166.595 64.6669C166.078 64.995 165.475 65.1591 164.786 65.1591ZM164.786 64.1051C165.309 64.1051 165.74 63.9709 166.078 63.7024C166.416 63.4339 166.666 63.081 166.829 62.6435C166.991 62.206 167.072 61.732 167.072 61.2216C167.072 60.7112 166.991 60.2356 166.829 59.7947C166.666 59.3539 166.416 58.9976 166.078 58.7259C165.74 58.4541 165.309 58.3182 164.786 58.3182C164.262 58.3182 163.831 58.4541 163.493 58.7259C163.155 58.9976 162.905 59.3539 162.742 59.7947C162.58 60.2356 162.499 60.7112 162.499 61.2216C162.499 61.732 162.58 62.206 162.742 62.6435C162.905 63.081 163.155 63.4339 163.493 63.7024C163.831 63.9709 164.262 64.1051 164.786 64.1051ZM176.008 57.3636L173.184 65H171.991L169.167 57.3636H170.439L172.547 63.4489H172.627L174.735 57.3636H176.008ZM180.485 65.1591C179.749 65.1591 179.114 64.9967 178.58 64.6719C178.05 64.3438 177.641 63.8864 177.352 63.2997C177.067 62.7098 176.925 62.0237 176.925 61.2415C176.925 60.4593 177.067 59.7699 177.352 59.1733C177.641 58.5734 178.042 58.1061 178.556 57.7713C179.073 57.4332 179.676 57.2642 180.365 57.2642C180.763 57.2642 181.156 57.3305 181.544 57.4631C181.931 57.5956 182.284 57.8111 182.602 58.1094C182.921 58.4044 183.174 58.7955 183.363 59.2827C183.552 59.7699 183.646 60.3698 183.646 61.0824V61.5795H177.76V60.5653H182.453C182.453 60.1345 182.367 59.75 182.195 59.4119C182.026 59.0739 181.784 58.8071 181.469 58.6115C181.157 58.416 180.789 58.3182 180.365 58.3182C179.898 58.3182 179.494 58.4342 179.152 58.6662C178.814 58.8949 178.554 59.1932 178.372 59.5611C178.189 59.929 178.098 60.3234 178.098 60.7443V61.4205C178.098 61.9972 178.198 62.486 178.396 62.8871C178.599 63.2848 178.879 63.5881 179.237 63.7969C179.595 64.0024 180.011 64.1051 180.485 64.1051C180.793 64.1051 181.071 64.062 181.32 63.9759C181.572 63.8864 181.789 63.7538 181.971 63.5781C182.153 63.3991 182.294 63.1771 182.394 62.9119L183.527 63.2301C183.408 63.6146 183.207 63.9527 182.926 64.2443C182.644 64.5327 182.296 64.758 181.882 64.9205C181.467 65.0795 181.002 65.1591 180.485 65.1591ZM185.431 65V57.3636H186.565V58.517H186.644C186.784 58.1392 187.035 57.8326 187.4 57.5973C187.765 57.362 188.176 57.2443 188.633 57.2443C188.719 57.2443 188.827 57.246 188.956 57.2493C189.085 57.2526 189.183 57.2576 189.249 57.2642V58.4574C189.21 58.4474 189.119 58.4325 188.976 58.4126C188.837 58.3894 188.689 58.3778 188.534 58.3778C188.162 58.3778 187.831 58.4557 187.539 58.6115C187.251 58.764 187.022 58.9761 186.853 59.2479C186.687 59.5163 186.605 59.8229 186.605 60.1676V65H185.431ZM191.814 60.4062V65H190.64V57.3636H191.774V58.5568H191.873C192.052 58.169 192.324 57.8575 192.689 57.6222C193.053 57.3835 193.524 57.2642 194.1 57.2642C194.618 57.2642 195.07 57.3703 195.458 57.5824C195.846 57.7912 196.147 58.1094 196.363 58.5369C196.578 58.9612 196.686 59.4981 196.686 60.1477V65H195.512V60.2273C195.512 59.6274 195.357 59.16 195.045 58.8253C194.734 58.4872 194.306 58.3182 193.762 58.3182C193.388 58.3182 193.053 58.3994 192.758 58.5618C192.467 58.7242 192.236 58.9612 192.067 59.2727C191.898 59.5843 191.814 59.9621 191.814 60.4062ZM198.83 65V57.3636H199.963V58.5568H200.063C200.222 58.1491 200.479 57.8326 200.833 57.6072C201.188 57.3786 201.614 57.2642 202.111 57.2642C202.615 57.2642 203.034 57.3786 203.369 57.6072C203.707 57.8326 203.97 58.1491 204.159 58.5568H204.239C204.434 58.1624 204.728 57.8492 205.119 57.6172C205.51 57.3819 205.979 57.2642 206.526 57.2642C207.209 57.2642 207.767 57.478 208.201 57.9055C208.635 58.3298 208.852 58.991 208.852 59.8892V65H207.679V59.8892C207.679 59.3258 207.525 58.9231 207.217 58.6811C206.909 58.4392 206.546 58.3182 206.128 58.3182C205.591 58.3182 205.175 58.4806 204.88 58.8054C204.585 59.1269 204.438 59.5346 204.438 60.0284V65H203.244V59.7699C203.244 59.3357 203.104 58.986 202.822 58.7209C202.54 58.4524 202.177 58.3182 201.733 58.3182C201.428 58.3182 201.143 58.3994 200.878 58.5618C200.616 58.7242 200.404 58.9496 200.242 59.2379C200.083 59.523 200.003 59.8527 200.003 60.2273V65H198.83ZM214.199 65.1591C213.464 65.1591 212.829 64.9967 212.295 64.6719C211.765 64.3438 211.356 63.8864 211.067 63.2997C210.782 62.7098 210.64 62.0237 210.64 61.2415C210.64 60.4593 210.782 59.7699 211.067 59.1733C211.356 58.5734 211.757 58.1061 212.27 57.7713C212.787 57.4332 213.391 57.2642 214.08 57.2642C214.478 57.2642 214.871 57.3305 215.258 57.4631C215.646 57.5956 215.999 57.8111 216.317 58.1094C216.635 58.4044 216.889 58.7955 217.078 59.2827C217.267 59.7699 217.361 60.3698 217.361 61.0824V61.5795H211.475V60.5653H216.168C216.168 60.1345 216.082 59.75 215.91 59.4119C215.741 59.0739 215.499 58.8071 215.184 58.6115C214.872 58.416 214.504 58.3182 214.08 58.3182C213.613 58.3182 213.208 58.4342 212.867 58.6662C212.529 58.8949 212.269 59.1932 212.086 59.5611C211.904 59.929 211.813 60.3234 211.813 60.7443V61.4205C211.813 61.9972 211.912 62.486 212.111 62.8871C212.314 63.2848 212.594 63.5881 212.952 63.7969C213.309 64.0024 213.725 64.1051 214.199 64.1051C214.508 64.1051 214.786 64.062 215.035 63.9759C215.287 63.8864 215.504 63.7538 215.686 63.5781C215.868 63.3991 216.009 63.1771 216.108 62.9119L217.242 63.2301C217.123 63.6146 216.922 63.9527 216.64 64.2443C216.359 64.5327 216.011 64.758 215.596 64.9205C215.182 65.0795 214.716 65.1591 214.199 65.1591ZM220.319 60.4062V65H219.146V57.3636H220.28V58.5568H220.379C220.558 58.169 220.83 57.8575 221.194 57.6222C221.559 57.3835 222.03 57.2642 222.606 57.2642C223.123 57.2642 223.576 57.3703 223.964 57.5824C224.351 57.7912 224.653 58.1094 224.868 58.5369C225.084 58.9612 225.192 59.4981 225.192 60.1477V65H224.018V60.2273C224.018 59.6274 223.863 59.16 223.551 58.8253C223.239 58.4872 222.812 58.3182 222.268 58.3182C221.894 58.3182 221.559 58.3994 221.264 58.5618C220.972 58.7242 220.742 58.9612 220.573 59.2727C220.404 59.5843 220.319 59.9621 220.319 60.4062ZM230.657 57.3636V58.358H226.699V57.3636H230.657ZM227.853 55.5341H229.026V62.8125C229.026 63.1439 229.074 63.3925 229.17 63.5582C229.27 63.7206 229.395 63.83 229.548 63.8864C229.704 63.9394 229.868 63.9659 230.04 63.9659C230.169 63.9659 230.275 63.9593 230.358 63.946C230.441 63.9295 230.507 63.9162 230.557 63.9062L230.796 64.9602C230.716 64.9901 230.605 65.0199 230.463 65.0497C230.32 65.0829 230.14 65.0994 229.921 65.0994C229.589 65.0994 229.265 65.0282 228.946 64.8857C228.632 64.7431 228.37 64.526 228.161 64.2344C227.955 63.9427 227.853 63.5748 227.853 63.1307V55.5341ZM236.936 65H235.643L239.382 54.8182H240.654L244.393 65H243.1L240.058 56.429H239.978L236.936 65ZM237.413 61.0227H242.623V62.1165H237.413V61.0227ZM248.902 68.0227C248.336 68.0227 247.848 67.9498 247.441 67.804C247.033 67.6615 246.693 67.4725 246.422 67.2372C246.153 67.0052 245.939 66.7566 245.78 66.4915L246.715 65.8352C246.821 65.9744 246.955 66.1335 247.118 66.3125C247.28 66.4948 247.502 66.6522 247.784 66.7848C248.069 66.9207 248.442 66.9886 248.902 66.9886C249.519 66.9886 250.028 66.8395 250.429 66.5412C250.83 66.2429 251.03 65.7756 251.03 65.1392V63.5881H250.931C250.845 63.7273 250.722 63.8996 250.563 64.1051C250.407 64.3073 250.182 64.4879 249.887 64.647C249.595 64.8028 249.201 64.8807 248.703 64.8807C248.087 64.8807 247.533 64.7348 247.043 64.4432C246.556 64.1515 246.17 63.7273 245.885 63.1705C245.603 62.6136 245.462 61.9375 245.462 61.142C245.462 60.3598 245.6 59.6787 245.875 59.0987C246.15 58.5154 246.533 58.0646 247.023 57.7464C247.514 57.425 248.08 57.2642 248.723 57.2642C249.221 57.2642 249.615 57.3471 249.907 57.5128C250.202 57.6752 250.427 57.8608 250.583 58.0696C250.742 58.2751 250.864 58.4441 250.951 58.5767H251.07V57.3636H252.203V65.2188C252.203 65.875 252.054 66.4086 251.756 66.8196C251.461 67.2339 251.063 67.5372 250.563 67.7294C250.066 67.925 249.512 68.0227 248.902 68.0227ZM248.863 63.8267C249.333 63.8267 249.731 63.719 250.056 63.5036C250.381 63.2881 250.627 62.9782 250.797 62.5739C250.966 62.1695 251.05 61.6856 251.05 61.1222C251.05 60.572 250.967 60.0864 250.801 59.6655C250.636 59.2446 250.391 58.9148 250.066 58.6761C249.741 58.4375 249.34 58.3182 248.863 58.3182C248.365 58.3182 247.951 58.4441 247.62 58.696C247.292 58.9479 247.045 59.286 246.879 59.7102C246.717 60.1345 246.635 60.6051 246.635 61.1222C246.635 61.6525 246.718 62.1214 246.884 62.5291C247.053 62.9335 247.301 63.2517 247.63 63.4837C247.961 63.7124 248.372 63.8267 248.863 63.8267ZM257.553 65.1591C256.817 65.1591 256.182 64.9967 255.649 64.6719C255.118 64.3438 254.709 63.8864 254.421 63.2997C254.136 62.7098 253.993 62.0237 253.993 61.2415C253.993 60.4593 254.136 59.7699 254.421 59.1733C254.709 58.5734 255.11 58.1061 255.624 57.7713C256.141 57.4332 256.744 57.2642 257.434 57.2642C257.831 57.2642 258.224 57.3305 258.612 57.4631C259 57.5956 259.353 57.8111 259.671 58.1094C259.989 58.4044 260.243 58.7955 260.431 59.2827C260.62 59.7699 260.715 60.3698 260.715 61.0824V61.5795H254.828V60.5653H259.522C259.522 60.1345 259.435 59.75 259.263 59.4119C259.094 59.0739 258.852 58.8071 258.537 58.6115C258.226 58.416 257.858 58.3182 257.434 58.3182C256.966 58.3182 256.562 58.4342 256.221 58.6662C255.882 58.8949 255.622 59.1932 255.44 59.5611C255.258 59.929 255.167 60.3234 255.167 60.7443V61.4205C255.167 61.9972 255.266 62.486 255.465 62.8871C255.667 63.2848 255.947 63.5881 256.305 63.7969C256.663 64.0024 257.079 64.1051 257.553 64.1051C257.861 64.1051 258.14 64.062 258.388 63.9759C258.64 63.8864 258.857 63.7538 259.039 63.5781C259.222 63.3991 259.363 63.1771 259.462 62.9119L260.596 63.2301C260.476 63.6146 260.276 63.9527 259.994 64.2443C259.712 64.5327 259.364 64.758 258.95 64.9205C258.536 65.0795 258.07 65.1591 257.553 65.1591ZM263.673 60.4062V65H262.5V57.3636H263.633V58.5568H263.733C263.912 58.169 264.183 57.8575 264.548 57.6222C264.913 57.3835 265.383 57.2642 265.96 57.2642C266.477 57.2642 266.929 57.3703 267.317 57.5824C267.705 57.7912 268.007 58.1094 268.222 58.5369C268.437 58.9612 268.545 59.4981 268.545 60.1477V65H267.372V60.2273C267.372 59.6274 267.216 59.16 266.904 58.8253C266.593 58.4872 266.165 58.3182 265.622 58.3182C265.247 58.3182 264.913 58.3994 264.618 58.5618C264.326 58.7242 264.096 58.9612 263.926 59.2727C263.757 59.5843 263.673 59.9621 263.673 60.4062ZM273.791 65.1591C273.075 65.1591 272.459 64.9901 271.942 64.652C271.425 64.3139 271.027 63.8482 270.749 63.255C270.47 62.6617 270.331 61.9839 270.331 61.2216C270.331 60.446 270.474 59.7616 270.759 59.1683C271.047 58.5717 271.448 58.1061 271.962 57.7713C272.479 57.4332 273.082 57.2642 273.771 57.2642C274.308 57.2642 274.792 57.3636 275.223 57.5625C275.654 57.7614 276.007 58.0398 276.282 58.3977C276.557 58.7557 276.728 59.1733 276.794 59.6506H275.621C275.531 59.3026 275.333 58.9943 275.024 58.7259C274.719 58.4541 274.308 58.3182 273.791 58.3182C273.334 58.3182 272.933 58.4375 272.588 58.6761C272.247 58.9115 271.98 59.2446 271.788 59.6754C271.599 60.103 271.504 60.6051 271.504 61.1818C271.504 61.7718 271.597 62.2855 271.783 62.723C271.972 63.1605 272.237 63.5002 272.578 63.7422C272.923 63.9841 273.327 64.1051 273.791 64.1051C274.096 64.1051 274.373 64.0521 274.622 63.946C274.87 63.84 275.081 63.6875 275.253 63.4886C275.425 63.2898 275.548 63.0511 275.621 62.7727H276.794C276.728 63.2235 276.564 63.6295 276.302 63.9908C276.044 64.3487 275.7 64.6338 275.273 64.8459C274.849 65.0547 274.355 65.1591 273.791 65.1591ZM279.265 67.8636C279.066 67.8636 278.889 67.8471 278.733 67.8139C278.577 67.7841 278.47 67.7543 278.41 67.7244L278.708 66.6903C278.993 66.7633 279.245 66.7898 279.464 66.7699C279.683 66.75 279.877 66.6522 280.046 66.4766C280.218 66.3042 280.375 66.0241 280.518 65.6364L280.737 65.0398L277.913 57.3636H279.186L281.294 63.4489H281.373L283.481 57.3636H284.754L281.512 66.1136C281.366 66.508 281.186 66.8345 280.97 67.093C280.755 67.3549 280.505 67.5488 280.22 67.6747C279.938 67.8007 279.62 67.8636 279.265 67.8636ZM292.248 65L289.464 54.8182H290.717L292.845 63.1108H292.944L295.112 54.8182H296.504L298.672 63.1108H298.771L300.899 54.8182H302.152L299.368 65H298.095L295.848 56.8864H295.768L293.521 65H292.248ZM306.02 65.1591C305.284 65.1591 304.649 64.9967 304.116 64.6719C303.585 64.3438 303.176 63.8864 302.888 63.2997C302.603 62.7098 302.46 62.0237 302.46 61.2415C302.46 60.4593 302.603 59.7699 302.888 59.1733C303.176 58.5734 303.577 58.1061 304.091 57.7713C304.608 57.4332 305.211 57.2642 305.9 57.2642C306.298 57.2642 306.691 57.3305 307.079 57.4631C307.466 57.5956 307.819 57.8111 308.138 58.1094C308.456 58.4044 308.709 58.7955 308.898 59.2827C309.087 59.7699 309.182 60.3698 309.182 61.0824V61.5795H303.295V60.5653H307.988C307.988 60.1345 307.902 59.75 307.73 59.4119C307.561 59.0739 307.319 58.8071 307.004 58.6115C306.693 58.416 306.325 58.3182 305.9 58.3182C305.433 58.3182 305.029 58.4342 304.687 58.6662C304.349 58.8949 304.089 59.1932 303.907 59.5611C303.724 59.929 303.633 60.3234 303.633 60.7443V61.4205C303.633 61.9972 303.733 62.486 303.932 62.8871C304.134 63.2848 304.414 63.5881 304.772 63.7969C305.13 64.0024 305.546 64.1051 306.02 64.1051C306.328 64.1051 306.606 64.062 306.855 63.9759C307.107 63.8864 307.324 63.7538 307.506 63.5781C307.689 63.3991 307.829 63.1771 307.929 62.9119L309.062 63.2301C308.943 63.6146 308.742 63.9527 308.461 64.2443C308.179 64.5327 307.831 64.758 307.417 64.9205C307.002 65.0795 306.537 65.1591 306.02 65.1591ZM311.126 65V54.8182H312.299V58.5767H312.398C312.484 58.4441 312.604 58.2751 312.756 58.0696C312.912 57.8608 313.134 57.6752 313.422 57.5128C313.714 57.3471 314.108 57.2642 314.606 57.2642C315.249 57.2642 315.815 57.425 316.306 57.7464C316.796 58.0679 317.179 58.5237 317.454 59.1136C317.729 59.7036 317.867 60.3996 317.867 61.2017C317.867 62.0104 317.729 62.7114 317.454 63.3047C317.179 63.8946 316.798 64.352 316.311 64.6768C315.824 64.9983 315.262 65.1591 314.626 65.1591C314.135 65.1591 313.742 65.0779 313.447 64.9155C313.152 64.7498 312.925 64.5625 312.766 64.3537C312.607 64.1416 312.484 63.9659 312.398 63.8267H312.259V65H311.126ZM312.279 61.1818C312.279 61.7585 312.363 62.2673 312.532 62.7081C312.702 63.1456 312.948 63.4886 313.273 63.7372C313.598 63.9825 313.996 64.1051 314.466 64.1051C314.957 64.1051 315.366 63.9759 315.694 63.7173C316.026 63.4555 316.274 63.1042 316.44 62.6634C316.609 62.2192 316.694 61.7254 316.694 61.1818C316.694 60.6449 316.611 60.161 316.445 59.7301C316.283 59.2959 316.036 58.9529 315.704 58.701C315.376 58.4458 314.964 58.3182 314.466 58.3182C313.989 58.3182 313.588 58.4392 313.263 58.6811C312.939 58.9197 312.693 59.2545 312.528 59.6854C312.362 60.1129 312.279 60.6117 312.279 61.1818ZM325.071 59.0739L324.017 59.3722C323.951 59.1965 323.853 59.0258 323.724 58.8601C323.598 58.6911 323.425 58.5518 323.206 58.4425C322.988 58.3331 322.708 58.2784 322.366 58.2784C321.899 58.2784 321.51 58.3861 321.198 58.6016C320.89 58.8137 320.736 59.0838 320.736 59.4119C320.736 59.7036 320.842 59.9339 321.054 60.103C321.266 60.272 321.597 60.4129 322.048 60.5256L323.182 60.804C323.864 60.9697 324.373 61.2232 324.708 61.5646C325.043 61.9027 325.21 62.3385 325.21 62.8722C325.21 63.3097 325.084 63.7008 324.832 64.0455C324.584 64.3902 324.236 64.6619 323.788 64.8608C323.341 65.0597 322.82 65.1591 322.227 65.1591C321.448 65.1591 320.804 64.9901 320.293 64.652C319.783 64.3139 319.46 63.8201 319.324 63.1705L320.437 62.892C320.543 63.303 320.744 63.6113 321.039 63.8168C321.337 64.0223 321.727 64.125 322.207 64.125C322.754 64.125 323.188 64.009 323.51 63.777C323.835 63.5417 323.997 63.2599 323.997 62.9318C323.997 62.6667 323.904 62.4446 323.719 62.2656C323.533 62.0833 323.248 61.9474 322.863 61.858L321.591 61.5597C320.891 61.3939 320.378 61.1371 320.05 60.7891C319.725 60.4377 319.562 59.9986 319.562 59.4716C319.562 59.0407 319.683 58.6596 319.925 58.3281C320.171 57.9967 320.504 57.7365 320.925 57.5476C321.349 57.3587 321.829 57.2642 322.366 57.2642C323.122 57.2642 323.715 57.4299 324.146 57.7614C324.58 58.0928 324.889 58.5303 325.071 59.0739ZM326.976 65V57.3636H328.15V65H326.976ZM327.573 56.0909C327.344 56.0909 327.147 56.013 326.981 55.8572C326.819 55.7015 326.738 55.5142 326.738 55.2955C326.738 55.0767 326.819 54.8894 326.981 54.7337C327.147 54.5779 327.344 54.5 327.573 54.5C327.801 54.5 327.997 54.5779 328.159 54.7337C328.325 54.8894 328.408 55.0767 328.408 55.2955C328.408 55.5142 328.325 55.7015 328.159 55.8572C327.997 56.013 327.801 56.0909 327.573 56.0909ZM333.619 57.3636V58.358H329.662V57.3636H333.619ZM330.816 55.5341H331.989V62.8125C331.989 63.1439 332.037 63.3925 332.133 63.5582C332.232 63.7206 332.358 63.83 332.511 63.8864C332.667 63.9394 332.831 63.9659 333.003 63.9659C333.132 63.9659 333.238 63.9593 333.321 63.946C333.404 63.9295 333.47 63.9162 333.52 63.9062L333.759 64.9602C333.679 64.9901 333.568 65.0199 333.426 65.0497C333.283 65.0829 333.102 65.0994 332.884 65.0994C332.552 65.0994 332.227 65.0282 331.909 64.8857C331.594 64.7431 331.333 64.526 331.124 64.2344C330.918 63.9427 330.816 63.5748 330.816 63.1307V55.5341ZM338.504 65.1591C337.768 65.1591 337.134 64.9967 336.6 64.6719C336.07 64.3438 335.66 63.8864 335.372 63.2997C335.087 62.7098 334.944 62.0237 334.944 61.2415C334.944 60.4593 335.087 59.7699 335.372 59.1733C335.66 58.5734 336.061 58.1061 336.575 57.7713C337.092 57.4332 337.695 57.2642 338.385 57.2642C338.782 57.2642 339.175 57.3305 339.563 57.4631C339.951 57.5956 340.304 57.8111 340.622 58.1094C340.94 58.4044 341.194 58.7955 341.383 59.2827C341.572 59.7699 341.666 60.3698 341.666 61.0824V61.5795H335.78V60.5653H340.473C340.473 60.1345 340.387 59.75 340.214 59.4119C340.045 59.0739 339.803 58.8071 339.488 58.6115C339.177 58.416 338.809 58.3182 338.385 58.3182C337.917 58.3182 337.513 58.4342 337.172 58.6662C336.834 58.8949 336.573 59.1932 336.391 59.5611C336.209 59.929 336.118 60.3234 336.118 60.7443V61.4205C336.118 61.9972 336.217 62.486 336.416 62.8871C336.618 63.2848 336.898 63.5881 337.256 63.7969C337.614 64.0024 338.03 64.1051 338.504 64.1051C338.812 64.1051 339.091 64.062 339.339 63.9759C339.591 63.8864 339.808 63.7538 339.991 63.5781C340.173 63.3991 340.314 63.1771 340.413 62.9119L341.547 63.2301C341.427 63.6146 341.227 63.9527 340.945 64.2443C340.663 64.5327 340.315 64.758 339.901 64.9205C339.487 65.0795 339.021 65.1591 338.504 65.1591Z" fill="#344054"/>
<path d="M347.885 65V54.8182H350.038V59.0192H354.408V54.8182H356.555V65H354.408V60.794H350.038V65H347.885ZM361.741 65.1491C360.969 65.1491 360.301 64.9851 359.737 64.657C359.177 64.3255 358.745 63.8648 358.44 63.2749C358.135 62.6816 357.982 61.9938 357.982 61.2116C357.982 60.4228 358.135 59.7334 358.44 59.1435C358.745 58.5502 359.177 58.0895 359.737 57.7614C360.301 57.4299 360.969 57.2642 361.741 57.2642C362.513 57.2642 363.179 57.4299 363.739 57.7614C364.303 58.0895 364.737 58.5502 365.042 59.1435C365.347 59.7334 365.499 60.4228 365.499 61.2116C365.499 61.9938 365.347 62.6816 365.042 63.2749C364.737 63.8648 364.303 64.3255 363.739 64.657C363.179 64.9851 362.513 65.1491 361.741 65.1491ZM361.751 63.5085C362.102 63.5085 362.395 63.4091 362.631 63.2102C362.866 63.008 363.043 62.733 363.163 62.3849C363.285 62.0369 363.347 61.6409 363.347 61.1967C363.347 60.7526 363.285 60.3565 363.163 60.0085C363.043 59.6605 362.866 59.3854 362.631 59.1832C362.395 58.9811 362.102 58.88 361.751 58.88C361.396 58.88 361.098 58.9811 360.856 59.1832C360.617 59.3854 360.437 59.6605 360.314 60.0085C360.195 60.3565 360.135 60.7526 360.135 61.1967C360.135 61.6409 360.195 62.0369 360.314 62.3849C360.437 62.733 360.617 63.008 360.856 63.2102C361.098 63.4091 361.396 63.5085 361.751 63.5085ZM368.191 65L366.113 57.3636H368.256L369.439 62.4943H369.509L370.742 57.3636H372.845L374.098 62.4645H374.162L375.326 57.3636H377.463L375.39 65H373.148L371.836 60.1974H371.741L370.429 65H368.191ZM385.895 57.3636V58.9545H381.297V57.3636H385.895ZM382.341 55.5341H384.458V62.6534C384.458 62.849 384.488 63.0014 384.548 63.1108C384.608 63.2169 384.69 63.2914 384.797 63.3345C384.906 63.3776 385.032 63.3991 385.174 63.3991C385.274 63.3991 385.373 63.3909 385.473 63.3743C385.572 63.3544 385.648 63.3395 385.701 63.3295L386.034 64.9055C385.928 64.9387 385.779 64.9768 385.587 65.0199C385.395 65.0663 385.161 65.0945 384.886 65.1044C384.376 65.1243 383.928 65.0563 383.544 64.9006C383.163 64.7448 382.866 64.5028 382.654 64.1747C382.442 63.8466 382.337 63.4323 382.341 62.9318V55.5341ZM390.643 65.1491C389.871 65.1491 389.203 64.9851 388.64 64.657C388.079 64.3255 387.647 63.8648 387.342 63.2749C387.037 62.6816 386.885 61.9938 386.885 61.2116C386.885 60.4228 387.037 59.7334 387.342 59.1435C387.647 58.5502 388.079 58.0895 388.64 57.7614C389.203 57.4299 389.871 57.2642 390.643 57.2642C391.415 57.2642 392.082 57.4299 392.642 57.7614C393.205 58.0895 393.639 58.5502 393.944 59.1435C394.249 59.7334 394.402 60.4228 394.402 61.2116C394.402 61.9938 394.249 62.6816 393.944 63.2749C393.639 63.8648 393.205 64.3255 392.642 64.657C392.082 64.9851 391.415 65.1491 390.643 65.1491ZM390.653 63.5085C391.004 63.5085 391.298 63.4091 391.533 63.2102C391.768 63.008 391.946 62.733 392.065 62.3849C392.188 62.0369 392.249 61.6409 392.249 61.1967C392.249 60.7526 392.188 60.3565 392.065 60.0085C391.946 59.6605 391.768 59.3854 391.533 59.1832C391.298 58.9811 391.004 58.88 390.653 58.88C390.298 58.88 390 58.9811 389.758 59.1832C389.52 59.3854 389.339 59.6605 389.216 60.0085C389.097 60.3565 389.037 60.7526 389.037 61.1967C389.037 61.6409 389.097 62.0369 389.216 62.3849C389.339 62.733 389.52 63.008 389.758 63.2102C390 63.4091 390.298 63.5085 390.653 63.5085ZM399.019 65V57.3636H401.137V65H399.019ZM400.083 56.3793C399.768 56.3793 399.498 56.2749 399.273 56.0661C399.05 55.8539 398.939 55.6004 398.939 55.3054C398.939 55.0137 399.05 54.7635 399.273 54.5547C399.498 54.3426 399.768 54.2365 400.083 54.2365C400.398 54.2365 400.666 54.3426 400.888 54.5547C401.114 54.7635 401.226 55.0137 401.226 55.3054C401.226 55.6004 401.114 55.8539 400.888 56.0661C400.666 56.2749 400.398 56.3793 400.083 56.3793ZM405.647 65.1243C405.067 65.1243 404.542 64.9751 404.071 64.6768C403.604 64.3752 403.233 63.9328 402.958 63.3494C402.686 62.7628 402.55 62.0436 402.55 61.1918C402.55 60.3168 402.691 59.5893 402.973 59.0092C403.254 58.4259 403.629 57.9901 404.096 57.7017C404.567 57.41 405.082 57.2642 405.642 57.2642C406.07 57.2642 406.426 57.3371 406.711 57.483C407 57.6255 407.232 57.8045 407.407 58.0199C407.586 58.232 407.722 58.4408 407.815 58.6463H407.88V54.8182H409.993V65H407.904V63.777H407.815C407.716 63.9891 407.575 64.1996 407.392 64.4084C407.213 64.6139 406.98 64.7846 406.691 64.9205C406.406 65.0563 406.058 65.1243 405.647 65.1243ZM406.319 63.4389C406.66 63.4389 406.948 63.3461 407.184 63.1605C407.422 62.9716 407.605 62.7081 407.73 62.37C407.86 62.032 407.924 61.6359 407.924 61.1818C407.924 60.7277 407.861 60.3333 407.735 59.9986C407.609 59.6638 407.427 59.4053 407.189 59.223C406.95 59.0407 406.66 58.9496 406.319 58.9496C405.971 58.9496 405.677 59.044 405.439 59.233C405.2 59.4219 405.019 59.6837 404.897 60.0185C404.774 60.3532 404.713 60.741 404.713 61.1818C404.713 61.6259 404.774 62.0187 404.897 62.3601C405.023 62.6982 405.203 62.9633 405.439 63.1555C405.677 63.3445 405.971 63.4389 406.319 63.4389ZM415.214 65.1491C414.428 65.1491 413.752 64.9901 413.186 64.6719C412.622 64.3504 412.188 63.8963 411.883 63.3097C411.578 62.7197 411.426 62.022 411.426 61.2166C411.426 60.4311 411.578 59.7417 411.883 59.1484C412.188 58.5552 412.617 58.0928 413.171 57.7614C413.727 57.4299 414.38 57.2642 415.129 57.2642C415.633 57.2642 416.102 57.3454 416.536 57.5078C416.974 57.6669 417.355 57.9072 417.68 58.2287C418.008 58.5502 418.263 58.9545 418.445 59.4418C418.628 59.9257 418.719 60.4924 418.719 61.142V61.7237H412.271V60.4112H416.725C416.725 60.1063 416.659 59.8362 416.526 59.6009C416.394 59.3655 416.21 59.1816 415.975 59.049C415.743 58.9131 415.472 58.8452 415.164 58.8452C414.843 58.8452 414.558 58.9197 414.309 59.0689C414.064 59.2147 413.872 59.4119 413.732 59.6605C413.593 59.9058 413.522 60.1792 413.519 60.4808V61.7287C413.519 62.1065 413.588 62.433 413.727 62.7081C413.87 62.9832 414.07 63.1953 414.329 63.3445C414.588 63.4936 414.894 63.5682 415.249 63.5682C415.484 63.5682 415.7 63.535 415.895 63.4688C416.091 63.4025 416.258 63.303 416.397 63.1705C416.536 63.0379 416.642 62.8755 416.715 62.6832L418.674 62.8125C418.575 63.2831 418.371 63.6941 418.063 64.0455C417.758 64.3935 417.363 64.6652 416.879 64.8608C416.399 65.053 415.844 65.1491 415.214 65.1491ZM422.219 60.5852V65H420.101V57.3636H422.119V58.7109H422.209C422.378 58.2668 422.661 57.9155 423.059 57.657C423.457 57.3951 423.939 57.2642 424.506 57.2642C425.036 57.2642 425.499 57.3802 425.893 57.6122C426.287 57.8442 426.594 58.1757 426.813 58.6065C427.031 59.0341 427.141 59.5445 427.141 60.1378V65H425.023V60.5156C425.026 60.0483 424.907 59.6837 424.665 59.4219C424.423 59.1567 424.09 59.0241 423.666 59.0241C423.381 59.0241 423.129 59.0855 422.91 59.2081C422.695 59.3307 422.526 59.5097 422.403 59.745C422.284 59.977 422.222 60.2571 422.219 60.5852ZM432.872 57.3636V58.9545H428.273V57.3636H432.872ZM429.317 55.5341H431.435V62.6534C431.435 62.849 431.465 63.0014 431.525 63.1108C431.584 63.2169 431.667 63.2914 431.773 63.3345C431.882 63.3776 432.008 63.3991 432.151 63.3991C432.25 63.3991 432.35 63.3909 432.449 63.3743C432.549 63.3544 432.625 63.3395 432.678 63.3295L433.011 64.9055C432.905 64.9387 432.756 64.9768 432.564 65.0199C432.371 65.0663 432.138 65.0945 431.863 65.1044C431.352 65.1243 430.905 65.0563 430.52 64.9006C430.139 64.7448 429.842 64.5028 429.63 64.1747C429.418 63.8466 429.314 63.4323 429.317 62.9318V55.5341ZM434.251 65V57.3636H436.369V65H434.251ZM435.315 56.3793C435 56.3793 434.73 56.2749 434.505 56.0661C434.283 55.8539 434.172 55.6004 434.172 55.3054C434.172 55.0137 434.283 54.7635 434.505 54.5547C434.73 54.3426 435 54.2365 435.315 54.2365C435.63 54.2365 435.899 54.3426 436.121 54.5547C436.346 54.7635 436.459 55.0137 436.459 55.3054C436.459 55.6004 436.346 55.8539 436.121 56.0661C435.899 56.2749 435.63 56.3793 435.315 56.3793ZM442.172 57.3636V58.9545H437.459V57.3636H442.172ZM438.538 65V56.8118C438.538 56.2583 438.646 55.7992 438.861 55.4347C439.08 55.0701 439.378 54.7966 439.756 54.6143C440.134 54.4321 440.563 54.3409 441.044 54.3409C441.369 54.3409 441.665 54.3658 441.934 54.4155C442.206 54.4652 442.408 54.5099 442.54 54.5497L442.162 56.1406C442.08 56.1141 441.977 56.0893 441.854 56.0661C441.735 56.0429 441.612 56.0312 441.486 56.0312C441.175 56.0312 440.958 56.1042 440.835 56.25C440.712 56.3925 440.651 56.593 440.651 56.8516V65H438.538ZM444.774 67.8636C444.505 67.8636 444.253 67.8421 444.018 67.799C443.786 67.7592 443.594 67.7079 443.441 67.6449L443.919 66.0639C444.167 66.1402 444.391 66.1816 444.59 66.1882C444.792 66.1948 444.966 66.1484 445.112 66.049C445.261 65.9496 445.382 65.7805 445.475 65.5419L445.599 65.2188L442.86 57.3636H445.087L446.668 62.9716H446.748L448.343 57.3636H450.586L447.618 65.8253C447.475 66.2363 447.281 66.5942 447.036 66.8991C446.794 67.2074 446.487 67.4444 446.116 67.6101C445.745 67.7791 445.297 67.8636 444.774 67.8636Z" fill="#0F71BB"/>
<path d="M347 67.7841H450.824V68.7386H347V67.7841Z" fill="#0F71BB"/>
<path fill-rule="evenodd" clip-rule="evenodd" d="M457.136 56.9044C457.178 56.8614 457.229 56.8273 457.285 56.804C457.342 56.7808 457.402 56.7688 457.462 56.7688C457.523 56.7688 457.583 56.7808 457.639 56.804C457.695 56.8273 457.746 56.8614 457.789 56.9044L463 62.1164L468.211 56.9044C468.254 56.8615 468.305 56.8274 468.361 56.8042C468.417 56.781 468.477 56.769 468.538 56.769C468.599 56.769 468.659 56.781 468.715 56.8042C468.771 56.8274 468.822 56.8615 468.865 56.9044C468.908 56.9473 468.942 56.9982 468.965 57.0543C468.988 57.1103 469 57.1704 469 57.2311C469 57.2918 468.988 57.3519 468.965 57.4079C468.942 57.464 468.908 57.5149 468.865 57.5578L463.327 63.0957C463.284 63.1386 463.233 63.1727 463.177 63.196C463.121 63.2193 463.061 63.2312 463 63.2312C462.939 63.2312 462.879 63.2193 462.823 63.196C462.767 63.1727 462.716 63.1386 462.673 63.0957L457.136 57.5578C457.093 57.515 457.059 57.464 457.035 57.408C457.012 57.3519 457 57.2918 457 57.2311C457 57.1704 457.012 57.1103 457.035 57.0542C457.059 56.9982 457.093 56.9472 457.136 56.9044Z" fill="#0F71BB"/>
<circle cx="12" cy="16" r="12" fill="#344054"/>
<path d="M14.0057 10.3636V22H11.5455V12.6989H11.4773L8.8125 14.3693V12.1875L11.6932 10.3636H14.0057Z" fill="white"/>
<circle cx="463" cy="137" r="12" fill="#344054"/>
<path d="M463.244 143.159C462.396 143.159 461.64 143.013 460.977 142.722C460.318 142.426 459.797 142.021 459.415 141.506C459.036 140.987 458.841 140.388 458.83 139.71H461.307C461.322 139.994 461.415 140.244 461.585 140.46C461.759 140.672 461.991 140.837 462.278 140.955C462.566 141.072 462.89 141.131 463.25 141.131C463.625 141.131 463.956 141.064 464.244 140.932C464.532 140.799 464.758 140.616 464.92 140.381C465.083 140.146 465.165 139.875 465.165 139.568C465.165 139.258 465.078 138.983 464.903 138.744C464.733 138.502 464.487 138.312 464.165 138.176C463.847 138.04 463.468 137.972 463.028 137.972H461.943V136.165H463.028C463.4 136.165 463.727 136.1 464.011 135.972C464.299 135.843 464.523 135.665 464.682 135.438C464.841 135.206 464.92 134.938 464.92 134.631C464.92 134.339 464.85 134.083 464.71 133.864C464.574 133.64 464.381 133.466 464.131 133.341C463.884 133.216 463.597 133.153 463.267 133.153C462.934 133.153 462.629 133.214 462.352 133.335C462.076 133.453 461.854 133.621 461.688 133.841C461.521 134.061 461.432 134.318 461.42 134.614H459.062C459.074 133.943 459.265 133.352 459.636 132.841C460.008 132.33 460.508 131.93 461.136 131.642C461.769 131.35 462.483 131.205 463.278 131.205C464.081 131.205 464.784 131.35 465.386 131.642C465.989 131.934 466.456 132.328 466.79 132.824C467.127 133.316 467.294 133.869 467.29 134.483C467.294 135.134 467.091 135.678 466.682 136.114C466.277 136.549 465.748 136.826 465.097 136.943V137.034C465.953 137.144 466.604 137.441 467.051 137.926C467.502 138.407 467.725 139.009 467.722 139.733C467.725 140.396 467.534 140.985 467.148 141.5C466.765 142.015 466.237 142.42 465.562 142.716C464.888 143.011 464.116 143.159 463.244 143.159Z" fill="white"/>
<path d="M463 125.5V78" stroke="#344054" stroke-dasharray="2 2"/>
<circle cx="232" cy="137" r="12" fill="#344054"/>
<path d="M227.943 143V141.227L232.085 137.392C232.438 137.051 232.733 136.744 232.972 136.472C233.214 136.199 233.398 135.932 233.523 135.67C233.648 135.405 233.71 135.119 233.71 134.812C233.71 134.472 233.633 134.178 233.477 133.932C233.322 133.682 233.11 133.491 232.841 133.358C232.572 133.222 232.267 133.153 231.926 133.153C231.57 133.153 231.259 133.225 230.994 133.369C230.729 133.513 230.525 133.72 230.381 133.989C230.237 134.258 230.165 134.578 230.165 134.949H227.83C227.83 134.187 228.002 133.527 228.347 132.966C228.691 132.405 229.174 131.972 229.795 131.665C230.417 131.358 231.133 131.205 231.943 131.205C232.777 131.205 233.502 131.352 234.119 131.648C234.741 131.939 235.223 132.345 235.568 132.864C235.913 133.383 236.085 133.977 236.085 134.648C236.085 135.087 235.998 135.521 235.824 135.949C235.653 136.377 235.348 136.852 234.909 137.375C234.47 137.894 233.85 138.517 233.051 139.244L231.352 140.909V140.989H236.239V143H227.943Z" fill="white"/>
<path d="M232 125.5V78" stroke="#344054" stroke-dasharray="2 2"/>
<path d="M24 13H97V49" stroke="#344054" stroke-dasharray="2 2"/>
</svg>
