<svg width="734" height="82" viewBox="0 0 734 82" fill="none" xmlns="http://www.w3.org/2000/svg">
<rect width="626" height="40" transform="translate(51.5 3.5)" fill="#F0F0F0"/>
<path d="M125.916 19.5145C125.916 19.5145 125.214 20.5417 126.133 21.87C126.133 21.87 126.278 21.1936 127.73 21.1936H129.473C131.119 21.1936 132.353 19.5651 131.579 17.8853C131.579 17.8853 132.74 18.0109 133.128 17.2587C133.515 16.5072 133.104 16.2062 132.523 16.2062H129.595C129.595 16.7455 128.602 16.8205 128.602 16.2062H126.957C126.957 16.2062 125.722 16.2062 125.698 17.284C125.698 17.284 125.977 17.1086 126.255 17.084V17.3713C126.255 17.3713 125.916 17.4341 125.758 17.5222C125.601 17.6095 125.371 17.8477 125.589 18.4621C125.807 19.0756 125.892 19.2886 125.892 19.2886C125.892 19.2886 126.243 18.9745 126.812 18.9745H127.478C128.663 18.9745 128.446 20.1649 127.26 20.1649C126.074 20.1649 125.917 19.5138 125.917 19.5138L125.916 19.5145Z" fill="#DB0000"/>
<path d="M132.099 18.2744C132.099 18.2744 132.499 18.2997 132.789 18.0369C132.789 18.0369 135.415 20.1549 131.519 24.4146C127.622 28.675 130.635 31.4326 130.635 31.4326C130.635 31.4326 129.933 32.1335 130.332 33.5C130.332 33.5 128.711 32.5525 127.471 30.9431C125.68 28.6176 124.585 25.0595 129.505 22.2216C129.505 22.2216 132.752 20.5302 132.099 18.2744H132.099Z" fill="#DB0000"/>
<path d="M128.086 15.8056C128.086 15.8056 128.61 14.8367 129.828 14.8367C130.788 14.8367 131.007 14.3265 131.007 14.3265C131.007 14.3265 131.426 13.5 133.54 13.5C135.477 13.5 136.783 14.1687 137.839 15.0619C137.839 15.0619 134.991 13.2327 132.184 15.8056H128.086Z" fill="#DB0000"/>
<path d="M139.929 21.9373C139.848 18.9132 137.589 15.6723 132.733 15.8561C137.477 11.696 145.706 20.9844 138.928 25.8646C138.928 25.8646 140.062 24.1901 139.929 21.9381V21.9373Z" fill="#DB0000"/>
<path d="M133.459 16.1902C139.381 16.0063 141.495 23.3575 137.67 26.6658L133.83 28.5877C133.83 28.5877 133.33 26.9171 135.186 24.9615C137.042 23.0075 138.833 19.3483 133.702 16.9424C133.702 16.9424 133.799 16.4414 133.461 16.1909L133.459 16.1902Z" fill="#DB0000"/>
<path d="M133.152 17.8439C133.152 17.8439 133.443 17.5597 133.54 17.3261C137.944 19.2304 137.251 22.456 134.62 25.1622C133.007 26.8826 133.507 28.7379 133.507 28.7379C133.507 28.7379 131.539 30.0071 130.861 31.1101C130.861 31.1101 128.012 28.5977 131.958 24.4276C135.831 20.3342 133.152 17.8447 133.152 17.8447V17.8439Z" fill="#DB0000"/>
<path d="M163.151 28.5H161.858L165.597 18.3182H166.869L170.608 28.5H169.315L166.273 19.929H166.193L163.151 28.5ZM163.628 24.5227H168.838V25.6165H163.628V24.5227ZM181.7 20.8636C181.64 20.3598 181.398 19.9688 180.974 19.6903C180.549 19.4119 180.029 19.2727 179.413 19.2727C178.962 19.2727 178.567 19.3456 178.229 19.4915C177.895 19.6373 177.633 19.8378 177.444 20.093C177.258 20.3482 177.165 20.6383 177.165 20.9631C177.165 21.2348 177.23 21.4685 177.359 21.6641C177.492 21.8563 177.661 22.017 177.866 22.1463C178.072 22.2723 178.287 22.3767 178.513 22.4595C178.738 22.5391 178.945 22.6037 179.134 22.6534L180.168 22.9318C180.433 23.0014 180.728 23.0975 181.053 23.2202C181.381 23.3428 181.695 23.5102 181.993 23.7223C182.295 23.9311 182.543 24.1996 182.739 24.5277C182.934 24.8558 183.032 25.2585 183.032 25.7358C183.032 26.286 182.888 26.7831 182.599 27.2273C182.314 27.6714 181.897 28.0244 181.347 28.2862C180.8 28.5481 180.135 28.679 179.353 28.679C178.624 28.679 177.992 28.5613 177.459 28.326C176.929 28.0907 176.511 27.7625 176.206 27.3416C175.904 26.9207 175.734 26.4318 175.694 25.875H176.967C177 26.2595 177.129 26.5777 177.354 26.8295C177.583 27.0781 177.871 27.2637 178.219 27.3864C178.571 27.5057 178.949 27.5653 179.353 27.5653C179.824 27.5653 180.246 27.4891 180.621 27.3366C180.995 27.1809 181.292 26.9654 181.511 26.6903C181.729 26.4119 181.839 26.0871 181.839 25.7159C181.839 25.3778 181.744 25.1027 181.555 24.8906C181.366 24.6785 181.118 24.5062 180.81 24.3736C180.501 24.241 180.168 24.125 179.81 24.0256L178.558 23.6676C177.762 23.4389 177.132 23.1125 176.668 22.6882C176.204 22.264 175.972 21.7088 175.972 21.0227C175.972 20.4527 176.126 19.9555 176.435 19.5312C176.746 19.1037 177.164 18.7723 177.688 18.5369C178.214 18.2983 178.803 18.179 179.452 18.179C180.109 18.179 180.692 18.2966 181.202 18.532C181.713 18.764 182.117 19.0821 182.415 19.4865C182.717 19.8909 182.876 20.3499 182.893 20.8636H181.7ZM184.9 28.5V20.8636H186.073V28.5H184.9ZM185.497 19.5909C185.268 19.5909 185.071 19.513 184.905 19.3572C184.743 19.2015 184.661 19.0142 184.661 18.7955C184.661 18.5767 184.743 18.3894 184.905 18.2337C185.071 18.0779 185.268 18 185.497 18C185.725 18 185.921 18.0779 186.083 18.2337C186.249 18.3894 186.332 18.5767 186.332 18.7955C186.332 19.0142 186.249 19.2015 186.083 19.3572C185.921 19.513 185.725 19.5909 185.497 19.5909ZM189.396 23.9062V28.5H188.222V20.8636H189.356V22.0568H189.455C189.634 21.669 189.906 21.3575 190.271 21.1222C190.635 20.8835 191.106 20.7642 191.683 20.7642C192.2 20.7642 192.652 20.8703 193.04 21.0824C193.428 21.2912 193.729 21.6094 193.945 22.0369C194.16 22.4612 194.268 22.9981 194.268 23.6477V28.5H193.094V23.7273C193.094 23.1274 192.939 22.66 192.627 22.3253C192.316 21.9872 191.888 21.8182 191.344 21.8182C190.97 21.8182 190.635 21.8994 190.34 22.0618C190.049 22.2242 189.818 22.4612 189.649 22.7727C189.48 23.0843 189.396 23.4621 189.396 23.9062ZM199.494 31.5227C198.927 31.5227 198.44 31.4498 198.032 31.304C197.625 31.1615 197.285 30.9725 197.013 30.7372C196.745 30.5052 196.531 30.2566 196.372 29.9915L197.307 29.3352C197.413 29.4744 197.547 29.6335 197.709 29.8125C197.872 29.9948 198.094 30.1522 198.376 30.2848C198.661 30.4207 199.033 30.4886 199.494 30.4886C200.111 30.4886 200.619 30.3395 201.02 30.0412C201.421 29.7429 201.622 29.2756 201.622 28.6392V27.0881H201.523C201.436 27.2273 201.314 27.3996 201.155 27.6051C200.999 27.8073 200.773 27.9879 200.479 28.147C200.187 28.3028 199.792 28.3807 199.295 28.3807C198.679 28.3807 198.125 28.2348 197.635 27.9432C197.148 27.6515 196.761 27.2273 196.476 26.6705C196.195 26.1136 196.054 25.4375 196.054 24.642C196.054 23.8598 196.191 23.1787 196.466 22.5987C196.742 22.0154 197.124 21.5646 197.615 21.2464C198.105 20.925 198.672 20.7642 199.315 20.7642C199.812 20.7642 200.207 20.8471 200.498 21.0128C200.793 21.1752 201.019 21.3608 201.175 21.5696C201.334 21.7751 201.456 21.9441 201.542 22.0767H201.662V20.8636H202.795V28.7188C202.795 29.375 202.646 29.9086 202.348 30.3196C202.053 30.7339 201.655 31.0372 201.155 31.2294C200.657 31.425 200.104 31.5227 199.494 31.5227ZM199.454 27.3267C199.925 27.3267 200.323 27.219 200.648 27.0036C200.972 26.7881 201.219 26.4782 201.388 26.0739C201.557 25.6695 201.642 25.1856 201.642 24.6222C201.642 24.072 201.559 23.5864 201.393 23.1655C201.228 22.7446 200.982 22.4148 200.657 22.1761C200.333 21.9375 199.932 21.8182 199.454 21.8182C198.957 21.8182 198.543 21.9441 198.211 22.196C197.883 22.4479 197.636 22.786 197.471 23.2102C197.308 23.6345 197.227 24.1051 197.227 24.6222C197.227 25.1525 197.31 25.6214 197.476 26.0291C197.645 26.4335 197.893 26.7517 198.221 26.9837C198.553 27.2124 198.964 27.3267 199.454 27.3267ZM207.19 28.679C206.706 28.679 206.267 28.5878 205.873 28.4055C205.478 28.2199 205.165 27.9531 204.933 27.6051C204.701 27.2538 204.585 26.8295 204.585 26.3324C204.585 25.8949 204.671 25.5402 204.844 25.2685C205.016 24.9934 205.246 24.7779 205.535 24.6222C205.823 24.4664 206.141 24.3504 206.489 24.2741C206.84 24.1946 207.193 24.1316 207.548 24.0852C208.012 24.0256 208.388 23.9808 208.677 23.951C208.968 23.9179 209.18 23.8632 209.313 23.7869C209.449 23.7107 209.517 23.5781 209.517 23.3892V23.3494C209.517 22.8589 209.383 22.4777 209.114 22.206C208.849 21.9342 208.446 21.7983 207.906 21.7983C207.346 21.7983 206.907 21.9209 206.589 22.1662C206.27 22.4115 206.047 22.6733 205.917 22.9517L204.804 22.554C205.003 22.09 205.268 21.7287 205.599 21.4702C205.934 21.2083 206.299 21.026 206.693 20.9233C207.091 20.8172 207.482 20.7642 207.866 20.7642C208.112 20.7642 208.393 20.794 208.711 20.8537C209.033 20.91 209.343 21.0277 209.641 21.2067C209.943 21.3857 210.193 21.6558 210.392 22.017C210.591 22.3783 210.69 22.8622 210.69 23.4688V28.5H209.517V27.4659H209.457C209.378 27.6316 209.245 27.8089 209.059 27.9979C208.874 28.1868 208.627 28.3475 208.319 28.4801C208.01 28.6127 207.634 28.679 207.19 28.679ZM207.369 27.625C207.833 27.625 208.224 27.5339 208.542 27.3516C208.864 27.1693 209.106 26.9339 209.268 26.6456C209.434 26.3572 209.517 26.054 209.517 25.7358V24.6619C209.467 24.7216 209.358 24.7763 209.189 24.826C209.023 24.8724 208.831 24.9138 208.612 24.9503C208.397 24.9834 208.186 25.0133 207.981 25.0398C207.778 25.063 207.614 25.0829 207.488 25.0994C207.184 25.1392 206.898 25.2038 206.633 25.2933C206.372 25.3795 206.159 25.5104 205.997 25.6861C205.838 25.8584 205.758 26.0937 205.758 26.392C205.758 26.7997 205.909 27.108 206.211 27.3168C206.516 27.5223 206.902 27.625 207.369 27.625ZM212.832 31.3636V20.8636H213.965V22.0767H214.104C214.191 21.9441 214.31 21.7751 214.462 21.5696C214.618 21.3608 214.84 21.1752 215.129 21.0128C215.42 20.8471 215.815 20.7642 216.312 20.7642C216.955 20.7642 217.522 20.925 218.012 21.2464C218.503 21.5679 218.885 22.0237 219.161 22.6136C219.436 23.2036 219.573 23.8996 219.573 24.7017C219.573 25.5104 219.436 26.2114 219.161 26.8047C218.885 27.3946 218.504 27.852 218.017 28.1768C217.53 28.4983 216.968 28.6591 216.332 28.6591C215.841 28.6591 215.448 28.5779 215.153 28.4155C214.858 28.2498 214.631 28.0625 214.472 27.8537C214.313 27.6416 214.191 27.4659 214.104 27.3267H214.005V31.3636H212.832ZM213.985 24.6818C213.985 25.2585 214.07 25.7673 214.239 26.2081C214.408 26.6456 214.655 26.9886 214.979 27.2372C215.304 27.4825 215.702 27.6051 216.173 27.6051C216.663 27.6051 217.072 27.4759 217.401 27.2173C217.732 26.9555 217.981 26.6042 218.146 26.1634C218.315 25.7192 218.4 25.2254 218.4 24.6818C218.4 24.1449 218.317 23.661 218.151 23.2301C217.989 22.7959 217.742 22.4529 217.411 22.201C217.082 21.9458 216.67 21.8182 216.173 21.8182C215.695 21.8182 215.294 21.9392 214.969 22.1811C214.645 22.4197 214.399 22.7545 214.234 23.1854C214.068 23.6129 213.985 24.1117 213.985 24.6818ZM224.465 28.6591C223.776 28.6591 223.171 28.495 222.651 28.1669C222.134 27.8388 221.729 27.3797 221.438 26.7898C221.149 26.1998 221.005 25.5104 221.005 24.7216C221.005 23.9261 221.149 23.2318 221.438 22.6385C221.729 22.0452 222.134 21.5845 222.651 21.2564C223.171 20.9283 223.776 20.7642 224.465 20.7642C225.155 20.7642 225.758 20.9283 226.275 21.2564C226.795 21.5845 227.2 22.0452 227.488 22.6385C227.78 23.2318 227.925 23.9261 227.925 24.7216C227.925 25.5104 227.78 26.1998 227.488 26.7898C227.2 27.3797 226.795 27.8388 226.275 28.1669C225.758 28.495 225.155 28.6591 224.465 28.6591ZM224.465 27.6051C224.989 27.6051 225.42 27.4709 225.758 27.2024C226.096 26.9339 226.346 26.581 226.509 26.1435C226.671 25.706 226.752 25.232 226.752 24.7216C226.752 24.2112 226.671 23.7356 226.509 23.2947C226.346 22.8539 226.096 22.4976 225.758 22.2259C225.42 21.9541 224.989 21.8182 224.465 21.8182C223.942 21.8182 223.511 21.9541 223.173 22.2259C222.835 22.4976 222.584 22.8539 222.422 23.2947C222.259 23.7356 222.178 24.2112 222.178 24.7216C222.178 25.232 222.259 25.706 222.422 26.1435C222.584 26.581 222.835 26.9339 223.173 27.2024C223.511 27.4709 223.942 27.6051 224.465 27.6051ZM229.716 28.5V20.8636H230.85V22.017H230.93C231.069 21.6392 231.321 21.3326 231.685 21.0973C232.05 20.862 232.461 20.7443 232.918 20.7443C233.004 20.7443 233.112 20.746 233.241 20.7493C233.371 20.7526 233.468 20.7576 233.535 20.7642V21.9574C233.495 21.9474 233.404 21.9325 233.261 21.9126C233.122 21.8894 232.974 21.8778 232.819 21.8778C232.448 21.8778 232.116 21.9557 231.824 22.1115C231.536 22.264 231.307 22.4761 231.138 22.7479C230.973 23.0163 230.89 23.3229 230.89 23.6676V28.5H229.716ZM237.895 28.6591C237.159 28.6591 236.524 28.4967 235.991 28.1719C235.46 27.8438 235.051 27.3864 234.763 26.7997C234.478 26.2098 234.335 25.5237 234.335 24.7415C234.335 23.9593 234.478 23.2699 234.763 22.6733C235.051 22.0734 235.452 21.6061 235.966 21.2713C236.483 20.9332 237.086 20.7642 237.775 20.7642C238.173 20.7642 238.566 20.8305 238.954 20.9631C239.341 21.0956 239.694 21.3111 240.013 21.6094C240.331 21.9044 240.584 22.2955 240.773 22.7827C240.962 23.2699 241.057 23.8698 241.057 24.5824V25.0795H235.17V24.0653H239.863C239.863 23.6345 239.777 23.25 239.605 22.9119C239.436 22.5739 239.194 22.3071 238.879 22.1115C238.568 21.916 238.2 21.8182 237.775 21.8182C237.308 21.8182 236.904 21.9342 236.562 22.1662C236.224 22.3949 235.964 22.6932 235.782 23.0611C235.599 23.429 235.508 23.8234 235.508 24.2443V24.9205C235.508 25.4972 235.608 25.986 235.807 26.3871C236.009 26.7848 236.289 27.0881 236.647 27.2969C237.005 27.5024 237.421 27.6051 237.895 27.6051C238.203 27.6051 238.481 27.562 238.73 27.4759C238.982 27.3864 239.199 27.2538 239.381 27.0781C239.564 26.8991 239.704 26.6771 239.804 26.4119L240.937 26.7301C240.818 27.1146 240.617 27.4527 240.336 27.7443C240.054 28.0327 239.706 28.258 239.292 28.4205C238.877 28.5795 238.412 28.6591 237.895 28.6591ZM253.898 21.5C253.789 21.1652 253.645 20.8653 253.466 20.6001C253.29 20.3317 253.08 20.103 252.834 19.9141C252.592 19.7251 252.317 19.581 252.009 19.4815C251.701 19.3821 251.363 19.3324 250.995 19.3324C250.392 19.3324 249.843 19.4882 249.349 19.7997C248.855 20.1113 248.463 20.5703 248.171 21.1768C247.879 21.7834 247.733 22.5275 247.733 23.4091C247.733 24.2907 247.881 25.0348 248.176 25.6413C248.471 26.2479 248.87 26.7069 249.374 27.0185C249.878 27.33 250.445 27.4858 251.074 27.4858C251.658 27.4858 252.171 27.3615 252.616 27.1129C253.063 26.861 253.411 26.5064 253.66 26.049C253.912 25.5883 254.037 25.0464 254.037 24.4233L254.415 24.5028H251.353V23.4091H255.231V24.5028C255.231 25.3414 255.052 26.0705 254.694 26.6903C254.339 27.3101 253.849 27.7907 253.222 28.1321C252.599 28.4702 251.883 28.6392 251.074 28.6392C250.173 28.6392 249.381 28.4271 248.698 28.0028C248.019 27.5786 247.488 26.9754 247.107 26.1932C246.729 25.411 246.54 24.483 246.54 23.4091C246.54 22.6037 246.648 21.8795 246.863 21.2365C247.082 20.5902 247.39 20.04 247.788 19.5859C248.186 19.1319 248.657 18.7839 249.2 18.5419C249.744 18.3 250.342 18.179 250.995 18.179C251.532 18.179 252.032 18.2602 252.496 18.4226C252.964 18.5817 253.38 18.8087 253.744 19.1037C254.112 19.3954 254.419 19.745 254.664 20.1527C254.909 20.5571 255.078 21.0062 255.171 21.5H253.898ZM260.286 28.6591C259.596 28.6591 258.991 28.495 258.471 28.1669C257.954 27.8388 257.549 27.3797 257.258 26.7898C256.969 26.1998 256.825 25.5104 256.825 24.7216C256.825 23.9261 256.969 23.2318 257.258 22.6385C257.549 22.0452 257.954 21.5845 258.471 21.2564C258.991 20.9283 259.596 20.7642 260.286 20.7642C260.975 20.7642 261.578 20.9283 262.095 21.2564C262.616 21.5845 263.02 22.0452 263.308 22.6385C263.6 23.2318 263.746 23.9261 263.746 24.7216C263.746 25.5104 263.6 26.1998 263.308 26.7898C263.02 27.3797 262.616 27.8388 262.095 28.1669C261.578 28.495 260.975 28.6591 260.286 28.6591ZM260.286 27.6051C260.809 27.6051 261.24 27.4709 261.578 27.2024C261.916 26.9339 262.166 26.581 262.329 26.1435C262.491 25.706 262.572 25.232 262.572 24.7216C262.572 24.2112 262.491 23.7356 262.329 23.2947C262.166 22.8539 261.916 22.4976 261.578 22.2259C261.24 21.9541 260.809 21.8182 260.286 21.8182C259.762 21.8182 259.331 21.9541 258.993 22.2259C258.655 22.4976 258.405 22.8539 258.242 23.2947C258.08 23.7356 257.999 24.2112 257.999 24.7216C257.999 25.232 258.08 25.706 258.242 26.1435C258.405 26.581 258.655 26.9339 258.993 27.2024C259.331 27.4709 259.762 27.6051 260.286 27.6051ZM271.508 20.8636L268.684 28.5H267.491L264.667 20.8636H265.939L268.047 26.9489H268.127L270.235 20.8636H271.508ZM275.985 28.6591C275.249 28.6591 274.614 28.4967 274.08 28.1719C273.55 27.8438 273.141 27.3864 272.852 26.7997C272.567 26.2098 272.425 25.5237 272.425 24.7415C272.425 23.9593 272.567 23.2699 272.852 22.6733C273.141 22.0734 273.542 21.6061 274.056 21.2713C274.573 20.9332 275.176 20.7642 275.865 20.7642C276.263 20.7642 276.656 20.8305 277.044 20.9631C277.431 21.0956 277.784 21.3111 278.102 21.6094C278.421 21.9044 278.674 22.2955 278.863 22.7827C279.052 23.2699 279.146 23.8698 279.146 24.5824V25.0795H273.26V24.0653H277.953C277.953 23.6345 277.867 23.25 277.695 22.9119C277.526 22.5739 277.284 22.3071 276.969 22.1115C276.657 21.916 276.289 21.8182 275.865 21.8182C275.398 21.8182 274.994 21.9342 274.652 22.1662C274.314 22.3949 274.054 22.6932 273.872 23.0611C273.689 23.429 273.598 23.8234 273.598 24.2443V24.9205C273.598 25.4972 273.698 25.986 273.896 26.3871C274.099 26.7848 274.379 27.0881 274.737 27.2969C275.095 27.5024 275.511 27.6051 275.985 27.6051C276.293 27.6051 276.571 27.562 276.82 27.4759C277.072 27.3864 277.289 27.2538 277.471 27.0781C277.653 26.8991 277.794 26.6771 277.894 26.4119L279.027 26.7301C278.908 27.1146 278.707 27.4527 278.426 27.7443C278.144 28.0327 277.796 28.258 277.382 28.4205C276.967 28.5795 276.502 28.6591 275.985 28.6591ZM280.931 28.5V20.8636H282.065V22.017H282.144C282.284 21.6392 282.535 21.3326 282.9 21.0973C283.265 20.862 283.676 20.7443 284.133 20.7443C284.219 20.7443 284.327 20.746 284.456 20.7493C284.585 20.7526 284.683 20.7576 284.749 20.7642V21.9574C284.71 21.9474 284.619 21.9325 284.476 21.9126C284.337 21.8894 284.189 21.8778 284.034 21.8778C283.662 21.8778 283.331 21.9557 283.039 22.1115C282.751 22.264 282.522 22.4761 282.353 22.7479C282.187 23.0163 282.105 23.3229 282.105 23.6676V28.5H280.931ZM287.314 23.9062V28.5H286.14V20.8636H287.274V22.0568H287.373C287.552 21.669 287.824 21.3575 288.189 21.1222C288.553 20.8835 289.024 20.7642 289.6 20.7642C290.118 20.7642 290.57 20.8703 290.958 21.0824C291.346 21.2912 291.647 21.6094 291.863 22.0369C292.078 22.4612 292.186 22.9981 292.186 23.6477V28.5H291.012V23.7273C291.012 23.1274 290.857 22.66 290.545 22.3253C290.234 21.9872 289.806 21.8182 289.262 21.8182C288.888 21.8182 288.553 21.8994 288.258 22.0618C287.967 22.2242 287.736 22.4612 287.567 22.7727C287.398 23.0843 287.314 23.4621 287.314 23.9062ZM294.33 28.5V20.8636H295.463V22.0568H295.563C295.722 21.6491 295.979 21.3326 296.333 21.1072C296.688 20.8786 297.114 20.7642 297.611 20.7642C298.115 20.7642 298.534 20.8786 298.869 21.1072C299.207 21.3326 299.47 21.6491 299.659 22.0568H299.739C299.934 21.6624 300.228 21.3492 300.619 21.1172C301.01 20.8819 301.479 20.7642 302.026 20.7642C302.709 20.7642 303.267 20.978 303.701 21.4055C304.135 21.8298 304.352 22.491 304.352 23.3892V28.5H303.179V23.3892C303.179 22.8258 303.025 22.4231 302.717 22.1811C302.409 21.9392 302.046 21.8182 301.628 21.8182C301.091 21.8182 300.675 21.9806 300.38 22.3054C300.085 22.6269 299.938 23.0346 299.938 23.5284V28.5H298.744V23.2699C298.744 22.8357 298.604 22.486 298.322 22.2209C298.04 21.9524 297.677 21.8182 297.233 21.8182C296.928 21.8182 296.643 21.8994 296.378 22.0618C296.116 22.2242 295.904 22.4496 295.742 22.7379C295.583 23.023 295.503 23.3527 295.503 23.7273V28.5H294.33ZM309.699 28.6591C308.964 28.6591 308.329 28.4967 307.795 28.1719C307.265 27.8438 306.856 27.3864 306.567 26.7997C306.282 26.2098 306.14 25.5237 306.14 24.7415C306.14 23.9593 306.282 23.2699 306.567 22.6733C306.856 22.0734 307.257 21.6061 307.77 21.2713C308.287 20.9332 308.891 20.7642 309.58 20.7642C309.978 20.7642 310.371 20.8305 310.758 20.9631C311.146 21.0956 311.499 21.3111 311.817 21.6094C312.135 21.9044 312.389 22.2955 312.578 22.7827C312.767 23.2699 312.861 23.8698 312.861 24.5824V25.0795H306.975V24.0653H311.668C311.668 23.6345 311.582 23.25 311.41 22.9119C311.241 22.5739 310.999 22.3071 310.684 22.1115C310.372 21.916 310.004 21.8182 309.58 21.8182C309.113 21.8182 308.708 21.9342 308.367 22.1662C308.029 22.3949 307.769 22.6932 307.586 23.0611C307.404 23.429 307.313 23.8234 307.313 24.2443V24.9205C307.313 25.4972 307.412 25.986 307.611 26.3871C307.814 26.7848 308.094 27.0881 308.452 27.2969C308.809 27.5024 309.225 27.6051 309.699 27.6051C310.008 27.6051 310.286 27.562 310.535 27.4759C310.787 27.3864 311.004 27.2538 311.186 27.0781C311.368 26.8991 311.509 26.6771 311.608 26.4119L312.742 26.7301C312.623 27.1146 312.422 27.4527 312.14 27.7443C311.859 28.0327 311.511 28.258 311.096 28.4205C310.682 28.5795 310.216 28.6591 309.699 28.6591ZM315.819 23.9062V28.5H314.646V20.8636H315.78V22.0568H315.879C316.058 21.669 316.33 21.3575 316.694 21.1222C317.059 20.8835 317.53 20.7642 318.106 20.7642C318.623 20.7642 319.076 20.8703 319.464 21.0824C319.851 21.2912 320.153 21.6094 320.368 22.0369C320.584 22.4612 320.692 22.9981 320.692 23.6477V28.5H319.518V23.7273C319.518 23.1274 319.363 22.66 319.051 22.3253C318.739 21.9872 318.312 21.8182 317.768 21.8182C317.394 21.8182 317.059 21.8994 316.764 22.0618C316.472 22.2242 316.242 22.4612 316.073 22.7727C315.904 23.0843 315.819 23.4621 315.819 23.9062ZM326.157 20.8636V21.858H322.199V20.8636H326.157ZM323.353 19.0341H324.526V26.3125C324.526 26.6439 324.574 26.8925 324.67 27.0582C324.77 27.2206 324.895 27.33 325.048 27.3864C325.204 27.4394 325.368 27.4659 325.54 27.4659C325.669 27.4659 325.775 27.4593 325.858 27.446C325.941 27.4295 326.007 27.4162 326.057 27.4062L326.296 28.4602C326.216 28.4901 326.105 28.5199 325.963 28.5497C325.82 28.5829 325.64 28.5994 325.421 28.5994C325.089 28.5994 324.765 28.5282 324.446 28.3857C324.132 28.2431 323.87 28.026 323.661 27.7344C323.455 27.4427 323.353 27.0748 323.353 26.6307V19.0341ZM332.436 28.5H331.143L334.882 18.3182H336.154L339.893 28.5H338.6L335.558 19.929H335.478L332.436 28.5ZM332.913 24.5227H338.123V25.6165H332.913V24.5227ZM344.402 31.5227C343.836 31.5227 343.348 31.4498 342.941 31.304C342.533 31.1615 342.193 30.9725 341.922 30.7372C341.653 30.5052 341.439 30.2566 341.28 29.9915L342.215 29.3352C342.321 29.4744 342.455 29.6335 342.618 29.8125C342.78 29.9948 343.002 30.1522 343.284 30.2848C343.569 30.4207 343.942 30.4886 344.402 30.4886C345.019 30.4886 345.528 30.3395 345.929 30.0412C346.33 29.7429 346.53 29.2756 346.53 28.6392V27.0881H346.431C346.345 27.2273 346.222 27.3996 346.063 27.6051C345.907 27.8073 345.682 27.9879 345.387 28.147C345.095 28.3028 344.701 28.3807 344.203 28.3807C343.587 28.3807 343.033 28.2348 342.543 27.9432C342.056 27.6515 341.67 27.2273 341.385 26.6705C341.103 26.1136 340.962 25.4375 340.962 24.642C340.962 23.8598 341.1 23.1787 341.375 22.5987C341.65 22.0154 342.033 21.5646 342.523 21.2464C343.014 20.925 343.58 20.7642 344.223 20.7642C344.721 20.7642 345.115 20.8471 345.407 21.0128C345.702 21.1752 345.927 21.3608 346.083 21.5696C346.242 21.7751 346.364 21.9441 346.451 22.0767H346.57V20.8636H347.703V28.7188C347.703 29.375 347.554 29.9086 347.256 30.3196C346.961 30.7339 346.563 31.0372 346.063 31.2294C345.566 31.425 345.012 31.5227 344.402 31.5227ZM344.363 27.3267C344.833 27.3267 345.231 27.219 345.556 27.0036C345.881 26.7881 346.127 26.4782 346.297 26.0739C346.466 25.6695 346.55 25.1856 346.55 24.6222C346.55 24.072 346.467 23.5864 346.301 23.1655C346.136 22.7446 345.891 22.4148 345.566 22.1761C345.241 21.9375 344.84 21.8182 344.363 21.8182C343.865 21.8182 343.451 21.9441 343.12 22.196C342.792 22.4479 342.545 22.786 342.379 23.2102C342.217 23.6345 342.135 24.1051 342.135 24.6222C342.135 25.1525 342.218 25.6214 342.384 26.0291C342.553 26.4335 342.801 26.7517 343.13 26.9837C343.461 27.2124 343.872 27.3267 344.363 27.3267ZM353.053 28.6591C352.317 28.6591 351.682 28.4967 351.149 28.1719C350.618 27.8438 350.209 27.3864 349.921 26.7997C349.636 26.2098 349.493 25.5237 349.493 24.7415C349.493 23.9593 349.636 23.2699 349.921 22.6733C350.209 22.0734 350.61 21.6061 351.124 21.2713C351.641 20.9332 352.244 20.7642 352.934 20.7642C353.331 20.7642 353.724 20.8305 354.112 20.9631C354.5 21.0956 354.853 21.3111 355.171 21.6094C355.489 21.9044 355.743 22.2955 355.931 22.7827C356.12 23.2699 356.215 23.8698 356.215 24.5824V25.0795H350.328V24.0653H355.022C355.022 23.6345 354.935 23.25 354.763 22.9119C354.594 22.5739 354.352 22.3071 354.037 22.1115C353.726 21.916 353.358 21.8182 352.934 21.8182C352.466 21.8182 352.062 21.9342 351.721 22.1662C351.382 22.3949 351.122 22.6932 350.94 23.0611C350.758 23.429 350.667 23.8234 350.667 24.2443V24.9205C350.667 25.4972 350.766 25.986 350.965 26.3871C351.167 26.7848 351.447 27.0881 351.805 27.2969C352.163 27.5024 352.579 27.6051 353.053 27.6051C353.361 27.6051 353.64 27.562 353.888 27.4759C354.14 27.3864 354.357 27.2538 354.539 27.0781C354.722 26.8991 354.863 26.6771 354.962 26.4119L356.096 26.7301C355.976 27.1146 355.776 27.4527 355.494 27.7443C355.212 28.0327 354.864 28.258 354.45 28.4205C354.036 28.5795 353.57 28.6591 353.053 28.6591ZM359.173 23.9062V28.5H358V20.8636H359.133V22.0568H359.233C359.412 21.669 359.683 21.3575 360.048 21.1222C360.413 20.8835 360.883 20.7642 361.46 20.7642C361.977 20.7642 362.429 20.8703 362.817 21.0824C363.205 21.2912 363.507 21.6094 363.722 22.0369C363.937 22.4612 364.045 22.9981 364.045 23.6477V28.5H362.872V23.7273C362.872 23.1274 362.716 22.66 362.404 22.3253C362.093 21.9872 361.665 21.8182 361.122 21.8182C360.747 21.8182 360.413 21.8994 360.118 22.0618C359.826 22.2242 359.596 22.4612 359.426 22.7727C359.257 23.0843 359.173 23.4621 359.173 23.9062ZM369.291 28.6591C368.575 28.6591 367.959 28.4901 367.442 28.152C366.925 27.8139 366.527 27.3482 366.249 26.755C365.97 26.1617 365.831 25.4839 365.831 24.7216C365.831 23.946 365.974 23.2616 366.259 22.6683C366.547 22.0717 366.948 21.6061 367.462 21.2713C367.979 20.9332 368.582 20.7642 369.271 20.7642C369.808 20.7642 370.292 20.8636 370.723 21.0625C371.154 21.2614 371.507 21.5398 371.782 21.8977C372.057 22.2557 372.228 22.6733 372.294 23.1506H371.121C371.031 22.8026 370.833 22.4943 370.524 22.2259C370.219 21.9541 369.808 21.8182 369.291 21.8182C368.834 21.8182 368.433 21.9375 368.088 22.1761C367.747 22.4115 367.48 22.7446 367.288 23.1754C367.099 23.603 367.004 24.1051 367.004 24.6818C367.004 25.2718 367.097 25.7855 367.283 26.223C367.472 26.6605 367.737 27.0002 368.078 27.2422C368.423 27.4841 368.827 27.6051 369.291 27.6051C369.596 27.6051 369.873 27.5521 370.122 27.446C370.37 27.34 370.581 27.1875 370.753 26.9886C370.925 26.7898 371.048 26.5511 371.121 26.2727H372.294C372.228 26.7235 372.064 27.1295 371.802 27.4908C371.544 27.8487 371.2 28.1338 370.773 28.3459C370.349 28.5547 369.855 28.6591 369.291 28.6591ZM374.765 31.3636C374.566 31.3636 374.389 31.3471 374.233 31.3139C374.077 31.2841 373.97 31.2543 373.91 31.2244L374.208 30.1903C374.493 30.2633 374.745 30.2898 374.964 30.2699C375.183 30.25 375.377 30.1522 375.546 29.9766C375.718 29.8042 375.875 29.5241 376.018 29.1364L376.237 28.5398L373.413 20.8636H374.686L376.794 26.9489H376.873L378.981 20.8636H380.254L377.012 29.6136C376.866 30.008 376.686 30.3345 376.47 30.593C376.255 30.8549 376.005 31.0488 375.72 31.1747C375.438 31.3007 375.12 31.3636 374.765 31.3636ZM387.748 28.5L384.964 18.3182H386.217L388.345 26.6108H388.444L390.612 18.3182H392.004L394.172 26.6108H394.271L396.399 18.3182H397.652L394.868 28.5H393.595L391.348 20.3864H391.268L389.021 28.5H387.748ZM401.52 28.6591C400.784 28.6591 400.149 28.4967 399.616 28.1719C399.085 27.8438 398.676 27.3864 398.388 26.7997C398.103 26.2098 397.96 25.5237 397.96 24.7415C397.96 23.9593 398.103 23.2699 398.388 22.6733C398.676 22.0734 399.077 21.6061 399.591 21.2713C400.108 20.9332 400.711 20.7642 401.4 20.7642C401.798 20.7642 402.191 20.8305 402.579 20.9631C402.966 21.0956 403.319 21.3111 403.638 21.6094C403.956 21.9044 404.209 22.2955 404.398 22.7827C404.587 23.2699 404.682 23.8698 404.682 24.5824V25.0795H398.795V24.0653H403.488C403.488 23.6345 403.402 23.25 403.23 22.9119C403.061 22.5739 402.819 22.3071 402.504 22.1115C402.193 21.916 401.825 21.8182 401.4 21.8182C400.933 21.8182 400.529 21.9342 400.187 22.1662C399.849 22.3949 399.589 22.6932 399.407 23.0611C399.224 23.429 399.133 23.8234 399.133 24.2443V24.9205C399.133 25.4972 399.233 25.986 399.432 26.3871C399.634 26.7848 399.914 27.0881 400.272 27.2969C400.63 27.5024 401.046 27.6051 401.52 27.6051C401.828 27.6051 402.106 27.562 402.355 27.4759C402.607 27.3864 402.824 27.2538 403.006 27.0781C403.189 26.8991 403.329 26.6771 403.429 26.4119L404.562 26.7301C404.443 27.1146 404.242 27.4527 403.961 27.7443C403.679 28.0327 403.331 28.258 402.917 28.4205C402.502 28.5795 402.037 28.6591 401.52 28.6591ZM406.626 28.5V18.3182H407.799V22.0767H407.898C407.984 21.9441 408.104 21.7751 408.256 21.5696C408.412 21.3608 408.634 21.1752 408.922 21.0128C409.214 20.8471 409.608 20.7642 410.106 20.7642C410.749 20.7642 411.315 20.925 411.806 21.2464C412.296 21.5679 412.679 22.0237 412.954 22.6136C413.229 23.2036 413.367 23.8996 413.367 24.7017C413.367 25.5104 413.229 26.2114 412.954 26.8047C412.679 27.3946 412.298 27.852 411.811 28.1768C411.324 28.4983 410.762 28.6591 410.126 28.6591C409.635 28.6591 409.242 28.5779 408.947 28.4155C408.652 28.2498 408.425 28.0625 408.266 27.8537C408.107 27.6416 407.984 27.4659 407.898 27.3267H407.759V28.5H406.626ZM407.779 24.6818C407.779 25.2585 407.863 25.7673 408.032 26.2081C408.202 26.6456 408.448 26.9886 408.773 27.2372C409.098 27.4825 409.496 27.6051 409.966 27.6051C410.457 27.6051 410.866 27.4759 411.194 27.2173C411.526 26.9555 411.774 26.6042 411.94 26.1634C412.109 25.7192 412.194 25.2254 412.194 24.6818C412.194 24.1449 412.111 23.661 411.945 23.2301C411.783 22.7959 411.536 22.4529 411.204 22.201C410.876 21.9458 410.464 21.8182 409.966 21.8182C409.489 21.8182 409.088 21.9392 408.763 22.1811C408.439 22.4197 408.193 22.7545 408.028 23.1854C407.862 23.6129 407.779 24.1117 407.779 24.6818ZM420.571 22.5739L419.517 22.8722C419.451 22.6965 419.353 22.5258 419.224 22.3601C419.098 22.1911 418.925 22.0518 418.706 21.9425C418.488 21.8331 418.208 21.7784 417.866 21.7784C417.399 21.7784 417.01 21.8861 416.698 22.1016C416.39 22.3137 416.236 22.5838 416.236 22.9119C416.236 23.2036 416.342 23.4339 416.554 23.603C416.766 23.772 417.097 23.9129 417.548 24.0256L418.682 24.304C419.364 24.4697 419.873 24.7232 420.208 25.0646C420.543 25.4027 420.71 25.8385 420.71 26.3722C420.71 26.8097 420.584 27.2008 420.332 27.5455C420.084 27.8902 419.736 28.1619 419.288 28.3608C418.841 28.5597 418.32 28.6591 417.727 28.6591C416.948 28.6591 416.304 28.4901 415.793 28.152C415.283 27.8139 414.96 27.3201 414.824 26.6705L415.937 26.392C416.043 26.803 416.244 27.1113 416.539 27.3168C416.837 27.5223 417.227 27.625 417.707 27.625C418.254 27.625 418.688 27.509 419.01 27.277C419.335 27.0417 419.497 26.7599 419.497 26.4318C419.497 26.1667 419.404 25.9446 419.219 25.7656C419.033 25.5833 418.748 25.4474 418.363 25.358L417.091 25.0597C416.391 24.8939 415.878 24.6371 415.55 24.2891C415.225 23.9377 415.062 23.4986 415.062 22.9716C415.062 22.5407 415.183 22.1596 415.425 21.8281C415.671 21.4967 416.004 21.2365 416.425 21.0476C416.849 20.8587 417.329 20.7642 417.866 20.7642C418.622 20.7642 419.215 20.9299 419.646 21.2614C420.08 21.5928 420.389 22.0303 420.571 22.5739ZM422.476 28.5V20.8636H423.65V28.5H422.476ZM423.073 19.5909C422.844 19.5909 422.647 19.513 422.481 19.3572C422.319 19.2015 422.238 19.0142 422.238 18.7955C422.238 18.5767 422.319 18.3894 422.481 18.2337C422.647 18.0779 422.844 18 423.073 18C423.301 18 423.497 18.0779 423.659 18.2337C423.825 18.3894 423.908 18.5767 423.908 18.7955C423.908 19.0142 423.825 19.2015 423.659 19.3572C423.497 19.513 423.301 19.5909 423.073 19.5909ZM429.119 20.8636V21.858H425.162V20.8636H429.119ZM426.316 19.0341H427.489V26.3125C427.489 26.6439 427.537 26.8925 427.633 27.0582C427.732 27.2206 427.858 27.33 428.011 27.3864C428.167 27.4394 428.331 27.4659 428.503 27.4659C428.632 27.4659 428.738 27.4593 428.821 27.446C428.904 27.4295 428.97 27.4162 429.02 27.4062L429.259 28.4602C429.179 28.4901 429.068 28.5199 428.926 28.5497C428.783 28.5829 428.602 28.5994 428.384 28.5994C428.052 28.5994 427.727 28.5282 427.409 28.3857C427.094 28.2431 426.833 28.026 426.624 27.7344C426.418 27.4427 426.316 27.0748 426.316 26.6307V19.0341ZM434.004 28.6591C433.268 28.6591 432.634 28.4967 432.1 28.1719C431.57 27.8438 431.16 27.3864 430.872 26.7997C430.587 26.2098 430.444 25.5237 430.444 24.7415C430.444 23.9593 430.587 23.2699 430.872 22.6733C431.16 22.0734 431.561 21.6061 432.075 21.2713C432.592 20.9332 433.195 20.7642 433.885 20.7642C434.282 20.7642 434.675 20.8305 435.063 20.9631C435.451 21.0956 435.804 21.3111 436.122 21.6094C436.44 21.9044 436.694 22.2955 436.883 22.7827C437.072 23.2699 437.166 23.8698 437.166 24.5824V25.0795H431.28V24.0653H435.973C435.973 23.6345 435.887 23.25 435.714 22.9119C435.545 22.5739 435.303 22.3071 434.988 22.1115C434.677 21.916 434.309 21.8182 433.885 21.8182C433.417 21.8182 433.013 21.9342 432.672 22.1662C432.334 22.3949 432.073 22.6932 431.891 23.0611C431.709 23.429 431.618 23.8234 431.618 24.2443V24.9205C431.618 25.4972 431.717 25.986 431.916 26.3871C432.118 26.7848 432.398 27.0881 432.756 27.2969C433.114 27.5024 433.53 27.6051 434.004 27.6051C434.312 27.6051 434.591 27.562 434.839 27.4759C435.091 27.3864 435.308 27.2538 435.491 27.0781C435.673 26.8991 435.814 26.6771 435.913 26.4119L437.047 26.7301C436.927 27.1146 436.727 27.4527 436.445 27.7443C436.163 28.0327 435.815 28.258 435.401 28.4205C434.987 28.5795 434.521 28.6591 434.004 28.6591Z" fill="#344054"/>
<path d="M455.385 28.5V18.3182H457.538V22.5192H461.908V18.3182H464.055V28.5H461.908V24.294H457.538V28.5H455.385ZM469.241 28.6491C468.469 28.6491 467.801 28.4851 467.237 28.157C466.677 27.8255 466.245 27.3648 465.94 26.7749C465.635 26.1816 465.482 25.4938 465.482 24.7116C465.482 23.9228 465.635 23.2334 465.94 22.6435C466.245 22.0502 466.677 21.5895 467.237 21.2614C467.801 20.9299 468.469 20.7642 469.241 20.7642C470.013 20.7642 470.679 20.9299 471.239 21.2614C471.803 21.5895 472.237 22.0502 472.542 22.6435C472.847 23.2334 472.999 23.9228 472.999 24.7116C472.999 25.4938 472.847 26.1816 472.542 26.7749C472.237 27.3648 471.803 27.8255 471.239 28.157C470.679 28.4851 470.013 28.6491 469.241 28.6491ZM469.251 27.0085C469.602 27.0085 469.895 26.9091 470.131 26.7102C470.366 26.508 470.543 26.233 470.663 25.8849C470.785 25.5369 470.847 25.1409 470.847 24.6967C470.847 24.2526 470.785 23.8565 470.663 23.5085C470.543 23.1605 470.366 22.8854 470.131 22.6832C469.895 22.4811 469.602 22.38 469.251 22.38C468.896 22.38 468.598 22.4811 468.356 22.6832C468.117 22.8854 467.937 23.1605 467.814 23.5085C467.695 23.8565 467.635 24.2526 467.635 24.6967C467.635 25.1409 467.695 25.5369 467.814 25.8849C467.937 26.233 468.117 26.508 468.356 26.7102C468.598 26.9091 468.896 27.0085 469.251 27.0085ZM475.691 28.5L473.613 20.8636H475.756L476.939 25.9943H477.009L478.242 20.8636H480.345L481.598 25.9645H481.662L482.826 20.8636H484.963L482.89 28.5H480.648L479.336 23.6974H479.241L477.929 28.5H475.691ZM493.395 20.8636V22.4545H488.797V20.8636H493.395ZM489.841 19.0341H491.958V26.1534C491.958 26.349 491.988 26.5014 492.048 26.6108C492.108 26.7169 492.19 26.7914 492.297 26.8345C492.406 26.8776 492.532 26.8991 492.674 26.8991C492.774 26.8991 492.873 26.8909 492.973 26.8743C493.072 26.8544 493.148 26.8395 493.201 26.8295L493.534 28.4055C493.428 28.4387 493.279 28.4768 493.087 28.5199C492.895 28.5663 492.661 28.5945 492.386 28.6044C491.876 28.6243 491.428 28.5563 491.044 28.4006C490.663 28.2448 490.366 28.0028 490.154 27.6747C489.942 27.3466 489.837 26.9323 489.841 26.4318V19.0341ZM498.143 28.6491C497.371 28.6491 496.703 28.4851 496.14 28.157C495.579 27.8255 495.147 27.3648 494.842 26.7749C494.537 26.1816 494.385 25.4938 494.385 24.7116C494.385 23.9228 494.537 23.2334 494.842 22.6435C495.147 22.0502 495.579 21.5895 496.14 21.2614C496.703 20.9299 497.371 20.7642 498.143 20.7642C498.915 20.7642 499.582 20.9299 500.142 21.2614C500.705 21.5895 501.139 22.0502 501.444 22.6435C501.749 23.2334 501.902 23.9228 501.902 24.7116C501.902 25.4938 501.749 26.1816 501.444 26.7749C501.139 27.3648 500.705 27.8255 500.142 28.157C499.582 28.4851 498.915 28.6491 498.143 28.6491ZM498.153 27.0085C498.504 27.0085 498.798 26.9091 499.033 26.7102C499.268 26.508 499.446 26.233 499.565 25.8849C499.688 25.5369 499.749 25.1409 499.749 24.6967C499.749 24.2526 499.688 23.8565 499.565 23.5085C499.446 23.1605 499.268 22.8854 499.033 22.6832C498.798 22.4811 498.504 22.38 498.153 22.38C497.798 22.38 497.5 22.4811 497.258 22.6832C497.02 22.8854 496.839 23.1605 496.716 23.5085C496.597 23.8565 496.537 24.2526 496.537 24.6967C496.537 25.1409 496.597 25.5369 496.716 25.8849C496.839 26.233 497.02 26.508 497.258 26.7102C497.5 26.9091 497.798 27.0085 498.153 27.0085ZM506.519 28.5V20.8636H508.637V28.5H506.519ZM507.583 19.8793C507.268 19.8793 506.998 19.7749 506.773 19.5661C506.55 19.3539 506.439 19.1004 506.439 18.8054C506.439 18.5137 506.55 18.2635 506.773 18.0547C506.998 17.8426 507.268 17.7365 507.583 17.7365C507.898 17.7365 508.166 17.8426 508.388 18.0547C508.614 18.2635 508.726 18.5137 508.726 18.8054C508.726 19.1004 508.614 19.3539 508.388 19.5661C508.166 19.7749 507.898 19.8793 507.583 19.8793ZM513.147 28.6243C512.567 28.6243 512.042 28.4751 511.571 28.1768C511.104 27.8752 510.733 27.4328 510.458 26.8494C510.186 26.2628 510.05 25.5436 510.05 24.6918C510.05 23.8168 510.191 23.0893 510.473 22.5092C510.754 21.9259 511.129 21.4901 511.596 21.2017C512.067 20.91 512.582 20.7642 513.142 20.7642C513.57 20.7642 513.926 20.8371 514.211 20.983C514.5 21.1255 514.732 21.3045 514.907 21.5199C515.086 21.732 515.222 21.9408 515.315 22.1463H515.38V18.3182H517.493V28.5H515.404V27.277H515.315C515.216 27.4891 515.075 27.6996 514.892 27.9084C514.713 28.1139 514.48 28.2846 514.191 28.4205C513.906 28.5563 513.558 28.6243 513.147 28.6243ZM513.819 26.9389C514.16 26.9389 514.448 26.8461 514.684 26.6605C514.922 26.4716 515.105 26.2081 515.23 25.87C515.36 25.532 515.424 25.1359 515.424 24.6818C515.424 24.2277 515.361 23.8333 515.235 23.4986C515.109 23.1638 514.927 22.9053 514.689 22.723C514.45 22.5407 514.16 22.4496 513.819 22.4496C513.471 22.4496 513.177 22.544 512.939 22.733C512.7 22.9219 512.519 23.1837 512.397 23.5185C512.274 23.8532 512.213 24.241 512.213 24.6818C512.213 25.1259 512.274 25.5187 512.397 25.8601C512.523 26.1982 512.703 26.4633 512.939 26.6555C513.177 26.8445 513.471 26.9389 513.819 26.9389ZM522.714 28.6491C521.928 28.6491 521.252 28.4901 520.686 28.1719C520.122 27.8504 519.688 27.3963 519.383 26.8097C519.078 26.2197 518.926 25.522 518.926 24.7166C518.926 23.9311 519.078 23.2417 519.383 22.6484C519.688 22.0552 520.117 21.5928 520.671 21.2614C521.227 20.9299 521.88 20.7642 522.629 20.7642C523.133 20.7642 523.602 20.8454 524.036 21.0078C524.474 21.1669 524.855 21.4072 525.18 21.7287C525.508 22.0502 525.763 22.4545 525.945 22.9418C526.128 23.4257 526.219 23.9924 526.219 24.642V25.2237H519.771V23.9112H524.225C524.225 23.6063 524.159 23.3362 524.026 23.1009C523.894 22.8655 523.71 22.6816 523.475 22.549C523.243 22.4131 522.972 22.3452 522.664 22.3452C522.343 22.3452 522.058 22.4197 521.809 22.5689C521.564 22.7147 521.372 22.9119 521.232 23.1605C521.093 23.4058 521.022 23.6792 521.019 23.9808V25.2287C521.019 25.6065 521.088 25.933 521.227 26.2081C521.37 26.4832 521.57 26.6953 521.829 26.8445C522.088 26.9936 522.394 27.0682 522.749 27.0682C522.984 27.0682 523.2 27.035 523.395 26.9688C523.591 26.9025 523.758 26.803 523.897 26.6705C524.036 26.5379 524.142 26.3755 524.215 26.1832L526.174 26.3125C526.075 26.7831 525.871 27.1941 525.563 27.5455C525.258 27.8935 524.863 28.1652 524.379 28.3608C523.899 28.553 523.344 28.6491 522.714 28.6491ZM529.719 24.0852V28.5H527.601V20.8636H529.619V22.2109H529.709C529.878 21.7668 530.161 21.4155 530.559 21.157C530.957 20.8951 531.439 20.7642 532.006 20.7642C532.536 20.7642 532.999 20.8802 533.393 21.1122C533.787 21.3442 534.094 21.6757 534.313 22.1065C534.531 22.5341 534.641 23.0445 534.641 23.6378V28.5H532.523V24.0156C532.526 23.5483 532.407 23.1837 532.165 22.9219C531.923 22.6567 531.59 22.5241 531.166 22.5241C530.881 22.5241 530.629 22.5855 530.41 22.7081C530.195 22.8307 530.026 23.0097 529.903 23.245C529.784 23.477 529.722 23.7571 529.719 24.0852ZM540.372 20.8636V22.4545H535.773V20.8636H540.372ZM536.817 19.0341H538.935V26.1534C538.935 26.349 538.965 26.5014 539.025 26.6108C539.084 26.7169 539.167 26.7914 539.273 26.8345C539.382 26.8776 539.508 26.8991 539.651 26.8991C539.75 26.8991 539.85 26.8909 539.949 26.8743C540.049 26.8544 540.125 26.8395 540.178 26.8295L540.511 28.4055C540.405 28.4387 540.256 28.4768 540.064 28.5199C539.871 28.5663 539.638 28.5945 539.363 28.6044C538.852 28.6243 538.405 28.5563 538.02 28.4006C537.639 28.2448 537.342 28.0028 537.13 27.6747C536.918 27.3466 536.814 26.9323 536.817 26.4318V19.0341ZM541.751 28.5V20.8636H543.869V28.5H541.751ZM542.815 19.8793C542.5 19.8793 542.23 19.7749 542.005 19.5661C541.783 19.3539 541.672 19.1004 541.672 18.8054C541.672 18.5137 541.783 18.2635 542.005 18.0547C542.23 17.8426 542.5 17.7365 542.815 17.7365C543.13 17.7365 543.399 17.8426 543.621 18.0547C543.846 18.2635 543.959 18.5137 543.959 18.8054C543.959 19.1004 543.846 19.3539 543.621 19.5661C543.399 19.7749 543.13 19.8793 542.815 19.8793ZM549.672 20.8636V22.4545H544.959V20.8636H549.672ZM546.038 28.5V20.3118C546.038 19.7583 546.146 19.2992 546.361 18.9347C546.58 18.5701 546.878 18.2966 547.256 18.1143C547.634 17.9321 548.063 17.8409 548.544 17.8409C548.869 17.8409 549.165 17.8658 549.434 17.9155C549.706 17.9652 549.908 18.0099 550.04 18.0497L549.662 19.6406C549.58 19.6141 549.477 19.5893 549.354 19.5661C549.235 19.5429 549.112 19.5312 548.986 19.5312C548.675 19.5312 548.458 19.6042 548.335 19.75C548.212 19.8925 548.151 20.093 548.151 20.3516V28.5H546.038ZM552.274 31.3636C552.005 31.3636 551.753 31.3421 551.518 31.299C551.286 31.2592 551.094 31.2079 550.941 31.1449L551.419 29.5639C551.667 29.6402 551.891 29.6816 552.09 29.6882C552.292 29.6948 552.466 29.6484 552.612 29.549C552.761 29.4496 552.882 29.2805 552.975 29.0419L553.099 28.7188L550.36 20.8636H552.587L554.168 26.4716H554.248L555.843 20.8636H558.086L555.118 29.3253C554.975 29.7363 554.781 30.0942 554.536 30.3991C554.294 30.7074 553.987 30.9444 553.616 31.1101C553.245 31.2791 552.797 31.3636 552.274 31.3636Z" fill="#0F71BB"/>
<path d="M454.5 31.2841H558.324V32.2386H454.5V31.2841Z" fill="#0F71BB"/>
<path fill-rule="evenodd" clip-rule="evenodd" d="M576.636 20.4044C576.678 20.3614 576.729 20.3273 576.785 20.304C576.842 20.2808 576.902 20.2688 576.962 20.2688C577.023 20.2688 577.083 20.2808 577.139 20.304C577.195 20.3273 577.246 20.3614 577.289 20.4044L582.5 25.6164L587.711 20.4044C587.754 20.3615 587.805 20.3274 587.861 20.3042C587.917 20.281 587.977 20.269 588.038 20.269C588.099 20.269 588.159 20.281 588.215 20.3042C588.271 20.3274 588.322 20.3615 588.365 20.4044C588.408 20.4473 588.442 20.4982 588.465 20.5543C588.488 20.6103 588.5 20.6704 588.5 20.7311C588.5 20.7918 588.488 20.8519 588.465 20.9079C588.442 20.964 588.408 21.0149 588.365 21.0578L582.827 26.5957C582.784 26.6386 582.733 26.6727 582.677 26.696C582.621 26.7193 582.561 26.7312 582.5 26.7312C582.439 26.7312 582.379 26.7193 582.323 26.696C582.267 26.6727 582.216 26.6386 582.173 26.5957L576.636 21.0578C576.593 21.015 576.559 20.964 576.535 20.908C576.512 20.8519 576.5 20.7918 576.5 20.7311C576.5 20.6704 576.512 20.6103 576.535 20.5542C576.559 20.4982 576.593 20.4472 576.636 20.4044Z" fill="#0F71BB"/>
<g clip-path="url(#clip0_5083_1965)">
<rect x="52.0625" y="3.5" width="70.0912" height="40" fill="#E8178A" fill-opacity="0.24"/>
</g>
<g clip-path="url(#clip1_5083_1965)">
<rect x="142.18" y="3.5" width="16.0209" height="40" fill="#E8178A" fill-opacity="0.24"/>
</g>
<g clip-path="url(#clip2_5083_1965)">
<rect x="437.565" y="3.5" width="16.0208" height="40" fill="#E8178A" fill-opacity="0.24"/>
</g>
<g clip-path="url(#clip3_5083_1965)">
<rect x="562.728" y="3.5" width="16.0209" height="40" fill="#E8178A" fill-opacity="0.24"/>
</g>
<g clip-path="url(#clip4_5083_1965)">
<rect x="52.0625" y="3.5" width="625.815" height="8" fill="#E8178A" fill-opacity="0.24"/>
</g>
<g clip-path="url(#clip5_5083_1965)">
<rect x="52.0625" y="35.5" width="625.815" height="8" fill="#E8178A" fill-opacity="0.24"/>
</g>
<path d="M35.5 3.5V11.5" stroke="#E8178A"/>
<rect width="31" height="18" rx="3" fill="#E8178A"/>
<path d="M9.30256 13.0994C10.9432 13.0994 12.1222 12.2223 12.1257 11.0433C12.1222 10.1342 11.4226 9.39205 10.549 9.24645V9.19673C11.3089 9.04048 11.8523 8.38352 11.8558 7.58452C11.8523 6.45881 10.7727 5.62784 9.30256 5.62784C7.82884 5.62784 6.74929 6.45881 6.75284 7.58452C6.74929 8.37997 7.28551 9.04048 8.05966 9.19673V9.24645C7.17188 9.39205 6.4794 10.1342 6.48295 11.0433C6.4794 12.2223 7.66193 13.0994 9.30256 13.0994ZM9.30256 11.9702C8.57102 11.9702 8.08097 11.5369 8.08097 10.9226C8.08097 10.294 8.59588 9.83949 9.30256 9.83949C10.0057 9.83949 10.5241 10.294 10.5241 10.9226C10.5241 11.5405 10.0305 11.9702 9.30256 11.9702ZM9.30256 8.72088C8.68821 8.72088 8.25142 8.3196 8.25142 7.74432C8.25142 7.17614 8.68111 6.78551 9.30256 6.78551C9.92045 6.78551 10.3537 7.17969 10.3537 7.74432C10.3537 8.3196 9.91335 8.72088 9.30256 8.72088ZM13.215 15.0455H14.7278V12.1264H14.774C14.9835 12.581 15.4416 13.0888 16.3223 13.0888C17.5652 13.0888 18.5346 12.1051 18.5346 10.2798C18.5346 8.40483 17.5225 7.47443 16.3258 7.47443C15.4132 7.47443 14.9764 8.01776 14.774 8.46165H14.7065V7.54545H13.215V15.0455ZM14.6958 10.2727C14.6958 9.29972 15.1078 8.67827 15.8429 8.67827C16.5922 8.67827 16.9899 9.32812 16.9899 10.2727C16.9899 11.2244 16.585 11.8849 15.8429 11.8849C15.1149 11.8849 14.6958 11.2457 14.6958 10.2727ZM20.6023 7.54545H19.0398L20.6023 10.2727L18.983 13H20.5455L21.6037 11.1143L22.6797 13H24.2244L22.6016 10.2727L24.1818 7.54545H22.63L21.6037 9.45241L20.6023 7.54545Z" fill="white"/>
<line x1="32" y1="4" x2="39" y2="4" stroke="#E8178A"/>
<line x1="32" y1="11" x2="39" y2="11" stroke="#E8178A"/>
<path d="M35.5 35.5V43.5" stroke="#E8178A"/>
<rect y="32" width="31" height="18" rx="3" fill="#E8178A"/>
<path d="M9.30256 45.0994C10.9432 45.0994 12.1222 44.2223 12.1257 43.0433C12.1222 42.1342 11.4226 41.392 10.549 41.2464V41.1967C11.3089 41.0405 11.8523 40.3835 11.8558 39.5845C11.8523 38.4588 10.7727 37.6278 9.30256 37.6278C7.82884 37.6278 6.74929 38.4588 6.75284 39.5845C6.74929 40.38 7.28551 41.0405 8.05966 41.1967V41.2464C7.17188 41.392 6.4794 42.1342 6.48295 43.0433C6.4794 44.2223 7.66193 45.0994 9.30256 45.0994ZM9.30256 43.9702C8.57102 43.9702 8.08097 43.5369 8.08097 42.9226C8.08097 42.294 8.59588 41.8395 9.30256 41.8395C10.0057 41.8395 10.5241 42.294 10.5241 42.9226C10.5241 43.5405 10.0305 43.9702 9.30256 43.9702ZM9.30256 40.7209C8.68821 40.7209 8.25142 40.3196 8.25142 39.7443C8.25142 39.1761 8.68111 38.7855 9.30256 38.7855C9.92045 38.7855 10.3537 39.1797 10.3537 39.7443C10.3537 40.3196 9.91335 40.7209 9.30256 40.7209ZM13.215 47.0455H14.7278V44.1264H14.774C14.9835 44.581 15.4416 45.0888 16.3223 45.0888C17.5652 45.0888 18.5346 44.1051 18.5346 42.2798C18.5346 40.4048 17.5225 39.4744 16.3258 39.4744C15.4132 39.4744 14.9764 40.0178 14.774 40.4616H14.7065V39.5455H13.215V47.0455ZM14.6958 42.2727C14.6958 41.2997 15.1078 40.6783 15.8429 40.6783C16.5922 40.6783 16.9899 41.3281 16.9899 42.2727C16.9899 43.2244 16.585 43.8849 15.8429 43.8849C15.1149 43.8849 14.6958 43.2457 14.6958 42.2727ZM20.6023 39.5455H19.0398L20.6023 42.2727L18.983 45H20.5455L21.6037 43.1143L22.6797 45H24.2244L22.6016 42.2727L24.1818 39.5455H22.63L21.6037 41.4524L20.6023 39.5455Z" fill="white"/>
<line x1="32" y1="36" x2="39" y2="36" stroke="#E8178A"/>
<line x1="32" y1="43" x2="39" y2="43" stroke="#E8178A"/>
<path d="M141 59H157" stroke="#E8178A"/>
<rect x="131" y="63.5" width="36" height="18" rx="3" fill="#E8178A"/>
<path d="M140.754 69.2273H139.308L137.508 70.3672V71.7308L139.173 70.6868H139.216V76.5H140.754V69.2273ZM145.273 76.5994C146.893 76.6065 147.997 75.5447 147.993 74.0639C147.997 72.7003 147.045 71.7166 145.756 71.7166C144.957 71.7166 144.251 72.1001 143.924 72.7429H143.874C143.881 71.326 144.378 70.4453 145.327 70.4453C145.884 70.4453 146.285 70.7507 146.403 71.2585H147.919C147.773 70.0618 146.779 69.1278 145.327 69.1278C143.53 69.1278 142.376 70.5838 142.368 73.027C142.365 75.6903 143.778 76.5923 145.273 76.5994ZM145.266 75.392C144.556 75.392 144.03 74.8203 144.03 74.1101C144.034 73.4034 144.57 72.8281 145.277 72.8281C145.987 72.8281 146.506 73.3857 146.502 74.1065C146.506 74.8345 145.976 75.392 145.266 75.392ZM149.098 78.5455H150.611V75.6264H150.657C150.866 76.081 151.324 76.5888 152.205 76.5888C153.448 76.5888 154.417 75.6051 154.417 73.7798C154.417 71.9048 153.405 70.9744 152.209 70.9744C151.296 70.9744 150.859 71.5178 150.657 71.9616H150.589V71.0455H149.098V78.5455ZM150.579 73.7727C150.579 72.7997 150.991 72.1783 151.726 72.1783C152.475 72.1783 152.873 72.8281 152.873 73.7727C152.873 74.7244 152.468 75.3849 151.726 75.3849C150.998 75.3849 150.579 74.7457 150.579 73.7727ZM156.485 71.0455H154.923L156.485 73.7727L154.866 76.5H156.428L157.487 74.6143L158.562 76.5H160.107L158.484 73.7727L160.065 71.0455H158.513L157.487 72.9524L156.485 71.0455Z" fill="white"/>
<line x1="141.5" y1="62.5" x2="141.5" y2="55.5" stroke="#E8178A"/>
<line x1="156.5" y1="62.5" x2="156.5" y2="55.5" stroke="#E8178A"/>
<path d="M51 59H121" stroke="#E8178A"/>
<rect x="67.5" y="63.5" width="37" height="18" rx="3" fill="#E8178A"/>
<path d="M74.3771 76.5H75.9645L78.983 70.5021V69.2273H73.88V70.4844H77.392V70.5341L74.3771 76.5ZM82.7321 76.6598C84.5609 76.6598 85.6653 75.2678 85.6689 72.8707C85.6724 70.4915 84.5538 69.1278 82.7321 69.1278C80.9068 69.1278 79.7988 70.4879 79.7953 72.8707C79.7882 75.2607 80.8997 76.6562 82.7321 76.6598ZM82.7321 75.3849C81.8975 75.3849 81.3578 74.5469 81.3613 72.8707C81.3649 71.2195 81.9011 70.3885 82.7321 70.3885C83.5595 70.3885 84.0993 71.2195 84.0993 72.8707C84.1028 74.5469 83.563 75.3849 82.7321 75.3849ZM86.7795 78.5455H88.2923V75.6264H88.3384C88.5479 76.081 89.006 76.5888 89.8867 76.5888C91.1296 76.5888 92.0991 75.6051 92.0991 73.7798C92.0991 71.9048 91.087 70.9744 89.8903 70.9744C88.9776 70.9744 88.5408 71.5178 88.3384 71.9616H88.271V71.0455H86.7795V78.5455ZM88.2603 73.7727C88.2603 72.7997 88.6722 72.1783 89.4073 72.1783C90.1566 72.1783 90.5543 72.8281 90.5543 73.7727C90.5543 74.7244 90.1495 75.3849 89.4073 75.3849C88.6793 75.3849 88.2603 74.7457 88.2603 73.7727ZM94.1667 71.0455H92.6042L94.1667 73.7727L92.5474 76.5H94.1099L95.1681 74.6143L96.2441 76.5H97.7889L96.166 73.7727L97.7463 71.0455H96.1944L95.1681 72.9524L94.1667 71.0455Z" fill="white"/>
<line x1="51.5" y1="62.5" x2="51.5" y2="55.5" stroke="#E8178A"/>
<line x1="120.5" y1="62.5" x2="120.5" y2="55.5" stroke="#E8178A"/>
<path d="M561 59H577" stroke="#E8178A"/>
<rect x="551" y="63.5" width="36" height="18" rx="3" fill="#E8178A"/>
<path d="M560.754 69.2273H559.308L557.508 70.3672V71.7308L559.173 70.6868H559.216V76.5H560.754V69.2273ZM565.273 76.5994C566.893 76.6065 567.997 75.5447 567.993 74.0639C567.997 72.7003 567.045 71.7166 565.756 71.7166C564.957 71.7166 564.251 72.1001 563.924 72.7429H563.874C563.881 71.326 564.378 70.4453 565.327 70.4453C565.884 70.4453 566.285 70.7507 566.403 71.2585H567.919C567.773 70.0618 566.779 69.1278 565.327 69.1278C563.53 69.1278 562.376 70.5838 562.368 73.027C562.365 75.6903 563.778 76.5923 565.273 76.5994ZM565.266 75.392C564.556 75.392 564.03 74.8203 564.03 74.1101C564.034 73.4034 564.57 72.8281 565.277 72.8281C565.987 72.8281 566.506 73.3857 566.502 74.1065C566.506 74.8345 565.976 75.392 565.266 75.392ZM569.098 78.5455H570.611V75.6264H570.657C570.866 76.081 571.324 76.5888 572.205 76.5888C573.448 76.5888 574.417 75.6051 574.417 73.7798C574.417 71.9048 573.405 70.9744 572.209 70.9744C571.296 70.9744 570.859 71.5178 570.657 71.9616H570.589V71.0455H569.098V78.5455ZM570.579 73.7727C570.579 72.7997 570.991 72.1783 571.726 72.1783C572.475 72.1783 572.873 72.8281 572.873 73.7727C572.873 74.7244 572.468 75.3849 571.726 75.3849C570.998 75.3849 570.579 74.7457 570.579 73.7727ZM576.485 71.0455H574.923L576.485 73.7727L574.866 76.5H576.428L577.487 74.6143L578.562 76.5H580.107L578.484 73.7727L580.065 71.0455H578.513L577.487 72.9524L576.485 71.0455Z" fill="white"/>
<line x1="561.5" y1="62.5" x2="561.5" y2="55.5" stroke="#E8178A"/>
<line x1="576.5" y1="62.5" x2="576.5" y2="55.5" stroke="#E8178A"/>
<path d="M436 59H452" stroke="#E8178A"/>
<rect x="426" y="63.5" width="36" height="18" rx="3" fill="#E8178A"/>
<path d="M435.754 69.2273H434.308L432.508 70.3672V71.7308L434.173 70.6868H434.216V76.5H435.754V69.2273ZM440.273 76.5994C441.893 76.6065 442.997 75.5447 442.993 74.0639C442.997 72.7003 442.045 71.7166 440.756 71.7166C439.957 71.7166 439.251 72.1001 438.924 72.7429H438.874C438.881 71.326 439.378 70.4453 440.327 70.4453C440.884 70.4453 441.285 70.7507 441.403 71.2585H442.919C442.773 70.0618 441.779 69.1278 440.327 69.1278C438.53 69.1278 437.376 70.5838 437.368 73.027C437.365 75.6903 438.778 76.5923 440.273 76.5994ZM440.266 75.392C439.556 75.392 439.03 74.8203 439.03 74.1101C439.034 73.4034 439.57 72.8281 440.277 72.8281C440.987 72.8281 441.506 73.3857 441.502 74.1065C441.506 74.8345 440.976 75.392 440.266 75.392ZM444.098 78.5455H445.611V75.6264H445.657C445.866 76.081 446.324 76.5888 447.205 76.5888C448.448 76.5888 449.417 75.6051 449.417 73.7798C449.417 71.9048 448.405 70.9744 447.209 70.9744C446.296 70.9744 445.859 71.5178 445.657 71.9616H445.589V71.0455H444.098V78.5455ZM445.579 73.7727C445.579 72.7997 445.991 72.1783 446.726 72.1783C447.475 72.1783 447.873 72.8281 447.873 73.7727C447.873 74.7244 447.468 75.3849 446.726 75.3849C445.998 75.3849 445.579 74.7457 445.579 73.7727ZM451.485 71.0455H449.923L451.485 73.7727L449.866 76.5H451.428L452.487 74.6143L453.562 76.5H455.107L453.484 73.7727L455.065 71.0455H453.513L452.487 72.9524L451.485 71.0455Z" fill="white"/>
<line x1="436.5" y1="62.5" x2="436.5" y2="55.5" stroke="#E8178A"/>
<line x1="451.5" y1="62.5" x2="451.5" y2="55.5" stroke="#E8178A"/>
<path d="M691.5 3.5V43.5" stroke="#1745E8"/>
<rect x="696" y="16" width="38" height="18" rx="3" fill="#1745E8"/>
<path d="M702.479 27.7216H705.97V29H707.44V27.7216H708.342V26.4893H707.44V21.7273H705.516L702.479 26.5107V27.7216ZM705.999 26.4893H704.028V26.4325L705.942 23.4034H705.999V26.4893ZM712.218 29.1598C714.047 29.1598 715.152 27.7678 715.155 25.3707C715.159 22.9915 714.04 21.6278 712.218 21.6278C710.393 21.6278 709.285 22.9879 709.282 25.3707C709.275 27.7607 710.386 29.1562 712.218 29.1598ZM712.218 27.8849C711.384 27.8849 710.844 27.0469 710.848 25.3707C710.851 23.7195 711.387 22.8885 712.218 22.8885C713.046 22.8885 713.586 23.7195 713.586 25.3707C713.589 27.0469 713.049 27.8849 712.218 27.8849ZM716.266 31.0455H717.779V28.1264H717.825C718.034 28.581 718.492 29.0888 719.373 29.0888C720.616 29.0888 721.585 28.1051 721.585 26.2798C721.585 24.4048 720.573 23.4744 719.377 23.4744C718.464 23.4744 718.027 24.0178 717.825 24.4616H717.757V23.5455H716.266V31.0455ZM717.747 26.2727C717.747 25.2997 718.159 24.6783 718.894 24.6783C719.643 24.6783 720.041 25.3281 720.041 26.2727C720.041 27.2244 719.636 27.8849 718.894 27.8849C718.166 27.8849 717.747 27.2457 717.747 26.2727ZM723.653 23.5455H722.091L723.653 26.2727L722.034 29H723.596L724.654 27.1143L725.73 29H727.275L725.652 26.2727L727.233 23.5455H725.681L724.654 25.4524L723.653 23.5455Z" fill="white"/>
<line x1="688" y1="4" x2="695" y2="4" stroke="#1745E8"/>
<line x1="688" y1="43" x2="695" y2="43" stroke="#1745E8"/>
<defs>
<clipPath id="clip0_5083_1965">
<rect width="70.0912" height="40" fill="white" transform="translate(52.0625 3.5)"/>
</clipPath>
<clipPath id="clip1_5083_1965">
<rect width="16.0209" height="40" fill="white" transform="translate(142.18 3.5)"/>
</clipPath>
<clipPath id="clip2_5083_1965">
<rect width="16.0208" height="40" fill="white" transform="translate(437.565 3.5)"/>
</clipPath>
<clipPath id="clip3_5083_1965">
<rect width="16.0209" height="40" fill="white" transform="translate(562.728 3.5)"/>
</clipPath>
<clipPath id="clip4_5083_1965">
<rect width="625.815" height="8" fill="white" transform="translate(52.0625 3.5)"/>
</clipPath>
<clipPath id="clip5_5083_1965">
<rect width="625.815" height="8" fill="white" transform="translate(52.0625 35.5)"/>
</clipPath>
</defs>
</svg>
