<svg width="189" height="97" viewBox="0 0 189 97" fill="none" xmlns="http://www.w3.org/2000/svg"><path d="M38.319 53.5V53H5a4.5 4.5 0 0 0-4.5 4.5v34A4.5 4.5 0 0 0 5 96h33.319V53.5Z" fill="#E4E7EC"/><path d="M25.819 81.088H17a4 4 0 0 1-4-4v-5.176a4 4 0 0 1 4-4h8.819v13.176Z" fill="#E4E7EC"/><path fill-rule="evenodd" clip-rule="evenodd" d="M24.217 74.5c0 .11-.043.214-.118.291a.395.395 0 0 1-.283.12h-8.813a.395.395 0 0 1-.283-.12.418.418 0 0 1 0-.582.395.395 0 0 1 .283-.12h8.813c.106 0 .208.043.283.12a.418.418 0 0 1 .118.29Z" fill="#98A2B3"/><path d="M38.319 53.5V53H5a4.5 4.5 0 0 0-4.5 4.5v34A4.5 4.5 0 0 0 5 96h33.319V53.5Z" stroke="#98A2B3"/><path d="M71.817 80.756c-.977-.004-1.818-.245-2.523-.722-.7-.477-1.24-1.169-1.62-2.074-.374-.905-.56-1.994-.556-3.267 0-1.269.188-2.35.563-3.244.378-.894.918-1.574 1.619-2.04.704-.47 1.543-.705 2.517-.705.973 0 1.81.235 2.511.705.705.47 1.246 1.152 1.625 2.045.379.89.566 1.97.563 3.24 0 1.276-.19 2.367-.569 3.272-.374.905-.912 1.597-1.613 2.074-.7.477-1.54.716-2.517.716Zm0-2.04c.667 0 1.199-.335 1.596-1.006.398-.67.595-1.676.591-3.017 0-.882-.09-1.617-.272-2.204-.178-.588-.432-1.029-.762-1.324a1.66 1.66 0 0 0-1.153-.443c-.663 0-1.193.331-1.591.994-.398.663-.599 1.655-.602 2.977 0 .894.089 1.64.267 2.239.181.594.437 1.041.767 1.34.33.296.716.444 1.159.444Z" fill="#344054"/><path stroke="#98A2B3" d="M38.319 53h67v43h-67z"/><path d="M105.819 53h-.5v43h33.319a4.5 4.5 0 0 0 4.5-4.5v-34a4.5 4.5 0 0 0-4.5-4.5h-32.819Z" fill="#5925DC"/><path d="M130.638 81.088h-8.819a4 4 0 0 1-4-4v-5.176a4 4 0 0 1 4-4h8.819v13.176Z" fill="#5925DC"/><path fill-rule="evenodd" clip-rule="evenodd" d="M124.228 79.441a.395.395 0 0 1-.283-.12.418.418 0 0 1-.117-.292v-4.117h-4.006a.395.395 0 0 1-.283-.12.42.42 0 0 1 0-.583.395.395 0 0 1 .283-.12h4.006V69.97a.42.42 0 0 1 .117-.292.395.395 0 0 1 .567 0 .418.418 0 0 1 .117.292v4.117h4.006a.4.4 0 0 1 .283.12.419.419 0 0 1 0 .583.395.395 0 0 1-.283.12h-4.006v4.118a.42.42 0 0 1-.117.292.395.395 0 0 1-.284.12Z" fill="#fff"/><path d="M105.819 53h-.5v43h33.319a4.5 4.5 0 0 0 4.5-4.5v-34a4.5 4.5 0 0 0-4.5-4.5h-32.819Z" stroke="#98A2B3"/><circle cx="177" cy="74" r="12" transform="rotate(-90 177 74)" fill="#344054"/><path d="M172.443 80v-1.773l4.142-3.835c.353-.34.648-.648.887-.92.242-.273.426-.54.551-.801.125-.266.187-.552.187-.859 0-.34-.077-.634-.233-.88a1.526 1.526 0 0 0-.636-.574 1.995 1.995 0 0 0-.915-.205c-.356 0-.667.072-.932.216-.265.144-.469.35-.613.62-.144.269-.216.589-.216.96h-2.335c0-.761.172-1.422.517-1.983.344-.56.827-.994 1.448-1.301.622-.307 1.338-.46 2.148-.46.834 0 1.559.147 2.176.443.622.291 1.104.697 1.449 1.216s.517 1.113.517 1.784c0 .44-.087.873-.261 1.3-.171.429-.476.904-.915 1.427-.439.519-1.059 1.142-1.858 1.87l-1.699 1.664v.08h4.887V80h-8.296Z" fill="#fff"/><path d="M167 74h-23" stroke="#344054" stroke-dasharray="2 2"/><circle cx="72" cy="16" r="12" transform="rotate(-90 72 16)" fill="#344054"/><path d="M74.006 10.364V22h-2.46v-9.301h-.069l-2.665 1.67v-2.181l2.881-1.824h2.313Z" fill="#fff"/><path d="M72 25v28" stroke="#344054" stroke-dasharray="2 2"/></svg>