<svg width="231" height="92" viewBox="0 0 231 92" fill="none" xmlns="http://www.w3.org/2000/svg"><path d="M38.319 48v-.5H5A4.5 4.5 0 0 0 .5 52v34A4.5 4.5 0 0 0 5 90.5h33.319V48Z" fill="#E4E7EC"/><path d="M25.819 75.588H17a4 4 0 0 1-4-4v-5.176a4 4 0 0 1 4-4h8.819v13.176Z" fill="#E4E7EC"/><path fill-rule="evenodd" clip-rule="evenodd" d="M24.217 69c0 .11-.043.214-.118.291a.395.395 0 0 1-.283.12h-8.813a.395.395 0 0 1-.283-.12.418.418 0 0 1 0-.582.395.395 0 0 1 .283-.12h8.813c.106 0 .208.043.283.12a.418.418 0 0 1 .118.291Z" fill="#98A2B3"/><path d="M38.319 48v-.5H5A4.5 4.5 0 0 0 .5 52v34A4.5 4.5 0 0 0 5 90.5h33.319V48Z" stroke="#98A2B3"/><path d="M71.817 75.256c-.977-.004-1.818-.245-2.523-.722-.7-.477-1.24-1.169-1.62-2.074-.374-.905-.56-1.994-.556-3.267 0-1.269.188-2.35.563-3.244.378-.894.918-1.574 1.619-2.04.704-.47 1.543-.704 2.517-.704.973 0 1.81.234 2.511.704.705.47 1.246 1.152 1.625 2.045.379.89.566 1.97.563 3.24 0 1.276-.19 2.367-.569 3.272-.374.905-.912 1.597-1.613 2.074-.7.477-1.54.716-2.517.716Zm0-2.04c.667 0 1.199-.335 1.596-1.006.398-.67.595-1.676.591-3.017 0-.882-.09-1.617-.272-2.204-.178-.588-.432-1.029-.762-1.324a1.66 1.66 0 0 0-1.153-.443c-.663 0-1.193.331-1.591.994-.398.663-.599 1.655-.602 2.977 0 .894.089 1.64.267 2.239.181.594.437 1.041.767 1.34.33.296.716.444 1.159.444Z" fill="#344054"/><path stroke="#98A2B3" d="M38.319 47.5h67v43h-67z"/><path d="M105.819 47.5h-.5v43h33.319a4.5 4.5 0 0 0 4.5-4.5V52a4.5 4.5 0 0 0-4.5-4.5h-32.819Z" fill="#5925DC"/><path d="M130.638 75.588h-8.819a4 4 0 0 1-4-4v-5.176a4 4 0 0 1 4-4h8.819v13.176Z" fill="#5925DC"/><path fill-rule="evenodd" clip-rule="evenodd" d="M124.228 73.941a.395.395 0 0 1-.283-.12.418.418 0 0 1-.117-.292v-4.117h-4.006a.395.395 0 0 1-.283-.12.42.42 0 0 1 0-.583.395.395 0 0 1 .283-.12h4.006V64.47a.42.42 0 0 1 .117-.292.395.395 0 0 1 .567 0 .418.418 0 0 1 .117.292v4.117h4.006a.4.4 0 0 1 .283.12.419.419 0 0 1 0 .583.395.395 0 0 1-.283.12h-4.006v4.118a.42.42 0 0 1-.117.292.395.395 0 0 1-.284.12Z" fill="#fff"/><path d="M105.819 47.5h-.5v43h33.319a4.5 4.5 0 0 0 4.5-4.5V52a4.5 4.5 0 0 0-4.5-4.5h-32.819Z" stroke="#98A2B3"/><path d="M151.5 63V47" stroke="#E8178A"/><rect x="162" y="46" width="36" height="18" rx="3" fill="#E8178A"/><path d="M171.754 51.727V59h-1.538v-5.813h-.043l-1.665 1.044v-1.364l1.8-1.14h1.446Zm4.519 7.372a3.285 3.285 0 0 1-1.083-.188 2.464 2.464 0 0 1-.93-.6c-.275-.277-.493-.644-.654-1.1-.158-.458-.238-1.019-.238-1.684.003-.61.073-1.157.21-1.637a3.66 3.66 0 0 1 .597-1.229c.26-.336.571-.592.933-.767a2.736 2.736 0 0 1 1.219-.266c.485 0 .913.094 1.285.284.372.187.67.441.895.763.227.322.365.683.412 1.084h-1.516a1.018 1.018 0 0 0-.373-.597 1.127 1.127 0 0 0-.703-.217c-.474 0-.834.206-1.08.618-.244.412-.368.972-.373 1.68h.05a1.7 1.7 0 0 1 .44-.55c.187-.154.399-.272.636-.352a2.29 2.29 0 0 1 .756-.124 2.162 2.162 0 0 1 1.946 1.136c.194.353.291.756.291 1.21 0 .493-.114.931-.344 1.315a2.389 2.389 0 0 1-.955.902c-.407.215-.881.322-1.421.32Zm-.007-1.207a1.2 1.2 0 0 0 1.076-.632 1.33 1.33 0 0 0 .16-.654 1.31 1.31 0 0 0-.16-.65 1.18 1.18 0 0 0-1.065-.629 1.22 1.22 0 0 0-.494.1 1.244 1.244 0 0 0-.657.69 1.272 1.272 0 0 0-.096.493 1.277 1.277 0 0 0 .601 1.108c.187.116.398.174.635.174Zm3.832 3.153v-7.5h1.491v.917h.068c.066-.147.162-.296.287-.448.128-.154.294-.282.498-.383.206-.105.461-.157.767-.157.397 0 .764.105 1.1.313.337.206.605.517.807.934.201.414.301.934.301 1.559 0 .608-.098 1.122-.294 1.541-.194.417-.46.733-.796.948-.334.213-.708.32-1.122.32a1.75 1.75 0 0 1-.749-.146 1.545 1.545 0 0 1-.501-.366c-.13-.149-.23-.3-.298-.45h-.046v2.918h-1.513Zm1.481-4.772c0 .324.045.607.135.848.09.242.22.43.39.565a.984.984 0 0 0 .622.199.977.977 0 0 0 .625-.203c.17-.137.299-.326.387-.568.09-.243.135-.524.135-.841a2.4 2.4 0 0 0-.132-.831 1.229 1.229 0 0 0-.387-.561.98.98 0 0 0-.628-.203.997.997 0 0 0-.625.196 1.22 1.22 0 0 0-.387.554c-.09.239-.135.52-.135.845Zm5.916-2.728 1.001 1.907 1.027-1.907h1.551l-1.58 2.728L191.117 59h-1.545l-1.076-1.886L187.438 59h-1.562l1.619-2.727-1.563-2.728h1.563Z" fill="#fff"/><path stroke="#E8178A" d="M155 62.5h-7m7-15h-7m3.5 43.5V75"/><rect x="162" y="74" width="36" height="18" rx="3" fill="#E8178A"/><path d="M171.754 79.727V87h-1.538v-5.813h-.043l-1.665 1.044v-1.364l1.8-1.14h1.446Zm4.519 7.372a3.285 3.285 0 0 1-1.083-.188 2.464 2.464 0 0 1-.93-.6c-.275-.277-.493-.644-.654-1.1-.158-.458-.238-1.019-.238-1.684.003-.61.073-1.156.21-1.637a3.66 3.66 0 0 1 .597-1.229c.26-.336.571-.592.933-.767a2.736 2.736 0 0 1 1.219-.266c.485 0 .913.094 1.285.284.372.187.67.441.895.763.227.322.365.683.412 1.084h-1.516a1.018 1.018 0 0 0-.373-.597 1.127 1.127 0 0 0-.703-.217c-.474 0-.834.206-1.08.618-.244.412-.368.972-.373 1.68h.05a1.7 1.7 0 0 1 .44-.55c.187-.154.399-.272.636-.352a2.29 2.29 0 0 1 .756-.124 2.162 2.162 0 0 1 1.946 1.136c.194.353.291.756.291 1.21 0 .493-.114.931-.344 1.315a2.389 2.389 0 0 1-.955.902c-.407.215-.881.322-1.421.32Zm-.007-1.207a1.2 1.2 0 0 0 1.076-.632 1.33 1.33 0 0 0 .16-.654 1.31 1.31 0 0 0-.16-.65 1.18 1.18 0 0 0-1.065-.629 1.22 1.22 0 0 0-.494.1 1.244 1.244 0 0 0-.657.69 1.272 1.272 0 0 0-.096.493 1.277 1.277 0 0 0 .601 1.108c.187.116.398.174.635.174Zm3.832 3.154v-7.5h1.491v.916h.068c.066-.147.162-.296.287-.448.128-.154.294-.281.498-.383.206-.105.461-.157.767-.157.397 0 .764.105 1.1.313.337.206.605.517.807.934.201.414.301.934.301 1.559 0 .608-.098 1.122-.294 1.541-.194.417-.46.733-.796.948-.334.213-.708.32-1.122.32a1.75 1.75 0 0 1-.749-.146 1.545 1.545 0 0 1-.501-.366c-.13-.149-.23-.3-.298-.45h-.046v2.919h-1.513Zm1.481-4.773c0 .324.045.607.135.848.09.242.22.43.39.565a.984.984 0 0 0 .622.199.977.977 0 0 0 .625-.203c.17-.137.299-.326.387-.568.09-.243.135-.524.135-.841a2.4 2.4 0 0 0-.132-.831 1.229 1.229 0 0 0-.387-.561.98.98 0 0 0-.628-.203.997.997 0 0 0-.625.196 1.22 1.22 0 0 0-.387.554c-.09.239-.135.52-.135.845Zm5.916-2.727 1.001 1.906 1.027-1.906h1.551l-1.58 2.727L191.117 87h-1.545l-1.076-1.886L187.438 87h-1.562l1.619-2.727-1.563-2.727h1.563Z" fill="#fff"/><path stroke="#E8178A" d="M155 90.5h-7m7-15h-7"/><path d="M5.085 23.5 1.339 10.41h3.023l2.167 9.095h.109l2.39-9.096h2.59L14 19.524h.116l2.166-9.115h3.024L15.56 23.5h-2.697l-2.493-8.559h-.103L7.782 23.5H5.085Zm15.652 0v-9.818h2.723V23.5h-2.723Zm1.368-11.084a1.48 1.48 0 0 1-1.042-.402 1.306 1.306 0 0 1-.428-.978c0-.375.142-.697.428-.966.29-.272.637-.409 1.042-.409s.75.137 1.035.41c.29.268.435.59.435.965 0 .379-.145.705-.435.978-.285.268-.63.402-1.035.402Zm8.759 1.266v2.045H24.95v-2.045h5.913Zm-4.57-2.353h2.722v9.154c0 .251.039.447.115.588a.634.634 0 0 0 .32.288c.14.055.303.083.486.083.128 0 .255-.01.383-.032l.294-.058.429 2.027a7.658 7.658 0 0 1-.576.147c-.247.06-.547.095-.9.108-.657.026-1.233-.062-1.727-.262-.49-.2-.871-.511-1.144-.933-.273-.422-.407-.955-.403-1.598v-9.512Zm9.277 6.495V23.5h-2.723V10.41h2.647v5.004h.115c.221-.58.58-1.033 1.074-1.361.494-.333 1.114-.499 1.86-.499.681 0 1.276.15 1.783.447a2.99 2.99 0 0 1 1.189 1.272c.285.55.426 1.209.422 1.976V23.5h-2.723v-5.766c.004-.605-.15-1.076-.46-1.412-.307-.337-.738-.505-1.292-.505-.37 0-.698.079-.984.236a1.676 1.676 0 0 0-.665.69c-.157.299-.238.659-.243 1.08Zm8.51 5.676v-9.818h2.723V23.5H44.08Zm1.368-11.084a1.48 1.48 0 0 1-1.042-.402 1.306 1.306 0 0 1-.428-.978c0-.375.142-.697.428-.966a1.47 1.47 0 0 1 1.042-.409c.404 0 .75.137 1.035.41.29.268.435.59.435.965 0 .379-.145.705-.435.978-.285.268-.63.402-1.035.402Zm6.26 5.408V23.5h-2.724v-9.818h2.595v1.732h.115a2.739 2.739 0 0 1 1.093-1.355c.512-.337 1.132-.505 1.86-.505.682 0 1.277.15 1.784.447.507.299.901.725 1.182 1.279.282.55.422 1.206.422 1.969V23.5h-2.723v-5.766c.005-.6-.149-1.07-.46-1.406-.311-.34-.74-.511-1.285-.511-.366 0-.69.079-.971.236a1.648 1.648 0 0 0-.652.69c-.154.299-.233.659-.237 1.08Zm17.862-4.142v2.045h-5.913v-2.045h5.913ZM65 11.329h2.722v9.154c0 .251.039.447.115.588a.635.635 0 0 0 .32.288c.14.055.303.083.486.083.128 0 .255-.01.383-.032l.294-.058.429 2.027a7.666 7.666 0 0 1-.576.147 4.62 4.62 0 0 1-.9.108c-.657.026-1.233-.062-1.727-.262-.49-.2-.871-.511-1.144-.933-.273-.422-.407-.955-.403-1.598v-9.512Zm9.277 6.495V23.5h-2.723V10.41h2.647v5.004h.115c.221-.58.58-1.033 1.074-1.361.494-.333 1.114-.499 1.86-.499.681 0 1.276.15 1.783.447a3 3 0 0 1 1.189 1.272c.285.55.426 1.209.422 1.976V23.5h-2.723v-5.766c.004-.605-.15-1.076-.46-1.412-.307-.337-.738-.505-1.291-.505-.371 0-.7.079-.985.236a1.676 1.676 0 0 0-.665.69c-.157.299-.238.659-.243 1.08Zm12.984 5.868c-1.01 0-1.879-.205-2.608-.614a4.202 4.202 0 0 1-1.674-1.751c-.392-.759-.589-1.656-.589-2.691 0-1.01.197-1.897.589-2.66a4.347 4.347 0 0 1 1.655-1.783c.716-.426 1.555-.639 2.519-.639.647 0 1.25.104 1.809.313a4.013 4.013 0 0 1 1.47.927c.422.413.75.933.984 1.56.234.622.352 1.35.352 2.186v.748h-8.29V17.6h5.726c0-.392-.085-.74-.255-1.042a1.832 1.832 0 0 0-.71-.71 2.024 2.024 0 0 0-1.042-.261c-.413 0-.78.095-1.1.287a2.017 2.017 0 0 0-.74.76 2.14 2.14 0 0 0-.275 1.056v1.604c0 .486.09.906.268 1.26.183.353.441.626.773.817.333.192.727.288 1.183.288.303 0 .58-.043.831-.128s.467-.213.646-.383c.178-.17.315-.38.409-.627l2.518.166a3.439 3.439 0 0 1-.786 1.586c-.392.447-.9.797-1.521 1.048-.618.247-1.332.37-2.142.37Zm16.938 3.49v-5.254h-.084a3.46 3.46 0 0 1-.543.811 2.69 2.69 0 0 1-.901.659c-.367.174-.814.262-1.342.262a3.708 3.708 0 0 1-2.027-.576c-.6-.387-1.078-.956-1.432-1.706-.349-.754-.524-1.68-.524-2.774 0-1.125.181-2.06.544-2.806.362-.75.843-1.31 1.444-1.681a3.701 3.701 0 0 1 1.988-.563c.55 0 1.008.094 1.374.281.371.183.669.414.895.69.23.273.405.542.524.806h.116v-1.65h2.684v13.5H104.2Zm-2.008-5.69c.439 0 .81-.118 1.113-.357.307-.243.541-.582.703-1.016.166-.435.249-.944.249-1.528 0-.584-.081-1.091-.243-1.521-.162-.43-.396-.763-.703-.998-.307-.234-.68-.351-1.119-.351-.447 0-.824.121-1.131.364-.307.243-.539.58-.697 1.01-.157.43-.236.93-.236 1.496 0 .57.079 1.076.236 1.515.162.434.395.775.697 1.023.307.242.684.364 1.131.364Zm13.206-2.172v-5.638h2.723V23.5h-2.614v-1.783h-.102a2.9 2.9 0 0 1-1.106 1.387c-.511.35-1.136.524-1.873.524-.656 0-1.234-.15-1.732-.448a3.072 3.072 0 0 1-1.17-1.272c-.277-.55-.417-1.208-.422-1.975v-6.251h2.723v5.765c.005.58.16 1.038.467 1.375.307.336.718.505 1.234.505.328 0 .635-.075.92-.224.286-.153.516-.38.69-.678.179-.298.267-.666.262-1.105Zm7.701 4.365c-.626 0-1.184-.108-1.674-.326a2.695 2.695 0 0 1-1.164-.978c-.281-.434-.422-.976-.422-1.623 0-.546.1-1.004.301-1.374.2-.371.473-.67.818-.895a3.965 3.965 0 0 1 1.176-.512 8.95 8.95 0 0 1 1.394-.243c.571-.06 1.031-.115 1.38-.166.35-.055.603-.136.761-.243a.533.533 0 0 0 .236-.473v-.038c0-.405-.127-.718-.383-.94-.252-.221-.61-.332-1.074-.332-.49 0-.88.109-1.17.326a1.5 1.5 0 0 0-.575.805l-2.519-.204a3.42 3.42 0 0 1 .755-1.547 3.616 3.616 0 0 1 1.451-1.01c.596-.239 1.287-.358 2.071-.358.545 0 1.067.064 1.566.192a4.11 4.11 0 0 1 1.336.594c.392.269.701.614.927 1.036.225.417.338.918.338 1.502V23.5h-2.582v-1.361h-.077a2.748 2.748 0 0 1-.633.811c-.264.23-.581.412-.952.544a3.94 3.94 0 0 1-1.285.191Zm.78-1.879c.401 0 .754-.079 1.061-.236.307-.162.548-.38.722-.652a1.68 1.68 0 0 0 .263-.927v-1.042a1.48 1.48 0 0 1-.352.153 6.431 6.431 0 0 1-.492.122 26.37 26.37 0 0 1-.55.096l-.499.07a3.381 3.381 0 0 0-.837.224 1.33 1.33 0 0 0-.556.415c-.132.17-.198.384-.198.64 0 .37.134.653.403.85.272.191.617.287 1.035.287Zm9.585-3.982V23.5h-2.723v-9.818h2.595v1.732h.115a2.744 2.744 0 0 1 1.093-1.355c.512-.337 1.132-.505 1.86-.505.682 0 1.277.15 1.784.447a3.04 3.04 0 0 1 1.182 1.279c.281.55.422 1.206.422 1.969V23.5h-2.723v-5.766c.004-.6-.149-1.07-.46-1.406-.311-.34-.74-.511-1.285-.511-.366 0-.69.079-.972.236a1.65 1.65 0 0 0-.652.69c-.153.299-.232.659-.236 1.08Zm13.697-4.142v2.045h-5.913v-2.045h5.913Zm-4.571-2.353h2.723v9.154c0 .251.039.447.115.588a.638.638 0 0 0 .32.288c.14.055.302.083.486.083.128 0 .255-.01.383-.032l.294-.058.428 2.027a7.63 7.63 0 0 1-.575.147 4.6 4.6 0 0 1-.901.108c-.656.026-1.232-.062-1.726-.262a2.41 2.41 0 0 1-1.144-.933c-.273-.422-.407-.955-.403-1.598v-9.512Zm6.344 12.171v-9.818h2.723V23.5h-2.723Zm1.368-11.084a1.48 1.48 0 0 1-1.042-.402 1.307 1.307 0 0 1-.428-.978c0-.375.143-.697.428-.966.29-.272.637-.409 1.042-.409s.75.137 1.036.41c.289.268.434.59.434.965a1.3 1.3 0 0 1-.434.978 1.459 1.459 0 0 1-1.036.402Zm8.759 1.266v2.045h-5.913v-2.045h5.913Zm-4.57-2.353h2.723v9.154c0 .251.038.447.115.588a.632.632 0 0 0 .319.288c.141.055.303.083.486.083.128 0 .256-.01.384-.032l.294-.058.428 2.027a7.63 7.63 0 0 1-.575.147c-.248.06-.548.095-.902.108-.656.026-1.231-.062-1.726-.262a2.41 2.41 0 0 1-1.144-.933c-.272-.422-.407-.955-.402-1.598v-9.512Zm8.025 15.853a5.44 5.44 0 0 1-.972-.083 3.54 3.54 0 0 1-.741-.198l.613-2.033c.32.098.608.151.863.16.26.008.484-.051.671-.18.192-.127.348-.344.467-.651l.16-.416-3.522-10.1h2.864l2.032 7.211h.102l2.052-7.21h2.883l-3.816 10.88a4.55 4.55 0 0 1-.748 1.38 3.064 3.064 0 0 1-1.182.914c-.478.217-1.053.326-1.726.326Zm18.254-13.5v2.045h-5.913v-2.045h5.913Zm-4.57-2.353h2.723v9.154c0 .251.038.447.115.588a.632.632 0 0 0 .319.288c.141.055.303.083.486.083.128 0 .256-.01.384-.032l.294-.058.428 2.027a7.63 7.63 0 0 1-.575.147c-.248.06-.548.095-.902.108-.656.026-1.231-.062-1.726-.262a2.41 2.41 0 0 1-1.144-.933c-.272-.422-.407-.955-.402-1.598v-9.512Zm10.674 12.363c-.993 0-1.851-.211-2.576-.633a4.33 4.33 0 0 1-1.668-1.777c-.392-.763-.588-1.647-.588-2.653 0-1.014.196-1.9.588-2.659a4.28 4.28 0 0 1 1.668-1.777c.725-.426 1.583-.639 2.576-.639.993 0 1.85.213 2.57.64a4.27 4.27 0 0 1 1.675 1.776c.392.759.588 1.645.588 2.66 0 1.005-.196 1.89-.588 2.652a4.32 4.32 0 0 1-1.675 1.777c-.72.422-1.577.633-2.57.633Zm.013-2.11c.452 0 .829-.128 1.131-.383.303-.26.531-.614.684-1.061.158-.448.237-.957.237-1.528 0-.57-.079-1.08-.237-1.528-.153-.447-.381-.8-.684-1.06-.302-.26-.679-.39-1.131-.39-.456 0-.839.13-1.15.39-.307.26-.54.613-.697 1.06-.154.448-.23.957-.23 1.528 0 .571.076 1.08.23 1.528.157.447.39.8.697 1.06.311.256.694.384 1.15.384Zm11.014 5.804c-.883 0-1.639-.121-2.27-.364-.626-.239-1.125-.565-1.495-.978a3.007 3.007 0 0 1-.723-1.393l2.519-.34c.077.197.198.38.364.55.166.171.386.307.659.41.277.106.613.16 1.009.16.593 0 1.081-.146 1.464-.435.388-.286.582-.765.582-1.438V21.76h-.115c-.119.273-.298.53-.537.774a2.717 2.717 0 0 1-.92.594c-.376.154-.823.23-1.343.23a4.03 4.03 0 0 1-2.013-.511c-.601-.345-1.081-.871-1.439-1.579-.353-.711-.53-1.61-.53-2.697 0-1.113.181-2.041.543-2.787.362-.746.844-1.304 1.445-1.675a3.733 3.733 0 0 1 1.988-.556c.549 0 1.01.094 1.38.281.371.183.669.414.895.69.23.273.407.542.531.806h.102v-1.65h2.704v9.915c0 .835-.205 1.534-.614 2.096-.409.563-.975.985-1.7 1.266-.72.286-1.549.428-2.486.428Zm.057-6.072c.439 0 .81-.109 1.112-.326.307-.222.542-.537.703-.946.167-.413.25-.908.25-1.483 0-.575-.081-1.074-.243-1.496-.162-.426-.396-.756-.703-.99-.307-.235-.68-.352-1.119-.352-.447 0-.824.121-1.131.364-.307.239-.539.571-.697.997-.158.427-.237.919-.237 1.477 0 .567.079 1.057.237 1.47.162.41.394.727.697.953.307.221.684.332 1.131.332Zm11.333 6.072c-.882 0-1.638-.121-2.269-.364-.626-.239-1.125-.565-1.496-.978a3.015 3.015 0 0 1-.722-1.393l2.518-.34c.077.197.199.38.365.55.166.171.385.307.658.41.277.106.614.16 1.01.16.592 0 1.08-.146 1.464-.435.388-.286.582-.765.582-1.438V21.76h-.115a2.612 2.612 0 0 1-1.458 1.368c-.375.154-.822.23-1.342.23-.737 0-1.409-.17-2.014-.511-.601-.345-1.08-.871-1.438-1.579-.354-.711-.53-1.61-.53-2.697 0-1.113.181-2.041.543-2.787.362-.746.844-1.304 1.444-1.675a3.736 3.736 0 0 1 1.988-.556c.55 0 1.01.094 1.381.281.371.183.669.414.895.69.23.273.407.542.531.806h.102v-1.65h2.704v9.915c0 .835-.205 1.534-.614 2.096-.409.563-.976.985-1.7 1.266-.72.286-1.549.428-2.487.428Zm.058-6.072c.439 0 .809-.109 1.112-.326.307-.222.541-.537.703-.946.166-.413.249-.908.249-1.483 0-.575-.081-1.074-.243-1.496-.161-.426-.396-.756-.703-.99-.306-.235-.679-.352-1.118-.352-.448 0-.825.121-1.132.364-.306.239-.539.571-.696.997-.158.427-.237.919-.237 1.477 0 .567.079 1.057.237 1.47.162.41.394.727.696.953.307.221.684.332 1.132.332Zm9.633-10.905V23.5h-2.723V10.41h2.723Zm6.655 13.283c-1.01 0-1.879-.205-2.608-.614a4.203 4.203 0 0 1-1.674-1.751c-.392-.759-.588-1.656-.588-2.691 0-1.01.196-1.897.588-2.66a4.343 4.343 0 0 1 1.655-1.783c.716-.426 1.556-.639 2.519-.639.647 0 1.25.104 1.809.313a4.02 4.02 0 0 1 1.47.927c.422.413.75.933.984 1.56.234.622.352 1.35.352 2.186v.748h-8.291V17.6h5.727c0-.392-.085-.74-.255-1.042a1.834 1.834 0 0 0-.71-.71 2.022 2.022 0 0 0-1.042-.261c-.413 0-.779.095-1.099.287a2.02 2.02 0 0 0-.742.76 2.15 2.15 0 0 0-.274 1.056v1.604c0 .486.089.906.268 1.26.183.353.441.626.773.817.333.192.727.288 1.183.288.303 0 .58-.043.831-.128s.467-.213.646-.383.315-.38.409-.627l2.518.166a3.443 3.443 0 0 1-.786 1.586c-.392.447-.899.797-1.521 1.048-.618.247-1.332.37-2.142.37Z" fill="#344054"/><path fill="#E8178A" fill-opacity=".24" d="M0 47h144v16H0zm0 28h144v16H0z"/></svg>