<?xml version="1.0" standalone="no"?>
<!DOCTYPE svg PUBLIC "-//W3C//DTD SVG 1.1//EN" "http://www.w3.org/Graphics/SVG/1.1/DTD/svg11.dtd" >
<svg xmlns="http://www.w3.org/2000/svg">
<metadata>Generated by IcoMoon</metadata>
<defs>
<font id="blueprint-icons" horiz-adv-x="1024">
<font-face units-per-em="1024" ascent="860.16" descent="-163.84" />
<missing-glyph horiz-adv-x="1024" />
<glyph unicode="&#x20;" horiz-adv-x="512" d="" />
<glyph unicode="&#xe900;" glyph-name="alert" d="M246.679 102.274c11.73 24.017 18.273 50.945 18.273 79.408v217.603c0 139.779 113.713 253.49 253.444 253.49 139.779 0 253.444-113.713 253.444-253.49v-217.603c0-28.463 6.61-55.393 18.273-79.408h-543.451zM953.601 102.274c-43.731 0-79.362 35.631-79.362 79.408v217.603c0 170.196-120.065 312.628-279.859 347.553 0.256 2.816 0.814 5.537 0.814 8.353 0 42.451-34.351 76.802-76.802 76.802-42.401 0-76.802-34.351-76.802-76.802 0-2.816 0.558-5.537 0.865-8.353-159.841-34.913-279.906-177.364-279.906-347.553v-217.603c0-43.777-35.585-79.408-79.362-79.408-28.257 0-51.201-22.945-51.201-51.201s22.945-51.201 51.201-51.201h870.415c28.257 0 51.201 22.945 51.201 51.201s-22.945 51.201-51.201 51.201zM518.399-192.008c56.53 0 102.402 45.871 102.402 102.402h-204.803c0-56.53 45.871-102.402 102.402-102.402z" />
<glyph unicode="&#xe901;" glyph-name="angle-down" d="M915.968 612.571l-403.968-381.367-404.114 381.367-107.886-101.888 512-483.255 512 483.255z" />
<glyph unicode="&#xe902;" glyph-name="angle-left" d="M702.683 832l-483.255-512 483.255-512 101.888 107.959-381.294 404.041 381.294 403.968z" />
<glyph unicode="&#xe903;" glyph-name="angle-right" d="M321.317 832l-101.888-108.032 381.294-403.968-381.294-404.041 101.888-107.959 483.255 512z" />
<glyph unicode="&#xe904;" glyph-name="angle-up" d="M512 612.571l-512-483.255 107.959-101.888 404.041 381.367 403.968-381.367 108.032 101.888z" />
<glyph unicode="&#xe905;" glyph-name="arrow-down" d="M444.096 832v-769.664l-220.16 215.36-95.936-93.888 383.936-375.808 384.064 375.808-96 93.888-220.16-215.36v769.664z" />
<glyph unicode="&#xe906;" glyph-name="arrow-expand" d="M703.984 832v-93.054h170.684l-362.68-357.112 61.887-61.823 357.048 362.68v-170.684h93.054v319.993zM93.092-42.692v170.748h-93.054v-320.057h319.993v93.118h-170.684l362.68 357.112-61.887 61.759z" />
<glyph unicode="&#xe907;" glyph-name="arrow-left" d="M375.808 704l-375.808-383.872 375.808-384.128 93.888 96.064-215.36 220.032h769.664v135.872h-769.664l215.36 220.16z" />
<glyph unicode="&#xe908;" glyph-name="arrow-right" d="M648.192 704l-93.952-95.872 215.424-220.16h-769.664v-135.872h769.664l-215.424-220.032 93.952-96.064 375.808 384.128z" />
<glyph unicode="&#xe909;" glyph-name="arrow-up-left" d="M128 704v-511.999h131.201v288l544.063-544.001 92.736 92.736-544.063 544.128h288.065v131.136z" />
<glyph unicode="&#xe90a;" glyph-name="arrow-up-right" d="M384.001 704v-131.136h288l-544.001-544.128 92.736-92.736 544.063 544.128v-288.127h131.201v511.999z" />
<glyph unicode="&#xe90b;" glyph-name="arrow-up" d="M511.936 832l-383.936-375.808 95.936-93.952 220.16 215.424v-769.664h135.744v769.664l220.16-215.424 95.936 93.952z" />
<glyph unicode="&#xe90c;" glyph-name="attachment" d="M402.966-190.966c-83.114 0-161.237 32.602-219.958 91.835-121.033 121.966-121.033 320.468 0 442.481l404.561 407.874c42.070 42.443 98.085 65.81 157.646 65.81 59.607 0 115.623-23.367 157.739-65.81 86.658-87.358 86.658-229.519 0-316.877l-405.028-407.874c-25.42-25.653-59.327-39.785-95.38-39.785s-69.962 14.085-95.427 39.785c-52.284 52.704-52.284 138.569 0 191.274l374.432 377.044 66.183-65.717-374.385-377.044c-16.371-16.511-16.371-43.329 0-59.886 15.625-15.718 42.723-15.765 58.348 0l405.028 407.874c50.698 51.165 50.698 134.372 0 185.491-48.926 49.299-134.045 49.346-182.972 0l-404.515-407.827c-85.119-85.819-85.119-225.368 0-311.14 41.044-41.417 95.661-64.225 153.728-64.225s112.684 22.807 153.774 64.225l197.897 199.483 66.183-65.671-197.851-199.483c-58.721-59.234-136.89-91.835-220.005-91.835z" />
<glyph unicode="&#xe90d;" glyph-name="browser" d="M0-64v768h1024v-768h-1024zM85.333 490.624h853.333v128.043h-853.333v-128.043zM85.333 21.333h853.333v384h-853.333v-384zM853.333 533.333h42.667v42.667h-42.667zM768 533.333h42.667v42.667h-42.667zM640 533.333h85.333v42.667h-85.333z" />
<glyph unicode="&#xe90e;" glyph-name="bus" d="M264.405 339.599v231.849h502.34v-231.849h-502.34zM786.065 629.41h-540.981c-21.33 0-38.642-17.311-38.642-38.642v-270.491c0-21.33 17.311-38.642 38.642-38.642h540.981c21.33 0 38.642 17.311 38.642 38.642v270.491c0 21.33-17.311 38.642-38.642 38.642zM283.726 146.391c-10.665 0-19.321 8.656-19.321 19.321s8.656 19.321 19.321 19.321c10.665 0 19.321-8.656 19.321-19.321s-8.656-19.321-19.321-19.321zM283.726 242.995c-42.66 0-77.283-34.623-77.283-77.283s34.623-77.283 77.283-77.283c42.66 0 77.283 34.623 77.283 77.283s-34.623 77.283-77.283 77.283zM747.424 146.391c-10.665 0-19.321 8.656-19.321 19.321s8.656 19.321 19.321 19.321c10.665 0 19.321-8.656 19.321-19.321s-8.656-19.321-19.321-19.321zM747.424 242.995c-42.66 0-77.283-34.623-77.283-77.283s34.623-77.283 77.283-77.283c42.66 0 77.283 34.623 77.283 77.283s-34.623 77.283-77.283 77.283zM969.613 378.24c0-5.333-4.328-9.66-9.66-9.66h-19.321v173.887h19.321c5.333 0 9.66-4.328 9.66-9.66v-154.566zM882.669 84.024c0-29.522-24.035-53.557-53.557-53.557h-627.074c-29.522 0-53.557 24.035-53.557 53.557v545.425c0 23.726 15.225 44.322 37.869 51.239 67.545 20.673 179.49 45.326 329.226 45.326s261.68-24.653 329.226-45.326c22.644-6.917 37.869-27.513 37.869-51.239v-545.425zM776.405-85.458c0-5.333-4.328-9.66-9.66-9.66h-77.283c-5.333 0-9.66 4.328-9.66 9.66v57.962h96.604v-57.962zM351.348-85.458c0-5.333-4.328-9.66-9.66-9.66h-77.283c-5.333 0-9.66 4.328-9.66 9.66v57.962h96.604v-57.962zM71.197 368.58c-5.333 0-9.66 4.328-9.66 9.66v154.566c0 5.333 4.328 9.66 9.66 9.66h19.321v-173.887h-19.321zM959.952 600.428h-19.321v29.020c0 49.113-31.918 92.315-78.906 106.689-71.332 21.832-189.227 47.838-346.151 47.838s-274.818-26.006-346.151-47.838c-46.988-14.375-78.906-57.576-78.906-106.689v-29.020h-19.321c-37.289 0-67.623-30.334-67.623-67.623v-154.566c0-37.289 30.334-67.623 67.623-67.623h19.321v-226.594c0-61.595 49.925-111.519 111.519-111.519h-5.255v-57.962c0-37.289 30.334-67.623 67.623-67.623h77.283c37.289 0 67.623 30.334 67.623 67.623v57.962h212.528v-57.962c0-37.289 30.334-67.623 67.623-67.623h77.283c37.289 0 67.623 30.334 67.623 67.623v57.962h-5.255c61.595 0 111.519 49.925 111.519 111.519v226.594h19.321c37.289 0 67.623 30.334 67.623 67.623v154.566c0 37.289-30.334 67.623-67.623 67.623z" />
<glyph unicode="&#xe90f;" glyph-name="calculator-o" d="M128-192v1024h768v-1024h-768zM213.333-102.955h597.333v845.909h-597.333v-845.909zM298.667 631.645c0 12.075 9.771 22.272 21.333 22.272h384c11.563 0 21.333-10.197 21.333-22.272v-89.045c0-12.075-9.771-22.229-21.333-22.229h-384c-11.563 0-21.333 10.155-21.333 22.229v89.045zM320 475.827h384c35.2 0 64 30.037 64 66.773v89.045c0 36.736-28.8 66.773-64 66.773h-384c-35.2 0-64-30.037-64-66.773v-89.045c0-36.736 28.8-66.773 64-66.773zM320 386.791c11.563 0 21.333-10.197 21.333-22.272s-9.771-22.229-21.333-22.229c-11.563 0-21.333 10.155-21.333 22.229s9.771 22.272 21.333 22.272zM320 297.745c35.2 0 64 30.037 64 66.773s-28.8 66.773-64 66.773c-35.2 0-64-30.037-64-66.773s28.8-66.773 64-66.773zM704 342.272c-11.563 0-21.333 10.197-21.333 22.229 0 12.075 9.771 22.272 21.333 22.272s21.333-10.197 21.333-22.272c0-12.032-9.771-22.229-21.333-22.229zM704 431.317c-35.2 0-64-30.080-64-66.816 0-36.693 28.8-66.773 64-66.773s64 30.080 64 66.773c0 36.736-28.8 66.816-64 66.816zM512 342.272c-11.563 0-21.333 10.197-21.333 22.229 0 12.075 9.771 22.272 21.333 22.272s21.333-10.197 21.333-22.272c0-12.032-9.771-22.229-21.333-22.229zM512 431.317c-35.2 0-64-30.080-64-66.816 0-36.693 28.8-66.773 64-66.773s64 30.080 64 66.773c0 36.736-28.8 66.816-64 66.816zM320 208.687c11.563 0 21.333-10.197 21.333-22.229 0-12.075-9.771-22.272-21.333-22.272s-21.333 10.197-21.333 22.272c0 12.032 9.771 22.229 21.333 22.229zM320 119.641c35.2 0 64 30.080 64 66.816 0 36.693-28.8 66.731-64 66.731s-64-30.037-64-66.731c0-36.736 28.8-66.816 64-66.816zM725.333 8.355c0-12.075-9.771-22.272-21.333-22.272s-21.333 10.197-21.333 22.272v178.091c0 12.075 9.771 22.229 21.333 22.229s21.333-10.155 21.333-22.229v-178.091zM704 253.219c-35.2 0-64-30.037-64-66.773v-178.091c0-36.736 28.8-66.773 64-66.773s64 30.037 64 66.773v178.091c0 36.736-28.8 66.773-64 66.773zM512 164.168c-11.563 0-21.333 10.197-21.333 22.272s9.771 22.229 21.333 22.229c11.563 0 21.333-10.155 21.333-22.229s-9.771-22.272-21.333-22.272zM512 253.213c-35.2 0-64-30.037-64-66.773s28.8-66.773 64-66.773c35.2 0 64 30.037 64 66.773s-28.8 66.773-64 66.773zM320 30.605c11.563 0 21.333-10.197 21.333-22.229 0-12.075-9.771-22.272-21.333-22.272s-21.333 10.197-21.333 22.272c0 12.032 9.771 22.229 21.333 22.229zM320-58.44c35.2 0 64 30.080 64 66.816 0 36.693-28.8 66.731-64 66.731s-64-30.037-64-66.731c0-36.736 28.8-66.816 64-66.816zM512-13.917c-11.563 0-21.333 10.197-21.333 22.272s9.771 22.229 21.333 22.229c11.563 0 21.333-10.155 21.333-22.229s-9.771-22.272-21.333-22.272zM512 75.128c-35.2 0-64-30.037-64-66.773s28.8-66.773 64-66.773c35.2 0 64 30.037 64 66.773s-28.8 66.773-64 66.773z" />
<glyph unicode="&#xe910;" glyph-name="calculator" d="M128-192v1024h768v-1024h-768zM213.333-102.955h597.333v845.909h-597.333v-845.909zM298.667 631.645c0 12.075 9.771 22.272 21.333 22.272h384c11.563 0 21.333-10.197 21.333-22.272v-89.045c0-12.075-9.771-22.229-21.333-22.229h-384c-11.563 0-21.333 10.155-21.333 22.229v89.045zM320 475.827h384c35.2 0 64 30.037 64 66.773v89.045c0 36.736-28.8 66.773-64 66.773h-384c-35.2 0-64-30.037-64-66.773v-89.045c0-36.736 28.8-66.773 64-66.773zM320 520.355h384c11.563 0 21.333 10.197 21.333 22.229v89.045c0 12.075-9.771 22.272-21.333 22.272h-384c-11.563 0-21.333-10.197-21.333-22.272v-89.045c0-12.032 9.771-22.229 21.333-22.229zM320 386.791c11.563 0 21.333-10.197 21.333-22.272s-9.771-22.229-21.333-22.229c-11.563 0-21.333 10.155-21.333 22.229s9.771 22.272 21.333 22.272zM320 297.745c35.2 0 64 30.037 64 66.773s-28.8 66.773-64 66.773c-35.2 0-64-30.037-64-66.773s28.8-66.773 64-66.773zM320 342.272c11.563 0 21.333 10.197 21.333 22.229 0 12.075-9.771 22.272-21.333 22.272s-21.333-10.197-21.333-22.272c0-12.032 9.771-22.229 21.333-22.229zM704 342.272c-11.563 0-21.333 10.197-21.333 22.229 0 12.075 9.771 22.272 21.333 22.272s21.333-10.197 21.333-22.272c0-12.032-9.771-22.229-21.333-22.229zM704 431.317c-35.2 0-64-30.080-64-66.816 0-36.693 28.8-66.773 64-66.773s64 30.080 64 66.773c0 36.736-28.8 66.816-64 66.816zM704 386.791c-11.563 0-21.333-10.197-21.333-22.272s9.771-22.229 21.333-22.229c11.563 0 21.333 10.155 21.333 22.229s-9.771 22.272-21.333 22.272zM512 342.272c-11.563 0-21.333 10.197-21.333 22.229 0 12.075 9.771 22.272 21.333 22.272s21.333-10.197 21.333-22.272c0-12.032-9.771-22.229-21.333-22.229zM512 431.317c-35.2 0-64-30.080-64-66.816 0-36.693 28.8-66.773 64-66.773s64 30.080 64 66.773c0 36.736-28.8 66.816-64 66.816zM512 386.791c-11.563 0-21.333-10.197-21.333-22.272s9.771-22.229 21.333-22.229c11.563 0 21.333 10.155 21.333 22.229s-9.771 22.272-21.333 22.272zM320 208.687c11.563 0 21.333-10.197 21.333-22.229 0-12.075-9.771-22.272-21.333-22.272s-21.333 10.197-21.333 22.272c0 12.032 9.771 22.229 21.333 22.229zM320 119.641c35.2 0 64 30.080 64 66.816 0 36.693-28.8 66.731-64 66.731s-64-30.037-64-66.731c0-36.736 28.8-66.816 64-66.816zM320 164.168c11.563 0 21.333 10.197 21.333 22.272s-9.771 22.229-21.333 22.229c-11.563 0-21.333-10.155-21.333-22.229s9.771-22.272 21.333-22.272zM725.333 8.355c0-12.075-9.771-22.272-21.333-22.272s-21.333 10.197-21.333 22.272v178.091c0 12.075 9.771 22.229 21.333 22.229s21.333-10.155 21.333-22.229v-178.091zM704 253.219c-35.2 0-64-30.037-64-66.773v-178.091c0-36.736 28.8-66.773 64-66.773s64 30.037 64 66.773v178.091c0 36.736-28.8 66.773-64 66.773zM704 208.687c-11.563 0-21.333-10.197-21.333-22.229v-178.091c0-12.075 9.771-22.272 21.333-22.272s21.333 10.197 21.333 22.272v178.091c0 12.032-9.771 22.229-21.333 22.229zM512 164.168c-11.563 0-21.333 10.197-21.333 22.272s9.771 22.229 21.333 22.229c11.563 0 21.333-10.155 21.333-22.229s-9.771-22.272-21.333-22.272zM512 253.213c-35.2 0-64-30.037-64-66.773s28.8-66.773 64-66.773c35.2 0 64 30.037 64 66.773s-28.8 66.773-64 66.773zM512 208.687c-11.563 0-21.333-10.197-21.333-22.229 0-12.075 9.771-22.272 21.333-22.272s21.333 10.197 21.333 22.272c0 12.032-9.771 22.229-21.333 22.229zM320 30.605c11.563 0 21.333-10.197 21.333-22.229 0-12.075-9.771-22.272-21.333-22.272s-21.333 10.197-21.333 22.272c0 12.032 9.771 22.229 21.333 22.229zM320-58.44c35.2 0 64 30.080 64 66.816 0 36.693-28.8 66.731-64 66.731s-64-30.037-64-66.731c0-36.736 28.8-66.816 64-66.816zM320-13.917c11.563 0 21.333 10.197 21.333 22.272s-9.771 22.229-21.333 22.229c-11.563 0-21.333-10.155-21.333-22.229s9.771-22.272 21.333-22.272zM512-13.917c-11.563 0-21.333 10.197-21.333 22.272s9.771 22.229 21.333 22.229c11.563 0 21.333-10.155 21.333-22.229s-9.771-22.272-21.333-22.272zM512 75.128c-35.2 0-64-30.037-64-66.773s28.8-66.773 64-66.773c35.2 0 64 30.037 64 66.773s-28.8 66.773-64 66.773zM512 30.605c-11.563 0-21.333-10.197-21.333-22.229 0-12.075 9.771-22.272 21.333-22.272s21.333 10.197 21.333 22.272c0 12.032-9.771 22.229-21.333 22.229z" />
<glyph unicode="&#xe911;" glyph-name="calendar-alt" d="M712.363 789.333h133.547v-128h178.091v-810.667h-1024v810.667h178.048v128h133.589v-128h400.725v128zM756.864 661.333h44.544v85.333h-44.544v-85.333zM222.592 661.333h44.501v85.333h-44.501v-85.333zM89.557 497.365h844.885v78.208h-844.885v-78.208zM89.557-63.445h844.885v462.165h-844.885v-462.165z" />
<glyph unicode="&#xe912;" glyph-name="calendar" d="M690.095 809.721h133.565v-133.565h178.087v-845.913h-1024v845.913h178.042v133.565h133.61v-133.565h400.696v133.565zM734.617 676.156h44.522v89.043h-44.522v-89.043zM200.356 676.156h44.522v89.043h-44.522v-89.043zM67.236 505.059h844.889v81.564h-844.889v-81.564zM67.236-80.135h844.889v482.259h-844.889v-482.259zM155.826 186.435h133.565v133.565h-133.565zM333.913 186.435h133.565v133.565h-133.565zM512 186.435h133.565v133.565h-133.565zM690.087 186.435h133.565v133.565h-133.565zM155.826 8.348h133.565v133.565h-133.565zM333.913 8.348h133.565v133.565h-133.565zM512 8.348h133.565v133.565h-133.565zM690.087 8.348h133.565v133.565h-133.565z" />
<glyph unicode="&#xe913;" glyph-name="checked" d="M940.404 673.46l-607.354-579.782-253.982 242.376-81.303-85.191 335.285-320.026 688.715 657.431z" />
<glyph unicode="&#xe914;" glyph-name="circle-info" d="M460.8 64h102.4v358.4h-102.4zM460.8 524.8c0-28.262 22.938-51.2 51.2-51.2s51.2 22.938 51.2 51.2c0 28.262-22.938 51.2-51.2 51.2s-51.2-22.938-51.2-51.2zM512-89.6c-226.202 0-409.6 183.398-409.6 409.6s183.398 409.6 409.6 409.6c226.202 0 409.6-183.398 409.6-409.6s-183.398-409.6-409.6-409.6zM512 832c-282.778 0-512-229.222-512-512s229.222-512 512-512c282.778 0 512 229.222 512 512s-229.222 512-512 512z" />
<glyph unicode="&#xe915;" glyph-name="circle-minus" d="M682.667 376.889h-341.333c-31.403 0-56.889-25.486-56.889-56.889s25.486-56.889 56.889-56.889h341.333c31.403 0 56.889 25.486 56.889 56.889s-25.486 56.889-56.889 56.889zM512-78.222c-219.932 0-398.222 178.29-398.222 398.222s178.29 398.222 398.222 398.222c219.932 0 398.222-178.29 398.222-398.222s-178.29-398.222-398.222-398.222zM512 832c-282.795 0-512-229.205-512-512s229.205-512 512-512c282.795 0 512 229.205 512 512s-229.205 512-512 512z" />
<glyph unicode="&#xe916;" glyph-name="circle-plus" d="M512 92.444c-31.403 0-56.889 25.486-56.889 56.889v341.333c0 31.403 25.486 56.889 56.889 56.889s56.889-25.486 56.889-56.889v-341.333c0-31.403-25.486-56.889-56.889-56.889zM682.667 263.111h-341.333c-31.403 0-56.889 25.486-56.889 56.889s25.486 56.889 56.889 56.889h341.333c31.403 0 56.889-25.486 56.889-56.889s-25.486-56.889-56.889-56.889zM512-78.222c-219.932 0-398.222 178.29-398.222 398.222s178.29 398.222 398.222 398.222c219.932 0 398.222-178.29 398.222-398.222s-178.29-398.222-398.222-398.222zM512 832c-282.795 0-512-229.205-512-512s229.205-512 512-512c282.795 0 512 229.205 512 512s-229.205 512-512 512z" />
<glyph unicode="&#xe917;" glyph-name="circle-question" d="M512-89.6c-225.843 0-409.6 183.757-409.6 409.6s183.757 409.6 409.6 409.6c225.843 0 409.6-183.757 409.6-409.6s-183.757-409.6-409.6-409.6zM512 832c-282.778 0-512-229.222-512-512s229.222-512 512-512c282.778 0 512 229.222 512 512s-229.222 512-512 512zM515.998 576c-55.552 0-108.083-14.95-157.594-44.902l36.25-78.643c42.701 23.45 80.691 35.174 113.971 35.174 19.149 0 34.048-4.096 44.698-12.186 10.65-8.141 16.026-19.968 16.026-35.584 0-13.875-3.789-26.419-11.213-37.683-7.475-11.264-22.835-25.856-46.182-43.776-24.166-19.2-40.806-37.274-49.971-54.272-9.062-16.998-13.619-36.966-13.619-59.955v-26.573h88.32v21.504c0 14.387 2.816 26.010 8.499 34.918 5.632 8.806 19.098 21.709 40.448 38.758 31.13 23.91 52.173 45.466 63.334 64.666 11.11 19.098 16.64 41.83 16.64 68.198 0 39.526-13.466 71.066-40.448 94.771-27.034 23.706-63.386 35.584-109.158 35.584zM496.051 166.4c-19.456 0-34.202-4.301-44.39-12.954s-15.258-21.35-15.258-38.246c0-16.23 5.171-28.877 15.565-37.786 10.394-8.96 25.088-13.414 44.083-13.414 18.534 0 33.024 4.557 43.418 13.722 10.394 9.062 15.565 21.606 15.565 37.478 0 16.435-5.12 29.082-15.411 37.99-10.291 8.806-24.781 13.21-43.571 13.21z" />
<glyph unicode="&#xe918;" glyph-name="circle-warning" d="M512.251 166.4c-14.797 0-26.112-4.301-33.894-12.954-7.731-8.602-11.622-21.402-11.622-38.246 0-16.23 3.994-28.877 11.93-37.786 7.936-8.96 19.098-13.414 33.587-13.414 14.131 0 25.139 4.557 33.075 13.67 7.936 9.165 11.878 21.658 11.878 37.53 0 16.486-3.891 29.082-11.725 37.99-7.834 8.755-18.944 13.21-33.229 13.21zM470.749 217.6h83.917l17.51 358.4h-118.989zM512-89.6c-226.202 0-409.6 183.398-409.6 409.6s183.398 409.6 409.6 409.6c226.202 0 409.6-183.398 409.6-409.6s-183.398-409.6-409.6-409.6zM512 832c-282.778 0-512-229.222-512-512s229.222-512 512-512c282.778 0 512 229.222 512 512s-229.222 512-512 512z" />
<glyph unicode="&#xe919;" glyph-name="clock" d="M512-89.6c-225.843 0-409.6 183.757-409.6 409.6s183.757 409.6 409.6 409.6c225.843 0 409.6-183.757 409.6-409.6s-183.757-409.6-409.6-409.6zM512 832c-282.778 0-512-229.222-512-512s229.222-512 512-512c282.778 0 512 229.222 512 512s-229.222 512-512 512zM665.6 157.798l-51.2-93.798-204.8 126.208v385.792h102.4v-331.008z" />
<glyph unicode="&#xe91a;" glyph-name="cloud" d="M794.969 52.228h-531.451c-91.973 0-166.802 74.828-166.802 166.802s74.828 166.802 166.802 166.802c4.887 0 10.054-0.281 15.823-0.801 21.992-2.243 41.060 13.219 44.024 34.851 6.69 49.352 31.045 94.737 68.579 127.826 37.855 33.368 86.565 51.755 137.079 51.755 114.646 0 207.902-93.256 207.902-207.902 0-4.046-0.321-8.252-0.761-14.782-0.881-11.938 3.566-23.554 12.177-32.006 8.613-8.292 20.35-12.418 32.287-11.216 83.601 8.492 155.345-57.804 155.385-140.284 0-77.793-63.291-141.045-141.045-141.045zM817.122 414.273c-11.697 148.415-137.199 266.266-288.098 266.266-70.262 0-137.96-25.597-190.636-72.024-42.541-37.494-73.467-87.406-88.168-141.966-130.509-6.93-234.58-115.288-234.58-247.519 0-136.678 111.202-247.84 247.88-247.84h531.451c122.458 0 222.082 99.585 222.082 222.082 0 114.326-88.088 209.744-199.93 221z" />
<glyph unicode="&#xe91b;" glyph-name="cog" d="M936.219 269.501l-118.613-17.92-8.761-24.86c-6.884-19.74-13.995-36.352-20.935-49.209l-12.857-23.836 15.474-22.13c13.198-18.944 31.858-43.236 56.946-74.183-10.468-12.288-25.998-28.558-46.364-48.64-12.516-12.402-21.333-20.196-27.25-25.088l-94.379 73.842-25.145-13.084c-15.36-8.078-31.687-14.905-48.526-20.309l-26.852-8.647-3.356-27.989c-4.722-40.505-9.102-71.168-13.028-91.648h-99.726l-18.261 119.808-25.6 8.363c-17.579 5.803-33.906 12.516-48.526 20.025l-24.576 12.516-94.663-71.964c-38.969 35.726-60.757 58.539-72.932 72.818 5.575 7.282 12.629 16.384 21.333 27.307 15.132 19.172 26.567 33.963 34.133 44.601l16.1 22.3-13.141 24.178c-9.387 17.294-16.555 34.588-21.39 51.428l-7.794 27.307-119.751 17.636v98.418l119.865 18.091 8.078 26.453c4.836 15.872 11.662 31.972 20.309 47.844l12.971 23.95-15.588 22.3c-14.734 20.935-33.394 45.227-56.661 73.785 8.761 10.24 22.869 25.486 45.796 48.014 12.459 12.402 21.276 20.139 27.25 25.088l94.72-73.444 24.86 12.914c16.156 8.42 32.085 15.076 48.64 20.309l26.908 8.59 3.3 28.103c5.518 46.421 9.899 74.468 13.141 91.705h99.669l18.261-119.865 25.6-8.42c17.863-5.86 34.133-12.516 48.526-19.911l24.462-12.629 95.289 71.851c37.888-35.328 59.392-57.742 72.249-72.875-5.518-7.282-12.459-16.27-20.992-27.022-15.246-19.172-26.567-33.963-34.133-44.487l-15.872-21.959 12.516-23.95c9.216-17.749 16.612-35.499 22.073-52.679l8.192-26.112 119.012-18.204v-98.475zM1010.061 427.423c-10.126 13.141-24.064 21.618-41.017 24.348l-85.675 13.141c-1.991 5.063-4.153 10.126-6.428 15.303 4.779 6.144 10.183 12.971 16.213 20.651 15.303 19.172 26.055 33.337 32.313 42.155 8.59 11.947 13.198 25.657 13.198 39.708 0 15.929-5.063 30.379-12.345 38.741-16.668 23.495-51.541 59.676-108.43 112.014-26.34 21.959-63.488 20.423-86.016 0.569l-63.829-48.071c-3.243 1.422-6.599 2.788-10.012 4.153l-12.686 82.489c-1.138 17.408-9.33 33.166-23.268 44.43-12.060 9.728-26.795 14.962-42.496 14.962h-135.282c-32.085 0-56.775-19.342-64.398-50.005-4.949-19.001-10.069-49.323-15.531-92.274-3.243-1.252-6.428-2.617-9.671-4.039l-62.635 48.697c-12.971 10.012-27.705 15.246-42.78 15.246-23.552 0-45.852-14.165-88.348-56.092-31.573-31.118-52.793-54.386-65.365-71.908-8.818-12.686-13.255-25.828-13.255-38.912 0-10.468 2.788-26.34 16.1-42.61 18.66-22.642 34.702-42.894 47.9-60.587-1.764-3.982-3.47-8.078-5.12-12.117l-88.917-13.483c-15.588-2.844-29.525-12.004-38.798-25.031-8.818-11.89-13.483-25.771-13.483-40.050v-135.282c0-15.019 4.836-29.241 13.596-40.619 10.012-13.426 24.804-22.187 41.529-24.747l84.992-12.572c2.105-5.348 4.38-10.695 6.713-16.043-4.665-6.087-10.069-12.914-16.043-20.48-15.36-19.342-26.226-33.508-32.085-41.813-8.704-11.947-13.426-25.771-13.426-39.993 0-14.393 4.324-27.989 12.629-39.652 17.863-24.804 52.679-60.587 105.243-107.975 25.486-25.259 69.348-22.244 87.893-4.949l64.91 49.209c3.243-1.365 6.542-2.674 9.899-4.039l12.8-83.285c1.422-17.408 9.785-33.052 23.040-43.52 12.117-9.899 26.852-15.076 42.61-15.076h135.282c32.142 0 56.832 19.228 64.398 49.778 4.892 18.66 10.069 49.038 15.531 92.388 3.186 1.365 6.372 2.674 9.614 4.039l66.048-51.598c12.857-8.192 26.169-12.288 39.538-12.288 23.495 0 45.682 14.108 88.007 55.865 32.028 31.573 52.736 54.215 62.009 67.584 11.093 12.174 16.953 27.193 16.953 43.52 0 15.588-5.632 30.549-16.043 42.951-19.456 23.893-35.612 44.316-48.185 60.985 1.593 3.698 3.186 7.452 4.779 11.378l88.064 13.255c15.986 2.731 30.379 11.719 40.562 25.657 8.59 11.89 13.141 25.6 13.141 39.595v135.282c0 14.677-4.779 28.786-13.938 41.017zM591.223 240.697h-0.057c-43.918-44.089-114.233-44.26-158.436 0-22.13 22.073-32.882 48.071-32.882 79.303 0 31.289 10.752 57.23 32.882 79.303 22.073 22.073 47.957 32.825 79.189 32.825 31.346 0 57.23-10.752 79.303-32.882 22.13-22.073 32.882-48.014 32.882-79.246 0-31.175-10.752-57.173-32.882-79.303zM511.92 519.851c-54.841 0-102.457-19.627-141.255-58.482-38.912-38.855-58.596-86.414-58.596-141.369s19.684-102.514 58.596-141.369c38.798-38.855 86.414-58.596 141.255-58.596 55.012 0 102.628 19.74 141.426 58.652 38.855 38.912 58.596 86.414 58.596 141.312 0 54.841-19.797 102.457-58.596 141.312-38.798 38.912-86.414 58.539-141.426 58.539z" />
<glyph unicode="&#xe91c;" glyph-name="cross" d="M808.513 704l-296.448-296.448-296.575 296.448-87.487-87.487 296.575-296.448-296.575-296.575 87.487-87.487 296.575 296.513 296.448-296.513 87.487 87.487-296.448 296.575 296.448 296.448z" />
<glyph unicode="&#xe91d;" glyph-name="cube" d="M512 819.458l-429.549-247.978v-496l429.549-248.022 429.549 248.022v496l-429.549 247.978zM211.316 546.696l300.684 173.58 300.684-173.58-300.684-173.624-300.684 173.624zM554.955 298.674l300.684 173.58v-347.247l-300.684-173.58v347.247zM168.362 125.007v347.247l300.684-173.58v-347.247l-300.684 173.58z" />
<glyph unicode="&#xe91e;" glyph-name="cubes" d="M522.633 803.794l-255.161-147.314v-257.801l-223.266-128.942v-294.628l255.161-147.314 223.266 128.9 223.266-128.9 255.161 147.314v294.628l-223.266 128.942v257.801l-255.161 147.314zM363.156 638.060l159.477 92.072 159.477-92.072-159.477-92.027-159.477 92.027zM554.527 490.747l159.477 92.072v-184.14l-159.477-92.072v184.14zM426.945 343.434l-95.684 55.241v184.14l159.477-92.072v-184.14l-63.789 36.827zM586.422 251.321l159.477 92.113 159.477-92.113-159.477-92.072-159.477 92.072zM139.89 251.321l159.477 92.113 159.477-92.113-159.477-92.072-159.477 92.072zM777.793 104.008l159.477 92.113v-184.14l-159.477-92.113v184.14zM554.527 11.981v184.14l159.477-92.113v-184.14l-159.477 92.113zM331.261 104.008l159.477 92.113v-184.14l-159.477-92.113v184.14zM107.995 11.981v184.14l159.477-92.113v-184.14l-159.477 92.113z" />
<glyph unicode="&#xe91f;" glyph-name="database" d="M491.333-183.754c0.288 0 0.62 0 0.908 0h-1.82c0.288 0 0.62 0 0.908 0zM491.333 808.246c-0.332 0-0.66 0-0.952 0h1.9c-0.288 0-0.62 0-0.952 0zM801.323 418.154c0-41.127-123.623-103.327-309.987-103.327s-309.987 62.206-309.987 103.327v92.748c75.637-44.638 193.060-67.785 309.987-67.785s234.35 23.147 309.987 67.785v-92.748zM801.323 205.464c0-41.127-123.623-103.327-309.987-103.327s-309.987 62.206-309.987 103.327v94.484c75.637-44.678 193.060-67.785 309.987-67.785s234.35 23.103 309.987 67.785v-94.484zM801.323 5.377c0-42.367-123.623-106.472-309.987-106.472s-309.987 64.105-309.987 106.472v81.876c75.637-44.638 193.060-67.785 309.987-67.785s234.35 23.147 309.987 67.785v-81.876zM491.333 725.581c179.132 0 299.943-59.145 309.119-101.388-9.176-40.958-129.986-98.412-309.119-98.412s-299.943 57.449-309.119 98.412c9.176 42.243 129.986 101.388 309.119 101.388zM492.285 808.246h-1.9c-184.752-0.248-379.839-63.029-390.666-179.132h-1.032c0-1.736 0.456-3.308 0.496-5.044-0.040-1.652-0.496-3.224-0.496-4.96v-613.733c0-122.631 201.655-188.884 391.743-189.132h1.82c190.084 0.248 391.743 66.501 391.743 189.132v613.733c0 1.736-0.456 3.308-0.496 4.96 0.040 1.736 0.496 3.308 0.496 5.044h-1.032c-10.827 116.099-205.914 178.884-390.666 179.132zM246.775 398.315h41.33v41.33h-41.33zM246.775 191.661h41.33v41.33h-41.33zM246.775-14.998h41.33v41.33h-41.33z" />
<glyph unicode="&#xe920;" glyph-name="delay" d="M665.6 157.798l-51.2-93.798-204.8 126.208v385.792h102.4v-331.008zM156.176 522.224l151.040-151.040h-307.2v307.2l81.408-81.408c91.085 141.414 249.856 235.008 430.592 235.008 282.778 0 512-229.222 512-512s-229.222-512-512-512c-265.472 0-483.789 202.086-509.44 460.8h103.373c25.344-201.728 197.581-358.4 406.067-358.4 225.843 0 409.6 183.757 409.6 409.6s-183.757 409.6-409.6 409.6c-152.32 0-285.286-83.61-355.84-207.36z" />
<glyph unicode="&#xe921;" glyph-name="docker" d="M605.093 320h93.093v93.093h-93.093zM465.453 320h93.093v93.093h-93.093zM325.813 320h93.093v93.093h-93.093zM186.173 320h93.093v93.093h-93.093zM46.533 320h93.093v93.093h-93.093zM186.173 459.64h93.093v93.093h-93.093zM325.813 459.64h93.093v93.093h-93.093zM465.453 459.64h93.093v93.093h-93.093zM465.453 599.28h93.093v93.093h-93.093zM1006.908 332.479c-23.506 14.616-76.942 20.853-117.53 12.568-6.423 37.47-27.788 70.798-66.236 99.982l-21.365 14.616-14.988-22.948c-19.224-27.090-29.93-66.655-25.647-104.218 2.141-12.475 6.423-35.422 19.27-56.228-12.847-8.378-40.635-16.664-76.942-16.664h-698.806l-2.141-8.425c-6.377-37.47-6.377-156.257 70.565-245.906 59.813-68.75 149.555-104.172 264.944-104.172 252.144 0 438.098 112.55 525.699 318.892 34.212 0 109.012 0 145.319 70.844l10.659 18.758 4.282 8.332-17.083 14.569z" />
<glyph unicode="&#xe922;" glyph-name="download" d="M796.444-21.328h56.889v56.889h-56.889zM682.724-21.328h56.889v56.889h-56.889zM455.111 775.116h113.835v56.889h-113.835zM455.111 604.45h113.778v113.778h-113.778zM837.785 263.122l-155.136-113.778h227.556v-227.556h-796.444v227.556h227.612l-155.079 113.778h-186.311v-455.111h1024v455.111zM451.641 354.948v192.626h120.718v-192.626l195.641 174.194 85.333-75.947-341.333-303.844-341.333 303.844 85.39 75.947z" />
<glyph unicode="&#xe923;" glyph-name="edit" d="M793.303 835.713l-468.83-468.83v-187.532h187.532l468.83 468.783zM-3.713 765.375v-937.66h937.66v444.217h-93.766v-345.528h-750.128v740.283h328.181v98.689z" />
<glyph unicode="&#xe924;" glyph-name="facebook" d="M796.444 824.61v-162.418h-103.367c-37.717 0-63.147-7.396-76.402-22.187-13.141-14.734-19.74-36.921-19.74-66.446v-116.281h192.91l-25.657-182.158h-167.253v-467.115h-201.444v467.115h-167.936v182.158h167.936v134.144c0 76.288 22.869 135.452 68.494 177.55 45.568 42.041 106.382 63.033 182.329 63.033 64.569 0 114.631-2.446 150.13-7.396z" />
<glyph unicode="&#xe925;" glyph-name="file-alt" d="M128 832.013v-1024h768v746.624l-256 277.376h-512zM213.333 725.304h341.333v-234.624h256v-597.376h-597.333v832zM640 689.976l135.296-135.339h-135.296v135.339zM256 362.667h512v85.333h-512zM256 21.333h512v85.333h-512zM256 192h512v85.333h-512z" />
<glyph unicode="&#xe926;" glyph-name="file" d="M128-192v1024h768v-1024h-768zM213.333-102.955h597.333v845.909h-597.333v-845.909zM512 564.864h256v89.045h-256zM256 342.272h512v89.045h-512zM256-13.909h512v89.045h-512zM256 164.181h512v89.045h-512z" />
<glyph unicode="&#xe927;" glyph-name="folder" d="M149.333 704l-149.333-170.667v-597.333h1024v597.333h-416l-138.667 170.667h-320zM85.333 501.291l102.699 117.376h240.683l113.067-139.093 25.515-31.573h371.328v-426.667h-853.291v479.957z" />
<glyph unicode="&#xe928;" glyph-name="hamburger" d="M0 246.857h1024v146.286h-1024zM0 612.571h1024v146.286h-1024zM0-118.857h1024v146.286h-1024z" />
<glyph unicode="&#xe929;" glyph-name="hdd" d="M192.515 645.313h609.947l203.397-345.677v-304.933h-975.996v304.933l162.652 345.677zM242.856 563.905l-81.367-182.903h697.616l-101.698 182.903h-514.551zM111.188 75.989h813.262v223.647h-813.262v-223.647zM273.858 197.97h162.693v40.663h-162.693zM273.858 116.684h162.693v40.663h-162.693zM192.573 197.97h40.704v40.663h-40.704zM192.573 116.684h40.704v40.663h-40.704zM761.856 197.97h40.663v40.663h-40.663zM761.856 116.684h40.663v40.663h-40.663z" />
<glyph unicode="&#xe92a;" glyph-name="home" d="M316.91 758.873l-341.301-221.097v-705.423h1024v705.423l-682.699 221.097zM74.356 485.16l256.987 166.432 569.469-184.426v-537.284h-406.45v414.496h-354.857v-414.496h-65.149v555.278zM238.35-70.118v317.016h157.216v-317.016h-157.216zM572.955 120.506h256.012v97.528h-256.012zM572.955 246.854h256.012v97.528h-256.012zM274.226 42.922h42.669v42.084h-42.669z" />
<glyph unicode="&#xe92b;" glyph-name="image" d="M0-149.333h1024v938.667h-1024v-938.667zM85.333 699.904h853.333v-517.845l-213.333 223.488-262.613-275.072-210.219 132.053-167.168-140.117v577.493zM725.333 279.125l213.333-223.531v-115.541h-853.333v67.925l174.123 145.963 216.491-136.107 249.387 261.291zM298.667 490.667c23.509 0 42.667-19.157 42.667-42.667s-19.157-42.667-42.667-42.667c-23.509 0-42.667 19.157-42.667 42.667s19.157 42.667 42.667 42.667zM298.667 320c70.571 0 128 57.429 128 128s-57.429 128-128 128c-70.571 0-128-57.429-128-128s57.429-128 128-128z" />
<glyph unicode="&#xe92c;" glyph-name="info" d="M365.705 722.596c0 72.921 36.351 109.419 109.272 109.419 72.775 0 109.199-36.497 109.199-109.419 0-34.742-9.143-61.731-27.281-81.040-18.212-19.382-45.567-28.964-81.918-28.964-72.921 0-109.272 36.717-109.272 110.004zM374.276-191.985h200.698v731.407h-200.698z" />
<glyph unicode="&#xe92d;" glyph-name="instagram" d="M1033.172 320.057c0 2.902 0 5.234 0 8.078v-16.157c0 2.845 0 5.177 0 8.078zM521.12-191.996h-1.194zM642.452-100.303c-15.986-0.227-39.424-0.227-70.314 0s-47.901 0.342-51.030 0.342c-3.072 0-20.082-0.114-50.973-0.342s-54.328-0.227-70.37 0c-15.929 0.227-37.432 0.854-64.285 1.991-26.909 1.081-49.833 3.357-68.721 6.656-18.831 3.357-34.759 7.453-47.616 12.345-22.242 8.874-41.757 21.73-58.653 38.626-16.953 16.896-29.809 36.465-38.685 58.71-4.893 12.914-9.046 28.785-12.345 47.672s-5.575 41.757-6.656 68.607c-1.081 26.966-1.821 48.354-1.991 64.399-0.227 15.986-0.227 39.424 0 70.314 0.17 30.889 0.285 47.842 0.285 51.030 0 3.072-0.114 20.082-0.285 50.973-0.227 30.889-0.227 54.328 0 70.314 0.17 16.041 0.91 37.489 1.991 64.342s3.357 49.777 6.656 68.664c3.299 18.887 7.453 34.816 12.345 47.672 8.874 22.242 21.73 41.757 38.685 58.653 16.896 16.896 36.409 29.753 58.653 38.685 12.857 4.893 28.785 8.989 47.616 12.288 18.887 3.414 41.814 5.632 68.721 6.713 26.85 1.081 48.354 1.763 64.285 1.991 16.041 0.227 39.48 0.227 70.37 0s47.901-0.342 50.973-0.342c3.129 0 20.137 0.114 51.030 0.342s54.328 0.227 70.314 0c16.041-0.227 37.432-0.91 64.342-1.991 26.85-1.081 49.777-3.299 68.664-6.713 18.887-3.299 34.759-7.394 47.672-12.288 22.185-8.93 41.814-21.789 58.653-38.685 16.896-16.896 29.809-36.409 38.685-58.653 4.893-12.857 8.989-28.785 12.345-47.672 3.299-18.887 5.575-41.814 6.656-68.664 1.138-26.85 1.763-48.297 1.991-64.342 0.227-15.986 0.227-39.424 0-70.314s-0.342-47.901-0.342-50.973c0-3.186 0.114-20.137 0.342-51.030s0.227-54.328 0-70.314c-0.227-16.041-0.854-37.432-1.991-64.399-1.081-26.85-3.357-49.72-6.656-68.607-3.357-18.887-7.453-34.759-12.345-47.672-8.874-22.242-21.789-41.814-38.685-58.71-16.839-16.896-36.465-29.753-58.653-38.626-12.914-4.893-28.785-8.989-47.672-12.345-18.887-3.299-41.814-5.575-68.664-6.656-26.909-1.138-48.297-1.763-64.342-1.991zM947.147-105.992c50.687 50.687 78.166 122.254 82.658 214.64 2.162 38.001 3.299 106.154 3.357 203.319v16.157c-0.057 97.052-1.194 165.261-3.357 203.206-4.494 92.444-31.97 164.009-82.658 214.64-50.687 50.687-122.254 78.222-214.696 82.717-39.081 2.218-109.511 3.299-211.341 3.299-101.717 0-172.201-1.081-211.284-3.299-92.444-4.494-164.009-32.029-214.696-82.717-50.631-50.631-78.222-122.197-82.658-214.64-2.218-39.081-3.299-109.567-3.299-211.284 0-101.831 1.081-172.258 3.299-211.398 4.438-92.386 32.029-163.952 82.658-214.64 50.687-50.631 122.254-78.222 214.696-82.658 38.912-2.218 109.112-3.357 210.145-3.357h2.333c101.148 0 171.234 1.138 210.145 3.357 92.444 4.438 164.009 32.029 214.696 82.658zM641.841 199.334c-33.337-33.28-73.614-49.949-120.718-49.949s-87.325 16.669-120.604 49.949c-33.393 33.337-50.006 73.558-50.006 120.718 0 47.047 16.61 87.266 50.006 120.661 33.28 33.337 73.501 49.949 120.604 49.949s87.381-16.61 120.718-49.949c33.28-33.393 50.006-73.614 50.006-120.661 0-47.16-16.726-87.381-50.006-120.718zM707.15 506.019c-51.087 51.087-113.095 76.63-186.025 76.63-72.874 0-134.881-25.543-185.968-76.63s-76.686-113.151-76.686-185.968c0-72.93 25.6-134.94 76.686-186.025 51.087-51.143 113.095-76.686 185.968-76.686 72.93 0 134.94 25.543 186.025 76.686 51.143 51.087 76.686 113.095 76.686 186.025 0 72.817-25.543 134.881-76.686 185.968zM794.479 532.029c16.896 0 31.345 5.974 43.35 17.977 11.946 12.061 17.977 26.454 17.977 43.35s-6.030 31.345-17.977 43.35c-12.002 12.002-26.454 17.977-43.35 17.977s-31.289-5.974-43.293-17.977c-12.002-12.002-18.034-26.454-18.034-43.35s6.030-31.289 18.034-43.35c12.002-12.002 26.397-17.977 43.293-17.977z" />
<glyph unicode="&#xe92e;" glyph-name="link-external" d="M0 661.327v-853.337h853.337v512h-113.779v-398.279h-625.779v625.836h398.221v113.779zM568.885 831.979v-113.779h260.895l-414.892-414.835 80.441-80.441 414.892 414.835v-260.895h113.779v455.111z" />
<glyph unicode="&#xe92f;" glyph-name="link" d="M932.88 744.868c-106.856 106.856-282.166 108.373-391.399 2.884l-78.523-78.068c-19.833-19.681-19.934-51.758-0.202-71.541 19.681-19.833 51.708-19.934 71.541-0.202l78.017 77.511c69.213 66.937 180.875 65.975 249.026-2.125 68.1-68.1 69.061-179.813 2.783-248.419l-136.959-136.959c-36.479-36.479-87.124-55.351-138.325-51.606-51.455 3.643-98.66 29.497-129.573 70.782-16.747 22.413-48.419 26.967-70.833 10.22s-26.916-48.469-10.22-70.833c48.52-64.812 122.641-105.338 203.39-111.105 6.678-0.455 13.357-0.708 20.035-0.708 73.666 0 144.599 29.193 197.066 81.71l137.567 137.567c104.984 108.677 103.466 284.038-3.39 390.893zM485.215 46.921l-77.41-77.46c-69.264-66.835-180.926-65.874-249.077 2.176-68.049 68.049-69.011 179.762-2.783 248.419l137.010 136.959c36.428 36.479 86.972 55.604 138.325 51.556 51.404-3.643 98.66-29.446 129.573-70.731 16.747-22.363 48.369-26.967 70.833-10.22 22.363 16.747 26.916 48.469 10.17 70.833-48.52 64.812-122.641 105.287-203.339 111.105-80.648 5.667-159.879-23.729-217.152-81.002l-137.567-137.567c-104.984-108.728-103.466-284.088 3.39-390.893 53.984-53.984 125.424-81.053 196.965-81.053 70.175 0 140.451 26.005 194.587 78.27l78.017 78.068c19.782 19.782 19.782 51.809 0 71.541-19.782 19.782-51.758 19.782-71.541 0z" />
<glyph unicode="&#xe930;" glyph-name="linkedin" d="M123.389 585.163c-33.45 0-62.464 12.174-86.812 36.579-24.405 24.348-36.579 53.305-36.579 86.869 0 33.45 12.174 62.464 36.579 86.812 24.348 24.405 53.361 36.579 86.812 36.579 33.564 0 62.521-12.174 86.869-36.579 24.405-24.348 36.579-53.361 36.579-86.812 0-33.564-12.174-62.521-36.579-86.869-24.348-24.405-53.305-36.579-86.869-36.579zM0.003-191.997h228.578v683.403l-228.578-0.74zM1023.997-191.997h-212.593v333.708c0 54.897-4.551 94.492-13.71 118.897-16.725 41.13-49.493 61.667-98.303 61.667-48.697 0-83-18.261-102.798-54.841-15.246-27.42-22.869-67.811-22.869-121.173v-338.26h-210.317v683.403h203.434v-93.696h2.276c15.246 30.492 39.651 55.637 73.159 75.434 36.579 24.405 79.246 36.579 127.999 36.579 99.043 0 168.39-31.232 207.985-93.696 30.492-50.29 45.738-127.999 45.738-233.186v-374.839z" />
<glyph unicode="&#xe931;" glyph-name="list" d="M300.934 246.862h731.45v146.275h-731.45zM300.934 612.552h731.45v146.275h-731.45zM300.934-118.826h731.45v146.275h-731.45zM8.384 612.552h146.275v146.275h-146.275zM8.384 246.862h146.275v146.275h-146.275zM8.384-118.826h146.275v146.275h-146.275z" />
<glyph unicode="&#xe932;" glyph-name="loading" d="M156.176 522.224l151.040-151.040h-307.2v307.2l81.408-81.408c91.085 141.414 249.856 235.008 430.592 235.008 282.778 0 512-229.222 512-512s-229.222-512-512-512c-265.472 0-483.789 202.086-509.44 460.8h103.373c25.344-201.728 197.581-358.4 406.067-358.4 225.843 0 409.6 183.757 409.6 409.6s-183.757 409.6-409.6 409.6c-152.32 0-285.286-83.61-355.84-207.36z" />
<glyph unicode="&#xe933;" glyph-name="location" d="M480.954-23.319c-120.413 189.161-248.227 423.75-248.227 513.955 0 136.89 111.383 248.273 248.227 248.273 136.89 0 248.227-111.383 248.227-248.273 0-90.112-127.814-324.748-248.227-513.955zM480.954 832c-188.509 0-341.318-152.809-341.318-341.364 0-188.463 341.318-682.636 341.318-682.636s341.318 494.173 341.318 682.636c0 188.556-152.809 341.364-341.318 341.364zM488.727 415.023c-37.423 0-67.863 30.441-67.863 67.863 0 37.469 30.441 67.91 67.863 67.91s67.863-30.441 67.863-67.91c0-37.423-30.441-67.863-67.863-67.863zM488.727 645.795c-89.972 0-162.909-72.89-162.909-162.909 0-89.972 72.937-162.909 162.909-162.909s162.909 72.937 162.909 162.909c0 90.019-72.937 162.909-162.909 162.909z" />
<glyph unicode="&#xe934;" glyph-name="lock" d="M139.636-98.909v418.769h744.727v-418.769h-744.727zM291.514 552.588c-0.047 39.703 19.177 80.803 54.086 115.805 44.125 44.172 106.31 70.516 166.4 70.516 97.187 0 232.727-70.842 232.727-186.182v-139.776h-453.213v139.636zM837.818 412.951v139.776c0 164.585-171.706 279.273-325.818 279.273-85.504 0-170.124-35.654-232.262-97.839-52.503-52.55-81.361-117.108-81.315-181.62v-139.59h-151.878v-604.951h930.909v604.951h-139.636z" />
<glyph unicode="&#xe935;" glyph-name="mail" d="M0-64h1024v768h-1024v-768zM85.333 556.757v61.909h853.333v-61.909l-426.667-271.488-426.667 271.488zM938.667 455.595v-434.261h-853.333v434.261l426.667-271.488 426.667 271.488z" />
<glyph unicode="&#xe936;" glyph-name="map" d="M930.909 135.433l-203.124-116.084v569.856l203.124 116.038v-569.809zM93.091 589.158l203.124 116.084v-569.809l-203.124-116.084v569.809zM389.306 710.129l245.388-122.74v-572.928l-245.388 122.74v572.928zM1000.82 825.702c-14.383 8.378-32.070 8.378-46.452 0.14l-274.572-156.905-316.23 158.115c-0.559 0.279-1.21 0.372-1.769 0.652-0.977 0.419-1.955 0.652-2.932 1.024-4.794 1.769-9.775 2.839-14.801 2.979-0.465 0-0.838 0.279-1.303 0.279-0.186 0-0.326-0.093-0.465-0.093-5.446-0.047-10.705-1.257-15.825-3.212-1.164-0.419-2.281-0.884-3.398-1.396s-2.327-0.791-3.398-1.443l-296.215-169.239c-14.522-8.285-23.459-23.692-23.459-40.401v-677.050c0-16.57 8.844-31.93 23.18-40.262s32.023-8.332 46.452-0.14l274.572 156.905 316.23-158.115c0.419-0.233 0.884-0.14 1.303-0.326 5.958-2.793 12.474-4.608 19.503-4.608 5.446 0 10.845 1.35 16.012 3.258 1.303 0.465 2.513 0.931 3.77 1.536 1.071 0.512 2.281 0.745 3.305 1.35l296.215 169.239c14.522 8.285 23.459 23.738 23.459 40.401v677.050c0 16.57-8.844 31.93-23.18 40.262z" />
<glyph unicode="&#xe937;" glyph-name="minify" d="M716.8 524.8v307.2h-102.4v-358.4c0-28.262 22.938-51.2 51.2-51.2h358.4v102.4h-307.2zM307.2 524.8h-307.2v-102.4h358.4c28.262 0 51.2 22.938 51.2 51.2v358.4h-102.4v-307.2zM358.4 166.4h-358.4v-102.4h307.2v-256h102.4v307.2c0 28.262-22.938 51.2-51.2 51.2zM614.4 115.2v-307.2h102.4v256h307.2v102.4h-358.4c-28.262 0-51.2-22.938-51.2-51.2z" />
<glyph unicode="&#xe938;" glyph-name="mrt" d="M910.348 56.608h-796.711c-28.83 0-52.539 22.528-54.43 50.885l78.651 515.742v4.49c0 24.182 15.518 45.174 38.597 52.224 68.844 21.071 182.902 46.198 335.557 46.198 152.615 0 266.713-25.127 335.518-46.198 23.119-7.050 38.636-28.042 38.636-52.224v-4.49l0.67-4.45 77.982-511.291c-1.93-28.357-25.6-50.885-54.469-50.885zM264.165-41.854l39.385 39.385h426.89l-1.339-1.26 36.234-38.124h-501.169zM945.243 627.724c0 50.058-32.532 94.090-80.423 108.741-72.704 22.252-192.866 48.758-352.807 48.758s-280.143-26.506-352.847-48.758c-47.852-14.651-80.384-58.683-80.384-108.741l-78.769-516.529c0-62.779 50.885-113.664 113.625-113.664h134.223l-39.385-39.385h-50.924v-39.385h11.54l-45.174-45.135 27.845-27.884 73.019 73.019h578.048l69.041-72.665 28.554 27.175-43.284 45.489h9.334v39.385h-46.75l-37.455 39.385h128.079c62.779 0 113.664 50.885 113.664 113.664l-78.769 516.529zM511.98 292.916c-161.871 0-297.748 28.042-331.894 35.722l34.698 242.727 0.67 0.236c1.103 0.354 113.191 36.391 296.527 36.391s295.424-36.037 296.409-36.352l0.788-0.276 34.698-242.767c-34.068-7.68-169.314-35.682-331.894-35.682zM827.057 627.685c0 0-118.154 39.385-315.077 39.385s-315.077-39.385-315.077-39.385c-21.74 0-39.385-17.644-39.385-39.385l-39.385-275.692c0-21.74 17.644-39.385 39.385-39.385 0 0 157.538-39.385 354.462-39.385s354.462 39.385 354.462 39.385c21.74 0 39.385 17.644 39.385 39.385l-39.385 275.692c0 21.74-17.644 39.385-39.385 39.385zM236.288 135.377c-10.87 0-19.692 8.822-19.692 19.692s8.822 19.692 19.692 19.692c10.87 0 19.692-8.822 19.692-19.692s-8.822-19.692-19.692-19.692zM236.288 233.839c-43.481 0-78.769-35.289-78.769-78.769s35.289-78.769 78.769-78.769c43.481 0 78.769 35.289 78.769 78.769s-35.289 78.769-78.769 78.769zM787.673 135.377c-10.87 0-19.692 8.822-19.692 19.692s8.822 19.692 19.692 19.692c10.87 0 19.692-8.822 19.692-19.692s-8.822-19.692-19.692-19.692zM787.673 233.839c-43.481 0-78.769-35.289-78.769-78.769s35.289-78.769 78.769-78.769c43.481 0 78.769 35.289 78.769 78.769s-35.289 78.769-78.769 78.769z" />
<glyph unicode="&#xe939;" glyph-name="pages" d="M111.345-80.708v890.434h667.759v-890.434h-667.759zM200.379 8.415h489.734v712.187h-489.734v-712.187zM422.965 542.533h222.586v89.035h-222.586zM244.896 408.982h400.655v89.035h-400.655zM244.896 141.878h400.655v89.035h-400.655zM244.896 275.43h400.655v89.035h-400.655zM823.629 720.589v-845.828h-578.769v-89.035h667.803v934.862z" />
<glyph unicode="&#xe93a;" glyph-name="pin" d="M625.778 661.333v-56.889h-227.556v100.636c24.405 6.77 61.326 13.141 113.778 13.141s89.372-6.372 113.778-13.141v-43.748zM442.311 263.111l6.94 20.935 5.86 17.465v93.867l-5.86 17.465-25.941 77.824h177.38l-25.941-77.824-5.86-17.465v-93.867l5.86-17.465 6.94-20.935h-139.378zM512 832c-170.667 0-227.556-56.889-227.556-56.889v-227.556l56.889-170.667v-56.889l-56.889-170.667h170.667l56.889-341.333 56.889 341.333h170.667l-56.889 170.667v56.889l56.889 170.667v227.556c0 0-56.889 56.889-227.556 56.889z" />
<glyph unicode="&#xe93b;" glyph-name="plus" d="M438.857 832v-438.857h-438.857v-146.286h438.857v-438.857h146.286v438.857h438.857v146.286h-438.857v438.857z" />
<glyph unicode="&#xe93c;" glyph-name="print" d="M137.091 770.525h708.866v-225.271h157.567v-412.983h-157.567v-262.83h-708.866v262.83h-157.567v412.983h157.567v225.271zM215.854 545.254h551.3v150.194h-551.3v-150.194zM58.329 470.178v-262.789h78.763v75.036h708.866v-75.036h78.804v262.789h-866.433zM215.854-55.441h551.3v262.83h-551.3v-262.83zM255.232 94.729h472.578v75.077h-472.578zM255.232-17.906h472.578v75.077h-472.578zM806.573 357.559h39.361v37.559h-39.361zM727.81 357.559h39.402v37.559h-39.402zM649.047 357.559h39.402v37.559h-39.402zM137.108 357.559h236.289v37.559h-236.289z" />
<glyph unicode="&#xe93d;" glyph-name="question" d="M390.753 155.217v50.176c0 43.373 8.704 81.115 26.039 113.224s49.079 66.267 95.158 102.399c44.471 33.938 73.728 61.513 87.99 82.797 14.116 21.211 21.211 44.909 21.211 71.168 0 29.403-10.167 51.785-30.5 67.145-20.26 15.36-48.64 23.040-84.991 23.040-63.488 0-135.825-22.162-217.013-66.486l-69.193 148.552c94.281 56.466 194.339 84.772 300.176 84.772 87.113 0 156.378-22.382 207.797-67.145s77.165-104.447 77.165-179.053c0-49.737-10.606-92.671-31.744-128.804-21.211-36.205-61.44-76.873-120.612-122.075-40.594-32.183-66.34-56.539-77.092-73.289s-16.238-38.619-16.238-65.755v-40.667h-168.154zM360.785-82.283c0 36.132 10.167 63.488 30.5 81.919 20.334 18.578 49.956 27.794 88.868 27.794 37.522 0 66.56-9.435 87.113-28.379s30.866-46.153 30.866-81.334c0-33.938-10.386-60.781-31.232-80.31-20.772-19.675-49.737-29.403-86.747-29.403-38.034 0-67.437 9.582-88.21 28.672-20.772 19.163-31.159 46.226-31.159 81.042z" />
<glyph unicode="&#xe93e;" glyph-name="radar" d="M1024 258.327c0 197.435-103.424 369.782-256.394 462.257-2.206 40.133-33.753 72.034-72.743 72.034-18.59 0-35.328-7.444-48.246-19.338-42.969 12.209-87.985 19.338-134.617 19.338-282.309 0-512-239.695-512-534.292 0-138.516 50.885-269.942 143.242-370.137l52.697 52.933c-79.163 85.898-122.801 198.538-122.801 317.204 0 252.534 196.844 457.964 438.863 457.964 38.479 0 75.618-5.75 111.262-15.518 6.853-34.658 36.273-60.81 71.601-60.81 14.651 0 28.278 4.608 39.7 12.367 129.221-79.793 216.3-226.304 216.3-394.004 0-94.917-28.357-185.738-80.030-262.38l-56.359 49.034c40.802 62.858 63.252 136.98 63.252 213.346 0 210.432-164.076 381.637-365.726 381.637-85.662 0-164.352-31.114-226.737-82.786-8.98 4.096-18.826 6.459-29.263 6.459-40.369 0-73.137-34.186-73.137-76.327 0-15.006 4.254-28.869 11.461-40.645-30.405-55.65-48.049-119.847-48.049-188.337 0-92.514 32.453-181.957 91.333-251.825l54.942 50.491c-47.183 55.847-73.137 127.409-73.137 201.334 0 55.769 14.651 107.953 39.818 153.009 38.873 1.772 69.908 34.974 69.908 75.973 0 2.875-0.512 5.593-0.788 8.35 50.255 42.457 114.137 67.978 183.65 67.978 161.319 0 292.588-136.98 292.588-305.31 0-58.447-16.463-115.279-46.592-164.234l-56.95 49.506c19.535 34.974 30.366 74.122 30.366 114.727 0 126.306-98.383 228.982-219.412 228.982s-219.412-102.676-219.412-228.982c0-46.474 13.47-91.412 38.873-129.851l60.219 43.284c-16.975 25.718-25.954 55.611-25.954 86.567 0 84.204 65.615 152.655 146.274 152.655s146.274-68.45 146.274-152.655c0-22.725-4.923-44.859-14.218-65.182l-60.14 52.303c0.67 4.214 1.221 8.507 1.221 12.879 0 42.142-32.768 76.327-73.137 76.327s-73.137-34.186-73.137-76.327c0-42.142 32.768-76.327 73.137-76.327 8.862 0 17.211 1.851 25.049 4.884l390.38-339.495 46.828 58.604-47.183 41.039c62.582 90.466 96.926 198.38 96.926 311.296z" />
<glyph unicode="&#xe93f;" glyph-name="refresh" d="M942.602 42.998c-91.085-141.363-249.907-235.008-430.643-235.008-265.472 0-483.635 202.086-509.338 460.8h103.373c25.242-201.728 197.581-358.4 405.965-358.4 152.371 0 285.389 83.661 355.84 207.411l-150.989 150.989h307.2v-307.2l-81.408 81.408zM81.418 596.982c91.085 141.414 249.907 235.008 430.592 235.008 265.472 0 483.686-202.086 509.389-460.8h-103.373c-25.293 201.728-197.581 358.4-406.016 358.4-152.32 0-285.338-83.661-355.789-207.411l150.989-150.989h-307.2v307.2l81.408-81.408z" />
<glyph unicode="&#xe940;" glyph-name="save" d="M0 832h810.667l213.333-204.459v-776.875h-1024v981.333zM640 504.875h85.333v245.291h-85.333v-245.291zM298.667 504.875h255.957v245.291h-255.957v-245.291zM85.333 750.165v-817.792h85.333v408.917h682.667v-408.917h85.333v661.291l-128 122.624v-293.205h-597.333v327.083h-128zM256-67.584h512v327.125h-512v-327.125z" />
<glyph unicode="&#xe941;" glyph-name="search" d="M407.65 188.35c-134.551 0-244.014 107.564-244.014 239.744s109.463 239.744 244.014 239.744c134.509 0 243.973-107.564 243.973-239.744s-109.463-239.744-243.973-239.744zM667.873 231.246c42.768 54.537 68.507 122.654 68.507 196.848 0 178.397-147.186 323.038-328.729 323.038-181.588 0-328.729-144.641-328.729-323.038s147.141-323.038 328.729-323.038c75.446 0 144.815 25.307 200.297 67.296l288.506-283.461 59.926 58.848-288.506 283.503z" />
<glyph unicode="&#xe942;" glyph-name="sg-crest" d="M138.629 524.036c0 0-34.579-52.579 10.712-120.636 0 0 7.168 34.659 78.651 34.659h85.78c81.053 0 141.785 83.378 103.661 169.394 0 0 57.187-6.419 76.288 32.099 19.023 38.479-1.221 53.879-29.814 53.879h-144.188c0-27.608-48.837-31.469-48.837 0h-81.015c0 0-60.81 0-61.952-55.178 0 0 13.706 8.979 27.373 10.24v-14.73c0 0-16.659-3.229-24.419-7.759-7.759-4.451-19.062-16.621-8.31-48.088 10.712-31.429 14.888-42.339 14.888-42.339s17.251 16.069 45.293 16.069h32.768c58.368 0 47.616-60.968-10.752-60.968-58.408 0-66.127 33.359-66.127 33.359zM443.054 587.557c0 0 19.653-1.299 33.949 12.17 0 0 129.3-108.426-62.543-326.539-191.844-218.153-43.52-359.347-43.52-359.347s-34.541-35.919-14.848-105.827c0 0-79.794 48.522-140.84 130.876-88.183 119.060-142.1 301.254 100.116 446.584 0 0 159.863 86.568 127.685 202.084zM245.456 713.938c0 0 25.837 49.624 85.78 49.624 47.261 0 58.013 26.112 58.013 26.112s20.637 42.339 124.692 42.339c95.389 0 159.666-34.226 211.693-79.991 0 0-140.21 93.656-278.411-38.085h-201.769zM828.496 399.994c-3.978 154.821-115.161 320.788-354.265 311.376 233.551 213.033 638.663-262.617 305.035-512.435 0 0 55.808 85.701 49.231 201.060zM509.975 694.266c291.526 9.413 395.581-366.987 207.321-536.381l-189.086-98.383c0 0-24.616 85.544 66.757 185.66 91.373 100.077 179.516 287.43-73.059 410.625 0 0 4.765 25.64-11.933 38.479zM494.879 609.573c0 0 14.296 14.573 19.062 26.506 216.852-97.477 182.706-262.617 53.208-401.213-79.439-88.104-54.784-183.1-54.784-183.1s-96.887-64.946-130.245-121.423c0 0-140.288 128.631 53.997 342.174 190.662 209.606 58.762 337.054 58.762 337.054z" />
<glyph unicode="&#xe943;" glyph-name="slider-horizontal" d="M804.571 612.571c-40.302 0-73.143 32.841-73.143 73.143s32.841 73.143 73.143 73.143c40.302 0 73.143-32.841 73.143-73.143s-32.841-73.143-73.143-73.143zM930.523 758.857c-25.381 43.52-72.046 73.143-125.952 73.143s-100.571-29.623-125.952-73.143h-678.618v-146.286h678.618c25.381-43.52 72.046-73.143 125.952-73.143s100.571 29.623 125.952 73.143h93.477v146.286h-93.477zM219.429 246.857c-40.302 0-73.143 32.841-73.143 73.143s32.841 73.143 73.143 73.143c40.302 0 73.143-32.841 73.143-73.143s-32.841-73.143-73.143-73.143zM219.429 466.286c-53.906 0-100.571-29.623-125.952-73.143h-93.477v-146.286h93.477c25.381-43.52 72.046-73.143 125.952-73.143s100.571 29.623 125.952 73.143h678.618v146.286h-678.618c-25.381 43.52-72.046 73.143-125.952 73.143zM804.571-118.857c-40.302 0-73.143 32.841-73.143 73.143s32.841 73.143 73.143 73.143c40.302 0 73.143-32.841 73.143-73.143s-32.841-73.143-73.143-73.143zM804.571 100.571c-53.906 0-100.571-29.623-125.952-73.143h-678.618v-146.286h678.618c25.381-43.52 72.046-73.143 125.952-73.143s100.571 29.623 125.952 73.143h93.477v146.286h-93.477c-25.381 43.52-72.046 73.143-125.952 73.143z" />
<glyph unicode="&#xe944;" glyph-name="slider-vertical" d="M877.714-45.714c-40.302 0-73.143 32.841-73.143 73.143s32.841 73.143 73.143 73.143c40.302 0 73.143-32.841 73.143-73.143s-32.841-73.143-73.143-73.143zM1024 27.429c0 53.906-29.623 100.571-73.143 125.952v678.619h-146.286v-678.619c-43.52-25.381-73.143-72.046-73.143-125.952s29.623-100.571 73.143-125.952v-93.477h146.286v93.477c43.52 25.381 73.143 72.046 73.143 125.952zM512 539.429c-40.302 0-73.143 32.841-73.143 73.143s32.841 73.143 73.143 73.143c40.302 0 73.143-32.841 73.143-73.143s-32.841-73.143-73.143-73.143zM585.143 738.523v93.477h-146.286v-93.477c-43.52-25.381-73.143-72.046-73.143-125.952s29.623-100.571 73.143-125.952v-678.619h146.286v678.619c43.52 25.381 73.143 72.046 73.143 125.952s-29.623 100.571-73.143 125.952zM146.286-45.714c-40.302 0-73.143 32.841-73.143 73.143s32.841 73.143 73.143 73.143c40.302 0 73.143-32.841 73.143-73.143s-32.841-73.143-73.143-73.143zM219.429 153.381v678.619h-146.286v-678.619c-43.52-25.381-73.143-72.046-73.143-125.952s29.623-100.571 73.143-125.952v-93.477h146.286v93.477c43.52 25.381 73.143 72.046 73.143 125.952s-29.623 100.571-73.143 125.952z" />
<glyph unicode="&#xe945;" glyph-name="speech" d="M521.992 107.251c-28.055 0-56.337 1.984-83.996 6.008-16.323 2.493-32.476-4.704-41.771-18.193-42.962-62.231-113.354-105.533-193.043-122.763 43.359 43.924 75.777 98.618 80.821 158.412 1.474 16.776-7.084 32.816-21.764 41.091-99.071 55.884-155.862 138.066-155.862 225.462 0 159.943 186.411 290.074 415.614 290.074s415.67-130.131 415.67-290.074c0-159.943-186.468-290.018-415.67-290.018zM521.992 773.435c-276.698 0-501.82-168.728-501.82-376.167 0-110.691 62.571-212.936 173.035-284.293-19.214-62.571-87.226-120.893-149.287-147.588-17.626-7.594-28.112-25.901-25.674-44.888 2.437-19.044 17.173-34.177 36.103-37.124 24.258-3.854 48.459-5.668 72.433-5.668 128.884 0 249.266 53.843 324.477 147.191 23.521-2.493 47.156-3.741 70.734-3.741 276.754 0 501.933 168.728 501.933 376.11 0 207.439-225.179 376.167-501.933 376.167z" />
<glyph unicode="&#xe946;" glyph-name="taxi" d="M969.057 118.056c0-27.165-22.103-49.229-49.229-49.229h-809.617c-27.126 0-49.229 22.064-49.229 49.229v133.352c0 27.165 22.103 49.268 49.229 49.268h809.617c27.126 0 49.229-22.103 49.229-49.268v-133.352zM853.132-37.438c0-5.333-4.328-9.66-9.66-9.66h-77.283c-5.333 0-9.66 4.328-9.66 9.66v48.302h96.604v-48.302zM273.509-37.438c0-5.333-4.328-9.66-9.66-9.66h-77.283c-5.333 0-9.66 4.328-9.66 9.66v48.302h96.604v-48.302zM215.161 576.035l0.386 4.792c0 5.217 4.405 9.66 9.66 9.66h579.623c5.255 0 9.66-4.444 9.66-9.66l36.671-222.189h-672.246l36.246 217.397zM389.434 677.43c0 5.874 3.516 9.66 5.371 9.66h240.427c1.855 0 5.371-3.787 5.371-9.66v-28.981h-251.17v28.981zM919.827 358.638h-9.931l-37.482 224.894c-1.468 36.053-31.222 64.918-67.584 64.918h-106.264v28.981c0 37.25-28.402 67.623-63.333 67.623h-240.427c-34.932 0-63.333-30.372-63.333-67.623v-28.981h-106.264c-36.362 0-66.116-28.865-67.584-64.918l-37.482-224.894h-9.931c-59.083 0-107.192-48.109-107.192-107.23v-133.352c0-59.122 48.109-107.192 107.192-107.192h8.733v-48.302c0-37.289 30.334-67.623 67.623-67.623h77.283c37.289 0 67.623 30.334 67.623 67.623v48.302h367.094v-48.302c0-37.289 30.334-67.623 67.623-67.623h77.283c37.289 0 67.623 30.334 67.623 67.623v48.302h8.733c59.083 0 107.192 48.070 107.192 107.192v133.352c0 59.122-48.109 107.23-107.192 107.23zM205.887 155.754c-10.665 0-19.321 8.656-19.321 19.321s8.656 19.321 19.321 19.321c10.665 0 19.321-8.656 19.321-19.321s-8.656-19.321-19.321-19.321zM205.887 252.358c-42.66 0-77.283-34.623-77.283-77.283s34.623-77.283 77.283-77.283c42.66 0 77.283 34.623 77.283 77.283s-34.623 77.283-77.283 77.283zM824.151 155.754c-10.665 0-19.321 8.656-19.321 19.321s8.656 19.321 19.321 19.321c10.665 0 19.321-8.656 19.321-19.321s-8.656-19.321-19.321-19.321zM824.151 252.358c-42.66 0-77.283-34.623-77.283-77.283s34.623-77.283 77.283-77.283c42.66 0 77.283 34.623 77.283 77.283s-34.623 77.283-77.283 77.283z" />
<glyph unicode="&#xe947;" glyph-name="text-center" d="M292.603 685.589h438.794v146.411h-438.794zM73.206 393.059h877.589v146.265h-877.589zM146.338 100.53h731.324v146.265h-731.324zM0.073-192h1023.854v146.265h-1023.854z" />
<glyph unicode="&#xe948;" glyph-name="text-justify" d="M0 393.143h1024v146.286h-1024zM0 685.714h1024v146.286h-1024zM0 100.571h1024v146.286h-1024zM0-192h1024v146.286h-1024z" />
<glyph unicode="&#xe949;" glyph-name="text-left" d="M0.073 685.589h731.397v146.411h-731.397zM0.073 393.059h877.662v146.265h-877.662zM0.073 100.53h731.397v146.411h-731.397zM0.146-192h1023.854v146.265h-1023.854z" />
<glyph unicode="&#xe94a;" glyph-name="text-right" d="M1024.073 685.589h-731.47v146.411h731.47zM1024 393.059h-877.662v146.265h877.662zM1024.073 100.53h-731.47v146.411h731.47zM1023.927-192h-1023.854v146.265h1023.854z" />
<glyph unicode="&#xe94b;" glyph-name="triangle-warning" d="M514.38 789.65l-503-894.222h1006l-503 894.222zM514.38 598.078l342.378-608.719h-684.756l342.378 608.719zM514.724 130.279c-18.081 0-31.842-3.992-41.33-11.882-9.487-7.937-14.183-19.632-14.183-35.083 0-14.935 4.837-26.488 14.512-34.707 9.628-8.172 23.341-12.258 41-12.258 17.237 0 30.668 4.133 40.343 12.54 9.675 8.359 14.512 19.819 14.512 34.426 0 15.076-4.79 26.677-14.325 34.801-9.581 8.078-23.107 12.164-40.531 12.164zM553.503 177.244l16.063 234.827h-109.101l16.063-234.827z" />
<glyph unicode="&#xe94c;" glyph-name="twitter" d="M918.027 504.917c1.308-5.518 1.991-14.336 1.991-26.681 0-98.475-23.324-193.479-69.973-285.127-48.014-97.109-115.371-174.364-202.012-231.765-94.663-64.341-203.321-96.427-326.030-96.427-117.305 0-224.654 32.085-321.991 96.427 14.677-1.422 31.346-2.105 50.005-2.105 97.337 0 184.661 30.834 262.030 92.331-46.706 0-87.666 14.052-122.994 42.041-35.385 28.046-59.676 63.26-73.045 105.643 13.369-1.365 25.998-1.991 38.002-1.991 18.66 0 37.376 1.991 56.036 6.087-48.014 10.98-88.007 36.238-120.036 75.947-31.972 39.595-47.957 84.764-47.957 135.339v4.096c29.298-17.749 60.644-27.307 93.98-28.729-27.989 20.537-50.688 46.535-67.982 77.995-17.351 31.403-25.998 65.991-25.998 103.595s9.956 73.444 29.98 107.634c51.996-66.958 115.655-120.263 190.976-159.972 75.378-39.652 155.705-61.554 241.038-65.65-2.674 16.384-4.039 32.882-4.039 49.266 0 38.286 9.33 74.183 28.046 107.691 18.66 33.508 43.975 59.847 75.947 78.962 32.028 19.172 66.674 28.729 104.050 28.729 30.663 0 58.994-6.144 84.992-18.489 25.998-12.288 48.981-28.672 69.006-49.209 47.957 9.557 92.672 26.624 133.973 51.257-15.986-50.574-46.649-90.226-91.989-118.955 39.993 5.461 79.986 17.067 119.979 34.873-29.298-43.748-64.626-81.351-105.984-112.811z" />
<glyph unicode="&#xe94d;" glyph-name="unlock" d="M884.353-98.925h-744.706v418.758h744.706v-418.758zM338.065 412.925v139.634c-0.093 95.929 76.519 175.612 178.264 185.34 102.118 10.007 194.508-54.084 214.708-148.57l9.728-45.52 91.040 19.455-9.728 45.52c-30.068 140.751-165.232 236.073-314.638 221.784-149.779-14.382-262.602-133.955-262.462-278.058v-139.587h-198.418v-604.94h930.883v604.94h-639.377z" />
<glyph unicode="&#xe94e;" glyph-name="upload" d="M767.476-7.757h51.096v51.096h-51.096zM665.287-7.757h51.096v51.096h-51.096zM460.904 196.626h102.191v51.096h-102.191zM460.904 298.817h102.191v102.191h-102.191zM702.428 247.726v-102.191h167.236v-204.382h-715.334v204.382h167.236v102.191h-269.425v-408.763h919.716v408.763zM512.046 830.964l-306.622-289.046 76.643-72.249 175.768 165.651v-183.228h108.373v183.228l175.666-165.651 76.694 72.249z" />
<glyph unicode="&#xe94f;" glyph-name="user" d="M512 731.205c83.866 0 152.065-67.84 152.065-151.194 0-83.405-68.199-151.194-152.065-151.194-83.815 0-152.065 67.789-152.065 151.194 0 83.354 68.25 151.194 152.065 151.194zM512 328.003c139.93 0 253.441 112.794 253.441 252.008 0 139.162-113.511 252.008-253.441 252.008s-253.441-112.845-253.441-252.008c0-139.213 113.511-252.008 253.441-252.008zM330.649 191.099c56.064-29.491 117.607-44.8 181.351-44.8s125.287 15.309 181.351 44.8c87.040-73.165 133.223-193.895 156.622-282.318h-675.894c23.399 88.423 69.581 209.153 156.57 282.318zM694.58 311.982c-51.098-40.602-114.125-64.871-182.58-64.871s-131.482 24.269-182.58 64.871c-241.102-130.765-278.222-503.964-278.222-503.964h921.604c0 0-37.12 373.199-278.222 503.964z" />
<glyph unicode="&#xe950;" glyph-name="warning" d="M365.72-82.308c0 36.204 10.386 63.486 31.011 82.063 20.626 18.431 50.613 27.647 90.036 27.647 38.033 0 67.508-9.435 88.427-28.378 20.772-18.943 31.231-46.078 31.231-81.332 0-33.937-10.532-60.78-31.597-80.308-21.138-19.528-50.467-29.402-88.061-29.402-38.472 0-68.313 9.655-89.377 28.744-21.064 19.163-31.67 46.151-31.67 80.966zM571.39 173.72h-167.784l-35.107 658.262h237.925z" />
<glyph unicode="&#xe951;" glyph-name="youtube" d="M406.246 185.86v287.439l276.584-144.539-276.584-142.9zM1020.803 445.036c-1.638 27.597-4.096 53.607-7.066 77.978-2.662 20.941-7.782 40.192-15.206 57.703-7.373 17.511-12.954 28.672-16.538 33.434-3.686 4.762-6.605 8.243-8.858 10.547-5.325 5.734-10.906 10.752-16.538 15.155-5.786 4.352-11.674 8.090-17.767 11.162-6.093 3.021-11.418 5.478-16.026 7.373-4.557 1.946-9.984 3.43-16.231 4.608-6.349 1.126-10.752 1.997-13.414 2.611-2.662 0.512-7.066 1.126-13.21 1.69-6.042 0.563-9.318 0.819-9.728 0.819l-41.626 2.304c-27.853 1.894-71.527 3.738-131.175 5.427-59.597 1.741-121.447 2.56-185.448 2.56-143.207 0-262.606-3.379-358.198-10.291-0.41 0-3.686-0.256-9.779-0.819s-10.496-1.178-13.158-1.69c-2.662-0.614-7.066-1.485-13.414-2.611-6.246-1.178-11.674-2.662-16.231-4.608-4.608-1.894-9.933-4.352-16.026-7.373-6.093-3.072-11.981-6.81-17.715-11.162-5.683-4.403-11.264-9.421-16.589-15.155l-8.038-9.677c-5.325-6.502-11.366-18.227-18.227-35.175-6.81-16.947-11.674-35.891-14.336-56.832-7.168-55.245-10.598-110.49-10.24-165.684v-100.609c0.307-15.616 1.434-37.223 3.174-64.871 1.638-27.597 4.096-53.607 7.066-77.978 2.662-20.941 7.731-40.192 15.206-57.703 7.373-17.511 12.851-28.672 16.538-33.434 3.584-4.762 6.605-8.294 8.858-10.598 9.165-9.472 19.917-17.306 32.307-23.399 12.339-6.093 22.119-10.086 29.082-11.981 7.066-1.946 17.511-3.84 31.181-5.734l20.583-2.304 28.007-2.253c18.227-1.126 56.474-2.611 114.586-4.301 58.061-1.69 126.567-2.97 205.365-3.686 143.259 0 262.658 3.584 358.249 10.854 0.41 0 3.584 0.256 9.523 0.819 5.837 0.563 10.24 1.178 13.056 1.69 2.918 0.614 7.424 1.485 13.773 2.611 6.246 1.178 11.674 2.662 16.231 4.557 4.608 1.894 9.933 4.301 16.026 7.168s11.981 6.502 17.767 10.854c5.632 4.352 11.213 9.421 16.538 15.104l8.038 9.728c5.325 6.502 11.418 18.227 18.227 35.175s11.674 35.891 14.336 56.832c7.168 55.245 10.547 110.49 10.24 165.735v100.506c-0.41 15.667-1.434 37.274-3.174 64.922z" />
<glyph unicode="&#xe952;" glyph-name="zoom-in" d="M393.737 168.806c-154.527 0-280.238 123.532-280.238 275.336s125.712 275.336 280.238 275.336c154.477 0 280.19-123.532 280.19-275.336s-125.712-275.336-280.19-275.336zM692.591 218.070c49.115 62.633 78.676 140.862 78.676 226.072 0 204.882-169.035 370.996-377.529 370.996-208.543 0-377.529-166.113-377.529-370.996s168.986-370.996 377.529-370.996c86.646 0 166.312 29.062 230.033 77.287l331.333-325.541 68.822 67.584-331.333 325.591zM520.058 493.292h-74.268v74.268c0 27.329-22.183 49.512-49.512 49.512s-49.512-22.183-49.512-49.512v-74.268h-74.268c-27.329 0-49.512-22.183-49.512-49.512s22.183-49.512 49.512-49.512h74.268v-74.268c0-27.329 22.183-49.512 49.512-49.512s49.512 22.183 49.512 49.512v74.268h74.268c27.329 0 49.512 22.183 49.512 49.512s-22.183 49.512-49.512 49.512z" />
<glyph unicode="&#xe953;" glyph-name="zoom-out" d="M392.158 168.806c-154.527 0-280.238 123.532-280.238 275.336s125.711 275.336 280.238 275.336c154.477 0 280.189-123.532 280.189-275.336s-125.711-275.336-280.189-275.336zM691.013 218.070c49.116 62.633 78.675 140.862 78.675 226.072 0 204.881-169.034 370.994-377.529 370.994-208.544 0-377.529-166.113-377.529-370.994s168.985-370.994 377.529-370.994c86.646 0 166.311 29.063 230.033 77.288l331.334-325.541 68.822 67.584-331.334 325.591zM518.473 394.268h-247.56c-27.33 0-49.512 22.182-49.512 49.512s22.182 49.512 49.512 49.512h247.56c27.33 0 49.512-22.182 49.512-49.512s-22.182-49.512-49.512-49.512z" />
</font>
</defs>
</svg>
