<svg width="441" height="149" viewBox="0 0 441 149" fill="none" xmlns="http://www.w3.org/2000/svg">
<path d="M31.3239 71.7102C31.2784 71.2519 31.0833 70.8958 30.7386 70.642C30.3939 70.3883 29.9261 70.2614 29.3352 70.2614C28.9337 70.2614 28.5947 70.3182 28.3182 70.4318C28.0417 70.5417 27.8295 70.6951 27.6818 70.892C27.5379 71.089 27.4659 71.3125 27.4659 71.5625C27.4583 71.7708 27.5019 71.9527 27.5966 72.108C27.6951 72.2633 27.8295 72.3977 28 72.5114C28.1705 72.6212 28.3674 72.7178 28.5909 72.8011C28.8144 72.8807 29.053 72.9489 29.3068 73.0057L30.3523 73.2557C30.8598 73.3693 31.3258 73.5208 31.75 73.7102C32.1742 73.8996 32.5417 74.1326 32.8523 74.4091C33.1629 74.6856 33.4034 75.0114 33.5739 75.3864C33.7481 75.7614 33.8371 76.1913 33.8409 76.6761C33.8371 77.3883 33.6553 78.0057 33.2955 78.5284C32.9394 79.0473 32.4242 79.4508 31.75 79.7386C31.0795 80.0227 30.2708 80.1648 29.3239 80.1648C28.3845 80.1648 27.5663 80.0208 26.8693 79.733C26.1761 79.4451 25.6345 79.0189 25.2443 78.4545C24.858 77.8864 24.6553 77.1837 24.6364 76.3466H27.017C27.0436 76.7367 27.1553 77.0625 27.3523 77.3239C27.553 77.5814 27.8201 77.7765 28.1534 77.9091C28.4905 78.0379 28.8712 78.1023 29.2955 78.1023C29.7121 78.1023 30.0739 78.0417 30.3807 77.9205C30.6913 77.7992 30.9318 77.6307 31.1023 77.4148C31.2727 77.1989 31.358 76.9508 31.358 76.6705C31.358 76.4091 31.2803 76.1894 31.125 76.0114C30.9735 75.8333 30.75 75.6818 30.4545 75.5568C30.1629 75.4318 29.8049 75.3182 29.3807 75.2159L28.1136 74.8977C27.1326 74.6591 26.358 74.286 25.7898 73.7784C25.2216 73.2708 24.9394 72.5871 24.9432 71.7273C24.9394 71.0227 25.1269 70.4072 25.5057 69.8807C25.8883 69.3542 26.4129 68.9432 27.0795 68.6477C27.7462 68.3523 28.5038 68.2045 29.3523 68.2045C30.2159 68.2045 30.9697 68.3523 31.6136 68.6477C32.2614 68.9432 32.7652 69.3542 33.125 69.8807C33.4848 70.4072 33.6705 71.017 33.6818 71.7102H31.3239ZM35.4957 80V68.3636H43.3366V70.392H37.956V73.1648H42.9332V75.1932H37.956V77.9716H43.3594V80H35.4957ZM55.5597 72.4375H53.071C53.0256 72.1155 52.9328 71.8295 52.7926 71.5795C52.6525 71.3258 52.4725 71.1098 52.2528 70.9318C52.0331 70.7538 51.7794 70.6174 51.4915 70.5227C51.2074 70.428 50.8987 70.3807 50.5653 70.3807C49.9631 70.3807 49.4384 70.5303 48.9915 70.8295C48.5445 71.125 48.1979 71.5568 47.9517 72.125C47.7055 72.6894 47.5824 73.375 47.5824 74.1818C47.5824 75.0114 47.7055 75.7083 47.9517 76.2727C48.2017 76.8371 48.5502 77.2633 48.9972 77.5511C49.4441 77.839 49.9612 77.983 50.5483 77.983C50.8778 77.983 51.1828 77.9394 51.4631 77.8523C51.7472 77.7652 51.9991 77.6383 52.2188 77.4716C52.4384 77.3011 52.6203 77.0947 52.7642 76.8523C52.9119 76.6098 53.0142 76.3333 53.071 76.0227L55.5597 76.0341C55.4953 76.5682 55.3343 77.0833 55.0767 77.5795C54.8229 78.072 54.4801 78.5133 54.0483 78.9034C53.6203 79.2898 53.1089 79.5966 52.5142 79.8239C51.9233 80.0473 51.2547 80.1591 50.5085 80.1591C49.4706 80.1591 48.5426 79.9242 47.7244 79.4545C46.91 78.9848 46.2661 78.3049 45.7926 77.4148C45.3229 76.5246 45.0881 75.447 45.0881 74.1818C45.0881 72.9129 45.3267 71.8333 45.804 70.9432C46.2813 70.053 46.929 69.375 47.7472 68.9091C48.5653 68.4394 49.4858 68.2045 50.5085 68.2045C51.1828 68.2045 51.8078 68.2992 52.3835 68.4886C52.9631 68.678 53.4763 68.9545 53.9233 69.3182C54.3703 69.678 54.7339 70.1193 55.0142 70.642C55.2983 71.1648 55.4801 71.7633 55.5597 72.4375ZM56.8807 70.392V68.3636H66.4375V70.392H62.875V80H60.4432V70.392H56.8807ZM70.4716 68.3636V80H68.0114V68.3636H70.4716ZM83.1889 74.1818C83.1889 75.4508 82.9484 76.5303 82.4673 77.4205C81.9901 78.3106 81.3385 78.9905 80.5128 79.4602C79.6908 79.9261 78.7666 80.1591 77.7401 80.1591C76.706 80.1591 75.7779 79.9242 74.956 79.4545C74.134 78.9848 73.4844 78.3049 73.0071 77.4148C72.5298 76.5246 72.2912 75.447 72.2912 74.1818C72.2912 72.9129 72.5298 71.8333 73.0071 70.9432C73.4844 70.053 74.134 69.375 74.956 68.9091C75.7779 68.4394 76.706 68.2045 77.7401 68.2045C78.7666 68.2045 79.6908 68.4394 80.5128 68.9091C81.3385 69.375 81.9901 70.053 82.4673 70.9432C82.9484 71.8333 83.1889 72.9129 83.1889 74.1818ZM80.6946 74.1818C80.6946 73.3598 80.5715 72.6667 80.3253 72.1023C80.0829 71.5379 79.7401 71.1098 79.2969 70.8182C78.8537 70.5265 78.3348 70.3807 77.7401 70.3807C77.1454 70.3807 76.6264 70.5265 76.1832 70.8182C75.7401 71.1098 75.3954 71.5379 75.1491 72.1023C74.9067 72.6667 74.7855 73.3598 74.7855 74.1818C74.7855 75.0038 74.9067 75.697 75.1491 76.2614C75.3954 76.8258 75.7401 77.2538 76.1832 77.5455C76.6264 77.8371 77.1454 77.983 77.7401 77.983C78.3348 77.983 78.8537 77.8371 79.2969 77.5455C79.7401 77.2538 80.0829 76.8258 80.3253 76.2614C80.5715 75.697 80.6946 75.0038 80.6946 74.1818ZM94.7443 68.3636V80H92.6193L87.5568 72.6761H87.4716V80H85.0114V68.3636H87.1705L92.1932 75.6818H92.2955V68.3636H94.7443ZM105.474 68.3636V80H103.014V70.6989H102.946L100.281 72.3693V70.1875L103.162 68.3636H105.474Z" fill="#344054"/>
<path d="M139.324 71.7102C139.278 71.2519 139.083 70.8958 138.739 70.642C138.394 70.3883 137.926 70.2614 137.335 70.2614C136.934 70.2614 136.595 70.3182 136.318 70.4318C136.042 70.5417 135.83 70.6951 135.682 70.892C135.538 71.089 135.466 71.3125 135.466 71.5625C135.458 71.7708 135.502 71.9527 135.597 72.108C135.695 72.2633 135.83 72.3977 136 72.5114C136.17 72.6212 136.367 72.7178 136.591 72.8011C136.814 72.8807 137.053 72.9489 137.307 73.0057L138.352 73.2557C138.86 73.3693 139.326 73.5208 139.75 73.7102C140.174 73.8996 140.542 74.1326 140.852 74.4091C141.163 74.6856 141.403 75.0114 141.574 75.3864C141.748 75.7614 141.837 76.1913 141.841 76.6761C141.837 77.3883 141.655 78.0057 141.295 78.5284C140.939 79.0473 140.424 79.4508 139.75 79.7386C139.08 80.0227 138.271 80.1648 137.324 80.1648C136.384 80.1648 135.566 80.0208 134.869 79.733C134.176 79.4451 133.634 79.0189 133.244 78.4545C132.858 77.8864 132.655 77.1837 132.636 76.3466H135.017C135.044 76.7367 135.155 77.0625 135.352 77.3239C135.553 77.5814 135.82 77.7765 136.153 77.9091C136.491 78.0379 136.871 78.1023 137.295 78.1023C137.712 78.1023 138.074 78.0417 138.381 77.9205C138.691 77.7992 138.932 77.6307 139.102 77.4148C139.273 77.1989 139.358 76.9508 139.358 76.6705C139.358 76.4091 139.28 76.1894 139.125 76.0114C138.973 75.8333 138.75 75.6818 138.455 75.5568C138.163 75.4318 137.805 75.3182 137.381 75.2159L136.114 74.8977C135.133 74.6591 134.358 74.286 133.79 73.7784C133.222 73.2708 132.939 72.5871 132.943 71.7273C132.939 71.0227 133.127 70.4072 133.506 69.8807C133.888 69.3542 134.413 68.9432 135.08 68.6477C135.746 68.3523 136.504 68.2045 137.352 68.2045C138.216 68.2045 138.97 68.3523 139.614 68.6477C140.261 68.9432 140.765 69.3542 141.125 69.8807C141.485 70.4072 141.67 71.017 141.682 71.7102H139.324ZM143.496 80V68.3636H151.337V70.392H145.956V73.1648H150.933V75.1932H145.956V77.9716H151.359V80H143.496ZM163.56 72.4375H161.071C161.026 72.1155 160.933 71.8295 160.793 71.5795C160.652 71.3258 160.473 71.1098 160.253 70.9318C160.033 70.7538 159.779 70.6174 159.491 70.5227C159.207 70.428 158.899 70.3807 158.565 70.3807C157.963 70.3807 157.438 70.5303 156.991 70.8295C156.545 71.125 156.198 71.5568 155.952 72.125C155.705 72.6894 155.582 73.375 155.582 74.1818C155.582 75.0114 155.705 75.7083 155.952 76.2727C156.202 76.8371 156.55 77.2633 156.997 77.5511C157.444 77.839 157.961 77.983 158.548 77.983C158.878 77.983 159.183 77.9394 159.463 77.8523C159.747 77.7652 159.999 77.6383 160.219 77.4716C160.438 77.3011 160.62 77.0947 160.764 76.8523C160.912 76.6098 161.014 76.3333 161.071 76.0227L163.56 76.0341C163.495 76.5682 163.334 77.0833 163.077 77.5795C162.823 78.072 162.48 78.5133 162.048 78.9034C161.62 79.2898 161.109 79.5966 160.514 79.8239C159.923 80.0473 159.255 80.1591 158.509 80.1591C157.471 80.1591 156.543 79.9242 155.724 79.4545C154.91 78.9848 154.266 78.3049 153.793 77.4148C153.323 76.5246 153.088 75.447 153.088 74.1818C153.088 72.9129 153.327 71.8333 153.804 70.9432C154.281 70.053 154.929 69.375 155.747 68.9091C156.565 68.4394 157.486 68.2045 158.509 68.2045C159.183 68.2045 159.808 68.2992 160.384 68.4886C160.963 68.678 161.476 68.9545 161.923 69.3182C162.37 69.678 162.734 70.1193 163.014 70.642C163.298 71.1648 163.48 71.7633 163.56 72.4375ZM164.881 70.392V68.3636H174.438V70.392H170.875V80H168.443V70.392H164.881ZM178.472 68.3636V80H176.011V68.3636H178.472ZM191.189 74.1818C191.189 75.4508 190.948 76.5303 190.467 77.4205C189.99 78.3106 189.339 78.9905 188.513 79.4602C187.691 79.9261 186.767 80.1591 185.74 80.1591C184.706 80.1591 183.778 79.9242 182.956 79.4545C182.134 78.9848 181.484 78.3049 181.007 77.4148C180.53 76.5246 180.291 75.447 180.291 74.1818C180.291 72.9129 180.53 71.8333 181.007 70.9432C181.484 70.053 182.134 69.375 182.956 68.9091C183.778 68.4394 184.706 68.2045 185.74 68.2045C186.767 68.2045 187.691 68.4394 188.513 68.9091C189.339 69.375 189.99 70.053 190.467 70.9432C190.948 71.8333 191.189 72.9129 191.189 74.1818ZM188.695 74.1818C188.695 73.3598 188.571 72.6667 188.325 72.1023C188.083 71.5379 187.74 71.1098 187.297 70.8182C186.854 70.5265 186.335 70.3807 185.74 70.3807C185.145 70.3807 184.626 70.5265 184.183 70.8182C183.74 71.1098 183.395 71.5379 183.149 72.1023C182.907 72.6667 182.786 73.3598 182.786 74.1818C182.786 75.0038 182.907 75.697 183.149 76.2614C183.395 76.8258 183.74 77.2538 184.183 77.5455C184.626 77.8371 185.145 77.983 185.74 77.983C186.335 77.983 186.854 77.8371 187.297 77.5455C187.74 77.2538 188.083 76.8258 188.325 76.2614C188.571 75.697 188.695 75.0038 188.695 74.1818ZM202.744 68.3636V80H200.619L195.557 72.6761H195.472V80H193.011V68.3636H195.17L200.193 75.6818H200.295V68.3636H202.744ZM208.412 80V78.2273L212.554 74.392C212.906 74.0511 213.202 73.7443 213.44 73.4716C213.683 73.1989 213.866 72.9318 213.991 72.6705C214.116 72.4053 214.179 72.1193 214.179 71.8125C214.179 71.4716 214.101 71.178 213.946 70.9318C213.791 70.6818 213.579 70.4905 213.31 70.358C213.041 70.2216 212.736 70.1534 212.395 70.1534C212.039 70.1534 211.728 70.2254 211.463 70.3693C211.198 70.5133 210.993 70.7197 210.849 70.9886C210.705 71.2576 210.634 71.5777 210.634 71.9489H208.298C208.298 71.1875 208.471 70.5265 208.815 69.9659C209.16 69.4053 209.643 68.9716 210.264 68.6648C210.885 68.358 211.601 68.2045 212.412 68.2045C213.245 68.2045 213.971 68.3523 214.588 68.6477C215.209 68.9394 215.692 69.3447 216.037 69.8636C216.382 70.3826 216.554 70.9773 216.554 71.6477C216.554 72.0871 216.467 72.5208 216.293 72.9489C216.122 73.3769 215.817 73.8523 215.378 74.375C214.938 74.8939 214.319 75.517 213.52 76.2443L211.821 77.9091V77.9886H216.707V80H208.412Z" fill="#5925DC"/>
<path fill-rule="evenodd" clip-rule="evenodd" d="M236.136 70.9044C236.178 70.8614 236.229 70.8273 236.285 70.804C236.342 70.7808 236.402 70.7688 236.462 70.7688C236.523 70.7688 236.583 70.7808 236.639 70.804C236.695 70.8273 236.746 70.8614 236.789 70.9044L242 76.1164L247.211 70.9044C247.254 70.8615 247.305 70.8274 247.361 70.8042C247.417 70.781 247.477 70.769 247.538 70.769C247.599 70.769 247.659 70.781 247.715 70.8042C247.771 70.8274 247.822 70.8615 247.865 70.9044C247.908 70.9473 247.942 70.9982 247.965 71.0543C247.988 71.1103 248 71.1704 248 71.2311C248 71.2918 247.988 71.3519 247.965 71.4079C247.942 71.464 247.908 71.5149 247.865 71.5578L242.327 77.0957C242.284 77.1386 242.233 77.1727 242.177 77.196C242.121 77.2193 242.061 77.2312 242 77.2312C241.939 77.2312 241.879 77.2193 241.823 77.196C241.767 77.1727 241.716 77.1386 241.673 77.0957L236.136 71.5578C236.093 71.515 236.059 71.464 236.035 71.408C236.012 71.3519 236 71.2918 236 71.2311C236 71.1704 236.012 71.1103 236.035 71.0542C236.059 70.9982 236.093 70.9472 236.136 70.9044Z" fill="#344054"/>
<path d="M250 112H132V116H250V112Z" fill="#5925DC"/>
<path d="M281.324 71.7102C281.278 71.2519 281.083 70.8958 280.739 70.642C280.394 70.3883 279.926 70.2614 279.335 70.2614C278.934 70.2614 278.595 70.3182 278.318 70.4318C278.042 70.5417 277.83 70.6951 277.682 70.892C277.538 71.089 277.466 71.3125 277.466 71.5625C277.458 71.7708 277.502 71.9527 277.597 72.108C277.695 72.2633 277.83 72.3977 278 72.5114C278.17 72.6212 278.367 72.7178 278.591 72.8011C278.814 72.8807 279.053 72.9489 279.307 73.0057L280.352 73.2557C280.86 73.3693 281.326 73.5208 281.75 73.7102C282.174 73.8996 282.542 74.1326 282.852 74.4091C283.163 74.6856 283.403 75.0114 283.574 75.3864C283.748 75.7614 283.837 76.1913 283.841 76.6761C283.837 77.3883 283.655 78.0057 283.295 78.5284C282.939 79.0473 282.424 79.4508 281.75 79.7386C281.08 80.0227 280.271 80.1648 279.324 80.1648C278.384 80.1648 277.566 80.0208 276.869 79.733C276.176 79.4451 275.634 79.0189 275.244 78.4545C274.858 77.8864 274.655 77.1837 274.636 76.3466H277.017C277.044 76.7367 277.155 77.0625 277.352 77.3239C277.553 77.5814 277.82 77.7765 278.153 77.9091C278.491 78.0379 278.871 78.1023 279.295 78.1023C279.712 78.1023 280.074 78.0417 280.381 77.9205C280.691 77.7992 280.932 77.6307 281.102 77.4148C281.273 77.1989 281.358 76.9508 281.358 76.6705C281.358 76.4091 281.28 76.1894 281.125 76.0114C280.973 75.8333 280.75 75.6818 280.455 75.5568C280.163 75.4318 279.805 75.3182 279.381 75.2159L278.114 74.8977C277.133 74.6591 276.358 74.286 275.79 73.7784C275.222 73.2708 274.939 72.5871 274.943 71.7273C274.939 71.0227 275.127 70.4072 275.506 69.8807C275.888 69.3542 276.413 68.9432 277.08 68.6477C277.746 68.3523 278.504 68.2045 279.352 68.2045C280.216 68.2045 280.97 68.3523 281.614 68.6477C282.261 68.9432 282.765 69.3542 283.125 69.8807C283.485 70.4072 283.67 71.017 283.682 71.7102H281.324ZM285.496 80V68.3636H293.337V70.392H287.956V73.1648H292.933V75.1932H287.956V77.9716H293.359V80H285.496ZM305.56 72.4375H303.071C303.026 72.1155 302.933 71.8295 302.793 71.5795C302.652 71.3258 302.473 71.1098 302.253 70.9318C302.033 70.7538 301.779 70.6174 301.491 70.5227C301.207 70.428 300.899 70.3807 300.565 70.3807C299.963 70.3807 299.438 70.5303 298.991 70.8295C298.545 71.125 298.198 71.5568 297.952 72.125C297.705 72.6894 297.582 73.375 297.582 74.1818C297.582 75.0114 297.705 75.7083 297.952 76.2727C298.202 76.8371 298.55 77.2633 298.997 77.5511C299.444 77.839 299.961 77.983 300.548 77.983C300.878 77.983 301.183 77.9394 301.463 77.8523C301.747 77.7652 301.999 77.6383 302.219 77.4716C302.438 77.3011 302.62 77.0947 302.764 76.8523C302.912 76.6098 303.014 76.3333 303.071 76.0227L305.56 76.0341C305.495 76.5682 305.334 77.0833 305.077 77.5795C304.823 78.072 304.48 78.5133 304.048 78.9034C303.62 79.2898 303.109 79.5966 302.514 79.8239C301.923 80.0473 301.255 80.1591 300.509 80.1591C299.471 80.1591 298.543 79.9242 297.724 79.4545C296.91 78.9848 296.266 78.3049 295.793 77.4148C295.323 76.5246 295.088 75.447 295.088 74.1818C295.088 72.9129 295.327 71.8333 295.804 70.9432C296.281 70.053 296.929 69.375 297.747 68.9091C298.565 68.4394 299.486 68.2045 300.509 68.2045C301.183 68.2045 301.808 68.2992 302.384 68.4886C302.963 68.678 303.476 68.9545 303.923 69.3182C304.37 69.678 304.734 70.1193 305.014 70.642C305.298 71.1648 305.48 71.7633 305.56 72.4375ZM306.881 70.392V68.3636H316.438V70.392H312.875V80H310.443V70.392H306.881ZM320.472 68.3636V80H318.011V68.3636H320.472ZM333.189 74.1818C333.189 75.4508 332.948 76.5303 332.467 77.4205C331.99 78.3106 331.339 78.9905 330.513 79.4602C329.691 79.9261 328.767 80.1591 327.74 80.1591C326.706 80.1591 325.778 79.9242 324.956 79.4545C324.134 78.9848 323.484 78.3049 323.007 77.4148C322.53 76.5246 322.291 75.447 322.291 74.1818C322.291 72.9129 322.53 71.8333 323.007 70.9432C323.484 70.053 324.134 69.375 324.956 68.9091C325.778 68.4394 326.706 68.2045 327.74 68.2045C328.767 68.2045 329.691 68.4394 330.513 68.9091C331.339 69.375 331.99 70.053 332.467 70.9432C332.948 71.8333 333.189 72.9129 333.189 74.1818ZM330.695 74.1818C330.695 73.3598 330.571 72.6667 330.325 72.1023C330.083 71.5379 329.74 71.1098 329.297 70.8182C328.854 70.5265 328.335 70.3807 327.74 70.3807C327.145 70.3807 326.626 70.5265 326.183 70.8182C325.74 71.1098 325.395 71.5379 325.149 72.1023C324.907 72.6667 324.786 73.3598 324.786 74.1818C324.786 75.0038 324.907 75.697 325.149 76.2614C325.395 76.8258 325.74 77.2538 326.183 77.5455C326.626 77.8371 327.145 77.983 327.74 77.983C328.335 77.983 328.854 77.8371 329.297 77.5455C329.74 77.2538 330.083 76.8258 330.325 76.2614C330.571 75.697 330.695 75.0038 330.695 74.1818ZM344.744 68.3636V80H342.619L337.557 72.6761H337.472V80H335.011V68.3636H337.17L342.193 75.6818H342.295V68.3636H344.744ZM354.713 80.1591C353.865 80.1591 353.109 80.0133 352.446 79.7216C351.787 79.4261 351.266 79.0208 350.884 78.5057C350.505 77.9867 350.31 77.3883 350.298 76.7102H352.776C352.791 76.9943 352.884 77.2443 353.054 77.4602C353.228 77.6723 353.459 77.8371 353.747 77.9545C354.035 78.072 354.359 78.1307 354.719 78.1307C355.094 78.1307 355.425 78.0644 355.713 77.9318C356.001 77.7992 356.226 77.6155 356.389 77.3807C356.552 77.1458 356.634 76.875 356.634 76.5682C356.634 76.2576 356.546 75.983 356.372 75.7443C356.202 75.5019 355.955 75.3125 355.634 75.1761C355.315 75.0398 354.937 74.9716 354.497 74.9716H353.412V73.1648H354.497C354.868 73.1648 355.196 73.1004 355.48 72.9716C355.768 72.8428 355.991 72.6648 356.151 72.4375C356.31 72.2064 356.389 71.9375 356.389 71.6307C356.389 71.339 356.319 71.0833 356.179 70.8636C356.043 70.6402 355.849 70.4659 355.599 70.3409C355.353 70.2159 355.065 70.1534 354.736 70.1534C354.402 70.1534 354.098 70.214 353.821 70.3352C353.545 70.4527 353.323 70.6212 353.156 70.8409C352.99 71.0606 352.901 71.3182 352.889 71.6136H350.531C350.543 70.9432 350.734 70.3523 351.105 69.8409C351.476 69.3295 351.976 68.9299 352.605 68.642C353.238 68.3504 353.952 68.2045 354.747 68.2045C355.55 68.2045 356.253 68.3504 356.855 68.642C357.457 68.9337 357.925 69.3277 358.259 69.8239C358.596 70.3163 358.762 70.8693 358.759 71.483C358.762 72.1345 358.56 72.678 358.151 73.1136C357.745 73.5492 357.217 73.8258 356.565 73.9432V74.0341C357.421 74.1439 358.073 74.4413 358.52 74.9261C358.971 75.4072 359.194 76.0095 359.19 76.733C359.194 77.3958 359.003 77.9848 358.616 78.5C358.234 79.0152 357.705 79.4205 357.031 79.7159C356.357 80.0114 355.584 80.1591 354.713 80.1591Z" fill="#344054"/>
<rect x="108" y="34" width="24" height="78" fill="#E8178A" fill-opacity="0.24"/>
<rect x="250" y="34" width="24" height="78" fill="#E8178A" fill-opacity="0.24"/>
<rect y="88" width="385" height="24" fill="#E8178A" fill-opacity="0.24"/>
<rect y="34" width="385" height="24" fill="#E8178A" fill-opacity="0.24"/>
<rect x="219" y="34" width="16" height="78" fill="#E8178A" fill-opacity="0.24"/>
<path d="M108 123H132" stroke="#E8178A"/>
<rect x="101" y="131" width="37" height="18" rx="3" fill="#E8178A"/>
<path d="M107.589 144V142.892L110.178 140.495C110.398 140.282 110.583 140.09 110.732 139.92C110.884 139.749 110.999 139.582 111.077 139.419C111.155 139.253 111.194 139.075 111.194 138.883C111.194 138.67 111.145 138.486 111.048 138.332C110.951 138.176 110.819 138.057 110.651 137.974C110.482 137.888 110.292 137.846 110.079 137.846C109.856 137.846 109.662 137.891 109.496 137.981C109.331 138.071 109.203 138.2 109.113 138.368C109.023 138.536 108.978 138.736 108.978 138.968H107.518C107.518 138.492 107.626 138.079 107.842 137.729C108.057 137.378 108.359 137.107 108.747 136.915C109.135 136.724 109.583 136.628 110.089 136.628C110.61 136.628 111.064 136.72 111.45 136.905C111.838 137.087 112.14 137.34 112.355 137.665C112.571 137.989 112.678 138.361 112.678 138.78C112.678 139.054 112.624 139.326 112.515 139.593C112.408 139.861 112.218 140.158 111.943 140.484C111.669 140.809 111.281 141.198 110.782 141.653L109.72 142.693V142.743H112.774V144H107.589ZM113.622 142.722V141.511L116.658 136.727H117.702V138.403H117.084L115.17 141.433V141.489H119.485V142.722H113.622ZM117.113 144V142.352L117.141 141.816V136.727H118.583V144H117.113ZM120.524 146.045V138.545H122.015V139.462H122.083C122.149 139.315 122.245 139.166 122.37 139.014C122.498 138.86 122.664 138.732 122.867 138.631C123.073 138.527 123.329 138.474 123.634 138.474C124.032 138.474 124.399 138.579 124.735 138.787C125.071 138.993 125.34 139.304 125.541 139.721C125.743 140.135 125.843 140.655 125.843 141.28C125.843 141.888 125.745 142.402 125.548 142.821C125.354 143.238 125.089 143.554 124.753 143.769C124.419 143.982 124.045 144.089 123.631 144.089C123.337 144.089 123.088 144.04 122.882 143.943C122.678 143.846 122.511 143.724 122.381 143.577C122.251 143.428 122.151 143.278 122.083 143.126H122.036V146.045H120.524ZM122.004 141.273C122.004 141.597 122.049 141.88 122.139 142.121C122.229 142.363 122.36 142.551 122.53 142.686C122.7 142.819 122.908 142.885 123.151 142.885C123.398 142.885 123.606 142.817 123.776 142.683C123.947 142.545 124.076 142.356 124.164 142.114C124.253 141.871 124.298 141.59 124.298 141.273C124.298 140.958 124.255 140.681 124.167 140.442C124.079 140.203 123.95 140.016 123.78 139.881C123.61 139.746 123.4 139.678 123.151 139.678C122.905 139.678 122.697 139.743 122.526 139.874C122.358 140.004 122.229 140.188 122.139 140.428C122.049 140.667 122.004 140.948 122.004 141.273ZM127.921 138.545L128.922 140.452L129.948 138.545H131.5L129.92 141.273L131.543 144H129.998L128.922 142.114L127.864 144H126.301L127.921 141.273L126.358 138.545H127.921Z" fill="white"/>
<line x1="108.5" y1="127" x2="108.5" y2="120" stroke="#E8178A"/>
<line x1="131.5" y1="127" x2="131.5" y2="120" stroke="#E8178A"/>
<path d="M395 112L395 88" stroke="#E8178A"/>
<rect x="404" y="91" width="37" height="18" rx="3" fill="#E8178A"/>
<path d="M410.589 104V102.892L413.178 100.495C413.398 100.282 413.583 100.09 413.732 99.9197C413.884 99.7493 413.999 99.5824 414.077 99.419C414.155 99.2533 414.194 99.0746 414.194 98.8828C414.194 98.6697 414.145 98.4863 414.048 98.3324C413.951 98.1761 413.819 98.0566 413.651 97.9737C413.482 97.8885 413.292 97.8459 413.079 97.8459C412.856 97.8459 412.662 97.8909 412.496 97.9808C412.331 98.0708 412.203 98.1998 412.113 98.3679C412.023 98.536 411.978 98.736 411.978 98.968H410.518C410.518 98.4922 410.626 98.0791 410.842 97.7287C411.057 97.3783 411.359 97.1072 411.747 96.9155C412.135 96.7237 412.583 96.6278 413.089 96.6278C413.61 96.6278 414.064 96.7202 414.45 96.9048C414.838 97.0871 415.14 97.3404 415.355 97.6648C415.571 97.9891 415.678 98.3608 415.678 98.7798C415.678 99.0545 415.624 99.3255 415.515 99.593C415.408 99.8606 415.218 100.158 414.943 100.484C414.669 100.809 414.281 101.198 413.782 101.653L412.72 102.693V102.743H415.774V104H410.589ZM416.622 102.722V101.511L419.658 96.7273H420.702V98.4034H420.084L418.17 101.433V101.489H422.485V102.722H416.622ZM420.113 104V102.352L420.141 101.816V96.7273H421.583V104H420.113ZM423.524 106.045V98.5455H425.015V99.4616H425.083C425.149 99.3149 425.245 99.1657 425.37 99.0142C425.498 98.8603 425.664 98.7325 425.867 98.6307C426.073 98.5265 426.329 98.4744 426.634 98.4744C427.032 98.4744 427.399 98.5786 427.735 98.7869C428.071 98.9929 428.34 99.3042 428.541 99.7209C428.743 100.135 428.843 100.655 428.843 101.28C428.843 101.888 428.745 102.402 428.548 102.821C428.354 103.238 428.089 103.554 427.753 103.769C427.419 103.982 427.045 104.089 426.631 104.089C426.337 104.089 426.088 104.04 425.882 103.943C425.678 103.846 425.511 103.724 425.381 103.577C425.251 103.428 425.151 103.278 425.083 103.126H425.036V106.045H423.524ZM425.004 101.273C425.004 101.597 425.049 101.88 425.139 102.121C425.229 102.363 425.36 102.551 425.53 102.686C425.7 102.819 425.908 102.885 426.151 102.885C426.398 102.885 426.606 102.817 426.776 102.683C426.947 102.545 427.076 102.356 427.164 102.114C427.253 101.871 427.298 101.59 427.298 101.273C427.298 100.958 427.255 100.681 427.167 100.442C427.079 100.203 426.95 100.016 426.78 99.8807C426.61 99.7457 426.4 99.6783 426.151 99.6783C425.905 99.6783 425.697 99.7434 425.526 99.8736C425.358 100.004 425.229 100.188 425.139 100.428C425.049 100.667 425.004 100.948 425.004 101.273ZM430.921 98.5455L431.922 100.452L432.948 98.5455H434.5L432.92 101.273L434.543 104H432.998L431.922 102.114L430.864 104H429.301L430.921 101.273L429.358 98.5455H430.921Z" fill="white"/>
<line x1="398" y1="111.5" x2="391" y2="111.5" stroke="#E8178A"/>
<line x1="398" y1="88.5" x2="391" y2="88.5" stroke="#E8178A"/>
<path d="M250 123H274" stroke="#E8178A"/>
<rect x="243" y="131" width="37" height="18" rx="3" fill="#E8178A"/>
<path d="M249.589 144V142.892L252.178 140.495C252.398 140.282 252.583 140.09 252.732 139.92C252.884 139.749 252.999 139.582 253.077 139.419C253.155 139.253 253.194 139.075 253.194 138.883C253.194 138.67 253.145 138.486 253.048 138.332C252.951 138.176 252.819 138.057 252.651 137.974C252.482 137.888 252.292 137.846 252.079 137.846C251.856 137.846 251.662 137.891 251.496 137.981C251.331 138.071 251.203 138.2 251.113 138.368C251.023 138.536 250.978 138.736 250.978 138.968H249.518C249.518 138.492 249.626 138.079 249.842 137.729C250.057 137.378 250.359 137.107 250.747 136.915C251.135 136.724 251.583 136.628 252.089 136.628C252.61 136.628 253.064 136.72 253.45 136.905C253.838 137.087 254.14 137.34 254.355 137.665C254.571 137.989 254.678 138.361 254.678 138.78C254.678 139.054 254.624 139.326 254.515 139.593C254.408 139.861 254.218 140.158 253.943 140.484C253.669 140.809 253.281 141.198 252.782 141.653L251.72 142.693V142.743H254.774V144H249.589ZM255.622 142.722V141.511L258.658 136.727H259.702V138.403H259.084L257.17 141.433V141.489H261.485V142.722H255.622ZM259.113 144V142.352L259.141 141.816V136.727H260.583V144H259.113ZM262.524 146.045V138.545H264.015V139.462H264.083C264.149 139.315 264.245 139.166 264.37 139.014C264.498 138.86 264.664 138.732 264.867 138.631C265.073 138.527 265.329 138.474 265.634 138.474C266.032 138.474 266.399 138.579 266.735 138.787C267.071 138.993 267.34 139.304 267.541 139.721C267.743 140.135 267.843 140.655 267.843 141.28C267.843 141.888 267.745 142.402 267.548 142.821C267.354 143.238 267.089 143.554 266.753 143.769C266.419 143.982 266.045 144.089 265.631 144.089C265.337 144.089 265.088 144.04 264.882 143.943C264.678 143.846 264.511 143.724 264.381 143.577C264.251 143.428 264.151 143.278 264.083 143.126H264.036V146.045H262.524ZM264.004 141.273C264.004 141.597 264.049 141.88 264.139 142.121C264.229 142.363 264.36 142.551 264.53 142.686C264.7 142.819 264.908 142.885 265.151 142.885C265.398 142.885 265.606 142.817 265.776 142.683C265.947 142.545 266.076 142.356 266.164 142.114C266.253 141.871 266.298 141.59 266.298 141.273C266.298 140.958 266.255 140.681 266.167 140.442C266.079 140.203 265.95 140.016 265.78 139.881C265.61 139.746 265.4 139.678 265.151 139.678C264.905 139.678 264.697 139.743 264.526 139.874C264.358 140.004 264.229 140.188 264.139 140.428C264.049 140.667 264.004 140.948 264.004 141.273ZM269.921 138.545L270.922 140.452L271.948 138.545H273.5L271.92 141.273L273.543 144H271.998L270.922 142.114L269.864 144H268.301L269.921 141.273L268.358 138.545H269.921Z" fill="white"/>
<line x1="250.5" y1="127" x2="250.5" y2="120" stroke="#E8178A"/>
<line x1="273.5" y1="127" x2="273.5" y2="120" stroke="#E8178A"/>
<path d="M219 26H235" stroke="#E8178A"/>
<rect x="209" width="36" height="18" rx="3" fill="#E8178A"/>
<path d="M218.754 5.72727V13H217.216V7.18679H217.173L215.508 8.23082V6.86719L217.308 5.72727H218.754ZM223.273 13.0994C222.899 13.0971 222.538 13.0343 222.19 12.9112C221.845 12.7881 221.534 12.5881 221.26 12.3111C220.985 12.0341 220.767 11.6671 220.606 11.2102C220.448 10.7533 220.368 10.1922 220.368 9.52699C220.371 8.91619 220.441 8.3705 220.578 7.88991C220.718 7.40696 220.916 6.9974 221.175 6.66122C221.435 6.32505 221.746 6.06937 222.108 5.89418C222.471 5.71662 222.877 5.62784 223.327 5.62784C223.812 5.62784 224.24 5.72254 224.612 5.91193C224.984 6.09896 225.282 6.35346 225.507 6.67543C225.734 6.9974 225.872 7.35843 225.919 7.75852H224.403C224.343 7.50521 224.219 7.30634 224.03 7.16193C223.84 7.01752 223.606 6.94531 223.327 6.94531C222.853 6.94531 222.493 7.15128 222.247 7.56321C222.003 7.97514 221.879 8.53504 221.874 9.2429H221.924C222.033 9.02746 222.18 8.84399 222.364 8.69247C222.551 8.53859 222.763 8.4214 223 8.34091C223.239 8.25805 223.491 8.21662 223.756 8.21662C224.187 8.21662 224.571 8.31842 224.907 8.52202C225.243 8.72325 225.508 9.00024 225.702 9.35298C225.896 9.70573 225.993 10.1094 225.993 10.5639C225.993 11.0563 225.879 11.4943 225.649 11.8778C225.422 12.2614 225.103 12.562 224.694 12.7798C224.287 12.9953 223.813 13.1018 223.273 13.0994ZM223.266 11.892C223.503 11.892 223.715 11.8352 223.902 11.7216C224.089 11.608 224.236 11.4541 224.342 11.2599C224.449 11.0658 224.502 10.848 224.502 10.6065C224.502 10.3651 224.449 10.1484 224.342 9.95668C224.238 9.76491 224.094 9.61222 223.909 9.49858C223.724 9.38494 223.514 9.32812 223.277 9.32812C223.099 9.32812 222.935 9.36127 222.783 9.42756C222.634 9.49384 222.503 9.58617 222.389 9.70455C222.278 9.82292 222.19 9.96023 222.126 10.1165C222.062 10.2704 222.03 10.4349 222.03 10.6101C222.03 10.8445 222.084 11.0587 222.19 11.2528C222.299 11.447 222.446 11.602 222.631 11.718C222.818 11.834 223.029 11.892 223.266 11.892ZM227.098 15.0455V7.54545H228.589V8.46165H228.657C228.723 8.31487 228.819 8.16572 228.944 8.0142C229.072 7.86032 229.238 7.73248 229.442 7.63068C229.648 7.52652 229.903 7.47443 230.209 7.47443C230.606 7.47443 230.973 7.5786 231.309 7.78693C231.646 7.9929 231.914 8.30421 232.116 8.72088C232.317 9.13518 232.417 9.65483 232.417 10.2798C232.417 10.8883 232.319 11.402 232.123 11.821C231.929 12.2377 231.663 12.5537 231.327 12.7692C230.993 12.9822 230.619 13.0888 230.205 13.0888C229.912 13.0888 229.662 13.0402 229.456 12.9432C229.252 12.8461 229.085 12.7242 228.955 12.5774C228.825 12.4283 228.725 12.2779 228.657 12.1264H228.611V15.0455H227.098ZM228.579 10.2727C228.579 10.5971 228.624 10.88 228.714 11.1214C228.804 11.3629 228.934 11.5511 229.104 11.6861C229.275 11.8187 229.482 11.8849 229.726 11.8849C229.972 11.8849 230.18 11.8175 230.351 11.6825C230.521 11.5452 230.65 11.3558 230.738 11.1143C230.828 10.8705 230.873 10.59 230.873 10.2727C230.873 9.95786 230.829 9.68087 230.741 9.44176C230.654 9.20265 230.525 9.01562 230.354 8.88068C230.184 8.74574 229.974 8.67827 229.726 8.67827C229.479 8.67827 229.271 8.74337 229.101 8.87358C228.933 9.00379 228.804 9.18845 228.714 9.42756C228.624 9.66667 228.579 9.94839 228.579 10.2727ZM234.495 7.54545L235.496 9.45241L236.523 7.54545H238.074L236.494 10.2727L238.117 13H236.572L235.496 11.1143L234.438 13H232.876L234.495 10.2727L232.932 7.54545H234.495Z" fill="white"/>
<line x1="219.5" y1="30" x2="219.5" y2="23" stroke="#E8178A"/>
<line x1="234.5" y1="30" x2="234.5" y2="23" stroke="#E8178A"/>
</svg>
