<svg width="180" height="150" viewBox="0 0 180 150" fill="none" xmlns="http://www.w3.org/2000/svg"><path d="M0 51a5 5 0 0 1 5-5h113a5 5 0 0 1 5 5v38a5 5 0 0 1-5 5H5a5 5 0 0 1-5-5V51Z" fill="#5925DC"/><path d="M32 80.5a10.5 10.5 0 1 1 0-21 10.5 10.5 0 0 1 0 21Zm0 1.5a12 12 0 1 0 0-24 12 12 0 0 0 0 24Z" fill="#fff"/><path d="M32 64a.75.75 0 0 1 .75.75v4.5h4.5a.75.75 0 1 1 0 1.5h-4.5v4.5a.75.75 0 1 1-1.5 0v-4.5h-4.5a.75.75 0 1 1 0-1.5h4.5v-4.5A.75.75 0 0 1 32 64Zm25.839 12V64.364h4.068c.81 0 1.48.14 2.006.42.526.277.918.65 1.176 1.12.257.465.386.982.386 1.55 0 .5-.089.913-.267 1.24a2.077 2.077 0 0 1-.693.772c-.284.19-.593.33-.926.42V70c.356.023.714.148 1.074.375.36.227.66.553.903.977.242.424.364.944.364 1.557 0 .583-.133 1.108-.398 1.574-.265.466-.684.835-1.256 1.108-.572.273-1.316.409-2.233.409H57.84Zm1.409-1.25h2.795c.92 0 1.574-.178 1.96-.534.39-.36.586-.795.586-1.307 0-.394-.1-.758-.301-1.09a2.178 2.178 0 0 0-.858-.808c-.371-.204-.81-.306-1.319-.306h-2.863v4.045Zm0-5.273h2.614a2.58 2.58 0 0 0 1.147-.25c.345-.166.618-.401.818-.704.205-.303.307-.66.307-1.069a1.77 1.77 0 0 0-.534-1.3c-.356-.36-.92-.54-1.693-.54h-2.66v3.863Zm14.315 2.955v-5.16h1.341V76h-1.34v-1.477h-.092c-.204.443-.522.82-.954 1.13-.432.307-.978.46-1.637.46-.545 0-1.03-.119-1.454-.357-.424-.243-.758-.606-1-1.091-.243-.489-.364-1.104-.364-1.847v-5.545h1.341v5.454c0 .637.178 1.144.534 1.523.36.379.818.568 1.375.568.334 0 .673-.085 1.017-.255.349-.171.64-.432.875-.785.239-.352.358-.8.358-1.346Zm7.593-5.16v1.137h-4.523v-1.136h4.523Zm-3.205-2.09h1.34V73.5c0 .379.056.663.166.852.113.186.257.31.431.375.178.06.366.091.563.091.148 0 .269-.007.364-.022l.227-.046.273 1.204a2.587 2.587 0 0 1-.381.103 2.8 2.8 0 0 1-.62.057c-.378 0-.75-.082-1.113-.245a2.212 2.212 0 0 1-.898-.744c-.235-.333-.352-.754-.352-1.261v-8.682Zm9.017 2.09v1.137h-4.523v-1.136h4.523Zm-3.205-2.09h1.341V73.5c0 .379.055.663.165.852.114.186.258.31.432.375.178.06.366.091.563.091.147 0 .268-.007.363-.022l.227-.046.273 1.204c-.09.035-.218.069-.38.103a2.8 2.8 0 0 1-.62.057 2.7 2.7 0 0 1-1.114-.245 2.212 2.212 0 0 1-.897-.744c-.235-.333-.353-.754-.353-1.261v-8.682Zm8.674 11c-.788 0-1.48-.188-2.074-.563-.591-.375-1.053-.9-1.386-1.573-.33-.675-.495-1.463-.495-2.364 0-.91.165-1.703.495-2.38.333-.679.795-1.205 1.386-1.58.595-.375 1.286-.563 2.074-.563.788 0 1.477.188 2.068.563.595.375 1.057.901 1.386 1.58.334.677.5 1.47.5 2.38 0 .901-.166 1.69-.5 2.364a3.769 3.769 0 0 1-1.386 1.573c-.59.375-1.28.563-2.068.563Zm0-1.205c.598 0 1.09-.153 1.477-.46a2.72 2.72 0 0 0 .858-1.21c.186-.5.278-1.042.278-1.625 0-.584-.092-1.127-.278-1.63a2.75 2.75 0 0 0-.858-1.223c-.386-.31-.879-.465-1.477-.465-.599 0-1.091.155-1.477.465a2.75 2.75 0 0 0-.858 1.222 4.681 4.681 0 0 0-.279 1.63c0 .584.093 1.126.279 1.626.185.5.471.903.858 1.21.386.307.878.46 1.477.46Zm7.342-4.227V76h-1.34v-8.727h1.295v1.363h.113c.205-.443.515-.799.932-1.068.417-.272.955-.409 1.614-.409.591 0 1.108.121 1.551.364a2.45 2.45 0 0 1 1.034 1.09c.246.486.369 1.1.369 1.841V76h-1.341v-5.454c0-.686-.178-1.22-.534-1.603-.356-.386-.844-.58-1.466-.58-.428 0-.81.093-1.147.279a1.988 1.988 0 0 0-.79.813c-.193.356-.29.787-.29 1.295Z" fill="#fff"/><circle cx="168" cy="70" r="12" fill="#344054"/><path d="M163.943 76v-1.773l4.142-3.835c.353-.34.648-.648.887-.92.242-.273.426-.54.551-.801.125-.266.187-.552.187-.859 0-.34-.077-.634-.233-.88a1.526 1.526 0 0 0-.636-.574 1.995 1.995 0 0 0-.915-.205c-.356 0-.667.072-.932.216-.265.144-.469.35-.613.62-.144.269-.216.589-.216.96h-2.335c0-.761.172-1.422.517-1.983.344-.56.827-.994 1.448-1.301.622-.307 1.338-.46 2.148-.46.834 0 1.559.147 2.176.443.622.291 1.104.697 1.449 1.216s.517 1.113.517 1.784c0 .44-.087.873-.261 1.3-.171.429-.476.904-.915 1.427-.439.519-1.059 1.142-1.858 1.87l-1.699 1.664v.08h4.887V76h-8.296Z" fill="#fff"/><path d="m159 70-52 .5" stroke="#344054" stroke-dasharray="2 2"/><circle cx="79" cy="16" r="12" fill="#344054"/><path d="M81.006 10.364V22h-2.46v-9.301h-.069l-2.665 1.67v-2.181l2.881-1.824h2.313Z" fill="#fff"/><path d="M76 16H32v42" stroke="#344054" stroke-dasharray="2 2"/><circle cx="79" cy="134" r="12" fill="#344054"/><path d="M79.244 140.159c-.848 0-1.604-.146-2.267-.437-.659-.296-1.18-.701-1.562-1.216a3.058 3.058 0 0 1-.586-1.796h2.478c.015.284.108.534.278.75.175.212.406.377.693.495.288.117.612.176.972.176.375 0 .706-.067.994-.199.288-.133.514-.316.677-.551.162-.235.244-.506.244-.813 0-.31-.087-.585-.262-.824a1.67 1.67 0 0 0-.738-.568c-.318-.136-.697-.204-1.137-.204h-1.085v-1.807h1.085c.372 0 .7-.065.983-.193a1.58 1.58 0 0 0 .67-.534c.16-.232.24-.5.24-.807 0-.292-.07-.548-.21-.767a1.385 1.385 0 0 0-.58-.523 1.884 1.884 0 0 0-.864-.188c-.333 0-.638.061-.915.182a1.603 1.603 0 0 0-.665.506 1.33 1.33 0 0 0-.266.773h-2.359a3.029 3.029 0 0 1 .574-1.773c.372-.511.872-.911 1.5-1.199.633-.292 1.347-.437 2.142-.437.803 0 1.506.145 2.108.437.603.292 1.07.686 1.404 1.182.337.492.504 1.045.5 1.659.004.651-.2 1.195-.608 1.631-.406.435-.934.712-1.585.829v.091c.856.11 1.507.407 1.954.892.45.481.674 1.083.67 1.807a2.838 2.838 0 0 1-.573 1.767c-.383.515-.911.92-1.585 1.216-.675.295-1.448.443-2.319.443Z" fill="#fff"/><path d="M76 134H32V94" stroke="#344054" stroke-dasharray="2 2"/></svg>