<svg width="234" height="91" viewBox="0 0 234 91" fill="none" xmlns="http://www.w3.org/2000/svg"><path d="M59 9a5 5 0 0 1 5-5h113a5 5 0 0 1 5 5v38a5 5 0 0 1-5 5H64a5 5 0 0 1-5-5V9Z" fill="#5925DC"/><path d="M91 38.5a10.5 10.5 0 1 1 0-21 10.5 10.5 0 0 1 0 21Zm0 1.5a12 12 0 1 0 0-24 12 12 0 0 0 0 24Z" fill="#fff"/><path d="M91 22a.75.75 0 0 1 .75.75v4.5h4.5a.75.75 0 1 1 0 1.5h-4.5v4.5a.75.75 0 1 1-1.5 0v-4.5h-4.5a.75.75 0 1 1 0-1.5h4.5v-4.5A.75.75 0 0 1 91 22Zm25.839 12V22.364h4.068c.811 0 1.479.14 2.006.42.526.277.918.65 1.176 1.12.257.465.386.982.386 1.55 0 .5-.089.913-.267 1.24a2.074 2.074 0 0 1-.693.772c-.284.19-.593.33-.926.42V28c.356.023.714.148 1.074.375.359.227.661.553.903.977.242.424.364.944.364 1.557 0 .583-.133 1.108-.398 1.574-.265.466-.684.835-1.256 1.108-.572.273-1.316.409-2.233.409h-4.204Zm1.409-1.25h2.795c.921 0 1.574-.178 1.961-.534.39-.36.585-.796.585-1.307 0-.394-.101-.758-.301-1.09a2.182 2.182 0 0 0-.858-.808c-.372-.204-.811-.306-1.318-.306h-2.864v4.045Zm0-5.273h2.614c.424 0 .806-.083 1.147-.25a2 2 0 0 0 .818-.704 1.86 1.86 0 0 0 .307-1.069 1.77 1.77 0 0 0-.534-1.3c-.356-.36-.92-.54-1.693-.54h-2.659v3.863Zm14.315 2.955v-5.16h1.341V34h-1.341v-1.477h-.091c-.204.443-.522.82-.954 1.13-.432.307-.978.46-1.637.46-.545 0-1.03-.119-1.454-.357-.424-.243-.758-.606-1-1.091-.243-.489-.364-1.104-.364-1.847v-5.545h1.341v5.454c0 .637.178 1.144.534 1.523.36.379.818.568 1.375.568.334 0 .673-.085 1.017-.255.349-.171.64-.432.875-.785.239-.352.358-.8.358-1.346Zm7.593-5.16v1.137h-4.523v-1.136h4.523Zm-3.205-2.09h1.341V31.5c0 .379.055.663.165.852a.85.85 0 0 0 .431.375c.179.06.366.091.563.091.148 0 .269-.007.364-.023l.227-.045.273 1.205a2.733 2.733 0 0 1-.381.102 2.8 2.8 0 0 1-.619.057 2.7 2.7 0 0 1-1.114-.245 2.215 2.215 0 0 1-.898-.744c-.235-.333-.352-.754-.352-1.261v-8.682Zm9.017 2.09v1.137h-4.523v-1.136h4.523Zm-3.205-2.09h1.341V31.5c0 .379.055.663.165.852.114.186.258.31.432.375.178.06.366.091.562.091.148 0 .269-.007.364-.023l.227-.045.273 1.205a2.733 2.733 0 0 1-.381.102 2.793 2.793 0 0 1-.619.057 2.7 2.7 0 0 1-1.114-.245 2.212 2.212 0 0 1-.897-.744c-.235-.333-.353-.754-.353-1.261v-8.682Zm8.674 11c-.788 0-1.479-.188-2.074-.563-.591-.375-1.053-.9-1.386-1.574-.33-.674-.495-1.462-.495-2.363 0-.91.165-1.703.495-2.38.333-.679.795-1.205 1.386-1.58.595-.375 1.286-.563 2.074-.563.788 0 1.477.188 2.068.563.595.375 1.057.901 1.386 1.58.334.677.5 1.47.5 2.38 0 .901-.166 1.69-.5 2.363a3.763 3.763 0 0 1-1.386 1.574c-.591.375-1.28.563-2.068.563Zm0-1.205c.598 0 1.091-.153 1.477-.46a2.72 2.72 0 0 0 .858-1.21c.186-.5.278-1.042.278-1.625s-.092-1.127-.278-1.63a2.755 2.755 0 0 0-.858-1.223c-.386-.31-.879-.465-1.477-.465-.599 0-1.091.155-1.477.465a2.74 2.74 0 0 0-.858 1.222 4.672 4.672 0 0 0-.279 1.63c0 .584.093 1.126.279 1.626.185.5.471.903.858 1.21.386.307.878.46 1.477.46Zm7.342-4.227V34h-1.341v-8.727h1.296v1.363h.113c.205-.443.515-.799.932-1.068.417-.273.955-.409 1.614-.409.591 0 1.108.121 1.551.364a2.45 2.45 0 0 1 1.034 1.09c.246.486.369 1.1.369 1.841V34h-1.341v-5.454c0-.686-.178-1.22-.534-1.603-.356-.386-.844-.58-1.466-.58-.428 0-.81.093-1.147.279a1.988 1.988 0 0 0-.79.813c-.193.356-.29.787-.29 1.295Z" fill="#fff"/><path fill="#E8178A" fill-opacity=".24" d="M59 4h16v48H59zm107 0h16v48h-16z"/><path fill="#E8178A" fill-opacity=".24" d="M59 4h123v8H59zm0 40h123v8H59z"/><path d="M166 68.5h16" stroke="#E8178A"/><rect x="156" y="73" width="36" height="18" rx="3" fill="#E8178A"/><path d="M165.754 78.727V86h-1.538v-5.813h-.043l-1.665 1.044v-1.364l1.8-1.14h1.446Zm4.519 7.372a3.285 3.285 0 0 1-1.083-.188 2.464 2.464 0 0 1-.93-.6c-.275-.277-.493-.644-.654-1.1-.158-.458-.238-1.019-.238-1.684.003-.61.073-1.156.21-1.637a3.66 3.66 0 0 1 .597-1.229c.26-.336.571-.592.933-.767a2.736 2.736 0 0 1 1.219-.266c.485 0 .913.094 1.285.284.372.187.67.441.895.763.227.322.365.683.412 1.084h-1.516a1.018 1.018 0 0 0-.373-.597 1.127 1.127 0 0 0-.703-.217c-.474 0-.834.206-1.08.618-.244.412-.368.972-.373 1.68h.05a1.7 1.7 0 0 1 .44-.55c.187-.154.399-.272.636-.352a2.29 2.29 0 0 1 .756-.124 2.162 2.162 0 0 1 1.946 1.136c.194.353.291.756.291 1.21 0 .493-.114.931-.344 1.315a2.389 2.389 0 0 1-.955.902c-.407.215-.881.322-1.421.32Zm-.007-1.207a1.2 1.2 0 0 0 1.076-.632 1.33 1.33 0 0 0 .16-.654 1.31 1.31 0 0 0-.16-.65 1.18 1.18 0 0 0-1.065-.629 1.22 1.22 0 0 0-.494.1 1.244 1.244 0 0 0-.657.69 1.272 1.272 0 0 0-.096.493 1.277 1.277 0 0 0 .601 1.108c.187.116.398.174.635.174Zm3.832 3.154v-7.5h1.491v.916h.068c.066-.147.162-.296.287-.448.128-.154.294-.281.498-.383.206-.105.461-.157.767-.157.397 0 .764.105 1.1.313.337.206.605.517.807.934.201.414.301.934.301 1.559 0 .608-.098 1.122-.294 1.541-.194.417-.46.733-.796.948-.334.213-.708.32-1.122.32a1.75 1.75 0 0 1-.749-.146 1.545 1.545 0 0 1-.501-.366c-.13-.149-.23-.3-.298-.45h-.046v2.919h-1.513Zm1.481-4.773c0 .324.045.607.135.848.09.242.22.43.39.565a.984.984 0 0 0 .622.199.977.977 0 0 0 .625-.203c.17-.137.299-.326.387-.568.09-.243.135-.524.135-.841a2.4 2.4 0 0 0-.132-.831 1.229 1.229 0 0 0-.387-.561.98.98 0 0 0-.628-.203.997.997 0 0 0-.625.196 1.22 1.22 0 0 0-.387.554c-.09.239-.135.52-.135.845Zm5.916-2.727 1.001 1.906 1.027-1.906h1.551l-1.58 2.727L185.117 86h-1.545l-1.076-1.886L181.438 86h-1.562l1.619-2.727-1.563-2.727h1.563Z" fill="#fff"/><path stroke="#E8178A" d="M166.5 72v-7m15 7v-7M59 68.5h16"/><rect x="49" y="73" width="36" height="18" rx="3" fill="#E8178A"/><path d="M58.754 78.727V86h-1.538v-5.813h-.043l-1.665 1.044v-1.364l1.8-1.14h1.446Zm4.52 7.372a3.285 3.285 0 0 1-1.084-.188 2.465 2.465 0 0 1-.93-.6c-.275-.277-.493-.644-.654-1.1-.158-.458-.238-1.019-.238-1.684.003-.61.073-1.156.21-1.637.14-.483.338-.893.596-1.229.261-.336.572-.592.934-.767a2.73 2.73 0 0 1 1.219-.266c.485 0 .913.094 1.285.284.372.187.67.441.895.763.227.322.364.683.412 1.084h-1.516a1.013 1.013 0 0 0-.373-.597 1.126 1.126 0 0 0-.703-.217c-.474 0-.834.206-1.08.618-.244.412-.368.972-.373 1.68h.05a1.69 1.69 0 0 1 .44-.55c.187-.154.4-.272.636-.352.239-.083.491-.124.756-.124a2.168 2.168 0 0 1 1.946 1.136c.194.353.291.756.291 1.21 0 .493-.114.931-.344 1.315a2.388 2.388 0 0 1-.955.902c-.407.215-.881.322-1.42.32Zm-.008-1.207a1.2 1.2 0 0 0 1.076-.632c.107-.194.16-.412.16-.654 0-.24-.053-.458-.16-.65a1.18 1.18 0 0 0-1.065-.629 1.242 1.242 0 0 0-.494.1 1.24 1.24 0 0 0-.657.69 1.274 1.274 0 0 0-.096.493 1.277 1.277 0 0 0 .6 1.108c.188.116.4.174.636.174Zm3.832 3.154v-7.5h1.491v.916h.068c.066-.147.162-.296.287-.448.128-.154.294-.281.498-.383.206-.105.461-.157.767-.157.397 0 .764.105 1.1.313.337.206.605.517.807.934.2.414.301.934.301 1.559 0 .608-.098 1.122-.294 1.541-.194.417-.46.733-.796.948-.334.213-.708.32-1.122.32-.293 0-.543-.049-.75-.146a1.55 1.55 0 0 1-.5-.366c-.13-.149-.23-.3-.298-.45h-.046v2.919h-1.513Zm1.48-4.773c0 .324.046.607.136.848.09.242.22.43.39.565a.98.98 0 0 0 .622.199.975.975 0 0 0 .625-.203c.17-.137.3-.326.387-.568.09-.243.135-.524.135-.841a2.41 2.41 0 0 0-.132-.831 1.237 1.237 0 0 0-.387-.561.98.98 0 0 0-.628-.203 1 1 0 0 0-.625.196 1.22 1.22 0 0 0-.387.554c-.09.239-.135.52-.135.845Zm5.917-2.727 1.001 1.906 1.026-1.906h1.552l-1.58 2.727L78.117 86h-1.545l-1.076-1.886L74.438 86h-1.563l1.62-2.727-1.563-2.727h1.563Z" fill="#fff"/><path stroke="#E8178A" d="M59.5 72v-7m15 7v-7m124-61v8"/><rect x="203" y=".5" width="31" height="18" rx="3" fill="#E8178A"/><path d="M212.303 13.6c-.547 0-1.034-.09-1.46-.267-.424-.18-.756-.425-.998-.735a1.674 1.674 0 0 1-.362-1.055c0-.303.069-.58.206-.834.14-.256.329-.468.568-.636.239-.17.507-.28.803-.327v-.05a1.577 1.577 0 0 1-.945-.564c-.241-.3-.362-.65-.362-1.047 0-.377.11-.712.33-1.005.22-.296.522-.528.906-.696.386-.17.823-.256 1.314-.256.49 0 .926.085 1.31.256.386.17.689.403.909.7.22.293.331.626.334 1-.003.4-.126.75-.369 1.048a1.59 1.59 0 0 1-.938.565v.05c.291.047.555.156.792.326.239.168.428.38.568.636a1.713 1.713 0 0 1-.149 1.889c-.242.31-.575.555-1.001.735-.424.178-.91.266-1.456.266Zm0-1.13c.243 0 .456-.044.639-.131.182-.09.324-.213.426-.37a.975.975 0 0 0 .156-.546.983.983 0 0 0-.16-.558 1.097 1.097 0 0 0-.433-.383 1.343 1.343 0 0 0-.628-.143c-.235 0-.444.048-.629.143-.185.092-.33.22-.437.383a1.006 1.006 0 0 0-.156.558c0 .206.051.388.153.546.101.157.245.28.429.37.185.087.398.131.64.131Zm0-3.25c.203 0 .384-.04.543-.123a.94.94 0 0 0 .373-.345.952.952 0 0 0 .135-.508.909.909 0 0 0-.505-.834 1.147 1.147 0 0 0-.546-.124c-.206 0-.389.04-.547.124a.917.917 0 0 0-.373.337.925.925 0 0 0-.132.497c0 .192.045.361.135.508a.94.94 0 0 0 .373.345c.159.082.34.124.544.124Zm3.912 6.325v-7.5h1.491v.917h.068c.066-.147.162-.296.288-.448a1.49 1.49 0 0 1 .497-.383c.206-.104.461-.157.767-.157.398 0 .764.105 1.101.313.336.206.605.517.806.934.201.414.302.934.302 1.559 0 .608-.099 1.122-.295 1.541-.194.417-.459.733-.796.948-.333.213-.707.32-1.122.32a1.75 1.75 0 0 1-.749-.146 1.545 1.545 0 0 1-.501-.366c-.13-.149-.229-.3-.298-.45h-.046v2.918h-1.513Zm1.481-4.772c0 .324.045.607.135.848.09.242.22.43.39.565a.984.984 0 0 0 .622.199.977.977 0 0 0 .625-.203c.17-.137.299-.326.387-.568a2.42 2.42 0 0 0 .135-.841 2.4 2.4 0 0 0-.132-.831 1.23 1.23 0 0 0-.387-.561.98.98 0 0 0-.628-.203.999.999 0 0 0-.625.196 1.22 1.22 0 0 0-.387.554c-.09.239-.135.52-.135.845Zm5.916-2.728 1.001 1.907 1.027-1.907h1.552l-1.581 2.728 1.623 2.727h-1.545l-1.076-1.886-1.058 1.886h-1.562l1.619-2.727-1.562-2.728h1.562Z" fill="#fff"/><path stroke="#E8178A" d="M195 4.5h7m-7 7h7M198.5 44v8"/><rect x="203" y="40.5" width="31" height="18" rx="3" fill="#E8178A"/><path d="M212.303 53.6c-.547 0-1.034-.09-1.46-.267-.424-.18-.756-.425-.998-.735a1.674 1.674 0 0 1-.362-1.055c0-.303.069-.58.206-.834.14-.256.329-.468.568-.636.239-.17.507-.28.803-.327v-.05a1.577 1.577 0 0 1-.945-.564c-.241-.3-.362-.65-.362-1.047 0-.377.11-.712.33-1.005.22-.296.522-.528.906-.697a3.22 3.22 0 0 1 1.314-.255c.49 0 .926.085 1.31.255.386.171.689.404.909.7.22.294.331.628.334 1.002-.003.4-.126.749-.369 1.047a1.59 1.59 0 0 1-.938.565v.05c.291.047.555.156.792.326.239.168.428.38.568.636a1.713 1.713 0 0 1-.149 1.889c-.242.31-.575.555-1.001.735-.424.178-.91.266-1.456.266Zm0-1.13c.243 0 .456-.044.639-.131.182-.09.324-.213.426-.37a.975.975 0 0 0 .156-.546.983.983 0 0 0-.16-.558 1.097 1.097 0 0 0-.433-.384 1.343 1.343 0 0 0-.628-.142c-.235 0-.444.048-.629.142-.185.093-.33.22-.437.384a1.006 1.006 0 0 0-.156.558c0 .206.051.388.153.546.101.157.245.28.429.37.185.087.398.131.64.131Zm0-3.25c.203 0 .384-.04.543-.123a.94.94 0 0 0 .373-.345.951.951 0 0 0 .135-.508.909.909 0 0 0-.505-.834 1.147 1.147 0 0 0-.546-.124c-.206 0-.389.04-.547.124a.917.917 0 0 0-.373.337.924.924 0 0 0-.132.497c0 .192.045.361.135.508a.94.94 0 0 0 .373.345c.159.082.34.124.544.124Zm3.912 6.325v-7.5h1.491v.917h.068c.066-.147.162-.296.288-.448a1.49 1.49 0 0 1 .497-.383c.206-.105.461-.157.767-.157.398 0 .764.105 1.101.313.336.206.605.517.806.934.201.414.302.934.302 1.559 0 .608-.099 1.122-.295 1.541-.194.417-.459.733-.796.948-.333.213-.707.32-1.122.32a1.75 1.75 0 0 1-.749-.146 1.545 1.545 0 0 1-.501-.366c-.13-.149-.229-.3-.298-.45h-.046v2.918h-1.513Zm1.481-4.772c0 .324.045.607.135.848.09.242.22.43.39.565a.984.984 0 0 0 .622.199.977.977 0 0 0 .625-.203c.17-.137.299-.326.387-.568.09-.243.135-.524.135-.841a2.4 2.4 0 0 0-.132-.831 1.229 1.229 0 0 0-.387-.561.98.98 0 0 0-.628-.203.999.999 0 0 0-.625.196 1.22 1.22 0 0 0-.387.554c-.09.239-.135.52-.135.845Zm5.916-2.728 1.001 1.907 1.027-1.907h1.552l-1.581 2.728 1.623 2.727h-1.545l-1.076-1.886-1.058 1.886h-1.562l1.619-2.727-1.562-2.728h1.562Z" fill="#fff"/><path stroke="#E8178A" d="M195 44.5h7m-7 7h7"/><path d="M42.5 4v48" stroke="#1745E8"/><rect y="20.5" width="38" height="18" rx="3" fill="#1745E8"/><path d="M6.48 32.222V31.01l3.036-4.784h1.044v1.676h-.618l-1.914 3.03v.056h4.314v1.233H6.48ZM9.97 33.5v-1.648l.029-.536v-5.089h1.441V33.5H9.97Zm6.11.1c-.547 0-1.033-.09-1.46-.267-.423-.18-.756-.425-.997-.735a1.671 1.671 0 0 1-.363-1.055c0-.303.069-.58.206-.834.14-.256.33-.468.568-.636.24-.17.507-.28.803-.327v-.05a1.577 1.577 0 0 1-.945-.564c-.241-.3-.362-.65-.362-1.048 0-.376.11-.71.33-1.005a2.2 2.2 0 0 1 .906-.695 3.23 3.23 0 0 1 1.314-.256c.49 0 .927.085 1.31.256.386.17.69.403.91.7.22.293.33.627.333 1-.002.4-.125.75-.37 1.048a1.587 1.587 0 0 1-.937.565v.05c.291.047.555.156.792.326.24.168.429.38.568.636a1.705 1.705 0 0 1-.149 1.889c-.241.31-.575.555-1.001.735-.424.178-.91.266-1.456.266Zm0-1.13c.244 0 .457-.044.64-.131a1.05 1.05 0 0 0 .425-.37.974.974 0 0 0 .157-.546.987.987 0 0 0-.16-.558 1.1 1.1 0 0 0-.433-.383 1.344 1.344 0 0 0-.63-.142c-.234 0-.443.047-.628.142a1.09 1.09 0 0 0-.436.383.998.998 0 0 0-.157.558.99.99 0 0 0 .153.547c.102.156.245.279.43.369.184.087.397.131.639.131Zm0-3.25c.204 0 .385-.04.543-.123a.936.936 0 0 0 .373-.345.951.951 0 0 0 .135-.508.909.909 0 0 0-.504-.834 1.15 1.15 0 0 0-.547-.125c-.206 0-.388.042-.547.125a.918.918 0 0 0-.373.337.927.927 0 0 0-.131.497c0 .192.045.361.135.508.09.147.214.262.373.345.158.082.34.124.543.124Zm3.912 6.325v-7.5h1.492v.917h.067c.067-.147.163-.296.288-.448.128-.154.294-.281.497-.383.206-.105.462-.157.767-.157.398 0 .765.105 1.101.313.336.206.605.517.806.934.201.414.302.934.302 1.559 0 .608-.098 1.122-.295 1.541-.194.417-.46.733-.795.948-.334.213-.708.32-1.122.32a1.75 1.75 0 0 1-.75-.146 1.55 1.55 0 0 1-.5-.366 1.9 1.9 0 0 1-.299-.45h-.046v2.918h-1.513Zm1.481-4.772c0 .324.045.607.135.848.09.242.22.43.39.565a.982.982 0 0 0 .622.199.975.975 0 0 0 .625-.203c.17-.137.3-.326.387-.568a2.42 2.42 0 0 0 .135-.841 2.41 2.41 0 0 0-.131-.831 1.238 1.238 0 0 0-.387-.561.98.98 0 0 0-.629-.203 1 1 0 0 0-.625.196 1.22 1.22 0 0 0-.387.554c-.09.239-.135.52-.135.845Zm5.916-2.727 1.002 1.906 1.026-1.907h1.552l-1.58 2.728 1.623 2.727h-1.545l-1.076-1.886-1.058 1.886H25.77l1.62-2.727-1.563-2.727h1.562Z" fill="#fff"/><path stroke="#1745E8" d="M39 4.5h7m-7 47h7"/></svg>