<svg width="394" height="202" viewBox="0 0 394 202" fill="none" xmlns="http://www.w3.org/2000/svg"><path d="M85.177 77.17a.375.375 0 0 0-.353 0l-5.625 3a.375.375 0 0 0 0 .66L81.391 82l-2.193 1.17a.375.375 0 0 0 0 .66l5.625 3a.375.375 0 0 0 .353 0l5.625-3a.375.375 0 0 0 0-.66L88.61 82l2.192-1.17a.375.375 0 0 0 0-.66l-5.626-3Zm2.636 5.255 2.016 1.075L85 86.075 80.172 83.5l2.016-1.075 2.636 1.406a.375.375 0 0 0 .353 0l2.636-1.406Zm-2.813.65L80.172 80.5 85 77.925l4.83 2.575L85 83.075Zm31.324-3.365c-.046-.458-.241-.814-.585-1.068-.345-.254-.813-.38-1.404-.38-.401 0-.74.056-1.017.17-.276.11-.488.263-.636.46-.144.197-.216.42-.216.67a.952.952 0 0 0 .131.546c.098.155.233.29.403.403.17.11.367.207.591.29.223.08.462.148.716.205l1.045.25c.508.113.974.265 1.398.454.424.19.792.423 1.102.7.311.276.551.601.722.976.174.375.263.805.267 1.29-.004.712-.186 1.33-.546 1.852-.356.52-.871.923-1.545 1.21-.67.285-1.479.427-2.426.427-.94 0-1.758-.144-2.455-.432-.693-.288-1.235-.714-1.625-1.279-.386-.568-.589-1.27-.608-2.107h2.381c.027.39.138.716.335.977.201.257.468.453.801.585a3.18 3.18 0 0 0 1.142.193c.417 0 .779-.06 1.086-.181.31-.122.551-.29.721-.506.171-.216.256-.464.256-.745a.968.968 0 0 0-.233-.659c-.152-.178-.375-.33-.67-.454a6.842 6.842 0 0 0-1.074-.341l-1.267-.318c-.981-.239-1.756-.612-2.324-1.12-.568-.507-.851-1.19-.847-2.05-.004-.705.184-1.32.563-1.847.382-.527.907-.938 1.574-1.233.666-.296 1.424-.444 2.272-.444.864 0 1.618.148 2.262.444.647.295 1.151.706 1.511 1.233.36.526.545 1.136.557 1.83h-2.358Zm9.723 4.574v-5.011h2.42V88h-2.324v-1.585h-.09a2.58 2.58 0 0 1-.983 1.233c-.455.31-1.01.466-1.665.466-.584 0-1.097-.133-1.54-.398a2.735 2.735 0 0 1-1.04-1.13c-.246-.49-.371-1.075-.375-1.757v-5.556h2.421v5.125c.004.515.142.922.415 1.221.272.3.638.45 1.096.45.292 0 .564-.067.818-.2.254-.136.459-.337.614-.602.159-.265.237-.593.233-.983ZM130.449 88V76.364h2.42v4.375h.074c.106-.235.26-.474.46-.716.205-.246.47-.451.796-.614.329-.167.739-.25 1.227-.25.637 0 1.224.167 1.762.5.537.33.967.828 1.289 1.494.322.663.483 1.495.483 2.495 0 .973-.157 1.795-.471 2.466-.311.666-.735 1.172-1.273 1.517a3.268 3.268 0 0 1-1.796.511c-.469 0-.869-.078-1.198-.233a2.489 2.489 0 0 1-.802-.585 2.986 2.986 0 0 1-.477-.722h-.108V88h-2.386Zm2.369-4.364c0 .52.072.972.216 1.358.144.387.352.688.625.904.273.212.604.318.994.318.394 0 .728-.108 1-.324.273-.22.48-.523.62-.909.144-.39.216-.84.216-1.347 0-.503-.07-.947-.211-1.33-.14-.382-.346-.681-.619-.897-.273-.216-.608-.324-1.006-.324-.394 0-.727.104-1 .313-.269.208-.475.504-.619.886-.144.383-.216.833-.216 1.352ZM144.278 88v-8.727h2.307v1.54h.103c.181-.512.484-.915.909-1.21.424-.296.931-.444 1.522-.444.599 0 1.108.15 1.529.449.42.295.7.697.841 1.204h.091c.178-.5.5-.9.965-1.198.47-.303 1.025-.455 1.665-.455.815 0 1.476.26 1.983.778.512.516.767 1.247.767 2.194V88h-2.415v-5.392c0-.485-.128-.849-.386-1.091-.257-.242-.579-.364-.966-.364-.439 0-.782.14-1.028.42-.246.277-.37.643-.37 1.098V88h-2.346v-5.443c0-.428-.123-.77-.369-1.023-.243-.254-.563-.38-.961-.38-.269 0-.511.068-.727.204a1.4 1.4 0 0 0-.506.563 1.788 1.788 0 0 0-.187.84V88h-2.421Zm18.571.17c-.897 0-1.67-.181-2.318-.545a3.731 3.731 0 0 1-1.488-1.557c-.349-.674-.523-1.471-.523-2.392 0-.898.174-1.686.523-2.364a3.863 3.863 0 0 1 1.471-1.585c.637-.379 1.383-.568 2.239-.568.576 0 1.112.093 1.608.278.5.182.935.457 1.307.824.375.368.666.83.875 1.387.208.553.312 1.2.312 1.943v.665h-7.369v-1.5h5.091a1.85 1.85 0 0 0-.228-.927 1.622 1.622 0 0 0-.63-.63 1.799 1.799 0 0 0-.926-.233c-.368 0-.694.085-.978.256-.28.166-.5.392-.659.676-.159.28-.24.593-.244.937v1.426c0 .432.079.805.239 1.12.162.314.392.556.687.727.296.17.646.256 1.051.256.269 0 .515-.038.739-.114.223-.076.415-.19.574-.34.159-.152.28-.338.363-.558l2.239.148a3.063 3.063 0 0 1-.699 1.41c-.348.397-.799.707-1.352.93-.549.22-1.184.33-1.904.33Zm8.006-5.216V88h-2.42v-8.727h2.306v1.54h.103c.193-.508.517-.91.971-1.205.455-.3 1.006-.449 1.654-.449.606 0 1.134.133 1.585.398.451.265.801.644 1.051 1.136.25.489.375 1.072.375 1.75V88h-2.42v-5.125c.003-.534-.133-.95-.409-1.25-.277-.303-.658-.454-1.142-.454-.326 0-.614.07-.864.21-.246.14-.44.344-.58.613-.136.266-.206.585-.21.96Zm13.129 1.33v-5.011h2.421V88h-2.324v-1.585h-.091a2.58 2.58 0 0 1-.983 1.233c-.454.31-1.009.466-1.665.466-.583 0-1.096-.133-1.539-.398a2.729 2.729 0 0 1-1.04-1.13c-.246-.49-.371-1.075-.375-1.757v-5.556h2.42v5.125c.004.515.142.922.415 1.221.273.3.638.45 1.097.45.291 0 .564-.067.818-.2.254-.136.458-.337.613-.602.16-.265.237-.593.233-.983Z" fill="#5925DC"/><path fill-rule="evenodd" clip-rule="evenodd" d="M305.673 78.904a.466.466 0 0 1 .504-.1.466.466 0 0 1 .15.1l5.538 5.538a.464.464 0 0 1 0 .654.464.464 0 0 1-.654 0L306 79.884l-5.211 5.212a.462.462 0 0 1-.654-.654l5.538-5.538Z" fill="#5925DC"/><path d="M63 106V58h-4v48h4Z" fill="#5925DC"/><path d="M124.773 127.273a1.783 1.783 0 0 0-.83-1.341c-.485-.318-1.079-.477-1.784-.477-.515 0-.966.083-1.352.25a2.15 2.15 0 0 0-.898.687 1.649 1.649 0 0 0-.318.994c0 .311.074.578.221.802.152.219.345.403.58.551.235.144.481.263.739.358.257.09.494.164.71.221l1.182.318c.303.08.64.19 1.011.33.375.14.733.331 1.074.574.345.238.629.545.852.92.224.375.335.835.335 1.381 0 .629-.164 1.197-.494 1.704-.326.508-.803.911-1.432 1.211-.625.299-1.384.449-2.278.449-.833 0-1.555-.135-2.165-.404-.606-.269-1.083-.644-1.432-1.125a3.22 3.22 0 0 1-.585-1.676h1.455c.038.439.185.803.443 1.091.261.284.591.496.988.636.402.137.834.205 1.296.205.538 0 1.021-.087 1.449-.262.428-.178.767-.424 1.017-.738.25-.318.375-.69.375-1.114 0-.386-.108-.701-.324-.943a2.39 2.39 0 0 0-.852-.591 9.14 9.14 0 0 0-1.142-.398l-1.432-.409c-.909-.261-1.629-.634-2.159-1.119-.531-.485-.796-1.119-.796-1.903 0-.652.176-1.22.529-1.705a3.503 3.503 0 0 1 1.432-1.136c.602-.273 1.274-.409 2.017-.409.75 0 1.416.134 2 .403.583.265 1.045.629 1.386 1.091.345.462.526.987.545 1.574h-1.363Zm9.157 5.159v-5.159h1.341V136h-1.341v-1.477h-.091c-.204.443-.522.82-.954 1.13-.432.307-.977.461-1.636.461-.546 0-1.031-.12-1.455-.358-.424-.243-.758-.606-1-1.091-.242-.489-.364-1.104-.364-1.847v-5.545h1.341v5.454c0 .637.178 1.144.534 1.523.36.379.819.568 1.375.568.334 0 .673-.085 1.017-.256.349-.17.641-.431.875-.784.239-.352.358-.801.358-1.346Zm3.979 3.568v-11.636h1.341v4.295h.114c.098-.151.234-.345.409-.579.178-.239.432-.451.761-.637.333-.189.784-.284 1.352-.284.735 0 1.383.184 1.944.551.56.368.998.888 1.312 1.563.314.674.472 1.469.472 2.386 0 .924-.158 1.725-.472 2.403-.314.675-.75 1.197-1.307 1.569-.557.367-1.199.551-1.926.551-.561 0-1.009-.093-1.347-.279-.337-.189-.596-.403-.778-.642a8.279 8.279 0 0 1-.42-.602h-.159V136h-1.296Zm1.318-4.364c0 .659.097 1.241.29 1.745.193.5.475.892.847 1.176.371.28.825.42 1.363.42.561 0 1.029-.147 1.404-.443.378-.299.663-.701.852-1.204.193-.508.29-1.072.29-1.694 0-.613-.095-1.166-.284-1.659-.186-.496-.468-.888-.847-1.176-.375-.292-.847-.437-1.415-.437-.545 0-1.004.138-1.375.414-.371.273-.651.656-.841 1.148-.189.489-.284 1.059-.284 1.71ZM152.165 136v-8.727h1.295v1.363h.114c.182-.466.475-.827.881-1.085.405-.261.892-.392 1.46-.392.576 0 1.055.131 1.437.392.387.258.688.619.904 1.085h.091c.223-.45.558-.808 1.005-1.074.447-.268.983-.403 1.608-.403.781 0 1.419.244 1.915.733.496.485.744 1.241.744 2.267V136h-1.341v-5.841c0-.644-.176-1.104-.528-1.381a1.957 1.957 0 0 0-1.244-.414c-.614 0-1.089.185-1.426.556-.338.368-.506.834-.506 1.398V136h-1.364v-5.977c0-.496-.161-.896-.483-1.199-.322-.307-.736-.46-1.244-.46-.349 0-.674.092-.977.278-.3.186-.542.443-.728.773a2.288 2.288 0 0 0-.272 1.13V136h-1.341Zm17.565.182c-.841 0-1.566-.186-2.176-.557a3.736 3.736 0 0 1-1.403-1.568c-.326-.674-.489-1.459-.489-2.352 0-.894.163-1.682.489-2.364.329-.686.787-1.22 1.375-1.602.59-.387 1.28-.58 2.068-.58.454 0 .903.076 1.346.227.444.152.847.398 1.211.739.363.337.653.784.869 1.341.216.557.324 1.242.324 2.057v.568h-6.728v-1.159h5.364c0-.493-.098-.932-.295-1.318a2.226 2.226 0 0 0-.83-.915c-.356-.224-.776-.335-1.261-.335-.534 0-.996.132-1.387.397a2.633 2.633 0 0 0-.892 1.023 3.01 3.01 0 0 0-.312 1.352v.773c0 .659.113 1.218.341 1.676.231.455.551.801.96 1.04.409.235.884.352 1.426.352.352 0 .671-.049.955-.147.288-.103.536-.254.744-.455.208-.205.369-.458.483-.761l1.295.363a2.86 2.86 0 0 1-.687 1.159c-.322.33-.72.587-1.193.773a4.425 4.425 0 0 1-1.597.273Zm6.994-5.432V136h-1.34v-8.727h1.295v1.363h.114c.204-.443.515-.799.931-1.068.417-.273.955-.409 1.614-.409.591 0 1.108.121 1.551.364.443.238.788.602 1.034 1.091.247.484.37 1.098.37 1.841V136h-1.341v-5.455c0-.685-.178-1.219-.534-1.602-.356-.386-.845-.579-1.466-.579-.428 0-.811.092-1.148.278a1.992 1.992 0 0 0-.79.813c-.193.356-.29.787-.29 1.295Zm13.519 1.682v-5.159h1.341V136h-1.341v-1.477h-.091c-.205.443-.523.82-.955 1.13-.431.307-.977.461-1.636.461a2.92 2.92 0 0 1-1.454-.358c-.425-.243-.758-.606-1-1.091-.243-.489-.364-1.104-.364-1.847v-5.545h1.341v5.454c0 .637.178 1.144.534 1.523.36.379.818.568 1.375.568.333 0 .672-.085 1.017-.256.348-.17.64-.431.875-.784.239-.352.358-.801.358-1.346Zm12.365-8.068V136h-1.409v-10.159h-.068l-2.841 1.886v-1.432l2.909-1.931h1.409Zm-77.835 50.909a1.783 1.783 0 0 0-.83-1.341c-.485-.318-1.079-.477-1.784-.477-.515 0-.966.083-1.352.25a2.15 2.15 0 0 0-.898.687 1.649 1.649 0 0 0-.318.994c0 .311.074.578.221.802.152.219.345.403.58.551.235.144.481.263.739.358.257.09.494.164.71.221l1.182.318c.303.08.64.19 1.011.33.375.14.733.331 1.074.574.345.238.629.545.852.92.224.375.335.835.335 1.381 0 .629-.164 1.197-.494 1.704-.326.508-.803.911-1.432 1.211-.625.299-1.384.449-2.278.449-.833 0-1.555-.135-2.165-.404-.606-.269-1.083-.644-1.432-1.125a3.22 3.22 0 0 1-.585-1.676h1.455c.038.439.185.803.443 1.091.261.284.591.496.988.636.402.137.834.205 1.296.205.538 0 1.021-.087 1.449-.262.428-.178.767-.424 1.017-.738.25-.318.375-.69.375-1.114 0-.386-.108-.701-.324-.943a2.39 2.39 0 0 0-.852-.591 9.14 9.14 0 0 0-1.142-.398l-1.432-.409c-.909-.261-1.629-.634-2.159-1.119-.531-.485-.796-1.119-.796-1.903 0-.652.176-1.22.529-1.705a3.503 3.503 0 0 1 1.432-1.136c.602-.273 1.274-.409 2.017-.409.75 0 1.416.134 2 .403.583.265 1.045.629 1.386 1.091.345.462.526.987.545 1.574h-1.363Zm9.157 5.159v-5.159h1.341V184h-1.341v-1.477h-.091c-.204.443-.522.82-.954 1.13-.432.307-.977.461-1.636.461-.546 0-1.031-.12-1.455-.358-.424-.243-.758-.606-1-1.091-.242-.489-.364-1.104-.364-1.847v-5.545h1.341v5.454c0 .637.178 1.144.534 1.523.36.379.819.568 1.375.568.334 0 .673-.085 1.017-.256.349-.17.641-.431.875-.784.239-.352.358-.801.358-1.346Zm3.979 3.568v-11.636h1.341v4.295h.114c.098-.151.234-.345.409-.579.178-.239.432-.451.761-.637.333-.189.784-.284 1.352-.284.735 0 1.383.184 1.944.551.56.368.998.888 1.312 1.563.314.674.472 1.469.472 2.386 0 .924-.158 1.725-.472 2.403-.314.675-.75 1.197-1.307 1.569-.557.367-1.199.551-1.926.551-.561 0-1.009-.093-1.347-.279-.337-.189-.596-.403-.778-.642a8.279 8.279 0 0 1-.42-.602h-.159V184h-1.296Zm1.318-4.364c0 .659.097 1.241.29 1.745.193.5.475.892.847 1.176.371.28.825.42 1.363.42.561 0 1.029-.147 1.404-.443.378-.299.663-.701.852-1.204.193-.508.29-1.072.29-1.694 0-.613-.095-1.166-.284-1.659-.186-.496-.468-.888-.847-1.176-.375-.292-.847-.437-1.415-.437-.545 0-1.004.138-1.375.414-.371.273-.651.656-.841 1.148-.189.489-.284 1.059-.284 1.71ZM152.165 184v-8.727h1.295v1.363h.114c.182-.466.475-.827.881-1.085.405-.261.892-.392 1.46-.392.576 0 1.055.131 1.437.392.387.258.688.619.904 1.085h.091c.223-.45.558-.808 1.005-1.074.447-.268.983-.403 1.608-.403.781 0 1.419.244 1.915.733.496.485.744 1.241.744 2.267V184h-1.341v-5.841c0-.644-.176-1.104-.528-1.381a1.957 1.957 0 0 0-1.244-.414c-.614 0-1.089.185-1.426.556-.338.368-.506.834-.506 1.398V184h-1.364v-5.977c0-.496-.161-.896-.483-1.199-.322-.307-.736-.46-1.244-.46-.349 0-.674.092-.977.278-.3.186-.542.443-.728.773a2.288 2.288 0 0 0-.272 1.13V184h-1.341Zm17.565.182c-.841 0-1.566-.186-2.176-.557a3.736 3.736 0 0 1-1.403-1.568c-.326-.674-.489-1.459-.489-2.352 0-.894.163-1.682.489-2.364.329-.686.787-1.22 1.375-1.602.59-.387 1.28-.58 2.068-.58.454 0 .903.076 1.346.227.444.152.847.398 1.211.739.363.337.653.784.869 1.341.216.557.324 1.242.324 2.057v.568h-6.728v-1.159h5.364c0-.493-.098-.932-.295-1.318a2.226 2.226 0 0 0-.83-.915c-.356-.224-.776-.335-1.261-.335-.534 0-.996.132-1.387.397a2.633 2.633 0 0 0-.892 1.023 3.01 3.01 0 0 0-.312 1.352v.773c0 .659.113 1.218.341 1.676.231.455.551.801.96 1.04.409.235.884.352 1.426.352.352 0 .671-.049.955-.147.288-.103.536-.254.744-.455.208-.205.369-.458.483-.761l1.295.363a2.86 2.86 0 0 1-.687 1.159c-.322.33-.72.587-1.193.773a4.425 4.425 0 0 1-1.597.273Zm6.994-5.432V184h-1.34v-8.727h1.295v1.363h.114c.204-.443.515-.799.931-1.068.417-.273.955-.409 1.614-.409.591 0 1.108.121 1.551.364.443.238.788.602 1.034 1.091.247.484.37 1.098.37 1.841V184h-1.341v-5.455c0-.685-.178-1.219-.534-1.602-.356-.386-.845-.579-1.466-.579-.428 0-.811.092-1.148.278a1.992 1.992 0 0 0-.79.813c-.193.356-.29.787-.29 1.295Zm13.519 1.682v-5.159h1.341V184h-1.341v-1.477h-.091c-.205.443-.523.82-.955 1.13-.431.307-.977.461-1.636.461a2.92 2.92 0 0 1-1.454-.358c-.425-.243-.758-.606-1-1.091-.243-.489-.364-1.104-.364-1.847v-5.545h1.341v5.454c0 .637.178 1.144.534 1.523.36.379.818.568 1.375.568.333 0 .672-.085 1.017-.256.348-.17.64-.431.875-.784.239-.352.358-.801.358-1.346Zm8.274 3.568v-1.023l3.841-4.204c.451-.493.822-.921 1.114-1.284a4.78 4.78 0 0 0 .647-1.034c.144-.326.216-.667.216-1.023 0-.409-.098-.763-.295-1.063a1.92 1.92 0 0 0-.796-.693 2.576 2.576 0 0 0-1.136-.244c-.447 0-.837.093-1.17.278-.33.182-.586.438-.768.767-.178.33-.267.716-.267 1.159h-1.341c0-.681.158-1.28.472-1.795a3.281 3.281 0 0 1 1.284-1.205c.546-.288 1.157-.431 1.835-.431.682 0 1.286.143 1.813.431.526.288.939.676 1.239 1.165.299.489.448 1.032.448 1.631 0 .428-.077.846-.233 1.256-.151.405-.416.857-.795 1.357-.375.497-.896 1.103-1.563 1.819l-2.613 2.795v.091h5.409V184h-7.341Z" fill="#344054"/><circle cx="168" cy="17" r="12" fill="#344054"/><path d="M163.943 22v-1.773l4.142-3.835c.353-.34.648-.648.887-.92.242-.273.426-.54.551-.801.125-.266.187-.552.187-.858a1.61 1.61 0 0 0-.233-.881 1.526 1.526 0 0 0-.636-.574 1.995 1.995 0 0 0-.915-.205c-.356 0-.667.072-.932.216-.265.144-.469.35-.613.62-.144.269-.216.589-.216.96h-2.335c0-.761.172-1.422.517-1.983.344-.56.827-.994 1.448-1.301.622-.307 1.338-.46 2.148-.46.834 0 1.559.147 2.176.443.622.291 1.104.697 1.449 1.216s.517 1.113.517 1.784c0 .44-.087.873-.261 1.3-.171.429-.476.904-.915 1.427-.439.519-1.059 1.142-1.858 1.87l-1.699 1.664v.08h4.887V22h-8.296Z" fill="#fff"/><path d="M168 29v34" stroke="#344054" stroke-dasharray="2 2"/><circle cx="382" cy="82" r="12" fill="#344054"/><path d="M382.244 88.16c-.848 0-1.604-.147-2.267-.438-.659-.296-1.18-.701-1.562-1.216a3.052 3.052 0 0 1-.585-1.796h2.477c.015.284.108.534.278.75.174.212.406.377.693.495.288.117.612.176.972.176.375 0 .706-.067.994-.2.288-.132.514-.316.676-.55a1.39 1.39 0 0 0 .245-.813c0-.31-.087-.585-.262-.824a1.666 1.666 0 0 0-.738-.568c-.318-.136-.697-.204-1.137-.204h-1.085v-1.807h1.085c.372 0 .699-.065.983-.193.288-.13.512-.307.671-.534.159-.232.238-.5.238-.807a1.396 1.396 0 0 0-.789-1.29 1.887 1.887 0 0 0-.864-.188c-.333 0-.638.061-.915.182a1.596 1.596 0 0 0-.664.506c-.167.22-.256.477-.268.773h-2.358c.012-.67.203-1.262.574-1.773.372-.511.872-.911 1.5-1.199.633-.292 1.347-.438 2.142-.438.803 0 1.506.146 2.108.438.603.292 1.07.686 1.404 1.182.337.492.504 1.045.5 1.659.004.651-.199 1.195-.608 1.63-.405.436-.934.713-1.585.83v.091c.856.11 1.507.407 1.954.892.451.481.674 1.084.671 1.807a2.846 2.846 0 0 1-.574 1.767c-.383.515-.911.92-1.586 1.216-.674.295-1.446.443-2.318.443Z" fill="#fff"/><path d="M322 82h53" stroke="#344054" stroke-dasharray="2 2"/><circle cx="307" cy="130" r="12" fill="#344054"/><path d="M301.767 133.955v-1.938l4.858-7.653h1.67v2.681h-.988l-3.063 4.847v.091h6.904v1.972h-9.381Zm5.585 2.045v-2.636l.046-.858v-8.142h2.307V136h-2.353Z" fill="#fff"/><path d="M247 130h53" stroke="#344054" stroke-dasharray="2 2"/><circle cx="12" cy="82" r="12" fill="#344054"/><path d="M14.006 76.364V88h-2.46v-9.301h-.069l-2.665 1.67v-2.181l2.881-1.824h2.313Z" fill="#fff"/><path d="M25 82h33" stroke="#344054" stroke-dasharray="2 2"/></svg>