<svg width="367" height="208" viewBox="0 0 367 208" fill="none" xmlns="http://www.w3.org/2000/svg">
<rect width="301" height="176" transform="translate(43 13)" fill="#F7F7F9"/>
<path d="M83.1765 48.1692C83.1223 48.1403 83.0617 48.1252 83.0003 48.1252C82.9388 48.1252 82.8783 48.1403 82.824 48.1692L77.199 51.1692C77.1391 51.2012 77.089 51.2488 77.0541 51.3071C77.0192 51.3654 77.0008 51.432 77.0008 51.4999C77.0008 51.5678 77.0192 51.6345 77.0541 51.6927C77.089 51.751 77.1391 51.7987 77.199 51.8307L79.3913 52.9999L77.1983 54.1692C77.1384 54.2012 77.0883 54.2488 77.0534 54.3071C77.0184 54.3654 77 54.432 77 54.4999C77 54.5678 77.0184 54.6345 77.0534 54.6927C77.0883 54.751 77.1384 54.7987 77.1983 54.8307L82.8233 57.8307C82.8775 57.8596 82.9381 57.8747 82.9995 57.8747C83.061 57.8747 83.1215 57.8596 83.1758 57.8307L88.8008 54.8307C88.8607 54.7987 88.9108 54.751 88.9457 54.6927C88.9806 54.6345 88.9991 54.5678 88.9991 54.4999C88.9991 54.432 88.9806 54.3654 88.9457 54.3071C88.9108 54.2488 88.8607 54.2012 88.8008 54.1692L86.61 52.9999L88.8015 51.8307C88.8614 51.7987 88.9115 51.751 88.9464 51.6927C88.9814 51.6345 88.9998 51.5678 88.9998 51.4999C88.9998 51.432 88.9814 51.3654 88.9464 51.3071C88.9115 51.2488 88.8614 51.2012 88.8015 51.1692L83.1765 48.1692ZM85.8128 53.4252L87.8288 54.4999L83.0003 57.0747L78.1718 54.4999L80.1878 53.4252L82.824 54.8307C82.8783 54.8596 82.9388 54.8747 83.0003 54.8747C83.0617 54.8747 83.1223 54.8596 83.1765 54.8307L85.8128 53.4252ZM83.0003 54.0747L78.1718 51.4999L83.0003 48.9252L87.8288 51.4999L83.0003 54.0747Z" fill="#5925DC"/>
<path d="M114.324 50.7102C114.278 50.2519 114.083 49.8958 113.739 49.642C113.394 49.3883 112.926 49.2614 112.335 49.2614C111.934 49.2614 111.595 49.3182 111.318 49.4318C111.042 49.5417 110.83 49.6951 110.682 49.892C110.538 50.089 110.466 50.3125 110.466 50.5625C110.458 50.7708 110.502 50.9527 110.597 51.108C110.695 51.2633 110.83 51.3977 111 51.5114C111.17 51.6212 111.367 51.7178 111.591 51.8011C111.814 51.8807 112.053 51.9489 112.307 52.0057L113.352 52.2557C113.86 52.3693 114.326 52.5208 114.75 52.7102C115.174 52.8996 115.542 53.1326 115.852 53.4091C116.163 53.6856 116.403 54.0114 116.574 54.3864C116.748 54.7614 116.837 55.1913 116.841 55.6761C116.837 56.3883 116.655 57.0057 116.295 57.5284C115.939 58.0473 115.424 58.4508 114.75 58.7386C114.08 59.0227 113.271 59.1648 112.324 59.1648C111.384 59.1648 110.566 59.0208 109.869 58.733C109.176 58.4451 108.634 58.0189 108.244 57.4545C107.858 56.8864 107.655 56.1837 107.636 55.3466H110.017C110.044 55.7367 110.155 56.0625 110.352 56.3239C110.553 56.5814 110.82 56.7765 111.153 56.9091C111.491 57.0379 111.871 57.1023 112.295 57.1023C112.712 57.1023 113.074 57.0417 113.381 56.9205C113.691 56.7992 113.932 56.6307 114.102 56.4148C114.273 56.1989 114.358 55.9508 114.358 55.6705C114.358 55.4091 114.28 55.1894 114.125 55.0114C113.973 54.8333 113.75 54.6818 113.455 54.5568C113.163 54.4318 112.805 54.3182 112.381 54.2159L111.114 53.8977C110.133 53.6591 109.358 53.286 108.79 52.7784C108.222 52.2708 107.939 51.5871 107.943 50.7273C107.939 50.0227 108.127 49.4072 108.506 48.8807C108.888 48.3542 109.413 47.9432 110.08 47.6477C110.746 47.3523 111.504 47.2045 112.352 47.2045C113.216 47.2045 113.97 47.3523 114.614 47.6477C115.261 47.9432 115.765 48.3542 116.125 48.8807C116.485 49.4072 116.67 50.017 116.682 50.7102H114.324ZM124.047 55.2841V50.2727H126.467V59H124.143V57.4148H124.053C123.856 57.9261 123.528 58.3371 123.07 58.6477C122.615 58.9583 122.06 59.1136 121.405 59.1136C120.821 59.1136 120.308 58.9811 119.865 58.7159C119.422 58.4508 119.075 58.0739 118.825 57.5852C118.579 57.0966 118.454 56.5114 118.45 55.8295V50.2727H120.871V55.3977C120.875 55.9129 121.013 56.3201 121.286 56.6193C121.558 56.9186 121.924 57.0682 122.382 57.0682C122.674 57.0682 122.946 57.0019 123.2 56.8693C123.454 56.733 123.659 56.5322 123.814 56.267C123.973 56.0019 124.051 55.6742 124.047 55.2841ZM128.449 59V47.3636H130.869V51.7386H130.943C131.049 51.5038 131.203 51.2652 131.403 51.0227C131.608 50.7765 131.873 50.572 132.199 50.4091C132.528 50.2424 132.938 50.1591 133.426 50.1591C134.063 50.1591 134.65 50.3258 135.188 50.6591C135.725 50.9886 136.155 51.4867 136.477 52.1534C136.799 52.8163 136.96 53.6477 136.96 54.6477C136.96 55.6212 136.803 56.4432 136.489 57.1136C136.178 57.7803 135.754 58.286 135.216 58.6307C134.682 58.9716 134.083 59.142 133.42 59.142C132.951 59.142 132.551 59.0644 132.222 58.9091C131.896 58.7538 131.629 58.5587 131.42 58.3239C131.212 58.0852 131.053 57.8447 130.943 57.6023H130.835V59H128.449ZM130.818 54.6364C130.818 55.1553 130.89 55.608 131.034 55.9943C131.178 56.3807 131.386 56.6818 131.659 56.8977C131.932 57.1098 132.263 57.2159 132.653 57.2159C133.047 57.2159 133.381 57.108 133.653 56.892C133.926 56.6723 134.133 56.3693 134.273 55.983C134.417 55.5928 134.489 55.1439 134.489 54.6364C134.489 54.1326 134.419 53.6894 134.278 53.3068C134.138 52.9242 133.932 52.625 133.659 52.4091C133.386 52.1932 133.051 52.0852 132.653 52.0852C132.259 52.0852 131.926 52.1894 131.653 52.3977C131.384 52.6061 131.178 52.9015 131.034 53.2841C130.89 53.6667 130.818 54.1174 130.818 54.6364ZM142.278 59V50.2727H144.585V51.8125H144.688C144.869 51.3011 145.172 50.8977 145.597 50.6023C146.021 50.3068 146.528 50.1591 147.119 50.1591C147.718 50.1591 148.227 50.3087 148.648 50.608C149.068 50.9034 149.348 51.3049 149.489 51.8125H149.58C149.758 51.3125 150.08 50.9129 150.545 50.6136C151.015 50.3106 151.57 50.1591 152.21 50.1591C153.025 50.1591 153.686 50.4186 154.193 50.9375C154.705 51.4527 154.96 52.1837 154.96 53.1307V59H152.545V53.608C152.545 53.1231 152.417 52.7595 152.159 52.517C151.902 52.2746 151.58 52.1534 151.193 52.1534C150.754 52.1534 150.411 52.2936 150.165 52.5739C149.919 52.8504 149.795 53.2159 149.795 53.6705V59H147.449V53.5568C147.449 53.1288 147.326 52.7879 147.08 52.5341C146.837 52.2803 146.517 52.1534 146.119 52.1534C145.85 52.1534 145.608 52.2216 145.392 52.358C145.18 52.4905 145.011 52.678 144.886 52.9205C144.761 53.1591 144.699 53.4394 144.699 53.7614V59H142.278ZM160.849 59.1705C159.952 59.1705 159.179 58.9886 158.531 58.625C157.887 58.2576 157.391 57.7386 157.043 57.0682C156.694 56.3939 156.52 55.5966 156.52 54.6761C156.52 53.7784 156.694 52.9905 157.043 52.3125C157.391 51.6345 157.882 51.1061 158.514 50.7273C159.151 50.3485 159.897 50.1591 160.753 50.1591C161.329 50.1591 161.865 50.2519 162.361 50.4375C162.861 50.6193 163.296 50.8939 163.668 51.2614C164.043 51.6288 164.334 52.0909 164.543 52.6477C164.751 53.2008 164.855 53.8485 164.855 54.5909V55.2557H157.486V53.7557H162.577C162.577 53.4072 162.501 53.0985 162.349 52.8295C162.198 52.5606 161.988 52.3504 161.719 52.1989C161.454 52.0436 161.145 51.9659 160.793 51.9659C160.425 51.9659 160.099 52.0511 159.815 52.2216C159.535 52.3883 159.315 52.6136 159.156 52.8977C158.997 53.178 158.916 53.4905 158.912 53.8352V55.2614C158.912 55.6932 158.991 56.0663 159.151 56.3807C159.313 56.6951 159.543 56.9375 159.838 57.108C160.134 57.2784 160.484 57.3636 160.889 57.3636C161.158 57.3636 161.404 57.3258 161.628 57.25C161.851 57.1742 162.043 57.0606 162.202 56.9091C162.361 56.7576 162.482 56.572 162.565 56.3523L164.804 56.5C164.69 57.0379 164.457 57.5076 164.105 57.9091C163.757 58.3068 163.306 58.6174 162.753 58.8409C162.204 59.0606 161.569 59.1705 160.849 59.1705ZM168.855 53.9545V59H166.435V50.2727H168.741V51.8125H168.844C169.037 51.3049 169.361 50.9034 169.815 50.608C170.27 50.3087 170.821 50.1591 171.469 50.1591C172.075 50.1591 172.603 50.2917 173.054 50.5568C173.505 50.822 173.855 51.2008 174.105 51.6932C174.355 52.1818 174.48 52.7652 174.48 53.4432V59H172.06V53.875C172.063 53.3409 171.927 52.9242 171.651 52.625C171.374 52.322 170.993 52.1705 170.509 52.1705C170.183 52.1705 169.895 52.2405 169.645 52.3807C169.399 52.5208 169.205 52.7254 169.065 52.9943C168.929 53.2595 168.859 53.5795 168.855 53.9545ZM181.984 55.2841V50.2727H184.405V59H182.081V57.4148H181.99C181.793 57.9261 181.465 58.3371 181.007 58.6477C180.553 58.9583 179.998 59.1136 179.342 59.1136C178.759 59.1136 178.246 58.9811 177.803 58.7159C177.359 58.4508 177.013 58.0739 176.763 57.5852C176.517 57.0966 176.392 56.5114 176.388 55.8295V50.2727H178.808V55.3977C178.812 55.9129 178.95 56.3201 179.223 56.6193C179.496 56.9186 179.861 57.0682 180.32 57.0682C180.611 57.0682 180.884 57.0019 181.138 56.8693C181.392 56.733 181.596 56.5322 181.751 56.267C181.911 56.0019 181.988 55.6742 181.984 55.2841Z" fill="#5925DC"/>
<path fill-rule="evenodd" clip-rule="evenodd" d="M303.673 49.9044C303.716 49.8614 303.767 49.8274 303.823 49.8041C303.879 49.7808 303.939 49.7688 304 49.7688C304.061 49.7688 304.121 49.7808 304.177 49.8041C304.233 49.8274 304.284 49.8614 304.327 49.9044L309.865 55.4423C309.951 55.529 310 55.6465 310 55.7691C310 55.8916 309.951 56.0092 309.865 56.0958C309.778 56.1825 309.66 56.2312 309.538 56.2312C309.415 56.2312 309.298 56.1825 309.211 56.0958L304 50.8837L298.789 56.0958C298.702 56.1825 298.585 56.2312 298.462 56.2312C298.34 56.2312 298.222 56.1825 298.135 56.0958C298.049 56.0092 298 55.8916 298 55.7691C298 55.6465 298.049 55.529 298.135 55.4423L303.673 49.9044Z" fill="#5925DC"/>
<path d="M61 77V29H57V77H61Z" fill="#5925DC"/>
<path d="M122.773 98.2727C122.705 97.697 122.428 97.25 121.943 96.9318C121.458 96.6136 120.864 96.4545 120.159 96.4545C119.644 96.4545 119.193 96.5379 118.807 96.7045C118.424 96.8712 118.125 97.1004 117.909 97.392C117.697 97.6837 117.591 98.0152 117.591 98.3864C117.591 98.697 117.665 98.964 117.812 99.1875C117.964 99.4072 118.157 99.5909 118.392 99.7386C118.627 99.8826 118.873 100.002 119.131 100.097C119.388 100.187 119.625 100.261 119.841 100.318L121.023 100.636C121.326 100.716 121.663 100.826 122.034 100.966C122.409 101.106 122.767 101.297 123.108 101.54C123.453 101.778 123.737 102.085 123.96 102.46C124.184 102.835 124.295 103.295 124.295 103.841C124.295 104.47 124.131 105.038 123.801 105.545C123.475 106.053 122.998 106.456 122.369 106.756C121.744 107.055 120.985 107.205 120.091 107.205C119.258 107.205 118.536 107.07 117.926 106.801C117.32 106.532 116.843 106.157 116.494 105.676C116.15 105.195 115.955 104.636 115.909 104H117.364C117.402 104.439 117.549 104.803 117.807 105.091C118.068 105.375 118.398 105.587 118.795 105.727C119.197 105.864 119.629 105.932 120.091 105.932C120.629 105.932 121.112 105.845 121.54 105.67C121.968 105.492 122.307 105.246 122.557 104.932C122.807 104.614 122.932 104.242 122.932 103.818C122.932 103.432 122.824 103.117 122.608 102.875C122.392 102.633 122.108 102.436 121.756 102.284C121.403 102.133 121.023 102 120.614 101.886L119.182 101.477C118.273 101.216 117.553 100.843 117.023 100.358C116.492 99.8731 116.227 99.2386 116.227 98.4545C116.227 97.803 116.403 97.2348 116.756 96.75C117.112 96.2614 117.589 95.8826 118.188 95.6136C118.79 95.3409 119.462 95.2045 120.205 95.2045C120.955 95.2045 121.621 95.339 122.205 95.608C122.788 95.8731 123.25 96.2367 123.591 96.6989C123.936 97.161 124.117 97.6856 124.136 98.2727H122.773ZM131.93 103.432V98.2727H133.271V107H131.93V105.523H131.839C131.635 105.966 131.317 106.343 130.885 106.653C130.453 106.96 129.908 107.114 129.249 107.114C128.703 107.114 128.218 106.994 127.794 106.756C127.37 106.513 127.036 106.15 126.794 105.665C126.552 105.176 126.43 104.561 126.43 103.818V98.2727H127.771V103.727C127.771 104.364 127.949 104.871 128.305 105.25C128.665 105.629 129.124 105.818 129.68 105.818C130.014 105.818 130.353 105.733 130.697 105.562C131.046 105.392 131.338 105.131 131.572 104.778C131.811 104.426 131.93 103.977 131.93 103.432ZM135.909 107V95.3636H137.25V99.6591H137.364C137.462 99.5076 137.598 99.3144 137.773 99.0795C137.951 98.8409 138.205 98.6288 138.534 98.4432C138.867 98.2538 139.318 98.1591 139.886 98.1591C140.621 98.1591 141.269 98.3428 141.83 98.7102C142.39 99.0777 142.828 99.5985 143.142 100.273C143.456 100.947 143.614 101.742 143.614 102.659C143.614 103.583 143.456 104.384 143.142 105.062C142.828 105.737 142.392 106.259 141.835 106.631C141.278 106.998 140.636 107.182 139.909 107.182C139.348 107.182 138.9 107.089 138.562 106.903C138.225 106.714 137.966 106.5 137.784 106.261C137.602 106.019 137.462 105.818 137.364 105.659H137.205V107H135.909ZM137.227 102.636C137.227 103.295 137.324 103.877 137.517 104.381C137.71 104.881 137.992 105.273 138.364 105.557C138.735 105.837 139.189 105.977 139.727 105.977C140.288 105.977 140.756 105.83 141.131 105.534C141.509 105.235 141.794 104.833 141.983 104.33C142.176 103.822 142.273 103.258 142.273 102.636C142.273 102.023 142.178 101.47 141.989 100.977C141.803 100.481 141.521 100.089 141.142 99.8011C140.767 99.5095 140.295 99.3636 139.727 99.3636C139.182 99.3636 138.723 99.5019 138.352 99.7784C137.981 100.051 137.701 100.434 137.511 100.926C137.322 101.415 137.227 101.985 137.227 102.636ZM150.165 107V98.2727H151.46V99.6364H151.574C151.756 99.1705 152.049 98.8087 152.455 98.5511C152.86 98.2898 153.347 98.1591 153.915 98.1591C154.491 98.1591 154.97 98.2898 155.352 98.5511C155.739 98.8087 156.04 99.1705 156.256 99.6364H156.347C156.57 99.1856 156.905 98.8277 157.352 98.5625C157.799 98.2936 158.335 98.1591 158.96 98.1591C159.741 98.1591 160.379 98.4034 160.875 98.892C161.371 99.3769 161.619 100.133 161.619 101.159V107H160.278V101.159C160.278 100.515 160.102 100.055 159.75 99.7784C159.398 99.5019 158.983 99.3636 158.506 99.3636C157.892 99.3636 157.417 99.5492 157.08 99.9205C156.742 100.288 156.574 100.754 156.574 101.318V107H155.21V101.023C155.21 100.527 155.049 100.127 154.727 99.8239C154.405 99.517 153.991 99.3636 153.483 99.3636C153.134 99.3636 152.809 99.4564 152.506 99.642C152.206 99.8277 151.964 100.085 151.778 100.415C151.597 100.741 151.506 101.117 151.506 101.545V107H150.165ZM167.73 107.182C166.889 107.182 166.164 106.996 165.554 106.625C164.948 106.25 164.48 105.727 164.151 105.057C163.825 104.383 163.662 103.598 163.662 102.705C163.662 101.811 163.825 101.023 164.151 100.341C164.48 99.6553 164.938 99.1212 165.526 98.7386C166.116 98.3523 166.806 98.1591 167.594 98.1591C168.048 98.1591 168.497 98.2348 168.94 98.3864C169.384 98.5379 169.787 98.7841 170.151 99.125C170.514 99.4621 170.804 99.9091 171.02 100.466C171.236 101.023 171.344 101.708 171.344 102.523V103.091H164.616V101.932H169.98C169.98 101.439 169.882 101 169.685 100.614C169.491 100.227 169.215 99.9223 168.855 99.6989C168.499 99.4754 168.079 99.3636 167.594 99.3636C167.06 99.3636 166.598 99.4962 166.207 99.7614C165.821 100.023 165.524 100.364 165.315 100.784C165.107 101.205 165.003 101.655 165.003 102.136V102.909C165.003 103.568 165.116 104.127 165.344 104.585C165.575 105.04 165.895 105.386 166.304 105.625C166.713 105.86 167.188 105.977 167.73 105.977C168.082 105.977 168.401 105.928 168.685 105.83C168.973 105.727 169.221 105.576 169.429 105.375C169.637 105.17 169.798 104.917 169.912 104.614L171.207 104.977C171.071 105.417 170.842 105.803 170.52 106.136C170.198 106.466 169.8 106.723 169.327 106.909C168.853 107.091 168.321 107.182 167.73 107.182ZM174.724 101.75V107H173.384V98.2727H174.679V99.6364H174.793C174.997 99.1932 175.308 98.8371 175.724 98.5682C176.141 98.2955 176.679 98.1591 177.338 98.1591C177.929 98.1591 178.446 98.2803 178.889 98.5227C179.332 98.7614 179.677 99.125 179.923 99.6136C180.17 100.098 180.293 100.712 180.293 101.455V107H178.952V101.545C178.952 100.86 178.774 100.326 178.418 99.9432C178.062 99.5568 177.573 99.3636 176.952 99.3636C176.524 99.3636 176.141 99.4564 175.804 99.642C175.471 99.8277 175.207 100.098 175.014 100.455C174.821 100.811 174.724 101.242 174.724 101.75ZM188.243 103.432V98.2727H189.584V107H188.243V105.523H188.152C187.947 105.966 187.629 106.343 187.197 106.653C186.766 106.96 186.22 107.114 185.561 107.114C185.016 107.114 184.531 106.994 184.107 106.756C183.682 106.513 183.349 106.15 183.107 105.665C182.864 105.176 182.743 104.561 182.743 103.818V98.2727H184.084V103.727C184.084 104.364 184.262 104.871 184.618 105.25C184.978 105.629 185.436 105.818 185.993 105.818C186.326 105.818 186.665 105.733 187.01 105.562C187.358 105.392 187.65 105.131 187.885 104.778C188.124 104.426 188.243 103.977 188.243 103.432ZM200.608 95.3636V107H199.199V96.8409H199.131L196.29 98.7273V97.2955L199.199 95.3636H200.608Z" fill="#344054"/>
<path d="M122.324 146.71C122.278 146.252 122.083 145.896 121.739 145.642C121.394 145.388 120.926 145.261 120.335 145.261C119.934 145.261 119.595 145.318 119.318 145.432C119.042 145.542 118.83 145.695 118.682 145.892C118.538 146.089 118.466 146.312 118.466 146.562C118.458 146.771 118.502 146.953 118.597 147.108C118.695 147.263 118.83 147.398 119 147.511C119.17 147.621 119.367 147.718 119.591 147.801C119.814 147.881 120.053 147.949 120.307 148.006L121.352 148.256C121.86 148.369 122.326 148.521 122.75 148.71C123.174 148.9 123.542 149.133 123.852 149.409C124.163 149.686 124.403 150.011 124.574 150.386C124.748 150.761 124.837 151.191 124.841 151.676C124.837 152.388 124.655 153.006 124.295 153.528C123.939 154.047 123.424 154.451 122.75 154.739C122.08 155.023 121.271 155.165 120.324 155.165C119.384 155.165 118.566 155.021 117.869 154.733C117.176 154.445 116.634 154.019 116.244 153.455C115.858 152.886 115.655 152.184 115.636 151.347H118.017C118.044 151.737 118.155 152.062 118.352 152.324C118.553 152.581 118.82 152.777 119.153 152.909C119.491 153.038 119.871 153.102 120.295 153.102C120.712 153.102 121.074 153.042 121.381 152.92C121.691 152.799 121.932 152.631 122.102 152.415C122.273 152.199 122.358 151.951 122.358 151.67C122.358 151.409 122.28 151.189 122.125 151.011C121.973 150.833 121.75 150.682 121.455 150.557C121.163 150.432 120.805 150.318 120.381 150.216L119.114 149.898C118.133 149.659 117.358 149.286 116.79 148.778C116.222 148.271 115.939 147.587 115.943 146.727C115.939 146.023 116.127 145.407 116.506 144.881C116.888 144.354 117.413 143.943 118.08 143.648C118.746 143.352 119.504 143.205 120.352 143.205C121.216 143.205 121.97 143.352 122.614 143.648C123.261 143.943 123.765 144.354 124.125 144.881C124.485 145.407 124.67 146.017 124.682 146.71H122.324ZM132.047 151.284V146.273H134.467V155H132.143V153.415H132.053C131.856 153.926 131.528 154.337 131.07 154.648C130.615 154.958 130.06 155.114 129.405 155.114C128.821 155.114 128.308 154.981 127.865 154.716C127.422 154.451 127.075 154.074 126.825 153.585C126.579 153.097 126.454 152.511 126.45 151.83V146.273H128.871V151.398C128.875 151.913 129.013 152.32 129.286 152.619C129.558 152.919 129.924 153.068 130.382 153.068C130.674 153.068 130.946 153.002 131.2 152.869C131.454 152.733 131.659 152.532 131.814 152.267C131.973 152.002 132.051 151.674 132.047 151.284ZM136.449 155V143.364H138.869V147.739H138.943C139.049 147.504 139.203 147.265 139.403 147.023C139.608 146.777 139.873 146.572 140.199 146.409C140.528 146.242 140.938 146.159 141.426 146.159C142.063 146.159 142.65 146.326 143.188 146.659C143.725 146.989 144.155 147.487 144.477 148.153C144.799 148.816 144.96 149.648 144.96 150.648C144.96 151.621 144.803 152.443 144.489 153.114C144.178 153.78 143.754 154.286 143.216 154.631C142.682 154.972 142.083 155.142 141.42 155.142C140.951 155.142 140.551 155.064 140.222 154.909C139.896 154.754 139.629 154.559 139.42 154.324C139.212 154.085 139.053 153.845 138.943 153.602H138.835V155H136.449ZM138.818 150.636C138.818 151.155 138.89 151.608 139.034 151.994C139.178 152.381 139.386 152.682 139.659 152.898C139.932 153.11 140.263 153.216 140.653 153.216C141.047 153.216 141.381 153.108 141.653 152.892C141.926 152.672 142.133 152.369 142.273 151.983C142.417 151.593 142.489 151.144 142.489 150.636C142.489 150.133 142.419 149.689 142.278 149.307C142.138 148.924 141.932 148.625 141.659 148.409C141.386 148.193 141.051 148.085 140.653 148.085C140.259 148.085 139.926 148.189 139.653 148.398C139.384 148.606 139.178 148.902 139.034 149.284C138.89 149.667 138.818 150.117 138.818 150.636ZM150.278 155V146.273H152.585V147.812H152.688C152.869 147.301 153.172 146.898 153.597 146.602C154.021 146.307 154.528 146.159 155.119 146.159C155.718 146.159 156.227 146.309 156.648 146.608C157.068 146.903 157.348 147.305 157.489 147.812H157.58C157.758 147.312 158.08 146.913 158.545 146.614C159.015 146.311 159.57 146.159 160.21 146.159C161.025 146.159 161.686 146.419 162.193 146.938C162.705 147.453 162.96 148.184 162.96 149.131V155H160.545V149.608C160.545 149.123 160.417 148.759 160.159 148.517C159.902 148.275 159.58 148.153 159.193 148.153C158.754 148.153 158.411 148.294 158.165 148.574C157.919 148.85 157.795 149.216 157.795 149.67V155H155.449V149.557C155.449 149.129 155.326 148.788 155.08 148.534C154.837 148.28 154.517 148.153 154.119 148.153C153.85 148.153 153.608 148.222 153.392 148.358C153.18 148.491 153.011 148.678 152.886 148.92C152.761 149.159 152.699 149.439 152.699 149.761V155H150.278ZM168.849 155.17C167.952 155.17 167.179 154.989 166.531 154.625C165.887 154.258 165.391 153.739 165.043 153.068C164.694 152.394 164.52 151.597 164.52 150.676C164.52 149.778 164.694 148.991 165.043 148.312C165.391 147.634 165.882 147.106 166.514 146.727C167.151 146.348 167.897 146.159 168.753 146.159C169.329 146.159 169.865 146.252 170.361 146.438C170.861 146.619 171.296 146.894 171.668 147.261C172.043 147.629 172.334 148.091 172.543 148.648C172.751 149.201 172.855 149.848 172.855 150.591V151.256H165.486V149.756H170.577C170.577 149.407 170.501 149.098 170.349 148.83C170.198 148.561 169.988 148.35 169.719 148.199C169.454 148.044 169.145 147.966 168.793 147.966C168.425 147.966 168.099 148.051 167.815 148.222C167.535 148.388 167.315 148.614 167.156 148.898C166.997 149.178 166.916 149.491 166.912 149.835V151.261C166.912 151.693 166.991 152.066 167.151 152.381C167.313 152.695 167.543 152.938 167.838 153.108C168.134 153.278 168.484 153.364 168.889 153.364C169.158 153.364 169.404 153.326 169.628 153.25C169.851 153.174 170.043 153.061 170.202 152.909C170.361 152.758 170.482 152.572 170.565 152.352L172.804 152.5C172.69 153.038 172.457 153.508 172.105 153.909C171.757 154.307 171.306 154.617 170.753 154.841C170.204 155.061 169.569 155.17 168.849 155.17ZM176.855 149.955V155H174.435V146.273H176.741V147.812H176.844C177.037 147.305 177.361 146.903 177.815 146.608C178.27 146.309 178.821 146.159 179.469 146.159C180.075 146.159 180.603 146.292 181.054 146.557C181.505 146.822 181.855 147.201 182.105 147.693C182.355 148.182 182.48 148.765 182.48 149.443V155H180.06V149.875C180.063 149.341 179.927 148.924 179.651 148.625C179.374 148.322 178.993 148.17 178.509 148.17C178.183 148.17 177.895 148.241 177.645 148.381C177.399 148.521 177.205 148.725 177.065 148.994C176.929 149.259 176.859 149.58 176.855 149.955ZM189.984 151.284V146.273H192.405V155H190.081V153.415H189.99C189.793 153.926 189.465 154.337 189.007 154.648C188.553 154.958 187.998 155.114 187.342 155.114C186.759 155.114 186.246 154.981 185.803 154.716C185.359 154.451 185.013 154.074 184.763 153.585C184.517 153.097 184.392 152.511 184.388 151.83V146.273H186.808V151.398C186.812 151.913 186.95 152.32 187.223 152.619C187.496 152.919 187.861 153.068 188.32 153.068C188.611 153.068 188.884 153.002 189.138 152.869C189.392 152.733 189.596 152.532 189.751 152.267C189.911 152.002 189.988 151.674 189.984 151.284ZM198.021 155V153.227L202.163 149.392C202.516 149.051 202.811 148.744 203.05 148.472C203.292 148.199 203.476 147.932 203.601 147.67C203.726 147.405 203.788 147.119 203.788 146.812C203.788 146.472 203.711 146.178 203.555 145.932C203.4 145.682 203.188 145.491 202.919 145.358C202.65 145.222 202.345 145.153 202.004 145.153C201.648 145.153 201.338 145.225 201.072 145.369C200.807 145.513 200.603 145.72 200.459 145.989C200.315 146.258 200.243 146.578 200.243 146.949H197.908C197.908 146.187 198.08 145.527 198.425 144.966C198.769 144.405 199.252 143.972 199.874 143.665C200.495 143.358 201.211 143.205 202.021 143.205C202.855 143.205 203.58 143.352 204.197 143.648C204.819 143.939 205.302 144.345 205.646 144.864C205.991 145.383 206.163 145.977 206.163 146.648C206.163 147.087 206.076 147.521 205.902 147.949C205.732 148.377 205.427 148.852 204.987 149.375C204.548 149.894 203.929 150.517 203.129 151.244L201.43 152.909V152.989H206.317V155H198.021Z" fill="#5925DC"/>
<rect x="59" y="69" width="253" height="8" fill="#E8178A" fill-opacity="0.24"/>
<rect x="59" y="29" width="253" height="8" fill="#E8178A" fill-opacity="0.24"/>
<rect x="59" y="29" width="16" height="48" fill="#E8178A" fill-opacity="0.24"/>
<rect x="43" y="29" width="16" height="48" fill="#E8178A" fill-opacity="0.24"/>
<rect y="24" width="31" height="17.8909" rx="3" fill="#E8178A"/>
<path d="M9.30256 37.0994C8.75568 37.0994 8.26918 37.0107 7.84304 36.8331C7.41927 36.6532 7.08665 36.4081 6.84517 36.098C6.60369 35.7879 6.48295 35.4363 6.48295 35.0433C6.48295 34.7403 6.55161 34.4621 6.68892 34.2088C6.8286 33.9531 7.01799 33.7412 7.2571 33.5732C7.49621 33.4027 7.76373 33.2938 8.05966 33.2464V33.1967C7.6714 33.1186 7.35653 32.9304 7.11506 32.6321C6.87358 32.3314 6.75284 31.9822 6.75284 31.5845C6.75284 31.2081 6.86293 30.8731 7.0831 30.5795C7.30327 30.2836 7.60511 30.0516 7.98864 29.8835C8.37453 29.7131 8.8125 29.6278 9.30256 29.6278C9.79261 29.6278 10.2294 29.7131 10.6129 29.8835C10.9988 30.054 11.3018 30.2872 11.522 30.5831C11.7422 30.8767 11.8535 31.2105 11.8558 31.5845C11.8535 31.9846 11.7304 32.3338 11.4865 32.6321C11.2427 32.9304 10.9302 33.1186 10.549 33.1967V33.2464C10.8402 33.2938 11.1042 33.4027 11.3409 33.5732C11.58 33.7412 11.7694 33.9531 11.9091 34.2088C12.0511 34.4621 12.1233 34.7403 12.1257 35.0433C12.1233 35.4363 12.0014 35.7879 11.7599 36.098C11.5185 36.4081 11.1847 36.6532 10.7585 36.8331C10.3348 37.0107 9.84943 37.0994 9.30256 37.0994ZM9.30256 35.9702C9.5464 35.9702 9.75947 35.9264 9.94176 35.8388C10.1241 35.7488 10.2661 35.6257 10.3679 35.4695C10.4721 35.3108 10.5241 35.1286 10.5241 34.9226C10.5241 34.7119 10.4709 34.526 10.3643 34.3651C10.2578 34.2017 10.1134 34.0739 9.93111 33.9815C9.74882 33.8868 9.5393 33.8395 9.30256 33.8395C9.06818 33.8395 8.85866 33.8868 8.67401 33.9815C8.48935 34.0739 8.34375 34.2017 8.23722 34.3651C8.13305 34.526 8.08097 34.7119 8.08097 34.9226C8.08097 35.1286 8.13187 35.3108 8.23366 35.4695C8.33546 35.6257 8.47869 35.7488 8.66335 35.8388C8.84801 35.9264 9.06108 35.9702 9.30256 35.9702ZM9.30256 32.7209C9.50616 32.7209 9.68726 32.6795 9.84588 32.5966C10.0045 32.5137 10.1288 32.3989 10.2188 32.2521C10.3087 32.1054 10.3537 31.9361 10.3537 31.7443C10.3537 31.5549 10.3087 31.3892 10.2188 31.2472C10.1288 31.1027 10.0057 30.9903 9.84943 30.9098C9.69318 30.8269 9.51089 30.7855 9.30256 30.7855C9.09659 30.7855 8.9143 30.8269 8.75568 30.9098C8.59706 30.9903 8.47277 31.1027 8.38281 31.2472C8.29522 31.3892 8.25142 31.5549 8.25142 31.7443C8.25142 31.9361 8.2964 32.1054 8.38636 32.2521C8.47633 32.3989 8.60062 32.5137 8.75923 32.5966C8.91785 32.6795 9.09896 32.7209 9.30256 32.7209ZM13.215 39.0455V31.5455H14.7065V32.4616H14.774C14.8403 32.3149 14.9361 32.1657 15.0616 32.0142C15.1895 31.8603 15.3552 31.7325 15.5588 31.6307C15.7647 31.5265 16.0204 31.4744 16.3258 31.4744C16.7235 31.4744 17.0905 31.5786 17.4267 31.7869C17.7628 31.9929 18.0315 32.3042 18.2328 32.7209C18.434 33.1352 18.5346 33.6548 18.5346 34.2798C18.5346 34.8883 18.4364 35.402 18.2399 35.821C18.0458 36.2377 17.7806 36.5537 17.4444 36.7692C17.1106 36.9822 16.7366 37.0888 16.3223 37.0888C16.0287 37.0888 15.7789 37.0402 15.573 36.9432C15.3694 36.8461 15.2025 36.7242 15.0723 36.5774C14.9421 36.4283 14.8426 36.2779 14.774 36.1264H14.7278V39.0455H13.215ZM14.6958 34.2727C14.6958 34.5971 14.7408 34.88 14.8308 35.1214C14.9208 35.3629 15.051 35.5511 15.2214 35.6861C15.3919 35.8187 15.599 35.8849 15.8429 35.8849C16.0891 35.8849 16.2974 35.8175 16.4679 35.6825C16.6383 35.5452 16.7673 35.3558 16.8549 35.1143C16.9449 34.8705 16.9899 34.59 16.9899 34.2727C16.9899 33.9579 16.9461 33.6809 16.8585 33.4418C16.7709 33.2027 16.6419 33.0156 16.4714 32.8807C16.301 32.7457 16.0914 32.6783 15.8429 32.6783C15.5967 32.6783 15.3883 32.7434 15.2179 32.8736C15.0498 33.0038 14.9208 33.1884 14.8308 33.4276C14.7408 33.6667 14.6958 33.9484 14.6958 34.2727ZM20.612 31.5455L21.6135 33.4524L22.6397 31.5455H24.1916L22.6113 34.2727L24.2342 37H22.6895L21.6135 35.1143L20.5552 37H18.9927L20.612 34.2727L19.0495 31.5455H20.612Z" fill="white"/>
<rect y="62.8061" width="31" height="17.8909" rx="3" fill="#E8178A"/>
<path d="M9.30256 75.9055C8.75568 75.9055 8.26918 75.8167 7.84304 75.6392C7.41927 75.4592 7.08665 75.2142 6.84517 74.9041C6.60369 74.594 6.48295 74.2424 6.48295 73.8494C6.48295 73.5464 6.55161 73.2682 6.68892 73.0149C6.8286 72.7592 7.01799 72.5473 7.2571 72.3792C7.49621 72.2088 7.76373 72.0999 8.05966 72.0525V72.0028C7.6714 71.9247 7.35653 71.7365 7.11506 71.4382C6.87358 71.1375 6.75284 70.7883 6.75284 70.3906C6.75284 70.0142 6.86293 69.6792 7.0831 69.3856C7.30327 69.0897 7.60511 68.8577 7.98864 68.6896C8.37453 68.5191 8.8125 68.4339 9.30256 68.4339C9.79261 68.4339 10.2294 68.5191 10.6129 68.6896C10.9988 68.8601 11.3018 69.0932 11.522 69.3892C11.7422 69.6827 11.8535 70.0165 11.8558 70.3906C11.8535 70.7907 11.7304 71.1399 11.4865 71.4382C11.2427 71.7365 10.9302 71.9247 10.549 72.0028V72.0525C10.8402 72.0999 11.1042 72.2088 11.3409 72.3792C11.58 72.5473 11.7694 72.7592 11.9091 73.0149C12.0511 73.2682 12.1233 73.5464 12.1257 73.8494C12.1233 74.2424 12.0014 74.594 11.7599 74.9041C11.5185 75.2142 11.1847 75.4592 10.7585 75.6392C10.3348 75.8167 9.84943 75.9055 9.30256 75.9055ZM9.30256 74.7762C9.5464 74.7762 9.75947 74.7324 9.94176 74.6449C10.1241 74.5549 10.2661 74.4318 10.3679 74.2755C10.4721 74.1169 10.5241 73.9346 10.5241 73.7287C10.5241 73.518 10.4709 73.3321 10.3643 73.1711C10.2578 73.0078 10.1134 72.8799 9.93111 72.7876C9.74882 72.6929 9.5393 72.6456 9.30256 72.6456C9.06818 72.6456 8.85866 72.6929 8.67401 72.7876C8.48935 72.8799 8.34375 73.0078 8.23722 73.1711C8.13305 73.3321 8.08097 73.518 8.08097 73.7287C8.08097 73.9346 8.13187 74.1169 8.23366 74.2755C8.33546 74.4318 8.47869 74.5549 8.66335 74.6449C8.84801 74.7324 9.06108 74.7762 9.30256 74.7762ZM9.30256 71.527C9.50616 71.527 9.68726 71.4855 9.84588 71.4027C10.0045 71.3198 10.1288 71.205 10.2188 71.0582C10.3087 70.9114 10.3537 70.7422 10.3537 70.5504C10.3537 70.361 10.3087 70.1953 10.2188 70.0532C10.1288 69.9088 10.0057 69.7964 9.84943 69.7159C9.69318 69.633 9.51089 69.5916 9.30256 69.5916C9.09659 69.5916 8.9143 69.633 8.75568 69.7159C8.59706 69.7964 8.47277 69.9088 8.38281 70.0532C8.29522 70.1953 8.25142 70.361 8.25142 70.5504C8.25142 70.7422 8.2964 70.9114 8.38636 71.0582C8.47633 71.205 8.60062 71.3198 8.75923 71.4027C8.91785 71.4855 9.09896 71.527 9.30256 71.527ZM13.215 77.8515V70.3515H14.7065V71.2677H14.774C14.8403 71.1209 14.9361 70.9718 15.0616 70.8203C15.1895 70.6664 15.3552 70.5386 15.5588 70.4368C15.7647 70.3326 16.0204 70.2805 16.3258 70.2805C16.7235 70.2805 17.0905 70.3847 17.4267 70.593C17.7628 70.799 18.0315 71.1103 18.2328 71.527C18.434 71.9413 18.5346 72.4609 18.5346 73.0859C18.5346 73.6943 18.4364 74.2081 18.2399 74.6271C18.0458 75.0438 17.7806 75.3598 17.4444 75.5753C17.1106 75.7883 16.7366 75.8949 16.3223 75.8949C16.0287 75.8949 15.7789 75.8463 15.573 75.7493C15.3694 75.6522 15.2025 75.5303 15.0723 75.3835C14.9421 75.2343 14.8426 75.084 14.774 74.9325H14.7278V77.8515H13.215ZM14.6958 73.0788C14.6958 73.4031 14.7408 73.686 14.8308 73.9275C14.9208 74.169 15.051 74.3572 15.2214 74.4922C15.3919 74.6247 15.599 74.691 15.8429 74.691C16.0891 74.691 16.2974 74.6235 16.4679 74.4886C16.6383 74.3513 16.7673 74.1619 16.8549 73.9204C16.9449 73.6766 16.9899 73.396 16.9899 73.0788C16.9899 72.7639 16.9461 72.4869 16.8585 72.2478C16.7709 72.0087 16.6419 71.8217 16.4714 71.6868C16.301 71.5518 16.0914 71.4843 15.8429 71.4843C15.5967 71.4843 15.3883 71.5494 15.2179 71.6797C15.0498 71.8099 14.9208 71.9945 14.8308 72.2336C14.7408 72.4727 14.6958 72.7545 14.6958 73.0788ZM20.612 70.3515L21.6135 72.2585L22.6397 70.3515H24.1916L22.6113 73.0788L24.2342 75.8061H22.6895L21.6135 73.9204L20.5552 75.8061H18.9927L20.612 73.0788L19.0495 70.3515H20.612Z" fill="white"/>
<path d="M35.5 68.2849V76.2364" stroke="#E8178A"/>
<line x1="32" y1="68.7788" x2="39" y2="68.7788" stroke="#E8178A"/>
<line x1="32" y1="75.7364" x2="39" y2="75.7364" stroke="#E8178A"/>
<path d="M35.5 29V36.9515" stroke="#E8178A"/>
<line x1="32" y1="29.494" x2="39" y2="29.494" stroke="#E8178A"/>
<line x1="32" y1="36.4515" x2="39" y2="36.4515" stroke="#E8178A"/>
<rect y="120" width="31" height="17.8909" rx="3" fill="#E8178A"/>
<path d="M9.30256 133.099C8.75568 133.099 8.26918 133.011 7.84304 132.833C7.41927 132.653 7.08665 132.408 6.84517 132.098C6.60369 131.788 6.48295 131.436 6.48295 131.043C6.48295 130.74 6.55161 130.462 6.68892 130.209C6.8286 129.953 7.01799 129.741 7.2571 129.573C7.49621 129.403 7.76373 129.294 8.05966 129.246V129.197C7.6714 129.119 7.35653 128.93 7.11506 128.632C6.87358 128.331 6.75284 127.982 6.75284 127.585C6.75284 127.208 6.86293 126.873 7.0831 126.58C7.30327 126.284 7.60511 126.052 7.98864 125.884C8.37453 125.713 8.8125 125.628 9.30256 125.628C9.79261 125.628 10.2294 125.713 10.6129 125.884C10.9988 126.054 11.3018 126.287 11.522 126.583C11.7422 126.877 11.8535 127.21 11.8558 127.585C11.8535 127.985 11.7304 128.334 11.4865 128.632C11.2427 128.93 10.9302 129.119 10.549 129.197V129.246C10.8402 129.294 11.1042 129.403 11.3409 129.573C11.58 129.741 11.7694 129.953 11.9091 130.209C12.0511 130.462 12.1233 130.74 12.1257 131.043C12.1233 131.436 12.0014 131.788 11.7599 132.098C11.5185 132.408 11.1847 132.653 10.7585 132.833C10.3348 133.011 9.84943 133.099 9.30256 133.099ZM9.30256 131.97C9.5464 131.97 9.75947 131.926 9.94176 131.839C10.1241 131.749 10.2661 131.626 10.3679 131.469C10.4721 131.311 10.5241 131.129 10.5241 130.923C10.5241 130.712 10.4709 130.526 10.3643 130.365C10.2578 130.202 10.1134 130.074 9.93111 129.982C9.74882 129.887 9.5393 129.839 9.30256 129.839C9.06818 129.839 8.85866 129.887 8.67401 129.982C8.48935 130.074 8.34375 130.202 8.23722 130.365C8.13305 130.526 8.08097 130.712 8.08097 130.923C8.08097 131.129 8.13187 131.311 8.23366 131.469C8.33546 131.626 8.47869 131.749 8.66335 131.839C8.84801 131.926 9.06108 131.97 9.30256 131.97ZM9.30256 128.721C9.50616 128.721 9.68726 128.679 9.84588 128.597C10.0045 128.514 10.1288 128.399 10.2188 128.252C10.3087 128.105 10.3537 127.936 10.3537 127.744C10.3537 127.555 10.3087 127.389 10.2188 127.247C10.1288 127.103 10.0057 126.99 9.84943 126.91C9.69318 126.827 9.51089 126.786 9.30256 126.786C9.09659 126.786 8.9143 126.827 8.75568 126.91C8.59706 126.99 8.47277 127.103 8.38281 127.247C8.29522 127.389 8.25142 127.555 8.25142 127.744C8.25142 127.936 8.2964 128.105 8.38636 128.252C8.47633 128.399 8.60062 128.514 8.75923 128.597C8.91785 128.679 9.09896 128.721 9.30256 128.721ZM13.215 135.045V127.545H14.7065V128.462H14.774C14.8403 128.315 14.9361 128.166 15.0616 128.014C15.1895 127.86 15.3552 127.732 15.5588 127.631C15.7647 127.527 16.0204 127.474 16.3258 127.474C16.7235 127.474 17.0905 127.579 17.4267 127.787C17.7628 127.993 18.0315 128.304 18.2328 128.721C18.434 129.135 18.5346 129.655 18.5346 130.28C18.5346 130.888 18.4364 131.402 18.2399 131.821C18.0458 132.238 17.7806 132.554 17.4444 132.769C17.1106 132.982 16.7366 133.089 16.3223 133.089C16.0287 133.089 15.7789 133.04 15.573 132.943C15.3694 132.846 15.2025 132.724 15.0723 132.577C14.9421 132.428 14.8426 132.278 14.774 132.126H14.7278V135.045H13.215ZM14.6958 130.273C14.6958 130.597 14.7408 130.88 14.8308 131.121C14.9208 131.363 15.051 131.551 15.2214 131.686C15.3919 131.819 15.599 131.885 15.8429 131.885C16.0891 131.885 16.2974 131.817 16.4679 131.683C16.6383 131.545 16.7673 131.356 16.8549 131.114C16.9449 130.871 16.9899 130.59 16.9899 130.273C16.9899 129.958 16.9461 129.681 16.8585 129.442C16.7709 129.203 16.6419 129.016 16.4714 128.881C16.301 128.746 16.0914 128.678 15.8429 128.678C15.5967 128.678 15.3883 128.743 15.2179 128.874C15.0498 129.004 14.9208 129.188 14.8308 129.428C14.7408 129.667 14.6958 129.948 14.6958 130.273ZM20.612 127.545L21.6135 129.452L22.6397 127.545H24.1916L22.6113 130.273L24.2342 133H22.6895L21.6135 131.114L20.5552 133H18.9927L20.612 130.273L19.0495 127.545H20.612Z" fill="white"/>
<rect y="160" width="31" height="17.8909" rx="3" fill="#E8178A"/>
<path d="M9.30256 173.099C8.75568 173.099 8.26918 173.011 7.84304 172.833C7.41927 172.653 7.08665 172.408 6.84517 172.098C6.60369 171.788 6.48295 171.436 6.48295 171.043C6.48295 170.74 6.55161 170.462 6.68892 170.209C6.8286 169.953 7.01799 169.741 7.2571 169.573C7.49621 169.403 7.76373 169.294 8.05966 169.246V169.197C7.6714 169.119 7.35653 168.93 7.11506 168.632C6.87358 168.331 6.75284 167.982 6.75284 167.585C6.75284 167.208 6.86293 166.873 7.0831 166.58C7.30327 166.284 7.60511 166.052 7.98864 165.884C8.37453 165.713 8.8125 165.628 9.30256 165.628C9.79261 165.628 10.2294 165.713 10.6129 165.884C10.9988 166.054 11.3018 166.287 11.522 166.583C11.7422 166.877 11.8535 167.21 11.8558 167.585C11.8535 167.985 11.7304 168.334 11.4865 168.632C11.2427 168.93 10.9302 169.119 10.549 169.197V169.246C10.8402 169.294 11.1042 169.403 11.3409 169.573C11.58 169.741 11.7694 169.953 11.9091 170.209C12.0511 170.462 12.1233 170.74 12.1257 171.043C12.1233 171.436 12.0014 171.788 11.7599 172.098C11.5185 172.408 11.1847 172.653 10.7585 172.833C10.3348 173.011 9.84943 173.099 9.30256 173.099ZM9.30256 171.97C9.5464 171.97 9.75947 171.926 9.94176 171.839C10.1241 171.749 10.2661 171.626 10.3679 171.469C10.4721 171.311 10.5241 171.129 10.5241 170.923C10.5241 170.712 10.4709 170.526 10.3643 170.365C10.2578 170.202 10.1134 170.074 9.93111 169.982C9.74882 169.887 9.5393 169.839 9.30256 169.839C9.06818 169.839 8.85866 169.887 8.67401 169.982C8.48935 170.074 8.34375 170.202 8.23722 170.365C8.13305 170.526 8.08097 170.712 8.08097 170.923C8.08097 171.129 8.13187 171.311 8.23366 171.469C8.33546 171.626 8.47869 171.749 8.66335 171.839C8.84801 171.926 9.06108 171.97 9.30256 171.97ZM9.30256 168.721C9.50616 168.721 9.68726 168.679 9.84588 168.597C10.0045 168.514 10.1288 168.399 10.2188 168.252C10.3087 168.105 10.3537 167.936 10.3537 167.744C10.3537 167.555 10.3087 167.389 10.2188 167.247C10.1288 167.103 10.0057 166.99 9.84943 166.91C9.69318 166.827 9.51089 166.786 9.30256 166.786C9.09659 166.786 8.9143 166.827 8.75568 166.91C8.59706 166.99 8.47277 167.103 8.38281 167.247C8.29522 167.389 8.25142 167.555 8.25142 167.744C8.25142 167.936 8.2964 168.105 8.38636 168.252C8.47633 168.399 8.60062 168.514 8.75923 168.597C8.91785 168.679 9.09896 168.721 9.30256 168.721ZM13.215 175.045V167.545H14.7065V168.462H14.774C14.8403 168.315 14.9361 168.166 15.0616 168.014C15.1895 167.86 15.3552 167.732 15.5588 167.631C15.7647 167.527 16.0204 167.474 16.3258 167.474C16.7235 167.474 17.0905 167.579 17.4267 167.787C17.7628 167.993 18.0315 168.304 18.2328 168.721C18.434 169.135 18.5346 169.655 18.5346 170.28C18.5346 170.888 18.4364 171.402 18.2399 171.821C18.0458 172.238 17.7806 172.554 17.4444 172.769C17.1106 172.982 16.7366 173.089 16.3223 173.089C16.0287 173.089 15.7789 173.04 15.573 172.943C15.3694 172.846 15.2025 172.724 15.0723 172.577C14.9421 172.428 14.8426 172.278 14.774 172.126H14.7278V175.045H13.215ZM14.6958 170.273C14.6958 170.597 14.7408 170.88 14.8308 171.121C14.9208 171.363 15.051 171.551 15.2214 171.686C15.3919 171.819 15.599 171.885 15.8429 171.885C16.0891 171.885 16.2974 171.817 16.4679 171.683C16.6383 171.545 16.7673 171.356 16.8549 171.114C16.9449 170.871 16.9899 170.59 16.9899 170.273C16.9899 169.958 16.9461 169.681 16.8585 169.442C16.7709 169.203 16.6419 169.016 16.4714 168.881C16.301 168.746 16.0914 168.678 15.8429 168.678C15.5967 168.678 15.3883 168.743 15.2179 168.874C15.0498 169.004 14.9208 169.188 14.8308 169.428C14.7408 169.667 14.6958 169.948 14.6958 170.273ZM20.612 167.545L21.6135 169.452L22.6397 167.545H24.1916L22.6113 170.273L24.2342 173H22.6895L21.6135 171.114L20.5552 173H18.9927L20.612 170.273L19.0495 167.545H20.612Z" fill="white"/>
<path d="M35.5 165.479V173.43" stroke="#E8178A"/>
<line x1="32" y1="165.973" x2="39" y2="165.973" stroke="#E8178A"/>
<line x1="32" y1="172.93" x2="39" y2="172.93" stroke="#E8178A"/>
<path d="M35.5 125V132.952" stroke="#E8178A"/>
<line x1="32" y1="125.494" x2="39" y2="125.494" stroke="#E8178A"/>
<line x1="32" y1="132.452" x2="39" y2="132.452" stroke="#E8178A"/>
<path d="M324.5 29.4788V76.4788" stroke="#1745E8"/>
<rect x="329" y="41.903" width="38" height="17.8909" rx="3" fill="#1745E8"/>
<path d="M335.479 53.6246V52.4137L338.516 47.6303H339.56V49.3065H338.942L337.028 52.3356V52.3924H341.342V53.6246H335.479ZM338.97 54.903V53.2553L338.999 52.7191V47.6303H340.44V54.903H338.97ZM345.08 55.0025C344.533 55.0025 344.047 54.9137 343.62 54.7361C343.197 54.5562 342.864 54.3112 342.623 54.0011C342.381 53.6909 342.26 53.3394 342.26 52.9464C342.26 52.6433 342.329 52.3652 342.466 52.1119C342.606 51.8562 342.795 51.6443 343.034 51.4762C343.274 51.3057 343.541 51.1968 343.837 51.1495V51.0998C343.449 51.0217 343.134 50.8334 342.892 50.5351C342.651 50.2345 342.53 49.8853 342.53 49.4876C342.53 49.1111 342.64 48.7762 342.86 48.4826C343.081 48.1867 343.382 47.9547 343.766 47.7866C344.152 47.6161 344.59 47.5309 345.08 47.5309C345.57 47.5309 346.007 47.6161 346.39 47.7866C346.776 47.957 347.079 48.1902 347.299 48.4861C347.52 48.7797 347.631 49.1135 347.633 49.4876C347.631 49.8877 347.508 50.2369 347.264 50.5351C347.02 50.8334 346.708 51.0217 346.326 51.0998V51.1495C346.618 51.1968 346.882 51.3057 347.118 51.4762C347.357 51.6443 347.547 51.8562 347.686 52.1119C347.828 52.3652 347.901 52.6433 347.903 52.9464C347.901 53.3394 347.779 53.6909 347.537 54.0011C347.296 54.3112 346.962 54.5562 346.536 54.7361C346.112 54.9137 345.627 55.0025 345.08 55.0025ZM345.08 53.8732C345.324 53.8732 345.537 53.8294 345.719 53.7418C345.901 53.6519 346.043 53.5288 346.145 53.3725C346.249 53.2139 346.301 53.0316 346.301 52.8256C346.301 52.6149 346.248 52.4291 346.142 52.2681C346.035 52.1048 345.891 51.9769 345.708 51.8846C345.526 51.7899 345.317 51.7425 345.08 51.7425C344.846 51.7425 344.636 51.7899 344.451 51.8846C344.267 51.9769 344.121 52.1048 344.015 52.2681C343.91 52.4291 343.858 52.6149 343.858 52.8256C343.858 53.0316 343.909 53.2139 344.011 53.3725C344.113 53.5288 344.256 53.6519 344.441 53.7418C344.625 53.8294 344.838 53.8732 345.08 53.8732ZM345.08 50.6239C345.283 50.6239 345.465 50.5825 345.623 50.4996C345.782 50.4168 345.906 50.302 345.996 50.1552C346.086 50.0084 346.131 49.8391 346.131 49.6474C346.131 49.458 346.086 49.2922 345.996 49.1502C345.906 49.0058 345.783 48.8933 345.627 48.8128C345.471 48.73 345.288 48.6886 345.08 48.6886C344.874 48.6886 344.692 48.73 344.533 48.8128C344.374 48.8933 344.25 49.0058 344.16 49.1502C344.073 49.2922 344.029 49.458 344.029 49.6474C344.029 49.8391 344.074 50.0084 344.164 50.1552C344.254 50.302 344.378 50.4168 344.537 50.4996C344.695 50.5825 344.876 50.6239 345.08 50.6239ZM348.992 56.9485V49.4485H350.484V50.3647H350.551C350.618 50.2179 350.713 50.0688 350.839 49.9173C350.967 49.7634 351.133 49.6355 351.336 49.5337C351.542 49.4296 351.798 49.3775 352.103 49.3775C352.501 49.3775 352.868 49.4816 353.204 49.69C353.54 49.8959 353.809 50.2073 354.01 50.6239C354.211 51.0382 354.312 51.5579 354.312 52.1829C354.312 52.7913 354.214 53.305 354.017 53.7241C353.823 54.1407 353.558 54.4568 353.222 54.6722C352.888 54.8853 352.514 54.9918 352.1 54.9918C351.806 54.9918 351.556 54.9433 351.35 54.8462C351.147 54.7492 350.98 54.6272 350.85 54.4805C350.719 54.3313 350.62 54.181 350.551 54.0295H350.505V56.9485H348.992ZM350.473 52.1758C350.473 52.5001 350.518 52.783 350.608 53.0245C350.698 53.266 350.828 53.4542 350.999 53.5891C351.169 53.7217 351.376 53.788 351.62 53.788C351.866 53.788 352.075 53.7205 352.245 53.5856C352.416 53.4483 352.545 53.2589 352.632 53.0174C352.722 52.7735 352.767 52.493 352.767 52.1758C352.767 51.8609 352.723 51.5839 352.636 51.3448C352.548 51.1057 352.419 50.9187 352.249 50.7837C352.078 50.6488 351.869 50.5813 351.62 50.5813C351.374 50.5813 351.166 50.6464 350.995 50.7766C350.827 50.9068 350.698 51.0915 350.608 51.3306C350.518 51.5697 350.473 51.8514 350.473 52.1758ZM356.389 49.4485L357.391 51.3555L358.417 49.4485H359.969L358.389 52.1758L360.012 54.903H358.467L357.391 53.0174L356.333 54.903H354.77L356.389 52.1758L354.827 49.4485H356.389Z" fill="white"/>
<line x1="321" y1="29.9727" x2="328" y2="29.9727" stroke="#1745E8"/>
<line x1="321" y1="76.5" x2="328" y2="76.5" stroke="#1745E8"/>
<path d="M324.5 125.479V172.479" stroke="#1745E8"/>
<rect x="329" y="137.903" width="38" height="17.8909" rx="3" fill="#1745E8"/>
<path d="M335.479 149.625V148.414L338.516 143.63H339.56V145.306H338.942L337.028 148.336V148.392H341.342V149.625H335.479ZM338.97 150.903V149.255L338.999 148.719V143.63H340.44V150.903H338.97ZM345.08 151.002C344.533 151.002 344.047 150.914 343.62 150.736C343.197 150.556 342.864 150.311 342.623 150.001C342.381 149.691 342.26 149.339 342.26 148.946C342.26 148.643 342.329 148.365 342.466 148.112C342.606 147.856 342.795 147.644 343.034 147.476C343.274 147.306 343.541 147.197 343.837 147.149V147.1C343.449 147.022 343.134 146.833 342.892 146.535C342.651 146.234 342.53 145.885 342.53 145.488C342.53 145.111 342.64 144.776 342.86 144.483C343.081 144.187 343.382 143.955 343.766 143.787C344.152 143.616 344.59 143.531 345.08 143.531C345.57 143.531 346.007 143.616 346.39 143.787C346.776 143.957 347.079 144.19 347.299 144.486C347.52 144.78 347.631 145.114 347.633 145.488C347.631 145.888 347.508 146.237 347.264 146.535C347.02 146.833 346.708 147.022 346.326 147.1V147.149C346.618 147.197 346.882 147.306 347.118 147.476C347.357 147.644 347.547 147.856 347.686 148.112C347.828 148.365 347.901 148.643 347.903 148.946C347.901 149.339 347.779 149.691 347.537 150.001C347.296 150.311 346.962 150.556 346.536 150.736C346.112 150.914 345.627 151.002 345.08 151.002ZM345.08 149.873C345.324 149.873 345.537 149.829 345.719 149.742C345.901 149.652 346.043 149.529 346.145 149.373C346.249 149.214 346.301 149.032 346.301 148.826C346.301 148.615 346.248 148.429 346.142 148.268C346.035 148.105 345.891 147.977 345.708 147.885C345.526 147.79 345.317 147.743 345.08 147.743C344.846 147.743 344.636 147.79 344.451 147.885C344.267 147.977 344.121 148.105 344.015 148.268C343.91 148.429 343.858 148.615 343.858 148.826C343.858 149.032 343.909 149.214 344.011 149.373C344.113 149.529 344.256 149.652 344.441 149.742C344.625 149.829 344.838 149.873 345.08 149.873ZM345.08 146.624C345.283 146.624 345.465 146.582 345.623 146.5C345.782 146.417 345.906 146.302 345.996 146.155C346.086 146.008 346.131 145.839 346.131 145.647C346.131 145.458 346.086 145.292 345.996 145.15C345.906 145.006 345.783 144.893 345.627 144.813C345.471 144.73 345.288 144.689 345.08 144.689C344.874 144.689 344.692 144.73 344.533 144.813C344.374 144.893 344.25 145.006 344.16 145.15C344.073 145.292 344.029 145.458 344.029 145.647C344.029 145.839 344.074 146.008 344.164 146.155C344.254 146.302 344.378 146.417 344.537 146.5C344.695 146.582 344.876 146.624 345.08 146.624ZM348.992 152.949V145.449H350.484V146.365H350.551C350.618 146.218 350.713 146.069 350.839 145.917C350.967 145.763 351.133 145.636 351.336 145.534C351.542 145.43 351.798 145.377 352.103 145.377C352.501 145.377 352.868 145.482 353.204 145.69C353.54 145.896 353.809 146.207 354.01 146.624C354.211 147.038 354.312 147.558 354.312 148.183C354.312 148.791 354.214 149.305 354.017 149.724C353.823 150.141 353.558 150.457 353.222 150.672C352.888 150.885 352.514 150.992 352.1 150.992C351.806 150.992 351.556 150.943 351.35 150.846C351.147 150.749 350.98 150.627 350.85 150.48C350.719 150.331 350.62 150.181 350.551 150.029H350.505V152.949H348.992ZM350.473 148.176C350.473 148.5 350.518 148.783 350.608 149.024C350.698 149.266 350.828 149.454 350.999 149.589C351.169 149.722 351.376 149.788 351.62 149.788C351.866 149.788 352.075 149.721 352.245 149.586C352.416 149.448 352.545 149.259 352.632 149.017C352.722 148.774 352.767 148.493 352.767 148.176C352.767 147.861 352.723 147.584 352.636 147.345C352.548 147.106 352.419 146.919 352.249 146.784C352.078 146.649 351.869 146.581 351.62 146.581C351.374 146.581 351.166 146.646 350.995 146.777C350.827 146.907 350.698 147.091 350.608 147.331C350.518 147.57 350.473 147.851 350.473 148.176ZM356.389 145.449L357.391 147.355L358.417 145.449H359.969L358.389 148.176L360.012 150.903H358.467L357.391 149.017L356.333 150.903H354.77L356.389 148.176L354.827 145.449H356.389Z" fill="white"/>
<line x1="321" y1="125.973" x2="328" y2="125.973" stroke="#1745E8"/>
<line x1="321" y1="172.5" x2="328" y2="172.5" stroke="#1745E8"/>
<path d="M59 23.4788H75" stroke="#E8178A"/>
<line x1="59.5" y1="26.9576" x2="59.5" y2="20" stroke="#E8178A"/>
<line x1="74.5" y1="26.9576" x2="74.5" y2="20" stroke="#E8178A"/>
<path d="M43 23.4788H59" stroke="#E8178A"/>
<line x1="43.5" y1="26.9576" x2="43.5" y2="20" stroke="#E8178A"/>
<rect x="61" width="36" height="17.8909" rx="3" fill="#E8178A"/>
<path d="M70.7536 5.72727V13H69.2159V7.18679H69.1733L67.5078 8.23082V6.86719L69.3082 5.72727H70.7536ZM75.2733 13.0994C74.8992 13.0971 74.5382 13.0343 74.1902 12.9112C73.8445 12.7881 73.5344 12.5881 73.2598 12.3111C72.9851 12.0341 72.7673 11.6671 72.6064 11.2102C72.4477 10.7533 72.3684 10.1922 72.3684 9.52699C72.3708 8.91619 72.4406 8.3705 72.5779 7.88991C72.7176 7.40696 72.9165 6.9974 73.1745 6.66122C73.435 6.32505 73.7463 6.06937 74.1085 5.89418C74.4707 5.71662 74.8767 5.62784 75.3265 5.62784C75.8118 5.62784 76.2404 5.72254 76.612 5.91193C76.9837 6.09896 77.282 6.35346 77.5069 6.67543C77.7342 6.9974 77.8715 7.35843 77.9189 7.75852H76.4025C76.3433 7.50521 76.219 7.30634 76.0297 7.16193C75.8403 7.01752 75.6059 6.94531 75.3265 6.94531C74.853 6.94531 74.4932 7.15128 74.247 7.56321C74.0031 7.97514 73.8788 8.53504 73.8741 9.2429H73.9238C74.0327 9.02746 74.1795 8.84399 74.3642 8.69247C74.5512 8.53859 74.7631 8.4214 74.9998 8.34091C75.2389 8.25805 75.4911 8.21662 75.7562 8.21662C76.1871 8.21662 76.5706 8.31842 76.9068 8.52202C77.243 8.72325 77.5081 9.00024 77.7022 9.35298C77.8964 9.70573 77.9934 10.1094 77.9934 10.5639C77.9934 11.0563 77.8786 11.4943 77.649 11.8778C77.4217 12.2614 77.1033 12.562 76.6937 12.7798C76.2865 12.9953 75.813 13.1018 75.2733 13.0994ZM75.2662 11.892C75.5029 11.892 75.7148 11.8352 75.9018 11.7216C76.0888 11.608 76.2356 11.4541 76.3422 11.2599C76.4487 11.0658 76.502 10.848 76.502 10.6065C76.502 10.3651 76.4487 10.1484 76.3422 9.95668C76.238 9.76491 76.0936 9.61222 75.9089 9.49858C75.7243 9.38494 75.5136 9.32812 75.2768 9.32812C75.0993 9.32812 74.9347 9.36127 74.7832 9.42756C74.6341 9.49384 74.5027 9.58617 74.389 9.70455C74.2778 9.82292 74.1902 9.96023 74.1262 10.1165C74.0623 10.2704 74.0304 10.4349 74.0304 10.6101C74.0304 10.8445 74.0836 11.0587 74.1902 11.2528C74.2991 11.447 74.4458 11.602 74.6305 11.718C74.8175 11.834 75.0294 11.892 75.2662 11.892ZM79.0978 15.0455V7.54545H80.5893V8.46165H80.6568C80.7231 8.31487 80.819 8.16572 80.9444 8.0142C81.0723 7.86032 81.238 7.73248 81.4416 7.63068C81.6475 7.52652 81.9032 7.47443 82.2086 7.47443C82.6064 7.47443 82.9733 7.5786 83.3095 7.78693C83.6457 7.9929 83.9144 8.30421 84.1156 8.72088C84.3168 9.13518 84.4174 9.65483 84.4174 10.2798C84.4174 10.8883 84.3192 11.402 84.1227 11.821C83.9286 12.2377 83.6634 12.5537 83.3272 12.7692C82.9934 12.9822 82.6194 13.0888 82.2051 13.0888C81.9115 13.0888 81.6618 13.0402 81.4558 12.9432C81.2522 12.8461 81.0853 12.7242 80.9551 12.5774C80.8249 12.4283 80.7254 12.2779 80.6568 12.1264H80.6106V15.0455H79.0978ZM80.5787 10.2727C80.5787 10.5971 80.6236 10.88 80.7136 11.1214C80.8036 11.3629 80.9338 11.5511 81.1042 11.6861C81.2747 11.8187 81.4818 11.8849 81.7257 11.8849C81.9719 11.8849 82.1802 11.8175 82.3507 11.6825C82.5211 11.5452 82.6502 11.3558 82.7377 11.1143C82.8277 10.8705 82.8727 10.59 82.8727 10.2727C82.8727 9.95786 82.8289 9.68087 82.7413 9.44176C82.6537 9.20265 82.5247 9.01562 82.3542 8.88068C82.1838 8.74574 81.9743 8.67827 81.7257 8.67827C81.4795 8.67827 81.2711 8.74337 81.1007 8.87358C80.9326 9.00379 80.8036 9.18845 80.7136 9.42756C80.6236 9.66667 80.5787 9.94839 80.5787 10.2727ZM86.4949 7.54545L87.4963 9.45241L88.5225 7.54545H90.0744L88.4941 10.2727L90.117 13H88.5723L87.4963 11.1143L86.438 13H84.8755L86.4949 10.2727L84.9324 7.54545H86.4949Z" fill="white"/>
<rect x="22" width="36" height="17.8909" rx="3" fill="#E8178A"/>
<path d="M31.7536 5.72727V13H30.2159V7.18679H30.1733L28.5078 8.23082V6.86719L30.3082 5.72727H31.7536ZM36.2733 13.0994C35.8992 13.0971 35.5382 13.0343 35.1902 12.9112C34.8445 12.7881 34.5344 12.5881 34.2598 12.3111C33.9851 12.0341 33.7673 11.6671 33.6064 11.2102C33.4477 10.7533 33.3684 10.1922 33.3684 9.52699C33.3708 8.91619 33.4406 8.3705 33.5779 7.88991C33.7176 7.40696 33.9165 6.9974 34.1745 6.66122C34.435 6.32505 34.7463 6.06937 35.1085 5.89418C35.4707 5.71662 35.8767 5.62784 36.3265 5.62784C36.8118 5.62784 37.2404 5.72254 37.612 5.91193C37.9837 6.09896 38.282 6.35346 38.5069 6.67543C38.7342 6.9974 38.8715 7.35843 38.9189 7.75852H37.4025C37.3433 7.50521 37.219 7.30634 37.0297 7.16193C36.8403 7.01752 36.6059 6.94531 36.3265 6.94531C35.853 6.94531 35.4932 7.15128 35.247 7.56321C35.0031 7.97514 34.8788 8.53504 34.8741 9.2429H34.9238C35.0327 9.02746 35.1795 8.84399 35.3642 8.69247C35.5512 8.53859 35.7631 8.4214 35.9998 8.34091C36.2389 8.25805 36.4911 8.21662 36.7562 8.21662C37.1871 8.21662 37.5706 8.31842 37.9068 8.52202C38.243 8.72325 38.5081 9.00024 38.7022 9.35298C38.8964 9.70573 38.9934 10.1094 38.9934 10.5639C38.9934 11.0563 38.8786 11.4943 38.649 11.8778C38.4217 12.2614 38.1033 12.562 37.6937 12.7798C37.2865 12.9953 36.813 13.1018 36.2733 13.0994ZM36.2662 11.892C36.5029 11.892 36.7148 11.8352 36.9018 11.7216C37.0888 11.608 37.2356 11.4541 37.3422 11.2599C37.4487 11.0658 37.502 10.848 37.502 10.6065C37.502 10.3651 37.4487 10.1484 37.3422 9.95668C37.238 9.76491 37.0936 9.61222 36.9089 9.49858C36.7243 9.38494 36.5136 9.32812 36.2768 9.32812C36.0993 9.32812 35.9347 9.36127 35.7832 9.42756C35.6341 9.49384 35.5027 9.58617 35.389 9.70455C35.2778 9.82292 35.1902 9.96023 35.1262 10.1165C35.0623 10.2704 35.0304 10.4349 35.0304 10.6101C35.0304 10.8445 35.0836 11.0587 35.1902 11.2528C35.2991 11.447 35.4458 11.602 35.6305 11.718C35.8175 11.834 36.0294 11.892 36.2662 11.892ZM40.0978 15.0455V7.54545H41.5893V8.46165H41.6568C41.7231 8.31487 41.819 8.16572 41.9444 8.0142C42.0723 7.86032 42.238 7.73248 42.4416 7.63068C42.6475 7.52652 42.9032 7.47443 43.2086 7.47443C43.6064 7.47443 43.9733 7.5786 44.3095 7.78693C44.6457 7.9929 44.9144 8.30421 45.1156 8.72088C45.3168 9.13518 45.4174 9.65483 45.4174 10.2798C45.4174 10.8883 45.3192 11.402 45.1227 11.821C44.9286 12.2377 44.6634 12.5537 44.3272 12.7692C43.9934 12.9822 43.6194 13.0888 43.2051 13.0888C42.9115 13.0888 42.6618 13.0402 42.4558 12.9432C42.2522 12.8461 42.0853 12.7242 41.9551 12.5774C41.8249 12.4283 41.7254 12.2779 41.6568 12.1264H41.6106V15.0455H40.0978ZM41.5787 10.2727C41.5787 10.5971 41.6236 10.88 41.7136 11.1214C41.8036 11.3629 41.9338 11.5511 42.1042 11.6861C42.2747 11.8187 42.4818 11.8849 42.7257 11.8849C42.9719 11.8849 43.1802 11.8175 43.3507 11.6825C43.5211 11.5452 43.6502 11.3558 43.7377 11.1143C43.8277 10.8705 43.8727 10.59 43.8727 10.2727C43.8727 9.95786 43.8289 9.68087 43.7413 9.44176C43.6537 9.20265 43.5247 9.01562 43.3542 8.88068C43.1838 8.74574 42.9743 8.67827 42.7257 8.67827C42.4795 8.67827 42.2711 8.74337 42.1007 8.87358C41.9326 9.00379 41.8036 9.18845 41.7136 9.42756C41.6236 9.66667 41.5787 9.94839 41.5787 10.2727ZM47.4949 7.54545L48.4963 9.45241L49.5225 7.54545H51.0744L49.4941 10.2727L51.117 13H49.5723L48.4963 11.1143L47.438 13H45.8755L47.4949 10.2727L45.9324 7.54545H47.4949Z" fill="white"/>
<rect x="43" y="125" width="64" height="48" fill="#E8178A" fill-opacity="0.24"/>
<rect x="43" y="125" width="267" height="8" fill="#E8178A" fill-opacity="0.24"/>
<rect x="43" y="165" width="267" height="8" fill="#E8178A" fill-opacity="0.24"/>
<path d="M44 185H106" stroke="#E8178A"/>
<rect x="55" y="190" width="44" height="18" rx="3" fill="#E8178A"/>
<path d="M61.8984 202.123V200.919H66.8984V202.123H61.8984ZM66.8984 199.214L61.8984 200.564V199.399L65.1974 198.604L65.1513 198.678V198.501L65.1974 198.575L61.8984 197.78V196.615L66.8984 197.964V199.214ZM71.0746 203.099C70.5443 203.099 70.072 203.008 69.6577 202.826C69.2457 202.641 68.9202 202.388 68.6811 202.066C68.4444 201.742 68.3224 201.368 68.3153 200.944H69.8636C69.8731 201.121 69.9311 201.278 70.0376 201.413C70.1465 201.545 70.291 201.648 70.4709 201.722C70.6508 201.795 70.8532 201.832 71.0781 201.832C71.3125 201.832 71.5196 201.79 71.6996 201.707C71.8795 201.625 72.0204 201.51 72.1222 201.363C72.224 201.216 72.2749 201.047 72.2749 200.855C72.2749 200.661 72.2204 200.489 72.1115 200.34C72.005 200.189 71.8511 200.07 71.6499 199.985C71.451 199.9 71.2143 199.857 70.9396 199.857H70.2614V198.728H70.9396C71.1716 198.728 71.3764 198.688 71.554 198.607C71.7339 198.527 71.8736 198.415 71.973 198.273C72.0724 198.129 72.1222 197.961 72.1222 197.769C72.1222 197.587 72.0784 197.427 71.9908 197.29C71.9055 197.15 71.7848 197.041 71.6286 196.963C71.4747 196.885 71.2947 196.846 71.0888 196.846C70.8804 196.846 70.6899 196.884 70.517 196.96C70.3442 197.033 70.2057 197.138 70.1016 197.276C69.9974 197.413 69.9418 197.574 69.9347 197.759H68.4609C68.468 197.339 68.5876 196.97 68.8196 196.651C69.0516 196.331 69.3641 196.081 69.7571 195.901C70.1525 195.719 70.5987 195.628 71.0959 195.628C71.5978 195.628 72.0369 195.719 72.4134 195.901C72.7898 196.084 73.0821 196.33 73.2905 196.64C73.5012 196.948 73.6054 197.293 73.603 197.677C73.6054 198.084 73.4787 198.424 73.223 198.696C72.9697 198.968 72.6394 199.141 72.2322 199.214V199.271C72.7673 199.34 73.1745 199.526 73.4538 199.829C73.7356 200.129 73.8752 200.506 73.8729 200.958C73.8752 201.372 73.7557 201.741 73.5142 202.062C73.2751 202.384 72.9448 202.638 72.5234 202.822C72.102 203.007 71.6191 203.099 71.0746 203.099ZM74.9782 203V201.892L77.5669 199.495C77.7871 199.282 77.9718 199.09 78.1209 198.92C78.2724 198.749 78.3873 198.582 78.4654 198.419C78.5435 198.253 78.5826 198.075 78.5826 197.883C78.5826 197.67 78.534 197.486 78.437 197.332C78.3399 197.176 78.2073 197.057 78.0392 196.974C77.8712 196.888 77.6806 196.846 77.4675 196.846C77.245 196.846 77.0508 196.891 76.8851 196.981C76.7194 197.071 76.5916 197.2 76.5016 197.368C76.4116 197.536 76.3667 197.736 76.3667 197.968H74.9071C74.9071 197.492 75.0149 197.079 75.2303 196.729C75.4457 196.378 75.7476 196.107 76.1358 195.915C76.5241 195.724 76.9715 195.628 77.4782 195.628C77.999 195.628 78.4524 195.72 78.8382 195.905C79.2265 196.087 79.5284 196.34 79.7438 196.665C79.9592 196.989 80.0669 197.361 80.0669 197.78C80.0669 198.054 80.0125 198.326 79.9036 198.593C79.7971 198.861 79.6065 199.158 79.3319 199.484C79.0572 199.809 78.6702 200.198 78.1706 200.653L77.1088 201.693V201.743H80.1628V203H74.9782ZM81.2912 205.045V197.545H82.7827V198.462H82.8501C82.9164 198.315 83.0123 198.166 83.1378 198.014C83.2656 197.86 83.4313 197.732 83.6349 197.631C83.8409 197.527 84.0966 197.474 84.402 197.474C84.7997 197.474 85.1667 197.579 85.5028 197.787C85.839 197.993 86.1077 198.304 86.3089 198.721C86.5102 199.135 86.6108 199.655 86.6108 200.28C86.6108 200.888 86.5125 201.402 86.3161 201.821C86.1219 202.238 85.8568 202.554 85.5206 202.769C85.1868 202.982 84.8127 203.089 84.3984 203.089C84.1049 203.089 83.8551 203.04 83.6491 202.943C83.4455 202.846 83.2786 202.724 83.1484 202.577C83.0182 202.428 82.9188 202.278 82.8501 202.126H82.804V205.045H81.2912ZM82.772 200.273C82.772 200.597 82.817 200.88 82.907 201.121C82.9969 201.363 83.1271 201.551 83.2976 201.686C83.468 201.819 83.6752 201.885 83.919 201.885C84.1652 201.885 84.3736 201.817 84.544 201.683C84.7145 201.545 84.8435 201.356 84.9311 201.114C85.0211 200.871 85.0661 200.59 85.0661 200.273C85.0661 199.958 85.0223 199.681 84.9347 199.442C84.8471 199.203 84.718 199.016 84.5476 198.881C84.3771 198.746 84.1676 198.678 83.919 198.678C83.6728 198.678 83.4645 198.743 83.294 198.874C83.1259 199.004 82.9969 199.188 82.907 199.428C82.817 199.667 82.772 199.948 82.772 200.273ZM88.6882 197.545L89.6896 199.452L90.7159 197.545H92.2678L90.6875 200.273L92.3104 203H90.7656L89.6896 201.114L88.6314 203H87.0689L88.6882 200.273L87.1257 197.545H88.6882Z" fill="white"/>
<line x1="44" y1="189" x2="44" y2="182" stroke="#E8178A"/>
<line x1="106.5" y1="189" x2="106.5" y2="182" stroke="#E8178A"/>
</svg>
