<svg width="367" height="208" viewBox="0 0 367 208" fill="none" xmlns="http://www.w3.org/2000/svg"><path fill="#F7F7F9" d="M43 13h301v176H43z"/><path d="M82.324 50.71c-.046-.458-.24-.814-.585-1.068-.345-.254-.813-.38-1.404-.38-.401 0-.74.056-1.017.17a1.43 1.43 0 0 0-.636.46c-.144.197-.216.42-.216.67a.958.958 0 0 0 .13.546c.1.155.233.29.404.403.17.11.367.207.59.29.224.08.463.148.717.205l1.045.25c.508.113.974.265 1.398.454.424.19.792.423 1.102.7.31.276.551.601.722.976.174.375.263.805.267 1.29-.004.712-.186 1.33-.545 1.852-.357.52-.872.923-1.546 1.21-.67.285-1.48.427-2.426.427-.94 0-1.758-.144-2.455-.432-.693-.288-1.234-.714-1.625-1.278-.386-.569-.589-1.271-.608-2.108h2.381c.027.39.138.715.335.977.201.257.468.453.801.585a3.18 3.18 0 0 0 1.142.193c.417 0 .779-.06 1.086-.181.31-.122.55-.29.721-.506.17-.216.256-.464.256-.745a.967.967 0 0 0-.233-.659c-.151-.178-.375-.33-.67-.454a6.819 6.819 0 0 0-1.074-.341l-1.267-.318c-.981-.239-1.756-.612-2.324-1.12-.568-.507-.85-1.19-.847-2.05-.004-.705.184-1.32.563-1.847.382-.527.907-.938 1.573-1.233.667-.296 1.425-.444 2.273-.444.864 0 1.618.148 2.262.444.647.295 1.151.706 1.511 1.233.36.526.546 1.136.557 1.83h-2.358Zm9.723 4.574v-5.011h2.42V59h-2.323v-1.585h-.091a2.578 2.578 0 0 1-.983 1.233c-.455.31-1.01.466-1.665.466-.584 0-1.097-.133-1.54-.398a2.734 2.734 0 0 1-1.04-1.13c-.246-.49-.37-1.075-.375-1.756v-5.557h2.42v5.125c.004.515.143.922.415 1.221.273.3.639.45 1.097.45.292 0 .564-.067.818-.2a1.56 1.56 0 0 0 .614-.602c.159-.265.237-.593.233-.983ZM96.449 59V47.364h2.42v4.375h.074c.106-.235.26-.474.46-.716.205-.247.47-.451.796-.614.329-.167.739-.25 1.227-.25.637 0 1.224.167 1.762.5.537.33.967.828 1.289 1.494.322.663.483 1.495.483 2.495 0 .973-.157 1.795-.471 2.466-.311.666-.735 1.172-1.273 1.517a3.268 3.268 0 0 1-1.796.511c-.469 0-.869-.078-1.198-.233a2.477 2.477 0 0 1-.801-.585 2.97 2.97 0 0 1-.478-.722h-.108V59H96.45Zm2.37-4.364c0 .52.071.972.215 1.358.144.387.352.688.625.904.273.212.604.318.994.318.394 0 .728-.108 1-.324.273-.22.48-.523.62-.909.144-.39.216-.84.216-1.347 0-.503-.07-.947-.211-1.33-.14-.382-.346-.681-.619-.897-.273-.216-.608-.324-1.006-.324-.394 0-.727.104-1 .313-.269.208-.475.503-.619.886-.144.383-.216.833-.216 1.352ZM110.277 59v-8.727h2.307v1.54h.103c.181-.512.484-.915.909-1.21.424-.296.931-.444 1.522-.444.599 0 1.108.15 1.529.449.42.295.7.697.841 1.205h.091c.178-.5.5-.9.965-1.2.47-.302 1.025-.454 1.665-.454.815 0 1.476.26 1.983.779.512.515.767 1.246.767 2.193V59h-2.415v-5.392c0-.485-.128-.848-.386-1.091-.257-.242-.579-.364-.966-.364-.439 0-.782.14-1.028.42-.246.277-.37.643-.37 1.097V59h-2.346v-5.443c0-.428-.123-.77-.369-1.023-.243-.254-.563-.38-.961-.38-.269 0-.511.068-.727.204-.212.133-.381.32-.506.563a1.788 1.788 0 0 0-.187.84V59h-2.421Zm18.571.17c-.897 0-1.67-.181-2.318-.545a3.731 3.731 0 0 1-1.488-1.557c-.349-.674-.523-1.471-.523-2.392 0-.898.174-1.686.523-2.364a3.863 3.863 0 0 1 1.471-1.585c.637-.378 1.383-.568 2.239-.568.576 0 1.112.093 1.608.279.5.181.935.456 1.307.823.375.368.666.83.875 1.387.208.553.312 1.2.312 1.943v.665h-7.369v-1.5h5.091a1.85 1.85 0 0 0-.228-.926 1.622 1.622 0 0 0-.63-.631 1.799 1.799 0 0 0-.926-.233c-.368 0-.694.085-.978.256-.28.166-.5.392-.659.676-.159.28-.24.592-.244.937v1.426c0 .432.079.805.239 1.12.162.314.392.556.687.727.296.17.646.256 1.051.256.269 0 .515-.038.739-.114.223-.076.415-.19.574-.34.159-.152.28-.338.363-.558l2.239.148a3.063 3.063 0 0 1-.699 1.41c-.348.397-.799.707-1.352.93-.549.22-1.184.33-1.904.33Zm8.006-5.215V59h-2.42v-8.727h2.306v1.54h.103c.193-.508.517-.91.971-1.205.455-.3 1.006-.449 1.654-.449.606 0 1.134.133 1.585.398.451.265.801.644 1.051 1.136.25.489.375 1.072.375 1.75V59h-2.42v-5.125c.003-.534-.133-.95-.409-1.25-.277-.303-.658-.455-1.142-.455-.326 0-.614.07-.864.21-.246.14-.44.345-.58.614-.136.266-.206.586-.21.96Zm13.129 1.33v-5.012h2.421V59h-2.324v-1.585h-.091a2.58 2.58 0 0 1-.983 1.233c-.454.31-1.009.466-1.665.466-.583 0-1.096-.133-1.539-.398a2.729 2.729 0 0 1-1.04-1.13c-.246-.49-.371-1.075-.375-1.756v-5.557h2.42v5.125c.004.515.142.922.415 1.221.273.3.638.45 1.097.45.291 0 .564-.067.818-.2.254-.136.458-.337.613-.602.16-.265.237-.593.233-.983Z" fill="#5925DC"/><path fill-rule="evenodd" clip-rule="evenodd" d="M303.673 49.904a.464.464 0 0 1 .654 0l5.538 5.538a.465.465 0 0 1 0 .654.464.464 0 0 1-.654 0L304 50.884l-5.211 5.212a.462.462 0 0 1-.654-.654l5.538-5.538Z" fill="#5925DC"/><path d="M61 77V29h-4v48h4Z" fill="#5925DC"/><path d="M90.773 98.273a1.784 1.784 0 0 0-.83-1.341c-.485-.318-1.08-.478-1.784-.478-.515 0-.966.084-1.352.25a2.16 2.16 0 0 0-.898.688 1.648 1.648 0 0 0-.318.994c0 .311.074.578.222.802.151.22.344.403.579.55a4.1 4.1 0 0 0 .739.359c.257.09.494.164.71.221l1.182.318c.303.08.64.19 1.011.33.375.14.733.331 1.074.574.345.238.629.545.852.92.224.375.336.835.336 1.381 0 .629-.165 1.197-.495 1.704-.326.508-.803.911-1.432 1.211-.625.299-1.384.449-2.278.449-.833 0-1.555-.135-2.165-.404-.606-.269-1.083-.644-1.432-1.125A3.21 3.21 0 0 1 83.91 104h1.455c.037.439.185.803.443 1.091.261.284.59.496.989.636.401.137.833.205 1.295.205a3.8 3.8 0 0 0 1.449-.262c.428-.178.767-.424 1.017-.738.25-.318.375-.69.375-1.114 0-.386-.108-.701-.324-.943a2.389 2.389 0 0 0-.852-.591 9.096 9.096 0 0 0-1.142-.398l-1.432-.409c-.91-.261-1.629-.634-2.16-1.119-.53-.485-.795-1.12-.795-1.904 0-.651.176-1.22.529-1.704a3.51 3.51 0 0 1 1.431-1.136c.603-.273 1.275-.41 2.017-.41.75 0 1.417.135 2 .404.584.265 1.046.629 1.387 1.09.345.463.526.988.545 1.575h-1.363Zm9.157 5.159v-5.16h1.341V107h-1.34v-1.477h-.091c-.205.443-.523.82-.955 1.13-.432.307-.977.461-1.636.461-.546 0-1.03-.12-1.455-.358-.424-.243-.757-.606-1-1.091-.242-.489-.364-1.104-.364-1.847v-5.545h1.341v5.454c0 .637.178 1.144.534 1.523.36.379.819.568 1.375.568.334 0 .673-.085 1.017-.256.349-.17.64-.431.875-.784.24-.352.358-.801.358-1.346Zm3.98 3.568V95.364h1.341v4.295h.114c.098-.151.234-.345.409-.58.178-.238.432-.45.761-.636.333-.19.784-.284 1.352-.284.735 0 1.383.184 1.944.551.56.368.998.889 1.312 1.563.314.674.472 1.469.472 2.386 0 .924-.158 1.725-.472 2.403-.314.675-.75 1.197-1.307 1.569-.557.367-1.199.551-1.926.551-.561 0-1.009-.093-1.347-.279-.337-.189-.596-.403-.778-.642a8.279 8.279 0 0 1-.42-.602h-.159V107h-1.296Zm1.318-4.364c0 .659.097 1.241.29 1.745.193.5.475.892.847 1.176.371.28.825.42 1.363.42.561 0 1.029-.147 1.404-.443.378-.299.663-.701.852-1.204.193-.508.29-1.072.29-1.694 0-.613-.095-1.166-.284-1.659-.186-.496-.468-.888-.847-1.176-.375-.291-.847-.437-1.415-.437-.545 0-1.004.138-1.375.414-.371.273-.651.656-.841 1.148-.189.489-.284 1.059-.284 1.71ZM118.165 107v-8.727h1.295v1.363h.114c.182-.465.475-.827.881-1.085.405-.261.892-.392 1.46-.392.576 0 1.055.13 1.437.392.387.258.688.62.904 1.085h.091c.223-.45.558-.808 1.005-1.073.447-.27.983-.404 1.608-.404.781 0 1.419.244 1.915.733.496.485.744 1.241.744 2.267V107h-1.341v-5.841c0-.644-.176-1.104-.528-1.38a1.955 1.955 0 0 0-1.244-.415c-.614 0-1.089.185-1.426.556-.338.368-.506.834-.506 1.398V107h-1.364v-5.977c0-.496-.161-.896-.483-1.2-.322-.306-.736-.46-1.244-.46-.349 0-.674.093-.977.279a2.1 2.1 0 0 0-.728.773 2.288 2.288 0 0 0-.272 1.13V107h-1.341Zm17.565.182c-.841 0-1.566-.186-2.176-.557a3.736 3.736 0 0 1-1.403-1.568c-.326-.674-.489-1.459-.489-2.352 0-.894.163-1.682.489-2.364.329-.686.787-1.22 1.375-1.602.59-.387 1.28-.58 2.068-.58.454 0 .903.076 1.346.227.444.152.847.398 1.211.739.363.337.653.784.869 1.341.216.557.324 1.242.324 2.057v.568h-6.728v-1.159h5.364c0-.493-.098-.932-.295-1.318a2.228 2.228 0 0 0-.83-.915c-.356-.224-.776-.335-1.261-.335-.534 0-.996.132-1.387.397a2.629 2.629 0 0 0-.892 1.023 3.01 3.01 0 0 0-.312 1.352v.773c0 .659.113 1.218.341 1.676.231.455.551.801.96 1.04.409.235.884.352 1.426.352.352 0 .671-.049.955-.147.288-.103.536-.254.744-.455.208-.205.369-.458.483-.761l1.295.363a2.86 2.86 0 0 1-.687 1.159c-.322.33-.72.587-1.193.773a4.425 4.425 0 0 1-1.597.273Zm6.994-5.432V107h-1.34v-8.727h1.295v1.363h.114c.204-.443.515-.799.931-1.068.417-.272.955-.409 1.614-.409.591 0 1.108.121 1.551.364a2.45 2.45 0 0 1 1.034 1.09c.247.485.37 1.099.37 1.842V107h-1.341v-5.455c0-.685-.178-1.219-.534-1.602-.356-.386-.845-.58-1.466-.58a2.34 2.34 0 0 0-1.148.279 1.99 1.99 0 0 0-.79.813c-.193.356-.29.787-.29 1.295Zm13.519 1.682v-5.16h1.341V107h-1.341v-1.477h-.091c-.205.443-.523.82-.955 1.13-.431.307-.977.461-1.636.461a2.92 2.92 0 0 1-1.454-.358c-.425-.243-.758-.606-1-1.091-.243-.489-.364-1.104-.364-1.847v-5.545h1.341v5.454c0 .637.178 1.144.534 1.523.36.379.818.568 1.375.568.333 0 .672-.085 1.017-.256.348-.17.64-.431.875-.784.239-.352.358-.801.358-1.346Zm12.365-8.068V107h-1.409V96.84h-.068l-2.841 1.887v-1.431l2.909-1.932h1.409Z" fill="#344054"/><path d="M90.324 146.71c-.046-.458-.24-.814-.585-1.068-.345-.254-.813-.381-1.404-.381-.401 0-.74.057-1.017.171a1.43 1.43 0 0 0-.636.46c-.144.197-.216.42-.216.67a.957.957 0 0 0 .13.546c.1.155.233.29.404.403.17.11.367.207.59.29.224.08.463.148.717.205l1.045.25c.508.113.974.265 1.398.454.424.19.792.423 1.102.699.31.277.551.602.722.977.174.375.263.805.267 1.29-.004.712-.186 1.33-.545 1.852-.357.519-.872.923-1.546 1.211-.67.284-1.48.426-2.426.426-.94 0-1.758-.144-2.455-.432-.693-.288-1.234-.714-1.625-1.278-.386-.569-.589-1.271-.608-2.108h2.381c.027.39.138.715.335.977.201.257.468.453.801.585.337.129.718.193 1.142.193.417 0 .779-.06 1.086-.182.31-.121.55-.289.721-.505.17-.216.256-.464.256-.745a.967.967 0 0 0-.233-.659c-.151-.178-.375-.329-.67-.454a6.787 6.787 0 0 0-1.074-.341l-1.267-.318c-.981-.239-1.756-.612-2.324-1.12-.568-.507-.85-1.191-.847-2.051-.004-.704.184-1.32.563-1.846.382-.527.907-.938 1.573-1.233.667-.296 1.425-.443 2.273-.443.864 0 1.618.147 2.262.443.647.295 1.151.706 1.511 1.233.36.526.546 1.136.557 1.829h-2.358Zm9.723 4.574v-5.011h2.42V155h-2.324v-1.585h-.09a2.584 2.584 0 0 1-.983 1.233c-.455.31-1.01.466-1.665.466-.584 0-1.097-.133-1.54-.398a2.732 2.732 0 0 1-1.04-1.131c-.246-.488-.37-1.074-.375-1.755v-5.557h2.42v5.125c.004.515.143.922.415 1.221.273.3.639.449 1.097.449.292 0 .564-.066.818-.199.254-.136.459-.337.614-.602.159-.265.237-.593.233-.983Zm4.402 3.716v-11.636h2.42v4.375h.074c.106-.235.26-.474.46-.716.205-.246.47-.451.796-.614.329-.167.739-.25 1.227-.25.637 0 1.224.167 1.762.5.537.33.967.828 1.289 1.494.322.663.483 1.495.483 2.495 0 .973-.157 1.795-.471 2.466-.311.666-.735 1.172-1.273 1.517a3.267 3.267 0 0 1-1.796.511c-.469 0-.869-.078-1.198-.233a2.48 2.48 0 0 1-.802-.585 2.983 2.983 0 0 1-.477-.722h-.108V155h-2.386Zm2.369-4.364c0 .519.072.972.216 1.358.144.387.352.688.625.904.273.212.604.318.994.318.394 0 .728-.108 1-.324.273-.22.48-.523.62-.909.144-.39.216-.839.216-1.347 0-.503-.07-.947-.211-1.329-.14-.383-.346-.682-.619-.898-.273-.216-.608-.324-1.006-.324-.394 0-.727.104-1 .313-.269.208-.475.504-.619.886-.144.383-.216.833-.216 1.352Zm11.46 4.364v-8.727h2.307v1.539h.103c.181-.511.484-.914.909-1.21.424-.295.931-.443 1.522-.443.599 0 1.108.15 1.529.449.42.295.7.697.841 1.204h.091c.178-.5.5-.899.965-1.198.47-.303 1.025-.455 1.665-.455.815 0 1.476.26 1.983.779.512.515.767 1.246.767 2.193V155h-2.415v-5.392c0-.485-.128-.849-.386-1.091-.257-.242-.579-.364-.966-.364-.439 0-.782.141-1.028.421-.246.276-.37.642-.37 1.096V155h-2.346v-5.443c0-.428-.123-.769-.369-1.023-.243-.254-.563-.381-.961-.381-.269 0-.511.069-.727.205a1.41 1.41 0 0 0-.506.562 1.79 1.79 0 0 0-.187.841V155h-2.421Zm18.571.17c-.897 0-1.67-.181-2.318-.545a3.726 3.726 0 0 1-1.488-1.557c-.349-.674-.523-1.471-.523-2.392 0-.898.174-1.685.523-2.364a3.864 3.864 0 0 1 1.471-1.585c.637-.379 1.383-.568 2.239-.568.576 0 1.112.093 1.608.279.5.181.935.456 1.307.823.375.368.666.83.875 1.387.208.553.312 1.2.312 1.943v.665h-7.369v-1.5h5.091c0-.349-.076-.658-.228-.926a1.62 1.62 0 0 0-.63-.631 1.802 1.802 0 0 0-.926-.233c-.368 0-.694.085-.978.256-.28.166-.5.392-.659.676-.159.28-.24.593-.244.937v1.426c0 .432.079.805.239 1.12.162.314.392.557.687.727.296.17.646.256 1.051.256.269 0 .515-.038.739-.114a1.472 1.472 0 0 0 .937-.898l2.239.148a3.06 3.06 0 0 1-.699 1.409c-.348.398-.799.708-1.352.932-.549.22-1.184.329-1.904.329Zm8.006-5.215V155h-2.42v-8.727h2.306v1.539h.103c.193-.507.517-.909.971-1.204.455-.299 1.006-.449 1.654-.449.606 0 1.134.133 1.585.398.451.265.801.644 1.051 1.136.25.489.375 1.072.375 1.75V155h-2.42v-5.125c.003-.534-.133-.951-.409-1.25-.277-.303-.658-.455-1.142-.455-.326 0-.614.071-.864.211-.246.14-.44.344-.58.613-.136.265-.206.586-.21.961Zm13.129 1.329v-5.011h2.421V155h-2.324v-1.585h-.091a2.583 2.583 0 0 1-.983 1.233c-.454.31-1.009.466-1.665.466-.583 0-1.096-.133-1.539-.398a2.727 2.727 0 0 1-1.04-1.131c-.246-.488-.371-1.074-.375-1.755v-5.557h2.42v5.125c.004.515.142.922.415 1.221.273.3.638.449 1.097.449.291 0 .564-.066.818-.199.254-.136.458-.337.613-.602.16-.265.237-.593.233-.983Zm8.037 3.716v-1.773l4.142-3.835c.353-.341.648-.648.887-.92.242-.273.426-.54.551-.802.125-.265.187-.551.187-.858 0-.34-.077-.634-.233-.88a1.53 1.53 0 0 0-.636-.574 2 2 0 0 0-.915-.205c-.356 0-.666.072-.932.216a1.49 1.49 0 0 0-.613.62c-.144.269-.216.589-.216.96h-2.335c0-.762.172-1.422.517-1.983a3.443 3.443 0 0 1 1.449-1.301c.621-.307 1.337-.46 2.147-.46.834 0 1.559.147 2.176.443.622.291 1.105.697 1.449 1.216.345.519.517 1.113.517 1.784 0 .439-.087.873-.261 1.301-.17.428-.475.903-.915 1.426-.439.519-1.058 1.142-1.858 1.869l-1.699 1.665v.08h4.887V155h-8.296Z" fill="#5925DC"/><path fill="#E8178A" fill-opacity=".24" d="M59 69h253v8H59zm0-40h253v8H59z"/><path fill="#E8178A" fill-opacity=".24" d="M59 29h16v48H59zm-16 0h16v48H43z"/><rect y="24" width="31" height="17.891" rx="3" fill="#E8178A"/><path d="M9.303 37.1c-.547 0-1.034-.09-1.46-.267-.424-.18-.756-.425-.998-.735a1.671 1.671 0 0 1-.362-1.055c0-.303.069-.58.206-.834.14-.256.329-.468.568-.636.24-.17.507-.28.803-.327v-.05a1.577 1.577 0 0 1-.945-.564c-.241-.3-.362-.65-.362-1.047 0-.377.11-.712.33-1.006a2.2 2.2 0 0 1 .906-.695 3.23 3.23 0 0 1 1.314-.256c.49 0 .926.085 1.31.256.386.17.689.403.909.7.22.293.332.627.334 1-.002.4-.126.75-.37 1.048a1.587 1.587 0 0 1-.937.565v.05c.291.047.555.156.792.326.239.168.428.38.568.636a1.706 1.706 0 0 1-.15 1.889c-.24.31-.574.555-1 .735-.424.178-.91.266-1.456.266Zm0-1.13c.243 0 .456-.044.639-.131a1.05 1.05 0 0 0 .426-.37.973.973 0 0 0 .156-.546.986.986 0 0 0-.16-.558 1.099 1.099 0 0 0-.433-.384 1.344 1.344 0 0 0-.628-.142c-.235 0-.444.048-.629.142-.185.093-.33.22-.437.384a1.006 1.006 0 0 0-.156.558.976.976 0 0 0 .583.916c.184.087.397.131.639.131Zm0-3.25c.203 0 .384-.04.543-.123a.936.936 0 0 0 .373-.345.952.952 0 0 0 .135-.508.91.91 0 0 0-.505-.834 1.15 1.15 0 0 0-.546-.125c-.206 0-.389.042-.547.125a.919.919 0 0 0-.373.337.928.928 0 0 0-.132.497c0 .192.045.361.135.508.09.147.215.262.373.345.159.082.34.124.544.124Zm3.912 6.325v-7.5h1.492v.917h.067c.066-.147.162-.296.288-.448a1.5 1.5 0 0 1 .497-.383c.206-.105.461-.157.767-.157.398 0 .764.105 1.1.313.337.206.606.517.807.934.201.414.302.934.302 1.559 0 .608-.099 1.122-.295 1.541-.194.417-.46.733-.796.948-.333.213-.707.32-1.122.32-.293 0-.543-.049-.749-.146a1.55 1.55 0 0 1-.5-.366 1.9 1.9 0 0 1-.299-.45h-.046v2.918h-1.513Zm1.48-4.772c0 .324.046.607.136.848.09.242.22.43.39.565a.98.98 0 0 0 .622.199.975.975 0 0 0 .625-.203c.17-.137.3-.326.387-.568.09-.243.135-.524.135-.841a2.41 2.41 0 0 0-.131-.831 1.237 1.237 0 0 0-.388-.561.98.98 0 0 0-.628-.203 1 1 0 0 0-.625.196 1.22 1.22 0 0 0-.387.554c-.09.239-.135.52-.135.845Zm5.917-2.728 1.002 1.907 1.026-1.906h1.552l-1.58 2.727L24.233 37H22.69l-1.076-1.886L20.555 37h-1.562l1.619-2.727-1.563-2.728h1.563Z" fill="#fff"/><rect y="62.806" width="31" height="17.891" rx="3" fill="#E8178A"/><path d="M9.303 75.906c-.547 0-1.034-.09-1.46-.267-.424-.18-.756-.425-.998-.735a1.671 1.671 0 0 1-.362-1.055c0-.303.069-.58.206-.834.14-.256.329-.468.568-.636.24-.17.507-.28.803-.327v-.05a1.577 1.577 0 0 1-.945-.564c-.241-.3-.362-.65-.362-1.047 0-.377.11-.712.33-1.005a2.2 2.2 0 0 1 .906-.696 3.22 3.22 0 0 1 1.314-.256c.49 0 .926.085 1.31.256.386.17.689.403.909.7.22.293.332.626.334 1-.002.4-.126.75-.37 1.048a1.587 1.587 0 0 1-.937.565v.05c.291.047.555.156.792.326.239.168.428.38.568.636a1.706 1.706 0 0 1-.15 1.89c-.24.31-.574.554-1 .734-.424.178-.91.267-1.456.267Zm0-1.13c.243 0 .456-.044.639-.131a1.05 1.05 0 0 0 .426-.37.973.973 0 0 0 .156-.546.987.987 0 0 0-.16-.558 1.098 1.098 0 0 0-.433-.383 1.344 1.344 0 0 0-.628-.142c-.235 0-.444.047-.629.142-.185.092-.33.22-.437.383a1.004 1.004 0 0 0-.156.558.976.976 0 0 0 .583.916c.184.087.397.131.639.131Zm0-3.249c.203 0 .384-.041.543-.124a.936.936 0 0 0 .373-.345.952.952 0 0 0 .135-.508.91.91 0 0 0-.505-.834 1.15 1.15 0 0 0-.546-.124 1.16 1.16 0 0 0-.547.124.92.92 0 0 0-.373.337.928.928 0 0 0-.132.497c0 .192.045.361.135.508.09.147.215.262.373.345.159.082.34.124.544.124Zm3.912 6.325v-7.5h1.492v.916h.067a2 2 0 0 1 .288-.448c.128-.154.293-.281.497-.383.206-.104.461-.156.767-.156.398 0 .764.104 1.1.312.337.206.606.517.807.934.201.414.302.934.302 1.559 0 .608-.099 1.122-.295 1.541-.194.417-.46.733-.796.948-.333.213-.707.32-1.122.32-.293 0-.543-.049-.749-.146a1.55 1.55 0 0 1-.5-.365c-.13-.15-.23-.3-.299-.451h-.046v2.918h-1.513Zm1.48-4.773c0 .324.046.607.136.849.09.241.22.43.39.564a.98.98 0 0 0 .622.199.976.976 0 0 0 .625-.202c.17-.138.3-.327.387-.569.09-.243.135-.524.135-.841a2.41 2.41 0 0 0-.131-.831 1.237 1.237 0 0 0-.388-.561.98.98 0 0 0-.628-.203.999.999 0 0 0-.625.196 1.22 1.22 0 0 0-.387.554c-.09.239-.135.52-.135.845Zm5.917-2.727 1.002 1.906 1.026-1.906h1.552l-1.58 2.727 1.622 2.727H22.69l-1.076-1.886-1.058 1.886h-1.562l1.619-2.727-1.563-2.727h1.563Z" fill="#fff"/><path d="M35.5 68.285v7.951M32 68.779h7m-7 6.957h7M35.5 29v7.952M32 29.494h7m-7 6.958h7" stroke="#E8178A"/><rect y="120" width="31" height="17.891" rx="3" fill="#E8178A"/><path d="M9.303 133.099c-.547 0-1.034-.088-1.46-.266-.424-.18-.756-.425-.998-.735a1.672 1.672 0 0 1-.362-1.055c0-.303.069-.581.206-.834.14-.256.329-.468.568-.636.24-.17.507-.279.803-.327v-.049a1.578 1.578 0 0 1-.945-.565 1.625 1.625 0 0 1-.362-1.047c0-.377.11-.712.33-1.005.22-.296.522-.528.906-.696a3.212 3.212 0 0 1 1.314-.256c.49 0 .926.085 1.31.256.386.17.689.403.909.699.22.294.332.627.334 1.002-.002.4-.126.749-.37 1.047a1.589 1.589 0 0 1-.937.565v.049c.291.048.555.157.792.327.239.168.428.38.568.636a1.703 1.703 0 0 1-.15 1.889c-.24.31-.574.555-1 .735-.424.178-.91.266-1.456.266Zm0-1.129c.243 0 .456-.044.639-.131.182-.09.324-.213.426-.37a.969.969 0 0 0 .156-.546.987.987 0 0 0-.16-.558 1.097 1.097 0 0 0-.433-.383 1.34 1.34 0 0 0-.628-.143c-.235 0-.444.048-.629.143-.185.092-.33.22-.437.383a1.004 1.004 0 0 0-.156.558.976.976 0 0 0 .583.916c.184.087.397.131.639.131Zm0-3.249c.203 0 .384-.042.543-.124a.937.937 0 0 0 .373-.345.953.953 0 0 0 .135-.508.91.91 0 0 0-.505-.834 1.149 1.149 0 0 0-.546-.124 1.16 1.16 0 0 0-.547.124.918.918 0 0 0-.373.337.928.928 0 0 0-.132.497c0 .192.045.361.135.508.09.147.215.262.373.345.159.082.34.124.544.124Zm3.912 6.324v-7.5h1.492v.917h.067c.066-.147.162-.296.288-.448a1.5 1.5 0 0 1 .497-.383c.206-.104.461-.157.767-.157.398 0 .764.105 1.1.313.337.206.606.517.807.934.201.414.302.934.302 1.559 0 .608-.099 1.122-.295 1.541-.194.417-.46.733-.796.948-.333.213-.707.32-1.122.32-.293 0-.543-.049-.749-.146a1.546 1.546 0 0 1-.5-.366 1.844 1.844 0 0 1-.299-.451h-.046v2.919h-1.513Zm1.48-4.772c0 .324.046.607.136.848.09.242.22.43.39.565a.98.98 0 0 0 .622.199.98.98 0 0 0 .625-.202c.17-.138.3-.327.387-.569.09-.243.135-.524.135-.841a2.41 2.41 0 0 0-.131-.831 1.238 1.238 0 0 0-.388-.561.981.981 0 0 0-.628-.203.995.995 0 0 0-.625.196 1.22 1.22 0 0 0-.387.554c-.09.239-.135.52-.135.845Zm5.917-2.728 1.002 1.907 1.026-1.907h1.552l-1.58 2.728L24.233 133H22.69l-1.076-1.886L20.555 133h-1.562l1.619-2.727-1.563-2.728h1.563Z" fill="#fff"/><rect y="160" width="31" height="17.891" rx="3" fill="#E8178A"/><path d="M9.303 173.099c-.547 0-1.034-.088-1.46-.266-.424-.18-.756-.425-.998-.735a1.672 1.672 0 0 1-.362-1.055c0-.303.069-.581.206-.834.14-.256.329-.468.568-.636.24-.17.507-.279.803-.327v-.049a1.578 1.578 0 0 1-.945-.565 1.625 1.625 0 0 1-.362-1.047c0-.377.11-.712.33-1.005.22-.296.522-.528.906-.696a3.212 3.212 0 0 1 1.314-.256c.49 0 .926.085 1.31.256.386.17.689.403.909.699.22.294.332.627.334 1.002-.002.4-.126.749-.37 1.047a1.589 1.589 0 0 1-.937.565v.049c.291.048.555.157.792.327.239.168.428.38.568.636a1.703 1.703 0 0 1-.15 1.889c-.24.31-.574.555-1 .735-.424.178-.91.266-1.456.266Zm0-1.129c.243 0 .456-.044.639-.131.182-.09.324-.213.426-.37a.969.969 0 0 0 .156-.546.987.987 0 0 0-.16-.558 1.097 1.097 0 0 0-.433-.383 1.34 1.34 0 0 0-.628-.143c-.235 0-.444.048-.629.143-.185.092-.33.22-.437.383a1.004 1.004 0 0 0-.156.558.976.976 0 0 0 .583.916c.184.087.397.131.639.131Zm0-3.249c.203 0 .384-.042.543-.124a.937.937 0 0 0 .373-.345.953.953 0 0 0 .135-.508.91.91 0 0 0-.505-.834 1.149 1.149 0 0 0-.546-.124 1.16 1.16 0 0 0-.547.124.918.918 0 0 0-.373.337.928.928 0 0 0-.132.497c0 .192.045.361.135.508.09.147.215.262.373.345.159.082.34.124.544.124Zm3.912 6.324v-7.5h1.492v.917h.067c.066-.147.162-.296.288-.448a1.5 1.5 0 0 1 .497-.383c.206-.104.461-.157.767-.157.398 0 .764.105 1.1.313.337.206.606.517.807.934.201.414.302.934.302 1.559 0 .608-.099 1.122-.295 1.541-.194.417-.46.733-.796.948-.333.213-.707.32-1.122.32-.293 0-.543-.049-.749-.146a1.546 1.546 0 0 1-.5-.366 1.844 1.844 0 0 1-.299-.451h-.046v2.919h-1.513Zm1.48-4.772c0 .324.046.607.136.848.09.242.22.43.39.565a.98.98 0 0 0 .622.199.98.98 0 0 0 .625-.202c.17-.138.3-.327.387-.569.09-.243.135-.524.135-.841a2.41 2.41 0 0 0-.131-.831 1.238 1.238 0 0 0-.388-.561.981.981 0 0 0-.628-.203.995.995 0 0 0-.625.196 1.22 1.22 0 0 0-.387.554c-.09.239-.135.52-.135.845Zm5.917-2.728 1.002 1.907 1.026-1.907h1.552l-1.58 2.728L24.233 173H22.69l-1.076-1.886L20.555 173h-1.562l1.619-2.727-1.563-2.728h1.563Z" fill="#fff"/><path d="M35.5 165.479v7.951m-3.5-7.457h7m-7 6.957h7M35.5 125v7.952m-3.5-7.458h7m-7 6.958h7" stroke="#E8178A"/><path d="M324.5 29.479v47" stroke="#1745E8"/><rect x="329" y="41.903" width="38" height="17.891" rx="3" fill="#1745E8"/><path d="M335.479 53.625v-1.211l3.037-4.784h1.044v1.676h-.618l-1.914 3.03v.056h4.314v1.233h-5.863Zm3.491 1.278v-1.648l.029-.536V47.63h1.441v7.273h-1.47Zm6.11.1c-.547 0-1.033-.09-1.46-.267-.423-.18-.756-.425-.997-.735a1.67 1.67 0 0 1-.363-1.055c0-.303.069-.58.206-.834.14-.256.329-.468.568-.636.24-.17.507-.28.803-.326v-.05a1.58 1.58 0 0 1-.945-.565c-.241-.3-.362-.65-.362-1.047 0-.377.11-.712.33-1.005.221-.296.522-.528.906-.696a3.22 3.22 0 0 1 1.314-.256c.49 0 .927.085 1.31.256.386.17.689.403.909.7.221.293.332.627.334 1-.002.4-.125.75-.369 1.048a1.587 1.587 0 0 1-.938.565v.05c.292.047.556.156.792.326.239.168.429.38.568.636a1.702 1.702 0 0 1-.149 1.89c-.241.31-.575.554-1.001.734-.424.178-.909.267-1.456.267Zm0-1.13c.244 0 .457-.044.639-.131.182-.09.324-.213.426-.37a.975.975 0 0 0 .156-.546.99.99 0 0 0-.159-.558 1.1 1.1 0 0 0-.434-.383 1.34 1.34 0 0 0-.628-.142c-.234 0-.444.047-.629.142a1.09 1.09 0 0 0-.436.383.997.997 0 0 0-.157.558.99.99 0 0 0 .153.547c.102.156.245.279.43.369.184.087.397.131.639.131Zm0-3.25c.203 0 .385-.04.543-.123a.933.933 0 0 0 .373-.345.952.952 0 0 0 .135-.508.909.909 0 0 0-.504-.834 1.152 1.152 0 0 0-.547-.124c-.206 0-.388.041-.547.124a.918.918 0 0 0-.373.337.933.933 0 0 0-.131.497c0 .192.045.361.135.508.09.147.214.262.373.345.158.083.339.124.543.124Zm3.912 6.326v-7.5h1.492v.916h.067c.067-.147.162-.296.288-.448a1.51 1.51 0 0 1 .497-.383c.206-.104.462-.157.767-.157.398 0 .765.105 1.101.313.336.206.605.517.806.934.201.414.302.934.302 1.559 0 .608-.098 1.122-.295 1.541-.194.417-.459.733-.795.948-.334.213-.708.32-1.122.32a1.75 1.75 0 0 1-.75-.146 1.55 1.55 0 0 1-.5-.365 1.85 1.85 0 0 1-.299-.452h-.046v2.92h-1.513Zm1.481-4.773c0 .324.045.607.135.849.09.241.22.43.391.564.17.133.377.199.621.199a.975.975 0 0 0 .625-.202c.171-.138.3-.327.387-.569a2.42 2.42 0 0 0 .135-.841c0-.315-.044-.592-.131-.831a1.245 1.245 0 0 0-.387-.561.983.983 0 0 0-.629-.203 1 1 0 0 0-.625.196c-.168.13-.297.315-.387.554-.09.239-.135.52-.135.845Zm5.916-2.727 1.002 1.907 1.026-1.907h1.552l-1.58 2.727 1.623 2.727h-1.545l-1.076-1.886-1.058 1.886h-1.563l1.619-2.727-1.562-2.727h1.562Z" fill="#fff"/><path stroke="#1745E8" d="M321 29.973h7M321 76.5h7m-3.5 48.979v47"/><rect x="329" y="137.903" width="38" height="17.891" rx="3" fill="#1745E8"/><path d="M335.479 149.625v-1.211l3.037-4.784h1.044v1.676h-.618l-1.914 3.03v.056h4.314v1.233h-5.863Zm3.491 1.278v-1.648l.029-.536v-5.089h1.441v7.273h-1.47Zm6.11.099c-.547 0-1.033-.088-1.46-.266-.423-.18-.756-.425-.997-.735a1.67 1.67 0 0 1-.363-1.055c0-.303.069-.581.206-.834.14-.256.329-.468.568-.636.24-.17.507-.279.803-.327v-.049a1.581 1.581 0 0 1-.945-.565 1.627 1.627 0 0 1-.362-1.047c0-.377.11-.712.33-1.005.221-.296.522-.528.906-.696a3.213 3.213 0 0 1 1.314-.256c.49 0 .927.085 1.31.256.386.17.689.403.909.699.221.294.332.628.334 1.002-.002.4-.125.749-.369 1.047a1.588 1.588 0 0 1-.938.565v.049c.292.048.556.157.792.327.239.168.429.38.568.636a1.7 1.7 0 0 1 .217.834 1.684 1.684 0 0 1-.366 1.055c-.241.31-.575.555-1.001.735-.424.178-.909.266-1.456.266Zm0-1.129c.244 0 .457-.044.639-.131.182-.09.324-.213.426-.369a.976.976 0 0 0 .156-.547.991.991 0 0 0-.159-.558 1.098 1.098 0 0 0-.434-.383 1.336 1.336 0 0 0-.628-.142c-.234 0-.444.047-.629.142a1.09 1.09 0 0 0-.436.383.998.998 0 0 0-.157.558.99.99 0 0 0 .153.547c.102.156.245.279.43.369.184.087.397.131.639.131Zm0-3.249c.203 0 .385-.042.543-.124a.935.935 0 0 0 .373-.345.952.952 0 0 0 .135-.508.91.91 0 0 0-.504-.834 1.15 1.15 0 0 0-.547-.124c-.206 0-.388.041-.547.124a.916.916 0 0 0-.373.337.933.933 0 0 0-.131.497c0 .192.045.361.135.508.09.147.214.262.373.345.158.082.339.124.543.124Zm3.912 6.325v-7.5h1.492v.916h.067c.067-.147.162-.296.288-.448.128-.154.294-.281.497-.383.206-.104.462-.157.767-.157.398 0 .765.105 1.101.313.336.206.605.517.806.934.201.414.302.934.302 1.559 0 .608-.098 1.122-.295 1.541-.194.417-.459.733-.795.948-.334.213-.708.32-1.122.32a1.75 1.75 0 0 1-.75-.146 1.547 1.547 0 0 1-.5-.366 1.837 1.837 0 0 1-.299-.451h-.046v2.92h-1.513Zm1.481-4.773c0 .324.045.607.135.848.09.242.22.43.391.565.17.133.377.199.621.199a.975.975 0 0 0 .625-.202c.171-.138.3-.327.387-.569.09-.243.135-.524.135-.841 0-.315-.044-.592-.131-.831a1.245 1.245 0 0 0-.387-.561.983.983 0 0 0-.629-.203.996.996 0 0 0-.625.196 1.22 1.22 0 0 0-.387.554c-.09.239-.135.52-.135.845Zm5.916-2.727 1.002 1.906 1.026-1.906h1.552l-1.58 2.727 1.623 2.727h-1.545l-1.076-1.886-1.058 1.886h-1.563l1.619-2.727-1.562-2.727h1.562Z" fill="#fff"/><path stroke="#1745E8" d="M321 125.973h7m-7 46.527h7"/><path d="M59 23.479h16m-15.5 3.479V20m15 6.958V20M43 23.479h16m-15.5 3.479V20" stroke="#E8178A"/><rect x="61" width="36" height="17.891" rx="3" fill="#E8178A"/><path d="M70.754 5.727V13h-1.538V7.187h-.043L67.508 8.23V6.867l1.8-1.14h1.446Zm4.52 7.372a3.285 3.285 0 0 1-1.084-.188 2.465 2.465 0 0 1-.93-.6c-.275-.277-.493-.644-.654-1.1-.158-.458-.238-1.019-.238-1.684.003-.61.073-1.156.21-1.637.14-.483.338-.893.596-1.229.261-.336.572-.592.934-.767a2.73 2.73 0 0 1 1.218-.266c.486 0 .914.095 1.286.284.372.187.67.441.895.763.227.322.364.683.412 1.084h-1.516a1.013 1.013 0 0 0-.373-.597 1.126 1.126 0 0 0-.704-.217c-.473 0-.833.206-1.079.618-.244.412-.368.972-.373 1.68h.05a1.69 1.69 0 0 1 .44-.55c.187-.154.4-.272.636-.352.239-.083.491-.124.756-.124a2.168 2.168 0 0 1 1.946 1.136c.194.353.291.756.291 1.21 0 .493-.114.931-.344 1.315a2.388 2.388 0 0 1-.955.902c-.407.215-.881.322-1.42.32Zm-.008-1.207a1.2 1.2 0 0 0 1.076-.632 1.33 1.33 0 0 0 .16-.653c0-.242-.053-.459-.16-.65a1.181 1.181 0 0 0-1.065-.629c-.178 0-.342.033-.494.1a1.24 1.24 0 0 0-.657.688 1.274 1.274 0 0 0-.096.494 1.277 1.277 0 0 0 .6 1.108c.188.116.4.174.636.174Zm3.832 3.154v-7.5h1.491v.916h.068c.066-.147.162-.296.287-.448.128-.154.294-.282.498-.383.206-.104.461-.157.767-.157.397 0 .764.105 1.1.313.337.206.605.517.807.934.2.414.301.934.301 1.559 0 .608-.098 1.122-.294 1.541-.194.417-.46.733-.796.948-.334.213-.708.32-1.122.32-.293 0-.543-.049-.75-.146a1.55 1.55 0 0 1-.5-.366c-.13-.149-.23-.3-.298-.45h-.046v2.918h-1.513Zm1.48-4.773c0 .324.046.607.136.848.09.242.22.43.39.565a.98.98 0 0 0 .622.199.975.975 0 0 0 .625-.203c.17-.137.3-.326.387-.568a2.42 2.42 0 0 0 .135-.841 2.41 2.41 0 0 0-.132-.831 1.238 1.238 0 0 0-.387-.561.98.98 0 0 0-.628-.203 1 1 0 0 0-.625.196 1.22 1.22 0 0 0-.387.554c-.09.239-.135.52-.135.845Zm5.917-2.728 1.001 1.907 1.026-1.907h1.552l-1.58 2.728L90.117 13h-1.545l-1.076-1.886L86.438 13h-1.563l1.62-2.727-1.563-2.728h1.563Z" fill="#fff"/><rect x="22" width="36" height="17.891" rx="3" fill="#E8178A"/><path d="M31.754 5.727V13h-1.538V7.187h-.043L28.508 8.23V6.867l1.8-1.14h1.446Zm4.52 7.372a3.285 3.285 0 0 1-1.084-.188 2.465 2.465 0 0 1-.93-.6c-.275-.277-.493-.644-.654-1.1-.158-.458-.238-1.019-.238-1.684.003-.61.073-1.156.21-1.637.14-.483.338-.893.596-1.229.261-.336.572-.592.934-.767a2.73 2.73 0 0 1 1.219-.266c.485 0 .913.095 1.285.284.372.187.67.441.895.763.227.322.364.683.412 1.084h-1.516a1.013 1.013 0 0 0-.373-.597 1.126 1.126 0 0 0-.703-.217c-.474 0-.834.206-1.08.618-.244.412-.368.972-.373 1.68h.05a1.69 1.69 0 0 1 .44-.55c.187-.154.4-.272.636-.352.239-.083.491-.124.756-.124a2.168 2.168 0 0 1 1.946 1.136c.194.353.291.756.291 1.21 0 .493-.114.931-.344 1.315a2.388 2.388 0 0 1-.955.902c-.408.215-.881.322-1.42.32Zm-.008-1.207a1.2 1.2 0 0 0 1.076-.632 1.33 1.33 0 0 0 .16-.653c0-.242-.053-.459-.16-.65a1.181 1.181 0 0 0-1.065-.629c-.178 0-.342.033-.494.1a1.24 1.24 0 0 0-.657.688 1.274 1.274 0 0 0-.096.494 1.277 1.277 0 0 0 .6 1.108c.188.116.4.174.636.174Zm3.832 3.154v-7.5h1.491v.916h.068c.066-.147.162-.296.287-.448.128-.154.294-.282.498-.383.206-.104.461-.157.767-.157.397 0 .764.105 1.1.313.337.206.605.517.807.934.2.414.301.934.301 1.559 0 .608-.098 1.122-.294 1.541-.194.417-.46.733-.796.948-.334.213-.708.32-1.122.32-.294 0-.543-.049-.75-.146a1.55 1.55 0 0 1-.5-.366c-.13-.149-.23-.3-.298-.45h-.046v2.918h-1.513Zm1.48-4.773c0 .324.046.607.136.848.09.242.22.43.39.565a.98.98 0 0 0 .622.199.975.975 0 0 0 .625-.203c.17-.137.3-.326.387-.568a2.42 2.42 0 0 0 .135-.841 2.41 2.41 0 0 0-.132-.831 1.238 1.238 0 0 0-.387-.561.98.98 0 0 0-.628-.203 1 1 0 0 0-.625.196 1.22 1.22 0 0 0-.387.554c-.09.239-.135.52-.135.845Zm5.917-2.728 1.001 1.907 1.026-1.907h1.552l-1.58 2.728L51.117 13h-1.545l-1.076-1.886L47.438 13h-1.563l1.62-2.727-1.563-2.728h1.563Z" fill="#fff"/><path fill="#E8178A" fill-opacity=".24" d="M43 125h32v48H43z"/><path fill="#E8178A" fill-opacity=".24" d="M43 125h267v8H43zm0 40h267v8H43z"/><path d="M43.5 185.5h32" stroke="#E8178A"/><rect x="37.5" y="190" width="44" height="18" rx="3" fill="#E8178A"/><path d="M44.398 202.123v-1.204h5v1.204h-5Zm5-2.909-5 1.35v-1.165l3.3-.795-.047.074v-.177l.046.074-3.299-.795v-1.165l5 1.349v1.25Zm4.177 3.885a3.49 3.49 0 0 1-1.417-.273 2.42 2.42 0 0 1-.977-.76 1.909 1.909 0 0 1-.366-1.122h1.549a.81.81 0 0 0 .174.469c.109.132.253.235.433.309.18.073.382.11.607.11.234 0 .442-.042.622-.125.18-.082.32-.197.422-.344a.87.87 0 0 0 .153-.508.85.85 0 0 0-.163-.515 1.046 1.046 0 0 0-.462-.355 1.8 1.8 0 0 0-.71-.128h-.679v-1.129h.679c.232 0 .436-.04.614-.121.18-.08.32-.192.419-.334.1-.144.15-.312.15-.504a.87.87 0 0 0-.494-.806 1.18 1.18 0 0 0-.54-.117c-.209 0-.4.038-.572.114a.99.99 0 0 0-.415.316.83.83 0 0 0-.167.483H50.96a1.89 1.89 0 0 1 .359-1.108c.232-.32.544-.57.937-.75a3.166 3.166 0 0 1 1.339-.273c.502 0 .94.091 1.317.273.377.183.67.429.878.739.21.308.314.653.312 1.037.002.407-.124.747-.38 1.019a1.727 1.727 0 0 1-.99.518v.057c.534.069.942.255 1.22.558.283.3.422.677.42 1.129.002.414-.117.783-.359 1.104-.239.322-.57.576-.99.76-.422.185-.905.277-1.45.277Zm3.903-.099v-1.108l2.589-2.397c.22-.213.405-.405.554-.575.151-.171.266-.338.344-.501.078-.166.118-.344.118-.536 0-.213-.049-.397-.146-.551a.957.957 0 0 0-.398-.358 1.236 1.236 0 0 0-.572-.128c-.222 0-.416.045-.582.135a.93.93 0 0 0-.383.387c-.09.168-.135.368-.135.6h-1.46c0-.476.108-.889.323-1.239.216-.351.518-.622.906-.814.388-.191.835-.287 1.342-.287.521 0 .974.092 1.36.277.389.182.69.435.906.76.215.324.323.696.323 1.115 0 .274-.054.546-.163.813-.107.268-.298.565-.572.891-.275.325-.662.714-1.161 1.169l-1.062 1.04v.05h3.054V203h-5.185Zm6.313 2.045v-7.5h1.492v.917h.067a2.01 2.01 0 0 1 .288-.448 1.5 1.5 0 0 1 .497-.383c.206-.104.462-.157.767-.157.398 0 .765.105 1.1.313.337.206.606.517.807.934.201.414.302.934.302 1.559 0 .608-.099 1.122-.295 1.541-.194.417-.46.733-.795.948-.334.213-.708.32-1.123.32-.293 0-.543-.049-.749-.146a1.546 1.546 0 0 1-.5-.366 1.847 1.847 0 0 1-.299-.451h-.046v2.919h-1.513Zm1.481-4.772c0 .324.045.607.135.848.09.242.22.43.39.565a.982.982 0 0 0 .622.199.98.98 0 0 0 .625-.202c.17-.138.3-.327.387-.569.09-.243.135-.524.135-.841a2.41 2.41 0 0 0-.131-.831 1.239 1.239 0 0 0-.387-.561.981.981 0 0 0-.629-.203.995.995 0 0 0-.625.196 1.22 1.22 0 0 0-.387.554c-.09.239-.135.52-.135.845Zm5.916-2.728 1.002 1.907 1.026-1.907h1.552l-1.58 2.728L74.81 203h-1.544l-1.076-1.886L71.13 203h-1.56l1.62-2.727-1.563-2.728h1.562Z" fill="#fff"/><path stroke="#E8178A" d="M44 189v-7m31 7v-7"/></svg>