<svg width="234" height="91" viewBox="0 0 234 91" fill="none" xmlns="http://www.w3.org/2000/svg">
<path d="M59 9C59 6.23858 61.2386 4 64 4H177C179.761 4 182 6.23858 182 9V47C182 49.7614 179.761 52 177 52H64C61.2386 52 59 49.7614 59 47V9Z" fill="#5925DC"/>
<path d="M91 38.5C88.2152 38.5 85.5445 37.3938 83.5754 35.4246C81.6062 33.4555 80.5 30.7848 80.5 28C80.5 25.2152 81.6062 22.5445 83.5754 20.5754C85.5445 18.6062 88.2152 17.5 91 17.5C93.7848 17.5 96.4555 18.6062 98.4246 20.5754C100.394 22.5445 101.5 25.2152 101.5 28C101.5 30.7848 100.394 33.4555 98.4246 35.4246C96.4555 37.3938 93.7848 38.5 91 38.5ZM91 40C94.1826 40 97.2348 38.7357 99.4853 36.4853C101.736 34.2348 103 31.1826 103 28C103 24.8174 101.736 21.7652 99.4853 19.5147C97.2348 17.2643 94.1826 16 91 16C87.8174 16 84.7652 17.2643 82.5147 19.5147C80.2643 21.7652 79 24.8174 79 28C79 31.1826 80.2643 34.2348 82.5147 36.4853C84.7652 38.7357 87.8174 40 91 40Z" fill="white"/>
<path d="M91 22C91.1989 22 91.3897 22.079 91.5303 22.2197C91.671 22.3603 91.75 22.5511 91.75 22.75V27.25H96.25C96.4489 27.25 96.6397 27.329 96.7803 27.4697C96.921 27.6103 97 27.8011 97 28C97 28.1989 96.921 28.3897 96.7803 28.5303C96.6397 28.671 96.4489 28.75 96.25 28.75H91.75V33.25C91.75 33.4489 91.671 33.6397 91.5303 33.7803C91.3897 33.921 91.1989 34 91 34C90.8011 34 90.6103 33.921 90.4697 33.7803C90.329 33.6397 90.25 33.4489 90.25 33.25V28.75H85.75C85.5511 28.75 85.3603 28.671 85.2197 28.5303C85.079 28.3897 85 28.1989 85 28C85 27.8011 85.079 27.6103 85.2197 27.4697C85.3603 27.329 85.5511 27.25 85.75 27.25H90.25V22.75C90.25 22.5511 90.329 22.3603 90.4697 22.2197C90.6103 22.079 90.8011 22 91 22Z" fill="white"/>
<path d="M116.839 34V22.3636H120.907C121.718 22.3636 122.386 22.5038 122.913 22.7841C123.439 23.0606 123.831 23.4337 124.089 23.9034C124.346 24.3693 124.475 24.8864 124.475 25.4545C124.475 25.9545 124.386 26.3674 124.208 26.6932C124.034 27.0189 123.803 27.2765 123.515 27.4659C123.231 27.6553 122.922 27.7955 122.589 27.8864V28C122.945 28.0227 123.303 28.1477 123.663 28.375C124.022 28.6023 124.324 28.928 124.566 29.3523C124.808 29.7765 124.93 30.2955 124.93 30.9091C124.93 31.4924 124.797 32.017 124.532 32.483C124.267 32.9489 123.848 33.3182 123.276 33.5909C122.704 33.8636 121.96 34 121.043 34H116.839ZM118.248 32.75H121.043C121.964 32.75 122.617 32.572 123.004 32.2159C123.394 31.8561 123.589 31.4205 123.589 30.9091C123.589 30.5152 123.488 30.1515 123.288 29.8182C123.087 29.4811 122.801 29.2121 122.43 29.0114C122.058 28.8068 121.619 28.7045 121.112 28.7045H118.248V32.75ZM118.248 27.4773H120.862C121.286 27.4773 121.668 27.3939 122.009 27.2273C122.354 27.0606 122.627 26.8258 122.827 26.5227C123.032 26.2197 123.134 25.8636 123.134 25.4545C123.134 24.9432 122.956 24.5095 122.6 24.1534C122.244 23.7936 121.68 23.6136 120.907 23.6136H118.248V27.4773ZM132.563 30.4318V25.2727H133.904V34H132.563V32.5227H132.472C132.268 32.9659 131.95 33.3428 131.518 33.6534C131.086 33.9602 130.54 34.1136 129.881 34.1136C129.336 34.1136 128.851 33.9943 128.427 33.7557C128.003 33.5133 127.669 33.1496 127.427 32.6648C127.184 32.1761 127.063 31.5606 127.063 30.8182V25.2727H128.404V30.7273C128.404 31.3636 128.582 31.8712 128.938 32.25C129.298 32.6288 129.756 32.8182 130.313 32.8182C130.647 32.8182 130.986 32.733 131.33 32.5625C131.679 32.392 131.97 32.1307 132.205 31.7784C132.444 31.4261 132.563 30.9773 132.563 30.4318ZM140.156 25.2727V26.4091H135.633V25.2727H140.156ZM136.951 23.1818H138.292V31.5C138.292 31.8788 138.347 32.1629 138.457 32.3523C138.57 32.5379 138.714 32.6629 138.888 32.7273C139.067 32.7879 139.254 32.8182 139.451 32.8182C139.599 32.8182 139.72 32.8106 139.815 32.7955C139.909 32.7765 139.985 32.7614 140.042 32.75L140.315 33.9545C140.224 33.9886 140.097 34.0227 139.934 34.0568C139.771 34.0947 139.565 34.1136 139.315 34.1136C138.936 34.1136 138.565 34.0322 138.201 33.8693C137.841 33.7064 137.542 33.4583 137.303 33.125C137.068 32.7917 136.951 32.3712 136.951 31.8636V23.1818ZM145.968 25.2727V26.4091H141.445V25.2727H145.968ZM142.763 23.1818H144.104V31.5C144.104 31.8788 144.159 32.1629 144.269 32.3523C144.383 32.5379 144.527 32.6629 144.701 32.7273C144.879 32.7879 145.067 32.8182 145.263 32.8182C145.411 32.8182 145.532 32.8106 145.627 32.7955C145.722 32.7765 145.798 32.7614 145.854 32.75L146.127 33.9545C146.036 33.9886 145.909 34.0227 145.746 34.0568C145.584 34.0947 145.377 34.1136 145.127 34.1136C144.748 34.1136 144.377 34.0322 144.013 33.8693C143.654 33.7064 143.354 33.4583 143.116 33.125C142.881 32.7917 142.763 32.3712 142.763 31.8636V23.1818ZM151.437 34.1818C150.649 34.1818 149.958 33.9943 149.363 33.6193C148.772 33.2443 148.31 32.7197 147.977 32.0455C147.647 31.3712 147.482 30.5833 147.482 29.6818C147.482 28.7727 147.647 27.9792 147.977 27.3011C148.31 26.6231 148.772 26.0966 149.363 25.7216C149.958 25.3466 150.649 25.1591 151.437 25.1591C152.225 25.1591 152.914 25.3466 153.505 25.7216C154.1 26.0966 154.562 26.6231 154.891 27.3011C155.225 27.9792 155.391 28.7727 155.391 29.6818C155.391 30.5833 155.225 31.3712 154.891 32.0455C154.562 32.7197 154.1 33.2443 153.505 33.6193C152.914 33.9943 152.225 34.1818 151.437 34.1818ZM151.437 32.9773C152.035 32.9773 152.528 32.8239 152.914 32.517C153.3 32.2102 153.586 31.8068 153.772 31.3068C153.958 30.8068 154.05 30.2652 154.05 29.6818C154.05 29.0985 153.958 28.5549 153.772 28.0511C153.586 27.5473 153.3 27.1402 152.914 26.8295C152.528 26.5189 152.035 26.3636 151.437 26.3636C150.838 26.3636 150.346 26.5189 149.96 26.8295C149.573 27.1402 149.287 27.5473 149.102 28.0511C148.916 28.5549 148.823 29.0985 148.823 29.6818C148.823 30.2652 148.916 30.8068 149.102 31.3068C149.287 31.8068 149.573 32.2102 149.96 32.517C150.346 32.8239 150.838 32.9773 151.437 32.9773ZM158.779 28.75V34H157.438V25.2727H158.734V26.6364H158.847C159.052 26.1932 159.362 25.8371 159.779 25.5682C160.196 25.2955 160.734 25.1591 161.393 25.1591C161.984 25.1591 162.501 25.2803 162.944 25.5227C163.387 25.7614 163.732 26.125 163.978 26.6136C164.224 27.0985 164.347 27.7121 164.347 28.4545V34H163.006V28.5455C163.006 27.8598 162.828 27.3258 162.472 26.9432C162.116 26.5568 161.628 26.3636 161.006 26.3636C160.578 26.3636 160.196 26.4564 159.859 26.642C159.525 26.8277 159.262 27.0985 159.069 27.4545C158.876 27.8106 158.779 28.2424 158.779 28.75Z" fill="white"/>
<rect x="59" y="4" width="16" height="48" fill="#E8178A" fill-opacity="0.24"/>
<rect x="166" y="4" width="16" height="48" fill="#E8178A" fill-opacity="0.24"/>
<rect x="59" y="4" width="123" height="8" fill="#E8178A" fill-opacity="0.24"/>
<rect x="59" y="44" width="123" height="8" fill="#E8178A" fill-opacity="0.24"/>
<path d="M166 68.5H182" stroke="#E8178A"/>
<rect x="156" y="73" width="36" height="18" rx="3" fill="#E8178A"/>
<path d="M165.754 78.7273V86H164.216V80.1868H164.173L162.508 81.2308V79.8672L164.308 78.7273H165.754ZM170.273 86.0994C169.899 86.0971 169.538 86.0343 169.19 85.9112C168.845 85.7881 168.534 85.5881 168.26 85.3111C167.985 85.0341 167.767 84.6671 167.606 84.2102C167.448 83.7533 167.368 83.1922 167.368 82.527C167.371 81.9162 167.441 81.3705 167.578 80.8899C167.718 80.407 167.916 79.9974 168.175 79.6612C168.435 79.325 168.746 79.0694 169.108 78.8942C169.471 78.7166 169.877 78.6278 170.327 78.6278C170.812 78.6278 171.24 78.7225 171.612 78.9119C171.984 79.099 172.282 79.3535 172.507 79.6754C172.734 79.9974 172.872 80.3584 172.919 80.7585H171.403C171.343 80.5052 171.219 80.3063 171.03 80.1619C170.84 80.0175 170.606 79.9453 170.327 79.9453C169.853 79.9453 169.493 80.1513 169.247 80.5632C169.003 80.9751 168.879 81.535 168.874 82.2429H168.924C169.033 82.0275 169.18 81.844 169.364 81.6925C169.551 81.5386 169.763 81.4214 170 81.3409C170.239 81.258 170.491 81.2166 170.756 81.2166C171.187 81.2166 171.571 81.3184 171.907 81.522C172.243 81.7232 172.508 82.0002 172.702 82.353C172.896 82.7057 172.993 83.1094 172.993 83.5639C172.993 84.0563 172.879 84.4943 172.649 84.8778C172.422 85.2614 172.103 85.562 171.694 85.7798C171.287 85.9953 170.813 86.1018 170.273 86.0994ZM170.266 84.892C170.503 84.892 170.715 84.8352 170.902 84.7216C171.089 84.608 171.236 84.4541 171.342 84.2599C171.449 84.0658 171.502 83.848 171.502 83.6065C171.502 83.3651 171.449 83.1484 171.342 82.9567C171.238 82.7649 171.094 82.6122 170.909 82.4986C170.724 82.3849 170.514 82.3281 170.277 82.3281C170.099 82.3281 169.935 82.3613 169.783 82.4276C169.634 82.4938 169.503 82.5862 169.389 82.7045C169.278 82.8229 169.19 82.9602 169.126 83.1165C169.062 83.2704 169.03 83.4349 169.03 83.6101C169.03 83.8445 169.084 84.0587 169.19 84.2528C169.299 84.447 169.446 84.602 169.631 84.718C169.818 84.834 170.029 84.892 170.266 84.892ZM174.098 88.0455V80.5455H175.589V81.4616H175.657C175.723 81.3149 175.819 81.1657 175.944 81.0142C176.072 80.8603 176.238 80.7325 176.442 80.6307C176.648 80.5265 176.903 80.4744 177.209 80.4744C177.606 80.4744 177.973 80.5786 178.309 80.7869C178.646 80.9929 178.914 81.3042 179.116 81.7209C179.317 82.1352 179.417 82.6548 179.417 83.2798C179.417 83.8883 179.319 84.402 179.123 84.821C178.929 85.2377 178.663 85.5537 178.327 85.7692C177.993 85.9822 177.619 86.0888 177.205 86.0888C176.912 86.0888 176.662 86.0402 176.456 85.9432C176.252 85.8461 176.085 85.7242 175.955 85.5774C175.825 85.4283 175.725 85.2779 175.657 85.1264H175.611V88.0455H174.098ZM175.579 83.2727C175.579 83.5971 175.624 83.88 175.714 84.1214C175.804 84.3629 175.934 84.5511 176.104 84.6861C176.275 84.8187 176.482 84.8849 176.726 84.8849C176.972 84.8849 177.18 84.8175 177.351 84.6825C177.521 84.5452 177.65 84.3558 177.738 84.1143C177.828 83.8705 177.873 83.59 177.873 83.2727C177.873 82.9579 177.829 82.6809 177.741 82.4418C177.654 82.2027 177.525 82.0156 177.354 81.8807C177.184 81.7457 176.974 81.6783 176.726 81.6783C176.479 81.6783 176.271 81.7434 176.101 81.8736C175.933 82.0038 175.804 82.1884 175.714 82.4276C175.624 82.6667 175.579 82.9484 175.579 83.2727ZM181.495 80.5455L182.496 82.4524L183.523 80.5455H185.074L183.494 83.2727L185.117 86H183.572L182.496 84.1143L181.438 86H179.876L181.495 83.2727L179.932 80.5455H181.495Z" fill="white"/>
<line x1="166.5" y1="72" x2="166.5" y2="65" stroke="#E8178A"/>
<line x1="181.5" y1="72" x2="181.5" y2="65" stroke="#E8178A"/>
<path d="M59 68.5H75" stroke="#E8178A"/>
<rect x="49" y="73" width="36" height="18" rx="3" fill="#E8178A"/>
<path d="M58.7536 78.7273V86H57.2159V80.1868H57.1733L55.5078 81.2308V79.8672L57.3082 78.7273H58.7536ZM63.2733 86.0994C62.8992 86.0971 62.5382 86.0343 62.1902 85.9112C61.8445 85.7881 61.5344 85.5881 61.2598 85.3111C60.9851 85.0341 60.7673 84.6671 60.6064 84.2102C60.4477 83.7533 60.3684 83.1922 60.3684 82.527C60.3708 81.9162 60.4406 81.3705 60.5779 80.8899C60.7176 80.407 60.9165 79.9974 61.1745 79.6612C61.435 79.325 61.7463 79.0694 62.1085 78.8942C62.4707 78.7166 62.8767 78.6278 63.3265 78.6278C63.8118 78.6278 64.2404 78.7225 64.612 78.9119C64.9837 79.099 65.282 79.3535 65.5069 79.6754C65.7342 79.9974 65.8715 80.3584 65.9189 80.7585H64.4025C64.3433 80.5052 64.219 80.3063 64.0297 80.1619C63.8403 80.0175 63.6059 79.9453 63.3265 79.9453C62.853 79.9453 62.4932 80.1513 62.247 80.5632C62.0031 80.9751 61.8788 81.535 61.8741 82.2429H61.9238C62.0327 82.0275 62.1795 81.844 62.3642 81.6925C62.5512 81.5386 62.7631 81.4214 62.9998 81.3409C63.2389 81.258 63.4911 81.2166 63.7562 81.2166C64.1871 81.2166 64.5706 81.3184 64.9068 81.522C65.243 81.7232 65.5081 82.0002 65.7022 82.353C65.8964 82.7057 65.9934 83.1094 65.9934 83.5639C65.9934 84.0563 65.8786 84.4943 65.649 84.8778C65.4217 85.2614 65.1033 85.562 64.6937 85.7798C64.2865 85.9953 63.813 86.1018 63.2733 86.0994ZM63.2662 84.892C63.5029 84.892 63.7148 84.8352 63.9018 84.7216C64.0888 84.608 64.2356 84.4541 64.3422 84.2599C64.4487 84.0658 64.502 83.848 64.502 83.6065C64.502 83.3651 64.4487 83.1484 64.3422 82.9567C64.238 82.7649 64.0936 82.6122 63.9089 82.4986C63.7243 82.3849 63.5136 82.3281 63.2768 82.3281C63.0993 82.3281 62.9347 82.3613 62.7832 82.4276C62.6341 82.4938 62.5027 82.5862 62.389 82.7045C62.2778 82.8229 62.1902 82.9602 62.1262 83.1165C62.0623 83.2704 62.0304 83.4349 62.0304 83.6101C62.0304 83.8445 62.0836 84.0587 62.1902 84.2528C62.2991 84.447 62.4458 84.602 62.6305 84.718C62.8175 84.834 63.0294 84.892 63.2662 84.892ZM67.0978 88.0455V80.5455H68.5893V81.4616H68.6568C68.7231 81.3149 68.819 81.1657 68.9444 81.0142C69.0723 80.8603 69.238 80.7325 69.4416 80.6307C69.6475 80.5265 69.9032 80.4744 70.2086 80.4744C70.6064 80.4744 70.9733 80.5786 71.3095 80.7869C71.6457 80.9929 71.9144 81.3042 72.1156 81.7209C72.3168 82.1352 72.4174 82.6548 72.4174 83.2798C72.4174 83.8883 72.3192 84.402 72.1227 84.821C71.9286 85.2377 71.6634 85.5537 71.3272 85.7692C70.9934 85.9822 70.6194 86.0888 70.2051 86.0888C69.9115 86.0888 69.6618 86.0402 69.4558 85.9432C69.2522 85.8461 69.0853 85.7242 68.9551 85.5774C68.8249 85.4283 68.7254 85.2779 68.6568 85.1264H68.6106V88.0455H67.0978ZM68.5787 83.2727C68.5787 83.5971 68.6236 83.88 68.7136 84.1214C68.8036 84.3629 68.9338 84.5511 69.1042 84.6861C69.2747 84.8187 69.4818 84.8849 69.7257 84.8849C69.9719 84.8849 70.1802 84.8175 70.3507 84.6825C70.5211 84.5452 70.6502 84.3558 70.7377 84.1143C70.8277 83.8705 70.8727 83.59 70.8727 83.2727C70.8727 82.9579 70.8289 82.6809 70.7413 82.4418C70.6537 82.2027 70.5247 82.0156 70.3542 81.8807C70.1838 81.7457 69.9743 81.6783 69.7257 81.6783C69.4795 81.6783 69.2711 81.7434 69.1007 81.8736C68.9326 82.0038 68.8036 82.1884 68.7136 82.4276C68.6236 82.6667 68.5787 82.9484 68.5787 83.2727ZM74.4949 80.5455L75.4963 82.4524L76.5225 80.5455H78.0744L76.4941 83.2727L78.117 86H76.5723L75.4963 84.1143L74.438 86H72.8755L74.4949 83.2727L72.9324 80.5455H74.4949Z" fill="white"/>
<line x1="59.5" y1="72" x2="59.5" y2="65" stroke="#E8178A"/>
<line x1="74.5" y1="72" x2="74.5" y2="65" stroke="#E8178A"/>
<path d="M198.5 4V12" stroke="#E8178A"/>
<rect x="203" y="0.5" width="31" height="18" rx="3" fill="#E8178A"/>
<path d="M212.303 13.5994C211.756 13.5994 211.269 13.5107 210.843 13.3331C210.419 13.1532 210.087 12.9081 209.845 12.598C209.604 12.2879 209.483 11.9363 209.483 11.5433C209.483 11.2403 209.552 10.9621 209.689 10.7088C209.829 10.4531 210.018 10.2412 210.257 10.0732C210.496 9.9027 210.764 9.7938 211.06 9.74645V9.69673C210.671 9.61861 210.357 9.4304 210.115 9.1321C209.874 8.83144 209.753 8.48224 209.753 8.08452C209.753 7.7081 209.863 7.37311 210.083 7.07955C210.303 6.78362 210.605 6.55161 210.989 6.38352C211.375 6.21307 211.812 6.12784 212.303 6.12784C212.793 6.12784 213.229 6.21307 213.613 6.38352C213.999 6.55398 214.302 6.78717 214.522 7.0831C214.742 7.37666 214.853 7.71046 214.856 8.08452C214.853 8.48461 214.73 8.83381 214.487 9.1321C214.243 9.4304 213.93 9.61861 213.549 9.69673V9.74645C213.84 9.7938 214.104 9.9027 214.341 10.0732C214.58 10.2412 214.769 10.4531 214.909 10.7088C215.051 10.9621 215.123 11.2403 215.126 11.5433C215.123 11.9363 215.001 12.2879 214.76 12.598C214.518 12.9081 214.185 13.1532 213.759 13.3331C213.335 13.5107 212.849 13.5994 212.303 13.5994ZM212.303 12.4702C212.546 12.4702 212.759 12.4264 212.942 12.3388C213.124 12.2488 213.266 12.1257 213.368 11.9695C213.472 11.8108 213.524 11.6286 213.524 11.4226C213.524 11.2119 213.471 11.026 213.364 10.8651C213.258 10.7017 213.113 10.5739 212.931 10.4815C212.749 10.3868 212.539 10.3395 212.303 10.3395C212.068 10.3395 211.859 10.3868 211.674 10.4815C211.489 10.5739 211.344 10.7017 211.237 10.8651C211.133 11.026 211.081 11.2119 211.081 11.4226C211.081 11.6286 211.132 11.8108 211.234 11.9695C211.335 12.1257 211.479 12.2488 211.663 12.3388C211.848 12.4264 212.061 12.4702 212.303 12.4702ZM212.303 9.22088C212.506 9.22088 212.687 9.17945 212.846 9.09659C213.004 9.01373 213.129 8.89891 213.219 8.75213C213.309 8.60535 213.354 8.43608 213.354 8.24432C213.354 8.05492 213.309 7.8892 213.219 7.74716C213.129 7.60275 213.006 7.49029 212.849 7.4098C212.693 7.32694 212.511 7.28551 212.303 7.28551C212.097 7.28551 211.914 7.32694 211.756 7.4098C211.597 7.49029 211.473 7.60275 211.383 7.74716C211.295 7.8892 211.251 8.05492 211.251 8.24432C211.251 8.43608 211.296 8.60535 211.386 8.75213C211.476 8.89891 211.601 9.01373 211.759 9.09659C211.918 9.17945 212.099 9.22088 212.303 9.22088ZM216.215 15.5455V8.04545H217.706V8.96165H217.774C217.84 8.81487 217.936 8.66572 218.062 8.5142C218.189 8.36032 218.355 8.23248 218.559 8.13068C218.765 8.02652 219.02 7.97443 219.326 7.97443C219.724 7.97443 220.09 8.0786 220.427 8.28693C220.763 8.4929 221.032 8.80421 221.233 9.22088C221.434 9.63518 221.535 10.1548 221.535 10.7798C221.535 11.3883 221.436 11.902 221.24 12.321C221.046 12.7377 220.781 13.0537 220.444 13.2692C220.111 13.4822 219.737 13.5888 219.322 13.5888C219.029 13.5888 218.779 13.5402 218.573 13.4432C218.369 13.3461 218.202 13.2242 218.072 13.0774C217.942 12.9283 217.843 12.7779 217.774 12.6264H217.728V15.5455H216.215ZM217.696 10.7727C217.696 11.0971 217.741 11.38 217.831 11.6214C217.921 11.8629 218.051 12.0511 218.221 12.1861C218.392 12.3187 218.599 12.3849 218.843 12.3849C219.089 12.3849 219.297 12.3175 219.468 12.1825C219.638 12.0452 219.767 11.8558 219.855 11.6143C219.945 11.3705 219.99 11.09 219.99 10.7727C219.99 10.4579 219.946 10.1809 219.858 9.94176C219.771 9.70265 219.642 9.51562 219.471 9.38068C219.301 9.24574 219.091 9.17827 218.843 9.17827C218.597 9.17827 218.388 9.24337 218.218 9.37358C218.05 9.50379 217.921 9.68845 217.831 9.92756C217.741 10.1667 217.696 10.4484 217.696 10.7727ZM223.612 8.04545L224.613 9.95241L225.64 8.04545H227.192L225.611 10.7727L227.234 13.5H225.689L224.613 11.6143L223.555 13.5H221.993L223.612 10.7727L222.05 8.04545H223.612Z" fill="white"/>
<line x1="195" y1="4.5" x2="202" y2="4.5" stroke="#E8178A"/>
<line x1="195" y1="11.5" x2="202" y2="11.5" stroke="#E8178A"/>
<path d="M198.5 44V52" stroke="#E8178A"/>
<rect x="203" y="40.5" width="31" height="18" rx="3" fill="#E8178A"/>
<path d="M212.303 53.5994C211.756 53.5994 211.269 53.5107 210.843 53.3331C210.419 53.1532 210.087 52.9081 209.845 52.598C209.604 52.2879 209.483 51.9363 209.483 51.5433C209.483 51.2403 209.552 50.9621 209.689 50.7088C209.829 50.4531 210.018 50.2412 210.257 50.0732C210.496 49.9027 210.764 49.7938 211.06 49.7464V49.6967C210.671 49.6186 210.357 49.4304 210.115 49.1321C209.874 48.8314 209.753 48.4822 209.753 48.0845C209.753 47.7081 209.863 47.3731 210.083 47.0795C210.303 46.7836 210.605 46.5516 210.989 46.3835C211.375 46.2131 211.812 46.1278 212.303 46.1278C212.793 46.1278 213.229 46.2131 213.613 46.3835C213.999 46.554 214.302 46.7872 214.522 47.0831C214.742 47.3767 214.853 47.7105 214.856 48.0845C214.853 48.4846 214.73 48.8338 214.487 49.1321C214.243 49.4304 213.93 49.6186 213.549 49.6967V49.7464C213.84 49.7938 214.104 49.9027 214.341 50.0732C214.58 50.2412 214.769 50.4531 214.909 50.7088C215.051 50.9621 215.123 51.2403 215.126 51.5433C215.123 51.9363 215.001 52.2879 214.76 52.598C214.518 52.9081 214.185 53.1532 213.759 53.3331C213.335 53.5107 212.849 53.5994 212.303 53.5994ZM212.303 52.4702C212.546 52.4702 212.759 52.4264 212.942 52.3388C213.124 52.2488 213.266 52.1257 213.368 51.9695C213.472 51.8108 213.524 51.6286 213.524 51.4226C213.524 51.2119 213.471 51.026 213.364 50.8651C213.258 50.7017 213.113 50.5739 212.931 50.4815C212.749 50.3868 212.539 50.3395 212.303 50.3395C212.068 50.3395 211.859 50.3868 211.674 50.4815C211.489 50.5739 211.344 50.7017 211.237 50.8651C211.133 51.026 211.081 51.2119 211.081 51.4226C211.081 51.6286 211.132 51.8108 211.234 51.9695C211.335 52.1257 211.479 52.2488 211.663 52.3388C211.848 52.4264 212.061 52.4702 212.303 52.4702ZM212.303 49.2209C212.506 49.2209 212.687 49.1795 212.846 49.0966C213.004 49.0137 213.129 48.8989 213.219 48.7521C213.309 48.6054 213.354 48.4361 213.354 48.2443C213.354 48.0549 213.309 47.8892 213.219 47.7472C213.129 47.6027 213.006 47.4903 212.849 47.4098C212.693 47.3269 212.511 47.2855 212.303 47.2855C212.097 47.2855 211.914 47.3269 211.756 47.4098C211.597 47.4903 211.473 47.6027 211.383 47.7472C211.295 47.8892 211.251 48.0549 211.251 48.2443C211.251 48.4361 211.296 48.6054 211.386 48.7521C211.476 48.8989 211.601 49.0137 211.759 49.0966C211.918 49.1795 212.099 49.2209 212.303 49.2209ZM216.215 55.5455V48.0455H217.706V48.9616H217.774C217.84 48.8149 217.936 48.6657 218.062 48.5142C218.189 48.3603 218.355 48.2325 218.559 48.1307C218.765 48.0265 219.02 47.9744 219.326 47.9744C219.724 47.9744 220.09 48.0786 220.427 48.2869C220.763 48.4929 221.032 48.8042 221.233 49.2209C221.434 49.6352 221.535 50.1548 221.535 50.7798C221.535 51.3883 221.436 51.902 221.24 52.321C221.046 52.7377 220.781 53.0537 220.444 53.2692C220.111 53.4822 219.737 53.5888 219.322 53.5888C219.029 53.5888 218.779 53.5402 218.573 53.4432C218.369 53.3461 218.202 53.2242 218.072 53.0774C217.942 52.9283 217.843 52.7779 217.774 52.6264H217.728V55.5455H216.215ZM217.696 50.7727C217.696 51.0971 217.741 51.38 217.831 51.6214C217.921 51.8629 218.051 52.0511 218.221 52.1861C218.392 52.3187 218.599 52.3849 218.843 52.3849C219.089 52.3849 219.297 52.3175 219.468 52.1825C219.638 52.0452 219.767 51.8558 219.855 51.6143C219.945 51.3705 219.99 51.09 219.99 50.7727C219.99 50.4579 219.946 50.1809 219.858 49.9418C219.771 49.7027 219.642 49.5156 219.471 49.3807C219.301 49.2457 219.091 49.1783 218.843 49.1783C218.597 49.1783 218.388 49.2434 218.218 49.3736C218.05 49.5038 217.921 49.6884 217.831 49.9276C217.741 50.1667 217.696 50.4484 217.696 50.7727ZM223.612 48.0455L224.613 49.9524L225.64 48.0455H227.192L225.611 50.7727L227.234 53.5H225.689L224.613 51.6143L223.555 53.5H221.993L223.612 50.7727L222.05 48.0455H223.612Z" fill="white"/>
<line x1="195" y1="44.5" x2="202" y2="44.5" stroke="#E8178A"/>
<line x1="195" y1="51.5" x2="202" y2="51.5" stroke="#E8178A"/>
<path d="M42.5 4V52" stroke="#1745E8"/>
<rect y="20.5" width="38" height="18" rx="3" fill="#1745E8"/>
<path d="M6.4794 32.2216V31.0107L9.51562 26.2273H10.5597V27.9034H9.94176L8.0277 30.9325V30.9893H12.3423V32.2216H6.4794ZM9.97017 33.5V31.8523L9.99858 31.3161V26.2273H11.4403V33.5H9.97017ZM16.0799 33.5994C15.533 33.5994 15.0465 33.5107 14.6204 33.3331C14.1966 33.1532 13.864 32.9081 13.6225 32.598C13.381 32.2879 13.2603 31.9363 13.2603 31.5433C13.2603 31.2403 13.329 30.9621 13.4663 30.7088C13.6059 30.4531 13.7953 30.2412 14.0344 30.0732C14.2736 29.9027 14.5411 29.7938 14.837 29.7464V29.6967C14.4487 29.6186 14.1339 29.4304 13.8924 29.1321C13.6509 28.8314 13.5302 28.4822 13.5302 28.0845C13.5302 27.7081 13.6403 27.3731 13.8604 27.0795C14.0806 26.7836 14.3825 26.5516 14.766 26.3835C15.1519 26.2131 15.5898 26.1278 16.0799 26.1278C16.57 26.1278 17.0067 26.2131 17.3903 26.3835C17.7762 26.554 18.0792 26.7872 18.2994 27.0831C18.5195 27.3767 18.6308 27.7105 18.6332 28.0845C18.6308 28.4846 18.5077 28.8338 18.2638 29.1321C18.02 29.4304 17.7075 29.6186 17.3263 29.6967V29.7464C17.6175 29.7938 17.8815 29.9027 18.1183 30.0732C18.3574 30.2412 18.5468 30.4531 18.6864 30.7088C18.8285 30.9621 18.9007 31.2403 18.9031 31.5433C18.9007 31.9363 18.7788 32.2879 18.5373 32.598C18.2958 32.9081 17.962 33.1532 17.5359 33.3331C17.1121 33.5107 16.6268 33.5994 16.0799 33.5994ZM16.0799 32.4702C16.3237 32.4702 16.5368 32.4264 16.7191 32.3388C16.9014 32.2488 17.0434 32.1257 17.1452 31.9695C17.2494 31.8108 17.3015 31.6286 17.3015 31.4226C17.3015 31.2119 17.2482 31.026 17.1417 30.8651C17.0352 30.7017 16.8907 30.5739 16.7085 30.4815C16.5262 30.3868 16.3166 30.3395 16.0799 30.3395C15.8455 30.3395 15.636 30.3868 15.4513 30.4815C15.2667 30.5739 15.1211 30.7017 15.0146 30.8651C14.9104 31.026 14.8583 31.2119 14.8583 31.4226C14.8583 31.6286 14.9092 31.8108 15.011 31.9695C15.1128 32.1257 15.256 32.2488 15.4407 32.3388C15.6254 32.4264 15.8384 32.4702 16.0799 32.4702ZM16.0799 29.2209C16.2835 29.2209 16.4646 29.1795 16.6232 29.0966C16.7818 29.0137 16.9061 28.8989 16.9961 28.7521C17.0861 28.6054 17.131 28.4361 17.131 28.2443C17.131 28.0549 17.0861 27.8892 16.9961 27.7472C16.9061 27.6027 16.783 27.4903 16.6268 27.4098C16.4705 27.3269 16.2882 27.2855 16.0799 27.2855C15.8739 27.2855 15.6916 27.3269 15.533 27.4098C15.3744 27.4903 15.2501 27.6027 15.1602 27.7472C15.0726 27.8892 15.0288 28.0549 15.0288 28.2443C15.0288 28.4361 15.0737 28.6054 15.1637 28.7521C15.2537 28.8989 15.378 29.0137 15.5366 29.0966C15.6952 29.1795 15.8763 29.2209 16.0799 29.2209ZM19.9924 35.5455V28.0455H21.4838V28.9616H21.5513C21.6176 28.8149 21.7135 28.6657 21.839 28.5142C21.9668 28.3603 22.1325 28.2325 22.3361 28.1307C22.5421 28.0265 22.7978 27.9744 23.1032 27.9744C23.5009 27.9744 23.8678 28.0786 24.204 28.2869C24.5402 28.4929 24.8089 28.8042 25.0101 29.2209C25.2114 29.6352 25.312 30.1548 25.312 30.7798C25.312 31.3883 25.2137 31.902 25.0172 32.321C24.8231 32.7377 24.5579 33.0537 24.2218 33.2692C23.888 33.4822 23.5139 33.5888 23.0996 33.5888C22.806 33.5888 22.5563 33.5402 22.3503 33.4432C22.1467 33.3461 21.9798 33.2242 21.8496 33.0774C21.7194 32.9283 21.62 32.7779 21.5513 32.6264H21.5051V35.5455H19.9924ZM21.4732 30.7727C21.4732 31.0971 21.5182 31.38 21.6081 31.6214C21.6981 31.8629 21.8283 32.0511 21.9988 32.1861C22.1692 32.3187 22.3764 32.3849 22.6202 32.3849C22.8664 32.3849 23.0748 32.3175 23.2452 32.1825C23.4157 32.0452 23.5447 31.8558 23.6323 31.6143C23.7222 31.3705 23.7672 31.09 23.7672 30.7727C23.7672 30.4579 23.7234 30.1809 23.6358 29.9418C23.5482 29.7027 23.4192 29.5156 23.2488 29.3807C23.0783 29.2457 22.8688 29.1783 22.6202 29.1783C22.374 29.1783 22.1657 29.2434 21.9952 29.3736C21.8271 29.5038 21.6981 29.6884 21.6081 29.9276C21.5182 30.1667 21.4732 30.4484 21.4732 30.7727ZM27.3894 28.0455L28.3908 29.9524L29.4171 28.0455H30.9689L29.3887 30.7727L31.0115 33.5H29.4668L28.3908 31.6143L27.3326 33.5H25.7701L27.3894 30.7727L25.8269 28.0455H27.3894Z" fill="white"/>
<line x1="39" y1="4.5" x2="46" y2="4.5" stroke="#1745E8"/>
<line x1="39" y1="51.5" x2="46" y2="51.5" stroke="#1745E8"/>
</svg>
