<svg version="1.1" id="Layer_1" xmlns="http://www.w3.org/2000/svg" x="0" y="0" viewBox="0 0 139.2 61.3" style="enable-background:new 0 0 139.2 61.3" xml:space="preserve"><style>.st0,.st1{fill:#fff}.st1{fill-rule:evenodd;clip-rule:evenodd}</style><g id="Layer_2_00000082330062646770651670000008065309722552453804_"><g id="Layer_3"><path class="st0" d="m30 1.1-4.5 7.7L7.4 40.3 3 48c-.5-.2-1-.5-1.4-.8L6 39.5 24.1 8 28.5.3c.6.1 1.1.4 1.5.8z"/><path class="st0" d="M29.9 60.3c-.4.3-.9.6-1.4.8l-4.4-7.7L6 22l-4.4-7.8c.4-.3.9-.6 1.4-.8l4.4 7.7 18 31.4 4.5 7.8z"/><path class="st0" d="M54.1 43.7c0 .3 0 .5-.1.8H.1C0 44 0 43.4.1 42.9H54c0 .3.1.6.1.8z"/><path class="st1" d="M2.1 17.7S4 26.6 4 30.7s-1.9 13-1.9 13h4.8S5 35.3 5 30.7s1.9-13 1.9-13H2.1z"/><path class="st1" d="M3.3 45.8s8.7 2.8 12.2 4.8 10.3 8.2 10.3 8.2l2.4-4.2S20 52.1 16 49.8 5.7 41.6 5.7 41.6l-2.4 4.2z"/><path class="st1" d="M48.3 41.6s-6.7 6.1-10.3 8.2-12.2 4.8-12.2 4.8l2.4 4.2s6.3-5.9 10.3-8.2 12.2-4.8 12.2-4.8l-2.4-4.2zm-22.5-39s-6.7 6.1-10.3 8.2-12.2 4.8-12.2 4.8l2.4 4.2S12 13.9 16 11.6s12.2-4.8 12.2-4.8l-2.4-4.2z"/><path class="st1" d="M31.6 56.8c0 1.4-.6 2.6-1.6 3.5-.8.7-1.8 1-2.9 1-2.5 0-4.5-2.1-4.5-4.6 0-1.3.6-2.5 1.5-3.4.4-.4.9-.6 1.4-.8 2.3-.9 4.9.3 5.8 2.6.1.5.2 1.1.3 1.7zm0-52.3c0 2.5-2 4.5-4.5 4.5-.5 0-1-.1-1.5-.3-.5-.2-1-.4-1.4-.8-1.9-1.6-2.1-4.5-.5-6.4.8-.9 2-1.5 3.3-1.5.5 0 1 .1 1.5.3.5.2 1 .5 1.4.8 1.1.8 1.7 2.1 1.7 3.4zM9 17.7c0 1.3-.6 2.6-1.6 3.5-.4.3-.9.6-1.4.8-2.3.8-4.9-.4-5.7-2.7-.2-.5-.3-1-.3-1.5 0-1.3.6-2.6 1.6-3.5.4-.4.9-.7 1.4-.9.5-.2 1-.3 1.5-.3C7 13.2 9 15.2 9 17.7zm0 26c0 .3 0 .5-.1.8-.4 2.2-2.2 3.7-4.4 3.7-.5 0-1-.1-1.5-.3-.5-.2-1-.5-1.4-.8-.8-.7-1.4-1.6-1.5-2.7-.1-.4-.1-1 0-1.5.4-2.2 2.2-3.7 4.4-3.7.5 0 1.1.1 1.6.3.5.2 1 .5 1.4.8.8.7 1.4 1.6 1.6 2.6-.1.3-.1.6-.1.8zm45.1 0c0 .3 0 .5-.1.8-.4 2.4-2.7 4.1-5.2 3.7-1.9-.3-3.4-1.8-3.7-3.7-.1-.5-.1-1.1 0-1.6.4-2.4 2.7-4.1 5.2-3.7 1.9.3 3.4 1.8 3.7 3.7 0 .3.1.6.1.8zM28.8 22.6c.3 0 .6 0 .9-.2.5-.2.9-.6 1.1-1.1.1-.3.1-.5.1-.8 0-.2 0-.4-.1-.7-.1-.2-.2-.3-.3-.5-.1-.1-.3-.2-.4-.3-.1 0-.3 0-.4-.1l-.5-.2c-.1 0-.3-.1-.4-.2-.1-.1-.2-.1-.3-.2-.1-.1-.1-.2-.1-.3 0-.2.1-.3.2-.5.2-.1.4-.2.6-.2.1 0 .3 0 .4.1.1 0 .2.1.3.1l.2.1c.1 0 .1.1.2.1h.2c.1 0 .1-.1.1-.2l.4-.7c-.1-.1-.2-.2-.4-.3-.1-.1-.3-.2-.4-.2-.2-.1-.3-.1-.5-.1h-.5c-.3 0-.6 0-.9.1-.2.1-.5.2-.7.4-.3.3-.5.8-.5 1.2 0 .2 0 .5.1.7.1.2.2.3.3.5.1.1.3.2.4.3.2.1.3.1.5.2l.5.1c.1 0 .3.1.4.2.1.1.2.1.3.2.1.1.1.2.1.4s-.1.4-.2.5c-.2.1-.4.2-.6.2-.2 0-.3 0-.5-.1-.1 0-.3-.1-.4-.2l-.3.1c-.1-.1-.2-.1-.3-.1h-.2c-.1 0-.1.1-.1.1l-.4.7c.1.1.3.2.4.3.2.1.3.2.5.2.2.1.4.1.6.2.3.1.4.2.6.2zm4.7 0v-6.3h-1.4v6.3h1.4zm2.7-3.4v3.4h-1.3v-6.3h1l.1.1.1.1 2.9 3.8v-4h1.2v6.3h-1c-.1 0-.2-.1-.2-.2l-2.9-3.7v.3c0 .1.1.1.1.2zm8 3.4h.7c.2 0 .4-.1.6-.1.2-.1.4-.1.6-.2.2-.1.3-.2.5-.3v-2.6h-2.2v.8c0 .1 0 .1.1.2.1 0 .1.1.2.1h.6v.9c-.1.1-.3.1-.4.1h-.5c-.2 0-.5 0-.7-.1-.2-.1-.4-.2-.6-.4-.2-.2-.3-.4-.4-.6-.1-.3-.1-.6-.1-.9 0-.3 0-.5.1-.8.1-.2.2-.4.4-.6.2-.2.3-.3.6-.4.2-.1.5-.2.7-.1h.4c.1 0 .2 0 .3.1.1 0 .2.1.3.1.1.1.2.1.3.2.1 0 .2.1.3.1h.2c.1 0 .1-.1.1-.1l.4-.6c-.1-.1-.3-.2-.4-.3-.2-.1-.3-.2-.5-.3-.2-.1-.4-.1-.6-.2-.2 0-.5-.1-.8-.1-.5 0-.9.1-1.4.2-.4.2-.7.4-1 .6-.3.3-.5.6-.7 1-.3.8-.3 1.7 0 2.5.2.4.4.7.7 1 .3.3.6.5 1 .7.4 0 .8.1 1.2.1zm4.3-.1c-.1.1-.2.1-.3.1H47l2.5-6.3H51l2.5 6.3h-1.2c-.1 0-.2 0-.3-.1l-.2-.2-.4-1.1H49l-.4 1.1s0 .1-.1.2zm.7-2.4.6-1.6c0-.1.1-.2.2-.4s.1-.3.1-.5l.2.5c0 .1.1.3.1.4l.6 1.6h-1.8zm6 .4v2.1h-1.4v-6.3H56c.4 0 .8 0 1.1.2.3.1.5.2.8.4.2.2.3.4.4.6.1.3.1.5.1.8 0 .3 0 .6-.1.9-.1.3-.3.5-.5.7-.2.2-.5.3-.8.4-.4.1-.7.2-1.1.1h-.7zm.7-1h-.7v-2.1h.8c.2 0 .3 0 .5.1.1 0 .2.1.3.2.1.1.1.2.2.3 0 .1.1.3.1.4 0 .3-.1.6-.2.8-.2.2-.5.3-.8.3h-.2zm7.7 2.9c-.8.3-1.8.3-2.6 0s-1.4-.9-1.7-1.7c-.2-.4-.2-.8-.2-1.2 0-.4.1-.8.2-1.2.1-.4.4-.7.7-1 .3-.3.6-.5 1-.7.8-.3 1.8-.3 2.6 0 .4.2.7.4 1 .7.3.3.5.6.7 1 .3.8.3 1.7 0 2.5-.2.4-.4.7-.7 1-.3.2-.6.4-1 .6zm-1.3-1.2c-.3 0-.5 0-.8-.1-.2-.1-.4-.2-.6-.4-.2-.2-.3-.4-.3-.6-.1-.3-.1-.5-.1-.8 0-.3 0-.5.1-.8l.3-.6c.2-.2.3-.3.6-.4.5-.2 1-.2 1.5 0 .2.1.4.2.6.4.2.2.3.4.3.6.1.3.1.5.1.8 0 .3 0 .5-.1.8l-.3.6c-.2.2-.3.3-.6.4-.2.1-.4.1-.7.1zm5.3-.9v2.3h-1.4v-6.3h2c.4 0 .8 0 1.1.1.3.1.5.2.8.4.2.2.3.4.4.6.1.2.1.5.1.7 0 .2 0 .4-.1.6-.1.2-.1.3-.2.5s-.2.3-.4.4c-.2.1-.3.2-.5.3.1 0 .2.1.3.2.1.1.2.2.2.3l1.3 2.2h-1.3c-.2 0-.4-.1-.5-.3l-1-1.8c0-.1-.1-.1-.2-.2-.1 0-.2-.1-.2 0h-.4zm.6-1.2h-.6v-1.8h.6c.3 0 .6.1.9.2.2.1.3.4.3.6 0 .1 0 .2-.1.4 0 .1-.1.2-.2.3-.1.1-.2.2-.3.2-.2.1-.4.1-.6.1zm7.6 2.4v1.1H72v-6.3h3.9v1.1h-2.5v1.5h1.9V20h-1.9v1.5h2.4zm5.7 1.1h.7c.2 0 .4-.1.6-.1.2-.1.4-.1.6-.2.2-.1.3-.2.5-.3v-2.7h-2.2v.8c0 .1 0 .1.1.2.1 0 .1.1.2.1h.6v.9c-.1.1-.3.1-.4.1h-.5c-.2 0-.5 0-.7-.1-.2-.1-.4-.2-.6-.4-.2-.2-.3-.4-.4-.6-.1-.3-.1-.6-.1-.9 0-.3 0-.5.1-.8.1-.2.2-.4.4-.6.2-.2.3-.3.6-.4.2-.1.5-.2.7-.1h.4c.1 0 .2 0 .3.1.1 0 .2.1.3.1l.3.2c.1 0 .2.1.3.1h.2c.1 0 .1-.1.2-.1l.4-.6c-.1-.1-.3-.2-.4-.3-.2-.1-.4-.2-.5-.3-.2-.1-.4-.1-.6-.2-.2 0-.5-.1-.7-.1-.5 0-.9.1-1.4.2-.4.1-.7.4-1.1.6-.3.3-.5.6-.7 1-.2.4-.2.8-.2 1.3 0 .4.1.9.2 1.2.2.4.4.7.7 1 .3.3.6.5 1 .7.3.1.7.2 1.1.2zm7.7-.2c-.8.3-1.8.3-2.6 0-.7-.3-1.3-.9-1.6-1.7-.2-.4-.2-.8-.2-1.2 0-.4.1-.8.2-1.2.1-.4.4-.7.7-1 .3-.3.6-.5 1-.7.8-.3 1.8-.3 2.6 0 .4.2.7.4 1 .7.3.3.5.6.7 1 .3.8.3 1.7 0 2.5-.2.4-.4.7-.7 1-.3.1-.7.4-1.1.6zm-1.3-1.2c-.3 0-.5 0-.8-.1-.2-.1-.4-.2-.6-.4-.2-.2-.3-.4-.3-.6-.1-.3-.1-.5-.1-.8 0-.3 0-.5.1-.8l.3-.6c.2-.2.3-.3.6-.4.5-.2 1-.2 1.5 0 .2.1.4.2.6.4.2.2.3.4.3.6.1.3.1.5.1.8 0 .3 0 .5-.1.8l-.3.6c-.2.2-.3.3-.6.4-.2.1-.4.1-.7.1zm9.6-4.9L95 22.6h-1.3l-2.5-6.3h1.2c.1 0 .2 0 .3.1l.2.2L94 20c.1.1.1.3.2.5s.1.4.2.5c0-.2.1-.4.1-.5 0-.2.1-.3.2-.5l1.2-3.4c.1-.2.3-.3.5-.3h1.1zm4.3 6.3v-1.2h-2.4V20h1.9v-1.1h-1.9v-1.5h2.5v-1.1H98v6.3h3.8zm2.4-2.3v2.3h-1.4v-6.3h2c.4 0 .8 0 1.1.1.3.1.5.2.8.4.2.2.3.4.4.6.1.2.1.5.1.7 0 .2 0 .4-.1.6-.1.2-.1.3-.2.5s-.2.3-.4.4c-.2.1-.3.2-.5.3.1.1.2.1.3.2.1.1.2.2.2.3l1.3 2.2h-1.3c-.2 0-.4-.1-.5-.3l-1-1.8c0-.1-.1-.1-.2-.2-.1 0-.2-.1-.2 0h-.4zm.7-1.2h-.6v-1.8h.6c.3 0 .6.1.9.2.2.1.3.4.3.6 0 .1 0 .2-.1.4 0 .1-.1.2-.2.3-.1.1-.2.2-.4.2-.2.1-.3.1-.5.1zm4.9.2v3.4h-1.2v-6.3h1l.1.1.1.1 2.9 3.8v-4h1.2v6.3h-1c-.1 0-.2-.1-.2-.2l-2.9-3.7v.5zm6.7 3.3v-4.2l1.6 3.2c0 .1.1.2.2.2s.2.1.3.1h.2c.1 0 .2 0 .3-.1.1-.1.2-.1.2-.2l1.6-3.2v4.2h1.2v-6.3h-1.3s-.1 0-.1.1l-.1.1-1.6 3.2c-.1.1-.1.2-.2.4s-.1.2-.1.4l-.2-.4-.2-.3-1.6-3.2s0-.1-.1-.1l-.1-.1h-1.3v6.3l1.3-.1zm10.5-1.1v1.1h-3.9v-6.3h3.9v1.1h-2.5v1.5h1.9V20h-1.9v1.5h2.5zm2.3 1.1v-4l2.9 3.7.2.2c.1 0 .2.1.3 0h.7v-6.3h-1.2v4l-2.9-3.8-.1-.1-.1-.1h-1v6.3l1.2.1zm8-5.1v5.1h-1.4v-5.2h-1.8v-1.2h5v1.1l-1.8.2zM31.1 36c.8 0 1.5-.1 2.3-.4 1.3-.5 2.3-1.5 2.8-2.8.5-1.4.5-2.9 0-4.2-.3-.6-.6-1.2-1.1-1.7-.5-.5-1.1-.9-1.7-1.1-.7-.3-1.5-.4-2.3-.4H27V36h4.1zm0-1.8h-1.6v-7h1.6c.4 0 .9.1 1.3.2.4.2.7.4.9.7.3.3.5.7.6 1.1.1.5.2 1 .2 1.5s-.1 1-.2 1.5c-.1.4-.3.8-.6 1.1-.2.3-.6.5-.9.7-.4.2-.8.2-1.3.2zm13.7-.1V36h-6.7V25.4h6.8v1.9h-4.3v2.5h3.3v1.8h-3.3v2.5h4.2zm4.4 2.3c.6 0 1.1-.1 1.6-.3.4-.2.9-.4 1.2-.8.3-.3.6-.7.7-1.1.2-.5.3-.9.3-1.4 0-.4-.1-.8-.2-1.1-.1-.3-.3-.6-.5-.8-.2-.2-.5-.4-.8-.5-.3-.1-.6-.3-.9-.4l-.9-.3c-.3-.1-.5-.2-.8-.3-.2-.1-.4-.2-.5-.4-.1-.1-.2-.3-.2-.5 0-.3.1-.6.3-.8.3-.2.6-.3 1-.3.2 0 .5 0 .7.1.2.1.4.1.6.2l.4.2c.1.1.2.1.4.1h.3c.1-.1.2-.2.2-.3l.6-1.1c-.2-.2-.4-.3-.7-.5-.2-.1-.5-.3-.8-.4-.3-.1-.6-.2-.9-.2-.3-.1-.7-.1-1-.1-.5 0-1.1.1-1.6.3-.4.2-.8.4-1.2.7-.3.3-.5.6-.7 1 .2.4.2.8.2 1.2 0 .4.1.8.2 1.2.1.3.3.6.5.9.2.2.5.4.8.5.3.1.6.2.9.4l.9.3c.3.1.5.2.8.3.2.1.4.2.5.4.1.2.2.4.2.6 0 .4-.1.7-.4.9-.3.2-.6.3-1 .3-.3 0-.6 0-.9-.1-.2-.1-.4-.2-.7-.3l-.5-.3c-.1-.1-.3-.1-.5-.1s-.4.1-.5.3l-.7 1.2c.2.2.5.4.7.6.3.2.6.3.9.4.3.1.7.2 1 .3.4-.1.7-.1 1 0zm8.1-11V36h-2.5V25.4h2.5zm6.9 10.9c.4 0 .8 0 1.2-.1.4 0 .7-.1 1.1-.2.3-.1.7-.2 1-.4.3-.1.6-.3.8-.5v-4.5h-3.8V32c0 .1.1.2.1.3.1.1.2.1.4.1h1V34c-.2.1-.5.2-.8.2-.3.1-.6.1-.9.1-.4 0-.8-.1-1.2-.2-.4-.2-.7-.4-1-.7-.3-.3-.5-.7-.7-1.1-.2-.5-.2-1-.2-1.5s.1-.9.2-1.4c.1-.4.3-.8.6-1.1.3-.3.6-.5 1-.7.4-.2.8-.2 1.2-.2h.7c.2 0 .4.1.6.1.2.1.4.1.5.2l.6.3c.1.1.3.1.4.1.1 0 .2 0 .3-.1.1-.1.2-.1.2-.2l.7-1.1c-.2-.2-.5-.4-.7-.6-.3-.2-.6-.3-.9-.5-.3-.1-.7-.2-1.1-.3-.4-.1-.8-.1-1.3-.1-.8 0-1.6.1-2.3.4-1.3.5-2.4 1.5-2.9 2.9-.3.7-.4 1.4-.4 2.2 0 .8.1 1.5.4 2.2.3.6.7 1.2 1.2 1.7s1.1.9 1.7 1.2c.8.4 1.5.5 2.3.5zm7.7-6V36h-2.2V25.4h1.8c.1 0 .1.1.2.1l.2.2 5 6.3v-6.6H79V36h-1.3c-.2 0-.3 0-.5-.1s-.3-.2-.4-.3l-5-6.3v.5c0 .1.1.3.1.5zm15 6c.6 0 1.1-.1 1.6-.3.4-.2.9-.4 1.2-.8.3-.3.6-.7.7-1.1.2-.4.3-.9.2-1.4 0-.4-.1-.8-.2-1.1-.1-.3-.3-.6-.5-.8-.2-.2-.5-.4-.8-.5-.3-.1-.6-.3-.9-.4l-.9-.3c-.3-.1-.5-.2-.8-.3-.2-.1-.4-.2-.5-.4-.1-.1-.2-.3-.2-.5 0-.3.1-.6.3-.8.3-.2.6-.3 1-.3.2 0 .5 0 .7.1.2.1.4.1.6.2l.4.2c.1.1.2.1.4.1.1 0 .2 0 .3-.1.1-.1.2-.2.2-.3l.6-1.1c-.2-.2-.4-.3-.7-.5-.3-.1-.5-.3-.8-.4-.3-.1-.6-.2-.9-.2-.3-.1-.7-.1-1-.1-.5 0-1.1.1-1.6.3-.4.2-.8.4-1.2.7-.3.3-.5.6-.7 1-.2.4-.2.8-.2 1.2 0 .4.1.9.2 1.2.1.3.3.6.5.9.2.2.5.4.8.5.3.1.6.2.9.4l.9.3c.3.1.5.2.8.3.2.1.4.2.5.4.1.2.2.4.2.6 0 .4-.1.7-.4.9-.3.2-.6.3-1 .3-.3 0-.6 0-.9-.1l-.6-.3-.1-.2c-.1-.1-.3-.1-.4-.1-.1 0-.2 0-.3.1-.1.1-.2.1-.2.2l-.7 1.2c.2.2.5.4.7.6.3.2.6.3.9.4.3.1.7.2 1 .3h.9zM97.3 32v4h-2.4v-4l-3.8-6.6h2.1c.2 0 .4 0 .5.1.1.1.2.2.3.4l1.5 3.1.3.7.3.6.3-.6.3-.7 1.5-3.1c0-.1.1-.1.1-.2l.2-.2c.1 0 .1-.1.2-.1h2.4L97.3 32zm7.5 4.4c.6 0 1.1-.1 1.6-.3.4-.2.8-.4 1.2-.8.3-.3.6-.7.8-1.1.2-.4.3-.9.2-1.4 0-.4-.1-.8-.2-1.1-.1-.3-.3-.6-.5-.8-.2-.2-.5-.4-.8-.5-.3-.1-.6-.3-.9-.4l-.9-.3c-.3-.1-.5-.2-.8-.3-.2-.1-.4-.2-.6-.4-.1-.1-.2-.3-.2-.5 0-.3.1-.6.3-.8.3-.2.6-.3 1-.3.2 0 .5 0 .7.1.2.1.4.1.6.2l.4.2c.1.1.2.1.4.1.1 0 .2 0 .3-.1.1-.1.2-.2.2-.3l.6-1.1c-.2-.2-.4-.3-.7-.5-.3-.1-.5-.3-.8-.4-.3-.1-.6-.2-.9-.2-.3-.1-.7-.1-1-.1-.5 0-1.1.1-1.6.3-.4.2-.8.4-1.1.7-.3.3-.5.6-.7 1-.2.4-.3.8-.2 1.2 0 .4.1.9.2 1.2.1.3.3.6.5.9.2.2.5.4.8.5.3.1.6.2.9.4l.9.3c.3.1.5.2.8.3.2.1.4.2.5.4.1.2.2.4.2.6 0 .4-.1.7-.4.9-.3.2-.6.3-1 .3-.3 0-.6 0-.9-.1l-.6-.3-.5-.3c-.1-.1-.3-.1-.4-.1-.1 0-.2 0-.3.1-.1.1-.2.1-.2.2L101 35c.2.2.5.4.7.6.3.2.6.3.9.4.3.1.7.2 1 .3.4 0 .8 0 1.2.1zm9.8-9V36h-2.4v-8.7h-2.9v-1.9h8.2v1.9l-2.9.1zm11.1 8.6v-1.9h-4.3v-2.5h3.3v-1.8h-3.3v-2.5h4.3v-1.9h-6.8V36h6.8zm3.9-6.1V36h-2.1V25.4h2.3c.1 0 .1.1.2.1.1.1.1.1.1.2l2.7 5.4.3.6.3.6.3-.6.3-.6 2.7-5.3c0-.1.1-.2.1-.2s.1-.1.2-.1h2.3V36h-2.1v-7.1l-2.8 5.4c-.1.2-.2.3-.4.4-.2.1-.3.1-.5.1h-.3c-.2 0-.3 0-.5-.1s-.3-.2-.4-.4l-2.8-5.4c0 .2 0 .3.1.5s0 .4 0 .5z"/></g></g></svg>