<svg xmlns="http://www.w3.org/2000/svg" viewBox="0 0 139.22 61.33"><defs><style>.cls-1{fill:#498fc6;}.cls-2{fill:#414141;}.cls-2,.cls-3,.cls-4{fill-rule:evenodd;}.cls-3{fill:#e77825;}.cls-4{fill:#63489d;}</style></defs><g id="Layer_2" data-name="Layer 2"><g id="Layer_3" data-name="Layer 3"><path class="cls-1" d="M30,1.07,25.52,8.8,7.44,40.27,3,48a4.58,4.58,0,0,1-1.39-.8h0l4.45-7.74L24.13,8,28.57.27A4.58,4.58,0,0,1,30,1.07Z"/><path class="cls-1" d="M29.91,60.3a4.66,4.66,0,0,1-1.41.79l-4.43-7.71L6,22,1.6,14.25A4.41,4.41,0,0,1,3,13.44l4.44,7.73,18,31.37Z"/><path class="cls-1" d="M54.06,43.72a4.25,4.25,0,0,1-.07.8H.07a4.61,4.61,0,0,1,0-1.6H54A4.25,4.25,0,0,1,54.06,43.72Z"/><path class="cls-2" d="M2.09,17.71S4,26.59,4,30.72s-1.93,13-1.93,13H6.92S5,35.3,5,30.72s1.93-13,1.93-13Z"/><path class="cls-2" d="M3.3,45.82S12,48.59,15.52,50.65s10.3,8.17,10.3,8.17l2.42-4.18S20,52.1,16,49.81s-10.3-8.18-10.3-8.18Z"/><path class="cls-2" d="M48.35,41.63s-6.73,6.12-10.29,8.18-12.23,4.83-12.23,4.83l2.41,4.18s6.33-5.88,10.3-8.17,12.23-4.83,12.23-4.83Z"/><path class="cls-2" d="M25.82,2.6s-6.73,6.12-10.3,8.18S3.29,15.61,3.29,15.61l2.42,4.18S12,13.91,16,11.62,28.23,6.79,28.23,6.79Z"/><path class="cls-3" d="M31.56,56.79a4.55,4.55,0,0,1-1.65,3.51,4.47,4.47,0,0,1-2.86,1,4.55,4.55,0,0,1-3-7.95,4.34,4.34,0,0,1,1.38-.84,4.5,4.5,0,0,1,6.11,4.25Z"/><path class="cls-4" d="M31.56,4.54a4.52,4.52,0,0,1-4.51,4.54,4.33,4.33,0,0,1-1.53-.28A4.23,4.23,0,0,1,24.13,8a4.54,4.54,0,0,1,2.92-8,4.27,4.27,0,0,1,1.52.27,4.58,4.58,0,0,1,1.39.8A4.54,4.54,0,0,1,31.56,4.54Z"/><path class="cls-3" d="M9,17.71a4.54,4.54,0,0,1-1.59,3.46A4.61,4.61,0,0,1,6,22a4.5,4.5,0,0,1-6-4.27,4.5,4.5,0,0,1,1.6-3.46A4.41,4.41,0,0,1,3,13.44a4.27,4.27,0,0,1,1.52-.27A4.52,4.52,0,0,1,9,17.71Z"/><path class="cls-4" d="M9,43.72a4.25,4.25,0,0,1-.07.8,4.52,4.52,0,0,1-4.44,3.74A4.44,4.44,0,0,1,3,48a4.58,4.58,0,0,1-1.39-.8h0A4.51,4.51,0,0,1,.07,44.52a4.61,4.61,0,0,1,0-1.6,4.52,4.52,0,0,1,4.44-3.74,4.72,4.72,0,0,1,1.55.27,4.47,4.47,0,0,1,1.38.82A4.53,4.53,0,0,1,9,42.92,4.25,4.25,0,0,1,9,43.72Z"/><path class="cls-4" d="M54.06,43.72a4.25,4.25,0,0,1-.07.8,4.5,4.5,0,0,1-8.87,0,4.61,4.61,0,0,1,0-1.6,4.5,4.5,0,0,1,8.87,0A4.25,4.25,0,0,1,54.06,43.72Z"/><path class="cls-2" d="M28.84,22.57a2.45,2.45,0,0,0,.93-.16,1.89,1.89,0,0,0,1.11-1.08,2.09,2.09,0,0,0,.14-.79,1.63,1.63,0,0,0-.11-.66,1.49,1.49,0,0,0-.31-.46,1.62,1.62,0,0,0-.43-.31,5.32,5.32,0,0,0-.5-.21l-.5-.17a3.72,3.72,0,0,1-.44-.16,1,1,0,0,1-.3-.21.43.43,0,0,1-.12-.31.58.58,0,0,1,.19-.46.91.91,0,0,1,.6-.17,1.25,1.25,0,0,1,.4.06,1.92,1.92,0,0,1,.32.14l.25.13a.4.4,0,0,0,.21.07.35.35,0,0,0,.18-.05.75.75,0,0,0,.13-.16l.35-.66a2.07,2.07,0,0,0-.37-.27,3,3,0,0,0-.44-.21,3.8,3.8,0,0,0-.51-.13,3.19,3.19,0,0,0-.54,0,2.44,2.44,0,0,0-.89.15,2.17,2.17,0,0,0-.66.41A1.8,1.8,0,0,0,27,18.12a1.87,1.87,0,0,0,.12.72,1.4,1.4,0,0,0,.3.49,1.55,1.55,0,0,0,.44.32,3,3,0,0,0,.49.2l.5.15a3,3,0,0,1,.43.16.91.91,0,0,1,.31.22.51.51,0,0,1,.12.35.62.62,0,0,1-.22.54.94.94,0,0,1-.59.17,1.5,1.5,0,0,1-.5-.08,1.82,1.82,0,0,1-.37-.18L27.74,21a.44.44,0,0,0-.26-.08.39.39,0,0,0-.18,0,.33.33,0,0,0-.13.13l-.41.66a2.36,2.36,0,0,0,.42.33,2.78,2.78,0,0,0,.52.25,2.69,2.69,0,0,0,.57.17A2.83,2.83,0,0,0,28.84,22.57Zm4.67,0V16.3H32.09v6.27Zm2.68-3.36v3.36H34.94V16.3h.9a.2.2,0,0,1,.11,0l.1.07.1.11,2.91,3.77,0-.35c0-.12,0-.22,0-.32V16.3h1.25v6.27h-.74a.72.72,0,0,1-.27-.05.64.64,0,0,1-.22-.19l-2.88-3.74c0,.11,0,.22,0,.32S36.19,19.12,36.19,19.21Zm8,3.36a5.39,5.39,0,0,0,.72,0,3.16,3.16,0,0,0,.64-.12,3.38,3.38,0,0,0,.56-.2,2.88,2.88,0,0,0,.5-.3V19.32H44.39v.79a.24.24,0,0,0,.07.18.38.38,0,0,0,.22.07h.62v.93a1.89,1.89,0,0,1-.44.13,2.16,2.16,0,0,1-.54,0,1.93,1.93,0,0,1-.73-.13,1.67,1.67,0,0,1-.58-.4,1.86,1.86,0,0,1-.39-.64,2.57,2.57,0,0,1-.13-.87,2.53,2.53,0,0,1,.12-.8A1.66,1.66,0,0,1,43,18a1.49,1.49,0,0,1,.56-.39,1.78,1.78,0,0,1,.74-.15,2.41,2.41,0,0,1,.4,0,1.86,1.86,0,0,1,.34.06,1.66,1.66,0,0,1,.31.12,2.68,2.68,0,0,1,.33.18.56.56,0,0,0,.27.08.41.41,0,0,0,.19-.05.47.47,0,0,0,.14-.14l.43-.62a3,3,0,0,0-.44-.33,2.9,2.9,0,0,0-.53-.26,3.17,3.17,0,0,0-.64-.18,4.47,4.47,0,0,0-.75-.06,4,4,0,0,0-1.38.23,3.11,3.11,0,0,0-1,.65,2.8,2.8,0,0,0-.67,1,3.34,3.34,0,0,0,0,2.51,2.87,2.87,0,0,0,.68,1,3,3,0,0,0,1,.66A3.35,3.35,0,0,0,44.21,22.57Zm4.28-.1a.48.48,0,0,1-.31.1H47l2.45-6.27H51l2.45,6.27H52.3a.53.53,0,0,1-.32-.09.46.46,0,0,1-.17-.22l-.37-1.1H49l-.37,1.1A.48.48,0,0,1,48.49,22.47Zm.68-2.34.59-1.61c.05-.11.1-.23.15-.37a4.21,4.21,0,0,0,.14-.46l.16.46c0,.14.1.26.14.36l.59,1.62Zm6,.34v2.1H53.79V16.3H56a3.34,3.34,0,0,1,1.11.16,2.12,2.12,0,0,1,.77.43,1.6,1.6,0,0,1,.44.65,2.16,2.16,0,0,1,.14.81,2.63,2.63,0,0,1-.14.86,1.8,1.8,0,0,1-.45.67,2.13,2.13,0,0,1-.77.44,3.61,3.61,0,0,1-1.1.15Zm.74-1h-.74V17.34H56a1.26,1.26,0,0,1,.46.08.91.91,0,0,1,.33.2.94.94,0,0,1,.19.32,1.35,1.35,0,0,1,.06.41,1.21,1.21,0,0,1-.24.8A1,1,0,0,1,56,19.43Zm7.69,2.9a3.7,3.7,0,0,1-2.62,0,2.91,2.91,0,0,1-1.66-1.66,3.15,3.15,0,0,1-.23-1.24,3.22,3.22,0,0,1,.23-1.24,2.89,2.89,0,0,1,.65-1,3.05,3.05,0,0,1,1-.66,3.7,3.7,0,0,1,2.62,0,3.05,3.05,0,0,1,1,.66,3.2,3.2,0,0,1,.65,1,3.43,3.43,0,0,1,0,2.47,3.2,3.2,0,0,1-.65,1A3.05,3.05,0,0,1,63.64,22.33Zm-1.31-1.15a2.18,2.18,0,0,1-.75-.13,1.59,1.59,0,0,1-.56-.38,1.79,1.79,0,0,1-.35-.6,2.55,2.55,0,0,1-.12-.81,2.49,2.49,0,0,1,.12-.8,1.61,1.61,0,0,1,.35-.6,1.36,1.36,0,0,1,.56-.38,2.08,2.08,0,0,1,1.5,0,1.43,1.43,0,0,1,.56.38,1.6,1.6,0,0,1,.34.6,2.48,2.48,0,0,1,.13.8,2.55,2.55,0,0,1-.13.81,1.77,1.77,0,0,1-.34.6,1.68,1.68,0,0,1-.56.38A2.18,2.18,0,0,1,62.33,21.18Zm5.32-.93v2.32H66.24V16.3h2a4.15,4.15,0,0,1,1.13.14,2,2,0,0,1,.76.39,1.53,1.53,0,0,1,.42.59,2,2,0,0,1,.14.74,2.25,2.25,0,0,1-.08.58,1.65,1.65,0,0,1-.24.5,1.84,1.84,0,0,1-.38.41,1.8,1.8,0,0,1-.53.29,1,1,0,0,1,.27.19.92.92,0,0,1,.21.26l1.3,2.18H69.94a.53.53,0,0,1-.51-.28l-1-1.82a.44.44,0,0,0-.16-.17.55.55,0,0,0-.25-.05Zm.63-1.16h-.62V17.34h.62a1.48,1.48,0,0,1,.88.22.73.73,0,0,1,.28.61,1,1,0,0,1-.06.36.75.75,0,0,1-.21.29,1,1,0,0,1-.36.2A1.94,1.94,0,0,1,68.28,19.09Zm7.56,2.36v1.12H71.93V16.3h3.91v1.12H73.35v1.46h1.91V20H73.35v1.49Zm5.72,1.12a5.39,5.39,0,0,0,.72,0,3.16,3.16,0,0,0,.64-.12,3.73,3.73,0,0,0,.56-.2,2.88,2.88,0,0,0,.5-.3V19.32H81.73v.79a.25.25,0,0,0,.08.18.36.36,0,0,0,.22.07h.62v.93a2,2,0,0,1-.44.13,2.21,2.21,0,0,1-.54,0,1.93,1.93,0,0,1-.73-.13,1.59,1.59,0,0,1-.58-.4A1.86,1.86,0,0,1,80,20.3a2.56,2.56,0,0,1-.14-.87,2.53,2.53,0,0,1,.13-.8,1.66,1.66,0,0,1,.36-.62,1.49,1.49,0,0,1,.56-.39,1.78,1.78,0,0,1,.74-.15,2.41,2.41,0,0,1,.4,0,1.86,1.86,0,0,1,.34.06,1.66,1.66,0,0,1,.31.12l.33.18a.56.56,0,0,0,.27.08.35.35,0,0,0,.18-.05.4.4,0,0,0,.15-.14l.42-.62a2.44,2.44,0,0,0-.43-.33,2.7,2.7,0,0,0-.54-.26,2.84,2.84,0,0,0-.64-.18,4.27,4.27,0,0,0-.74-.06,4,4,0,0,0-1.38.23,3.11,3.11,0,0,0-1.05.65,2.8,2.8,0,0,0-.67,1,3.22,3.22,0,0,0-.24,1.26,3,3,0,0,0,.25,1.25,3,3,0,0,0,.67,1,3.14,3.14,0,0,0,1,.66A3.35,3.35,0,0,0,81.56,22.57Zm7.69-.24a3.7,3.7,0,0,1-2.62,0A2.91,2.91,0,0,1,85,20.67a3.15,3.15,0,0,1-.23-1.24A3.22,3.22,0,0,1,85,18.19a2.89,2.89,0,0,1,.65-1,3.05,3.05,0,0,1,1-.66,3.7,3.7,0,0,1,2.62,0,3.05,3.05,0,0,1,1,.66,3.2,3.2,0,0,1,.65,1,3.43,3.43,0,0,1,0,2.47,3.2,3.2,0,0,1-.65,1A3.05,3.05,0,0,1,89.25,22.33Zm-1.31-1.15a2.18,2.18,0,0,1-.75-.13,1.59,1.59,0,0,1-.56-.38,1.79,1.79,0,0,1-.35-.6,2.55,2.55,0,0,1-.12-.81,2.49,2.49,0,0,1,.12-.8,1.61,1.61,0,0,1,.35-.6,1.36,1.36,0,0,1,.56-.38,2.08,2.08,0,0,1,1.5,0,1.43,1.43,0,0,1,.56.38,1.6,1.6,0,0,1,.34.6,2.24,2.24,0,0,1,.13.8,2.3,2.3,0,0,1-.13.81,1.77,1.77,0,0,1-.34.6,1.68,1.68,0,0,1-.56.38A2.18,2.18,0,0,1,87.94,21.18Zm9.6-4.88L95,22.57H93.67L91.14,16.3h1.18a.5.5,0,0,1,.31.09.49.49,0,0,1,.18.22L94,20c.06.15.11.31.17.48s.11.35.16.54a4.26,4.26,0,0,1,.14-.54c0-.17.1-.33.16-.48l1.21-3.36a.52.52,0,0,1,.48-.31Zm4.27,6.27V21.45H99.32V20h1.91V18.88H99.32V17.42h2.49V16.3H97.9v6.27Zm2.48-2.32v2.32h-1.41V16.3h2a4,4,0,0,1,1.12.14,2,2,0,0,1,.76.39,1.45,1.45,0,0,1,.43.59,2,2,0,0,1,.14.74,2.25,2.25,0,0,1-.08.58,2.3,2.3,0,0,1-.24.5,1.67,1.67,0,0,1-.39.41,1.75,1.75,0,0,1-.52.29,1.2,1.2,0,0,1,.27.19.92.92,0,0,1,.21.26l1.3,2.18h-1.28a.53.53,0,0,1-.51-.28l-1-1.82a.53.53,0,0,0-.16-.17.55.55,0,0,0-.25-.05Zm.63-1.16h-.62V17.34h.62a1.44,1.44,0,0,1,.87.22.74.74,0,0,1,.29.61.86.86,0,0,1-.07.36.72.72,0,0,1-.2.29,1,1,0,0,1-.36.2A2,2,0,0,1,104.92,19.09Zm4.9.12v3.36h-1.25V16.3h.9a.2.2,0,0,1,.11,0l.1.07.1.11,2.91,3.77,0-.35c0-.12,0-.22,0-.32V16.3h1.25v6.27h-.73a.74.74,0,0,1-.28-.05.64.64,0,0,1-.22-.19l-2.88-3.74c0,.11,0,.22,0,.32S109.82,19.12,109.82,19.21Zm6.74,3.36V19c0-.08,0-.17,0-.27l0-.3,1.6,3.23a.64.64,0,0,0,.2.23.57.57,0,0,0,.29.07h.19a.57.57,0,0,0,.29-.07.64.64,0,0,0,.2-.23l1.59-3.22a5.53,5.53,0,0,0,0,.56v3.61h1.22V16.3h-1.22l-.12,0a.23.23,0,0,0-.1.07.62.62,0,0,0-.08.12L119,19.69c-.05.11-.1.23-.16.35s-.1.24-.14.36l-.15-.36-.16-.34-1.55-3.18a.36.36,0,0,0-.08-.12.23.23,0,0,0-.1-.07l-.12,0h-1.22v6.27Zm10.5-1.12v1.12h-3.91V16.3h3.91v1.12h-2.49v1.46h1.91V20h-1.91v1.49Zm2.32,1.12V19.21c0-.09,0-.19,0-.3s0-.21,0-.32l2.88,3.74a.75.75,0,0,0,.22.19.78.78,0,0,0,.28.05h.74V16.3h-1.25v3.64l0,.35-2.9-3.77a1.13,1.13,0,0,0-.11-.11l-.09-.07a.24.24,0,0,0-.12,0h-.9v6.27Zm8-5.12v5.12h-1.45V17.45h-1.76V16.3h5v1.15Z"/><path class="cls-2" d="M31.13,36a6.06,6.06,0,0,0,2.26-.4,4.94,4.94,0,0,0,2.85-2.77,5.93,5.93,0,0,0,0-4.23,5.06,5.06,0,0,0-1.12-1.67,5.22,5.22,0,0,0-1.73-1.1,6.06,6.06,0,0,0-2.26-.4H27V36Zm0-1.76H29.51v-7h1.65a3,3,0,0,1,1.26.25,2.46,2.46,0,0,1,.93.7,3.13,3.13,0,0,1,.59,1.1,5.17,5.17,0,0,1,.2,1.47,5.07,5.07,0,0,1-.2,1.47,3.1,3.1,0,0,1-.59,1.11,2.46,2.46,0,0,1-.93.7A3,3,0,0,1,31.16,34.21Zm13.67-.13V36H38.06V25.4h6.77v1.89H40.51v2.46h3.31v1.82H40.51v2.51Zm4.37,2.24a4.59,4.59,0,0,0,1.62-.27,3.47,3.47,0,0,0,1.2-.76,3.27,3.27,0,0,0,.74-1.12A3.81,3.81,0,0,0,53,32.78a2.76,2.76,0,0,0-.21-1.14,2.38,2.38,0,0,0-.53-.8,3,3,0,0,0-.77-.55,8.41,8.41,0,0,0-.87-.37c-.3-.1-.59-.2-.87-.28a5.66,5.66,0,0,1-.77-.29,1.65,1.65,0,0,1-.53-.36.73.73,0,0,1-.21-.54,1,1,0,0,1,.34-.8,1.54,1.54,0,0,1,1-.3,2.16,2.16,0,0,1,.71.11,3.25,3.25,0,0,1,.56.24l.44.23a.68.68,0,0,0,.37.11A.52.52,0,0,0,52,28a1,1,0,0,0,.23-.26l.61-1.15a3.22,3.22,0,0,0-.65-.48,6,6,0,0,0-.77-.36,5,5,0,0,0-.89-.22,5.89,5.89,0,0,0-1-.08,4.18,4.18,0,0,0-1.56.27,3.67,3.67,0,0,0-1.15.71,3.08,3.08,0,0,0-.71,1A3,3,0,0,0,46,28.58a3.48,3.48,0,0,0,.2,1.25,2.74,2.74,0,0,0,.54.86,3,3,0,0,0,.76.55,8.31,8.31,0,0,0,.87.35l.87.26a5.56,5.56,0,0,1,.76.27,1.57,1.57,0,0,1,.54.39.91.91,0,0,1,.2.61,1.13,1.13,0,0,1-.37.94,1.64,1.64,0,0,1-1,.3,2.46,2.46,0,0,1-.86-.14,5,5,0,0,1-.65-.31l-.5-.31a.88.88,0,0,0-.45-.14.65.65,0,0,0-.54.29l-.73,1.16a4.42,4.42,0,0,0,.74.58,5.9,5.9,0,0,0,.91.44,6.63,6.63,0,0,0,1,.29A5.18,5.18,0,0,0,49.2,36.32ZM57.29,25.4V36H54.8V25.4Zm6.88,10.92a11.59,11.59,0,0,0,1.22-.06,8.11,8.11,0,0,0,1.07-.21,4.91,4.91,0,0,0,1-.36,5.32,5.32,0,0,0,.85-.51V30.67h-3.8V32a.43.43,0,0,0,.14.32.51.51,0,0,0,.36.12H66v1.62a4.69,4.69,0,0,1-.75.24,4.16,4.16,0,0,1-.91.08,3.15,3.15,0,0,1-1.24-.23,2.63,2.63,0,0,1-1-.7,3.19,3.19,0,0,1-.65-1.11,4.43,4.43,0,0,1-.24-1.51,4.37,4.37,0,0,1,.22-1.4,3,3,0,0,1,.6-1.07,2.76,2.76,0,0,1,1-.7,3.13,3.13,0,0,1,1.25-.24c.25,0,.48,0,.68,0a4.78,4.78,0,0,1,.57.12,2.66,2.66,0,0,1,.53.21l.56.3a.81.81,0,0,0,.45.15.56.56,0,0,0,.31-.09.82.82,0,0,0,.25-.24l.71-1.09a3.84,3.84,0,0,0-.73-.57,4.75,4.75,0,0,0-.9-.46,5.68,5.68,0,0,0-1.08-.3,7.21,7.21,0,0,0-1.26-.11,6.58,6.58,0,0,0-2.33.4,5,5,0,0,0-2.92,2.86,6,6,0,0,0-.39,2.2A5.74,5.74,0,0,0,59.13,33a5.19,5.19,0,0,0,1.15,1.73A5.25,5.25,0,0,0,62,35.91,5.74,5.74,0,0,0,64.17,36.32Zm7.76-6V36H69.76V25.4h1.3l.27,0a.41.41,0,0,1,.19,0,.62.62,0,0,1,.17.11l.18.2,5,6.34c0-.2,0-.4,0-.59s0-.37,0-.54V25.4H79V36H77.74a1.14,1.14,0,0,1-.48-.09,1,1,0,0,1-.38-.32l-5-6.29c0,.18,0,.36,0,.54S71.93,30.15,71.93,30.3Zm15,6a4.6,4.6,0,0,0,1.63-.27,3.67,3.67,0,0,0,1.2-.76,3.27,3.27,0,0,0,.74-1.12,3.81,3.81,0,0,0,.25-1.39,2.77,2.77,0,0,0-.2-1.14,2.56,2.56,0,0,0-.54-.8,2.79,2.79,0,0,0-.76-.55c-.28-.14-.58-.26-.87-.37s-.59-.2-.88-.28a5.5,5.5,0,0,1-.76-.29,1.82,1.82,0,0,1-.54-.36.77.77,0,0,1-.2-.54,1,1,0,0,1,.34-.8,1.51,1.51,0,0,1,1-.3,2.27,2.27,0,0,1,.72.11,3.25,3.25,0,0,1,.56.24l.44.23a.68.68,0,0,0,.36.11.5.5,0,0,0,.31-.09.85.85,0,0,0,.23-.26l.62-1.15a3.53,3.53,0,0,0-.65-.48,5.6,5.6,0,0,0-.78-.36,4.93,4.93,0,0,0-.88-.22,6,6,0,0,0-1-.08,4.16,4.16,0,0,0-1.55.27,3.56,3.56,0,0,0-1.15.71,2.94,2.94,0,0,0-.71,1,3,3,0,0,0-.25,1.18,3.26,3.26,0,0,0,.21,1.25,2.74,2.74,0,0,0,.54.86,2.79,2.79,0,0,0,.76.55,8.31,8.31,0,0,0,.87.35l.87.26a5.41,5.41,0,0,1,.75.27,1.4,1.4,0,0,1,.54.39.87.87,0,0,1,.21.61,1.13,1.13,0,0,1-.38.94,1.59,1.59,0,0,1-1,.3,2.56,2.56,0,0,1-.87-.14,4.79,4.79,0,0,1-.64-.31L85,33.6a.87.87,0,0,0-.44-.14.72.72,0,0,0-.32.08.74.74,0,0,0-.22.21l-.74,1.16a4.42,4.42,0,0,0,.74.58,7,7,0,0,0,.91.44,6.75,6.75,0,0,0,1,.29A5,5,0,0,0,87,36.32ZM97.33,32v4H94.91V32L91.13,25.4h2.13a.76.76,0,0,1,.5.15,1,1,0,0,1,.3.38L95.54,29l.33.68a6.19,6.19,0,0,1,.26.61,6.33,6.33,0,0,1,.26-.62l.32-.67,1.46-3.08a1,1,0,0,1,.12-.19l.17-.17a.94.94,0,0,1,.22-.12A.87.87,0,0,1,99,25.4h2.14Zm7.43,4.37a4.6,4.6,0,0,0,1.63-.27,3.52,3.52,0,0,0,1.19-.76,3.16,3.16,0,0,0,.75-1.12,3.81,3.81,0,0,0,.25-1.39,2.77,2.77,0,0,0-.2-1.14,2.56,2.56,0,0,0-.54-.8,2.79,2.79,0,0,0-.76-.55c-.29-.14-.58-.26-.87-.37s-.59-.2-.88-.28a5.5,5.5,0,0,1-.76-.29A1.82,1.82,0,0,1,104,29a.77.77,0,0,1-.2-.54,1,1,0,0,1,.34-.8,1.51,1.51,0,0,1,1-.3,2.27,2.27,0,0,1,.72.11,3.25,3.25,0,0,1,.56.24l.44.23a.68.68,0,0,0,.36.11.5.5,0,0,0,.31-.09.85.85,0,0,0,.23-.26l.62-1.15a3.53,3.53,0,0,0-.65-.48,5.6,5.6,0,0,0-.78-.36,4.93,4.93,0,0,0-.88-.22,6,6,0,0,0-1-.08,4.25,4.25,0,0,0-1.56.27,3.62,3.62,0,0,0-1.14.71,2.94,2.94,0,0,0-.71,1,2.88,2.88,0,0,0-.25,1.18,3.26,3.26,0,0,0,.21,1.25,2.57,2.57,0,0,0,.54.86,2.9,2.9,0,0,0,.75.55c.29.13.58.25.88.35l.87.26a5.41,5.41,0,0,1,.75.27,1.4,1.4,0,0,1,.54.39.87.87,0,0,1,.21.61,1.13,1.13,0,0,1-.38.94,1.59,1.59,0,0,1-1,.3,2.52,2.52,0,0,1-.87-.14,4.79,4.79,0,0,1-.64-.31l-.51-.31a.87.87,0,0,0-.44-.14.72.72,0,0,0-.32.08.74.74,0,0,0-.22.21l-.74,1.16a4.42,4.42,0,0,0,.74.58,7,7,0,0,0,.91.44,6.75,6.75,0,0,0,1,.29A5,5,0,0,0,104.76,36.32Zm9.83-9V36H112.2V27.34h-2.9V25.4h8.19v1.94ZM125.68,36V34.08h-4.31V31.57h3.3V29.75h-3.3V27.29h4.31V25.4h-6.77V36Zm3.92-6.08V36h-2.14V25.4h2.13a.65.65,0,0,1,.21,0,.62.62,0,0,1,.17.11,1,1,0,0,1,.15.22l2.69,5.36c.09.18.19.37.27.57s.18.4.26.61c.08-.21.17-.42.26-.62s.18-.39.28-.58l2.68-5.34a1,1,0,0,1,.15-.22.5.5,0,0,1,.17-.11.65.65,0,0,1,.21,0h2.13V36h-2.14V29.89c0-.29,0-.61,0-1l-2.77,5.44a.86.86,0,0,1-.35.38.91.91,0,0,1-.5.13h-.33a.9.9,0,0,1-.49-.13.86.86,0,0,1-.35-.38l-2.79-5.44c0,.17,0,.33.05.5S129.6,29.75,129.6,29.89Z"/></g></g></svg>