<?xml version="1.0" encoding="utf-8"?>
<!-- Generator: Adobe Illustrator 26.3.1, SVG Export Plug-In . SVG Version: 6.00 Build 0)  -->
<svg version="1.1" id="Layer_1" xmlns="http://www.w3.org/2000/svg" xmlns:xlink="http://www.w3.org/1999/xlink" x="0px" y="0px"
	 viewBox="0 0 139.2 61.3" style="enable-background:new 0 0 139.2 61.3;" xml:space="preserve">
<style type="text/css">
	.st0{fill:#FFFFFF;}
	.st1{fill-rule:evenodd;clip-rule:evenodd;fill:#FFFFFF;}
</style>
<g id="Layer_2_00000082330062646770651670000008065309722552453804_">
	<g id="Layer_3">
		<path class="st0" d="M30,1.1l-4.5,7.7L7.4,40.3L3,48c-0.5-0.2-1-0.5-1.4-0.8l0,0l4.4-7.7L24.1,8l4.4-7.7C29.1,0.4,29.6,0.7,30,1.1
			z"/>
		<path class="st0" d="M29.9,60.3c-0.4,0.3-0.9,0.6-1.4,0.8l-4.4-7.7L6,22l-4.4-7.8C2,13.9,2.5,13.6,3,13.4l4.4,7.7l18,31.4
			L29.9,60.3z"/>
		<path class="st0" d="M54.1,43.7c0,0.3,0,0.5-0.1,0.8H0.1C0,44,0,43.4,0.1,42.9H54C54,43.2,54.1,43.5,54.1,43.7z"/>
		<path class="st1" d="M2.1,17.7c0,0,1.9,8.9,1.9,13s-1.9,13-1.9,13h4.8c0,0-1.9-8.4-1.9-13s1.9-13,1.9-13L2.1,17.7z"/>
		<path class="st1" d="M3.3,45.8c0,0,8.7,2.8,12.2,4.8s10.3,8.2,10.3,8.2l2.4-4.2c0,0-8.2-2.5-12.2-4.8S5.7,41.6,5.7,41.6L3.3,45.8z
			"/>
		<path class="st1" d="M48.3,41.6c0,0-6.7,6.1-10.3,8.2s-12.2,4.8-12.2,4.8l2.4,4.2c0,0,6.3-5.9,10.3-8.2s12.2-4.8,12.2-4.8
			L48.3,41.6z"/>
		<path class="st1" d="M25.8,2.6c0,0-6.7,6.1-10.3,8.2S3.3,15.6,3.3,15.6l2.4,4.2c0,0,6.3-5.9,10.3-8.2s12.2-4.8,12.2-4.8L25.8,2.6z
			"/>
		<path class="st1" d="M31.6,56.8c0,1.4-0.6,2.6-1.6,3.5c-0.8,0.7-1.8,1-2.9,1c-2.5,0-4.5-2.1-4.5-4.6c0-1.3,0.6-2.5,1.5-3.4
			c0.4-0.4,0.9-0.6,1.4-0.8c2.3-0.9,4.9,0.3,5.8,2.6C31.4,55.6,31.5,56.2,31.6,56.8L31.6,56.8z"/>
		<path class="st1" d="M31.6,4.5c0,2.5-2,4.5-4.5,4.5c0,0,0,0,0,0c-0.5,0-1-0.1-1.5-0.3c-0.5-0.2-1-0.4-1.4-0.8
			c-1.9-1.6-2.1-4.5-0.5-6.4C24.5,0.6,25.7,0,27,0c0.5,0,1,0.1,1.5,0.3c0.5,0.2,1,0.5,1.4,0.8C31,1.9,31.6,3.2,31.6,4.5z"/>
		<path class="st1" d="M9,17.7c0,1.3-0.6,2.6-1.6,3.5C7,21.5,6.5,21.8,6,22c-2.3,0.8-4.9-0.4-5.7-2.7c-0.2-0.5-0.3-1-0.3-1.5
			c0-1.3,0.6-2.6,1.6-3.5C2,13.9,2.5,13.6,3,13.4c0.5-0.2,1-0.3,1.5-0.3C7,13.2,9,15.2,9,17.7z"/>
		<path class="st1" d="M9,43.7c0,0.3,0,0.5-0.1,0.8c-0.4,2.2-2.2,3.7-4.4,3.7c-0.5,0-1-0.1-1.5-0.3c-0.5-0.2-1-0.5-1.4-0.8l0,0
			c-0.8-0.7-1.4-1.6-1.5-2.7C0,44,0,43.4,0.1,42.9c0.4-2.2,2.2-3.7,4.4-3.7c0.5,0,1.1,0.1,1.6,0.3c0.5,0.2,1,0.5,1.4,0.8
			c0.8,0.7,1.4,1.6,1.6,2.6C9,43.2,9,43.5,9,43.7z"/>
		<path class="st1" d="M54.1,43.7c0,0.3,0,0.5-0.1,0.8c-0.4,2.4-2.7,4.1-5.2,3.7c-1.9-0.3-3.4-1.8-3.7-3.7c-0.1-0.5-0.1-1.1,0-1.6
			c0.4-2.4,2.7-4.1,5.2-3.7c1.9,0.3,3.4,1.8,3.7,3.7C54,43.2,54.1,43.5,54.1,43.7z"/>
		<path class="st1" d="M28.8,22.6c0.3,0,0.6,0,0.9-0.2c0.5-0.2,0.9-0.6,1.1-1.1c0.1-0.3,0.1-0.5,0.1-0.8c0-0.2,0-0.4-0.1-0.7
			c-0.1-0.2-0.2-0.3-0.3-0.5c-0.1-0.1-0.3-0.2-0.4-0.3C30,19,29.8,19,29.7,18.9l-0.5-0.2c-0.1,0-0.3-0.1-0.4-0.2
			c-0.1-0.1-0.2-0.1-0.3-0.2c-0.1-0.1-0.1-0.2-0.1-0.3c0-0.2,0.1-0.3,0.2-0.5c0.2-0.1,0.4-0.2,0.6-0.2c0.1,0,0.3,0,0.4,0.1
			c0.1,0,0.2,0.1,0.3,0.1l0.2,0.1c0.1,0,0.1,0.1,0.2,0.1c0.1,0,0.1,0,0.2,0c0.1,0,0.1-0.1,0.1-0.2l0.4-0.7c-0.1-0.1-0.2-0.2-0.4-0.3
			c-0.1-0.1-0.3-0.2-0.4-0.2c-0.2-0.1-0.3-0.1-0.5-0.1c-0.2,0-0.4,0-0.5,0c-0.3,0-0.6,0-0.9,0.1c-0.2,0.1-0.5,0.2-0.7,0.4
			c-0.3,0.3-0.5,0.8-0.5,1.2c0,0.2,0,0.5,0.1,0.7c0.1,0.2,0.2,0.3,0.3,0.5c0.1,0.1,0.3,0.2,0.4,0.3c0.2,0.1,0.3,0.1,0.5,0.2l0.5,0.1
			c0.1,0,0.3,0.1,0.4,0.2c0.1,0.1,0.2,0.1,0.3,0.2c0.1,0.1,0.1,0.2,0.1,0.4c0,0.2-0.1,0.4-0.2,0.5c-0.2,0.1-0.4,0.2-0.6,0.2
			c-0.2,0-0.3,0-0.5-0.1c-0.1,0-0.3-0.1-0.4-0.2L27.7,21c-0.1-0.1-0.2-0.1-0.3-0.1c-0.1,0-0.1,0-0.2,0c-0.1,0-0.1,0.1-0.1,0.1
			l-0.4,0.7c0.1,0.1,0.3,0.2,0.4,0.3c0.2,0.1,0.3,0.2,0.5,0.2c0.2,0.1,0.4,0.1,0.6,0.2C28.5,22.5,28.6,22.6,28.8,22.6z M33.5,22.6
			v-6.3h-1.4v6.3H33.5z M36.2,19.2v3.4h-1.3v-6.3h0.9c0,0,0.1,0,0.1,0l0.1,0.1l0.1,0.1l2.9,3.8v-0.4c0-0.1,0-0.2,0-0.3v-3.3h1.2v6.3
			h-0.7c-0.1,0-0.2,0-0.3,0c-0.1,0-0.2-0.1-0.2-0.2l-2.9-3.7c0,0.1,0,0.2,0,0.3S36.2,19.1,36.2,19.2z M44.2,22.6c0.2,0,0.5,0,0.7,0
			c0.2,0,0.4-0.1,0.6-0.1c0.2-0.1,0.4-0.1,0.6-0.2c0.2-0.1,0.3-0.2,0.5-0.3v-2.6h-2.2v0.8c0,0.1,0,0.1,0.1,0.2
			c0.1,0,0.1,0.1,0.2,0.1h0.6v0.9c-0.1,0.1-0.3,0.1-0.4,0.1c-0.2,0-0.4,0-0.5,0c-0.2,0-0.5,0-0.7-0.1c-0.2-0.1-0.4-0.2-0.6-0.4
			c-0.2-0.2-0.3-0.4-0.4-0.6c-0.1-0.3-0.1-0.6-0.1-0.9c0-0.3,0-0.5,0.1-0.8c0.1-0.2,0.2-0.4,0.4-0.6c0.2-0.2,0.3-0.3,0.6-0.4
			c0.2-0.1,0.5-0.2,0.7-0.1c0.1,0,0.3,0,0.4,0c0.1,0,0.2,0,0.3,0.1c0.1,0,0.2,0.1,0.3,0.1c0.1,0.1,0.2,0.1,0.3,0.2
			c0.1,0,0.2,0.1,0.3,0.1c0.1,0,0.1,0,0.2,0c0.1,0,0.1-0.1,0.1-0.1l0.4-0.6c-0.1-0.1-0.3-0.2-0.4-0.3c-0.2-0.1-0.3-0.2-0.5-0.3
			c-0.2-0.1-0.4-0.1-0.6-0.2c-0.2,0-0.5-0.1-0.8-0.1c-0.5,0-0.9,0.1-1.4,0.2c-0.4,0.2-0.7,0.4-1,0.6c-0.3,0.3-0.5,0.6-0.7,1
			c-0.3,0.8-0.3,1.7,0,2.5c0.2,0.4,0.4,0.7,0.7,1c0.3,0.3,0.6,0.5,1,0.7C43.4,22.5,43.8,22.6,44.2,22.6L44.2,22.6z M48.5,22.5
			c-0.1,0.1-0.2,0.1-0.3,0.1H47l2.5-6.3H51l2.5,6.3h-1.2c-0.1,0-0.2,0-0.3-0.1c-0.1-0.1-0.1-0.1-0.2-0.2l-0.4-1.1H49l-0.4,1.1
			C48.6,22.3,48.6,22.4,48.5,22.5L48.5,22.5z M49.2,20.1l0.6-1.6c0-0.1,0.1-0.2,0.2-0.4c0.1-0.2,0.1-0.3,0.1-0.5l0.2,0.5
			c0,0.1,0.1,0.3,0.1,0.4l0.6,1.6H49.2z M55.2,20.5v2.1h-1.4v-6.3H56c0.4,0,0.8,0,1.1,0.2c0.3,0.1,0.5,0.2,0.8,0.4
			c0.2,0.2,0.3,0.4,0.4,0.6c0.1,0.3,0.1,0.5,0.1,0.8c0,0.3,0,0.6-0.1,0.9c-0.1,0.3-0.3,0.5-0.5,0.7c-0.2,0.2-0.5,0.3-0.8,0.4
			c-0.4,0.1-0.7,0.2-1.1,0.1H55.2z M55.9,19.5h-0.7v-2.1H56c0.2,0,0.3,0,0.5,0.1c0.1,0,0.2,0.1,0.3,0.2c0.1,0.1,0.1,0.2,0.2,0.3
			c0,0.1,0.1,0.3,0.1,0.4c0,0.3-0.1,0.6-0.2,0.8c-0.2,0.2-0.5,0.3-0.8,0.3L55.9,19.5z M63.6,22.4c-0.8,0.3-1.8,0.3-2.6,0
			c-0.8-0.3-1.4-0.9-1.7-1.7c-0.2-0.4-0.2-0.8-0.2-1.2c0-0.4,0.1-0.8,0.2-1.2c0.1-0.4,0.4-0.7,0.7-1c0.3-0.3,0.6-0.5,1-0.7
			c0.8-0.3,1.8-0.3,2.6,0c0.4,0.2,0.7,0.4,1,0.7c0.3,0.3,0.5,0.6,0.7,1c0.3,0.8,0.3,1.7,0,2.5c-0.2,0.4-0.4,0.7-0.7,1
			C64.3,22,64,22.2,63.6,22.4L63.6,22.4z M62.3,21.2c-0.3,0-0.5,0-0.8-0.1c-0.2-0.1-0.4-0.2-0.6-0.4c-0.2-0.2-0.3-0.4-0.3-0.6
			c-0.1-0.3-0.1-0.5-0.1-0.8c0-0.3,0-0.5,0.1-0.8c0.1-0.2,0.2-0.4,0.3-0.6c0.2-0.2,0.3-0.3,0.6-0.4c0.5-0.2,1-0.2,1.5,0
			c0.2,0.1,0.4,0.2,0.6,0.4c0.2,0.2,0.3,0.4,0.3,0.6c0.1,0.3,0.1,0.5,0.1,0.8c0,0.3,0,0.5-0.1,0.8c-0.1,0.2-0.2,0.4-0.3,0.6
			c-0.2,0.2-0.3,0.3-0.6,0.4C62.8,21.2,62.6,21.2,62.3,21.2L62.3,21.2z M67.6,20.3v2.3h-1.4v-6.3h2c0.4,0,0.8,0,1.1,0.1
			c0.3,0.1,0.5,0.2,0.8,0.4c0.2,0.2,0.3,0.4,0.4,0.6c0.1,0.2,0.1,0.5,0.1,0.7c0,0.2,0,0.4-0.1,0.6c-0.1,0.2-0.1,0.3-0.2,0.5
			c-0.1,0.2-0.2,0.3-0.4,0.4c-0.2,0.1-0.3,0.2-0.5,0.3c0.1,0,0.2,0.1,0.3,0.2c0.1,0.1,0.2,0.2,0.2,0.3l1.3,2.2h-1.3
			c-0.2,0-0.4-0.1-0.5-0.3l-1-1.8c0-0.1-0.1-0.1-0.2-0.2c-0.1,0-0.2-0.1-0.2,0L67.6,20.3z M68.2,19.1h-0.6v-1.8h0.6
			c0.3,0,0.6,0.1,0.9,0.2c0.2,0.1,0.3,0.4,0.3,0.6c0,0.1,0,0.2-0.1,0.4c0,0.1-0.1,0.2-0.2,0.3C69,18.9,68.9,19,68.8,19
			C68.6,19.1,68.4,19.1,68.2,19.1L68.2,19.1z M75.8,21.5v1.1h-3.8v-6.3h3.9v1.1h-2.5v1.5h1.9V20h-1.9v1.5H75.8z M81.5,22.6
			c0.2,0,0.5,0,0.7,0c0.2,0,0.4-0.1,0.6-0.1c0.2-0.1,0.4-0.1,0.6-0.2c0.2-0.1,0.3-0.2,0.5-0.3v-2.7h-2.2v0.8c0,0.1,0,0.1,0.1,0.2
			c0.1,0,0.1,0.1,0.2,0.1h0.6v0.9c-0.1,0.1-0.3,0.1-0.4,0.1c-0.2,0-0.4,0-0.5,0c-0.2,0-0.5,0-0.7-0.1c-0.2-0.1-0.4-0.2-0.6-0.4
			c-0.2-0.2-0.3-0.4-0.4-0.6c-0.1-0.3-0.1-0.6-0.1-0.9c0-0.3,0-0.5,0.1-0.8c0.1-0.2,0.2-0.4,0.4-0.6c0.2-0.2,0.3-0.3,0.6-0.4
			c0.2-0.1,0.5-0.2,0.7-0.1c0.1,0,0.3,0,0.4,0c0.1,0,0.2,0,0.3,0.1c0.1,0,0.2,0.1,0.3,0.1l0.3,0.2c0.1,0,0.2,0.1,0.3,0.1
			c0.1,0,0.1,0,0.2,0c0.1,0,0.1-0.1,0.2-0.1l0.4-0.6c-0.1-0.1-0.3-0.2-0.4-0.3c-0.2-0.1-0.4-0.2-0.5-0.3c-0.2-0.1-0.4-0.1-0.6-0.2
			c-0.2,0-0.5-0.1-0.7-0.1c-0.5,0-0.9,0.1-1.4,0.2c-0.4,0.1-0.7,0.4-1.1,0.6c-0.3,0.3-0.5,0.6-0.7,1c-0.2,0.4-0.2,0.8-0.2,1.3
			c0,0.4,0.1,0.9,0.2,1.2c0.2,0.4,0.4,0.7,0.7,1c0.3,0.3,0.6,0.5,1,0.7C80.7,22.5,81.1,22.6,81.5,22.6L81.5,22.6z M89.2,22.4
			c-0.8,0.3-1.8,0.3-2.6,0c-0.7-0.3-1.3-0.9-1.6-1.7c-0.2-0.4-0.2-0.8-0.2-1.2c0-0.4,0.1-0.8,0.2-1.2c0.1-0.4,0.4-0.7,0.7-1
			c0.3-0.3,0.6-0.5,1-0.7c0.8-0.3,1.8-0.3,2.6,0c0.4,0.2,0.7,0.4,1,0.7c0.3,0.3,0.5,0.6,0.7,1c0.3,0.8,0.3,1.7,0,2.5
			c-0.2,0.4-0.4,0.7-0.7,1C90,21.9,89.6,22.2,89.2,22.4L89.2,22.4z M87.9,21.2c-0.3,0-0.5,0-0.8-0.1c-0.2-0.1-0.4-0.2-0.6-0.4
			c-0.2-0.2-0.3-0.4-0.3-0.6c-0.1-0.3-0.1-0.5-0.1-0.8c0-0.3,0-0.5,0.1-0.8c0.1-0.2,0.2-0.4,0.3-0.6c0.2-0.2,0.3-0.3,0.6-0.4
			c0.5-0.2,1-0.2,1.5,0c0.2,0.1,0.4,0.2,0.6,0.4c0.2,0.2,0.3,0.4,0.3,0.6c0.1,0.3,0.1,0.5,0.1,0.8c0,0.3,0,0.5-0.1,0.8
			c-0.1,0.2-0.2,0.4-0.3,0.6c-0.2,0.2-0.3,0.3-0.6,0.4C88.4,21.2,88.2,21.2,87.9,21.2L87.9,21.2z M97.5,16.3L95,22.6h-1.3l-2.5-6.3
			h1.2c0.1,0,0.2,0,0.3,0.1c0.1,0.1,0.1,0.1,0.2,0.2L94,20c0.1,0.1,0.1,0.3,0.2,0.5s0.1,0.4,0.2,0.5c0-0.2,0.1-0.4,0.1-0.5
			c0-0.2,0.1-0.3,0.2-0.5l1.2-3.4c0.1-0.2,0.3-0.3,0.5-0.3L97.5,16.3z M101.8,22.6v-1.2h-2.4V20h1.9v-1.1h-1.9v-1.5h2.5v-1.1h-3.9
			v6.3L101.8,22.6z M104.2,20.3v2.3h-1.4v-6.3h2c0.4,0,0.8,0,1.1,0.1c0.3,0.1,0.5,0.2,0.8,0.4c0.2,0.2,0.3,0.4,0.4,0.6
			c0.1,0.2,0.1,0.5,0.1,0.7c0,0.2,0,0.4-0.1,0.6c-0.1,0.2-0.1,0.3-0.2,0.5c-0.1,0.2-0.2,0.3-0.4,0.4c-0.2,0.1-0.3,0.2-0.5,0.3
			c0.1,0.1,0.2,0.1,0.3,0.2c0.1,0.1,0.2,0.2,0.2,0.3l1.3,2.2h-1.3c-0.2,0-0.4-0.1-0.5-0.3l-1-1.8c0-0.1-0.1-0.1-0.2-0.2
			c-0.1,0-0.2-0.1-0.2,0L104.2,20.3z M104.9,19.1h-0.6v-1.8h0.6c0.3,0,0.6,0.1,0.9,0.2c0.2,0.1,0.3,0.4,0.3,0.6c0,0.1,0,0.2-0.1,0.4
			c0,0.1-0.1,0.2-0.2,0.3c-0.1,0.1-0.2,0.2-0.4,0.2C105.2,19.1,105.1,19.1,104.9,19.1L104.9,19.1z M109.8,19.3v3.4h-1.2v-6.3h0.9
			c0,0,0.1,0,0.1,0l0.1,0.1l0.1,0.1l2.9,3.8v-0.4c0-0.1,0-0.2,0-0.3v-3.3h1.2v6.3h-0.7c-0.1,0-0.2,0-0.3,0c-0.1,0-0.2-0.1-0.2-0.2
			l-2.9-3.7c0,0.1,0,0.2,0,0.3S109.8,19.1,109.8,19.3L109.8,19.3z M116.5,22.6V19c0-0.1,0-0.2,0-0.3v-0.3l1.6,3.2
			c0,0.1,0.1,0.2,0.2,0.2c0.1,0,0.2,0.1,0.3,0.1h0.2c0.1,0,0.2,0,0.3-0.1c0.1-0.1,0.2-0.1,0.2-0.2l1.6-3.2c0,0.2,0,0.4,0,0.6v3.6
			h1.2v-6.3h-1.2h-0.1c0,0-0.1,0-0.1,0.1c0,0-0.1,0.1-0.1,0.1l-1.6,3.2c-0.1,0.1-0.1,0.2-0.2,0.4s-0.1,0.2-0.1,0.4l-0.2-0.4
			l-0.2-0.3l-1.6-3.2c0,0,0-0.1-0.1-0.1c0,0-0.1-0.1-0.1-0.1h-0.1h-1.2v6.3L116.5,22.6z M127,21.5v1.1h-3.9v-6.3h3.9v1.1h-2.5v1.5
			h1.9V20h-1.9v1.5L127,21.5z M129.3,22.6v-3.4c0-0.1,0-0.2,0-0.3s0-0.2,0-0.3l2.9,3.7c0.1,0.1,0.1,0.1,0.2,0.2c0.1,0,0.2,0.1,0.3,0
			h0.7v-6.3h-1.2v3.6v0.4l-2.9-3.8c0,0-0.1-0.1-0.1-0.1l-0.1-0.1c0,0-0.1,0-0.1,0h-0.9v6.3L129.3,22.6z M137.3,17.5v5.1h-1.4v-5.2
			h-1.8v-1.2h5v1.1L137.3,17.5z"/>
		<path class="st1" d="M31.1,36c0.8,0,1.5-0.1,2.3-0.4c1.3-0.5,2.3-1.5,2.8-2.8c0.5-1.4,0.5-2.9,0-4.2c-0.3-0.6-0.6-1.2-1.1-1.7
			c-0.5-0.5-1.1-0.9-1.7-1.1c-0.7-0.3-1.5-0.4-2.3-0.4H27V36H31.1z M31.1,34.2h-1.6v-7h1.6c0.4,0,0.9,0.1,1.3,0.2
			c0.4,0.2,0.7,0.4,0.9,0.7c0.3,0.3,0.5,0.7,0.6,1.1c0.1,0.5,0.2,1,0.2,1.5c0,0.5-0.1,1-0.2,1.5c-0.1,0.4-0.3,0.8-0.6,1.1
			c-0.2,0.3-0.6,0.5-0.9,0.7C32,34.2,31.6,34.2,31.1,34.2L31.1,34.2z M44.8,34.1V36h-6.7V25.4h6.8v1.9h-4.3v2.5h3.3v1.8h-3.3v2.5
			L44.8,34.1z M49.2,36.4c0.6,0,1.1-0.1,1.6-0.3c0.4-0.2,0.9-0.4,1.2-0.8c0.3-0.3,0.6-0.7,0.7-1.1c0.2-0.5,0.3-0.9,0.3-1.4
			c0-0.4-0.1-0.8-0.2-1.1c-0.1-0.3-0.3-0.6-0.5-0.8c-0.2-0.2-0.5-0.4-0.8-0.5c-0.3-0.1-0.6-0.3-0.9-0.4c-0.3-0.1-0.6-0.2-0.9-0.3
			c-0.3-0.1-0.5-0.2-0.8-0.3c-0.2-0.1-0.4-0.2-0.5-0.4c-0.1-0.1-0.2-0.3-0.2-0.5c0-0.3,0.1-0.6,0.3-0.8c0.3-0.2,0.6-0.3,1-0.3
			c0.2,0,0.5,0,0.7,0.1c0.2,0.1,0.4,0.1,0.6,0.2l0.4,0.2c0.1,0.1,0.2,0.1,0.4,0.1c0.1,0,0.2,0,0.3,0c0.1-0.1,0.2-0.2,0.2-0.3
			l0.6-1.1c-0.2-0.2-0.4-0.3-0.7-0.5c-0.2-0.1-0.5-0.3-0.8-0.4c-0.3-0.1-0.6-0.2-0.9-0.2c-0.3-0.1-0.7-0.1-1-0.1
			c-0.5,0-1.1,0.1-1.6,0.3c-0.4,0.2-0.8,0.4-1.2,0.7c-0.3,0.3-0.5,0.6-0.7,1C46,27.8,46,28.2,46,28.6c0,0.4,0.1,0.8,0.2,1.2
			c0.1,0.3,0.3,0.6,0.5,0.9c0.2,0.2,0.5,0.4,0.8,0.5c0.3,0.1,0.6,0.2,0.9,0.4l0.9,0.3c0.3,0.1,0.5,0.2,0.8,0.3
			c0.2,0.1,0.4,0.2,0.5,0.4c0.1,0.2,0.2,0.4,0.2,0.6c0,0.4-0.1,0.7-0.4,0.9c-0.3,0.2-0.6,0.3-1,0.3c-0.3,0-0.6,0-0.9-0.1
			c-0.2-0.1-0.4-0.2-0.7-0.3l-0.5-0.3c-0.1-0.1-0.3-0.1-0.5-0.1c-0.2,0-0.4,0.1-0.5,0.3l-0.7,1.2c0.2,0.2,0.5,0.4,0.7,0.6
			c0.3,0.2,0.6,0.3,0.9,0.4c0.3,0.1,0.7,0.2,1,0.3C48.6,36.3,48.9,36.3,49.2,36.4L49.2,36.4z M57.3,25.4V36h-2.5V25.4H57.3z
			 M64.2,36.3c0.4,0,0.8,0,1.2-0.1c0.4,0,0.7-0.1,1.1-0.2c0.3-0.1,0.7-0.2,1-0.4c0.3-0.1,0.6-0.3,0.8-0.5v-4.5h-3.8V32
			c0,0.1,0.1,0.2,0.1,0.3c0.1,0.1,0.2,0.1,0.4,0.1h1v1.6c-0.2,0.1-0.5,0.2-0.8,0.2c-0.3,0.1-0.6,0.1-0.9,0.1c-0.4,0-0.8-0.1-1.2-0.2
			c-0.4-0.2-0.7-0.4-1-0.7c-0.3-0.3-0.5-0.7-0.7-1.1c-0.2-0.5-0.2-1-0.2-1.5c0-0.5,0.1-0.9,0.2-1.4c0.1-0.4,0.3-0.8,0.6-1.1
			c0.3-0.3,0.6-0.5,1-0.7c0.4-0.2,0.8-0.2,1.2-0.2c0.2,0,0.5,0,0.7,0c0.2,0,0.4,0.1,0.6,0.1c0.2,0.1,0.4,0.1,0.5,0.2l0.6,0.3
			c0.1,0.1,0.3,0.1,0.4,0.1c0.1,0,0.2,0,0.3-0.1c0.1-0.1,0.2-0.1,0.2-0.2l0.7-1.1c-0.2-0.2-0.5-0.4-0.7-0.6
			c-0.3-0.2-0.6-0.3-0.9-0.5c-0.3-0.1-0.7-0.2-1.1-0.3c-0.4-0.1-0.8-0.1-1.3-0.1c-0.8,0-1.6,0.1-2.3,0.4c-1.3,0.5-2.4,1.5-2.9,2.9
			c-0.3,0.7-0.4,1.4-0.4,2.2c0,0.8,0.1,1.5,0.4,2.2c0.3,0.6,0.7,1.2,1.2,1.7c0.5,0.5,1.1,0.9,1.7,1.2C62.7,36.2,63.4,36.3,64.2,36.3
			z M71.9,30.3V36h-2.2V25.4h1.3h0.3c0.1,0,0.1,0,0.2,0c0.1,0,0.1,0.1,0.2,0.1l0.2,0.2l5,6.3c0-0.2,0-0.4,0-0.6s0-0.4,0-0.5v-5.5H79
			V36h-1.3c-0.2,0-0.3,0-0.5-0.1c-0.2-0.1-0.3-0.2-0.4-0.3l-5-6.3c0,0.2,0,0.4,0,0.5S71.9,30.1,71.9,30.3L71.9,30.3z M86.9,36.3
			c0.6,0,1.1-0.1,1.6-0.3c0.4-0.2,0.9-0.4,1.2-0.8c0.3-0.3,0.6-0.7,0.7-1.1c0.2-0.4,0.3-0.9,0.2-1.4c0-0.4-0.1-0.8-0.2-1.1
			c-0.1-0.3-0.3-0.6-0.5-0.8c-0.2-0.2-0.5-0.4-0.8-0.5c-0.3-0.1-0.6-0.3-0.9-0.4s-0.6-0.2-0.9-0.3c-0.3-0.1-0.5-0.2-0.8-0.3
			c-0.2-0.1-0.4-0.2-0.5-0.4c-0.1-0.1-0.2-0.3-0.2-0.5c0-0.3,0.1-0.6,0.3-0.8c0.3-0.2,0.6-0.3,1-0.3c0.2,0,0.5,0,0.7,0.1
			c0.2,0.1,0.4,0.1,0.6,0.2l0.4,0.2c0.1,0.1,0.2,0.1,0.4,0.1c0.1,0,0.2,0,0.3-0.1c0.1-0.1,0.2-0.2,0.2-0.3l0.6-1.1
			c-0.2-0.2-0.4-0.3-0.7-0.5c-0.3-0.1-0.5-0.3-0.8-0.4c-0.3-0.1-0.6-0.2-0.9-0.2c-0.3-0.1-0.7-0.1-1-0.1c-0.5,0-1.1,0.1-1.6,0.3
			c-0.4,0.2-0.8,0.4-1.2,0.7c-0.3,0.3-0.5,0.6-0.7,1c-0.2,0.4-0.2,0.8-0.2,1.2c0,0.4,0.1,0.9,0.2,1.2c0.1,0.3,0.3,0.6,0.5,0.9
			c0.2,0.2,0.5,0.4,0.8,0.5c0.3,0.1,0.6,0.2,0.9,0.4l0.9,0.3c0.3,0.1,0.5,0.2,0.8,0.3c0.2,0.1,0.4,0.2,0.5,0.4
			c0.1,0.2,0.2,0.4,0.2,0.6c0,0.4-0.1,0.7-0.4,0.9c-0.3,0.2-0.6,0.3-1,0.3c-0.3,0-0.6,0-0.9-0.1c-0.2-0.1-0.4-0.2-0.6-0.3L85,33.6
			c-0.1-0.1-0.3-0.1-0.4-0.1c-0.1,0-0.2,0-0.3,0.1c-0.1,0.1-0.2,0.1-0.2,0.2l-0.7,1.2c0.2,0.2,0.5,0.4,0.7,0.6
			c0.3,0.2,0.6,0.3,0.9,0.4c0.3,0.1,0.7,0.2,1,0.3C86.3,36.3,86.6,36.3,86.9,36.3L86.9,36.3z M97.3,32v4h-2.4v-4l-3.8-6.6h2.1
			c0.2,0,0.4,0,0.5,0.1c0.1,0.1,0.2,0.2,0.3,0.4l1.5,3.1l0.3,0.7c0.1,0.2,0.2,0.4,0.3,0.6c0.1-0.2,0.2-0.4,0.3-0.6l0.3-0.7l1.5-3.1
			c0-0.1,0.1-0.1,0.1-0.2l0.2-0.2c0.1,0,0.1-0.1,0.2-0.1c0.1,0,0.2,0,0.3,0h2.1L97.3,32z M104.8,36.4c0.6,0,1.1-0.1,1.6-0.3
			c0.4-0.2,0.8-0.4,1.2-0.8c0.3-0.3,0.6-0.7,0.8-1.1c0.2-0.4,0.3-0.9,0.2-1.4c0-0.4-0.1-0.8-0.2-1.1c-0.1-0.3-0.3-0.6-0.5-0.8
			c-0.2-0.2-0.5-0.4-0.8-0.5c-0.3-0.1-0.6-0.3-0.9-0.4s-0.6-0.2-0.9-0.3c-0.3-0.1-0.5-0.2-0.8-0.3c-0.2-0.1-0.4-0.2-0.6-0.4
			c-0.1-0.1-0.2-0.3-0.2-0.5c0-0.3,0.1-0.6,0.3-0.8c0.3-0.2,0.6-0.3,1-0.3c0.2,0,0.5,0,0.7,0.1c0.2,0.1,0.4,0.1,0.6,0.2l0.4,0.2
			c0.1,0.1,0.2,0.1,0.4,0.1c0.1,0,0.2,0,0.3-0.1c0.1-0.1,0.2-0.2,0.2-0.3l0.6-1.1c-0.2-0.2-0.4-0.3-0.7-0.5
			c-0.3-0.1-0.5-0.3-0.8-0.4c-0.3-0.1-0.6-0.2-0.9-0.2c-0.3-0.1-0.7-0.1-1-0.1c-0.5,0-1.1,0.1-1.6,0.3c-0.4,0.2-0.8,0.4-1.1,0.7
			c-0.3,0.3-0.5,0.6-0.7,1c-0.2,0.4-0.3,0.8-0.2,1.2c0,0.4,0.1,0.9,0.2,1.2c0.1,0.3,0.3,0.6,0.5,0.9c0.2,0.2,0.5,0.4,0.8,0.5
			c0.3,0.1,0.6,0.2,0.9,0.4l0.9,0.3c0.3,0.1,0.5,0.2,0.8,0.3c0.2,0.1,0.4,0.2,0.5,0.4c0.1,0.2,0.2,0.4,0.2,0.6
			c0,0.4-0.1,0.7-0.4,0.9c-0.3,0.2-0.6,0.3-1,0.3c-0.3,0-0.6,0-0.9-0.1c-0.2-0.1-0.4-0.2-0.6-0.3l-0.5-0.3c-0.1-0.1-0.3-0.1-0.4-0.1
			c-0.1,0-0.2,0-0.3,0.1c-0.1,0.1-0.2,0.1-0.2,0.2l-0.7,1.2c0.2,0.2,0.5,0.4,0.7,0.6c0.3,0.2,0.6,0.3,0.9,0.4c0.3,0.1,0.7,0.2,1,0.3
			C104,36.3,104.4,36.3,104.8,36.4L104.8,36.4z M114.6,27.4V36h-2.4v-8.7h-2.9v-1.9h8.2v1.9L114.6,27.4z M125.7,36v-1.9h-4.3v-2.5
			h3.3v-1.8h-3.3v-2.5h4.3v-1.9h-6.8V36H125.7z M129.6,29.9V36h-2.1V25.4h2.1c0.1,0,0.1,0,0.2,0c0.1,0,0.1,0.1,0.2,0.1
			c0.1,0.1,0.1,0.1,0.1,0.2l2.7,5.4c0.1,0.2,0.2,0.4,0.3,0.6s0.2,0.4,0.3,0.6c0.1-0.2,0.2-0.4,0.3-0.6s0.2-0.4,0.3-0.6l2.7-5.3
			c0-0.1,0.1-0.2,0.1-0.2c0,0,0.1-0.1,0.2-0.1c0.1,0,0.1,0,0.2,0h2.1V36h-2.1v-6.1c0-0.3,0-0.6,0-1l-2.8,5.4
			c-0.1,0.2-0.2,0.3-0.4,0.4c-0.2,0.1-0.3,0.1-0.5,0.1h-0.3c-0.2,0-0.3,0-0.5-0.1c-0.2-0.1-0.3-0.2-0.4-0.4l-2.8-5.4
			c0,0.2,0,0.3,0.1,0.5S129.6,29.8,129.6,29.9L129.6,29.9z"/>
	</g>
</g>
</svg>
