<svg width="229" height="230" viewBox="0 0 229 230" fill="none" xmlns="http://www.w3.org/2000/svg">
<rect width="228.2" height="229.6" fill="white"/>
<path d="M27.6535 38.774C27.6535 39.9811 27.4247 41.008 26.9671 41.8548C26.5131 42.7016 25.8933 43.3483 25.1078 43.7951C24.3259 44.2383 23.4467 44.4599 22.4703 44.4599C21.4866 44.4599 20.6038 44.2365 19.8219 43.7897C19.04 43.3429 18.422 42.6962 17.968 41.8494C17.514 41.0026 17.287 39.9775 17.287 38.774C17.287 37.567 17.514 36.54 17.968 35.6933C18.422 34.8465 19.04 34.2015 19.8219 33.7584C20.6038 33.3116 21.4866 33.0882 22.4703 33.0882C23.4467 33.0882 24.3259 33.3116 25.1078 33.7584C25.8933 34.2015 26.5131 34.8465 26.9671 35.6933C27.4247 36.54 27.6535 37.567 27.6535 38.774ZM25.2808 38.774C25.2808 37.9921 25.1637 37.3328 24.9295 36.7959C24.6988 36.259 24.3728 35.8518 23.9512 35.5744C23.5296 35.2969 23.036 35.1582 22.4703 35.1582C21.9045 35.1582 21.4109 35.2969 20.9893 35.5744C20.5678 35.8518 20.2399 36.259 20.0057 36.7959C19.775 37.3328 19.6597 37.9921 19.6597 38.774C19.6597 39.5559 19.775 40.2153 20.0057 40.7522C20.2399 41.2891 20.5678 41.6963 20.9893 41.9737C21.4109 42.2512 21.9045 42.3899 22.4703 42.3899C23.036 42.3899 23.5296 42.2512 23.9512 41.9737C24.3728 41.6963 24.6988 41.2891 24.9295 40.7522C25.1637 40.2153 25.2808 39.5559 25.2808 38.774ZM31.6463 39.5091V44.3086H29.3439V36.0068H31.5382V37.4715H31.6355C31.8193 36.9886 32.1273 36.6067 32.5597 36.3257C32.9921 36.041 33.5164 35.8987 34.1325 35.8987C34.7091 35.8987 35.2117 36.0248 35.6405 36.277C36.0693 36.5292 36.4026 36.8896 36.6404 37.358C36.8782 37.8228 36.9971 38.3777 36.9971 39.0227V44.3086H34.6946V39.4334C34.6982 38.9254 34.5685 38.529 34.3055 38.2444C34.0425 37.9561 33.6803 37.812 33.2191 37.812C32.9092 37.812 32.6354 37.8786 32.3976 38.012C32.1634 38.1453 31.9796 38.3399 31.8463 38.5957C31.7166 38.8479 31.6499 39.1524 31.6463 39.5091ZM46.7501 36.0068V37.7363H41.7507V36.0068H46.7501ZM42.8857 34.0178H45.1881V41.7575C45.1881 41.9701 45.2206 42.1358 45.2854 42.2548C45.3503 42.3701 45.4404 42.4511 45.5557 42.498C45.6746 42.5448 45.8115 42.5682 45.9664 42.5682C46.0745 42.5682 46.1826 42.5592 46.2907 42.5412C46.3988 42.5196 46.4817 42.5034 46.5393 42.4926L46.9015 44.2059C46.7862 44.2419 46.624 44.2834 46.415 44.3302C46.206 44.3807 45.952 44.4113 45.6529 44.4221C45.0981 44.4437 44.6116 44.3698 44.1936 44.2005C43.7793 44.0311 43.4568 43.7681 43.2262 43.4114C42.9956 43.0547 42.8821 42.6043 42.8857 42.0602V34.0178ZM50.7308 39.5091V44.3086H48.4283V33.2395H50.6659V37.4715H50.7632C50.9506 36.9814 51.2533 36.5977 51.6712 36.3202C52.0892 36.0392 52.6135 35.8987 53.244 35.8987C53.8206 35.8987 54.3232 36.0248 54.752 36.277C55.1844 36.5256 55.5195 36.8842 55.7573 37.3526C55.9987 37.8174 56.1176 38.3741 56.114 39.0227V44.3086H53.8115V39.4334C53.8152 38.9218 53.6854 38.5236 53.4224 38.239C53.163 37.9543 52.799 37.812 52.3306 37.812C52.0171 37.812 51.7397 37.8786 51.4983 38.012C51.2605 38.1453 51.0731 38.3399 50.9362 38.5957C50.8029 38.8479 50.7344 39.1524 50.7308 39.5091ZM57.926 44.3086V36.0068H60.2284V44.3086H57.926ZM59.0826 34.9366C58.7403 34.9366 58.4466 34.8231 58.2016 34.5961C57.9602 34.3655 57.8395 34.0898 57.8395 33.7692C57.8395 33.4521 57.9602 33.18 58.2016 32.953C58.4466 32.7224 58.7403 32.6071 59.0826 32.6071C59.4249 32.6071 59.7168 32.7224 59.9582 32.953C60.2032 33.18 60.3257 33.4521 60.3257 33.7692C60.3257 34.0898 60.2032 34.3655 59.9582 34.5961C59.7168 34.8231 59.4249 34.9366 59.0826 34.9366ZM68.9802 38.3741L66.8723 38.5038C66.8363 38.3236 66.7588 38.1615 66.6399 38.0174C66.521 37.8696 66.3643 37.7525 66.1697 37.666C65.9787 37.576 65.7499 37.5309 65.4833 37.5309C65.1266 37.5309 64.8257 37.6066 64.5807 37.7579C64.3357 37.9057 64.2132 38.1038 64.2132 38.3525C64.2132 38.5506 64.2924 38.7182 64.451 38.8551C64.6095 38.992 64.8816 39.1019 65.2671 39.1848L66.7696 39.4875C67.5768 39.6532 68.1785 39.9199 68.5749 40.2874C68.9712 40.6549 69.1694 41.1378 69.1694 41.7359C69.1694 42.28 69.009 42.7574 68.6884 43.1682C68.3713 43.5789 67.9353 43.8996 67.3804 44.1302C66.8291 44.3572 66.1931 44.4707 65.4725 44.4707C64.3735 44.4707 63.4979 44.2419 62.8457 43.7843C62.1972 43.3231 61.817 42.6962 61.7053 41.9034L63.9699 41.7845C64.0384 42.1196 64.2041 42.3755 64.4672 42.552C64.7302 42.725 65.0671 42.8115 65.4779 42.8115C65.8814 42.8115 66.2057 42.734 66.4508 42.579C66.6994 42.4205 66.8255 42.2169 66.8291 41.9683C66.8255 41.7593 66.7372 41.5882 66.5643 41.4548C66.3913 41.3179 66.1247 41.2134 65.7643 41.1414L64.3267 40.8549C63.5159 40.6928 62.9124 40.4117 62.516 40.0117C62.1233 39.6118 61.9269 39.1019 61.9269 38.4822C61.9269 37.9489 62.071 37.4895 62.3593 37.1039C62.6512 36.7184 63.0601 36.4211 63.5862 36.2121C64.1159 36.0032 64.7356 35.8987 65.4455 35.8987C66.494 35.8987 67.3191 36.1203 67.9209 36.5635C68.5262 37.0067 68.8793 37.6102 68.9802 38.3741ZM74.1418 47.4218V36.0068H76.4119V37.4012H76.5146C76.6155 37.1778 76.7614 36.9508 76.9524 36.7202C77.1469 36.486 77.3992 36.2914 77.709 36.1365C78.0225 35.9779 78.4117 35.8987 78.8765 35.8987C79.4818 35.8987 80.0403 36.0572 80.552 36.3743C81.0636 36.6878 81.4726 37.1616 81.7789 37.7958C82.0851 38.4263 82.2383 39.2172 82.2383 40.1685C82.2383 41.0945 82.0888 41.8764 81.7897 42.5142C81.4942 43.1484 81.0907 43.6294 80.579 43.9573C80.0709 44.2816 79.5016 44.4437 78.8711 44.4437C78.4243 44.4437 78.0441 44.3698 77.7307 44.2221C77.4208 44.0744 77.1667 43.8888 76.9686 43.6654C76.7704 43.4384 76.6191 43.2096 76.5146 42.979H76.4443V47.4218H74.1418ZM76.3957 40.1577C76.3957 40.6513 76.4641 41.0819 76.601 41.4494C76.738 41.817 76.9361 42.1034 77.1956 42.3088C77.455 42.5106 77.7703 42.6115 78.1414 42.6115C78.5162 42.6115 78.8332 42.5088 79.0927 42.3034C79.3521 42.0944 79.5485 41.8062 79.6818 41.4386C79.8187 41.0675 79.8872 40.6405 79.8872 40.1577C79.8872 39.6785 79.8205 39.2569 79.6872 38.8929C79.5539 38.529 79.3575 38.2444 79.0981 38.039C78.8386 37.8336 78.5198 37.7309 78.1414 37.7309C77.7667 37.7309 77.4496 37.83 77.1902 38.0282C76.9343 38.2264 76.738 38.5074 76.601 38.8713C76.4641 39.2353 76.3957 39.664 76.3957 40.1577ZM86.1406 44.4653C85.6109 44.4653 85.1389 44.3735 84.7245 44.1897C84.3101 44.0023 83.9822 43.7267 83.7408 43.3627C83.503 42.9952 83.3841 42.5376 83.3841 41.9899C83.3841 41.5287 83.4688 41.1414 83.6381 40.8279C83.8075 40.5144 84.0381 40.2622 84.33 40.0712C84.6218 39.8802 84.9533 39.7361 85.3244 39.6388C85.6992 39.5415 86.0919 39.4731 86.5027 39.4334C86.9855 39.383 87.3747 39.3361 87.6701 39.2929C87.9656 39.2461 88.18 39.1776 88.3133 39.0875C88.4466 38.9974 88.5133 38.8641 88.5133 38.6876V38.6551C88.5133 38.3128 88.4052 38.048 88.189 37.8606C87.9764 37.6733 87.6738 37.5796 87.281 37.5796C86.8666 37.5796 86.5369 37.6715 86.2919 37.8552C86.0469 38.0354 85.8848 38.2624 85.8055 38.5362L83.676 38.3633C83.7841 37.8588 83.9967 37.4228 84.3137 37.0553C84.6308 36.6842 85.0398 36.3995 85.5406 36.2013C86.0451 35.9996 86.6288 35.8987 87.2918 35.8987C87.753 35.8987 88.1944 35.9527 88.616 36.0608C89.0412 36.1689 89.4177 36.3365 89.7456 36.5635C90.0771 36.7905 90.3383 37.0823 90.5293 37.439C90.7203 37.7922 90.8158 38.2155 90.8158 38.7092V44.3086H88.6322V43.1574H88.5674C88.434 43.4168 88.2557 43.6456 88.0323 43.8438C87.8089 44.0384 87.5404 44.1915 87.227 44.3032C86.9135 44.4113 86.5513 44.4653 86.1406 44.4653ZM86.8 42.8763C87.1387 42.8763 87.4377 42.8097 87.6972 42.6763C87.9566 42.5394 88.1602 42.3556 88.3079 42.125C88.4557 41.8944 88.5295 41.6332 88.5295 41.3413V40.4604C88.4575 40.5072 88.3584 40.5504 88.2323 40.5901C88.1097 40.6261 87.971 40.6603 87.8161 40.6928C87.6611 40.7216 87.5062 40.7486 87.3513 40.7738C87.1963 40.7955 87.0558 40.8153 86.9297 40.8333C86.6594 40.8729 86.4234 40.936 86.2217 41.0225C86.0199 41.1089 85.8631 41.226 85.7514 41.3738C85.6397 41.5179 85.5839 41.6981 85.5839 41.9143C85.5839 42.2277 85.6974 42.4673 85.9244 42.6331C86.155 42.7952 86.4469 42.8763 86.8 42.8763ZM96.3422 47.5947C95.5963 47.5947 94.9568 47.492 94.4235 47.2867C93.8938 47.0849 93.4722 46.8092 93.1588 46.4597C92.8453 46.1102 92.6417 45.7175 92.548 45.2815L94.6775 44.995C94.7424 45.1608 94.8451 45.3157 94.9856 45.4598C95.1261 45.604 95.3117 45.7193 95.5423 45.8057C95.7765 45.8958 96.0612 45.9409 96.3963 45.9409C96.8971 45.9409 97.3097 45.8183 97.634 45.5733C97.9619 45.3319 98.1258 44.9265 98.1258 44.3572V42.8385H98.0285C97.9276 43.0691 97.7763 43.2871 97.5745 43.4925C97.3727 43.6978 97.1133 43.8654 96.7962 43.9951C96.4791 44.1248 96.1008 44.1897 95.6612 44.1897C95.0378 44.1897 94.4703 44.0456 93.9587 43.7573C93.4506 43.4654 93.0453 43.0204 92.7426 42.4223C92.4435 41.8206 92.294 41.0603 92.294 40.1415C92.294 39.201 92.4471 38.4155 92.7534 37.785C93.0597 37.1544 93.4668 36.6824 93.9749 36.3689C94.4865 36.0554 95.0468 35.8987 95.6558 35.8987C96.1206 35.8987 96.5098 35.9779 96.8232 36.1365C97.1367 36.2914 97.3889 36.486 97.5799 36.7202C97.7745 36.9508 97.924 37.1778 98.0285 37.4012H98.115V36.0068H100.401V44.3897C100.401 45.0959 100.228 45.6868 99.8824 46.1625C99.5365 46.6381 99.0572 46.9948 98.4447 47.2326C97.8357 47.474 97.1349 47.5947 96.3422 47.5947ZM96.3908 42.4601C96.762 42.4601 97.0755 42.3683 97.3313 42.1845C97.5907 41.9971 97.7889 41.7305 97.9258 41.3846C98.0663 41.0351 98.1366 40.6171 98.1366 40.1307C98.1366 39.6442 98.0681 39.2226 97.9312 38.8659C97.7943 38.5056 97.5961 38.2264 97.3367 38.0282C97.0773 37.83 96.762 37.7309 96.3908 37.7309C96.0125 37.7309 95.6936 37.8336 95.4342 38.039C95.1748 38.2408 94.9784 38.5218 94.8451 38.8821C94.7117 39.2425 94.6451 39.6586 94.6451 40.1307C94.6451 40.6099 94.7117 41.0243 94.8451 41.3738C94.982 41.7197 95.1784 41.9881 95.4342 42.1791C95.6936 42.3665 96.0125 42.4601 96.3908 42.4601ZM106.017 44.4707C105.163 44.4707 104.428 44.2978 103.812 43.9519C103.199 43.6024 102.727 43.1087 102.396 42.4709C102.064 41.8296 101.898 41.0711 101.898 40.1955C101.898 39.3415 102.064 38.5921 102.396 37.9471C102.727 37.3021 103.194 36.7995 103.795 36.4392C104.401 36.0788 105.111 35.8987 105.925 35.8987C106.473 35.8987 106.983 35.9869 107.455 36.1635C107.93 36.3365 108.345 36.5977 108.698 36.9472C109.054 37.2967 109.332 37.7363 109.53 38.266C109.728 38.7921 109.827 39.4082 109.827 40.1144V40.7468H102.817V39.3199H107.66C107.66 38.9884 107.588 38.6948 107.444 38.4389C107.3 38.1831 107.1 37.9831 106.844 37.839C106.592 37.6913 106.298 37.6174 105.963 37.6174C105.613 37.6174 105.303 37.6985 105.033 37.8606C104.767 38.0192 104.558 38.2336 104.406 38.5038C104.255 38.7704 104.177 39.0677 104.174 39.3956V40.7522C104.174 41.163 104.249 41.5179 104.401 41.817C104.556 42.116 104.774 42.3466 105.055 42.5088C105.336 42.6709 105.669 42.752 106.055 42.752C106.311 42.752 106.545 42.716 106.757 42.6439C106.97 42.5718 107.152 42.4637 107.303 42.3196C107.455 42.1755 107.57 41.9989 107.649 41.7899L109.779 41.9305C109.671 42.4421 109.449 42.8889 109.114 43.2709C108.782 43.6492 108.354 43.9447 107.827 44.1573C107.305 44.3662 106.701 44.4707 106.017 44.4707Z" fill="#344054"/>
<rect x="16.5195" y="56.2227" width="0.845556" height="33.8223" fill="#98A2B3"/>
<path d="M37.4668 69.7534C37.4092 69.2666 37.1754 68.8886 36.7654 68.6196C36.3554 68.3506 35.8526 68.216 35.2568 68.216C34.8212 68.216 34.4401 68.2865 34.1134 68.4274C33.7899 68.5683 33.5369 68.7621 33.3543 69.0087C33.175 69.2554 33.0853 69.5356 33.0853 69.8495C33.0853 70.1121 33.1477 70.3379 33.2727 70.5269C33.4008 70.7127 33.5641 70.868 33.7627 70.9929C33.9613 71.1146 34.1695 71.2155 34.3873 71.2956C34.6051 71.3725 34.8052 71.4349 34.9878 71.483L35.9871 71.752C36.2433 71.8193 36.5284 71.9121 36.8423 72.0306C37.1593 72.1492 37.462 72.3109 37.7503 72.5159C38.0417 72.7177 38.2819 72.9771 38.4709 73.2942C38.6599 73.6113 38.7544 74.0004 38.7544 74.4616C38.7544 74.9933 38.615 75.4737 38.3364 75.9029C38.0609 76.3321 37.6574 76.6732 37.1257 76.9262C36.5972 77.1793 35.9551 77.3058 35.1992 77.3058C34.4946 77.3058 33.8844 77.1921 33.3687 76.9647C32.8563 76.7373 32.4527 76.4202 32.1581 76.0134C31.8666 75.6066 31.7017 75.1342 31.6632 74.5961H32.8931C32.9251 74.9677 33.0501 75.2752 33.2679 75.5186C33.4889 75.7588 33.7675 75.9381 34.1038 76.0566C34.4433 76.172 34.8084 76.2296 35.1992 76.2296C35.654 76.2296 36.0624 76.1559 36.4243 76.0086C36.7862 75.8581 37.0729 75.6499 37.2842 75.384C37.4956 75.115 37.6013 74.8011 37.6013 74.4424C37.6013 74.1157 37.5101 73.8499 37.3275 73.6449C37.1449 73.4399 36.9047 73.2734 36.6068 73.1452C36.309 73.0171 35.9871 72.905 35.6412 72.8089L34.4305 72.463C33.6618 72.242 33.0533 71.9266 32.6049 71.5166C32.1565 71.1066 31.9323 70.5701 31.9323 69.9071C31.9323 69.3563 32.0812 68.8758 32.3791 68.4659C32.6801 68.0527 33.0837 67.7324 33.5897 67.505C34.099 67.2744 34.6675 67.1591 35.2953 67.1591C35.9294 67.1591 36.4931 67.2728 36.9864 67.5002C37.4796 67.7244 37.8704 68.0319 38.1586 68.4226C38.4501 68.8134 38.6038 69.257 38.6198 69.7534H37.4668ZM43.6535 77.2866C42.9425 77.2866 42.3292 77.1296 41.8135 76.8157C41.301 76.4986 40.9055 76.0566 40.6268 75.4897C40.3514 74.9196 40.2137 74.2566 40.2137 73.5008C40.2137 72.7449 40.3514 72.0787 40.6268 71.5022C40.9055 70.9225 41.293 70.4709 41.7895 70.1474C42.2891 69.8207 42.872 69.6573 43.5382 69.6573C43.9226 69.6573 44.3021 69.7214 44.6769 69.8495C45.0516 69.9776 45.3927 70.1858 45.7002 70.4741C46.0077 70.7591 46.2527 71.137 46.4352 71.6079C46.6178 72.0787 46.7091 72.6584 46.7091 73.347V73.8275H41.0208V72.8474H45.556C45.556 72.431 45.4728 72.0595 45.3062 71.7328C45.1429 71.4061 44.9091 71.1483 44.6048 70.9593C44.3037 70.7703 43.9482 70.6758 43.5382 70.6758C43.0866 70.6758 42.6959 70.7879 42.366 71.0121C42.0393 71.2331 41.7879 71.5214 41.6117 71.8769C41.4356 72.2324 41.3475 72.6136 41.3475 73.0203V73.6737C41.3475 74.231 41.4436 74.7034 41.6357 75.091C41.8311 75.4753 42.1018 75.7684 42.4477 75.9702C42.7936 76.1687 43.1955 76.268 43.6535 76.268C43.9514 76.268 44.2205 76.2264 44.4607 76.1431C44.7041 76.0566 44.9139 75.9285 45.09 75.7588C45.2662 75.5858 45.4023 75.3712 45.4984 75.115L46.5938 75.4225C46.4785 75.794 46.2847 76.1207 46.0125 76.4026C45.7402 76.6812 45.4039 76.899 45.0036 77.0559C44.6032 77.2097 44.1532 77.2866 43.6535 77.2866ZM51.4317 77.2866C50.7399 77.2866 50.1442 77.1232 49.6445 76.7965C49.1449 76.4698 48.7605 76.0198 48.4915 75.4465C48.2224 74.8732 48.0879 74.2182 48.0879 73.4815C48.0879 72.7321 48.2256 72.0707 48.5011 71.4974C48.7797 70.9209 49.1673 70.4709 49.6637 70.1474C50.1634 69.8207 50.7463 69.6573 51.4125 69.6573C51.9314 69.6573 52.399 69.7534 52.8153 69.9456C53.2317 70.1378 53.5728 70.4068 53.8387 70.7527C54.1045 71.0986 54.2694 71.5022 54.3335 71.9634H53.1997C53.1132 71.6271 52.921 71.3292 52.6232 71.0698C52.3285 70.8072 51.9314 70.6758 51.4317 70.6758C50.9897 70.6758 50.6022 70.7911 50.2691 71.0217C49.9392 71.2491 49.6813 71.571 49.4956 71.9874C49.313 72.4006 49.2217 72.8858 49.2217 73.4431C49.2217 74.0132 49.3114 74.5097 49.4908 74.9324C49.6733 75.3552 49.9296 75.6835 50.2595 75.9173C50.5926 76.1511 50.9833 76.268 51.4317 76.268C51.7264 76.268 51.9938 76.2168 52.234 76.1143C52.4742 76.0118 52.6776 75.8645 52.8442 75.6723C53.0107 75.4801 53.1292 75.2495 53.1997 74.9805H54.3335C54.2694 75.4161 54.1109 75.8084 53.8579 76.1575C53.6081 76.5034 53.2766 76.7789 52.8634 76.9839C52.4534 77.1857 51.9762 77.2866 51.4317 77.2866ZM59.2003 69.7534V70.7143H55.376V69.7534H59.2003ZM56.4906 67.9854H57.6244V75.0189C57.6244 75.3392 57.6709 75.5794 57.7638 75.7396C57.8599 75.8965 57.9816 76.0022 58.1289 76.0566C58.2794 76.1079 58.438 76.1335 58.6045 76.1335C58.7294 76.1335 58.8319 76.1271 58.912 76.1143C58.9921 76.0983 59.0561 76.0855 59.1042 76.0759L59.3348 77.0944C59.2579 77.1232 59.1506 77.152 59.0129 77.1809C58.8752 77.2129 58.7006 77.2289 58.4892 77.2289C58.1689 77.2289 57.8551 77.16 57.5476 77.0223C57.2433 76.8846 56.9903 76.6748 56.7885 76.393C56.5899 76.1111 56.4906 75.7556 56.4906 75.3264V67.9854ZM60.9058 77.1328V69.7534H62.0396V77.1328H60.9058ZM61.4823 68.5235C61.2613 68.5235 61.0707 68.4482 60.9106 68.2977C60.7536 68.1472 60.6752 67.9662 60.6752 67.7548C60.6752 67.5434 60.7536 67.3625 60.9106 67.2119C61.0707 67.0614 61.2613 66.9861 61.4823 66.9861C61.7033 66.9861 61.8923 67.0614 62.0492 67.2119C62.2094 67.3625 62.2894 67.5434 62.2894 67.7548C62.2894 67.9662 62.2094 68.1472 62.0492 68.2977C61.8923 68.4482 61.7033 68.5235 61.4823 68.5235ZM67.1141 77.2866C66.4479 77.2866 65.8634 77.128 65.3606 76.8109C64.8609 76.4938 64.4702 76.0502 64.1883 75.4801C63.9097 74.91 63.7703 74.2438 63.7703 73.4815C63.7703 72.7129 63.9097 72.0419 64.1883 71.4685C64.4702 70.8952 64.8609 70.45 65.3606 70.1329C65.8634 69.8159 66.4479 69.6573 67.1141 69.6573C67.7803 69.6573 68.3633 69.8159 68.8629 70.1329C69.3658 70.45 69.7565 70.8952 70.0352 71.4685C70.317 72.0419 70.4579 72.7129 70.4579 73.4815C70.4579 74.2438 70.317 74.91 70.0352 75.4801C69.7565 76.0502 69.3658 76.4938 68.8629 76.8109C68.3633 77.128 67.7803 77.2866 67.1141 77.2866ZM67.1141 76.268C67.6202 76.268 68.0366 76.1383 68.3633 75.8789C68.69 75.6195 68.9318 75.2784 69.0887 74.8556C69.2456 74.4328 69.3241 73.9748 69.3241 73.4815C69.3241 72.9883 69.2456 72.5287 69.0887 72.1027C68.9318 71.6767 68.69 71.3324 68.3633 71.0698C68.0366 70.8072 67.6202 70.6758 67.1141 70.6758C66.6081 70.6758 66.1917 70.8072 65.865 71.0698C65.5383 71.3324 65.2965 71.6767 65.1396 72.1027C64.9826 72.5287 64.9042 72.9883 64.9042 73.4815C64.9042 73.9748 64.9826 74.4328 65.1396 74.8556C65.2965 75.2784 65.5383 75.6195 65.865 75.8789C66.1917 76.1383 66.6081 76.268 67.1141 76.268ZM73.3225 72.6936V77.1328H72.1887V69.7534H73.2841V70.9064H73.3801C73.5531 70.5317 73.8157 70.2306 74.1681 70.0032C74.5204 69.7726 74.9752 69.6573 75.5325 69.6573C76.0321 69.6573 76.4693 69.7598 76.844 69.9648C77.2188 70.1666 77.5102 70.4741 77.7184 70.8872C77.9266 71.2972 78.0307 71.8161 78.0307 72.4438V77.1328H76.8969V72.5207C76.8969 71.941 76.7464 71.4894 76.4453 71.1659C76.1442 70.8392 75.731 70.6758 75.2058 70.6758C74.8439 70.6758 74.5204 70.7543 74.2353 70.9112C73.9535 71.0682 73.7309 71.2972 73.5675 71.5983C73.4042 71.8993 73.3225 72.2645 73.3225 72.6936ZM85.0414 72.6936V77.1328H83.9076V67.2936H85.0414V70.9064H85.1375C85.3104 70.5253 85.5699 70.2226 85.9158 69.9984C86.2649 69.771 86.7293 69.6573 87.309 69.6573C87.8119 69.6573 88.2523 69.7582 88.6302 69.96C89.0081 70.1586 89.3012 70.4644 89.5094 70.8776C89.7208 71.2876 89.8265 71.8096 89.8265 72.4438V77.1328H88.6926V72.5207C88.6926 71.9346 88.5405 71.4814 88.2362 71.1611C87.9352 70.8376 87.5172 70.6758 86.9823 70.6758C86.6108 70.6758 86.2777 70.7543 85.983 70.9112C85.6916 71.0682 85.461 71.2972 85.2912 71.5983C85.1247 71.8993 85.0414 72.2645 85.0414 72.6936ZM94.9947 77.2866C94.2836 77.2866 93.6703 77.1296 93.1546 76.8157C92.6422 76.4986 92.2466 76.0566 91.968 75.4897C91.6925 74.9196 91.5548 74.2566 91.5548 73.5008C91.5548 72.7449 91.6925 72.0787 91.968 71.5022C92.2466 70.9225 92.6342 70.4709 93.1306 70.1474C93.6303 69.8207 94.2132 69.6573 94.8794 69.6573C95.2637 69.6573 95.6433 69.7214 96.018 69.8495C96.3927 69.9776 96.7338 70.1858 97.0413 70.4741C97.3488 70.7591 97.5938 71.137 97.7764 71.6079C97.9589 72.0787 98.0502 72.6584 98.0502 73.347V73.8275H92.3619V72.8474H96.8972C96.8972 72.431 96.8139 72.0595 96.6474 71.7328C96.484 71.4061 96.2502 71.1483 95.9459 70.9593C95.6449 70.7703 95.2893 70.6758 94.8794 70.6758C94.4278 70.6758 94.037 70.7879 93.7071 71.0121C93.3804 71.2331 93.129 71.5214 92.9529 71.8769C92.7767 72.2324 92.6886 72.6136 92.6886 73.0203V73.6737C92.6886 74.231 92.7847 74.7034 92.9769 75.091C93.1723 75.4753 93.4429 75.7684 93.7888 75.9702C94.1347 76.1687 94.5367 76.268 94.9947 76.268C95.2926 76.268 95.5616 76.2264 95.8018 76.1431C96.0452 76.0566 96.255 75.9285 96.4312 75.7588C96.6073 75.5858 96.7434 75.3712 96.8395 75.115L97.9349 75.4225C97.8196 75.794 97.6258 76.1207 97.3536 76.4026C97.0814 76.6812 96.7451 76.899 96.3447 77.0559C95.9443 77.2097 95.4943 77.2866 94.9947 77.2866ZM101.947 77.3058C101.479 77.3058 101.055 77.2177 100.673 77.0415C100.292 76.8622 99.9896 76.6043 99.7654 76.268C99.5412 75.9285 99.4291 75.5186 99.4291 75.0381C99.4291 74.6154 99.5123 74.2727 99.6789 74.01C99.8454 73.7442 100.068 73.536 100.347 73.3855C100.625 73.2349 100.933 73.1228 101.269 73.0492C101.609 72.9723 101.95 72.9114 102.292 72.8666C102.741 72.8089 103.104 72.7657 103.383 72.7369C103.665 72.7049 103.87 72.652 103.998 72.5783C104.129 72.5047 104.195 72.3766 104.195 72.194V72.1556C104.195 71.6815 104.065 71.3132 103.806 71.0506C103.55 70.7879 103.16 70.6566 102.638 70.6566C102.097 70.6566 101.673 70.7751 101.365 71.0121C101.058 71.2491 100.842 71.5022 100.717 71.7712L99.6404 71.3869C99.8326 70.9385 100.089 70.5894 100.409 70.3395C100.733 70.0865 101.085 69.9103 101.466 69.8111C101.85 69.7086 102.228 69.6573 102.6 69.6573C102.837 69.6573 103.109 69.6861 103.417 69.7438C103.727 69.7982 104.027 69.912 104.315 70.0849C104.606 70.2579 104.848 70.5189 105.04 70.868C105.233 71.2171 105.329 71.6847 105.329 72.2709V77.1328H104.195V76.1335H104.137C104.06 76.2937 103.932 76.465 103.753 76.6476C103.574 76.8301 103.335 76.9855 103.037 77.1136C102.739 77.2417 102.376 77.3058 101.947 77.3058ZM102.119 76.2873C102.568 76.2873 102.946 76.1992 103.253 76.023C103.564 75.8469 103.798 75.6195 103.955 75.3408C104.115 75.0622 104.195 74.7691 104.195 74.4616V73.4239C104.147 73.4815 104.041 73.5344 103.878 73.5824C103.718 73.6273 103.532 73.6673 103.321 73.7025C103.112 73.7346 102.909 73.7634 102.71 73.789C102.515 73.8114 102.356 73.8307 102.235 73.8467C101.94 73.8851 101.665 73.9476 101.408 74.034C101.155 74.1173 100.95 74.2438 100.793 74.4136C100.64 74.5801 100.563 74.8075 100.563 75.0958C100.563 75.4897 100.709 75.7876 101 75.9894C101.295 76.188 101.668 76.2873 102.119 76.2873ZM110.185 77.2866C109.57 77.2866 109.027 77.1312 108.556 76.8205C108.085 76.5067 107.717 76.0647 107.451 75.4945C107.185 74.9212 107.052 74.2438 107.052 73.4623C107.052 72.6872 107.185 72.0146 107.451 71.4445C107.717 70.8744 108.087 70.434 108.561 70.1233C109.035 69.8127 109.583 69.6573 110.204 69.6573C110.684 69.6573 111.064 69.7374 111.343 69.8975C111.624 70.0545 111.839 70.2338 111.986 70.4356C112.137 70.6342 112.254 70.7975 112.337 70.9257H112.433V67.2936H113.567V77.1328H112.472V75.999H112.337C112.254 76.1335 112.135 76.3033 111.981 76.5083C111.828 76.71 111.608 76.891 111.323 77.0511C111.038 77.2081 110.659 77.2866 110.185 77.2866ZM110.338 76.268C110.793 76.268 111.178 76.1495 111.491 75.9125C111.805 75.6723 112.044 75.3408 112.207 74.918C112.371 74.492 112.452 74.0004 112.452 73.4431C112.452 72.8922 112.372 72.4102 112.212 71.997C112.052 71.5806 111.815 71.2572 111.501 71.0265C111.187 70.7927 110.8 70.6758 110.338 70.6758C109.858 70.6758 109.458 70.7991 109.137 71.0458C108.82 71.2892 108.582 71.6207 108.422 72.0403C108.265 72.4566 108.186 72.9242 108.186 73.4431C108.186 73.9684 108.266 74.4456 108.426 74.8748C108.59 75.3008 108.83 75.6403 109.147 75.8933C109.467 76.1431 109.864 76.268 110.338 76.268ZM118.895 77.2866C118.184 77.2866 117.57 77.1296 117.055 76.8157C116.542 76.4986 116.147 76.0566 115.868 75.4897C115.593 74.9196 115.455 74.2566 115.455 73.5008C115.455 72.7449 115.593 72.0787 115.868 71.5022C116.147 70.9225 116.534 70.4709 117.031 70.1474C117.53 69.8207 118.113 69.6573 118.78 69.6573C119.164 69.6573 119.543 69.7214 119.918 69.8495C120.293 69.9776 120.634 70.1858 120.942 70.4741C121.249 70.7591 121.494 71.137 121.677 71.6079C121.859 72.0787 121.95 72.6584 121.95 73.347V73.8275H116.262V72.8474H120.797C120.797 72.431 120.714 72.0595 120.548 71.7328C120.384 71.4061 120.15 71.1483 119.846 70.9593C119.545 70.7703 119.19 70.6758 118.78 70.6758C118.328 70.6758 117.937 70.7879 117.607 71.0121C117.281 71.2331 117.029 71.5214 116.853 71.8769C116.677 72.2324 116.589 72.6136 116.589 73.0203V73.6737C116.589 74.231 116.685 74.7034 116.877 75.091C117.072 75.4753 117.343 75.7684 117.689 75.9702C118.035 76.1687 118.437 76.268 118.895 76.268C119.193 76.268 119.462 76.2264 119.702 76.1431C119.945 76.0566 120.155 75.9285 120.331 75.7588C120.508 75.5858 120.644 75.3712 120.74 75.115L121.835 75.4225C121.72 75.794 121.526 76.1207 121.254 76.4026C120.982 76.6812 120.645 76.899 120.245 77.0559C119.845 77.2097 119.395 77.2866 118.895 77.2866ZM123.675 77.1328V69.7534H124.771V70.868H124.847C124.982 70.5029 125.225 70.2066 125.578 69.9792C125.93 69.7518 126.327 69.6381 126.769 69.6381C126.852 69.6381 126.956 69.6397 127.081 69.6429C127.206 69.6461 127.301 69.6509 127.365 69.6573V70.8104C127.326 70.8007 127.238 70.7863 127.101 70.7671C126.966 70.7447 126.824 70.7335 126.673 70.7335C126.314 70.7335 125.994 70.8088 125.712 70.9593C125.434 71.1066 125.213 71.3116 125.049 71.5742C124.889 71.8337 124.809 72.1299 124.809 72.463V77.1328H123.675ZM132.495 77.1328V76.268L135.742 72.7129C136.123 72.2965 136.437 71.9346 136.684 71.6271C136.931 71.3164 137.113 71.0249 137.232 70.7527C137.353 70.4773 137.414 70.189 137.414 69.8879C137.414 69.542 137.331 69.2426 137.164 68.9895C137.001 68.7365 136.777 68.5411 136.492 68.4034C136.207 68.2657 135.886 68.1968 135.531 68.1968C135.153 68.1968 134.823 68.2753 134.541 68.4322C134.263 68.586 134.046 68.8022 133.893 69.0808C133.742 69.3595 133.667 69.6861 133.667 70.0609H132.533C132.533 69.4844 132.666 68.9783 132.932 68.5427C133.198 68.1071 133.56 67.7676 134.018 67.5242C134.479 67.2808 134.996 67.1591 135.569 67.1591C136.146 67.1591 136.657 67.2808 137.102 67.5242C137.547 67.7676 137.896 68.0959 138.149 68.5091C138.402 68.9223 138.529 69.3819 138.529 69.8879C138.529 70.2499 138.463 70.6038 138.332 70.9497C138.204 71.2924 137.98 71.6751 137.659 72.0979C137.342 72.5175 136.902 73.0299 136.338 73.6353L134.128 75.999V76.0759H138.702V77.1328H132.495Z" fill="#0F71BB"/>
<rect x="16.5195" y="90.043" width="0.845556" height="33.8223" fill="#98A2B3"/>
<path d="M50.9942 103.574C50.9365 103.087 50.7027 102.709 50.2927 102.44C49.8828 102.171 49.3799 102.036 48.7842 102.036C48.3486 102.036 47.9674 102.107 47.6408 102.248C47.3173 102.389 47.0642 102.582 46.8817 102.829C46.7023 103.076 46.6126 103.356 46.6126 103.67C46.6126 103.932 46.6751 104.158 46.8 104.347C46.9281 104.533 47.0915 104.688 47.29 104.813C47.4886 104.935 47.6968 105.036 47.9146 105.116C48.1324 105.193 48.3326 105.255 48.5151 105.303L49.5144 105.572C49.7707 105.64 50.0557 105.732 50.3696 105.851C50.6867 105.969 50.9894 106.131 51.2776 106.336C51.5691 106.538 51.8093 106.797 51.9983 107.114C52.1872 107.432 52.2817 107.821 52.2817 108.282C52.2817 108.814 52.1424 109.294 51.8637 109.723C51.5883 110.152 51.1847 110.494 50.6531 110.747C50.1246 111 49.4824 111.126 48.7265 111.126C48.0219 111.126 47.4118 111.012 46.8961 110.785C46.3836 110.558 45.9801 110.24 45.6854 109.834C45.3939 109.427 45.229 108.955 45.1906 108.416H46.4205C46.4525 108.788 46.5774 109.095 46.7952 109.339C47.0162 109.579 47.2948 109.758 47.6311 109.877C47.9707 109.992 48.3358 110.05 48.7265 110.05C49.1813 110.05 49.5897 109.976 49.9516 109.829C50.3135 109.678 50.6002 109.47 50.8116 109.204C51.023 108.935 51.1287 108.621 51.1287 108.263C51.1287 107.936 51.0374 107.67 50.8548 107.465C50.6723 107.26 50.4321 107.094 50.1342 106.966C49.8363 106.837 49.5144 106.725 49.1685 106.629L47.9578 106.283C47.1892 106.062 46.5806 105.747 46.1322 105.337C45.6838 104.927 45.4596 104.39 45.4596 103.727C45.4596 103.177 45.6085 102.696 45.9064 102.286C46.2075 101.873 46.611 101.553 47.1171 101.325C47.6263 101.095 48.1949 100.979 48.8226 100.979C49.4568 100.979 50.0205 101.093 50.5137 101.321C51.007 101.545 51.3977 101.852 51.686 102.243C51.9774 102.634 52.1312 103.077 52.1472 103.574H50.9942ZM58.7375 107.936V103.574H59.8713V110.953H58.7375V109.704H58.6606C58.4877 110.079 58.2186 110.397 57.8535 110.66C57.4884 110.919 57.0272 111.049 56.4699 111.049C56.0086 111.049 55.5987 110.948 55.24 110.747C54.8812 110.542 54.5994 110.234 54.3944 109.824C54.1894 109.411 54.0869 108.89 54.0869 108.263V103.574H55.2207V108.186C55.2207 108.724 55.3713 109.153 55.6723 109.473C55.9766 109.794 56.3642 109.954 56.835 109.954C57.1168 109.954 57.4035 109.882 57.695 109.738C57.9896 109.594 58.2362 109.373 58.4348 109.075C58.6366 108.777 58.7375 108.397 58.7375 107.936ZM62.1017 110.953V101.114H63.2355V104.746H63.3316C63.4149 104.618 63.5302 104.455 63.6775 104.256C63.828 104.054 64.0426 103.875 64.3213 103.718C64.6031 103.558 64.9843 103.478 65.4647 103.478C66.0861 103.478 66.6337 103.633 67.1078 103.944C67.5818 104.254 67.9517 104.695 68.2176 105.265C68.4834 105.835 68.6163 106.508 68.6163 107.283C68.6163 108.064 68.4834 108.742 68.2176 109.315C67.9517 109.885 67.5834 110.327 67.1126 110.641C66.6418 110.952 66.0989 111.107 65.4839 111.107C65.0099 111.107 64.6304 111.028 64.3453 110.871C64.0602 110.711 63.8409 110.53 63.6871 110.329C63.5334 110.124 63.4149 109.954 63.3316 109.819H63.1971V110.953H62.1017ZM63.2163 107.263C63.2163 107.821 63.298 108.312 63.4613 108.738C63.6247 109.161 63.8633 109.493 64.1772 109.733C64.491 109.97 64.8754 110.088 65.3302 110.088C65.8042 110.088 66.1998 109.963 66.5168 109.714C66.8371 109.461 67.0773 109.121 67.2375 108.695C67.4008 108.266 67.4825 107.789 67.4825 107.263C67.4825 106.745 67.4024 106.277 67.2423 105.861C67.0854 105.441 66.8467 105.109 66.5265 104.866C66.2094 104.619 65.8106 104.496 65.3302 104.496C64.869 104.496 64.4814 104.613 64.1675 104.847C63.8537 105.077 63.6167 105.401 63.4565 105.817C63.2964 106.23 63.2163 106.713 63.2163 107.263ZM79.3828 105.226L78.3642 105.515C78.3002 105.345 78.2057 105.18 78.0808 105.02C77.9591 104.856 77.7925 104.722 77.5811 104.616C77.3698 104.511 77.0991 104.458 76.7692 104.458C76.3176 104.458 75.9413 104.562 75.6402 104.77C75.3423 104.975 75.1934 105.236 75.1934 105.553C75.1934 105.835 75.2959 106.058 75.5009 106.221C75.7059 106.384 76.0262 106.52 76.4617 106.629L77.5571 106.898C78.2169 107.058 78.7086 107.303 79.032 107.633C79.3555 107.96 79.5173 108.381 79.5173 108.897C79.5173 109.32 79.3956 109.698 79.1521 110.031C78.9119 110.364 78.5756 110.626 78.1432 110.819C77.7109 111.011 77.208 111.107 76.6347 111.107C75.882 111.107 75.2591 110.944 74.7658 110.617C74.2726 110.29 73.9603 109.813 73.829 109.185L74.9051 108.916C75.0076 109.313 75.2014 109.611 75.4865 109.81C75.7747 110.008 76.1511 110.108 76.6155 110.108C77.144 110.108 77.5635 109.995 77.8742 109.771C78.1881 109.544 78.345 109.272 78.345 108.955C78.345 108.698 78.2553 108.484 78.076 108.311C77.8966 108.135 77.6212 108.003 77.2496 107.917L76.0197 107.629C75.3439 107.468 74.8475 107.22 74.5304 106.884C74.2165 106.544 74.0596 106.12 74.0596 105.611C74.0596 105.194 74.1765 104.826 74.4103 104.506C74.6473 104.185 74.9692 103.934 75.376 103.751C75.7859 103.569 76.2504 103.478 76.7692 103.478C77.4995 103.478 78.0728 103.638 78.4892 103.958C78.9087 104.278 79.2066 104.701 79.3828 105.226ZM84.318 111.107C83.6069 111.107 82.9936 110.95 82.4779 110.636C81.9655 110.319 81.5699 109.877 81.2913 109.31C81.0158 108.74 80.8781 108.077 80.8781 107.321C80.8781 106.565 81.0158 105.899 81.2913 105.322C81.5699 104.743 81.9575 104.291 82.4539 103.968C82.9536 103.641 83.5365 103.478 84.2027 103.478C84.587 103.478 84.9666 103.542 85.3413 103.67C85.716 103.798 86.0571 104.006 86.3646 104.294C86.6721 104.579 86.9171 104.957 87.0997 105.428C87.2822 105.899 87.3735 106.479 87.3735 107.167V107.648H81.6852V106.668H86.2205C86.2205 106.251 86.1372 105.88 85.9707 105.553C85.8073 105.226 85.5735 104.969 85.2692 104.78C84.9682 104.591 84.6126 104.496 84.2027 104.496C83.7511 104.496 83.3603 104.608 83.0304 104.832C82.7037 105.053 82.4523 105.342 82.2761 105.697C82.1 106.053 82.0119 106.434 82.0119 106.841V107.494C82.0119 108.051 82.108 108.524 82.3002 108.911C82.4955 109.296 82.7662 109.589 83.1121 109.79C83.458 109.989 83.86 110.088 84.318 110.088C84.6158 110.088 84.8849 110.047 85.1251 109.963C85.3685 109.877 85.5783 109.749 85.7545 109.579C85.9306 109.406 86.0667 109.192 86.1628 108.935L87.2582 109.243C87.1429 109.614 86.9491 109.941 86.6769 110.223C86.4046 110.502 86.0683 110.719 85.668 110.876C85.2676 111.03 84.8176 111.107 84.318 111.107ZM92.0961 111.107C91.4043 111.107 90.8086 110.944 90.3089 110.617C89.8093 110.29 89.4249 109.84 89.1559 109.267C88.8869 108.694 88.7523 108.039 88.7523 107.302C88.7523 106.552 88.8901 105.891 89.1655 105.318C89.4442 104.741 89.8317 104.291 90.3281 103.968C90.8278 103.641 91.4107 103.478 92.0769 103.478C92.5958 103.478 93.0634 103.574 93.4798 103.766C93.8961 103.958 94.2372 104.227 94.5031 104.573C94.7689 104.919 94.9339 105.322 94.9979 105.784H93.8641C93.7776 105.447 93.5855 105.15 93.2876 104.89C92.9929 104.627 92.5958 104.496 92.0961 104.496C91.6541 104.496 91.2666 104.611 90.9335 104.842C90.6036 105.069 90.3458 105.391 90.16 105.808C89.9774 106.221 89.8862 106.706 89.8862 107.263C89.8862 107.834 89.9758 108.33 90.1552 108.753C90.3378 109.176 90.594 109.504 90.9239 109.738C91.257 109.971 91.6477 110.088 92.0961 110.088C92.3908 110.088 92.6582 110.037 92.8984 109.935C93.1387 109.832 93.342 109.685 93.5086 109.493C93.6751 109.3 93.7936 109.07 93.8641 108.801H94.9979C94.9339 109.236 94.7753 109.629 94.5223 109.978C94.2725 110.324 93.941 110.599 93.5278 110.804C93.1178 111.006 92.6406 111.107 92.0961 111.107ZM99.8647 103.574V104.535H96.0405V103.574H99.8647ZM97.1551 101.806H98.2889V108.839C98.2889 109.16 98.3353 109.4 98.4282 109.56C98.5243 109.717 98.646 109.823 98.7933 109.877C98.9439 109.928 99.1024 109.954 99.269 109.954C99.3939 109.954 99.4964 109.947 99.5764 109.935C99.6565 109.919 99.7206 109.906 99.7686 109.896L99.9992 110.915C99.9223 110.944 99.815 110.972 99.6773 111.001C99.5396 111.033 99.365 111.049 99.1536 111.049C98.8334 111.049 98.5195 110.98 98.212 110.843C97.9077 110.705 97.6547 110.495 97.4529 110.213C97.2543 109.931 97.1551 109.576 97.1551 109.147V101.806ZM101.57 110.953V103.574H102.704V110.953H101.57ZM102.147 102.344C101.926 102.344 101.735 102.269 101.575 102.118C101.418 101.967 101.34 101.787 101.34 101.575C101.34 101.364 101.418 101.183 101.575 101.032C101.735 100.882 101.926 100.806 102.147 100.806C102.368 100.806 102.557 100.882 102.714 101.032C102.874 101.183 102.954 101.364 102.954 101.575C102.954 101.787 102.874 101.967 102.714 102.118C102.557 102.269 102.368 102.344 102.147 102.344ZM107.779 111.107C107.112 111.107 106.528 110.948 106.025 110.631C105.525 110.314 105.135 109.871 104.853 109.3C104.574 108.73 104.435 108.064 104.435 107.302C104.435 106.533 104.574 105.862 104.853 105.289C105.135 104.716 105.525 104.27 106.025 103.953C106.528 103.636 107.112 103.478 107.779 103.478C108.445 103.478 109.028 103.636 109.527 103.953C110.03 104.27 110.421 104.716 110.7 105.289C110.981 105.862 111.122 106.533 111.122 107.302C111.122 108.064 110.981 108.73 110.7 109.3C110.421 109.871 110.03 110.314 109.527 110.631C109.028 110.948 108.445 111.107 107.779 111.107ZM107.779 110.088C108.285 110.088 108.701 109.959 109.028 109.699C109.354 109.44 109.596 109.099 109.753 108.676C109.91 108.253 109.989 107.795 109.989 107.302C109.989 106.809 109.91 106.349 109.753 105.923C109.596 105.497 109.354 105.153 109.028 104.89C108.701 104.627 108.285 104.496 107.779 104.496C107.273 104.496 106.856 104.627 106.529 104.89C106.203 105.153 105.961 105.497 105.804 105.923C105.647 106.349 105.569 106.809 105.569 107.302C105.569 107.795 105.647 108.253 105.804 108.676C105.961 109.099 106.203 109.44 106.529 109.699C106.856 109.959 107.273 110.088 107.779 110.088ZM113.987 106.514V110.953H112.853V103.574H113.948V104.727H114.045C114.218 104.352 114.48 104.051 114.832 103.824C115.185 103.593 115.64 103.478 116.197 103.478C116.697 103.478 117.134 103.58 117.508 103.785C117.883 103.987 118.175 104.294 118.383 104.708C118.591 105.118 118.695 105.636 118.695 106.264V110.953H117.561V106.341C117.561 105.761 117.411 105.31 117.11 104.986C116.809 104.659 116.395 104.496 115.87 104.496C115.508 104.496 115.185 104.575 114.9 104.732C114.618 104.888 114.395 105.118 114.232 105.419C114.069 105.72 113.987 106.085 113.987 106.514ZM125.706 106.514V110.953H124.572V101.114H125.706V104.727H125.802C125.975 104.346 126.234 104.043 126.58 103.819C126.929 103.591 127.394 103.478 127.973 103.478C128.476 103.478 128.917 103.579 129.295 103.78C129.673 103.979 129.966 104.285 130.174 104.698C130.385 105.108 130.491 105.63 130.491 106.264V110.953H129.357V106.341C129.357 105.755 129.205 105.302 128.901 104.981C128.6 104.658 128.182 104.496 127.647 104.496C127.275 104.496 126.942 104.575 126.647 104.732C126.356 104.888 126.125 105.118 125.956 105.419C125.789 105.72 125.706 106.085 125.706 106.514ZM135.659 111.107C134.948 111.107 134.335 110.95 133.819 110.636C133.307 110.319 132.911 109.877 132.632 109.31C132.357 108.74 132.219 108.077 132.219 107.321C132.219 106.565 132.357 105.899 132.632 105.322C132.911 104.743 133.299 104.291 133.795 103.968C134.295 103.641 134.878 103.478 135.544 103.478C135.928 103.478 136.308 103.542 136.682 103.67C137.057 103.798 137.398 104.006 137.706 104.294C138.013 104.579 138.258 104.957 138.441 105.428C138.623 105.899 138.715 106.479 138.715 107.167V107.648H133.026V106.668H137.562C137.562 106.251 137.478 105.88 137.312 105.553C137.148 105.226 136.915 104.969 136.61 104.78C136.309 104.591 135.954 104.496 135.544 104.496C135.092 104.496 134.701 104.608 134.372 104.832C134.045 105.053 133.793 105.342 133.617 105.697C133.441 106.053 133.353 106.434 133.353 106.841V107.494C133.353 108.051 133.449 108.524 133.641 108.911C133.837 109.296 134.107 109.589 134.453 109.79C134.799 109.989 135.201 110.088 135.659 110.088C135.957 110.088 136.226 110.047 136.466 109.963C136.71 109.877 136.919 109.749 137.096 109.579C137.272 109.406 137.408 109.192 137.504 108.935L138.599 109.243C138.484 109.614 138.29 109.941 138.018 110.223C137.746 110.502 137.409 110.719 137.009 110.876C136.609 111.03 136.159 111.107 135.659 111.107ZM142.611 111.126C142.143 111.126 141.719 111.038 141.338 110.862C140.957 110.682 140.654 110.425 140.43 110.088C140.206 109.749 140.093 109.339 140.093 108.858C140.093 108.436 140.177 108.093 140.343 107.83C140.51 107.564 140.732 107.356 141.011 107.206C141.29 107.055 141.597 106.943 141.934 106.869C142.273 106.793 142.614 106.732 142.957 106.687C143.405 106.629 143.769 106.586 144.047 106.557C144.329 106.525 144.534 106.472 144.662 106.399C144.794 106.325 144.859 106.197 144.859 106.014V105.976C144.859 105.502 144.73 105.134 144.47 104.871C144.214 104.608 143.825 104.477 143.303 104.477C142.761 104.477 142.337 104.595 142.03 104.832C141.722 105.069 141.506 105.322 141.381 105.592L140.305 105.207C140.497 104.759 140.753 104.41 141.074 104.16C141.397 103.907 141.749 103.731 142.13 103.631C142.515 103.529 142.893 103.478 143.264 103.478C143.501 103.478 143.774 103.506 144.081 103.564C144.392 103.619 144.691 103.732 144.979 103.905C145.271 104.078 145.513 104.339 145.705 104.688C145.897 105.037 145.993 105.505 145.993 106.091V110.953H144.859V109.954H144.802C144.725 110.114 144.597 110.285 144.417 110.468C144.238 110.65 143.999 110.806 143.702 110.934C143.404 111.062 143.04 111.126 142.611 111.126ZM142.784 110.108C143.232 110.108 143.61 110.019 143.918 109.843C144.228 109.667 144.462 109.44 144.619 109.161C144.779 108.882 144.859 108.589 144.859 108.282V107.244C144.811 107.302 144.706 107.355 144.542 107.403C144.382 107.448 144.196 107.488 143.985 107.523C143.777 107.555 143.573 107.584 143.375 107.609C143.179 107.632 143.021 107.651 142.899 107.667C142.605 107.705 142.329 107.768 142.073 107.854C141.82 107.938 141.615 108.064 141.458 108.234C141.304 108.4 141.227 108.628 141.227 108.916C141.227 109.31 141.373 109.608 141.664 109.81C141.959 110.008 142.332 110.108 142.784 110.108ZM150.849 111.107C150.234 111.107 149.691 110.952 149.22 110.641C148.75 110.327 148.381 109.885 148.115 109.315C147.85 108.742 147.717 108.064 147.717 107.283C147.717 106.508 147.85 105.835 148.115 105.265C148.381 104.695 148.751 104.254 149.225 103.944C149.699 103.633 150.247 103.478 150.868 103.478C151.349 103.478 151.728 103.558 152.007 103.718C152.289 103.875 152.503 104.054 152.651 104.256C152.801 104.455 152.918 104.618 153.001 104.746H153.098V101.114H154.231V110.953H153.136V109.819H153.001C152.918 109.954 152.8 110.124 152.646 110.329C152.492 110.53 152.273 110.711 151.988 110.871C151.703 111.028 151.323 111.107 150.849 111.107ZM151.003 110.088C151.458 110.088 151.842 109.97 152.156 109.733C152.47 109.493 152.708 109.161 152.872 108.738C153.035 108.312 153.117 107.821 153.117 107.263C153.117 106.713 153.037 106.23 152.877 105.817C152.716 105.401 152.479 105.077 152.165 104.847C151.852 104.613 151.464 104.496 151.003 104.496C150.522 104.496 150.122 104.619 149.802 104.866C149.485 105.109 149.246 105.441 149.086 105.861C148.929 106.277 148.851 106.745 148.851 107.263C148.851 107.789 148.931 108.266 149.091 108.695C149.254 109.121 149.494 109.461 149.811 109.714C150.132 109.963 150.529 110.088 151.003 110.088ZM159.559 111.107C158.848 111.107 158.235 110.95 157.719 110.636C157.207 110.319 156.811 109.877 156.533 109.31C156.257 108.74 156.119 108.077 156.119 107.321C156.119 106.565 156.257 105.899 156.533 105.322C156.811 104.743 157.199 104.291 157.695 103.968C158.195 103.641 158.778 103.478 159.444 103.478C159.828 103.478 160.208 103.542 160.583 103.67C160.957 103.798 161.298 104.006 161.606 104.294C161.913 104.579 162.158 104.957 162.341 105.428C162.524 105.899 162.615 106.479 162.615 107.167V107.648H156.927V106.668H161.462C161.462 106.251 161.379 105.88 161.212 105.553C161.049 105.226 160.815 104.969 160.511 104.78C160.209 104.591 159.854 104.496 159.444 104.496C158.992 104.496 158.602 104.608 158.272 104.832C157.945 105.053 157.694 105.342 157.517 105.697C157.341 106.053 157.253 106.434 157.253 106.841V107.494C157.253 108.051 157.349 108.524 157.541 108.911C157.737 109.296 158.008 109.589 158.353 109.79C158.699 109.989 159.101 110.088 159.559 110.088C159.857 110.088 160.126 110.047 160.366 109.963C160.61 109.877 160.82 109.749 160.996 109.579C161.172 109.406 161.308 109.192 161.404 108.935L162.5 109.243C162.384 109.614 162.19 109.941 161.918 110.223C161.646 110.502 161.31 110.719 160.909 110.876C160.509 111.03 160.059 111.107 159.559 111.107ZM164.34 110.953V103.574H165.435V104.688H165.512C165.646 104.323 165.89 104.027 166.242 103.8C166.594 103.572 166.992 103.458 167.434 103.458C167.517 103.458 167.621 103.46 167.746 103.463C167.871 103.466 167.965 103.471 168.029 103.478V104.631C167.991 104.621 167.903 104.607 167.765 104.587C167.631 104.565 167.488 104.554 167.337 104.554C166.979 104.554 166.658 104.629 166.377 104.78C166.098 104.927 165.877 105.132 165.714 105.395C165.553 105.654 165.473 105.95 165.473 106.283V110.953H164.34Z" fill="#0F71BB"/>
<rect x="16.5195" y="123.867" width="0.845556" height="33.8223" fill="#98A2B3"/>
<path d="M50.9942 137.398C50.9365 136.911 50.7027 136.533 50.2927 136.264C49.8828 135.995 49.3799 135.861 48.7842 135.861C48.3486 135.861 47.9674 135.931 47.6408 136.072C47.3173 136.213 47.0642 136.407 46.8817 136.653C46.7023 136.9 46.6126 137.18 46.6126 137.494C46.6126 137.757 46.6751 137.982 46.8 138.171C46.9281 138.357 47.0915 138.513 47.29 138.637C47.4886 138.759 47.6968 138.86 47.9146 138.94C48.1324 139.017 48.3326 139.079 48.5151 139.127L49.5144 139.397C49.7707 139.464 50.0557 139.557 50.3696 139.675C50.6867 139.794 50.9894 139.955 51.2776 140.16C51.5691 140.362 51.8093 140.622 51.9983 140.939C52.1872 141.256 52.2817 141.645 52.2817 142.106C52.2817 142.638 52.1424 143.118 51.8637 143.547C51.5883 143.977 51.1847 144.318 50.6531 144.571C50.1246 144.824 49.4824 144.95 48.7265 144.95C48.0219 144.95 47.4118 144.837 46.8961 144.609C46.3836 144.382 45.9801 144.065 45.6854 143.658C45.3939 143.251 45.229 142.779 45.1906 142.241H46.4205C46.4525 142.612 46.5774 142.92 46.7952 143.163C47.0162 143.403 47.2948 143.583 47.6311 143.701C47.9707 143.816 48.3358 143.874 48.7265 143.874C49.1813 143.874 49.5897 143.8 49.9516 143.653C50.3135 143.503 50.6002 143.294 50.8116 143.029C51.023 142.76 51.1287 142.446 51.1287 142.087C51.1287 141.76 51.0374 141.494 50.8548 141.289C50.6723 141.084 50.4321 140.918 50.1342 140.79C49.8363 140.662 49.5144 140.55 49.1685 140.453L47.9578 140.108C47.1892 139.887 46.5806 139.571 46.1322 139.161C45.6838 138.751 45.4596 138.215 45.4596 137.552C45.4596 137.001 45.6085 136.52 45.9064 136.11C46.2075 135.697 46.611 135.377 47.1171 135.15C47.6263 134.919 48.1949 134.804 48.8226 134.804C49.4568 134.804 50.0205 134.917 50.5137 135.145C51.007 135.369 51.3977 135.676 51.686 136.067C51.9774 136.458 52.1312 136.901 52.1472 137.398H50.9942ZM58.7375 141.76V137.398H59.8713V144.777H58.7375V143.528H58.6606C58.4877 143.903 58.2186 144.222 57.8535 144.484C57.4884 144.744 57.0272 144.873 56.4699 144.873C56.0086 144.873 55.5987 144.773 55.24 144.571C54.8812 144.366 54.5994 144.058 54.3944 143.648C54.1894 143.235 54.0869 142.715 54.0869 142.087V137.398H55.2207V142.01C55.2207 142.548 55.3713 142.977 55.6723 143.298C55.9766 143.618 56.3642 143.778 56.835 143.778C57.1168 143.778 57.4035 143.706 57.695 143.562C57.9896 143.418 58.2362 143.197 58.4348 142.899C58.6366 142.601 58.7375 142.221 58.7375 141.76ZM62.1017 144.777V134.938H63.2355V138.57H63.3316C63.4149 138.442 63.5302 138.279 63.6775 138.08C63.828 137.878 64.0426 137.699 64.3213 137.542C64.6031 137.382 64.9843 137.302 65.4647 137.302C66.0861 137.302 66.6337 137.457 67.1078 137.768C67.5818 138.079 67.9517 138.519 68.2176 139.089C68.4834 139.659 68.6163 140.332 68.6163 141.107C68.6163 141.888 68.4834 142.566 68.2176 143.139C67.9517 143.709 67.5834 144.151 67.1126 144.465C66.6418 144.776 66.0989 144.931 65.4839 144.931C65.0099 144.931 64.6304 144.853 64.3453 144.696C64.0602 144.536 63.8409 144.355 63.6871 144.153C63.5334 143.948 63.4149 143.778 63.3316 143.644H63.1971V144.777H62.1017ZM63.2163 141.088C63.2163 141.645 63.298 142.137 63.4613 142.563C63.6247 142.985 63.8633 143.317 64.1772 143.557C64.491 143.794 64.8754 143.913 65.3302 143.913C65.8042 143.913 66.1998 143.788 66.5168 143.538C66.8371 143.285 67.0773 142.945 67.2375 142.519C67.4008 142.09 67.4825 141.613 67.4825 141.088C67.4825 140.569 67.4024 140.101 67.2423 139.685C67.0854 139.265 66.8467 138.934 66.5265 138.69C66.2094 138.444 65.8106 138.32 65.3302 138.32C64.869 138.32 64.4814 138.437 64.1675 138.671C63.8537 138.902 63.6167 139.225 63.4565 139.642C63.2964 140.055 63.2163 140.537 63.2163 141.088ZM79.3828 139.051L78.3642 139.339C78.3002 139.169 78.2057 139.004 78.0808 138.844C77.9591 138.681 77.7925 138.546 77.5811 138.44C77.3698 138.335 77.0991 138.282 76.7692 138.282C76.3176 138.282 75.9413 138.386 75.6402 138.594C75.3423 138.799 75.1934 139.06 75.1934 139.377C75.1934 139.659 75.2959 139.882 75.5009 140.045C75.7059 140.208 76.0262 140.345 76.4617 140.453L77.5571 140.723C78.2169 140.883 78.7086 141.128 79.032 141.458C79.3555 141.784 79.5173 142.205 79.5173 142.721C79.5173 143.144 79.3956 143.522 79.1521 143.855C78.9119 144.188 78.5756 144.451 78.1432 144.643C77.7109 144.835 77.208 144.931 76.6347 144.931C75.882 144.931 75.2591 144.768 74.7658 144.441C74.2726 144.114 73.9603 143.637 73.829 143.009L74.9051 142.74C75.0076 143.137 75.2014 143.435 75.4865 143.634C75.7747 143.832 76.1511 143.932 76.6155 143.932C77.144 143.932 77.5635 143.82 77.8742 143.595C78.1881 143.368 78.345 143.096 78.345 142.779C78.345 142.523 78.2553 142.308 78.076 142.135C77.8966 141.959 77.6212 141.828 77.2496 141.741L76.0197 141.453C75.3439 141.293 74.8475 141.044 74.5304 140.708C74.2165 140.369 74.0596 139.944 74.0596 139.435C74.0596 139.019 74.1765 138.65 74.4103 138.33C74.6473 138.01 74.9692 137.758 75.376 137.576C75.7859 137.393 76.2504 137.302 76.7692 137.302C77.4995 137.302 78.0728 137.462 78.4892 137.782C78.9087 138.103 79.2066 138.525 79.3828 139.051ZM84.318 144.931C83.6069 144.931 82.9936 144.774 82.4779 144.46C81.9655 144.143 81.5699 143.701 81.2913 143.134C81.0158 142.564 80.8781 141.901 80.8781 141.145C80.8781 140.389 81.0158 139.723 81.2913 139.147C81.5699 138.567 81.9575 138.115 82.4539 137.792C82.9536 137.465 83.5365 137.302 84.2027 137.302C84.587 137.302 84.9666 137.366 85.3413 137.494C85.716 137.622 86.0571 137.83 86.3646 138.119C86.6721 138.404 86.9171 138.782 87.0997 139.252C87.2822 139.723 87.3735 140.303 87.3735 140.992V141.472H81.6852V140.492H86.2205C86.2205 140.076 86.1372 139.704 85.9707 139.377C85.8073 139.051 85.5735 138.793 85.2692 138.604C84.9682 138.415 84.6126 138.32 84.2027 138.32C83.7511 138.32 83.3603 138.432 83.0304 138.657C82.7037 138.878 82.4523 139.166 82.2761 139.521C82.1 139.877 82.0119 140.258 82.0119 140.665V141.318C82.0119 141.876 82.108 142.348 82.3002 142.736C82.4955 143.12 82.7662 143.413 83.1121 143.615C83.458 143.813 83.86 143.913 84.318 143.913C84.6158 143.913 84.8849 143.871 85.1251 143.788C85.3685 143.701 85.5783 143.573 85.7545 143.403C85.9306 143.23 86.0667 143.016 86.1628 142.76L87.2582 143.067C87.1429 143.439 86.9491 143.765 86.6769 144.047C86.4046 144.326 86.0683 144.544 85.668 144.7C85.2676 144.854 84.8176 144.931 84.318 144.931ZM92.0961 144.931C91.4043 144.931 90.8086 144.768 90.3089 144.441C89.8093 144.114 89.4249 143.664 89.1559 143.091C88.8869 142.518 88.7523 141.863 88.7523 141.126C88.7523 140.377 88.8901 139.715 89.1655 139.142C89.4442 138.565 89.8317 138.115 90.3281 137.792C90.8278 137.465 91.4107 137.302 92.0769 137.302C92.5958 137.302 93.0634 137.398 93.4798 137.59C93.8961 137.782 94.2372 138.051 94.5031 138.397C94.7689 138.743 94.9339 139.147 94.9979 139.608H93.8641C93.7776 139.272 93.5855 138.974 93.2876 138.714C92.9929 138.452 92.5958 138.32 92.0961 138.32C91.6541 138.32 91.2666 138.436 90.9335 138.666C90.6036 138.894 90.3458 139.216 90.16 139.632C89.9774 140.045 89.8862 140.53 89.8862 141.088C89.8862 141.658 89.9758 142.154 90.1552 142.577C90.3378 143 90.594 143.328 90.9239 143.562C91.257 143.796 91.6477 143.913 92.0961 143.913C92.3908 143.913 92.6582 143.861 92.8984 143.759C93.1387 143.656 93.342 143.509 93.5086 143.317C93.6751 143.125 93.7936 142.894 93.8641 142.625H94.9979C94.9339 143.061 94.7753 143.453 94.5223 143.802C94.2725 144.148 93.941 144.423 93.5278 144.628C93.1178 144.83 92.6406 144.931 92.0961 144.931ZM99.8647 137.398V138.359H96.0405V137.398H99.8647ZM97.1551 135.63H98.2889V142.663C98.2889 142.984 98.3353 143.224 98.4282 143.384C98.5243 143.541 98.646 143.647 98.7933 143.701C98.9439 143.752 99.1024 143.778 99.269 143.778C99.3939 143.778 99.4964 143.772 99.5764 143.759C99.6565 143.743 99.7206 143.73 99.7686 143.72L99.9992 144.739C99.9223 144.768 99.815 144.797 99.6773 144.825C99.5396 144.857 99.365 144.873 99.1536 144.873C98.8334 144.873 98.5195 144.805 98.212 144.667C97.9077 144.529 97.6547 144.319 97.4529 144.037C97.2543 143.756 97.1551 143.4 97.1551 142.971V135.63ZM101.57 144.777V137.398H102.704V144.777H101.57ZM102.147 136.168C101.926 136.168 101.735 136.093 101.575 135.942C101.418 135.792 101.34 135.611 101.34 135.399C101.34 135.188 101.418 135.007 101.575 134.856C101.735 134.706 101.926 134.631 102.147 134.631C102.368 134.631 102.557 134.706 102.714 134.856C102.874 135.007 102.954 135.188 102.954 135.399C102.954 135.611 102.874 135.792 102.714 135.942C102.557 136.093 102.368 136.168 102.147 136.168ZM107.779 144.931C107.112 144.931 106.528 144.773 106.025 144.455C105.525 144.138 105.135 143.695 104.853 143.125C104.574 142.555 104.435 141.888 104.435 141.126C104.435 140.357 104.574 139.686 104.853 139.113C105.135 138.54 105.525 138.095 106.025 137.777C106.528 137.46 107.112 137.302 107.779 137.302C108.445 137.302 109.028 137.46 109.527 137.777C110.03 138.095 110.421 138.54 110.7 139.113C110.981 139.686 111.122 140.357 111.122 141.126C111.122 141.888 110.981 142.555 110.7 143.125C110.421 143.695 110.03 144.138 109.527 144.455C109.028 144.773 108.445 144.931 107.779 144.931ZM107.779 143.913C108.285 143.913 108.701 143.783 109.028 143.523C109.354 143.264 109.596 142.923 109.753 142.5C109.91 142.077 109.989 141.619 109.989 141.126C109.989 140.633 109.91 140.173 109.753 139.747C109.596 139.321 109.354 138.977 109.028 138.714C108.701 138.452 108.285 138.32 107.779 138.32C107.273 138.32 106.856 138.452 106.529 138.714C106.203 138.977 105.961 139.321 105.804 139.747C105.647 140.173 105.569 140.633 105.569 141.126C105.569 141.619 105.647 142.077 105.804 142.5C105.961 142.923 106.203 143.264 106.529 143.523C106.856 143.783 107.273 143.913 107.779 143.913ZM113.987 140.338V144.777H112.853V137.398H113.948V138.551H114.045C114.218 138.176 114.48 137.875 114.832 137.648C115.185 137.417 115.64 137.302 116.197 137.302C116.697 137.302 117.134 137.404 117.508 137.609C117.883 137.811 118.175 138.119 118.383 138.532C118.591 138.942 118.695 139.461 118.695 140.088V144.777H117.561V140.165C117.561 139.585 117.411 139.134 117.11 138.81C116.809 138.484 116.395 138.32 115.87 138.32C115.508 138.32 115.185 138.399 114.9 138.556C114.618 138.713 114.395 138.942 114.232 139.243C114.069 139.544 113.987 139.909 113.987 140.338ZM125.706 140.338V144.777H124.572V134.938H125.706V138.551H125.802C125.975 138.17 126.234 137.867 126.58 137.643C126.929 137.416 127.394 137.302 127.973 137.302C128.476 137.302 128.917 137.403 129.295 137.605C129.673 137.803 129.966 138.109 130.174 138.522C130.385 138.932 130.491 139.454 130.491 140.088V144.777H129.357V140.165C129.357 139.579 129.205 139.126 128.901 138.806C128.6 138.482 128.182 138.32 127.647 138.32C127.275 138.32 126.942 138.399 126.647 138.556C126.356 138.713 126.125 138.942 125.956 139.243C125.789 139.544 125.706 139.909 125.706 140.338ZM135.659 144.931C134.948 144.931 134.335 144.774 133.819 144.46C133.307 144.143 132.911 143.701 132.632 143.134C132.357 142.564 132.219 141.901 132.219 141.145C132.219 140.389 132.357 139.723 132.632 139.147C132.911 138.567 133.299 138.115 133.795 137.792C134.295 137.465 134.878 137.302 135.544 137.302C135.928 137.302 136.308 137.366 136.682 137.494C137.057 137.622 137.398 137.83 137.706 138.119C138.013 138.404 138.258 138.782 138.441 139.252C138.623 139.723 138.715 140.303 138.715 140.992V141.472H133.026V140.492H137.562C137.562 140.076 137.478 139.704 137.312 139.377C137.148 139.051 136.915 138.793 136.61 138.604C136.309 138.415 135.954 138.32 135.544 138.32C135.092 138.32 134.701 138.432 134.372 138.657C134.045 138.878 133.793 139.166 133.617 139.521C133.441 139.877 133.353 140.258 133.353 140.665V141.318C133.353 141.876 133.449 142.348 133.641 142.736C133.837 143.12 134.107 143.413 134.453 143.615C134.799 143.813 135.201 143.913 135.659 143.913C135.957 143.913 136.226 143.871 136.466 143.788C136.71 143.701 136.919 143.573 137.096 143.403C137.272 143.23 137.408 143.016 137.504 142.76L138.599 143.067C138.484 143.439 138.29 143.765 138.018 144.047C137.746 144.326 137.409 144.544 137.009 144.7C136.609 144.854 136.159 144.931 135.659 144.931ZM142.611 144.95C142.143 144.95 141.719 144.862 141.338 144.686C140.957 144.507 140.654 144.249 140.43 143.913C140.206 143.573 140.093 143.163 140.093 142.683C140.093 142.26 140.177 141.917 140.343 141.655C140.51 141.389 140.732 141.181 141.011 141.03C141.29 140.879 141.597 140.767 141.934 140.694C142.273 140.617 142.614 140.556 142.957 140.511C143.405 140.453 143.769 140.41 144.047 140.381C144.329 140.349 144.534 140.297 144.662 140.223C144.794 140.149 144.859 140.021 144.859 139.839V139.8C144.859 139.326 144.73 138.958 144.47 138.695C144.214 138.432 143.825 138.301 143.303 138.301C142.761 138.301 142.337 138.42 142.03 138.657C141.722 138.894 141.506 139.147 141.381 139.416L140.305 139.031C140.497 138.583 140.753 138.234 141.074 137.984C141.397 137.731 141.749 137.555 142.13 137.456C142.515 137.353 142.893 137.302 143.264 137.302C143.501 137.302 143.774 137.331 144.081 137.388C144.392 137.443 144.691 137.556 144.979 137.729C145.271 137.902 145.513 138.163 145.705 138.513C145.897 138.862 145.993 139.329 145.993 139.915V144.777H144.859V143.778H144.802C144.725 143.938 144.597 144.11 144.417 144.292C144.238 144.475 143.999 144.63 143.702 144.758C143.404 144.886 143.04 144.95 142.611 144.95ZM142.784 143.932C143.232 143.932 143.61 143.844 143.918 143.668C144.228 143.491 144.462 143.264 144.619 142.985C144.779 142.707 144.859 142.414 144.859 142.106V141.068C144.811 141.126 144.706 141.179 144.542 141.227C144.382 141.272 144.196 141.312 143.985 141.347C143.777 141.379 143.573 141.408 143.375 141.434C143.179 141.456 143.021 141.475 142.899 141.491C142.605 141.53 142.329 141.592 142.073 141.679C141.82 141.762 141.615 141.888 141.458 142.058C141.304 142.225 141.227 142.452 141.227 142.74C141.227 143.134 141.373 143.432 141.664 143.634C141.959 143.832 142.332 143.932 142.784 143.932ZM150.849 144.931C150.234 144.931 149.691 144.776 149.22 144.465C148.75 144.151 148.381 143.709 148.115 143.139C147.85 142.566 147.717 141.888 147.717 141.107C147.717 140.332 147.85 139.659 148.115 139.089C148.381 138.519 148.751 138.079 149.225 137.768C149.699 137.457 150.247 137.302 150.868 137.302C151.349 137.302 151.728 137.382 152.007 137.542C152.289 137.699 152.503 137.878 152.651 138.08C152.801 138.279 152.918 138.442 153.001 138.57H153.098V134.938H154.231V144.777H153.136V143.644H153.001C152.918 143.778 152.8 143.948 152.646 144.153C152.492 144.355 152.273 144.536 151.988 144.696C151.703 144.853 151.323 144.931 150.849 144.931ZM151.003 143.913C151.458 143.913 151.842 143.794 152.156 143.557C152.47 143.317 152.708 142.985 152.872 142.563C153.035 142.137 153.117 141.645 153.117 141.088C153.117 140.537 153.037 140.055 152.877 139.642C152.716 139.225 152.479 138.902 152.165 138.671C151.852 138.437 151.464 138.32 151.003 138.32C150.522 138.32 150.122 138.444 149.802 138.69C149.485 138.934 149.246 139.265 149.086 139.685C148.929 140.101 148.851 140.569 148.851 141.088C148.851 141.613 148.931 142.09 149.091 142.519C149.254 142.945 149.494 143.285 149.811 143.538C150.132 143.788 150.529 143.913 151.003 143.913ZM159.559 144.931C158.848 144.931 158.235 144.774 157.719 144.46C157.207 144.143 156.811 143.701 156.533 143.134C156.257 142.564 156.119 141.901 156.119 141.145C156.119 140.389 156.257 139.723 156.533 139.147C156.811 138.567 157.199 138.115 157.695 137.792C158.195 137.465 158.778 137.302 159.444 137.302C159.828 137.302 160.208 137.366 160.583 137.494C160.957 137.622 161.298 137.83 161.606 138.119C161.913 138.404 162.158 138.782 162.341 139.252C162.524 139.723 162.615 140.303 162.615 140.992V141.472H156.927V140.492H161.462C161.462 140.076 161.379 139.704 161.212 139.377C161.049 139.051 160.815 138.793 160.511 138.604C160.209 138.415 159.854 138.32 159.444 138.32C158.992 138.32 158.602 138.432 158.272 138.657C157.945 138.878 157.694 139.166 157.517 139.521C157.341 139.877 157.253 140.258 157.253 140.665V141.318C157.253 141.876 157.349 142.348 157.541 142.736C157.737 143.12 158.008 143.413 158.353 143.615C158.699 143.813 159.101 143.913 159.559 143.913C159.857 143.913 160.126 143.871 160.366 143.788C160.61 143.701 160.82 143.573 160.996 143.403C161.172 143.23 161.308 143.016 161.404 142.76L162.5 143.067C162.384 143.439 162.19 143.765 161.918 144.047C161.646 144.326 161.31 144.544 160.909 144.7C160.509 144.854 160.059 144.931 159.559 144.931ZM164.34 144.777V137.398H165.435V138.513H165.512C165.646 138.147 165.89 137.851 166.242 137.624C166.594 137.396 166.992 137.283 167.434 137.283C167.517 137.283 167.621 137.284 167.746 137.287C167.871 137.291 167.965 137.295 168.029 137.302V138.455C167.991 138.445 167.903 138.431 167.765 138.412C167.631 138.389 167.488 138.378 167.337 138.378C166.979 138.378 166.658 138.453 166.377 138.604C166.098 138.751 165.877 138.956 165.714 139.219C165.553 139.478 165.473 139.774 165.473 140.108V144.777H164.34Z" fill="#0F71BB"/>
<rect x="16.5195" y="157.688" width="0.845556" height="33.8223" fill="#98A2B3"/>
<path d="M37.4668 171.218C37.4092 170.731 37.1754 170.353 36.7654 170.084C36.3554 169.815 35.8526 169.681 35.2568 169.681C34.8212 169.681 34.4401 169.751 34.1134 169.892C33.7899 170.033 33.5369 170.227 33.3543 170.474C33.175 170.72 33.0853 171 33.0853 171.314C33.0853 171.577 33.1477 171.803 33.2727 171.992C33.4008 172.178 33.5641 172.333 33.7627 172.458C33.9613 172.579 34.1695 172.68 34.3873 172.76C34.6051 172.837 34.8052 172.9 34.9878 172.948L35.9871 173.217C36.2433 173.284 36.5284 173.377 36.8423 173.495C37.1593 173.614 37.462 173.776 37.7503 173.981C38.0417 174.183 38.2819 174.442 38.4709 174.759C38.6599 175.076 38.7544 175.465 38.7544 175.926C38.7544 176.458 38.615 176.939 38.3364 177.368C38.0609 177.797 37.6574 178.138 37.1257 178.391C36.5972 178.644 35.9551 178.771 35.1992 178.771C34.4946 178.771 33.8844 178.657 33.3687 178.43C32.8563 178.202 32.4527 177.885 32.1581 177.478C31.8666 177.071 31.7017 176.599 31.6632 176.061H32.8931C32.9251 176.433 33.0501 176.74 33.2679 176.983C33.4889 177.224 33.7675 177.403 34.1038 177.521C34.4433 177.637 34.8084 177.694 35.1992 177.694C35.654 177.694 36.0624 177.621 36.4243 177.473C36.7862 177.323 37.0729 177.115 37.2842 176.849C37.4956 176.58 37.6013 176.266 37.6013 175.907C37.6013 175.581 37.5101 175.315 37.3275 175.11C37.1449 174.905 36.9047 174.738 36.6068 174.61C36.309 174.482 35.9871 174.37 35.6412 174.274L34.4305 173.928C33.6618 173.707 33.0533 173.391 32.6049 172.981C32.1565 172.571 31.9323 172.035 31.9323 171.372C31.9323 170.821 32.0812 170.341 32.3791 169.931C32.6801 169.518 33.0837 169.197 33.5897 168.97C34.099 168.739 34.6675 168.624 35.2953 168.624C35.9294 168.624 36.4931 168.738 36.9864 168.965C37.4796 169.189 37.8704 169.497 38.1586 169.887C38.4501 170.278 38.6038 170.722 38.6198 171.218H37.4668ZM43.6535 178.751C42.9425 178.751 42.3292 178.594 41.8135 178.281C41.301 177.963 40.9055 177.521 40.6268 176.955C40.3514 176.384 40.2137 175.721 40.2137 174.966C40.2137 174.21 40.3514 173.544 40.6268 172.967C40.9055 172.387 41.293 171.936 41.7895 171.612C42.2891 171.286 42.872 171.122 43.5382 171.122C43.9226 171.122 44.3021 171.186 44.6769 171.314C45.0516 171.442 45.3927 171.651 45.7002 171.939C46.0077 172.224 46.2527 172.602 46.4352 173.073C46.6178 173.544 46.7091 174.123 46.7091 174.812V175.292H41.0208V174.312H45.556C45.556 173.896 45.4728 173.524 45.3062 173.198C45.1429 172.871 44.9091 172.613 44.6048 172.424C44.3037 172.235 43.9482 172.141 43.5382 172.141C43.0866 172.141 42.6959 172.253 42.366 172.477C42.0393 172.698 41.7879 172.986 41.6117 173.342C41.4356 173.697 41.3475 174.078 41.3475 174.485V175.139C41.3475 175.696 41.4436 176.168 41.6357 176.556C41.8311 176.94 42.1018 177.233 42.4477 177.435C42.7936 177.634 43.1955 177.733 43.6535 177.733C43.9514 177.733 44.2205 177.691 44.4607 177.608C44.7041 177.521 44.9139 177.393 45.09 177.224C45.2662 177.051 45.4023 176.836 45.4984 176.58L46.5938 176.887C46.4785 177.259 46.2847 177.586 46.0125 177.867C45.7402 178.146 45.4039 178.364 45.0036 178.521C44.6032 178.675 44.1532 178.751 43.6535 178.751ZM51.4317 178.751C50.7399 178.751 50.1442 178.588 49.6445 178.261C49.1449 177.935 48.7605 177.485 48.4915 176.911C48.2224 176.338 48.0879 175.683 48.0879 174.946C48.0879 174.197 48.2256 173.536 48.5011 172.962C48.7797 172.386 49.1673 171.936 49.6637 171.612C50.1634 171.286 50.7463 171.122 51.4125 171.122C51.9314 171.122 52.399 171.218 52.8153 171.41C53.2317 171.603 53.5728 171.872 53.8387 172.218C54.1045 172.563 54.2694 172.967 54.3335 173.428H53.1997C53.1132 173.092 52.921 172.794 52.6232 172.535C52.3285 172.272 51.9314 172.141 51.4317 172.141C50.9897 172.141 50.6022 172.256 50.2691 172.487C49.9392 172.714 49.6813 173.036 49.4956 173.452C49.313 173.865 49.2217 174.351 49.2217 174.908C49.2217 175.478 49.3114 175.975 49.4908 176.397C49.6733 176.82 49.9296 177.148 50.2595 177.382C50.5926 177.616 50.9833 177.733 51.4317 177.733C51.7264 177.733 51.9938 177.682 52.234 177.579C52.4742 177.477 52.6776 177.329 52.8442 177.137C53.0107 176.945 53.1292 176.714 53.1997 176.445H54.3335C54.2694 176.881 54.1109 177.273 53.8579 177.622C53.6081 177.968 53.2766 178.244 52.8634 178.449C52.4534 178.651 51.9762 178.751 51.4317 178.751ZM59.2003 171.218V172.179H55.376V171.218H59.2003ZM56.4906 169.45H57.6244V176.484C57.6244 176.804 57.6709 177.044 57.7638 177.204C57.8599 177.361 57.9816 177.467 58.1289 177.521C58.2794 177.573 58.438 177.598 58.6045 177.598C58.7294 177.598 58.8319 177.592 58.912 177.579C58.9921 177.563 59.0561 177.55 59.1042 177.541L59.3348 178.559C59.2579 178.588 59.1506 178.617 59.0129 178.646C58.8752 178.678 58.7006 178.694 58.4892 178.694C58.1689 178.694 57.8551 178.625 57.5476 178.487C57.2433 178.349 56.9903 178.14 56.7885 177.858C56.5899 177.576 56.4906 177.22 56.4906 176.791V169.45ZM60.9058 178.598V171.218H62.0396V178.598H60.9058ZM61.4823 169.988C61.2613 169.988 61.0707 169.913 60.9106 169.763C60.7536 169.612 60.6752 169.431 60.6752 169.22C60.6752 169.008 60.7536 168.827 60.9106 168.677C61.0707 168.526 61.2613 168.451 61.4823 168.451C61.7033 168.451 61.8923 168.526 62.0492 168.677C62.2094 168.827 62.2894 169.008 62.2894 169.22C62.2894 169.431 62.2094 169.612 62.0492 169.763C61.8923 169.913 61.7033 169.988 61.4823 169.988ZM67.1141 178.751C66.4479 178.751 65.8634 178.593 65.3606 178.276C64.8609 177.959 64.4702 177.515 64.1883 176.945C63.9097 176.375 63.7703 175.709 63.7703 174.946C63.7703 174.178 63.9097 173.507 64.1883 172.933C64.4702 172.36 64.8609 171.915 65.3606 171.598C65.8634 171.281 66.4479 171.122 67.1141 171.122C67.7803 171.122 68.3633 171.281 68.8629 171.598C69.3658 171.915 69.7565 172.36 70.0352 172.933C70.317 173.507 70.4579 174.178 70.4579 174.946C70.4579 175.709 70.317 176.375 70.0352 176.945C69.7565 177.515 69.3658 177.959 68.8629 178.276C68.3633 178.593 67.7803 178.751 67.1141 178.751ZM67.1141 177.733C67.6202 177.733 68.0366 177.603 68.3633 177.344C68.69 177.084 68.9318 176.743 69.0887 176.32C69.2456 175.898 69.3241 175.44 69.3241 174.946C69.3241 174.453 69.2456 173.994 69.0887 173.568C68.9318 173.142 68.69 172.797 68.3633 172.535C68.0366 172.272 67.6202 172.141 67.1141 172.141C66.6081 172.141 66.1917 172.272 65.865 172.535C65.5383 172.797 65.2965 173.142 65.1396 173.568C64.9826 173.994 64.9042 174.453 64.9042 174.946C64.9042 175.44 64.9826 175.898 65.1396 176.32C65.2965 176.743 65.5383 177.084 65.865 177.344C66.1917 177.603 66.6081 177.733 67.1141 177.733ZM73.3225 174.158V178.598H72.1887V171.218H73.2841V172.371H73.3801C73.5531 171.997 73.8157 171.695 74.1681 171.468C74.5204 171.237 74.9752 171.122 75.5325 171.122C76.0321 171.122 76.4693 171.225 76.844 171.43C77.2188 171.631 77.5102 171.939 77.7184 172.352C77.9266 172.762 78.0307 173.281 78.0307 173.909V178.598H76.8969V173.986C76.8969 173.406 76.7464 172.954 76.4453 172.631C76.1442 172.304 75.731 172.141 75.2058 172.141C74.8439 172.141 74.5204 172.219 74.2353 172.376C73.9535 172.533 73.7309 172.762 73.5675 173.063C73.4042 173.364 73.3225 173.729 73.3225 174.158ZM85.0414 174.158V178.598H83.9076V168.758H85.0414V172.371H85.1375C85.3104 171.99 85.5699 171.687 85.9158 171.463C86.2649 171.236 86.7293 171.122 87.309 171.122C87.8119 171.122 88.2523 171.223 88.6302 171.425C89.0081 171.623 89.3012 171.929 89.5094 172.342C89.7208 172.752 89.8265 173.274 89.8265 173.909V178.598H88.6926V173.986C88.6926 173.399 88.5405 172.946 88.2362 172.626C87.9352 172.302 87.5172 172.141 86.9823 172.141C86.6108 172.141 86.2777 172.219 85.983 172.376C85.6916 172.533 85.461 172.762 85.2912 173.063C85.1247 173.364 85.0414 173.729 85.0414 174.158ZM94.9947 178.751C94.2836 178.751 93.6703 178.594 93.1546 178.281C92.6422 177.963 92.2466 177.521 91.968 176.955C91.6925 176.384 91.5548 175.721 91.5548 174.966C91.5548 174.21 91.6925 173.544 91.968 172.967C92.2466 172.387 92.6342 171.936 93.1306 171.612C93.6303 171.286 94.2132 171.122 94.8794 171.122C95.2637 171.122 95.6433 171.186 96.018 171.314C96.3927 171.442 96.7338 171.651 97.0413 171.939C97.3488 172.224 97.5938 172.602 97.7764 173.073C97.9589 173.544 98.0502 174.123 98.0502 174.812V175.292H92.3619V174.312H96.8972C96.8972 173.896 96.8139 173.524 96.6474 173.198C96.484 172.871 96.2502 172.613 95.9459 172.424C95.6449 172.235 95.2893 172.141 94.8794 172.141C94.4278 172.141 94.037 172.253 93.7071 172.477C93.3804 172.698 93.129 172.986 92.9529 173.342C92.7767 173.697 92.6886 174.078 92.6886 174.485V175.139C92.6886 175.696 92.7847 176.168 92.9769 176.556C93.1723 176.94 93.4429 177.233 93.7888 177.435C94.1347 177.634 94.5367 177.733 94.9947 177.733C95.2926 177.733 95.5616 177.691 95.8018 177.608C96.0452 177.521 96.255 177.393 96.4312 177.224C96.6073 177.051 96.7434 176.836 96.8395 176.58L97.9349 176.887C97.8196 177.259 97.6258 177.586 97.3536 177.867C97.0814 178.146 96.7451 178.364 96.3447 178.521C95.9443 178.675 95.4943 178.751 94.9947 178.751ZM101.947 178.771C101.479 178.771 101.055 178.683 100.673 178.506C100.292 178.327 99.9896 178.069 99.7654 177.733C99.5412 177.393 99.4291 176.983 99.4291 176.503C99.4291 176.08 99.5123 175.737 99.6789 175.475C99.8454 175.209 100.068 175.001 100.347 174.85C100.625 174.7 100.933 174.588 101.269 174.514C101.609 174.437 101.95 174.376 102.292 174.331C102.741 174.274 103.104 174.231 103.383 174.202C103.665 174.17 103.87 174.117 103.998 174.043C104.129 173.97 104.195 173.841 104.195 173.659V173.62C104.195 173.146 104.065 172.778 103.806 172.515C103.55 172.253 103.16 172.121 102.638 172.121C102.097 172.121 101.673 172.24 101.365 172.477C101.058 172.714 100.842 172.967 100.717 173.236L99.6404 172.852C99.8326 172.403 100.089 172.054 100.409 171.804C100.733 171.551 101.085 171.375 101.466 171.276C101.85 171.173 102.228 171.122 102.6 171.122C102.837 171.122 103.109 171.151 103.417 171.209C103.727 171.263 104.027 171.377 104.315 171.55C104.606 171.723 104.848 171.984 105.04 172.333C105.233 172.682 105.329 173.15 105.329 173.736V178.598H104.195V177.598H104.137C104.06 177.759 103.932 177.93 103.753 178.112C103.574 178.295 103.335 178.45 103.037 178.578C102.739 178.707 102.376 178.771 101.947 178.771ZM102.119 177.752C102.568 177.752 102.946 177.664 103.253 177.488C103.564 177.312 103.798 177.084 103.955 176.806C104.115 176.527 104.195 176.234 104.195 175.926V174.889C104.147 174.946 104.041 174.999 103.878 175.047C103.718 175.092 103.532 175.132 103.321 175.167C103.112 175.199 102.909 175.228 102.71 175.254C102.515 175.276 102.356 175.296 102.235 175.312C101.94 175.35 101.665 175.412 101.408 175.499C101.155 175.582 100.95 175.709 100.793 175.878C100.64 176.045 100.563 176.272 100.563 176.561C100.563 176.955 100.709 177.252 101 177.454C101.295 177.653 101.668 177.752 102.119 177.752ZM110.185 178.751C109.57 178.751 109.027 178.596 108.556 178.285C108.085 177.971 107.717 177.53 107.451 176.959C107.185 176.386 107.052 175.709 107.052 174.927C107.052 174.152 107.185 173.479 107.451 172.909C107.717 172.339 108.087 171.899 108.561 171.588C109.035 171.278 109.583 171.122 110.204 171.122C110.684 171.122 111.064 171.202 111.343 171.362C111.624 171.519 111.839 171.699 111.986 171.9C112.137 172.099 112.254 172.262 112.337 172.391H112.433V168.758H113.567V178.598H112.472V177.464H112.337C112.254 177.598 112.135 177.768 111.981 177.973C111.828 178.175 111.608 178.356 111.323 178.516C111.038 178.673 110.659 178.751 110.185 178.751ZM110.338 177.733C110.793 177.733 111.178 177.614 111.491 177.377C111.805 177.137 112.044 176.806 112.207 176.383C112.371 175.957 112.452 175.465 112.452 174.908C112.452 174.357 112.372 173.875 112.212 173.462C112.052 173.045 111.815 172.722 111.501 172.491C111.187 172.258 110.8 172.141 110.338 172.141C109.858 172.141 109.458 172.264 109.137 172.511C108.82 172.754 108.582 173.086 108.422 173.505C108.265 173.921 108.186 174.389 108.186 174.908C108.186 175.433 108.266 175.91 108.426 176.34C108.59 176.766 108.83 177.105 109.147 177.358C109.467 177.608 109.864 177.733 110.338 177.733ZM118.895 178.751C118.184 178.751 117.57 178.594 117.055 178.281C116.542 177.963 116.147 177.521 115.868 176.955C115.593 176.384 115.455 175.721 115.455 174.966C115.455 174.21 115.593 173.544 115.868 172.967C116.147 172.387 116.534 171.936 117.031 171.612C117.53 171.286 118.113 171.122 118.78 171.122C119.164 171.122 119.543 171.186 119.918 171.314C120.293 171.442 120.634 171.651 120.942 171.939C121.249 172.224 121.494 172.602 121.677 173.073C121.859 173.544 121.95 174.123 121.95 174.812V175.292H116.262V174.312H120.797C120.797 173.896 120.714 173.524 120.548 173.198C120.384 172.871 120.15 172.613 119.846 172.424C119.545 172.235 119.19 172.141 118.78 172.141C118.328 172.141 117.937 172.253 117.607 172.477C117.281 172.698 117.029 172.986 116.853 173.342C116.677 173.697 116.589 174.078 116.589 174.485V175.139C116.589 175.696 116.685 176.168 116.877 176.556C117.072 176.94 117.343 177.233 117.689 177.435C118.035 177.634 118.437 177.733 118.895 177.733C119.193 177.733 119.462 177.691 119.702 177.608C119.945 177.521 120.155 177.393 120.331 177.224C120.508 177.051 120.644 176.836 120.74 176.58L121.835 176.887C121.72 177.259 121.526 177.586 121.254 177.867C120.982 178.146 120.645 178.364 120.245 178.521C119.845 178.675 119.395 178.751 118.895 178.751ZM123.675 178.598V171.218H124.771V172.333H124.847C124.982 171.968 125.225 171.671 125.578 171.444C125.93 171.217 126.327 171.103 126.769 171.103C126.852 171.103 126.956 171.105 127.081 171.108C127.206 171.111 127.301 171.116 127.365 171.122V172.275C127.326 172.266 127.238 172.251 127.101 172.232C126.966 172.21 126.824 172.198 126.673 172.198C126.314 172.198 125.994 172.274 125.712 172.424C125.434 172.571 125.213 172.776 125.049 173.039C124.889 173.299 124.809 173.595 124.809 173.928V178.598H123.675ZM135.819 178.732C135.185 178.732 134.62 178.623 134.123 178.405C133.63 178.188 133.238 177.885 132.946 177.497C132.658 177.107 132.501 176.654 132.475 176.138H133.686C133.712 176.455 133.821 176.729 134.013 176.959C134.205 177.187 134.456 177.363 134.767 177.488C135.078 177.613 135.422 177.675 135.8 177.675C136.223 177.675 136.598 177.602 136.924 177.454C137.251 177.307 137.507 177.102 137.693 176.839C137.879 176.577 137.972 176.272 137.972 175.926C137.972 175.565 137.882 175.246 137.702 174.97C137.523 174.692 137.261 174.474 136.915 174.317C136.569 174.16 136.146 174.082 135.646 174.082H134.858V173.025H135.646C136.037 173.025 136.38 172.954 136.674 172.813C136.972 172.672 137.204 172.474 137.371 172.218C137.541 171.961 137.626 171.66 137.626 171.314C137.626 170.981 137.552 170.691 137.405 170.445C137.257 170.198 137.049 170.006 136.78 169.868C136.514 169.731 136.2 169.662 135.838 169.662C135.499 169.662 135.179 169.724 134.878 169.849C134.58 169.971 134.336 170.148 134.147 170.382C133.958 170.613 133.856 170.892 133.84 171.218H132.687C132.706 170.703 132.861 170.251 133.153 169.863C133.444 169.473 133.825 169.168 134.296 168.951C134.77 168.733 135.291 168.624 135.858 168.624C136.466 168.624 136.988 168.747 137.424 168.994C137.859 169.237 138.194 169.559 138.428 169.96C138.662 170.36 138.779 170.792 138.779 171.257C138.779 171.811 138.633 172.283 138.341 172.674C138.053 173.065 137.661 173.335 137.164 173.486V173.563C137.786 173.665 138.271 173.929 138.62 174.355C138.969 174.778 139.144 175.302 139.144 175.926C139.144 176.461 138.998 176.942 138.707 177.368C138.418 177.791 138.024 178.124 137.525 178.367C137.025 178.61 136.457 178.732 135.819 178.732Z" fill="#0F71BB"/>
</svg>
