<svg width="527" height="162" viewBox="0 0 527 162" fill="none" xmlns="http://www.w3.org/2000/svg"><path d="M55 5a4 4 0 0 1 4-4h422a4 4 0 0 1 4 4v152a4 4 0 0 1-4 4H59a4 4 0 0 1-4-4V5Z" fill="#fff"/><path d="M80.138 48V34.91h5.241c.963 0 1.767.142 2.41.427.644.286 1.127.682 1.451 1.19.324.502.486 1.082.486 1.738 0 .511-.102.96-.307 1.349a2.648 2.648 0 0 1-.844.946 3.459 3.459 0 0 1-1.214.517v.128a2.987 2.987 0 0 1 2.467 1.515c.273.465.41 1.019.41 1.662 0 .695-.173 1.315-.519 1.86-.34.541-.845.97-1.514 1.285-.67.315-1.494.473-2.474.473h-5.593Zm2.767-2.263h2.257c.771 0 1.334-.147 1.687-.44.354-.3.531-.695.531-1.19 0-.362-.087-.682-.262-.959a1.78 1.78 0 0 0-.748-.652c-.32-.157-.701-.236-1.144-.236h-2.32v3.477Zm0-5.35h2.052c.38 0 .716-.066 1.01-.198a1.68 1.68 0 0 0 .704-.575 1.5 1.5 0 0 0 .261-.889c0-.473-.168-.854-.504-1.144-.333-.29-.806-.435-1.42-.435h-2.102v3.241Zm11.882 7.798c-.627 0-1.185-.108-1.675-.326a2.696 2.696 0 0 1-1.163-.978c-.282-.434-.422-.975-.422-1.623 0-.546.1-1.004.3-1.375.2-.37.473-.669.818-.894a3.968 3.968 0 0 1 1.177-.512 8.949 8.949 0 0 1 1.393-.243c.571-.06 1.031-.115 1.38-.166.35-.055.604-.136.761-.243a.534.534 0 0 0 .237-.473v-.038c0-.405-.128-.718-.384-.94-.251-.221-.609-.332-1.074-.332-.49 0-.88.109-1.17.326a1.5 1.5 0 0 0-.575.805l-2.518-.204c.128-.597.38-1.113.754-1.547a3.62 3.62 0 0 1 1.451-1.01c.597-.239 1.287-.358 2.071-.358.546 0 1.068.064 1.566.192a4.11 4.11 0 0 1 1.336.594c.392.269.701.614.927 1.036.226.417.339.918.339 1.502V48h-2.582v-1.361h-.077a2.772 2.772 0 0 1-.633.811 2.93 2.93 0 0 1-.952.544c-.371.127-.8.191-1.285.191Zm.78-1.879c.4 0 .754-.079 1.06-.236a1.88 1.88 0 0 0 .723-.652 1.68 1.68 0 0 0 .262-.927v-1.042a1.46 1.46 0 0 1-.352.153 6.403 6.403 0 0 1-.492.122c-.183.034-.366.066-.55.096l-.498.07c-.32.047-.599.121-.837.224a1.34 1.34 0 0 0-.556.415c-.133.17-.199.384-.199.64 0 .37.135.653.403.85.273.191.618.287 1.036.287Zm15.03-5.325-2.492.154a1.3 1.3 0 0 0-.275-.575 1.46 1.46 0 0 0-.556-.416 1.89 1.89 0 0 0-.812-.16c-.422 0-.778.09-1.068.269-.289.175-.434.409-.434.703 0 .234.093.432.281.594.187.162.509.292.965.39l1.777.358c.955.196 1.666.512 2.135.946.469.435.703 1.006.703 1.713a2.67 2.67 0 0 1-.569 1.694c-.375.486-.89.865-1.547 1.138-.652.268-1.404.403-2.256.403-1.3 0-2.335-.27-3.106-.812-.768-.546-1.217-1.287-1.349-2.224l2.678-.141c.081.396.277.699.588.908.311.204.71.306 1.195.306.478 0 .861-.091 1.151-.274.294-.188.443-.429.447-.723a.75.75 0 0 0-.313-.607c-.204-.162-.52-.285-.946-.37l-1.7-.34c-.959-.191-1.673-.524-2.141-.997-.465-.473-.697-1.076-.697-1.809 0-.63.17-1.174.511-1.63.345-.456.829-.807 1.451-1.054.627-.247 1.36-.371 2.199-.371 1.24 0 2.216.262 2.928.786.716.524 1.133 1.238 1.252 2.141ZM112.536 48v-9.818h2.723V48h-2.723Zm1.368-11.084a1.48 1.48 0 0 1-1.042-.402 1.304 1.304 0 0 1-.428-.979c0-.374.142-.696.428-.965.29-.272.637-.409 1.042-.409s.75.137 1.035.41c.29.268.435.59.435.965 0 .379-.145.705-.435.977-.285.269-.63.403-1.035.403Zm7.972 11.276c-1.005 0-1.87-.213-2.595-.64a4.324 4.324 0 0 1-1.662-1.79c-.383-.762-.575-1.64-.575-2.633 0-1.005.194-1.887.582-2.646a4.32 4.32 0 0 1 1.668-1.783c.72-.43 1.577-.646 2.569-.646.857 0 1.607.155 2.25.467a3.759 3.759 0 0 1 1.528 1.31c.375.563.582 1.223.62 1.981h-2.569c-.073-.49-.265-.884-.576-1.182-.307-.303-.709-.454-1.208-.454-.422 0-.79.115-1.106.345-.311.226-.554.556-.728.991-.175.435-.262.961-.262 1.579 0 .626.085 1.159.255 1.598.175.439.42.773.735 1.004.316.23.684.345 1.106.345a1.8 1.8 0 0 0 .838-.192c.251-.128.458-.313.62-.556.166-.247.274-.544.326-.889h2.569c-.042.75-.247 1.41-.613 1.982a3.709 3.709 0 0 1-1.503 1.33c-.639.319-1.395.479-2.269.479Zm10.295 3.49v-13.5h2.684v1.649h.122c.119-.264.292-.533.517-.805.231-.277.529-.508.895-.69.371-.188.831-.282 1.381-.282.716 0 1.376.188 1.982.563.605.37 1.088.93 1.451 1.68.362.746.543 1.682.543 2.807 0 1.095-.177 2.02-.531 2.774-.349.75-.826 1.319-1.431 1.706a3.678 3.678 0 0 1-2.02.576c-.529 0-.978-.088-1.349-.262a2.777 2.777 0 0 1-.901-.659 3.308 3.308 0 0 1-.537-.811h-.083v5.254h-2.723Zm2.665-8.591c0 .584.081 1.093.243 1.528.162.434.396.773.703 1.016.307.239.68.358 1.119.358.443 0 .818-.122 1.125-.364.307-.248.539-.588.696-1.023.162-.44.243-.944.243-1.515 0-.567-.078-1.065-.236-1.496-.158-.43-.39-.767-.697-1.01-.307-.243-.684-.364-1.131-.364-.443 0-.818.117-1.125.351-.303.235-.535.567-.697.998-.162.43-.243.937-.243 1.52Zm11.448-8.182V48h-2.723V34.91h2.723Zm4.981 13.276c-.626 0-1.184-.108-1.674-.326a2.695 2.695 0 0 1-1.164-.978c-.281-.434-.422-.975-.422-1.623 0-.546.1-1.004.301-1.375.2-.37.473-.669.818-.894a3.965 3.965 0 0 1 1.176-.512 8.95 8.95 0 0 1 1.394-.243c.571-.06 1.031-.115 1.38-.166.35-.055.603-.136.761-.243a.533.533 0 0 0 .236-.473v-.038c0-.405-.127-.718-.383-.94-.252-.221-.61-.332-1.074-.332-.49 0-.88.109-1.17.326a1.5 1.5 0 0 0-.575.805l-2.519-.204a3.42 3.42 0 0 1 .755-1.547 3.616 3.616 0 0 1 1.451-1.01c.596-.239 1.287-.358 2.071-.358.545 0 1.067.064 1.566.192a4.11 4.11 0 0 1 1.336.594c.392.269.701.614.927 1.036.225.417.338.918.338 1.502V48h-2.582v-1.361h-.077a2.748 2.748 0 0 1-.633.811c-.264.23-.581.411-.952.544a3.94 3.94 0 0 1-1.285.191Zm.78-1.879c.401 0 .754-.079 1.061-.236.307-.162.548-.38.722-.652a1.68 1.68 0 0 0 .263-.927v-1.042a1.48 1.48 0 0 1-.352.153 6.431 6.431 0 0 1-.492.122 26.37 26.37 0 0 1-.55.096l-.498.07c-.32.047-.599.121-.838.224-.238.102-.424.24-.556.415-.132.17-.198.384-.198.64 0 .37.134.653.403.85.272.191.617.287 1.035.287Zm9.585-3.982V48h-2.723v-9.818h2.595v1.732h.115a2.744 2.744 0 0 1 1.093-1.355c.512-.337 1.132-.505 1.86-.505.682 0 1.277.15 1.784.447a3.04 3.04 0 0 1 1.182 1.279c.281.55.422 1.206.422 1.969V48h-2.723v-5.766c.004-.6-.149-1.07-.46-1.406-.311-.34-.739-.511-1.285-.511-.366 0-.69.079-.972.236a1.65 1.65 0 0 0-.652.69c-.153.299-.232.659-.236 1.08Z" fill="#344054"/><path fill-rule="evenodd" clip-rule="evenodd" d="M442.614 34.614a.75.75 0 0 1 1.061 0l5.303 5.303 5.303-5.303a.752.752 0 0 1 1.281.53c0 .2-.079.39-.22.53l-5.303 5.304 5.303 5.303a.75.75 0 1 1-1.061 1.06l-5.303-5.303-5.303 5.304a.752.752 0 0 1-1.281-.53.75.75 0 0 1 .22-.53l5.303-5.304-5.303-5.303a.749.749 0 0 1 0-1.061Z" fill="#344054"/><path d="M88.046 83.364h1.408v7.704c0 .796-.187 1.506-.562 2.13a3.939 3.939 0 0 1-1.574 1.473c-.678.355-1.473.533-2.386.533s-1.709-.177-2.386-.533a3.98 3.98 0 0 1-1.58-1.472c-.371-.625-.557-1.335-.557-2.13v-7.705h1.41v7.59c0 .569.124 1.074.374 1.518.25.439.606.786 1.068 1.04.466.25 1.023.374 1.67.374.648 0 1.205-.125 1.671-.375a2.64 2.64 0 0 0 1.069-1.04c.25-.443.374-.948.374-1.517v-7.59Zm5.382 6.386V95h-1.341v-8.727h1.295v1.363h.114c.204-.443.515-.799.932-1.068.416-.272.954-.409 1.613-.409.591 0 1.108.121 1.551.364.444.238.788.602 1.034 1.09.247.486.37 1.1.37 1.841V95h-1.341v-5.454c0-.686-.178-1.22-.534-1.603-.356-.386-.845-.58-1.466-.58-.428 0-.81.093-1.148.279a1.993 1.993 0 0 0-.79.813c-.193.356-.29.787-.29 1.295Zm8.018 5.25v-8.727h1.341V95h-1.341Zm.682-10.182a.951.951 0 0 1-.676-.267.857.857 0 0 1-.279-.642c0-.25.093-.464.279-.642a.951.951 0 0 1 .676-.267c.261 0 .485.089.67.267.19.178.284.392.284.642s-.094.464-.284.642a.932.932 0 0 1-.67.267Zm6.91 1.455v1.136h-4.522v-1.136h4.522Zm-3.204-2.091h1.341V92.5c0 .379.055.663.164.852.114.186.258.31.432.375.178.06.366.091.563.091.148 0 .269-.007.363-.022l.228-.046.272 1.204c-.09.035-.217.069-.38.103-.163.038-.37.057-.62.057-.378 0-.75-.082-1.113-.245a2.215 2.215 0 0 1-.898-.744c-.235-.333-.352-.754-.352-1.261v-8.682ZM115.737 95V83.364h3.932c.913 0 1.659.164 2.239.494.583.326 1.015.767 1.295 1.324a4.09 4.09 0 0 1 .421 1.864c0 .685-.141 1.308-.421 1.869-.276.56-.704 1.007-1.284 1.34-.58.33-1.322.495-2.227.495h-2.818V89.5h2.772c.625 0 1.127-.108 1.506-.324a1.93 1.93 0 0 0 .824-.875c.174-.371.261-.79.261-1.255 0-.467-.087-.883-.261-1.25a1.867 1.867 0 0 0-.83-.864c-.382-.212-.89-.318-1.522-.318h-2.478V95h-1.409Zm9.975 0v-8.727h1.295v1.318h.091c.159-.432.447-.782.864-1.051a2.54 2.54 0 0 1 1.409-.404c.098 0 .221.002.369.006s.26.01.335.017v1.364a3.926 3.926 0 0 0-.312-.051 3.08 3.08 0 0 0-.506-.04c-.424 0-.803.089-1.136.267a1.955 1.955 0 0 0-1.068 1.778V95h-1.341Zm5.953 0v-8.727h1.341V95h-1.341Zm.682-10.182a.955.955 0 0 1-.677-.267.86.86 0 0 1-.278-.642.86.86 0 0 1 .278-.642.955.955 0 0 1 .677-.267c.261 0 .484.089.67.267a.851.851 0 0 1 .284.642c0 .25-.095.464-.284.642a.934.934 0 0 1-.67.267Zm6.66 10.364c-.818 0-1.523-.193-2.114-.58a3.781 3.781 0 0 1-1.363-1.596c-.318-.678-.477-1.453-.477-2.324 0-.886.162-1.669.488-2.347.33-.682.788-1.214 1.375-1.596.591-.387 1.28-.58 2.068-.58a3.91 3.91 0 0 1 1.659.341 3.18 3.18 0 0 1 1.211.954c.314.41.509.887.585 1.432h-1.341c-.102-.397-.33-.75-.682-1.056-.348-.311-.818-.466-1.409-.466-.523 0-.981.136-1.375.409-.39.269-.695.65-.915 1.142-.216.488-.324 1.062-.324 1.721 0 .675.107 1.262.319 1.762.216.5.519.888.909 1.165.394.276.856.414 1.386.414.349 0 .665-.06.949-.181a1.96 1.96 0 0 0 .722-.523c.197-.227.337-.5.42-.819h1.341a3.101 3.101 0 0 1-1.739 2.37c-.485.239-1.049.358-1.693.358Zm9.051 0c-.841 0-1.566-.186-2.176-.557a3.733 3.733 0 0 1-1.403-1.568c-.326-.674-.489-1.459-.489-2.353 0-.893.163-1.681.489-2.363.329-.686.788-1.22 1.375-1.602.591-.387 1.28-.58 2.068-.58.454 0 .903.076 1.346.227.444.152.847.398 1.211.739.363.337.653.784.869 1.34.216.558.324 1.243.324 2.058v.568h-6.727v-1.16h5.363c0-.492-.098-.931-.295-1.317a2.225 2.225 0 0 0-.83-.915c-.356-.224-.776-.335-1.261-.335-.534 0-.996.132-1.386.397a2.618 2.618 0 0 0-.893 1.023c-.208.42-.312.871-.312 1.352v.773c0 .66.114 1.218.341 1.676.231.455.551.801.96 1.04.409.235.885.352 1.426.352a2.9 2.9 0 0 0 .955-.148 2.03 2.03 0 0 0 .744-.454c.208-.204.369-.458.483-.761l1.296.363a2.88 2.88 0 0 1-.688 1.16c-.322.329-.72.587-1.193.772a4.43 4.43 0 0 1-1.597.273Zm9.767-12.364-3.75 13.932h-1.227l3.75-13.932h1.227ZM163.915 95v-8.727h1.295v1.363h.114c.182-.465.475-.827.881-1.085.405-.261.892-.392 1.46-.392.576 0 1.055.13 1.437.392.387.258.688.62.904 1.085h.091c.223-.45.558-.808 1.005-1.073.447-.27.983-.404 1.608-.404.781 0 1.419.244 1.915.733.496.485.744 1.24.744 2.267V95h-1.341v-5.84c0-.645-.176-1.105-.528-1.382a1.955 1.955 0 0 0-1.244-.414c-.614 0-1.089.185-1.426.556-.338.368-.506.834-.506 1.398V95h-1.364v-5.977c0-.496-.161-.896-.483-1.2-.322-.306-.736-.46-1.244-.46-.349 0-.674.093-.977.279-.3.186-.542.443-.728.773a2.29 2.29 0 0 0-.272 1.13V95h-1.341Zm17.451.182c-.787 0-1.479-.188-2.073-.563-.591-.375-1.053-.9-1.387-1.573-.329-.675-.494-1.463-.494-2.364 0-.91.165-1.703.494-2.38.334-.679.796-1.205 1.387-1.58.594-.375 1.286-.563 2.073-.563.788 0 1.478.188 2.069.563.594.375 1.056.901 1.386 1.58.333.677.5 1.47.5 2.38 0 .901-.167 1.69-.5 2.364a3.775 3.775 0 0 1-1.386 1.573c-.591.375-1.281.563-2.069.563Zm0-1.205c.599 0 1.091-.153 1.478-.46a2.72 2.72 0 0 0 .858-1.21c.185-.5.278-1.042.278-1.625 0-.584-.093-1.127-.278-1.63a2.755 2.755 0 0 0-.858-1.223c-.387-.31-.879-.465-1.478-.465-.598 0-1.09.155-1.477.465a2.757 2.757 0 0 0-.858 1.222 4.695 4.695 0 0 0-.278 1.63c0 .584.093 1.126.278 1.626.186.5.472.903.858 1.21.387.307.879.46 1.477.46Zm7.343-4.227V95h-1.341v-8.727h1.295v1.363h.114c.205-.443.515-.799.932-1.068.416-.272.954-.409 1.613-.409.591 0 1.108.121 1.552.364.443.238.787.602 1.034 1.09.246.486.369 1.1.369 1.841V95h-1.341v-5.454c0-.686-.178-1.22-.534-1.603-.356-.386-.845-.58-1.466-.58a2.34 2.34 0 0 0-1.148.279 1.992 1.992 0 0 0-.789.813c-.194.356-.29.787-.29 1.295Zm11.814-3.477v1.136H196v-1.136h4.523Zm-3.205-2.091h1.341V92.5c0 .379.055.663.165.852.114.186.257.31.432.375.178.06.365.091.562.091.148 0 .269-.007.364-.022l.227-.046.273 1.204a2.733 2.733 0 0 1-.381.103 2.8 2.8 0 0 1-.619.057 2.7 2.7 0 0 1-1.114-.245 2.215 2.215 0 0 1-.898-.744c-.234-.333-.352-.754-.352-1.261v-8.682Zm6.75 5.568V95h-1.341V83.364h1.341v4.272h.114c.204-.45.511-.808.92-1.073.413-.27.962-.404 1.648-.404.595 0 1.116.12 1.562.358a2.41 2.41 0 0 1 1.04 1.085c.25.485.375 1.102.375 1.852V95h-1.341v-5.454c0-.694-.18-1.23-.539-1.609-.356-.382-.851-.573-1.483-.573-.44 0-.834.092-1.182.278a2.028 2.028 0 0 0-.818.813c-.197.356-.296.787-.296 1.295ZM83.852 128.455v-14.546h.932v14.546h-.932Zm2.472-9.745c-.046-.458-.24-.814-.585-1.068-.345-.254-.813-.381-1.404-.381-.401 0-.74.057-1.017.171a1.43 1.43 0 0 0-.636.46c-.144.197-.216.42-.216.67a.957.957 0 0 0 .13.546c.1.155.233.29.404.403.17.11.367.207.59.29.224.08.463.148.717.205l1.045.25c.508.113.974.265 1.398.454.424.19.792.423 1.102.699.31.277.551.602.722.977.174.375.263.805.267 1.29-.004.712-.186 1.33-.545 1.852-.357.519-.872.923-1.546 1.211-.67.284-1.48.426-2.426.426-.94 0-1.758-.144-2.455-.432-.693-.288-1.234-.714-1.625-1.278-.386-.569-.589-1.271-.608-2.108h2.381c.027.39.138.715.335.977.201.257.468.453.801.585.337.129.718.193 1.142.193.417 0 .779-.06 1.086-.182.31-.121.55-.289.721-.505.17-.216.256-.464.256-.745a.967.967 0 0 0-.233-.659c-.151-.178-.375-.329-.67-.454a6.787 6.787 0 0 0-1.074-.341l-1.267-.318c-.981-.239-1.756-.612-2.324-1.12-.568-.507-.85-1.191-.847-2.051-.004-.704.184-1.32.563-1.846.382-.527.907-.938 1.573-1.233.667-.296 1.425-.443 2.273-.443.864 0 1.618.147 2.262.443.647.295 1.151.706 1.511 1.233.36.526.546 1.136.557 1.829h-2.358Zm8.354 8.449c-.803 0-1.52-.148-2.148-.443a3.748 3.748 0 0 1-1.489-1.222 3.137 3.137 0 0 1-.574-1.784h2.387c.026.451.216.817.568 1.097s.77.42 1.256.42a2.01 2.01 0 0 0 1.022-.255c.3-.175.532-.415.7-.722a2.19 2.19 0 0 0 .255-1.068c0-.409-.087-.769-.261-1.08a1.849 1.849 0 0 0-.71-.727 2.095 2.095 0 0 0-1.04-.267c-.341 0-.673.07-.995.21a1.8 1.8 0 0 0-.744.574l-2.188-.392.552-6.136h7.113v2.011h-5.085l-.301 2.915h.068c.205-.288.513-.527.926-.716.413-.19.875-.284 1.386-.284.701 0 1.326.165 1.875.494.55.33.983.782 1.302 1.358.318.572.475 1.231.471 1.977.004.784-.178 1.481-.545 2.091a3.843 3.843 0 0 1-1.529 1.432c-.651.345-1.409.517-2.272.517Zm10.625.097c-.978-.004-1.819-.245-2.523-.722-.701-.477-1.241-1.168-1.619-2.074-.375-.905-.561-1.994-.557-3.267 0-1.269.187-2.35.562-3.244.379-.894.919-1.574 1.62-2.04.704-.47 1.543-.704 2.517-.704.973 0 1.81.234 2.511.704.704.47 1.246 1.152 1.625 2.046.379.89.566 1.969.562 3.238 0 1.277-.189 2.368-.568 3.273-.375.905-.913 1.596-1.613 2.074-.701.477-1.54.716-2.517.716Zm0-2.04c.666 0 1.198-.335 1.596-1.006.398-.67.595-1.676.591-3.017 0-.882-.091-1.617-.273-2.204-.178-.587-.431-1.029-.761-1.324a1.658 1.658 0 0 0-1.153-.443c-.663 0-1.194.331-1.591.994-.398.663-.599 1.655-.603 2.977 0 .894.089 1.64.267 2.239.182.595.438 1.041.767 1.341.33.295.716.443 1.16.443Zm11.015 2.04c-.977-.004-1.818-.245-2.523-.722-.7-.477-1.24-1.168-1.619-2.074-.375-.905-.56-1.994-.557-3.267 0-1.269.188-2.35.563-3.244.379-.894.918-1.574 1.619-2.04.705-.47 1.544-.704 2.517-.704.974 0 1.811.234 2.512.704.704.47 1.246 1.152 1.625 2.046.378.89.566 1.969.562 3.238 0 1.277-.189 2.368-.568 3.273-.375.905-.913 1.596-1.614 2.074-.701.477-1.54.716-2.517.716Zm0-2.04c.667 0 1.199-.335 1.597-1.006.398-.67.594-1.676.591-3.017 0-.882-.091-1.617-.273-2.204-.178-.587-.432-1.029-.761-1.324a1.66 1.66 0 0 0-1.154-.443c-.663 0-1.193.331-1.591.994-.397.663-.598 1.655-.602 2.977 0 .894.089 1.64.267 2.239.182.595.438 1.041.767 1.341.33.295.716.443 1.159.443Zm7.422 1.932c-.375 0-.697-.133-.966-.398a1.328 1.328 0 0 1-.398-.966c0-.371.133-.689.398-.954.269-.266.591-.398.966-.398.364 0 .682.132.955.398.272.265.409.583.409.954 0 .25-.065.479-.193.688-.125.204-.29.369-.495.494-.204.121-.43.182-.676.182Zm7.422.108c-.977-.004-1.818-.245-2.523-.722-.701-.477-1.24-1.168-1.619-2.074-.375-.905-.561-1.994-.557-3.267 0-1.269.188-2.35.563-3.244.378-.894.918-1.574 1.619-2.04.704-.47 1.543-.704 2.517-.704.973 0 1.811.234 2.511.704.705.47 1.247 1.152 1.625 2.046.379.89.567 1.969.563 3.238 0 1.277-.19 2.368-.568 3.273-.375.905-.913 1.596-1.614 2.074-.701.477-1.54.716-2.517.716Zm0-2.04c.667 0 1.199-.335 1.597-1.006.397-.67.594-1.676.59-3.017 0-.882-.09-1.617-.272-2.204-.178-.587-.432-1.029-.762-1.324a1.656 1.656 0 0 0-1.153-.443c-.663 0-1.193.331-1.591.994-.398.663-.598 1.655-.602 2.977 0 .894.089 1.64.267 2.239.182.595.437 1.041.767 1.341.329.295.716.443 1.159.443Zm11.016 2.04c-.978-.004-1.819-.245-2.523-.722-.701-.477-1.241-1.168-1.619-2.074-.375-.905-.561-1.994-.557-3.267 0-1.269.187-2.35.562-3.244.379-.894.919-1.574 1.62-2.04.704-.47 1.543-.704 2.517-.704.973 0 1.81.234 2.511.704.704.47 1.246 1.152 1.625 2.046.379.89.566 1.969.562 3.238 0 1.277-.189 2.368-.568 3.273-.375.905-.913 1.596-1.613 2.074-.701.477-1.54.716-2.517.716Zm0-2.04c.666 0 1.198-.335 1.596-1.006.398-.67.595-1.676.591-3.017 0-.882-.091-1.617-.273-2.204-.178-.587-.431-1.029-.761-1.324a1.658 1.658 0 0 0-1.153-.443c-.663 0-1.194.331-1.591.994-.398.663-.599 1.655-.603 2.977 0 .894.089 1.64.267 2.239.182.595.438 1.041.767 1.341.33.295.716.443 1.16.443Z" fill="#344054"/><path d="M356.681 84v-.5h-33.319a4.5 4.5 0 0 0-4.5 4.5v34a4.5 4.5 0 0 0 4.5 4.5h33.319V84Z" fill="#5925DC"/><path fill-rule="evenodd" clip-rule="evenodd" d="M342.579 105a.417.417 0 0 1-.117.291.396.396 0 0 1-.283.121h-8.814a.396.396 0 0 1-.283-.121.417.417 0 0 1 0-.582.396.396 0 0 1 .283-.121h8.814c.106 0 .208.044.283.121a.417.417 0 0 1 .117.291Z" fill="#fff"/><path d="M356.681 84v-.5h-33.319a4.5 4.5 0 0 0-4.5 4.5v34a4.5 4.5 0 0 0 4.5 4.5h33.319V84Z" stroke="#98A2B3"/><path d="M390.153 111.159c-.849 0-1.605-.146-2.268-.437-.659-.296-1.179-.701-1.562-1.216a3.054 3.054 0 0 1-.585-1.796h2.477c.015.284.108.534.278.75.175.212.406.377.694.495.287.117.611.176.971.176.375 0 .707-.067.995-.199.287-.133.513-.316.676-.551a1.39 1.39 0 0 0 .244-.813c0-.31-.087-.585-.261-.824a1.675 1.675 0 0 0-.739-.568c-.318-.136-.697-.204-1.136-.204h-1.086v-1.807h1.086c.371 0 .698-.065.983-.193.287-.129.511-.307.67-.534.159-.232.239-.5.239-.807 0-.292-.07-.548-.211-.767a1.382 1.382 0 0 0-.579-.523 1.884 1.884 0 0 0-.864-.188c-.333 0-.638.061-.915.182a1.599 1.599 0 0 0-.664.506c-.167.22-.256.477-.267.773h-2.358c.011-.671.202-1.262.574-1.773.371-.511.871-.911 1.5-1.199.632-.292 1.346-.438 2.142-.438.803 0 1.505.146 2.108.438.602.292 1.07.686 1.403 1.182.337.492.504 1.045.5 1.659.004.651-.199 1.195-.608 1.631-.405.435-.934.712-1.585.829v.091c.856.11 1.507.407 1.954.892.451.481.675 1.083.671 1.807a2.84 2.84 0 0 1-.574 1.767c-.383.515-.911.92-1.585 1.216-.675.295-1.447.443-2.318.443Z" fill="#344054"/><path stroke="#98A2B3" d="M356.682 83.5h67v43h-67z"/><path d="M424.182 83.5h-.5v43h33.319a4.5 4.5 0 0 0 4.5-4.5V88a4.5 4.5 0 0 0-4.5-4.5h-32.819Z" fill="#5925DC"/><path d="M449.001 111.588h-8.819a4 4 0 0 1-4-4v-5.176a4 4 0 0 1 4-4h8.819v13.176Z" fill="#5925DC"/><path fill-rule="evenodd" clip-rule="evenodd" d="M442.591 109.941a.395.395 0 0 1-.283-.12.42.42 0 0 1-.117-.292v-4.117h-4.006a.396.396 0 0 1-.283-.121.414.414 0 0 1-.118-.291c0-.109.042-.214.118-.291a.396.396 0 0 1 .283-.121h4.006v-4.117a.42.42 0 0 1 .117-.292.395.395 0 0 1 .567 0 .42.42 0 0 1 .117.292v4.117h4.006c.106 0 .208.044.283.121a.417.417 0 0 1 0 .582.396.396 0 0 1-.283.121h-4.006v4.117a.42.42 0 0 1-.117.292.397.397 0 0 1-.284.12Z" fill="#fff"/><path d="M424.182 83.5h-.5v43h33.319a4.5 4.5 0 0 0 4.5-4.5V88a4.5 4.5 0 0 0-4.5-4.5h-32.819Z" stroke="#98A2B3"/><path d="M59 2h422V0H59v2Zm425 3v152h2V5h-2Zm-3 155H59v2h422v-2Zm-425-3V5h-2v152h2Zm3 3a3 3 0 0 1-3-3h-2a5 5 0 0 0 5 5v-2Zm425-3a3 3 0 0 1-3 3v2a5 5 0 0 0 5-5h-2ZM481 2a3 3 0 0 1 3 3h2a5 5 0 0 0-5-5v2ZM59 0a5 5 0 0 0-5 5h2a3 3 0 0 1 3-3V0Z" fill="#98A2B3"/><path d="M24 120h53" stroke="#000" stroke-dasharray="2 2"/><circle cx="12" cy="120" r="12" fill="#344054"/><path d="M8.193 126v-1.773l4.142-3.835c.352-.341.648-.648.887-.92.242-.273.426-.54.55-.802.126-.265.188-.551.188-.858 0-.34-.077-.634-.233-.88a1.533 1.533 0 0 0-.636-.574 2 2 0 0 0-.915-.205c-.356 0-.667.072-.932.216a1.49 1.49 0 0 0-.613.62c-.144.269-.216.589-.216.96H8.08c0-.762.172-1.422.517-1.983a3.451 3.451 0 0 1 1.449-1.301c.62-.307 1.337-.46 2.147-.46.834 0 1.559.147 2.176.443.622.291 1.104.697 1.45 1.216.344.519.516 1.113.516 1.784 0 .439-.087.873-.261 1.301-.17.428-.476.903-.915 1.426-.44.519-1.059 1.142-1.858 1.869l-1.699 1.665v.08h4.887V126H8.193Z" fill="#fff"/><path d="M515 103h-54" stroke="#000" stroke-dasharray="2 2"/><circle cx="515" cy="103" r="12" fill="#344054"/><path d="M516.256 97.364V109h-2.461v-9.301h-.068l-2.665 1.67v-2.181l2.881-1.824h2.313Z" fill="#fff"/></svg>