<svg width="531" height="274" viewBox="0 0 531 274" fill="none" xmlns="http://www.w3.org/2000/svg"><g clip-path="url(#a)"><path d="M55 5a4 4 0 0 1 4-4h422a4 4 0 0 1 4 4v264a4 4 0 0 1-4 4H59a4 4 0 0 1-4-4V5Z" fill="#fff"/><path fill-rule="evenodd" clip-rule="evenodd" d="M85.431 46.569A7.875 7.875 0 1 0 96.57 35.43a7.875 7.875 0 0 0-11.14 11.139Zm11.933.795a9 9 0 1 1-12.728-12.729 9 9 0 0 1 12.728 12.729Zm-11.409-1.34a7.073 7.073 0 0 1-.077-9.924l10.001 10a7.073 7.073 0 0 1-9.924-.078Z" fill="#344054"/><path d="M135.918 38.656h-3.733a3.672 3.672 0 0 0-.418-1.287 3.27 3.27 0 0 0-.81-.971 3.557 3.557 0 0 0-1.142-.614 4.368 4.368 0 0 0-1.389-.213c-.903 0-1.69.224-2.361.673-.67.444-1.19 1.091-1.559 1.944-.37.846-.554 1.874-.554 3.085 0 1.244.184 2.29.554 3.136.375.847.897 1.486 1.568 1.918.67.431 1.446.647 2.327.647.494 0 .951-.065 1.372-.196a3.6 3.6 0 0 0 1.133-.57c.33-.256.603-.566.818-.93a3.62 3.62 0 0 0 .461-1.244l3.733.017a6.749 6.749 0 0 1-.725 2.318c-.38.739-.895 1.4-1.542 1.986-.642.58-1.41 1.04-2.302 1.38-.886.336-1.889.504-3.008.504-1.557 0-2.949-.353-4.176-1.057-1.222-.705-2.188-1.725-2.898-3.06-.705-1.335-1.057-2.952-1.057-4.85 0-1.903.358-3.522 1.074-4.857.716-1.335 1.688-2.352 2.915-3.051 1.227-.705 2.608-1.057 4.142-1.057a8.95 8.95 0 0 1 2.812.426 7.12 7.12 0 0 1 2.31 1.244 6.387 6.387 0 0 1 1.636 1.986c.427.784.699 1.682.819 2.693Zm6.311 11.591c-.836 0-1.58-.145-2.233-.434a3.587 3.587 0 0 1-1.551-1.305c-.375-.579-.563-1.3-.563-2.164 0-.727.134-1.338.401-1.833.267-.494.63-.892 1.091-1.193a5.29 5.29 0 0 1 1.568-.682c.591-.153 1.21-.261 1.858-.324a46.616 46.616 0 0 0 1.841-.221c.466-.074.804-.182 1.014-.324.21-.142.315-.352.315-.63v-.052c0-.54-.17-.957-.511-1.253-.335-.295-.813-.443-1.432-.443-.653 0-1.173.145-1.56.435a2.002 2.002 0 0 0-.767 1.074l-3.358-.273a4.57 4.57 0 0 1 1.006-2.063c.5-.585 1.145-1.034 1.935-1.346.795-.318 1.716-.477 2.761-.477a8.38 8.38 0 0 1 2.088.255c.671.17 1.264.435 1.781.793a3.85 3.85 0 0 1 1.236 1.38c.301.557.452 1.225.452 2.003V50h-3.443v-1.815h-.103c-.21.409-.491.77-.843 1.082a3.916 3.916 0 0 1-1.27.724c-.495.17-1.066.256-1.713.256Zm1.039-2.505c.535 0 1.006-.106 1.415-.316.409-.216.73-.506.963-.87.233-.363.35-.775.35-1.235v-1.39a1.95 1.95 0 0 1-.469.205 8.55 8.55 0 0 1-.656.162c-.245.046-.489.088-.733.128l-.665.094a4.485 4.485 0 0 0-1.116.298 1.781 1.781 0 0 0-.742.554c-.176.227-.264.511-.264.852 0 .495.179.873.537 1.134.363.256.824.384 1.38.384Zm9.15 2.258V36.91h3.52v2.283h.136c.239-.812.639-1.426 1.202-1.84a3.154 3.154 0 0 1 1.943-.631 5.414 5.414 0 0 1 1.142.127v3.222a4.742 4.742 0 0 0-.708-.136 6.339 6.339 0 0 0-.826-.06c-.534 0-1.012.117-1.432.35a2.577 2.577 0 0 0-.989.954c-.238.41-.358.88-.358 1.415V50h-3.63Zm14.034.213a4.94 4.94 0 0 1-2.701-.767c-.801-.517-1.438-1.276-1.909-2.276-.466-1.005-.699-2.238-.699-3.698 0-1.5.241-2.748.724-3.742.483-1 1.125-1.747 1.926-2.241.807-.5 1.691-.75 2.651-.75.733 0 1.344.125 1.832.375.495.244.892.55 1.193.92.307.364.54.722.699 1.074h.111v-6.563h3.622V50h-3.579v-2.097h-.154c-.17.364-.412.725-.724 1.083a3.601 3.601 0 0 1-1.202.878c-.488.233-1.085.35-1.79.35Zm1.151-2.89c.585 0 1.08-.158 1.483-.476.409-.324.722-.776.937-1.355.222-.58.333-1.259.333-2.037 0-.779-.108-1.455-.324-2.029-.216-.574-.528-1.017-.938-1.33-.409-.312-.906-.468-1.491-.468-.597 0-1.099.162-1.509.486-.409.324-.718.772-.929 1.346-.21.574-.315 1.239-.315 1.995 0 .76.105 1.434.315 2.02.216.579.526 1.033.929 1.363.41.324.912.486 1.509.486Zm21.801-10.414v2.727h-7.883V36.91h7.883Zm-6.094-3.136h3.631v12.204c0 .336.051.597.153.784a.85.85 0 0 0 .427.384c.187.074.403.11.647.11.171 0 .341-.014.512-.042l.392-.077.571 2.702c-.182.057-.438.122-.767.196-.33.08-.73.128-1.202.145-.875.034-1.642-.082-2.301-.35a3.212 3.212 0 0 1-1.526-1.244c-.363-.562-.542-1.273-.537-2.13V33.773ZM191.769 50V36.91h3.631V50h-3.631Zm1.824-14.778c-.54 0-1.003-.18-1.389-.537-.381-.364-.571-.799-.571-1.304 0-.5.19-.93.571-1.287a1.954 1.954 0 0 1 1.389-.546c.54 0 1 .182 1.381.546.386.358.579.787.579 1.287 0 .505-.193.94-.579 1.304a1.944 1.944 0 0 1-1.381.537Zm11.678 1.687v2.727h-7.883V36.91h7.883Zm-6.093-3.136h3.63v12.204c0 .336.051.597.154.784.102.182.244.31.426.384.187.074.403.11.648.11.17 0 .34-.014.511-.042l.392-.077.571 2.702c-.182.057-.438.122-.767.196-.33.08-.73.128-1.202.145-.875.034-1.642-.082-2.301-.35a3.217 3.217 0 0 1-1.526-1.244c-.363-.562-.542-1.273-.536-2.13V33.773Zm12.37-1.228V50h-3.63V32.545h3.63Zm8.875 17.71c-1.347 0-2.506-.272-3.478-.818a5.604 5.604 0 0 1-2.233-2.335c-.522-1.011-.784-2.207-.784-3.588 0-1.346.262-2.528.784-3.545a5.798 5.798 0 0 1 2.208-2.378c.954-.568 2.074-.852 3.358-.852.863 0 1.667.139 2.412.417a5.35 5.35 0 0 1 1.96 1.236c.562.551 1 1.244 1.312 2.08.313.83.469 1.8.469 2.914v.997h-11.054v-2.25h7.636c0-.522-.113-.985-.34-1.389a2.45 2.45 0 0 0-.946-.946c-.398-.233-.861-.35-1.39-.35-.551 0-1.039.129-1.466.384-.42.25-.75.588-.988 1.015-.239.42-.361.889-.367 1.406v2.14c0 .647.12 1.206.358 1.678a2.62 2.62 0 0 0 1.032 1.09c.443.257.968.384 1.576.384a3.42 3.42 0 0 0 1.108-.17c.335-.114.622-.284.861-.511.239-.228.42-.506.545-.836l3.358.222a4.575 4.575 0 0 1-1.048 2.114c-.523.596-1.199 1.062-2.028 1.397-.824.33-1.776.495-2.855.495Z" fill="#344054"/><path d="M392 33a4 4 0 0 1 4-4h61a4 4 0 0 1 4 4v16a4 4 0 0 1-4 4h-61a4 4 0 0 1-4-4V33Z" fill="#0A8217"/><path d="M410.408 38.746c-.039-.4-.21-.712-.512-.934-.301-.222-.711-.333-1.228-.333-.351 0-.648.05-.89.149-.242.096-.427.23-.556.403a.969.969 0 0 0-.189.586.834.834 0 0 0 .114.477c.086.136.204.254.353.353.149.097.321.181.517.254.196.07.404.13.626.179l.915.219c.444.1.852.232 1.223.398.371.165.693.369.965.611s.482.527.631.855c.153.328.23.704.234 1.129-.004.623-.163 1.163-.477 1.62-.312.454-.763.807-1.353 1.06-.586.248-1.294.372-2.123.372-.822 0-1.537-.126-2.147-.378-.607-.252-1.081-.624-1.422-1.118-.338-.497-.516-1.112-.532-1.845h2.083c.023.342.121.627.293.855.176.226.41.396.701.512.295.113.628.17 1 .17.364 0 .681-.054.949-.16a1.45 1.45 0 0 0 .631-.442c.15-.189.224-.406.224-.651a.846.846 0 0 0-.204-.577c-.132-.156-.328-.288-.586-.398a5.98 5.98 0 0 0-.94-.298l-1.109-.279c-.858-.208-1.536-.535-2.033-.979-.497-.444-.744-1.042-.741-1.795-.003-.616.161-1.155.492-1.615.335-.461.794-.82 1.378-1.08.583-.258 1.246-.387 1.988-.387.756 0 1.415.13 1.979.388.567.258 1.008.618 1.322 1.079.315.46.478.994.488 1.6h-2.064Zm7.673-.382v1.59h-4.599v-1.59h4.599Zm-3.555-1.83h2.118v7.12c0 .195.03.347.089.457a.5.5 0 0 0 .249.224c.109.043.235.064.378.064.099 0 .199-.008.298-.025.1-.02.176-.035.229-.044l.333 1.576a5.992 5.992 0 0 1-.447.114 3.593 3.593 0 0 1-.701.084c-.511.02-.958-.048-1.343-.203a1.874 1.874 0 0 1-.89-.726c-.212-.328-.316-.743-.313-1.243v-7.398Zm7.112 9.61c-.487 0-.921-.084-1.303-.253a2.095 2.095 0 0 1-.904-.761c-.219-.338-.329-.759-.329-1.263 0-.424.078-.78.234-1.069.156-.288.368-.52.636-.696.269-.175.574-.308.915-.397.345-.09.706-.153 1.084-.19.444-.046.802-.089 1.074-.129.272-.043.469-.106.592-.189a.416.416 0 0 0 .183-.367v-.03c0-.315-.099-.559-.298-.731-.195-.172-.474-.259-.835-.259-.381 0-.684.085-.91.254a1.169 1.169 0 0 0-.447.626l-1.959-.159c.099-.464.295-.865.587-1.203a2.808 2.808 0 0 1 1.128-.785c.464-.186 1.001-.279 1.611-.279.424 0 .83.05 1.218.15.391.099.737.253 1.039.462.305.209.545.477.721.805.176.325.263.714.263 1.168V46h-2.008v-1.059h-.06c-.122.239-.286.45-.492.631-.205.18-.452.32-.741.423-.288.1-.621.15-.999.15Zm.606-1.462c.312 0 .587-.06.826-.183.238-.126.426-.295.562-.508.135-.212.203-.452.203-.72v-.81a1.126 1.126 0 0 1-.273.119c-.113.033-.24.064-.383.094-.142.026-.285.051-.427.075l-.388.054a2.6 2.6 0 0 0-.651.174c-.186.08-.33.188-.433.323a.786.786 0 0 0-.154.498c0 .288.104.508.313.66.212.15.481.224.805.224Zm9.399-6.318v1.59h-4.598v-1.59h4.598Zm-3.554-1.83h2.117v7.12c0 .195.03.347.09.457a.5.5 0 0 0 .249.224c.109.043.235.064.377.064.1 0 .199-.008.299-.025.099-.02.175-.035.228-.044l.333 1.576a5.992 5.992 0 0 1-.447.114 3.583 3.583 0 0 1-.701.084c-.51.02-.958-.048-1.342-.203a1.874 1.874 0 0 1-.89-.726c-.212-.328-.317-.743-.313-1.243v-7.398Zm9.831 6.215v-4.385h2.118V46h-2.034v-1.387h-.079a2.253 2.253 0 0 1-.86 1.079c-.398.272-.883.407-1.457.407-.51 0-.959-.116-1.347-.348a2.393 2.393 0 0 1-.91-.989c-.215-.428-.325-.94-.328-1.536v-4.862h2.118v4.484c.003.45.124.807.363 1.069.238.262.558.393.959.393.255 0 .494-.058.716-.174.222-.12.401-.295.537-.527.139-.232.207-.519.204-.86Zm10.166-2.208-1.939.12a1.005 1.005 0 0 0-.214-.448 1.134 1.134 0 0 0-.433-.323 1.467 1.467 0 0 0-.631-.124c-.328 0-.605.07-.83.208-.226.136-.338.319-.338.547a.59.59 0 0 0 .218.463c.146.126.396.227.751.303l1.382.278c.743.153 1.296.398 1.661.736.364.338.547.782.547 1.332 0 .501-.148.94-.443 1.318-.292.378-.693.673-1.203.885-.507.209-1.092.313-1.755.313-1.011 0-1.816-.21-2.416-.631a2.46 2.46 0 0 1-1.049-1.73l2.083-.11c.063.309.215.544.457.706.242.16.552.239.93.239.371 0 .669-.071.895-.214.229-.146.345-.333.348-.562a.584.584 0 0 0-.244-.472c-.159-.126-.404-.222-.736-.288l-1.322-.264c-.746-.149-1.301-.407-1.665-.775-.362-.368-.542-.837-.542-1.407 0-.49.132-.913.397-1.268.269-.355.645-.628 1.129-.82.487-.193 1.057-.289 1.71-.289.965 0 1.724.204 2.277.612.557.407.882.963.975 1.665Z" fill="#fff"/><path d="M79.773 84.614v-1.25H88.5v1.25h-3.66V95h-1.408V84.614h-3.66Zm12.06 5.136V95h-1.34V83.364h1.34v4.272h.114c.205-.45.512-.808.92-1.073.414-.27.963-.404 1.649-.404.594 0 1.115.12 1.562.358a2.41 2.41 0 0 1 1.04 1.085c.25.485.375 1.103.375 1.853V95h-1.341v-5.454c0-.694-.18-1.23-.54-1.609-.356-.382-.85-.573-1.483-.573-.44 0-.833.093-1.182.278a2.034 2.034 0 0 0-.818.813c-.197.356-.295.787-.295 1.295Zm11.772 5.432c-.841 0-1.566-.186-2.176-.557a3.733 3.733 0 0 1-1.403-1.568c-.326-.674-.49-1.459-.49-2.352 0-.894.164-1.682.49-2.364.329-.686.787-1.22 1.375-1.602.59-.387 1.28-.58 2.068-.58.454 0 .903.076 1.346.227.444.152.847.398 1.211.739.363.337.653.784.869 1.34.216.558.324 1.243.324 2.058v.568h-6.728v-1.16h5.364a2.86 2.86 0 0 0-.295-1.317 2.232 2.232 0 0 0-.83-.915c-.356-.224-.776-.335-1.261-.335-.534 0-.996.132-1.387.397a2.624 2.624 0 0 0-.892 1.023c-.208.42-.312.871-.312 1.352v.773c0 .66.113 1.218.341 1.676.231.455.551.801.96 1.04.409.235.884.352 1.426.352.352 0 .671-.049.955-.147.288-.103.536-.254.744-.455.208-.204.369-.458.483-.761l1.295.363a2.87 2.87 0 0 1-.687 1.16c-.322.329-.72.587-1.193.772a4.43 4.43 0 0 1-1.597.273Zm16.108 3.09V93.66h-.114a8.34 8.34 0 0 1-.42.602c-.182.239-.441.453-.778.642-.338.186-.786.279-1.347.279-.727 0-1.369-.184-1.926-.551-.557-.371-.993-.894-1.307-1.569-.314-.677-.472-1.479-.472-2.403 0-.917.158-1.712.472-2.386.314-.674.752-1.195 1.313-1.563.56-.367 1.208-.55 1.943-.55.568 0 1.017.094 1.346.283.334.186.587.398.762.637.178.234.316.428.414.58h.16v-1.387h1.295v12h-1.341Zm-2.477-4.295c.538 0 .992-.14 1.363-.42.372-.284.654-.676.847-1.176.193-.504.29-1.085.29-1.745 0-.651-.095-1.221-.284-1.71-.19-.492-.47-.875-.841-1.148-.371-.276-.83-.414-1.375-.414-.568 0-1.042.145-1.421.437-.375.288-.657.68-.846 1.176a4.666 4.666 0 0 0-.279 1.66c0 .62.095 1.185.284 1.693.194.503.478.905.853 1.204.378.296.848.443 1.409.443Zm11.773-2.545v-5.16h1.34V95h-1.34v-1.477h-.091c-.205.443-.523.82-.955 1.13-.432.307-.977.46-1.636.46-.546 0-1.031-.119-1.455-.357-.424-.243-.757-.606-1-1.091-.242-.489-.363-1.104-.363-1.847v-5.545h1.34v5.454c0 .637.178 1.144.535 1.523.359.379.818.568 1.375.568a2.29 2.29 0 0 0 1.017-.255c.348-.17.64-.432.875-.785.238-.352.358-.8.358-1.346ZM132.805 95v-8.727h1.341V95h-1.341Zm.682-10.182a.953.953 0 0 1-.676-.267.856.856 0 0 1-.278-.642c0-.25.092-.464.278-.642a.953.953 0 0 1 .676-.267c.262 0 .485.089.671.267a.851.851 0 0 1 .284.642c0 .25-.095.464-.284.642a.935.935 0 0 1-.671.267Zm6.661 10.364c-.818 0-1.523-.193-2.114-.58a3.783 3.783 0 0 1-1.364-1.596c-.318-.678-.477-1.453-.477-2.324 0-.886.163-1.669.489-2.347.329-.682.788-1.214 1.375-1.596.591-.387 1.28-.58 2.068-.58a3.91 3.91 0 0 1 1.659.341 3.17 3.17 0 0 1 1.21.955c.315.409.51.886.586 1.431h-1.341c-.103-.397-.33-.75-.682-1.056-.349-.311-.818-.466-1.409-.466-.523 0-.981.136-1.375.409-.39.269-.695.65-.915 1.142-.216.488-.324 1.062-.324 1.721 0 .675.106 1.262.318 1.762.216.5.519.888.909 1.165.394.276.856.414 1.387.414a2.4 2.4 0 0 0 .949-.181c.284-.122.524-.296.721-.523.197-.227.337-.5.421-.818h1.341a3.114 3.114 0 0 1-.563 1.392 3.133 3.133 0 0 1-1.176.977c-.485.239-1.049.358-1.693.358Zm6.642-3.364-.023-1.659h.273l3.818-3.886h1.659l-4.068 4.113h-.114l-1.545 1.432ZM145.54 95V83.364h1.341V95h-1.341Zm5.545 0-3.409-4.318.955-.932L152.79 95h-1.705Zm5.158-1.59-.091.613c-.064.432-.163.894-.295 1.386a26.55 26.55 0 0 1-.404 1.392c-.14.436-.256.782-.346 1.04h-1.023l.193-.96c.08-.398.159-.843.239-1.335.083-.49.151-.99.204-1.5l.068-.637h1.455Zm7.166 1.59V83.364h1.341v4.295h.114c.098-.151.234-.345.409-.58.178-.238.432-.45.761-.636.333-.19.784-.284 1.352-.284.735 0 1.383.184 1.944.551.56.368.998.889 1.312 1.563.314.674.472 1.47.472 2.386 0 .924-.158 1.725-.472 2.403-.314.675-.75 1.198-1.307 1.569-.557.367-1.199.55-1.926.55-.561 0-1.009-.092-1.347-.278-.337-.189-.596-.403-.778-.642a8.34 8.34 0 0 1-.42-.602h-.159V95h-1.296Zm1.318-4.364c0 .66.097 1.24.29 1.745.193.5.475.892.847 1.176.371.28.825.42 1.363.42.561 0 1.029-.147 1.404-.443.378-.3.663-.7.852-1.204.193-.508.29-1.072.29-1.694a4.6 4.6 0 0 0-.284-1.659c-.186-.496-.468-.888-.847-1.176-.375-.291-.847-.437-1.415-.437-.545 0-1.004.138-1.375.414-.371.273-.651.656-.841 1.148-.189.489-.284 1.059-.284 1.71ZM173.165 95v-8.727h1.295v1.318h.091c.159-.432.447-.782.864-1.051a2.54 2.54 0 0 1 1.409-.404c.098 0 .221.002.369.006s.26.01.335.017v1.364a3.926 3.926 0 0 0-.312-.051 3.08 3.08 0 0 0-.506-.04c-.424 0-.803.089-1.136.267a1.954 1.954 0 0 0-1.068 1.778V95h-1.341Zm9.233.182c-.788 0-1.479-.188-2.074-.563-.591-.375-1.053-.9-1.386-1.573-.33-.675-.495-1.463-.495-2.364 0-.91.165-1.703.495-2.38.333-.679.795-1.205 1.386-1.58.595-.375 1.286-.563 2.074-.563.788 0 1.477.188 2.068.563.595.375 1.057.901 1.386 1.58.334.677.5 1.47.5 2.38 0 .901-.166 1.69-.5 2.364a3.763 3.763 0 0 1-1.386 1.573c-.591.375-1.28.563-2.068.563Zm0-1.205c.598 0 1.091-.153 1.477-.46a2.72 2.72 0 0 0 .858-1.21c.186-.5.278-1.042.278-1.625a4.67 4.67 0 0 0-.278-1.63 2.754 2.754 0 0 0-.858-1.222c-.386-.311-.879-.466-1.477-.466-.599 0-1.091.155-1.478.466-.386.31-.672.717-.858 1.221a4.694 4.694 0 0 0-.278 1.63c0 .584.093 1.126.278 1.626.186.5.472.903.858 1.21.387.307.879.46 1.478.46ZM190.08 95l-2.66-8.727h1.41l1.886 6.682h.091l1.863-6.682h1.432l1.841 6.659h.091l1.886-6.66h1.41L196.67 95h-1.318l-1.909-6.704h-.136L191.398 95h-1.318Zm12.363-5.25V95h-1.341v-8.727h1.296v1.363h.113a2.5 2.5 0 0 1 .932-1.068c.417-.272.955-.409 1.614-.409.591 0 1.108.121 1.551.364a2.45 2.45 0 0 1 1.034 1.09c.246.486.369 1.1.369 1.842V95h-1.341v-5.454c0-.686-.178-1.22-.534-1.603-.356-.386-.844-.58-1.466-.58-.428 0-.81.094-1.147.28a1.987 1.987 0 0 0-.79.812c-.193.356-.29.787-.29 1.295Zm16.405-3.477v1.136h-4.705v-1.136h4.705ZM215.553 95v-9.932c0-.5.117-.916.352-1.25a2.19 2.19 0 0 1 .915-.75c.375-.166.77-.25 1.187-.25.33 0 .599.027.807.08.208.053.364.102.466.148l-.387 1.159a6.102 6.102 0 0 0-.284-.086 1.717 1.717 0 0 0-.466-.05c-.443 0-.763.11-.96.334-.193.224-.29.552-.29.983V95h-1.34Zm8.36.182c-.788 0-1.479-.188-2.074-.563-.59-.375-1.053-.9-1.386-1.573-.329-.675-.494-1.463-.494-2.364 0-.91.165-1.703.494-2.38.333-.679.796-1.205 1.386-1.58.595-.375 1.286-.563 2.074-.563.788 0 1.478.188 2.069.563.594.375 1.056.901 1.386 1.58.333.677.5 1.47.5 2.38 0 .901-.167 1.69-.5 2.364a3.775 3.775 0 0 1-1.386 1.573c-.591.375-1.281.563-2.069.563Zm0-1.205c.599 0 1.091-.153 1.478-.46a2.72 2.72 0 0 0 .858-1.21c.185-.5.278-1.042.278-1.625 0-.584-.093-1.127-.278-1.63a2.754 2.754 0 0 0-.858-1.222c-.387-.311-.879-.466-1.478-.466-.598 0-1.091.155-1.477.466-.386.31-.672.717-.858 1.221a4.694 4.694 0 0 0-.278 1.63c0 .584.093 1.126.278 1.626.186.5.472.903.858 1.21.386.307.879.46 1.477.46Zm6.642-7.704 2.091 3.568 2.091-3.568h1.546l-2.819 4.363L236.283 95h-1.546l-2.091-3.386L230.555 95h-1.545l2.773-4.364-2.773-4.363h1.545Zm12.141 0h1.341v9.363c0 .538-.093 1.004-.278 1.398a2.008 2.008 0 0 1-.83.915c-.367.216-.831.324-1.392.324h-.273v-1.25h.25c.409 0 .709-.121.898-.364.189-.239.284-.58.284-1.023v-9.363Zm.659-1.455a.953.953 0 0 1-.676-.267.856.856 0 0 1-.278-.642c0-.25.092-.464.278-.642a.953.953 0 0 1 .676-.267c.261 0 .485.089.671.267a.851.851 0 0 1 .284.642c0 .25-.095.464-.284.642a.936.936 0 0 1-.671.267Zm8.638 6.614v-5.16h1.341V95h-1.341v-1.477h-.091c-.205.443-.523.82-.955 1.13-.431.307-.977.46-1.636.46-.545 0-1.03-.119-1.454-.357-.425-.243-.758-.606-1-1.091-.243-.489-.364-1.104-.364-1.847v-5.545h1.341v5.454c0 .637.178 1.144.534 1.523.36.379.818.568 1.375.568a2.29 2.29 0 0 0 1.017-.255c.348-.17.64-.432.875-.785.239-.352.358-.8.358-1.346ZM255.79 95v-8.727h1.295v1.363h.114a2.19 2.19 0 0 1 .881-1.085c.405-.261.892-.392 1.46-.392.576 0 1.055.13 1.437.392.387.258.688.62.904 1.085h.091c.223-.45.558-.808 1.005-1.073.447-.27.983-.404 1.608-.404.781 0 1.419.244 1.915.733.496.485.744 1.24.744 2.267V95h-1.341v-5.84c0-.645-.176-1.105-.528-1.382a1.955 1.955 0 0 0-1.244-.414c-.614 0-1.089.185-1.426.556-.338.368-.506.834-.506 1.398V95h-1.364v-5.977c0-.496-.161-.896-.483-1.2-.322-.306-.736-.46-1.244-.46-.349 0-.674.094-.977.28a2.1 2.1 0 0 0-.728.772 2.29 2.29 0 0 0-.272 1.13V95h-1.341Zm13.906 3.273v-12h1.295v1.386h.16c.098-.151.234-.345.409-.58.178-.238.431-.45.761-.636.333-.19.784-.284 1.352-.284.735 0 1.383.184 1.943.551.561.368.999.889 1.313 1.563.314.674.472 1.47.472 2.386 0 .924-.158 1.725-.472 2.403-.314.675-.75 1.198-1.307 1.569-.557.367-1.199.55-1.926.55-.561 0-1.009-.092-1.347-.278-.337-.189-.596-.403-.778-.642a8.34 8.34 0 0 1-.42-.602h-.114v4.614h-1.341Zm1.318-7.637c0 .66.097 1.24.29 1.745.193.5.475.892.847 1.176.371.28.825.42 1.363.42.561 0 1.029-.147 1.404-.443.378-.3.662-.7.852-1.204.193-.508.29-1.072.29-1.694a4.6 4.6 0 0 0-.284-1.659c-.186-.496-.468-.888-.847-1.176-.375-.291-.847-.437-1.415-.437-.545 0-1.004.138-1.375.414-.371.273-.651.656-.841 1.148-.189.489-.284 1.059-.284 1.71Zm14.614-2.409-1.205.341a2.207 2.207 0 0 0-.335-.585 1.628 1.628 0 0 0-.591-.477c-.25-.125-.57-.188-.96-.188-.534 0-.979.123-1.335.37-.353.242-.529.55-.529.926 0 .333.122.596.364.79.242.193.621.354 1.136.482l1.296.319c.78.189 1.361.479 1.744.869.383.386.574.884.574 1.494 0 .5-.144.947-.432 1.341-.284.394-.682.705-1.193.932-.511.227-1.106.34-1.784.34-.89 0-1.627-.192-2.21-.579-.584-.386-.953-.95-1.108-1.693l1.272-.318c.122.47.351.822.688 1.057.341.235.786.352 1.335.352.625 0 1.121-.133 1.489-.398.371-.269.557-.59.557-.966 0-.303-.106-.556-.319-.761-.212-.208-.537-.364-.977-.466l-1.454-.34c-.8-.19-1.387-.484-1.762-.882-.371-.401-.557-.903-.557-1.505 0-.493.139-.928.415-1.307a2.82 2.82 0 0 1 1.142-.892c.485-.216 1.034-.324 1.648-.324.864 0 1.542.19 2.034.568.496.38.849.88 1.057 1.5Zm10.223 6.955c-.788 0-1.479-.188-2.074-.563-.591-.375-1.053-.9-1.386-1.573-.33-.675-.495-1.463-.495-2.364 0-.91.165-1.703.495-2.38.333-.679.795-1.205 1.386-1.58.595-.375 1.286-.563 2.074-.563.788 0 1.477.188 2.068.563.595.375 1.057.901 1.386 1.58.334.677.5 1.47.5 2.38 0 .901-.166 1.69-.5 2.364a3.763 3.763 0 0 1-1.386 1.573c-.591.375-1.28.563-2.068.563Zm0-1.205c.598 0 1.091-.153 1.477-.46a2.72 2.72 0 0 0 .858-1.21c.186-.5.278-1.042.278-1.625a4.67 4.67 0 0 0-.278-1.63 2.754 2.754 0 0 0-.858-1.222c-.386-.311-.879-.466-1.477-.466-.599 0-1.091.155-1.477.466-.387.31-.673.717-.858 1.221a4.671 4.671 0 0 0-.279 1.63c0 .584.093 1.126.279 1.626.185.5.471.903.858 1.21.386.307.878.46 1.477.46Zm12.825-7.704L305.449 95h-1.364l-3.227-8.727h1.454l2.41 6.954h.09l2.41-6.954h1.454Zm5.117 8.909c-.841 0-1.567-.186-2.177-.557a3.74 3.74 0 0 1-1.403-1.568c-.326-.674-.489-1.459-.489-2.352 0-.894.163-1.682.489-2.364.33-.686.788-1.22 1.375-1.602.591-.387 1.28-.58 2.068-.58.455 0 .904.076 1.347.227a3.34 3.34 0 0 1 1.21.739c.364.337.653.784.869 1.34.216.558.324 1.243.324 2.058v.568h-6.727v-1.16h5.364a2.86 2.86 0 0 0-.296-1.317 2.23 2.23 0 0 0-.829-.915c-.356-.224-.777-.335-1.262-.335-.534 0-.996.132-1.386.397a2.616 2.616 0 0 0-.892 1.023 3.01 3.01 0 0 0-.313 1.352v.773c0 .66.114 1.218.341 1.676.231.455.551.801.96 1.04.41.235.885.352 1.427.352.352 0 .67-.049.954-.147.288-.103.536-.254.744-.455.209-.204.37-.458.483-.761l1.296.363a2.87 2.87 0 0 1-.688 1.16 3.344 3.344 0 0 1-1.193.772 4.42 4.42 0 0 1-1.596.273Zm5.653-.182v-8.727h1.295v1.318h.091c.159-.432.447-.782.864-1.051a2.541 2.541 0 0 1 1.409-.404c.099 0 .222.002.369.006.148.004.26.01.336.017v1.364a4.073 4.073 0 0 0-.313-.051 3.071 3.071 0 0 0-.506-.04c-.424 0-.803.089-1.136.267a2.016 2.016 0 0 0-.784.727 1.963 1.963 0 0 0-.284 1.051V95h-1.341Zm13.021.205a3.541 3.541 0 0 1-1.505-.313 2.583 2.583 0 0 1-1.074-.915c-.265-.401-.398-.886-.398-1.454 0-.5.099-.906.296-1.216.196-.315.46-.56.789-.739a4.15 4.15 0 0 1 1.091-.397c.402-.091.805-.163 1.21-.216.531-.069.961-.12 1.29-.154.334-.038.576-.1.727-.187.156-.088.233-.239.233-.455v-.045c0-.561-.153-.997-.46-1.307-.303-.31-.763-.466-1.38-.466-.641 0-1.143.14-1.506.42-.364.28-.619.58-.767.898l-1.273-.454c.227-.53.53-.944.909-1.24a3.419 3.419 0 0 1 1.25-.624 5.196 5.196 0 0 1 1.341-.182c.28 0 .602.034.966.102.367.065.722.2 1.062.404.345.204.631.513.858.926.228.413.341.966.341 1.659V95h-1.341v-1.182h-.068c-.091.19-.242.392-.454.608-.212.216-.495.4-.847.551-.352.152-.782.228-1.29.228Zm.205-1.205c.53 0 .977-.104 1.341-.313a2.124 2.124 0 0 0 1.113-1.846v-1.227c-.056.068-.181.13-.375.187-.189.053-.409.1-.659.142a29.56 29.56 0 0 1-1.284.17 5.19 5.19 0 0 0-.977.222 1.681 1.681 0 0 0-.727.45c-.182.196-.273.465-.273.806 0 .466.172.818.517 1.057.348.235.79.352 1.324.352Zm12.084-10.636V95h-1.341V83.364h1.341Zm5.024 11.84a3.55 3.55 0 0 1-1.506-.312 2.583 2.583 0 0 1-1.074-.915c-.265-.401-.397-.886-.397-1.454 0-.5.098-.906.295-1.216.197-.315.46-.56.79-.739a4.14 4.14 0 0 1 1.091-.397 13.22 13.22 0 0 1 1.21-.216c.53-.069.96-.12 1.29-.154.333-.038.575-.1.727-.187.155-.088.233-.239.233-.455v-.045c0-.561-.153-.997-.46-1.307-.303-.31-.764-.466-1.381-.466-.64 0-1.142.14-1.506.42-.363.28-.619.58-.767.898l-1.272-.454c.227-.53.53-.944.909-1.24a3.411 3.411 0 0 1 1.25-.624 5.184 5.184 0 0 1 1.341-.182c.28 0 .602.034.965.102.368.065.722.2 1.063.404.345.204.631.513.858.926.227.413.341.966.341 1.659V95h-1.341v-1.182h-.068a2.37 2.37 0 0 1-.455.608c-.212.216-.494.4-.846.551-.353.152-.783.228-1.29.228Zm.204-1.204c.531 0 .978-.104 1.341-.313a2.128 2.128 0 0 0 1.114-1.846v-1.227c-.057.068-.182.13-.375.187-.189.053-.409.1-.659.142a29.629 29.629 0 0 1-1.284.17c-.349.046-.675.12-.978.222a1.687 1.687 0 0 0-.727.45c-.182.196-.273.465-.273.806 0 .466.173.818.518 1.057.348.235.789.352 1.323.352Zm5.993 1v-1.023l4.955-6.363v-.091h-4.796v-1.25h6.523v1.068l-4.818 6.318v.091h4.977V95h-6.841Zm9.77 3.273a3 3 0 0 1-.608-.057 1.604 1.604 0 0 1-.369-.102l.341-1.182c.326.083.613.114.863.09a1.03 1.03 0 0 0 .665-.335c.197-.197.377-.516.54-.96l.25-.681-3.227-8.773h1.454l2.409 6.954h.091l2.409-6.954h1.455l-3.705 10c-.166.45-.373.824-.619 1.12-.246.298-.532.52-.858.664a2.646 2.646 0 0 1-1.091.216Zm15.838-3.091c-.727 0-1.369-.184-1.926-.551-.557-.371-.992-.894-1.307-1.569-.314-.677-.471-1.479-.471-2.403 0-.917.157-1.712.471-2.386.315-.674.752-1.195 1.313-1.563.56-.367 1.208-.55 1.943-.55.568 0 1.017.094 1.347.283.333.186.587.398.761.637.178.234.316.428.415.58h.113v-4.296h1.341V95h-1.295v-1.34h-.159a8.946 8.946 0 0 1-.421.601c-.182.239-.441.453-.778.642-.337.186-.786.279-1.347.279Zm.182-1.205c.538 0 .992-.14 1.364-.42.371-.284.653-.676.846-1.176.193-.504.29-1.085.29-1.745 0-.651-.095-1.221-.284-1.71-.189-.492-.47-.875-.841-1.148-.371-.276-.829-.414-1.375-.414-.568 0-1.042.145-1.42.437-.375.288-.658.68-.847 1.176a4.667 4.667 0 0 0-.278 1.66c0 .62.094 1.185.284 1.693.193.503.477.905.852 1.204.379.296.848.443 1.409.443Zm10.006 1.205c-.788 0-1.479-.188-2.074-.563-.591-.375-1.053-.9-1.387-1.573-.329-.675-.494-1.463-.494-2.364 0-.91.165-1.703.494-2.38.334-.679.796-1.205 1.387-1.58.595-.375 1.286-.563 2.074-.563.788 0 1.477.188 2.068.563.595.375 1.057.901 1.386 1.58.334.677.5 1.47.5 2.38 0 .901-.166 1.69-.5 2.364a3.763 3.763 0 0 1-1.386 1.573c-.591.375-1.28.563-2.068.563Zm0-1.205c.598 0 1.091-.153 1.477-.46a2.72 2.72 0 0 0 .858-1.21c.186-.5.278-1.042.278-1.625a4.67 4.67 0 0 0-.278-1.63 2.754 2.754 0 0 0-.858-1.222c-.386-.311-.879-.466-1.477-.466-.599 0-1.091.155-1.478.466-.386.31-.672.717-.857 1.221a4.671 4.671 0 0 0-.279 1.63c0 .584.093 1.126.279 1.626.185.5.471.903.857 1.21.387.307.879.46 1.478.46Zm9.524 4.478c-.648 0-1.205-.084-1.671-.25a3.543 3.543 0 0 1-1.164-.648 3.543 3.543 0 0 1-.733-.852l1.068-.75c.121.159.274.34.46.545.186.208.439.388.761.54.326.155.752.233 1.279.233.704 0 1.286-.17 1.744-.512.459-.34.688-.875.688-1.602v-1.773h-.114a7.29 7.29 0 0 1-.42.591c-.178.231-.436.438-.773.62-.333.178-.784.267-1.352.267-.705 0-1.338-.167-1.898-.5-.557-.334-.998-.819-1.324-1.455-.322-.636-.483-1.409-.483-2.318 0-.894.157-1.672.472-2.335.314-.667.752-1.182 1.312-1.546.561-.367 1.208-.55 1.943-.55.569 0 1.019.094 1.353.283.337.186.594.398.772.637.182.234.322.428.421.58h.136v-1.387h1.296v8.977c0 .75-.171 1.36-.512 1.83a2.91 2.91 0 0 1-1.363 1.04 5.149 5.149 0 0 1-1.898.335Zm-.046-4.796c.538 0 .993-.123 1.364-.37.371-.245.653-.6.847-1.062.193-.462.289-1.015.289-1.659 0-.629-.094-1.183-.284-1.665-.189-.48-.469-.858-.841-1.13-.371-.273-.829-.41-1.375-.41-.568 0-1.041.145-1.42.433a2.634 2.634 0 0 0-.847 1.159 4.494 4.494 0 0 0-.278 1.613c0 .606.095 1.142.284 1.608.193.462.477.826.852 1.091.379.261.849.392 1.409.392Zm7.25 1.432c-.28 0-.52-.1-.721-.301a.983.983 0 0 1-.301-.722c0-.28.1-.52.301-.721a.984.984 0 0 1 .721-.301c.281 0 .521.1.722.3a.985.985 0 0 1 .301.722.961.961 0 0 1-.142.512c-.091.155-.214.28-.369.375a.977.977 0 0 1-.512.136ZM420.203 95h-3.591V83.364h3.75c1.129 0 2.095.233 2.898.698.803.463 1.419 1.127 1.847 1.995.428.864.642 1.898.642 3.102 0 1.212-.216 2.256-.648 3.13a4.616 4.616 0 0 1-1.887 2.012c-.825.466-1.829.699-3.011.699Zm-2.182-1.25h2.091c.962 0 1.76-.186 2.392-.557a3.432 3.432 0 0 0 1.415-1.585c.311-.686.466-1.502.466-2.449 0-.94-.153-1.748-.46-2.426-.307-.682-.765-1.205-1.375-1.568-.61-.368-1.37-.551-2.279-.551h-2.25v9.136Zm14.546-10.386h1.409v8.318c0 .742-.137 1.373-.409 1.892a2.778 2.778 0 0 1-1.154 1.182c-.496.269-1.081.403-1.755.403-.637 0-1.203-.115-1.699-.347a2.803 2.803 0 0 1-1.171-1c-.284-.431-.426-.945-.426-1.54h1.387c0 .33.081.618.244.864.167.243.394.432.682.569.288.136.615.204.983.204.405 0 .75-.085 1.034-.256.284-.17.5-.42.647-.75.152-.333.228-.74.228-1.221v-8.318Zm10.233 4.863-1.205.341a2.235 2.235 0 0 0-.335-.585 1.628 1.628 0 0 0-.591-.477c-.25-.125-.57-.188-.96-.188-.534 0-.979.123-1.335.37-.353.242-.529.55-.529.926 0 .333.121.596.364.79.242.193.621.354 1.136.482l1.296.319c.78.189 1.361.479 1.744.869.383.386.574.884.574 1.494 0 .5-.144.947-.432 1.341-.284.394-.682.705-1.193.932-.512.227-1.106.34-1.784.34-.89 0-1.627-.192-2.211-.579-.583-.386-.952-.95-1.107-1.693l1.272-.318c.121.47.351.822.688 1.057.341.235.786.352 1.335.352.625 0 1.121-.133 1.489-.398.371-.269.556-.59.556-.966 0-.303-.106-.556-.318-.761-.212-.208-.538-.364-.977-.466l-1.455-.34c-.799-.19-1.386-.484-1.761-.882-.371-.401-.557-.903-.557-1.505 0-.493.139-.928.415-1.307a2.82 2.82 0 0 1 1.142-.892c.485-.216 1.034-.324 1.648-.324.863 0 1.541.19 2.034.568.496.38.848.88 1.057 1.5ZM84.114 118.273v1.136h-4.705v-1.136h4.705ZM80.818 127v-9.932c0-.5.118-.916.353-1.25.234-.333.54-.583.914-.75.375-.166.771-.25 1.188-.25.33 0 .598.027.806.08.209.053.364.102.467.147l-.387 1.16a5.972 5.972 0 0 0-.284-.086 1.727 1.727 0 0 0-.466-.051c-.443 0-.763.112-.96.335-.193.224-.29.552-.29.983V127h-1.34Zm6.516-11.636V127h-1.341v-11.636h1.34Zm6.001 11.818c-.788 0-1.479-.188-2.074-.563-.59-.375-1.053-.899-1.386-1.574-.33-.674-.494-1.462-.494-2.363 0-.909.165-1.703.494-2.381.333-.678.796-1.204 1.386-1.579.595-.375 1.286-.563 2.074-.563.788 0 1.478.188 2.068.563.595.375 1.057.901 1.387 1.579.333.678.5 1.472.5 2.381 0 .901-.167 1.689-.5 2.363a3.765 3.765 0 0 1-1.387 1.574c-.59.375-1.28.563-2.068.563Zm0-1.205c.599 0 1.091-.153 1.478-.46a2.72 2.72 0 0 0 .858-1.21c.185-.5.278-1.042.278-1.625a4.68 4.68 0 0 0-.278-1.631 2.743 2.743 0 0 0-.859-1.221c-.386-.311-.878-.466-1.477-.466-.598 0-1.09.155-1.477.466-.386.31-.672.717-.858 1.221a4.68 4.68 0 0 0-.278 1.631c0 .583.092 1.125.278 1.625.186.5.472.903.858 1.21.386.307.879.46 1.477.46Zm9.547 1.205c-.818 0-1.523-.193-2.114-.58a3.779 3.779 0 0 1-1.363-1.596c-.318-.678-.477-1.453-.477-2.324 0-.887.162-1.669.488-2.347.33-.682.788-1.214 1.375-1.596.591-.387 1.28-.58 2.068-.58.614 0 1.167.114 1.659.341a3.17 3.17 0 0 1 1.211.955c.314.409.509.886.585 1.431h-1.341c-.102-.397-.33-.75-.682-1.056-.348-.311-.818-.466-1.409-.466-.523 0-.981.136-1.375.409-.39.269-.695.649-.915 1.142-.216.488-.324 1.062-.324 1.721 0 .675.107 1.262.319 1.762.216.5.519.888.909 1.165.394.276.856.414 1.386.414.349 0 .665-.06.949-.182.284-.121.525-.295.722-.522.197-.228.337-.5.42-.818h1.341a3.102 3.102 0 0 1-.563 1.392 3.142 3.142 0 0 1-1.176.977c-.485.239-1.049.358-1.693.358Zm6.642-3.364-.023-1.659h.273l3.818-3.886h1.659l-4.068 4.113h-.113l-1.546 1.432Zm-1.25 3.182v-11.636h1.341V127h-1.341Zm5.546 0-3.409-4.318.954-.932 4.159 5.25h-1.704Zm7.839 0v-11.636H123v4.295h.114c.098-.151.234-.345.409-.579.178-.239.432-.451.761-.637.333-.189.784-.284 1.352-.284.735 0 1.383.184 1.944.551.56.368.998.888 1.312 1.563.314.674.472 1.469.472 2.386 0 .924-.158 1.725-.472 2.404-.314.674-.75 1.196-1.307 1.568-.557.367-1.199.551-1.926.551-.561 0-1.009-.093-1.347-.279-.337-.189-.596-.403-.778-.642a8.279 8.279 0 0 1-.42-.602h-.159V127h-1.296Zm1.318-4.364c0 .659.097 1.241.29 1.745.193.5.475.892.847 1.176.371.28.825.42 1.363.42.561 0 1.029-.147 1.404-.443.378-.299.663-.701.852-1.204.193-.508.29-1.072.29-1.694 0-.613-.095-1.166-.284-1.659-.186-.496-.468-.888-.847-1.176-.375-.292-.847-.437-1.415-.437-.545 0-1.004.138-1.375.414-.371.273-.651.656-.841 1.148-.189.489-.284 1.059-.284 1.71Zm8.989 7.637a2.93 2.93 0 0 1-.608-.057 1.601 1.601 0 0 1-.369-.102l.341-1.182c.325.083.613.113.863.091a1.04 1.04 0 0 0 .665-.335c.197-.197.377-.518.54-.961l.25-.682-3.228-8.772h1.455l2.409 6.954h.091l2.409-6.954h1.455l-3.705 10a3.784 3.784 0 0 1-.619 1.119 2.321 2.321 0 0 1-.858.665 2.646 2.646 0 0 1-1.091.216Zm14.52-3.273-2.659-8.727h1.409l1.886 6.682h.091l1.864-6.682h1.432l1.84 6.659h.091l1.887-6.659h1.409L153.077 127h-1.318l-1.91-6.705h-.136L147.804 127h-1.318Zm12.363-5.25V127h-1.34v-11.636h1.34v4.272h.114c.205-.45.511-.808.921-1.073.412-.269.962-.404 1.647-.404.595 0 1.116.119 1.563.358.447.235.793.597 1.04 1.085.25.485.375 1.103.375 1.853V127h-1.341v-5.455c0-.693-.18-1.229-.54-1.607-.356-.383-.851-.574-1.483-.574-.44 0-.833.092-1.182.278a2.032 2.032 0 0 0-.818.813c-.197.356-.296.787-.296 1.295Zm11.772 5.432c-.841 0-1.567-.186-2.176-.557a3.744 3.744 0 0 1-1.404-1.568c-.326-.674-.488-1.458-.488-2.352 0-.894.162-1.682.488-2.364.33-.686.788-1.22 1.375-1.602.591-.387 1.28-.58 2.068-.58.455 0 .904.076 1.347.227.443.152.847.398 1.21.739.364.337.654.784.87 1.341.215.557.323 1.242.323 2.057v.568h-6.727v-1.159h5.364c0-.493-.099-.932-.296-1.318a2.217 2.217 0 0 0-.829-.915c-.356-.224-.777-.335-1.262-.335-.534 0-.996.132-1.386.397a2.625 2.625 0 0 0-.892 1.023 3.01 3.01 0 0 0-.313 1.352v.773c0 .659.114 1.218.341 1.676.231.455.552.801.961 1.04.409.235.884.352 1.426.352.352 0 .67-.049.954-.147.288-.103.536-.254.745-.455.208-.205.369-.458.483-.761l1.295.363c-.136.44-.366.826-.687 1.159-.322.33-.72.588-1.194.773a4.416 4.416 0 0 1-1.596.273Zm6.994-5.432V127h-1.341v-8.727h1.296v1.363h.113c.205-.443.515-.799.932-1.068.417-.273.955-.409 1.614-.409.591 0 1.108.121 1.551.364.443.238.788.602 1.034 1.091.246.484.369 1.098.369 1.841V127h-1.341v-5.455c0-.685-.178-1.219-.534-1.602-.356-.386-.844-.579-1.466-.579-.428 0-.81.092-1.147.278a1.985 1.985 0 0 0-.79.813c-.193.356-.29.787-.29 1.295Zm12.7-6.386h1.682l3.955 9.659h.136l3.955-9.659h1.681V127h-1.318v-8.841h-.113L196.656 127h-1.272l-3.637-8.841h-.113V127h-1.319v-11.636Zm13.598 1.25v-1.25h8.728v1.25h-3.659V127h-1.41v-10.386h-3.659Zm11.38-1.25 3.454 9.795h.137l3.454-9.795h1.477L219.543 127h-1.455l-4.273-11.636h1.478Zm17.221 11.841a3.546 3.546 0 0 1-1.505-.313 2.58 2.58 0 0 1-1.074-.915c-.265-.401-.398-.886-.398-1.454 0-.5.098-.906.295-1.216.197-.315.461-.561.79-.739.33-.178.693-.31 1.091-.398.402-.09.805-.162 1.21-.215.531-.069.961-.12 1.29-.154.333-.038.576-.1.727-.187.156-.087.233-.239.233-.455v-.045c0-.561-.153-.997-.46-1.307-.303-.311-.763-.466-1.381-.466-.64 0-1.142.14-1.505.42-.364.281-.62.58-.767.898l-1.273-.454c.227-.531.53-.944.909-1.239a3.406 3.406 0 0 1 1.25-.625 5.205 5.205 0 0 1 1.341-.182c.28 0 .602.034.966.102.367.065.721.199 1.062.404.345.204.631.513.858.926.228.413.341.966.341 1.659V127h-1.341v-1.182h-.068c-.091.19-.242.392-.454.608-.213.216-.495.4-.847.551-.352.152-.782.228-1.29.228Zm.205-1.205c.53 0 .977-.104 1.341-.312a2.133 2.133 0 0 0 1.113-1.847v-1.227c-.057.068-.182.13-.375.187a6.143 6.143 0 0 1-.659.142 28.32 28.32 0 0 1-1.284.171 5.114 5.114 0 0 0-.977.221 1.684 1.684 0 0 0-.727.449c-.182.197-.273.466-.273.807 0 .466.172.818.517 1.057.348.235.79.352 1.324.352Zm7.243-7.727 2.091 3.568 2.09-3.568h1.546l-2.818 4.363 2.818 4.364h-1.546l-2.09-3.386-2.091 3.386h-1.546l2.773-4.364-2.773-4.363h1.546Zm18.095 12v-4.614h-.114c-.098.159-.238.36-.42.602-.182.239-.442.453-.779.642-.337.186-.786.279-1.346.279-.728 0-1.37-.184-1.926-.551-.557-.372-.993-.894-1.307-1.568-.315-.679-.472-1.48-.472-2.404 0-.917.157-1.712.472-2.386.314-.675.752-1.195 1.312-1.563.561-.367 1.209-.551 1.943-.551.569 0 1.018.095 1.347.284.333.186.587.398.761.637.178.234.317.428.415.579h.159v-1.386h1.296v12h-1.341Zm-2.477-4.296c.537 0 .992-.14 1.363-.42.371-.284.654-.676.847-1.176.193-.504.29-1.086.29-1.745 0-.651-.095-1.221-.285-1.71-.189-.492-.469-.875-.84-1.148-.372-.276-.83-.414-1.375-.414-.569 0-1.042.145-1.421.437-.375.288-.657.68-.847 1.176a4.694 4.694 0 0 0-.278 1.659c0 .622.095 1.186.284 1.694.193.503.477.905.852 1.204.379.296.849.443 1.41.443Zm11.772-2.545v-5.159h1.341V127h-1.341v-1.477h-.091c-.204.443-.522.82-.954 1.13-.432.307-.977.461-1.637.461a2.92 2.92 0 0 1-1.454-.358c-.424-.243-.758-.606-1-1.091-.243-.489-.364-1.104-.364-1.847v-5.545h1.341v5.454c0 .637.178 1.144.534 1.523.36.379.818.568 1.375.568.334 0 .673-.085 1.017-.255.349-.171.64-.432.875-.785.239-.352.358-.801.358-1.346Zm3.797 3.568v-8.727h1.341V127h-1.341Zm.682-10.182a.953.953 0 0 1-.676-.267.857.857 0 0 1-.279-.642c0-.25.093-.464.279-.642a.953.953 0 0 1 .676-.267c.261 0 .485.089.67.267.19.178.285.392.285.642s-.095.464-.285.642a.932.932 0 0 1-.67.267ZM274.696 127v-1.023l4.955-6.363v-.091h-4.796v-1.25h6.523v1.068l-4.818 6.318v.091h4.977V127h-6.841Zm13.406 3.273v-12h1.296v1.386h.159c.098-.151.235-.345.409-.579.178-.239.432-.451.761-.637.334-.189.784-.284 1.353-.284.734 0 1.382.184 1.943.551.56.368.998.888 1.312 1.563.315.674.472 1.469.472 2.386 0 .924-.157 1.725-.472 2.404-.314.674-.75 1.196-1.307 1.568-.556.367-1.198.551-1.926.551-.56 0-1.009-.093-1.346-.279-.337-.189-.597-.403-.779-.642a8.279 8.279 0 0 1-.42-.602h-.114v4.614h-1.341Zm1.318-7.637c0 .659.097 1.241.29 1.745.193.5.476.892.847 1.176.371.28.826.42 1.363.42.561 0 1.029-.147 1.404-.443.379-.299.663-.701.852-1.204.193-.508.29-1.072.29-1.694 0-.613-.095-1.166-.284-1.659-.186-.496-.468-.888-.847-1.176-.375-.292-.846-.437-1.415-.437-.545 0-1.003.138-1.375.414-.371.273-.651.656-.84 1.148-.19.489-.285 1.059-.285 1.71Zm8.432 4.364v-8.727h1.296v1.318h.091c.159-.432.447-.782.863-1.051a2.544 2.544 0 0 1 1.409-.404c.099 0 .222.002.37.006.147.004.259.01.335.017v1.364a3.462 3.462 0 0 0-.313-.051 3.014 3.014 0 0 0-.505-.04c-.425 0-.803.089-1.137.267a2.019 2.019 0 0 0-.784.727 1.963 1.963 0 0 0-.284 1.051V127h-1.341Zm9.233.182c-.788 0-1.479-.188-2.074-.563-.591-.375-1.053-.899-1.386-1.574-.33-.674-.494-1.462-.494-2.363 0-.909.164-1.703.494-2.381.333-.678.795-1.204 1.386-1.579.595-.375 1.286-.563 2.074-.563.788 0 1.478.188 2.068.563.595.375 1.057.901 1.387 1.579.333.678.5 1.472.5 2.381 0 .901-.167 1.689-.5 2.363-.33.675-.792 1.199-1.387 1.574-.59.375-1.28.563-2.068.563Zm0-1.205c.599 0 1.091-.153 1.477-.46.387-.307.673-.71.858-1.21.186-.5.279-1.042.279-1.625 0-.584-.093-1.127-.279-1.631a2.732 2.732 0 0 0-.858-1.221c-.386-.311-.878-.466-1.477-.466-.598 0-1.091.155-1.477.466-.386.31-.672.717-.858 1.221a4.671 4.671 0 0 0-.278 1.631c0 .583.092 1.125.278 1.625.186.5.472.903.858 1.21.386.307.879.46 1.477.46Zm9.524 4.478c-.647 0-1.204-.084-1.67-.25a3.55 3.55 0 0 1-1.165-.648 3.54 3.54 0 0 1-.733-.852l1.068-.75c.122.159.275.34.461.545.185.208.439.388.761.54.326.155.752.233 1.278.233.705 0 1.286-.171 1.745-.512.458-.341.687-.875.687-1.602v-1.773h-.113a7.374 7.374 0 0 1-.421.591c-.178.231-.436.438-.773.62-.333.178-.784.267-1.352.267a3.648 3.648 0 0 1-1.898-.5c-.556-.334-.998-.819-1.323-1.455-.322-.636-.483-1.409-.483-2.318 0-.894.157-1.672.471-2.335.315-.667.752-1.182 1.313-1.546.56-.367 1.208-.551 1.943-.551.568 0 1.019.095 1.352.284.337.186.595.398.773.637.182.234.322.428.42.579h.137v-1.386h1.295v8.977c0 .75-.17 1.36-.511 1.83a2.91 2.91 0 0 1-1.364 1.039 5.135 5.135 0 0 1-1.898.336Zm-.045-4.796c.538 0 .992-.123 1.364-.369.371-.246.653-.601.846-1.063.193-.462.29-1.015.29-1.659 0-.629-.095-1.184-.284-1.665-.19-.481-.47-.858-.841-1.13-.371-.273-.83-.409-1.375-.409-.568 0-1.042.144-1.421.431a2.628 2.628 0 0 0-.846 1.16 4.465 4.465 0 0 0-.279 1.613c0 .606.095 1.142.285 1.608.193.462.477.826.852 1.091.379.261.848.392 1.409.392Zm7.25 1.432c-.28 0-.521-.1-.722-.301a.987.987 0 0 1-.301-.722c0-.28.101-.521.301-.721a.986.986 0 0 1 .722-.302c.28 0 .521.101.722.302.2.2.301.441.301.721a.973.973 0 0 1-.142.512c-.091.155-.214.28-.37.375a.981.981 0 0 1-.511.136Zm12.565-11.727h1.409v8.318c0 .742-.136 1.373-.409 1.892a2.776 2.776 0 0 1-1.153 1.182c-.496.269-1.082.403-1.756.403-.636 0-1.202-.115-1.699-.346a2.807 2.807 0 0 1-1.17-1c-.284-.432-.426-.946-.426-1.54h1.386c0 .329.082.617.244.863.167.243.394.432.682.569.288.136.616.204.983.204.405 0 .75-.085 1.034-.256.284-.17.5-.42.648-.75.152-.333.227-.74.227-1.221v-8.318Zm9.551 8.068v-5.159h1.341V127h-1.341v-1.477h-.091c-.204.443-.522.82-.954 1.13-.432.307-.977.461-1.636.461-.546 0-1.031-.12-1.455-.358-.424-.243-.758-.606-1-1.091-.242-.489-.364-1.104-.364-1.847v-5.545h1.341v5.454c0 .637.178 1.144.534 1.523.36.379.819.568 1.375.568.334 0 .673-.085 1.017-.255.349-.171.641-.432.875-.785.239-.352.358-.801.358-1.346Zm5.138-1.682V127h-1.341v-8.727h1.296v1.363h.113c.205-.443.516-.799.932-1.068.417-.273.955-.409 1.614-.409.591 0 1.108.121 1.551.364.443.238.788.602 1.034 1.091.246.484.369 1.098.369 1.841V127h-1.341v-5.455c0-.685-.178-1.219-.534-1.602-.356-.386-.844-.579-1.466-.579-.428 0-.81.092-1.147.278a1.985 1.985 0 0 0-.79.813c-.193.356-.29.787-.29 1.295Zm9.269 2.068-.023-1.659h.273l3.818-3.886h1.659l-4.068 4.113h-.114l-1.545 1.432Zm-1.25 3.182v-11.636h1.341V127h-1.341Zm5.545 0-3.409-4.318.955-.932 4.159 5.25h-1.705Zm7.84-11.636h1.681l3.955 9.659h.136l3.955-9.659h1.682V127h-1.319v-8.841h-.113L378.812 127h-1.272l-3.637-8.841h-.113V127h-1.318v-11.636Zm13.598 1.25v-1.25h8.727v1.25h-3.659V127h-1.409v-10.386h-3.659Zm11.379-1.25 3.454 9.795h.137l3.454-9.795h1.478L401.699 127h-1.455l-4.272-11.636h1.477Zm20.608 14.909v-4.614h-.114c-.098.159-.238.36-.42.602-.182.239-.442.453-.779.642-.337.186-.786.279-1.346.279-.728 0-1.37-.184-1.926-.551-.557-.372-.993-.894-1.307-1.568-.315-.679-.472-1.48-.472-2.404 0-.917.157-1.712.472-2.386.314-.675.752-1.195 1.312-1.563.561-.367 1.209-.551 1.943-.551.569 0 1.018.095 1.347.284.333.186.587.398.761.637.178.234.317.428.415.579h.159v-1.386h1.296v12h-1.341Zm-2.477-4.296c.537 0 .992-.14 1.363-.42.371-.284.654-.676.847-1.176.193-.504.29-1.086.29-1.745 0-.651-.095-1.221-.285-1.71-.189-.492-.469-.875-.84-1.148-.372-.276-.83-.414-1.375-.414-.569 0-1.042.145-1.421.437-.375.288-.657.68-.847 1.176a4.694 4.694 0 0 0-.278 1.659c0 .622.095 1.186.284 1.694.193.503.477.905.852 1.204.379.296.849.443 1.41.443Zm11.772-2.545v-5.159h1.341V127h-1.341v-1.477h-.091c-.204.443-.522.82-.954 1.13-.432.307-.977.461-1.637.461a2.92 2.92 0 0 1-1.454-.358c-.424-.243-.758-.606-1-1.091-.243-.489-.364-1.104-.364-1.847v-5.545h1.341v5.454c0 .637.178 1.144.534 1.523.36.379.818.568 1.375.568.334 0 .673-.085 1.017-.255.349-.171.64-.432.875-.785.239-.352.358-.801.358-1.346Zm3.797 3.568v-8.727h1.341V127h-1.341Zm.682-10.182a.953.953 0 0 1-.676-.267.857.857 0 0 1-.279-.642c0-.25.093-.464.279-.642a.953.953 0 0 1 .676-.267c.261 0 .485.089.67.267.19.178.285.392.285.642s-.095.464-.285.642a.932.932 0 0 1-.67.267ZM434.696 127v-1.023l4.955-6.363v-.091h-4.796v-1.25h6.523v1.068l-4.818 6.318v.091h4.977V127h-6.841ZM83.75 162.455c-.648 0-1.204-.084-1.67-.25a3.546 3.546 0 0 1-1.165-.648 3.54 3.54 0 0 1-.733-.852l1.068-.75c.121.159.275.34.46.545.186.208.44.388.762.54.325.155.752.233 1.278.233.704 0 1.286-.171 1.744-.512.459-.341.688-.875.688-1.602v-1.773h-.114a7.273 7.273 0 0 1-.42.591c-.178.231-.436.438-.773.62-.333.178-.784.267-1.352.267a3.645 3.645 0 0 1-1.898-.5c-.557-.334-.998-.819-1.324-1.455-.322-.636-.483-1.409-.483-2.318 0-.894.157-1.672.472-2.335.314-.667.752-1.182 1.312-1.546.56-.367 1.209-.551 1.944-.551.568 0 1.018.095 1.352.284.337.186.594.398.773.637.181.234.321.428.42.579h.136v-1.386h1.296v8.977c0 .75-.17 1.36-.512 1.83a2.91 2.91 0 0 1-1.363 1.039 5.139 5.139 0 0 1-1.898.336Zm-.046-4.796c.538 0 .993-.123 1.364-.369.371-.246.654-.601.847-1.063.193-.462.29-1.015.29-1.659 0-.629-.095-1.184-.284-1.665-.19-.481-.47-.858-.842-1.13-.37-.273-.829-.409-1.374-.409-.569 0-1.042.144-1.42.431a2.632 2.632 0 0 0-.847 1.16 4.474 4.474 0 0 0-.279 1.613c0 .606.095 1.142.284 1.608.193.462.478.826.853 1.091.378.261.848.392 1.408.392ZM89.977 159v-8.727h1.296v1.318h.09c.16-.432.448-.782.864-1.051a2.542 2.542 0 0 1 1.41-.404c.098 0 .221.002.369.006.147.004.26.01.335.017v1.364a3.406 3.406 0 0 0-.313-.051 3.022 3.022 0 0 0-.505-.04 2.38 2.38 0 0 0-1.137.267c-.33.174-.59.417-.784.727a1.96 1.96 0 0 0-.284 1.051V159h-1.34Zm8.522.205a3.552 3.552 0 0 1-1.506-.313 2.582 2.582 0 0 1-1.074-.915c-.265-.401-.398-.886-.398-1.454 0-.5.099-.906.296-1.216.197-.315.46-.561.79-.739.33-.178.693-.31 1.09-.398.402-.09.805-.162 1.21-.215.531-.069.96-.12 1.29-.154.334-.038.576-.1.728-.187.155-.087.233-.239.233-.455v-.045c0-.561-.154-.997-.461-1.307-.303-.311-.763-.466-1.38-.466-.64 0-1.142.14-1.506.42-.364.281-.62.58-.767.898l-1.273-.454c.228-.531.53-.944.91-1.239a3.398 3.398 0 0 1 1.25-.625 5.199 5.199 0 0 1 1.34-.182c.28 0 .603.034.966.102.368.065.722.199 1.063.404.344.204.63.513.858.926.227.413.341.966.341 1.659V159h-1.341v-1.182h-.069a2.33 2.33 0 0 1-.454.608c-.212.216-.494.4-.847.551-.352.152-.782.228-1.29.228Zm.204-1.205c.53 0 .977-.104 1.341-.312.367-.209.644-.478.83-.807.189-.33.284-.676.284-1.04v-1.227c-.057.068-.182.13-.375.187-.19.053-.409.101-.659.142a28.26 28.26 0 0 1-.722.102c-.231.027-.419.05-.563.069a5.108 5.108 0 0 0-.977.221 1.69 1.69 0 0 0-.727.449c-.182.197-.273.466-.273.807 0 .466.173.818.517 1.057.349.235.79.352 1.324.352Zm9.788 1.182c-.818 0-1.522-.193-2.113-.58a3.772 3.772 0 0 1-1.364-1.596c-.318-.678-.477-1.453-.477-2.324 0-.887.163-1.669.489-2.347.329-.682.787-1.214 1.375-1.596.59-.387 1.28-.58 2.068-.58.613 0 1.166.114 1.659.341.492.227.896.545 1.21.955.314.409.51.886.585 1.431h-1.341c-.102-.397-.329-.75-.681-1.056-.349-.311-.819-.466-1.41-.466-.522 0-.981.136-1.375.409-.39.269-.695.649-.914 1.142-.216.488-.324 1.062-.324 1.721 0 .675.106 1.262.318 1.762.216.5.519.888.909 1.165.394.276.856.414 1.386.414.349 0 .665-.06.949-.182.284-.121.525-.295.722-.522.197-.228.337-.5.42-.818h1.341a3.1 3.1 0 0 1-.562 1.392 3.158 3.158 0 0 1-1.176.977c-.485.239-1.05.358-1.694.358Zm9.052 0c-.841 0-1.567-.186-2.177-.557a3.742 3.742 0 0 1-1.403-1.568c-.326-.674-.489-1.458-.489-2.352 0-.894.163-1.682.489-2.364.33-.686.788-1.22 1.375-1.602.591-.387 1.28-.58 2.068-.58.455 0 .904.076 1.347.227.443.152.846.398 1.21.739.364.337.653.784.869 1.341.216.557.324 1.242.324 2.057v.568h-6.727v-1.159h5.364c0-.493-.099-.932-.296-1.318a2.223 2.223 0 0 0-.829-.915c-.356-.224-.777-.335-1.262-.335-.534 0-.996.132-1.386.397a2.625 2.625 0 0 0-.892 1.023 3.01 3.01 0 0 0-.313 1.352v.773c0 .659.114 1.218.341 1.676.231.455.551.801.96 1.04.41.235.885.352 1.427.352.352 0 .67-.049.954-.147.288-.103.536-.254.744-.455.209-.205.37-.458.483-.761l1.296.363c-.136.44-.366.826-.688 1.159-.322.33-.719.588-1.193.773a4.416 4.416 0 0 1-1.596.273Zm8.948 0c-.727 0-1.369-.184-1.926-.551-.556-.372-.992-.894-1.306-1.568-.315-.679-.472-1.48-.472-2.404 0-.917.157-1.712.472-2.386.314-.675.751-1.195 1.312-1.563.561-.367 1.208-.551 1.943-.551.568 0 1.017.095 1.347.284.333.186.587.398.761.637.178.234.316.428.415.579h.114v-4.295h1.34V159h-1.295v-1.341h-.159c-.099.159-.239.36-.421.602-.181.239-.441.453-.778.642-.337.186-.786.279-1.347.279Zm.182-1.205c.538 0 .993-.14 1.364-.42.371-.284.653-.676.847-1.176.193-.504.289-1.086.289-1.745 0-.651-.094-1.221-.284-1.71-.189-.492-.469-.875-.841-1.148-.371-.276-.829-.414-1.375-.414-.568 0-1.041.145-1.42.437-.375.288-.657.68-.847 1.176a4.694 4.694 0 0 0-.278 1.659c0 .622.095 1.186.284 1.694.193.503.477.905.852 1.204.379.296.849.443 1.409.443ZM137.815 159v-11.636h1.341v4.295h.114c.098-.151.235-.345.409-.579.178-.239.432-.451.761-.637.334-.189.784-.284 1.353-.284.734 0 1.382.184 1.943.551.56.368.998.888 1.312 1.563.315.674.472 1.469.472 2.386 0 .924-.157 1.725-.472 2.404-.314.674-.75 1.196-1.307 1.568-.556.367-1.198.551-1.926.551-.56 0-1.009-.093-1.346-.279-.337-.189-.597-.403-.779-.642a8.61 8.61 0 0 1-.42-.602h-.159V159h-1.296Zm1.319-4.364c0 .659.096 1.241.289 1.745.193.5.476.892.847 1.176.371.28.826.42 1.364.42.56 0 1.028-.147 1.403-.443.379-.299.663-.701.852-1.204.193-.508.29-1.072.29-1.694 0-.613-.095-1.166-.284-1.659-.186-.496-.468-.888-.847-1.176-.375-.292-.846-.437-1.414-.437-.546 0-1.004.138-1.375.414-.372.273-.652.656-.841 1.148-.19.489-.284 1.059-.284 1.71Zm8.988 7.637a2.93 2.93 0 0 1-.608-.057 1.601 1.601 0 0 1-.369-.102l.341-1.182c.326.083.613.113.863.091a1.04 1.04 0 0 0 .665-.335c.197-.197.377-.518.54-.961l.25-.682-3.227-8.772h1.454l2.409 6.954h.091l2.409-6.954h1.455l-3.705 10a3.761 3.761 0 0 1-.619 1.119 2.321 2.321 0 0 1-.858.665 2.646 2.646 0 0 1-1.091.216Zm16.429-12v1.136h-4.704v-1.136h4.704ZM161.256 159v-9.932c0-.5.117-.916.352-1.25a2.19 2.19 0 0 1 .915-.75c.375-.166.771-.25 1.187-.25.33 0 .599.027.807.08.208.053.364.102.466.147l-.386 1.16a6.067 6.067 0 0 0-.285-.086 1.718 1.718 0 0 0-.465-.051c-.444 0-.764.112-.961.335-.193.224-.289.552-.289.983V159h-1.341Zm8.36.182c-.787 0-1.479-.188-2.073-.563-.591-.375-1.053-.899-1.387-1.574-.329-.674-.494-1.462-.494-2.363 0-.909.165-1.703.494-2.381.334-.678.796-1.204 1.387-1.579.594-.375 1.286-.563 2.073-.563.788 0 1.478.188 2.069.563.594.375 1.056.901 1.386 1.579.333.678.5 1.472.5 2.381 0 .901-.167 1.689-.5 2.363a3.772 3.772 0 0 1-1.386 1.574c-.591.375-1.281.563-2.069.563Zm0-1.205c.599 0 1.091-.153 1.478-.46a2.72 2.72 0 0 0 .858-1.21c.185-.5.278-1.042.278-1.625 0-.584-.093-1.127-.278-1.631a2.748 2.748 0 0 0-.858-1.221c-.387-.311-.879-.466-1.478-.466-.598 0-1.09.155-1.477.466-.386.31-.672.717-.858 1.221a4.695 4.695 0 0 0-.278 1.631c0 .583.093 1.125.278 1.625.186.5.472.903.858 1.21.387.307.879.46 1.477.46Zm6.643-7.704 2.09 3.568 2.091-3.568h1.546l-2.818 4.363 2.818 4.364h-1.546l-2.091-3.386-2.09 3.386h-1.546l2.773-4.364-2.773-4.363h1.546ZM190.376 159l-2.659-8.727h1.409l1.887 6.682h.091l1.863-6.682h1.432l1.841 6.659h.091l1.886-6.659h1.409L196.967 159h-1.318l-1.909-6.705h-.136L191.695 159h-1.319Zm12.364-5.25V159h-1.341v-11.636h1.341v4.272h.114c.204-.45.511-.808.92-1.073.413-.269.962-.404 1.648-.404.595 0 1.115.119 1.562.358a2.41 2.41 0 0 1 1.04 1.085c.25.485.375 1.103.375 1.853V159h-1.341v-5.455c0-.693-.18-1.229-.54-1.607-.356-.383-.85-.574-1.482-.574-.44 0-.834.092-1.182.278a2.025 2.025 0 0 0-.818.813c-.197.356-.296.787-.296 1.295Zm11.771 5.432c-.841 0-1.566-.186-2.176-.557a3.736 3.736 0 0 1-1.403-1.568c-.326-.674-.489-1.458-.489-2.352 0-.894.163-1.682.489-2.364.329-.686.788-1.22 1.375-1.602.591-.387 1.28-.58 2.068-.58.455 0 .903.076 1.347.227.443.152.846.398 1.21.739.363.337.653.784.869 1.341.216.557.324 1.242.324 2.057v.568h-6.727v-1.159h5.363c0-.493-.098-.932-.295-1.318a2.219 2.219 0 0 0-.83-.915c-.356-.224-.776-.335-1.261-.335-.534 0-.996.132-1.386.397a2.617 2.617 0 0 0-.892 1.023 2.997 2.997 0 0 0-.313 1.352v.773c0 .659.114 1.218.341 1.676.231.455.551.801.96 1.04.409.235.885.352 1.426.352.353 0 .671-.049.955-.147.288-.103.536-.254.744-.455.209-.205.37-.458.483-.761l1.296.363c-.137.44-.366.826-.688 1.159-.322.33-.72.588-1.193.773a4.425 4.425 0 0 1-1.597.273Zm6.995-11.818V159h-1.341v-11.636h1.341Zm2.456 14.909v-12h1.295v1.386h.159c.099-.151.235-.345.409-.579.178-.239.432-.451.762-.637.333-.189.784-.284 1.352-.284.735 0 1.382.184 1.943.551.561.368.998.888 1.313 1.563.314.674.471 1.469.471 2.386 0 .924-.157 1.725-.471 2.404-.315.674-.75 1.196-1.307 1.568-.557.367-1.199.551-1.926.551-.561 0-1.01-.093-1.347-.279-.337-.189-.597-.403-.778-.642a8.677 8.677 0 0 1-.421-.602h-.113v4.614h-1.341Zm1.318-7.637c0 .659.096 1.241.29 1.745.193.5.475.892.846 1.176.371.28.826.42 1.364.42.56 0 1.028-.147 1.403-.443.379-.299.663-.701.853-1.204a4.734 4.734 0 0 0 .289-1.694c0-.613-.094-1.166-.284-1.659-.185-.496-.468-.888-.846-1.176-.375-.292-.847-.437-1.415-.437-.546 0-1.004.138-1.375.414-.371.273-.652.656-.841 1.148-.189.489-.284 1.059-.284 1.71Zm14.613-2.409-1.204.341a2.253 2.253 0 0 0-.335-.585 1.63 1.63 0 0 0-.591-.477c-.25-.125-.57-.188-.96-.188-.535 0-.98.123-1.336.37-.352.242-.528.551-.528.926 0 .333.121.596.364.789.242.194.621.355 1.136.483l1.295.319c.781.189 1.362.479 1.745.869.382.386.574.884.574 1.494 0 .5-.144.947-.432 1.341-.284.394-.682.705-1.193.932-.512.227-1.107.341-1.785.341-.89 0-1.626-.193-2.21-.58-.583-.386-.952-.95-1.108-1.693l1.273-.318c.121.47.35.822.688 1.057.34.235.785.352 1.335.352.625 0 1.121-.133 1.488-.398.372-.269.557-.591.557-.966 0-.303-.106-.556-.318-.761-.212-.208-.538-.364-.977-.466l-1.455-.341c-.799-.189-1.386-.483-1.761-.88-.371-.402-.557-.904-.557-1.506 0-.493.138-.928.415-1.307a2.82 2.82 0 0 1 1.142-.892c.485-.216 1.034-.324 1.648-.324.863 0 1.541.189 2.034.568.496.379.848.879 1.056 1.5Zm3.155 6.864c-.28 0-.521-.1-.721-.301a.983.983 0 0 1-.301-.722c0-.28.1-.521.301-.721a.982.982 0 0 1 .721-.302c.281 0 .521.101.722.302.201.2.301.441.301.721a.964.964 0 0 1-.142.512c-.091.155-.214.28-.369.375a.985.985 0 0 1-.512.136Zm8.111-.091v-11.636h4.068c.811 0 1.479.14 2.006.42.526.277.919.65 1.176 1.119.258.466.386.983.386 1.552 0 .5-.089.912-.267 1.238a2.07 2.07 0 0 1-.693.773 3.168 3.168 0 0 1-.926.42V153c.356.023.714.148 1.074.375.36.227.661.553.903.977.243.425.364.943.364 1.557 0 .583-.133 1.108-.398 1.574-.265.466-.683.835-1.255 1.108-.572.273-1.317.409-2.233.409h-4.205Zm1.409-1.25h2.796c.92 0 1.574-.178 1.96-.534.39-.36.585-.796.585-1.307 0-.394-.1-.757-.301-1.091a2.185 2.185 0 0 0-.858-.807c-.371-.204-.811-.306-1.318-.306h-2.864v4.045Zm0-5.273h2.614c.424 0 .807-.083 1.148-.25.344-.166.617-.401.818-.704.204-.303.307-.659.307-1.068 0-.512-.178-.946-.535-1.302-.356-.359-.92-.539-1.693-.539h-2.659v3.863Zm11.384 6.728a3.554 3.554 0 0 1-1.506-.313 2.58 2.58 0 0 1-1.074-.915c-.265-.401-.398-.886-.398-1.454 0-.5.099-.906.296-1.216.197-.315.46-.561.79-.739.329-.178.693-.31 1.091-.398.401-.09.804-.162 1.21-.215.53-.069.96-.12 1.29-.154.333-.038.575-.1.727-.187.155-.087.233-.239.233-.455v-.045c0-.561-.154-.997-.46-1.307-.303-.311-.764-.466-1.381-.466-.64 0-1.142.14-1.506.42-.363.281-.619.58-.767.898l-1.273-.454c.228-.531.531-.944.91-1.239a3.398 3.398 0 0 1 1.25-.625 5.192 5.192 0 0 1 1.34-.182c.281 0 .603.034.966.102.368.065.722.199 1.063.404.345.204.631.513.858.926.227.413.341.966.341 1.659V159h-1.341v-1.182h-.068a2.36 2.36 0 0 1-.455.608c-.212.216-.494.4-.847.551-.352.152-.782.228-1.289.228Zm.204-1.205c.531 0 .978-.104 1.341-.312.368-.209.644-.478.83-.807.189-.33.284-.676.284-1.04v-1.227c-.057.068-.182.13-.375.187-.19.053-.409.101-.659.142-.247.038-.487.072-.722.102-.231.027-.418.05-.562.069a5.107 5.107 0 0 0-.978.221 1.69 1.69 0 0 0-.727.449c-.182.197-.273.466-.273.807 0 .466.173.818.517 1.057.349.235.79.352 1.324.352Zm8.22 1-2.659-8.727h1.409l1.887 6.682h.091l1.863-6.682h1.432l1.841 6.659h.091l1.886-6.659h1.409L278.967 159h-1.318l-1.909-6.705h-.136L273.695 159h-1.319Zm14.022.182c-.728 0-1.37-.184-1.926-.551-.557-.372-.993-.894-1.307-1.568-.315-.679-.472-1.48-.472-2.404 0-.917.157-1.712.472-2.386.314-.675.752-1.195 1.312-1.563.561-.367 1.209-.551 1.943-.551.569 0 1.018.095 1.347.284.333.186.587.398.761.637.178.234.317.428.415.579h.114v-4.295h1.341V159h-1.296v-1.341h-.159c-.098.159-.238.36-.42.602-.182.239-.442.453-.779.642-.337.186-.786.279-1.346.279Zm.182-1.205c.537 0 .992-.14 1.363-.42.371-.284.654-.676.847-1.176.193-.504.29-1.086.29-1.745 0-.651-.095-1.221-.285-1.71-.189-.492-.469-.875-.84-1.148-.372-.276-.83-.414-1.375-.414-.569 0-1.042.145-1.421.437-.375.288-.657.68-.847 1.176a4.694 4.694 0 0 0-.278 1.659c0 .622.095 1.186.284 1.694.193.503.477.905.852 1.204.379.296.849.443 1.41.443Zm12.642-5.75-1.205.341a2.224 2.224 0 0 0-.335-.585 1.63 1.63 0 0 0-.591-.477c-.25-.125-.57-.188-.96-.188-.534 0-.979.123-1.336.37-.352.242-.528.551-.528.926 0 .333.121.596.364.789.242.194.621.355 1.136.483l1.295.319c.781.189 1.362.479 1.745.869.382.386.574.884.574 1.494 0 .5-.144.947-.432 1.341-.284.394-.682.705-1.193.932-.512.227-1.106.341-1.784.341-.891 0-1.627-.193-2.211-.58-.583-.386-.952-.95-1.108-1.693l1.273-.318c.121.47.351.822.688 1.057.341.235.786.352 1.335.352.625 0 1.121-.133 1.489-.398.371-.269.556-.591.556-.966 0-.303-.106-.556-.318-.761-.212-.208-.538-.364-.977-.466l-1.455-.341c-.799-.189-1.386-.483-1.761-.88-.371-.402-.557-.904-.557-1.506 0-.493.138-.928.415-1.307a2.82 2.82 0 0 1 1.142-.892c.485-.216 1.034-.324 1.648-.324.863 0 1.541.189 2.034.568a3.07 3.07 0 0 1 1.057 1.5Zm6.677-1.954h1.341v9.363c0 .538-.093 1.004-.278 1.398a2.008 2.008 0 0 1-.83.915c-.367.216-.831.324-1.392.324h-.273v-1.25h.25c.409 0 .709-.121.898-.364.189-.239.284-.579.284-1.023v-9.363Zm.659-1.455a.953.953 0 0 1-.676-.267.856.856 0 0 1-.278-.642c0-.25.092-.464.278-.642a.953.953 0 0 1 .676-.267c.262 0 .485.089.671.267a.851.851 0 0 1 .284.642c0 .25-.095.464-.284.642a.935.935 0 0 1-.671.267Zm6.683 10.364c-.787 0-1.479-.188-2.073-.563-.591-.375-1.053-.899-1.387-1.574-.329-.674-.494-1.462-.494-2.363 0-.909.165-1.703.494-2.381.334-.678.796-1.204 1.387-1.579.594-.375 1.286-.563 2.073-.563.788 0 1.478.188 2.069.563.594.375 1.056.901 1.386 1.579.333.678.5 1.472.5 2.381 0 .901-.167 1.689-.5 2.363a3.772 3.772 0 0 1-1.386 1.574c-.591.375-1.281.563-2.069.563Zm0-1.205c.599 0 1.091-.153 1.478-.46a2.72 2.72 0 0 0 .858-1.21c.185-.5.278-1.042.278-1.625 0-.584-.093-1.127-.278-1.631a2.748 2.748 0 0 0-.858-1.221c-.387-.311-.879-.466-1.478-.466-.598 0-1.09.155-1.477.466-.386.31-.672.717-.858 1.221a4.695 4.695 0 0 0-.278 1.631c0 .583.093 1.125.278 1.625.186.5.472.903.858 1.21.387.307.879.46 1.477.46Zm9.525 4.478c-.648 0-1.205-.084-1.671-.25a3.55 3.55 0 0 1-1.165-.648 3.563 3.563 0 0 1-.733-.852l1.069-.75c.121.159.274.34.46.545.185.208.439.388.761.54.326.155.752.233 1.279.233.704 0 1.286-.171 1.744-.512.458-.341.687-.875.687-1.602v-1.773h-.113a7.374 7.374 0 0 1-.421.591c-.178.231-.435.438-.772.62-.334.178-.784.267-1.353.267-.704 0-1.337-.167-1.897-.5-.557-.334-.998-.819-1.324-1.455-.322-.636-.483-1.409-.483-2.318 0-.894.157-1.672.471-2.335.315-.667.752-1.182 1.313-1.546.561-.367 1.208-.551 1.943-.551.568 0 1.019.095 1.352.284.337.186.595.398.773.637.182.234.322.428.421.579h.136v-1.386h1.295v8.977c0 .75-.17 1.36-.511 1.83a2.91 2.91 0 0 1-1.364 1.039 5.13 5.13 0 0 1-1.897.336Zm-.046-4.796c.538 0 .993-.123 1.364-.369.371-.246.653-.601.846-1.063.194-.462.29-1.015.29-1.659 0-.629-.095-1.184-.284-1.665-.189-.481-.47-.858-.841-1.13-.371-.273-.829-.409-1.375-.409-.568 0-1.041.144-1.42.431a2.637 2.637 0 0 0-.847 1.16 4.487 4.487 0 0 0-.278 1.613c0 .606.094 1.142.284 1.608.193.462.477.826.852 1.091.379.261.849.392 1.409.392Zm8.273-.25-.091.614c-.064.432-.163.894-.295 1.386-.129.493-.264.957-.404 1.392-.14.436-.256.782-.346 1.04h-1.023l.193-.96c.08-.398.159-.843.239-1.336.083-.488.151-.988.204-1.5l.068-.636h1.455Zm10.871-7.136v1.136h-4.705v-1.136h4.705ZM338.568 159v-9.932c0-.5.118-.916.352-1.25a2.19 2.19 0 0 1 .915-.75c.375-.166.771-.25 1.188-.25.329 0 .598.027.807.08.208.053.363.102.465.147l-.386 1.16a5.962 5.962 0 0 0-.284-.086 1.726 1.726 0 0 0-.466-.051c-.443 0-.763.112-.96.335-.193.224-.29.552-.29.983V159h-1.341Zm6.516-11.636V159h-1.341v-11.636h1.341ZM347.54 159v-8.727h1.341V159h-1.341Zm.682-10.182a.955.955 0 0 1-.677-.267.86.86 0 0 1-.278-.642.86.86 0 0 1 .278-.642.955.955 0 0 1 .677-.267c.261 0 .484.089.67.267a.851.851 0 0 1 .284.642c0 .25-.095.464-.284.642a.934.934 0 0 1-.67.267Zm6.66 10.364c-.818 0-1.523-.193-2.114-.58a3.777 3.777 0 0 1-1.363-1.596c-.318-.678-.477-1.453-.477-2.324 0-.887.162-1.669.488-2.347.33-.682.788-1.214 1.375-1.596.591-.387 1.28-.58 2.068-.58.614 0 1.167.114 1.659.341a3.17 3.17 0 0 1 1.211.955c.314.409.509.886.585 1.431h-1.341c-.102-.397-.33-.75-.682-1.056-.348-.311-.818-.466-1.409-.466-.523 0-.981.136-1.375.409-.39.269-.695.649-.915 1.142-.216.488-.324 1.062-.324 1.721 0 .675.107 1.262.319 1.762.216.5.519.888.909 1.165.394.276.856.414 1.386.414.349 0 .665-.06.949-.182.284-.121.525-.295.722-.522.197-.228.337-.5.42-.818h1.341a3.102 3.102 0 0 1-.563 1.392 3.142 3.142 0 0 1-1.176.977c-.485.239-1.049.358-1.693.358Zm6.642-3.364-.023-1.659h.273l3.818-3.886h1.659l-4.068 4.113h-.113l-1.546 1.432Zm-1.25 3.182v-11.636h1.341V159h-1.341Zm5.546 0-3.409-4.318.954-.932 4.159 5.25h-1.704Zm13.612 3.273v-4.614h-.114c-.098.159-.238.36-.42.602-.182.239-.442.453-.779.642-.337.186-.786.279-1.346.279-.728 0-1.37-.184-1.926-.551-.557-.372-.993-.894-1.307-1.568-.315-.679-.472-1.48-.472-2.404 0-.917.157-1.712.472-2.386.314-.675.752-1.195 1.312-1.563.561-.367 1.209-.551 1.943-.551.569 0 1.018.095 1.347.284.333.186.587.398.761.637.178.234.317.428.415.579h.159v-1.386h1.296v12h-1.341Zm-2.477-4.296c.537 0 .992-.14 1.363-.42.371-.284.654-.676.847-1.176.193-.504.29-1.086.29-1.745 0-.651-.095-1.221-.285-1.71-.189-.492-.469-.875-.84-1.148-.372-.276-.83-.414-1.375-.414-.569 0-1.042.145-1.421.437-.375.288-.657.68-.846 1.176a4.67 4.67 0 0 0-.279 1.659c0 .622.095 1.186.284 1.694.193.503.477.905.852 1.204.379.296.849.443 1.41.443Zm11.772-2.545v-5.159h1.341V159h-1.341v-1.477h-.091c-.204.443-.522.82-.954 1.13-.432.307-.977.461-1.637.461a2.92 2.92 0 0 1-1.454-.358c-.424-.243-.758-.606-1-1.091-.243-.489-.364-1.104-.364-1.847v-5.545h1.341v5.454c0 .637.178 1.144.534 1.523.36.379.818.568 1.375.568.334 0 .673-.085 1.017-.255.349-.171.64-.432.875-.785.239-.352.358-.801.358-1.346Zm6.365 3.773a3.546 3.546 0 0 1-1.505-.313 2.58 2.58 0 0 1-1.074-.915c-.265-.401-.398-.886-.398-1.454 0-.5.099-.906.296-1.216.196-.315.46-.561.789-.739.33-.178.693-.31 1.091-.398.402-.09.805-.162 1.21-.215.531-.069.961-.12 1.29-.154.334-.038.576-.1.727-.187.156-.087.233-.239.233-.455v-.045c0-.561-.153-.997-.46-1.307-.303-.311-.763-.466-1.38-.466-.641 0-1.143.14-1.506.42-.364.281-.619.58-.767.898l-1.273-.454c.227-.531.53-.944.909-1.239a3.406 3.406 0 0 1 1.25-.625 5.205 5.205 0 0 1 1.341-.182c.28 0 .602.034.966.102a3.09 3.09 0 0 1 1.062.404c.345.204.631.513.858.926.228.413.341.966.341 1.659V159h-1.341v-1.182h-.068c-.091.19-.242.392-.454.608-.212.216-.495.4-.847.551-.352.152-.782.228-1.29.228Zm.205-1.205c.53 0 .977-.104 1.341-.312a2.133 2.133 0 0 0 1.113-1.847v-1.227c-.056.068-.181.13-.375.187a6.143 6.143 0 0 1-.659.142 27.7 27.7 0 0 1-.721.102c-.231.027-.419.05-.563.069a5.114 5.114 0 0 0-.977.221 1.684 1.684 0 0 0-.727.449c-.182.197-.273.466-.273.807 0 .466.172.818.517 1.057.348.235.79.352 1.324.352Zm6.243 1v-8.727h1.295v1.318h.091c.159-.432.447-.782.864-1.051a2.54 2.54 0 0 1 1.409-.404c.098 0 .221.002.369.006s.26.01.335.017v1.364a3.351 3.351 0 0 0-.312-.051 3.026 3.026 0 0 0-.506-.04c-.424 0-.803.089-1.136.267a1.954 1.954 0 0 0-1.068 1.778V159h-1.341Zm10.295-8.727v1.136h-4.523v-1.136h4.523Zm-3.204-2.091h1.341v8.318c0 .379.055.663.164.852a.853.853 0 0 0 .432.375c.178.061.366.091.563.091.147 0 .269-.007.363-.023l.228-.045.272 1.205a2.72 2.72 0 0 1-.38.102c-.163.038-.37.057-.62.057-.378 0-.75-.082-1.113-.245a2.217 2.217 0 0 1-.898-.744c-.235-.333-.352-.754-.352-1.261v-8.682ZM413.602 159v-1.023l4.955-6.363v-.091h-4.796v-1.25h6.523v1.068l-4.818 6.318v.091h4.977V159h-6.841Zm10.907-1.591-.091.614c-.065.432-.163.894-.296 1.386-.129.493-.263.957-.403 1.392-.14.436-.256.782-.347 1.04h-1.023c.05-.242.114-.563.194-.96.079-.398.159-.843.238-1.336.084-.488.152-.988.205-1.5l.068-.636h1.455Zm14.12-7.136L435.402 159h-1.364l-3.227-8.727h1.455l2.409 6.954h.091l2.409-6.954h1.454Zm5.117 8.909c-.841 0-1.567-.186-2.176-.557a3.744 3.744 0 0 1-1.404-1.568c-.326-.674-.488-1.458-.488-2.352 0-.894.162-1.682.488-2.364.33-.686.788-1.22 1.375-1.602.591-.387 1.28-.58 2.068-.58.455 0 .904.076 1.347.227.443.152.847.398 1.21.739.364.337.654.784.87 1.341.215.557.323 1.242.323 2.057v.568h-6.727v-1.159h5.364c0-.493-.099-.932-.296-1.318a2.217 2.217 0 0 0-.829-.915c-.356-.224-.777-.335-1.262-.335-.534 0-.996.132-1.386.397a2.625 2.625 0 0 0-.892 1.023 3.01 3.01 0 0 0-.313 1.352v.773c0 .659.114 1.218.341 1.676.231.455.552.801.961 1.04.409.235.884.352 1.426.352.352 0 .67-.049.954-.147.288-.103.536-.254.745-.455.208-.205.369-.458.483-.761l1.295.363c-.136.44-.366.826-.687 1.159-.322.33-.72.588-1.194.773a4.416 4.416 0 0 1-1.596.273Zm6.419-8.909 2.091 3.568 2.091-3.568h1.545l-2.818 4.363 2.818 4.364h-1.545l-2.091-3.386-2.091 3.386h-1.546l2.773-4.364-2.773-4.363h1.546ZM81.568 185.75V191h-1.34v-8.727h1.295v1.363h.113c.205-.443.516-.799.932-1.068.417-.273.955-.409 1.614-.409.59 0 1.108.121 1.551.364.443.238.788.602 1.034 1.091.246.484.37 1.098.37 1.841V191h-1.341v-5.455c0-.685-.179-1.219-.535-1.602-.356-.386-.844-.579-1.465-.579-.429 0-.811.092-1.148.278a1.99 1.99 0 0 0-.79.813c-.193.356-.29.787-.29 1.295Zm8.57 8.523c-.228 0-.43-.019-.608-.057a1.608 1.608 0 0 1-.37-.102l.341-1.182c.326.083.614.113.864.091a1.04 1.04 0 0 0 .665-.335c.197-.197.377-.518.54-.961l.25-.682-3.228-8.772h1.455l2.409 6.954h.09l2.41-6.954h1.454l-3.704 10a3.77 3.77 0 0 1-.62 1.119 2.324 2.324 0 0 1-.857.665 2.645 2.645 0 0 1-1.091.216ZM98.18 191v-8.727h1.296v1.363h.114a2.19 2.19 0 0 1 .88-1.085c.405-.261.892-.392 1.46-.392.576 0 1.055.131 1.438.392.386.258.687.619.903 1.085h.091c.224-.45.559-.808 1.006-1.073.447-.269.983-.404 1.608-.404.78 0 1.418.244 1.915.733.496.485.744 1.241.744 2.267V191h-1.341v-5.841c0-.644-.176-1.104-.528-1.381a1.96 1.96 0 0 0-1.245-.414c-.613 0-1.089.185-1.426.556-.337.368-.506.834-.506 1.398V191h-1.363v-5.977c0-.496-.161-.896-.483-1.199-.322-.307-.737-.46-1.244-.46-.349 0-.675.092-.978.278a2.104 2.104 0 0 0-.727.773 2.28 2.28 0 0 0-.273 1.13V191h-1.34Zm13.907 3.273v-12h1.295v1.386h.159c.099-.151.235-.345.409-.579.178-.239.432-.451.762-.637.333-.189.784-.284 1.352-.284.735 0 1.382.184 1.943.551.561.368.998.888 1.313 1.563.314.674.471 1.469.471 2.386 0 .924-.157 1.725-.471 2.404-.315.674-.75 1.196-1.307 1.568-.557.367-1.199.551-1.926.551-.561 0-1.01-.093-1.347-.279-.337-.189-.597-.403-.778-.642a8.677 8.677 0 0 1-.421-.602h-.113v4.614h-1.341Zm1.318-7.637c0 .659.096 1.241.29 1.745.193.5.475.892.846 1.176.371.28.826.42 1.364.42.56 0 1.028-.147 1.403-.443.379-.299.663-.701.853-1.204a4.734 4.734 0 0 0 .289-1.694c0-.613-.094-1.166-.284-1.659-.185-.496-.468-.888-.846-1.176-.375-.292-.847-.437-1.415-.437-.546 0-1.004.138-1.375.414-.371.273-.652.656-.841 1.148-.189.489-.284 1.059-.284 1.71Zm9.773-.886V191h-1.341v-11.636h1.341v4.272h.113c.205-.45.512-.808.921-1.073.413-.269.962-.404 1.647-.404.595 0 1.116.119 1.563.358.447.235.793.597 1.04 1.085.25.485.375 1.103.375 1.853V191h-1.341v-5.455c0-.693-.18-1.229-.54-1.607-.356-.383-.85-.574-1.483-.574-.439 0-.833.092-1.182.278a2.032 2.032 0 0 0-.818.813c-.197.356-.295.787-.295 1.295Zm14.294-1.523-1.205.341a2.224 2.224 0 0 0-.335-.585 1.63 1.63 0 0 0-.591-.477c-.25-.125-.57-.188-.96-.188-.534 0-.979.123-1.336.37-.352.242-.528.551-.528.926 0 .333.121.596.364.789.242.194.621.355 1.136.483l1.295.319c.781.189 1.362.479 1.745.869.382.386.574.884.574 1.494 0 .5-.144.947-.432 1.341-.284.394-.682.705-1.193.932-.512.227-1.106.341-1.784.341-.891 0-1.627-.193-2.211-.58-.583-.386-.952-.95-1.108-1.693l1.273-.318c.121.47.351.822.688 1.057.341.235.786.352 1.335.352.625 0 1.121-.133 1.489-.398.371-.269.556-.591.556-.966 0-.303-.106-.556-.318-.761-.212-.208-.538-.364-.977-.466l-1.455-.341c-.799-.189-1.386-.483-1.761-.88-.371-.402-.557-.904-.557-1.506 0-.493.138-.928.415-1.307a2.82 2.82 0 0 1 1.142-.892c.485-.216 1.034-.324 1.648-.324.863 0 1.541.189 2.034.568a3.07 3.07 0 0 1 1.057 1.5Zm3.154 6.864c-.28 0-.52-.1-.721-.301a.983.983 0 0 1-.301-.722c0-.28.1-.521.301-.721a.984.984 0 0 1 .721-.302c.281 0 .521.101.722.302.201.2.301.441.301.721a.964.964 0 0 1-.142.512c-.091.155-.214.28-.369.375a.985.985 0 0 1-.512.136Z" fill="#344054"/><path d="M90.278 231.438H87.79a2.436 2.436 0 0 0-.279-.858c-.14-.254-.32-.47-.54-.648a2.362 2.362 0 0 0-.76-.409 2.904 2.904 0 0 0-.927-.142c-.602 0-1.127.149-1.574.449-.447.295-.793.727-1.04 1.295-.246.564-.369 1.25-.369 2.057 0 .829.123 1.526.37 2.091.25.564.598.99 1.045 1.278.447.288.964.432 1.551.432.33 0 .635-.044.915-.131.284-.087.536-.214.755-.38.22-.171.402-.377.546-.62a2.41 2.41 0 0 0 .307-.829l2.488.011a4.644 4.644 0 0 1-1.511 2.869c-.428.387-.94.694-1.534.921-.591.223-1.26.335-2.006.335-1.038 0-1.966-.235-2.784-.704-.814-.47-1.458-1.15-1.932-2.04-.47-.89-.704-1.968-.704-3.233 0-1.269.239-2.349.716-3.239.477-.89 1.125-1.568 1.943-2.034.818-.47 1.739-.704 2.761-.704.674 0 1.3.094 1.875.284.58.189 1.093.466 1.54.829.447.36.81.801 1.091 1.324.284.523.466 1.121.545 1.796Zm4.14-4.074V239h-2.42v-11.636h2.42ZM96.356 239v-8.727h2.421V239h-2.42Zm1.216-9.852c-.36 0-.668-.12-.926-.358a1.162 1.162 0 0 1-.38-.87c0-.333.126-.619.38-.857.258-.243.567-.364.926-.364.36 0 .667.121.92.364.258.238.387.524.387.857 0 .338-.129.627-.386.87-.254.238-.56.358-.92.358Zm7.087 10.022c-.894 0-1.663-.189-2.307-.568a3.84 3.84 0 0 1-1.477-1.591c-.341-.678-.511-1.458-.511-2.341 0-.893.172-1.678.517-2.352a3.833 3.833 0 0 1 1.483-1.585c.64-.383 1.401-.574 2.284-.574.761 0 1.428.138 2 .415a3.344 3.344 0 0 1 1.358 1.165c.333.5.517 1.087.551 1.761h-2.284c-.065-.436-.235-.786-.512-1.051-.272-.269-.63-.404-1.073-.404-.376 0-.703.103-.983.307-.277.201-.493.495-.648.881-.155.386-.233.854-.233 1.403 0 .557.076 1.031.227 1.421.155.39.373.687.654.892.28.204.607.307.983.307.276 0 .524-.057.744-.171.223-.113.407-.278.551-.494.148-.22.244-.483.29-.79h2.284c-.038.667-.22 1.254-.546 1.762a3.299 3.299 0 0 1-1.335 1.181c-.568.284-1.24.426-2.017.426Zm7.641-2.681.005-2.904h.353l2.795-3.312h2.779l-3.756 4.386h-.574l-1.602 1.83ZM110.107 239v-11.636h2.42V239h-2.42Zm5.454 0-2.568-3.801 1.614-1.71 3.789 5.511h-2.835Zm9.982-5.045V239h-2.421v-11.636h2.352v4.449h.103c.197-.516.515-.919.954-1.211.44-.295.991-.443 1.654-.443.606 0 1.134.133 1.585.398.454.261.807.638 1.057 1.131.253.488.378 1.073.375 1.755V239h-2.421v-5.125c.004-.538-.132-.956-.409-1.256-.273-.299-.655-.449-1.148-.449-.329 0-.621.071-.875.211a1.48 1.48 0 0 0-.59.613c-.141.265-.213.586-.216.961Zm11.541 5.215c-.898 0-1.671-.181-2.318-.545a3.728 3.728 0 0 1-1.489-1.557c-.348-.674-.523-1.471-.523-2.392 0-.898.175-1.685.523-2.363a3.856 3.856 0 0 1 1.472-1.586c.636-.379 1.382-.568 2.238-.568.576 0 1.112.093 1.608.279.5.181.936.456 1.307.823.375.368.667.83.875 1.387.208.553.312 1.2.312 1.943v.665h-7.369v-1.5h5.091c0-.349-.076-.657-.227-.926a1.629 1.629 0 0 0-.631-.631 1.802 1.802 0 0 0-.926-.233c-.367 0-.693.085-.977.256-.281.166-.5.392-.659.676-.159.28-.241.593-.245.937v1.426c0 .432.08.805.239 1.12.163.314.392.557.687.727.296.17.646.256 1.052.256.269 0 .515-.038.738-.114.224-.076.415-.189.574-.341.159-.151.28-.337.364-.557l2.238.148a3.04 3.04 0 0 1-.699 1.409c-.348.398-.799.708-1.352.932-.549.22-1.183.329-1.903.329Zm5.585-.17v-8.727h2.347v1.522h.091c.159-.541.426-.95.801-1.227.375-.28.806-.42 1.295-.42.121 0 .252.007.392.022.14.016.263.036.369.063v2.148a3.075 3.075 0 0 0-.471-.091 4.164 4.164 0 0 0-.551-.04c-.356 0-.674.078-.955.233a1.72 1.72 0 0 0-.659.636 1.84 1.84 0 0 0-.239.944V239h-2.42Zm10.118.17c-.898 0-1.671-.181-2.318-.545a3.734 3.734 0 0 1-1.489-1.557c-.348-.674-.523-1.471-.523-2.392 0-.898.175-1.685.523-2.363a3.863 3.863 0 0 1 1.472-1.586c.636-.379 1.382-.568 2.238-.568.576 0 1.112.093 1.608.279.5.181.936.456 1.307.823.375.368.667.83.875 1.387.208.553.313 1.2.313 1.943v.665h-7.37v-1.5h5.091c0-.349-.076-.657-.227-.926a1.629 1.629 0 0 0-.631-.631 1.802 1.802 0 0 0-.926-.233c-.367 0-.693.085-.977.256-.28.166-.5.392-.659.676-.159.28-.241.593-.245.937v1.426c0 .432.08.805.239 1.12.163.314.392.557.688.727.295.17.645.256 1.051.256.269 0 .515-.038.738-.114a1.474 1.474 0 0 0 .938-.898l2.238.148a3.049 3.049 0 0 1-.698 1.409c-.349.398-.8.708-1.353.932-.549.22-1.183.329-1.903.329ZM79 242.182h78.406v1.091H79v-1.091Z" fill="#0F71BB"/></g><path d="M59 2h422V0H59v2Zm425 3v264h2V5h-2Zm-3 267H59v2h422v-2Zm-425-3V5h-2v264h2Zm3 3a3 3 0 0 1-3-3h-2a5 5 0 0 0 5 5v-2Zm425-3a3 3 0 0 1-3 3v2a5 5 0 0 0 5-5h-2ZM481 2a3 3 0 0 1 3 3h2a5 5 0 0 0-5-5v2ZM59 0a5 5 0 0 0-5 5h2a3 3 0 0 1 3-3V0Z" fill="#98A2B3"/><path d="M24 234h53" stroke="#000" stroke-dasharray="2 2"/><circle cx="12" cy="234" r="12" fill="#344054"/><path d="M8.193 240v-1.773l4.142-3.835c.352-.341.648-.648.887-.92.242-.273.426-.54.55-.802a1.97 1.97 0 0 0 .188-.857 1.61 1.61 0 0 0-.233-.881 1.533 1.533 0 0 0-.636-.574 2 2 0 0 0-.915-.205c-.356 0-.667.072-.932.216a1.49 1.49 0 0 0-.613.62c-.144.269-.216.589-.216.96H8.08c0-.761.172-1.422.517-1.983a3.451 3.451 0 0 1 1.449-1.301c.62-.307 1.337-.46 2.147-.46.834 0 1.559.147 2.176.443.622.291 1.104.697 1.45 1.216.344.519.516 1.113.516 1.784 0 .439-.087.873-.261 1.301-.17.428-.476.903-.915 1.426-.44.519-1.059 1.142-1.858 1.869l-1.699 1.665v.08h4.887V240H8.193Z" fill="#fff"/><path d="M520.001 40.625h-59" stroke="#000" stroke-dasharray="2 2"/><circle cx="519" cy="41" r="12" fill="#344054"/><path d="M521.006 35.364V47h-2.461v-9.301h-.068l-2.665 1.67v-2.181l2.881-1.824h2.313Z" fill="#fff"/><defs><clipPath id="a"><path d="M55 5a4 4 0 0 1 4-4h422a4 4 0 0 1 4 4v264a4 4 0 0 1-4 4H59a4 4 0 0 1-4-4V5Z" fill="#fff"/></clipPath></defs></svg>