<svg width="546" height="310" viewBox="0 0 546 310" fill="none" xmlns="http://www.w3.org/2000/svg"><g clip-path="url(#a)"><path d="M58.575 5a4 4 0 0 1 4-4h422a4 4 0 0 1 4 4v264a4 4 0 0 1-4 4h-422a4 4 0 0 1-4-4V5Z" fill="#fff"/><path fill-rule="evenodd" clip-rule="evenodd" d="M89.007 46.569a7.875 7.875 0 1 0 11.137-11.138 7.875 7.875 0 0 0-11.137 11.138Zm11.932.795a9 9 0 1 1-12.727-12.727 9 9 0 0 1 12.727 12.727Zm-11.408-1.34a7.073 7.073 0 0 1-.078-9.925l10.001 10.002a7.073 7.073 0 0 1-9.923-.078Z" fill="#344054"/><path d="M139.493 38.656h-3.733a3.652 3.652 0 0 0-.418-1.287c-.21-.38-.48-.704-.809-.971a3.576 3.576 0 0 0-1.142-.614 4.376 4.376 0 0 0-1.39-.213c-.903 0-1.69.224-2.36.673-.671.444-1.191 1.091-1.56 1.944-.369.846-.554 1.874-.554 3.085 0 1.244.185 2.29.554 3.136.375.847.898 1.486 1.568 1.918.671.431 1.446.647 2.327.647.494 0 .951-.065 1.372-.196a3.6 3.6 0 0 0 1.133-.57c.33-.256.603-.566.819-.93a3.62 3.62 0 0 0 .46-1.244l3.733.017a6.749 6.749 0 0 1-.725 2.318c-.38.739-.895 1.4-1.542 1.986-.642.58-1.409 1.04-2.301 1.38-.887.336-1.89.504-3.009.504-1.557 0-2.949-.353-4.176-1.057-1.222-.705-2.188-1.725-2.898-3.06-.704-1.335-1.057-2.952-1.057-4.85 0-1.903.358-3.522 1.074-4.857.716-1.335 1.688-2.352 2.915-3.051 1.227-.705 2.608-1.057 4.142-1.057a8.96 8.96 0 0 1 2.813.426 7.124 7.124 0 0 1 2.309 1.244 6.402 6.402 0 0 1 1.637 1.986c.426.784.698 1.682.818 2.693Zm6.311 11.591c-.835 0-1.58-.145-2.233-.434a3.593 3.593 0 0 1-1.551-1.305c-.375-.579-.563-1.3-.563-2.164 0-.727.134-1.338.401-1.833a3.244 3.244 0 0 1 1.091-1.193 5.31 5.31 0 0 1 1.568-.682c.591-.153 1.21-.261 1.858-.324a46.616 46.616 0 0 0 1.841-.221c.466-.074.804-.182 1.014-.324.21-.142.315-.352.315-.63v-.052c0-.54-.17-.957-.511-1.253-.335-.295-.812-.443-1.432-.443-.653 0-1.173.145-1.559.435a1.998 1.998 0 0 0-.768 1.074l-3.357-.273a4.557 4.557 0 0 1 1.005-2.063c.5-.585 1.145-1.034 1.935-1.346.795-.318 1.716-.477 2.761-.477.728 0 1.424.085 2.088.255.671.17 1.265.435 1.782.793.522.358.934.818 1.235 1.38.301.557.452 1.225.452 2.003V50h-3.443v-1.815h-.102c-.211.409-.492.77-.844 1.082a3.906 3.906 0 0 1-1.27.724c-.494.17-1.065.256-1.713.256Zm1.04-2.505c.534 0 1.005-.106 1.414-.316.41-.216.731-.506.964-.87.232-.363.349-.775.349-1.235v-1.39a1.95 1.95 0 0 1-.469.205 8.55 8.55 0 0 1-.656.162c-.244.046-.489.088-.733.128l-.665.094a4.485 4.485 0 0 0-1.116.298 1.787 1.787 0 0 0-.742.554c-.176.227-.264.511-.264.852 0 .495.179.873.537 1.134.364.256.824.384 1.381.384ZM155.993 50V36.91h3.52v2.283h.136c.239-.812.639-1.426 1.202-1.84a3.154 3.154 0 0 1 1.943-.631 5.414 5.414 0 0 1 1.142.127v3.222a4.725 4.725 0 0 0-.707-.136 6.365 6.365 0 0 0-.827-.06c-.534 0-1.011.117-1.432.35a2.577 2.577 0 0 0-.989.954c-.238.41-.358.88-.358 1.415V50h-3.63Zm14.035.213a4.942 4.942 0 0 1-2.702-.767c-.801-.517-1.438-1.276-1.909-2.276-.466-1.005-.699-2.238-.699-3.698 0-1.5.241-2.748.724-3.742.483-1 1.125-1.747 1.927-2.241.806-.5 1.69-.75 2.65-.75.733 0 1.344.125 1.832.375.495.244.893.55 1.194.92.306.364.539.722.699 1.074h.11v-6.563h3.622V50h-3.579v-2.097h-.153a4.686 4.686 0 0 1-.725 1.083 3.601 3.601 0 0 1-1.202.878c-.488.233-1.085.35-1.789.35Zm1.15-2.89c.585 0 1.08-.158 1.483-.476.409-.324.722-.776.938-1.355.221-.58.332-1.259.332-2.037 0-.779-.108-1.455-.324-2.029-.216-.574-.528-1.017-.937-1.33-.409-.312-.907-.468-1.492-.468-.596 0-1.099.162-1.508.486-.409.324-.719.772-.929 1.346-.211.574-.316 1.239-.316 1.995 0 .76.105 1.434.316 2.02.216.579.525 1.033.929 1.363.409.324.912.486 1.508.486Zm21.801-10.414v2.727h-7.883V36.91h7.883Zm-6.093-3.136h3.63v12.204c0 .336.051.597.154.784.102.182.244.31.426.384.187.074.403.11.648.11.17 0 .34-.014.511-.042l.392-.077.571 2.702c-.182.057-.438.122-.767.196-.33.08-.73.128-1.202.145-.875.034-1.642-.082-2.301-.35a3.216 3.216 0 0 1-1.526-1.244c-.363-.562-.542-1.273-.536-2.13V33.773ZM195.344 50V36.91h3.631V50h-3.631Zm1.824-14.778c-.54 0-1.003-.18-1.389-.537-.381-.364-.571-.799-.571-1.304 0-.5.19-.93.571-1.287a1.954 1.954 0 0 1 1.389-.546c.54 0 1 .182 1.381.546.386.358.579.787.579 1.287 0 .505-.193.94-.579 1.304a1.944 1.944 0 0 1-1.381.537Zm11.679 1.687v2.727h-7.884V36.91h7.884Zm-6.094-3.136h3.63v12.204c0 .336.052.597.154.784.102.182.244.31.426.384.187.074.403.11.648.11.17 0 .341-.014.511-.042l.392-.077.571 2.702c-.182.057-.437.122-.767.196-.329.08-.73.128-1.202.145-.875.034-1.642-.082-2.301-.35a3.209 3.209 0 0 1-1.525-1.244c-.364-.562-.543-1.273-.537-2.13V33.773Zm12.37-1.228V50h-3.63V32.545h3.63Zm8.875 17.71c-1.347 0-2.506-.272-3.477-.818a5.598 5.598 0 0 1-2.233-2.335c-.523-1.011-.785-2.207-.785-3.588 0-1.346.262-2.528.785-3.545a5.79 5.79 0 0 1 2.207-2.378c.954-.568 2.074-.852 3.358-.852.864 0 1.668.139 2.412.417.75.273 1.403.685 1.96 1.236.563.551 1 1.244 1.313 2.08.312.83.468 1.8.468 2.914v.997h-11.054v-2.25h7.637c0-.522-.114-.985-.341-1.389a2.443 2.443 0 0 0-.946-.946c-.398-.233-.861-.35-1.389-.35-.552 0-1.04.129-1.466.384-.421.25-.75.588-.989 1.015a2.85 2.85 0 0 0-.366 1.406v2.139c0 .648.119 1.207.357 1.679.245.472.589.835 1.032 1.09.443.257.968.384 1.576.384a3.42 3.42 0 0 0 1.108-.17c.336-.114.623-.284.861-.511a2.22 2.22 0 0 0 .546-.836l3.358.222a4.586 4.586 0 0 1-1.049 2.114c-.522.596-1.199 1.062-2.028 1.397-.824.33-1.776.495-2.855.495Z" fill="#344054"/><path d="M395.575 33a4 4 0 0 1 4-4h61a4 4 0 0 1 4 4v16a4 4 0 0 1-4 4h-61a4 4 0 0 1-4-4V33Z" fill="#0A8217"/><path d="M413.984 38.746c-.04-.4-.211-.712-.512-.934-.302-.222-.711-.333-1.228-.333-.352 0-.648.05-.89.149-.242.096-.428.23-.557.403a.97.97 0 0 0-.189.586.834.834 0 0 0 .114.477c.086.136.204.254.353.353.149.097.322.181.517.254.196.07.405.13.627.179l.914.219c.445.1.852.232 1.223.397.372.166.693.37.965.612s.482.527.631.855c.153.328.231.704.234 1.129-.003.623-.162 1.163-.477 1.62-.312.454-.763.807-1.353 1.06-.586.248-1.294.372-2.122.372-.822 0-1.538-.126-2.148-.378-.607-.252-1.081-.624-1.422-1.118-.338-.497-.515-1.112-.532-1.845h2.083c.023.342.121.627.293.855.176.226.41.396.701.512a2.79 2.79 0 0 0 1 .17c.364 0 .681-.054.949-.16.272-.106.483-.253.632-.442.149-.189.223-.406.223-.651a.85.85 0 0 0-.203-.577c-.133-.156-.329-.288-.587-.398a5.936 5.936 0 0 0-.94-.298l-1.108-.279c-.859-.208-1.537-.535-2.034-.979-.497-.444-.744-1.042-.741-1.795-.003-.616.161-1.155.493-1.615.334-.461.793-.82 1.377-1.08.583-.258 1.246-.387 1.988-.387.756 0 1.416.13 1.979.388.567.258 1.008.618 1.323 1.079.314.46.477.994.487 1.6h-2.063Zm7.672-.382v1.59h-4.599v-1.59h4.599Zm-3.555-1.83h2.118v7.12c0 .195.03.347.09.457a.49.49 0 0 0 .248.224c.11.043.236.064.378.064.1 0 .199-.008.298-.025.1-.02.176-.035.229-.044l.333 1.576a5.934 5.934 0 0 1-.447.114 3.583 3.583 0 0 1-.701.084c-.511.02-.958-.048-1.343-.203a1.872 1.872 0 0 1-.889-.726c-.213-.328-.317-.743-.314-1.243v-7.398Zm7.112 9.61a3.18 3.18 0 0 1-1.302-.253 2.092 2.092 0 0 1-.905-.761c-.219-.338-.328-.759-.328-1.263 0-.424.078-.78.233-1.069a1.89 1.89 0 0 1 .637-.696 3.08 3.08 0 0 1 .914-.397c.345-.09.706-.153 1.084-.19.444-.046.802-.089 1.074-.129.272-.043.469-.106.592-.189a.416.416 0 0 0 .184-.367v-.03c0-.315-.1-.559-.299-.731-.195-.172-.474-.259-.835-.259-.381 0-.684.085-.91.254a1.168 1.168 0 0 0-.447.626l-1.959-.159c.1-.464.295-.865.587-1.203a2.814 2.814 0 0 1 1.128-.785c.464-.186 1.001-.279 1.611-.279.424 0 .83.05 1.218.15.391.099.738.253 1.039.462.305.209.545.477.721.805.176.325.264.714.264 1.168V46h-2.009v-1.059h-.06c-.122.239-.286.45-.492.631-.205.18-.452.32-.741.423-.288.1-.621.15-.999.15Zm.607-1.462c.311 0 .586-.06.825-.183.239-.126.426-.295.562-.508.136-.212.204-.452.204-.72v-.81a1.15 1.15 0 0 1-.274.119c-.113.033-.24.064-.383.094-.142.026-.285.051-.427.075l-.388.054a2.6 2.6 0 0 0-.651.174c-.186.08-.33.188-.433.323a.786.786 0 0 0-.154.498c0 .288.104.508.313.66.212.15.481.224.806.224Zm9.398-6.318v1.59h-4.598v-1.59h4.598Zm-3.554-1.83h2.118v7.12c0 .195.03.347.089.457a.5.5 0 0 0 .249.224c.109.043.235.064.378.064.099 0 .198-.008.298-.025.099-.02.176-.035.229-.044l.333 1.576a5.983 5.983 0 0 1-.448.114 3.583 3.583 0 0 1-.701.084c-.51.02-.958-.048-1.342-.203a1.874 1.874 0 0 1-.89-.726c-.212-.328-.317-.743-.313-1.243v-7.398Zm9.831 6.215v-4.385h2.118V46h-2.033v-1.387h-.08a2.253 2.253 0 0 1-.86 1.079c-.398.272-.883.407-1.457.407-.51 0-.959-.116-1.347-.348a2.393 2.393 0 0 1-.91-.989c-.215-.428-.325-.94-.328-1.536v-4.862h2.118v4.484c.003.45.124.807.363 1.069.239.262.558.393.959.393.256 0 .494-.058.716-.174.222-.12.401-.295.537-.527.139-.232.207-.519.204-.86Zm10.166-2.208-1.939.12a1.005 1.005 0 0 0-.214-.448 1.13 1.13 0 0 0-.432-.323 1.475 1.475 0 0 0-.632-.124c-.328 0-.605.07-.83.208-.225.136-.338.319-.338.547 0 .183.073.337.219.463.145.126.396.227.75.303l1.382.278c.743.153 1.296.398 1.661.736.364.338.547.782.547 1.332 0 .501-.148.94-.443 1.318-.291.378-.692.673-1.203.885-.507.209-1.092.313-1.755.313-1.011 0-1.816-.21-2.416-.631a2.46 2.46 0 0 1-1.049-1.73l2.083-.11c.063.309.216.544.457.706.242.16.552.239.93.239.371 0 .67-.071.895-.214.229-.146.345-.333.348-.562a.582.582 0 0 0-.244-.472c-.159-.126-.404-.222-.735-.288l-1.323-.264c-.746-.149-1.301-.407-1.665-.775-.362-.368-.542-.837-.542-1.407 0-.49.132-.913.398-1.268.268-.355.644-.628 1.128-.82.487-.193 1.057-.289 1.71-.289.965 0 1.724.204 2.277.612.557.407.882.963.975 1.665Z" fill="#fff"/><path d="M83.348 84.614v-1.25h8.727v1.25h-3.659V95h-1.409V84.614h-3.66Zm12.061 5.136V95h-1.34V83.364h1.34v4.272h.114c.204-.45.511-.808.92-1.073.413-.27.962-.404 1.648-.404.595 0 1.115.12 1.562.358a2.41 2.41 0 0 1 1.04 1.085c.25.485.375 1.102.375 1.852V95h-1.34v-5.454c0-.694-.18-1.23-.54-1.609-.357-.382-.851-.573-1.484-.573-.439 0-.833.092-1.181.278a2.035 2.035 0 0 0-.819.813c-.197.356-.295.787-.295 1.295Zm11.771 5.432c-.841 0-1.566-.186-2.176-.557a3.733 3.733 0 0 1-1.403-1.568c-.326-.674-.489-1.459-.489-2.353 0-.893.163-1.681.489-2.363.329-.686.788-1.22 1.375-1.602.591-.387 1.28-.58 2.068-.58.454 0 .903.076 1.347.227a3.34 3.34 0 0 1 1.21.739c.363.337.653.784.869 1.34.216.558.324 1.243.324 2.058v.568h-6.727v-1.16h5.363c0-.492-.098-.931-.295-1.317a2.225 2.225 0 0 0-.83-.915c-.356-.224-.776-.335-1.261-.335-.534 0-.996.132-1.386.397a2.608 2.608 0 0 0-.892 1.023c-.209.42-.313.871-.313 1.352v.773c0 .66.114 1.218.341 1.676.231.455.551.801.96 1.04.409.235.885.352 1.426.352a2.9 2.9 0 0 0 .955-.148 2.03 2.03 0 0 0 .744-.454 2.06 2.06 0 0 0 .483-.761l1.296.363a2.88 2.88 0 0 1-.688 1.16c-.322.329-.72.587-1.193.772a4.43 4.43 0 0 1-1.597.273Zm16.108 3.09V93.66h-.113a8.77 8.77 0 0 1-.421.602c-.182.239-.441.453-.778.642-.337.186-.786.279-1.347.279-.727 0-1.369-.184-1.926-.551-.557-.371-.992-.894-1.307-1.569-.314-.677-.471-1.479-.471-2.403 0-.917.157-1.712.471-2.386.315-.674.752-1.195 1.313-1.563.56-.367 1.208-.55 1.943-.55.568 0 1.017.094 1.346.283.334.186.588.398.762.636.178.235.316.429.415.58h.159v-1.386h1.295v12h-1.341Zm-2.477-4.295c.538 0 .992-.14 1.364-.42.371-.284.653-.676.846-1.176.193-.504.29-1.085.29-1.745 0-.651-.095-1.221-.284-1.71-.189-.492-.47-.875-.841-1.148-.371-.276-.83-.414-1.375-.414-.568 0-1.042.145-1.42.437-.375.288-.658.68-.847 1.176a4.667 4.667 0 0 0-.278 1.66c0 .62.094 1.185.284 1.692.193.504.477.906.852 1.205.379.295.848.443 1.409.443Zm11.773-2.545v-5.16h1.341V95h-1.341v-1.477h-.091c-.205.443-.523.82-.955 1.13-.432.307-.977.46-1.636.46-.546 0-1.03-.119-1.455-.357-.424-.243-.757-.606-1-1.091-.242-.489-.363-1.104-.363-1.847v-5.545h1.341v5.454c0 .637.178 1.144.534 1.523.36.379.818.568 1.375.568a2.29 2.29 0 0 0 1.017-.255c.348-.171.64-.432.875-.785.238-.352.358-.8.358-1.346ZM136.381 95v-8.727h1.341V95h-1.341Zm.681-10.182a.954.954 0 0 1-.676-.267.86.86 0 0 1-.278-.642.86.86 0 0 1 .278-.642.955.955 0 0 1 .676-.267c.262 0 .485.089.671.267a.851.851 0 0 1 .284.642c0 .25-.095.464-.284.642a.934.934 0 0 1-.671.267Zm6.661 10.364c-.818 0-1.523-.193-2.114-.58a3.774 3.774 0 0 1-1.363-1.596c-.319-.678-.478-1.453-.478-2.324 0-.886.163-1.669.489-2.347.33-.682.788-1.214 1.375-1.596.591-.387 1.28-.58 2.068-.58a3.91 3.91 0 0 1 1.659.341 3.18 3.18 0 0 1 1.211.954c.314.41.509.887.585 1.432h-1.341c-.102-.397-.33-.75-.682-1.056-.348-.311-.818-.466-1.409-.466-.523 0-.981.136-1.375.409-.39.269-.695.65-.915 1.142-.216.488-.324 1.062-.324 1.721 0 .675.106 1.262.318 1.762.216.5.519.888.91 1.165.393.276.856.414 1.386.414a2.4 2.4 0 0 0 .949-.181c.284-.122.524-.296.721-.523.197-.227.337-.5.421-.819h1.341c-.076.516-.264.98-.563 1.393a3.142 3.142 0 0 1-1.176.977c-.485.239-1.049.358-1.693.358Zm6.642-3.364-.023-1.659h.273l3.818-3.886h1.659l-4.068 4.113h-.114l-1.545 1.432ZM149.115 95V83.364h1.341V95h-1.341Zm5.545 0-3.409-4.318.955-.932 4.159 5.25h-1.705Zm5.158-1.59-.091.613a12.43 12.43 0 0 1-.295 1.386c-.129.492-.264.956-.404 1.392-.14.436-.255.782-.346 1.04h-1.023l.193-.96c.08-.398.159-.843.239-1.335.083-.49.151-.99.204-1.5l.069-.637h1.454Zm7.166 1.59V83.364h1.341v4.295h.114c.098-.151.235-.345.409-.58.178-.238.432-.45.761-.636.334-.19.784-.284 1.353-.284.734 0 1.382.184 1.943.551.56.368.998.889 1.312 1.563.315.674.472 1.47.472 2.386 0 .924-.157 1.725-.472 2.403-.314.675-.75 1.198-1.307 1.569-.556.367-1.198.55-1.926.55-.56 0-1.009-.092-1.346-.278-.337-.189-.597-.403-.779-.642a8.362 8.362 0 0 1-.42-.602h-.159V95h-1.296Zm1.318-4.364c0 .66.097 1.24.29 1.745.193.5.476.892.847 1.176.371.28.826.42 1.363.42.561 0 1.029-.148 1.404-.443.379-.3.663-.7.852-1.205a4.73 4.73 0 0 0 .29-1.693 4.6 4.6 0 0 0-.284-1.659c-.186-.496-.468-.888-.847-1.176-.375-.291-.846-.437-1.415-.437-.545 0-1.003.138-1.375.414-.371.273-.651.656-.84 1.148-.19.489-.285 1.059-.285 1.71ZM176.74 95v-8.727h1.295v1.318h.091c.159-.432.447-.782.864-1.051a2.541 2.541 0 0 1 1.409-.404c.099 0 .222.002.369.006.148.004.26.01.336.017v1.364a4.073 4.073 0 0 0-.313-.051 3.08 3.08 0 0 0-.506-.04c-.424 0-.803.089-1.136.267a2.016 2.016 0 0 0-.784.727 1.964 1.964 0 0 0-.284 1.051V95h-1.341Zm9.233.182c-.788 0-1.479-.188-2.074-.563-.591-.375-1.053-.9-1.386-1.573-.33-.675-.495-1.463-.495-2.364 0-.91.165-1.703.495-2.38.333-.679.795-1.205 1.386-1.58.595-.375 1.286-.563 2.074-.563.788 0 1.477.188 2.068.563.595.375 1.057.901 1.386 1.58.334.677.5 1.47.5 2.38 0 .901-.166 1.69-.5 2.364a3.763 3.763 0 0 1-1.386 1.573c-.591.375-1.28.563-2.068.563Zm0-1.205c.598 0 1.091-.153 1.477-.46.387-.307.673-.71.858-1.21.186-.5.279-1.042.279-1.625 0-.584-.093-1.127-.279-1.63a2.74 2.74 0 0 0-.858-1.223c-.386-.31-.879-.465-1.477-.465-.599 0-1.091.155-1.477.465a2.74 2.74 0 0 0-.858 1.222 4.672 4.672 0 0 0-.279 1.63c0 .584.093 1.126.279 1.626.185.5.471.903.858 1.21.386.307.878.46 1.477.46ZM193.655 95l-2.659-8.727h1.409l1.886 6.681h.091l1.864-6.681h1.431l1.841 6.659h.091l1.887-6.66h1.409L200.246 95h-1.319l-1.909-6.704h-.136L194.973 95h-1.318Zm12.363-5.25V95h-1.341v-8.727h1.296v1.363h.114c.204-.443.515-.799.931-1.068.417-.272.955-.409 1.614-.409.591 0 1.108.121 1.551.364a2.45 2.45 0 0 1 1.034 1.09c.246.486.37 1.1.37 1.841V95h-1.341v-5.454c0-.686-.178-1.22-.534-1.603-.357-.386-.845-.58-1.466-.58a2.34 2.34 0 0 0-1.148.279 1.994 1.994 0 0 0-.79.813c-.193.356-.29.787-.29 1.295Zm16.405-3.477v1.136h-4.704v-1.136h4.704ZM219.128 95v-9.932c0-.5.117-.916.352-1.25a2.19 2.19 0 0 1 .915-.75 2.89 2.89 0 0 1 1.187-.25c.33 0 .599.027.807.08.208.053.364.102.466.148l-.386 1.158a7.154 7.154 0 0 0-.284-.085 1.727 1.727 0 0 0-.466-.05c-.444 0-.764.11-.961.334-.193.224-.289.551-.289.983V95h-1.341Zm8.361.182c-.788 0-1.48-.188-2.074-.563-.591-.375-1.053-.9-1.387-1.573-.329-.675-.494-1.463-.494-2.364 0-.91.165-1.703.494-2.38.334-.679.796-1.205 1.387-1.58.594-.375 1.286-.563 2.074-.563.787 0 1.477.188 2.068.563.594.375 1.057.901 1.386 1.58.333.677.5 1.47.5 2.38 0 .901-.167 1.69-.5 2.364a3.77 3.77 0 0 1-1.386 1.573c-.591.375-1.281.563-2.068.563Zm0-1.205c.598 0 1.09-.153 1.477-.46a2.72 2.72 0 0 0 .858-1.21c.185-.5.278-1.042.278-1.625 0-.584-.093-1.127-.278-1.63a2.755 2.755 0 0 0-.858-1.223c-.387-.31-.879-.465-1.477-.465-.599 0-1.091.155-1.478.465a2.757 2.757 0 0 0-.858 1.222 4.695 4.695 0 0 0-.278 1.63c0 .584.093 1.126.278 1.626.186.5.472.903.858 1.21.387.307.879.46 1.478.46Zm6.642-7.704 2.091 3.568 2.09-3.568h1.546l-2.818 4.363L239.858 95h-1.546l-2.09-3.386L234.131 95h-1.546l2.773-4.364-2.773-4.363h1.546Zm12.14 0h1.341v9.363c0 .538-.093 1.004-.278 1.398a2.008 2.008 0 0 1-.83.915c-.367.216-.831.324-1.392.324h-.273v-1.25h.25c.409 0 .709-.121.898-.364.19-.239.284-.58.284-1.023v-9.363Zm.659-1.455a.954.954 0 0 1-.676-.267.86.86 0 0 1-.278-.642.86.86 0 0 1 .278-.642.955.955 0 0 1 .676-.267c.262 0 .485.089.671.267a.851.851 0 0 1 .284.642c0 .25-.095.464-.284.642a.934.934 0 0 1-.671.267Zm8.638 6.614v-5.16h1.341V95h-1.341v-1.477h-.091a2.86 2.86 0 0 1-.954 1.13c-.432.307-.978.46-1.637.46-.545 0-1.03-.119-1.454-.357-.425-.243-.758-.606-1-1.091-.243-.489-.364-1.104-.364-1.847v-5.545h1.341v5.454c0 .637.178 1.144.534 1.523.36.379.818.568 1.375.568a2.29 2.29 0 0 0 1.017-.255c.349-.171.64-.432.875-.785.239-.352.358-.8.358-1.346ZM259.365 95v-8.727h1.295v1.363h.114c.182-.465.475-.827.881-1.085.405-.261.892-.392 1.46-.392.576 0 1.055.13 1.437.392.387.258.688.62.904 1.085h.091c.223-.45.558-.808 1.005-1.073.447-.27.983-.404 1.608-.404.781 0 1.419.244 1.915.733.496.485.745 1.24.745 2.267V95h-1.341v-5.84c0-.645-.177-1.105-.529-1.382a1.955 1.955 0 0 0-1.244-.414c-.614 0-1.089.185-1.426.556-.337.368-.506.834-.506 1.398V95h-1.364v-5.977c0-.496-.161-.896-.483-1.2-.322-.306-.736-.46-1.244-.46-.348 0-.674.093-.977.279a2.1 2.1 0 0 0-.727.773 2.28 2.28 0 0 0-.273 1.13V95h-1.341Zm13.906 3.273v-12h1.296v1.386h.159c.098-.151.235-.345.409-.58.178-.238.432-.45.761-.636.334-.19.784-.284 1.352-.284.735 0 1.383.184 1.944.551.56.368.998.889 1.312 1.563.315.674.472 1.47.472 2.386 0 .924-.157 1.725-.472 2.403-.314.675-.75 1.198-1.307 1.569-.556.367-1.199.55-1.926.55-.56 0-1.009-.092-1.346-.278-.337-.189-.597-.403-.779-.642a8.362 8.362 0 0 1-.42-.602h-.114v4.614h-1.341Zm1.318-7.637c0 .66.097 1.24.29 1.745.193.5.476.892.847 1.176.371.28.826.42 1.363.42.561 0 1.029-.148 1.404-.443.379-.3.663-.7.852-1.205a4.73 4.73 0 0 0 .29-1.693 4.6 4.6 0 0 0-.284-1.659c-.186-.496-.468-.888-.847-1.176-.375-.291-.846-.437-1.415-.437-.545 0-1.003.138-1.375.414-.371.273-.651.656-.841 1.148-.189.489-.284 1.059-.284 1.71Zm14.614-2.409-1.205.341a2.206 2.206 0 0 0-.335-.585 1.628 1.628 0 0 0-.591-.477c-.25-.125-.57-.188-.96-.188-.534 0-.979.123-1.335.37-.352.242-.529.55-.529.926 0 .333.122.596.364.79.243.193.621.354 1.136.482l1.296.319c.78.189 1.362.479 1.744.869.383.386.574.884.574 1.494 0 .5-.144.947-.432 1.341-.284.394-.682.705-1.193.932-.511.227-1.106.34-1.784.34-.89 0-1.627-.192-2.21-.579-.584-.386-.953-.95-1.108-1.693l1.273-.318c.121.47.35.822.687 1.057.341.235.786.352 1.335.352.625 0 1.122-.133 1.489-.398.371-.269.557-.59.557-.966 0-.303-.106-.556-.318-.761-.213-.208-.538-.364-.978-.466l-1.454-.34c-.799-.19-1.387-.484-1.762-.882-.371-.401-.556-.903-.556-1.505 0-.493.138-.928.414-1.307a2.828 2.828 0 0 1 1.142-.892c.485-.216 1.034-.324 1.648-.324.864 0 1.542.19 2.034.568.496.38.849.88 1.057 1.5Zm10.223 6.955c-.788 0-1.479-.188-2.074-.563-.591-.375-1.053-.9-1.386-1.573-.33-.675-.494-1.463-.494-2.364 0-.91.164-1.703.494-2.38.333-.679.795-1.205 1.386-1.58.595-.375 1.286-.563 2.074-.563.788 0 1.477.188 2.068.563.595.375 1.057.901 1.387 1.58.333.677.5 1.47.5 2.38 0 .901-.167 1.69-.5 2.364a3.77 3.77 0 0 1-1.387 1.573c-.591.375-1.28.563-2.068.563Zm0-1.205c.599 0 1.091-.153 1.477-.46.387-.307.673-.71.858-1.21.186-.5.279-1.042.279-1.625 0-.584-.093-1.127-.279-1.63a2.74 2.74 0 0 0-.858-1.223c-.386-.31-.878-.465-1.477-.465-.598 0-1.091.155-1.477.465a2.74 2.74 0 0 0-.858 1.222 4.672 4.672 0 0 0-.279 1.63c0 .584.093 1.126.279 1.626.185.5.471.903.858 1.21.386.307.879.46 1.477.46Zm12.825-7.704L309.024 95h-1.364l-3.227-8.727h1.455l2.409 6.954h.091l2.409-6.954h1.454Zm5.117 8.909c-.841 0-1.566-.186-2.176-.557a3.742 3.742 0 0 1-1.404-1.568c-.325-.674-.488-1.459-.488-2.353 0-.893.163-1.681.488-2.363.33-.686.788-1.22 1.375-1.602.591-.387 1.281-.58 2.068-.58.455 0 .904.076 1.347.227.443.152.847.398 1.21.739.364.337.654.784.87 1.34.215.558.323 1.243.323 2.058v.568h-6.727v-1.16h5.364c0-.492-.099-.931-.296-1.317a2.223 2.223 0 0 0-.829-.915c-.356-.224-.777-.335-1.262-.335-.534 0-.996.132-1.386.397a2.615 2.615 0 0 0-.892 1.023c-.208.42-.312.871-.312 1.352v.773c0 .66.113 1.218.34 1.676.232.455.552.801.961 1.04.409.235.884.352 1.426.352.352 0 .67-.049.954-.148.288-.102.536-.253.745-.454.208-.204.369-.458.483-.761l1.295.363a2.87 2.87 0 0 1-.687 1.16 3.35 3.35 0 0 1-1.194.772 4.42 4.42 0 0 1-1.596.273Zm5.653-.182v-8.727h1.296v1.318h.091c.159-.432.447-.782.863-1.051a2.544 2.544 0 0 1 1.409-.404c.099 0 .222.002.37.006.147.004.259.01.335.017v1.364a4.073 4.073 0 0 0-.313-.051 3.068 3.068 0 0 0-.505-.04c-.425 0-.803.089-1.137.267a2.016 2.016 0 0 0-.784.727 1.964 1.964 0 0 0-.284 1.051V95h-1.341Zm13.022.204a3.544 3.544 0 0 1-1.506-.312 2.582 2.582 0 0 1-1.074-.915c-.265-.401-.398-.886-.398-1.454 0-.5.099-.906.296-1.216.197-.315.46-.56.789-.739.33-.178.694-.31 1.091-.397.402-.092.805-.163 1.211-.217.53-.068.96-.119 1.289-.153.334-.038.576-.1.728-.187.155-.088.233-.239.233-.455v-.045c0-.561-.154-.997-.461-1.307-.303-.31-.763-.466-1.38-.466-.64 0-1.142.14-1.506.42-.364.28-.619.58-.767.898l-1.273-.455c.228-.53.531-.943.909-1.238.383-.3.8-.508 1.25-.625a5.196 5.196 0 0 1 1.341-.182 5.3 5.3 0 0 1 .966.102c.368.065.722.2 1.063.404.344.204.63.513.858.926.227.413.341.966.341 1.659V95h-1.341v-1.182h-.069a2.33 2.33 0 0 1-.454.608c-.212.216-.494.4-.847.551-.352.152-.782.227-1.289.227Zm.204-1.204c.53 0 .977-.104 1.341-.313.367-.208.644-.477.83-.806a2.06 2.06 0 0 0 .284-1.04v-1.227c-.057.068-.182.13-.375.187-.19.053-.409.1-.659.142a30.34 30.34 0 0 1-1.285.17 5.19 5.19 0 0 0-.977.222 1.681 1.681 0 0 0-.727.45c-.182.196-.273.465-.273.806 0 .466.173.818.517 1.057.349.235.79.352 1.324.352Zm12.084-10.636V95h-1.341V83.364h1.341Zm5.024 11.84a3.548 3.548 0 0 1-1.506-.312 2.594 2.594 0 0 1-1.074-.915c-.265-.401-.397-.886-.397-1.454 0-.5.098-.906.295-1.216.197-.315.46-.56.79-.739a4.15 4.15 0 0 1 1.091-.397c.401-.092.805-.163 1.21-.217.53-.068.96-.119 1.29-.153.333-.038.576-.1.727-.187.155-.088.233-.239.233-.455v-.045c0-.561-.153-.997-.46-1.307-.303-.31-.763-.466-1.381-.466-.64 0-1.142.14-1.505.42-.364.28-.62.58-.768.898l-1.272-.455c.227-.53.53-.943.909-1.238.382-.3.799-.508 1.25-.625a5.184 5.184 0 0 1 1.341-.182c.28 0 .602.034.966.102.367.065.721.2 1.062.404.345.204.631.513.858.926.227.413.341.966.341 1.659V95h-1.341v-1.182h-.068c-.091.19-.242.392-.455.608-.212.216-.494.4-.846.551-.352.152-.782.227-1.29.227ZM353.56 94c.53 0 .977-.104 1.34-.313a2.128 2.128 0 0 0 1.114-1.846v-1.227c-.057.068-.182.13-.375.187a6.29 6.29 0 0 1-.659.142 29.629 29.629 0 0 1-1.284.17 5.12 5.12 0 0 0-.977.222 1.68 1.68 0 0 0-.728.45c-.181.196-.272.465-.272.806 0 .466.172.818.517 1.057.348.235.789.352 1.324.352Zm5.992 1v-1.023l4.955-6.363v-.091h-4.795v-1.25h6.522v1.068l-4.818 6.318v.091h4.977V95h-6.841Zm9.77 3.273a3 3 0 0 1-.608-.057 1.597 1.597 0 0 1-.369-.102l.341-1.182c.326.083.614.114.864.09.25-.022.471-.134.664-.335.197-.197.377-.516.54-.96l.25-.681-3.227-8.773h1.454l2.41 6.954h.09l2.41-6.954h1.454l-3.704 10c-.167.45-.374.824-.62 1.119-.246.3-.532.52-.858.665a2.643 2.643 0 0 1-1.091.216Zm15.838-3.091c-.727 0-1.369-.184-1.926-.551-.557-.371-.992-.894-1.307-1.569-.314-.677-.471-1.479-.471-2.403 0-.917.157-1.712.471-2.386.315-.674.752-1.195 1.313-1.563.561-.367 1.208-.55 1.943-.55.568 0 1.017.094 1.347.283.333.186.587.398.761.636.178.235.316.429.415.58h.114v-4.295h1.34V95h-1.295v-1.34h-.159a8.77 8.77 0 0 1-.421.601c-.181.239-.441.453-.778.642-.337.186-.786.279-1.347.279Zm.182-1.205c.538 0 .993-.14 1.364-.42.371-.284.653-.676.846-1.176.194-.504.29-1.085.29-1.745 0-.651-.094-1.221-.284-1.71-.189-.492-.47-.875-.841-1.148-.371-.276-.829-.414-1.375-.414-.568 0-1.041.145-1.42.437-.375.288-.657.68-.847 1.176a4.689 4.689 0 0 0-.278 1.66c0 .62.094 1.185.284 1.692.193.504.477.906.852 1.205.379.295.849.443 1.409.443Zm10.006 1.205c-.788 0-1.479-.188-2.074-.563-.591-.375-1.053-.9-1.386-1.573-.33-.675-.495-1.463-.495-2.364 0-.91.165-1.703.495-2.38.333-.679.795-1.205 1.386-1.58.595-.375 1.286-.563 2.074-.563.788 0 1.477.188 2.068.563.595.375 1.057.901 1.386 1.58.334.677.5 1.47.5 2.38 0 .901-.166 1.69-.5 2.364a3.763 3.763 0 0 1-1.386 1.573c-.591.375-1.28.563-2.068.563Zm0-1.205c.598 0 1.091-.153 1.477-.46.387-.307.673-.71.858-1.21.186-.5.279-1.042.279-1.625 0-.584-.093-1.127-.279-1.63a2.74 2.74 0 0 0-.858-1.223c-.386-.31-.879-.465-1.477-.465-.599 0-1.091.155-1.477.465a2.74 2.74 0 0 0-.858 1.222 4.672 4.672 0 0 0-.279 1.63c0 .584.093 1.126.279 1.626.185.5.471.903.858 1.21.386.307.878.46 1.477.46Zm9.524 4.477c-.648 0-1.204-.083-1.67-.25a3.536 3.536 0 0 1-1.165-.647 3.542 3.542 0 0 1-.733-.853l1.068-.75c.121.16.275.342.46.546.186.208.44.388.762.54.325.155.752.233 1.278.233.705 0 1.286-.17 1.744-.512.459-.34.688-.875.688-1.602v-1.773h-.114c-.098.16-.238.356-.42.591-.178.231-.436.438-.773.62-.333.178-.784.267-1.352.267a3.646 3.646 0 0 1-1.898-.5c-.557-.334-.998-.819-1.324-1.455-.322-.636-.483-1.409-.483-2.318 0-.894.157-1.672.472-2.335.314-.667.752-1.182 1.312-1.546.561-.367 1.209-.55 1.944-.55.568 0 1.018.094 1.352.283.337.186.594.398.773.636.181.235.321.429.42.58h.136v-1.386h1.296v8.977c0 .75-.171 1.36-.512 1.83a2.91 2.91 0 0 1-1.363 1.04c-.568.223-1.201.334-1.898.334Zm-.045-4.795c.537 0 .992-.123 1.363-.37.371-.245.654-.6.847-1.062.193-.462.29-1.015.29-1.659 0-.629-.095-1.183-.284-1.665-.19-.48-.47-.858-.841-1.13-.372-.273-.83-.41-1.375-.41-.569 0-1.042.145-1.421.433a2.625 2.625 0 0 0-.846 1.158 4.473 4.473 0 0 0-.279 1.614c0 .606.095 1.142.284 1.608.193.462.478.826.853 1.091.378.261.848.392 1.409.392Zm7.25 1.432a.985.985 0 0 1-.722-.301.983.983 0 0 1-.301-.722c0-.28.1-.52.301-.721a.984.984 0 0 1 .722-.301c.28 0 .52.1.721.3a.985.985 0 0 1 .301.722.96.96 0 0 1-.142.511c-.091.156-.214.28-.369.376a.975.975 0 0 1-.511.136ZM423.778 95h-3.591V83.364h3.75c1.129 0 2.095.233 2.898.698.803.463 1.419 1.127 1.847 1.995.428.864.642 1.897.642 3.102 0 1.212-.216 2.256-.648 3.13a4.62 4.62 0 0 1-1.886 2.012c-.826.466-1.83.699-3.012.699Zm-2.181-1.25h2.09c.963 0 1.76-.186 2.392-.557a3.426 3.426 0 0 0 1.415-1.585c.311-.686.466-1.502.466-2.449 0-.94-.153-1.748-.46-2.426a3.394 3.394 0 0 0-1.375-1.568c-.61-.368-1.369-.551-2.278-.551h-2.25v9.136Zm14.545-10.386h1.409v8.318c0 .742-.136 1.373-.409 1.892a2.782 2.782 0 0 1-1.153 1.182c-.497.269-1.082.403-1.756.403-.636 0-1.203-.115-1.699-.347a2.8 2.8 0 0 1-1.17-1c-.285-.431-.427-.945-.427-1.54h1.387c0 .33.081.618.244.864.167.243.394.432.682.569.288.136.615.204.983.204.405 0 .75-.085 1.034-.256.284-.17.5-.42.648-.75.151-.333.227-.74.227-1.221v-8.318Zm10.233 4.863-1.205.341a2.206 2.206 0 0 0-.335-.585 1.628 1.628 0 0 0-.591-.477c-.25-.125-.57-.188-.96-.188-.534 0-.979.123-1.335.37-.352.242-.529.55-.529.926 0 .333.122.596.364.79.242.193.621.354 1.136.482l1.296.319c.78.189 1.362.479 1.744.869.383.386.574.884.574 1.494 0 .5-.144.947-.432 1.341-.284.394-.682.705-1.193.932-.511.227-1.106.34-1.784.34-.89 0-1.627-.192-2.21-.579-.584-.386-.953-.95-1.108-1.693l1.272-.318c.122.47.351.822.688 1.057.341.235.786.352 1.335.352.625 0 1.121-.133 1.489-.398.371-.269.557-.59.557-.966 0-.303-.106-.556-.319-.761-.212-.208-.537-.364-.977-.466l-1.454-.34c-.8-.19-1.387-.484-1.762-.882-.371-.401-.557-.903-.557-1.505 0-.493.139-.928.415-1.307a2.828 2.828 0 0 1 1.142-.892c.485-.216 1.034-.324 1.648-.324.864 0 1.542.19 2.034.568.496.38.849.88 1.057 1.5ZM87.689 118.273v1.136h-4.705v-1.136h4.705ZM84.393 127v-9.932c0-.5.118-.916.353-1.25.235-.333.54-.583.914-.75.375-.166.771-.25 1.188-.25.33 0 .598.027.807.08.208.053.363.102.466.147l-.387 1.16a5.972 5.972 0 0 0-.284-.086 1.727 1.727 0 0 0-.466-.051c-.443 0-.763.112-.96.335-.193.224-.29.552-.29.983V127h-1.34Zm6.516-11.636V127h-1.34v-11.636h1.34Zm6.001 11.818c-.787 0-1.479-.188-2.073-.563-.591-.375-1.053-.899-1.387-1.574-.33-.674-.494-1.462-.494-2.363 0-.909.165-1.703.494-2.381.334-.678.796-1.204 1.387-1.579.594-.375 1.285-.563 2.073-.563s1.478.188 2.069.563c.594.375 1.056.901 1.386 1.579.333.678.5 1.472.5 2.381 0 .901-.167 1.689-.5 2.363a3.772 3.772 0 0 1-1.386 1.574c-.591.375-1.28.563-2.069.563Zm0-1.205c.599 0 1.091-.153 1.478-.46a2.72 2.72 0 0 0 .858-1.21c.185-.5.278-1.042.278-1.625a4.68 4.68 0 0 0-.278-1.631 2.743 2.743 0 0 0-.858-1.221c-.387-.311-.88-.466-1.478-.466s-1.09.155-1.477.466c-.386.31-.672.717-.858 1.221a4.68 4.68 0 0 0-.278 1.631c0 .583.093 1.125.278 1.625.186.5.472.903.858 1.21.386.307.879.46 1.477.46Zm9.547 1.205c-.818 0-1.522-.193-2.113-.58a3.772 3.772 0 0 1-1.364-1.596c-.318-.678-.477-1.453-.477-2.324 0-.887.163-1.669.488-2.347.33-.682.788-1.214 1.375-1.596.591-.387 1.281-.58 2.069-.58.613 0 1.166.114 1.659.341.492.227.895.545 1.21.955.314.409.509.886.585 1.431h-1.341c-.102-.397-.329-.75-.682-1.056-.348-.311-.818-.466-1.409-.466-.522 0-.981.136-1.375.409-.39.269-.695.649-.914 1.142-.216.488-.324 1.062-.324 1.721 0 .675.106 1.262.318 1.762.216.5.519.888.909 1.164.394.277.856.415 1.386.415.349 0 .665-.06.949-.182.284-.121.525-.295.722-.522.197-.228.337-.5.42-.818h1.341a3.112 3.112 0 0 1-.562 1.392 3.153 3.153 0 0 1-1.177.977c-.484.238-1.049.358-1.693.358Zm6.642-3.364-.022-1.659h.272l3.819-3.886h1.659l-4.069 4.113h-.113l-1.546 1.432Zm-1.25 3.182v-11.636h1.341V127h-1.341Zm5.546 0-3.409-4.318.954-.932 4.159 5.25h-1.704Zm7.839 0v-11.636h1.341v4.295h.114c.098-.151.235-.345.409-.579.178-.239.432-.451.761-.637.334-.189.784-.284 1.353-.284.734 0 1.382.184 1.943.551.56.368.998.888 1.312 1.563.315.674.472 1.469.472 2.386 0 .924-.157 1.725-.472 2.403-.314.675-.75 1.197-1.307 1.569-.556.367-1.198.551-1.926.551-.56 0-1.009-.093-1.346-.279-.337-.189-.597-.403-.779-.642a8.279 8.279 0 0 1-.42-.602h-.159V127h-1.296Zm1.318-4.364c0 .659.097 1.241.29 1.745.193.5.476.892.847 1.176.371.28.826.42 1.363.42.561 0 1.029-.147 1.404-.443.379-.299.663-.701.852-1.204.193-.508.29-1.072.29-1.694 0-.613-.095-1.166-.284-1.659-.186-.496-.468-.888-.847-1.176-.375-.292-.846-.437-1.415-.437-.545 0-1.003.138-1.375.414-.371.273-.651.656-.84 1.148-.19.489-.285 1.059-.285 1.71Zm8.989 7.637a2.93 2.93 0 0 1-.608-.057 1.601 1.601 0 0 1-.369-.102l.341-1.182c.325.083.613.113.863.091a1.04 1.04 0 0 0 .665-.335c.197-.197.377-.518.54-.961l.25-.682-3.227-8.772h1.454l2.409 6.954h.091l2.409-6.954h1.455l-3.705 10c-.166.45-.373.824-.619 1.119a2.321 2.321 0 0 1-.858.665 2.646 2.646 0 0 1-1.091.216Zm14.52-3.273-2.659-8.727h1.409l1.886 6.682h.091l1.864-6.682h1.432l1.841 6.659h.091l1.886-6.659h1.409L156.652 127h-1.318l-1.909-6.705h-.137L151.379 127h-1.318Zm12.364-5.25V127h-1.341v-11.636h1.341v4.272h.113c.205-.45.512-.808.921-1.074.413-.268.962-.403 1.647-.403.595 0 1.116.119 1.563.358a2.41 2.41 0 0 1 1.04 1.085c.25.485.375 1.103.375 1.853V127h-1.341v-5.455c0-.693-.18-1.229-.54-1.607-.356-.383-.85-.574-1.483-.574-.439 0-.833.092-1.182.278a2.038 2.038 0 0 0-.818.813c-.197.356-.295.787-.295 1.295Zm11.771 5.432c-.841 0-1.566-.186-2.176-.557a3.744 3.744 0 0 1-1.404-1.568c-.325-.674-.488-1.459-.488-2.352 0-.894.163-1.682.488-2.364.33-.686.788-1.22 1.375-1.602.591-.387 1.281-.58 2.069-.58.454 0 .903.076 1.346.227.443.152.847.398 1.21.739.364.337.654.784.87 1.341.216.557.324 1.242.324 2.057v.568h-6.728v-1.159h5.364c0-.493-.099-.932-.296-1.318a2.217 2.217 0 0 0-.829-.915c-.356-.224-.777-.335-1.261-.335-.535 0-.997.132-1.387.397a2.625 2.625 0 0 0-.892 1.023 3.01 3.01 0 0 0-.312 1.352v.773c0 .659.113 1.218.341 1.676.231.455.551.801.96 1.04.409.235.884.352 1.426.352.352 0 .67-.049.954-.147.288-.103.536-.254.745-.455.208-.205.369-.458.483-.761l1.295.363a2.86 2.86 0 0 1-.687 1.159c-.322.33-.72.587-1.193.773a4.425 4.425 0 0 1-1.597.273Zm6.994-5.432V127h-1.341v-8.727h1.296v1.363h.113c.205-.443.516-.799.932-1.068.417-.273.955-.409 1.614-.409.591 0 1.108.121 1.551.364.443.238.788.602 1.034 1.091.246.484.369 1.098.369 1.841V127h-1.34v-5.455c0-.685-.179-1.219-.535-1.602-.356-.386-.844-.579-1.465-.579-.429 0-.811.092-1.148.278a1.985 1.985 0 0 0-.79.813c-.193.356-.29.787-.29 1.295Zm12.701-6.386h1.681l3.955 9.659h.136l3.955-9.659h1.682V127h-1.319v-8.841h-.113L200.231 127h-1.272l-3.637-8.841h-.113V127h-1.318v-11.636Zm13.598 1.25v-1.25h8.727v1.25h-3.659V127h-1.409v-10.386h-3.659Zm11.379-1.25 3.454 9.795h.137l3.454-9.795h1.478L223.118 127h-1.455l-4.272-11.636h1.477Zm17.221 11.841a3.546 3.546 0 0 1-1.505-.313 2.58 2.58 0 0 1-1.074-.915c-.265-.401-.398-.886-.398-1.454 0-.5.099-.906.296-1.216.197-.315.46-.561.789-.739a4.2 4.2 0 0 1 1.091-.398c.402-.09.805-.162 1.21-.215.531-.069.961-.12 1.29-.154.334-.038.576-.1.728-.187.155-.087.232-.239.232-.455v-.045c0-.561-.153-.997-.46-1.307-.303-.311-.763-.466-1.38-.466-.641 0-1.142.14-1.506.42-.364.281-.619.58-.767.898l-1.273-.454c.227-.531.53-.944.909-1.239a3.406 3.406 0 0 1 1.25-.625 5.205 5.205 0 0 1 1.341-.182c.28 0 .602.034.966.102.367.065.722.199 1.063.404.344.204.63.513.857.926.228.413.341.966.341 1.659V127h-1.341v-1.182h-.068c-.091.19-.242.392-.454.608-.212.216-.495.4-.847.551-.352.152-.782.228-1.29.228Zm.205-1.205c.53 0 .977-.104 1.341-.312a2.133 2.133 0 0 0 1.113-1.847v-1.227c-.056.068-.181.13-.375.187a6.143 6.143 0 0 1-.659.142 27.7 27.7 0 0 1-.721.102c-.231.027-.419.05-.563.069a5.114 5.114 0 0 0-.977.221 1.684 1.684 0 0 0-.727.449c-.182.197-.273.466-.273.807 0 .466.172.818.517 1.057.349.235.79.352 1.324.352Zm7.243-7.727 2.091 3.568 2.091-3.568h1.545l-2.818 4.363 2.818 4.364h-1.545l-2.091-3.386-2.091 3.386h-1.546l2.773-4.364-2.773-4.363h1.546Zm18.095 12v-4.614h-.114c-.098.159-.238.36-.42.602-.182.239-.441.453-.778.642-.338.186-.786.279-1.347.279-.727 0-1.369-.184-1.926-.551-.557-.372-.993-.894-1.307-1.569-.314-.678-.472-1.479-.472-2.403 0-.917.158-1.712.472-2.386.314-.675.752-1.195 1.312-1.563.561-.367 1.209-.551 1.944-.551.568 0 1.017.095 1.346.284.334.186.587.398.762.637.178.234.316.428.414.579h.159v-1.386h1.296v12h-1.341Zm-2.477-4.296c.538 0 .992-.14 1.363-.42.372-.284.654-.676.847-1.176.193-.504.29-1.086.29-1.745 0-.651-.095-1.221-.284-1.71-.19-.492-.47-.875-.841-1.148-.371-.276-.83-.414-1.375-.414-.568 0-1.042.145-1.421.437-.375.288-.657.68-.846 1.176a4.67 4.67 0 0 0-.279 1.659c0 .622.095 1.186.284 1.694.194.503.478.905.853 1.204.378.296.848.443 1.409.443Zm11.772-2.545v-5.159h1.341V127h-1.341v-1.477h-.09c-.205.443-.523.82-.955 1.13-.432.307-.977.461-1.636.461-.546 0-1.031-.12-1.455-.358-.424-.243-.757-.606-1-1.091-.242-.489-.364-1.104-.364-1.847v-5.545h1.341v5.454c0 .637.178 1.144.534 1.523.36.379.819.568 1.375.568.334 0 .673-.085 1.018-.256.348-.17.64-.431.875-.784.238-.352.357-.801.357-1.346Zm3.797 3.568v-8.727h1.341V127h-1.341Zm.682-10.182a.953.953 0 0 1-.676-.267.856.856 0 0 1-.278-.642c0-.25.092-.464.278-.642a.953.953 0 0 1 .676-.267c.262 0 .485.089.671.267a.851.851 0 0 1 .284.642c0 .25-.095.464-.284.642a.935.935 0 0 1-.671.267ZM278.271 127v-1.023l4.955-6.363v-.091h-4.796v-1.25h6.523v1.068l-4.818 6.318v.091h4.977V127h-6.841Zm13.406 3.273v-12h1.296v1.386h.159c.098-.151.235-.345.409-.579.178-.239.432-.451.761-.637.334-.189.785-.284 1.353-.284.735 0 1.382.184 1.943.551.561.368.998.888 1.312 1.563.315.674.472 1.469.472 2.386 0 .924-.157 1.725-.472 2.403-.314.675-.75 1.197-1.306 1.569-.557.367-1.199.551-1.927.551-.56 0-1.009-.093-1.346-.279-.337-.189-.597-.403-.779-.642a8.61 8.61 0 0 1-.42-.602h-.114v4.614h-1.341Zm1.319-7.637c0 .659.096 1.241.289 1.745.194.5.476.892.847 1.176.371.28.826.42 1.364.42.56 0 1.028-.147 1.403-.443.379-.299.663-.701.852-1.204.194-.508.29-1.072.29-1.694 0-.613-.095-1.166-.284-1.659-.186-.496-.468-.888-.847-1.176-.375-.292-.846-.437-1.414-.437-.546 0-1.004.138-1.375.414-.372.273-.652.656-.841 1.148-.19.489-.284 1.059-.284 1.71Zm8.431 4.364v-8.727h1.296v1.318h.091c.159-.432.447-.782.863-1.051a2.545 2.545 0 0 1 1.41-.404c.098 0 .221.002.369.006a5.5 5.5 0 0 1 .335.017v1.364a3.416 3.416 0 0 0-.312-.051 3.026 3.026 0 0 0-.506-.04c-.424 0-.803.089-1.136.267-.33.174-.591.417-.785.727a1.963 1.963 0 0 0-.284 1.051V127h-1.341Zm9.233.182c-.787 0-1.479-.188-2.073-.563-.591-.375-1.053-.899-1.387-1.574-.329-.674-.494-1.462-.494-2.363 0-.909.165-1.703.494-2.381.334-.678.796-1.204 1.387-1.579.594-.375 1.286-.563 2.073-.563.788 0 1.478.188 2.069.563.594.375 1.056.901 1.386 1.579.333.678.5 1.472.5 2.381 0 .901-.167 1.689-.5 2.363a3.772 3.772 0 0 1-1.386 1.574c-.591.375-1.281.563-2.069.563Zm0-1.205c.599 0 1.091-.153 1.478-.46a2.72 2.72 0 0 0 .858-1.21c.185-.5.278-1.042.278-1.625 0-.584-.093-1.127-.278-1.631a2.748 2.748 0 0 0-.858-1.221c-.387-.311-.879-.466-1.478-.466-.598 0-1.09.155-1.477.466-.386.31-.672.717-.858 1.221a4.695 4.695 0 0 0-.278 1.631c0 .583.093 1.125.278 1.625.186.5.472.903.858 1.21.387.307.879.46 1.477.46Zm9.525 4.478c-.648 0-1.205-.084-1.671-.25a3.55 3.55 0 0 1-1.165-.648 3.563 3.563 0 0 1-.733-.852l1.069-.75c.121.159.274.34.46.545.185.208.439.388.761.54.326.155.752.233 1.279.233.704 0 1.286-.171 1.744-.512.458-.341.687-.875.687-1.602v-1.773h-.113a7.374 7.374 0 0 1-.421.591c-.178.231-.435.438-.772.62-.334.178-.785.267-1.353.267-.704 0-1.337-.167-1.897-.5-.557-.334-.999-.819-1.324-1.455-.322-.636-.483-1.409-.483-2.318 0-.894.157-1.672.471-2.335.315-.667.752-1.182 1.313-1.546.56-.367 1.208-.551 1.943-.551.568 0 1.019.095 1.352.284.337.186.595.398.773.637.182.234.322.428.42.579h.137v-1.386h1.295v8.977c0 .75-.17 1.36-.511 1.83a2.91 2.91 0 0 1-1.364 1.039 5.13 5.13 0 0 1-1.897.336Zm-.046-4.796c.538 0 .993-.123 1.364-.369.371-.246.653-.601.846-1.063.194-.462.29-1.015.29-1.659 0-.629-.095-1.184-.284-1.665-.189-.481-.47-.858-.841-1.13-.371-.273-.829-.409-1.375-.409-.568 0-1.042.144-1.42.431a2.63 2.63 0 0 0-.847 1.16 4.465 4.465 0 0 0-.278 1.613c0 .606.094 1.142.284 1.608.193.462.477.826.852 1.091.379.261.849.392 1.409.392Zm7.25 1.432c-.28 0-.521-.1-.721-.301a.986.986 0 0 1-.302-.722c0-.28.101-.521.302-.721a.982.982 0 0 1 .721-.302c.28 0 .521.101.722.302.2.2.301.441.301.721a.973.973 0 0 1-.142.512c-.091.155-.214.28-.37.375a.979.979 0 0 1-.511.136Zm12.565-11.727h1.41v8.318c0 .742-.137 1.373-.41 1.892a2.776 2.776 0 0 1-1.153 1.182c-.496.269-1.081.403-1.756.403-.636 0-1.202-.115-1.698-.347a2.79 2.79 0 0 1-1.171-1c-.284-.431-.426-.945-.426-1.539h1.386c0 .329.082.617.245.863.166.243.394.432.681.569.288.136.616.204.983.204.406 0 .75-.085 1.034-.256.285-.17.5-.42.648-.75.152-.333.227-.74.227-1.221v-8.318Zm9.552 8.068v-5.159h1.341V127h-1.341v-1.477h-.091c-.205.443-.523.82-.955 1.13-.432.307-.977.461-1.636.461-.546 0-1.031-.12-1.455-.358-.424-.243-.757-.606-1-1.091-.242-.489-.363-1.104-.363-1.847v-5.545h1.341v5.454c0 .637.178 1.144.534 1.523.359.379.818.568 1.375.568.333 0 .672-.085 1.017-.256.348-.17.64-.431.875-.784.238-.352.358-.801.358-1.346Zm5.137-1.682V127h-1.341v-8.727h1.296v1.363h.114c.204-.443.515-.799.931-1.068.417-.273.955-.409 1.614-.409.591 0 1.108.121 1.551.364.443.238.788.602 1.034 1.091.246.484.37 1.098.37 1.841V127h-1.341v-5.455c0-.685-.178-1.219-.534-1.602-.357-.386-.845-.579-1.466-.579-.428 0-.811.092-1.148.278a1.992 1.992 0 0 0-.79.813c-.193.356-.29.787-.29 1.295Zm9.269 2.068-.023-1.659h.273l3.818-3.886h1.659l-4.068 4.113h-.114l-1.545 1.432Zm-1.25 3.182v-11.636h1.341V127h-1.341Zm5.545 0-3.409-4.318.955-.932 4.159 5.25h-1.705Zm7.84-11.636h1.682l3.954 9.659h.137l3.954-9.659h1.682V127h-1.318v-8.841h-.114L382.388 127h-1.273l-3.636-8.841h-.114V127h-1.318v-11.636Zm13.598 1.25v-1.25h8.727v1.25h-3.659V127h-1.409v-10.386h-3.659Zm11.379-1.25 3.455 9.795h.136l3.455-9.795h1.477L405.274 127h-1.454l-4.273-11.636h1.477Zm20.608 14.909v-4.614h-.114c-.098.159-.238.36-.42.602-.182.239-.441.453-.778.642-.338.186-.786.279-1.347.279-.727 0-1.369-.184-1.926-.551-.557-.372-.993-.894-1.307-1.569-.314-.678-.472-1.479-.472-2.403 0-.917.158-1.712.472-2.386.314-.675.752-1.195 1.312-1.563.561-.367 1.209-.551 1.944-.551.568 0 1.017.095 1.346.284.334.186.587.398.762.637.178.234.316.428.414.579h.159v-1.386h1.296v12h-1.341Zm-2.477-4.296c.538 0 .992-.14 1.363-.42.372-.284.654-.676.847-1.176.193-.504.29-1.086.29-1.745 0-.651-.095-1.221-.284-1.71-.19-.492-.47-.875-.841-1.148-.371-.276-.83-.414-1.375-.414-.568 0-1.042.145-1.421.437-.375.288-.657.68-.846 1.176a4.67 4.67 0 0 0-.279 1.659c0 .622.095 1.186.284 1.694.194.503.478.905.853 1.204.378.296.848.443 1.409.443Zm11.772-2.545v-5.159h1.341V127h-1.341v-1.477h-.09c-.205.443-.523.82-.955 1.13-.432.307-.977.461-1.636.461-.546 0-1.031-.12-1.455-.358-.424-.243-.757-.606-1-1.091-.242-.489-.364-1.104-.364-1.847v-5.545h1.341v5.454c0 .637.178 1.144.534 1.523.36.379.819.568 1.375.568.334 0 .673-.085 1.018-.256.348-.17.64-.431.875-.784.238-.352.357-.801.357-1.346Zm3.797 3.568v-8.727h1.341V127h-1.341Zm.682-10.182a.953.953 0 0 1-.676-.267.856.856 0 0 1-.278-.642c0-.25.092-.464.278-.642a.953.953 0 0 1 .676-.267c.262 0 .485.089.671.267a.851.851 0 0 1 .284.642c0 .25-.095.464-.284.642a.935.935 0 0 1-.671.267ZM438.271 127v-1.023l4.955-6.363v-.091h-4.796v-1.25h6.523v1.068l-4.818 6.318v.091h4.977V127h-6.841ZM87.325 162.455c-.648 0-1.204-.084-1.67-.25a3.546 3.546 0 0 1-1.165-.648 3.538 3.538 0 0 1-.733-.852l1.068-.75c.121.159.275.34.46.545.186.208.44.388.762.54.326.155.752.233 1.278.233.705 0 1.286-.171 1.745-.512.458-.341.687-.875.687-1.602v-1.773h-.114a7.273 7.273 0 0 1-.42.591c-.178.231-.436.438-.773.62-.333.178-.784.267-1.352.267a3.645 3.645 0 0 1-1.898-.5c-.557-.334-.998-.819-1.324-1.455-.322-.636-.483-1.409-.483-2.318 0-.894.158-1.672.472-2.335.314-.667.752-1.182 1.313-1.546.56-.367 1.208-.551 1.943-.551.568 0 1.019.095 1.352.284.337.186.595.398.773.637.181.234.322.428.42.579h.136v-1.386h1.296v8.977c0 .75-.17 1.36-.511 1.83a2.91 2.91 0 0 1-1.364 1.039c-.568.224-1.2.336-1.898.336Zm-.045-4.796c.538 0 .992-.123 1.363-.369.372-.246.654-.601.847-1.063.193-.462.29-1.015.29-1.659 0-.629-.095-1.184-.284-1.665-.19-.481-.47-.858-.841-1.13-.371-.273-.83-.409-1.375-.409-.568 0-1.042.144-1.42.431a2.632 2.632 0 0 0-.847 1.16 4.474 4.474 0 0 0-.279 1.613c0 .606.095 1.142.284 1.608.194.462.478.826.853 1.091.378.261.848.392 1.409.392ZM93.552 159v-8.727h1.296v1.318h.09c.16-.432.448-.782.864-1.051a2.542 2.542 0 0 1 1.41-.404c.098 0 .221.002.369.006s.26.01.335.017v1.364a3.406 3.406 0 0 0-.312-.051 3.022 3.022 0 0 0-.506-.04c-.424 0-.803.089-1.136.267-.33.174-.591.417-.785.727a1.96 1.96 0 0 0-.284 1.051V159h-1.34Zm8.522.205a3.554 3.554 0 0 1-1.506-.313 2.58 2.58 0 0 1-1.074-.915c-.265-.401-.397-.886-.397-1.454 0-.5.098-.906.295-1.216a2.08 2.08 0 0 1 .79-.739c.329-.178.693-.31 1.091-.398.401-.09.805-.162 1.21-.215.53-.069.96-.12 1.29-.154.333-.038.575-.1.727-.187.155-.087.233-.239.233-.455v-.045c0-.561-.154-.997-.46-1.307-.303-.311-.764-.466-1.381-.466-.64 0-1.142.14-1.506.42-.363.281-.619.58-.767.898l-1.272-.454c.227-.531.53-.944.909-1.239a3.398 3.398 0 0 1 1.25-.625 5.193 5.193 0 0 1 1.341-.182c.28 0 .602.034.965.102.368.065.722.199 1.063.404.345.204.631.513.858.926.227.413.341.966.341 1.659V159h-1.341v-1.182h-.068a2.36 2.36 0 0 1-.455.608c-.212.216-.494.4-.846.551-.353.152-.783.228-1.29.228Zm.204-1.205c.531 0 .978-.104 1.341-.312.368-.209.644-.478.83-.807.189-.33.284-.676.284-1.04v-1.227c-.057.068-.182.13-.375.187-.19.053-.409.101-.659.142-.246.038-.487.072-.722.102-.231.027-.418.05-.562.069a5.107 5.107 0 0 0-.978.221 1.69 1.69 0 0 0-.727.449c-.182.197-.273.466-.273.807 0 .466.173.818.517 1.057.349.235.79.352 1.324.352Zm9.789 1.182c-.819 0-1.523-.193-2.114-.58a3.78 3.78 0 0 1-1.364-1.596c-.318-.678-.477-1.453-.477-2.324 0-.887.163-1.669.489-2.347.329-.682.788-1.214 1.375-1.596.591-.387 1.28-.58 2.068-.58.614 0 1.167.114 1.659.341.492.227.896.545 1.21.955.315.409.51.886.585 1.431h-1.34c-.103-.397-.33-.75-.682-1.056-.349-.311-.818-.466-1.409-.466-.523 0-.981.136-1.375.409-.39.269-.695.649-.915 1.142-.216.488-.324 1.062-.324 1.721 0 .675.106 1.262.318 1.762.216.5.519.888.909 1.164.394.277.856.415 1.387.415.348 0 .664-.06.949-.182.284-.121.524-.295.721-.522.197-.228.337-.5.421-.818h1.34a3.1 3.1 0 0 1-.562 1.392 3.15 3.15 0 0 1-1.176.977c-.485.238-1.049.358-1.693.358Zm9.051 0c-.841 0-1.566-.186-2.176-.557a3.744 3.744 0 0 1-1.404-1.568c-.325-.674-.488-1.459-.488-2.352 0-.894.163-1.682.488-2.364.33-.686.788-1.22 1.375-1.602.591-.387 1.281-.58 2.068-.58.455 0 .904.076 1.347.227.443.152.847.398 1.21.739.364.337.654.784.87 1.341.215.557.323 1.242.323 2.057v.568h-6.727v-1.159h5.364c0-.493-.099-.932-.296-1.318a2.217 2.217 0 0 0-.829-.915c-.356-.224-.777-.335-1.262-.335-.534 0-.996.132-1.386.397a2.625 2.625 0 0 0-.892 1.023 3.01 3.01 0 0 0-.312 1.352v.773c0 .659.113 1.218.34 1.676.232.455.552.801.961 1.04.409.235.884.352 1.426.352.352 0 .67-.049.954-.147.288-.103.536-.254.745-.455.208-.205.369-.458.483-.761l1.295.363a2.86 2.86 0 0 1-.687 1.159 3.35 3.35 0 0 1-1.194.773 4.416 4.416 0 0 1-1.596.273Zm8.949 0c-.728 0-1.37-.184-1.926-.551-.557-.372-.993-.894-1.307-1.569-.315-.678-.472-1.479-.472-2.403 0-.917.157-1.712.472-2.386.314-.675.752-1.195 1.312-1.563.561-.367 1.209-.551 1.943-.551.569 0 1.017.095 1.347.284.333.186.587.398.761.637.178.234.317.428.415.579h.114v-4.295h1.341V159h-1.296v-1.341h-.159a8.61 8.61 0 0 1-.42.602c-.182.239-.442.453-.779.642-.337.186-.786.279-1.346.279Zm.181-1.205c.538 0 .993-.14 1.364-.42.371-.284.654-.676.847-1.176.193-.504.289-1.086.289-1.745 0-.651-.094-1.221-.284-1.71-.189-.492-.469-.875-.841-1.148-.371-.276-.829-.414-1.375-.414-.568 0-1.041.145-1.42.437-.375.288-.657.68-.847 1.176a4.694 4.694 0 0 0-.278 1.659c0 .622.095 1.186.284 1.694.193.503.477.905.852 1.204.379.296.849.443 1.409.443ZM141.391 159v-11.636h1.34v4.295h.114c.099-.151.235-.345.409-.579.178-.239.432-.451.762-.637.333-.189.784-.284 1.352-.284.735 0 1.382.184 1.943.551.561.368.998.888 1.312 1.563.315.674.472 1.469.472 2.386 0 .924-.157 1.725-.472 2.403-.314.675-.75 1.197-1.306 1.569-.557.367-1.199.551-1.926.551-.561 0-1.01-.093-1.347-.279-.337-.189-.597-.403-.778-.642a8.677 8.677 0 0 1-.421-.602h-.159V159h-1.295Zm1.318-4.364c0 .659.096 1.241.289 1.745.194.5.476.892.847 1.176.371.28.826.42 1.364.42.56 0 1.028-.147 1.403-.443.379-.299.663-.701.852-1.204.194-.508.29-1.072.29-1.694 0-.613-.095-1.166-.284-1.659-.186-.496-.468-.888-.847-1.176-.375-.292-.846-.437-1.414-.437-.546 0-1.004.138-1.375.414-.371.273-.652.656-.841 1.148-.19.489-.284 1.059-.284 1.71Zm8.988 7.637a2.93 2.93 0 0 1-.608-.057 1.601 1.601 0 0 1-.369-.102l.341-1.182c.326.083.614.113.864.091.25-.023.471-.135.664-.335.197-.197.377-.518.54-.961l.25-.682-3.227-8.772h1.454l2.41 6.954h.09l2.41-6.954h1.454l-3.704 10c-.167.45-.374.824-.62 1.119a2.321 2.321 0 0 1-.858.665 2.643 2.643 0 0 1-1.091.216Zm16.429-12v1.136h-4.704v-1.136h4.704ZM164.831 159v-9.932c0-.5.117-.916.352-1.25a2.19 2.19 0 0 1 .915-.75c.375-.166.771-.25 1.187-.25.33 0 .599.027.807.08.209.053.364.102.466.147l-.386 1.16a5.962 5.962 0 0 0-.284-.086 1.731 1.731 0 0 0-.466-.051c-.443 0-.763.112-.96.335-.194.224-.29.552-.29.983V159h-1.341Zm8.361.182c-.788 0-1.479-.188-2.074-.563-.591-.375-1.053-.899-1.387-1.574-.329-.674-.494-1.462-.494-2.363 0-.909.165-1.703.494-2.381.334-.678.796-1.204 1.387-1.579.595-.375 1.286-.563 2.074-.563.788 0 1.477.188 2.068.563.595.375 1.057.901 1.386 1.579.334.678.5 1.472.5 2.381 0 .901-.166 1.689-.5 2.363a3.758 3.758 0 0 1-1.386 1.574c-.591.375-1.28.563-2.068.563Zm0-1.205c.598 0 1.091-.153 1.477-.46a2.72 2.72 0 0 0 .858-1.21c.186-.5.278-1.042.278-1.625 0-.584-.092-1.127-.278-1.631a2.748 2.748 0 0 0-.858-1.221c-.386-.311-.879-.466-1.477-.466-.599 0-1.091.155-1.478.466-.386.31-.672.717-.858 1.221a4.695 4.695 0 0 0-.278 1.631c0 .583.093 1.125.278 1.625.186.5.472.903.858 1.21.387.307.879.46 1.478.46Zm6.642-7.704 2.091 3.568 2.091-3.568h1.545l-2.818 4.363 2.818 4.364h-1.545l-2.091-3.386-2.091 3.386h-1.546l2.773-4.364-2.773-4.363h1.546ZM193.952 159l-2.659-8.727h1.409l1.886 6.682h.091l1.864-6.682h1.431l1.841 6.659h.091l1.887-6.659h1.409L200.543 159h-1.319l-1.909-6.705h-.136L195.27 159h-1.318Zm12.363-5.25V159h-1.341v-11.636h1.341v4.272h.114c.204-.45.511-.808.92-1.074.413-.268.962-.403 1.648-.403.595 0 1.116.119 1.563.358.447.235.793.597 1.039 1.085.25.485.375 1.103.375 1.853V159h-1.341v-5.455c0-.693-.179-1.229-.539-1.607-.356-.383-.851-.574-1.483-.574-.44 0-.834.092-1.182.278a2.025 2.025 0 0 0-.818.813c-.197.356-.296.787-.296 1.295Zm11.772 5.432c-.841 0-1.567-.186-2.177-.557a3.742 3.742 0 0 1-1.403-1.568c-.326-.674-.489-1.459-.489-2.352 0-.894.163-1.682.489-2.364.33-.686.788-1.22 1.375-1.602.591-.387 1.28-.58 2.068-.58.455 0 .904.076 1.347.227.443.152.846.398 1.21.739.364.337.653.784.869 1.341.216.557.324 1.242.324 2.057v.568h-6.727v-1.159h5.364c0-.493-.099-.932-.296-1.318a2.223 2.223 0 0 0-.829-.915c-.357-.224-.777-.335-1.262-.335-.534 0-.996.132-1.386.397a2.617 2.617 0 0 0-.892 1.023 2.997 2.997 0 0 0-.313 1.352v.773c0 .659.114 1.218.341 1.676.231.455.551.801.96 1.04.41.235.885.352 1.427.352.352 0 .67-.049.954-.147.288-.103.536-.254.744-.455.209-.205.37-.458.483-.761l1.296.363c-.137.44-.366.826-.688 1.159-.322.33-.719.587-1.193.773a4.42 4.42 0 0 1-1.596.273Zm6.994-11.818V159h-1.341v-11.636h1.341Zm2.456 14.909v-12h1.295v1.386h.159c.099-.151.235-.345.409-.579.179-.239.432-.451.762-.637.333-.189.784-.284 1.352-.284.735 0 1.383.184 1.943.551.561.368.998.888 1.313 1.563.314.674.471 1.469.471 2.386 0 .924-.157 1.725-.471 2.403-.315.675-.75 1.197-1.307 1.569-.557.367-1.199.551-1.926.551-.561 0-1.01-.093-1.347-.279-.337-.189-.596-.403-.778-.642a8.677 8.677 0 0 1-.421-.602h-.113v4.614h-1.341Zm1.318-7.637c0 .659.097 1.241.29 1.745.193.5.475.892.846 1.176.372.28.826.42 1.364.42.561 0 1.028-.147 1.403-.443.379-.299.663-.701.853-1.204a4.734 4.734 0 0 0 .289-1.694c0-.613-.094-1.166-.284-1.659-.185-.496-.467-.888-.846-1.176-.375-.292-.847-.437-1.415-.437-.545 0-1.004.138-1.375.414-.371.273-.651.656-.841 1.148-.189.489-.284 1.059-.284 1.71Zm14.614-2.409-1.205.341a2.224 2.224 0 0 0-.335-.585 1.63 1.63 0 0 0-.591-.477c-.25-.125-.57-.188-.96-.188-.534 0-.979.123-1.335.37-.353.242-.529.551-.529.926 0 .333.121.596.364.789.242.194.621.355 1.136.483l1.296.319c.78.189 1.361.479 1.744.869.382.386.574.884.574 1.494 0 .5-.144.947-.432 1.341-.284.394-.682.705-1.193.932-.512.227-1.106.341-1.784.341-.89 0-1.627-.193-2.211-.58-.583-.386-.952-.95-1.108-1.693l1.273-.318c.121.47.351.822.688 1.057.341.235.786.352 1.335.352.625 0 1.121-.133 1.489-.398.371-.269.556-.591.556-.966 0-.303-.106-.556-.318-.761-.212-.208-.538-.364-.977-.466l-1.455-.341c-.799-.189-1.386-.483-1.761-.88-.371-.402-.557-.904-.557-1.506 0-.493.138-.928.415-1.307a2.82 2.82 0 0 1 1.142-.892c.485-.216 1.034-.324 1.648-.324.863 0 1.541.189 2.034.568a3.07 3.07 0 0 1 1.057 1.5Zm3.154 6.864c-.28 0-.52-.1-.721-.301a.985.985 0 0 1-.301-.722c0-.28.1-.521.301-.721a.984.984 0 0 1 .721-.302c.281 0 .521.101.722.302.201.2.301.441.301.721a.964.964 0 0 1-.142.512c-.091.155-.214.28-.369.375a.985.985 0 0 1-.512.136Zm8.111-.091v-11.636h4.068c.811 0 1.48.14 2.006.42.527.277.919.65 1.176 1.119.258.466.387.983.387 1.552 0 .5-.089.912-.267 1.238a2.08 2.08 0 0 1-.694.773 3.156 3.156 0 0 1-.926.42V153c.356.023.714.148 1.074.375.36.227.661.553.904.977.242.425.363.943.363 1.557 0 .583-.132 1.108-.398 1.574-.265.466-.683.835-1.255 1.108-.572.273-1.317.409-2.233.409h-4.205Zm1.409-1.25h2.796c.92 0 1.574-.178 1.96-.534.39-.36.585-.796.585-1.307 0-.394-.1-.757-.301-1.091a2.185 2.185 0 0 0-.858-.807c-.371-.204-.81-.306-1.318-.306h-2.864v4.045Zm0-5.273h2.614c.424 0 .807-.083 1.148-.25.344-.166.617-.401.818-.704.204-.303.307-.659.307-1.068 0-.512-.178-.946-.534-1.302-.356-.359-.921-.539-1.694-.539h-2.659v3.863Zm11.384 6.728a3.554 3.554 0 0 1-1.506-.313 2.586 2.586 0 0 1-1.074-.915c-.265-.401-.397-.886-.397-1.454 0-.5.098-.906.295-1.216.197-.315.46-.561.79-.739.329-.178.693-.31 1.091-.398.401-.09.805-.162 1.21-.215.53-.069.96-.12 1.29-.154.333-.038.576-.1.727-.187.155-.087.233-.239.233-.455v-.045c0-.561-.153-.997-.46-1.307-.303-.311-.763-.466-1.381-.466-.64 0-1.142.14-1.506.42-.363.281-.619.58-.767.898l-1.272-.454c.227-.531.53-.944.909-1.239a3.398 3.398 0 0 1 1.25-.625 5.193 5.193 0 0 1 1.341-.182c.28 0 .602.034.966.102.367.065.721.199 1.062.404.345.204.631.513.858.926.227.413.341.966.341 1.659V159h-1.341v-1.182h-.068a2.36 2.36 0 0 1-.455.608c-.212.216-.494.4-.846.551-.353.152-.783.228-1.29.228Zm.204-1.205c.531 0 .978-.104 1.341-.312.368-.209.644-.478.83-.807.189-.33.284-.676.284-1.04v-1.227c-.057.068-.182.13-.375.187a6.143 6.143 0 0 1-.659.142c-.246.038-.487.072-.722.102-.231.027-.418.05-.562.069a5.097 5.097 0 0 0-.977.221c-.3.099-.542.248-.728.449-.182.197-.272.466-.272.807 0 .466.172.818.517 1.057.348.235.789.352 1.323.352Zm8.221 1-2.659-8.727h1.409l1.886 6.682h.091l1.864-6.682h1.431l1.841 6.659h.091l1.887-6.659h1.409L282.543 159h-1.319l-1.909-6.705h-.136L277.27 159h-1.318Zm14.021.182c-.727 0-1.369-.184-1.926-.551-.557-.372-.993-.894-1.307-1.569-.314-.678-.472-1.479-.472-2.403 0-.917.158-1.712.472-2.386.314-.675.752-1.195 1.312-1.563.561-.367 1.209-.551 1.944-.551.568 0 1.017.095 1.346.284.334.186.587.398.762.637.178.234.316.428.414.579h.114v-4.295h1.341V159h-1.296v-1.341h-.159c-.098.159-.238.36-.42.602-.182.239-.441.453-.778.642-.338.186-.786.279-1.347.279Zm.182-1.205c.538 0 .992-.14 1.363-.42.372-.284.654-.676.847-1.176.193-.504.29-1.086.29-1.745 0-.651-.095-1.221-.284-1.71-.19-.492-.47-.875-.841-1.148-.371-.276-.83-.414-1.375-.414-.568 0-1.042.145-1.421.437-.375.288-.657.68-.846 1.176a4.67 4.67 0 0 0-.279 1.659c0 .622.095 1.186.284 1.694.194.503.478.905.853 1.204.378.296.848.443 1.409.443Zm12.642-5.75-1.205.341a2.224 2.224 0 0 0-.335-.585 1.63 1.63 0 0 0-.591-.477c-.25-.125-.57-.188-.96-.188-.534 0-.979.123-1.335.37-.353.242-.529.551-.529.926 0 .333.121.596.364.789.242.194.621.355 1.136.483l1.296.319c.78.189 1.361.479 1.744.869.383.386.574.884.574 1.494 0 .5-.144.947-.432 1.341-.284.394-.682.705-1.193.932-.511.227-1.106.341-1.784.341-.89 0-1.627-.193-2.21-.58-.584-.386-.953-.95-1.108-1.693l1.272-.318c.122.47.351.822.688 1.057.341.235.786.352 1.335.352.625 0 1.121-.133 1.489-.398.371-.269.557-.591.557-.966 0-.303-.107-.556-.319-.761-.212-.208-.538-.364-.977-.466l-1.454-.341c-.8-.189-1.387-.483-1.762-.88-.371-.402-.557-.904-.557-1.506 0-.493.139-.928.415-1.307a2.82 2.82 0 0 1 1.142-.892c.485-.216 1.034-.324 1.648-.324.864 0 1.542.189 2.034.568a3.07 3.07 0 0 1 1.057 1.5Zm6.677-1.954h1.341v9.363c0 .538-.093 1.004-.278 1.398a2.003 2.003 0 0 1-.83.915c-.367.216-.831.324-1.392.324h-.272v-1.25h.25c.409 0 .708-.121.897-.364.19-.239.284-.579.284-1.023v-9.363Zm.659-1.455a.955.955 0 0 1-.676-.267.86.86 0 0 1-.278-.642.86.86 0 0 1 .278-.642.955.955 0 0 1 .676-.267c.262 0 .485.089.671.267a.851.851 0 0 1 .284.642c0 .25-.095.464-.284.642a.935.935 0 0 1-.671.267Zm6.684 10.364c-.788 0-1.479-.188-2.074-.563-.591-.375-1.053-.899-1.387-1.574-.329-.674-.494-1.462-.494-2.363 0-.909.165-1.703.494-2.381.334-.678.796-1.204 1.387-1.579.595-.375 1.286-.563 2.074-.563.788 0 1.477.188 2.068.563.595.375 1.057.901 1.386 1.579.334.678.5 1.472.5 2.381 0 .901-.166 1.689-.5 2.363a3.758 3.758 0 0 1-1.386 1.574c-.591.375-1.28.563-2.068.563Zm0-1.205c.598 0 1.091-.153 1.477-.46a2.72 2.72 0 0 0 .858-1.21c.186-.5.278-1.042.278-1.625 0-.584-.092-1.127-.278-1.631a2.748 2.748 0 0 0-.858-1.221c-.386-.311-.879-.466-1.477-.466-.599 0-1.091.155-1.478.466-.386.31-.672.717-.858 1.221a4.695 4.695 0 0 0-.278 1.631c0 .583.093 1.125.278 1.625.186.5.472.903.858 1.21.387.307.879.46 1.478.46Zm9.524 4.478c-.648 0-1.205-.084-1.671-.25a3.535 3.535 0 0 1-1.164-.648 3.518 3.518 0 0 1-.733-.852l1.068-.75c.121.159.274.34.46.545.186.208.439.388.761.54.326.155.752.233 1.279.233.704 0 1.286-.171 1.744-.512.458-.341.688-.875.688-1.602v-1.773h-.114a7.324 7.324 0 0 1-.42.591c-.178.231-.436.438-.773.62-.334.178-.784.267-1.352.267-.705 0-1.338-.167-1.898-.5-.557-.334-.998-.819-1.324-1.455-.322-.636-.483-1.409-.483-2.318 0-.894.157-1.672.472-2.335.314-.667.751-1.182 1.312-1.546.561-.367 1.208-.551 1.943-.551.568 0 1.019.095 1.353.284.337.186.594.398.772.637.182.234.322.428.421.579h.136v-1.386h1.296v8.977c0 .75-.171 1.36-.512 1.83-.337.473-.791.82-1.363 1.039a5.139 5.139 0 0 1-1.898.336Zm-.046-4.796c.538 0 .993-.123 1.364-.369.371-.246.653-.601.847-1.063.193-.462.289-1.015.289-1.659 0-.629-.094-1.184-.284-1.665-.189-.481-.469-.858-.841-1.13-.371-.273-.829-.409-1.375-.409-.568 0-1.041.144-1.42.431a2.637 2.637 0 0 0-.847 1.16 4.487 4.487 0 0 0-.278 1.613c0 .606.095 1.142.284 1.608.193.462.477.826.852 1.091.379.261.849.392 1.409.392Zm8.273-.25-.091.614c-.064.432-.163.894-.295 1.386-.129.493-.264.957-.404 1.392-.14.436-.255.782-.346 1.04h-1.023l.193-.96c.08-.398.159-.843.239-1.336.083-.488.151-.988.204-1.5l.069-.636h1.454Zm10.871-7.136v1.136h-4.705v-1.136h4.705ZM342.143 159v-9.932c0-.5.118-.916.353-1.25a2.18 2.18 0 0 1 .914-.75c.375-.166.771-.25 1.188-.25.329 0 .598.027.807.08.208.053.363.102.466.147l-.387 1.16a5.962 5.962 0 0 0-.284-.086 1.726 1.726 0 0 0-.466-.051c-.443 0-.763.112-.96.335-.193.224-.29.552-.29.983V159h-1.341Zm6.516-11.636V159h-1.341v-11.636h1.341ZM351.115 159v-8.727h1.341V159h-1.341Zm.682-10.182a.951.951 0 0 1-.676-.267.857.857 0 0 1-.279-.642c0-.25.093-.464.279-.642a.951.951 0 0 1 .676-.267c.261 0 .485.089.67.267.19.178.284.392.284.642s-.094.464-.284.642a.932.932 0 0 1-.67.267Zm6.66 10.364c-.818 0-1.522-.193-2.113-.58a3.772 3.772 0 0 1-1.364-1.596c-.318-.678-.477-1.453-.477-2.324 0-.887.163-1.669.488-2.347.33-.682.788-1.214 1.375-1.596.591-.387 1.281-.58 2.069-.58.613 0 1.166.114 1.659.341.492.227.895.545 1.21.955.314.409.509.886.585 1.431h-1.341c-.102-.397-.329-.75-.682-1.056-.348-.311-.818-.466-1.409-.466-.522 0-.981.136-1.375.409-.39.269-.695.649-.914 1.142-.216.488-.324 1.062-.324 1.721 0 .675.106 1.262.318 1.762.216.5.519.888.909 1.164.394.277.856.415 1.386.415.349 0 .665-.06.949-.182.284-.121.525-.295.722-.522.197-.228.337-.5.42-.818h1.341a3.112 3.112 0 0 1-.562 1.392 3.153 3.153 0 0 1-1.177.977c-.484.238-1.049.358-1.693.358Zm6.642-3.364-.022-1.659h.272l3.819-3.886h1.659l-4.069 4.113h-.113l-1.546 1.432Zm-1.25 3.182v-11.636h1.341V159h-1.341Zm5.546 0-3.409-4.318.954-.932 4.159 5.25h-1.704Zm13.612 3.273v-4.614h-.114c-.098.159-.238.36-.42.602-.182.239-.441.453-.778.642-.338.186-.786.279-1.347.279-.727 0-1.369-.184-1.926-.551-.557-.372-.993-.894-1.307-1.569-.314-.678-.472-1.479-.472-2.403 0-.917.158-1.712.472-2.386.314-.675.752-1.195 1.312-1.563.561-.367 1.209-.551 1.944-.551.568 0 1.017.095 1.346.284.334.186.587.398.762.637.178.234.316.428.414.579h.159v-1.386h1.296v12h-1.341Zm-2.477-4.296c.538 0 .992-.14 1.363-.42.372-.284.654-.676.847-1.176.193-.504.29-1.086.29-1.745 0-.651-.095-1.221-.284-1.71-.19-.492-.47-.875-.841-1.148-.371-.276-.83-.414-1.375-.414-.568 0-1.042.145-1.421.437-.375.288-.657.68-.846 1.176a4.67 4.67 0 0 0-.279 1.659c0 .622.095 1.186.284 1.694.194.503.478.905.853 1.204.378.296.848.443 1.409.443Zm11.772-2.545v-5.159h1.341V159h-1.341v-1.477h-.09c-.205.443-.523.82-.955 1.13-.432.307-.977.461-1.636.461-.546 0-1.031-.12-1.455-.358-.424-.243-.757-.606-1-1.091-.242-.489-.364-1.104-.364-1.847v-5.545h1.341v5.454c0 .637.178 1.144.534 1.523.36.379.819.568 1.375.568.334 0 .673-.085 1.018-.256.348-.17.64-.431.875-.784.238-.352.357-.801.357-1.346Zm6.366 3.773a3.55 3.55 0 0 1-1.506-.313 2.58 2.58 0 0 1-1.074-.915c-.265-.401-.398-.886-.398-1.454 0-.5.099-.906.296-1.216.197-.315.46-.561.789-.739a4.2 4.2 0 0 1 1.091-.398c.402-.09.805-.162 1.211-.215.53-.069.96-.12 1.289-.154.334-.038.576-.1.728-.187.155-.087.233-.239.233-.455v-.045c0-.561-.154-.997-.461-1.307-.303-.311-.763-.466-1.38-.466-.64 0-1.142.14-1.506.42-.364.281-.619.58-.767.898l-1.273-.454c.228-.531.531-.944.909-1.239.383-.299.8-.508 1.25-.625a5.205 5.205 0 0 1 1.341-.182c.281 0 .603.034.966.102.368.065.722.199 1.063.404.344.204.63.513.858.926.227.413.341.966.341 1.659V159h-1.341v-1.182h-.069a2.33 2.33 0 0 1-.454.608c-.212.216-.494.4-.847.551-.352.152-.782.228-1.289.228Zm.204-1.205c.53 0 .977-.104 1.341-.312.367-.209.644-.478.83-.807.189-.33.284-.676.284-1.04v-1.227c-.057.068-.182.13-.375.187-.19.053-.409.101-.659.142-.247.038-.487.072-.722.102-.231.027-.419.05-.563.069a5.114 5.114 0 0 0-.977.221 1.684 1.684 0 0 0-.727.449c-.182.197-.273.466-.273.807 0 .466.173.818.517 1.057.349.235.79.352 1.324.352Zm6.243 1v-8.727h1.295v1.318h.091c.159-.432.447-.782.864-1.051a2.542 2.542 0 0 1 1.409-.404c.099 0 .222.002.369.006.148.004.26.01.336.017v1.364a3.462 3.462 0 0 0-.313-.051 3.026 3.026 0 0 0-.506-.04c-.424 0-.803.089-1.136.267a2.019 2.019 0 0 0-.784.727 1.963 1.963 0 0 0-.284 1.051V159h-1.341Zm10.295-8.727v1.136h-4.522v-1.136h4.522Zm-3.204-2.091h1.341v8.318c0 .379.055.663.165.852a.847.847 0 0 0 .431.375c.178.061.366.091.563.091.148 0 .269-.007.364-.023l.227-.045.273 1.205a2.74 2.74 0 0 1-.381.102 2.792 2.792 0 0 1-.619.057 2.7 2.7 0 0 1-1.114-.245 2.217 2.217 0 0 1-.898-.744c-.235-.333-.352-.754-.352-1.261v-8.682ZM417.177 159v-1.023l4.955-6.363v-.091h-4.795v-1.25h6.522v1.068l-4.818 6.318v.091h4.977V159h-6.841Zm10.907-1.591-.091.614c-.065.432-.163.894-.296 1.386-.128.493-.263.957-.403 1.392-.14.436-.256.782-.347 1.04h-1.022l.193-.96c.079-.398.159-.843.238-1.336.084-.488.152-.988.205-1.5l.068-.636h1.455Zm14.12-7.136L438.977 159h-1.363l-3.228-8.727h1.455l2.409 6.954h.091l2.409-6.954h1.454Zm5.117 8.909c-.841 0-1.566-.186-2.176-.557a3.744 3.744 0 0 1-1.404-1.568c-.325-.674-.488-1.459-.488-2.352 0-.894.163-1.682.488-2.364.33-.686.788-1.22 1.375-1.602.591-.387 1.281-.58 2.069-.58.454 0 .903.076 1.346.227.443.152.847.398 1.21.739.364.337.654.784.87 1.341.216.557.324 1.242.324 2.057v.568h-6.728v-1.159h5.364c0-.493-.099-.932-.296-1.318a2.217 2.217 0 0 0-.829-.915c-.356-.224-.777-.335-1.261-.335-.535 0-.997.132-1.387.397a2.625 2.625 0 0 0-.892 1.023 3.01 3.01 0 0 0-.312 1.352v.773c0 .659.113 1.218.341 1.676.231.455.551.801.96 1.04.409.235.884.352 1.426.352.352 0 .67-.049.954-.147.288-.103.536-.254.745-.455.208-.205.369-.458.483-.761l1.295.363a2.86 2.86 0 0 1-.687 1.159c-.322.33-.72.587-1.193.773a4.425 4.425 0 0 1-1.597.273Zm6.419-8.909 2.091 3.568 2.091-3.568h1.545l-2.818 4.363 2.818 4.364h-1.545l-2.091-3.386L453.74 159h-1.545l2.772-4.364-2.772-4.363h1.545ZM85.143 185.75V191h-1.34v-8.727h1.295v1.363h.114c.204-.443.515-.799.931-1.068.417-.273.955-.409 1.614-.409.59 0 1.108.121 1.551.364.443.238.788.602 1.034 1.091.246.484.37 1.098.37 1.841V191H89.37v-5.455c0-.685-.178-1.219-.534-1.602-.356-.386-.845-.579-1.466-.579-.428 0-.811.092-1.148.278a1.99 1.99 0 0 0-.79.813c-.193.356-.29.787-.29 1.295Zm8.57 8.523a2.93 2.93 0 0 1-.608-.057 1.608 1.608 0 0 1-.37-.102l.342-1.182c.325.083.613.113.863.091a1.04 1.04 0 0 0 .665-.335c.197-.197.377-.518.54-.961l.25-.682-3.227-8.772h1.454l2.41 6.954h.09l2.41-6.954h1.454l-3.705 10c-.166.45-.373.824-.62 1.119a2.325 2.325 0 0 1-.857.665 2.645 2.645 0 0 1-1.091.216Zm8.043-3.273v-8.727h1.295v1.363h.114c.182-.466.475-.827.88-1.085.406-.261.892-.392 1.461-.392.575 0 1.055.131 1.437.392.386.258.688.619.904 1.085h.09c.224-.45.559-.808 1.006-1.074.447-.268.983-.403 1.608-.403.78 0 1.419.244 1.915.733.496.485.744 1.241.744 2.267V191h-1.341v-5.841c0-.644-.176-1.104-.528-1.381a1.957 1.957 0 0 0-1.244-.414c-.614 0-1.09.185-1.427.556-.337.368-.505.834-.505 1.398V191h-1.364v-5.977c0-.496-.161-.896-.483-1.199-.322-.307-.737-.46-1.244-.46-.349 0-.674.092-.977.278-.3.186-.542.443-.728.773a2.277 2.277 0 0 0-.272 1.13V191h-1.341Zm13.906 3.273v-12h1.295v1.386h.159c.099-.151.235-.345.409-.579.179-.239.432-.451.762-.637.333-.189.784-.284 1.352-.284.735 0 1.383.184 1.943.551.561.368.998.888 1.313 1.563.314.674.471 1.469.471 2.386 0 .924-.157 1.725-.471 2.403-.315.675-.75 1.197-1.307 1.569-.557.367-1.199.551-1.926.551-.561 0-1.01-.093-1.347-.279-.337-.189-.596-.403-.778-.642a8.677 8.677 0 0 1-.421-.602h-.113v4.614h-1.341Zm1.318-7.637c0 .659.097 1.241.29 1.745.193.5.475.892.846 1.176.372.28.826.42 1.364.42.561 0 1.028-.147 1.403-.443.379-.299.663-.701.853-1.204a4.734 4.734 0 0 0 .289-1.694c0-.613-.094-1.166-.284-1.659-.185-.496-.467-.888-.846-1.176-.375-.292-.847-.437-1.415-.437-.545 0-1.004.138-1.375.414-.371.273-.651.656-.841 1.148-.189.489-.284 1.059-.284 1.71Zm9.773-.886V191h-1.341v-11.636h1.341v4.272h.113c.205-.45.512-.808.921-1.074.413-.268.962-.403 1.648-.403.594 0 1.115.119 1.562.358a2.41 2.41 0 0 1 1.04 1.085c.25.485.375 1.103.375 1.853V191h-1.341v-5.455c0-.693-.18-1.229-.54-1.607-.356-.383-.85-.574-1.483-.574-.439 0-.833.092-1.182.278a2.038 2.038 0 0 0-.818.813c-.197.356-.295.787-.295 1.295Zm14.294-1.523-1.205.341a2.224 2.224 0 0 0-.335-.585 1.63 1.63 0 0 0-.591-.477c-.25-.125-.57-.188-.96-.188-.534 0-.979.123-1.335.37-.353.242-.529.551-.529.926 0 .333.121.596.364.789.242.194.621.355 1.136.483l1.296.319c.78.189 1.361.479 1.744.869.383.386.574.884.574 1.494 0 .5-.144.947-.432 1.341-.284.394-.682.705-1.193.932-.511.227-1.106.341-1.784.341-.89 0-1.627-.193-2.21-.58-.584-.386-.953-.95-1.108-1.693l1.272-.318c.122.47.351.822.688 1.057.341.235.786.352 1.335.352.625 0 1.121-.133 1.489-.398.371-.269.557-.591.557-.966 0-.303-.107-.556-.319-.761-.212-.208-.538-.364-.977-.466l-1.454-.341c-.8-.189-1.387-.483-1.762-.88-.371-.402-.557-.904-.557-1.506 0-.493.139-.928.415-1.307a2.82 2.82 0 0 1 1.142-.892c.485-.216 1.034-.324 1.648-.324.864 0 1.542.189 2.034.568a3.07 3.07 0 0 1 1.057 1.5Zm3.155 6.864a.983.983 0 0 1-.722-.301.985.985 0 0 1-.301-.722c0-.28.1-.521.301-.721a.984.984 0 0 1 .722-.302c.28 0 .52.101.721.302.201.2.301.441.301.721a.964.964 0 0 1-.142.512c-.091.155-.214.28-.369.375a.984.984 0 0 1-.511.136Z" fill="#344054"/><path d="M93.854 231.438h-2.489a2.436 2.436 0 0 0-.278-.858c-.14-.254-.32-.47-.54-.648a2.362 2.362 0 0 0-.762-.409 2.904 2.904 0 0 0-.926-.142c-.602 0-1.127.149-1.574.449-.447.295-.793.727-1.04 1.295-.246.564-.369 1.25-.369 2.057 0 .829.123 1.526.37 2.091.25.564.598.99 1.045 1.278.447.288.964.432 1.551.432.33 0 .635-.044.915-.131a2.42 2.42 0 0 0 .756-.38 2.19 2.19 0 0 0 .545-.62 2.41 2.41 0 0 0 .307-.829l2.489.011a4.644 4.644 0 0 1-1.511 2.869c-.429.387-.94.694-1.535.921-.59.223-1.26.335-2.006.335-1.037 0-1.965-.235-2.784-.704-.814-.47-1.458-1.15-1.931-2.04-.47-.89-.705-1.968-.705-3.233 0-1.269.239-2.349.716-3.239.477-.89 1.125-1.568 1.943-2.034.818-.47 1.739-.704 2.761-.704.675 0 1.3.094 1.875.284.58.189 1.093.466 1.54.829.447.36.81.801 1.091 1.324.284.523.466 1.121.546 1.796Zm4.139-4.074V239h-2.42v-11.636h2.42ZM99.932 239v-8.727h2.42V239h-2.42Zm1.216-9.852c-.36 0-.669-.12-.926-.358a1.16 1.16 0 0 1-.381-.87c0-.333.127-.619.381-.858.257-.242.566-.363.926-.363.359 0 .666.121.92.363.258.239.386.525.386.858 0 .338-.128.627-.386.87a1.299 1.299 0 0 1-.92.358Zm7.086 10.022c-.894 0-1.663-.189-2.307-.568a3.84 3.84 0 0 1-1.477-1.591c-.341-.678-.511-1.458-.511-2.341 0-.893.172-1.678.517-2.352a3.84 3.84 0 0 1 1.483-1.585c.64-.383 1.401-.574 2.284-.574.761 0 1.428.138 2 .415a3.338 3.338 0 0 1 1.358 1.165c.333.5.517 1.087.551 1.761h-2.284c-.064-.436-.235-.786-.511-1.051-.273-.269-.631-.404-1.074-.404-.375 0-.703.103-.983.307-.277.201-.493.495-.648.881-.155.386-.233.854-.233 1.403 0 .557.076 1.031.227 1.421.156.39.373.687.654.892.28.204.608.307.983.307.276 0 .524-.057.744-.171.223-.113.407-.278.551-.494.148-.22.244-.483.29-.79h2.284c-.038.667-.22 1.254-.545 1.761a3.29 3.29 0 0 1-1.336 1.182c-.568.284-1.24.426-2.017.426Zm7.641-2.681.006-2.904h.352l2.795-3.312h2.779l-3.756 4.386h-.574l-1.602 1.83ZM113.682 239v-11.636h2.42V239h-2.42Zm5.454 0-2.568-3.801 1.614-1.71 3.79 5.511h-2.836Zm9.982-5.045V239h-2.421v-11.636h2.353v4.448h.102c.197-.515.515-.918.954-1.21.44-.295.991-.443 1.654-.443.606 0 1.134.133 1.585.398a2.65 2.65 0 0 1 1.057 1.131c.254.488.379 1.073.375 1.755V239h-2.421v-5.125c.004-.538-.132-.956-.409-1.256-.272-.299-.655-.449-1.147-.449-.33 0-.622.071-.875.211-.25.14-.447.344-.591.613-.14.265-.212.586-.216.961Zm11.541 5.215c-.898 0-1.67-.181-2.318-.545a3.734 3.734 0 0 1-1.489-1.557c-.348-.674-.523-1.471-.523-2.392 0-.898.175-1.685.523-2.364a3.866 3.866 0 0 1 1.472-1.585c.636-.379 1.382-.568 2.238-.568.576 0 1.112.093 1.608.279.5.181.936.456 1.307.823.375.368.667.83.875 1.387.209.553.313 1.2.313 1.943v.665h-7.37v-1.5h5.091c0-.349-.075-.658-.227-.926a1.629 1.629 0 0 0-.631-.631 1.802 1.802 0 0 0-.926-.233c-.367 0-.693.085-.977.256-.28.166-.5.392-.659.676-.159.28-.241.593-.244.937v1.426c0 .432.079.805.238 1.12.163.314.392.557.688.727.295.17.645.256 1.051.256.269 0 .515-.038.738-.114a1.474 1.474 0 0 0 .938-.898l2.239.148a3.06 3.06 0 0 1-.699 1.409c-.349.398-.8.708-1.353.932-.549.22-1.183.329-1.903.329Zm5.585-.17v-8.727h2.347v1.522h.091c.159-.541.426-.95.801-1.227.375-.28.807-.42 1.295-.42.122 0 .252.007.392.022a2.8 2.8 0 0 1 .37.063v2.148a3.117 3.117 0 0 0-.472-.091 4.153 4.153 0 0 0-.551-.04c-.356 0-.674.078-.955.233a1.72 1.72 0 0 0-.659.636 1.838 1.838 0 0 0-.238.943V239h-2.421Zm10.118.17c-.898 0-1.67-.181-2.318-.545a3.734 3.734 0 0 1-1.489-1.557c-.348-.674-.522-1.471-.522-2.392 0-.898.174-1.685.522-2.364a3.866 3.866 0 0 1 1.472-1.585c.636-.379 1.382-.568 2.239-.568.575 0 1.111.093 1.607.279.5.181.936.456 1.307.823.375.368.667.83.875 1.387.209.553.313 1.2.313 1.943v.665h-7.37v-1.5h5.091c0-.349-.075-.658-.227-.926a1.622 1.622 0 0 0-.631-.631 1.799 1.799 0 0 0-.926-.233c-.367 0-.693.085-.977.256-.28.166-.5.392-.659.676-.159.28-.241.593-.244.937v1.426c0 .432.079.805.238 1.12.163.314.392.557.688.727.295.17.646.256 1.051.256.269 0 .515-.038.739-.114a1.474 1.474 0 0 0 .937-.898l2.239.148a3.06 3.06 0 0 1-.699 1.409c-.349.398-.799.708-1.352.932-.55.22-1.184.329-1.904.329Zm-73.787 3.012h78.406v1.091H82.575v-1.091Z" fill="#0F71BB"/></g><path d="M62.575 2h422V0h-422v2Zm425 3v264h2V5h-2Zm-3 267h-422v2h422v-2Zm-425-3V5h-2v264h2Zm3 3a3 3 0 0 1-3-3h-2a5 5 0 0 0 5 5v-2Zm425-3a3 3 0 0 1-3 3v2a5 5 0 0 0 5-5h-2Zm-3-267a3 3 0 0 1 3 3h2a5 5 0 0 0-5-5v2Zm-422-2a5 5 0 0 0-5 5h2a3 3 0 0 1 3-3V0Z" fill="#98A2B3"/><path fill="#E8178A" fill-opacity=".24" d="M59 1h24v272H59z"/><path fill="#E8178A" fill-opacity=".24" d="M58 1h431v24H58zm0 248h431v24H58zm0-192h431v16H58z"/><path fill="#E8178A" fill-opacity=".24" d="M466 1h24v272h-24z"/><path d="M59 287.5h24" stroke="#E8178A"/><rect x="52.5" y="292" width="37" height="18" rx="3" fill="#E8178A"/><path d="M59.09 305v-1.108l2.588-2.397c.22-.213.405-.405.554-.575a2.19 2.19 0 0 0 .345-.501c.078-.166.117-.344.117-.536 0-.213-.049-.397-.146-.551a.957.957 0 0 0-.397-.358 1.237 1.237 0 0 0-.572-.128c-.223 0-.417.045-.583.135a.93.93 0 0 0-.383.387c-.09.168-.135.368-.135.6h-1.46c0-.476.108-.889.324-1.239.215-.351.517-.622.905-.814.388-.191.836-.287 1.343-.287.52 0 .974.092 1.36.277.388.182.69.435.905.76.215.324.323.696.323 1.115 0 .274-.054.546-.163.813-.107.268-.297.565-.572.891a13.16 13.16 0 0 1-1.161 1.169l-1.062 1.04v.05h3.054V305H59.09Zm6.032-1.278v-1.211l3.036-4.784h1.044v1.676h-.618l-1.914 3.03v.056h4.315v1.233h-5.863Zm3.49 1.278v-1.648l.03-.536v-5.089h1.44V305h-1.47Zm3.412 2.045v-7.5h1.491v.917h.068c.066-.147.162-.296.287-.448a1.51 1.51 0 0 1 .497-.383c.206-.104.462-.157.767-.157.398 0 .765.105 1.101.313.336.206.605.517.806.934.202.414.302.934.302 1.559 0 .608-.098 1.122-.294 1.541-.195.417-.46.733-.796.948-.334.213-.708.32-1.122.32-.294 0-.543-.049-.75-.146a1.546 1.546 0 0 1-.5-.366 1.844 1.844 0 0 1-.298-.451h-.047v2.919h-1.512Zm1.48-4.772c0 .324.045.607.135.848.09.242.22.43.391.565a.98.98 0 0 0 .621.199.98.98 0 0 0 .626-.202c.17-.138.299-.327.386-.569.09-.243.136-.524.136-.841a2.41 2.41 0 0 0-.132-.831 1.238 1.238 0 0 0-.387-.561.981.981 0 0 0-.629-.203.995.995 0 0 0-.624.196c-.169.13-.298.314-.388.554-.09.239-.135.52-.135.845Zm5.917-2.728 1.001 1.907 1.026-1.907H83l-1.58 2.728L83.043 305h-1.545l-1.076-1.886L79.364 305H77.8l1.62-2.727-1.563-2.728h1.563Z" fill="#fff"/><path stroke="#E8178A" d="M59.5 291v-7m23 7v-7m383.35 2.5h24"/><rect x="459.35" y="291" width="37" height="18" rx="3" fill="#E8178A"/><path d="M465.939 304v-1.108l2.589-2.397c.22-.213.405-.405.554-.575.151-.171.266-.338.344-.501.078-.166.118-.344.118-.536 0-.213-.049-.397-.146-.551a.958.958 0 0 0-.398-.358 1.235 1.235 0 0 0-.572-.128c-.222 0-.416.045-.582.135a.922.922 0 0 0-.383.387c-.09.168-.135.368-.135.6h-1.46c0-.476.108-.889.323-1.239.216-.351.518-.622.906-.814.388-.191.835-.287 1.342-.287.521 0 .974.092 1.36.277.388.182.69.435.906.76.215.324.323.696.323 1.115 0 .274-.055.546-.163.813-.107.268-.298.565-.572.891-.275.325-.662.714-1.161 1.169l-1.062 1.04v.05h3.054V304h-5.185Zm6.033-1.278v-1.211l3.036-4.784h1.044v1.676h-.618l-1.914 3.03v.056h4.315v1.233h-5.863Zm3.49 1.278v-1.648l.029-.536v-5.089h1.442V304h-1.471Zm3.411 2.045v-7.5h1.492v.917h.067c.066-.147.162-.296.288-.448a1.5 1.5 0 0 1 .497-.383c.206-.104.462-.157.767-.157.398 0 .765.105 1.101.313.336.206.605.517.806.934.201.414.302.934.302 1.559 0 .608-.098 1.122-.295 1.541-.194.417-.459.733-.795.948-.334.213-.708.32-1.123.32-.293 0-.543-.049-.749-.146a1.563 1.563 0 0 1-.501-.366 1.86 1.86 0 0 1-.298-.451h-.046v2.919h-1.513Zm1.481-4.772c0 .324.045.607.135.848.09.242.22.43.391.565.17.133.377.199.621.199a.98.98 0 0 0 .625-.202c.171-.138.3-.327.387-.569.09-.243.135-.524.135-.841 0-.315-.044-.592-.131-.831a1.245 1.245 0 0 0-.387-.561.983.983 0 0 0-.629-.203.996.996 0 0 0-.625.196 1.22 1.22 0 0 0-.387.554c-.09.239-.135.52-.135.845Zm5.916-2.728 1.002 1.907 1.026-1.907h1.552l-1.58 2.728 1.622 2.727h-1.544l-1.076-1.886-1.059 1.886h-1.562l1.619-2.727-1.562-2.728h1.562Z" fill="#fff"/><path stroke="#E8178A" d="M466.35 290v-7m23 7v-7M41.5 1v24"/><rect y="5.5" width="37" height="18" rx="3" fill="#E8178A"/><path d="M6.59 18.5v-1.108l2.588-2.397c.22-.213.405-.405.554-.575.152-.17.267-.338.345-.501.078-.166.117-.344.117-.536a1.01 1.01 0 0 0-.146-.55.956.956 0 0 0-.397-.36 1.247 1.247 0 0 0-.572-.127c-.223 0-.417.045-.583.135a.93.93 0 0 0-.383.387c-.09.168-.135.368-.135.6h-1.46c0-.476.108-.889.324-1.24.215-.35.517-.62.905-.813.388-.191.836-.287 1.342-.287.521 0 .975.092 1.36.277.389.182.69.435.906.76.215.324.323.696.323 1.115 0 .275-.054.546-.163.813-.107.268-.297.565-.572.891-.274.325-.662.714-1.161 1.169l-1.062 1.04v.05h3.054V18.5H6.59Zm6.032-1.278V16.01l3.036-4.784h1.044v1.676h-.618l-1.914 3.03v.056h4.315v1.233h-5.863Zm3.49 1.278v-1.648l.03-.536v-5.089h1.44V18.5h-1.47Zm3.412 2.046v-7.5h1.491v.916h.068c.066-.147.162-.296.287-.448.128-.154.294-.281.497-.383.206-.104.462-.157.767-.157.398 0 .765.105 1.101.313.336.206.605.517.806.934.202.414.302.934.302 1.559 0 .608-.098 1.122-.294 1.541-.195.417-.46.733-.796.948-.334.213-.708.32-1.122.32a1.75 1.75 0 0 1-.75-.146 1.55 1.55 0 0 1-.5-.366c-.13-.149-.23-.3-.298-.45h-.047v2.919h-1.512Zm1.48-4.773c0 .324.045.607.135.848.09.242.22.43.391.565.17.133.378.199.621.199a.975.975 0 0 0 .625-.203c.17-.137.3-.326.387-.568a2.42 2.42 0 0 0 .136-.841 2.41 2.41 0 0 0-.132-.831 1.237 1.237 0 0 0-.387-.561.98.98 0 0 0-.629-.203.999.999 0 0 0-.625.196 1.22 1.22 0 0 0-.387.554c-.09.239-.135.52-.135.845Zm5.917-2.727 1.001 1.906 1.026-1.906H30.5l-1.58 2.727 1.623 2.727h-1.545l-1.076-1.886-1.058 1.886H25.3l1.62-2.727-1.563-2.727h1.563Z" fill="#fff"/><path stroke="#E8178A" d="M38 1.5h7m-7 23h7M41.5 249v24"/><rect y="253.5" width="37" height="18" rx="3" fill="#E8178A"/><path d="M6.59 266.5v-1.108l2.588-2.397c.22-.213.405-.405.554-.575a2.19 2.19 0 0 0 .345-.501c.078-.166.117-.344.117-.536 0-.213-.049-.397-.146-.551a.957.957 0 0 0-.397-.358 1.237 1.237 0 0 0-.572-.128c-.223 0-.417.045-.583.135a.93.93 0 0 0-.383.387c-.09.168-.135.368-.135.6h-1.46c0-.476.108-.889.324-1.239.215-.351.517-.622.905-.814.388-.191.836-.287 1.342-.287.521 0 .975.092 1.36.277.389.182.69.435.906.76.215.324.323.696.323 1.115 0 .274-.054.546-.163.813-.107.268-.297.565-.572.891-.274.325-.662.714-1.161 1.169l-1.062 1.04v.05h3.054v1.257H6.59Zm6.032-1.278v-1.211l3.036-4.784h1.044v1.676h-.618l-1.914 3.03v.056h4.315v1.233h-5.863Zm3.49 1.278v-1.648l.03-.536v-5.089h1.44v7.273h-1.47Zm3.412 2.045v-7.5h1.491v.917h.068c.066-.147.162-.296.287-.448a1.51 1.51 0 0 1 .497-.383c.206-.104.462-.157.767-.157.398 0 .765.105 1.101.313.336.206.605.517.806.934.202.414.302.934.302 1.559 0 .608-.098 1.122-.294 1.541-.195.417-.46.733-.796.948-.334.213-.708.32-1.122.32a1.75 1.75 0 0 1-.75-.146 1.546 1.546 0 0 1-.5-.366 1.844 1.844 0 0 1-.298-.451h-.047v2.919h-1.512Zm1.48-4.772c0 .324.045.607.135.848.09.242.22.43.391.565a.98.98 0 0 0 .621.199.98.98 0 0 0 .625-.202c.17-.138.3-.327.387-.569.09-.243.136-.524.136-.841a2.41 2.41 0 0 0-.132-.831 1.238 1.238 0 0 0-.387-.561.981.981 0 0 0-.629-.203.995.995 0 0 0-.625.196 1.22 1.22 0 0 0-.387.554c-.09.239-.135.52-.135.845Zm5.917-2.728 1.001 1.907 1.026-1.907H30.5l-1.58 2.728 1.623 2.727h-1.545l-1.076-1.886-1.058 1.886H25.3l1.62-2.727-1.563-2.728h1.563Z" fill="#fff"/><path stroke="#E8178A" d="M38 249.5h7m-7 23h7M505.5 57v16"/><rect x="510" y="57.5" width="36" height="18" rx="3" fill="#E8178A"/><path d="M519.754 63.227V70.5h-1.538v-5.813h-.043l-1.665 1.044v-1.364l1.8-1.14h1.446Zm4.519 7.372a3.285 3.285 0 0 1-1.083-.188 2.464 2.464 0 0 1-.93-.6c-.275-.277-.493-.644-.654-1.1-.158-.458-.238-1.019-.238-1.684.003-.61.073-1.156.21-1.637a3.66 3.66 0 0 1 .597-1.229c.26-.336.571-.592.933-.767a2.736 2.736 0 0 1 1.219-.266c.485 0 .913.094 1.285.284.372.187.67.441.895.763.227.322.365.683.412 1.084h-1.516a1.018 1.018 0 0 0-.373-.597 1.127 1.127 0 0 0-.703-.217c-.474 0-.834.206-1.08.618-.244.412-.368.972-.373 1.68h.05a1.7 1.7 0 0 1 .44-.55c.187-.154.399-.272.636-.352a2.29 2.29 0 0 1 .756-.124 2.162 2.162 0 0 1 1.946 1.136c.194.353.291.756.291 1.21 0 .493-.114.931-.344 1.315a2.389 2.389 0 0 1-.955.902c-.407.215-.881.322-1.421.32Zm-.007-1.207a1.2 1.2 0 0 0 1.076-.632 1.33 1.33 0 0 0 .16-.654 1.31 1.31 0 0 0-.16-.65 1.18 1.18 0 0 0-1.065-.629 1.22 1.22 0 0 0-.494.1 1.244 1.244 0 0 0-.657.69 1.272 1.272 0 0 0-.096.493 1.277 1.277 0 0 0 .601 1.108c.187.116.398.174.635.174Zm3.832 3.154v-7.5h1.491v.916h.068c.066-.147.162-.296.287-.448.128-.154.294-.281.498-.383.206-.105.461-.157.767-.157.397 0 .764.105 1.1.313.337.206.605.517.807.934.201.414.301.934.301 1.559 0 .608-.098 1.122-.294 1.541-.194.417-.46.733-.796.948-.334.213-.708.32-1.122.32a1.75 1.75 0 0 1-.749-.146 1.545 1.545 0 0 1-.501-.366c-.13-.149-.23-.3-.298-.45h-.046v2.919h-1.513Zm1.481-4.773c0 .324.045.607.135.848.09.242.22.43.39.565a.984.984 0 0 0 .622.199.977.977 0 0 0 .625-.203c.17-.137.299-.326.387-.568.09-.243.135-.524.135-.841a2.4 2.4 0 0 0-.132-.831 1.229 1.229 0 0 0-.387-.561.98.98 0 0 0-.628-.203.997.997 0 0 0-.625.196 1.22 1.22 0 0 0-.387.554c-.09.239-.135.52-.135.845Zm5.916-2.727 1.001 1.906 1.027-1.906h1.551l-1.58 2.727 1.623 2.727h-1.545l-1.076-1.886-1.058 1.886h-1.562l1.619-2.727-1.563-2.727h1.563Z" fill="#fff"/><path stroke="#E8178A" d="M502 57.5h7m-7 15h7"/><defs><clipPath id="a"><path d="M58.575 5a4 4 0 0 1 4-4h422a4 4 0 0 1 4 4v264a4 4 0 0 1-4 4h-422a4 4 0 0 1-4-4V5Z" fill="#fff"/></clipPath></defs></svg>