<svg width="545" height="312" viewBox="0 0 545 312" fill="none" xmlns="http://www.w3.org/2000/svg"><g clip-path="url(#a)"><path d="M58 5a4 4 0 0 1 4-4h422a4 4 0 0 1 4 4v264a4 4 0 0 1-4 4H62a4 4 0 0 1-4-4V5Z" fill="#fff"/><path d="M88.938 32a.562.562 0 0 1 .562.563v.562h9v-.562a.562.562 0 0 1 1.125 0v.562h1.125a2.25 2.25 0 0 1 2.25 2.25V47.75a2.25 2.25 0 0 1-2.25 2.25h-13.5A2.25 2.25 0 0 1 85 47.75V35.375a2.25 2.25 0 0 1 2.25-2.25h1.125v-.562a.562.562 0 0 1 .563-.563Zm-2.813 4.5v11.25a1.125 1.125 0 0 0 1.125 1.125h13.5a1.123 1.123 0 0 0 1.125-1.125V36.5h-15.75Zm38.693-1.136V47h-1.409V35.364h1.409Zm6.189 11.818c-.818 0-1.523-.193-2.114-.58a3.781 3.781 0 0 1-1.363-1.596c-.318-.678-.477-1.453-.477-2.324 0-.886.162-1.669.488-2.347.33-.681.788-1.214 1.375-1.596.591-.387 1.28-.58 2.068-.58a3.91 3.91 0 0 1 1.659.341 3.18 3.18 0 0 1 1.211.955c.314.409.509.886.585 1.431h-1.341c-.102-.397-.33-.75-.682-1.056-.348-.31-.818-.466-1.409-.466-.523 0-.981.136-1.375.409-.39.269-.695.65-.915 1.142-.216.489-.324 1.062-.324 1.721 0 .675.107 1.262.319 1.762.216.5.519.888.909 1.165.394.276.856.414 1.386.414.349 0 .665-.06.949-.181a1.96 1.96 0 0 0 .722-.523c.197-.227.337-.5.42-.818h1.341a3.101 3.101 0 0 1-1.739 2.369c-.485.239-1.049.358-1.693.358Zm8.938 0c-.788 0-1.48-.188-2.074-.563-.591-.375-1.053-.9-1.387-1.573-.329-.675-.494-1.462-.494-2.364 0-.91.165-1.703.494-2.38.334-.679.796-1.205 1.387-1.58.594-.375 1.286-.563 2.074-.563.787 0 1.477.188 2.068.563.594.375 1.057.901 1.386 1.58.333.677.5 1.47.5 2.38 0 .901-.167 1.69-.5 2.364a3.77 3.77 0 0 1-1.386 1.573c-.591.375-1.281.563-2.068.563Zm0-1.205c.598 0 1.091-.153 1.477-.46a2.72 2.72 0 0 0 .858-1.21c.185-.5.278-1.042.278-1.625s-.093-1.127-.278-1.63a2.754 2.754 0 0 0-.858-1.222c-.386-.31-.879-.466-1.477-.466-.599 0-1.091.155-1.478.466-.386.31-.672.718-.858 1.221a4.694 4.694 0 0 0-.278 1.63c0 .584.093 1.126.278 1.626.186.5.472.903.858 1.21.387.307.879.46 1.478.46Zm7.342-4.227V47h-1.341v-8.727h1.295v1.363h.114c.205-.443.515-.799.932-1.068.417-.272.954-.409 1.614-.409.59 0 1.108.121 1.551.364a2.45 2.45 0 0 1 1.034 1.09c.246.486.369 1.1.369 1.842V47h-1.341v-5.454c0-.686-.178-1.22-.534-1.603-.356-.386-.845-.58-1.466-.58-.428 0-.81.094-1.148.28a1.991 1.991 0 0 0-.789.812c-.193.356-.29.788-.29 1.295Zm16.314-3.477v1.136h-4.523v-1.136h4.523Zm-3.205-2.091h1.341V44.5c0 .379.055.663.165.852a.853.853 0 0 0 .432.375c.178.061.365.091.562.091.148 0 .269-.007.364-.022l.227-.046.273 1.205a2.736 2.736 0 0 1-.381.102 2.798 2.798 0 0 1-.619.057 2.7 2.7 0 0 1-1.114-.245 2.204 2.204 0 0 1-.897-.744c-.235-.333-.353-.754-.353-1.261v-8.682ZM165.618 47v-8.727h1.341V47h-1.341Zm.682-10.182a.951.951 0 0 1-.676-.267.857.857 0 0 1-.279-.642c0-.25.093-.464.279-.642A.951.951 0 0 1 166.3 35c.261 0 .485.09.67.267.19.178.284.392.284.642s-.094.464-.284.642a.932.932 0 0 1-.67.267Zm6.91 1.455v1.136h-4.522v-1.136h4.522Zm-3.204-2.091h1.341V44.5c0 .379.055.663.164.852a.853.853 0 0 0 .432.375c.178.061.366.091.563.091a2.4 2.4 0 0 0 .363-.022l.228-.046.272 1.205a2.715 2.715 0 0 1-.38.102c-.163.038-.37.057-.62.057-.378 0-.75-.082-1.113-.245a2.213 2.213 0 0 1-.898-.744c-.235-.333-.352-.754-.352-1.261v-8.682Zm6.75-.818V47h-1.341V35.364h1.341Zm6.115 11.818c-.841 0-1.567-.186-2.176-.557a3.742 3.742 0 0 1-1.404-1.568c-.326-.674-.488-1.458-.488-2.352 0-.894.162-1.682.488-2.364.33-.686.788-1.22 1.375-1.602.591-.387 1.28-.58 2.068-.58.455 0 .904.076 1.347.227.443.152.847.398 1.21.74.364.336.654.783.87 1.34.215.557.323 1.242.323 2.057v.568h-6.727v-1.16h5.364a2.86 2.86 0 0 0-.296-1.317 2.223 2.223 0 0 0-.829-.915c-.356-.224-.777-.335-1.262-.335-.534 0-.996.132-1.386.398a2.616 2.616 0 0 0-.892 1.022 3.01 3.01 0 0 0-.313 1.352v.773c0 .66.114 1.218.341 1.676.231.455.552.801.961 1.04.409.235.884.352 1.426.352.352 0 .67-.049.954-.147a2.05 2.05 0 0 0 .745-.455c.208-.204.369-.458.483-.761l1.295.363c-.136.44-.366.826-.687 1.16a3.35 3.35 0 0 1-1.194.772 4.42 4.42 0 0 1-1.596.273Z" fill="#344054"/><path fill="#fff" stroke="#98A2B3" d="M440.5 29.5h23v23h-23z"/><path d="M82.852 83.588v-3.042h14.335v3.042h-5.343V98h-3.648V83.588h-5.344ZM99.48 98V84.91h3.631V98h-3.63Zm1.824-14.778a1.98 1.98 0 0 1-1.39-.537c-.38-.364-.57-.799-.57-1.304 0-.5.19-.93.57-1.287.387-.364.85-.546 1.39-.546.54 0 1 .182 1.381.546.386.358.579.787.579 1.287 0 .505-.193.94-.579 1.304a1.944 1.944 0 0 1-1.381.537Zm11.678 1.687v2.727h-7.883V84.91h7.883Zm-6.094-3.136h3.631v12.204c0 .336.051.597.154.784.102.182.244.31.426.384.187.074.403.11.647.11.171 0 .341-.013.512-.042.17-.034.301-.06.392-.076l.571 2.701c-.182.057-.438.122-.767.196-.33.08-.73.128-1.202.145-.875.034-1.642-.082-2.301-.35a3.217 3.217 0 0 1-1.526-1.244c-.363-.562-.542-1.272-.537-2.13V81.773Zm12.371-1.227V98h-3.63V80.546h3.63Zm8.875 17.71c-1.347 0-2.506-.273-3.478-.818a5.604 5.604 0 0 1-2.233-2.336c-.522-1.011-.784-2.207-.784-3.588 0-1.346.262-2.528.784-3.545a5.798 5.798 0 0 1 2.208-2.378c.954-.568 2.074-.852 3.358-.852.863 0 1.667.139 2.412.417a5.35 5.35 0 0 1 1.96 1.236c.562.551 1 1.245 1.312 2.08.313.83.469 1.8.469 2.915v.997h-11.054v-2.25h7.636c0-.523-.113-.986-.34-1.39a2.45 2.45 0 0 0-.946-.946c-.398-.233-.861-.349-1.39-.349-.551 0-1.039.128-1.466.383-.42.25-.75.589-.988 1.015-.239.42-.361.889-.367 1.406v2.14c0 .647.12 1.207.358 1.678.245.472.588.835 1.031 1.091.444.256.969.384 1.577.384.404 0 .773-.057 1.108-.17.335-.115.622-.285.861-.512.239-.228.42-.506.545-.836l3.358.222a4.585 4.585 0 0 1-1.048 2.114c-.523.596-1.199 1.062-2.028 1.397-.824.33-1.776.495-2.855.495Zm20.895-13.347v2.727h-7.883V84.91h7.883Zm-6.094-3.136h3.631v12.204c0 .336.051.597.153.784a.85.85 0 0 0 .427.384c.187.074.403.11.647.11.171 0 .341-.013.512-.042.17-.034.301-.06.392-.076l.571 2.701c-.182.057-.438.122-.767.196-.33.08-.73.128-1.202.145-.875.034-1.642-.082-2.301-.35a3.212 3.212 0 0 1-1.526-1.244c-.363-.562-.542-1.272-.537-2.13V81.773Zm14.284 16.483c-1.346 0-2.505-.273-3.477-.818a5.604 5.604 0 0 1-2.233-2.336c-.522-1.011-.784-2.207-.784-3.588 0-1.346.262-2.528.784-3.545a5.798 5.798 0 0 1 2.208-2.378c.954-.568 2.073-.852 3.358-.852.863 0 1.667.139 2.412.417a5.35 5.35 0 0 1 1.96 1.236c.562.551 1 1.245 1.312 2.08.313.83.469 1.8.469 2.915v.997h-11.054v-2.25h7.636c0-.523-.113-.986-.341-1.39a2.436 2.436 0 0 0-.946-.946c-.397-.233-.86-.349-1.389-.349a2.8 2.8 0 0 0-1.466.383c-.42.25-.75.589-.988 1.015-.239.42-.361.889-.367 1.406v2.14c0 .647.12 1.207.358 1.678.244.472.588.835 1.031 1.091.444.256.969.384 1.577.384.404 0 .773-.057 1.108-.17.335-.115.622-.285.861-.512.239-.228.42-.506.545-.836l3.358.222a4.585 4.585 0 0 1-1.048 2.114c-.523.596-1.199 1.062-2.028 1.397-.824.33-1.776.495-2.856.495Zm11.178-13.347 2.403 4.577 2.463-4.577h3.725l-3.793 6.546L177.09 98h-3.707l-2.583-4.525L168.261 98h-3.75l3.886-6.545-3.75-6.546h3.75Zm17.71 0v2.727h-7.883V84.91h7.883Zm-6.094-3.136h3.631v12.204c0 .336.051.597.154.784.102.182.244.31.426.384.187.074.403.11.647.11.171 0 .341-.013.512-.042.17-.034.301-.06.392-.076l.571 2.701c-.182.057-.438.122-.767.196-.33.08-.73.128-1.202.145-.875.034-1.642-.082-2.301-.35a3.217 3.217 0 0 1-1.526-1.244c-.363-.562-.542-1.272-.537-2.13V81.773Zm-97.24 50.841v-1.25H91.5v1.25h-3.66V143h-1.408v-10.386h-3.66Zm12.06 5.136V143h-1.34v-11.636h1.34v4.272h.114c.205-.45.512-.808.92-1.073.414-.269.963-.404 1.649-.404.594 0 1.115.12 1.562.358a2.41 2.41 0 0 1 1.04 1.085c.25.485.375 1.103.375 1.853V143h-1.341v-5.454c0-.694-.18-1.23-.54-1.608-.356-.383-.85-.574-1.483-.574-.44 0-.833.093-1.182.278a2.038 2.038 0 0 0-.818.813c-.197.356-.295.788-.295 1.295Zm11.772 5.432c-.841 0-1.566-.186-2.176-.557a3.736 3.736 0 0 1-1.403-1.568c-.326-.674-.489-1.458-.489-2.352 0-.894.163-1.682.489-2.364.329-.686.787-1.22 1.375-1.602.59-.387 1.28-.58 2.068-.58.454 0 .903.076 1.346.227.444.152.847.398 1.211.739.363.337.653.784.869 1.341.216.557.324 1.242.324 2.057v.568h-6.728v-1.159h5.364a2.86 2.86 0 0 0-.295-1.318 2.226 2.226 0 0 0-.83-.915c-.356-.223-.776-.335-1.261-.335-.534 0-.996.132-1.387.397a2.633 2.633 0 0 0-.892 1.023 3.01 3.01 0 0 0-.312 1.352v.773c0 .659.113 1.218.341 1.676.231.455.551.801.96 1.04.409.235.884.352 1.426.352.352 0 .671-.049.955-.147.288-.103.536-.254.744-.455.208-.204.369-.458.483-.761l1.295.363a2.86 2.86 0 0 1-.687 1.159c-.322.33-.72.588-1.193.773a4.425 4.425 0 0 1-1.597.273Zm16.108 3.091v-4.614h-.114c-.098.159-.238.36-.42.602-.182.239-.441.453-.778.643-.338.185-.786.278-1.347.278-.727 0-1.369-.184-1.926-.551-.557-.371-.993-.894-1.307-1.568-.314-.678-.472-1.48-.472-2.404 0-.916.158-1.712.472-2.386.314-.674.752-1.195 1.313-1.563.56-.367 1.208-.551 1.943-.551.568 0 1.017.095 1.346.284.334.186.587.398.762.637.178.235.316.428.414.579h.16v-1.386h1.295v12h-1.341Zm-2.477-4.296c.538 0 .992-.14 1.363-.42.372-.284.654-.676.847-1.176.193-.504.29-1.085.29-1.745 0-.651-.095-1.221-.284-1.71-.19-.492-.47-.875-.841-1.147-.371-.277-.83-.415-1.375-.415-.568 0-1.042.146-1.421.437-.375.288-.657.68-.846 1.176a4.67 4.67 0 0 0-.279 1.659c0 .622.095 1.186.284 1.694.194.503.478.905.853 1.204.378.296.848.443 1.409.443Zm11.773-2.545v-5.159h1.34V143h-1.34v-1.477h-.091c-.205.443-.523.82-.955 1.131-.432.306-.977.46-1.636.46-.546 0-1.031-.12-1.455-.358-.424-.243-.757-.606-1-1.091-.242-.489-.363-1.104-.363-1.847v-5.545h1.34v5.454c0 .637.178 1.144.535 1.523.359.379.818.568 1.375.568a2.29 2.29 0 0 0 1.017-.255c.348-.171.64-.432.875-.784.238-.353.358-.802.358-1.347Zm3.796 3.568v-8.727h1.341V143h-1.341Zm.682-10.182a.953.953 0 0 1-.676-.267.856.856 0 0 1-.278-.642c0-.25.092-.464.278-.642a.953.953 0 0 1 .676-.267c.262 0 .485.089.671.267a.851.851 0 0 1 .284.642c0 .25-.095.464-.284.642a.935.935 0 0 1-.671.267Zm6.661 10.364c-.818 0-1.523-.193-2.114-.58a3.78 3.78 0 0 1-1.364-1.596c-.318-.678-.477-1.453-.477-2.324 0-.886.163-1.669.489-2.347.329-.681.788-1.214 1.375-1.596.591-.387 1.28-.58 2.068-.58.614 0 1.167.114 1.659.341.493.227.896.546 1.21.955.315.409.51.886.586 1.431h-1.341c-.103-.397-.33-.75-.682-1.056-.349-.311-.818-.466-1.409-.466-.523 0-.981.136-1.375.409-.39.269-.695.649-.915 1.142-.216.489-.324 1.062-.324 1.721 0 .675.106 1.262.318 1.762.216.5.519.888.909 1.165.394.276.856.414 1.387.414.348 0 .664-.06.949-.181.284-.122.524-.296.721-.523.197-.227.337-.5.421-.818h1.341a3.114 3.114 0 0 1-.563 1.392 3.133 3.133 0 0 1-1.176.977c-.485.239-1.049.358-1.693.358Zm6.642-3.364-.023-1.659h.273l3.818-3.886h1.659l-4.068 4.113h-.114l-1.545 1.432ZM148.54 143v-11.636h1.341V143h-1.341Zm5.545 0-3.409-4.318.955-.932 4.159 5.25h-1.705Zm5.158-1.591-.091.614c-.064.432-.163.894-.295 1.386-.129.493-.264.957-.404 1.392-.14.436-.256.782-.346 1.04h-1.023l.193-.96c.08-.398.159-.843.239-1.335.083-.489.151-.989.204-1.5l.068-.637h1.455Zm7.166 1.591v-11.636h1.341v4.295h.114c.098-.151.234-.344.409-.579.178-.239.432-.451.761-.637.333-.189.784-.284 1.352-.284.735 0 1.383.184 1.944.551.56.368.998.889 1.312 1.563.314.674.472 1.47.472 2.386 0 .924-.158 1.726-.472 2.404-.314.674-.75 1.197-1.307 1.568-.557.367-1.199.551-1.926.551-.561 0-1.009-.093-1.347-.278-.337-.19-.596-.404-.778-.643a8.279 8.279 0 0 1-.42-.602h-.159V143h-1.296Zm1.318-4.364c0 .66.097 1.241.29 1.745.193.5.475.892.847 1.176.371.28.825.42 1.363.42.561 0 1.029-.147 1.404-.443.378-.299.663-.701.852-1.204.193-.508.29-1.072.29-1.694 0-.613-.095-1.166-.284-1.659-.186-.496-.468-.888-.847-1.176-.375-.291-.847-.437-1.415-.437-.545 0-1.004.138-1.375.415-.371.272-.651.655-.841 1.147-.189.489-.284 1.059-.284 1.71Zm8.438 4.364v-8.727h1.295v1.318h.091c.159-.432.447-.782.864-1.051a2.54 2.54 0 0 1 1.409-.404c.098 0 .221.002.369.006s.26.01.335.017v1.364a3.351 3.351 0 0 0-.312-.051 3.026 3.026 0 0 0-.506-.04c-.424 0-.803.089-1.136.267a1.954 1.954 0 0 0-1.068 1.778V143h-1.341Zm9.233.182c-.788 0-1.479-.188-2.074-.563-.591-.375-1.053-.899-1.386-1.573-.33-.675-.495-1.463-.495-2.364 0-.909.165-1.703.495-2.381.333-.678.795-1.204 1.386-1.579.595-.375 1.286-.563 2.074-.563.788 0 1.477.188 2.068.563.595.375 1.057.901 1.386 1.579.334.678.5 1.472.5 2.381 0 .901-.166 1.689-.5 2.364a3.762 3.762 0 0 1-1.386 1.573c-.591.375-1.28.563-2.068.563Zm0-1.205c.598 0 1.091-.153 1.477-.46a2.72 2.72 0 0 0 .858-1.21c.186-.5.278-1.042.278-1.625s-.092-1.127-.278-1.631a2.748 2.748 0 0 0-.858-1.221c-.386-.311-.879-.466-1.477-.466-.599 0-1.091.155-1.478.466-.386.31-.672.717-.858 1.221a4.699 4.699 0 0 0-.278 1.631c0 .583.093 1.125.278 1.625.186.5.472.903.858 1.21.387.307.879.46 1.478.46ZM193.08 143l-2.66-8.727h1.41l1.886 6.682h.091l1.863-6.682h1.432l1.841 6.659h.091l1.886-6.659h1.41L199.67 143h-1.318l-1.909-6.704h-.136L194.398 143h-1.318Zm12.363-5.25V143h-1.341v-8.727h1.296v1.363h.113c.205-.443.516-.799.932-1.068.417-.272.955-.409 1.614-.409.591 0 1.108.121 1.551.364.443.238.788.602 1.034 1.091.246.485.369 1.098.369 1.841V143h-1.341v-5.454c0-.686-.178-1.22-.534-1.603-.356-.386-.844-.579-1.466-.579-.428 0-.81.093-1.147.278a1.991 1.991 0 0 0-.79.813c-.193.356-.29.788-.29 1.295Zm16.405-3.477v1.136h-4.705v-1.136h4.705ZM218.553 143v-9.932c0-.5.117-.916.352-1.25a2.19 2.19 0 0 1 .915-.75c.375-.166.77-.25 1.187-.25.33 0 .599.027.807.08.208.053.364.102.466.148l-.387 1.159a6.91 6.91 0 0 0-.284-.086 1.721 1.721 0 0 0-.466-.051c-.443 0-.763.112-.96.336-.193.223-.29.551-.29.982V143h-1.34Zm8.36.182c-.788 0-1.479-.188-2.074-.563a3.824 3.824 0 0 1-1.386-1.573c-.329-.675-.494-1.463-.494-2.364 0-.909.165-1.703.494-2.381.333-.678.796-1.204 1.386-1.579.595-.375 1.286-.563 2.074-.563.788 0 1.478.188 2.069.563.594.375 1.056.901 1.386 1.579.333.678.5 1.472.5 2.381 0 .901-.167 1.689-.5 2.364a3.775 3.775 0 0 1-1.386 1.573c-.591.375-1.281.563-2.069.563Zm0-1.205c.599 0 1.091-.153 1.478-.46a2.72 2.72 0 0 0 .858-1.21c.185-.5.278-1.042.278-1.625s-.093-1.127-.278-1.631a2.748 2.748 0 0 0-.858-1.221c-.387-.311-.879-.466-1.478-.466-.598 0-1.091.155-1.477.466-.386.31-.672.717-.858 1.221a4.699 4.699 0 0 0-.278 1.631c0 .583.093 1.125.278 1.625.186.5.472.903.858 1.21.386.307.879.46 1.477.46Zm6.642-7.704 2.091 3.568 2.091-3.568h1.546l-2.819 4.363 2.819 4.364h-1.546l-2.091-3.386-2.091 3.386h-1.545l2.773-4.364-2.773-4.363h1.545Zm12.141 0h1.341v9.363c0 .538-.093 1.004-.278 1.398a2.008 2.008 0 0 1-.83.915c-.367.216-.831.324-1.392.324h-.273v-1.25h.25c.409 0 .709-.121.898-.364.189-.238.284-.579.284-1.023v-9.363Zm.659-1.455a.953.953 0 0 1-.676-.267.856.856 0 0 1-.278-.642c0-.25.092-.464.278-.642a.953.953 0 0 1 .676-.267c.261 0 .485.089.671.267a.851.851 0 0 1 .284.642c0 .25-.095.464-.284.642a.936.936 0 0 1-.671.267Zm8.638 6.614v-5.159h1.341V143h-1.341v-1.477h-.091c-.205.443-.523.82-.955 1.131-.431.306-.977.46-1.636.46a2.92 2.92 0 0 1-1.454-.358c-.425-.243-.758-.606-1-1.091-.243-.489-.364-1.104-.364-1.847v-5.545h1.341v5.454c0 .637.178 1.144.534 1.523.36.379.818.568 1.375.568a2.29 2.29 0 0 0 1.017-.255c.348-.171.64-.432.875-.784.239-.353.358-.802.358-1.347ZM258.79 143v-8.727h1.295v1.363h.114c.182-.465.475-.827.881-1.085.405-.261.892-.392 1.46-.392.576 0 1.055.131 1.437.392.387.258.688.62.904 1.085h.091c.223-.45.558-.808 1.005-1.073.447-.269.983-.404 1.608-.404.781 0 1.419.245 1.915.733.496.485.744 1.241.744 2.267V143h-1.341v-5.841c0-.644-.176-1.104-.528-1.38a1.952 1.952 0 0 0-1.244-.415c-.614 0-1.089.185-1.426.557-.338.367-.506.833-.506 1.397V143h-1.364v-5.977c0-.496-.161-.896-.483-1.199-.322-.307-.736-.46-1.244-.46a1.84 1.84 0 0 0-.977.278c-.3.186-.542.443-.728.773a2.292 2.292 0 0 0-.272 1.131V143h-1.341Zm13.906 3.273v-12h1.295v1.386h.16c.098-.151.234-.344.409-.579.178-.239.431-.451.761-.637.333-.189.784-.284 1.352-.284.735 0 1.383.184 1.943.551.561.368.999.889 1.313 1.563.314.674.472 1.47.472 2.386 0 .924-.158 1.726-.472 2.404-.314.674-.75 1.197-1.307 1.568-.557.367-1.199.551-1.926.551-.561 0-1.009-.093-1.347-.278-.337-.19-.596-.404-.778-.643a8.279 8.279 0 0 1-.42-.602h-.114v4.614h-1.341Zm1.318-7.637c0 .66.097 1.241.29 1.745.193.5.475.892.847 1.176.371.28.825.42 1.363.42.561 0 1.029-.147 1.404-.443.378-.299.662-.701.852-1.204.193-.508.29-1.072.29-1.694 0-.613-.095-1.166-.284-1.659-.186-.496-.468-.888-.847-1.176-.375-.291-.847-.437-1.415-.437-.545 0-1.004.138-1.375.415-.371.272-.651.655-.841 1.147-.189.489-.284 1.059-.284 1.71Zm14.614-2.409-1.205.341a2.212 2.212 0 0 0-.335-.585 1.63 1.63 0 0 0-.591-.477c-.25-.125-.57-.188-.96-.188-.534 0-.979.123-1.335.37-.353.242-.529.551-.529.926 0 .333.122.596.364.79.242.193.621.354 1.136.482l1.296.319c.78.189 1.361.479 1.744.869.383.386.574.884.574 1.494 0 .5-.144.947-.432 1.341-.284.394-.682.705-1.193.932-.511.227-1.106.341-1.784.341-.89 0-1.627-.193-2.21-.58-.584-.386-.953-.95-1.108-1.693l1.272-.318c.122.47.351.822.688 1.057.341.235.786.352 1.335.352.625 0 1.121-.132 1.489-.398.371-.269.557-.591.557-.966 0-.303-.106-.556-.319-.761-.212-.208-.537-.364-.977-.466l-1.454-.341c-.8-.189-1.387-.483-1.762-.88-.371-.402-.557-.904-.557-1.506 0-.492.139-.928.415-1.307a2.82 2.82 0 0 1 1.142-.892c.485-.216 1.034-.324 1.648-.324.864 0 1.542.19 2.034.568.496.379.849.879 1.057 1.5Zm10.223 6.955c-.788 0-1.479-.188-2.074-.563-.591-.375-1.053-.899-1.386-1.573-.33-.675-.495-1.463-.495-2.364 0-.909.165-1.703.495-2.381.333-.678.795-1.204 1.386-1.579.595-.375 1.286-.563 2.074-.563.788 0 1.477.188 2.068.563.595.375 1.057.901 1.386 1.579.334.678.5 1.472.5 2.381 0 .901-.166 1.689-.5 2.364a3.762 3.762 0 0 1-1.386 1.573c-.591.375-1.28.563-2.068.563Zm0-1.205c.598 0 1.091-.153 1.477-.46a2.72 2.72 0 0 0 .858-1.21c.186-.5.278-1.042.278-1.625s-.092-1.127-.278-1.631a2.748 2.748 0 0 0-.858-1.221c-.386-.311-.879-.466-1.477-.466-.599 0-1.091.155-1.477.466-.387.31-.673.717-.858 1.221a4.676 4.676 0 0 0-.279 1.631c0 .583.093 1.125.279 1.625.185.5.471.903.858 1.21.386.307.878.46 1.477.46Zm12.825-7.704L308.449 143h-1.364l-3.227-8.727h1.454l2.41 6.954h.09l2.41-6.954h1.454Zm5.117 8.909c-.841 0-1.567-.186-2.177-.557a3.742 3.742 0 0 1-1.403-1.568c-.326-.674-.489-1.458-.489-2.352 0-.894.163-1.682.489-2.364.33-.686.788-1.22 1.375-1.602.591-.387 1.28-.58 2.068-.58.455 0 .904.076 1.347.227.443.152.846.398 1.21.739.364.337.653.784.869 1.341.216.557.324 1.242.324 2.057v.568h-6.727v-1.159h5.364a2.86 2.86 0 0 0-.296-1.318 2.223 2.223 0 0 0-.829-.915c-.356-.223-.777-.335-1.262-.335-.534 0-.996.132-1.386.397a2.625 2.625 0 0 0-.892 1.023 3.01 3.01 0 0 0-.313 1.352v.773c0 .659.114 1.218.341 1.676.231.455.551.801.96 1.04.41.235.885.352 1.427.352.352 0 .67-.049.954-.147.288-.103.536-.254.744-.455.209-.204.37-.458.483-.761l1.296.363c-.136.44-.366.826-.688 1.159-.322.33-.719.588-1.193.773a4.416 4.416 0 0 1-1.596.273Zm5.653-.182v-8.727h1.295v1.318h.091c.159-.432.447-.782.864-1.051a2.542 2.542 0 0 1 1.409-.404c.099 0 .222.002.369.006.148.004.26.01.336.017v1.364a3.462 3.462 0 0 0-.313-.051 3.017 3.017 0 0 0-.506-.04c-.424 0-.803.089-1.136.267a2.019 2.019 0 0 0-.784.727 1.963 1.963 0 0 0-.284 1.051V143h-1.341Zm13.021.205a3.531 3.531 0 0 1-1.505-.313 2.58 2.58 0 0 1-1.074-.915c-.265-.401-.398-.886-.398-1.454 0-.5.099-.905.296-1.216.196-.314.46-.561.789-.739a4.15 4.15 0 0 1 1.091-.397c.402-.091.805-.163 1.21-.216.531-.069.961-.12 1.29-.154.334-.038.576-.1.727-.187.156-.087.233-.239.233-.455v-.045c0-.561-.153-.996-.46-1.307-.303-.311-.763-.466-1.38-.466-.641 0-1.143.14-1.506.42-.364.281-.619.58-.767.898l-1.273-.454c.227-.531.53-.944.909-1.239a3.406 3.406 0 0 1 1.25-.625 5.205 5.205 0 0 1 1.341-.182c.28 0 .602.034.966.102a3.09 3.09 0 0 1 1.062.404c.345.204.631.513.858.926.228.413.341.966.341 1.659V143h-1.341v-1.182h-.068c-.091.19-.242.392-.454.608-.212.216-.495.4-.847.551-.352.152-.782.228-1.29.228Zm.205-1.205c.53 0 .977-.104 1.341-.312a2.133 2.133 0 0 0 1.113-1.847v-1.227c-.056.068-.181.13-.375.187a6.143 6.143 0 0 1-.659.142c-.246.038-.486.072-.721.103-.231.026-.419.049-.563.068a5.114 5.114 0 0 0-.977.221 1.684 1.684 0 0 0-.727.449c-.182.197-.273.466-.273.807 0 .466.172.818.517 1.057.348.235.79.352 1.324.352Zm12.084-10.636V143h-1.341v-11.636h1.341Zm5.024 11.841a3.539 3.539 0 0 1-1.506-.313 2.58 2.58 0 0 1-1.074-.915c-.265-.401-.397-.886-.397-1.454 0-.5.098-.905.295-1.216.197-.314.46-.561.79-.739.329-.178.693-.31 1.091-.397a13.22 13.22 0 0 1 1.21-.216c.53-.069.96-.12 1.29-.154.333-.038.575-.1.727-.187.155-.087.233-.239.233-.455v-.045c0-.561-.153-.996-.46-1.307-.303-.311-.764-.466-1.381-.466-.64 0-1.142.14-1.506.42-.363.281-.619.58-.767.898l-1.272-.454c.227-.531.53-.944.909-1.239a3.398 3.398 0 0 1 1.25-.625 5.193 5.193 0 0 1 1.341-.182c.28 0 .602.034.965.102.368.065.722.199 1.063.404.345.204.631.513.858.926.227.413.341.966.341 1.659V143h-1.341v-1.182h-.068a2.36 2.36 0 0 1-.455.608c-.212.216-.494.4-.846.551-.353.152-.783.228-1.29.228Zm.204-1.205c.531 0 .978-.104 1.341-.312.368-.209.644-.478.83-.807.189-.33.284-.676.284-1.04v-1.227c-.057.068-.182.13-.375.187a6.143 6.143 0 0 1-.659.142c-.246.038-.487.072-.722.103-.231.026-.418.049-.562.068a5.107 5.107 0 0 0-.978.221 1.69 1.69 0 0 0-.727.449c-.182.197-.273.466-.273.807 0 .466.173.818.518 1.057.348.235.789.352 1.323.352Zm5.993 1v-1.023l4.955-6.363v-.091h-4.796v-1.25h6.523v1.068l-4.818 6.318v.091h4.977V143h-6.841Zm9.77 3.273a2.93 2.93 0 0 1-.608-.057 1.601 1.601 0 0 1-.369-.102l.341-1.182c.326.083.613.114.863.091a1.04 1.04 0 0 0 .665-.335c.197-.197.377-.517.54-.961l.25-.681-3.227-8.773h1.454l2.409 6.954h.091l2.409-6.954h1.455l-3.705 10a3.761 3.761 0 0 1-.619 1.119 2.321 2.321 0 0 1-.858.665 2.646 2.646 0 0 1-1.091.216Zm15.838-3.091c-.727 0-1.369-.184-1.926-.551-.557-.371-.992-.894-1.307-1.568-.314-.678-.471-1.48-.471-2.404 0-.916.157-1.712.471-2.386.315-.674.752-1.195 1.313-1.563.56-.367 1.208-.551 1.943-.551.568 0 1.017.095 1.347.284.333.186.587.398.761.637.178.235.316.428.415.579h.113v-4.295h1.341V143h-1.295v-1.341h-.159c-.099.159-.239.36-.421.602-.182.239-.441.453-.778.643-.337.185-.786.278-1.347.278Zm.182-1.205c.538 0 .992-.14 1.364-.42.371-.284.653-.676.846-1.176.193-.504.29-1.085.29-1.745 0-.651-.095-1.221-.284-1.71-.189-.492-.47-.875-.841-1.147-.371-.277-.829-.415-1.375-.415-.568 0-1.042.146-1.42.437-.375.288-.658.68-.847 1.176a4.671 4.671 0 0 0-.278 1.659c0 .622.094 1.186.284 1.694.193.503.477.905.852 1.204.379.296.848.443 1.409.443Zm10.006 1.205c-.788 0-1.479-.188-2.074-.563-.591-.375-1.053-.899-1.387-1.573-.329-.675-.494-1.463-.494-2.364 0-.909.165-1.703.494-2.381.334-.678.796-1.204 1.387-1.579.595-.375 1.286-.563 2.074-.563.788 0 1.477.188 2.068.563.595.375 1.057.901 1.386 1.579.334.678.5 1.472.5 2.381 0 .901-.166 1.689-.5 2.364a3.762 3.762 0 0 1-1.386 1.573c-.591.375-1.28.563-2.068.563Zm0-1.205c.598 0 1.091-.153 1.477-.46a2.72 2.72 0 0 0 .858-1.21c.186-.5.278-1.042.278-1.625s-.092-1.127-.278-1.631a2.748 2.748 0 0 0-.858-1.221c-.386-.311-.879-.466-1.477-.466-.599 0-1.091.155-1.478.466-.386.31-.672.717-.857 1.221a4.676 4.676 0 0 0-.279 1.631c0 .583.093 1.125.279 1.625.185.5.471.903.857 1.21.387.307.879.46 1.478.46Zm9.524 4.478c-.648 0-1.205-.084-1.671-.25a3.545 3.545 0 0 1-1.164-.648 3.54 3.54 0 0 1-.733-.852l1.068-.75c.121.159.274.341.46.545.186.208.439.388.761.54.326.155.752.233 1.279.233.704 0 1.286-.171 1.744-.512.459-.34.688-.875.688-1.602v-1.773h-.114c-.098.16-.239.357-.42.591-.178.231-.436.438-.773.62-.333.178-.784.267-1.352.267-.705 0-1.338-.167-1.898-.5-.557-.334-.998-.818-1.324-1.455-.322-.636-.483-1.409-.483-2.318 0-.894.157-1.672.472-2.335.314-.667.752-1.182 1.312-1.546.561-.367 1.208-.551 1.943-.551.569 0 1.019.095 1.353.284.337.186.594.398.772.637.182.235.322.428.421.579h.136v-1.386h1.296v8.977c0 .75-.171 1.36-.512 1.83-.337.473-.791.82-1.363 1.039a5.139 5.139 0 0 1-1.898.336Zm-.046-4.796c.538 0 .993-.123 1.364-.369.371-.246.653-.6.847-1.063.193-.462.289-1.015.289-1.659 0-.628-.094-1.183-.284-1.664-.189-.482-.469-.858-.841-1.131-.371-.273-.829-.409-1.375-.409-.568 0-1.041.144-1.42.432a2.629 2.629 0 0 0-.847 1.159 4.49 4.49 0 0 0-.278 1.613c0 .606.095 1.142.284 1.608.193.462.477.826.852 1.091.379.262.849.392 1.409.392Zm7.25 1.432c-.28 0-.52-.1-.721-.301a.983.983 0 0 1-.301-.722c0-.28.1-.521.301-.721a.983.983 0 0 1 .721-.301c.281 0 .521.1.722.301.201.2.301.441.301.721a.964.964 0 0 1-.142.512c-.091.155-.214.28-.369.375a.975.975 0 0 1-.512.136Zm11.702-.091h-3.591v-11.636h3.75c1.129 0 2.095.233 2.898.699.803.462 1.419 1.127 1.847 1.994.428.864.642 1.898.642 3.102 0 1.212-.216 2.256-.648 3.131a4.613 4.613 0 0 1-1.887 2.011c-.825.466-1.829.699-3.011.699Zm-2.182-1.25h2.091c.962 0 1.76-.185 2.392-.557a3.428 3.428 0 0 0 1.415-1.585c.311-.686.466-1.502.466-2.449 0-.939-.153-1.748-.46-2.426a3.395 3.395 0 0 0-1.375-1.568c-.61-.368-1.37-.551-2.279-.551h-2.25v9.136Zm14.546-10.386h1.409v8.318c0 .742-.137 1.373-.409 1.892a2.778 2.778 0 0 1-1.154 1.182c-.496.269-1.081.403-1.755.403-.637 0-1.203-.115-1.699-.346a2.81 2.81 0 0 1-1.171-1c-.284-.432-.426-.945-.426-1.54h1.387c0 .329.081.617.244.863.167.243.394.432.682.569.288.136.615.204.983.204.405 0 .75-.085 1.034-.255.284-.171.5-.421.647-.75.152-.334.228-.741.228-1.222v-8.318Zm10.233 4.863-1.205.341a2.24 2.24 0 0 0-.335-.585 1.63 1.63 0 0 0-.591-.477c-.25-.125-.57-.188-.96-.188-.534 0-.979.123-1.335.37-.353.242-.529.551-.529.926 0 .333.121.596.364.79.242.193.621.354 1.136.482l1.296.319c.78.189 1.361.479 1.744.869.383.386.574.884.574 1.494 0 .5-.144.947-.432 1.341-.284.394-.682.705-1.193.932-.512.227-1.106.341-1.784.341-.89 0-1.627-.193-2.211-.58-.583-.386-.952-.95-1.107-1.693l1.272-.318c.121.47.351.822.688 1.057.341.235.786.352 1.335.352.625 0 1.121-.132 1.489-.398.371-.269.556-.591.556-.966 0-.303-.106-.556-.318-.761-.212-.208-.538-.364-.977-.466l-1.455-.341c-.799-.189-1.386-.483-1.761-.88-.371-.402-.557-.904-.557-1.506 0-.492.139-.928.415-1.307a2.82 2.82 0 0 1 1.142-.892c.485-.216 1.034-.324 1.648-.324.863 0 1.541.19 2.034.568a3.07 3.07 0 0 1 1.057 1.5ZM87.114 166.273v1.136h-4.705v-1.136h4.705ZM83.818 175v-9.932c0-.5.118-.916.353-1.25.234-.333.54-.583.914-.75.375-.166.771-.25 1.188-.25.33 0 .598.027.806.08.209.053.364.102.467.148l-.387 1.159a7.447 7.447 0 0 0-.284-.086 1.727 1.727 0 0 0-.466-.051c-.443 0-.763.112-.96.336-.193.223-.29.551-.29.982V175h-1.34Zm6.516-11.636V175h-1.341v-11.636h1.34Zm6.001 11.818c-.788 0-1.479-.188-2.074-.563a3.824 3.824 0 0 1-1.386-1.573c-.33-.675-.494-1.463-.494-2.364 0-.909.165-1.703.494-2.381.333-.678.796-1.204 1.386-1.579.595-.375 1.286-.563 2.074-.563.788 0 1.478.188 2.068.563.595.375 1.057.901 1.387 1.579.333.678.5 1.472.5 2.381 0 .901-.167 1.689-.5 2.364a3.769 3.769 0 0 1-1.387 1.573c-.59.375-1.28.563-2.068.563Zm0-1.205c.599 0 1.091-.153 1.478-.46a2.72 2.72 0 0 0 .858-1.21c.185-.5.278-1.042.278-1.625s-.093-1.127-.278-1.631a2.743 2.743 0 0 0-.859-1.221c-.386-.311-.878-.466-1.477-.466-.598 0-1.09.155-1.477.466-.386.31-.672.717-.858 1.221a4.685 4.685 0 0 0-.278 1.631c0 .583.092 1.125.278 1.625.186.5.472.903.858 1.21.386.307.879.46 1.477.46Zm9.547 1.205c-.818 0-1.523-.193-2.114-.58a3.777 3.777 0 0 1-1.363-1.596c-.318-.678-.477-1.453-.477-2.324 0-.886.162-1.669.488-2.347.33-.681.788-1.214 1.375-1.596.591-.387 1.28-.58 2.068-.58.614 0 1.167.114 1.659.341a3.18 3.18 0 0 1 1.211.955c.314.409.509.886.585 1.431h-1.341c-.102-.397-.33-.75-.682-1.056-.348-.311-.818-.466-1.409-.466-.523 0-.981.136-1.375.409-.39.269-.695.649-.915 1.142-.216.489-.324 1.062-.324 1.721 0 .675.107 1.262.319 1.762.216.5.519.888.909 1.165.394.276.856.414 1.386.414.349 0 .665-.06.949-.181.284-.122.525-.296.722-.523.197-.227.337-.5.42-.818h1.341a3.102 3.102 0 0 1-1.739 2.369c-.485.239-1.049.358-1.693.358Zm6.642-3.364-.023-1.659h.273l3.818-3.886h1.659l-4.068 4.113h-.113l-1.546 1.432Zm-1.25 3.182v-11.636h1.341V175h-1.341Zm5.546 0-3.409-4.318.954-.932 4.159 5.25h-1.704Zm7.839 0v-11.636H126v4.295h.114c.098-.151.234-.344.409-.579.178-.239.432-.451.761-.637.333-.189.784-.284 1.352-.284.735 0 1.383.184 1.944.551.56.368.998.889 1.312 1.563.314.674.472 1.47.472 2.386 0 .924-.158 1.726-.472 2.404-.314.674-.75 1.197-1.307 1.568-.557.367-1.199.551-1.926.551-.561 0-1.009-.093-1.347-.278-.337-.19-.596-.404-.778-.643a8.279 8.279 0 0 1-.42-.602h-.159V175h-1.296Zm1.318-4.364c0 .66.097 1.241.29 1.745.193.5.475.892.847 1.176.371.28.825.42 1.363.42.561 0 1.029-.147 1.404-.443.378-.299.663-.701.852-1.204.193-.508.29-1.072.29-1.694 0-.613-.095-1.166-.284-1.659-.186-.496-.468-.888-.847-1.176-.375-.291-.847-.437-1.415-.437-.545 0-1.004.138-1.375.415-.371.272-.651.655-.841 1.147-.189.489-.284 1.059-.284 1.71Zm8.989 7.637a2.93 2.93 0 0 1-.608-.057 1.601 1.601 0 0 1-.369-.102l.341-1.182c.325.083.613.114.863.091a1.04 1.04 0 0 0 .665-.335c.197-.197.377-.517.54-.961l.25-.681-3.228-8.773h1.455l2.409 6.954h.091l2.409-6.954h1.455l-3.705 10a3.784 3.784 0 0 1-.619 1.119 2.321 2.321 0 0 1-.858.665 2.646 2.646 0 0 1-1.091.216Zm14.52-3.273-2.659-8.727h1.409l1.886 6.682h.091l1.864-6.682h1.432l1.84 6.659h.091l1.887-6.659h1.409L156.077 175h-1.318l-1.91-6.704h-.136L150.804 175h-1.318Zm12.363-5.25V175h-1.34v-11.636h1.34v4.272h.114c.205-.45.511-.808.921-1.073.412-.269.962-.404 1.647-.404.595 0 1.116.12 1.563.358.447.235.793.597 1.04 1.085.25.485.375 1.103.375 1.853V175h-1.341v-5.454c0-.694-.18-1.23-.54-1.608-.356-.383-.851-.574-1.483-.574-.44 0-.833.093-1.182.278a2.038 2.038 0 0 0-.818.813c-.197.356-.296.788-.296 1.295Zm11.772 5.432c-.841 0-1.567-.186-2.176-.557a3.744 3.744 0 0 1-1.404-1.568c-.326-.674-.488-1.458-.488-2.352 0-.894.162-1.682.488-2.364.33-.686.788-1.22 1.375-1.602.591-.387 1.28-.58 2.068-.58.455 0 .904.076 1.347.227.443.152.847.398 1.21.739.364.337.654.784.87 1.341.215.557.323 1.242.323 2.057v.568h-6.727v-1.159h5.364a2.86 2.86 0 0 0-.296-1.318 2.217 2.217 0 0 0-.829-.915c-.356-.223-.777-.335-1.262-.335-.534 0-.996.132-1.386.397a2.625 2.625 0 0 0-.892 1.023 3.01 3.01 0 0 0-.313 1.352v.773c0 .659.114 1.218.341 1.676.231.455.552.801.961 1.04.409.235.884.352 1.426.352.352 0 .67-.049.954-.147.288-.103.536-.254.745-.455.208-.204.369-.458.483-.761l1.295.363c-.136.44-.366.826-.687 1.159-.322.33-.72.588-1.194.773a4.416 4.416 0 0 1-1.596.273Zm6.994-5.432V175h-1.341v-8.727h1.296v1.363h.113c.205-.443.515-.799.932-1.068.417-.272.955-.409 1.614-.409.591 0 1.108.121 1.551.364.443.238.788.602 1.034 1.091.246.485.369 1.098.369 1.841V175h-1.341v-5.454c0-.686-.178-1.22-.534-1.603-.356-.386-.844-.579-1.466-.579-.428 0-.81.093-1.147.278a1.991 1.991 0 0 0-.79.813c-.193.356-.29.788-.29 1.295Zm12.7-6.386h1.682l3.955 9.659h.136l3.955-9.659h1.681V175h-1.318v-8.841h-.113L199.656 175h-1.272l-3.637-8.841h-.113V175h-1.319v-11.636Zm13.598 1.25v-1.25h8.728v1.25h-3.659V175h-1.41v-10.386h-3.659Zm11.38-1.25 3.454 9.795h.137l3.454-9.795h1.477L222.543 175h-1.455l-4.273-11.636h1.478Zm17.221 11.841a3.531 3.531 0 0 1-1.505-.313 2.58 2.58 0 0 1-1.074-.915c-.265-.401-.398-.886-.398-1.454 0-.5.098-.905.295-1.216.197-.314.461-.561.79-.739a4.15 4.15 0 0 1 1.091-.397c.402-.091.805-.163 1.21-.216.531-.069.961-.12 1.29-.154.333-.038.576-.1.727-.187.156-.087.233-.239.233-.455v-.045c0-.561-.153-.996-.46-1.307-.303-.311-.763-.466-1.381-.466-.64 0-1.142.14-1.505.42-.364.281-.62.58-.767.898l-1.273-.454c.227-.531.53-.944.909-1.239a3.406 3.406 0 0 1 1.25-.625 5.205 5.205 0 0 1 1.341-.182c.28 0 .602.034.966.102.367.065.721.199 1.062.404.345.204.631.513.858.926.228.413.341.966.341 1.659V175h-1.341v-1.182h-.068c-.091.19-.242.392-.454.608-.213.216-.495.4-.847.551-.352.152-.782.228-1.29.228Zm.205-1.205c.53 0 .977-.104 1.341-.312a2.133 2.133 0 0 0 1.113-1.847v-1.227c-.057.068-.182.13-.375.187a6.143 6.143 0 0 1-.659.142c-.246.038-.487.072-.721.103-.231.026-.419.049-.563.068a5.114 5.114 0 0 0-.977.221 1.684 1.684 0 0 0-.727.449c-.182.197-.273.466-.273.807 0 .466.172.818.517 1.057.348.235.79.352 1.324.352Zm7.243-7.727 2.091 3.568 2.09-3.568h1.546l-2.818 4.363 2.818 4.364h-1.546l-2.09-3.386-2.091 3.386h-1.546l2.773-4.364-2.773-4.363h1.546Zm18.095 12v-4.614h-.114c-.098.159-.238.36-.42.602-.182.239-.442.453-.779.643-.337.185-.786.278-1.346.278-.728 0-1.37-.184-1.926-.551-.557-.371-.993-.894-1.307-1.568-.315-.678-.472-1.48-.472-2.404 0-.916.157-1.712.472-2.386.314-.674.752-1.195 1.312-1.563.561-.367 1.209-.551 1.943-.551.569 0 1.018.095 1.347.284.333.186.587.398.761.637.178.235.317.428.415.579h.159v-1.386h1.296v12h-1.341Zm-2.477-4.296c.537 0 .992-.14 1.363-.42.371-.284.654-.676.847-1.176.193-.504.29-1.085.29-1.745 0-.651-.095-1.221-.285-1.71-.189-.492-.469-.875-.84-1.147-.372-.277-.83-.415-1.375-.415-.569 0-1.042.146-1.421.437-.375.288-.657.68-.847 1.176a4.694 4.694 0 0 0-.278 1.659c0 .622.095 1.186.284 1.694.193.503.477.905.852 1.204.379.296.849.443 1.41.443Zm11.772-2.545v-5.159h1.341V175h-1.341v-1.477h-.091a2.86 2.86 0 0 1-.954 1.131c-.432.306-.977.46-1.637.46a2.92 2.92 0 0 1-1.454-.358c-.424-.243-.758-.606-1-1.091-.243-.489-.364-1.104-.364-1.847v-5.545h1.341v5.454c0 .637.178 1.144.534 1.523.36.379.818.568 1.375.568.334 0 .673-.085 1.017-.255a2.22 2.22 0 0 0 .875-.784c.239-.353.358-.802.358-1.347Zm3.797 3.568v-8.727h1.341V175h-1.341Zm.682-10.182a.953.953 0 0 1-.676-.267.857.857 0 0 1-.279-.642c0-.25.093-.464.279-.642a.953.953 0 0 1 .676-.267c.261 0 .485.089.67.267.19.178.285.392.285.642s-.095.464-.285.642a.932.932 0 0 1-.67.267ZM277.696 175v-1.023l4.955-6.363v-.091h-4.796v-1.25h6.523v1.068l-4.818 6.318v.091h4.977V175h-6.841Zm13.406 3.273v-12h1.296v1.386h.159c.098-.151.235-.344.409-.579.178-.239.432-.451.761-.637.334-.189.784-.284 1.353-.284.734 0 1.382.184 1.943.551.56.368.998.889 1.312 1.563.315.674.472 1.47.472 2.386 0 .924-.157 1.726-.472 2.404-.314.674-.75 1.197-1.307 1.568-.556.367-1.198.551-1.926.551-.56 0-1.009-.093-1.346-.278-.337-.19-.597-.404-.779-.643a8.279 8.279 0 0 1-.42-.602h-.114v4.614h-1.341Zm1.318-7.637c0 .66.097 1.241.29 1.745.193.5.476.892.847 1.176.371.28.826.42 1.363.42.561 0 1.029-.147 1.404-.443.379-.299.663-.701.852-1.204.193-.508.29-1.072.29-1.694 0-.613-.095-1.166-.284-1.659-.186-.496-.468-.888-.847-1.176-.375-.291-.846-.437-1.415-.437-.545 0-1.003.138-1.375.415-.371.272-.651.655-.84 1.147-.19.489-.285 1.059-.285 1.71Zm8.432 4.364v-8.727h1.296v1.318h.091c.159-.432.447-.782.863-1.051a2.544 2.544 0 0 1 1.409-.404c.099 0 .222.002.37.006.147.004.259.01.335.017v1.364a3.462 3.462 0 0 0-.313-.051 3.014 3.014 0 0 0-.505-.04c-.425 0-.803.089-1.137.267a2.019 2.019 0 0 0-.784.727 1.963 1.963 0 0 0-.284 1.051V175h-1.341Zm9.233.182c-.788 0-1.479-.188-2.074-.563-.591-.375-1.053-.899-1.386-1.573-.33-.675-.494-1.463-.494-2.364 0-.909.164-1.703.494-2.381.333-.678.795-1.204 1.386-1.579.595-.375 1.286-.563 2.074-.563.788 0 1.478.188 2.068.563.595.375 1.057.901 1.387 1.579.333.678.5 1.472.5 2.381 0 .901-.167 1.689-.5 2.364a3.77 3.77 0 0 1-1.387 1.573c-.59.375-1.28.563-2.068.563Zm0-1.205c.599 0 1.091-.153 1.477-.46.387-.307.673-.71.858-1.21.186-.5.279-1.042.279-1.625s-.093-1.127-.279-1.631a2.732 2.732 0 0 0-.858-1.221c-.386-.311-.878-.466-1.477-.466-.598 0-1.091.155-1.477.466-.386.31-.672.717-.858 1.221a4.675 4.675 0 0 0-.278 1.631c0 .583.092 1.125.278 1.625.186.5.472.903.858 1.21.386.307.879.46 1.477.46Zm9.524 4.478c-.647 0-1.204-.084-1.67-.25a3.55 3.55 0 0 1-1.165-.648 3.54 3.54 0 0 1-.733-.852l1.068-.75c.122.159.275.341.461.545.185.208.439.388.761.54.326.155.752.233 1.278.233.705 0 1.286-.171 1.745-.512.458-.34.687-.875.687-1.602v-1.773h-.113a7.03 7.03 0 0 1-.421.591c-.178.231-.436.438-.773.62-.333.178-.784.267-1.352.267a3.648 3.648 0 0 1-1.898-.5c-.556-.334-.998-.818-1.323-1.455-.322-.636-.483-1.409-.483-2.318 0-.894.157-1.672.471-2.335.315-.667.752-1.182 1.313-1.546.56-.367 1.208-.551 1.943-.551.568 0 1.019.095 1.352.284.337.186.595.398.773.637a9 9 0 0 1 .42.579h.137v-1.386h1.295v8.977c0 .75-.17 1.36-.511 1.83a2.91 2.91 0 0 1-1.364 1.039 5.135 5.135 0 0 1-1.898.336Zm-.045-4.796c.538 0 .992-.123 1.364-.369.371-.246.653-.6.846-1.063.193-.462.29-1.015.29-1.659 0-.628-.095-1.183-.284-1.664-.19-.482-.47-.858-.841-1.131s-.83-.409-1.375-.409c-.568 0-1.042.144-1.421.432a2.62 2.62 0 0 0-.846 1.159 4.47 4.47 0 0 0-.279 1.613c0 .606.095 1.142.285 1.608.193.462.477.826.852 1.091.379.262.848.392 1.409.392Zm7.25 1.432c-.28 0-.521-.1-.722-.301a.987.987 0 0 1-.301-.722c0-.28.101-.521.301-.721a.985.985 0 0 1 .722-.301c.28 0 .521.1.722.301.2.2.301.441.301.721a.973.973 0 0 1-.142.512c-.091.155-.214.28-.37.375a.972.972 0 0 1-.511.136Zm12.565-11.727h1.409v8.318c0 .742-.136 1.373-.409 1.892a2.776 2.776 0 0 1-1.153 1.182c-.496.269-1.082.403-1.756.403-.636 0-1.202-.115-1.699-.346a2.807 2.807 0 0 1-1.17-1c-.284-.432-.426-.945-.426-1.54h1.386c0 .329.082.617.244.863.167.243.394.432.682.569.288.136.616.204.983.204.405 0 .75-.085 1.034-.255.284-.171.5-.421.648-.75.152-.334.227-.741.227-1.222v-8.318Zm9.551 8.068v-5.159h1.341V175h-1.341v-1.477h-.091a2.86 2.86 0 0 1-.954 1.131c-.432.306-.977.46-1.636.46-.546 0-1.031-.12-1.455-.358-.424-.243-.758-.606-1-1.091-.242-.489-.364-1.104-.364-1.847v-5.545h1.341v5.454c0 .637.178 1.144.534 1.523.36.379.819.568 1.375.568.334 0 .673-.085 1.017-.255.349-.171.641-.432.875-.784.239-.353.358-.802.358-1.347Zm5.138-1.682V175h-1.341v-8.727h1.296v1.363h.113c.205-.443.516-.799.932-1.068.417-.272.955-.409 1.614-.409.591 0 1.108.121 1.551.364.443.238.788.602 1.034 1.091.246.485.369 1.098.369 1.841V175h-1.341v-5.454c0-.686-.178-1.22-.534-1.603-.356-.386-.844-.579-1.466-.579-.428 0-.81.093-1.147.278a1.991 1.991 0 0 0-.79.813c-.193.356-.29.788-.29 1.295Zm9.269 2.068-.023-1.659h.273l3.818-3.886h1.659l-4.068 4.113h-.114l-1.545 1.432Zm-1.25 3.182v-11.636h1.341V175h-1.341Zm5.545 0-3.409-4.318.955-.932 4.159 5.25h-1.705Zm7.84-11.636h1.681l3.955 9.659h.136l3.955-9.659h1.682V175h-1.319v-8.841h-.113L381.812 175h-1.272l-3.637-8.841h-.113V175h-1.318v-11.636Zm13.598 1.25v-1.25h8.727v1.25h-3.659V175h-1.409v-10.386h-3.659Zm11.379-1.25 3.454 9.795h.137l3.454-9.795h1.478L404.699 175h-1.455l-4.272-11.636h1.477Zm20.608 14.909v-4.614h-.114c-.098.159-.238.36-.42.602-.182.239-.442.453-.779.643-.337.185-.786.278-1.346.278-.728 0-1.37-.184-1.926-.551-.557-.371-.993-.894-1.307-1.568-.315-.678-.472-1.48-.472-2.404 0-.916.157-1.712.472-2.386.314-.674.752-1.195 1.312-1.563.561-.367 1.209-.551 1.943-.551.569 0 1.018.095 1.347.284.333.186.587.398.761.637.178.235.317.428.415.579h.159v-1.386h1.296v12h-1.341Zm-2.477-4.296c.537 0 .992-.14 1.363-.42.371-.284.654-.676.847-1.176.193-.504.29-1.085.29-1.745 0-.651-.095-1.221-.285-1.71-.189-.492-.469-.875-.84-1.147-.372-.277-.83-.415-1.375-.415-.569 0-1.042.146-1.421.437-.375.288-.657.68-.847 1.176a4.694 4.694 0 0 0-.278 1.659c0 .622.095 1.186.284 1.694.193.503.477.905.852 1.204.379.296.849.443 1.41.443Zm11.772-2.545v-5.159h1.341V175h-1.341v-1.477h-.091a2.86 2.86 0 0 1-.954 1.131c-.432.306-.977.46-1.637.46a2.92 2.92 0 0 1-1.454-.358c-.424-.243-.758-.606-1-1.091-.243-.489-.364-1.104-.364-1.847v-5.545h1.341v5.454c0 .637.178 1.144.534 1.523.36.379.818.568 1.375.568.334 0 .673-.085 1.017-.255a2.22 2.22 0 0 0 .875-.784c.239-.353.358-.802.358-1.347Zm3.797 3.568v-8.727h1.341V175h-1.341Zm.682-10.182a.953.953 0 0 1-.676-.267.857.857 0 0 1-.279-.642c0-.25.093-.464.279-.642a.953.953 0 0 1 .676-.267c.261 0 .485.089.67.267.19.178.285.392.285.642s-.095.464-.285.642a.932.932 0 0 1-.67.267ZM437.696 175v-1.023l4.955-6.363v-.091h-4.796v-1.25h6.523v1.068l-4.818 6.318v.091h4.977V175h-6.841ZM86.75 210.455c-.648 0-1.204-.084-1.67-.25a3.546 3.546 0 0 1-1.165-.648 3.54 3.54 0 0 1-.733-.852l1.068-.75c.121.159.275.341.46.545.186.208.44.388.762.54.325.155.752.233 1.278.233.704 0 1.286-.171 1.744-.512.459-.34.688-.875.688-1.602v-1.773h-.114c-.098.16-.239.357-.42.591-.178.231-.436.438-.773.62-.333.178-.784.267-1.352.267a3.645 3.645 0 0 1-1.898-.5c-.557-.334-.998-.818-1.324-1.455-.322-.636-.483-1.409-.483-2.318 0-.894.157-1.672.472-2.335.314-.667.752-1.182 1.312-1.546.56-.367 1.209-.551 1.944-.551.568 0 1.018.095 1.352.284.337.186.594.398.773.637.181.235.321.428.42.579h.136v-1.386h1.296v8.977c0 .75-.17 1.36-.512 1.83a2.91 2.91 0 0 1-1.363 1.039 5.139 5.139 0 0 1-1.898.336Zm-.046-4.796c.538 0 .993-.123 1.364-.369.371-.246.654-.6.847-1.063.193-.462.29-1.015.29-1.659 0-.628-.095-1.183-.284-1.664-.19-.482-.47-.858-.842-1.131-.37-.273-.829-.409-1.374-.409-.569 0-1.042.144-1.42.432a2.623 2.623 0 0 0-.847 1.159 4.478 4.478 0 0 0-.279 1.613c0 .606.095 1.142.284 1.608.193.462.478.826.853 1.091.378.262.848.392 1.408.392ZM92.977 207v-8.727h1.296v1.318h.09c.16-.432.448-.782.864-1.051a2.542 2.542 0 0 1 1.41-.404c.098 0 .221.002.369.006.147.004.26.01.335.017v1.364a3.406 3.406 0 0 0-.313-.051 3.022 3.022 0 0 0-.505-.04 2.38 2.38 0 0 0-1.137.267c-.33.174-.59.417-.784.727a1.96 1.96 0 0 0-.284 1.051V207h-1.34Zm8.522.205a3.54 3.54 0 0 1-1.506-.313 2.582 2.582 0 0 1-1.074-.915c-.265-.401-.398-.886-.398-1.454 0-.5.099-.905.296-1.216.197-.314.46-.561.79-.739.33-.178.693-.31 1.09-.397.402-.091.805-.163 1.211-.216.53-.069.96-.12 1.289-.154.334-.038.576-.1.728-.187.155-.087.233-.239.233-.455v-.045c0-.561-.154-.996-.461-1.307-.303-.311-.763-.466-1.38-.466-.64 0-1.142.14-1.506.42-.364.281-.619.58-.767.898l-1.273-.454c.228-.531.53-.944.91-1.239a3.401 3.401 0 0 1 1.249-.625 5.205 5.205 0 0 1 1.341-.182c.281 0 .603.034.966.102.368.065.722.199 1.063.404.344.204.63.513.858.926.227.413.341.966.341 1.659V207h-1.341v-1.182h-.069a2.33 2.33 0 0 1-.454.608c-.212.216-.494.4-.847.551-.352.152-.782.228-1.289.228Zm.204-1.205c.53 0 .977-.104 1.341-.312.367-.209.644-.478.83-.807.189-.33.284-.676.284-1.04v-1.227c-.057.068-.182.13-.375.187-.19.053-.409.101-.659.142-.247.038-.487.072-.722.103-.231.026-.419.049-.563.068a5.114 5.114 0 0 0-.977.221 1.69 1.69 0 0 0-.727.449c-.182.197-.273.466-.273.807 0 .466.173.818.517 1.057.349.235.79.352 1.324.352Zm9.788 1.182c-.818 0-1.522-.193-2.113-.58a3.772 3.772 0 0 1-1.364-1.596c-.318-.678-.477-1.453-.477-2.324 0-.886.163-1.669.489-2.347.329-.681.787-1.214 1.375-1.596.59-.387 1.28-.58 2.068-.58.613 0 1.166.114 1.659.341.492.227.896.546 1.21.955.314.409.51.886.585 1.431h-1.341c-.102-.397-.329-.75-.681-1.056-.349-.311-.819-.466-1.41-.466-.522 0-.981.136-1.375.409-.39.269-.695.649-.914 1.142-.216.489-.324 1.062-.324 1.721 0 .675.106 1.262.318 1.762.216.5.519.888.909 1.165.394.276.856.414 1.386.414.349 0 .665-.06.949-.181.284-.122.525-.296.722-.523.197-.227.337-.5.42-.818h1.341a3.1 3.1 0 0 1-.562 1.392 3.148 3.148 0 0 1-1.176.977c-.485.239-1.05.358-1.694.358Zm9.052 0c-.841 0-1.567-.186-2.177-.557a3.742 3.742 0 0 1-1.403-1.568c-.326-.674-.489-1.458-.489-2.352 0-.894.163-1.682.489-2.364.33-.686.788-1.22 1.375-1.602.591-.387 1.28-.58 2.068-.58.455 0 .904.076 1.347.227.443.152.846.398 1.21.739.364.337.653.784.869 1.341.216.557.324 1.242.324 2.057v.568h-6.727v-1.159h5.364a2.86 2.86 0 0 0-.296-1.318 2.223 2.223 0 0 0-.829-.915c-.356-.223-.777-.335-1.262-.335-.534 0-.996.132-1.386.397a2.625 2.625 0 0 0-.892 1.023 3.01 3.01 0 0 0-.313 1.352v.773c0 .659.114 1.218.341 1.676.231.455.551.801.96 1.04.41.235.885.352 1.427.352.352 0 .67-.049.954-.147.288-.103.536-.254.744-.455.209-.204.37-.458.483-.761l1.296.363c-.136.44-.366.826-.688 1.159-.322.33-.719.588-1.193.773a4.416 4.416 0 0 1-1.596.273Zm8.948 0c-.727 0-1.369-.184-1.926-.551-.556-.371-.992-.894-1.306-1.568-.315-.678-.472-1.48-.472-2.404 0-.916.157-1.712.472-2.386.314-.674.751-1.195 1.312-1.563.561-.367 1.208-.551 1.943-.551.568 0 1.017.095 1.347.284.333.186.587.398.761.637.178.235.316.428.415.579h.114v-4.295h1.34V207h-1.295v-1.341h-.159c-.099.159-.239.36-.421.602-.181.239-.441.453-.778.643-.337.185-.786.278-1.347.278Zm.182-1.205c.538 0 .993-.14 1.364-.42.371-.284.653-.676.847-1.176.193-.504.289-1.085.289-1.745 0-.651-.094-1.221-.284-1.71-.189-.492-.469-.875-.841-1.147-.371-.277-.829-.415-1.375-.415-.568 0-1.041.146-1.42.437-.375.288-.657.68-.847 1.176a4.694 4.694 0 0 0-.278 1.659c0 .622.095 1.186.284 1.694.193.503.477.905.852 1.204.379.296.849.443 1.409.443ZM140.815 207v-11.636h1.341v4.295h.114c.098-.151.235-.344.409-.579.178-.239.432-.451.761-.637.334-.189.784-.284 1.353-.284.734 0 1.382.184 1.943.551.56.368.998.889 1.312 1.563.315.674.472 1.47.472 2.386 0 .924-.157 1.726-.472 2.404-.314.674-.75 1.197-1.307 1.568-.556.367-1.198.551-1.926.551-.56 0-1.009-.093-1.346-.278-.337-.19-.597-.404-.779-.643a8.61 8.61 0 0 1-.42-.602h-.159V207h-1.296Zm1.319-4.364c0 .66.096 1.241.289 1.745.193.5.476.892.847 1.176.371.28.826.42 1.364.42.56 0 1.028-.147 1.403-.443.379-.299.663-.701.852-1.204.193-.508.29-1.072.29-1.694 0-.613-.095-1.166-.284-1.659-.186-.496-.468-.888-.847-1.176-.375-.291-.846-.437-1.414-.437-.546 0-1.004.138-1.375.415-.372.272-.652.655-.841 1.147-.19.489-.284 1.059-.284 1.71Zm8.988 7.637a2.93 2.93 0 0 1-.608-.057 1.601 1.601 0 0 1-.369-.102l.341-1.182c.326.083.613.114.863.091a1.04 1.04 0 0 0 .665-.335c.197-.197.377-.517.54-.961l.25-.681-3.227-8.773h1.454l2.409 6.954h.091l2.409-6.954h1.455l-3.705 10a3.761 3.761 0 0 1-.619 1.119 2.321 2.321 0 0 1-.858.665 2.646 2.646 0 0 1-1.091.216Zm16.429-12v1.136h-4.704v-1.136h4.704ZM164.256 207v-9.932c0-.5.117-.916.352-1.25a2.19 2.19 0 0 1 .915-.75c.375-.166.771-.25 1.187-.25.33 0 .599.027.807.08.208.053.364.102.466.148l-.386 1.159a7.584 7.584 0 0 0-.285-.086 1.718 1.718 0 0 0-.465-.051c-.444 0-.764.112-.961.336-.193.223-.289.551-.289.982V207h-1.341Zm8.36.182c-.787 0-1.479-.188-2.073-.563-.591-.375-1.053-.899-1.387-1.573-.329-.675-.494-1.463-.494-2.364 0-.909.165-1.703.494-2.381.334-.678.796-1.204 1.387-1.579.594-.375 1.286-.563 2.073-.563.788 0 1.478.188 2.069.563.594.375 1.056.901 1.386 1.579.333.678.5 1.472.5 2.381 0 .901-.167 1.689-.5 2.364a3.775 3.775 0 0 1-1.386 1.573c-.591.375-1.281.563-2.069.563Zm0-1.205c.599 0 1.091-.153 1.478-.46a2.72 2.72 0 0 0 .858-1.21c.185-.5.278-1.042.278-1.625s-.093-1.127-.278-1.631a2.748 2.748 0 0 0-.858-1.221c-.387-.311-.879-.466-1.478-.466-.598 0-1.09.155-1.477.466-.386.31-.672.717-.858 1.221a4.699 4.699 0 0 0-.278 1.631c0 .583.093 1.125.278 1.625.186.5.472.903.858 1.21.387.307.879.46 1.477.46Zm6.643-7.704 2.09 3.568 2.091-3.568h1.546l-2.818 4.363 2.818 4.364h-1.546l-2.091-3.386-2.09 3.386h-1.546l2.773-4.364-2.773-4.363h1.546ZM193.376 207l-2.659-8.727h1.409l1.887 6.682h.091l1.863-6.682h1.432l1.841 6.659h.091l1.886-6.659h1.409L199.967 207h-1.318l-1.909-6.704h-.136L194.695 207h-1.319Zm12.364-5.25V207h-1.341v-11.636h1.341v4.272h.114c.204-.45.511-.808.92-1.073.413-.269.962-.404 1.648-.404.595 0 1.115.12 1.562.358a2.41 2.41 0 0 1 1.04 1.085c.25.485.375 1.103.375 1.853V207h-1.341v-5.454c0-.694-.18-1.23-.54-1.608-.356-.383-.85-.574-1.482-.574-.44 0-.834.093-1.182.278a2.032 2.032 0 0 0-.818.813c-.197.356-.296.788-.296 1.295Zm11.771 5.432c-.841 0-1.566-.186-2.176-.557a3.736 3.736 0 0 1-1.403-1.568c-.326-.674-.489-1.458-.489-2.352 0-.894.163-1.682.489-2.364.329-.686.788-1.22 1.375-1.602.591-.387 1.28-.58 2.068-.58.455 0 .903.076 1.347.227.443.152.846.398 1.21.739.363.337.653.784.869 1.341.216.557.324 1.242.324 2.057v.568h-6.727v-1.159h5.363a2.86 2.86 0 0 0-.295-1.318 2.219 2.219 0 0 0-.83-.915c-.356-.223-.776-.335-1.261-.335-.534 0-.996.132-1.386.397a2.617 2.617 0 0 0-.892 1.023 2.997 2.997 0 0 0-.313 1.352v.773c0 .659.114 1.218.341 1.676.231.455.551.801.96 1.04.409.235.885.352 1.426.352.353 0 .671-.049.955-.147.288-.103.536-.254.744-.455.209-.204.37-.458.483-.761l1.296.363c-.137.44-.366.826-.688 1.159-.322.33-.72.588-1.193.773a4.425 4.425 0 0 1-1.597.273Zm6.995-11.818V207h-1.341v-11.636h1.341Zm2.456 14.909v-12h1.295v1.386h.159c.099-.151.235-.344.409-.579.178-.239.432-.451.762-.637.333-.189.784-.284 1.352-.284.735 0 1.382.184 1.943.551.561.368.998.889 1.313 1.563.314.674.471 1.47.471 2.386 0 .924-.157 1.726-.471 2.404-.315.674-.75 1.197-1.307 1.568-.557.367-1.199.551-1.926.551-.561 0-1.01-.093-1.347-.278-.337-.19-.597-.404-.778-.643a8.677 8.677 0 0 1-.421-.602h-.113v4.614h-1.341Zm1.318-7.637c0 .66.096 1.241.29 1.745.193.5.475.892.846 1.176.371.28.826.42 1.364.42.56 0 1.028-.147 1.403-.443.379-.299.663-.701.853-1.204a4.734 4.734 0 0 0 .289-1.694c0-.613-.094-1.166-.284-1.659-.185-.496-.468-.888-.846-1.176-.375-.291-.847-.437-1.415-.437-.546 0-1.004.138-1.375.415-.371.272-.652.655-.841 1.147-.189.489-.284 1.059-.284 1.71Zm14.613-2.409-1.204.341a2.269 2.269 0 0 0-.335-.585 1.63 1.63 0 0 0-.591-.477c-.25-.125-.57-.188-.96-.188-.535 0-.98.123-1.336.37-.352.242-.528.551-.528.926 0 .333.121.596.364.79.242.193.621.354 1.136.482l1.295.319c.781.189 1.362.479 1.745.869.382.386.574.884.574 1.494 0 .5-.144.947-.432 1.341-.284.394-.682.705-1.193.932-.512.227-1.107.341-1.785.341-.89 0-1.626-.193-2.21-.58-.583-.386-.952-.95-1.108-1.693l1.273-.318c.121.47.35.822.688 1.057.34.235.785.352 1.335.352.625 0 1.121-.132 1.488-.398.372-.269.557-.591.557-.966 0-.303-.106-.556-.318-.761-.212-.208-.538-.364-.977-.466l-1.455-.341c-.799-.189-1.386-.483-1.761-.88-.371-.402-.557-.904-.557-1.506 0-.492.138-.928.415-1.307a2.82 2.82 0 0 1 1.142-.892c.485-.216 1.034-.324 1.648-.324.863 0 1.541.19 2.034.568.496.379.848.879 1.056 1.5Zm3.155 6.864c-.28 0-.521-.1-.721-.301a.983.983 0 0 1-.301-.722c0-.28.1-.521.301-.721a.981.981 0 0 1 .721-.301c.281 0 .521.1.722.301.201.2.301.441.301.721a.964.964 0 0 1-.142.512c-.091.155-.214.28-.369.375a.975.975 0 0 1-.512.136Zm8.111-.091v-11.636h4.068c.811 0 1.479.14 2.006.42.526.277.919.65 1.176 1.12.258.465.386.982.386 1.551 0 .5-.089.913-.267 1.238a2.07 2.07 0 0 1-.693.773c-.284.189-.593.33-.926.42V201c.356.023.714.148 1.074.375.36.227.661.553.903.977.243.425.364.944.364 1.557 0 .584-.133 1.108-.398 1.574-.265.466-.683.835-1.255 1.108-.572.273-1.317.409-2.233.409h-4.205Zm1.409-1.25h2.796c.92 0 1.574-.178 1.96-.534.39-.36.585-.795.585-1.307 0-.394-.1-.757-.301-1.091a2.185 2.185 0 0 0-.858-.807c-.371-.204-.811-.306-1.318-.306h-2.864v4.045Zm0-5.273h2.614c.424 0 .807-.083 1.148-.25.344-.166.617-.401.818-.704.204-.303.307-.659.307-1.068 0-.512-.178-.945-.535-1.301-.356-.36-.92-.54-1.693-.54h-2.659v3.863Zm11.384 6.728a3.539 3.539 0 0 1-1.506-.313 2.58 2.58 0 0 1-1.074-.915c-.265-.401-.398-.886-.398-1.454 0-.5.099-.905.296-1.216.197-.314.46-.561.79-.739.329-.178.693-.31 1.091-.397a13.16 13.16 0 0 1 1.21-.216c.53-.069.96-.12 1.29-.154.333-.038.575-.1.727-.187.155-.087.233-.239.233-.455v-.045c0-.561-.154-.996-.46-1.307-.303-.311-.764-.466-1.381-.466-.64 0-1.142.14-1.506.42-.363.281-.619.58-.767.898l-1.273-.454c.228-.531.531-.944.91-1.239a3.398 3.398 0 0 1 1.25-.625 5.192 5.192 0 0 1 1.34-.182c.281 0 .603.034.966.102.368.065.722.199 1.063.404.345.204.631.513.858.926.227.413.341.966.341 1.659V207h-1.341v-1.182h-.068a2.36 2.36 0 0 1-.455.608c-.212.216-.494.4-.847.551-.352.152-.782.228-1.289.228Zm.204-1.205c.531 0 .978-.104 1.341-.312.368-.209.644-.478.83-.807.189-.33.284-.676.284-1.04v-1.227c-.057.068-.182.13-.375.187-.19.053-.409.101-.659.142-.247.038-.487.072-.722.103-.231.026-.418.049-.562.068a5.107 5.107 0 0 0-.978.221 1.69 1.69 0 0 0-.727.449c-.182.197-.273.466-.273.807 0 .466.173.818.517 1.057.349.235.79.352 1.324.352Zm8.22 1-2.659-8.727h1.409l1.887 6.682h.091l1.863-6.682h1.432l1.841 6.659h.091l1.886-6.659h1.409L281.967 207h-1.318l-1.909-6.704h-.136L276.695 207h-1.319Zm14.022.182c-.728 0-1.37-.184-1.926-.551-.557-.371-.993-.894-1.307-1.568-.315-.678-.472-1.48-.472-2.404 0-.916.157-1.712.472-2.386.314-.674.752-1.195 1.312-1.563.561-.367 1.209-.551 1.943-.551.569 0 1.018.095 1.347.284.333.186.587.398.761.637.178.235.317.428.415.579h.114v-4.295h1.341V207h-1.296v-1.341h-.159c-.098.159-.238.36-.42.602-.182.239-.442.453-.779.643-.337.185-.786.278-1.346.278Zm.182-1.205c.537 0 .992-.14 1.363-.42.371-.284.654-.676.847-1.176.193-.504.29-1.085.29-1.745 0-.651-.095-1.221-.285-1.71-.189-.492-.469-.875-.84-1.147-.372-.277-.83-.415-1.375-.415-.569 0-1.042.146-1.421.437-.375.288-.657.68-.847 1.176a4.694 4.694 0 0 0-.278 1.659c0 .622.095 1.186.284 1.694.193.503.477.905.852 1.204.379.296.849.443 1.41.443Zm12.642-5.75-1.205.341a2.24 2.24 0 0 0-.335-.585 1.63 1.63 0 0 0-.591-.477c-.25-.125-.57-.188-.96-.188-.534 0-.979.123-1.336.37-.352.242-.528.551-.528.926 0 .333.121.596.364.79.242.193.621.354 1.136.482l1.295.319c.781.189 1.362.479 1.745.869.382.386.574.884.574 1.494 0 .5-.144.947-.432 1.341-.284.394-.682.705-1.193.932-.512.227-1.106.341-1.784.341-.891 0-1.627-.193-2.211-.58-.583-.386-.952-.95-1.108-1.693l1.273-.318c.121.47.351.822.688 1.057.341.235.786.352 1.335.352.625 0 1.121-.132 1.489-.398.371-.269.556-.591.556-.966 0-.303-.106-.556-.318-.761-.212-.208-.538-.364-.977-.466l-1.455-.341c-.799-.189-1.386-.483-1.761-.88-.371-.402-.557-.904-.557-1.506 0-.492.138-.928.415-1.307a2.82 2.82 0 0 1 1.142-.892c.485-.216 1.034-.324 1.648-.324.863 0 1.541.19 2.034.568a3.07 3.07 0 0 1 1.057 1.5Zm6.677-1.954h1.341v9.363c0 .538-.093 1.004-.278 1.398a2.008 2.008 0 0 1-.83.915c-.367.216-.831.324-1.392.324h-.273v-1.25h.25c.409 0 .709-.121.898-.364.189-.238.284-.579.284-1.023v-9.363Zm.659-1.455a.953.953 0 0 1-.676-.267.856.856 0 0 1-.278-.642c0-.25.092-.464.278-.642a.953.953 0 0 1 .676-.267c.262 0 .485.089.671.267a.851.851 0 0 1 .284.642c0 .25-.095.464-.284.642a.935.935 0 0 1-.671.267Zm6.683 10.364c-.787 0-1.479-.188-2.073-.563-.591-.375-1.053-.899-1.387-1.573-.329-.675-.494-1.463-.494-2.364 0-.909.165-1.703.494-2.381.334-.678.796-1.204 1.387-1.579.594-.375 1.286-.563 2.073-.563.788 0 1.478.188 2.069.563.594.375 1.056.901 1.386 1.579.333.678.5 1.472.5 2.381 0 .901-.167 1.689-.5 2.364a3.775 3.775 0 0 1-1.386 1.573c-.591.375-1.281.563-2.069.563Zm0-1.205c.599 0 1.091-.153 1.478-.46a2.72 2.72 0 0 0 .858-1.21c.185-.5.278-1.042.278-1.625s-.093-1.127-.278-1.631a2.748 2.748 0 0 0-.858-1.221c-.387-.311-.879-.466-1.478-.466-.598 0-1.09.155-1.477.466-.386.31-.672.717-.858 1.221a4.699 4.699 0 0 0-.278 1.631c0 .583.093 1.125.278 1.625.186.5.472.903.858 1.21.387.307.879.46 1.477.46Zm9.525 4.478c-.648 0-1.205-.084-1.671-.25a3.55 3.55 0 0 1-1.165-.648 3.563 3.563 0 0 1-.733-.852l1.069-.75c.121.159.274.341.46.545.185.208.439.388.761.54.326.155.752.233 1.279.233.704 0 1.286-.171 1.744-.512.458-.34.687-.875.687-1.602v-1.773h-.113a7.03 7.03 0 0 1-.421.591c-.178.231-.435.438-.772.62-.334.178-.784.267-1.353.267-.704 0-1.337-.167-1.897-.5-.557-.334-.998-.818-1.324-1.455-.322-.636-.483-1.409-.483-2.318 0-.894.157-1.672.471-2.335.315-.667.752-1.182 1.313-1.546.561-.367 1.208-.551 1.943-.551.568 0 1.019.095 1.352.284.337.186.595.398.773.637.182.235.322.428.421.579h.136v-1.386h1.295v8.977c0 .75-.17 1.36-.511 1.83a2.91 2.91 0 0 1-1.364 1.039 5.13 5.13 0 0 1-1.897.336Zm-.046-4.796c.538 0 .993-.123 1.364-.369.371-.246.653-.6.846-1.063.194-.462.29-1.015.29-1.659 0-.628-.095-1.183-.284-1.664-.189-.482-.47-.858-.841-1.131s-.829-.409-1.375-.409c-.568 0-1.041.144-1.42.432a2.629 2.629 0 0 0-.847 1.159 4.49 4.49 0 0 0-.278 1.613c0 .606.094 1.142.284 1.608.193.462.477.826.852 1.091.379.262.849.392 1.409.392Zm8.273-.25-.091.614c-.064.432-.163.894-.295 1.386-.129.493-.264.957-.404 1.392-.14.436-.256.782-.346 1.04h-1.023l.193-.96c.08-.398.159-.843.239-1.335.083-.489.151-.989.204-1.5l.068-.637h1.455Zm10.871-7.136v1.136h-4.705v-1.136h4.705ZM341.568 207v-9.932c0-.5.118-.916.352-1.25a2.19 2.19 0 0 1 .915-.75c.375-.166.771-.25 1.188-.25.329 0 .598.027.807.08.208.053.363.102.465.148l-.386 1.159a7.432 7.432 0 0 0-.284-.086 1.726 1.726 0 0 0-.466-.051c-.443 0-.763.112-.96.336-.193.223-.29.551-.29.982V207h-1.341Zm6.516-11.636V207h-1.341v-11.636h1.341ZM350.54 207v-8.727h1.341V207h-1.341Zm.682-10.182a.955.955 0 0 1-.677-.267.86.86 0 0 1-.278-.642.86.86 0 0 1 .278-.642.955.955 0 0 1 .677-.267c.261 0 .484.089.67.267a.851.851 0 0 1 .284.642c0 .25-.095.464-.284.642a.934.934 0 0 1-.67.267Zm6.66 10.364c-.818 0-1.523-.193-2.114-.58a3.777 3.777 0 0 1-1.363-1.596c-.318-.678-.477-1.453-.477-2.324 0-.886.162-1.669.488-2.347.33-.681.788-1.214 1.375-1.596.591-.387 1.28-.58 2.068-.58.614 0 1.167.114 1.659.341a3.18 3.18 0 0 1 1.211.955c.314.409.509.886.585 1.431h-1.341c-.102-.397-.33-.75-.682-1.056-.348-.311-.818-.466-1.409-.466-.523 0-.981.136-1.375.409-.39.269-.695.649-.915 1.142-.216.489-.324 1.062-.324 1.721 0 .675.107 1.262.319 1.762.216.5.519.888.909 1.165.394.276.856.414 1.386.414.349 0 .665-.06.949-.181.284-.122.525-.296.722-.523.197-.227.337-.5.42-.818h1.341a3.102 3.102 0 0 1-1.739 2.369c-.485.239-1.049.358-1.693.358Zm6.642-3.364-.023-1.659h.273l3.818-3.886h1.659l-4.068 4.113h-.113l-1.546 1.432Zm-1.25 3.182v-11.636h1.341V207h-1.341Zm5.546 0-3.409-4.318.954-.932 4.159 5.25h-1.704Zm13.612 3.273v-4.614h-.114c-.098.159-.238.36-.42.602-.182.239-.442.453-.779.643-.337.185-.786.278-1.346.278-.728 0-1.37-.184-1.926-.551-.557-.371-.993-.894-1.307-1.568-.315-.678-.472-1.48-.472-2.404 0-.916.157-1.712.472-2.386.314-.674.752-1.195 1.312-1.563.561-.367 1.209-.551 1.943-.551.569 0 1.018.095 1.347.284.333.186.587.398.761.637.178.235.317.428.415.579h.159v-1.386h1.296v12h-1.341Zm-2.477-4.296c.537 0 .992-.14 1.363-.42.371-.284.654-.676.847-1.176.193-.504.29-1.085.29-1.745 0-.651-.095-1.221-.285-1.71-.189-.492-.469-.875-.84-1.147-.372-.277-.83-.415-1.375-.415-.569 0-1.042.146-1.421.437-.375.288-.657.68-.846 1.176a4.67 4.67 0 0 0-.279 1.659c0 .622.095 1.186.284 1.694.193.503.477.905.852 1.204.379.296.849.443 1.41.443Zm11.772-2.545v-5.159h1.341V207h-1.341v-1.477h-.091a2.86 2.86 0 0 1-.954 1.131c-.432.306-.977.46-1.637.46a2.92 2.92 0 0 1-1.454-.358c-.424-.243-.758-.606-1-1.091-.243-.489-.364-1.104-.364-1.847v-5.545h1.341v5.454c0 .637.178 1.144.534 1.523.36.379.818.568 1.375.568.334 0 .673-.085 1.017-.255a2.22 2.22 0 0 0 .875-.784c.239-.353.358-.802.358-1.347Zm6.365 3.773a3.531 3.531 0 0 1-1.505-.313 2.58 2.58 0 0 1-1.074-.915c-.265-.401-.398-.886-.398-1.454 0-.5.099-.905.296-1.216.196-.314.46-.561.789-.739a4.15 4.15 0 0 1 1.091-.397c.402-.091.805-.163 1.21-.216.531-.069.961-.12 1.29-.154.334-.038.576-.1.727-.187.156-.087.233-.239.233-.455v-.045c0-.561-.153-.996-.46-1.307-.303-.311-.763-.466-1.38-.466-.641 0-1.143.14-1.506.42-.364.281-.619.58-.767.898l-1.273-.454c.227-.531.53-.944.909-1.239a3.406 3.406 0 0 1 1.25-.625 5.205 5.205 0 0 1 1.341-.182c.28 0 .602.034.966.102a3.09 3.09 0 0 1 1.062.404c.345.204.631.513.858.926.228.413.341.966.341 1.659V207h-1.341v-1.182h-.068c-.091.19-.242.392-.454.608-.212.216-.495.4-.847.551-.352.152-.782.228-1.29.228Zm.205-1.205c.53 0 .977-.104 1.341-.312a2.133 2.133 0 0 0 1.113-1.847v-1.227c-.056.068-.181.13-.375.187a6.143 6.143 0 0 1-.659.142c-.246.038-.486.072-.721.103-.231.026-.419.049-.563.068a5.114 5.114 0 0 0-.977.221 1.684 1.684 0 0 0-.727.449c-.182.197-.273.466-.273.807 0 .466.172.818.517 1.057.348.235.79.352 1.324.352Zm6.243 1v-8.727h1.295v1.318h.091c.159-.432.447-.782.864-1.051a2.54 2.54 0 0 1 1.409-.404c.098 0 .221.002.369.006s.26.01.335.017v1.364a3.351 3.351 0 0 0-.312-.051 3.026 3.026 0 0 0-.506-.04c-.424 0-.803.089-1.136.267a1.954 1.954 0 0 0-1.068 1.778V207h-1.341Zm10.295-8.727v1.136h-4.523v-1.136h4.523Zm-3.204-2.091h1.341v8.318c0 .379.055.663.164.852a.853.853 0 0 0 .432.375c.178.061.366.091.563.091a2.4 2.4 0 0 0 .363-.022l.228-.046.272 1.205a2.72 2.72 0 0 1-.38.102c-.163.038-.37.057-.62.057-.378 0-.75-.082-1.113-.245a2.21 2.21 0 0 1-.898-.744c-.235-.333-.352-.754-.352-1.261v-8.682ZM416.602 207v-1.023l4.955-6.363v-.091h-4.796v-1.25h6.523v1.068l-4.818 6.318v.091h4.977V207h-6.841Zm10.907-1.591-.091.614c-.065.432-.163.894-.296 1.386-.129.493-.263.957-.403 1.392-.14.436-.256.782-.347 1.04h-1.023c.05-.242.114-.562.194-.96.079-.398.159-.843.238-1.335.084-.489.152-.989.205-1.5l.068-.637h1.455Zm14.12-7.136L438.402 207h-1.364l-3.227-8.727h1.455l2.409 6.954h.091l2.409-6.954h1.454Zm5.117 8.909c-.841 0-1.567-.186-2.176-.557a3.744 3.744 0 0 1-1.404-1.568c-.326-.674-.488-1.458-.488-2.352 0-.894.162-1.682.488-2.364.33-.686.788-1.22 1.375-1.602.591-.387 1.28-.58 2.068-.58.455 0 .904.076 1.347.227.443.152.847.398 1.21.739.364.337.654.784.87 1.341.215.557.323 1.242.323 2.057v.568h-6.727v-1.159h5.364a2.86 2.86 0 0 0-.296-1.318 2.217 2.217 0 0 0-.829-.915c-.356-.223-.777-.335-1.262-.335-.534 0-.996.132-1.386.397a2.625 2.625 0 0 0-.892 1.023 3.01 3.01 0 0 0-.313 1.352v.773c0 .659.114 1.218.341 1.676.231.455.552.801.961 1.04.409.235.884.352 1.426.352.352 0 .67-.049.954-.147.288-.103.536-.254.745-.455.208-.204.369-.458.483-.761l1.295.363c-.136.44-.366.826-.687 1.159-.322.33-.72.588-1.194.773a4.416 4.416 0 0 1-1.596.273Zm6.419-8.909 2.091 3.568 2.091-3.568h1.545l-2.818 4.363 2.818 4.364h-1.545l-2.091-3.386-2.091 3.386h-1.546l2.773-4.364-2.773-4.363h1.546ZM84.568 233.75V239h-1.34v-8.727h1.295v1.363h.113c.205-.443.516-.799.932-1.068.417-.272.955-.409 1.614-.409.59 0 1.108.121 1.551.364.443.238.788.602 1.034 1.091.246.485.37 1.098.37 1.841V239h-1.341v-5.454c0-.686-.179-1.22-.535-1.603-.356-.386-.844-.579-1.465-.579-.429 0-.811.093-1.148.278a1.996 1.996 0 0 0-.79.813c-.193.356-.29.788-.29 1.295Zm8.57 8.523c-.228 0-.43-.019-.608-.057a1.608 1.608 0 0 1-.37-.102l.341-1.182c.326.083.614.114.864.091a1.04 1.04 0 0 0 .665-.335c.197-.197.377-.517.54-.961l.25-.681-3.228-8.773h1.455l2.409 6.954h.09l2.41-6.954h1.454l-3.704 10a3.77 3.77 0 0 1-.62 1.119 2.324 2.324 0 0 1-.857.665 2.645 2.645 0 0 1-1.091.216ZM101.18 239v-8.727h1.296v1.363h.113c.182-.465.476-.827.881-1.085.405-.261.892-.392 1.46-.392.576 0 1.055.131 1.438.392.386.258.687.62.903 1.085h.091c.224-.45.559-.808 1.006-1.073.447-.269.983-.404 1.608-.404.78 0 1.418.245 1.915.733.496.485.744 1.241.744 2.267V239h-1.341v-5.841c0-.644-.176-1.104-.528-1.38a1.955 1.955 0 0 0-1.245-.415c-.613 0-1.089.185-1.426.557-.337.367-.506.833-.506 1.397V239h-1.363v-5.977c0-.496-.161-.896-.483-1.199-.322-.307-.737-.46-1.244-.46-.349 0-.675.093-.978.278a2.107 2.107 0 0 0-.727.773 2.281 2.281 0 0 0-.273 1.131V239h-1.341Zm13.907 3.273v-12h1.295v1.386h.159c.099-.151.235-.344.409-.579.178-.239.432-.451.762-.637.333-.189.784-.284 1.352-.284.735 0 1.382.184 1.943.551.561.368.998.889 1.313 1.563.314.674.471 1.47.471 2.386 0 .924-.157 1.726-.471 2.404-.315.674-.75 1.197-1.307 1.568-.557.367-1.199.551-1.926.551-.561 0-1.01-.093-1.347-.278-.337-.19-.597-.404-.778-.643a8.677 8.677 0 0 1-.421-.602h-.113v4.614h-1.341Zm1.318-7.637c0 .66.096 1.241.29 1.745.193.5.475.892.846 1.176.371.28.826.42 1.364.42.56 0 1.028-.147 1.403-.443.379-.299.663-.701.853-1.204a4.734 4.734 0 0 0 .289-1.694c0-.613-.094-1.166-.284-1.659-.185-.496-.468-.888-.846-1.176-.375-.291-.847-.437-1.415-.437-.546 0-1.004.138-1.375.415-.371.272-.652.655-.841 1.147-.189.489-.284 1.059-.284 1.71Zm9.773-.886V239h-1.341v-11.636h1.341v4.272h.113c.205-.45.512-.808.921-1.073.413-.269.962-.404 1.647-.404.595 0 1.116.12 1.563.358.447.235.793.597 1.04 1.085.25.485.375 1.103.375 1.853V239h-1.341v-5.454c0-.694-.18-1.23-.54-1.608-.356-.383-.85-.574-1.483-.574-.439 0-.833.093-1.182.278a2.038 2.038 0 0 0-.818.813c-.197.356-.295.788-.295 1.295Zm14.294-1.523-1.205.341a2.24 2.24 0 0 0-.335-.585 1.63 1.63 0 0 0-.591-.477c-.25-.125-.57-.188-.96-.188-.534 0-.979.123-1.336.37-.352.242-.528.551-.528.926 0 .333.121.596.364.79.242.193.621.354 1.136.482l1.295.319c.781.189 1.362.479 1.745.869.382.386.574.884.574 1.494 0 .5-.144.947-.432 1.341-.284.394-.682.705-1.193.932-.512.227-1.106.341-1.784.341-.891 0-1.627-.193-2.211-.58-.583-.386-.952-.95-1.108-1.693l1.273-.318c.121.47.351.822.688 1.057.341.235.786.352 1.335.352.625 0 1.121-.132 1.489-.398.371-.269.556-.591.556-.966 0-.303-.106-.556-.318-.761-.212-.208-.538-.364-.977-.466l-1.455-.341c-.799-.189-1.386-.483-1.761-.88-.371-.402-.557-.904-.557-1.506 0-.492.138-.928.415-1.307a2.82 2.82 0 0 1 1.142-.892c.485-.216 1.034-.324 1.648-.324.863 0 1.541.19 2.034.568a3.07 3.07 0 0 1 1.057 1.5Zm3.154 6.864c-.28 0-.52-.1-.721-.301a.983.983 0 0 1-.301-.722c0-.28.1-.521.301-.721a.983.983 0 0 1 .721-.301c.281 0 .521.1.722.301.201.2.301.441.301.721a.964.964 0 0 1-.142.512c-.091.155-.214.28-.369.375a.975.975 0 0 1-.512.136Z" fill="#344054"/></g><path d="M62 2h422V0H62v2Zm425 3v264h2V5h-2Zm-3 267H62v2h422v-2Zm-425-3V5h-2v264h2Zm3 3a3 3 0 0 1-3-3h-2a5 5 0 0 0 5 5v-2Zm425-3a3 3 0 0 1-3 3v2a5 5 0 0 0 5-5h-2ZM484 2a3 3 0 0 1 3 3h2a5 5 0 0 0-5-5v2ZM62 0a5 5 0 0 0-5 5h2a3 3 0 0 1 3-3V0Z" fill="#98A2B3"/><path fill="#E8178A" fill-opacity=".24" d="M58 1h430v24H58zm0 104h430v16H58zm0 144h430v24H58z"/><path fill="#E8178A" fill-opacity=".24" d="M464 1h24v272h-24zM58 1h24v272H58z"/><path d="M58 289.5h24" stroke="#E8178A"/><rect x="51.5" y="294" width="37" height="18" rx="3" fill="#E8178A"/><path d="M58.09 307v-1.108l2.588-2.397c.22-.213.405-.405.554-.575a2.19 2.19 0 0 0 .345-.501c.078-.166.117-.344.117-.536 0-.213-.049-.397-.146-.551a.957.957 0 0 0-.397-.358 1.237 1.237 0 0 0-.572-.128c-.223 0-.417.045-.583.135a.93.93 0 0 0-.383.387c-.09.168-.135.368-.135.6h-1.46c0-.476.108-.889.324-1.239.215-.351.517-.622.905-.814.388-.191.836-.287 1.343-.287.52 0 .974.092 1.36.277.388.182.69.435.905.76.216.324.323.696.323 1.115 0 .274-.054.546-.163.813-.107.268-.297.565-.572.891a13.16 13.16 0 0 1-1.161 1.169l-1.062 1.04v.05h3.054V307H58.09Zm6.032-1.278v-1.211l3.036-4.784h1.044v1.676h-.618l-1.914 3.03v.056h4.315v1.233h-5.863Zm3.49 1.278v-1.648l.03-.536v-5.089h1.44V307h-1.47Zm3.412 2.045v-7.5h1.491v.917h.068c.066-.147.162-.296.287-.448a1.51 1.51 0 0 1 .497-.383c.206-.104.462-.157.767-.157.398 0 .765.105 1.101.313.336.206.605.517.806.934.202.414.302.934.302 1.559 0 .608-.098 1.122-.294 1.541-.195.417-.46.733-.796.948-.334.213-.708.32-1.122.32-.294 0-.543-.049-.75-.146a1.546 1.546 0 0 1-.5-.366 1.841 1.841 0 0 1-.298-.451h-.047v2.919h-1.512Zm1.48-4.772c0 .324.045.607.135.848.09.242.22.43.391.565a.98.98 0 0 0 .621.199.98.98 0 0 0 .626-.202c.17-.138.299-.327.386-.569.09-.243.136-.524.136-.841a2.41 2.41 0 0 0-.132-.831 1.238 1.238 0 0 0-.387-.561.981.981 0 0 0-.629-.203.995.995 0 0 0-.624.196c-.169.13-.298.314-.388.554-.09.239-.135.52-.135.845Zm5.917-2.728 1.001 1.907 1.026-1.907H82l-1.58 2.728L82.043 307h-1.545l-1.076-1.886L78.364 307H76.8l1.62-2.727-1.563-2.728h1.563Z" fill="#fff"/><path stroke="#E8178A" d="M58.5 293v-7m23 7v-7m382.5 3.5h24"/><rect x="457.5" y="294" width="37" height="18" rx="3" fill="#E8178A"/><path d="M464.089 307v-1.108l2.589-2.397c.22-.213.405-.405.554-.575a2.19 2.19 0 0 0 .345-.501c.078-.166.117-.344.117-.536 0-.213-.049-.397-.146-.551a.955.955 0 0 0-.397-.358 1.24 1.24 0 0 0-.572-.128c-.223 0-.417.045-.583.135a.934.934 0 0 0-.383.387c-.09.168-.135.368-.135.6h-1.46c0-.476.108-.889.324-1.239.215-.351.517-.622.905-.814.388-.191.836-.287 1.342-.287.521 0 .975.092 1.361.277.388.182.69.435.905.76.216.324.323.696.323 1.115 0 .274-.054.546-.163.813-.107.268-.297.565-.572.891-.274.325-.662.714-1.161 1.169l-1.062 1.04v.05h3.054V307h-5.185Zm6.033-1.278v-1.211l3.036-4.784h1.044v1.676h-.618l-1.914 3.03v.056h4.315v1.233h-5.863Zm3.491 1.278v-1.648l.028-.536v-5.089h1.442V307h-1.47Zm3.411 2.045v-7.5h1.491v.917h.068c.066-.147.162-.296.287-.448a1.51 1.51 0 0 1 .497-.383c.206-.104.462-.157.767-.157.398 0 .765.105 1.101.313.336.206.605.517.806.934.202.414.302.934.302 1.559 0 .608-.098 1.122-.295 1.541-.194.417-.459.733-.795.948-.334.213-.708.32-1.122.32-.294 0-.543-.049-.749-.146a1.54 1.54 0 0 1-.501-.366 1.831 1.831 0 0 1-.298-.451h-.047v2.919h-1.512Zm1.48-4.772c0 .324.045.607.135.848.09.242.221.43.391.565.17.133.378.199.621.199a.978.978 0 0 0 .625-.202c.171-.138.3-.327.388-.569a2.44 2.44 0 0 0 .134-.841 2.4 2.4 0 0 0-.131-.831 1.245 1.245 0 0 0-.387-.561.98.98 0 0 0-.629-.203.996.996 0 0 0-.625.196 1.22 1.22 0 0 0-.387.554c-.09.239-.135.52-.135.845Zm5.917-2.728 1.001 1.907 1.026-1.907H488l-1.58 2.728 1.623 2.727h-1.545l-1.076-1.886-1.058 1.886h-1.563l1.62-2.727-1.563-2.728h1.563Z" fill="#fff"/><path stroke="#E8178A" d="M464.5 293v-7m23 7v-7M41.5 1v24"/><rect y="5.5" width="37" height="18" rx="3" fill="#E8178A"/><path d="M6.59 18.5v-1.108l2.588-2.397c.22-.213.405-.405.554-.575.152-.17.267-.338.345-.501.078-.166.117-.344.117-.536a1.01 1.01 0 0 0-.146-.55.956.956 0 0 0-.397-.36 1.247 1.247 0 0 0-.572-.127c-.223 0-.417.045-.583.135a.93.93 0 0 0-.383.387c-.09.168-.135.368-.135.6h-1.46c0-.476.108-.889.324-1.24.215-.35.517-.62.905-.813.388-.191.836-.287 1.342-.287.521 0 .975.092 1.36.277.389.182.69.435.906.76.215.324.323.696.323 1.115 0 .275-.054.546-.163.813-.107.268-.297.565-.572.891-.274.325-.662.714-1.161 1.169l-1.062 1.04v.05h3.054V18.5H6.59Zm6.032-1.278V16.01l3.036-4.784h1.044v1.676h-.618l-1.914 3.03v.056h4.315v1.233h-5.863Zm3.49 1.278v-1.648l.03-.536v-5.089h1.44V18.5h-1.47Zm3.412 2.046v-7.5h1.491v.916h.068c.066-.147.162-.296.287-.448.128-.154.294-.281.497-.383.206-.104.462-.157.767-.157.398 0 .765.105 1.101.313.336.206.605.517.806.934.202.414.302.934.302 1.559 0 .608-.098 1.122-.294 1.541-.195.417-.46.733-.796.948-.334.213-.708.32-1.122.32a1.75 1.75 0 0 1-.75-.146 1.55 1.55 0 0 1-.5-.366c-.13-.149-.23-.3-.298-.45h-.047v2.919h-1.512Zm1.48-4.773c0 .324.045.607.135.848.09.242.22.43.391.565.17.133.378.199.621.199a.975.975 0 0 0 .625-.203c.17-.137.3-.326.387-.568a2.42 2.42 0 0 0 .136-.841 2.41 2.41 0 0 0-.132-.831 1.237 1.237 0 0 0-.387-.561.98.98 0 0 0-.629-.203.999.999 0 0 0-.625.196 1.22 1.22 0 0 0-.387.554c-.09.239-.135.52-.135.845Zm5.917-2.727 1.001 1.906 1.026-1.906H30.5l-1.58 2.727 1.623 2.727h-1.545l-1.076-1.886-1.058 1.886H25.3l1.62-2.727-1.563-2.727h1.563Z" fill="#fff"/><path stroke="#E8178A" d="M38 1.5h7m-7 23h7M41.5 249v24"/><rect y="253.5" width="37" height="18" rx="3" fill="#E8178A"/><path d="M6.59 266.5v-1.108l2.588-2.397c.22-.213.405-.405.554-.575a2.19 2.19 0 0 0 .345-.501c.078-.166.117-.344.117-.536 0-.213-.049-.397-.146-.551a.957.957 0 0 0-.397-.358 1.237 1.237 0 0 0-.572-.128c-.223 0-.417.045-.583.135a.93.93 0 0 0-.383.387c-.09.168-.135.368-.135.6h-1.46c0-.476.108-.889.324-1.239.215-.351.517-.622.905-.814.388-.191.836-.287 1.342-.287.521 0 .975.092 1.36.277.389.182.69.435.906.76.215.324.323.696.323 1.115 0 .274-.054.546-.163.813-.107.268-.297.565-.572.891-.274.325-.662.714-1.161 1.169l-1.062 1.04v.05h3.054v1.257H6.59Zm6.032-1.278v-1.211l3.036-4.784h1.044v1.676h-.618l-1.914 3.03v.056h4.315v1.233h-5.863Zm3.49 1.278v-1.648l.03-.536v-5.089h1.44v7.273h-1.47Zm3.412 2.045v-7.5h1.491v.917h.068c.066-.147.162-.296.287-.448a1.51 1.51 0 0 1 .497-.383c.206-.104.462-.157.767-.157.398 0 .765.105 1.101.313.336.206.605.517.806.934.202.414.302.934.302 1.559 0 .608-.098 1.122-.294 1.541-.195.417-.46.733-.796.948-.334.213-.708.32-1.122.32a1.75 1.75 0 0 1-.75-.146 1.546 1.546 0 0 1-.5-.366 1.844 1.844 0 0 1-.298-.451h-.047v2.919h-1.512Zm1.48-4.772c0 .324.045.607.135.848.09.242.22.43.391.565a.98.98 0 0 0 .621.199.98.98 0 0 0 .625-.202c.17-.138.3-.327.387-.569.09-.243.136-.524.136-.841a2.41 2.41 0 0 0-.132-.831 1.238 1.238 0 0 0-.387-.561.981.981 0 0 0-.629-.203.995.995 0 0 0-.625.196 1.22 1.22 0 0 0-.387.554c-.09.239-.135.52-.135.845Zm5.917-2.728 1.001 1.907 1.026-1.907H30.5l-1.58 2.728 1.623 2.727h-1.545l-1.076-1.886-1.058 1.886H25.3l1.62-2.727-1.563-2.728h1.563Z" fill="#fff"/><path stroke="#E8178A" d="M38 249.5h7m-7 23h7M504.5 105v16"/><rect x="509" y="105.5" width="36" height="18" rx="3" fill="#E8178A"/><path d="M518.754 111.227v7.273h-1.538v-5.813h-.043l-1.665 1.044v-1.364l1.8-1.14h1.446Zm4.519 7.372a3.28 3.28 0 0 1-1.083-.188 2.463 2.463 0 0 1-.93-.6c-.275-.277-.493-.644-.654-1.101-.158-.457-.238-1.018-.238-1.683a6.088 6.088 0 0 1 .21-1.637c.14-.483.338-.893.597-1.229.26-.336.571-.592.933-.767a2.744 2.744 0 0 1 1.219-.266c.485 0 .913.095 1.285.284.372.187.67.441.895.763.227.322.365.683.412 1.084h-1.516a1.016 1.016 0 0 0-.373-.597 1.13 1.13 0 0 0-.703-.217c-.474 0-.834.206-1.08.618-.244.412-.368.972-.373 1.68h.05a1.7 1.7 0 0 1 .44-.551c.187-.153.399-.271.636-.351.239-.083.491-.124.756-.124a2.162 2.162 0 0 1 1.946 1.136c.194.353.291.756.291 1.211 0 .492-.114.93-.344 1.314a2.394 2.394 0 0 1-.955.902c-.407.215-.881.322-1.421.319Zm-.007-1.207c.237 0 .449-.057.636-.17.187-.114.334-.268.44-.462a1.33 1.33 0 0 0 .16-.653c0-.242-.053-.459-.16-.65a1.192 1.192 0 0 0-1.065-.629 1.208 1.208 0 0 0-.888.377 1.332 1.332 0 0 0-.199 1.548c.109.194.256.349.441.465.187.116.398.174.635.174Zm3.832 3.153v-7.5h1.491v.917h.068c.066-.147.162-.296.287-.448.128-.154.294-.282.498-.383.206-.104.461-.157.767-.157.397 0 .764.105 1.1.313.337.206.605.517.807.934.201.414.301.934.301 1.559 0 .608-.098 1.122-.294 1.541-.194.417-.46.733-.796.948-.334.213-.708.32-1.122.32-.293 0-.543-.049-.749-.146a1.54 1.54 0 0 1-.501-.366 1.831 1.831 0 0 1-.298-.451h-.046v2.919h-1.513Zm1.481-4.772c0 .324.045.607.135.848.09.242.22.43.39.565a.982.982 0 0 0 .622.199.982.982 0 0 0 .625-.202c.17-.138.299-.327.387-.569.09-.243.135-.524.135-.841a2.4 2.4 0 0 0-.132-.831 1.23 1.23 0 0 0-.387-.561.98.98 0 0 0-.628-.203.992.992 0 0 0-.625.196 1.22 1.22 0 0 0-.387.554c-.09.239-.135.52-.135.845Zm5.916-2.728 1.001 1.907 1.027-1.907h1.551l-1.58 2.728 1.623 2.727h-1.545l-1.076-1.886-1.058 1.886h-1.562l1.619-2.727-1.563-2.728h1.563Z" fill="#fff"/><path stroke="#E8178A" d="M501 105.5h7m-7 15h7"/><defs><clipPath id="a"><path d="M58 5a4 4 0 0 1 4-4h422a4 4 0 0 1 4 4v264a4 4 0 0 1-4 4H62a4 4 0 0 1-4-4V5Z" fill="#fff"/></clipPath></defs></svg>