<svg width="546" height="201" viewBox="0 0 546 201" fill="none" xmlns="http://www.w3.org/2000/svg"><g clip-path="url(#a)"><path d="M58.575 5a4 4 0 0 1 4-4h422a4 4 0 0 1 4 4v152a4 4 0 0 1-4 4h-422a4 4 0 0 1-4-4V5Z" fill="#fff"/><path d="M83.713 48V34.91h5.242c.963 0 1.766.142 2.41.427.643.286 1.126.682 1.45 1.19.324.502.486 1.082.486 1.738 0 .511-.102.96-.307 1.349a2.648 2.648 0 0 1-.844.946 3.459 3.459 0 0 1-1.214.517v.128a2.94 2.94 0 0 1 1.4.422c.439.26.795.624 1.067 1.093.273.465.41 1.019.41 1.662 0 .695-.173 1.315-.518 1.86-.341.541-.846.97-1.515 1.285-.67.315-1.494.473-2.474.473h-5.593Zm2.768-2.263h2.256c.771 0 1.334-.147 1.688-.44.353-.3.53-.695.53-1.19 0-.362-.087-.682-.262-.959a1.78 1.78 0 0 0-.748-.652c-.32-.157-.7-.236-1.144-.236h-2.32v3.477Zm0-5.35h2.052c.379 0 .716-.066 1.01-.198a1.68 1.68 0 0 0 .703-.575 1.5 1.5 0 0 0 .262-.889c0-.473-.169-.854-.505-1.144-.333-.29-.806-.435-1.42-.435h-2.102v3.241Zm11.88 7.798c-.626 0-1.184-.108-1.674-.326a2.696 2.696 0 0 1-1.163-.978c-.281-.434-.422-.975-.422-1.623 0-.546.1-1.004.3-1.375.2-.37.473-.669.819-.894a3.968 3.968 0 0 1 1.176-.512 8.949 8.949 0 0 1 1.393-.243 35.45 35.45 0 0 0 1.381-.166c.349-.055.603-.136.761-.243a.535.535 0 0 0 .236-.473v-.038c0-.405-.128-.718-.383-.94-.252-.221-.61-.332-1.074-.332-.49 0-.88.109-1.17.326a1.5 1.5 0 0 0-.575.805l-2.519-.204c.128-.597.38-1.113.754-1.547a3.62 3.62 0 0 1 1.451-1.01c.597-.239 1.287-.358 2.072-.358a6.29 6.29 0 0 1 1.566.192c.502.128.948.326 1.335.594.392.269.701.614.927 1.036.226.417.339.918.339 1.502V48h-2.582v-1.361h-.077a2.781 2.781 0 0 1-.633.811c-.264.23-.582.411-.952.544-.371.127-.8.191-1.285.191Zm.78-1.879a2.3 2.3 0 0 0 1.062-.236 1.88 1.88 0 0 0 .722-.652 1.68 1.68 0 0 0 .262-.927v-1.042a1.453 1.453 0 0 1-.351.153 6.349 6.349 0 0 1-.493.122c-.183.034-.366.066-.55.096l-.498.07c-.32.047-.599.121-.837.224a1.34 1.34 0 0 0-.556.415c-.132.17-.198.384-.198.64 0 .37.134.653.402.85.273.191.618.287 1.036.287Zm15.032-5.325-2.493.154a1.289 1.289 0 0 0-.275-.575 1.46 1.46 0 0 0-.556-.416 1.89 1.89 0 0 0-.812-.16c-.422 0-.778.09-1.067.269-.29.175-.435.409-.435.703 0 .234.094.432.281.594.188.162.509.292.965.39l1.777.358c.955.196 1.667.512 2.135.946.469.435.703 1.006.703 1.713 0 .644-.189 1.209-.568 1.694-.375.486-.891.865-1.547 1.138-.652.268-1.404.403-2.257.403-1.299 0-2.335-.27-3.106-.812-.767-.546-1.217-1.287-1.349-2.224l2.678-.141c.081.396.277.699.588.908.311.204.71.306 1.196.306.477 0 .86-.091 1.15-.274.294-.188.443-.429.448-.723a.753.753 0 0 0-.314-.607c-.204-.162-.519-.285-.946-.37l-1.7-.34c-.959-.191-1.672-.524-2.141-.997-.465-.473-.697-1.076-.697-1.809 0-.63.171-1.174.511-1.63.346-.456.829-.807 1.451-1.054.627-.247 1.36-.371 2.199-.371 1.24 0 2.216.262 2.928.786.716.524 1.133 1.238 1.253 2.141ZM116.111 48v-9.818h2.723V48h-2.723Zm1.368-11.084a1.48 1.48 0 0 1-1.042-.402 1.307 1.307 0 0 1-.428-.979c0-.374.143-.696.428-.965.29-.272.637-.409 1.042-.409s.75.137 1.035.41c.29.268.435.59.435.965 0 .379-.145.705-.435.977-.285.269-.63.403-1.035.403Zm7.972 11.276c-1.005 0-1.87-.213-2.595-.64a4.324 4.324 0 0 1-1.662-1.79c-.383-.762-.575-1.64-.575-2.633 0-1.005.194-1.887.582-2.646a4.32 4.32 0 0 1 1.668-1.783c.72-.43 1.577-.646 2.57-.646.856 0 1.606.155 2.25.467a3.762 3.762 0 0 1 1.527 1.31c.375.563.582 1.223.62 1.981h-2.569c-.073-.49-.264-.884-.576-1.182-.306-.303-.709-.454-1.208-.454-.421 0-.79.115-1.105.345-.312.226-.554.556-.729.991-.175.435-.262.961-.262 1.579 0 .626.085 1.159.255 1.598.175.439.42.773.736 1.004.315.23.684.345 1.105.345.311 0 .591-.064.838-.192.251-.128.458-.313.62-.556a2.13 2.13 0 0 0 .326-.889h2.569c-.042.75-.247 1.41-.613 1.982a3.706 3.706 0 0 1-1.502 1.33c-.64.319-1.396.479-2.27.479Zm10.295 3.49v-13.5h2.684v1.649h.122c.119-.264.292-.533.518-.805.23-.277.528-.508.895-.69.37-.188.831-.282 1.38-.282.716 0 1.377.188 1.982.563.605.37 1.089.93 1.451 1.68.362.746.543 1.682.543 2.807 0 1.095-.177 2.02-.53 2.774-.35.75-.827 1.319-1.432 1.706a3.675 3.675 0 0 1-2.02.576c-.529 0-.978-.088-1.349-.262a2.788 2.788 0 0 1-.901-.659 3.337 3.337 0 0 1-.537-.811h-.083v5.254h-2.723Zm2.665-8.591c0 .584.081 1.093.243 1.528.162.434.397.773.703 1.016.307.239.68.358 1.119.358.443 0 .818-.122 1.125-.364.307-.248.539-.588.697-1.023.162-.44.243-.944.243-1.515 0-.567-.079-1.065-.237-1.496-.158-.43-.39-.767-.697-1.01-.306-.243-.684-.364-1.131-.364-.443 0-.818.117-1.125.351-.303.235-.535.567-.697.998-.162.43-.243.937-.243 1.52Zm11.448-8.182V48h-2.723V34.91h2.723Zm4.981 13.276c-.626 0-1.184-.108-1.674-.326a2.701 2.701 0 0 1-1.164-.978c-.281-.434-.421-.975-.421-1.623 0-.546.1-1.004.3-1.375.2-.37.473-.669.818-.894a3.965 3.965 0 0 1 1.176-.512 8.95 8.95 0 0 1 1.394-.243c.571-.06 1.031-.115 1.38-.166.35-.055.603-.136.761-.243a.534.534 0 0 0 .237-.473v-.038c0-.405-.128-.718-.384-.94-.251-.221-.609-.332-1.074-.332-.49 0-.88.109-1.17.326a1.505 1.505 0 0 0-.575.805l-2.518-.204a3.423 3.423 0 0 1 .754-1.547 3.623 3.623 0 0 1 1.451-1.01c.597-.239 1.287-.358 2.071-.358.545 0 1.067.064 1.566.192a4.11 4.11 0 0 1 1.336.594c.392.269.701.614.927 1.036.226.417.339.918.339 1.502V48h-2.583v-1.361h-.077a2.761 2.761 0 0 1-.632.811c-.265.23-.582.411-.953.544-.37.127-.799.191-1.285.191Zm.78-1.879c.401 0 .755-.079 1.061-.236.307-.162.548-.38.723-.652.174-.273.262-.582.262-.927v-1.042a1.462 1.462 0 0 1-.352.153 6.431 6.431 0 0 1-.492.122c-.183.034-.366.066-.55.096l-.498.07c-.32.047-.599.121-.838.224-.238.102-.424.24-.556.415-.132.17-.198.384-.198.64 0 .37.134.653.403.85.273.191.618.287 1.035.287Zm9.585-3.982V48h-2.723v-9.818h2.595v1.732h.115a2.744 2.744 0 0 1 1.093-1.355c.512-.337 1.132-.505 1.861-.505.681 0 1.276.15 1.783.447a3.04 3.04 0 0 1 1.182 1.279c.282.55.422 1.206.422 1.969V48h-2.723v-5.766c.005-.6-.149-1.07-.46-1.406-.311-.34-.739-.511-1.285-.511-.366 0-.69.079-.971.236a1.644 1.644 0 0 0-.652.69c-.154.299-.233.659-.237 1.08Z" fill="#344054"/><path fill-rule="evenodd" clip-rule="evenodd" d="M446.189 34.614a.752.752 0 0 1 1.061 0l5.303 5.303 5.303-5.303a.752.752 0 0 1 1.281.53c0 .2-.079.39-.22.53l-5.303 5.304 5.303 5.303a.749.749 0 1 1-1.061 1.06l-5.303-5.302-5.303 5.303a.752.752 0 0 1-1.281-.53c0-.2.08-.39.22-.53l5.303-5.304-5.303-5.303a.753.753 0 0 1 0-1.061Z" fill="#344054"/><path d="M91.62 83.364h1.41v7.704c0 .796-.188 1.506-.563 2.13a3.939 3.939 0 0 1-1.574 1.473c-.678.355-1.473.533-2.386.533s-1.708-.177-2.386-.533a3.98 3.98 0 0 1-1.58-1.472c-.371-.625-.557-1.335-.557-2.13v-7.705h1.41v7.59c0 .569.124 1.074.374 1.518.25.439.606.786 1.069 1.04.465.25 1.022.374 1.67.374.648 0 1.205-.125 1.67-.375a2.64 2.64 0 0 0 1.069-1.04c.25-.443.375-.948.375-1.517v-7.59Zm5.383 6.386V95h-1.341v-8.727h1.295v1.363h.114c.204-.443.515-.799.932-1.068.416-.272.954-.409 1.613-.409.591 0 1.108.121 1.552.364.443.238.787.602 1.034 1.09.246.486.369 1.1.369 1.841V95h-1.341v-5.454c0-.686-.178-1.22-.534-1.603-.356-.386-.845-.58-1.466-.58-.428 0-.81.093-1.148.279a1.993 1.993 0 0 0-.79.813c-.193.356-.29.787-.29 1.295ZM105.02 95v-8.727h1.341V95h-1.341Zm.682-10.182a.953.953 0 0 1-.676-.267.857.857 0 0 1-.279-.642c0-.25.093-.464.279-.642a.953.953 0 0 1 .676-.267c.261 0 .485.089.67.267.19.178.285.392.285.642s-.095.464-.285.642a.932.932 0 0 1-.67.267Zm6.911 1.455v1.136h-4.523v-1.136h4.523Zm-3.205-2.091h1.341V92.5c0 .379.055.663.165.852a.85.85 0 0 0 .432.375c.178.06.365.091.562.091.148 0 .269-.007.364-.022l.227-.046.273 1.204a2.733 2.733 0 0 1-.381.103 2.8 2.8 0 0 1-.619.057 2.7 2.7 0 0 1-1.114-.245 2.215 2.215 0 0 1-.898-.744c-.235-.333-.352-.754-.352-1.261v-8.682ZM119.312 95V83.364h3.932c.913 0 1.659.164 2.239.494.583.326 1.015.767 1.295 1.324.281.557.421 1.178.421 1.864 0 .685-.14 1.308-.421 1.869-.276.56-.704 1.007-1.284 1.34-.579.33-1.322.495-2.227.495h-2.818V89.5h2.773c.625 0 1.126-.108 1.505-.324.379-.216.654-.507.824-.875.174-.371.261-.79.261-1.255 0-.467-.087-.883-.261-1.25a1.864 1.864 0 0 0-.829-.864c-.383-.212-.891-.318-1.523-.318h-2.477V95h-1.41Zm9.975 0v-8.727h1.295v1.318h.091c.159-.432.447-.782.864-1.051a2.541 2.541 0 0 1 1.409-.404c.098 0 .222.002.369.006.148.004.26.01.335.017v1.364a3.926 3.926 0 0 0-.312-.051 3.08 3.08 0 0 0-.506-.04c-.424 0-.803.089-1.136.267a1.955 1.955 0 0 0-1.068 1.778V95h-1.341Zm5.953 0v-8.727h1.341V95h-1.341Zm.682-10.182a.951.951 0 0 1-.676-.267.857.857 0 0 1-.279-.642c0-.25.093-.464.279-.642a.951.951 0 0 1 .676-.267c.261 0 .485.089.67.267.19.178.284.392.284.642s-.094.464-.284.642a.932.932 0 0 1-.67.267Zm6.66 10.364c-.818 0-1.522-.193-2.113-.58a3.776 3.776 0 0 1-1.364-1.596c-.318-.678-.477-1.453-.477-2.324 0-.886.163-1.669.488-2.347.33-.682.788-1.214 1.375-1.596.591-.387 1.281-.58 2.069-.58.613 0 1.166.114 1.659.341a3.19 3.19 0 0 1 1.21.954c.314.41.509.887.585 1.432h-1.341c-.102-.397-.329-.75-.682-1.056-.348-.311-.818-.466-1.409-.466-.522 0-.981.136-1.375.409-.39.269-.695.65-.914 1.142-.216.488-.324 1.062-.324 1.721 0 .675.106 1.262.318 1.762.216.5.519.888.909 1.165.394.276.856.414 1.386.414.349 0 .665-.06.949-.181a1.96 1.96 0 0 0 .722-.523c.197-.227.337-.5.42-.819h1.341c-.076.516-.263.98-.562 1.393a3.153 3.153 0 0 1-1.177.977c-.484.239-1.049.358-1.693.358Zm9.051 0c-.84 0-1.566-.186-2.176-.557a3.733 3.733 0 0 1-1.403-1.568c-.326-.674-.489-1.459-.489-2.353 0-.893.163-1.681.489-2.363.329-.686.788-1.22 1.375-1.602.591-.387 1.28-.58 2.068-.58.455 0 .903.076 1.347.227a3.34 3.34 0 0 1 1.21.739c.364.337.653.784.869 1.34.216.558.324 1.243.324 2.058v.568h-6.727v-1.16h5.363c0-.492-.098-.931-.295-1.317a2.225 2.225 0 0 0-.83-.915c-.356-.224-.776-.335-1.261-.335-.534 0-.996.132-1.386.397a2.608 2.608 0 0 0-.892 1.023c-.209.42-.313.871-.313 1.352v.773c0 .66.114 1.218.341 1.676.231.455.551.801.96 1.04.409.235.885.352 1.426.352a2.9 2.9 0 0 0 .955-.148 2.03 2.03 0 0 0 .744-.454c.209-.204.37-.458.483-.761l1.296.363a2.88 2.88 0 0 1-.688 1.16 3.344 3.344 0 0 1-1.193.772 4.426 4.426 0 0 1-1.597.273Zm9.767-12.364-3.75 13.932h-1.227l3.75-13.932h1.227ZM167.49 95v-8.727h1.295v1.363h.114c.182-.465.475-.827.881-1.085.405-.261.892-.392 1.46-.392.576 0 1.055.13 1.437.392.387.258.688.62.904 1.085h.091c.223-.45.558-.808 1.005-1.073.447-.27.983-.404 1.608-.404.781 0 1.419.244 1.915.733.496.485.745 1.24.745 2.267V95h-1.341v-5.84c0-.645-.177-1.105-.529-1.382a1.955 1.955 0 0 0-1.244-.414c-.614 0-1.089.185-1.426.556-.337.368-.506.834-.506 1.398V95h-1.364v-5.977c0-.496-.161-.896-.483-1.2-.322-.306-.736-.46-1.244-.46-.348 0-.674.093-.977.279a2.1 2.1 0 0 0-.727.773 2.28 2.28 0 0 0-.273 1.13V95h-1.341Zm17.452.182c-.788 0-1.479-.188-2.074-.563-.591-.375-1.053-.9-1.387-1.573-.329-.675-.494-1.463-.494-2.364 0-.91.165-1.703.494-2.38.334-.679.796-1.205 1.387-1.58.595-.375 1.286-.563 2.074-.563.788 0 1.477.188 2.068.563.595.375 1.057.901 1.386 1.58.334.677.5 1.47.5 2.38 0 .901-.166 1.69-.5 2.364a3.763 3.763 0 0 1-1.386 1.573c-.591.375-1.28.563-2.068.563Zm0-1.205c.598 0 1.091-.153 1.477-.46a2.72 2.72 0 0 0 .858-1.21c.186-.5.278-1.042.278-1.625 0-.584-.092-1.127-.278-1.63a2.755 2.755 0 0 0-.858-1.223c-.386-.31-.879-.465-1.477-.465-.599 0-1.091.155-1.478.465a2.757 2.757 0 0 0-.858 1.222 4.695 4.695 0 0 0-.278 1.63c0 .584.093 1.126.278 1.626.186.5.472.903.858 1.21.387.307.879.46 1.478.46Zm7.342-4.227V95h-1.341v-8.727h1.296v1.363h.113c.205-.443.515-.799.932-1.068.417-.272.955-.409 1.614-.409.591 0 1.108.121 1.551.364a2.45 2.45 0 0 1 1.034 1.09c.246.486.369 1.1.369 1.841V95h-1.341v-5.454c0-.686-.178-1.22-.534-1.603-.356-.386-.845-.58-1.466-.58-.428 0-.81.093-1.147.279a1.988 1.988 0 0 0-.79.813c-.193.356-.29.787-.29 1.295Zm11.814-3.477v1.136h-4.523v-1.136h4.523Zm-3.205-2.091h1.341V92.5c0 .379.055.663.165.852.114.186.258.31.432.375.178.06.365.091.562.091.148 0 .269-.007.364-.022l.227-.046.273 1.204a2.733 2.733 0 0 1-.381.103 2.8 2.8 0 0 1-.619.057 2.7 2.7 0 0 1-1.114-.245 2.212 2.212 0 0 1-.897-.744c-.235-.333-.353-.754-.353-1.261v-8.682Zm6.75 5.568V95h-1.341V83.364h1.341v4.272h.114a2.47 2.47 0 0 1 .92-1.073c.413-.27.963-.404 1.648-.404.595 0 1.116.12 1.563.358.447.235.793.597 1.039 1.085.25.485.375 1.102.375 1.852V95h-1.34v-5.454c0-.694-.18-1.23-.54-1.609-.356-.382-.851-.573-1.483-.573-.44 0-.834.092-1.182.278a2.035 2.035 0 0 0-.818.813c-.197.356-.296.787-.296 1.295ZM87.427 128.455v-14.546h.932v14.546h-.931Zm2.472-9.745c-.045-.458-.24-.814-.585-1.068-.345-.254-.813-.381-1.404-.381-.401 0-.74.057-1.017.171-.276.11-.488.263-.636.46-.144.197-.216.42-.216.67a.957.957 0 0 0 .13.546c.1.155.234.29.404.403.17.11.368.207.591.29.224.08.462.148.716.205l1.045.25c.508.113.974.265 1.398.454.424.19.792.423 1.102.699.311.277.552.602.722.977.174.375.263.805.267 1.29-.004.712-.185 1.33-.545 1.852-.356.519-.872.923-1.546 1.211-.67.284-1.479.426-2.426.426-.94 0-1.758-.144-2.454-.432-.694-.288-1.235-.714-1.625-1.278-.387-.569-.59-1.271-.608-2.108h2.38c.027.39.139.715.335.977.201.257.468.453.802.585.337.129.717.193 1.142.193.416 0 .778-.06 1.085-.182.31-.121.551-.289.721-.505.17-.216.256-.464.256-.745a.967.967 0 0 0-.233-.659c-.151-.178-.375-.329-.67-.454a6.787 6.787 0 0 0-1.074-.341l-1.267-.318c-.981-.239-1.756-.612-2.324-1.12-.568-.507-.85-1.191-.847-2.051-.003-.704.184-1.32.563-1.846.382-.527.907-.938 1.574-1.233.666-.296 1.424-.443 2.272-.443.864 0 1.618.147 2.262.443.648.295 1.151.706 1.511 1.233.36.526.546 1.136.557 1.829h-2.358Zm8.354 8.449c-.803 0-1.52-.148-2.148-.443a3.748 3.748 0 0 1-1.489-1.222 3.137 3.137 0 0 1-.573-1.784h2.386c.026.451.216.817.568 1.097s.77.42 1.256.42a2.01 2.01 0 0 0 1.022-.255c.3-.175.533-.415.7-.722a2.19 2.19 0 0 0 .255-1.068c0-.409-.087-.769-.261-1.08a1.849 1.849 0 0 0-.71-.727 2.095 2.095 0 0 0-1.04-.267c-.341 0-.673.07-.995.21a1.8 1.8 0 0 0-.744.574l-2.188-.392.552-6.136h7.113v2.011h-5.085l-.301 2.915h.068c.205-.288.513-.527.926-.716.413-.19.875-.284 1.387-.284.7 0 1.325.165 1.875.494.549.33.983.782 1.301 1.358.318.572.475 1.231.471 1.977.004.784-.178 1.481-.545 2.091a3.843 3.843 0 0 1-1.529 1.432c-.651.345-1.409.517-2.272.517Zm10.625.097c-.978-.004-1.818-.245-2.523-.722-.701-.477-1.241-1.168-1.619-2.074-.375-.905-.561-1.994-.557-3.267 0-1.269.187-2.35.562-3.244.379-.894.919-1.574 1.62-2.04.704-.47 1.543-.704 2.517-.704.973 0 1.81.234 2.511.704.705.47 1.246 1.152 1.625 2.046.379.89.566 1.969.563 3.238 0 1.277-.19 2.368-.569 3.273-.375.905-.912 1.596-1.613 2.074-.701.477-1.54.716-2.517.716Zm0-2.04c.666 0 1.199-.335 1.596-1.006.398-.67.595-1.676.591-3.017 0-.882-.091-1.617-.272-2.204-.179-.587-.432-1.029-.762-1.324a1.658 1.658 0 0 0-1.153-.443c-.663 0-1.193.331-1.591.994-.398.663-.599 1.655-.602 2.977 0 .894.089 1.64.267 2.239.181.595.437 1.041.767 1.341.329.295.716.443 1.159.443Zm11.015 2.04c-.977-.004-1.818-.245-2.522-.722-.701-.477-1.241-1.168-1.62-2.074-.375-.905-.56-1.994-.556-3.267 0-1.269.187-2.35.562-3.244.379-.894.919-1.574 1.619-2.04.705-.47 1.544-.704 2.517-.704.974 0 1.811.234 2.512.704.704.47 1.246 1.152 1.625 2.046.379.89.566 1.969.562 3.238 0 1.277-.189 2.368-.568 3.273-.375.905-.913 1.596-1.614 2.074-.7.477-1.539.716-2.517.716Zm0-2.04c.667 0 1.199-.335 1.597-1.006.398-.67.595-1.676.591-3.017 0-.882-.091-1.617-.273-2.204-.178-.587-.432-1.029-.761-1.324a1.658 1.658 0 0 0-1.154-.443c-.663 0-1.193.331-1.591.994-.397.663-.598 1.655-.602 2.977 0 .894.089 1.64.267 2.239.182.595.438 1.041.767 1.341.33.295.716.443 1.159.443Zm7.422 1.932c-.375 0-.697-.133-.966-.398a1.327 1.327 0 0 1-.397-.966 1.3 1.3 0 0 1 .397-.954c.269-.266.591-.398.966-.398.364 0 .682.132.955.398.273.265.409.583.409.954 0 .25-.065.479-.193.688-.125.204-.29.369-.495.494-.204.121-.43.182-.676.182Zm7.422.108c-.977-.004-1.818-.245-2.523-.722-.7-.477-1.24-1.168-1.619-2.074-.375-.905-.561-1.994-.557-3.267 0-1.269.188-2.35.563-3.244.379-.894.918-1.574 1.619-2.04.705-.47 1.544-.704 2.517-.704.974 0 1.811.234 2.511.704.705.47 1.247 1.152 1.625 2.046.379.89.567 1.969.563 3.238 0 1.277-.189 2.368-.568 3.273-.375.905-.913 1.596-1.614 2.074-.701.477-1.54.716-2.517.716Zm0-2.04c.667 0 1.199-.335 1.597-1.006.397-.67.594-1.676.591-3.017 0-.882-.091-1.617-.273-2.204-.178-.587-.432-1.029-.761-1.324a1.66 1.66 0 0 0-1.154-.443c-.663 0-1.193.331-1.591.994-.398.663-.598 1.655-.602 2.977 0 .894.089 1.64.267 2.239.182.595.437 1.041.767 1.341.33.295.716.443 1.159.443Zm11.016 2.04c-.978-.004-1.818-.245-2.523-.722-.701-.477-1.241-1.168-1.619-2.074-.375-.905-.561-1.994-.557-3.267 0-1.269.187-2.35.562-3.244.379-.894.919-1.574 1.62-2.04.704-.47 1.543-.704 2.517-.704.973 0 1.81.234 2.511.704.705.47 1.246 1.152 1.625 2.046.379.89.566 1.969.563 3.238 0 1.277-.19 2.368-.569 3.273-.375.905-.912 1.596-1.613 2.074-.701.477-1.54.716-2.517.716Zm0-2.04c.666 0 1.199-.335 1.596-1.006.398-.67.595-1.676.591-3.017 0-.882-.091-1.617-.272-2.204-.179-.587-.432-1.029-.762-1.324a1.658 1.658 0 0 0-1.153-.443c-.663 0-1.193.331-1.591.994-.398.663-.599 1.655-.602 2.977 0 .894.089 1.64.267 2.239.181.595.437 1.041.767 1.341.329.295.716.443 1.159.443Z" fill="#344054"/><path d="M360.256 84v-.5h-33.318a4.5 4.5 0 0 0-4.5 4.5v34a4.5 4.5 0 0 0 4.499 4.5h33.319V84Z" fill="#5925DC"/><path fill-rule="evenodd" clip-rule="evenodd" d="M346.154 105a.417.417 0 0 1-.117.291.396.396 0 0 1-.283.121h-8.813a.398.398 0 0 1-.284-.121.417.417 0 0 1 0-.582.398.398 0 0 1 .284-.121h8.813c.106 0 .208.044.283.121a.417.417 0 0 1 .117.291Z" fill="#fff"/><path d="M360.256 84v-.5h-33.318a4.5 4.5 0 0 0-4.5 4.5v34a4.5 4.5 0 0 0 4.499 4.5h33.319V84Z" stroke="#98A2B3"/><path d="M393.728 111.159c-.849 0-1.604-.146-2.267-.437-.659-.296-1.18-.701-1.563-1.216a3.054 3.054 0 0 1-.585-1.796h2.477c.015.284.108.534.279.75.174.212.405.377.693.495.288.117.612.176.971.176.375 0 .707-.067.995-.199.288-.133.513-.316.676-.551a1.39 1.39 0 0 0 .244-.813c0-.31-.087-.585-.261-.824a1.675 1.675 0 0 0-.739-.568c-.318-.136-.697-.204-1.136-.204h-1.085v-1.807h1.085c.371 0 .699-.065.983-.193.288-.129.511-.307.67-.534.159-.232.239-.5.239-.807 0-.292-.07-.548-.21-.767a1.39 1.39 0 0 0-.58-.523 1.884 1.884 0 0 0-.864-.188c-.333 0-.638.061-.914.182a1.602 1.602 0 0 0-.665.506c-.167.22-.256.477-.267.773h-2.358a3.028 3.028 0 0 1 .574-1.773c.371-.511.871-.911 1.5-1.199.632-.292 1.346-.438 2.142-.438.803 0 1.505.146 2.108.438.602.292 1.07.686 1.403 1.182.337.492.504 1.045.5 1.659.004.651-.199 1.195-.608 1.631-.405.435-.933.712-1.585.829v.091c.856.11 1.508.407 1.955.892.45.481.674 1.083.67 1.807a2.84 2.84 0 0 1-.574 1.767c-.382.515-.911.92-1.585 1.216-.674.295-1.447.443-2.318.443Z" fill="#344054"/><path stroke="#98A2B3" d="M360.257 83.5h67v43h-67z"/><path d="M427.757 83.5h-.5v43h33.319a4.5 4.5 0 0 0 4.5-4.5V88a4.5 4.5 0 0 0-4.5-4.5h-32.819Z" fill="#5925DC"/><path d="M452.576 111.588h-8.819a4 4 0 0 1-4-4v-5.176a4 4 0 0 1 4-4h8.819v13.176Z" fill="#5925DC"/><path fill-rule="evenodd" clip-rule="evenodd" d="M446.167 109.941a.396.396 0 0 1-.284-.12.42.42 0 0 1-.117-.292v-4.117h-4.006a.396.396 0 0 1-.283-.121.418.418 0 0 1 0-.582.396.396 0 0 1 .283-.121h4.006v-4.117a.42.42 0 0 1 .117-.292.396.396 0 0 1 .567 0 .42.42 0 0 1 .117.292v4.117h4.006c.106 0 .208.044.283.121a.418.418 0 0 1 0 .582.396.396 0 0 1-.283.121h-4.006v4.117a.42.42 0 0 1-.117.292.395.395 0 0 1-.283.12Z" fill="#fff"/><path d="M427.757 83.5h-.5v43h33.319a4.5 4.5 0 0 0 4.5-4.5V88a4.5 4.5 0 0 0-4.5-4.5h-32.819Z" stroke="#98A2B3"/></g><path d="M62.575 2h422V0h-422v2Zm425 3v152h2V5h-2Zm-3 155h-422v2h422v-2Zm-425-3V5h-2v152h2Zm3 3a3 3 0 0 1-3-3h-2a5 5 0 0 0 5 5v-2Zm425-3a3 3 0 0 1-3 3v2a5 5 0 0 0 5-5h-2Zm-3-155a3 3 0 0 1 3 3h2a5 5 0 0 0-5-5v2Zm-422-2a5 5 0 0 0-5 5h2a3 3 0 0 1 3-3V0Z" fill="#98A2B3"/><path fill="#E8178A" fill-opacity=".24" d="M59 1h24v160H59z"/><path fill="#E8178A" fill-opacity=".24" d="M58 1h431v24H58zm0 136h431v24H58zm0-80h431v16H58z"/><path fill="#E8178A" fill-opacity=".24" d="M465.85 1h24v160h-24z"/><path d="M59 178.5h24" stroke="#E8178A"/><rect x="52.5" y="183" width="37" height="18" rx="3" fill="#E8178A"/><path d="M59.09 196v-1.108l2.588-2.397c.22-.213.405-.405.554-.575a2.19 2.19 0 0 0 .345-.501c.078-.166.117-.344.117-.536 0-.213-.049-.397-.146-.551a.957.957 0 0 0-.397-.358 1.237 1.237 0 0 0-.572-.128c-.223 0-.417.045-.583.135a.93.93 0 0 0-.383.387c-.09.168-.135.368-.135.6h-1.46c0-.476.108-.889.324-1.239.215-.351.517-.622.905-.814.388-.191.836-.287 1.343-.287.52 0 .974.092 1.36.277.388.182.69.435.905.76.215.324.323.696.323 1.115 0 .274-.054.546-.163.813-.107.268-.297.565-.572.891a13.16 13.16 0 0 1-1.161 1.169l-1.062 1.04v.05h3.054V196H59.09Zm6.032-1.278v-1.211l3.036-4.784h1.044v1.676h-.618l-1.914 3.03v.056h4.315v1.233h-5.863Zm3.49 1.278v-1.648l.03-.536v-5.089h1.44V196h-1.47Zm3.412 2.045v-7.5h1.491v.917h.068c.066-.147.162-.296.287-.448a1.51 1.51 0 0 1 .497-.383c.206-.104.462-.157.767-.157.398 0 .765.105 1.101.313.336.206.605.517.806.934.202.414.302.934.302 1.559 0 .608-.098 1.122-.294 1.541-.195.417-.46.733-.796.948-.334.213-.708.32-1.122.32-.294 0-.543-.049-.75-.146a1.546 1.546 0 0 1-.5-.366 1.844 1.844 0 0 1-.298-.451h-.047v2.919h-1.512Zm1.48-4.772c0 .324.045.607.135.848.09.242.22.43.391.565a.98.98 0 0 0 .621.199.98.98 0 0 0 .626-.202c.17-.138.299-.327.386-.569.09-.243.136-.524.136-.841a2.41 2.41 0 0 0-.132-.831 1.238 1.238 0 0 0-.387-.561.981.981 0 0 0-.629-.203.995.995 0 0 0-.624.196c-.169.13-.298.314-.388.554-.09.239-.135.52-.135.845Zm5.917-2.728 1.001 1.907 1.026-1.907H83l-1.58 2.728L83.043 196h-1.545l-1.076-1.886L79.364 196H77.8l1.62-2.727-1.563-2.728h1.563Z" fill="#fff"/><path stroke="#E8178A" d="M59.5 182v-7m23 7v-7m383.35 2.5h24"/><rect x="459.35" y="182" width="37" height="18" rx="3" fill="#E8178A"/><path d="M465.939 195v-1.108l2.589-2.397c.22-.213.405-.405.554-.575.151-.171.266-.338.344-.501.078-.166.118-.344.118-.536 0-.213-.049-.397-.146-.551a.958.958 0 0 0-.398-.358 1.235 1.235 0 0 0-.572-.128c-.222 0-.416.045-.582.135a.922.922 0 0 0-.383.387c-.09.168-.135.368-.135.6h-1.46c0-.476.108-.889.323-1.239.216-.351.518-.622.906-.814.388-.191.835-.287 1.342-.287.521 0 .974.092 1.36.277.388.182.69.435.906.76.215.324.323.696.323 1.115 0 .274-.055.546-.163.813-.107.268-.298.565-.572.891-.275.325-.662.714-1.161 1.169l-1.062 1.04v.05h3.054V195h-5.185Zm6.033-1.278v-1.211l3.036-4.784h1.044v1.676h-.618l-1.914 3.03v.056h4.315v1.233h-5.863Zm3.49 1.278v-1.648l.029-.536v-5.089h1.442V195h-1.471Zm3.411 2.045v-7.5h1.492v.917h.067c.066-.147.162-.296.288-.448a1.5 1.5 0 0 1 .497-.383c.206-.104.462-.157.767-.157.398 0 .765.105 1.101.313.336.206.605.517.806.934.201.414.302.934.302 1.559 0 .608-.098 1.122-.295 1.541-.194.417-.459.733-.795.948-.334.213-.708.32-1.123.32-.293 0-.543-.049-.749-.146a1.563 1.563 0 0 1-.501-.366 1.86 1.86 0 0 1-.298-.451h-.046v2.919h-1.513Zm1.481-4.772c0 .324.045.607.135.848.09.242.22.43.391.565.17.133.377.199.621.199a.98.98 0 0 0 .625-.202c.171-.138.3-.327.387-.569.09-.243.135-.524.135-.841 0-.315-.044-.592-.131-.831a1.245 1.245 0 0 0-.387-.561.983.983 0 0 0-.629-.203.996.996 0 0 0-.625.196 1.22 1.22 0 0 0-.387.554c-.09.239-.135.52-.135.845Zm5.916-2.728 1.002 1.907 1.026-1.907h1.552l-1.58 2.728 1.622 2.727h-1.544l-1.076-1.886-1.059 1.886h-1.562l1.619-2.727-1.562-2.728h1.562Z" fill="#fff"/><path stroke="#E8178A" d="M466.35 181v-7m23 7v-7M41.5 1v24"/><rect y="5.5" width="37" height="18" rx="3" fill="#E8178A"/><path d="M6.59 18.5v-1.108l2.588-2.397c.22-.213.405-.405.554-.575.152-.17.267-.338.345-.501.078-.166.117-.344.117-.536a1.01 1.01 0 0 0-.146-.55.956.956 0 0 0-.397-.36 1.247 1.247 0 0 0-.572-.127c-.223 0-.417.045-.583.135a.93.93 0 0 0-.383.387c-.09.168-.135.368-.135.6h-1.46c0-.476.108-.889.324-1.24.215-.35.517-.62.905-.813.388-.191.836-.287 1.342-.287.521 0 .975.092 1.36.277.389.182.69.435.906.76.215.324.323.696.323 1.115 0 .275-.054.546-.163.813-.107.268-.297.565-.572.891-.274.325-.662.714-1.161 1.169l-1.062 1.04v.05h3.054V18.5H6.59Zm6.032-1.278V16.01l3.036-4.784h1.044v1.676h-.618l-1.914 3.03v.056h4.315v1.233h-5.863Zm3.49 1.278v-1.648l.03-.536v-5.089h1.44V18.5h-1.47Zm3.412 2.046v-7.5h1.491v.916h.068c.066-.147.162-.296.287-.448.128-.154.294-.281.497-.383.206-.104.462-.157.767-.157.398 0 .765.105 1.101.313.336.206.605.517.806.934.202.414.302.934.302 1.559 0 .608-.098 1.122-.294 1.541-.195.417-.46.733-.796.948-.334.213-.708.32-1.122.32a1.75 1.75 0 0 1-.75-.146 1.55 1.55 0 0 1-.5-.366c-.13-.149-.23-.3-.298-.45h-.047v2.919h-1.512Zm1.48-4.773c0 .324.045.607.135.848.09.242.22.43.391.565.17.133.378.199.621.199a.975.975 0 0 0 .625-.203c.17-.137.3-.326.387-.568a2.42 2.42 0 0 0 .136-.841 2.41 2.41 0 0 0-.132-.831 1.237 1.237 0 0 0-.387-.561.98.98 0 0 0-.629-.203.999.999 0 0 0-.625.196 1.22 1.22 0 0 0-.387.554c-.09.239-.135.52-.135.845Zm5.917-2.727 1.001 1.906 1.026-1.906H30.5l-1.58 2.727 1.623 2.727h-1.545l-1.076-1.886-1.058 1.886H25.3l1.62-2.727-1.563-2.727h1.563Z" fill="#fff"/><path stroke="#E8178A" d="M38 1.5h7m-7 23h7M41.5 137v24"/><rect y="141.5" width="37" height="18" rx="3" fill="#E8178A"/><path d="M6.59 154.5v-1.108l2.588-2.397c.22-.213.405-.405.554-.575a2.19 2.19 0 0 0 .345-.501c.078-.166.117-.344.117-.536 0-.213-.049-.397-.146-.551a.957.957 0 0 0-.397-.358 1.237 1.237 0 0 0-.572-.128c-.223 0-.417.045-.583.135a.93.93 0 0 0-.383.387c-.09.168-.135.368-.135.6h-1.46c0-.476.108-.889.324-1.239.215-.351.517-.622.905-.814.388-.191.836-.287 1.342-.287.521 0 .975.092 1.36.277.389.182.69.435.906.76.215.324.323.696.323 1.115 0 .274-.054.546-.163.813-.107.268-.297.565-.572.891-.274.325-.662.714-1.161 1.169l-1.062 1.04v.05h3.054v1.257H6.59Zm6.032-1.278v-1.211l3.036-4.784h1.044v1.676h-.618l-1.914 3.03v.056h4.315v1.233h-5.863Zm3.49 1.278v-1.648l.03-.536v-5.089h1.44v7.273h-1.47Zm3.412 2.045v-7.5h1.491v.917h.068c.066-.147.162-.296.287-.448a1.51 1.51 0 0 1 .497-.383c.206-.104.462-.157.767-.157.398 0 .765.105 1.101.313.336.206.605.517.806.934.202.414.302.934.302 1.559 0 .608-.098 1.122-.294 1.541-.195.417-.46.733-.796.948-.334.213-.708.32-1.122.32a1.75 1.75 0 0 1-.75-.146 1.546 1.546 0 0 1-.5-.366 1.844 1.844 0 0 1-.298-.451h-.047v2.919h-1.512Zm1.48-4.772c0 .324.045.607.135.848.09.242.22.43.391.565a.98.98 0 0 0 .621.199.98.98 0 0 0 .625-.202c.17-.138.3-.327.387-.569.09-.243.136-.524.136-.841a2.41 2.41 0 0 0-.132-.831 1.238 1.238 0 0 0-.387-.561.981.981 0 0 0-.629-.203.995.995 0 0 0-.625.196 1.22 1.22 0 0 0-.387.554c-.09.239-.135.52-.135.845Zm5.917-2.728 1.001 1.907 1.026-1.907H30.5l-1.58 2.728 1.623 2.727h-1.545l-1.076-1.886-1.058 1.886H25.3l1.62-2.727-1.563-2.728h1.563Z" fill="#fff"/><path stroke="#E8178A" d="M38 137.5h7m-7 23h7M505.5 57v16"/><rect x="510" y="57.5" width="36" height="18" rx="3" fill="#E8178A"/><path d="M519.754 63.227V70.5h-1.538v-5.813h-.043l-1.665 1.044v-1.364l1.8-1.14h1.446Zm4.519 7.372a3.285 3.285 0 0 1-1.083-.188 2.464 2.464 0 0 1-.93-.6c-.275-.277-.493-.644-.654-1.1-.158-.458-.238-1.019-.238-1.684.003-.61.073-1.156.21-1.637a3.66 3.66 0 0 1 .597-1.229c.26-.336.571-.592.933-.767a2.736 2.736 0 0 1 1.219-.266c.485 0 .913.094 1.285.284.372.187.67.441.895.763.227.322.365.683.412 1.084h-1.516a1.018 1.018 0 0 0-.373-.597 1.127 1.127 0 0 0-.703-.217c-.474 0-.834.206-1.08.618-.244.412-.368.972-.373 1.68h.05a1.7 1.7 0 0 1 .44-.55c.187-.154.399-.272.636-.352a2.29 2.29 0 0 1 .756-.124 2.162 2.162 0 0 1 1.946 1.136c.194.353.291.756.291 1.21 0 .493-.114.931-.344 1.315a2.389 2.389 0 0 1-.955.902c-.407.215-.881.322-1.421.32Zm-.007-1.207a1.2 1.2 0 0 0 1.076-.632 1.33 1.33 0 0 0 .16-.654 1.31 1.31 0 0 0-.16-.65 1.18 1.18 0 0 0-1.065-.629 1.22 1.22 0 0 0-.494.1 1.244 1.244 0 0 0-.657.69 1.272 1.272 0 0 0-.096.493 1.277 1.277 0 0 0 .601 1.108c.187.116.398.174.635.174Zm3.832 3.154v-7.5h1.491v.916h.068c.066-.147.162-.296.287-.448.128-.154.294-.281.498-.383.206-.105.461-.157.767-.157.397 0 .764.105 1.1.313.337.206.605.517.807.934.201.414.301.934.301 1.559 0 .608-.098 1.122-.294 1.541-.194.417-.46.733-.796.948-.334.213-.708.32-1.122.32a1.75 1.75 0 0 1-.749-.146 1.545 1.545 0 0 1-.501-.366c-.13-.149-.23-.3-.298-.45h-.046v2.919h-1.513Zm1.481-4.773c0 .324.045.607.135.848.09.242.22.43.39.565a.984.984 0 0 0 .622.199.977.977 0 0 0 .625-.203c.17-.137.299-.326.387-.568.09-.243.135-.524.135-.841a2.4 2.4 0 0 0-.132-.831 1.229 1.229 0 0 0-.387-.561.98.98 0 0 0-.628-.203.997.997 0 0 0-.625.196 1.22 1.22 0 0 0-.387.554c-.09.239-.135.52-.135.845Zm5.916-2.727 1.001 1.906 1.027-1.906h1.551l-1.58 2.727 1.623 2.727h-1.545l-1.076-1.886-1.058 1.886h-1.562l1.619-2.727-1.563-2.727h1.563Z" fill="#fff"/><path stroke="#E8178A" d="M502 57.5h7m-7 15h7"/><defs><clipPath id="a"><path d="M58.575 5a4 4 0 0 1 4-4h422a4 4 0 0 1 4 4v152a4 4 0 0 1-4 4h-422a4 4 0 0 1-4-4V5Z" fill="#fff"/></clipPath></defs></svg>