<svg width="450" height="173" viewBox="0 0 450 173" fill="none" xmlns="http://www.w3.org/2000/svg"><path d="M33.5 66a4 4 0 0 1 4-4h133v48h-133a4 4 0 0 1-4-4V66Z" fill="#fff"/><path d="M33.5 66a4 4 0 0 1 4-4h133v48h-133a4 4 0 0 1-4-4V66Z" fill="#fff"/><path fill-rule="evenodd" clip-rule="evenodd" d="M66.144 77.203a.693.693 0 0 1 0 .98L58.325 86l7.819 7.817a.693.693 0 0 1-.98.98l-8.307-8.307a.692.692 0 0 1 0-.98l8.306-8.307a.692.692 0 0 1 .98 0Z" fill="#0F71BB"/><path d="M90.91 92V80.364h3.93c.914 0 1.66.164 2.24.494.583.326 1.015.767 1.295 1.324s.42 1.178.42 1.864c0 .685-.14 1.308-.42 1.869-.276.56-.704 1.007-1.284 1.34-.58.33-1.322.495-2.227.495h-2.819V86.5h2.773c.625 0 1.127-.108 1.506-.324a1.93 1.93 0 0 0 .824-.875 2.92 2.92 0 0 0 .261-1.255c0-.467-.087-.883-.261-1.25a1.864 1.864 0 0 0-.83-.864c-.382-.212-.89-.318-1.522-.318h-2.478V92H90.91Zm9.974 0v-8.727h1.295v1.318h.091c.159-.432.447-.782.864-1.051a2.54 2.54 0 0 1 1.409-.404c.098 0 .221.002.369.006s.259.01.335.017v1.364a3.926 3.926 0 0 0-.312-.051 3.08 3.08 0 0 0-.506-.04c-.424 0-.803.089-1.136.267a1.956 1.956 0 0 0-1.069 1.778V92h-1.34Zm9.346.182c-.841 0-1.566-.186-2.176-.557a3.733 3.733 0 0 1-1.403-1.568c-.326-.674-.489-1.459-.489-2.353 0-.893.163-1.681.489-2.363.329-.686.787-1.22 1.375-1.602.59-.387 1.28-.58 2.068-.58.454 0 .903.076 1.346.227.444.152.847.398 1.211.739.363.337.653.784.869 1.34.216.558.324 1.243.324 2.058v.568h-6.728v-1.16h5.364c0-.492-.098-.931-.295-1.317a2.232 2.232 0 0 0-.83-.915c-.356-.224-.776-.335-1.261-.335-.534 0-.996.132-1.387.397a2.623 2.623 0 0 0-.892 1.023c-.208.42-.312.871-.312 1.352v.773c0 .66.113 1.218.341 1.676.231.455.551.801.96 1.04.409.235.884.352 1.426.352.352 0 .671-.049.955-.148a2.03 2.03 0 0 0 .744-.454c.208-.204.369-.458.483-.761l1.295.363a2.87 2.87 0 0 1-.687 1.16c-.322.329-.72.587-1.193.772a4.43 4.43 0 0 1-1.597.273Zm12.524-8.91L119.527 92h-1.364l-3.227-8.727h1.455l2.409 6.954h.091l2.409-6.954h1.454Zm1.77 8.728v-8.727h1.341V92h-1.341Zm.682-10.182a.953.953 0 0 1-.676-.267.857.857 0 0 1-.279-.642c0-.25.093-.464.279-.642a.953.953 0 0 1 .676-.267c.261 0 .485.089.67.267.19.178.285.392.285.642s-.095.464-.285.642a.932.932 0 0 1-.67.267Zm6.66 10.364c-.787 0-1.479-.188-2.073-.563-.591-.375-1.053-.9-1.387-1.573-.329-.675-.494-1.463-.494-2.364 0-.91.165-1.703.494-2.38.334-.679.796-1.205 1.387-1.58.594-.375 1.286-.563 2.073-.563.788 0 1.478.188 2.069.563.594.375 1.056.901 1.386 1.58.333.677.5 1.47.5 2.38 0 .901-.167 1.69-.5 2.364a3.775 3.775 0 0 1-1.386 1.573c-.591.375-1.281.563-2.069.563Zm0-1.205c.599 0 1.091-.153 1.478-.46a2.72 2.72 0 0 0 .858-1.21c.185-.5.278-1.042.278-1.625 0-.584-.093-1.127-.278-1.63a2.755 2.755 0 0 0-.858-1.223c-.387-.31-.879-.465-1.478-.465-.598 0-1.09.155-1.477.465a2.757 2.757 0 0 0-.858 1.222 4.695 4.695 0 0 0-.278 1.63c0 .584.093 1.126.278 1.626.186.5.472.903.858 1.21.387.307.879.46 1.477.46Zm11.502-2.545v-5.16h1.341V92h-1.341v-1.477h-.091c-.205.443-.523.82-.955 1.13-.431.307-.977.46-1.636.46-.545 0-1.03-.119-1.454-.357-.425-.243-.758-.606-1-1.091-.243-.489-.364-1.104-.364-1.847v-5.545h1.341v5.454c0 .637.178 1.144.534 1.523.36.379.818.568 1.375.568a2.29 2.29 0 0 0 1.017-.255c.348-.171.64-.432.875-.785.239-.352.358-.8.358-1.346Zm9.979-3.205-1.205.341a2.233 2.233 0 0 0-.335-.585 1.628 1.628 0 0 0-.591-.477c-.25-.125-.57-.188-.96-.188-.534 0-.979.123-1.336.37-.352.242-.528.55-.528.926 0 .333.121.596.364.79.242.193.621.354 1.136.482l1.296.319c.78.189 1.361.479 1.744.869.382.386.574.884.574 1.494 0 .5-.144.947-.432 1.341-.284.394-.682.705-1.193.932-.512.227-1.106.34-1.784.34-.891 0-1.627-.192-2.211-.579-.583-.386-.952-.95-1.108-1.693l1.273-.318c.121.47.351.822.688 1.057.341.235.786.352 1.335.352.625 0 1.121-.133 1.488-.398.372-.269.557-.59.557-.966 0-.303-.106-.556-.318-.761-.212-.208-.538-.364-.977-.466l-1.455-.34c-.799-.19-1.386-.484-1.761-.882-.371-.401-.557-.903-.557-1.505 0-.493.138-.928.415-1.307a2.82 2.82 0 0 1 1.142-.892c.485-.216 1.034-.324 1.648-.324.863 0 1.541.19 2.034.568.496.38.848.88 1.057 1.5Z" fill="#0F71BB"/><path d="M170.5 62h.5v-.5h-.5v.5Zm0 48v.5h.5v-.5h-.5Zm-133-47.5h133v-1h-133v1ZM170 62v48h1V62h-1Zm.5 47.5h-133v1h133v-1ZM34 106V66h-1v40h1Zm3.5 3.5A3.5 3.5 0 0 1 34 106h-1a4.5 4.5 0 0 0 4.5 4.5v-1Zm0-48A4.5 4.5 0 0 0 33 66h1a3.5 3.5 0 0 1 3.5-3.5v-1Z" fill="#98A2B3"/><path fill="#0F71BB" d="M170.5 62h40v48h-40z"/><path d="M170.5 62h40v48h-40V62Z" fill="#0F71BB"/><path d="M191.795 80.364V92h-1.409V81.84h-.068l-2.841 1.887v-1.431l2.909-1.932h1.409Z" fill="#fff"/><path d="M170.5 62v-.5h-.5v.5h.5Zm40 0h.5v-.5h-.5v.5Zm0 48v.5h.5v-.5h-.5Zm-40 0h-.5v.5h.5v-.5Zm0-47.5h40v-1h-40v1ZM210 62v48h1V62h-1Zm.5 47.5h-40v1h40v-1Zm-39.5.5V62h-1v48h1Z" fill="#98A2B3"/><path d="M210.5 62h42v48h-42V62Z" fill="#fff"/><path d="M227.705 92v-1.023l3.84-4.204c.451-.493.822-.92 1.114-1.284.292-.368.508-.713.648-1.035.144-.325.216-.666.216-1.022 0-.41-.099-.763-.296-1.063a1.917 1.917 0 0 0-.795-.693 2.58 2.58 0 0 0-1.137-.244c-.447 0-.837.093-1.17.278a1.92 1.92 0 0 0-.767.767c-.178.33-.267.716-.267 1.16h-1.341c0-.683.157-1.28.472-1.796a3.271 3.271 0 0 1 1.284-1.205 3.878 3.878 0 0 1 1.835-.431c.682 0 1.286.144 1.812.431.527.288.94.677 1.239 1.165.299.489.449 1.032.449 1.63 0 .429-.078.847-.233 1.257-.152.405-.417.858-.796 1.358-.374.496-.895 1.102-1.562 1.818l-2.614 2.795v.091h5.409V92h-7.34Z" fill="#0F71BB"/><path d="M210.5 62v-.5h-.5v.5h.5Zm42 0h.5v-.5h-.5v.5Zm0 48v.5h.5v-.5h-.5Zm-42 0h-.5v.5h.5v-.5Zm0-47.5h42v-1h-42v1ZM252 62v48h1V62h-1Zm.5 47.5h-42v1h42v-1Zm-41.5.5V62h-1v48h1Z" fill="#98A2B3"/><path d="M252.5 62h46v48h-46V62Z" fill="#fff"/><path d="M270.705 92.09a.985.985 0 0 1-.722-.3.983.983 0 0 1-.301-.722c0-.28.1-.52.301-.721a.984.984 0 0 1 .722-.301c.28 0 .52.1.721.3a.985.985 0 0 1 .301.722.96.96 0 0 1-.142.511c-.091.156-.214.28-.369.376a.975.975 0 0 1-.511.136Zm4.406 0a.985.985 0 0 1-.722-.3.983.983 0 0 1-.301-.722c0-.28.1-.52.301-.721a.984.984 0 0 1 .722-.301c.28 0 .521.1.721.3a.986.986 0 0 1 .302.722.962.962 0 0 1-.143.511c-.09.156-.214.28-.369.376a.972.972 0 0 1-.511.136Zm4.406 0c-.28 0-.521-.1-.722-.3a.987.987 0 0 1-.301-.722c0-.28.101-.52.301-.721a.986.986 0 0 1 .722-.301c.28 0 .521.1.722.3.2.201.301.442.301.722a1.058 1.058 0 0 1-.512.886.972.972 0 0 1-.511.137Z" fill="#0F71BB"/><path d="M252.5 62v-.5h-.5v.5h.5Zm46 0h.5v-.5h-.5v.5Zm0 48v.5h.5v-.5h-.5Zm-46 0h-.5v.5h.5v-.5Zm0-47.5h46v-1h-46v1ZM298 62v48h1V62h-1Zm.5 47.5h-46v1h46v-1Zm-45.5.5V62h-1v48h1Z" fill="#98A2B3"/><path d="M298.5 62h43v48h-43V62Z" fill="#fff"/><path d="M319.636 92.16c-.75 0-1.418-.13-2.005-.387-.584-.258-1.048-.616-1.392-1.074a2.884 2.884 0 0 1-.557-1.608h1.432c.03.375.159.699.386.972.227.268.525.477.892.624.367.148.775.222 1.222.222.5 0 .943-.087 1.329-.261.387-.174.69-.417.909-.727.22-.311.33-.671.33-1.08 0-.428-.106-.805-.318-1.13-.212-.33-.523-.588-.932-.773-.409-.186-.909-.279-1.5-.279h-.932v-1.25h.932c.462 0 .867-.083 1.216-.25.352-.167.627-.401.824-.705.2-.302.301-.658.301-1.068a1.96 1.96 0 0 0-.262-1.028 1.786 1.786 0 0 0-.738-.682c-.315-.163-.686-.244-1.114-.244-.401 0-.78.074-1.136.221-.353.144-.64.355-.864.631a1.646 1.646 0 0 0-.364.989h-1.363a2.77 2.77 0 0 1 .551-1.602 3.47 3.47 0 0 1 1.352-1.08 4.37 4.37 0 0 1 1.847-.386c.72 0 1.337.145 1.852.437a3.09 3.09 0 0 1 1.188 1.142c.276.474.414.985.414 1.534 0 .656-.172 1.214-.517 1.676-.341.462-.805.782-1.392.96v.092c.735.12 1.309.433 1.722.937.413.5.619 1.12.619 1.858 0 .633-.172 1.2-.517 1.705-.341.5-.807.893-1.398 1.181-.59.288-1.263.432-2.017.432Z" fill="#0F71BB"/><path d="M298.5 62v-.5h-.5v.5h.5Zm43 0h.5v-.5h-.5v.5Zm0 48v.5h.5v-.5h-.5Zm-43 0h-.5v.5h.5v-.5Zm0-47.5h43v-1h-43v1ZM341 62v48h1V62h-1Zm.5 47.5h-43v1h43v-1Zm-42.5.5V62h-1v48h1Z" fill="#98A2B3"/><path fill="#fff" d="M341.5 62h108v48h-108z"/><path d="M341.5 62h104a4 4 0 0 1 4 4v40a4 4 0 0 1-4 4h-104V62Z" fill="#fff"/><path d="M368.136 80.364V92h-1.363l-6.341-9.136h-.114V92h-1.409V80.364h1.364l6.363 9.159h.114v-9.16h1.386Zm6.297 11.818c-.841 0-1.566-.186-2.176-.557a3.733 3.733 0 0 1-1.403-1.568c-.326-.674-.489-1.459-.489-2.353 0-.893.163-1.681.489-2.363.329-.686.788-1.22 1.375-1.602.591-.387 1.28-.58 2.068-.58.454 0 .903.076 1.346.227.444.152.847.398 1.211.739.363.337.653.784.869 1.34.216.558.324 1.243.324 2.058v.568h-6.727v-1.16h5.363c0-.492-.098-.931-.295-1.317a2.225 2.225 0 0 0-.83-.915c-.356-.224-.776-.335-1.261-.335-.534 0-.996.132-1.386.397a2.618 2.618 0 0 0-.893 1.023c-.208.42-.312.871-.312 1.352v.773c0 .66.114 1.218.341 1.676.231.455.551.801.96 1.04.409.235.885.352 1.426.352a2.9 2.9 0 0 0 .955-.148 2.03 2.03 0 0 0 .744-.454c.208-.204.369-.458.483-.761l1.296.363a2.88 2.88 0 0 1-.688 1.16c-.322.329-.72.587-1.193.772a4.43 4.43 0 0 1-1.597.273Zm6.419-8.91 2.091 3.569 2.091-3.568h1.546l-2.819 4.363L386.58 92h-1.546l-2.091-3.386L380.852 92h-1.545l2.773-4.364-2.773-4.363h1.545Zm11.436 0v1.137h-4.522v-1.136h4.522Zm-3.204-2.09h1.341V89.5c0 .379.055.663.164.852.114.186.258.31.432.375.178.06.366.091.563.091.148 0 .269-.007.363-.022l.228-.046.272 1.204c-.09.035-.217.069-.38.103-.163.038-.37.057-.62.057-.378 0-.75-.082-1.113-.245a2.215 2.215 0 0 1-.898-.744c-.235-.333-.352-.754-.352-1.261v-8.682Z" fill="#0F71BB"/><path fill-rule="evenodd" clip-rule="evenodd" d="M416.857 77.203a.686.686 0 0 1 .755-.15.71.71 0 0 1 .225.15l8.306 8.307a.687.687 0 0 1 .151.755.687.687 0 0 1-.151.225l-8.306 8.307a.694.694 0 0 1-.98-.98L424.675 86l-7.818-7.816a.687.687 0 0 1-.151-.756.687.687 0 0 1 .151-.225Z" fill="#0F71BB"/><path d="M341.5 62v-.5h-.5v.5h.5Zm0 48h-.5v.5h.5v-.5Zm0-47.5h104v-1h-104v1ZM449 66v40h1V66h-1Zm-3.5 43.5h-104v1h104v-1ZM342 110V62h-1v48h1Zm107-4a3.5 3.5 0 0 1-3.5 3.5v1a4.5 4.5 0 0 0 4.5-4.5h-1Zm-3.5-43.5A3.5 3.5 0 0 1 449 66h1a4.5 4.5 0 0 0-4.5-4.5v1Z" fill="#98A2B3"/><path d="M117 66V17" stroke="#344054" stroke-dasharray="2 2"/><circle cx="12" cy="16" r="12" fill="#344054"/><path d="M14.006 10.364V22h-2.46v-9.301h-.069l-2.665 1.67v-2.181l2.881-1.824h2.313Z" fill="#fff"/><circle cx="105" cy="152" r="12" fill="#344054"/><path d="M100.943 158v-1.773l4.142-3.835c.353-.341.648-.648.887-.92.242-.273.426-.54.551-.802.125-.265.187-.551.187-.858 0-.34-.077-.634-.233-.88a1.53 1.53 0 0 0-.636-.574 2 2 0 0 0-.915-.205c-.356 0-.667.072-.932.216a1.49 1.49 0 0 0-.613.62c-.144.269-.216.589-.216.96h-2.335c0-.762.172-1.422.517-1.983a3.446 3.446 0 0 1 1.448-1.301c.622-.307 1.338-.46 2.148-.46.834 0 1.559.147 2.176.443.622.291 1.104.697 1.449 1.216s.517 1.113.517 1.784c0 .439-.087.873-.261 1.301-.171.428-.476.903-.915 1.426-.439.519-1.059 1.142-1.858 1.869l-1.699 1.665v.08h4.887V158h-8.296Z" fill="#fff"/><path d="M25 16h353v50m-260 86h73v-50" stroke="#344054" stroke-dasharray="2 2"/><circle cx="276" cy="157" r="12" fill="#344054"/><path d="M276.244 163.159c-.848 0-1.604-.146-2.267-.437-.659-.296-1.18-.701-1.562-1.216a3.054 3.054 0 0 1-.585-1.796h2.477c.015.284.108.534.278.75.174.212.406.377.693.495.288.117.612.176.972.176.375 0 .706-.067.994-.199.288-.133.514-.316.676-.551.163-.235.245-.506.245-.813 0-.31-.087-.585-.262-.824a1.666 1.666 0 0 0-.738-.568c-.318-.136-.697-.204-1.137-.204h-1.085v-1.807h1.085c.372 0 .699-.065.983-.193.288-.129.512-.307.671-.534.159-.232.238-.5.238-.807 0-.292-.07-.548-.21-.767a1.382 1.382 0 0 0-.579-.523 1.887 1.887 0 0 0-.864-.188c-.333 0-.638.061-.915.182a1.599 1.599 0 0 0-.664.506c-.167.22-.256.477-.268.773h-2.358c.012-.671.203-1.262.574-1.773.372-.511.872-.911 1.5-1.199.633-.292 1.347-.437 2.142-.437.803 0 1.506.145 2.108.437.603.292 1.07.686 1.404 1.182.337.492.504 1.045.5 1.659.004.651-.199 1.195-.608 1.631-.405.435-.934.712-1.585.829v.091c.856.11 1.507.407 1.954.892.451.481.674 1.083.671 1.807a2.846 2.846 0 0 1-.574 1.767c-.383.515-.911.92-1.586 1.216-.674.295-1.446.443-2.318.443Z" fill="#fff"/><path d="M276 145.5V98" stroke="#344054" stroke-dasharray="2 2"/></svg>