<svg width="530" height="112" viewBox="0 0 530 112" fill="none" xmlns="http://www.w3.org/2000/svg"><path d="M52.5 36a4 4 0 0 1 4-4h133v48h-133a4 4 0 0 1-4-4V36Z" fill="#fff"/><path d="M52.5 36a4 4 0 0 1 4-4h133v48h-133a4 4 0 0 1-4-4V36Z" fill="#fff"/><path fill-rule="evenodd" clip-rule="evenodd" d="M85.144 47.203a.693.693 0 0 1 0 .98L77.325 56l7.819 7.817a.693.693 0 0 1-.98.98l-8.307-8.307a.692.692 0 0 1 0-.98l8.306-8.307a.692.692 0 0 1 .98 0Z" fill="#0F71BB"/><path d="M109.909 62V50.364h3.932c.913 0 1.659.164 2.239.494.583.326 1.015.767 1.295 1.324s.42 1.178.42 1.863c0 .686-.14 1.31-.42 1.87a3.131 3.131 0 0 1-1.284 1.34c-.58.33-1.322.495-2.227.495h-2.819V56.5h2.773c.625 0 1.127-.108 1.506-.324a1.93 1.93 0 0 0 .824-.875c.174-.371.261-.79.261-1.256a2.89 2.89 0 0 0-.261-1.25 1.867 1.867 0 0 0-.83-.863c-.382-.212-.89-.318-1.523-.318h-2.477V62h-1.409Zm9.975 0v-8.727h1.295v1.318h.091c.159-.432.447-.782.864-1.051a2.54 2.54 0 0 1 1.409-.404c.098 0 .221.002.369.006s.259.01.335.017v1.364a3.926 3.926 0 0 0-.312-.051 3.08 3.08 0 0 0-.506-.04c-.424 0-.803.089-1.136.267a1.956 1.956 0 0 0-1.069 1.778V62h-1.34Zm9.346.182c-.841 0-1.566-.186-2.176-.557a3.733 3.733 0 0 1-1.403-1.568c-.326-.674-.489-1.459-.489-2.352 0-.894.163-1.682.489-2.364.329-.686.787-1.22 1.375-1.602.59-.387 1.28-.58 2.068-.58.454 0 .903.076 1.346.227.444.152.847.398 1.211.739.363.337.653.784.869 1.34.216.558.324 1.243.324 2.058v.568h-6.728v-1.16h5.364c0-.492-.098-.931-.295-1.317a2.232 2.232 0 0 0-.83-.915c-.356-.224-.776-.335-1.261-.335-.534 0-.996.132-1.387.397a2.623 2.623 0 0 0-.892 1.023c-.208.42-.312.871-.312 1.352v.773c0 .66.113 1.218.341 1.676.231.455.551.801.96 1.04.409.235.884.352 1.426.352.352 0 .671-.049.955-.147.288-.103.536-.254.744-.455.208-.205.369-.458.483-.761l1.295.363a2.87 2.87 0 0 1-.687 1.16c-.322.329-.72.587-1.193.772a4.43 4.43 0 0 1-1.597.273Zm12.524-8.91L138.527 62h-1.364l-3.227-8.727h1.455l2.409 6.954h.091l2.409-6.954h1.454Zm1.77 8.728v-8.727h1.341V62h-1.341Zm.682-10.182a.953.953 0 0 1-.676-.267.857.857 0 0 1-.279-.642c0-.25.093-.464.279-.642a.953.953 0 0 1 .676-.267c.261 0 .485.089.67.267.19.178.285.392.285.642s-.095.464-.285.642a.932.932 0 0 1-.67.267Zm6.66 10.364c-.787 0-1.479-.188-2.073-.563-.591-.375-1.053-.9-1.387-1.574-.329-.674-.494-1.462-.494-2.363 0-.91.165-1.703.494-2.38.334-.679.796-1.205 1.387-1.58.594-.375 1.286-.563 2.073-.563.788 0 1.478.188 2.069.563.594.375 1.056.901 1.386 1.58.333.677.5 1.47.5 2.38 0 .901-.167 1.69-.5 2.363-.33.675-.792 1.2-1.386 1.574-.591.375-1.281.563-2.069.563Zm0-1.205c.599 0 1.091-.153 1.478-.46a2.72 2.72 0 0 0 .858-1.21c.185-.5.278-1.042.278-1.625 0-.584-.093-1.127-.278-1.63a2.755 2.755 0 0 0-.858-1.222c-.387-.311-.879-.466-1.478-.466-.598 0-1.09.155-1.477.466-.386.31-.672.717-.858 1.221a4.695 4.695 0 0 0-.278 1.63c0 .584.093 1.126.278 1.626.186.5.472.903.858 1.21.387.307.879.46 1.477.46Zm11.502-2.545v-5.16h1.341V62h-1.341v-1.477h-.091c-.205.443-.523.82-.955 1.13-.431.307-.977.46-1.636.46-.545 0-1.03-.119-1.454-.357-.425-.243-.758-.606-1-1.091-.243-.489-.364-1.104-.364-1.847v-5.545h1.341v5.454c0 .637.178 1.144.534 1.523.36.379.818.568 1.375.568a2.29 2.29 0 0 0 1.017-.255c.348-.171.64-.432.875-.785.239-.352.358-.8.358-1.346Zm9.979-3.205-1.205.341a2.233 2.233 0 0 0-.335-.585 1.628 1.628 0 0 0-.591-.477c-.25-.125-.57-.188-.96-.188-.534 0-.979.123-1.336.37-.352.242-.528.55-.528.926 0 .333.121.596.364.79.242.193.621.354 1.136.482l1.296.319c.78.189 1.361.479 1.744.869.382.386.574.884.574 1.494 0 .5-.144.947-.432 1.341-.284.394-.682.705-1.193.932-.512.227-1.106.34-1.784.34-.891 0-1.627-.192-2.211-.579-.583-.386-.952-.95-1.108-1.693l1.273-.318c.121.47.351.822.688 1.057.341.235.786.352 1.335.352.625 0 1.121-.133 1.488-.398.372-.269.557-.59.557-.966 0-.303-.106-.556-.318-.761-.212-.208-.538-.364-.977-.466l-1.455-.34c-.799-.19-1.386-.484-1.761-.882-.371-.401-.557-.903-.557-1.505 0-.493.138-.928.415-1.307a2.82 2.82 0 0 1 1.142-.892c.485-.216 1.034-.324 1.648-.324.863 0 1.541.19 2.034.568.496.38.848.88 1.057 1.5Z" fill="#0F71BB"/><path d="M189.5 32h.5v-.5h-.5v.5Zm0 48v.5h.5V80h-.5Zm-133-47.5h133v-1h-133v1ZM189 32v48h1V32h-1Zm.5 47.5h-133v1h133v-1ZM53 76V36h-1v40h1Zm3.5 3.5A3.5 3.5 0 0 1 53 76h-1a4.5 4.5 0 0 0 4.5 4.5v-1Zm0-48A4.5 4.5 0 0 0 52 36h1a3.5 3.5 0 0 1 3.5-3.5v-1Z" fill="#98A2B3"/><path fill="#0F71BB" d="M189.5 32h40v48h-40z"/><path d="M189.5 32h40v48h-40V32Z" fill="#0F71BB"/><path d="M210.795 50.364V62h-1.409V51.84h-.068l-2.841 1.887v-1.431l2.909-1.932h1.409Z" fill="#fff"/><path d="M189.5 32v-.5h-.5v.5h.5Zm40 0h.5v-.5h-.5v.5Zm0 48v.5h.5V80h-.5Zm-40 0h-.5v.5h.5V80Zm0-47.5h40v-1h-40v1ZM229 32v48h1V32h-1Zm.5 47.5h-40v1h40v-1ZM190 80V32h-1v48h1Z" fill="#98A2B3"/><path d="M229.5 32h42v48h-42V32Z" fill="#fff"/><path d="M246.705 62v-1.023l3.84-4.204c.451-.493.822-.92 1.114-1.284a4.75 4.75 0 0 0 .648-1.034c.144-.326.216-.667.216-1.023 0-.41-.099-.763-.296-1.063a1.917 1.917 0 0 0-.795-.693 2.58 2.58 0 0 0-1.137-.244c-.447 0-.837.093-1.17.278a1.92 1.92 0 0 0-.767.767c-.178.33-.267.716-.267 1.16h-1.341c0-.682.157-1.28.472-1.796a3.271 3.271 0 0 1 1.284-1.205c.545-.288 1.157-.431 1.835-.431.682 0 1.286.144 1.812.431.527.288.94.676 1.239 1.165.299.489.449 1.032.449 1.63 0 .429-.078.847-.233 1.257-.152.405-.417.857-.796 1.357-.374.497-.895 1.103-1.562 1.819l-2.614 2.795v.091h5.409V62h-7.34Z" fill="#0F71BB"/><path d="M229.5 32v-.5h-.5v.5h.5Zm42 0h.5v-.5h-.5v.5Zm0 48v.5h.5V80h-.5Zm-42 0h-.5v.5h.5V80Zm0-47.5h42v-1h-42v1ZM271 32v48h1V32h-1Zm.5 47.5h-42v1h42v-1ZM230 80V32h-1v48h1Z" fill="#98A2B3"/><path d="M271.5 32h46v48h-46V32Z" fill="#fff"/><path d="M289.705 62.09a.985.985 0 0 1-.722-.3.983.983 0 0 1-.301-.722c0-.28.1-.52.301-.721a.984.984 0 0 1 .722-.302c.28 0 .52.1.721.302.201.2.301.44.301.721a.96.96 0 0 1-.142.512c-.091.155-.214.28-.369.375a.975.975 0 0 1-.511.136Zm4.406 0a.985.985 0 0 1-.722-.3.983.983 0 0 1-.301-.722c0-.28.1-.52.301-.721a.984.984 0 0 1 .722-.302c.28 0 .521.1.721.302.201.2.302.44.302.721a.962.962 0 0 1-.143.512 1.06 1.06 0 0 1-.369.375.972.972 0 0 1-.511.136Zm4.406 0c-.28 0-.521-.1-.722-.3a.987.987 0 0 1-.301-.722c0-.28.101-.52.301-.721a.986.986 0 0 1 .722-.302c.28 0 .521.1.722.302.2.2.301.44.301.721a1.058 1.058 0 0 1-.512.886.972.972 0 0 1-.511.137Z" fill="#0F71BB"/><path d="M271.5 32v-.5h-.5v.5h.5Zm46 0h.5v-.5h-.5v.5Zm0 48v.5h.5V80h-.5Zm-46 0h-.5v.5h.5V80Zm0-47.5h46v-1h-46v1ZM317 32v48h1V32h-1Zm.5 47.5h-46v1h46v-1ZM272 80V32h-1v48h1Z" fill="#98A2B3"/><path d="M317.5 32h43v48h-43V32Z" fill="#fff"/><path d="M338.636 62.16c-.75 0-1.418-.13-2.005-.387-.584-.258-1.048-.616-1.392-1.074a2.884 2.884 0 0 1-.557-1.608h1.432c.03.375.159.699.386.971.227.27.525.478.892.626.367.147.775.221 1.222.221.5 0 .943-.087 1.329-.261.387-.175.69-.417.909-.728.22-.31.33-.67.33-1.08 0-.427-.106-.804-.318-1.13-.212-.33-.523-.587-.932-.773-.409-.185-.909-.278-1.5-.278h-.932v-1.25h.932c.462 0 .867-.083 1.216-.25.352-.167.627-.401.824-.704.2-.303.301-.66.301-1.069a1.96 1.96 0 0 0-.262-1.028 1.786 1.786 0 0 0-.738-.682c-.315-.163-.686-.244-1.114-.244-.401 0-.78.074-1.136.221-.353.144-.64.355-.864.631a1.646 1.646 0 0 0-.364.989h-1.363a2.77 2.77 0 0 1 .551-1.603 3.47 3.47 0 0 1 1.352-1.08 4.37 4.37 0 0 1 1.847-.386c.72 0 1.337.146 1.852.438a3.09 3.09 0 0 1 1.188 1.142c.276.474.414.985.414 1.534 0 .656-.172 1.214-.517 1.676-.341.462-.805.782-1.392.96v.091c.735.122 1.309.434 1.722.938.413.5.619 1.12.619 1.858 0 .633-.172 1.2-.517 1.704-.341.5-.807.894-1.398 1.182-.59.288-1.263.432-2.017.432Z" fill="#0F71BB"/><path d="M317.5 32v-.5h-.5v.5h.5Zm43 0h.5v-.5h-.5v.5Zm0 48v.5h.5V80h-.5Zm-43 0h-.5v.5h.5V80Zm0-47.5h43v-1h-43v1ZM360 32v48h1V32h-1Zm.5 47.5h-43v1h43v-1ZM318 80V32h-1v48h1Z" fill="#98A2B3"/><path fill="#fff" d="M360.5 32h108v48h-108z"/><path d="M360.5 32h104a4 4 0 0 1 4 4v40a4 4 0 0 1-4 4h-104V32Z" fill="#fff"/><path d="M387.136 50.364V62h-1.363l-6.341-9.136h-.114V62h-1.409V50.364h1.364l6.363 9.159h.114v-9.16h1.386Zm6.297 11.818c-.841 0-1.566-.186-2.176-.557a3.733 3.733 0 0 1-1.403-1.568c-.326-.674-.489-1.459-.489-2.352 0-.894.163-1.682.489-2.364.329-.686.788-1.22 1.375-1.602.591-.387 1.28-.58 2.068-.58.454 0 .903.076 1.346.227.444.152.847.398 1.211.739.363.337.653.784.869 1.34.216.558.324 1.243.324 2.058v.568h-6.727v-1.16h5.363c0-.492-.098-.931-.295-1.317a2.225 2.225 0 0 0-.83-.915c-.356-.224-.776-.335-1.261-.335-.534 0-.996.132-1.386.397a2.618 2.618 0 0 0-.893 1.023c-.208.42-.312.871-.312 1.352v.773c0 .66.114 1.218.341 1.676.231.455.551.801.96 1.04.409.235.885.352 1.426.352a2.9 2.9 0 0 0 .955-.147c.288-.103.536-.254.744-.455.208-.205.369-.458.483-.761l1.296.363a2.88 2.88 0 0 1-.688 1.16c-.322.329-.72.587-1.193.772a4.43 4.43 0 0 1-1.597.273Zm6.419-8.91 2.091 3.569 2.091-3.568h1.546l-2.819 4.363L405.58 62h-1.546l-2.091-3.386L399.852 62h-1.545l2.773-4.364-2.773-4.363h1.545Zm11.436 0v1.137h-4.522v-1.136h4.522Zm-3.204-2.09h1.341V59.5c0 .379.055.663.164.852.114.186.258.31.432.375.178.06.366.091.563.091.148 0 .269-.007.363-.023l.228-.045.272 1.205c-.09.034-.217.068-.38.102-.163.038-.37.057-.62.057-.378 0-.75-.082-1.113-.245a2.215 2.215 0 0 1-.898-.744c-.235-.333-.352-.754-.352-1.261v-8.682Z" fill="#0F71BB"/><path fill-rule="evenodd" clip-rule="evenodd" d="M435.857 47.203a.686.686 0 0 1 .755-.15.71.71 0 0 1 .225.15l8.306 8.307a.687.687 0 0 1 .151.756.687.687 0 0 1-.151.224l-8.306 8.307a.694.694 0 0 1-.98-.98L443.675 56l-7.818-7.816a.687.687 0 0 1-.151-.756.687.687 0 0 1 .151-.225Z" fill="#0F71BB"/><path d="M360.5 32v-.5h-.5v.5h.5Zm0 48h-.5v.5h.5V80Zm0-47.5h104v-1h-104v1ZM468 36v40h1V36h-1Zm-3.5 43.5h-104v1h104v-1ZM361 80V32h-1v48h1Zm107-4a3.5 3.5 0 0 1-3.5 3.5v1A4.5 4.5 0 0 0 469 76h-1Zm-3.5-43.5A3.5 3.5 0 0 1 468 36h1a4.5 4.5 0 0 0-4.5-4.5v1Z" fill="#98A2B3"/><path fill="#E8178A" fill-opacity=".24" d="M53 32h416v8H53zm0 40h416v8H53z"/><path fill="#E8178A" fill-opacity=".24" d="M53 32h16v48H53zm400 0h16v48h-16zm-223 0h16v48h-16zm25 0h16v48h-16z"/><path d="M487.5 32v48" stroke="#1745E8"/><rect x="492" y="48.5" width="38" height="18" rx="3" fill="#1745E8"/><path d="M498.479 60.222h3.491V61.5h1.47v-1.278h.902v-1.233h-.902v-4.762h-1.924l-3.037 4.784v1.21Zm3.52-1.233h-1.971v-.056l1.914-3.03h.057v3.086Zm6.081 2.61c1.641 0 2.82-.877 2.823-2.056-.003-.909-.703-1.651-1.577-1.797v-.05a1.632 1.632 0 0 0 1.307-1.611c-.003-1.126-1.083-1.957-2.553-1.957-1.474 0-2.553.83-2.55 1.956a1.616 1.616 0 0 0 1.307 1.613v.05c-.888.145-1.58.887-1.577 1.796-.003 1.18 1.179 2.056 2.82 2.056Zm0-1.129c-.732 0-1.222-.433-1.222-1.047 0-.629.515-1.084 1.222-1.084.703 0 1.221.455 1.221 1.084 0 .617-.493 1.047-1.221 1.047Zm0-3.25c-.614 0-1.051-.4-1.051-.976 0-.568.429-.959 1.051-.959.618 0 1.051.395 1.051.96 0 .575-.44.976-1.051.976Zm3.912 6.325h1.513v-2.919h.046c.21.455.668.963 1.549.963 1.243 0 2.212-.984 2.212-2.81 0-1.874-1.012-2.805-2.209-2.805-.912 0-1.349.544-1.552.988h-.067v-.917h-1.492v7.5Zm1.481-4.772c0-.973.412-1.595 1.147-1.595.749 0 1.147.65 1.147 1.595 0 .951-.405 1.612-1.147 1.612-.728 0-1.147-.64-1.147-1.612Zm5.907-2.728h-1.563l1.563 2.728-1.62 2.727h1.563l1.058-1.886 1.076 1.886h1.545l-1.623-2.727 1.58-2.728h-1.552l-1.026 1.907-1.001-1.907Z" fill="#fff"/><path stroke="#1745E8" d="M484 32.5h7m-7 47h7"/><path d="M52.5 89.5h16" stroke="#E8178A"/><rect x="42.5" y="94" width="36" height="18" rx="3" fill="#E8178A"/><path d="M52.254 99.727h-1.446l-1.8 1.14v1.364l1.665-1.044h.043V107h1.538v-7.273Zm4.52 7.372c1.619.008 2.723-1.054 2.72-2.535.003-1.364-.949-2.347-2.238-2.347-.799 0-1.505.383-1.832 1.026h-.05c.007-1.417.504-2.298 1.453-2.298.557 0 .958.306 1.076.814h1.516c-.146-1.197-1.14-2.131-2.592-2.131-1.797 0-2.951 1.456-2.959 3.899-.003 2.663 1.41 3.565 2.905 3.572Zm-.008-1.207c-.71 0-1.236-.572-1.236-1.282.004-.707.54-1.282 1.247-1.282.71 0 1.228.558 1.225 1.279.003.728-.526 1.285-1.236 1.285Zm3.832 3.153h1.513v-2.919h.046c.21.455.667.963 1.548.963 1.243 0 2.212-.984 2.212-2.809 0-1.875-1.012-2.806-2.208-2.806-.913 0-1.35.544-1.552.988h-.068v-.917h-1.491v7.5Zm1.48-4.772c0-.973.413-1.595 1.148-1.595.749 0 1.147.65 1.147 1.595 0 .951-.405 1.612-1.147 1.612-.728 0-1.147-.639-1.147-1.612Zm5.907-2.728h-1.562l1.562 2.728-1.62 2.727h1.563l1.059-1.886L70.063 107h1.544l-1.623-2.727 1.58-2.728h-1.551l-1.026 1.907-1.002-1.907Z" fill="#fff"/><path stroke="#E8178A" d="M53 93v-7m15 7v-7m163.5 3.5h16"/><rect x="221.5" y="94" width="36" height="18" rx="3" fill="#E8178A"/><path d="M231.254 99.727h-1.446l-1.8 1.14v1.364l1.665-1.044h.043V107h1.538v-7.273Zm4.519 7.372c1.62.008 2.724-1.054 2.72-2.535.004-1.364-.948-2.347-2.237-2.347-.799 0-1.505.383-1.832 1.026h-.05c.007-1.417.504-2.298 1.453-2.298.557 0 .958.306 1.076.814h1.516c-.146-1.197-1.14-2.131-2.592-2.131-1.797 0-2.951 1.456-2.959 3.899-.003 2.663 1.41 3.565 2.905 3.572Zm-.007-1.207c-.71 0-1.236-.572-1.236-1.282.004-.707.54-1.282 1.247-1.282.71 0 1.229.558 1.225 1.279.004.728-.526 1.285-1.236 1.285Zm3.832 3.153h1.513v-2.919h.046c.209.455.667.963 1.548.963 1.243 0 2.212-.984 2.212-2.809 0-1.875-1.012-2.806-2.208-2.806-.913 0-1.35.544-1.552.988h-.068v-.917h-1.491v7.5Zm1.481-4.772c0-.973.412-1.595 1.147-1.595.749 0 1.147.65 1.147 1.595 0 .951-.405 1.612-1.147 1.612-.728 0-1.147-.639-1.147-1.612Zm5.906-2.728h-1.562l1.562 2.728-1.619 2.727h1.562l1.059-1.886 1.075 1.886h1.545l-1.623-2.727 1.581-2.728h-1.552l-1.026 1.907-1.002-1.907Z" fill="#fff"/><path stroke="#E8178A" d="M232 93v-7m15 7v-7m10.5-63.5h16"/><rect x="247.5" width="36" height="18" rx="3" fill="#E8178A"/><path d="M257.254 5.727h-1.446l-1.8 1.14v1.364l1.665-1.044h.043V13h1.538V5.727Zm4.519 7.372c1.62.008 2.724-1.054 2.72-2.535.004-1.364-.948-2.347-2.237-2.347-.799 0-1.505.383-1.832 1.026h-.05c.007-1.417.504-2.298 1.453-2.298.557 0 .958.306 1.076.814h1.516c-.146-1.197-1.14-2.131-2.592-2.131-1.797 0-2.951 1.456-2.959 3.899-.003 2.663 1.41 3.565 2.905 3.572Zm-.007-1.207c-.71 0-1.236-.572-1.236-1.282.004-.707.54-1.282 1.247-1.282.71 0 1.229.558 1.225 1.279.004.728-.526 1.285-1.236 1.285Zm3.832 3.154h1.513v-2.92h.046c.209.455.667.963 1.548.963 1.243 0 2.212-.984 2.212-2.81 0-1.874-1.012-2.805-2.208-2.805-.913 0-1.35.544-1.552.988h-.068v-.917h-1.491v7.5Zm1.481-4.773c0-.973.412-1.595 1.147-1.595.749 0 1.147.65 1.147 1.595 0 .951-.405 1.612-1.147 1.612-.728 0-1.147-.64-1.147-1.612Zm5.906-2.728h-1.562l1.562 2.728L271.366 13h1.562l1.059-1.886L275.062 13h1.545l-1.623-2.727 1.581-2.728h-1.552l-1.026 1.907-1.002-1.907Z" fill="#fff"/><path stroke="#E8178A" d="M258 26v-7m15 7v-7M35.5 32v8M32 32.5h7m-7 7h7"/><rect y="27" width="31" height="18" rx="3" fill="#E8178A"/><path d="M9.303 40.1c1.64 0 2.82-.878 2.823-2.057-.004-.909-.703-1.651-1.577-1.797v-.05a1.633 1.633 0 0 0 1.307-1.611c-.004-1.126-1.083-1.957-2.553-1.957-1.474 0-2.554.83-2.55 1.956a1.615 1.615 0 0 0 1.307 1.613v.05c-.888.145-1.58.887-1.577 1.796-.004 1.18 1.179 2.056 2.82 2.056Zm0-1.13c-.732 0-1.222-.433-1.222-1.047 0-.629.515-1.084 1.222-1.084.703 0 1.221.455 1.221 1.084 0 .617-.493 1.047-1.221 1.047Zm0-3.25c-.615 0-1.052-.4-1.052-.976 0-.568.43-.959 1.052-.959.617 0 1.05.395 1.05.96 0 .575-.44.976-1.05.976Zm3.912 6.325h1.513v-2.919h.046c.21.455.668.963 1.548.963 1.243 0 2.213-.984 2.213-2.81 0-1.874-1.012-2.805-2.21-2.805-.912 0-1.349.544-1.551.988h-.067v-.917h-1.492v7.5Zm1.48-4.772c0-.973.413-1.595 1.148-1.595.75 0 1.147.65 1.147 1.595 0 .951-.405 1.612-1.147 1.612-.728 0-1.147-.64-1.147-1.612Zm5.907-2.728H19.04l1.562 2.728L18.983 40h1.563l1.058-1.886L22.68 40h1.544l-1.622-2.727 1.58-2.728H22.63l-1.026 1.907-1.002-1.907Z" fill="#fff"/><path d="M35.5 72v8" stroke="#E8178A"/><rect y="67" width="31" height="18" rx="3" fill="#E8178A"/><path d="M9.303 80.1c1.64 0 2.82-.878 2.823-2.057-.004-.909-.703-1.651-1.577-1.797v-.05a1.633 1.633 0 0 0 1.307-1.611c-.004-1.126-1.083-1.957-2.553-1.957-1.474 0-2.554.83-2.55 1.957a1.615 1.615 0 0 0 1.307 1.612v.05c-.888.145-1.58.887-1.577 1.796-.004 1.18 1.179 2.056 2.82 2.056Zm0-1.13c-.732 0-1.222-.433-1.222-1.047 0-.629.515-1.084 1.222-1.084.703 0 1.221.455 1.221 1.084 0 .617-.493 1.047-1.221 1.047Zm0-3.25c-.615 0-1.052-.4-1.052-.976 0-.568.43-.959 1.052-.959.617 0 1.05.395 1.05.96 0 .575-.44.976-1.05.976Zm3.912 6.326h1.513v-2.92h.046c.21.455.668.963 1.548.963 1.243 0 2.213-.984 2.213-2.81 0-1.874-1.012-2.805-2.21-2.805-.912 0-1.349.544-1.551.988h-.067v-.916h-1.492v7.5Zm1.48-4.773c0-.973.413-1.595 1.148-1.595.75 0 1.147.65 1.147 1.595 0 .951-.405 1.612-1.147 1.612-.728 0-1.147-.64-1.147-1.612Zm5.907-2.727H19.04l1.562 2.727L18.983 80h1.563l1.058-1.886L22.68 80h1.544l-1.622-2.727 1.58-2.727H22.63l-1.026 1.906-1.002-1.906Z" fill="#fff"/><path stroke="#E8178A" d="M32 72.5h7m-7 7h7m418.5 10h16"/><rect x="447.5" y="94" width="36" height="18" rx="3" fill="#E8178A"/><path d="M457.254 99.727h-1.446l-1.8 1.14v1.364l1.665-1.044h.043V107h1.538v-7.273Zm4.519 7.372c1.62.008 2.724-1.054 2.72-2.535.004-1.364-.948-2.347-2.237-2.347-.799 0-1.505.383-1.832 1.026h-.05c.007-1.417.504-2.298 1.453-2.298.557 0 .958.306 1.076.814h1.516c-.146-1.197-1.14-2.131-2.592-2.131-1.797 0-2.951 1.456-2.959 3.899-.003 2.663 1.41 3.565 2.905 3.572Zm-.007-1.207c-.71 0-1.236-.572-1.236-1.282.004-.707.54-1.282 1.247-1.282.71 0 1.229.558 1.225 1.279.004.728-.526 1.285-1.236 1.285Zm3.832 3.153h1.513v-2.919h.046c.209.455.667.963 1.548.963 1.243 0 2.212-.984 2.212-2.809 0-1.875-1.012-2.806-2.208-2.806-.913 0-1.35.544-1.552.988h-.068v-.917h-1.491v7.5Zm1.481-4.772c0-.973.412-1.595 1.147-1.595.749 0 1.147.65 1.147 1.595 0 .951-.405 1.612-1.147 1.612-.728 0-1.147-.639-1.147-1.612Zm5.906-2.728h-1.562l1.562 2.728-1.619 2.727h1.562l1.059-1.886 1.075 1.886h1.545l-1.623-2.727 1.581-2.728h-1.552l-1.026 1.907-1.002-1.907Z" fill="#fff"/><path stroke="#E8178A" d="M458 93v-7m15 7v-7"/></svg>