<svg width="530" height="112" viewBox="0 0 530 112" fill="none" xmlns="http://www.w3.org/2000/svg">
<path d="M52.5 36C52.5 33.7909 54.2909 32 56.5 32H189.5V80H56.5C54.2909 80 52.5 78.2091 52.5 76V36Z" fill="white"/>
<path d="M52.5 36C52.5 33.7909 54.2909 32 56.5 32H189.5V80H56.5C54.2909 80 52.5 78.2091 52.5 76V36Z" fill="white"/>
<path fill-rule="evenodd" clip-rule="evenodd" d="M85.1435 47.2034C85.2079 47.2677 85.2591 47.3441 85.294 47.4282C85.3289 47.5123 85.3468 47.6024 85.3468 47.6935C85.3468 47.7845 85.3289 47.8747 85.294 47.9588C85.2591 48.0429 85.2079 48.1193 85.1435 48.1836L77.3255 56.0002L85.1435 63.8168C85.2735 63.9468 85.3465 64.1231 85.3465 64.3069C85.3465 64.4907 85.2735 64.667 85.1435 64.797C85.0135 64.927 84.8372 65 84.6534 65C84.4696 65 84.2933 64.927 84.1633 64.797L75.8566 56.4903C75.7921 56.426 75.741 56.3496 75.7061 56.2655C75.6712 56.1814 75.6532 56.0912 75.6532 56.0002C75.6532 55.9091 75.6712 55.819 75.7061 55.7349C75.741 55.6508 75.7921 55.5744 75.8566 55.5101L84.1633 47.2034C84.2276 47.1389 84.304 47.0878 84.3881 47.0529C84.4722 47.018 84.5623 47 84.6534 47C84.7444 47 84.8346 47.018 84.9187 47.0529C85.0028 47.0878 85.0792 47.1389 85.1435 47.2034Z" fill="#0F71BB"/>
<path d="M109.909 62V50.3636H113.841C114.754 50.3636 115.5 50.5284 116.08 50.858C116.663 51.1837 117.095 51.625 117.375 52.1818C117.655 52.7386 117.795 53.3598 117.795 54.0455C117.795 54.7311 117.655 55.3542 117.375 55.9148C117.098 56.4754 116.67 56.9223 116.091 57.2557C115.511 57.5852 114.769 57.75 113.864 57.75H111.045V56.5H113.818C114.443 56.5 114.945 56.392 115.324 56.1761C115.703 55.9602 115.977 55.6686 116.148 55.3011C116.322 54.9299 116.409 54.5114 116.409 54.0455C116.409 53.5795 116.322 53.1629 116.148 52.7955C115.977 52.428 115.701 52.1402 115.318 51.9318C114.936 51.7197 114.428 51.6136 113.795 51.6136H111.318V62H109.909ZM119.884 62V53.2727H121.179V54.5909H121.27C121.429 54.1591 121.717 53.8087 122.134 53.5398C122.55 53.2708 123.02 53.1364 123.543 53.1364C123.641 53.1364 123.764 53.1383 123.912 53.142C124.06 53.1458 124.171 53.1515 124.247 53.1591V54.5227C124.202 54.5114 124.098 54.4943 123.935 54.4716C123.776 54.4451 123.607 54.4318 123.429 54.4318C123.005 54.4318 122.626 54.5208 122.293 54.6989C121.963 54.8731 121.702 55.1155 121.509 55.4261C121.319 55.733 121.224 56.0833 121.224 56.4773V62H119.884ZM129.23 62.1818C128.389 62.1818 127.664 61.9962 127.054 61.625C126.448 61.25 125.98 60.7273 125.651 60.0568C125.325 59.3826 125.162 58.5985 125.162 57.7045C125.162 56.8106 125.325 56.0227 125.651 55.3409C125.98 54.6553 126.438 54.1212 127.026 53.7386C127.616 53.3523 128.306 53.1591 129.094 53.1591C129.548 53.1591 129.997 53.2348 130.44 53.3864C130.884 53.5379 131.287 53.7841 131.651 54.125C132.014 54.4621 132.304 54.9091 132.52 55.4659C132.736 56.0227 132.844 56.7083 132.844 57.5227V58.0909H126.116V56.9318H131.48C131.48 56.4394 131.382 56 131.185 55.6136C130.991 55.2273 130.715 54.9223 130.355 54.6989C129.999 54.4754 129.579 54.3636 129.094 54.3636C128.56 54.3636 128.098 54.4962 127.707 54.7614C127.321 55.0227 127.024 55.3636 126.815 55.7841C126.607 56.2045 126.503 56.6553 126.503 57.1364V57.9091C126.503 58.5682 126.616 59.1269 126.844 59.5852C127.075 60.0398 127.395 60.3864 127.804 60.625C128.213 60.8598 128.688 60.9773 129.23 60.9773C129.582 60.9773 129.901 60.928 130.185 60.8295C130.473 60.7273 130.721 60.5758 130.929 60.375C131.137 60.1705 131.298 59.9167 131.412 59.6136L132.707 59.9773C132.571 60.4167 132.342 60.803 132.02 61.1364C131.698 61.4659 131.3 61.7235 130.827 61.9091C130.353 62.0909 129.821 62.1818 129.23 62.1818ZM141.754 53.2727L138.527 62H137.163L133.936 53.2727H135.391L137.8 60.2273H137.891L140.3 53.2727H141.754ZM143.524 62V53.2727H144.865V62H143.524ZM144.206 51.8182C143.945 51.8182 143.719 51.7292 143.53 51.5511C143.344 51.3731 143.251 51.1591 143.251 50.9091C143.251 50.6591 143.344 50.4451 143.53 50.267C143.719 50.089 143.945 50 144.206 50C144.467 50 144.691 50.089 144.876 50.267C145.066 50.4451 145.161 50.6591 145.161 50.9091C145.161 51.1591 145.066 51.3731 144.876 51.5511C144.691 51.7292 144.467 51.8182 144.206 51.8182ZM150.866 62.1818C150.079 62.1818 149.387 61.9943 148.793 61.6193C148.202 61.2443 147.74 60.7197 147.406 60.0455C147.077 59.3712 146.912 58.5833 146.912 57.6818C146.912 56.7727 147.077 55.9792 147.406 55.3011C147.74 54.6231 148.202 54.0966 148.793 53.7216C149.387 53.3466 150.079 53.1591 150.866 53.1591C151.654 53.1591 152.344 53.3466 152.935 53.7216C153.529 54.0966 153.991 54.6231 154.321 55.3011C154.654 55.9792 154.821 56.7727 154.821 57.6818C154.821 58.5833 154.654 59.3712 154.321 60.0455C153.991 60.7197 153.529 61.2443 152.935 61.6193C152.344 61.9943 151.654 62.1818 150.866 62.1818ZM150.866 60.9773C151.465 60.9773 151.957 60.8239 152.344 60.517C152.73 60.2102 153.016 59.8068 153.202 59.3068C153.387 58.8068 153.48 58.2652 153.48 57.6818C153.48 57.0985 153.387 56.5549 153.202 56.0511C153.016 55.5473 152.73 55.1402 152.344 54.8295C151.957 54.5189 151.465 54.3636 150.866 54.3636C150.268 54.3636 149.776 54.5189 149.389 54.8295C149.003 55.1402 148.717 55.5473 148.531 56.0511C148.346 56.5549 148.253 57.0985 148.253 57.6818C148.253 58.2652 148.346 58.8068 148.531 59.3068C148.717 59.8068 149.003 60.2102 149.389 60.517C149.776 60.8239 150.268 60.9773 150.866 60.9773ZM162.368 58.4318V53.2727H163.709V62H162.368V60.5227H162.277C162.072 60.9659 161.754 61.3428 161.322 61.6534C160.891 61.9602 160.345 62.1136 159.686 62.1136C159.141 62.1136 158.656 61.9943 158.232 61.7557C157.807 61.5133 157.474 61.1496 157.232 60.6648C156.989 60.1761 156.868 59.5606 156.868 58.8182V53.2727H158.209V58.7273C158.209 59.3636 158.387 59.8712 158.743 60.25C159.103 60.6288 159.561 60.8182 160.118 60.8182C160.451 60.8182 160.79 60.733 161.135 60.5625C161.483 60.392 161.775 60.1307 162.01 59.7784C162.249 59.4261 162.368 58.9773 162.368 58.4318ZM172.347 55.2273L171.142 55.5682C171.066 55.3674 170.955 55.1723 170.807 54.983C170.663 54.7898 170.466 54.6307 170.216 54.5057C169.966 54.3807 169.646 54.3182 169.256 54.3182C168.722 54.3182 168.277 54.4413 167.92 54.6875C167.568 54.9299 167.392 55.2386 167.392 55.6136C167.392 55.947 167.513 56.2102 167.756 56.4034C167.998 56.5966 168.377 56.7576 168.892 56.8864L170.188 57.2045C170.968 57.3939 171.549 57.6837 171.932 58.0739C172.314 58.4602 172.506 58.9583 172.506 59.5682C172.506 60.0682 172.362 60.5152 172.074 60.9091C171.79 61.303 171.392 61.6136 170.881 61.8409C170.369 62.0682 169.775 62.1818 169.097 62.1818C168.206 62.1818 167.47 61.9886 166.886 61.6023C166.303 61.2159 165.934 60.6515 165.778 59.9091L167.051 59.5909C167.172 60.0606 167.402 60.4129 167.739 60.6477C168.08 60.8826 168.525 61 169.074 61C169.699 61 170.195 60.8674 170.562 60.6023C170.934 60.3333 171.119 60.0114 171.119 59.6364C171.119 59.3333 171.013 59.0795 170.801 58.875C170.589 58.6667 170.263 58.5114 169.824 58.4091L168.369 58.0682C167.57 57.8788 166.983 57.5852 166.608 57.1875C166.237 56.786 166.051 56.2841 166.051 55.6818C166.051 55.1894 166.189 54.7538 166.466 54.375C166.746 53.9962 167.127 53.6989 167.608 53.483C168.093 53.267 168.642 53.1591 169.256 53.1591C170.119 53.1591 170.797 53.3485 171.29 53.7273C171.786 54.1061 172.138 54.6061 172.347 55.2273Z" fill="#0F71BB"/>
<path d="M189.5 32H190V31.5H189.5V32ZM189.5 80V80.5H190V80H189.5ZM56.5 32.5H189.5V31.5H56.5V32.5ZM189 32V80H190V32H189ZM189.5 79.5H56.5V80.5H189.5V79.5ZM53 76V36H52V76H53ZM56.5 79.5C54.567 79.5 53 77.933 53 76H52C52 78.4853 54.0147 80.5 56.5 80.5V79.5ZM56.5 31.5C54.0147 31.5 52 33.5147 52 36H53C53 34.067 54.567 32.5 56.5 32.5V31.5Z" fill="#98A2B3"/>
<rect width="40" height="48" transform="translate(189.5 32)" fill="#0F71BB"/>
<path d="M189.5 32H229.5V80H189.5V32Z" fill="#0F71BB"/>
<path d="M210.795 50.3636V62H209.386V51.8409H209.318L206.477 53.7273V52.2955L209.386 50.3636H210.795Z" fill="white"/>
<path d="M189.5 32V31.5H189V32H189.5ZM229.5 32H230V31.5H229.5V32ZM229.5 80V80.5H230V80H229.5ZM189.5 80H189V80.5H189.5V80ZM189.5 32.5H229.5V31.5H189.5V32.5ZM229 32V80H230V32H229ZM229.5 79.5H189.5V80.5H229.5V79.5ZM190 80V32H189V80H190Z" fill="#98A2B3"/>
<path d="M229.5 32H271.5V80H229.5V32Z" fill="white"/>
<path d="M246.705 62V60.9773L250.545 56.7727C250.996 56.2803 251.367 55.8523 251.659 55.4886C251.951 55.1212 252.167 54.7765 252.307 54.4545C252.451 54.1288 252.523 53.7879 252.523 53.4318C252.523 53.0227 252.424 52.6686 252.227 52.3693C252.034 52.0701 251.769 51.839 251.432 51.6761C251.095 51.5133 250.716 51.4318 250.295 51.4318C249.848 51.4318 249.458 51.5246 249.125 51.7102C248.795 51.892 248.54 52.1477 248.358 52.4773C248.18 52.8068 248.091 53.1932 248.091 53.6364H246.75C246.75 52.9545 246.907 52.3561 247.222 51.8409C247.536 51.3258 247.964 50.9242 248.506 50.6364C249.051 50.3485 249.663 50.2045 250.341 50.2045C251.023 50.2045 251.627 50.3485 252.153 50.6364C252.68 50.9242 253.093 51.3125 253.392 51.8011C253.691 52.2898 253.841 52.8333 253.841 53.4318C253.841 53.8598 253.763 54.2784 253.608 54.6875C253.456 55.0928 253.191 55.5455 252.812 56.0455C252.438 56.5417 251.917 57.1477 251.25 57.8636L248.636 60.6591V60.75H254.045V62H246.705Z" fill="#0F71BB"/>
<path d="M229.5 32V31.5H229V32H229.5ZM271.5 32H272V31.5H271.5V32ZM271.5 80V80.5H272V80H271.5ZM229.5 80H229V80.5H229.5V80ZM229.5 32.5H271.5V31.5H229.5V32.5ZM271 32V80H272V32H271ZM271.5 79.5H229.5V80.5H271.5V79.5ZM230 80V32H229V80H230Z" fill="#98A2B3"/>
<path d="M271.5 32H317.5V80H271.5V32Z" fill="white"/>
<path d="M289.705 62.0909C289.424 62.0909 289.184 61.9905 288.983 61.7898C288.782 61.589 288.682 61.3485 288.682 61.0682C288.682 60.7879 288.782 60.5473 288.983 60.3466C289.184 60.1458 289.424 60.0455 289.705 60.0455C289.985 60.0455 290.225 60.1458 290.426 60.3466C290.627 60.5473 290.727 60.7879 290.727 61.0682C290.727 61.2538 290.68 61.4242 290.585 61.5795C290.494 61.7348 290.371 61.8598 290.216 61.9545C290.064 62.0455 289.894 62.0909 289.705 62.0909ZM294.111 62.0909C293.83 62.0909 293.59 61.9905 293.389 61.7898C293.188 61.589 293.088 61.3485 293.088 61.0682C293.088 60.7879 293.188 60.5473 293.389 60.3466C293.59 60.1458 293.83 60.0455 294.111 60.0455C294.391 60.0455 294.632 60.1458 294.832 60.3466C295.033 60.5473 295.134 60.7879 295.134 61.0682C295.134 61.2538 295.086 61.4242 294.991 61.5795C294.901 61.7348 294.777 61.8598 294.622 61.9545C294.471 62.0455 294.3 62.0909 294.111 62.0909ZM298.517 62.0909C298.237 62.0909 297.996 61.9905 297.795 61.7898C297.595 61.589 297.494 61.3485 297.494 61.0682C297.494 60.7879 297.595 60.5473 297.795 60.3466C297.996 60.1458 298.237 60.0455 298.517 60.0455C298.797 60.0455 299.038 60.1458 299.239 60.3466C299.439 60.5473 299.54 60.7879 299.54 61.0682C299.54 61.2538 299.492 61.4242 299.398 61.5795C299.307 61.7348 299.184 61.8598 299.028 61.9545C298.877 62.0455 298.706 62.0909 298.517 62.0909Z" fill="#0F71BB"/>
<path d="M271.5 32V31.5H271V32H271.5ZM317.5 32H318V31.5H317.5V32ZM317.5 80V80.5H318V80H317.5ZM271.5 80H271V80.5H271.5V80ZM271.5 32.5H317.5V31.5H271.5V32.5ZM317 32V80H318V32H317ZM317.5 79.5H271.5V80.5H317.5V79.5ZM272 80V32H271V80H272Z" fill="#98A2B3"/>
<path d="M317.5 32H360.5V80H317.5V32Z" fill="white"/>
<path d="M338.636 62.1591C337.886 62.1591 337.218 62.0303 336.631 61.7727C336.047 61.5152 335.583 61.1572 335.239 60.6989C334.898 60.2367 334.712 59.7008 334.682 59.0909H336.114C336.144 59.4659 336.273 59.7898 336.5 60.0625C336.727 60.3314 337.025 60.5398 337.392 60.6875C337.759 60.8352 338.167 60.9091 338.614 60.9091C339.114 60.9091 339.557 60.822 339.943 60.6477C340.33 60.4735 340.633 60.2311 340.852 59.9205C341.072 59.6098 341.182 59.25 341.182 58.8409C341.182 58.4129 341.076 58.036 340.864 57.7102C340.652 57.3807 340.341 57.1231 339.932 56.9375C339.523 56.7519 339.023 56.6591 338.432 56.6591H337.5V55.4091H338.432C338.894 55.4091 339.299 55.3258 339.648 55.1591C340 54.9924 340.275 54.7576 340.472 54.4545C340.672 54.1515 340.773 53.7955 340.773 53.3864C340.773 52.9924 340.686 52.6496 340.511 52.358C340.337 52.0663 340.091 51.839 339.773 51.6761C339.458 51.5133 339.087 51.4318 338.659 51.4318C338.258 51.4318 337.879 51.5057 337.523 51.6534C337.17 51.7973 336.883 52.0076 336.659 52.2841C336.436 52.5568 336.314 52.8864 336.295 53.2727H334.932C334.955 52.6629 335.138 52.1288 335.483 51.6705C335.828 51.2083 336.278 50.8485 336.835 50.5909C337.396 50.3333 338.011 50.2045 338.682 50.2045C339.402 50.2045 340.019 50.3504 340.534 50.642C341.049 50.9299 341.445 51.3106 341.722 51.7841C341.998 52.2576 342.136 52.7689 342.136 53.3182C342.136 53.9735 341.964 54.5322 341.619 54.9943C341.278 55.4564 340.814 55.7765 340.227 55.9545V56.0455C340.962 56.1667 341.536 56.4792 341.949 56.983C342.362 57.483 342.568 58.1023 342.568 58.8409C342.568 59.4735 342.396 60.0417 342.051 60.5455C341.71 61.0455 341.244 61.4394 340.653 61.7273C340.063 62.0152 339.39 62.1591 338.636 62.1591Z" fill="#0F71BB"/>
<path d="M317.5 32V31.5H317V32H317.5ZM360.5 32H361V31.5H360.5V32ZM360.5 80V80.5H361V80H360.5ZM317.5 80H317V80.5H317.5V80ZM317.5 32.5H360.5V31.5H317.5V32.5ZM360 32V80H361V32H360ZM360.5 79.5H317.5V80.5H360.5V79.5ZM318 80V32H317V80H318Z" fill="#98A2B3"/>
<rect width="108" height="48" transform="translate(360.5 32)" fill="white"/>
<path d="M360.5 32H464.5C466.709 32 468.5 33.7909 468.5 36V76C468.5 78.2091 466.709 80 464.5 80H360.5V32Z" fill="white"/>
<path d="M387.136 50.3636V62H385.773L379.432 52.8636H379.318V62H377.909V50.3636H379.273L385.636 59.5227H385.75V50.3636H387.136ZM393.433 62.1818C392.592 62.1818 391.867 61.9962 391.257 61.625C390.651 61.25 390.183 60.7273 389.854 60.0568C389.528 59.3826 389.365 58.5985 389.365 57.7045C389.365 56.8106 389.528 56.0227 389.854 55.3409C390.183 54.6553 390.642 54.1212 391.229 53.7386C391.82 53.3523 392.509 53.1591 393.297 53.1591C393.751 53.1591 394.2 53.2348 394.643 53.3864C395.087 53.5379 395.49 53.7841 395.854 54.125C396.217 54.4621 396.507 54.9091 396.723 55.4659C396.939 56.0227 397.047 56.7083 397.047 57.5227V58.0909H390.32V56.9318H395.683C395.683 56.4394 395.585 56 395.388 55.6136C395.195 55.2273 394.918 54.9223 394.558 54.6989C394.202 54.4754 393.782 54.3636 393.297 54.3636C392.763 54.3636 392.301 54.4962 391.911 54.7614C391.524 55.0227 391.227 55.3636 391.018 55.7841C390.81 56.2045 390.706 56.6553 390.706 57.1364V57.9091C390.706 58.5682 390.82 59.1269 391.047 59.5852C391.278 60.0398 391.598 60.3864 392.007 60.625C392.416 60.8598 392.892 60.9773 393.433 60.9773C393.786 60.9773 394.104 60.928 394.388 60.8295C394.676 60.7273 394.924 60.5758 395.132 60.375C395.34 60.1705 395.501 59.9167 395.615 59.6136L396.911 59.9773C396.774 60.4167 396.545 60.803 396.223 61.1364C395.901 61.4659 395.503 61.7235 395.03 61.9091C394.556 62.0909 394.024 62.1818 393.433 62.1818ZM399.852 53.2727L401.943 56.8409L404.034 53.2727H405.58L402.761 57.6364L405.58 62H404.034L401.943 58.6136L399.852 62H398.307L401.08 57.6364L398.307 53.2727H399.852ZM411.288 53.2727V54.4091H406.766V53.2727H411.288ZM408.084 51.1818H409.425V59.5C409.425 59.8788 409.48 60.1629 409.589 60.3523C409.703 60.5379 409.847 60.6629 410.021 60.7273C410.199 60.7879 410.387 60.8182 410.584 60.8182C410.732 60.8182 410.853 60.8106 410.947 60.7955C411.042 60.7765 411.118 60.7614 411.175 60.75L411.447 61.9545C411.357 61.9886 411.23 62.0227 411.067 62.0568C410.904 62.0947 410.697 62.1136 410.447 62.1136C410.069 62.1136 409.697 62.0322 409.334 61.8693C408.974 61.7064 408.675 61.4583 408.436 61.125C408.201 60.7917 408.084 60.3712 408.084 59.8636V51.1818Z" fill="#0F71BB"/>
<path fill-rule="evenodd" clip-rule="evenodd" d="M435.857 47.2034C435.921 47.1389 435.997 47.0878 436.081 47.0529C436.165 47.018 436.256 47 436.347 47C436.438 47 436.528 47.018 436.612 47.0529C436.696 47.0878 436.772 47.1389 436.837 47.2034L445.143 55.5101C445.208 55.5744 445.259 55.6508 445.294 55.7349C445.329 55.819 445.347 55.9091 445.347 56.0002C445.347 56.0912 445.329 56.1814 445.294 56.2655C445.259 56.3496 445.208 56.426 445.143 56.4903L436.837 64.797C436.707 64.927 436.53 65 436.347 65C436.163 65 435.987 64.927 435.857 64.797C435.727 64.667 435.654 64.4907 435.654 64.3069C435.654 64.1231 435.727 63.9468 435.857 63.8168L443.675 56.0002L435.857 48.1836C435.792 48.1193 435.741 48.0429 435.706 47.9588C435.671 47.8747 435.653 47.7845 435.653 47.6935C435.653 47.6024 435.671 47.5123 435.706 47.4282C435.741 47.3441 435.792 47.2677 435.857 47.2034Z" fill="#0F71BB"/>
<path d="M360.5 32V31.5H360V32H360.5ZM360.5 80H360V80.5H360.5V80ZM360.5 32.5H464.5V31.5H360.5V32.5ZM468 36V76H469V36H468ZM464.5 79.5H360.5V80.5H464.5V79.5ZM361 80V32H360V80H361ZM468 76C468 77.933 466.433 79.5 464.5 79.5V80.5C466.985 80.5 469 78.4853 469 76H468ZM464.5 32.5C466.433 32.5 468 34.067 468 36H469C469 33.5147 466.985 31.5 464.5 31.5V32.5Z" fill="#98A2B3"/>
<rect x="53" y="32" width="416" height="8" fill="#E8178A" fill-opacity="0.24"/>
<rect x="53" y="72" width="416" height="8" fill="#E8178A" fill-opacity="0.24"/>
<rect x="53" y="32" width="16" height="48" fill="#E8178A" fill-opacity="0.24"/>
<rect x="453" y="32" width="16" height="48" fill="#E8178A" fill-opacity="0.24"/>
<rect x="230" y="32" width="16" height="48" fill="#E8178A" fill-opacity="0.24"/>
<rect x="255" y="32" width="16" height="48" fill="#E8178A" fill-opacity="0.24"/>
<path d="M487.5 32V80" stroke="#1745E8"/>
<rect x="492" y="48.5" width="38" height="18" rx="3" fill="#1745E8"/>
<path d="M498.479 60.2216H501.97V61.5H503.44V60.2216H504.342V58.9893H503.44V54.2273H501.516L498.479 59.0107V60.2216ZM501.999 58.9893H500.028V58.9325L501.942 55.9034H501.999V58.9893ZM508.08 61.5994C509.721 61.5994 510.9 60.7223 510.903 59.5433C510.9 58.6342 510.2 57.892 509.326 57.7464V57.6967C510.086 57.5405 510.63 56.8835 510.633 56.0845C510.63 54.9588 509.55 54.1278 508.08 54.1278C506.606 54.1278 505.527 54.9588 505.53 56.0845C505.527 56.88 506.063 57.5405 506.837 57.6967V57.7464C505.949 57.892 505.257 58.6342 505.26 59.5433C505.257 60.7223 506.439 61.5994 508.08 61.5994ZM508.08 60.4702C507.348 60.4702 506.858 60.0369 506.858 59.4226C506.858 58.794 507.373 58.3395 508.08 58.3395C508.783 58.3395 509.301 58.794 509.301 59.4226C509.301 60.0405 508.808 60.4702 508.08 60.4702ZM508.08 57.2209C507.466 57.2209 507.029 56.8196 507.029 56.2443C507.029 55.6761 507.458 55.2855 508.08 55.2855C508.698 55.2855 509.131 55.6797 509.131 56.2443C509.131 56.8196 508.691 57.2209 508.08 57.2209ZM511.992 63.5455H513.505V60.6264H513.551C513.761 61.081 514.219 61.5888 515.1 61.5888C516.343 61.5888 517.312 60.6051 517.312 58.7798C517.312 56.9048 516.3 55.9744 515.103 55.9744C514.191 55.9744 513.754 56.5178 513.551 56.9616H513.484V56.0455H511.992V63.5455ZM513.473 58.7727C513.473 57.7997 513.885 57.1783 514.62 57.1783C515.369 57.1783 515.767 57.8281 515.767 58.7727C515.767 59.7244 515.362 60.3849 514.62 60.3849C513.892 60.3849 513.473 59.7457 513.473 58.7727ZM519.38 56.0455H517.817L519.38 58.7727L517.76 61.5H519.323L520.381 59.6143L521.457 61.5H523.002L521.379 58.7727L522.959 56.0455H521.407L520.381 57.9524L519.38 56.0455Z" fill="white"/>
<line x1="484" y1="32.5" x2="491" y2="32.5" stroke="#1745E8"/>
<line x1="484" y1="79.5" x2="491" y2="79.5" stroke="#1745E8"/>
<path d="M52.5 89.5H68.5" stroke="#E8178A"/>
<rect x="42.5" y="94" width="36" height="18" rx="3" fill="#E8178A"/>
<path d="M52.2536 99.7273H50.8082L49.0078 100.867V102.231L50.6733 101.187H50.7159V107H52.2536V99.7273ZM56.7733 107.099C58.3926 107.107 59.497 106.045 59.4934 104.564C59.497 103.2 58.5453 102.217 57.2562 102.217C56.4572 102.217 55.7505 102.6 55.4238 103.243H55.3741C55.3812 101.826 55.8784 100.945 56.8265 100.945C57.3841 100.945 57.7853 101.251 57.9025 101.759H59.4189C59.2733 100.562 58.2789 99.6278 56.8265 99.6278C55.0297 99.6278 53.8755 101.084 53.8684 103.527C53.8649 106.19 55.2782 107.092 56.7733 107.099ZM56.7662 105.892C56.0559 105.892 55.5304 105.32 55.5304 104.61C55.5339 103.903 56.0701 103.328 56.7768 103.328C57.487 103.328 58.0055 103.886 58.002 104.607C58.0055 105.335 57.4764 105.892 56.7662 105.892ZM60.5978 109.045H62.1106V106.126H62.1568C62.3663 106.581 62.8244 107.089 63.7051 107.089C64.948 107.089 65.9174 106.105 65.9174 104.28C65.9174 102.405 64.9054 101.474 63.7086 101.474C62.796 101.474 62.3592 102.018 62.1568 102.462H62.0893V101.545H60.5978V109.045ZM62.0787 104.273C62.0787 103.3 62.4906 102.678 63.2257 102.678C63.975 102.678 64.3727 103.328 64.3727 104.273C64.3727 105.224 63.9679 105.885 63.2257 105.885C62.4977 105.885 62.0787 105.246 62.0787 104.273ZM67.9851 101.545H66.4226L67.9851 104.273L66.3658 107H67.9283L68.9865 105.114L70.0625 107H71.6072L69.9844 104.273L71.5646 101.545H70.0128L68.9865 103.452L67.9851 101.545Z" fill="white"/>
<line x1="53" y1="93" x2="53" y2="86" stroke="#E8178A"/>
<line x1="68" y1="93" x2="68" y2="86" stroke="#E8178A"/>
<path d="M231.5 89.5H247.5" stroke="#E8178A"/>
<rect x="221.5" y="94" width="36" height="18" rx="3" fill="#E8178A"/>
<path d="M231.254 99.7273H229.808L228.008 100.867V102.231L229.673 101.187H229.716V107H231.254V99.7273ZM235.773 107.099C237.393 107.107 238.497 106.045 238.493 104.564C238.497 103.2 237.545 102.217 236.256 102.217C235.457 102.217 234.751 102.6 234.424 103.243H234.374C234.381 101.826 234.878 100.945 235.827 100.945C236.384 100.945 236.785 101.251 236.903 101.759H238.419C238.273 100.562 237.279 99.6278 235.827 99.6278C234.03 99.6278 232.876 101.084 232.868 103.527C232.865 106.19 234.278 107.092 235.773 107.099ZM235.766 105.892C235.056 105.892 234.53 105.32 234.53 104.61C234.534 103.903 235.07 103.328 235.777 103.328C236.487 103.328 237.006 103.886 237.002 104.607C237.006 105.335 236.476 105.892 235.766 105.892ZM239.598 109.045H241.111V106.126H241.157C241.366 106.581 241.824 107.089 242.705 107.089C243.948 107.089 244.917 106.105 244.917 104.28C244.917 102.405 243.905 101.474 242.709 101.474C241.796 101.474 241.359 102.018 241.157 102.462H241.089V101.545H239.598V109.045ZM241.079 104.273C241.079 103.3 241.491 102.678 242.226 102.678C242.975 102.678 243.373 103.328 243.373 104.273C243.373 105.224 242.968 105.885 242.226 105.885C241.498 105.885 241.079 105.246 241.079 104.273ZM246.985 101.545H245.423L246.985 104.273L245.366 107H246.928L247.987 105.114L249.062 107H250.607L248.984 104.273L250.565 101.545H249.013L247.987 103.452L246.985 101.545Z" fill="white"/>
<line x1="232" y1="93" x2="232" y2="86" stroke="#E8178A"/>
<line x1="247" y1="93" x2="247" y2="86" stroke="#E8178A"/>
<path d="M257.5 22.5H273.5" stroke="#E8178A"/>
<rect x="247.5" width="36" height="18" rx="3" fill="#E8178A"/>
<path d="M257.254 5.72727H255.808L254.008 6.86719V8.23082L255.673 7.18679H255.716V13H257.254V5.72727ZM261.773 13.0994C263.393 13.1065 264.497 12.0447 264.493 10.5639C264.497 9.20028 263.545 8.21662 262.256 8.21662C261.457 8.21662 260.751 8.60014 260.424 9.2429H260.374C260.381 7.82599 260.878 6.94531 261.827 6.94531C262.384 6.94531 262.785 7.25071 262.903 7.75852H264.419C264.273 6.56179 263.279 5.62784 261.827 5.62784C260.03 5.62784 258.876 7.08381 258.868 9.52699C258.865 12.1903 260.278 13.0923 261.773 13.0994ZM261.766 11.892C261.056 11.892 260.53 11.3203 260.53 10.6101C260.534 9.90341 261.07 9.32812 261.777 9.32812C262.487 9.32812 263.006 9.88565 263.002 10.6065C263.006 11.3345 262.476 11.892 261.766 11.892ZM265.598 15.0455H267.111V12.1264H267.157C267.366 12.581 267.824 13.0888 268.705 13.0888C269.948 13.0888 270.917 12.1051 270.917 10.2798C270.917 8.40483 269.905 7.47443 268.709 7.47443C267.796 7.47443 267.359 8.01776 267.157 8.46165H267.089V7.54545H265.598V15.0455ZM267.079 10.2727C267.079 9.29972 267.491 8.67827 268.226 8.67827C268.975 8.67827 269.373 9.32812 269.373 10.2727C269.373 11.2244 268.968 11.8849 268.226 11.8849C267.498 11.8849 267.079 11.2457 267.079 10.2727ZM272.985 7.54545H271.423L272.985 10.2727L271.366 13H272.928L273.987 11.1143L275.062 13H276.607L274.984 10.2727L276.565 7.54545H275.013L273.987 9.45241L272.985 7.54545Z" fill="white"/>
<line x1="258" y1="26" x2="258" y2="19" stroke="#E8178A"/>
<line x1="273" y1="26" x2="273" y2="19" stroke="#E8178A"/>
<path d="M35.5 32V40" stroke="#E8178A"/>
<line x1="32" y1="32.5" x2="39" y2="32.5" stroke="#E8178A"/>
<line x1="32" y1="39.5" x2="39" y2="39.5" stroke="#E8178A"/>
<rect y="27" width="31" height="18" rx="3" fill="#E8178A"/>
<path d="M9.30256 40.0994C10.9432 40.0994 12.1222 39.2223 12.1257 38.0433C12.1222 37.1342 11.4226 36.392 10.549 36.2464V36.1967C11.3089 36.0405 11.8523 35.3835 11.8558 34.5845C11.8523 33.4588 10.7727 32.6278 9.30256 32.6278C7.82884 32.6278 6.74929 33.4588 6.75284 34.5845C6.74929 35.38 7.28551 36.0405 8.05966 36.1967V36.2464C7.17188 36.392 6.4794 37.1342 6.48295 38.0433C6.4794 39.2223 7.66193 40.0994 9.30256 40.0994ZM9.30256 38.9702C8.57102 38.9702 8.08097 38.5369 8.08097 37.9226C8.08097 37.294 8.59588 36.8395 9.30256 36.8395C10.0057 36.8395 10.5241 37.294 10.5241 37.9226C10.5241 38.5405 10.0305 38.9702 9.30256 38.9702ZM9.30256 35.7209C8.68821 35.7209 8.25142 35.3196 8.25142 34.7443C8.25142 34.1761 8.68111 33.7855 9.30256 33.7855C9.92045 33.7855 10.3537 34.1797 10.3537 34.7443C10.3537 35.3196 9.91335 35.7209 9.30256 35.7209ZM13.215 42.0455H14.7278V39.1264H14.774C14.9835 39.581 15.4416 40.0888 16.3223 40.0888C17.5652 40.0888 18.5346 39.1051 18.5346 37.2798C18.5346 35.4048 17.5225 34.4744 16.3258 34.4744C15.4132 34.4744 14.9764 35.0178 14.774 35.4616H14.7065V34.5455H13.215V42.0455ZM14.6958 37.2727C14.6958 36.2997 15.1078 35.6783 15.8429 35.6783C16.5922 35.6783 16.9899 36.3281 16.9899 37.2727C16.9899 38.2244 16.585 38.8849 15.8429 38.8849C15.1149 38.8849 14.6958 38.2457 14.6958 37.2727ZM20.6023 34.5455H19.0398L20.6023 37.2727L18.983 40H20.5455L21.6037 38.1143L22.6797 40H24.2244L22.6016 37.2727L24.1818 34.5455H22.63L21.6037 36.4524L20.6023 34.5455Z" fill="white"/>
<path d="M35.5 72V80" stroke="#E8178A"/>
<rect y="67" width="31" height="18" rx="3" fill="#E8178A"/>
<path d="M9.30256 80.0994C10.9432 80.0994 12.1222 79.2223 12.1257 78.0433C12.1222 77.1342 11.4226 76.392 10.549 76.2464V76.1967C11.3089 76.0405 11.8523 75.3835 11.8558 74.5845C11.8523 73.4588 10.7727 72.6278 9.30256 72.6278C7.82884 72.6278 6.74929 73.4588 6.75284 74.5845C6.74929 75.38 7.28551 76.0405 8.05966 76.1967V76.2464C7.17188 76.392 6.4794 77.1342 6.48295 78.0433C6.4794 79.2223 7.66193 80.0994 9.30256 80.0994ZM9.30256 78.9702C8.57102 78.9702 8.08097 78.5369 8.08097 77.9226C8.08097 77.294 8.59588 76.8395 9.30256 76.8395C10.0057 76.8395 10.5241 77.294 10.5241 77.9226C10.5241 78.5405 10.0305 78.9702 9.30256 78.9702ZM9.30256 75.7209C8.68821 75.7209 8.25142 75.3196 8.25142 74.7443C8.25142 74.1761 8.68111 73.7855 9.30256 73.7855C9.92045 73.7855 10.3537 74.1797 10.3537 74.7443C10.3537 75.3196 9.91335 75.7209 9.30256 75.7209ZM13.215 82.0455H14.7278V79.1264H14.774C14.9835 79.581 15.4416 80.0888 16.3223 80.0888C17.5652 80.0888 18.5346 79.1051 18.5346 77.2798C18.5346 75.4048 17.5225 74.4744 16.3258 74.4744C15.4132 74.4744 14.9764 75.0178 14.774 75.4616H14.7065V74.5455H13.215V82.0455ZM14.6958 77.2727C14.6958 76.2997 15.1078 75.6783 15.8429 75.6783C16.5922 75.6783 16.9899 76.3281 16.9899 77.2727C16.9899 78.2244 16.585 78.8849 15.8429 78.8849C15.1149 78.8849 14.6958 78.2457 14.6958 77.2727ZM20.6023 74.5455H19.0398L20.6023 77.2727L18.983 80H20.5455L21.6037 78.1143L22.6797 80H24.2244L22.6016 77.2727L24.1818 74.5455H22.63L21.6037 76.4524L20.6023 74.5455Z" fill="white"/>
<line x1="32" y1="72.5" x2="39" y2="72.5" stroke="#E8178A"/>
<line x1="32" y1="79.5" x2="39" y2="79.5" stroke="#E8178A"/>
<path d="M457.5 89.5H473.5" stroke="#E8178A"/>
<rect x="447.5" y="94" width="36" height="18" rx="3" fill="#E8178A"/>
<path d="M457.254 99.7273H455.808L454.008 100.867V102.231L455.673 101.187H455.716V107H457.254V99.7273ZM461.773 107.099C463.393 107.107 464.497 106.045 464.493 104.564C464.497 103.2 463.545 102.217 462.256 102.217C461.457 102.217 460.751 102.6 460.424 103.243H460.374C460.381 101.826 460.878 100.945 461.827 100.945C462.384 100.945 462.785 101.251 462.903 101.759H464.419C464.273 100.562 463.279 99.6278 461.827 99.6278C460.03 99.6278 458.876 101.084 458.868 103.527C458.865 106.19 460.278 107.092 461.773 107.099ZM461.766 105.892C461.056 105.892 460.53 105.32 460.53 104.61C460.534 103.903 461.07 103.328 461.777 103.328C462.487 103.328 463.006 103.886 463.002 104.607C463.006 105.335 462.476 105.892 461.766 105.892ZM465.598 109.045H467.111V106.126H467.157C467.366 106.581 467.824 107.089 468.705 107.089C469.948 107.089 470.917 106.105 470.917 104.28C470.917 102.405 469.905 101.474 468.709 101.474C467.796 101.474 467.359 102.018 467.157 102.462H467.089V101.545H465.598V109.045ZM467.079 104.273C467.079 103.3 467.491 102.678 468.226 102.678C468.975 102.678 469.373 103.328 469.373 104.273C469.373 105.224 468.968 105.885 468.226 105.885C467.498 105.885 467.079 105.246 467.079 104.273ZM472.985 101.545H471.423L472.985 104.273L471.366 107H472.928L473.987 105.114L475.062 107H476.607L474.984 104.273L476.565 101.545H475.013L473.987 103.452L472.985 101.545Z" fill="white"/>
<line x1="458" y1="93" x2="458" y2="86" stroke="#E8178A"/>
<line x1="473" y1="93" x2="473" y2="86" stroke="#E8178A"/>
</svg>
