<svg width="339" height="292" viewBox="0 0 339 292" fill="none" xmlns="http://www.w3.org/2000/svg">
<circle cx="216" cy="74" r="12" fill="#344054"/>
<path d="M211.943 80V78.2273L216.085 74.392C216.438 74.0511 216.733 73.7443 216.972 73.4716C217.214 73.1989 217.398 72.9318 217.523 72.6705C217.648 72.4053 217.71 72.1193 217.71 71.8125C217.71 71.4716 217.633 71.178 217.477 70.9318C217.322 70.6818 217.11 70.4905 216.841 70.358C216.572 70.2216 216.267 70.1534 215.926 70.1534C215.57 70.1534 215.259 70.2254 214.994 70.3693C214.729 70.5133 214.525 70.7197 214.381 70.9886C214.237 71.2576 214.165 71.5777 214.165 71.9489H211.83C211.83 71.1875 212.002 70.5265 212.347 69.9659C212.691 69.4053 213.174 68.9716 213.795 68.6648C214.417 68.358 215.133 68.2045 215.943 68.2045C216.777 68.2045 217.502 68.3523 218.119 68.6477C218.741 68.9394 219.223 69.3447 219.568 69.8636C219.913 70.3826 220.085 70.9773 220.085 71.6477C220.085 72.0871 219.998 72.5208 219.824 72.9489C219.653 73.3769 219.348 73.8523 218.909 74.375C218.47 74.8939 217.85 75.517 217.051 76.2443L215.352 77.9091V77.9886H220.239V80H211.943Z" fill="white"/>
<path d="M207 74L155 74.5" stroke="#344054" stroke-dasharray="2 2"/>
<path d="M329 272L329 291" stroke="#344054" stroke-dasharray="2 2"/>
<path d="M329 258L277 258.5" stroke="#344054" stroke-dasharray="2 2"/>
<circle cx="79" cy="16" r="12" fill="#344054"/>
<path d="M81.0057 10.3636V22H78.5455V12.6989H78.4773L75.8125 14.3693V12.1875L78.6932 10.3636H81.0057Z" fill="white"/>
<path d="M76 16H32V58" stroke="#344054" stroke-dasharray="2 2"/>
<circle cx="327" cy="258" r="12" fill="#344054"/>
<path d="M321.767 261.955V260.017L326.625 252.364H328.295V255.045H327.307L324.244 259.892V259.983H331.148V261.955H321.767ZM327.352 264V261.364L327.398 260.506V252.364H329.705V264H327.352Z" fill="white"/>
<path d="M328 291H9.99999V268" stroke="#344054" stroke-dasharray="2 2"/>
<path d="M0 55C0 52.2386 2.23858 50 5 50H166C168.761 50 171 52.2386 171 55V93C171 95.7614 168.761 98 166 98H5C2.23858 98 0 95.7614 0 93V55Z" fill="#5925DC"/>
<path d="M20.75 76.9257C20.9489 76.9257 21.1397 77.0047 21.2803 77.1453C21.421 77.286 21.5 77.4768 21.5 77.6757V81.4257C21.5 81.8235 21.658 82.205 21.9393 82.4863C22.2206 82.7676 22.6022 82.9257 23 82.9257H41C41.3978 82.9257 41.7794 82.7676 42.0607 82.4863C42.342 82.205 42.5 81.8235 42.5 81.4257V77.6757C42.5 77.4768 42.579 77.286 42.7197 77.1453C42.8603 77.0047 43.0511 76.9257 43.25 76.9257C43.4489 76.9257 43.6397 77.0047 43.7803 77.1453C43.921 77.286 44 77.4768 44 77.6757V81.4257C44 82.2213 43.6839 82.9844 43.1213 83.547C42.5587 84.1096 41.7957 84.4257 41 84.4257H23C22.2044 84.4257 21.4413 84.1096 20.8787 83.547C20.3161 82.9844 20 82.2213 20 81.4257V77.6757C20 77.4768 20.079 77.286 20.2197 77.1453C20.3603 77.0047 20.5511 76.9257 20.75 76.9257Z" fill="white"/>
<path d="M31.469 63.7947C31.5387 63.7248 31.6214 63.6694 31.7126 63.6316C31.8037 63.5938 31.9014 63.5743 32 63.5743C32.0987 63.5743 32.1963 63.5938 32.2875 63.6316C32.3786 63.6694 32.4613 63.7248 32.531 63.7947L37.031 68.2947C37.1718 68.4355 37.251 68.6265 37.251 68.8257C37.251 69.0248 37.1718 69.2159 37.031 69.3567C36.8902 69.4975 36.6992 69.5766 36.5 69.5766C36.3008 69.5766 36.1098 69.4975 35.969 69.3567L32.75 66.1362V79.3257C32.75 79.5246 32.671 79.7154 32.5303 79.856C32.3897 79.9967 32.1989 80.0757 32 80.0757C31.8011 80.0757 31.6103 79.9967 31.4697 79.856C31.329 79.7154 31.25 79.5246 31.25 79.3257V66.1362L28.031 69.3567C27.9613 69.4264 27.8785 69.4817 27.7874 69.5195C27.6963 69.5572 27.5986 69.5766 27.5 69.5766C27.4014 69.5766 27.3037 69.5572 27.2126 69.5195C27.1215 69.4817 27.0387 69.4264 26.969 69.3567C26.8993 69.287 26.844 69.2042 26.8062 69.1131C26.7685 69.0219 26.7491 68.9243 26.7491 68.8257C26.7491 68.7271 26.7685 68.6294 26.8062 68.5383C26.844 68.4472 26.8993 68.3644 26.969 68.2947L31.469 63.7947Z" fill="white"/>
<path d="M66.9993 72H65.5902C65.5069 71.5947 65.361 71.2386 65.1527 70.9318C64.9482 70.625 64.6982 70.3674 64.4027 70.1591C64.111 69.947 63.7872 69.7879 63.4311 69.6818C63.075 69.5758 62.7038 69.5227 62.3175 69.5227C61.6129 69.5227 60.9747 69.7008 60.4027 70.0568C59.8345 70.4129 59.3819 70.9375 59.0447 71.6307C58.7114 72.3239 58.5447 73.1742 58.5447 74.1818C58.5447 75.1894 58.7114 76.0398 59.0447 76.733C59.3819 77.4261 59.8345 77.9508 60.4027 78.3068C60.9747 78.6629 61.6129 78.8409 62.3175 78.8409C62.7038 78.8409 63.075 78.7879 63.4311 78.6818C63.7872 78.5758 64.111 78.4186 64.4027 78.2102C64.6982 77.9981 64.9482 77.7386 65.1527 77.4318C65.361 77.1212 65.5069 76.7652 65.5902 76.3636H66.9993C66.8932 76.9583 66.7 77.4905 66.4197 77.9602C66.1394 78.4299 65.791 78.8295 65.3743 79.1591C64.9576 79.4848 64.4898 79.733 63.9709 79.9034C63.4557 80.0739 62.9046 80.1591 62.3175 80.1591C61.325 80.1591 60.4425 79.9167 59.6697 79.4318C58.897 78.947 58.2891 78.2576 57.8459 77.3636C57.4027 76.4697 57.1811 75.4091 57.1811 74.1818C57.1811 72.9545 57.4027 71.8939 57.8459 71C58.2891 70.1061 58.897 69.4167 59.6697 68.9318C60.4425 68.447 61.325 68.2045 62.3175 68.2045C62.9046 68.2045 63.4557 68.2898 63.9709 68.4602C64.4898 68.6307 64.9576 68.8807 65.3743 69.2102C65.791 69.536 66.1394 69.9337 66.4197 70.4034C66.7 70.8693 66.8932 71.4015 66.9993 72ZM70.4354 74.75V80H69.0945V68.3636H70.4354V72.6364H70.549C70.7536 72.1856 71.0604 71.8277 71.4695 71.5625C71.8823 71.2936 72.4316 71.1591 73.1172 71.1591C73.7119 71.1591 74.2327 71.2784 74.6797 71.517C75.1267 71.7519 75.4732 72.1136 75.7195 72.6023C75.9695 73.0871 76.0945 73.7045 76.0945 74.4545V80H74.7536V74.5455C74.7536 73.8523 74.5736 73.3163 74.2138 72.9375C73.8577 72.5549 73.3634 72.3636 72.7308 72.3636C72.2914 72.3636 71.8975 72.4564 71.549 72.642C71.2043 72.8277 70.9316 73.0985 70.7308 73.4545C70.5339 73.8106 70.4354 74.2424 70.4354 74.75ZM82.093 80.1818C81.3052 80.1818 80.6139 79.9943 80.0192 79.6193C79.4283 79.2443 78.9661 78.7197 78.6328 78.0455C78.3033 77.3712 78.1385 76.5833 78.1385 75.6818C78.1385 74.7727 78.3033 73.9792 78.6328 73.3011C78.9661 72.6231 79.4283 72.0966 80.0192 71.7216C80.6139 71.3466 81.3052 71.1591 82.093 71.1591C82.8809 71.1591 83.5703 71.3466 84.1612 71.7216C84.7559 72.0966 85.218 72.6231 85.5476 73.3011C85.8809 73.9792 86.0476 74.7727 86.0476 75.6818C86.0476 76.5833 85.8809 77.3712 85.5476 78.0455C85.218 78.7197 84.7559 79.2443 84.1612 79.6193C83.5703 79.9943 82.8809 80.1818 82.093 80.1818ZM82.093 78.9773C82.6915 78.9773 83.1839 78.8239 83.5703 78.517C83.9567 78.2102 84.2427 77.8068 84.4283 77.3068C84.6139 76.8068 84.7067 76.2652 84.7067 75.6818C84.7067 75.0985 84.6139 74.5549 84.4283 74.0511C84.2427 73.5473 83.9567 73.1402 83.5703 72.8295C83.1839 72.5189 82.6915 72.3636 82.093 72.3636C81.4946 72.3636 81.0021 72.5189 80.6158 72.8295C80.2294 73.1402 79.9434 73.5473 79.7578 74.0511C79.5722 74.5549 79.4794 75.0985 79.4794 75.6818C79.4794 76.2652 79.5722 76.8068 79.7578 77.3068C79.9434 77.8068 80.2294 78.2102 80.6158 78.517C81.0021 78.8239 81.4946 78.9773 82.093 78.9773ZM91.6399 80.1818C90.852 80.1818 90.1607 79.9943 89.5661 79.6193C88.9751 79.2443 88.513 78.7197 88.1797 78.0455C87.8501 77.3712 87.6854 76.5833 87.6854 75.6818C87.6854 74.7727 87.8501 73.9792 88.1797 73.3011C88.513 72.6231 88.9751 72.0966 89.5661 71.7216C90.1607 71.3466 90.852 71.1591 91.6399 71.1591C92.4278 71.1591 93.1172 71.3466 93.7081 71.7216C94.3028 72.0966 94.7649 72.6231 95.0945 73.3011C95.4278 73.9792 95.5945 74.7727 95.5945 75.6818C95.5945 76.5833 95.4278 77.3712 95.0945 78.0455C94.7649 78.7197 94.3028 79.2443 93.7081 79.6193C93.1172 79.9943 92.4278 80.1818 91.6399 80.1818ZM91.6399 78.9773C92.2384 78.9773 92.7308 78.8239 93.1172 78.517C93.5036 78.2102 93.7895 77.8068 93.9751 77.3068C94.1607 76.8068 94.2536 76.2652 94.2536 75.6818C94.2536 75.0985 94.1607 74.5549 93.9751 74.0511C93.7895 73.5473 93.5036 73.1402 93.1172 72.8295C92.7308 72.5189 92.2384 72.3636 91.6399 72.3636C91.0414 72.3636 90.549 72.5189 90.1626 72.8295C89.7763 73.1402 89.4903 73.5473 89.3047 74.0511C89.1191 74.5549 89.0263 75.0985 89.0263 75.6818C89.0263 76.2652 89.1191 76.8068 89.3047 77.3068C89.4903 77.8068 89.7763 78.2102 90.1626 78.517C90.549 78.8239 91.0414 78.9773 91.6399 78.9773ZM103.823 73.2273L102.619 73.5682C102.543 73.3674 102.431 73.1723 102.283 72.983C102.139 72.7898 101.942 72.6307 101.692 72.5057C101.442 72.3807 101.122 72.3182 100.732 72.3182C100.198 72.3182 99.7531 72.4413 99.397 72.6875C99.0447 72.9299 98.8686 73.2386 98.8686 73.6136C98.8686 73.947 98.9898 74.2102 99.2322 74.4034C99.4747 74.5966 99.8535 74.7576 100.369 74.8864L101.664 75.2045C102.444 75.3939 103.026 75.6837 103.408 76.0739C103.791 76.4602 103.982 76.9583 103.982 77.5682C103.982 78.0682 103.838 78.5152 103.55 78.9091C103.266 79.303 102.869 79.6136 102.357 79.8409C101.846 80.0682 101.251 80.1818 100.573 80.1818C99.683 80.1818 98.9463 79.9886 98.3629 79.6023C97.7796 79.2159 97.4103 78.6515 97.255 77.9091L98.5277 77.5909C98.6489 78.0606 98.8781 78.4129 99.2152 78.6477C99.5561 78.8826 100.001 79 100.55 79C101.175 79 101.672 78.8674 102.039 78.6023C102.41 78.3333 102.596 78.0114 102.596 77.6364C102.596 77.3333 102.49 77.0795 102.278 76.875C102.066 76.6667 101.74 76.5114 101.3 76.4091L99.8459 76.0682C99.0466 75.8788 98.4595 75.5852 98.0845 75.1875C97.7133 74.786 97.5277 74.2841 97.5277 73.6818C97.5277 73.1894 97.666 72.7538 97.9425 72.375C98.2228 71.9962 98.6035 71.6989 99.0845 71.483C99.5694 71.267 100.119 71.1591 100.732 71.1591C101.596 71.1591 102.274 71.3485 102.766 71.7273C103.263 72.1061 103.615 72.6061 103.823 73.2273ZM109.66 80.1818C108.819 80.1818 108.094 79.9962 107.484 79.625C106.878 79.25 106.41 78.7273 106.08 78.0568C105.754 77.3826 105.592 76.5985 105.592 75.7045C105.592 74.8106 105.754 74.0227 106.08 73.3409C106.41 72.6553 106.868 72.1212 107.455 71.7386C108.046 71.3523 108.736 71.1591 109.523 71.1591C109.978 71.1591 110.427 71.2348 110.87 71.3864C111.313 71.5379 111.717 71.7841 112.08 72.125C112.444 72.4621 112.734 72.9091 112.95 73.4659C113.165 74.0227 113.273 74.7083 113.273 75.5227V76.0909H106.546V74.9318H111.91C111.91 74.4394 111.811 74 111.614 73.6136C111.421 73.2273 111.145 72.9223 110.785 72.6989C110.429 72.4754 110.008 72.3636 109.523 72.3636C108.989 72.3636 108.527 72.4962 108.137 72.7614C107.751 73.0227 107.453 73.3636 107.245 73.7841C107.037 74.2045 106.933 74.6553 106.933 75.1364V75.9091C106.933 76.5682 107.046 77.1269 107.273 77.5852C107.504 78.0398 107.825 78.3864 108.234 78.625C108.643 78.8598 109.118 78.9773 109.66 78.9773C110.012 78.9773 110.33 78.928 110.614 78.8295C110.902 78.7273 111.15 78.5758 111.359 78.375C111.567 78.1705 111.728 77.9167 111.842 77.6136L113.137 77.9773C113.001 78.4167 112.772 78.803 112.45 79.1364C112.128 79.4659 111.73 79.7235 111.256 79.9091C110.783 80.0909 110.251 80.1818 109.66 80.1818ZM122.381 80.2045C121.828 80.2045 121.326 80.1004 120.876 79.892C120.425 79.6799 120.067 79.375 119.802 78.9773C119.537 78.5758 119.404 78.0909 119.404 77.5227C119.404 77.0227 119.503 76.6174 119.7 76.3068C119.897 75.9924 120.16 75.7462 120.489 75.5682C120.819 75.3902 121.183 75.2576 121.58 75.1705C121.982 75.0795 122.385 75.0076 122.79 74.9545C123.321 74.8864 123.751 74.8352 124.08 74.8011C124.414 74.7633 124.656 74.7008 124.808 74.6136C124.963 74.5265 125.04 74.375 125.04 74.1591V74.1136C125.04 73.553 124.887 73.1174 124.58 72.8068C124.277 72.4962 123.817 72.3409 123.2 72.3409C122.559 72.3409 122.058 72.4811 121.694 72.7614C121.33 73.0417 121.075 73.3409 120.927 73.6591L119.654 73.2045C119.881 72.6742 120.184 72.2614 120.563 71.9659C120.946 71.6667 121.362 71.4583 121.813 71.3409C122.268 71.2197 122.715 71.1591 123.154 71.1591C123.434 71.1591 123.756 71.1932 124.12 71.2614C124.487 71.3258 124.842 71.4602 125.183 71.6648C125.527 71.8693 125.813 72.178 126.04 72.5909C126.268 73.0038 126.381 73.5568 126.381 74.25V80H125.04V78.8182H124.972C124.881 79.0076 124.73 79.2102 124.518 79.4261C124.306 79.642 124.023 79.8258 123.671 79.9773C123.319 80.1288 122.889 80.2045 122.381 80.2045ZM122.586 79C123.116 79 123.563 78.8958 123.927 78.6875C124.294 78.4792 124.571 78.2102 124.756 77.8807C124.946 77.5511 125.04 77.2045 125.04 76.8409V75.6136C124.984 75.6818 124.859 75.7443 124.665 75.8011C124.476 75.8542 124.256 75.9015 124.006 75.9432C123.76 75.9811 123.52 76.0152 123.285 76.0455C123.054 76.072 122.866 76.0947 122.722 76.1136C122.374 76.1591 122.048 76.233 121.745 76.3352C121.446 76.4337 121.203 76.5833 121.018 76.7841C120.836 76.9811 120.745 77.25 120.745 77.5909C120.745 78.0568 120.917 78.4091 121.262 78.6477C121.611 78.8826 122.052 79 122.586 79ZM137.215 71.2727V72.4091H132.511V71.2727H137.215ZM133.92 80V70.0682C133.92 69.5682 134.037 69.1515 134.272 68.8182C134.507 68.4848 134.812 68.2348 135.187 68.0682C135.562 67.9015 135.958 67.8182 136.374 67.8182C136.704 67.8182 136.973 67.8447 137.181 67.8977C137.389 67.9508 137.545 68 137.647 68.0455L137.261 69.2045C137.192 69.1818 137.098 69.1534 136.977 69.1193C136.859 69.0852 136.704 69.0682 136.511 69.0682C136.067 69.0682 135.747 69.1799 135.55 69.4034C135.357 69.6269 135.261 69.9545 135.261 70.3864V80H133.92ZM139.094 80V71.2727H140.435V80H139.094ZM139.776 69.8182C139.515 69.8182 139.29 69.7292 139.1 69.5511C138.915 69.3731 138.822 69.1591 138.822 68.9091C138.822 68.6591 138.915 68.4451 139.1 68.267C139.29 68.089 139.515 68 139.776 68C140.038 68 140.261 68.089 140.447 68.267C140.636 68.4451 140.731 68.6591 140.731 68.9091C140.731 69.1591 140.636 69.3731 140.447 69.5511C140.261 69.7292 140.038 69.8182 139.776 69.8182ZM144.232 68.3636V80H142.891V68.3636H144.232ZM150.347 80.1818C149.506 80.1818 148.781 79.9962 148.171 79.625C147.565 79.25 147.097 78.7273 146.768 78.0568C146.442 77.3826 146.279 76.5985 146.279 75.7045C146.279 74.8106 146.442 74.0227 146.768 73.3409C147.097 72.6553 147.556 72.1212 148.143 71.7386C148.734 71.3523 149.423 71.1591 150.211 71.1591C150.665 71.1591 151.114 71.2348 151.558 71.3864C152.001 71.5379 152.404 71.7841 152.768 72.125C153.131 72.4621 153.421 72.9091 153.637 73.4659C153.853 74.0227 153.961 74.7083 153.961 75.5227V76.0909H147.234V74.9318H152.597C152.597 74.4394 152.499 74 152.302 73.6136C152.109 73.2273 151.832 72.9223 151.472 72.6989C151.116 72.4754 150.696 72.3636 150.211 72.3636C149.677 72.3636 149.215 72.4962 148.825 72.7614C148.438 73.0227 148.141 73.3636 147.933 73.7841C147.724 74.2045 147.62 74.6553 147.62 75.1364V75.9091C147.62 76.5682 147.734 77.1269 147.961 77.5852C148.192 78.0398 148.512 78.3864 148.921 78.625C149.33 78.8598 149.806 78.9773 150.347 78.9773C150.7 78.9773 151.018 78.928 151.302 78.8295C151.59 78.7273 151.838 78.5758 152.046 78.375C152.254 78.1705 152.415 77.9167 152.529 77.6136L153.825 77.9773C153.688 78.4167 153.459 78.803 153.137 79.1364C152.815 79.4659 152.417 79.7235 151.944 79.9091C151.47 80.0909 150.938 80.1818 150.347 80.1818Z" fill="white"/>
<path d="M0.772727 125.614V124.364H9.5V125.614H5.84091V136H4.43182V125.614H0.772727ZM12.8338 130.75V136H11.4929V124.364H12.8338V128.636H12.9474C13.152 128.186 13.4588 127.828 13.8679 127.562C14.2808 127.294 14.83 127.159 15.5156 127.159C16.1103 127.159 16.6312 127.278 17.0781 127.517C17.5251 127.752 17.8717 128.114 18.1179 128.602C18.3679 129.087 18.4929 129.705 18.4929 130.455V136H17.152V130.545C17.152 129.852 16.9721 129.316 16.6122 128.938C16.2562 128.555 15.7618 128.364 15.1293 128.364C14.6899 128.364 14.2959 128.456 13.9474 128.642C13.6027 128.828 13.33 129.098 13.1293 129.455C12.9323 129.811 12.8338 130.242 12.8338 130.75ZM20.946 136V127.273H22.2869V136H20.946ZM21.6278 125.818C21.3665 125.818 21.1411 125.729 20.9517 125.551C20.7661 125.373 20.6733 125.159 20.6733 124.909C20.6733 124.659 20.7661 124.445 20.9517 124.267C21.1411 124.089 21.3665 124 21.6278 124C21.8892 124 22.1127 124.089 22.2983 124.267C22.4877 124.445 22.5824 124.659 22.5824 124.909C22.5824 125.159 22.4877 125.373 22.2983 125.551C22.1127 125.729 21.8892 125.818 21.6278 125.818ZM30.9247 129.227L29.7202 129.568C29.6444 129.367 29.5327 129.172 29.3849 128.983C29.241 128.79 29.044 128.631 28.794 128.506C28.544 128.381 28.224 128.318 27.8338 128.318C27.2997 128.318 26.8546 128.441 26.4986 128.688C26.1463 128.93 25.9702 129.239 25.9702 129.614C25.9702 129.947 26.0914 130.21 26.3338 130.403C26.5762 130.597 26.955 130.758 27.4702 130.886L28.7656 131.205C29.5459 131.394 30.1274 131.684 30.5099 132.074C30.8925 132.46 31.0838 132.958 31.0838 133.568C31.0838 134.068 30.9399 134.515 30.652 134.909C30.3679 135.303 29.9702 135.614 29.4588 135.841C28.9474 136.068 28.3527 136.182 27.6747 136.182C26.7846 136.182 26.0478 135.989 25.4645 135.602C24.8812 135.216 24.5118 134.652 24.3565 133.909L25.6293 133.591C25.7505 134.061 25.9796 134.413 26.3168 134.648C26.6577 134.883 27.1027 135 27.652 135C28.277 135 28.7732 134.867 29.1406 134.602C29.5118 134.333 29.6974 134.011 29.6974 133.636C29.6974 133.333 29.5914 133.08 29.3793 132.875C29.1671 132.667 28.8414 132.511 28.402 132.409L26.9474 132.068C26.1482 131.879 25.5611 131.585 25.1861 131.188C24.8149 130.786 24.6293 130.284 24.6293 129.682C24.6293 129.189 24.7675 128.754 25.044 128.375C25.3243 127.996 25.705 127.699 26.1861 127.483C26.6709 127.267 27.2202 127.159 27.8338 127.159C28.6974 127.159 29.3755 127.348 29.8679 127.727C30.3641 128.106 30.7164 128.606 30.9247 129.227ZM37.6023 136V127.273H38.9432V136H37.6023ZM38.2841 125.818C38.0227 125.818 37.7973 125.729 37.608 125.551C37.4223 125.373 37.3295 125.159 37.3295 124.909C37.3295 124.659 37.4223 124.445 37.608 124.267C37.7973 124.089 38.0227 124 38.2841 124C38.5455 124 38.7689 124.089 38.9545 124.267C39.1439 124.445 39.2386 124.659 39.2386 124.909C39.2386 125.159 39.1439 125.373 38.9545 125.551C38.7689 125.729 38.5455 125.818 38.2841 125.818ZM47.581 129.227L46.3764 129.568C46.3007 129.367 46.1889 129.172 46.0412 128.983C45.8973 128.79 45.7003 128.631 45.4503 128.506C45.2003 128.381 44.8802 128.318 44.4901 128.318C43.956 128.318 43.5109 128.441 43.1548 128.688C42.8026 128.93 42.6264 129.239 42.6264 129.614C42.6264 129.947 42.7476 130.21 42.9901 130.403C43.2325 130.597 43.6113 130.758 44.1264 130.886L45.4219 131.205C46.2022 131.394 46.7836 131.684 47.1662 132.074C47.5488 132.46 47.7401 132.958 47.7401 133.568C47.7401 134.068 47.5961 134.515 47.3082 134.909C47.0241 135.303 46.6264 135.614 46.1151 135.841C45.6037 136.068 45.009 136.182 44.331 136.182C43.4408 136.182 42.7041 135.989 42.1207 135.602C41.5374 135.216 41.1681 134.652 41.0128 133.909L42.2855 133.591C42.4067 134.061 42.6359 134.413 42.973 134.648C43.3139 134.883 43.759 135 44.3082 135C44.9332 135 45.4295 134.867 45.7969 134.602C46.1681 134.333 46.3537 134.011 46.3537 133.636C46.3537 133.333 46.2476 133.08 46.0355 132.875C45.8234 132.667 45.4976 132.511 45.0582 132.409L43.6037 132.068C42.8045 131.879 42.2173 131.585 41.8423 131.188C41.4711 130.786 41.2855 130.284 41.2855 129.682C41.2855 129.189 41.4238 128.754 41.7003 128.375C41.9806 127.996 42.3613 127.699 42.8423 127.483C43.3272 127.267 43.8764 127.159 44.4901 127.159C45.3537 127.159 46.0317 127.348 46.5241 127.727C47.0204 128.106 47.3726 128.606 47.581 129.227ZM55.5994 130.75V136H54.2585V124.364H55.5994V128.636H55.7131C55.9176 128.186 56.2244 127.828 56.6335 127.562C57.0464 127.294 57.5956 127.159 58.2812 127.159C58.8759 127.159 59.3968 127.278 59.8438 127.517C60.2907 127.752 60.6373 128.114 60.8835 128.602C61.1335 129.087 61.2585 129.705 61.2585 130.455V136H59.9176V130.545C59.9176 129.852 59.7377 129.316 59.3778 128.938C59.0218 128.555 58.5275 128.364 57.8949 128.364C57.4555 128.364 57.0616 128.456 56.7131 128.642C56.3684 128.828 56.0956 129.098 55.8949 129.455C55.6979 129.811 55.5994 130.242 55.5994 130.75ZM63.7116 136V127.273H65.0526V136H63.7116ZM64.3935 125.818C64.1321 125.818 63.9067 125.729 63.7173 125.551C63.5317 125.373 63.4389 125.159 63.4389 124.909C63.4389 124.659 63.5317 124.445 63.7173 124.267C63.9067 124.089 64.1321 124 64.3935 124C64.6548 124 64.8783 124.089 65.0639 124.267C65.2533 124.445 65.348 124.659 65.348 124.909C65.348 125.159 65.2533 125.373 65.0639 125.551C64.8783 125.729 64.6548 125.818 64.3935 125.818ZM68.8494 130.75V136H67.5085V127.273H68.804V128.636H68.9176C69.1222 128.193 69.4328 127.837 69.8494 127.568C70.2661 127.295 70.804 127.159 71.4631 127.159C72.054 127.159 72.571 127.28 73.0142 127.523C73.4574 127.761 73.8021 128.125 74.0483 128.614C74.2945 129.098 74.4176 129.712 74.4176 130.455V136H73.0767V130.545C73.0767 129.86 72.8987 129.326 72.5426 128.943C72.1866 128.557 71.6979 128.364 71.0767 128.364C70.6487 128.364 70.2661 128.456 69.929 128.642C69.5956 128.828 69.3324 129.098 69.1392 129.455C68.946 129.811 68.8494 130.242 68.8494 130.75ZM80.6634 127.273V128.409H76.1406V127.273H80.6634ZM77.4588 125.182H78.7997V133.5C78.7997 133.879 78.8546 134.163 78.9645 134.352C79.0781 134.538 79.2221 134.663 79.3963 134.727C79.5743 134.788 79.7618 134.818 79.9588 134.818C80.1065 134.818 80.2277 134.811 80.3224 134.795C80.4171 134.777 80.4929 134.761 80.5497 134.75L80.8224 135.955C80.7315 135.989 80.6046 136.023 80.4418 136.057C80.2789 136.095 80.0724 136.114 79.8224 136.114C79.4437 136.114 79.0724 136.032 78.7088 135.869C78.349 135.706 78.0497 135.458 77.8111 135.125C77.5762 134.792 77.4588 134.371 77.4588 133.864V125.182ZM90.9759 127.273V128.409H86.4531V127.273H90.9759ZM87.7713 125.182H89.1122V133.5C89.1122 133.879 89.1671 134.163 89.277 134.352C89.3906 134.538 89.5346 134.663 89.7088 134.727C89.8868 134.788 90.0743 134.818 90.2713 134.818C90.419 134.818 90.5402 134.811 90.6349 134.795C90.7296 134.777 90.8054 134.761 90.8622 134.75L91.1349 135.955C91.044 135.989 90.9171 136.023 90.7543 136.057C90.5914 136.095 90.3849 136.114 90.1349 136.114C89.7562 136.114 89.3849 136.032 89.0213 135.869C88.6615 135.706 88.3622 135.458 88.1236 135.125C87.8887 134.792 87.7713 134.371 87.7713 133.864V125.182ZM96.5582 136.182C95.7173 136.182 94.992 135.996 94.3821 135.625C93.776 135.25 93.3082 134.727 92.9787 134.057C92.6529 133.383 92.4901 132.598 92.4901 131.705C92.4901 130.811 92.6529 130.023 92.9787 129.341C93.3082 128.655 93.7666 128.121 94.3537 127.739C94.9446 127.352 95.634 127.159 96.4219 127.159C96.8764 127.159 97.3253 127.235 97.7685 127.386C98.2116 127.538 98.6151 127.784 98.9787 128.125C99.3423 128.462 99.6321 128.909 99.848 129.466C100.064 130.023 100.172 130.708 100.172 131.523V132.091H93.4446V130.932H98.8082C98.8082 130.439 98.7098 130 98.5128 129.614C98.3196 129.227 98.0431 128.922 97.6832 128.699C97.3272 128.475 96.9067 128.364 96.4219 128.364C95.8878 128.364 95.4257 128.496 95.0355 128.761C94.6491 129.023 94.3518 129.364 94.1435 129.784C93.9351 130.205 93.831 130.655 93.831 131.136V131.909C93.831 132.568 93.9446 133.127 94.1719 133.585C94.4029 134.04 94.723 134.386 95.1321 134.625C95.5412 134.86 96.0166 134.977 96.5582 134.977C96.9105 134.977 97.2287 134.928 97.5128 134.83C97.8007 134.727 98.0488 134.576 98.2571 134.375C98.4654 134.17 98.6264 133.917 98.7401 133.614L100.036 133.977C99.8991 134.417 99.67 134.803 99.348 135.136C99.026 135.466 98.6283 135.723 98.1548 135.909C97.6813 136.091 97.1491 136.182 96.5582 136.182ZM102.977 127.273L105.068 130.841L107.159 127.273H108.705L105.886 131.636L108.705 136H107.159L105.068 132.614L102.977 136H101.432L104.205 131.636L101.432 127.273H102.977ZM114.413 127.273V128.409H109.891V127.273H114.413ZM111.209 125.182H112.55V133.5C112.55 133.879 112.605 134.163 112.714 134.352C112.828 134.538 112.972 134.663 113.146 134.727C113.324 134.788 113.512 134.818 113.709 134.818C113.857 134.818 113.978 134.811 114.072 134.795C114.167 134.777 114.243 134.761 114.3 134.75L114.572 135.955C114.482 135.989 114.355 136.023 114.192 136.057C114.029 136.095 113.822 136.114 113.572 136.114C113.194 136.114 112.822 136.032 112.459 135.869C112.099 135.706 111.8 135.458 111.561 135.125C111.326 134.792 111.209 134.371 111.209 133.864V125.182Z" fill="#767676"/>
<path d="M20.7701 171.968C20.843 172.041 20.9008 172.128 20.9402 172.223C20.9797 172.318 21 172.42 21 172.522C21 172.625 20.9797 172.727 20.9402 172.822C20.9008 172.917 20.843 173.004 20.7701 173.077L9.81504 184.032C9.74235 184.104 9.656 184.162 9.56094 184.202C9.46587 184.241 9.36395 184.261 9.26103 184.261C9.1581 184.261 9.05619 184.241 8.96112 184.202C8.86605 184.162 8.7797 184.104 8.70701 184.032L3.22948 178.554C3.08255 178.407 3 178.208 3 178C3 177.792 3.08255 177.593 3.22948 177.446C3.37641 177.299 3.5757 177.217 3.78349 177.217C3.99129 177.217 4.19057 177.299 4.33751 177.446L9.26103 182.371L19.6621 171.968C19.7348 171.896 19.8211 171.838 19.9162 171.798C20.0113 171.759 20.1132 171.739 20.2161 171.739C20.319 171.739 20.4209 171.759 20.516 171.798C20.6111 171.838 20.6974 171.896 20.7701 171.968Z" fill="#0A8217"/>
<path d="M47.1989 172.364H49.6591V179.92C49.6591 180.769 49.4564 181.511 49.0511 182.148C48.6496 182.784 48.0871 183.28 47.3636 183.636C46.6402 183.989 45.7973 184.165 44.8352 184.165C43.8693 184.165 43.0246 183.989 42.3011 183.636C41.5777 183.28 41.0152 182.784 40.6136 182.148C40.2121 181.511 40.0114 180.769 40.0114 179.92V172.364H42.4716V179.71C42.4716 180.153 42.5682 180.547 42.7614 180.892C42.9583 181.237 43.2348 181.508 43.5909 181.705C43.947 181.902 44.3617 182 44.8352 182C45.3125 182 45.7273 181.902 46.0795 181.705C46.4356 181.508 46.7102 181.237 46.9034 180.892C47.1004 180.547 47.1989 180.153 47.1989 179.71V172.364ZM51.6378 187.273V175.273H54.0241V176.739H54.1321C54.2382 176.504 54.3916 176.265 54.5923 176.023C54.7969 175.777 55.062 175.572 55.3878 175.409C55.7173 175.242 56.1264 175.159 56.6151 175.159C57.2514 175.159 57.8385 175.326 58.3764 175.659C58.9143 175.989 59.3442 176.487 59.6662 177.153C59.9882 177.816 60.1491 178.648 60.1491 179.648C60.1491 180.621 59.992 181.443 59.6776 182.114C59.367 182.78 58.9427 183.286 58.4048 183.631C57.8707 183.972 57.2723 184.142 56.6094 184.142C56.1397 184.142 55.7401 184.064 55.4105 183.909C55.0848 183.754 54.8177 183.559 54.6094 183.324C54.401 183.085 54.242 182.845 54.1321 182.602H54.0582V187.273H51.6378ZM54.0071 179.636C54.0071 180.155 54.0791 180.608 54.223 180.994C54.367 181.381 54.5753 181.682 54.848 181.898C55.1207 182.11 55.4522 182.216 55.8423 182.216C56.2363 182.216 56.5696 182.108 56.8423 181.892C57.1151 181.672 57.3215 181.369 57.4616 180.983C57.6056 180.593 57.6776 180.144 57.6776 179.636C57.6776 179.133 57.6075 178.689 57.4673 178.307C57.3272 177.924 57.1207 177.625 56.848 177.409C56.5753 177.193 56.2401 177.085 55.8423 177.085C55.4484 177.085 55.1151 177.189 54.8423 177.398C54.5734 177.606 54.367 177.902 54.223 178.284C54.0791 178.667 54.0071 179.117 54.0071 179.636ZM64.1832 172.364V184H61.7628V172.364H64.1832ZM70.0653 184.17C69.1828 184.17 68.4195 183.983 67.7756 183.608C67.1354 183.229 66.6411 182.703 66.2926 182.028C65.9441 181.35 65.7699 180.564 65.7699 179.67C65.7699 178.769 65.9441 177.981 66.2926 177.307C66.6411 176.629 67.1354 176.102 67.7756 175.727C68.4195 175.348 69.1828 175.159 70.0653 175.159C70.9479 175.159 71.7093 175.348 72.3494 175.727C72.9934 176.102 73.4896 176.629 73.8381 177.307C74.1866 177.981 74.3608 178.769 74.3608 179.67C74.3608 180.564 74.1866 181.35 73.8381 182.028C73.4896 182.703 72.9934 183.229 72.3494 183.608C71.7093 183.983 70.9479 184.17 70.0653 184.17ZM70.0767 182.295C70.4782 182.295 70.8134 182.182 71.0824 181.955C71.3513 181.723 71.554 181.409 71.6903 181.011C71.8305 180.614 71.9006 180.161 71.9006 179.653C71.9006 179.146 71.8305 178.693 71.6903 178.295C71.554 177.898 71.3513 177.583 71.0824 177.352C70.8134 177.121 70.4782 177.006 70.0767 177.006C69.6714 177.006 69.3305 177.121 69.054 177.352C68.7813 177.583 68.5748 177.898 68.4347 178.295C68.2983 178.693 68.2301 179.146 68.2301 179.653C68.2301 180.161 68.2983 180.614 68.4347 181.011C68.5748 181.409 68.7813 181.723 69.054 181.955C69.3305 182.182 69.6714 182.295 70.0767 182.295ZM78.4233 184.165C77.8665 184.165 77.3703 184.068 76.9347 183.875C76.4991 183.678 76.1544 183.388 75.9006 183.006C75.6506 182.619 75.5256 182.138 75.5256 181.562C75.5256 181.078 75.6146 180.67 75.7926 180.341C75.9706 180.011 76.2131 179.746 76.5199 179.545C76.8267 179.345 77.1752 179.193 77.5653 179.091C77.9593 178.989 78.3722 178.917 78.804 178.875C79.3116 178.822 79.7206 178.773 80.0312 178.727C80.3419 178.678 80.5672 178.606 80.7074 178.511C80.8475 178.417 80.9176 178.277 80.9176 178.091V178.057C80.9176 177.697 80.804 177.419 80.5767 177.222C80.3532 177.025 80.035 176.926 79.6222 176.926C79.1866 176.926 78.84 177.023 78.5824 177.216C78.3248 177.405 78.1544 177.644 78.071 177.932L75.8324 177.75C75.946 177.22 76.1695 176.761 76.5028 176.375C76.8362 175.985 77.2661 175.686 77.7926 175.477C78.3229 175.265 78.9366 175.159 79.6335 175.159C80.1184 175.159 80.5824 175.216 81.0256 175.33C81.4725 175.443 81.8684 175.619 82.2131 175.858C82.5616 176.097 82.8362 176.403 83.0369 176.778C83.2377 177.15 83.3381 177.595 83.3381 178.114V184H81.0426V182.79H80.9744C80.8343 183.062 80.6468 183.303 80.4119 183.511C80.1771 183.716 79.8949 183.877 79.5653 183.994C79.2358 184.108 78.8551 184.165 78.4233 184.165ZM79.1165 182.494C79.4725 182.494 79.7869 182.424 80.0597 182.284C80.3324 182.14 80.5464 181.947 80.7017 181.705C80.857 181.462 80.9347 181.187 80.9347 180.881V179.955C80.8589 180.004 80.7547 180.049 80.6222 180.091C80.4934 180.129 80.3475 180.165 80.1847 180.199C80.0218 180.229 79.8589 180.258 79.696 180.284C79.5331 180.307 79.3854 180.328 79.2528 180.347C78.9688 180.388 78.7206 180.455 78.5085 180.545C78.2964 180.636 78.1316 180.759 78.0142 180.915C77.8968 181.066 77.8381 181.256 77.8381 181.483C77.8381 181.812 77.9574 182.064 78.196 182.239C78.4384 182.409 78.7453 182.494 79.1165 182.494ZM88.4318 184.142C87.7689 184.142 87.1686 183.972 86.6307 183.631C86.0966 183.286 85.6723 182.78 85.358 182.114C85.0473 181.443 84.892 180.621 84.892 179.648C84.892 178.648 85.053 177.816 85.375 177.153C85.697 176.487 86.125 175.989 86.6591 175.659C87.197 175.326 87.786 175.159 88.4261 175.159C88.9148 175.159 89.322 175.242 89.6477 175.409C89.9773 175.572 90.2424 175.777 90.4432 176.023C90.6477 176.265 90.803 176.504 90.9091 176.739H90.983V172.364H93.3977V184H91.0114V182.602H90.9091C90.7955 182.845 90.6345 183.085 90.4261 183.324C90.2216 183.559 89.9545 183.754 89.625 183.909C89.2992 184.064 88.9015 184.142 88.4318 184.142ZM89.1989 182.216C89.589 182.216 89.9186 182.11 90.1875 181.898C90.4602 181.682 90.6686 181.381 90.8125 180.994C90.9602 180.608 91.0341 180.155 91.0341 179.636C91.0341 179.117 90.9621 178.667 90.8182 178.284C90.6742 177.902 90.4659 177.606 90.1932 177.398C89.9205 177.189 89.589 177.085 89.1989 177.085C88.8011 177.085 88.4659 177.193 88.1932 177.409C87.9205 177.625 87.714 177.924 87.5739 178.307C87.4337 178.689 87.3636 179.133 87.3636 179.636C87.3636 180.144 87.4337 180.593 87.5739 180.983C87.7178 181.369 87.9242 181.672 88.1932 181.892C88.4659 182.108 88.8011 182.216 89.1989 182.216ZM99.3651 184.17C98.4673 184.17 97.6946 183.989 97.0469 183.625C96.4029 183.258 95.9067 182.739 95.5582 182.068C95.2098 181.394 95.0355 180.597 95.0355 179.676C95.0355 178.778 95.2098 177.991 95.5582 177.312C95.9067 176.634 96.3973 176.106 97.0298 175.727C97.6662 175.348 98.4124 175.159 99.2685 175.159C99.8442 175.159 100.38 175.252 100.876 175.438C101.376 175.619 101.812 175.894 102.183 176.261C102.558 176.629 102.85 177.091 103.058 177.648C103.267 178.201 103.371 178.848 103.371 179.591V180.256H96.0014V178.756H101.092C101.092 178.407 101.017 178.098 100.865 177.83C100.714 177.561 100.503 177.35 100.234 177.199C99.9692 177.044 99.6605 176.966 99.3082 176.966C98.9408 176.966 98.6151 177.051 98.331 177.222C98.0507 177.388 97.831 177.614 97.6719 177.898C97.5128 178.178 97.4313 178.491 97.4276 178.835V180.261C97.4276 180.693 97.5071 181.066 97.6662 181.381C97.8291 181.695 98.0582 181.938 98.3537 182.108C98.6491 182.278 98.9995 182.364 99.4048 182.364C99.6738 182.364 99.92 182.326 100.143 182.25C100.367 182.174 100.558 182.061 100.717 181.909C100.876 181.758 100.998 181.572 101.081 181.352L103.32 181.5C103.206 182.038 102.973 182.508 102.621 182.909C102.272 183.307 101.821 183.617 101.268 183.841C100.719 184.061 100.085 184.17 99.3651 184.17ZM108.166 184.142C107.503 184.142 106.903 183.972 106.365 183.631C105.831 183.286 105.407 182.78 105.092 182.114C104.782 181.443 104.626 180.621 104.626 179.648C104.626 178.648 104.787 177.816 105.109 177.153C105.431 176.487 105.859 175.989 106.393 175.659C106.931 175.326 107.52 175.159 108.161 175.159C108.649 175.159 109.056 175.242 109.382 175.409C109.712 175.572 109.977 175.777 110.178 176.023C110.382 176.265 110.537 176.504 110.643 176.739H110.717V172.364H113.132V184H110.746V182.602H110.643C110.53 182.845 110.369 183.085 110.161 183.324C109.956 183.559 109.689 183.754 109.359 183.909C109.034 184.064 108.636 184.142 108.166 184.142ZM108.933 182.216C109.323 182.216 109.653 182.11 109.922 181.898C110.195 181.682 110.403 181.381 110.547 180.994C110.695 180.608 110.768 180.155 110.768 179.636C110.768 179.117 110.696 178.667 110.553 178.284C110.409 177.902 110.2 177.606 109.928 177.398C109.655 177.189 109.323 177.085 108.933 177.085C108.536 177.085 108.2 177.193 107.928 177.409C107.655 177.625 107.448 177.924 107.308 178.307C107.168 178.689 107.098 179.133 107.098 179.636C107.098 180.144 107.168 180.593 107.308 180.983C107.452 181.369 107.659 181.672 107.928 181.892C108.2 182.108 108.536 182.216 108.933 182.216ZM123.518 175.273V177.091H118.132V175.273H123.518ZM119.365 184V174.642C119.365 174.009 119.488 173.485 119.734 173.068C119.984 172.652 120.325 172.339 120.757 172.131C121.189 171.922 121.679 171.818 122.229 171.818C122.6 171.818 122.939 171.847 123.246 171.903C123.556 171.96 123.787 172.011 123.939 172.057L123.507 173.875C123.412 173.845 123.295 173.816 123.155 173.79C123.018 173.763 122.878 173.75 122.734 173.75C122.378 173.75 122.13 173.833 121.99 174C121.85 174.163 121.78 174.392 121.78 174.688V184H119.365ZM124.997 184V175.273H127.418V184H124.997ZM126.213 174.148C125.853 174.148 125.545 174.028 125.287 173.79C125.033 173.547 124.906 173.258 124.906 172.92C124.906 172.587 125.033 172.301 125.287 172.062C125.545 171.82 125.853 171.699 126.213 171.699C126.573 171.699 126.88 171.82 127.134 172.062C127.391 172.301 127.52 172.587 127.52 172.92C127.52 173.258 127.391 173.547 127.134 173.79C126.88 174.028 126.573 174.148 126.213 174.148ZM131.777 172.364V184H129.357V172.364H131.777ZM137.693 184.17C136.795 184.17 136.023 183.989 135.375 183.625C134.731 183.258 134.235 182.739 133.886 182.068C133.538 181.394 133.364 180.597 133.364 179.676C133.364 178.778 133.538 177.991 133.886 177.312C134.235 176.634 134.725 176.106 135.358 175.727C135.994 175.348 136.741 175.159 137.597 175.159C138.172 175.159 138.708 175.252 139.205 175.438C139.705 175.619 140.14 175.894 140.511 176.261C140.886 176.629 141.178 177.091 141.386 177.648C141.595 178.201 141.699 178.848 141.699 179.591V180.256H134.33V178.756H139.42C139.42 178.407 139.345 178.098 139.193 177.83C139.042 177.561 138.831 177.35 138.562 177.199C138.297 177.044 137.989 176.966 137.636 176.966C137.269 176.966 136.943 177.051 136.659 177.222C136.379 177.388 136.159 177.614 136 177.898C135.841 178.178 135.759 178.491 135.756 178.835V180.261C135.756 180.693 135.835 181.066 135.994 181.381C136.157 181.695 136.386 181.938 136.682 182.108C136.977 182.278 137.328 182.364 137.733 182.364C138.002 182.364 138.248 182.326 138.472 182.25C138.695 182.174 138.886 182.061 139.045 181.909C139.205 181.758 139.326 181.572 139.409 181.352L141.648 181.5C141.534 182.038 141.301 182.508 140.949 182.909C140.6 183.307 140.15 183.617 139.597 183.841C139.047 184.061 138.413 184.17 137.693 184.17ZM152.021 172.364V184H149.561V174.699H149.493L146.828 176.369V174.188L149.709 172.364H152.021ZM155.599 184.148C155.224 184.148 154.902 184.015 154.634 183.75C154.368 183.481 154.236 183.159 154.236 182.784C154.236 182.413 154.368 182.095 154.634 181.83C154.902 181.564 155.224 181.432 155.599 181.432C155.963 181.432 156.281 181.564 156.554 181.83C156.827 182.095 156.963 182.413 156.963 182.784C156.963 183.034 156.899 183.263 156.77 183.472C156.645 183.676 156.48 183.841 156.276 183.966C156.071 184.087 155.846 184.148 155.599 184.148ZM162.928 184.17C162.03 184.17 161.257 183.989 160.609 183.625C159.965 183.258 159.469 182.739 159.121 182.068C158.772 181.394 158.598 180.597 158.598 179.676C158.598 178.778 158.772 177.991 159.121 177.312C159.469 176.634 159.96 176.106 160.592 175.727C161.229 175.348 161.975 175.159 162.831 175.159C163.407 175.159 163.943 175.252 164.439 175.438C164.939 175.619 165.375 175.894 165.746 176.261C166.121 176.629 166.412 177.091 166.621 177.648C166.829 178.201 166.933 178.848 166.933 179.591V180.256H159.564V178.756H164.655C164.655 178.407 164.579 178.098 164.428 177.83C164.276 177.561 164.066 177.35 163.797 177.199C163.532 177.044 163.223 176.966 162.871 176.966C162.503 176.966 162.178 177.051 161.893 177.222C161.613 177.388 161.393 177.614 161.234 177.898C161.075 178.178 160.994 178.491 160.99 178.835V180.261C160.99 180.693 161.07 181.066 161.229 181.381C161.392 181.695 161.621 181.938 161.916 182.108C162.212 182.278 162.562 182.364 162.967 182.364C163.236 182.364 163.482 182.326 163.706 182.25C163.929 182.174 164.121 182.061 164.28 181.909C164.439 181.758 164.56 181.572 164.643 181.352L166.882 181.5C166.768 182.038 166.536 182.508 166.183 182.909C165.835 183.307 165.384 183.617 164.831 183.841C164.282 184.061 163.647 184.17 162.928 184.17ZM170.379 175.273L171.982 178.324L173.624 175.273H176.107L173.578 179.636L176.175 184H173.703L171.982 180.983L170.288 184H167.788L170.379 179.636L167.879 175.273H170.379ZM182.186 175.273V177.091H176.93V175.273H182.186ZM178.124 173.182H180.544V181.318C180.544 181.542 180.578 181.716 180.646 181.841C180.714 181.962 180.809 182.047 180.93 182.097C181.055 182.146 181.199 182.17 181.362 182.17C181.476 182.17 181.589 182.161 181.703 182.142C181.817 182.119 181.904 182.102 181.964 182.091L182.345 183.892C182.224 183.93 182.054 183.973 181.834 184.023C181.614 184.076 181.347 184.108 181.033 184.119C180.449 184.142 179.938 184.064 179.499 183.886C179.063 183.708 178.724 183.432 178.482 183.057C178.239 182.682 178.12 182.208 178.124 181.636V173.182ZM187.646 184.17C186.749 184.17 185.976 183.989 185.328 183.625C184.684 183.258 184.188 182.739 183.839 182.068C183.491 181.394 183.317 180.597 183.317 179.676C183.317 178.778 183.491 177.991 183.839 177.312C184.188 176.634 184.679 176.106 185.311 175.727C185.947 175.348 186.694 175.159 187.55 175.159C188.125 175.159 188.661 175.252 189.158 175.438C189.658 175.619 190.093 175.894 190.464 176.261C190.839 176.629 191.131 177.091 191.339 177.648C191.548 178.201 191.652 178.848 191.652 179.591V180.256H184.283V178.756H189.374C189.374 178.407 189.298 178.098 189.146 177.83C188.995 177.561 188.785 177.35 188.516 177.199C188.25 177.044 187.942 176.966 187.589 176.966C187.222 176.966 186.896 177.051 186.612 177.222C186.332 177.388 186.112 177.614 185.953 177.898C185.794 178.178 185.713 178.491 185.709 178.835V180.261C185.709 180.693 185.788 181.066 185.947 181.381C186.11 181.695 186.339 181.938 186.635 182.108C186.93 182.278 187.281 182.364 187.686 182.364C187.955 182.364 188.201 182.326 188.425 182.25C188.648 182.174 188.839 182.061 188.999 181.909C189.158 181.758 189.279 181.572 189.362 181.352L191.601 181.5C191.487 182.038 191.254 182.508 190.902 182.909C190.554 183.307 190.103 183.617 189.55 183.841C189 184.061 188.366 184.17 187.646 184.17ZM195.652 178.955V184H193.232V175.273H195.538V176.812H195.641C195.834 176.305 196.158 175.903 196.612 175.608C197.067 175.309 197.618 175.159 198.266 175.159C198.872 175.159 199.4 175.292 199.851 175.557C200.302 175.822 200.652 176.201 200.902 176.693C201.152 177.182 201.277 177.765 201.277 178.443V184H198.857V178.875C198.86 178.341 198.724 177.924 198.447 177.625C198.171 177.322 197.79 177.17 197.305 177.17C196.98 177.17 196.692 177.241 196.442 177.381C196.196 177.521 196.002 177.725 195.862 177.994C195.726 178.259 195.656 178.58 195.652 178.955ZM210.446 177.761L208.23 177.898C208.192 177.708 208.111 177.538 207.986 177.386C207.861 177.231 207.696 177.108 207.491 177.017C207.291 176.922 207.05 176.875 206.77 176.875C206.395 176.875 206.079 176.955 205.821 177.114C205.563 177.269 205.435 177.477 205.435 177.739C205.435 177.947 205.518 178.123 205.685 178.267C205.851 178.411 206.137 178.527 206.543 178.614L208.122 178.932C208.971 179.106 209.603 179.386 210.02 179.773C210.437 180.159 210.645 180.667 210.645 181.295C210.645 181.867 210.476 182.369 210.139 182.801C209.806 183.233 209.348 183.57 208.764 183.812C208.185 184.051 207.516 184.17 206.759 184.17C205.603 184.17 204.683 183.93 203.997 183.449C203.315 182.964 202.916 182.305 202.798 181.472L205.179 181.347C205.251 181.699 205.425 181.968 205.702 182.153C205.978 182.335 206.332 182.426 206.764 182.426C207.188 182.426 207.529 182.345 207.787 182.182C208.048 182.015 208.181 181.801 208.185 181.54C208.181 181.32 208.088 181.14 207.906 181C207.724 180.856 207.444 180.746 207.065 180.67L205.554 180.369C204.702 180.199 204.067 179.903 203.651 179.483C203.238 179.062 203.031 178.527 203.031 177.875C203.031 177.314 203.183 176.831 203.486 176.426C203.793 176.021 204.223 175.708 204.776 175.489C205.332 175.269 205.984 175.159 206.73 175.159C207.832 175.159 208.7 175.392 209.332 175.858C209.969 176.324 210.34 176.958 210.446 177.761ZM212.169 184V175.273H214.589V184H212.169ZM213.385 174.148C213.025 174.148 212.716 174.028 212.459 173.79C212.205 173.547 212.078 173.258 212.078 172.92C212.078 172.587 212.205 172.301 212.459 172.062C212.716 171.82 213.025 171.699 213.385 171.699C213.745 171.699 214.052 171.82 214.305 172.062C214.563 172.301 214.692 172.587 214.692 172.92C214.692 173.258 214.563 173.547 214.305 173.79C214.052 174.028 213.745 174.148 213.385 174.148ZM220.472 184.17C219.589 184.17 218.826 183.983 218.182 183.608C217.542 183.229 217.047 182.703 216.699 182.028C216.35 181.35 216.176 180.564 216.176 179.67C216.176 178.769 216.35 177.981 216.699 177.307C217.047 176.629 217.542 176.102 218.182 175.727C218.826 175.348 219.589 175.159 220.472 175.159C221.354 175.159 222.116 175.348 222.756 175.727C223.4 176.102 223.896 176.629 224.244 177.307C224.593 177.981 224.767 178.769 224.767 179.67C224.767 180.564 224.593 181.35 224.244 182.028C223.896 182.703 223.4 183.229 222.756 183.608C222.116 183.983 221.354 184.17 220.472 184.17ZM220.483 182.295C220.884 182.295 221.22 182.182 221.489 181.955C221.758 181.723 221.96 181.409 222.097 181.011C222.237 180.614 222.307 180.161 222.307 179.653C222.307 179.146 222.237 178.693 222.097 178.295C221.96 177.898 221.758 177.583 221.489 177.352C221.22 177.121 220.884 177.006 220.483 177.006C220.078 177.006 219.737 177.121 219.46 177.352C219.188 177.583 218.981 177.898 218.841 178.295C218.705 178.693 218.636 179.146 218.636 179.653C218.636 180.161 218.705 180.614 218.841 181.011C218.981 181.409 219.188 181.723 219.46 181.955C219.737 182.182 220.078 182.295 220.483 182.295ZM228.761 178.955V184H226.341V175.273H228.648V176.812H228.75C228.943 176.305 229.267 175.903 229.722 175.608C230.176 175.309 230.727 175.159 231.375 175.159C231.981 175.159 232.509 175.292 232.96 175.557C233.411 175.822 233.761 176.201 234.011 176.693C234.261 177.182 234.386 177.765 234.386 178.443V184H231.966V178.875C231.97 178.341 231.833 177.924 231.557 177.625C231.28 177.322 230.9 177.17 230.415 177.17C230.089 177.17 229.801 177.241 229.551 177.381C229.305 177.521 229.112 177.725 228.972 177.994C228.835 178.259 228.765 178.58 228.761 178.955Z" fill="#0F71BB"/>
<path d="M39 187.182H235.324V188.273H39V187.182Z" fill="#0F71BB"/>
<path d="M263 185.875C260.911 185.875 258.908 185.045 257.432 183.568C255.955 182.092 255.125 180.089 255.125 178C255.125 175.911 255.955 173.908 257.432 172.432C258.908 170.955 260.911 170.125 263 170.125C265.089 170.125 267.092 170.955 268.568 172.432C270.045 173.908 270.875 175.911 270.875 178C270.875 180.089 270.045 182.092 268.568 183.568C267.092 185.045 265.089 185.875 263 185.875ZM263 187C265.387 187 267.676 186.052 269.364 184.364C271.052 182.676 272 180.387 272 178C272 175.613 271.052 173.324 269.364 171.636C267.676 169.948 265.387 169 263 169C260.613 169 258.324 169.948 256.636 171.636C254.948 173.324 254 175.613 254 178C254 180.387 254.948 182.676 256.636 184.364C258.324 186.052 260.613 187 263 187Z" fill="#D0021B"/>
<path d="M259.227 174.227C259.279 174.174 259.341 174.133 259.409 174.104C259.478 174.076 259.551 174.061 259.625 174.061C259.699 174.061 259.772 174.076 259.841 174.104C259.909 174.133 259.971 174.174 260.023 174.227L263 177.205L265.977 174.227C266.029 174.174 266.091 174.133 266.159 174.105C266.228 174.076 266.301 174.062 266.375 174.062C266.449 174.062 266.522 174.076 266.591 174.105C266.659 174.133 266.721 174.174 266.773 174.227C266.826 174.279 266.867 174.341 266.895 174.409C266.924 174.478 266.938 174.551 266.938 174.625C266.938 174.699 266.924 174.772 266.895 174.841C266.867 174.909 266.826 174.971 266.773 175.023L263.795 178L266.773 180.977C266.826 181.029 266.867 181.091 266.895 181.159C266.924 181.228 266.938 181.301 266.938 181.375C266.938 181.449 266.924 181.522 266.895 181.59C266.867 181.659 266.826 181.721 266.773 181.773C266.721 181.826 266.659 181.867 266.591 181.895C266.522 181.924 266.449 181.938 266.375 181.938C266.301 181.938 266.228 181.924 266.159 181.895C266.091 181.867 266.029 181.826 265.977 181.773L263 178.795L260.023 181.773C259.971 181.826 259.909 181.867 259.841 181.895C259.772 181.924 259.699 181.938 259.625 181.938C259.551 181.938 259.478 181.924 259.409 181.895C259.341 181.867 259.279 181.826 259.227 181.773C259.174 181.721 259.133 181.659 259.105 181.59C259.076 181.522 259.062 181.449 259.062 181.375C259.062 181.301 259.076 181.228 259.105 181.159C259.133 181.091 259.174 181.029 259.227 180.977L262.205 178L259.227 175.023C259.174 174.971 259.133 174.909 259.104 174.841C259.076 174.772 259.061 174.699 259.061 174.625C259.061 174.551 259.076 174.478 259.104 174.409C259.133 174.341 259.174 174.279 259.227 174.227Z" fill="#D0021B"/>
<path d="M20.7701 211.968C20.843 212.041 20.9008 212.128 20.9402 212.223C20.9797 212.318 21 212.42 21 212.522C21 212.625 20.9797 212.727 20.9402 212.822C20.9008 212.917 20.843 213.004 20.7701 213.077L9.81504 224.032C9.74235 224.104 9.656 224.162 9.56094 224.202C9.46587 224.241 9.36395 224.261 9.26103 224.261C9.1581 224.261 9.05619 224.241 8.96112 224.202C8.86605 224.162 8.7797 224.104 8.70701 224.032L3.22948 218.554C3.08255 218.407 3 218.208 3 218C3 217.792 3.08255 217.593 3.22948 217.446C3.37641 217.299 3.5757 217.217 3.78349 217.217C3.99129 217.217 4.19057 217.299 4.33751 217.446L9.26103 222.371L19.6621 211.968C19.7348 211.896 19.8211 211.838 19.9162 211.798C20.0113 211.759 20.1132 211.739 20.2161 211.739C20.319 211.739 20.4209 211.759 20.516 211.798C20.6111 211.838 20.6974 211.896 20.7701 211.968Z" fill="#0A8217"/>
<path d="M48.1989 212.364H50.6591V219.92C50.6591 220.769 50.4564 221.511 50.0511 222.148C49.6496 222.784 49.0871 223.28 48.3636 223.636C47.6402 223.989 46.7973 224.165 45.8352 224.165C44.8693 224.165 44.0246 223.989 43.3011 223.636C42.5777 223.28 42.0152 222.784 41.6136 222.148C41.2121 221.511 41.0114 220.769 41.0114 219.92V212.364H43.4716V219.71C43.4716 220.153 43.5682 220.547 43.7614 220.892C43.9583 221.237 44.2348 221.508 44.5909 221.705C44.947 221.902 45.3617 222 45.8352 222C46.3125 222 46.7273 221.902 47.0795 221.705C47.4356 221.508 47.7102 221.237 47.9034 220.892C48.1004 220.547 48.1989 220.153 48.1989 219.71V212.364ZM52.6378 227.273V215.273H55.0241V216.739H55.1321C55.2382 216.504 55.3916 216.265 55.5923 216.023C55.7969 215.777 56.062 215.572 56.3878 215.409C56.7173 215.242 57.1264 215.159 57.6151 215.159C58.2514 215.159 58.8385 215.326 59.3764 215.659C59.9143 215.989 60.3442 216.487 60.6662 217.153C60.9882 217.816 61.1491 218.648 61.1491 219.648C61.1491 220.621 60.992 221.443 60.6776 222.114C60.367 222.78 59.9427 223.286 59.4048 223.631C58.8707 223.972 58.2723 224.142 57.6094 224.142C57.1397 224.142 56.7401 224.064 56.4105 223.909C56.0848 223.754 55.8177 223.559 55.6094 223.324C55.401 223.085 55.242 222.845 55.1321 222.602H55.0582V227.273H52.6378ZM55.0071 219.636C55.0071 220.155 55.0791 220.608 55.223 220.994C55.367 221.381 55.5753 221.682 55.848 221.898C56.1207 222.11 56.4522 222.216 56.8423 222.216C57.2363 222.216 57.5696 222.108 57.8423 221.892C58.1151 221.672 58.3215 221.369 58.4616 220.983C58.6056 220.593 58.6776 220.144 58.6776 219.636C58.6776 219.133 58.6075 218.689 58.4673 218.307C58.3272 217.924 58.1207 217.625 57.848 217.409C57.5753 217.193 57.2401 217.085 56.8423 217.085C56.4484 217.085 56.1151 217.189 55.8423 217.398C55.5734 217.606 55.367 217.902 55.223 218.284C55.0791 218.667 55.0071 219.117 55.0071 219.636ZM65.1832 212.364V224H62.7628V212.364H65.1832ZM71.0653 224.17C70.1828 224.17 69.4195 223.983 68.7756 223.608C68.1354 223.229 67.6411 222.703 67.2926 222.028C66.9441 221.35 66.7699 220.564 66.7699 219.67C66.7699 218.769 66.9441 217.981 67.2926 217.307C67.6411 216.629 68.1354 216.102 68.7756 215.727C69.4195 215.348 70.1828 215.159 71.0653 215.159C71.9479 215.159 72.7093 215.348 73.3494 215.727C73.9934 216.102 74.4896 216.629 74.8381 217.307C75.1866 217.981 75.3608 218.769 75.3608 219.67C75.3608 220.564 75.1866 221.35 74.8381 222.028C74.4896 222.703 73.9934 223.229 73.3494 223.608C72.7093 223.983 71.9479 224.17 71.0653 224.17ZM71.0767 222.295C71.4782 222.295 71.8134 222.182 72.0824 221.955C72.3513 221.723 72.554 221.409 72.6903 221.011C72.8305 220.614 72.9006 220.161 72.9006 219.653C72.9006 219.146 72.8305 218.693 72.6903 218.295C72.554 217.898 72.3513 217.583 72.0824 217.352C71.8134 217.121 71.4782 217.006 71.0767 217.006C70.6714 217.006 70.3305 217.121 70.054 217.352C69.7813 217.583 69.5748 217.898 69.4347 218.295C69.2983 218.693 69.2301 219.146 69.2301 219.653C69.2301 220.161 69.2983 220.614 69.4347 221.011C69.5748 221.409 69.7813 221.723 70.054 221.955C70.3305 222.182 70.6714 222.295 71.0767 222.295ZM79.4233 224.165C78.8665 224.165 78.3703 224.068 77.9347 223.875C77.4991 223.678 77.1544 223.388 76.9006 223.006C76.6506 222.619 76.5256 222.138 76.5256 221.562C76.5256 221.078 76.6146 220.67 76.7926 220.341C76.9706 220.011 77.2131 219.746 77.5199 219.545C77.8267 219.345 78.1752 219.193 78.5653 219.091C78.9593 218.989 79.3722 218.917 79.804 218.875C80.3116 218.822 80.7206 218.773 81.0312 218.727C81.3419 218.678 81.5672 218.606 81.7074 218.511C81.8475 218.417 81.9176 218.277 81.9176 218.091V218.057C81.9176 217.697 81.804 217.419 81.5767 217.222C81.3532 217.025 81.035 216.926 80.6222 216.926C80.1866 216.926 79.84 217.023 79.5824 217.216C79.3248 217.405 79.1544 217.644 79.071 217.932L76.8324 217.75C76.946 217.22 77.1695 216.761 77.5028 216.375C77.8362 215.985 78.2661 215.686 78.7926 215.477C79.3229 215.265 79.9366 215.159 80.6335 215.159C81.1184 215.159 81.5824 215.216 82.0256 215.33C82.4725 215.443 82.8684 215.619 83.2131 215.858C83.5616 216.097 83.8362 216.403 84.0369 216.778C84.2377 217.15 84.3381 217.595 84.3381 218.114V224H82.0426V222.79H81.9744C81.8343 223.062 81.6468 223.303 81.4119 223.511C81.1771 223.716 80.8949 223.877 80.5653 223.994C80.2358 224.108 79.8551 224.165 79.4233 224.165ZM80.1165 222.494C80.4725 222.494 80.7869 222.424 81.0597 222.284C81.3324 222.14 81.5464 221.947 81.7017 221.705C81.857 221.462 81.9347 221.187 81.9347 220.881V219.955C81.8589 220.004 81.7547 220.049 81.6222 220.091C81.4934 220.129 81.3475 220.165 81.1847 220.199C81.0218 220.229 80.8589 220.258 80.696 220.284C80.5331 220.307 80.3854 220.328 80.2528 220.347C79.9688 220.388 79.7206 220.455 79.5085 220.545C79.2964 220.636 79.1316 220.759 79.0142 220.915C78.8968 221.066 78.8381 221.256 78.8381 221.483C78.8381 221.812 78.9574 222.064 79.196 222.239C79.4384 222.409 79.7453 222.494 80.1165 222.494ZM89.4318 224.142C88.7689 224.142 88.1686 223.972 87.6307 223.631C87.0966 223.286 86.6723 222.78 86.358 222.114C86.0473 221.443 85.892 220.621 85.892 219.648C85.892 218.648 86.053 217.816 86.375 217.153C86.697 216.487 87.125 215.989 87.6591 215.659C88.197 215.326 88.786 215.159 89.4261 215.159C89.9148 215.159 90.322 215.242 90.6477 215.409C90.9773 215.572 91.2424 215.777 91.4432 216.023C91.6477 216.265 91.803 216.504 91.9091 216.739H91.983V212.364H94.3977V224H92.0114V222.602H91.9091C91.7955 222.845 91.6345 223.085 91.4261 223.324C91.2216 223.559 90.9545 223.754 90.625 223.909C90.2992 224.064 89.9015 224.142 89.4318 224.142ZM90.1989 222.216C90.589 222.216 90.9186 222.11 91.1875 221.898C91.4602 221.682 91.6686 221.381 91.8125 220.994C91.9602 220.608 92.0341 220.155 92.0341 219.636C92.0341 219.117 91.9621 218.667 91.8182 218.284C91.6742 217.902 91.4659 217.606 91.1932 217.398C90.9205 217.189 90.589 217.085 90.1989 217.085C89.8011 217.085 89.4659 217.193 89.1932 217.409C88.9205 217.625 88.714 217.924 88.5739 218.307C88.4337 218.689 88.3636 219.133 88.3636 219.636C88.3636 220.144 88.4337 220.593 88.5739 220.983C88.7178 221.369 88.9242 221.672 89.1932 221.892C89.4659 222.108 89.8011 222.216 90.1989 222.216ZM100.365 224.17C99.4673 224.17 98.6946 223.989 98.0469 223.625C97.4029 223.258 96.9067 222.739 96.5582 222.068C96.2098 221.394 96.0355 220.597 96.0355 219.676C96.0355 218.778 96.2098 217.991 96.5582 217.312C96.9067 216.634 97.3973 216.106 98.0298 215.727C98.6662 215.348 99.4124 215.159 100.268 215.159C100.844 215.159 101.38 215.252 101.876 215.438C102.376 215.619 102.812 215.894 103.183 216.261C103.558 216.629 103.85 217.091 104.058 217.648C104.267 218.201 104.371 218.848 104.371 219.591V220.256H97.0014V218.756H102.092C102.092 218.407 102.017 218.098 101.865 217.83C101.714 217.561 101.503 217.35 101.234 217.199C100.969 217.044 100.661 216.966 100.308 216.966C99.9408 216.966 99.6151 217.051 99.331 217.222C99.0507 217.388 98.831 217.614 98.6719 217.898C98.5128 218.178 98.4313 218.491 98.4276 218.835V220.261C98.4276 220.693 98.5071 221.066 98.6662 221.381C98.8291 221.695 99.0582 221.938 99.3537 222.108C99.6491 222.278 99.9995 222.364 100.405 222.364C100.674 222.364 100.92 222.326 101.143 222.25C101.367 222.174 101.558 222.061 101.717 221.909C101.876 221.758 101.998 221.572 102.081 221.352L104.32 221.5C104.206 222.038 103.973 222.508 103.621 222.909C103.272 223.307 102.821 223.617 102.268 223.841C101.719 224.061 101.085 224.17 100.365 224.17ZM109.166 224.142C108.503 224.142 107.903 223.972 107.365 223.631C106.831 223.286 106.407 222.78 106.092 222.114C105.782 221.443 105.626 220.621 105.626 219.648C105.626 218.648 105.787 217.816 106.109 217.153C106.431 216.487 106.859 215.989 107.393 215.659C107.931 215.326 108.52 215.159 109.161 215.159C109.649 215.159 110.056 215.242 110.382 215.409C110.712 215.572 110.977 215.777 111.178 216.023C111.382 216.265 111.537 216.504 111.643 216.739H111.717V212.364H114.132V224H111.746V222.602H111.643C111.53 222.845 111.369 223.085 111.161 223.324C110.956 223.559 110.689 223.754 110.359 223.909C110.034 224.064 109.636 224.142 109.166 224.142ZM109.933 222.216C110.323 222.216 110.653 222.11 110.922 221.898C111.195 221.682 111.403 221.381 111.547 220.994C111.695 220.608 111.768 220.155 111.768 219.636C111.768 219.117 111.696 218.667 111.553 218.284C111.409 217.902 111.2 217.606 110.928 217.398C110.655 217.189 110.323 217.085 109.933 217.085C109.536 217.085 109.2 217.193 108.928 217.409C108.655 217.625 108.448 217.924 108.308 218.307C108.168 218.689 108.098 219.133 108.098 219.636C108.098 220.144 108.168 220.593 108.308 220.983C108.452 221.369 108.659 221.672 108.928 221.892C109.2 222.108 109.536 222.216 109.933 222.216ZM124.518 215.273V217.091H119.132V215.273H124.518ZM120.365 224V214.642C120.365 214.009 120.488 213.485 120.734 213.068C120.984 212.652 121.325 212.339 121.757 212.131C122.189 211.922 122.679 211.818 123.229 211.818C123.6 211.818 123.939 211.847 124.246 211.903C124.556 211.96 124.787 212.011 124.939 212.057L124.507 213.875C124.412 213.845 124.295 213.816 124.155 213.79C124.018 213.763 123.878 213.75 123.734 213.75C123.378 213.75 123.13 213.833 122.99 214C122.85 214.163 122.78 214.392 122.78 214.688V224H120.365ZM125.997 224V215.273H128.418V224H125.997ZM127.213 214.148C126.853 214.148 126.545 214.028 126.287 213.79C126.033 213.547 125.906 213.258 125.906 212.92C125.906 212.587 126.033 212.301 126.287 212.062C126.545 211.82 126.853 211.699 127.213 211.699C127.573 211.699 127.88 211.82 128.134 212.062C128.391 212.301 128.52 212.587 128.52 212.92C128.52 213.258 128.391 213.547 128.134 213.79C127.88 214.028 127.573 214.148 127.213 214.148ZM132.777 212.364V224H130.357V212.364H132.777ZM138.693 224.17C137.795 224.17 137.023 223.989 136.375 223.625C135.731 223.258 135.235 222.739 134.886 222.068C134.538 221.394 134.364 220.597 134.364 219.676C134.364 218.778 134.538 217.991 134.886 217.312C135.235 216.634 135.725 216.106 136.358 215.727C136.994 215.348 137.741 215.159 138.597 215.159C139.172 215.159 139.708 215.252 140.205 215.438C140.705 215.619 141.14 215.894 141.511 216.261C141.886 216.629 142.178 217.091 142.386 217.648C142.595 218.201 142.699 218.848 142.699 219.591V220.256H135.33V218.756H140.42C140.42 218.407 140.345 218.098 140.193 217.83C140.042 217.561 139.831 217.35 139.562 217.199C139.297 217.044 138.989 216.966 138.636 216.966C138.269 216.966 137.943 217.051 137.659 217.222C137.379 217.388 137.159 217.614 137 217.898C136.841 218.178 136.759 218.491 136.756 218.835V220.261C136.756 220.693 136.835 221.066 136.994 221.381C137.157 221.695 137.386 221.938 137.682 222.108C137.977 222.278 138.328 222.364 138.733 222.364C139.002 222.364 139.248 222.326 139.472 222.25C139.695 222.174 139.886 222.061 140.045 221.909C140.205 221.758 140.326 221.572 140.409 221.352L142.648 221.5C142.534 222.038 142.301 222.508 141.949 222.909C141.6 223.307 141.15 223.617 140.597 223.841C140.047 224.061 139.413 224.17 138.693 224.17ZM147.959 224V222.227L152.101 218.392C152.453 218.051 152.749 217.744 152.987 217.472C153.23 217.199 153.413 216.932 153.538 216.67C153.663 216.405 153.726 216.119 153.726 215.812C153.726 215.472 153.648 215.178 153.493 214.932C153.338 214.682 153.125 214.491 152.857 214.358C152.588 214.222 152.283 214.153 151.942 214.153C151.586 214.153 151.275 214.225 151.01 214.369C150.745 214.513 150.54 214.72 150.396 214.989C150.252 215.258 150.18 215.578 150.18 215.949H147.845C147.845 215.187 148.018 214.527 148.362 213.966C148.707 213.405 149.19 212.972 149.811 212.665C150.432 212.358 151.148 212.205 151.959 212.205C152.792 212.205 153.518 212.352 154.135 212.648C154.756 212.939 155.239 213.345 155.584 213.864C155.929 214.383 156.101 214.977 156.101 215.648C156.101 216.087 156.014 216.521 155.839 216.949C155.669 217.377 155.364 217.852 154.925 218.375C154.485 218.894 153.866 219.517 153.067 220.244L151.368 221.909V221.989H156.254V224H147.959ZM159.474 224.148C159.099 224.148 158.777 224.015 158.509 223.75C158.243 223.481 158.111 223.159 158.111 222.784C158.111 222.413 158.243 222.095 158.509 221.83C158.777 221.564 159.099 221.432 159.474 221.432C159.838 221.432 160.156 221.564 160.429 221.83C160.702 222.095 160.838 222.413 160.838 222.784C160.838 223.034 160.774 223.263 160.645 223.472C160.52 223.676 160.355 223.841 160.151 223.966C159.946 224.087 159.721 224.148 159.474 224.148ZM166.803 224.17C165.905 224.17 165.132 223.989 164.484 223.625C163.84 223.258 163.344 222.739 162.996 222.068C162.647 221.394 162.473 220.597 162.473 219.676C162.473 218.778 162.647 217.991 162.996 217.312C163.344 216.634 163.835 216.106 164.467 215.727C165.104 215.348 165.85 215.159 166.706 215.159C167.282 215.159 167.818 215.252 168.314 215.438C168.814 215.619 169.25 215.894 169.621 216.261C169.996 216.629 170.287 217.091 170.496 217.648C170.704 218.201 170.808 218.848 170.808 219.591V220.256H163.439V218.756H168.53C168.53 218.407 168.454 218.098 168.303 217.83C168.151 217.561 167.941 217.35 167.672 217.199C167.407 217.044 167.098 216.966 166.746 216.966C166.378 216.966 166.053 217.051 165.768 217.222C165.488 217.388 165.268 217.614 165.109 217.898C164.95 218.178 164.869 218.491 164.865 218.835V220.261C164.865 220.693 164.945 221.066 165.104 221.381C165.267 221.695 165.496 221.938 165.791 222.108C166.087 222.278 166.437 222.364 166.842 222.364C167.111 222.364 167.357 222.326 167.581 222.25C167.804 222.174 167.996 222.061 168.155 221.909C168.314 221.758 168.435 221.572 168.518 221.352L170.757 221.5C170.643 222.038 170.411 222.508 170.058 222.909C169.71 223.307 169.259 223.617 168.706 223.841C168.157 224.061 167.522 224.17 166.803 224.17ZM174.254 215.273L175.857 218.324L177.499 215.273H179.982L177.453 219.636L180.05 224H177.578L175.857 220.983L174.163 224H171.663L174.254 219.636L171.754 215.273H174.254ZM186.061 215.273V217.091H180.805V215.273H186.061ZM181.999 213.182H184.419V221.318C184.419 221.542 184.453 221.716 184.521 221.841C184.589 221.962 184.684 222.047 184.805 222.097C184.93 222.146 185.074 222.17 185.237 222.17C185.351 222.17 185.464 222.161 185.578 222.142C185.692 222.119 185.779 222.102 185.839 222.091L186.22 223.892C186.099 223.93 185.929 223.973 185.709 224.023C185.489 224.076 185.222 224.108 184.908 224.119C184.324 224.142 183.813 224.064 183.374 223.886C182.938 223.708 182.599 223.432 182.357 223.057C182.114 222.682 181.995 222.208 181.999 221.636V213.182ZM191.521 224.17C190.624 224.17 189.851 223.989 189.203 223.625C188.559 223.258 188.063 222.739 187.714 222.068C187.366 221.394 187.192 220.597 187.192 219.676C187.192 218.778 187.366 217.991 187.714 217.312C188.063 216.634 188.554 216.106 189.186 215.727C189.822 215.348 190.569 215.159 191.425 215.159C192 215.159 192.536 215.252 193.033 215.438C193.533 215.619 193.968 215.894 194.339 216.261C194.714 216.629 195.006 217.091 195.214 217.648C195.423 218.201 195.527 218.848 195.527 219.591V220.256H188.158V218.756H193.249C193.249 218.407 193.173 218.098 193.021 217.83C192.87 217.561 192.66 217.35 192.391 217.199C192.125 217.044 191.817 216.966 191.464 216.966C191.097 216.966 190.771 217.051 190.487 217.222C190.207 217.388 189.987 217.614 189.828 217.898C189.669 218.178 189.588 218.491 189.584 218.835V220.261C189.584 220.693 189.663 221.066 189.822 221.381C189.985 221.695 190.214 221.938 190.51 222.108C190.805 222.278 191.156 222.364 191.561 222.364C191.83 222.364 192.076 222.326 192.3 222.25C192.523 222.174 192.714 222.061 192.874 221.909C193.033 221.758 193.154 221.572 193.237 221.352L195.476 221.5C195.362 222.038 195.129 222.508 194.777 222.909C194.429 223.307 193.978 223.617 193.425 223.841C192.875 224.061 192.241 224.17 191.521 224.17ZM199.527 218.955V224H197.107V215.273H199.413V216.812H199.516C199.709 216.305 200.033 215.903 200.487 215.608C200.942 215.309 201.493 215.159 202.141 215.159C202.747 215.159 203.275 215.292 203.726 215.557C204.177 215.822 204.527 216.201 204.777 216.693C205.027 217.182 205.152 217.765 205.152 218.443V224H202.732V218.875C202.735 218.341 202.599 217.924 202.322 217.625C202.046 217.322 201.665 217.17 201.18 217.17C200.855 217.17 200.567 217.241 200.317 217.381C200.071 217.521 199.877 217.725 199.737 217.994C199.601 218.259 199.531 218.58 199.527 218.955ZM214.321 217.761L212.105 217.898C212.067 217.708 211.986 217.538 211.861 217.386C211.736 217.231 211.571 217.108 211.366 217.017C211.166 216.922 210.925 216.875 210.645 216.875C210.27 216.875 209.954 216.955 209.696 217.114C209.438 217.269 209.31 217.477 209.31 217.739C209.31 217.947 209.393 218.123 209.56 218.267C209.726 218.411 210.012 218.527 210.418 218.614L211.997 218.932C212.846 219.106 213.478 219.386 213.895 219.773C214.312 220.159 214.52 220.667 214.52 221.295C214.52 221.867 214.351 222.369 214.014 222.801C213.681 223.233 213.223 223.57 212.639 223.812C212.06 224.051 211.391 224.17 210.634 224.17C209.478 224.17 208.558 223.93 207.872 223.449C207.19 222.964 206.791 222.305 206.673 221.472L209.054 221.347C209.126 221.699 209.3 221.968 209.577 222.153C209.853 222.335 210.207 222.426 210.639 222.426C211.063 222.426 211.404 222.345 211.662 222.182C211.923 222.015 212.056 221.801 212.06 221.54C212.056 221.32 211.963 221.14 211.781 221C211.599 220.856 211.319 220.746 210.94 220.67L209.429 220.369C208.577 220.199 207.942 219.903 207.526 219.483C207.113 219.062 206.906 218.527 206.906 217.875C206.906 217.314 207.058 216.831 207.361 216.426C207.668 216.021 208.098 215.708 208.651 215.489C209.207 215.269 209.859 215.159 210.605 215.159C211.707 215.159 212.575 215.392 213.207 215.858C213.844 216.324 214.215 216.958 214.321 217.761ZM216.044 224V215.273H218.464V224H216.044ZM217.26 214.148C216.9 214.148 216.591 214.028 216.334 213.79C216.08 213.547 215.953 213.258 215.953 212.92C215.953 212.587 216.08 212.301 216.334 212.062C216.591 211.82 216.9 211.699 217.26 211.699C217.62 211.699 217.927 211.82 218.18 212.062C218.438 212.301 218.567 212.587 218.567 212.92C218.567 213.258 218.438 213.547 218.18 213.79C217.927 214.028 217.62 214.148 217.26 214.148ZM224.347 224.17C223.464 224.17 222.701 223.983 222.057 223.608C221.417 223.229 220.922 222.703 220.574 222.028C220.225 221.35 220.051 220.564 220.051 219.67C220.051 218.769 220.225 217.981 220.574 217.307C220.922 216.629 221.417 216.102 222.057 215.727C222.701 215.348 223.464 215.159 224.347 215.159C225.229 215.159 225.991 215.348 226.631 215.727C227.275 216.102 227.771 216.629 228.119 217.307C228.468 217.981 228.642 218.769 228.642 219.67C228.642 220.564 228.468 221.35 228.119 222.028C227.771 222.703 227.275 223.229 226.631 223.608C225.991 223.983 225.229 224.17 224.347 224.17ZM224.358 222.295C224.759 222.295 225.095 222.182 225.364 221.955C225.633 221.723 225.835 221.409 225.972 221.011C226.112 220.614 226.182 220.161 226.182 219.653C226.182 219.146 226.112 218.693 225.972 218.295C225.835 217.898 225.633 217.583 225.364 217.352C225.095 217.121 224.759 217.006 224.358 217.006C223.953 217.006 223.612 217.121 223.335 217.352C223.063 217.583 222.856 217.898 222.716 218.295C222.58 218.693 222.511 219.146 222.511 219.653C222.511 220.161 222.58 220.614 222.716 221.011C222.856 221.409 223.063 221.723 223.335 221.955C223.612 222.182 223.953 222.295 224.358 222.295ZM232.636 218.955V224H230.216V215.273H232.523V216.812H232.625C232.818 216.305 233.142 215.903 233.597 215.608C234.051 215.309 234.602 215.159 235.25 215.159C235.856 215.159 236.384 215.292 236.835 215.557C237.286 215.822 237.636 216.201 237.886 216.693C238.136 217.182 238.261 217.765 238.261 218.443V224H235.841V218.875C235.845 218.341 235.708 217.924 235.432 217.625C235.155 217.322 234.775 217.17 234.29 217.17C233.964 217.17 233.676 217.241 233.426 217.381C233.18 217.521 232.987 217.725 232.847 217.994C232.71 218.259 232.64 218.58 232.636 218.955Z" fill="#0F71BB"/>
<path d="M40 227.182H239.199V228.273H40V227.182Z" fill="#0F71BB"/>
<path d="M268 225.875C265.911 225.875 263.908 225.045 262.432 223.568C260.955 222.092 260.125 220.089 260.125 218C260.125 215.911 260.955 213.908 262.432 212.432C263.908 210.955 265.911 210.125 268 210.125C270.089 210.125 272.092 210.955 273.568 212.432C275.045 213.908 275.875 215.911 275.875 218C275.875 220.089 275.045 222.092 273.568 223.568C272.092 225.045 270.089 225.875 268 225.875ZM268 227C270.387 227 272.676 226.052 274.364 224.364C276.052 222.676 277 220.387 277 218C277 215.613 276.052 213.324 274.364 211.636C272.676 209.948 270.387 209 268 209C265.613 209 263.324 209.948 261.636 211.636C259.948 213.324 259 215.613 259 218C259 220.387 259.948 222.676 261.636 224.364C263.324 226.052 265.613 227 268 227Z" fill="#D0021B"/>
<path d="M264.227 214.227C264.279 214.174 264.341 214.133 264.409 214.104C264.478 214.076 264.551 214.061 264.625 214.061C264.699 214.061 264.772 214.076 264.841 214.104C264.909 214.133 264.971 214.174 265.023 214.227L268 217.205L270.977 214.227C271.029 214.174 271.091 214.133 271.159 214.105C271.228 214.076 271.301 214.062 271.375 214.062C271.449 214.062 271.522 214.076 271.591 214.105C271.659 214.133 271.721 214.174 271.773 214.227C271.826 214.279 271.867 214.341 271.895 214.409C271.924 214.478 271.938 214.551 271.938 214.625C271.938 214.699 271.924 214.772 271.895 214.841C271.867 214.909 271.826 214.971 271.773 215.023L268.795 218L271.773 220.977C271.826 221.029 271.867 221.091 271.895 221.159C271.924 221.228 271.938 221.301 271.938 221.375C271.938 221.449 271.924 221.522 271.895 221.59C271.867 221.659 271.826 221.721 271.773 221.773C271.721 221.826 271.659 221.867 271.591 221.895C271.522 221.924 271.449 221.938 271.375 221.938C271.301 221.938 271.228 221.924 271.159 221.895C271.091 221.867 271.029 221.826 270.977 221.773L268 218.795L265.023 221.773C264.971 221.826 264.909 221.867 264.841 221.895C264.772 221.924 264.699 221.938 264.625 221.938C264.551 221.938 264.478 221.924 264.409 221.895C264.341 221.867 264.279 221.826 264.227 221.773C264.174 221.721 264.133 221.659 264.105 221.59C264.076 221.522 264.062 221.449 264.062 221.375C264.062 221.301 264.076 221.228 264.105 221.159C264.133 221.091 264.174 221.029 264.227 220.977L267.205 218L264.227 215.023C264.174 214.971 264.133 214.909 264.104 214.841C264.076 214.772 264.061 214.699 264.061 214.625C264.061 214.551 264.076 214.478 264.104 214.409C264.133 214.341 264.174 214.279 264.227 214.227Z" fill="#D0021B"/>
<path d="M20.7701 251.968C20.843 252.041 20.9008 252.128 20.9402 252.223C20.9797 252.318 21 252.42 21 252.522C21 252.625 20.9797 252.727 20.9402 252.822C20.9008 252.917 20.843 253.004 20.7701 253.077L9.81504 264.032C9.74235 264.104 9.656 264.162 9.56094 264.202C9.46587 264.241 9.36395 264.261 9.26103 264.261C9.1581 264.261 9.05619 264.241 8.96112 264.202C8.86605 264.162 8.7797 264.104 8.70701 264.032L3.22948 258.554C3.08255 258.407 3 258.208 3 258C3 257.792 3.08255 257.593 3.22948 257.446C3.37641 257.299 3.5757 257.217 3.78349 257.217C3.99129 257.217 4.19057 257.299 4.33751 257.446L9.26103 262.371L19.6621 251.968C19.7348 251.896 19.8211 251.838 19.9162 251.798C20.0113 251.759 20.1132 251.739 20.2161 251.739C20.319 251.739 20.4209 251.759 20.516 251.798C20.6111 251.838 20.6974 251.896 20.7701 251.968Z" fill="#0A8217"/>
<path d="M48.1989 252.364H50.6591V259.92C50.6591 260.769 50.4564 261.511 50.0511 262.148C49.6496 262.784 49.0871 263.28 48.3636 263.636C47.6402 263.989 46.7973 264.165 45.8352 264.165C44.8693 264.165 44.0246 263.989 43.3011 263.636C42.5777 263.28 42.0152 262.784 41.6136 262.148C41.2121 261.511 41.0114 260.769 41.0114 259.92V252.364H43.4716V259.71C43.4716 260.153 43.5682 260.547 43.7614 260.892C43.9583 261.237 44.2348 261.508 44.5909 261.705C44.947 261.902 45.3617 262 45.8352 262C46.3125 262 46.7273 261.902 47.0795 261.705C47.4356 261.508 47.7102 261.237 47.9034 260.892C48.1004 260.547 48.1989 260.153 48.1989 259.71V252.364ZM52.6378 267.273V255.273H55.0241V256.739H55.1321C55.2382 256.504 55.3916 256.265 55.5923 256.023C55.7969 255.777 56.062 255.572 56.3878 255.409C56.7173 255.242 57.1264 255.159 57.6151 255.159C58.2514 255.159 58.8385 255.326 59.3764 255.659C59.9143 255.989 60.3442 256.487 60.6662 257.153C60.9882 257.816 61.1491 258.648 61.1491 259.648C61.1491 260.621 60.992 261.443 60.6776 262.114C60.367 262.78 59.9427 263.286 59.4048 263.631C58.8707 263.972 58.2723 264.142 57.6094 264.142C57.1397 264.142 56.7401 264.064 56.4105 263.909C56.0848 263.754 55.8177 263.559 55.6094 263.324C55.401 263.085 55.242 262.845 55.1321 262.602H55.0582V267.273H52.6378ZM55.0071 259.636C55.0071 260.155 55.0791 260.608 55.223 260.994C55.367 261.381 55.5753 261.682 55.848 261.898C56.1207 262.11 56.4522 262.216 56.8423 262.216C57.2363 262.216 57.5696 262.108 57.8423 261.892C58.1151 261.672 58.3215 261.369 58.4616 260.983C58.6056 260.593 58.6776 260.144 58.6776 259.636C58.6776 259.133 58.6075 258.689 58.4673 258.307C58.3272 257.924 58.1207 257.625 57.848 257.409C57.5753 257.193 57.2401 257.085 56.8423 257.085C56.4484 257.085 56.1151 257.189 55.8423 257.398C55.5734 257.606 55.367 257.902 55.223 258.284C55.0791 258.667 55.0071 259.117 55.0071 259.636ZM65.1832 252.364V264H62.7628V252.364H65.1832ZM71.0653 264.17C70.1828 264.17 69.4195 263.983 68.7756 263.608C68.1354 263.229 67.6411 262.703 67.2926 262.028C66.9441 261.35 66.7699 260.564 66.7699 259.67C66.7699 258.769 66.9441 257.981 67.2926 257.307C67.6411 256.629 68.1354 256.102 68.7756 255.727C69.4195 255.348 70.1828 255.159 71.0653 255.159C71.9479 255.159 72.7093 255.348 73.3494 255.727C73.9934 256.102 74.4896 256.629 74.8381 257.307C75.1866 257.981 75.3608 258.769 75.3608 259.67C75.3608 260.564 75.1866 261.35 74.8381 262.028C74.4896 262.703 73.9934 263.229 73.3494 263.608C72.7093 263.983 71.9479 264.17 71.0653 264.17ZM71.0767 262.295C71.4782 262.295 71.8134 262.182 72.0824 261.955C72.3513 261.723 72.554 261.409 72.6903 261.011C72.8305 260.614 72.9006 260.161 72.9006 259.653C72.9006 259.146 72.8305 258.693 72.6903 258.295C72.554 257.898 72.3513 257.583 72.0824 257.352C71.8134 257.121 71.4782 257.006 71.0767 257.006C70.6714 257.006 70.3305 257.121 70.054 257.352C69.7813 257.583 69.5748 257.898 69.4347 258.295C69.2983 258.693 69.2301 259.146 69.2301 259.653C69.2301 260.161 69.2983 260.614 69.4347 261.011C69.5748 261.409 69.7813 261.723 70.054 261.955C70.3305 262.182 70.6714 262.295 71.0767 262.295ZM79.4233 264.165C78.8665 264.165 78.3703 264.068 77.9347 263.875C77.4991 263.678 77.1544 263.388 76.9006 263.006C76.6506 262.619 76.5256 262.138 76.5256 261.562C76.5256 261.078 76.6146 260.67 76.7926 260.341C76.9706 260.011 77.2131 259.746 77.5199 259.545C77.8267 259.345 78.1752 259.193 78.5653 259.091C78.9593 258.989 79.3722 258.917 79.804 258.875C80.3116 258.822 80.7206 258.773 81.0312 258.727C81.3419 258.678 81.5672 258.606 81.7074 258.511C81.8475 258.417 81.9176 258.277 81.9176 258.091V258.057C81.9176 257.697 81.804 257.419 81.5767 257.222C81.3532 257.025 81.035 256.926 80.6222 256.926C80.1866 256.926 79.84 257.023 79.5824 257.216C79.3248 257.405 79.1544 257.644 79.071 257.932L76.8324 257.75C76.946 257.22 77.1695 256.761 77.5028 256.375C77.8362 255.985 78.2661 255.686 78.7926 255.477C79.3229 255.265 79.9366 255.159 80.6335 255.159C81.1184 255.159 81.5824 255.216 82.0256 255.33C82.4725 255.443 82.8684 255.619 83.2131 255.858C83.5616 256.097 83.8362 256.403 84.0369 256.778C84.2377 257.15 84.3381 257.595 84.3381 258.114V264H82.0426V262.79H81.9744C81.8343 263.062 81.6468 263.303 81.4119 263.511C81.1771 263.716 80.8949 263.877 80.5653 263.994C80.2358 264.108 79.8551 264.165 79.4233 264.165ZM80.1165 262.494C80.4725 262.494 80.7869 262.424 81.0597 262.284C81.3324 262.14 81.5464 261.947 81.7017 261.705C81.857 261.462 81.9347 261.187 81.9347 260.881V259.955C81.8589 260.004 81.7547 260.049 81.6222 260.091C81.4934 260.129 81.3475 260.165 81.1847 260.199C81.0218 260.229 80.8589 260.258 80.696 260.284C80.5331 260.307 80.3854 260.328 80.2528 260.347C79.9688 260.388 79.7206 260.455 79.5085 260.545C79.2964 260.636 79.1316 260.759 79.0142 260.915C78.8968 261.066 78.8381 261.256 78.8381 261.483C78.8381 261.812 78.9574 262.064 79.196 262.239C79.4384 262.409 79.7453 262.494 80.1165 262.494ZM89.4318 264.142C88.7689 264.142 88.1686 263.972 87.6307 263.631C87.0966 263.286 86.6723 262.78 86.358 262.114C86.0473 261.443 85.892 260.621 85.892 259.648C85.892 258.648 86.053 257.816 86.375 257.153C86.697 256.487 87.125 255.989 87.6591 255.659C88.197 255.326 88.786 255.159 89.4261 255.159C89.9148 255.159 90.322 255.242 90.6477 255.409C90.9773 255.572 91.2424 255.777 91.4432 256.023C91.6477 256.265 91.803 256.504 91.9091 256.739H91.983V252.364H94.3977V264H92.0114V262.602H91.9091C91.7955 262.845 91.6345 263.085 91.4261 263.324C91.2216 263.559 90.9545 263.754 90.625 263.909C90.2992 264.064 89.9015 264.142 89.4318 264.142ZM90.1989 262.216C90.589 262.216 90.9186 262.11 91.1875 261.898C91.4602 261.682 91.6686 261.381 91.8125 260.994C91.9602 260.608 92.0341 260.155 92.0341 259.636C92.0341 259.117 91.9621 258.667 91.8182 258.284C91.6742 257.902 91.4659 257.606 91.1932 257.398C90.9205 257.189 90.589 257.085 90.1989 257.085C89.8011 257.085 89.4659 257.193 89.1932 257.409C88.9205 257.625 88.714 257.924 88.5739 258.307C88.4337 258.689 88.3636 259.133 88.3636 259.636C88.3636 260.144 88.4337 260.593 88.5739 260.983C88.7178 261.369 88.9242 261.672 89.1932 261.892C89.4659 262.108 89.8011 262.216 90.1989 262.216ZM100.365 264.17C99.4673 264.17 98.6946 263.989 98.0469 263.625C97.4029 263.258 96.9067 262.739 96.5582 262.068C96.2098 261.394 96.0355 260.597 96.0355 259.676C96.0355 258.778 96.2098 257.991 96.5582 257.312C96.9067 256.634 97.3973 256.106 98.0298 255.727C98.6662 255.348 99.4124 255.159 100.268 255.159C100.844 255.159 101.38 255.252 101.876 255.438C102.376 255.619 102.812 255.894 103.183 256.261C103.558 256.629 103.85 257.091 104.058 257.648C104.267 258.201 104.371 258.848 104.371 259.591V260.256H97.0014V258.756H102.092C102.092 258.407 102.017 258.098 101.865 257.83C101.714 257.561 101.503 257.35 101.234 257.199C100.969 257.044 100.661 256.966 100.308 256.966C99.9408 256.966 99.6151 257.051 99.331 257.222C99.0507 257.388 98.831 257.614 98.6719 257.898C98.5128 258.178 98.4313 258.491 98.4276 258.835V260.261C98.4276 260.693 98.5071 261.066 98.6662 261.381C98.8291 261.695 99.0582 261.938 99.3537 262.108C99.6491 262.278 99.9995 262.364 100.405 262.364C100.674 262.364 100.92 262.326 101.143 262.25C101.367 262.174 101.558 262.061 101.717 261.909C101.876 261.758 101.998 261.572 102.081 261.352L104.32 261.5C104.206 262.038 103.973 262.508 103.621 262.909C103.272 263.307 102.821 263.617 102.268 263.841C101.719 264.061 101.085 264.17 100.365 264.17ZM109.166 264.142C108.503 264.142 107.903 263.972 107.365 263.631C106.831 263.286 106.407 262.78 106.092 262.114C105.782 261.443 105.626 260.621 105.626 259.648C105.626 258.648 105.787 257.816 106.109 257.153C106.431 256.487 106.859 255.989 107.393 255.659C107.931 255.326 108.52 255.159 109.161 255.159C109.649 255.159 110.056 255.242 110.382 255.409C110.712 255.572 110.977 255.777 111.178 256.023C111.382 256.265 111.537 256.504 111.643 256.739H111.717V252.364H114.132V264H111.746V262.602H111.643C111.53 262.845 111.369 263.085 111.161 263.324C110.956 263.559 110.689 263.754 110.359 263.909C110.034 264.064 109.636 264.142 109.166 264.142ZM109.933 262.216C110.323 262.216 110.653 262.11 110.922 261.898C111.195 261.682 111.403 261.381 111.547 260.994C111.695 260.608 111.768 260.155 111.768 259.636C111.768 259.117 111.696 258.667 111.553 258.284C111.409 257.902 111.2 257.606 110.928 257.398C110.655 257.189 110.323 257.085 109.933 257.085C109.536 257.085 109.2 257.193 108.928 257.409C108.655 257.625 108.448 257.924 108.308 258.307C108.168 258.689 108.098 259.133 108.098 259.636C108.098 260.144 108.168 260.593 108.308 260.983C108.452 261.369 108.659 261.672 108.928 261.892C109.2 262.108 109.536 262.216 109.933 262.216ZM124.518 255.273V257.091H119.132V255.273H124.518ZM120.365 264V254.642C120.365 254.009 120.488 253.485 120.734 253.068C120.984 252.652 121.325 252.339 121.757 252.131C122.189 251.922 122.679 251.818 123.229 251.818C123.6 251.818 123.939 251.847 124.246 251.903C124.556 251.96 124.787 252.011 124.939 252.057L124.507 253.875C124.412 253.845 124.295 253.816 124.155 253.79C124.018 253.763 123.878 253.75 123.734 253.75C123.378 253.75 123.13 253.833 122.99 254C122.85 254.163 122.78 254.392 122.78 254.688V264H120.365ZM125.997 264V255.273H128.418V264H125.997ZM127.213 254.148C126.853 254.148 126.545 254.028 126.287 253.79C126.033 253.547 125.906 253.258 125.906 252.92C125.906 252.587 126.033 252.301 126.287 252.062C126.545 251.82 126.853 251.699 127.213 251.699C127.573 251.699 127.88 251.82 128.134 252.062C128.391 252.301 128.52 252.587 128.52 252.92C128.52 253.258 128.391 253.547 128.134 253.79C127.88 254.028 127.573 254.148 127.213 254.148ZM132.777 252.364V264H130.357V252.364H132.777ZM138.693 264.17C137.795 264.17 137.023 263.989 136.375 263.625C135.731 263.258 135.235 262.739 134.886 262.068C134.538 261.394 134.364 260.597 134.364 259.676C134.364 258.778 134.538 257.991 134.886 257.312C135.235 256.634 135.725 256.106 136.358 255.727C136.994 255.348 137.741 255.159 138.597 255.159C139.172 255.159 139.708 255.252 140.205 255.438C140.705 255.619 141.14 255.894 141.511 256.261C141.886 256.629 142.178 257.091 142.386 257.648C142.595 258.201 142.699 258.848 142.699 259.591V260.256H135.33V258.756H140.42C140.42 258.407 140.345 258.098 140.193 257.83C140.042 257.561 139.831 257.35 139.562 257.199C139.297 257.044 138.989 256.966 138.636 256.966C138.269 256.966 137.943 257.051 137.659 257.222C137.379 257.388 137.159 257.614 137 257.898C136.841 258.178 136.759 258.491 136.756 258.835V260.261C136.756 260.693 136.835 261.066 136.994 261.381C137.157 261.695 137.386 261.938 137.682 262.108C137.977 262.278 138.328 262.364 138.733 262.364C139.002 262.364 139.248 262.326 139.472 262.25C139.695 262.174 139.886 262.061 140.045 261.909C140.205 261.758 140.326 261.572 140.409 261.352L142.648 261.5C142.534 262.038 142.301 262.508 141.949 262.909C141.6 263.307 141.15 263.617 140.597 263.841C140.047 264.061 139.413 264.17 138.693 264.17ZM152.26 264.159C151.411 264.159 150.656 264.013 149.993 263.722C149.334 263.426 148.813 263.021 148.43 262.506C148.052 261.987 147.857 261.388 147.845 260.71H150.322C150.338 260.994 150.43 261.244 150.601 261.46C150.775 261.672 151.006 261.837 151.294 261.955C151.582 262.072 151.906 262.131 152.266 262.131C152.641 262.131 152.972 262.064 153.26 261.932C153.548 261.799 153.773 261.616 153.936 261.381C154.099 261.146 154.18 260.875 154.18 260.568C154.18 260.258 154.093 259.983 153.919 259.744C153.749 259.502 153.502 259.312 153.18 259.176C152.862 259.04 152.483 258.972 152.044 258.972H150.959V257.165H152.044C152.415 257.165 152.743 257.1 153.027 256.972C153.315 256.843 153.538 256.665 153.697 256.438C153.857 256.206 153.936 255.938 153.936 255.631C153.936 255.339 153.866 255.083 153.726 254.864C153.589 254.64 153.396 254.466 153.146 254.341C152.9 254.216 152.612 254.153 152.283 254.153C151.949 254.153 151.644 254.214 151.368 254.335C151.091 254.453 150.87 254.621 150.703 254.841C150.536 255.061 150.447 255.318 150.436 255.614H148.078C148.089 254.943 148.281 254.352 148.652 253.841C149.023 253.33 149.523 252.93 150.152 252.642C150.785 252.35 151.499 252.205 152.294 252.205C153.097 252.205 153.8 252.35 154.402 252.642C155.004 252.934 155.472 253.328 155.805 253.824C156.143 254.316 156.309 254.869 156.305 255.483C156.309 256.134 156.107 256.678 155.697 257.114C155.292 257.549 154.764 257.826 154.112 257.943V258.034C154.968 258.144 155.62 258.441 156.067 258.926C156.518 259.407 156.741 260.009 156.737 260.733C156.741 261.396 156.55 261.985 156.163 262.5C155.781 263.015 155.252 263.42 154.578 263.716C153.904 264.011 153.131 264.159 152.26 264.159ZM159.615 264.148C159.24 264.148 158.918 264.015 158.649 263.75C158.384 263.481 158.251 263.159 158.251 262.784C158.251 262.413 158.384 262.095 158.649 261.83C158.918 261.564 159.24 261.432 159.615 261.432C159.979 261.432 160.297 261.564 160.57 261.83C160.842 262.095 160.979 262.413 160.979 262.784C160.979 263.034 160.914 263.263 160.786 263.472C160.661 263.676 160.496 263.841 160.291 263.966C160.087 264.087 159.861 264.148 159.615 264.148ZM166.943 264.17C166.045 264.17 165.273 263.989 164.625 263.625C163.981 263.258 163.485 262.739 163.136 262.068C162.788 261.394 162.614 260.597 162.614 259.676C162.614 258.778 162.788 257.991 163.136 257.312C163.485 256.634 163.975 256.106 164.608 255.727C165.244 255.348 165.991 255.159 166.847 255.159C167.422 255.159 167.958 255.252 168.455 255.438C168.955 255.619 169.39 255.894 169.761 256.261C170.136 256.629 170.428 257.091 170.636 257.648C170.845 258.201 170.949 258.848 170.949 259.591V260.256H163.58V258.756H168.67C168.67 258.407 168.595 258.098 168.443 257.83C168.292 257.561 168.081 257.35 167.812 257.199C167.547 257.044 167.239 256.966 166.886 256.966C166.519 256.966 166.193 257.051 165.909 257.222C165.629 257.388 165.409 257.614 165.25 257.898C165.091 258.178 165.009 258.491 165.006 258.835V260.261C165.006 260.693 165.085 261.066 165.244 261.381C165.407 261.695 165.636 261.938 165.932 262.108C166.227 262.278 166.578 262.364 166.983 262.364C167.252 262.364 167.498 262.326 167.722 262.25C167.945 262.174 168.136 262.061 168.295 261.909C168.455 261.758 168.576 261.572 168.659 261.352L170.898 261.5C170.784 262.038 170.551 262.508 170.199 262.909C169.85 263.307 169.4 263.617 168.847 263.841C168.297 264.061 167.663 264.17 166.943 264.17ZM174.395 255.273L175.997 258.324L177.639 255.273H180.122L177.594 259.636L180.19 264H177.719L175.997 260.983L174.304 264H171.804L174.395 259.636L171.895 255.273H174.395ZM186.202 255.273V257.091H180.946V255.273H186.202ZM182.139 253.182H184.56V261.318C184.56 261.542 184.594 261.716 184.662 261.841C184.73 261.962 184.825 262.047 184.946 262.097C185.071 262.146 185.215 262.17 185.378 262.17C185.491 262.17 185.605 262.161 185.719 262.142C185.832 262.119 185.92 262.102 185.98 262.091L186.361 263.892C186.24 263.93 186.069 263.973 185.849 264.023C185.63 264.076 185.363 264.108 185.048 264.119C184.465 264.142 183.954 264.064 183.514 263.886C183.079 263.708 182.74 263.432 182.497 263.057C182.255 262.682 182.135 262.208 182.139 261.636V253.182ZM191.662 264.17C190.764 264.17 189.991 263.989 189.344 263.625C188.7 263.258 188.204 262.739 187.855 262.068C187.507 261.394 187.332 260.597 187.332 259.676C187.332 258.778 187.507 257.991 187.855 257.312C188.204 256.634 188.694 256.106 189.327 255.727C189.963 255.348 190.709 255.159 191.565 255.159C192.141 255.159 192.677 255.252 193.173 255.438C193.673 255.619 194.109 255.894 194.48 256.261C194.855 256.629 195.147 257.091 195.355 257.648C195.563 258.201 195.668 258.848 195.668 259.591V260.256H188.298V258.756H193.389C193.389 258.407 193.313 258.098 193.162 257.83C193.01 257.561 192.8 257.35 192.531 257.199C192.266 257.044 191.957 256.966 191.605 256.966C191.238 256.966 190.912 257.051 190.628 257.222C190.348 257.388 190.128 257.614 189.969 257.898C189.81 258.178 189.728 258.491 189.724 258.835V260.261C189.724 260.693 189.804 261.066 189.963 261.381C190.126 261.695 190.355 261.938 190.651 262.108C190.946 262.278 191.296 262.364 191.702 262.364C191.971 262.364 192.217 262.326 192.44 262.25C192.664 262.174 192.855 262.061 193.014 261.909C193.173 261.758 193.295 261.572 193.378 261.352L195.616 261.5C195.503 262.038 195.27 262.508 194.918 262.909C194.569 263.307 194.118 263.617 193.565 263.841C193.016 264.061 192.382 264.17 191.662 264.17ZM199.668 258.955V264H197.247V255.273H199.554V256.812H199.656C199.849 256.305 200.173 255.903 200.628 255.608C201.082 255.309 201.634 255.159 202.281 255.159C202.887 255.159 203.416 255.292 203.866 255.557C204.317 255.822 204.668 256.201 204.918 256.693C205.168 257.182 205.293 257.765 205.293 258.443V264H202.872V258.875C202.876 258.341 202.74 257.924 202.463 257.625C202.187 257.322 201.806 257.17 201.321 257.17C200.995 257.17 200.707 257.241 200.457 257.381C200.211 257.521 200.018 257.725 199.878 257.994C199.741 258.259 199.671 258.58 199.668 258.955ZM214.462 257.761L212.246 257.898C212.208 257.708 212.126 257.538 212.001 257.386C211.876 257.231 211.712 257.108 211.507 257.017C211.306 256.922 211.066 256.875 210.786 256.875C210.411 256.875 210.094 256.955 209.837 257.114C209.579 257.269 209.45 257.477 209.45 257.739C209.45 257.947 209.534 258.123 209.7 258.267C209.867 258.411 210.153 258.527 210.558 258.614L212.138 258.932C212.986 259.106 213.619 259.386 214.036 259.773C214.452 260.159 214.661 260.667 214.661 261.295C214.661 261.867 214.492 262.369 214.155 262.801C213.821 263.233 213.363 263.57 212.78 263.812C212.2 264.051 211.532 264.17 210.774 264.17C209.619 264.17 208.698 263.93 208.013 263.449C207.331 262.964 206.931 262.305 206.814 261.472L209.195 261.347C209.267 261.699 209.441 261.968 209.717 262.153C209.994 262.335 210.348 262.426 210.78 262.426C211.204 262.426 211.545 262.345 211.803 262.182C212.064 262.015 212.196 261.801 212.2 261.54C212.196 261.32 212.104 261.14 211.922 261C211.74 260.856 211.46 260.746 211.081 260.67L209.57 260.369C208.717 260.199 208.083 259.903 207.666 259.483C207.253 259.062 207.047 258.527 207.047 257.875C207.047 257.314 207.198 256.831 207.501 256.426C207.808 256.021 208.238 255.708 208.791 255.489C209.348 255.269 210 255.159 210.746 255.159C211.848 255.159 212.715 255.392 213.348 255.858C213.984 256.324 214.356 256.958 214.462 257.761ZM216.185 264V255.273H218.605V264H216.185ZM217.401 254.148C217.041 254.148 216.732 254.028 216.474 253.79C216.221 253.547 216.094 253.258 216.094 252.92C216.094 252.587 216.221 252.301 216.474 252.062C216.732 251.82 217.041 251.699 217.401 251.699C217.76 251.699 218.067 251.82 218.321 252.062C218.579 252.301 218.707 252.587 218.707 252.92C218.707 253.258 218.579 253.547 218.321 253.79C218.067 254.028 217.76 254.148 217.401 254.148ZM224.487 264.17C223.605 264.17 222.841 263.983 222.197 263.608C221.557 263.229 221.063 262.703 220.714 262.028C220.366 261.35 220.192 260.564 220.192 259.67C220.192 258.769 220.366 257.981 220.714 257.307C221.063 256.629 221.557 256.102 222.197 255.727C222.841 255.348 223.605 255.159 224.487 255.159C225.37 255.159 226.131 255.348 226.771 255.727C227.415 256.102 227.911 256.629 228.26 257.307C228.608 257.981 228.783 258.769 228.783 259.67C228.783 260.564 228.608 261.35 228.26 262.028C227.911 262.703 227.415 263.229 226.771 263.608C226.131 263.983 225.37 264.17 224.487 264.17ZM224.499 262.295C224.9 262.295 225.235 262.182 225.504 261.955C225.773 261.723 225.976 261.409 226.112 261.011C226.252 260.614 226.322 260.161 226.322 259.653C226.322 259.146 226.252 258.693 226.112 258.295C225.976 257.898 225.773 257.583 225.504 257.352C225.235 257.121 224.9 257.006 224.499 257.006C224.093 257.006 223.752 257.121 223.476 257.352C223.203 257.583 222.997 257.898 222.857 258.295C222.72 258.693 222.652 259.146 222.652 259.653C222.652 260.161 222.72 260.614 222.857 261.011C222.997 261.409 223.203 261.723 223.476 261.955C223.752 262.182 224.093 262.295 224.499 262.295ZM232.777 258.955V264H230.357V255.273H232.663V256.812H232.766C232.959 256.305 233.283 255.903 233.737 255.608C234.192 255.309 234.743 255.159 235.391 255.159C235.997 255.159 236.525 255.292 236.976 255.557C237.427 255.822 237.777 256.201 238.027 256.693C238.277 257.182 238.402 257.765 238.402 258.443V264H235.982V258.875C235.985 258.341 235.849 257.924 235.572 257.625C235.296 257.322 234.915 257.17 234.43 257.17C234.105 257.17 233.817 257.241 233.567 257.381C233.321 257.521 233.127 257.725 232.987 257.994C232.851 258.259 232.781 258.58 232.777 258.955Z" fill="#0F71BB"/>
<path d="M40 267.182H239.339V268.273H40V267.182Z" fill="#0F71BB"/>
<path d="M268 265.875C265.911 265.875 263.908 265.045 262.432 263.568C260.955 262.092 260.125 260.089 260.125 258C260.125 255.911 260.955 253.908 262.432 252.432C263.908 250.955 265.911 250.125 268 250.125C270.089 250.125 272.092 250.955 273.568 252.432C275.045 253.908 275.875 255.911 275.875 258C275.875 260.089 275.045 262.092 273.568 263.568C272.092 265.045 270.089 265.875 268 265.875ZM268 267C270.387 267 272.676 266.052 274.364 264.364C276.052 262.676 277 260.387 277 258C277 255.613 276.052 253.324 274.364 251.636C272.676 249.948 270.387 249 268 249C265.613 249 263.324 249.948 261.636 251.636C259.948 253.324 259 255.613 259 258C259 260.387 259.948 262.676 261.636 264.364C263.324 266.052 265.613 267 268 267Z" fill="#D0021B"/>
<path d="M264.227 254.227C264.279 254.174 264.341 254.133 264.409 254.104C264.478 254.076 264.551 254.061 264.625 254.061C264.699 254.061 264.772 254.076 264.841 254.104C264.909 254.133 264.971 254.174 265.023 254.227L268 257.205L270.977 254.227C271.029 254.174 271.091 254.133 271.159 254.105C271.228 254.076 271.301 254.062 271.375 254.062C271.449 254.062 271.522 254.076 271.591 254.105C271.659 254.133 271.721 254.174 271.773 254.227C271.826 254.279 271.867 254.341 271.895 254.409C271.924 254.478 271.938 254.551 271.938 254.625C271.938 254.699 271.924 254.772 271.895 254.841C271.867 254.909 271.826 254.971 271.773 255.023L268.795 258L271.773 260.977C271.826 261.029 271.867 261.091 271.895 261.159C271.924 261.228 271.938 261.301 271.938 261.375C271.938 261.449 271.924 261.522 271.895 261.59C271.867 261.659 271.826 261.721 271.773 261.773C271.721 261.826 271.659 261.867 271.591 261.895C271.522 261.924 271.449 261.938 271.375 261.938C271.301 261.938 271.228 261.924 271.159 261.895C271.091 261.867 271.029 261.826 270.977 261.773L268 258.795L265.023 261.773C264.971 261.826 264.909 261.867 264.841 261.895C264.772 261.924 264.699 261.938 264.625 261.938C264.551 261.938 264.478 261.924 264.409 261.895C264.341 261.867 264.279 261.826 264.227 261.773C264.174 261.721 264.133 261.659 264.105 261.59C264.076 261.522 264.062 261.449 264.062 261.375C264.062 261.301 264.076 261.228 264.105 261.159C264.133 261.091 264.174 261.029 264.227 260.977L267.205 258L264.227 255.023C264.174 254.971 264.133 254.909 264.104 254.841C264.076 254.772 264.061 254.699 264.061 254.625C264.061 254.551 264.076 254.478 264.104 254.409C264.133 254.341 264.174 254.279 264.227 254.227Z" fill="#D0021B"/>
<circle cx="216" cy="127" r="12" fill="#344054"/>
<path d="M216.244 133.159C215.396 133.159 214.64 133.013 213.977 132.722C213.318 132.426 212.797 132.021 212.415 131.506C212.036 130.987 211.841 130.388 211.83 129.71H214.307C214.322 129.994 214.415 130.244 214.585 130.46C214.759 130.672 214.991 130.837 215.278 130.955C215.566 131.072 215.89 131.131 216.25 131.131C216.625 131.131 216.956 131.064 217.244 130.932C217.532 130.799 217.758 130.616 217.92 130.381C218.083 130.146 218.165 129.875 218.165 129.568C218.165 129.258 218.078 128.983 217.903 128.744C217.733 128.502 217.487 128.312 217.165 128.176C216.847 128.04 216.468 127.972 216.028 127.972H214.943V126.165H216.028C216.4 126.165 216.727 126.1 217.011 125.972C217.299 125.843 217.523 125.665 217.682 125.438C217.841 125.206 217.92 124.938 217.92 124.631C217.92 124.339 217.85 124.083 217.71 123.864C217.574 123.64 217.381 123.466 217.131 123.341C216.884 123.216 216.597 123.153 216.267 123.153C215.934 123.153 215.629 123.214 215.352 123.335C215.076 123.453 214.854 123.621 214.688 123.841C214.521 124.061 214.432 124.318 214.42 124.614H212.062C212.074 123.943 212.265 123.352 212.636 122.841C213.008 122.33 213.508 121.93 214.136 121.642C214.769 121.35 215.483 121.205 216.278 121.205C217.081 121.205 217.784 121.35 218.386 121.642C218.989 121.934 219.456 122.328 219.79 122.824C220.127 123.316 220.294 123.869 220.29 124.483C220.294 125.134 220.091 125.678 219.682 126.114C219.277 126.549 218.748 126.826 218.097 126.943V127.034C218.953 127.144 219.604 127.441 220.051 127.926C220.502 128.407 220.725 129.009 220.722 129.733C220.725 130.396 220.534 130.985 220.148 131.5C219.765 132.015 219.237 132.42 218.562 132.716C217.888 133.011 217.116 133.159 216.244 133.159Z" fill="white"/>
<path d="M213 127H169V169" stroke="#344054" stroke-dasharray="2 2"/>
</svg>
