<svg width="199" height="142" viewBox="0 0 199 142" fill="none" xmlns="http://www.w3.org/2000/svg"><path d="M0 50h199v48H0V50Z" fill="#fff"/><path d="M20.625 68a.375.375 0 0 1 .375.375v.375h6v-.375a.375.375 0 0 1 .75 0v.375h.75a1.5 1.5 0 0 1 1.5 1.5v8.25a1.5 1.5 0 0 1-1.5 1.5h-9a1.5 1.5 0 0 1-1.5-1.5v-8.25a1.5 1.5 0 0 1 1.5-1.5h.75v-.375a.375.375 0 0 1 .375-.375Zm-1.875 3v7.5a.75.75 0 0 0 .75.75h9a.75.75 0 0 0 .75-.75V71h-10.5Zm31.66 9V68.364h1.408V78.75h5.41V80h-6.819Zm11.386.204a3.545 3.545 0 0 1-1.506-.312 2.584 2.584 0 0 1-1.074-.915c-.265-.401-.398-.886-.398-1.454 0-.5.099-.906.296-1.216.197-.315.46-.56.79-.739.329-.178.693-.31 1.09-.397.402-.092.805-.163 1.21-.217.53-.068.96-.119 1.29-.153.334-.038.576-.1.728-.187.155-.088.233-.239.233-.455v-.045c0-.561-.154-.997-.46-1.307-.304-.31-.764-.466-1.381-.466-.64 0-1.142.14-1.506.42-.364.28-.62.58-.767.898l-1.273-.455c.227-.53.53-.943.91-1.238.382-.3.798-.508 1.25-.625a5.19 5.19 0 0 1 1.34-.182c.28 0 .602.034.966.102a3.09 3.09 0 0 1 1.063.404c.344.204.63.513.858.926.227.413.34.966.34 1.659V80h-1.34v-1.182h-.069a2.36 2.36 0 0 1-.454.608c-.212.216-.495.4-.847.551-.352.152-.782.227-1.29.227ZM62 79c.53 0 .977-.104 1.34-.313a2.128 2.128 0 0 0 1.114-1.846v-1.227c-.056.068-.181.13-.374.187-.19.053-.41.1-.66.142a29.952 29.952 0 0 1-1.284.17 5.19 5.19 0 0 0-.977.222 1.67 1.67 0 0 0-.727.45c-.182.196-.273.465-.273.806 0 .466.172.818.517 1.057.349.235.79.352 1.324.352Zm6.425 1V68.364h1.34v4.295h.114c.099-.151.235-.345.41-.58.177-.238.431-.45.76-.636.334-.19.785-.284 1.353-.284.735 0 1.383.184 1.943.551.56.368.998.889 1.313 1.563.314.674.471 1.47.471 2.386 0 .924-.157 1.725-.471 2.403-.315.675-.75 1.198-1.307 1.569-.557.367-1.199.55-1.926.55-.56 0-1.01-.092-1.347-.278-.337-.189-.597-.403-.778-.642a8.589 8.589 0 0 1-.42-.602h-.16V80h-1.295Zm1.318-4.364c0 .66.097 1.24.29 1.745.193.5.475.892.846 1.176.371.28.826.42 1.364.42.56 0 1.028-.148 1.403-.443.38-.3.663-.7.853-1.205.193-.507.29-1.071.29-1.693 0-.613-.095-1.166-.285-1.659-.185-.496-.468-.888-.846-1.176-.375-.291-.847-.437-1.415-.437-.546 0-1.004.138-1.375.414-.371.273-.652.656-.841 1.148-.19.489-.284 1.059-.284 1.71Zm12.097 4.546c-.841 0-1.567-.186-2.177-.557a3.737 3.737 0 0 1-1.403-1.568c-.326-.674-.489-1.459-.489-2.353 0-.893.163-1.681.489-2.363.33-.686.788-1.22 1.375-1.602.59-.387 1.28-.58 2.068-.58.455 0 .903.076 1.347.227.443.152.846.398 1.21.739.364.337.653.784.87 1.34.215.558.323 1.243.323 2.058v.568h-6.727v-1.16h5.364c0-.492-.099-.931-.296-1.317a2.226 2.226 0 0 0-.83-.915c-.356-.224-.776-.335-1.26-.335-.535 0-.997.132-1.387.397a2.615 2.615 0 0 0-.892 1.023c-.209.42-.313.871-.313 1.352v.773c0 .66.114 1.218.341 1.676.231.455.551.801.96 1.04.41.235.885.352 1.427.352.352 0 .67-.049.954-.148a2.03 2.03 0 0 0 .744-.454c.209-.204.37-.458.483-.761l1.296.363c-.137.44-.366.826-.688 1.16-.322.329-.72.587-1.193.772a4.426 4.426 0 0 1-1.597.273Zm6.994-11.818V80h-1.341V68.364h1.34Zm11.024 0V80h-1.41V69.84h-.067l-2.841 1.887v-1.431l2.909-1.932h1.409Z" fill="#344054"/><rect x="119" y="65" width="31" height="18" rx="3" fill="#F7F7F9"/><path d="M129.767 68.679c.524 0 1.028.088 1.511.263.488.176.922.456 1.303.84.384.385.688.896.91 1.532.225.633.339 1.41.343 2.332 0 .865-.098 1.637-.294 2.316-.192.676-.469 1.251-.83 1.725a3.627 3.627 0 0 1-1.307 1.084 3.902 3.902 0 0 1-1.711.368c-.679 0-1.279-.13-1.799-.393a3.373 3.373 0 0 1-1.258-1.078 3.355 3.355 0 0 1-.572-1.542h2.123c.083.372.257.66.522.865.265.203.593.304.984.304.663 0 1.167-.289 1.512-.865.345-.58.519-1.374.522-2.382h-.07a2.436 2.436 0 0 1-.616.77 2.874 2.874 0 0 1-.89.493 3.188 3.188 0 0 1-1.059.174c-.6 0-1.135-.14-1.606-.422a3.031 3.031 0 0 1-1.114-1.164c-.271-.494-.407-1.057-.407-1.69-.004-.683.154-1.291.472-1.825a3.326 3.326 0 0 1 1.332-1.253c.574-.305 1.24-.455 1.999-.452Zm.015 1.69c-.335 0-.633.08-.895.239a1.76 1.76 0 0 0-.616.641c-.15.269-.222.569-.219.9 0 .335.073.636.219.905.149.265.351.477.606.636.259.156.554.234.885.234a1.703 1.703 0 0 0 1.243-.522c.159-.166.283-.356.373-.572a1.82 1.82 0 0 0-.095-1.571 1.744 1.744 0 0 0-.616-.646 1.645 1.645 0 0 0-.885-.244Zm9.227-1.69c.524 0 1.028.088 1.512.263.487.176.921.456 1.302.84.385.385.688.896.91 1.532.225.633.34 1.41.343 2.332 0 .865-.098 1.637-.293 2.316-.193.676-.469 1.251-.831 1.725a3.627 3.627 0 0 1-1.307 1.084 3.9 3.9 0 0 1-1.71.368c-.68 0-1.28-.13-1.8-.393a3.38 3.38 0 0 1-1.258-1.078 3.366 3.366 0 0 1-.572-1.542h2.123c.083.372.257.66.522.865.265.203.594.304.985.304.663 0 1.166-.289 1.511-.865.345-.58.519-1.374.522-2.382h-.07a2.436 2.436 0 0 1-.616.77 2.874 2.874 0 0 1-.89.493 3.18 3.18 0 0 1-1.059.174c-.6 0-1.135-.14-1.606-.422a3.029 3.029 0 0 1-1.113-1.164c-.272-.494-.408-1.057-.408-1.69-.003-.683.154-1.291.472-1.825a3.329 3.329 0 0 1 1.333-1.253c.573-.305 1.239-.455 1.998-.452Zm.015 1.69c-.335 0-.633.08-.895.239a1.76 1.76 0 0 0-.616.641 1.788 1.788 0 0 0-.219.9c0 .335.073.636.219.905.149.265.351.477.606.636.259.156.554.234.885.234a1.703 1.703 0 0 0 1.243-.522c.159-.166.284-.356.373-.572a1.83 1.83 0 0 0-.094-1.571 1.755 1.755 0 0 0-.617-.646 1.645 1.645 0 0 0-.885-.244ZM171.625 68a.375.375 0 0 1 .375.375v.375h6v-.375a.377.377 0 0 1 .375-.375.375.375 0 0 1 .375.375v.375h.75a1.502 1.502 0 0 1 1.5 1.5v8.25a1.501 1.501 0 0 1-1.5 1.5h-9a1.502 1.502 0 0 1-1.5-1.5v-8.25a1.501 1.501 0 0 1 1.5-1.5h.75v-.375a.377.377 0 0 1 .375-.375Zm-1.875 3v7.5a.749.749 0 0 0 .75.75h9a.748.748 0 0 0 .75-.75V71h-10.5Z" fill="#344054"/><path d="M0 50v-1h-1v1h1Zm199 0h1v-1h-1v1Zm0 48v1h1v-1h-1ZM0 98h-1v1h1v-1Zm0-47h199v-2H0v2Zm198-1v48h2V50h-2Zm1 47H0v2h199v-2ZM1 98V50h-2v48h2Z" fill="#98A2B3"/><circle cx="77" cy="126" r="12" fill="#344054"/><path d="M72.943 132v-1.773l4.142-3.835c.353-.341.648-.648.887-.92.242-.273.426-.54.55-.802.126-.265.188-.551.188-.858 0-.34-.077-.634-.233-.88a1.533 1.533 0 0 0-.636-.574 2 2 0 0 0-.915-.205c-.356 0-.666.072-.932.216a1.49 1.49 0 0 0-.613.62c-.144.269-.216.589-.216.96h-2.336c0-.762.173-1.422.518-1.983a3.45 3.45 0 0 1 1.449-1.301c.62-.307 1.337-.46 2.147-.46.834 0 1.559.147 2.176.443.621.291 1.105.697 1.45 1.216.344.519.516 1.113.516 1.784 0 .439-.087.873-.261 1.301-.17.428-.475.903-.915 1.426-.44.519-1.059 1.142-1.858 1.869l-1.699 1.665v.08h4.887V132h-8.296Z" fill="#fff"/><path d="M77 117V86" stroke="#344054" stroke-dasharray="2 2"/><circle cx="134" cy="126" r="12" fill="#344054"/><path d="M134.244 132.159c-.848 0-1.604-.146-2.267-.437-.659-.296-1.18-.701-1.562-1.216a3.054 3.054 0 0 1-.585-1.796h2.477c.015.284.108.534.278.75.174.212.406.377.693.495.288.117.612.176.972.176.375 0 .706-.067.994-.199.288-.133.514-.316.676-.551.163-.235.245-.506.245-.813 0-.31-.087-.585-.262-.824a1.666 1.666 0 0 0-.738-.568c-.318-.136-.697-.204-1.137-.204h-1.085v-1.807h1.085c.372 0 .699-.065.983-.193.288-.129.512-.307.671-.534.159-.232.238-.5.238-.807 0-.292-.07-.548-.21-.767a1.382 1.382 0 0 0-.579-.523 1.887 1.887 0 0 0-.864-.188c-.333 0-.638.061-.915.182a1.599 1.599 0 0 0-.664.506c-.167.22-.256.477-.268.773h-2.358c.012-.671.203-1.262.574-1.773.372-.511.872-.911 1.5-1.199.633-.292 1.347-.437 2.142-.437.803 0 1.506.145 2.108.437.603.292 1.07.686 1.404 1.182.337.492.504 1.045.5 1.659.004.651-.199 1.195-.608 1.631-.405.435-.934.712-1.585.829v.091c.856.11 1.507.407 1.954.892.451.481.674 1.083.671 1.807a2.846 2.846 0 0 1-.574 1.767c-.383.515-.911.92-1.586 1.216-.674.295-1.446.443-2.318.443Z" fill="#fff"/><path d="M134 117V86" stroke="#344054" stroke-dasharray="2 2"/><circle cx="72" cy="16" r="12" fill="#344054"/><path d="M73.006 10.364V22h-2.46v-9.301h-.069l-2.665 1.67v-2.181l2.881-1.824h2.313Z" fill="#fff"/><path d="M69 16H24v50m60-50h91v50" stroke="#344054" stroke-dasharray="2 2"/></svg>