<svg width="254" height="135" viewBox="0 0 254 135" fill="none" xmlns="http://www.w3.org/2000/svg"><path d="M0 50a3 3 0 0 1 3-3h184a3 3 0 0 1 3 3v82a3 3 0 0 1-3 3H3a3 3 0 0 1-3-3V50Z" fill="#fff"/><path fill-rule="evenodd" clip-rule="evenodd" d="M16.288 74.712a5.25 5.25 0 1 0 7.424-7.424 5.25 5.25 0 0 0-7.424 7.424Zm7.955.53a6 6 0 1 1-8.485-8.484 6 6 0 0 1 8.485 8.485Zm-7.606-.893a4.715 4.715 0 0 1-.052-6.616l6.668 6.668a4.715 4.715 0 0 1-6.616-.052Z" fill="#344054"/><path d="M89.269 77V65.364h1.409V75.75h5.409V77h-6.819Zm11.386.204a3.547 3.547 0 0 1-1.506-.312 2.584 2.584 0 0 1-1.074-.915c-.265-.401-.397-.886-.397-1.454 0-.5.098-.906.295-1.216.197-.315.46-.56.79-.739a4.15 4.15 0 0 1 1.09-.397 13.28 13.28 0 0 1 1.211-.217c.53-.068.96-.119 1.29-.153.333-.038.575-.1.727-.187.155-.088.233-.239.233-.455v-.045c0-.561-.153-.997-.46-1.307-.303-.31-.764-.466-1.381-.466-.64 0-1.142.14-1.506.42-.363.28-.619.58-.767.898l-1.272-.455c.227-.53.53-.943.909-1.238.382-.3.799-.508 1.25-.625a5.184 5.184 0 0 1 1.341-.182c.28 0 .602.034.965.102.368.065.722.2 1.063.404.345.204.631.513.858.926.227.413.341.966.341 1.659V77h-1.341v-1.182h-.068a2.36 2.36 0 0 1-.455.608c-.212.216-.494.4-.846.551-.353.152-.783.227-1.29.227Zm.204-1.204c.531 0 .978-.104 1.341-.313a2.128 2.128 0 0 0 1.114-1.846v-1.227c-.057.068-.182.13-.375.187a6.29 6.29 0 0 1-.659.142 29.629 29.629 0 0 1-1.284.17 5.13 5.13 0 0 0-.978.222 1.685 1.685 0 0 0-.727.45c-.182.196-.272.465-.272.806 0 .466.172.818.516 1.057.349.235.79.352 1.324.352Zm6.425 1V65.364h1.341v4.295h.114c.098-.151.234-.345.409-.58.178-.238.432-.45.761-.636.333-.19.784-.284 1.352-.284.735 0 1.383.184 1.944.551.56.368.998.889 1.312 1.563.314.674.472 1.47.472 2.386 0 .924-.158 1.725-.472 2.403-.314.675-.75 1.198-1.307 1.569-.557.367-1.199.55-1.926.55-.561 0-1.009-.092-1.346-.278-.338-.189-.597-.403-.779-.642a8.362 8.362 0 0 1-.42-.602h-.159V77h-1.296Zm1.318-4.364c0 .66.097 1.24.29 1.745.193.5.475.892.847 1.176.371.28.825.42 1.363.42.561 0 1.029-.148 1.404-.443.378-.3.663-.7.852-1.205a4.73 4.73 0 0 0 .29-1.693 4.6 4.6 0 0 0-.284-1.659c-.186-.496-.468-.888-.847-1.176-.375-.291-.847-.437-1.415-.437-.545 0-1.004.138-1.375.414-.371.273-.651.656-.841 1.148-.189.489-.284 1.059-.284 1.71Zm9.779-7.272V77h-1.341V65.364h1.341Zm6.115 11.818c-.841 0-1.567-.186-2.176-.557a3.742 3.742 0 0 1-1.404-1.568c-.326-.674-.488-1.459-.488-2.353 0-.893.162-1.681.488-2.363.33-.686.788-1.22 1.375-1.602.591-.387 1.28-.58 2.068-.58.455 0 .904.076 1.347.227.443.152.847.398 1.21.739.364.337.654.784.87 1.34.215.558.323 1.243.323 2.058v.568h-6.727v-1.16h5.364c0-.492-.099-.931-.296-1.317a2.223 2.223 0 0 0-.829-.915c-.356-.224-.777-.335-1.262-.335-.534 0-.996.132-1.386.397a2.615 2.615 0 0 0-.892 1.023 3.01 3.01 0 0 0-.313 1.352v.773c0 .66.114 1.218.341 1.676.231.455.552.801.961 1.04.409.235.884.352 1.426.352.352 0 .67-.049.954-.148.288-.102.536-.253.745-.454.208-.204.369-.458.483-.761l1.295.363c-.136.44-.366.826-.687 1.16a3.35 3.35 0 0 1-1.194.772 4.42 4.42 0 0 1-1.596.273Zm13.699 0c-.788 0-1.48-.188-2.074-.563-.591-.375-1.053-.9-1.387-1.573-.329-.675-.494-1.463-.494-2.364 0-.91.165-1.703.494-2.38.334-.679.796-1.205 1.387-1.58.594-.375 1.286-.563 2.074-.563.787 0 1.477.188 2.068.563.594.375 1.057.901 1.386 1.58.333.677.5 1.47.5 2.38 0 .901-.167 1.69-.5 2.364a3.77 3.77 0 0 1-1.386 1.573c-.591.375-1.281.563-2.068.563Zm0-1.205c.598 0 1.091-.153 1.477-.46a2.72 2.72 0 0 0 .858-1.21c.185-.5.278-1.042.278-1.625 0-.584-.093-1.127-.278-1.63a2.755 2.755 0 0 0-.858-1.223c-.386-.31-.879-.465-1.477-.465-.599 0-1.091.155-1.478.465a2.757 2.757 0 0 0-.858 1.222 4.695 4.695 0 0 0-.278 1.63c0 .584.093 1.126.278 1.626.186.5.472.903.858 1.21.387.307.879.46 1.478.46Zm9.887-7.704v1.136h-4.704v-1.136h4.704ZM144.787 77v-9.932c0-.5.117-.916.352-1.25a2.19 2.19 0 0 1 .915-.75 2.89 2.89 0 0 1 1.187-.25c.33 0 .599.027.807.08.209.053.364.102.466.148l-.386 1.158a6.673 6.673 0 0 0-.284-.085 1.727 1.727 0 0 0-.466-.05c-.443 0-.763.11-.96.334-.194.224-.29.551-.29.983V77h-1.341Zm13.47-8.727v1.136h-4.523v-1.136h4.523Zm-3.204-2.091h1.34V74.5c0 .379.055.663.165.852.114.186.258.31.432.375.178.06.366.091.563.091.147 0 .268-.007.363-.022l.227-.046.273 1.204a2.753 2.753 0 0 1-.38.103c-.163.038-.37.057-.62.057-.379 0-.75-.082-1.113-.245a2.208 2.208 0 0 1-.898-.744c-.235-.333-.352-.754-.352-1.261v-8.682Zm7.789 11.022a3.54 3.54 0 0 1-1.505-.312 2.582 2.582 0 0 1-1.074-.915c-.265-.401-.398-.886-.398-1.454 0-.5.099-.906.296-1.216.196-.315.46-.56.789-.739a4.15 4.15 0 0 1 1.091-.397c.402-.092.805-.163 1.21-.217.531-.068.961-.119 1.29-.153.334-.038.576-.1.727-.187.156-.088.233-.239.233-.455v-.045c0-.561-.153-.997-.46-1.307-.303-.31-.763-.466-1.38-.466-.641 0-1.143.14-1.506.42-.364.28-.619.58-.767.898l-1.273-.455c.227-.53.53-.943.909-1.238a3.39 3.39 0 0 1 1.25-.625 5.196 5.196 0 0 1 1.341-.182c.28 0 .602.034.966.102.367.065.722.2 1.062.404.345.204.631.513.858.926.228.413.341.966.341 1.659V77h-1.341v-1.182h-.068c-.091.19-.242.392-.454.608-.212.216-.495.4-.847.551-.352.152-.782.227-1.29.227Zm.205-1.204c.53 0 .977-.104 1.341-.313a2.124 2.124 0 0 0 1.113-1.846v-1.227c-.056.068-.181.13-.375.187a6.29 6.29 0 0 1-.659.142 29.56 29.56 0 0 1-1.284.17 5.19 5.19 0 0 0-.977.222 1.681 1.681 0 0 0-.727.45c-.182.196-.273.465-.273.806 0 .466.172.818.517 1.057.348.235.79.352 1.324.352Zm6.425 1V65.364h1.34v4.295h.114c.099-.151.235-.345.409-.58.178-.238.432-.45.762-.636.333-.19.784-.284 1.352-.284.735 0 1.382.184 1.943.551.561.368.998.889 1.313 1.563.314.674.471 1.47.471 2.386 0 .924-.157 1.725-.471 2.403-.315.675-.75 1.198-1.307 1.569-.557.367-1.199.55-1.926.55-.561 0-1.01-.092-1.347-.278-.337-.189-.597-.403-.778-.642a8.77 8.77 0 0 1-.421-.602h-.159V77h-1.295Zm1.318-4.364c0 .66.096 1.24.29 1.745.193.5.475.892.846 1.176.371.28.826.42 1.364.42.56 0 1.028-.148 1.403-.443.379-.3.663-.7.852-1.205.194-.507.29-1.071.29-1.693 0-.613-.094-1.166-.284-1.659-.185-.496-.468-.888-.846-1.176-.375-.291-.847-.437-1.415-.437-.546 0-1.004.138-1.375.414-.371.273-.652.656-.841 1.148-.19.489-.284 1.059-.284 1.71Zm-7.85 28.569c.478.003.955.094 1.432.272.477.178.913.474 1.307.887.394.409.71.967.949 1.676.238.708.358 1.596.358 2.665 0 1.034-.099 1.952-.296 2.755-.193.799-.473 1.474-.841 2.023-.363.549-.806.966-1.329 1.25-.519.284-1.106.426-1.761.426-.652 0-1.233-.129-1.745-.386a3.437 3.437 0 0 1-1.25-1.085 3.78 3.78 0 0 1-.619-1.62h1.386c.125.534.373.976.745 1.324.375.345.869.517 1.483.517.897 0 1.606-.392 2.125-1.176.522-.784.784-1.892.784-3.324h-.091a3.561 3.561 0 0 1-.756.824 3.337 3.337 0 0 1-2.108.722 3.532 3.532 0 0 1-1.835-.495 3.758 3.758 0 0 1-1.33-1.369c-.329-.583-.494-1.25-.494-2 0-.712.159-1.364.477-1.955a3.692 3.692 0 0 1 1.353-1.42c.583-.352 1.268-.523 2.056-.511Zm0 1.25c-.477 0-.907.119-1.289.357-.379.235-.68.554-.904.955-.22.398-.329.839-.329 1.324 0 .485.106.926.318 1.324.216.394.509.708.88.943a2.39 2.39 0 0 0 1.279.347c.36 0 .695-.071 1.006-.211.31-.144.581-.339.812-.585.235-.25.419-.532.551-.847a2.608 2.608 0 0 0-.13-2.272 2.619 2.619 0 0 0-.898-.966 2.328 2.328 0 0 0-1.296-.369Zm9.985-1.25c.477.003.954.094 1.432.272.477.178.912.474 1.306.887.394.409.711.967.949 1.676.239.708.358 1.596.358 2.665 0 1.034-.098 1.952-.295 2.755-.193.799-.474 1.474-.841 2.023-.364.549-.807.966-1.33 1.25-.519.284-1.106.426-1.761.426-.652 0-1.233-.129-1.744-.386a3.42 3.42 0 0 1-1.25-1.085 3.782 3.782 0 0 1-.62-1.62h1.387c.125.534.373.976.744 1.324.375.345.869.517 1.483.517.898 0 1.606-.392 2.125-1.176.523-.784.784-1.892.784-3.324h-.091a3.561 3.561 0 0 1-.756.824 3.319 3.319 0 0 1-.971.534 3.407 3.407 0 0 1-1.137.188 3.535 3.535 0 0 1-1.835-.495 3.748 3.748 0 0 1-1.329-1.369c-.33-.583-.495-1.25-.495-2 0-.712.159-1.364.478-1.955a3.689 3.689 0 0 1 1.352-1.42c.583-.352 1.269-.523 2.057-.511Zm0 1.25c-.478 0-.907.119-1.29.357-.379.235-.68.554-.903.955a2.69 2.69 0 0 0-.33 1.324c0 .485.106.926.318 1.324.216.394.51.708.881.943.375.231.801.347 1.278.347.36 0 .695-.071 1.006-.211.311-.144.581-.339.812-.585a2.84 2.84 0 0 0 .552-.847c.132-.318.198-.649.198-.994 0-.454-.109-.881-.329-1.278a2.61 2.61 0 0 0-.898-.966 2.324 2.324 0 0 0-1.295-.369Z" fill="#344054"/><path d="M3 48h184v-2H3v2Zm186 2v82h2V50h-2Zm-2 84H3v2h184v-2ZM1 132V50h-2v82h2Zm2 2a2 2 0 0 1-2-2h-2a4 4 0 0 0 4 4v-2Zm186-2a2 2 0 0 1-2 2v2a4 4 0 0 0 4-4h-2Zm-2-84a2 2 0 0 1 2 2h2a4 4 0 0 0-4-4v2ZM3 46a4 4 0 0 0-4 4h2a2 2 0 0 1 2-2v-2Z" fill="#98A2B3"/><circle cx="134" cy="17" r="12" fill="#344054"/><path d="M129.943 23v-1.773l4.142-3.835c.353-.34.648-.648.887-.92.242-.273.426-.54.551-.802a1.98 1.98 0 0 0 .187-.857 1.61 1.61 0 0 0-.233-.881 1.526 1.526 0 0 0-.636-.574 1.995 1.995 0 0 0-.915-.205c-.356 0-.667.072-.932.216-.265.144-.469.35-.613.62-.144.269-.216.589-.216.96h-2.335c0-.761.172-1.422.517-1.983.344-.56.827-.994 1.448-1.301.622-.307 1.338-.46 2.148-.46.834 0 1.559.147 2.176.443.622.291 1.104.697 1.449 1.216s.517 1.113.517 1.784c0 .44-.087.873-.261 1.3-.171.429-.476.904-.915 1.427-.439.519-1.059 1.142-1.858 1.87l-1.699 1.664v.08h4.887V23h-8.296Z" fill="#fff"/><path d="M134 62V27" stroke="#344054" stroke-dasharray="2 2"/><circle cx="242" cy="101" r="12" fill="#344054"/><path d="M242.244 107.159c-.848 0-1.604-.146-2.267-.437-.659-.296-1.18-.701-1.562-1.216a3.054 3.054 0 0 1-.585-1.796h2.477c.015.284.108.534.278.75.174.212.406.377.693.495.288.117.612.176.972.176.375 0 .706-.067.994-.199.288-.133.514-.316.676-.551.163-.235.245-.506.245-.813 0-.31-.087-.585-.262-.824a1.666 1.666 0 0 0-.738-.568c-.318-.136-.697-.204-1.137-.204h-1.085v-1.807h1.085c.372 0 .699-.065.983-.193.288-.13.512-.307.671-.534.159-.232.238-.5.238-.807a1.396 1.396 0 0 0-.789-1.29 1.887 1.887 0 0 0-.864-.188c-.333 0-.638.061-.915.182a1.596 1.596 0 0 0-.664.506c-.167.22-.256.477-.268.773h-2.358c.012-.67.203-1.262.574-1.773.372-.511.872-.911 1.5-1.199.633-.292 1.347-.438 2.142-.438.803 0 1.506.146 2.108.438.603.292 1.07.686 1.404 1.182.337.492.504 1.045.5 1.659.004.651-.199 1.195-.608 1.631-.405.435-.934.712-1.585.829v.091c.856.11 1.507.407 1.954.892.451.481.674 1.083.671 1.807a2.846 2.846 0 0 1-.574 1.767c-.383.515-.911.92-1.586 1.216-.674.295-1.446.443-2.318.443Z" fill="#fff"/><path d="m233 101-52 .5" stroke="#344054" stroke-dasharray="2 2"/><circle cx="67" cy="16" r="12" fill="#344054"/><path d="M69.006 10.364V22h-2.46v-9.301h-.069l-2.665 1.67v-2.181l2.881-1.824h2.313Z" fill="#fff"/><path d="M64 16H20v47" stroke="#344054" stroke-dasharray="2 2"/></svg>