<svg width="144" height="103" viewBox="0 0 144 103" fill="none" xmlns="http://www.w3.org/2000/svg"><circle cx="132" cy="87" r="12" fill="#344054"/><path d="M127.943 93v-1.773l4.142-3.835c.353-.34.648-.648.887-.92.242-.273.426-.54.551-.801.125-.266.187-.552.187-.859 0-.34-.077-.634-.233-.88a1.526 1.526 0 0 0-.636-.574 1.995 1.995 0 0 0-.915-.205c-.356 0-.667.072-.932.216-.265.144-.469.35-.613.62-.144.269-.216.589-.216.96h-2.335c0-.761.172-1.422.517-1.983.344-.56.827-.994 1.448-1.301.622-.307 1.338-.46 2.148-.46.834 0 1.559.147 2.176.443.622.291 1.104.697 1.449 1.216s.517 1.113.517 1.784c0 .44-.087.873-.261 1.3-.171.429-.476.904-.915 1.427-.439.519-1.059 1.142-1.858 1.87l-1.699 1.664v.08h4.887V93h-8.296Z" fill="#fff"/><path d="m123 87-52 .5" stroke="#344054" stroke-dasharray="2 2"/><circle cx="79" cy="16" r="12" fill="#344054"/><path d="M81.006 10.364V22h-2.46v-9.301h-.069l-2.665 1.67v-2.181l2.881-1.824h2.313Z" fill="#fff"/><path d="M76 16H32v42" stroke="#344054" stroke-dasharray="2 2"/><path d="M.568 58.392v-2.028h9.557v2.028H6.562V68H4.131v-9.608H.568Zm12.386 9.773c-.556 0-1.053-.097-1.488-.29a2.397 2.397 0 0 1-1.034-.87c-.25-.386-.375-.867-.375-1.442 0-.485.089-.892.267-1.222.178-.33.42-.595.727-.795a3.51 3.51 0 0 1 1.046-.455 7.969 7.969 0 0 1 1.238-.216 31.4 31.4 0 0 0 1.227-.148c.311-.049.537-.12.677-.216a.475.475 0 0 0 .21-.42v-.034c0-.36-.114-.638-.341-.835-.224-.197-.542-.296-.955-.296-.435 0-.782.097-1.04.29-.257.19-.427.428-.51.716l-2.24-.182a3.05 3.05 0 0 1 .671-1.375c.333-.39.763-.69 1.29-.898.53-.212 1.144-.318 1.84-.318.486 0 .95.057 1.393.17.447.114.843.29 1.187.529.349.239.623.545.824.92.2.372.301.817.301 1.336V68h-2.295v-1.21h-.068c-.14.272-.328.513-.563.721a2.605 2.605 0 0 1-.846.483c-.33.114-.71.17-1.143.17Zm.694-1.67c.356 0 .67-.07.943-.21a1.67 1.67 0 0 0 .642-.58c.155-.243.233-.517.233-.824v-.926c-.076.049-.18.094-.313.136a5.692 5.692 0 0 1-.437.108c-.163.03-.326.059-.489.085l-.443.063a2.991 2.991 0 0 0-.744.199 1.19 1.19 0 0 0-.494.369.9.9 0 0 0-.177.568c0 .33.12.581.358.756.243.17.55.255.92.255ZM19.793 68V56.364h2.42v4.375h.074c.106-.235.26-.474.46-.716.205-.247.47-.451.796-.614.33-.167.738-.25 1.227-.25a3.28 3.28 0 0 1 1.761.5c.538.33.968.828 1.29 1.494.322.663.483 1.495.483 2.495 0 .973-.157 1.795-.472 2.466-.31.666-.735 1.172-1.272 1.517a3.267 3.267 0 0 1-1.796.511c-.47 0-.87-.078-1.199-.233a2.48 2.48 0 0 1-.8-.585 2.976 2.976 0 0 1-.478-.722h-.108V68h-2.386Zm2.369-4.364c0 .52.072.972.216 1.358.144.387.352.688.625.904.273.212.604.318.994.318.394 0 .727-.108 1-.324.273-.22.48-.523.62-.909.143-.39.215-.84.215-1.347 0-.503-.07-.947-.21-1.33-.14-.382-.346-.681-.62-.897-.272-.216-.607-.324-1.005-.324-.394 0-.727.104-1 .313-.269.208-.475.503-.62.886-.143.383-.215.833-.215 1.352ZM33.622 68v-8.727h2.42V68h-2.42Zm1.216-9.852c-.36 0-.669-.12-.926-.358a1.16 1.16 0 0 1-.38-.87c0-.333.126-.619.38-.858.258-.242.566-.363.926-.363.36 0 .667.121.92.364.258.238.387.524.387.857 0 .338-.129.627-.387.87-.253.238-.56.358-.92.358Zm7.786 1.125v1.818h-5.256v-1.818h5.256Zm-4.063-2.091h2.42v8.136c0 .224.035.398.103.523a.564.564 0 0 0 .284.256c.125.049.269.074.432.074.113 0 .227-.01.34-.029l.262-.051.38 1.801a6.777 6.777 0 0 1-.51.13 4.09 4.09 0 0 1-.802.097c-.583.023-1.094-.055-1.534-.233a2.142 2.142 0 0 1-1.017-.83c-.242-.374-.362-.848-.358-1.42v-8.454Zm9.523 10.989c-.898 0-1.67-.182-2.318-.546a3.736 3.736 0 0 1-1.489-1.557c-.349-.674-.523-1.471-.523-2.392 0-.898.175-1.686.523-2.364a3.864 3.864 0 0 1 1.472-1.585c.636-.378 1.382-.568 2.238-.568.576 0 1.112.093 1.608.279.5.181.936.456 1.307.823.375.368.667.83.875 1.387.208.553.313 1.2.313 1.943v.665h-7.37v-1.5h5.091c0-.349-.076-.657-.227-.926a1.627 1.627 0 0 0-.63-.631 1.798 1.798 0 0 0-.927-.233c-.367 0-.693.085-.977.256a1.8 1.8 0 0 0-.66.676c-.159.28-.24.592-.244.937v1.426c0 .432.08.805.239 1.12.163.314.392.556.687.727.296.17.646.256 1.052.256.268 0 .515-.038.738-.114a1.55 1.55 0 0 0 .574-.34c.16-.152.28-.338.364-.558l2.238.148a3.057 3.057 0 0 1-.698 1.41c-.349.397-.8.707-1.353.93-.549.22-1.184.33-1.903.33ZM53.669 68v-8.727h2.307v1.54h.102a2.42 2.42 0 0 1 .91-1.21c.423-.296.931-.444 1.522-.444.598 0 1.108.15 1.528.449.42.295.701.697.841 1.205h.091c.178-.5.5-.9.966-1.2.47-.302 1.025-.454 1.665-.454.814 0 1.475.26 1.983.779.511.515.767 1.246.767 2.193V68h-2.415v-5.392c0-.485-.129-.848-.386-1.091a1.358 1.358 0 0 0-.966-.364c-.44 0-.782.14-1.029.42-.246.277-.369.643-.369 1.097V68H58.84v-5.443c0-.428-.124-.77-.37-1.023-.242-.254-.562-.38-.96-.38-.269 0-.511.068-.727.204-.212.133-.381.32-.506.563a1.788 1.788 0 0 0-.188.84V68h-2.42Z" fill="#344054"/><path fill="#0F71BB" d="M0 86h68v2H0z"/></svg>