<svg width="254" height="135" viewBox="0 0 254 135" fill="none" xmlns="http://www.w3.org/2000/svg">
<path d="M0 50C0 48.3431 1.34315 47 3 47H187C188.657 47 190 48.3431 190 50V132C190 133.657 188.657 135 187 135H3C1.34314 135 0 133.657 0 132V50Z" fill="white"/>
<path fill-rule="evenodd" clip-rule="evenodd" d="M16.2877 74.7123C17.2723 75.6969 18.6076 76.25 20 76.25C21.3924 76.25 22.7277 75.6969 23.7123 74.7123C24.6969 73.7277 25.25 72.3924 25.25 71C25.25 69.6076 24.6969 68.2723 23.7123 67.2877C22.7277 66.3031 21.3924 65.75 20 65.75C18.6076 65.75 17.2723 66.3031 16.2877 67.2877C15.3031 68.2723 14.75 69.6076 14.75 71C14.75 72.3924 15.3031 73.7277 16.2877 74.7123ZM24.2426 75.2426C23.1174 76.3679 21.5913 77 20 77C18.4087 77 16.8826 76.3679 15.7574 75.2426C14.6321 74.1174 14 72.5913 14 71C14 69.4087 14.6321 67.8826 15.7574 66.7574C16.8826 65.6321 18.4087 65 20 65C21.5913 65 23.1174 65.6321 24.2426 66.7574C25.3679 67.8826 26 69.4087 26 71C26 72.5913 25.3679 74.1174 24.2426 75.2426ZM16.637 74.3488C14.813 72.5248 14.7958 69.5783 16.5852 67.733L23.2528 74.4006C21.4076 76.1901 18.461 76.1728 16.637 74.3488Z" fill="#344054"/>
<path d="M89.2685 77V65.3636H90.6776V75.75H96.0866V77H89.2685ZM100.655 77.2045C100.102 77.2045 99.5999 77.1004 99.1491 76.892C98.6984 76.6799 98.3404 76.375 98.0753 75.9773C97.8101 75.5758 97.6776 75.0909 97.6776 74.5227C97.6776 74.0227 97.776 73.6174 97.973 73.3068C98.17 72.9924 98.4332 72.7462 98.7628 72.5682C99.0923 72.3902 99.456 72.2576 99.8537 72.1705C100.255 72.0795 100.659 72.0076 101.064 71.9545C101.594 71.8864 102.024 71.8352 102.354 71.8011C102.687 71.7633 102.929 71.7008 103.081 71.6136C103.236 71.5265 103.314 71.375 103.314 71.1591V71.1136C103.314 70.553 103.161 70.1174 102.854 69.8068C102.551 69.4962 102.09 69.3409 101.473 69.3409C100.833 69.3409 100.331 69.4811 99.9673 69.7614C99.6037 70.0417 99.348 70.3409 99.2003 70.6591L97.9276 70.2045C98.1548 69.6742 98.4579 69.2614 98.8366 68.9659C99.2192 68.6667 99.6359 68.4583 100.087 68.3409C100.541 68.2197 100.988 68.1591 101.428 68.1591C101.708 68.1591 102.03 68.1932 102.393 68.2614C102.761 68.3258 103.115 68.4602 103.456 68.6648C103.801 68.8693 104.087 69.178 104.314 69.5909C104.541 70.0038 104.655 70.5568 104.655 71.25V77H103.314V75.8182H103.246C103.155 76.0076 103.003 76.2102 102.791 76.4261C102.579 76.642 102.297 76.8258 101.945 76.9773C101.592 77.1288 101.162 77.2045 100.655 77.2045ZM100.859 76C101.39 76 101.837 75.8958 102.2 75.6875C102.568 75.4792 102.844 75.2102 103.03 74.8807C103.219 74.5511 103.314 74.2045 103.314 73.8409V72.6136C103.257 72.6818 103.132 72.7443 102.939 72.8011C102.75 72.8542 102.53 72.9015 102.28 72.9432C102.034 72.9811 101.793 73.0152 101.558 73.0455C101.327 73.072 101.14 73.0947 100.996 73.1136C100.647 73.1591 100.321 73.233 100.018 73.3352C99.7192 73.4337 99.4768 73.5833 99.2912 73.7841C99.1094 73.9811 99.0185 74.25 99.0185 74.5909C99.0185 75.0568 99.1908 75.4091 99.5355 75.6477C99.884 75.8826 100.325 76 100.859 76ZM107.284 77V65.3636H108.625V69.6591H108.739C108.837 69.5076 108.973 69.3144 109.148 69.0795C109.326 68.8409 109.58 68.6288 109.909 68.4432C110.242 68.2538 110.693 68.1591 111.261 68.1591C111.996 68.1591 112.644 68.3428 113.205 68.7102C113.765 69.0777 114.203 69.5985 114.517 70.2727C114.831 70.947 114.989 71.7424 114.989 72.6591C114.989 73.5833 114.831 74.3845 114.517 75.0625C114.203 75.7367 113.767 76.2595 113.21 76.6307C112.653 76.9981 112.011 77.1818 111.284 77.1818C110.723 77.1818 110.275 77.089 109.938 76.9034C109.6 76.714 109.341 76.5 109.159 76.2614C108.977 76.0189 108.837 75.8182 108.739 75.6591H108.58V77H107.284ZM108.602 72.6364C108.602 73.2955 108.699 73.8769 108.892 74.3807C109.085 74.8807 109.367 75.2727 109.739 75.5568C110.11 75.8371 110.564 75.9773 111.102 75.9773C111.663 75.9773 112.131 75.8295 112.506 75.5341C112.884 75.2348 113.169 74.8333 113.358 74.3295C113.551 73.822 113.648 73.2576 113.648 72.6364C113.648 72.0227 113.553 71.4697 113.364 70.9773C113.178 70.4811 112.896 70.089 112.517 69.8011C112.142 69.5095 111.67 69.3636 111.102 69.3636C110.557 69.3636 110.098 69.5019 109.727 69.7784C109.356 70.0511 109.076 70.4337 108.886 70.9261C108.697 71.4148 108.602 71.9848 108.602 72.6364ZM118.381 65.3636V77H117.04V65.3636H118.381ZM124.496 77.1818C123.655 77.1818 122.929 76.9962 122.32 76.625C121.714 76.25 121.246 75.7273 120.916 75.0568C120.59 74.3826 120.428 73.5985 120.428 72.7045C120.428 71.8106 120.59 71.0227 120.916 70.3409C121.246 69.6553 121.704 69.1212 122.291 68.7386C122.882 68.3523 123.571 68.1591 124.359 68.1591C124.814 68.1591 125.263 68.2348 125.706 68.3864C126.149 68.5379 126.553 68.7841 126.916 69.125C127.28 69.4621 127.57 69.9091 127.786 70.4659C128.001 71.0227 128.109 71.7083 128.109 72.5227V73.0909H121.382V71.9318H126.746C126.746 71.4394 126.647 71 126.45 70.6136C126.257 70.2273 125.981 69.9223 125.621 69.6989C125.265 69.4754 124.844 69.3636 124.359 69.3636C123.825 69.3636 123.363 69.4962 122.973 69.7614C122.587 70.0227 122.289 70.3636 122.081 70.7841C121.873 71.2045 121.768 71.6553 121.768 72.1364V72.9091C121.768 73.5682 121.882 74.1269 122.109 74.5852C122.34 75.0398 122.661 75.3864 123.07 75.625C123.479 75.8598 123.954 75.9773 124.496 75.9773C124.848 75.9773 125.166 75.928 125.45 75.8295C125.738 75.7273 125.986 75.5758 126.195 75.375C126.403 75.1705 126.564 74.9167 126.678 74.6136L127.973 74.9773C127.837 75.4167 127.607 75.803 127.286 76.1364C126.964 76.4659 126.566 76.7235 126.092 76.9091C125.619 77.0909 125.087 77.1818 124.496 77.1818ZM138.195 77.1818C137.407 77.1818 136.715 76.9943 136.121 76.6193C135.53 76.2443 135.068 75.7197 134.734 75.0455C134.405 74.3712 134.24 73.5833 134.24 72.6818C134.24 71.7727 134.405 70.9792 134.734 70.3011C135.068 69.6231 135.53 69.0966 136.121 68.7216C136.715 68.3466 137.407 68.1591 138.195 68.1591C138.982 68.1591 139.672 68.3466 140.263 68.7216C140.857 69.0966 141.32 69.6231 141.649 70.3011C141.982 70.9792 142.149 71.7727 142.149 72.6818C142.149 73.5833 141.982 74.3712 141.649 75.0455C141.32 75.7197 140.857 76.2443 140.263 76.6193C139.672 76.9943 138.982 77.1818 138.195 77.1818ZM138.195 75.9773C138.793 75.9773 139.286 75.8239 139.672 75.517C140.058 75.2102 140.344 74.8068 140.53 74.3068C140.715 73.8068 140.808 73.2652 140.808 72.6818C140.808 72.0985 140.715 71.5549 140.53 71.0511C140.344 70.5473 140.058 70.1402 139.672 69.8295C139.286 69.5189 138.793 69.3636 138.195 69.3636C137.596 69.3636 137.104 69.5189 136.717 69.8295C136.331 70.1402 136.045 70.5473 135.859 71.0511C135.674 71.5549 135.581 72.0985 135.581 72.6818C135.581 73.2652 135.674 73.8068 135.859 74.3068C136.045 74.8068 136.331 75.2102 136.717 75.517C137.104 75.8239 137.596 75.9773 138.195 75.9773ZM148.082 68.2727V69.4091H143.378V68.2727H148.082ZM144.787 77V67.0682C144.787 66.5682 144.904 66.1515 145.139 65.8182C145.374 65.4848 145.679 65.2348 146.054 65.0682C146.429 64.9015 146.825 64.8182 147.241 64.8182C147.571 64.8182 147.84 64.8447 148.048 64.8977C148.257 64.9508 148.412 65 148.514 65.0455L148.128 66.2045C148.06 66.1818 147.965 66.1534 147.844 66.1193C147.726 66.0852 147.571 66.0682 147.378 66.0682C146.935 66.0682 146.615 66.1799 146.418 66.4034C146.224 66.6269 146.128 66.9545 146.128 67.3864V77H144.787ZM158.257 68.2727V69.4091H153.734V68.2727H158.257ZM155.053 66.1818H156.393V74.5C156.393 74.8788 156.448 75.1629 156.558 75.3523C156.672 75.5379 156.816 75.6629 156.99 75.7273C157.168 75.7879 157.356 75.8182 157.553 75.8182C157.7 75.8182 157.821 75.8106 157.916 75.7955C158.011 75.7765 158.087 75.7614 158.143 75.75L158.416 76.9545C158.325 76.9886 158.198 77.0227 158.036 77.0568C157.873 77.0947 157.666 77.1136 157.416 77.1136C157.037 77.1136 156.666 77.0322 156.303 76.8693C155.943 76.7064 155.643 76.4583 155.405 76.125C155.17 75.7917 155.053 75.3712 155.053 74.8636V66.1818ZM162.842 77.2045C162.289 77.2045 161.787 77.1004 161.337 76.892C160.886 76.6799 160.528 76.375 160.263 75.9773C159.998 75.5758 159.865 75.0909 159.865 74.5227C159.865 74.0227 159.964 73.6174 160.161 73.3068C160.357 72.9924 160.621 72.7462 160.95 72.5682C161.28 72.3902 161.643 72.2576 162.041 72.1705C162.443 72.0795 162.846 72.0076 163.251 71.9545C163.782 71.8864 164.212 71.8352 164.541 71.8011C164.875 71.7633 165.117 71.7008 165.268 71.6136C165.424 71.5265 165.501 71.375 165.501 71.1591V71.1136C165.501 70.553 165.348 70.1174 165.041 69.8068C164.738 69.4962 164.278 69.3409 163.661 69.3409C163.02 69.3409 162.518 69.4811 162.155 69.7614C161.791 70.0417 161.536 70.3409 161.388 70.6591L160.115 70.2045C160.342 69.6742 160.645 69.2614 161.024 68.9659C161.407 68.6667 161.823 68.4583 162.274 68.3409C162.729 68.2197 163.176 68.1591 163.615 68.1591C163.895 68.1591 164.217 68.1932 164.581 68.2614C164.948 68.3258 165.303 68.4602 165.643 68.6648C165.988 68.8693 166.274 69.178 166.501 69.5909C166.729 70.0038 166.842 70.5568 166.842 71.25V77H165.501V75.8182H165.433C165.342 76.0076 165.191 76.2102 164.979 76.4261C164.767 76.642 164.484 76.8258 164.132 76.9773C163.78 77.1288 163.35 77.2045 162.842 77.2045ZM163.047 76C163.577 76 164.024 75.8958 164.388 75.6875C164.755 75.4792 165.032 75.2102 165.217 74.8807C165.407 74.5511 165.501 74.2045 165.501 73.8409V72.6136C165.445 72.6818 165.32 72.7443 165.126 72.8011C164.937 72.8542 164.717 72.9015 164.467 72.9432C164.221 72.9811 163.981 73.0152 163.746 73.0455C163.515 73.072 163.327 73.0947 163.183 73.1136C162.835 73.1591 162.509 73.233 162.206 73.3352C161.907 73.4337 161.664 73.5833 161.479 73.7841C161.297 73.9811 161.206 74.25 161.206 74.5909C161.206 75.0568 161.378 75.4091 161.723 75.6477C162.071 75.8826 162.513 76 163.047 76ZM169.472 77V65.3636H170.812V69.6591H170.926C171.025 69.5076 171.161 69.3144 171.335 69.0795C171.513 68.8409 171.767 68.6288 172.097 68.4432C172.43 68.2538 172.881 68.1591 173.449 68.1591C174.184 68.1591 174.831 68.3428 175.392 68.7102C175.953 69.0777 176.39 69.5985 176.705 70.2727C177.019 70.947 177.176 71.7424 177.176 72.6591C177.176 73.5833 177.019 74.3845 176.705 75.0625C176.39 75.7367 175.955 76.2595 175.398 76.6307C174.841 76.9981 174.199 77.1818 173.472 77.1818C172.911 77.1818 172.462 77.089 172.125 76.9034C171.788 76.714 171.528 76.5 171.347 76.2614C171.165 76.0189 171.025 75.8182 170.926 75.6591H170.767V77H169.472ZM170.79 72.6364C170.79 73.2955 170.886 73.8769 171.08 74.3807C171.273 74.8807 171.555 75.2727 171.926 75.5568C172.297 75.8371 172.752 75.9773 173.29 75.9773C173.85 75.9773 174.318 75.8295 174.693 75.5341C175.072 75.2348 175.356 74.8333 175.545 74.3295C175.739 73.822 175.835 73.2576 175.835 72.6364C175.835 72.0227 175.741 71.4697 175.551 70.9773C175.366 70.4811 175.083 70.089 174.705 69.8011C174.33 69.5095 173.858 69.3636 173.29 69.3636C172.744 69.3636 172.286 69.5019 171.915 69.7784C171.544 70.0511 171.263 70.4337 171.074 70.9261C170.884 71.4148 170.79 71.9848 170.79 72.6364Z" fill="#344054"/>
<path d="M162.94 101.205C163.418 101.208 163.895 101.299 164.372 101.477C164.849 101.655 165.285 101.951 165.679 102.364C166.073 102.773 166.389 103.331 166.628 104.04C166.866 104.748 166.986 105.636 166.986 106.705C166.986 107.739 166.887 108.657 166.69 109.46C166.497 110.259 166.217 110.934 165.849 111.483C165.486 112.032 165.043 112.449 164.52 112.733C164.001 113.017 163.414 113.159 162.759 113.159C162.107 113.159 161.526 113.03 161.014 112.773C160.507 112.511 160.09 112.15 159.764 111.688C159.442 111.222 159.236 110.682 159.145 110.068H160.531C160.656 110.602 160.904 111.044 161.276 111.392C161.651 111.737 162.145 111.909 162.759 111.909C163.656 111.909 164.365 111.517 164.884 110.733C165.406 109.949 165.668 108.841 165.668 107.409H165.577C165.365 107.727 165.113 108.002 164.821 108.233C164.529 108.464 164.205 108.642 163.849 108.767C163.493 108.892 163.115 108.955 162.713 108.955C162.046 108.955 161.435 108.79 160.878 108.46C160.325 108.127 159.882 107.67 159.548 107.091C159.219 106.508 159.054 105.841 159.054 105.091C159.054 104.379 159.213 103.727 159.531 103.136C159.853 102.542 160.304 102.068 160.884 101.716C161.467 101.364 162.152 101.193 162.94 101.205ZM162.94 102.455C162.463 102.455 162.033 102.574 161.651 102.812C161.272 103.047 160.971 103.366 160.747 103.767C160.527 104.165 160.418 104.606 160.418 105.091C160.418 105.576 160.524 106.017 160.736 106.415C160.952 106.809 161.245 107.123 161.616 107.358C161.991 107.589 162.418 107.705 162.895 107.705C163.255 107.705 163.59 107.634 163.901 107.494C164.211 107.35 164.482 107.155 164.713 106.909C164.948 106.659 165.132 106.377 165.264 106.062C165.397 105.744 165.463 105.413 165.463 105.068C165.463 104.614 165.353 104.187 165.134 103.79C164.918 103.392 164.618 103.07 164.236 102.824C163.857 102.578 163.425 102.455 162.94 102.455ZM172.925 101.205C173.402 101.208 173.879 101.299 174.357 101.477C174.834 101.655 175.269 101.951 175.663 102.364C176.057 102.773 176.374 103.331 176.612 104.04C176.851 104.748 176.97 105.636 176.97 106.705C176.97 107.739 176.872 108.657 176.675 109.46C176.482 110.259 176.201 110.934 175.834 111.483C175.47 112.032 175.027 112.449 174.504 112.733C173.985 113.017 173.398 113.159 172.743 113.159C172.091 113.159 171.51 113.03 170.999 112.773C170.491 112.511 170.074 112.15 169.749 111.688C169.427 111.222 169.22 110.682 169.129 110.068H170.516C170.641 110.602 170.889 111.044 171.26 111.392C171.635 111.737 172.129 111.909 172.743 111.909C173.641 111.909 174.349 111.517 174.868 110.733C175.391 109.949 175.652 108.841 175.652 107.409H175.561C175.349 107.727 175.097 108.002 174.805 108.233C174.514 108.464 174.19 108.642 173.834 108.767C173.478 108.892 173.099 108.955 172.697 108.955C172.031 108.955 171.419 108.79 170.862 108.46C170.309 108.127 169.866 107.67 169.533 107.091C169.203 106.508 169.038 105.841 169.038 105.091C169.038 104.379 169.197 103.727 169.516 103.136C169.838 102.542 170.288 102.068 170.868 101.716C171.451 101.364 172.137 101.193 172.925 101.205ZM172.925 102.455C172.447 102.455 172.018 102.574 171.635 102.812C171.256 103.047 170.955 103.366 170.732 103.767C170.512 104.165 170.402 104.606 170.402 105.091C170.402 105.576 170.508 106.017 170.72 106.415C170.936 106.809 171.23 107.123 171.601 107.358C171.976 107.589 172.402 107.705 172.879 107.705C173.239 107.705 173.574 107.634 173.885 107.494C174.196 107.35 174.466 107.155 174.697 106.909C174.932 106.659 175.116 106.377 175.249 106.062C175.381 105.744 175.447 105.413 175.447 105.068C175.447 104.614 175.338 104.187 175.118 103.79C174.902 103.392 174.603 103.07 174.22 102.824C173.841 102.578 173.41 102.455 172.925 102.455Z" fill="#344054"/>
<path d="M3 48H187V46H3V48ZM189 50V132H191V50H189ZM187 134H3V136H187V134ZM1 132V50H-1V132H1ZM3 134C1.89543 134 1 133.105 1 132H-1C-1 134.209 0.790854 136 3 136V134ZM189 132C189 133.105 188.105 134 187 134V136C189.209 136 191 134.209 191 132H189ZM187 48C188.105 48 189 48.8954 189 50H191C191 47.7909 189.209 46 187 46V48ZM3 46C0.79086 46 -1 47.7909 -1 50H1C1 48.8954 1.89543 48 3 48V46Z" fill="#98A2B3"/>
<circle cx="134" cy="17" r="12" fill="#344054"/>
<path d="M129.943 23V21.2273L134.085 17.392C134.438 17.0511 134.733 16.7443 134.972 16.4716C135.214 16.1989 135.398 15.9318 135.523 15.6705C135.648 15.4053 135.71 15.1193 135.71 14.8125C135.71 14.4716 135.633 14.178 135.477 13.9318C135.322 13.6818 135.11 13.4905 134.841 13.358C134.572 13.2216 134.267 13.1534 133.926 13.1534C133.57 13.1534 133.259 13.2254 132.994 13.3693C132.729 13.5133 132.525 13.7197 132.381 13.9886C132.237 14.2576 132.165 14.5777 132.165 14.9489H129.83C129.83 14.1875 130.002 13.5265 130.347 12.9659C130.691 12.4053 131.174 11.9716 131.795 11.6648C132.417 11.358 133.133 11.2045 133.943 11.2045C134.777 11.2045 135.502 11.3523 136.119 11.6477C136.741 11.9394 137.223 12.3447 137.568 12.8636C137.913 13.3826 138.085 13.9773 138.085 14.6477C138.085 15.0871 137.998 15.5208 137.824 15.9489C137.653 16.3769 137.348 16.8523 136.909 17.375C136.47 17.8939 135.85 18.517 135.051 19.2443L133.352 20.9091V20.9886H138.239V23H129.943Z" fill="white"/>
<path d="M134 62L134 27" stroke="#344054" stroke-dasharray="2 2"/>
<circle cx="242" cy="101" r="12" fill="#344054"/>
<path d="M242.244 107.159C241.396 107.159 240.64 107.013 239.977 106.722C239.318 106.426 238.797 106.021 238.415 105.506C238.036 104.987 237.841 104.388 237.83 103.71H240.307C240.322 103.994 240.415 104.244 240.585 104.46C240.759 104.672 240.991 104.837 241.278 104.955C241.566 105.072 241.89 105.131 242.25 105.131C242.625 105.131 242.956 105.064 243.244 104.932C243.532 104.799 243.758 104.616 243.92 104.381C244.083 104.146 244.165 103.875 244.165 103.568C244.165 103.258 244.078 102.983 243.903 102.744C243.733 102.502 243.487 102.312 243.165 102.176C242.847 102.04 242.468 101.972 242.028 101.972H240.943V100.165H242.028C242.4 100.165 242.727 100.1 243.011 99.9716C243.299 99.8428 243.523 99.6648 243.682 99.4375C243.841 99.2064 243.92 98.9375 243.92 98.6307C243.92 98.339 243.85 98.0833 243.71 97.8636C243.574 97.6402 243.381 97.4659 243.131 97.3409C242.884 97.2159 242.597 97.1534 242.267 97.1534C241.934 97.1534 241.629 97.214 241.352 97.3352C241.076 97.4527 240.854 97.6212 240.688 97.8409C240.521 98.0606 240.432 98.3182 240.42 98.6136H238.062C238.074 97.9432 238.265 97.3523 238.636 96.8409C239.008 96.3295 239.508 95.9299 240.136 95.642C240.769 95.3504 241.483 95.2045 242.278 95.2045C243.081 95.2045 243.784 95.3504 244.386 95.642C244.989 95.9337 245.456 96.3277 245.79 96.8239C246.127 97.3163 246.294 97.8693 246.29 98.483C246.294 99.1345 246.091 99.678 245.682 100.114C245.277 100.549 244.748 100.826 244.097 100.943V101.034C244.953 101.144 245.604 101.441 246.051 101.926C246.502 102.407 246.725 103.009 246.722 103.733C246.725 104.396 246.534 104.985 246.148 105.5C245.765 106.015 245.237 106.42 244.562 106.716C243.888 107.011 243.116 107.159 242.244 107.159Z" fill="white"/>
<path d="M233 101L181 101.5" stroke="#344054" stroke-dasharray="2 2"/>
<circle cx="67" cy="16" r="12" fill="#344054"/>
<path d="M69.0057 10.3636V22H66.5455V12.6989H66.4773L63.8125 14.3693V12.1875L66.6932 10.3636H69.0057Z" fill="white"/>
<path d="M64 16H20V63" stroke="#344054" stroke-dasharray="2 2"/>
</svg>
