<svg width="180" height="91" viewBox="0 0 180 91" fill="none" xmlns="http://www.w3.org/2000/svg"><path d="M10 3.5h118v48H10v-48Z" fill="#fff"/><path fill-rule="evenodd" clip-rule="evenodd" d="M29.2 31.817v-4.233l.8-.8v5.033a.4.4 0 0 0 .4.4h7.2a.4.4 0 0 0 .4-.4v-5.034l.694.695.106 4.339a1.2 1.2 0 0 1-1.2 1.2h-7.2a1.2 1.2 0 0 1-1.2-1.2Zm8.8-8.8v2.634l-1.6-1.6v-1.033a.4.4 0 0 1 .4-.4h.8a.4.4 0 0 1 .4.4Z" fill="#344054"/><path fill-rule="evenodd" clip-rule="evenodd" d="M33.434 22.218a.8.8 0 0 1 1.132 0l5.317 5.316a.4.4 0 1 1-.567.566L34 22.783 28.684 28.1a.4.4 0 1 1-.567-.566l5.317-5.316Z" fill="#344054"/><path d="M60.41 33.5V21.864h1.408V32.25h5.41v1.25h-6.819Zm11.386.205a3.545 3.545 0 0 1-1.506-.313 2.584 2.584 0 0 1-1.074-.915c-.265-.401-.398-.886-.398-1.454 0-.5.099-.906.296-1.216.197-.315.46-.56.79-.739a4.18 4.18 0 0 1 1.09-.398c.402-.09.805-.162 1.21-.216.53-.068.96-.119 1.29-.153.334-.038.576-.1.728-.187.155-.088.233-.239.233-.455v-.045c0-.561-.154-.997-.46-1.307-.304-.31-.764-.466-1.381-.466-.64 0-1.142.14-1.506.42-.364.28-.62.58-.767.898l-1.273-.454c.228-.53.53-.944.91-1.24a3.411 3.411 0 0 1 1.25-.624 5.19 5.19 0 0 1 1.34-.182c.28 0 .603.034.966.102a3.09 3.09 0 0 1 1.063.404c.344.204.63.513.858.926.227.413.34.966.34 1.659v5.75h-1.34v-1.182h-.069a2.36 2.36 0 0 1-.454.608c-.212.216-.495.4-.847.551-.352.152-.782.228-1.29.228ZM72 32.5c.53 0 .977-.104 1.34-.313a2.128 2.128 0 0 0 1.114-1.846v-1.227c-.056.068-.181.13-.374.187-.19.053-.41.1-.66.142a29.952 29.952 0 0 1-1.284.17 5.19 5.19 0 0 0-.977.222 1.67 1.67 0 0 0-.727.45c-.182.196-.273.465-.273.806 0 .466.172.818.517 1.057.349.235.79.352 1.324.352Zm6.425 1V21.864h1.34v4.295h.114c.099-.151.235-.345.41-.58.177-.238.431-.45.76-.636.334-.19.785-.284 1.353-.284.735 0 1.383.184 1.943.551.56.368.998.889 1.313 1.563.314.674.471 1.47.471 2.386 0 .924-.157 1.726-.471 2.404-.315.674-.75 1.197-1.307 1.568-.557.367-1.199.55-1.926.55-.56 0-1.01-.092-1.347-.278-.337-.189-.597-.403-.778-.642a8.589 8.589 0 0 1-.42-.602h-.16V33.5h-1.295Zm1.318-4.364c0 .66.097 1.24.29 1.745.193.5.475.892.846 1.176.371.28.826.42 1.364.42.56 0 1.028-.147 1.403-.443.38-.3.663-.7.853-1.204.193-.508.29-1.072.29-1.694 0-.613-.095-1.166-.285-1.659-.185-.496-.468-.888-.846-1.176-.375-.291-.847-.437-1.415-.437-.546 0-1.004.138-1.375.414-.371.273-.652.656-.841 1.148-.19.489-.284 1.059-.284 1.71Zm12.097 4.546c-.841 0-1.567-.186-2.177-.557a3.737 3.737 0 0 1-1.403-1.568c-.326-.674-.489-1.458-.489-2.352 0-.894.163-1.682.489-2.364.33-.686.788-1.22 1.375-1.602.59-.387 1.28-.58 2.068-.58.455 0 .903.076 1.347.227.443.152.846.398 1.21.739.364.337.653.784.87 1.34.215.558.323 1.243.323 2.058v.568h-6.727v-1.16h5.364c0-.492-.099-.931-.296-1.317a2.226 2.226 0 0 0-.83-.915c-.356-.224-.776-.335-1.26-.335-.535 0-.997.132-1.387.397a2.615 2.615 0 0 0-.892 1.023c-.209.42-.313.871-.313 1.352v.773c0 .66.114 1.218.341 1.676.231.455.551.801.96 1.04.41.235.885.352 1.427.352.352 0 .67-.049.954-.147.288-.103.536-.254.744-.455.209-.204.37-.458.483-.761l1.296.363c-.137.44-.366.826-.688 1.16-.322.329-.72.587-1.193.772a4.426 4.426 0 0 1-1.597.273Zm6.994-11.818V33.5h-1.341V21.864h1.34Zm11.024 0V33.5h-1.409V23.34h-.068l-2.841 1.887v-1.431l2.909-1.932h1.409Z" fill="#344054"/><path d="M10 3.5v-1H9v1h1Zm118 0h1v-1h-1v1Zm0 48v1h1v-1h-1Zm-118 0H9v1h1v-1Zm0-47h118v-2H10v2Zm117-1v48h2v-48h-2Zm1 47H10v2h118v-2Zm-117 1v-48H9v48h2Z" fill="#98A2B3"/><path fill="#E8178A" fill-opacity=".24" d="M10 3.5h16v48H10z"/><path fill="#E8178A" fill-opacity=".24" d="M10 3.5h118v8H10zm0 39h118v8H10z"/><path fill="#E8178A" fill-opacity=".24" d="M112 3.5h16v48h-16z"/><path d="M112 68h16" stroke="#E8178A"/><rect x="102" y="73" width="36" height="18" rx="3" fill="#E8178A"/><path d="M111.754 78.727V86h-1.538v-5.813h-.043l-1.665 1.044v-1.364l1.8-1.14h1.446Zm4.519 7.372a3.285 3.285 0 0 1-1.083-.188 2.464 2.464 0 0 1-.93-.6c-.275-.277-.493-.644-.654-1.1-.158-.458-.238-1.019-.238-1.684.003-.61.073-1.156.21-1.637a3.66 3.66 0 0 1 .597-1.229c.26-.336.571-.592.933-.767a2.736 2.736 0 0 1 1.219-.266c.485 0 .913.094 1.285.284.372.187.67.441.895.763.227.322.365.683.412 1.084h-1.516a1.018 1.018 0 0 0-.373-.597 1.127 1.127 0 0 0-.703-.217c-.474 0-.834.206-1.08.618-.244.412-.368.972-.373 1.68h.05a1.7 1.7 0 0 1 .44-.55c.187-.154.399-.272.636-.352a2.29 2.29 0 0 1 .756-.124 2.162 2.162 0 0 1 1.946 1.136c.194.353.291.756.291 1.21 0 .493-.114.931-.344 1.315a2.389 2.389 0 0 1-.955.902c-.407.215-.881.322-1.421.32Zm-.007-1.207a1.2 1.2 0 0 0 1.076-.632 1.33 1.33 0 0 0 .16-.654 1.31 1.31 0 0 0-.16-.65 1.18 1.18 0 0 0-1.065-.629 1.22 1.22 0 0 0-.494.1 1.244 1.244 0 0 0-.657.69 1.272 1.272 0 0 0-.096.493 1.277 1.277 0 0 0 .601 1.108c.187.116.398.174.635.174Zm3.832 3.154v-7.5h1.491v.916h.068c.066-.147.162-.296.287-.448.128-.154.294-.281.498-.383.206-.105.461-.157.767-.157.397 0 .764.105 1.1.313.337.206.605.517.807.934.201.414.301.934.301 1.559 0 .608-.098 1.122-.294 1.541-.194.417-.46.733-.796.948-.334.213-.708.32-1.122.32a1.75 1.75 0 0 1-.749-.146 1.545 1.545 0 0 1-.501-.366c-.13-.149-.23-.3-.298-.45h-.046v2.919h-1.513Zm1.481-4.773c0 .324.045.607.135.848.09.242.22.43.39.565a.984.984 0 0 0 .622.199.977.977 0 0 0 .625-.203c.17-.137.299-.326.387-.568.09-.243.135-.524.135-.841a2.4 2.4 0 0 0-.132-.831 1.229 1.229 0 0 0-.387-.561.98.98 0 0 0-.628-.203.997.997 0 0 0-.625.196 1.22 1.22 0 0 0-.387.554c-.09.239-.135.52-.135.845Zm5.916-2.727 1.001 1.906 1.027-1.906h1.551l-1.58 2.727L131.117 86h-1.545l-1.076-1.886L127.438 86h-1.562l1.619-2.727-1.563-2.727h1.563Z" fill="#fff"/><path stroke="#E8178A" d="M112.5 71.5v-7m15 7v-7m17-61v8"/><rect x="149" width="31" height="18" rx="3" fill="#E8178A"/><path d="M158.303 13.1c-.547 0-1.034-.09-1.46-.267-.424-.18-.756-.425-.998-.735a1.674 1.674 0 0 1-.362-1.055c0-.303.069-.58.206-.834.14-.256.329-.468.568-.636.239-.17.507-.28.803-.327v-.05a1.577 1.577 0 0 1-.945-.564c-.241-.3-.362-.65-.362-1.047 0-.377.11-.712.33-1.005.22-.296.522-.528.906-.696.386-.17.823-.256 1.314-.256.49 0 .926.085 1.31.256.386.17.689.403.909.7.22.293.331.626.334 1-.003.4-.126.75-.369 1.048a1.59 1.59 0 0 1-.938.565v.05c.291.047.555.156.792.326.239.168.428.38.568.636a1.713 1.713 0 0 1-.149 1.889c-.242.31-.575.555-1.001.735-.424.178-.91.266-1.456.266Zm0-1.13c.243 0 .456-.044.639-.131.182-.09.324-.213.426-.37a.975.975 0 0 0 .156-.546.983.983 0 0 0-.16-.558 1.096 1.096 0 0 0-.433-.383 1.343 1.343 0 0 0-.628-.143c-.235 0-.444.048-.629.143-.185.092-.33.22-.437.383a1.006 1.006 0 0 0-.156.558c0 .206.051.388.153.546.101.157.245.28.429.37.185.087.398.131.64.131Zm0-3.25c.203 0 .384-.04.543-.123a.94.94 0 0 0 .373-.345.952.952 0 0 0 .135-.508.909.909 0 0 0-.505-.834 1.147 1.147 0 0 0-.546-.124c-.206 0-.389.04-.547.124a.917.917 0 0 0-.373.337.925.925 0 0 0-.132.497c0 .192.045.361.135.508a.94.94 0 0 0 .373.345c.159.082.34.124.544.124Zm3.912 6.325v-7.5h1.491v.917h.068c.066-.147.162-.296.288-.448a1.49 1.49 0 0 1 .497-.383c.206-.104.461-.157.767-.157.398 0 .764.105 1.101.313.336.206.605.517.806.934.201.414.302.934.302 1.559 0 .608-.099 1.122-.295 1.541-.194.417-.459.733-.796.948-.333.213-.707.32-1.122.32a1.75 1.75 0 0 1-.749-.146 1.545 1.545 0 0 1-.501-.366c-.13-.149-.229-.3-.298-.45h-.046v2.918h-1.513Zm1.481-4.772c0 .324.045.607.135.848.09.242.22.43.39.565a.984.984 0 0 0 .622.199.977.977 0 0 0 .625-.203c.17-.137.299-.326.387-.568a2.42 2.42 0 0 0 .135-.841 2.4 2.4 0 0 0-.132-.831 1.23 1.23 0 0 0-.387-.561.98.98 0 0 0-.628-.203.999.999 0 0 0-.625.196 1.22 1.22 0 0 0-.387.554c-.09.239-.135.52-.135.845Zm5.916-2.728 1.001 1.907 1.027-1.907h1.552l-1.581 2.728L173.234 13h-1.545l-1.076-1.886L169.555 13h-1.562l1.619-2.727-1.562-2.728h1.562Z" fill="#fff"/><path stroke="#E8178A" d="M141 4h7m-7 7h7m-3.5 31.5v8"/><rect x="149" y="39" width="31" height="18" rx="3" fill="#E8178A"/><path d="M158.303 52.1c-.547 0-1.034-.09-1.46-.267-.424-.18-.756-.425-.998-.735a1.674 1.674 0 0 1-.362-1.055c0-.303.069-.58.206-.834.14-.256.329-.468.568-.636.239-.17.507-.28.803-.327v-.05a1.577 1.577 0 0 1-.945-.564c-.241-.3-.362-.65-.362-1.047 0-.377.11-.712.33-1.005.22-.296.522-.528.906-.697a3.22 3.22 0 0 1 1.314-.255c.49 0 .926.085 1.31.255.386.171.689.404.909.7.22.294.331.628.334 1.002-.003.4-.126.749-.369 1.047a1.59 1.59 0 0 1-.938.565v.05c.291.047.555.156.792.326.239.168.428.38.568.636a1.713 1.713 0 0 1-.149 1.889c-.242.31-.575.555-1.001.735-.424.178-.91.266-1.456.266Zm0-1.13c.243 0 .456-.044.639-.131.182-.09.324-.213.426-.37a.975.975 0 0 0 .156-.546.983.983 0 0 0-.16-.558 1.097 1.097 0 0 0-.433-.384 1.343 1.343 0 0 0-.628-.142c-.235 0-.444.048-.629.142-.185.093-.33.22-.437.384a1.006 1.006 0 0 0-.156.558c0 .206.051.388.153.546.101.157.245.28.429.37.185.087.398.131.64.131Zm0-3.25c.203 0 .384-.04.543-.123a.94.94 0 0 0 .373-.345.951.951 0 0 0 .135-.508.909.909 0 0 0-.505-.834 1.147 1.147 0 0 0-.546-.124c-.206 0-.389.04-.547.124a.917.917 0 0 0-.373.337.924.924 0 0 0-.132.497c0 .192.045.361.135.508a.94.94 0 0 0 .373.345c.159.082.34.124.544.124Zm3.912 6.325v-7.5h1.491v.917h.068c.066-.147.162-.296.288-.448a1.49 1.49 0 0 1 .497-.383c.206-.105.461-.157.767-.157.398 0 .764.105 1.101.313.336.206.605.517.806.934.201.414.302.934.302 1.559 0 .608-.099 1.122-.295 1.541-.194.417-.459.733-.796.948-.333.213-.707.32-1.122.32a1.75 1.75 0 0 1-.749-.146 1.545 1.545 0 0 1-.501-.366c-.13-.149-.229-.3-.298-.45h-.046v2.918h-1.513Zm1.481-4.772c0 .324.045.607.135.848.09.242.22.43.39.565a.984.984 0 0 0 .622.199.977.977 0 0 0 .625-.203c.17-.137.299-.326.387-.568.09-.243.135-.524.135-.841a2.4 2.4 0 0 0-.132-.831 1.229 1.229 0 0 0-.387-.561.98.98 0 0 0-.628-.203.999.999 0 0 0-.625.196 1.22 1.22 0 0 0-.387.554c-.09.239-.135.52-.135.845Zm5.916-2.728 1.001 1.907 1.027-1.907h1.552l-1.581 2.728L173.234 52h-1.545l-1.076-1.886L169.555 52h-1.562l1.619-2.727-1.562-2.728h1.562Z" fill="#fff"/><path stroke="#E8178A" d="M141 43h7m-7 7h7M10 68h16"/><rect y="73" width="36" height="18" rx="3" fill="#E8178A"/><path d="M9.754 78.727V86H8.216v-5.813h-.043L6.508 81.23v-1.364l1.8-1.14h1.446Zm4.52 7.372a3.285 3.285 0 0 1-1.084-.188 2.465 2.465 0 0 1-.93-.6c-.275-.277-.493-.644-.654-1.1-.158-.458-.238-1.019-.238-1.684.003-.61.073-1.156.21-1.637.14-.483.338-.893.597-1.229.26-.336.571-.592.933-.767a2.73 2.73 0 0 1 1.218-.266c.486 0 .914.094 1.286.284.372.187.67.441.895.763.227.322.364.683.412 1.084h-1.517a1.013 1.013 0 0 0-.372-.597 1.126 1.126 0 0 0-.704-.217c-.473 0-.833.206-1.079.618-.244.412-.368.972-.373 1.68h.05a1.69 1.69 0 0 1 .44-.55c.187-.154.4-.272.636-.352.239-.083.491-.124.756-.124a2.168 2.168 0 0 1 1.946 1.136c.194.353.291.756.291 1.21 0 .493-.114.931-.344 1.315a2.388 2.388 0 0 1-.955.902c-.408.215-.881.322-1.42.32Zm-.008-1.207a1.2 1.2 0 0 0 1.076-.632c.107-.194.16-.412.16-.654 0-.24-.053-.458-.16-.65a1.18 1.18 0 0 0-1.065-.629 1.242 1.242 0 0 0-.494.1 1.24 1.24 0 0 0-.657.69 1.274 1.274 0 0 0-.096.493 1.277 1.277 0 0 0 .6 1.108c.188.116.4.174.636.174Zm3.832 3.154v-7.5h1.491v.916h.068c.066-.147.162-.296.287-.448.128-.154.294-.281.498-.383.206-.105.461-.157.767-.157.397 0 .764.105 1.1.313.337.206.605.517.807.934.2.414.301.934.301 1.559 0 .608-.098 1.122-.294 1.541-.194.417-.46.733-.796.948-.334.213-.708.32-1.122.32-.293 0-.543-.049-.75-.146a1.55 1.55 0 0 1-.5-.366c-.13-.149-.23-.3-.298-.45h-.046v2.919h-1.513Zm1.48-4.773c0 .324.046.607.136.848.09.242.22.43.39.565a.98.98 0 0 0 .622.199.975.975 0 0 0 .625-.203c.17-.137.3-.326.387-.568.09-.243.135-.524.135-.841a2.41 2.41 0 0 0-.132-.831 1.237 1.237 0 0 0-.387-.561.98.98 0 0 0-.628-.203 1 1 0 0 0-.625.196 1.22 1.22 0 0 0-.387.554c-.09.239-.135.52-.135.845Zm5.917-2.727 1.001 1.906 1.027-1.906h1.551l-1.58 2.727L29.117 86h-1.545l-1.076-1.886L25.438 86h-1.563l1.62-2.727-1.563-2.727h1.563Z" fill="#fff"/><path stroke="#E8178A" d="M10.5 71.5v-7m15 7v-7"/></svg>