<svg width="259" height="129" viewBox="0 0 259 129" fill="none" xmlns="http://www.w3.org/2000/svg">
<path d="M12 4.5C12 2.84315 13.3431 1.5 15 1.5H199C200.657 1.5 202 2.84315 202 4.5V86.5C202 88.1569 200.657 89.5 199 89.5H15C13.3431 89.5 12 88.1569 12 86.5V4.5Z" fill="white"/>
<path fill-rule="evenodd" clip-rule="evenodd" d="M28.2877 29.2123C29.2723 30.1969 30.6076 30.75 32 30.75C33.3924 30.75 34.7277 30.1969 35.7123 29.2123C36.6969 28.2277 37.25 26.8924 37.25 25.5C37.25 24.1076 36.6969 22.7723 35.7123 21.7877C34.7277 20.8031 33.3924 20.25 32 20.25C30.6076 20.25 29.2723 20.8031 28.2877 21.7877C27.3031 22.7723 26.75 24.1076 26.75 25.5C26.75 26.8924 27.3031 28.2277 28.2877 29.2123ZM36.2426 29.7426C35.1174 30.8679 33.5913 31.5 32 31.5C30.4087 31.5 28.8826 30.8679 27.7574 29.7426C26.6321 28.6174 26 27.0913 26 25.5C26 23.9087 26.6321 22.3826 27.7574 21.2574C28.8826 20.1321 30.4087 19.5 32 19.5C33.5913 19.5 35.1174 20.1321 36.2426 21.2574C37.3679 22.3826 38 23.9087 38 25.5C38 27.0913 37.3679 28.6174 36.2426 29.7426ZM28.637 28.8488C26.813 27.0248 26.7958 24.0783 28.5852 22.233L35.2528 28.9006C33.4076 30.6901 30.461 30.6728 28.637 28.8488Z" fill="#344054"/>
<path d="M101.268 31.5V19.8636H102.678V30.25H108.087V31.5H101.268ZM112.655 31.7045C112.102 31.7045 111.6 31.6004 111.149 31.392C110.698 31.1799 110.34 30.875 110.075 30.4773C109.81 30.0758 109.678 29.5909 109.678 29.0227C109.678 28.5227 109.776 28.1174 109.973 27.8068C110.17 27.4924 110.433 27.2462 110.763 27.0682C111.092 26.8902 111.456 26.7576 111.854 26.6705C112.255 26.5795 112.659 26.5076 113.064 26.4545C113.594 26.3864 114.024 26.3352 114.354 26.3011C114.687 26.2633 114.929 26.2008 115.081 26.1136C115.236 26.0265 115.314 25.875 115.314 25.6591V25.6136C115.314 25.053 115.161 24.6174 114.854 24.3068C114.551 23.9962 114.09 23.8409 113.473 23.8409C112.833 23.8409 112.331 23.9811 111.967 24.2614C111.604 24.5417 111.348 24.8409 111.2 25.1591L109.928 24.7045C110.155 24.1742 110.458 23.7614 110.837 23.4659C111.219 23.1667 111.636 22.9583 112.087 22.8409C112.541 22.7197 112.988 22.6591 113.428 22.6591C113.708 22.6591 114.03 22.6932 114.393 22.7614C114.761 22.8258 115.115 22.9602 115.456 23.1648C115.801 23.3693 116.087 23.678 116.314 24.0909C116.541 24.5038 116.655 25.0568 116.655 25.75V31.5H115.314V30.3182H115.246C115.155 30.5076 115.003 30.7102 114.791 30.9261C114.579 31.142 114.297 31.3258 113.945 31.4773C113.592 31.6288 113.162 31.7045 112.655 31.7045ZM112.859 30.5C113.39 30.5 113.837 30.3958 114.2 30.1875C114.568 29.9792 114.844 29.7102 115.03 29.3807C115.219 29.0511 115.314 28.7045 115.314 28.3409V27.1136C115.257 27.1818 115.132 27.2443 114.939 27.3011C114.75 27.3542 114.53 27.4015 114.28 27.4432C114.034 27.4811 113.793 27.5152 113.558 27.5455C113.327 27.572 113.14 27.5947 112.996 27.6136C112.647 27.6591 112.321 27.733 112.018 27.8352C111.719 27.9337 111.477 28.0833 111.291 28.2841C111.109 28.4811 111.018 28.75 111.018 29.0909C111.018 29.5568 111.191 29.9091 111.536 30.1477C111.884 30.3826 112.325 30.5 112.859 30.5ZM119.284 31.5V19.8636H120.625V24.1591H120.739C120.837 24.0076 120.973 23.8144 121.148 23.5795C121.326 23.3409 121.58 23.1288 121.909 22.9432C122.242 22.7538 122.693 22.6591 123.261 22.6591C123.996 22.6591 124.644 22.8428 125.205 23.2102C125.765 23.5777 126.203 24.0985 126.517 24.7727C126.831 25.447 126.989 26.2424 126.989 27.1591C126.989 28.0833 126.831 28.8845 126.517 29.5625C126.203 30.2367 125.767 30.7595 125.21 31.1307C124.653 31.4981 124.011 31.6818 123.284 31.6818C122.723 31.6818 122.275 31.589 121.938 31.4034C121.6 31.214 121.341 31 121.159 30.7614C120.977 30.5189 120.837 30.3182 120.739 30.1591H120.58V31.5H119.284ZM120.602 27.1364C120.602 27.7955 120.699 28.3769 120.892 28.8807C121.085 29.3807 121.367 29.7727 121.739 30.0568C122.11 30.3371 122.564 30.4773 123.102 30.4773C123.663 30.4773 124.131 30.3295 124.506 30.0341C124.884 29.7348 125.169 29.3333 125.358 28.8295C125.551 28.322 125.648 27.7576 125.648 27.1364C125.648 26.5227 125.553 25.9697 125.364 25.4773C125.178 24.9811 124.896 24.589 124.517 24.3011C124.142 24.0095 123.67 23.8636 123.102 23.8636C122.557 23.8636 122.098 24.0019 121.727 24.2784C121.356 24.5511 121.076 24.9337 120.886 25.4261C120.697 25.9148 120.602 26.4848 120.602 27.1364ZM130.381 19.8636V31.5H129.04V19.8636H130.381ZM136.496 31.6818C135.655 31.6818 134.929 31.4962 134.32 31.125C133.714 30.75 133.246 30.2273 132.916 29.5568C132.59 28.8826 132.428 28.0985 132.428 27.2045C132.428 26.3106 132.59 25.5227 132.916 24.8409C133.246 24.1553 133.704 23.6212 134.291 23.2386C134.882 22.8523 135.571 22.6591 136.359 22.6591C136.814 22.6591 137.263 22.7348 137.706 22.8864C138.149 23.0379 138.553 23.2841 138.916 23.625C139.28 23.9621 139.57 24.4091 139.786 24.9659C140.001 25.5227 140.109 26.2083 140.109 27.0227V27.5909H133.382V26.4318H138.746C138.746 25.9394 138.647 25.5 138.45 25.1136C138.257 24.7273 137.981 24.4223 137.621 24.1989C137.265 23.9754 136.844 23.8636 136.359 23.8636C135.825 23.8636 135.363 23.9962 134.973 24.2614C134.587 24.5227 134.289 24.8636 134.081 25.2841C133.873 25.7045 133.768 26.1553 133.768 26.6364V27.4091C133.768 28.0682 133.882 28.6269 134.109 29.0852C134.34 29.5398 134.661 29.8864 135.07 30.125C135.479 30.3598 135.954 30.4773 136.496 30.4773C136.848 30.4773 137.166 30.428 137.45 30.3295C137.738 30.2273 137.986 30.0758 138.195 29.875C138.403 29.6705 138.564 29.4167 138.678 29.1136L139.973 29.4773C139.837 29.9167 139.607 30.303 139.286 30.6364C138.964 30.9659 138.566 31.2235 138.092 31.4091C137.619 31.5909 137.087 31.6818 136.496 31.6818ZM150.195 31.6818C149.407 31.6818 148.715 31.4943 148.121 31.1193C147.53 30.7443 147.068 30.2197 146.734 29.5455C146.405 28.8712 146.24 28.0833 146.24 27.1818C146.24 26.2727 146.405 25.4792 146.734 24.8011C147.068 24.1231 147.53 23.5966 148.121 23.2216C148.715 22.8466 149.407 22.6591 150.195 22.6591C150.982 22.6591 151.672 22.8466 152.263 23.2216C152.857 23.5966 153.32 24.1231 153.649 24.8011C153.982 25.4792 154.149 26.2727 154.149 27.1818C154.149 28.0833 153.982 28.8712 153.649 29.5455C153.32 30.2197 152.857 30.7443 152.263 31.1193C151.672 31.4943 150.982 31.6818 150.195 31.6818ZM150.195 30.4773C150.793 30.4773 151.286 30.3239 151.672 30.017C152.058 29.7102 152.344 29.3068 152.53 28.8068C152.715 28.3068 152.808 27.7652 152.808 27.1818C152.808 26.5985 152.715 26.0549 152.53 25.5511C152.344 25.0473 152.058 24.6402 151.672 24.3295C151.286 24.0189 150.793 23.8636 150.195 23.8636C149.596 23.8636 149.104 24.0189 148.717 24.3295C148.331 24.6402 148.045 25.0473 147.859 25.5511C147.674 26.0549 147.581 26.5985 147.581 27.1818C147.581 27.7652 147.674 28.3068 147.859 28.8068C148.045 29.3068 148.331 29.7102 148.717 30.017C149.104 30.3239 149.596 30.4773 150.195 30.4773ZM160.082 22.7727V23.9091H155.378V22.7727H160.082ZM156.787 31.5V21.5682C156.787 21.0682 156.904 20.6515 157.139 20.3182C157.374 19.9848 157.679 19.7348 158.054 19.5682C158.429 19.4015 158.825 19.3182 159.241 19.3182C159.571 19.3182 159.84 19.3447 160.048 19.3977C160.257 19.4508 160.412 19.5 160.514 19.5455L160.128 20.7045C160.06 20.6818 159.965 20.6534 159.844 20.6193C159.726 20.5852 159.571 20.5682 159.378 20.5682C158.935 20.5682 158.615 20.6799 158.418 20.9034C158.224 21.1269 158.128 21.4545 158.128 21.8864V31.5H156.787ZM170.257 22.7727V23.9091H165.734V22.7727H170.257ZM167.053 20.6818H168.393V29C168.393 29.3788 168.448 29.6629 168.558 29.8523C168.672 30.0379 168.816 30.1629 168.99 30.2273C169.168 30.2879 169.356 30.3182 169.553 30.3182C169.7 30.3182 169.821 30.3106 169.916 30.2955C170.011 30.2765 170.087 30.2614 170.143 30.25L170.416 31.4545C170.325 31.4886 170.198 31.5227 170.036 31.5568C169.873 31.5947 169.666 31.6136 169.416 31.6136C169.037 31.6136 168.666 31.5322 168.303 31.3693C167.943 31.2064 167.643 30.9583 167.405 30.625C167.17 30.2917 167.053 29.8712 167.053 29.3636V20.6818ZM174.842 31.7045C174.289 31.7045 173.787 31.6004 173.337 31.392C172.886 31.1799 172.528 30.875 172.263 30.4773C171.998 30.0758 171.865 29.5909 171.865 29.0227C171.865 28.5227 171.964 28.1174 172.161 27.8068C172.357 27.4924 172.621 27.2462 172.95 27.0682C173.28 26.8902 173.643 26.7576 174.041 26.6705C174.443 26.5795 174.846 26.5076 175.251 26.4545C175.782 26.3864 176.212 26.3352 176.541 26.3011C176.875 26.2633 177.117 26.2008 177.268 26.1136C177.424 26.0265 177.501 25.875 177.501 25.6591V25.6136C177.501 25.053 177.348 24.6174 177.041 24.3068C176.738 23.9962 176.278 23.8409 175.661 23.8409C175.02 23.8409 174.518 23.9811 174.155 24.2614C173.791 24.5417 173.536 24.8409 173.388 25.1591L172.115 24.7045C172.342 24.1742 172.645 23.7614 173.024 23.4659C173.407 23.1667 173.823 22.9583 174.274 22.8409C174.729 22.7197 175.176 22.6591 175.615 22.6591C175.895 22.6591 176.217 22.6932 176.581 22.7614C176.948 22.8258 177.303 22.9602 177.643 23.1648C177.988 23.3693 178.274 23.678 178.501 24.0909C178.729 24.5038 178.842 25.0568 178.842 25.75V31.5H177.501V30.3182H177.433C177.342 30.5076 177.191 30.7102 176.979 30.9261C176.767 31.142 176.484 31.3258 176.132 31.4773C175.78 31.6288 175.35 31.7045 174.842 31.7045ZM175.047 30.5C175.577 30.5 176.024 30.3958 176.388 30.1875C176.755 29.9792 177.032 29.7102 177.217 29.3807C177.407 29.0511 177.501 28.7045 177.501 28.3409V27.1136C177.445 27.1818 177.32 27.2443 177.126 27.3011C176.937 27.3542 176.717 27.4015 176.467 27.4432C176.221 27.4811 175.981 27.5152 175.746 27.5455C175.515 27.572 175.327 27.5947 175.183 27.6136C174.835 27.6591 174.509 27.733 174.206 27.8352C173.907 27.9337 173.664 28.0833 173.479 28.2841C173.297 28.4811 173.206 28.75 173.206 29.0909C173.206 29.5568 173.378 29.9091 173.723 30.1477C174.071 30.3826 174.513 30.5 175.047 30.5ZM181.472 31.5V19.8636H182.812V24.1591H182.926C183.025 24.0076 183.161 23.8144 183.335 23.5795C183.513 23.3409 183.767 23.1288 184.097 22.9432C184.43 22.7538 184.881 22.6591 185.449 22.6591C186.184 22.6591 186.831 22.8428 187.392 23.2102C187.953 23.5777 188.39 24.0985 188.705 24.7727C189.019 25.447 189.176 26.2424 189.176 27.1591C189.176 28.0833 189.019 28.8845 188.705 29.5625C188.39 30.2367 187.955 30.7595 187.398 31.1307C186.841 31.4981 186.199 31.6818 185.472 31.6818C184.911 31.6818 184.462 31.589 184.125 31.4034C183.788 31.214 183.528 31 183.347 30.7614C183.165 30.5189 183.025 30.3182 182.926 30.1591H182.767V31.5H181.472ZM182.79 27.1364C182.79 27.7955 182.886 28.3769 183.08 28.8807C183.273 29.3807 183.555 29.7727 183.926 30.0568C184.297 30.3371 184.752 30.4773 185.29 30.4773C185.85 30.4773 186.318 30.3295 186.693 30.0341C187.072 29.7348 187.356 29.3333 187.545 28.8295C187.739 28.322 187.835 27.7576 187.835 27.1364C187.835 26.5227 187.741 25.9697 187.551 25.4773C187.366 24.9811 187.083 24.589 186.705 24.3011C186.33 24.0095 185.858 23.8636 185.29 23.8636C184.744 23.8636 184.286 24.0019 183.915 24.2784C183.544 24.5511 183.263 24.9337 183.074 25.4261C182.884 25.9148 182.79 26.4848 182.79 27.1364Z" fill="#344054"/>
<path d="M174.94 55.7045C175.418 55.7083 175.895 55.7992 176.372 55.9773C176.849 56.1553 177.285 56.4508 177.679 56.8636C178.073 57.2727 178.389 57.8314 178.628 58.5398C178.866 59.2481 178.986 60.1364 178.986 61.2045C178.986 62.2386 178.887 63.1572 178.69 63.9602C178.497 64.7595 178.217 65.4337 177.849 65.983C177.486 66.5322 177.043 66.9489 176.52 67.233C176.001 67.517 175.414 67.6591 174.759 67.6591C174.107 67.6591 173.526 67.5303 173.014 67.2727C172.507 67.0114 172.09 66.6496 171.764 66.1875C171.442 65.7216 171.236 65.1818 171.145 64.5682H172.531C172.656 65.1023 172.904 65.5436 173.276 65.892C173.651 66.2367 174.145 66.4091 174.759 66.4091C175.656 66.4091 176.365 66.017 176.884 65.233C177.406 64.4489 177.668 63.3409 177.668 61.9091H177.577C177.365 62.2273 177.113 62.5019 176.821 62.733C176.529 62.964 176.205 63.142 175.849 63.267C175.493 63.392 175.115 63.4545 174.713 63.4545C174.046 63.4545 173.435 63.2898 172.878 62.9602C172.325 62.6269 171.882 62.1705 171.548 61.5909C171.219 61.0076 171.054 60.3409 171.054 59.5909C171.054 58.8788 171.213 58.2273 171.531 57.6364C171.853 57.0417 172.304 56.5682 172.884 56.2159C173.467 55.8636 174.152 55.6932 174.94 55.7045ZM174.94 56.9545C174.463 56.9545 174.033 57.0739 173.651 57.3125C173.272 57.5473 172.971 57.8655 172.747 58.267C172.527 58.6648 172.418 59.1061 172.418 59.5909C172.418 60.0758 172.524 60.517 172.736 60.9148C172.952 61.3087 173.245 61.6231 173.616 61.858C173.991 62.089 174.418 62.2045 174.895 62.2045C175.255 62.2045 175.59 62.1345 175.901 61.9943C176.211 61.8504 176.482 61.6553 176.713 61.4091C176.948 61.1591 177.132 60.8769 177.264 60.5625C177.397 60.2443 177.463 59.9129 177.463 59.5682C177.463 59.1136 177.353 58.6875 177.134 58.2898C176.918 57.892 176.618 57.5701 176.236 57.3239C175.857 57.0777 175.425 56.9545 174.94 56.9545ZM184.925 55.7045C185.402 55.7083 185.879 55.7992 186.357 55.9773C186.834 56.1553 187.269 56.4508 187.663 56.8636C188.057 57.2727 188.374 57.8314 188.612 58.5398C188.851 59.2481 188.97 60.1364 188.97 61.2045C188.97 62.2386 188.872 63.1572 188.675 63.9602C188.482 64.7595 188.201 65.4337 187.834 65.983C187.47 66.5322 187.027 66.9489 186.504 67.233C185.985 67.517 185.398 67.6591 184.743 67.6591C184.091 67.6591 183.51 67.5303 182.999 67.2727C182.491 67.0114 182.074 66.6496 181.749 66.1875C181.427 65.7216 181.22 65.1818 181.129 64.5682H182.516C182.641 65.1023 182.889 65.5436 183.26 65.892C183.635 66.2367 184.129 66.4091 184.743 66.4091C185.641 66.4091 186.349 66.017 186.868 65.233C187.391 64.4489 187.652 63.3409 187.652 61.9091H187.561C187.349 62.2273 187.097 62.5019 186.805 62.733C186.514 62.964 186.19 63.142 185.834 63.267C185.478 63.392 185.099 63.4545 184.697 63.4545C184.031 63.4545 183.419 63.2898 182.862 62.9602C182.309 62.6269 181.866 62.1705 181.533 61.5909C181.203 61.0076 181.038 60.3409 181.038 59.5909C181.038 58.8788 181.197 58.2273 181.516 57.6364C181.838 57.0417 182.288 56.5682 182.868 56.2159C183.451 55.8636 184.137 55.6932 184.925 55.7045ZM184.925 56.9545C184.447 56.9545 184.018 57.0739 183.635 57.3125C183.256 57.5473 182.955 57.8655 182.732 58.267C182.512 58.6648 182.402 59.1061 182.402 59.5909C182.402 60.0758 182.508 60.517 182.72 60.9148C182.936 61.3087 183.23 61.6231 183.601 61.858C183.976 62.089 184.402 62.2045 184.879 62.2045C185.239 62.2045 185.574 62.1345 185.885 61.9943C186.196 61.8504 186.466 61.6553 186.697 61.4091C186.932 61.1591 187.116 60.8769 187.249 60.5625C187.381 60.2443 187.447 59.9129 187.447 59.5682C187.447 59.1136 187.338 58.6875 187.118 58.2898C186.902 57.892 186.603 57.5701 186.22 57.3239C185.841 57.0777 185.41 56.9545 184.925 56.9545Z" fill="#344054"/>
<path d="M15 2.5H199V0.5H15V2.5ZM201 4.5V86.5H203V4.5H201ZM199 88.5H15V90.5H199V88.5ZM13 86.5V4.5H11V86.5H13ZM15 88.5C13.8954 88.5 13 87.6046 13 86.5H11C11 88.7091 12.7909 90.5 15 90.5V88.5ZM201 86.5C201 87.6046 200.105 88.5 199 88.5V90.5C201.209 90.5 203 88.7091 203 86.5H201ZM199 2.5C200.105 2.5 201 3.39543 201 4.5H203C203 2.29086 201.209 0.5 199 0.5V2.5ZM15 0.5C12.7909 0.5 11 2.29086 11 4.5H13C13 3.39543 13.8954 2.5 15 2.5V0.5Z" fill="#98A2B3"/>
<rect x="12" y="1.5" width="12" height="88" fill="#E8178A" fill-opacity="0.24"/>
<rect x="12" y="1.5" width="190" height="12" fill="#E8178A" fill-opacity="0.24"/>
<rect x="12" y="37.5" width="190" height="8" fill="#E8178A" fill-opacity="0.24"/>
<rect x="12" y="77.5" width="190" height="12" fill="#E8178A" fill-opacity="0.24"/>
<rect x="190" y="1.5" width="12" height="88" fill="#E8178A" fill-opacity="0.24"/>
<path d="M218.5 1.5V13.5" stroke="#E8178A"/>
<rect x="223" width="36" height="18" rx="3" fill="#E8178A"/>
<path d="M232.754 5.72727V13H231.216V7.18679H231.173L229.508 8.23082V6.86719L231.308 5.72727H232.754ZM234.482 13V11.892L237.071 9.49503C237.291 9.28196 237.476 9.0902 237.625 8.91974C237.776 8.74929 237.891 8.58239 237.969 8.41903C238.047 8.25331 238.086 8.07457 238.086 7.88281C238.086 7.66974 238.038 7.48627 237.941 7.33239C237.844 7.17614 237.711 7.05658 237.543 6.97372C237.375 6.88849 237.184 6.84588 236.971 6.84588C236.749 6.84588 236.555 6.89086 236.389 6.98082C236.223 7.07079 236.095 7.19981 236.006 7.3679C235.916 7.53598 235.871 7.73603 235.871 7.96804H234.411C234.411 7.49219 234.519 7.07907 234.734 6.72869C234.95 6.37831 235.251 6.10724 235.64 5.91548C236.028 5.72372 236.475 5.62784 236.982 5.62784C237.503 5.62784 237.956 5.72017 238.342 5.90483C238.73 6.08712 239.032 6.34044 239.248 6.66477C239.463 6.98911 239.571 7.3608 239.571 7.77983C239.571 8.05445 239.516 8.32552 239.407 8.59304C239.301 8.86056 239.11 9.15767 238.836 9.48438C238.561 9.80871 238.174 10.1982 237.675 10.6527L236.613 11.6932V11.7429H239.667V13H234.482ZM240.795 15.0455V7.54545H242.287V8.46165H242.354C242.42 8.31487 242.516 8.16572 242.642 8.0142C242.77 7.86032 242.935 7.73248 243.139 7.63068C243.345 7.52652 243.6 7.47443 243.906 7.47443C244.304 7.47443 244.671 7.5786 245.007 7.78693C245.343 7.9929 245.612 8.30421 245.813 8.72088C246.014 9.13518 246.115 9.65483 246.115 10.2798C246.115 10.8883 246.016 11.402 245.82 11.821C245.626 12.2377 245.361 12.5537 245.025 12.7692C244.691 12.9822 244.317 13.0888 243.902 13.0888C243.609 13.0888 243.359 13.0402 243.153 12.9432C242.949 12.8461 242.783 12.7242 242.652 12.5774C242.522 12.4283 242.423 12.2779 242.354 12.1264H242.308V15.0455H240.795ZM242.276 10.2727C242.276 10.5971 242.321 10.88 242.411 11.1214C242.501 11.3629 242.631 11.5511 242.801 11.6861C242.972 11.8187 243.179 11.8849 243.423 11.8849C243.669 11.8849 243.877 11.8175 244.048 11.6825C244.218 11.5452 244.347 11.3558 244.435 11.1143C244.525 10.8705 244.57 10.59 244.57 10.2727C244.57 9.95786 244.526 9.68087 244.439 9.44176C244.351 9.20265 244.222 9.01562 244.051 8.88068C243.881 8.74574 243.672 8.67827 243.423 8.67827C243.177 8.67827 242.968 8.74337 242.798 8.87358C242.63 9.00379 242.501 9.18845 242.411 9.42756C242.321 9.66667 242.276 9.94839 242.276 10.2727ZM248.192 7.54545L249.194 9.45241L250.22 7.54545H251.772L250.191 10.2727L251.814 13H250.27L249.194 11.1143L248.135 13H246.573L248.192 10.2727L246.63 7.54545H248.192Z" fill="white"/>
<line x1="215" y1="2" x2="222" y2="2" stroke="#E8178A"/>
<line x1="215" y1="13" x2="222" y2="13" stroke="#E8178A"/>
<path d="M218.5 37.5V45.5" stroke="#E8178A"/>
<rect x="223" y="34" width="31" height="18" rx="3" fill="#E8178A"/>
<path d="M232.303 47.0994C231.756 47.0994 231.269 47.0107 230.843 46.8331C230.419 46.6532 230.087 46.4081 229.845 46.098C229.604 45.7879 229.483 45.4363 229.483 45.0433C229.483 44.7403 229.552 44.4621 229.689 44.2088C229.829 43.9531 230.018 43.7412 230.257 43.5732C230.496 43.4027 230.764 43.2938 231.06 43.2464V43.1967C230.671 43.1186 230.357 42.9304 230.115 42.6321C229.874 42.3314 229.753 41.9822 229.753 41.5845C229.753 41.2081 229.863 40.8731 230.083 40.5795C230.303 40.2836 230.605 40.0516 230.989 39.8835C231.375 39.7131 231.812 39.6278 232.303 39.6278C232.793 39.6278 233.229 39.7131 233.613 39.8835C233.999 40.054 234.302 40.2872 234.522 40.5831C234.742 40.8767 234.853 41.2105 234.856 41.5845C234.853 41.9846 234.73 42.3338 234.487 42.6321C234.243 42.9304 233.93 43.1186 233.549 43.1967V43.2464C233.84 43.2938 234.104 43.4027 234.341 43.5732C234.58 43.7412 234.769 43.9531 234.909 44.2088C235.051 44.4621 235.123 44.7403 235.126 45.0433C235.123 45.4363 235.001 45.7879 234.76 46.098C234.518 46.4081 234.185 46.6532 233.759 46.8331C233.335 47.0107 232.849 47.0994 232.303 47.0994ZM232.303 45.9702C232.546 45.9702 232.759 45.9264 232.942 45.8388C233.124 45.7488 233.266 45.6257 233.368 45.4695C233.472 45.3108 233.524 45.1286 233.524 44.9226C233.524 44.7119 233.471 44.526 233.364 44.3651C233.258 44.2017 233.113 44.0739 232.931 43.9815C232.749 43.8868 232.539 43.8395 232.303 43.8395C232.068 43.8395 231.859 43.8868 231.674 43.9815C231.489 44.0739 231.344 44.2017 231.237 44.3651C231.133 44.526 231.081 44.7119 231.081 44.9226C231.081 45.1286 231.132 45.3108 231.234 45.4695C231.335 45.6257 231.479 45.7488 231.663 45.8388C231.848 45.9264 232.061 45.9702 232.303 45.9702ZM232.303 42.7209C232.506 42.7209 232.687 42.6795 232.846 42.5966C233.004 42.5137 233.129 42.3989 233.219 42.2521C233.309 42.1054 233.354 41.9361 233.354 41.7443C233.354 41.5549 233.309 41.3892 233.219 41.2472C233.129 41.1027 233.006 40.9903 232.849 40.9098C232.693 40.8269 232.511 40.7855 232.303 40.7855C232.097 40.7855 231.914 40.8269 231.756 40.9098C231.597 40.9903 231.473 41.1027 231.383 41.2472C231.295 41.3892 231.251 41.5549 231.251 41.7443C231.251 41.9361 231.296 42.1054 231.386 42.2521C231.476 42.3989 231.601 42.5137 231.759 42.5966C231.918 42.6795 232.099 42.7209 232.303 42.7209ZM236.215 49.0455V41.5455H237.706V42.4616H237.774C237.84 42.3149 237.936 42.1657 238.062 42.0142C238.189 41.8603 238.355 41.7325 238.559 41.6307C238.765 41.5265 239.02 41.4744 239.326 41.4744C239.724 41.4744 240.09 41.5786 240.427 41.7869C240.763 41.9929 241.032 42.3042 241.233 42.7209C241.434 43.1352 241.535 43.6548 241.535 44.2798C241.535 44.8883 241.436 45.402 241.24 45.821C241.046 46.2377 240.781 46.5537 240.444 46.7692C240.111 46.9822 239.737 47.0888 239.322 47.0888C239.029 47.0888 238.779 47.0402 238.573 46.9432C238.369 46.8461 238.202 46.7242 238.072 46.5774C237.942 46.4283 237.843 46.2779 237.774 46.1264H237.728V49.0455H236.215ZM237.696 44.2727C237.696 44.5971 237.741 44.88 237.831 45.1214C237.921 45.3629 238.051 45.5511 238.221 45.6861C238.392 45.8187 238.599 45.8849 238.843 45.8849C239.089 45.8849 239.297 45.8175 239.468 45.6825C239.638 45.5452 239.767 45.3558 239.855 45.1143C239.945 44.8705 239.99 44.59 239.99 44.2727C239.99 43.9579 239.946 43.6809 239.858 43.4418C239.771 43.2027 239.642 43.0156 239.471 42.8807C239.301 42.7457 239.091 42.6783 238.843 42.6783C238.597 42.6783 238.388 42.7434 238.218 42.8736C238.05 43.0038 237.921 43.1884 237.831 43.4276C237.741 43.6667 237.696 43.9484 237.696 44.2727ZM243.612 41.5455L244.613 43.4524L245.64 41.5455H247.192L245.611 44.2727L247.234 47H245.689L244.613 45.1143L243.555 47H241.993L243.612 44.2727L242.05 41.5455H243.612Z" fill="white"/>
<line x1="215" y1="38" x2="222" y2="38" stroke="#E8178A"/>
<line x1="215" y1="45" x2="222" y2="45" stroke="#E8178A"/>
<path d="M218.5 77.5V89.5" stroke="#E8178A"/>
<rect x="223" y="76" width="36" height="18" rx="3" fill="#E8178A"/>
<path d="M232.754 81.7273V89H231.216V83.1868H231.173L229.508 84.2308V82.8672L231.308 81.7273H232.754ZM234.482 89V87.892L237.071 85.495C237.291 85.282 237.476 85.0902 237.625 84.9197C237.776 84.7493 237.891 84.5824 237.969 84.419C238.047 84.2533 238.086 84.0746 238.086 83.8828C238.086 83.6697 238.038 83.4863 237.941 83.3324C237.844 83.1761 237.711 83.0566 237.543 82.9737C237.375 82.8885 237.184 82.8459 236.971 82.8459C236.749 82.8459 236.555 82.8909 236.389 82.9808C236.223 83.0708 236.095 83.1998 236.006 83.3679C235.916 83.536 235.871 83.736 235.871 83.968H234.411C234.411 83.4922 234.519 83.0791 234.734 82.7287C234.95 82.3783 235.251 82.1072 235.64 81.9155C236.028 81.7237 236.475 81.6278 236.982 81.6278C237.503 81.6278 237.956 81.7202 238.342 81.9048C238.73 82.0871 239.032 82.3404 239.248 82.6648C239.463 82.9891 239.571 83.3608 239.571 83.7798C239.571 84.0545 239.516 84.3255 239.407 84.593C239.301 84.8606 239.11 85.1577 238.836 85.4844C238.561 85.8087 238.174 86.1982 237.675 86.6527L236.613 87.6932V87.7429H239.667V89H234.482ZM240.795 91.0455V83.5455H242.287V84.4616H242.354C242.42 84.3149 242.516 84.1657 242.642 84.0142C242.77 83.8603 242.935 83.7325 243.139 83.6307C243.345 83.5265 243.6 83.4744 243.906 83.4744C244.304 83.4744 244.671 83.5786 245.007 83.7869C245.343 83.9929 245.612 84.3042 245.813 84.7209C246.014 85.1352 246.115 85.6548 246.115 86.2798C246.115 86.8883 246.016 87.402 245.82 87.821C245.626 88.2377 245.361 88.5537 245.025 88.7692C244.691 88.9822 244.317 89.0888 243.902 89.0888C243.609 89.0888 243.359 89.0402 243.153 88.9432C242.949 88.8461 242.783 88.7242 242.652 88.5774C242.522 88.4283 242.423 88.2779 242.354 88.1264H242.308V91.0455H240.795ZM242.276 86.2727C242.276 86.5971 242.321 86.88 242.411 87.1214C242.501 87.3629 242.631 87.5511 242.801 87.6861C242.972 87.8187 243.179 87.8849 243.423 87.8849C243.669 87.8849 243.877 87.8175 244.048 87.6825C244.218 87.5452 244.347 87.3558 244.435 87.1143C244.525 86.8705 244.57 86.59 244.57 86.2727C244.57 85.9579 244.526 85.6809 244.439 85.4418C244.351 85.2027 244.222 85.0156 244.051 84.8807C243.881 84.7457 243.672 84.6783 243.423 84.6783C243.177 84.6783 242.968 84.7434 242.798 84.8736C242.63 85.0038 242.501 85.1884 242.411 85.4276C242.321 85.6667 242.276 85.9484 242.276 86.2727ZM248.192 83.5455L249.194 85.4524L250.22 83.5455H251.772L250.191 86.2727L251.814 89H250.27L249.194 87.1143L248.135 89H246.573L248.192 86.2727L246.63 83.5455H248.192Z" fill="white"/>
<line x1="215" y1="78" x2="222" y2="78" stroke="#E8178A"/>
<line x1="215" y1="89" x2="222" y2="89" stroke="#E8178A"/>
<path d="M190 106H202" stroke="#E8178A"/>
<rect x="178" y="110.5" width="36" height="18" rx="3" fill="#E8178A"/>
<path d="M187.754 116.227V123.5H186.216V117.687H186.173L184.508 118.731V117.367L186.308 116.227H187.754ZM189.482 123.5V122.392L192.071 119.995C192.291 119.782 192.476 119.59 192.625 119.42C192.776 119.249 192.891 119.082 192.969 118.919C193.047 118.753 193.086 118.575 193.086 118.383C193.086 118.17 193.038 117.986 192.941 117.832C192.844 117.676 192.711 117.557 192.543 117.474C192.375 117.388 192.184 117.346 191.971 117.346C191.749 117.346 191.555 117.391 191.389 117.481C191.223 117.571 191.095 117.7 191.006 117.868C190.916 118.036 190.871 118.236 190.871 118.468H189.411C189.411 117.992 189.519 117.579 189.734 117.229C189.95 116.878 190.251 116.607 190.64 116.415C191.028 116.224 191.475 116.128 191.982 116.128C192.503 116.128 192.956 116.22 193.342 116.405C193.73 116.587 194.032 116.84 194.248 117.165C194.463 117.489 194.571 117.861 194.571 118.28C194.571 118.554 194.516 118.826 194.407 119.093C194.301 119.361 194.11 119.658 193.836 119.984C193.561 120.309 193.174 120.698 192.675 121.153L191.613 122.193V122.243H194.667V123.5H189.482ZM195.795 125.545V118.045H197.287V118.962H197.354C197.42 118.815 197.516 118.666 197.642 118.514C197.77 118.36 197.935 118.232 198.139 118.131C198.345 118.027 198.6 117.974 198.906 117.974C199.304 117.974 199.671 118.079 200.007 118.287C200.343 118.493 200.612 118.804 200.813 119.221C201.014 119.635 201.115 120.155 201.115 120.78C201.115 121.388 201.016 121.902 200.82 122.321C200.626 122.738 200.361 123.054 200.025 123.269C199.691 123.482 199.317 123.589 198.902 123.589C198.609 123.589 198.359 123.54 198.153 123.443C197.949 123.346 197.783 123.224 197.652 123.077C197.522 122.928 197.423 122.778 197.354 122.626H197.308V125.545H195.795ZM197.276 120.773C197.276 121.097 197.321 121.38 197.411 121.621C197.501 121.863 197.631 122.051 197.801 122.186C197.972 122.319 198.179 122.385 198.423 122.385C198.669 122.385 198.877 122.317 199.048 122.183C199.218 122.045 199.347 121.856 199.435 121.614C199.525 121.371 199.57 121.09 199.57 120.773C199.57 120.458 199.526 120.181 199.439 119.942C199.351 119.703 199.222 119.516 199.051 119.381C198.881 119.246 198.672 119.178 198.423 119.178C198.177 119.178 197.968 119.243 197.798 119.374C197.63 119.504 197.501 119.688 197.411 119.928C197.321 120.167 197.276 120.448 197.276 120.773ZM203.192 118.045L204.194 119.952L205.22 118.045H206.772L205.191 120.773L206.814 123.5H205.27L204.194 121.614L203.135 123.5H201.573L203.192 120.773L201.63 118.045H203.192Z" fill="white"/>
<line x1="190.5" y1="109.5" x2="190.5" y2="102.5" stroke="#E8178A"/>
<line x1="201.5" y1="109.5" x2="201.5" y2="102.5" stroke="#E8178A"/>
<path d="M12 106H24" stroke="#E8178A"/>
<rect y="110.5" width="36" height="18" rx="3" fill="#E8178A"/>
<path d="M9.75355 116.227V123.5H8.21591V117.687H8.1733L6.50781 118.731V117.367L8.30824 116.227H9.75355ZM11.4821 123.5V122.392L14.0708 119.995C14.291 119.782 14.4757 119.59 14.6248 119.42C14.7763 119.249 14.8912 119.082 14.9693 118.919C15.0474 118.753 15.0865 118.575 15.0865 118.383C15.0865 118.17 15.0379 117.986 14.9409 117.832C14.8438 117.676 14.7112 117.557 14.5431 117.474C14.3751 117.388 14.1845 117.346 13.9714 117.346C13.7489 117.346 13.5547 117.391 13.389 117.481C13.2233 117.571 13.0955 117.7 13.0055 117.868C12.9155 118.036 12.8706 118.236 12.8706 118.468H11.411C11.411 117.992 11.5188 117.579 11.7342 117.229C11.9496 116.878 12.2515 116.607 12.6397 116.415C13.028 116.224 13.4754 116.128 13.9821 116.128C14.5029 116.128 14.9563 116.22 15.3422 116.405C15.7304 116.587 16.0323 116.84 16.2477 117.165C16.4631 117.489 16.5708 117.861 16.5708 118.28C16.5708 118.554 16.5164 118.826 16.4075 119.093C16.301 119.361 16.1104 119.658 15.8358 119.984C15.5611 120.309 15.1741 120.698 14.6745 121.153L13.6127 122.193V122.243H16.6667V123.5H11.4821ZM17.7951 125.545V118.045H19.2866V118.962H19.354C19.4203 118.815 19.5162 118.666 19.6417 118.514C19.7695 118.36 19.9353 118.232 20.1388 118.131C20.3448 118.027 20.6005 117.974 20.9059 117.974C21.3036 117.974 21.6706 118.079 22.0067 118.287C22.3429 118.493 22.6116 118.804 22.8129 119.221C23.0141 119.635 23.1147 120.155 23.1147 120.78C23.1147 121.388 23.0165 121.902 22.82 122.321C22.6258 122.738 22.3607 123.054 22.0245 123.269C21.6907 123.482 21.3166 123.589 20.9023 123.589C20.6088 123.589 20.359 123.54 20.1531 123.443C19.9495 123.346 19.7826 123.224 19.6523 123.077C19.5221 122.928 19.4227 122.778 19.354 122.626H19.3079V125.545H17.7951ZM19.2759 120.773C19.2759 121.097 19.3209 121.38 19.4109 121.621C19.5008 121.863 19.631 122.051 19.8015 122.186C19.9719 122.319 20.1791 122.385 20.4229 122.385C20.6692 122.385 20.8775 122.317 21.0479 122.183C21.2184 122.045 21.3474 121.856 21.435 121.614C21.525 121.371 21.57 121.09 21.57 120.773C21.57 120.458 21.5262 120.181 21.4386 119.942C21.351 119.703 21.2219 119.516 21.0515 119.381C20.881 119.246 20.6715 119.178 20.4229 119.178C20.1767 119.178 19.9684 119.243 19.7979 119.374C19.6299 119.504 19.5008 119.688 19.4109 119.928C19.3209 120.167 19.2759 120.448 19.2759 120.773ZM25.1921 118.045L26.1935 119.952L27.2198 118.045H28.7717L27.1914 120.773L28.8143 123.5H27.2695L26.1935 121.614L25.1353 123.5H23.5728L25.1921 120.773L23.6296 118.045H25.1921Z" fill="white"/>
<line x1="12.5" y1="109.5" x2="12.5" y2="102.5" stroke="#E8178A"/>
<line x1="23.5" y1="109.5" x2="23.5" y2="102.5" stroke="#E8178A"/>
</svg>
