<svg width="259" height="129" viewBox="0 0 259 129" fill="none" xmlns="http://www.w3.org/2000/svg"><path d="M12 4.5a3 3 0 0 1 3-3h184a3 3 0 0 1 3 3v82a3 3 0 0 1-3 3H15a3 3 0 0 1-3-3v-82Z" fill="#fff"/><path fill-rule="evenodd" clip-rule="evenodd" d="M28.288 29.212a5.25 5.25 0 1 0 7.424-7.424 5.25 5.25 0 0 0-7.424 7.424Zm7.955.53a6 6 0 1 1-8.485-8.484 6 6 0 0 1 8.485 8.485Zm-7.606-.893a4.715 4.715 0 0 1-.052-6.616l6.668 6.668a4.715 4.715 0 0 1-6.616-.052Z" fill="#344054"/><path d="M101.268 31.5V19.864h1.41V30.25h5.409v1.25h-6.819Zm11.387.204a3.548 3.548 0 0 1-1.506-.312 2.582 2.582 0 0 1-1.074-.915c-.265-.401-.397-.886-.397-1.454 0-.5.098-.906.295-1.216.197-.315.46-.56.79-.739a4.14 4.14 0 0 1 1.091-.398c.401-.09.805-.162 1.21-.216.53-.068.96-.119 1.29-.153.333-.038.575-.1.727-.187.155-.088.233-.239.233-.455v-.045c0-.561-.153-.997-.46-1.307-.303-.31-.764-.466-1.381-.466-.64 0-1.142.14-1.506.42-.363.28-.619.58-.767.898l-1.272-.454c.227-.53.53-.944.909-1.24a3.411 3.411 0 0 1 1.25-.624 5.184 5.184 0 0 1 1.341-.182c.28 0 .602.034.965.102.368.065.722.2 1.063.404.345.204.631.513.858.926.227.413.341.966.341 1.659v5.75h-1.341v-1.182h-.068a2.36 2.36 0 0 1-.455.608c-.212.216-.494.4-.846.551-.353.152-.783.227-1.29.227Zm.204-1.204c.531 0 .978-.104 1.341-.313a2.128 2.128 0 0 0 1.114-1.846v-1.227c-.057.068-.182.13-.375.187a6.29 6.29 0 0 1-.659.142 29.629 29.629 0 0 1-1.284.17 5.13 5.13 0 0 0-.978.222 1.687 1.687 0 0 0-.727.45c-.182.196-.273.465-.273.806 0 .466.173.818.518 1.057.348.235.789.352 1.323.352Zm6.425 1V19.864h1.341v4.295h.114c.098-.151.234-.345.409-.58.178-.238.432-.45.761-.636.333-.19.784-.284 1.352-.284.735 0 1.383.184 1.944.551.56.368.998.889 1.312 1.563.314.674.472 1.47.472 2.386 0 .924-.158 1.726-.472 2.404-.314.674-.75 1.197-1.307 1.568-.557.367-1.199.55-1.926.55-.561 0-1.009-.092-1.346-.278-.338-.189-.597-.403-.779-.642a8.362 8.362 0 0 1-.42-.602h-.159V31.5h-1.296Zm1.318-4.364c0 .66.097 1.24.29 1.745.193.5.475.892.847 1.176.371.28.825.42 1.363.42.561 0 1.029-.148 1.404-.443.378-.3.663-.7.852-1.204a4.73 4.73 0 0 0 .29-1.694 4.6 4.6 0 0 0-.284-1.659c-.186-.496-.468-.888-.847-1.176-.375-.291-.847-.437-1.415-.437-.545 0-1.004.138-1.375.414-.371.273-.651.656-.841 1.148-.189.489-.284 1.059-.284 1.71Zm9.779-7.272V31.5h-1.341V19.864h1.341Zm6.115 11.818c-.841 0-1.567-.186-2.176-.557a3.742 3.742 0 0 1-1.404-1.568c-.326-.674-.488-1.458-.488-2.352 0-.894.162-1.682.488-2.364.33-.686.788-1.22 1.375-1.602.591-.387 1.28-.58 2.068-.58.455 0 .904.076 1.347.227.443.152.847.398 1.21.739.364.337.654.784.87 1.34.215.558.323 1.243.323 2.058v.568h-6.727v-1.16h5.364c0-.492-.099-.931-.296-1.317a2.223 2.223 0 0 0-.829-.915c-.356-.224-.777-.335-1.262-.335-.534 0-.996.132-1.386.397a2.615 2.615 0 0 0-.892 1.023 3.01 3.01 0 0 0-.313 1.352v.773c0 .66.114 1.218.341 1.676.231.455.552.801.961 1.04.409.235.884.352 1.426.352.352 0 .67-.049.954-.148.288-.102.536-.253.745-.454.208-.204.369-.458.483-.761l1.295.363c-.136.44-.366.826-.687 1.16a3.35 3.35 0 0 1-1.194.772 4.42 4.42 0 0 1-1.596.273Zm13.699 0c-.788 0-1.48-.188-2.074-.563-.591-.375-1.053-.9-1.387-1.573-.329-.675-.494-1.463-.494-2.364 0-.91.165-1.703.494-2.38.334-.679.796-1.205 1.387-1.58.594-.375 1.286-.563 2.074-.563.787 0 1.477.188 2.068.563.594.375 1.057.901 1.386 1.58.333.677.5 1.47.5 2.38 0 .901-.167 1.69-.5 2.364a3.77 3.77 0 0 1-1.386 1.573c-.591.375-1.281.563-2.068.563Zm0-1.205c.598 0 1.091-.153 1.477-.46a2.72 2.72 0 0 0 .858-1.21c.185-.5.278-1.042.278-1.625s-.093-1.127-.278-1.63a2.755 2.755 0 0 0-.858-1.223c-.386-.31-.879-.465-1.477-.465-.599 0-1.091.155-1.478.465a2.757 2.757 0 0 0-.858 1.222 4.695 4.695 0 0 0-.278 1.63c0 .584.093 1.126.278 1.626.186.5.472.903.858 1.21.387.307.879.46 1.478.46Zm9.887-7.704v1.136h-4.704v-1.136h4.704Zm-3.295 8.727v-9.932c0-.5.117-.917.352-1.25a2.19 2.19 0 0 1 .915-.75 2.89 2.89 0 0 1 1.187-.25c.33 0 .599.027.807.08.209.053.364.102.466.148l-.386 1.159a6.673 6.673 0 0 0-.284-.086 1.727 1.727 0 0 0-.466-.05c-.443 0-.763.11-.96.334-.194.224-.29.552-.29.983V31.5h-1.341Zm13.47-8.727v1.136h-4.523v-1.136h4.523Zm-3.204-2.091h1.34V29c0 .379.055.663.165.852.114.186.258.31.432.375.178.06.366.091.563.091.147 0 .268-.007.363-.023l.227-.045.273 1.204a2.753 2.753 0 0 1-.38.103c-.163.038-.37.057-.62.057-.379 0-.75-.082-1.113-.245a2.208 2.208 0 0 1-.898-.744c-.235-.333-.352-.754-.352-1.261v-8.682Zm7.789 11.023a3.54 3.54 0 0 1-1.505-.313 2.582 2.582 0 0 1-1.074-.915c-.265-.401-.398-.886-.398-1.454 0-.5.099-.906.296-1.216.196-.315.46-.56.789-.739.33-.178.693-.31 1.091-.398.402-.09.805-.162 1.21-.216.531-.068.961-.119 1.29-.153.334-.038.576-.1.727-.187.156-.088.233-.239.233-.455v-.045c0-.561-.153-.997-.46-1.307-.303-.31-.763-.466-1.38-.466-.641 0-1.143.14-1.506.42-.364.28-.619.58-.767.898l-1.273-.454c.227-.53.53-.944.909-1.24a3.419 3.419 0 0 1 1.25-.624 5.196 5.196 0 0 1 1.341-.182c.28 0 .602.034.966.102.367.065.722.2 1.062.404.345.204.631.513.858.926.228.413.341.966.341 1.659v5.75h-1.341v-1.182h-.068c-.091.19-.242.392-.454.608-.212.216-.495.4-.847.551-.352.152-.782.227-1.29.227Zm.205-1.205c.53 0 .977-.104 1.341-.313a2.124 2.124 0 0 0 1.113-1.846v-1.227c-.056.068-.181.13-.375.187a6.29 6.29 0 0 1-.659.142 29.56 29.56 0 0 1-1.284.17 5.19 5.19 0 0 0-.977.222 1.681 1.681 0 0 0-.727.45c-.182.196-.273.465-.273.806 0 .466.172.818.517 1.057.348.235.79.352 1.324.352Zm6.425 1V19.864h1.34v4.295h.114c.099-.151.235-.345.409-.58.178-.238.432-.45.762-.636.333-.19.784-.284 1.352-.284.735 0 1.382.184 1.943.551.561.368.998.889 1.313 1.563.314.674.471 1.47.471 2.386 0 .924-.157 1.726-.471 2.404-.315.674-.75 1.197-1.307 1.568-.557.367-1.199.55-1.926.55-.561 0-1.01-.092-1.347-.278-.337-.189-.597-.403-.778-.642a8.77 8.77 0 0 1-.421-.602h-.159V31.5h-1.295Zm1.318-4.364c0 .66.096 1.24.29 1.745.193.5.475.892.846 1.176.371.28.826.42 1.364.42.56 0 1.028-.148 1.403-.443.379-.3.663-.7.852-1.204.194-.508.29-1.072.29-1.694 0-.613-.094-1.166-.284-1.659-.185-.496-.468-.888-.846-1.176-.375-.291-.847-.437-1.415-.437-.546 0-1.004.138-1.375.414-.371.273-.652.656-.841 1.148-.19.489-.284 1.059-.284 1.71Zm-7.85 28.569c.478.003.955.094 1.432.272.477.178.913.474 1.307.887.394.409.71.967.949 1.676.238.708.358 1.596.358 2.665 0 1.034-.099 1.952-.296 2.755-.193.8-.473 1.474-.841 2.023-.363.55-.806.966-1.329 1.25-.519.284-1.106.426-1.761.426-.652 0-1.233-.129-1.745-.386a3.43 3.43 0 0 1-1.25-1.085 3.78 3.78 0 0 1-.619-1.62h1.386c.125.534.373.976.745 1.324.375.345.869.517 1.483.517.897 0 1.606-.392 2.125-1.176.522-.784.784-1.892.784-3.324h-.091a3.559 3.559 0 0 1-.756.824 3.337 3.337 0 0 1-2.108.722 3.535 3.535 0 0 1-1.835-.495 3.757 3.757 0 0 1-1.33-1.37c-.329-.582-.494-1.25-.494-2 0-.711.159-1.363.477-1.954a3.69 3.69 0 0 1 1.353-1.42c.583-.352 1.268-.523 2.056-.511Zm0 1.25a2.38 2.38 0 0 0-1.289.358c-.379.234-.68.552-.904.954-.22.398-.329.84-.329 1.324 0 .485.106.926.318 1.324.216.394.509.708.88.943a2.39 2.39 0 0 0 1.279.347c.36 0 .695-.07 1.006-.21a2.61 2.61 0 0 0 .812-.586c.235-.25.419-.532.551-.846a2.61 2.61 0 0 0-.13-2.273 2.621 2.621 0 0 0-.898-.966 2.326 2.326 0 0 0-1.296-.37Zm9.985-1.25c.477.003.954.094 1.432.272a3.49 3.49 0 0 1 1.306.887c.394.409.711.967.949 1.676.239.708.358 1.596.358 2.665 0 1.034-.098 1.952-.295 2.755-.193.8-.474 1.474-.841 2.023-.364.55-.807.966-1.33 1.25-.519.284-1.106.426-1.761.426-.652 0-1.233-.129-1.744-.386a3.414 3.414 0 0 1-1.25-1.085 3.78 3.78 0 0 1-.62-1.62h1.387c.125.534.373.976.744 1.324.375.345.869.517 1.483.517.898 0 1.606-.392 2.125-1.176.523-.784.784-1.892.784-3.324h-.091a3.559 3.559 0 0 1-.756.824 3.319 3.319 0 0 1-.971.534 3.407 3.407 0 0 1-1.137.188 3.538 3.538 0 0 1-1.835-.495 3.746 3.746 0 0 1-1.329-1.37c-.33-.582-.495-1.25-.495-2 0-.711.159-1.363.478-1.954a3.688 3.688 0 0 1 1.352-1.42c.583-.352 1.269-.523 2.057-.511Zm0 1.25c-.478 0-.907.119-1.29.358-.379.234-.68.552-.903.954-.22.398-.33.84-.33 1.324 0 .485.106.926.318 1.324.216.394.51.708.881.943.375.231.801.347 1.278.347.36 0 .695-.07 1.006-.21a2.62 2.62 0 0 0 .812-.586c.235-.25.419-.532.552-.846a2.57 2.57 0 0 0 .198-.995 2.6 2.6 0 0 0-.329-1.278 2.613 2.613 0 0 0-.898-.966 2.323 2.323 0 0 0-1.295-.37Z" fill="#344054"/><path d="M15 2.5h184v-2H15v2Zm186 2v82h2v-82h-2Zm-2 84H15v2h184v-2Zm-186-2v-82h-2v82h2Zm2 2a2 2 0 0 1-2-2h-2a4 4 0 0 0 4 4v-2Zm186-2a2 2 0 0 1-2 2v2a4 4 0 0 0 4-4h-2Zm-2-84a2 2 0 0 1 2 2h2a4 4 0 0 0-4-4v2ZM15 .5a4 4 0 0 0-4 4h2a2 2 0 0 1 2-2v-2Z" fill="#98A2B3"/><path fill="#E8178A" fill-opacity=".24" d="M12 1.5h12v88H12z"/><path fill="#E8178A" fill-opacity=".24" d="M12 1.5h190v12H12zm0 36h190v8H12zm0 40h190v12H12z"/><path fill="#E8178A" fill-opacity=".24" d="M190 1.5h12v88h-12z"/><path d="M218.5 1.5v12" stroke="#E8178A"/><rect x="223" width="36" height="18" rx="3" fill="#E8178A"/><path d="M232.754 5.727V13h-1.538V7.187h-.043l-1.665 1.044V6.867l1.8-1.14h1.446ZM234.482 13v-1.108l2.589-2.397c.22-.213.405-.405.554-.575.151-.17.266-.338.344-.501.078-.166.117-.344.117-.536a1.01 1.01 0 0 0-.145-.55.957.957 0 0 0-.398-.36 1.248 1.248 0 0 0-.572-.127c-.222 0-.416.045-.582.135a.922.922 0 0 0-.383.387c-.09.168-.135.368-.135.6h-1.46c0-.476.108-.889.323-1.24.216-.35.517-.62.906-.813.388-.191.835-.287 1.342-.287.521 0 .974.092 1.36.277.388.182.69.435.906.76.215.324.323.696.323 1.115 0 .274-.055.546-.164.813-.106.268-.297.565-.571.891-.275.325-.662.714-1.161 1.169l-1.062 1.04v.05h3.054V13h-5.185Zm6.313 2.046v-7.5h1.492v.916h.067c.066-.147.162-.296.288-.448a1.5 1.5 0 0 1 .497-.383c.206-.104.461-.157.767-.157.398 0 .765.105 1.101.313.336.206.605.517.806.934.201.414.302.934.302 1.559 0 .608-.099 1.122-.295 1.541-.194.417-.459.733-.795.948-.334.213-.708.32-1.123.32a1.75 1.75 0 0 1-.749-.146 1.556 1.556 0 0 1-.501-.366c-.13-.149-.229-.3-.298-.45h-.046v2.918h-1.513Zm1.481-4.773c0 .324.045.607.135.848.09.242.22.43.39.565a.984.984 0 0 0 .622.199.977.977 0 0 0 .625-.203c.17-.137.299-.326.387-.568a2.42 2.42 0 0 0 .135-.841c0-.315-.044-.592-.131-.831a1.238 1.238 0 0 0-.388-.561.978.978 0 0 0-.628-.203.999.999 0 0 0-.625.196 1.22 1.22 0 0 0-.387.554c-.09.239-.135.52-.135.845Zm5.916-2.728 1.002 1.907 1.026-1.907h1.552l-1.581 2.728L251.814 13h-1.544l-1.076-1.886L248.135 13h-1.562l1.619-2.727-1.562-2.728h1.562Z" fill="#fff"/><path stroke="#E8178A" d="M215 2h7m-7 11h7m-3.5 24.5v8"/><rect x="223" y="34" width="31" height="18" rx="3" fill="#E8178A"/><path d="M232.303 47.1c-.547 0-1.034-.09-1.46-.267-.424-.18-.756-.425-.998-.735a1.674 1.674 0 0 1-.362-1.055c0-.303.069-.58.206-.834.14-.256.329-.468.568-.636.239-.17.507-.28.803-.327v-.05a1.577 1.577 0 0 1-.945-.564c-.241-.3-.362-.65-.362-1.047 0-.377.11-.712.33-1.005.22-.296.522-.528.906-.697a3.22 3.22 0 0 1 1.314-.255c.49 0 .926.085 1.31.255.386.171.689.404.909.7.22.294.331.628.334 1.002-.003.4-.126.749-.369 1.047a1.59 1.59 0 0 1-.938.565v.05c.291.047.555.156.792.326.239.168.428.38.568.636a1.713 1.713 0 0 1-.149 1.889c-.242.31-.575.555-1.001.735-.424.178-.91.266-1.456.266Zm0-1.13c.243 0 .456-.044.639-.131.182-.09.324-.213.426-.37a.975.975 0 0 0 .156-.546.983.983 0 0 0-.16-.558 1.097 1.097 0 0 0-.433-.384 1.343 1.343 0 0 0-.628-.142c-.235 0-.444.048-.629.142-.185.093-.33.22-.437.384a1.006 1.006 0 0 0-.156.558c0 .206.051.388.153.546.101.157.245.28.429.37.185.087.398.131.64.131Zm0-3.25c.203 0 .384-.04.543-.123a.94.94 0 0 0 .373-.345.951.951 0 0 0 .135-.508.909.909 0 0 0-.505-.834 1.147 1.147 0 0 0-.546-.124c-.206 0-.389.04-.547.124a.917.917 0 0 0-.373.337.924.924 0 0 0-.132.497c0 .192.045.361.135.508a.94.94 0 0 0 .373.345c.159.082.34.124.544.124Zm3.912 6.325v-7.5h1.491v.917h.068c.066-.147.162-.296.288-.448a1.49 1.49 0 0 1 .497-.383c.206-.105.461-.157.767-.157.398 0 .764.105 1.101.313.336.206.605.517.806.934.201.414.302.934.302 1.559 0 .608-.099 1.122-.295 1.541-.194.417-.459.733-.796.948-.333.213-.707.32-1.122.32a1.75 1.75 0 0 1-.749-.146 1.545 1.545 0 0 1-.501-.366c-.13-.149-.229-.3-.298-.45h-.046v2.918h-1.513Zm1.481-4.772c0 .324.045.607.135.848.09.242.22.43.39.565a.984.984 0 0 0 .622.199.977.977 0 0 0 .625-.203c.17-.137.299-.326.387-.568.09-.243.135-.524.135-.841a2.4 2.4 0 0 0-.132-.831 1.229 1.229 0 0 0-.387-.561.98.98 0 0 0-.628-.203.999.999 0 0 0-.625.196 1.22 1.22 0 0 0-.387.554c-.09.239-.135.52-.135.845Zm5.916-2.728 1.001 1.907 1.027-1.907h1.552l-1.581 2.728L247.234 47h-1.545l-1.076-1.886L243.555 47h-1.562l1.619-2.727-1.562-2.728h1.562Z" fill="#fff"/><path stroke="#E8178A" d="M215 38h7m-7 7h7m-3.5 32.5v12"/><rect x="223" y="76" width="36" height="18" rx="3" fill="#E8178A"/><path d="M232.754 81.727V89h-1.538v-5.813h-.043l-1.665 1.044v-1.364l1.8-1.14h1.446ZM234.482 89v-1.108l2.589-2.397c.22-.213.405-.405.554-.575.151-.17.266-.338.344-.501.078-.166.117-.344.117-.536a1.01 1.01 0 0 0-.145-.55.957.957 0 0 0-.398-.36 1.248 1.248 0 0 0-.572-.127c-.222 0-.416.045-.582.135a.922.922 0 0 0-.383.387c-.09.168-.135.368-.135.6h-1.46c0-.476.108-.889.323-1.24.216-.35.517-.62.906-.813.388-.191.835-.287 1.342-.287.521 0 .974.092 1.36.277.388.182.69.435.906.76.215.324.323.696.323 1.115 0 .275-.055.546-.164.813-.106.268-.297.565-.571.891-.275.325-.662.714-1.161 1.169l-1.062 1.04v.05h3.054V89h-5.185Zm6.313 2.046v-7.5h1.492v.916h.067c.066-.147.162-.296.288-.448.128-.154.293-.281.497-.383.206-.105.461-.157.767-.157.398 0 .765.105 1.101.313.336.206.605.517.806.934.201.414.302.934.302 1.559 0 .608-.099 1.122-.295 1.541-.194.417-.459.733-.795.948-.334.213-.708.32-1.123.32a1.75 1.75 0 0 1-.749-.146 1.556 1.556 0 0 1-.501-.366c-.13-.149-.229-.3-.298-.45h-.046v2.919h-1.513Zm1.481-4.773c0 .324.045.607.135.848.09.242.22.43.39.565a.984.984 0 0 0 .622.199.977.977 0 0 0 .625-.203c.17-.137.299-.326.387-.568.09-.243.135-.524.135-.841 0-.315-.044-.592-.131-.831a1.238 1.238 0 0 0-.388-.561.977.977 0 0 0-.628-.203.999.999 0 0 0-.625.196 1.22 1.22 0 0 0-.387.554c-.09.239-.135.52-.135.845Zm5.916-2.727 1.002 1.906 1.026-1.906h1.552l-1.581 2.727L251.814 89h-1.544l-1.076-1.886L248.135 89h-1.562l1.619-2.727-1.562-2.727h1.562Z" fill="#fff"/><path stroke="#E8178A" d="M215 78h7m-7 11h7m-32 17h12"/><rect x="178" y="110.5" width="36" height="18" rx="3" fill="#E8178A"/><path d="M187.754 116.227v7.273h-1.538v-5.813h-.043l-1.665 1.044v-1.364l1.8-1.14h1.446Zm1.728 7.273v-1.108l2.589-2.397c.22-.213.405-.405.554-.575.151-.171.266-.338.344-.501.078-.166.117-.344.117-.536a.958.958 0 0 0-.543-.909 1.238 1.238 0 0 0-.572-.128c-.222 0-.416.045-.582.135a.922.922 0 0 0-.383.387c-.09.168-.135.368-.135.6h-1.46c0-.476.108-.889.323-1.239.216-.351.517-.622.906-.814.388-.191.835-.287 1.342-.287.521 0 .974.092 1.36.277.388.182.69.435.906.76.215.324.323.696.323 1.115 0 .274-.055.546-.164.813-.106.268-.297.565-.571.891-.275.325-.662.714-1.161 1.169l-1.062 1.04v.05h3.054v1.257h-5.185Zm6.313 2.045v-7.5h1.492v.917h.067c.066-.147.162-.296.288-.448a1.5 1.5 0 0 1 .497-.383c.206-.104.461-.157.767-.157.398 0 .765.105 1.101.313.336.206.605.517.806.934.201.414.302.934.302 1.559 0 .608-.099 1.122-.295 1.541-.194.417-.459.733-.795.948-.334.213-.708.32-1.123.32-.293 0-.543-.049-.749-.146a1.552 1.552 0 0 1-.501-.366 1.86 1.86 0 0 1-.298-.451h-.046v2.919h-1.513Zm1.481-4.772c0 .324.045.607.135.848.09.242.22.43.39.565a.982.982 0 0 0 .622.199.982.982 0 0 0 .625-.202c.17-.138.299-.327.387-.569.09-.243.135-.524.135-.841 0-.315-.044-.592-.131-.831a1.239 1.239 0 0 0-.388-.561.978.978 0 0 0-.628-.203.994.994 0 0 0-.625.196 1.22 1.22 0 0 0-.387.554c-.09.239-.135.52-.135.845Zm5.916-2.728 1.002 1.907 1.026-1.907h1.552l-1.581 2.728 1.623 2.727h-1.544l-1.076-1.886-1.059 1.886h-1.562l1.619-2.727-1.562-2.728h1.562Z" fill="#fff"/><path stroke="#E8178A" d="M190.5 109.5v-7m11 7v-7M12 106h12"/><rect y="110.5" width="36" height="18" rx="3" fill="#E8178A"/><path d="M9.754 116.227v7.273H8.216v-5.813h-.043l-1.665 1.044v-1.364l1.8-1.14h1.446Zm1.728 7.273v-1.108l2.589-2.397c.22-.213.405-.405.554-.575.151-.171.266-.338.344-.501.078-.166.117-.344.117-.536 0-.213-.048-.397-.145-.551a.957.957 0 0 0-.398-.358 1.236 1.236 0 0 0-.572-.128c-.222 0-.416.045-.582.135a.93.93 0 0 0-.383.387c-.09.168-.135.368-.135.6h-1.46c0-.476.108-.889.323-1.239.216-.351.518-.622.906-.814.388-.191.835-.287 1.342-.287.52 0 .974.092 1.36.277.388.182.69.435.906.76.215.324.323.696.323 1.115 0 .274-.055.546-.164.813-.106.268-.297.565-.571.891-.275.325-.662.714-1.162 1.169l-1.061 1.04v.05h3.054v1.257h-5.185Zm6.313 2.045v-7.5h1.492v.917h.067a2.01 2.01 0 0 1 .288-.448 1.5 1.5 0 0 1 .497-.383c.206-.104.462-.157.767-.157.398 0 .765.105 1.1.313.337.206.606.517.807.934.201.414.302.934.302 1.559 0 .608-.098 1.122-.295 1.541-.194.417-.46.733-.796.948-.333.213-.707.32-1.122.32-.293 0-.543-.049-.749-.146a1.548 1.548 0 0 1-.5-.366 1.847 1.847 0 0 1-.299-.451h-.046v2.919h-1.513Zm1.48-4.772c0 .324.046.607.136.848.09.242.22.43.39.565a.98.98 0 0 0 .622.199.98.98 0 0 0 .625-.202c.17-.138.3-.327.387-.569.09-.243.135-.524.135-.841a2.41 2.41 0 0 0-.131-.831 1.239 1.239 0 0 0-.387-.561.981.981 0 0 0-.63-.203.995.995 0 0 0-.624.196 1.22 1.22 0 0 0-.387.554c-.09.239-.135.52-.135.845Zm5.917-2.728 1.002 1.907 1.026-1.907h1.552l-1.58 2.728 1.622 2.727H27.27l-1.076-1.886-1.059 1.886h-1.562l1.62-2.727-1.563-2.728h1.562Z" fill="#fff"/><path stroke="#E8178A" d="M12.5 109.5v-7m11 7v-7"/></svg>