<svg width="120" height="45" viewBox="0 0 120 45" fill="none" xmlns="http://www.w3.org/2000/svg"><path d="M.568 12.392v-2.028h9.557v2.028H6.562V22H4.131v-9.608H.568Zm12.386 9.773c-.556 0-1.053-.097-1.488-.29a2.397 2.397 0 0 1-1.034-.87c-.25-.386-.375-.867-.375-1.442 0-.485.089-.892.267-1.222.178-.33.42-.595.727-.796.307-.2.655-.352 1.046-.454a7.969 7.969 0 0 1 1.238-.216 31.4 31.4 0 0 0 1.227-.148c.311-.049.537-.12.677-.216a.475.475 0 0 0 .21-.42v-.034c0-.36-.114-.638-.341-.835-.224-.197-.542-.296-.955-.296-.435 0-.782.097-1.04.29-.257.19-.427.428-.51.716l-2.24-.182a3.05 3.05 0 0 1 .671-1.375c.333-.39.763-.69 1.29-.898.53-.212 1.144-.318 1.84-.318.486 0 .95.057 1.393.17.447.114.843.29 1.187.529.349.239.623.545.824.92.2.372.301.817.301 1.336V22h-2.295v-1.21h-.068a2.45 2.45 0 0 1-.563.721 2.605 2.605 0 0 1-.846.483c-.33.114-.71.17-1.143.17Zm.694-1.67c.356 0 .67-.07.943-.21a1.67 1.67 0 0 0 .642-.58c.155-.243.233-.517.233-.824v-.927a1.28 1.28 0 0 1-.313.137 5.692 5.692 0 0 1-.437.108c-.163.03-.326.059-.489.085l-.443.063a2.991 2.991 0 0 0-.744.198 1.19 1.19 0 0 0-.494.37.9.9 0 0 0-.177.568c0 .33.12.581.358.756.243.17.55.255.92.255ZM19.793 22V10.364h2.42v4.375h.074c.106-.235.26-.474.46-.716.205-.246.47-.451.796-.614.33-.167.738-.25 1.227-.25a3.28 3.28 0 0 1 1.761.5c.538.33.968.828 1.29 1.494.322.663.483 1.495.483 2.495 0 .973-.157 1.795-.472 2.466-.31.666-.735 1.172-1.272 1.517a3.267 3.267 0 0 1-1.796.511c-.47 0-.87-.078-1.199-.233a2.48 2.48 0 0 1-.8-.585 2.976 2.976 0 0 1-.478-.722h-.108V22h-2.386Zm2.369-4.364c0 .52.072.972.216 1.358.144.387.352.688.625.904.273.212.604.318.994.318.394 0 .727-.108 1-.324.273-.22.48-.523.62-.909.143-.39.215-.84.215-1.347 0-.503-.07-.947-.21-1.33-.14-.382-.346-.681-.62-.897-.272-.216-.607-.324-1.005-.324-.394 0-.727.104-1 .313-.269.208-.475.504-.62.886-.143.383-.215.833-.215 1.352ZM33.622 22v-8.727h2.42V22h-2.42Zm1.216-9.852c-.36 0-.669-.12-.926-.358a1.16 1.16 0 0 1-.38-.87c0-.333.126-.619.38-.857.258-.243.566-.364.926-.364.36 0 .667.121.92.364.258.238.387.524.387.857 0 .338-.129.627-.387.87-.253.238-.56.358-.92.358Zm7.786 1.125v1.818h-5.256v-1.818h5.256Zm-4.063-2.091h2.42v8.136c0 .224.035.398.103.523a.564.564 0 0 0 .284.256c.125.049.269.073.432.073.113 0 .227-.009.34-.028l.262-.051.38 1.801a6.777 6.777 0 0 1-.51.13 4.09 4.09 0 0 1-.802.097c-.583.023-1.094-.055-1.534-.233a2.142 2.142 0 0 1-1.017-.83c-.242-.374-.362-.848-.358-1.42v-8.454Zm9.523 10.989c-.898 0-1.67-.182-2.318-.546a3.736 3.736 0 0 1-1.489-1.557c-.349-.674-.523-1.471-.523-2.392 0-.898.175-1.685.523-2.363a3.864 3.864 0 0 1 1.472-1.586c.636-.379 1.382-.568 2.238-.568.576 0 1.112.093 1.608.278.5.182.936.457 1.307.824.375.368.667.83.875 1.387.208.553.313 1.2.313 1.943v.665h-7.37v-1.5h5.091c0-.349-.076-.657-.227-.927a1.627 1.627 0 0 0-.63-.63 1.798 1.798 0 0 0-.927-.233c-.367 0-.693.085-.977.256a1.8 1.8 0 0 0-.66.676c-.159.28-.24.593-.244.937v1.426c0 .432.08.805.239 1.12.163.314.392.556.687.727.296.17.646.256 1.052.256.268 0 .515-.038.738-.114a1.55 1.55 0 0 0 .574-.34c.16-.152.28-.338.364-.558l2.238.148a3.057 3.057 0 0 1-.698 1.41c-.349.397-.8.707-1.353.93-.549.22-1.184.33-1.903.33ZM53.669 22v-8.727h2.307v1.54h.102a2.42 2.42 0 0 1 .91-1.21c.423-.296.931-.444 1.522-.444.598 0 1.108.15 1.528.449.42.295.701.697.841 1.204h.091c.178-.5.5-.9.966-1.198.47-.303 1.025-.455 1.665-.455.814 0 1.475.26 1.983.778.511.516.767 1.247.767 2.194V22h-2.415v-5.392c0-.485-.129-.849-.386-1.091a1.358 1.358 0 0 0-.966-.364c-.44 0-.782.14-1.029.42-.246.277-.369.643-.369 1.098V22H58.84v-5.443c0-.428-.124-.77-.37-1.023-.242-.254-.562-.38-.96-.38-.269 0-.511.068-.727.204-.212.133-.381.32-.506.563a1.788 1.788 0 0 0-.188.84V22h-2.42Z" fill="#344054"/><path fill="#0F71BB" d="M0 40h68v2H0z"/><path fill="#E8178A" fill-opacity=".24" d="M0 32h68v8H0z"/><path d="M84.5 32v8" stroke="#E8178A"/><rect x="89" y="27" width="31" height="18" rx="3" fill="#E8178A"/><path d="M98.303 40.1c-.547 0-1.034-.09-1.46-.267-.424-.18-.756-.425-.998-.735a1.671 1.671 0 0 1-.362-1.055c0-.303.069-.58.206-.834.14-.256.329-.468.568-.636.24-.17.507-.28.803-.327v-.05a1.576 1.576 0 0 1-.945-.564c-.241-.3-.362-.65-.362-1.047 0-.377.11-.712.33-1.005a2.2 2.2 0 0 1 .906-.697c.385-.17.823-.255 1.314-.255.49 0 .926.085 1.31.255.386.171.689.404.909.7.22.294.331.628.334 1.002-.003.4-.126.749-.369 1.047a1.589 1.589 0 0 1-.938.565v.05c.291.047.555.156.792.326.239.168.428.38.568.636a1.713 1.713 0 0 1-.149 1.889c-.242.31-.575.555-1.002.735-.423.178-.909.266-1.455.266Zm0-1.13c.243 0 .457-.044.639-.131a1.05 1.05 0 0 0 .426-.37.973.973 0 0 0 .156-.546.986.986 0 0 0-.16-.558 1.098 1.098 0 0 0-.433-.384 1.344 1.344 0 0 0-.628-.142c-.235 0-.444.048-.629.142-.185.093-.33.22-.437.384a1.006 1.006 0 0 0-.156.558.976.976 0 0 0 .583.916c.184.087.397.131.639.131Zm0-3.25c.203 0 .384-.04.543-.123a.936.936 0 0 0 .373-.345.952.952 0 0 0 .135-.508.91.91 0 0 0-.505-.834 1.15 1.15 0 0 0-.546-.124c-.206 0-.389.04-.547.124a.92.92 0 0 0-.373.337.927.927 0 0 0-.132.497c0 .192.045.361.135.508.09.147.215.262.373.345.159.082.34.124.544.124Zm3.912 6.325v-7.5h1.491v.917h.068c.066-.147.162-.296.288-.448a1.49 1.49 0 0 1 .497-.383c.206-.105.461-.157.767-.157.398 0 .764.105 1.101.313.336.206.605.517.806.934.201.414.302.934.302 1.559 0 .608-.099 1.122-.295 1.541-.194.417-.459.733-.796.948-.333.213-.707.32-1.122.32a1.75 1.75 0 0 1-.749-.146 1.545 1.545 0 0 1-.501-.366c-.13-.149-.229-.3-.298-.45h-.046v2.918h-1.513Zm1.481-4.772c0 .324.045.607.135.848.09.242.22.43.39.565a.984.984 0 0 0 .622.199.977.977 0 0 0 .625-.203c.17-.137.299-.326.387-.568.09-.243.135-.524.135-.841a2.4 2.4 0 0 0-.132-.831 1.229 1.229 0 0 0-.387-.561.98.98 0 0 0-.628-.203.999.999 0 0 0-.625.196 1.22 1.22 0 0 0-.387.554c-.09.239-.135.52-.135.845Zm5.916-2.728 1.001 1.907 1.027-1.907h1.552l-1.581 2.728L113.234 40h-1.545l-1.076-1.886L109.555 40h-1.562l1.619-2.727-1.562-2.728h1.562Z" fill="#fff"/><path stroke="#E8178A" d="M81 32.5h7m-7 7h7"/></svg>