<svg width="527" height="162" viewBox="0 0 527 162" fill="none" xmlns="http://www.w3.org/2000/svg">
<path d="M55 5C55 2.79086 56.7909 1 59 1H481C483.209 1 485 2.79086 485 5V157C485 159.209 483.209 161 481 161H59C56.7909 161 55 159.209 55 157V5Z" fill="white"/>
<path d="M80.1378 48V34.9091H85.3793C86.3423 34.9091 87.1456 35.0518 87.7891 35.3374C88.4325 35.6229 88.9162 36.0192 89.2401 36.5263C89.5639 37.0291 89.7259 37.6087 89.7259 38.2649C89.7259 38.7763 89.6236 39.2259 89.419 39.6136C89.2145 39.9972 88.9332 40.3125 88.5753 40.5597C88.2216 40.8026 87.8168 40.9751 87.3608 41.0774V41.2053C87.8594 41.2266 88.326 41.3672 88.7607 41.6271C89.1996 41.8871 89.5554 42.2514 89.8281 42.7202C90.1009 43.1847 90.2372 43.7386 90.2372 44.3821C90.2372 45.0767 90.0646 45.6967 89.7195 46.2422C89.3786 46.7834 88.8736 47.2116 88.2045 47.527C87.5355 47.8423 86.7109 48 85.7308 48H80.1378ZM82.9055 45.7372H85.1619C85.9332 45.7372 86.4957 45.5902 86.8494 45.2962C87.2031 44.9979 87.38 44.6016 87.38 44.1072C87.38 43.745 87.2926 43.4254 87.1179 43.1484C86.9432 42.8714 86.6939 42.6541 86.37 42.4964C86.0504 42.3388 85.669 42.2599 85.2259 42.2599H82.9055V45.7372ZM82.9055 40.3871H84.9574C85.3366 40.3871 85.6733 40.321 85.9673 40.1889C86.2656 40.0526 86.5 39.8608 86.6705 39.6136C86.8452 39.3665 86.9325 39.0703 86.9325 38.7251C86.9325 38.2521 86.7642 37.8707 86.4276 37.581C86.0952 37.2912 85.6222 37.1463 85.0085 37.1463H82.9055V40.3871ZM94.7868 48.1854C94.1603 48.1854 93.6021 48.0767 93.112 47.8594C92.622 47.6378 92.2342 47.3118 91.9487 46.8814C91.6674 46.4467 91.5268 45.9055 91.5268 45.2578C91.5268 44.7124 91.627 44.2543 91.8272 43.8835C92.0275 43.5128 92.3002 43.2145 92.6454 42.9886C92.9906 42.7628 93.3826 42.5923 93.8216 42.4773C94.2647 42.3622 94.7292 42.2812 95.215 42.2344C95.786 42.1747 96.2463 42.1193 96.5957 42.0682C96.9451 42.0128 97.1987 41.9318 97.3564 41.8253C97.514 41.7187 97.5929 41.5611 97.5929 41.3523V41.3139C97.5929 40.9091 97.465 40.5959 97.2093 40.3743C96.9579 40.1527 96.6 40.0419 96.1355 40.0419C95.6454 40.0419 95.2555 40.1506 94.9657 40.3679C94.676 40.581 94.4842 40.8494 94.3904 41.1733L91.872 40.9688C91.9998 40.3722 92.2512 39.8565 92.6262 39.4219C93.0012 38.983 93.4849 38.6463 94.0772 38.4119C94.6738 38.1733 95.3642 38.054 96.1483 38.054C96.6937 38.054 97.2157 38.1179 97.7143 38.2457C98.2172 38.3736 98.6625 38.5717 99.0502 38.8402C99.4423 39.1087 99.7512 39.4538 99.9771 39.8757C100.203 40.2933 100.316 40.794 100.316 41.3778V48H97.7335V46.6385H97.6568C97.4991 46.9453 97.2882 47.2159 97.024 47.4503C96.7598 47.6804 96.4423 47.8615 96.0716 47.9936C95.7008 48.1214 95.2725 48.1854 94.7868 48.1854ZM95.5666 46.3061C95.9672 46.3061 96.3208 46.2273 96.6277 46.0696C96.9345 45.9077 97.1752 45.6903 97.35 45.4176C97.5247 45.1449 97.612 44.8359 97.612 44.4908V43.4489C97.5268 43.5043 97.4096 43.5554 97.2605 43.6023C97.1156 43.6449 96.9515 43.6854 96.7683 43.7237C96.585 43.7578 96.4018 43.7898 96.2186 43.8196C96.0353 43.8452 95.8691 43.8686 95.72 43.8899C95.4004 43.9368 95.1213 44.0114 94.8826 44.1136C94.644 44.2159 94.4586 44.3544 94.3265 44.5291C94.1944 44.6996 94.1284 44.9126 94.1284 45.1683C94.1284 45.5391 94.2626 45.8224 94.5311 46.0185C94.8038 46.2102 95.149 46.3061 95.5666 46.3061ZM110.597 40.9815L108.105 41.1349C108.062 40.9219 107.97 40.7301 107.83 40.5597C107.689 40.3849 107.504 40.2464 107.274 40.1442C107.048 40.0376 106.777 39.9844 106.462 39.9844C106.04 39.9844 105.684 40.0739 105.394 40.2528C105.105 40.4276 104.96 40.6619 104.96 40.956C104.96 41.1903 105.053 41.3885 105.241 41.5504C105.428 41.7124 105.75 41.8423 106.206 41.9403L107.983 42.2983C108.938 42.4943 109.649 42.8097 110.118 43.2443C110.587 43.679 110.821 44.25 110.821 44.9574C110.821 45.6009 110.632 46.1655 110.252 46.6513C109.877 47.1371 109.362 47.5163 108.705 47.7891C108.053 48.0575 107.301 48.1918 106.449 48.1918C105.149 48.1918 104.114 47.9212 103.343 47.38C102.575 46.8345 102.126 46.093 101.994 45.1555L104.672 45.0149C104.753 45.4112 104.949 45.7138 105.26 45.9226C105.571 46.1271 105.97 46.2294 106.455 46.2294C106.933 46.2294 107.316 46.1378 107.606 45.9545C107.9 45.767 108.049 45.5263 108.053 45.2322C108.049 44.9851 107.945 44.7827 107.74 44.625C107.536 44.4631 107.22 44.3395 106.794 44.2543L105.094 43.9155C104.135 43.7237 103.421 43.3913 102.953 42.9183C102.488 42.4453 102.256 41.8423 102.256 41.1094C102.256 40.4787 102.426 39.9354 102.767 39.4794C103.112 39.0234 103.596 38.6719 104.218 38.4247C104.845 38.1776 105.578 38.054 106.417 38.054C107.657 38.054 108.633 38.3161 109.345 38.8402C110.061 39.3643 110.478 40.0781 110.597 40.9815ZM112.536 48V38.1818H115.259V48H112.536ZM113.904 36.9162C113.499 36.9162 113.152 36.782 112.862 36.5135C112.576 36.2408 112.434 35.9148 112.434 35.5355C112.434 35.1605 112.576 34.8388 112.862 34.5703C113.152 34.2976 113.499 34.1612 113.904 34.1612C114.309 34.1612 114.654 34.2976 114.939 34.5703C115.229 34.8388 115.374 35.1605 115.374 35.5355C115.374 35.9148 115.229 36.2408 114.939 36.5135C114.654 36.782 114.309 36.9162 113.904 36.9162ZM121.876 48.1918C120.871 48.1918 120.006 47.9787 119.281 47.5526C118.561 47.1222 118.007 46.5256 117.619 45.7628C117.236 45 117.044 44.1222 117.044 43.1293C117.044 42.1236 117.238 41.2415 117.626 40.483C118.018 39.7202 118.574 39.1257 119.294 38.6996C120.014 38.2692 120.871 38.054 121.863 38.054C122.72 38.054 123.47 38.2095 124.113 38.5206C124.757 38.8317 125.266 39.2685 125.641 39.831C126.016 40.3935 126.223 41.054 126.261 41.8125H123.692C123.619 41.3224 123.427 40.9283 123.116 40.63C122.809 40.3274 122.407 40.1761 121.908 40.1761C121.486 40.1761 121.118 40.2912 120.802 40.5213C120.491 40.7472 120.248 41.0774 120.074 41.5121C119.899 41.9467 119.812 42.473 119.812 43.0909C119.812 43.7173 119.897 44.25 120.067 44.6889C120.242 45.1278 120.487 45.4624 120.802 45.6925C121.118 45.9226 121.486 46.0376 121.908 46.0376C122.219 46.0376 122.498 45.9737 122.746 45.8459C122.997 45.718 123.204 45.5327 123.366 45.2898C123.532 45.0426 123.64 44.7464 123.692 44.4013H126.261C126.219 45.1513 126.014 45.8118 125.648 46.3828C125.285 46.9496 124.785 47.3928 124.145 47.7124C123.506 48.032 122.75 48.1918 121.876 48.1918ZM132.171 51.6818V38.1818H134.855V39.831H134.977C135.096 39.5668 135.269 39.2983 135.494 39.0256C135.725 38.7486 136.023 38.5185 136.389 38.3352C136.76 38.1477 137.22 38.054 137.77 38.054C138.486 38.054 139.146 38.2415 139.752 38.6165C140.357 38.9872 140.84 39.5476 141.203 40.2976C141.565 41.0433 141.746 41.9787 141.746 43.1037C141.746 44.1989 141.569 45.1236 141.215 45.8778C140.866 46.6278 140.389 47.1967 139.784 47.5845C139.183 47.968 138.509 48.1598 137.764 48.1598C137.235 48.1598 136.786 48.0724 136.415 47.8977C136.048 47.723 135.748 47.5036 135.514 47.2393C135.279 46.9709 135.1 46.7003 134.977 46.4276H134.894V51.6818H132.171ZM134.836 43.0909C134.836 43.6747 134.917 44.1839 135.079 44.6186C135.241 45.0533 135.475 45.392 135.782 45.6349C136.089 45.8736 136.462 45.9929 136.901 45.9929C137.344 45.9929 137.719 45.8714 138.026 45.6286C138.333 45.3814 138.565 45.0405 138.722 44.6058C138.884 44.1669 138.965 43.6619 138.965 43.0909C138.965 42.5241 138.887 42.0256 138.729 41.5952C138.571 41.1648 138.339 40.8281 138.032 40.5852C137.725 40.3423 137.348 40.2209 136.901 40.2209C136.458 40.2209 136.083 40.3381 135.776 40.5724C135.473 40.8068 135.241 41.1392 135.079 41.5696C134.917 42 134.836 42.5071 134.836 43.0909ZM146.284 34.9091V48H143.561V34.9091H146.284ZM151.265 48.1854C150.639 48.1854 150.081 48.0767 149.591 47.8594C149.1 47.6378 148.713 47.3118 148.427 46.8814C148.146 46.4467 148.005 45.9055 148.005 45.2578C148.005 44.7124 148.105 44.2543 148.306 43.8835C148.506 43.5128 148.779 43.2145 149.124 42.9886C149.469 42.7628 149.861 42.5923 150.3 42.4773C150.743 42.3622 151.208 42.2812 151.694 42.2344C152.265 42.1747 152.725 42.1193 153.074 42.0682C153.424 42.0128 153.677 41.9318 153.835 41.8253C153.993 41.7187 154.071 41.5611 154.071 41.3523V41.3139C154.071 40.9091 153.944 40.5959 153.688 40.3743C153.436 40.1527 153.078 40.0419 152.614 40.0419C152.124 40.0419 151.734 40.1506 151.444 40.3679C151.154 40.581 150.963 40.8494 150.869 41.1733L148.35 40.9688C148.478 40.3722 148.73 39.8565 149.105 39.4219C149.48 38.983 149.963 38.6463 150.556 38.4119C151.152 38.1733 151.843 38.054 152.627 38.054C153.172 38.054 153.694 38.1179 154.193 38.2457C154.696 38.3736 155.141 38.5717 155.529 38.8402C155.921 39.1087 156.23 39.4538 156.456 39.8757C156.681 40.2933 156.794 40.794 156.794 41.3778V48H154.212V46.6385H154.135C153.978 46.9453 153.767 47.2159 153.502 47.4503C153.238 47.6804 152.921 47.8615 152.55 47.9936C152.179 48.1214 151.751 48.1854 151.265 48.1854ZM152.045 46.3061C152.446 46.3061 152.799 46.2273 153.106 46.0696C153.413 45.9077 153.654 45.6903 153.828 45.4176C154.003 45.1449 154.091 44.8359 154.091 44.4908V43.4489C154.005 43.5043 153.888 43.5554 153.739 43.6023C153.594 43.6449 153.43 43.6854 153.247 43.7237C153.064 43.7578 152.88 43.7898 152.697 43.8196C152.514 43.8452 152.348 43.8686 152.199 43.8899C151.879 43.9368 151.6 44.0114 151.361 44.1136C151.123 44.2159 150.937 44.3544 150.805 44.5291C150.673 44.6996 150.607 44.9126 150.607 45.1683C150.607 45.5391 150.741 45.8224 151.01 46.0185C151.282 46.2102 151.627 46.3061 152.045 46.3061ZM161.63 42.3239V48H158.907V38.1818H161.502V39.9141H161.617C161.835 39.343 162.199 38.8913 162.71 38.5589C163.222 38.2223 163.842 38.054 164.57 38.054C165.252 38.054 165.847 38.2031 166.354 38.5014C166.861 38.7997 167.255 39.2259 167.536 39.7798C167.817 40.3295 167.958 40.9858 167.958 41.7486V48H165.235V42.2344C165.239 41.6335 165.086 41.1648 164.775 40.8281C164.464 40.4872 164.036 40.3168 163.49 40.3168C163.124 40.3168 162.8 40.3956 162.518 40.5533C162.241 40.7109 162.024 40.9411 161.866 41.2436C161.713 41.5419 161.634 41.902 161.63 42.3239Z" fill="#344054"/>
<path fill-rule="evenodd" clip-rule="evenodd" d="M442.614 34.6139C442.755 34.4732 442.945 34.3942 443.144 34.3942C443.343 34.3942 443.534 34.4732 443.675 34.6139L448.978 39.9172L454.281 34.6139C454.422 34.4732 454.613 34.3942 454.812 34.3942C455.01 34.3942 455.201 34.4732 455.342 34.6139C455.483 34.7545 455.562 34.9453 455.562 35.1442C455.562 35.3431 455.483 35.5339 455.342 35.6745L450.039 40.9778L455.342 46.2811C455.483 46.4218 455.562 46.6126 455.562 46.8115C455.562 47.0104 455.483 47.2012 455.342 47.3418C455.201 47.4825 455.01 47.5615 454.812 47.5615C454.613 47.5615 454.422 47.4825 454.281 47.3418L448.978 42.0385L443.675 47.3418C443.534 47.4825 443.343 47.5615 443.144 47.5615C442.945 47.5615 442.755 47.4825 442.614 47.3418C442.473 47.2012 442.394 47.0104 442.394 46.8115C442.394 46.6126 442.473 46.4218 442.614 46.2811L447.917 40.9778L442.614 35.6745C442.473 35.5339 442.394 35.3431 442.394 35.1442C442.394 34.9453 442.473 34.7545 442.614 34.6139Z" fill="#344054"/>
<path d="M88.0455 83.3636H89.4545V91.0682C89.4545 91.8636 89.267 92.5739 88.892 93.1989C88.5208 93.8201 87.9962 94.3106 87.3182 94.6705C86.6402 95.0265 85.8447 95.2045 84.9318 95.2045C84.0189 95.2045 83.2235 95.0265 82.5455 94.6705C81.8674 94.3106 81.3409 93.8201 80.9659 93.1989C80.5947 92.5739 80.4091 91.8636 80.4091 91.0682V83.3636H81.8182V90.9545C81.8182 91.5227 81.9432 92.0284 82.1932 92.4716C82.4432 92.911 82.7992 93.2576 83.2614 93.5114C83.7273 93.7614 84.2841 93.8864 84.9318 93.8864C85.5795 93.8864 86.1364 93.7614 86.6023 93.5114C87.0682 93.2576 87.4242 92.911 87.6705 92.4716C87.9205 92.0284 88.0455 91.5227 88.0455 90.9545V83.3636ZM93.4276 89.75V95H92.0866V86.2727H93.3821V87.6364H93.4957C93.7003 87.1932 94.0109 86.8371 94.4276 86.5682C94.8442 86.2955 95.3821 86.1591 96.0412 86.1591C96.6321 86.1591 97.1491 86.2803 97.5923 86.5227C98.0355 86.7614 98.3802 87.125 98.6264 87.6136C98.8726 88.0985 98.9957 88.7121 98.9957 89.4545V95H97.6548V89.5455C97.6548 88.8598 97.4768 88.3258 97.1207 87.9432C96.7647 87.5568 96.276 87.3636 95.6548 87.3636C95.2268 87.3636 94.8442 87.4564 94.5071 87.642C94.1738 87.8277 93.9105 88.0985 93.7173 88.4545C93.5241 88.8106 93.4276 89.2424 93.4276 89.75ZM101.446 95V86.2727H102.787V95H101.446ZM102.128 84.8182C101.866 84.8182 101.641 84.7292 101.452 84.5511C101.266 84.3731 101.173 84.1591 101.173 83.9091C101.173 83.6591 101.266 83.4451 101.452 83.267C101.641 83.089 101.866 83 102.128 83C102.389 83 102.613 83.089 102.798 83.267C102.988 83.4451 103.082 83.6591 103.082 83.9091C103.082 84.1591 102.988 84.3731 102.798 84.5511C102.613 84.7292 102.389 84.8182 102.128 84.8182ZM109.038 86.2727V87.4091H104.516V86.2727H109.038ZM105.834 84.1818H107.175V92.5C107.175 92.8788 107.23 93.1629 107.339 93.3523C107.453 93.5379 107.597 93.6629 107.771 93.7273C107.949 93.7879 108.137 93.8182 108.334 93.8182C108.482 93.8182 108.603 93.8106 108.697 93.7955C108.792 93.7765 108.868 93.7614 108.925 93.75L109.197 94.9545C109.107 94.9886 108.98 95.0227 108.817 95.0568C108.654 95.0947 108.447 95.1136 108.197 95.1136C107.819 95.1136 107.447 95.0322 107.084 94.8693C106.724 94.7064 106.425 94.4583 106.186 94.125C105.951 93.7917 105.834 93.3712 105.834 92.8636V84.1818ZM115.737 95V83.3636H119.669C120.582 83.3636 121.328 83.5284 121.908 83.858C122.491 84.1837 122.923 84.625 123.203 85.1818C123.483 85.7386 123.624 86.3598 123.624 87.0455C123.624 87.7311 123.483 88.3542 123.203 88.9148C122.927 89.4754 122.499 89.9223 121.919 90.2557C121.339 90.5852 120.597 90.75 119.692 90.75H116.874V89.5H119.646C120.271 89.5 120.773 89.392 121.152 89.1761C121.531 88.9602 121.805 88.6686 121.976 88.3011C122.15 87.9299 122.237 87.5114 122.237 87.0455C122.237 86.5795 122.15 86.1629 121.976 85.7955C121.805 85.428 121.529 85.1402 121.146 84.9318C120.764 84.7197 120.256 84.6136 119.624 84.6136H117.146V95H115.737ZM125.712 95V86.2727H127.007V87.5909H127.098C127.257 87.1591 127.545 86.8087 127.962 86.5398C128.378 86.2708 128.848 86.1364 129.371 86.1364C129.469 86.1364 129.592 86.1383 129.74 86.142C129.888 86.1458 130 86.1515 130.075 86.1591V87.5227C130.03 87.5114 129.926 87.4943 129.763 87.4716C129.604 87.4451 129.435 87.4318 129.257 87.4318C128.833 87.4318 128.454 87.5208 128.121 87.6989C127.791 87.8731 127.53 88.1155 127.337 88.4261C127.147 88.733 127.053 89.0833 127.053 89.4773V95H125.712ZM131.665 95V86.2727H133.006V95H131.665ZM132.347 84.8182C132.085 84.8182 131.86 84.7292 131.67 84.5511C131.485 84.3731 131.392 84.1591 131.392 83.9091C131.392 83.6591 131.485 83.4451 131.67 83.267C131.86 83.089 132.085 83 132.347 83C132.608 83 132.831 83.089 133.017 83.267C133.206 83.4451 133.301 83.6591 133.301 83.9091C133.301 84.1591 133.206 84.3731 133.017 84.5511C132.831 84.7292 132.608 84.8182 132.347 84.8182ZM139.007 95.1818C138.189 95.1818 137.484 94.9886 136.893 94.6023C136.303 94.2159 135.848 93.6837 135.53 93.0057C135.212 92.3277 135.053 91.553 135.053 90.6818C135.053 89.7955 135.215 89.0133 135.541 88.3352C135.871 87.6534 136.329 87.1212 136.916 86.7386C137.507 86.3523 138.196 86.1591 138.984 86.1591C139.598 86.1591 140.151 86.2727 140.643 86.5C141.136 86.7273 141.539 87.0455 141.854 87.4545C142.168 87.8636 142.363 88.3409 142.439 88.8864H141.098C140.996 88.4886 140.768 88.1364 140.416 87.8295C140.068 87.5189 139.598 87.3636 139.007 87.3636C138.484 87.3636 138.026 87.5 137.632 87.7727C137.242 88.0417 136.937 88.4223 136.717 88.9148C136.501 89.4034 136.393 89.9773 136.393 90.6364C136.393 91.3106 136.5 91.8977 136.712 92.3977C136.928 92.8977 137.231 93.286 137.621 93.5625C138.015 93.839 138.477 93.9773 139.007 93.9773C139.356 93.9773 139.672 93.9167 139.956 93.7955C140.24 93.6742 140.481 93.5 140.678 93.2727C140.875 93.0455 141.015 92.7727 141.098 92.4545H142.439C142.363 92.9697 142.176 93.4337 141.876 93.8466C141.581 94.2557 141.189 94.5814 140.7 94.8239C140.215 95.0625 139.651 95.1818 139.007 95.1818ZM148.058 95.1818C147.217 95.1818 146.492 94.9962 145.882 94.625C145.276 94.25 144.808 93.7273 144.479 93.0568C144.153 92.3826 143.99 91.5985 143.99 90.7045C143.99 89.8106 144.153 89.0227 144.479 88.3409C144.808 87.6553 145.267 87.1212 145.854 86.7386C146.445 86.3523 147.134 86.1591 147.922 86.1591C148.376 86.1591 148.825 86.2348 149.268 86.3864C149.712 86.5379 150.115 86.7841 150.479 87.125C150.842 87.4621 151.132 87.9091 151.348 88.4659C151.564 89.0227 151.672 89.7083 151.672 90.5227V91.0909H144.945V89.9318H150.308C150.308 89.4394 150.21 89 150.013 88.6136C149.82 88.2273 149.543 87.9223 149.183 87.6989C148.827 87.4754 148.407 87.3636 147.922 87.3636C147.388 87.3636 146.926 87.4962 146.536 87.7614C146.149 88.0227 145.852 88.3636 145.643 88.7841C145.435 89.2045 145.331 89.6553 145.331 90.1364V90.9091C145.331 91.5682 145.445 92.1269 145.672 92.5852C145.903 93.0398 146.223 93.3864 146.632 93.625C147.041 93.8598 147.517 93.9773 148.058 93.9773C148.411 93.9773 148.729 93.928 149.013 93.8295C149.301 93.7273 149.549 93.5758 149.757 93.375C149.965 93.1705 150.126 92.9167 150.24 92.6136L151.536 92.9773C151.399 93.4167 151.17 93.803 150.848 94.1364C150.526 94.4659 150.128 94.7235 149.655 94.9091C149.181 95.0909 148.649 95.1818 148.058 95.1818ZM157.825 82.8182L154.075 96.75H152.848L156.598 82.8182H157.825ZM163.915 95V86.2727H165.21V87.6364H165.324C165.506 87.1705 165.799 86.8087 166.205 86.5511C166.61 86.2898 167.097 86.1591 167.665 86.1591C168.241 86.1591 168.72 86.2898 169.102 86.5511C169.489 86.8087 169.79 87.1705 170.006 87.6364H170.097C170.32 87.1856 170.655 86.8277 171.102 86.5625C171.549 86.2936 172.085 86.1591 172.71 86.1591C173.491 86.1591 174.129 86.4034 174.625 86.892C175.121 87.3769 175.369 88.1326 175.369 89.1591V95H174.028V89.1591C174.028 88.5152 173.852 88.0549 173.5 87.7784C173.148 87.5019 172.733 87.3636 172.256 87.3636C171.642 87.3636 171.167 87.5492 170.83 87.9205C170.492 88.2879 170.324 88.7538 170.324 89.3182V95H168.96V89.0227C168.96 88.5265 168.799 88.1269 168.477 87.8239C168.155 87.517 167.741 87.3636 167.233 87.3636C166.884 87.3636 166.559 87.4564 166.256 87.642C165.956 87.8277 165.714 88.0852 165.528 88.4148C165.347 88.7405 165.256 89.1174 165.256 89.5455V95H163.915ZM181.366 95.1818C180.579 95.1818 179.887 94.9943 179.293 94.6193C178.702 94.2443 178.24 93.7197 177.906 93.0455C177.577 92.3712 177.412 91.5833 177.412 90.6818C177.412 89.7727 177.577 88.9792 177.906 88.3011C178.24 87.6231 178.702 87.0966 179.293 86.7216C179.887 86.3466 180.579 86.1591 181.366 86.1591C182.154 86.1591 182.844 86.3466 183.435 86.7216C184.029 87.0966 184.491 87.6231 184.821 88.3011C185.154 88.9792 185.321 89.7727 185.321 90.6818C185.321 91.5833 185.154 92.3712 184.821 93.0455C184.491 93.7197 184.029 94.2443 183.435 94.6193C182.844 94.9943 182.154 95.1818 181.366 95.1818ZM181.366 93.9773C181.965 93.9773 182.457 93.8239 182.844 93.517C183.23 93.2102 183.516 92.8068 183.702 92.3068C183.887 91.8068 183.98 91.2652 183.98 90.6818C183.98 90.0985 183.887 89.5549 183.702 89.0511C183.516 88.5473 183.23 88.1402 182.844 87.8295C182.457 87.5189 181.965 87.3636 181.366 87.3636C180.768 87.3636 180.276 87.5189 179.889 87.8295C179.503 88.1402 179.217 88.5473 179.031 89.0511C178.846 89.5549 178.753 90.0985 178.753 90.6818C178.753 91.2652 178.846 91.8068 179.031 92.3068C179.217 92.8068 179.503 93.2102 179.889 93.517C180.276 93.8239 180.768 93.9773 181.366 93.9773ZM188.709 89.75V95H187.368V86.2727H188.663V87.6364H188.777C188.982 87.1932 189.292 86.8371 189.709 86.5682C190.125 86.2955 190.663 86.1591 191.322 86.1591C191.913 86.1591 192.43 86.2803 192.874 86.5227C193.317 86.7614 193.661 87.125 193.908 87.6136C194.154 88.0985 194.277 88.7121 194.277 89.4545V95H192.936V89.5455C192.936 88.8598 192.758 88.3258 192.402 87.9432C192.046 87.5568 191.557 87.3636 190.936 87.3636C190.508 87.3636 190.125 87.4564 189.788 87.642C189.455 87.8277 189.192 88.0985 188.999 88.4545C188.805 88.8106 188.709 89.2424 188.709 89.75ZM200.523 86.2727V87.4091H196V86.2727H200.523ZM197.318 84.1818H198.659V92.5C198.659 92.8788 198.714 93.1629 198.824 93.3523C198.938 93.5379 199.081 93.6629 199.256 93.7273C199.434 93.7879 199.621 93.8182 199.818 93.8182C199.966 93.8182 200.087 93.8106 200.182 93.7955C200.277 93.7765 200.352 93.7614 200.409 93.75L200.682 94.9545C200.591 94.9886 200.464 95.0227 200.301 95.0568C200.138 95.0947 199.932 95.1136 199.682 95.1136C199.303 95.1136 198.932 95.0322 198.568 94.8693C198.208 94.7064 197.909 94.4583 197.67 94.125C197.436 93.7917 197.318 93.3712 197.318 92.8636V84.1818ZM204.068 89.75V95H202.727V83.3636H204.068V87.6364H204.182C204.386 87.1856 204.693 86.8277 205.102 86.5625C205.515 86.2936 206.064 86.1591 206.75 86.1591C207.345 86.1591 207.866 86.2784 208.312 86.517C208.759 86.7519 209.106 87.1136 209.352 87.6023C209.602 88.0871 209.727 88.7045 209.727 89.4545V95H208.386V89.5455C208.386 88.8523 208.206 88.3163 207.847 87.9375C207.491 87.5549 206.996 87.3636 206.364 87.3636C205.924 87.3636 205.53 87.4564 205.182 87.642C204.837 87.8277 204.564 88.0985 204.364 88.4545C204.167 88.8106 204.068 89.2424 204.068 89.75ZM83.8523 128.455V113.909H84.7841V128.455H83.8523ZM86.3239 118.71C86.2784 118.252 86.0833 117.896 85.7386 117.642C85.3939 117.388 84.9261 117.261 84.3352 117.261C83.9337 117.261 83.5947 117.318 83.3182 117.432C83.0417 117.542 82.8295 117.695 82.6818 117.892C82.5379 118.089 82.4659 118.312 82.4659 118.562C82.4583 118.771 82.5019 118.953 82.5966 119.108C82.6951 119.263 82.8295 119.398 83 119.511C83.1705 119.621 83.3674 119.718 83.5909 119.801C83.8144 119.881 84.053 119.949 84.3068 120.006L85.3523 120.256C85.8598 120.369 86.3258 120.521 86.75 120.71C87.1742 120.9 87.5417 121.133 87.8523 121.409C88.1629 121.686 88.4034 122.011 88.5739 122.386C88.7481 122.761 88.8371 123.191 88.8409 123.676C88.8371 124.388 88.6553 125.006 88.2955 125.528C87.9394 126.047 87.4242 126.451 86.75 126.739C86.0795 127.023 85.2708 127.165 84.3239 127.165C83.3845 127.165 82.5663 127.021 81.8693 126.733C81.1761 126.445 80.6345 126.019 80.2443 125.455C79.858 124.886 79.6553 124.184 79.6364 123.347H82.017C82.0436 123.737 82.1553 124.062 82.3523 124.324C82.553 124.581 82.8201 124.777 83.1534 124.909C83.4905 125.038 83.8712 125.102 84.2955 125.102C84.7121 125.102 85.0739 125.042 85.3807 124.92C85.6913 124.799 85.9318 124.631 86.1023 124.415C86.2727 124.199 86.358 123.951 86.358 123.67C86.358 123.409 86.2803 123.189 86.125 123.011C85.9735 122.833 85.75 122.682 85.4545 122.557C85.1629 122.432 84.8049 122.318 84.3807 122.216L83.1136 121.898C82.1326 121.659 81.358 121.286 80.7898 120.778C80.2216 120.271 79.9394 119.587 79.9432 118.727C79.9394 118.023 80.1269 117.407 80.5057 116.881C80.8883 116.354 81.4129 115.943 82.0795 115.648C82.7462 115.352 83.5038 115.205 84.3523 115.205C85.2159 115.205 85.9697 115.352 86.6136 115.648C87.2614 115.943 87.7652 116.354 88.125 116.881C88.4848 117.407 88.6705 118.017 88.6818 118.71H86.3239ZM94.6776 127.159C93.8745 127.159 93.1586 127.011 92.5298 126.716C91.9048 126.42 91.4086 126.013 91.0412 125.494C90.6738 124.975 90.4825 124.381 90.4673 123.71H92.8537C92.8802 124.161 93.0696 124.527 93.4219 124.807C93.7741 125.087 94.1927 125.227 94.6776 125.227C95.0639 125.227 95.4048 125.142 95.7003 124.972C95.9995 124.797 96.2325 124.557 96.3991 124.25C96.5696 123.939 96.6548 123.583 96.6548 123.182C96.6548 122.773 96.5677 122.413 96.3935 122.102C96.223 121.792 95.9863 121.549 95.6832 121.375C95.3802 121.201 95.0336 121.112 94.6435 121.108C94.3026 121.108 93.9711 121.178 93.6491 121.318C93.331 121.458 93.0829 121.65 92.9048 121.892L90.7173 121.5L91.2685 115.364H98.3821V117.375H93.2969L92.9957 120.29H93.0639C93.2685 120.002 93.5772 119.763 93.9901 119.574C94.4029 119.384 94.8651 119.29 95.3764 119.29C96.0772 119.29 96.7022 119.455 97.2514 119.784C97.8007 120.114 98.2344 120.566 98.5526 121.142C98.8707 121.714 99.0279 122.373 99.0241 123.119C99.0279 123.903 98.8461 124.6 98.4787 125.21C98.1151 125.816 97.6056 126.294 96.9503 126.642C96.2988 126.987 95.5412 127.159 94.6776 127.159ZM105.303 127.256C104.325 127.252 103.484 127.011 102.78 126.534C102.079 126.057 101.539 125.366 101.161 124.46C100.786 123.555 100.6 122.466 100.604 121.193C100.604 119.924 100.791 118.843 101.166 117.949C101.545 117.055 102.085 116.375 102.786 115.909C103.49 115.439 104.329 115.205 105.303 115.205C106.276 115.205 107.113 115.439 107.814 115.909C108.518 116.379 109.06 117.061 109.439 117.955C109.818 118.845 110.005 119.924 110.001 121.193C110.001 122.47 109.812 123.561 109.433 124.466C109.058 125.371 108.52 126.062 107.82 126.54C107.119 127.017 106.28 127.256 105.303 127.256ZM105.303 125.216C105.969 125.216 106.501 124.881 106.899 124.21C107.297 123.54 107.494 122.534 107.49 121.193C107.49 120.311 107.399 119.576 107.217 118.989C107.039 118.402 106.786 117.96 106.456 117.665C106.13 117.369 105.746 117.222 105.303 117.222C104.64 117.222 104.109 117.553 103.712 118.216C103.314 118.879 103.113 119.871 103.109 121.193C103.109 122.087 103.198 122.833 103.376 123.432C103.558 124.027 103.814 124.473 104.143 124.773C104.473 125.068 104.859 125.216 105.303 125.216ZM116.318 127.256C115.341 127.252 114.5 127.011 113.795 126.534C113.095 126.057 112.555 125.366 112.176 124.46C111.801 123.555 111.616 122.466 111.619 121.193C111.619 119.924 111.807 118.843 112.182 117.949C112.561 117.055 113.1 116.375 113.801 115.909C114.506 115.439 115.345 115.205 116.318 115.205C117.292 115.205 118.129 115.439 118.83 115.909C119.534 116.379 120.076 117.061 120.455 117.955C120.833 118.845 121.021 119.924 121.017 121.193C121.017 122.47 120.828 123.561 120.449 124.466C120.074 125.371 119.536 126.062 118.835 126.54C118.134 127.017 117.295 127.256 116.318 127.256ZM116.318 125.216C116.985 125.216 117.517 124.881 117.915 124.21C118.313 123.54 118.509 122.534 118.506 121.193C118.506 120.311 118.415 119.576 118.233 118.989C118.055 118.402 117.801 117.96 117.472 117.665C117.146 117.369 116.761 117.222 116.318 117.222C115.655 117.222 115.125 117.553 114.727 118.216C114.33 118.879 114.129 119.871 114.125 121.193C114.125 122.087 114.214 122.833 114.392 123.432C114.574 124.027 114.83 124.473 115.159 124.773C115.489 125.068 115.875 125.216 116.318 125.216ZM123.74 127.148C123.365 127.148 123.043 127.015 122.774 126.75C122.509 126.481 122.376 126.159 122.376 125.784C122.376 125.413 122.509 125.095 122.774 124.83C123.043 124.564 123.365 124.432 123.74 124.432C124.104 124.432 124.422 124.564 124.695 124.83C124.967 125.095 125.104 125.413 125.104 125.784C125.104 126.034 125.039 126.263 124.911 126.472C124.786 126.676 124.621 126.841 124.416 126.966C124.212 127.087 123.986 127.148 123.74 127.148ZM131.162 127.256C130.185 127.252 129.344 127.011 128.639 126.534C127.938 126.057 127.399 125.366 127.02 124.46C126.645 123.555 126.459 122.466 126.463 121.193C126.463 119.924 126.651 118.843 127.026 117.949C127.404 117.055 127.944 116.375 128.645 115.909C129.349 115.439 130.188 115.205 131.162 115.205C132.135 115.205 132.973 115.439 133.673 115.909C134.378 116.379 134.92 117.061 135.298 117.955C135.677 118.845 135.865 119.924 135.861 121.193C135.861 122.47 135.671 123.561 135.293 124.466C134.918 125.371 134.38 126.062 133.679 126.54C132.978 127.017 132.139 127.256 131.162 127.256ZM131.162 125.216C131.829 125.216 132.361 124.881 132.759 124.21C133.156 123.54 133.353 122.534 133.349 121.193C133.349 120.311 133.259 119.576 133.077 118.989C132.899 118.402 132.645 117.96 132.315 117.665C131.99 117.369 131.605 117.222 131.162 117.222C130.499 117.222 129.969 117.553 129.571 118.216C129.173 118.879 128.973 119.871 128.969 121.193C128.969 122.087 129.058 122.833 129.236 123.432C129.418 124.027 129.673 124.473 130.003 124.773C130.332 125.068 130.719 125.216 131.162 125.216ZM142.178 127.256C141.2 127.252 140.359 127.011 139.655 126.534C138.954 126.057 138.414 125.366 138.036 124.46C137.661 123.555 137.475 122.466 137.479 121.193C137.479 119.924 137.666 118.843 138.041 117.949C138.42 117.055 138.96 116.375 139.661 115.909C140.365 115.439 141.204 115.205 142.178 115.205C143.151 115.205 143.988 115.439 144.689 115.909C145.393 116.379 145.935 117.061 146.314 117.955C146.693 118.845 146.88 119.924 146.876 121.193C146.876 122.47 146.687 123.561 146.308 124.466C145.933 125.371 145.395 126.062 144.695 126.54C143.994 127.017 143.155 127.256 142.178 127.256ZM142.178 125.216C142.844 125.216 143.376 124.881 143.774 124.21C144.172 123.54 144.369 122.534 144.365 121.193C144.365 120.311 144.274 119.576 144.092 118.989C143.914 118.402 143.661 117.96 143.331 117.665C143.005 117.369 142.621 117.222 142.178 117.222C141.515 117.222 140.984 117.553 140.587 118.216C140.189 118.879 139.988 119.871 139.984 121.193C139.984 122.087 140.073 122.833 140.251 123.432C140.433 124.027 140.689 124.473 141.018 124.773C141.348 125.068 141.734 125.216 142.178 125.216Z" fill="#344054"/>
<path d="M356.681 84V83.5H356.181H323.362C320.877 83.5 318.862 85.5147 318.862 88V122C318.862 124.485 320.877 126.5 323.362 126.5H356.181H356.681V126V84Z" fill="#5925DC"/>
<path fill-rule="evenodd" clip-rule="evenodd" d="M342.579 105C342.579 105.109 342.537 105.214 342.462 105.291C342.387 105.368 342.285 105.412 342.179 105.412L333.365 105.412C333.259 105.412 333.157 105.368 333.082 105.291C333.007 105.214 332.965 105.109 332.965 105C332.965 104.891 333.007 104.786 333.082 104.709C333.157 104.632 333.259 104.588 333.365 104.588L342.179 104.588C342.285 104.588 342.387 104.632 342.462 104.709C342.537 104.786 342.579 104.891 342.579 105Z" fill="white"/>
<path d="M356.681 84V83.5H356.181H323.362C320.877 83.5 318.862 85.5147 318.862 88V122C318.862 124.485 320.877 126.5 323.362 126.5H356.181H356.681V126V84Z" stroke="#98A2B3"/>
<path d="M390.153 111.159C389.304 111.159 388.548 111.013 387.885 110.722C387.226 110.426 386.706 110.021 386.323 109.506C385.944 108.987 385.749 108.388 385.738 107.71H388.215C388.23 107.994 388.323 108.244 388.493 108.46C388.668 108.672 388.899 108.837 389.187 108.955C389.474 109.072 389.798 109.131 390.158 109.131C390.533 109.131 390.865 109.064 391.153 108.932C391.44 108.799 391.666 108.616 391.829 108.381C391.992 108.146 392.073 107.875 392.073 107.568C392.073 107.258 391.986 106.983 391.812 106.744C391.641 106.502 391.395 106.312 391.073 106.176C390.755 106.04 390.376 105.972 389.937 105.972H388.851V104.165H389.937C390.308 104.165 390.635 104.1 390.92 103.972C391.207 103.843 391.431 103.665 391.59 103.438C391.749 103.206 391.829 102.938 391.829 102.631C391.829 102.339 391.759 102.083 391.618 101.864C391.482 101.64 391.289 101.466 391.039 101.341C390.793 101.216 390.505 101.153 390.175 101.153C389.842 101.153 389.537 101.214 389.26 101.335C388.984 101.453 388.762 101.621 388.596 101.841C388.429 102.061 388.34 102.318 388.329 102.614H385.971C385.982 101.943 386.173 101.352 386.545 100.841C386.916 100.33 387.416 99.9299 388.045 99.642C388.677 99.3504 389.391 99.2045 390.187 99.2045C390.99 99.2045 391.692 99.3504 392.295 99.642C392.897 99.9337 393.365 100.328 393.698 100.824C394.035 101.316 394.202 101.869 394.198 102.483C394.202 103.134 393.999 103.678 393.59 104.114C393.185 104.549 392.656 104.826 392.005 104.943V105.034C392.861 105.144 393.512 105.441 393.959 105.926C394.41 106.407 394.634 107.009 394.63 107.733C394.634 108.396 394.442 108.985 394.056 109.5C393.673 110.015 393.145 110.42 392.471 110.716C391.796 111.011 391.024 111.159 390.153 111.159Z" fill="#344054"/>
<rect x="356.682" y="83.5" width="67" height="43" stroke="#98A2B3"/>
<path d="M424.182 83.5H423.682V84V126V126.5H424.182H457.001C459.486 126.5 461.501 124.485 461.501 122V88C461.501 85.5147 459.486 83.5 457.001 83.5H424.182Z" fill="#5925DC"/>
<path d="M449.001 111.588L440.182 111.588C437.973 111.588 436.182 109.797 436.182 107.588L436.182 102.412C436.182 100.203 437.973 98.4118 440.182 98.4118L449.001 98.4118L449.001 111.588Z" fill="#5925DC"/>
<path fill-rule="evenodd" clip-rule="evenodd" d="M442.591 109.941C442.485 109.941 442.383 109.898 442.308 109.821C442.233 109.743 442.191 109.639 442.191 109.529L442.191 105.412L438.185 105.412C438.079 105.412 437.977 105.368 437.902 105.291C437.826 105.214 437.784 105.109 437.784 105C437.784 104.891 437.826 104.786 437.902 104.709C437.977 104.632 438.079 104.588 438.185 104.588L442.191 104.588L442.191 100.471C442.191 100.361 442.233 100.257 442.308 100.179C442.383 100.102 442.485 100.059 442.591 100.059C442.698 100.059 442.799 100.102 442.875 100.179C442.95 100.257 442.992 100.361 442.992 100.471L442.992 104.588L446.998 104.588C447.104 104.588 447.206 104.632 447.281 104.709C447.356 104.786 447.398 104.891 447.398 105C447.398 105.109 447.356 105.214 447.281 105.291C447.206 105.368 447.104 105.412 446.998 105.412L442.992 105.412L442.992 109.529C442.992 109.639 442.95 109.743 442.875 109.821C442.799 109.898 442.698 109.941 442.591 109.941Z" fill="white"/>
<path d="M424.182 83.5H423.682V84V126V126.5H424.182H457.001C459.486 126.5 461.501 124.485 461.501 122V88C461.501 85.5147 459.486 83.5 457.001 83.5H424.182Z" stroke="#98A2B3"/>
<path d="M59 2H481V0H59V2ZM484 5V157H486V5H484ZM481 160H59V162H481V160ZM56 157V5H54V157H56ZM59 160C57.3431 160 56 158.657 56 157H54C54 159.761 56.2386 162 59 162V160ZM484 157C484 158.657 482.657 160 481 160V162C483.761 162 486 159.761 486 157H484ZM481 2C482.657 2 484 3.34314 484 5H486C486 2.23858 483.761 0 481 0V2ZM59 0C56.2386 0 54 2.23857 54 5H56C56 3.34314 57.3431 2 59 2V0Z" fill="#98A2B3"/>
<path d="M24 120H77" stroke="black" stroke-dasharray="2 2"/>
<circle cx="12" cy="120" r="12" fill="#344054"/>
<path d="M8.19318 126V124.227L12.3352 120.392C12.6875 120.051 12.983 119.744 13.2216 119.472C13.464 119.199 13.6477 118.932 13.7727 118.67C13.8977 118.405 13.9602 118.119 13.9602 117.812C13.9602 117.472 13.8826 117.178 13.7273 116.932C13.572 116.682 13.3598 116.491 13.0909 116.358C12.822 116.222 12.517 116.153 12.1761 116.153C11.8201 116.153 11.5095 116.225 11.2443 116.369C10.9792 116.513 10.7746 116.72 10.6307 116.989C10.4867 117.258 10.4148 117.578 10.4148 117.949H8.07955C8.07955 117.187 8.25189 116.527 8.59659 115.966C8.94129 115.405 9.42424 114.972 10.0455 114.665C10.6667 114.358 11.3826 114.205 12.1932 114.205C13.0265 114.205 13.7519 114.352 14.3693 114.648C14.9905 114.939 15.4735 115.345 15.8182 115.864C16.1629 116.383 16.3352 116.977 16.3352 117.648C16.3352 118.087 16.2481 118.521 16.0739 118.949C15.9034 119.377 15.5985 119.852 15.1591 120.375C14.7197 120.894 14.1004 121.517 13.3011 122.244L11.6023 123.909V123.989H16.4886V126H8.19318Z" fill="white"/>
<path d="M515 103L461 103" stroke="black" stroke-dasharray="2 2"/>
<circle cx="515" cy="103" r="12" fill="#344054"/>
<path d="M516.256 97.3636V109H513.795V99.6989H513.727L511.062 101.369V99.1875L513.943 97.3636H516.256Z" fill="white"/>
</svg>
